<svg width="30" height="30" viewBox="0 0 30 30" fill="none" xmlns="http://www.w3.org/2000/svg">
<circle cx="15.5" cy="15.5" r="12.5" fill="#0B2343"/>
<path d="M11.7731 12.4114C12.4298 12.4114 12.9525 12.5772 13.3414 12.9087C13.7366 13.2402 13.9343 13.6801 13.9343 14.2283C13.9343 14.5088 13.896 14.7606 13.8195 14.9837C13.743 15.2005 13.6187 15.3981 13.4466 15.5766C13.2808 15.7551 13.1087 15.9081 12.9302 16.0356C12.7517 16.1631 12.519 16.3097 12.2321 16.4755C11.6393 16.8261 11.244 17.1098 11.0464 17.3266C10.8551 17.5433 10.7531 17.7887 10.7404 18.0629H14.0873V19H9.43988C9.4335 18.949 9.43031 18.8821 9.43031 18.7992C9.43031 18.1426 9.55463 17.6071 9.80325 17.1927C10.0583 16.7783 10.5587 16.3544 11.3046 15.9209C11.8401 15.6085 12.2162 15.3439 12.4329 15.1272C12.6497 14.9041 12.7581 14.6204 12.7581 14.2761C12.7581 14.002 12.6688 13.7821 12.4903 13.6163C12.3182 13.4506 12.0791 13.3677 11.7731 13.3677C11.0591 13.3677 10.6862 13.747 10.6543 14.5056H9.51638C9.5355 13.8362 9.74269 13.3199 10.1379 12.9565C10.5396 12.5931 11.0846 12.4114 11.7731 12.4114ZM19.9018 17.4509H18.9168V19H17.7885V17.4509H14.7189V16.4755L17.406 12.5549H18.9168V16.5424H19.9018V17.4509ZM15.7803 16.5424H17.8171V15.7105C17.8171 15.0411 17.8331 14.2857 17.865 13.4442H17.8458C17.5335 13.9542 17.0713 14.6618 16.4593 15.5671L15.7803 16.5424ZM21.2347 16.312H21.2467C21.4587 16.024 21.7507 15.88 22.1227 15.88C22.4747 15.88 22.7467 15.986 22.9387 16.198C23.1347 16.41 23.2327 16.722 23.2327 17.134V19H22.5487V17.194C22.5487 16.686 22.3427 16.432 21.9307 16.432C21.7267 16.432 21.5587 16.508 21.4267 16.66C21.2987 16.812 21.2347 17.028 21.2347 17.308V19H20.5507V14.728H21.2347V16.312Z" fill="white"/>
</svg>
