<svg width="40" height="40" viewBox="0 0 40 40" fill="none" xmlns="http://www.w3.org/2000/svg">
<path d="M31.1267 23.2006C26.7759 23.2006 23.2533 26.7232 23.2533 31.0608C23.2533 35.4116 26.7759 38.9342 31.1267 38.9342C35.4774 38.9342 39.0001 35.4116 39.0001 31.0608C39.0001 26.7232 35.4774 23.2006 31.1267 23.2006Z" stroke="#0B2343" stroke-miterlimit="10" stroke-linecap="round" stroke-linejoin="round"/>
<path d="M31.1398 27.1176V35.0304" stroke="#0B2343" stroke-miterlimit="10" stroke-linecap="round" stroke-linejoin="round"/>
<path d="M27.1833 31.074H35.0962" stroke="#0B2343" stroke-miterlimit="10" stroke-linecap="round" stroke-linejoin="round"/>
<path d="M23.2664 22.1491C21.5708 21.2553 20.9003 21.0318 20.69 20.3746V18.7841C21.7416 17.7063 22.5829 16.2079 23.0692 14.4597C24.2522 13.6316 24.5414 11.9228 23.5687 10.7267V7.17779C23.5687 3.51055 21.5182 1 16.8125 1C12.2384 1 10.0564 3.51055 10.0564 7.17779V10.7267C9.08372 11.9228 9.3729 13.6316 10.5559 14.4465C11.0554 16.1947 11.8835 17.6932 12.9351 18.771V20.3614C12.4619 21.873 6.80981 24.3047 1.723 26.25C1.28924 26.4209 1 26.8415 1 27.3016V31.2712C1 31.8889 1.49945 32.4015 2.11723 32.4015H19.4282" stroke="#0B2343" stroke-miterlimit="10" stroke-linecap="round" stroke-linejoin="round"/>
</svg>
