<svg width="40" height="40" viewBox="0 0 40 40" fill="none" xmlns="http://www.w3.org/2000/svg">
<path d="M33.5927 38.6956V36.9159C33.5927 36.4132 33.2939 35.9648 32.8455 35.7882C27.6014 33.7096 21.773 31.1147 21.2839 29.5115V27.8133C22.3708 26.6721 23.2266 25.0689 23.7428 23.2077C24.9656 22.3246 25.2645 20.5176 24.2591 19.2406V15.4501C24.2591 11.5373 22.1397 8.8609 17.3031 8.8609C12.5888 8.8609 10.3335 11.5373 10.3335 15.4501V19.2406C9.32817 20.5176 9.62707 22.3246 10.8498 23.2077C11.3525 25.0825 12.2221 26.6721 13.3089 27.8133V29.4979C12.8198 31.1147 6.99147 33.696 1.74729 35.7746C1.29896 35.9513 1 36.3996 1 36.9023V38.682" stroke="#0B2343" stroke-miterlimit="10" stroke-linecap="round" stroke-linejoin="round"/>
<path d="M28.1177 7.43437H39" stroke="#0B2343" stroke-miterlimit="10" stroke-linecap="round" stroke-linejoin="round"/>
<path d="M33.5657 2V12.8688" stroke="#0B2343" stroke-miterlimit="10" stroke-linecap="round" stroke-linejoin="round"/>
</svg>
