<svg width="25" height="25" viewBox="0 0 25 25" fill="none" xmlns="http://www.w3.org/2000/svg">
<g clip-path="url(#clip0_6362_99775)">
<path d="M10.75 4.49988C9.923 4.49988 9.25 5.17288 9.25 5.99988V11.4999H10.25C11.077 11.4999 11.75 12.1729 11.75 12.9999V14.4999H15.75V12.9999C15.75 12.1729 16.423 11.4999 17.25 11.4999H18.25V5.99988C18.25 5.17288 17.577 4.49988 16.75 4.49988H10.75ZM8.75 12.4999C8.474 12.4999 8.25 12.7239 8.25 12.9999V17.4999C8.25 18.0514 8.6985 18.4999 9.25 18.4999H18.25C18.8015 18.4999 19.25 18.0514 19.25 17.4999V12.9999C19.25 12.7239 19.0265 12.4999 18.75 12.4999H17.25C16.9735 12.4999 16.75 12.7239 16.75 12.9999V15.4999H10.75V12.9999C10.75 12.7239 10.526 12.4999 10.25 12.4999H8.75ZM9.75 18.9999C9.75 19.2914 9.47775 20.2546 9.28125 20.8436C9.23025 20.9966 9.24975 21.1668 9.34375 21.2968C9.43725 21.4278 9.589 21.4999 9.75 21.4999H17.75C17.9105 21.4999 18.0622 21.4278 18.1562 21.2968C18.2502 21.1663 18.2697 20.9956 18.2187 20.8436C18.0217 20.2551 17.75 19.2924 17.75 18.9999H9.75Z" fill="#0B2343"/>
<path fill-rule="evenodd" clip-rule="evenodd" d="M-1.5 4.49988H4.5C5.32227 4.49988 6 5.17737 6 5.99988V12.4999H6.5C6.63281 12.4999 6.75977 12.5526 6.85352 12.6464C6.9043 12.6974 6.94336 12.7584 6.96826 12.8248C6.98926 12.8802 7 12.9396 7 12.9999V17.4999C7 18.0465 6.54639 18.4999 6 18.4999H-3C-3.54639 18.4999 -4 18.0465 -4 17.4999V12.9999C-4 12.8673 -3.94727 12.7401 -3.85352 12.6464C-3.75977 12.5526 -3.63281 12.4999 -3.5 12.4999H-3V5.99988C-3 5.17737 -2.32227 4.49988 -1.5 4.49988ZM6 17.4999V13.4999H5.5V15.4999C5.5 15.6324 5.44727 15.7596 5.35352 15.8534C5.25977 15.9471 5.13281 15.9999 5 15.9999H-2C-2.05957 15.9999 -2.11768 15.9894 -2.17236 15.9694C-2.20654 15.9567 -2.23926 15.9406 -2.27002 15.921C-2.2998 15.9017 -2.32812 15.879 -2.35352 15.8534C-2.40771 15.7994 -2.44775 15.7343 -2.47266 15.6632C-2.49072 15.6112 -2.5 15.556 -2.5 15.4999V13.4999H-3V17.4999H6ZM4.5 14.9999V12.9999C4.49951 12.8751 4.5459 12.7545 4.6294 12.662C4.67236 12.6149 4.72315 12.5768 4.7793 12.5492C4.80469 12.5367 4.83106 12.5262 4.8584 12.5182C4.88916 12.5092 4.9209 12.5031 4.95313 12.4999H5V5.99988C5 5.71741 4.78272 5.49988 4.5 5.49988H-1.5C-1.57861 5.49988 -1.65234 5.51672 -1.71777 5.54724C-1.80029 5.58582 -1.86963 5.64587 -1.91846 5.72107C-1.97021 5.80017 -2 5.89563 -2 5.99988V12.4999H-1.95312C-1.82861 12.5116 -1.71338 12.5695 -1.62939 12.662C-1.59228 12.7032 -1.56201 12.7501 -1.54053 12.8007C-1.53174 12.8209 -1.52441 12.8417 -1.51855 12.8629C-1.50635 12.9071 -1.5 12.9532 -1.5 12.9999V14.9999H4.5Z" fill="#0B2343"/>
<path d="M-1.74951 20.2731L-1.76562 20.328L-1.77783 20.3683C-1.78564 20.3915 -1.79248 20.4059 -1.79932 20.4205L-1.81348 20.4554L-1.82812 20.4999H4.82813C4.80225 20.4142 4.79248 20.4225 4.76563 20.328C4.63721 19.8788 4.5 19.4174 4.5 18.9999H5.5C5.5 19.0538 5.54297 19.2787 5.60498 19.5428C5.64307 19.7062 5.68799 19.8844 5.73438 20.0468C5.78662 20.2301 5.8374 20.4037 5.87842 20.5416L5.96875 20.8436C5.99317 20.9183 6 20.9977 5.98828 21.0753C5.97608 21.153 5.94629 21.2267 5.90088 21.2904C5.88916 21.3065 5.87695 21.3221 5.86328 21.3368C5.85254 21.3488 5.84131 21.36 5.8291 21.3707C5.79785 21.399 5.7627 21.4232 5.7251 21.443C5.65576 21.4794 5.57861 21.4989 5.5 21.4999H-2.5C-2.57861 21.4989 -2.65576 21.4794 -2.7251 21.443C-2.74316 21.4337 -2.76025 21.4235 -2.77686 21.4122C-2.79297 21.4012 -2.80811 21.3895 -2.82227 21.3768C-2.85156 21.3514 -2.87793 21.3224 -2.90088 21.2904C-2.94629 21.2267 -2.97607 21.153 -2.98828 21.0753C-3 20.9977 -2.99316 20.9183 -2.96875 20.8436C-2.96875 20.8436 -2.85596 20.4716 -2.73437 20.0468C-2.61279 19.6219 -2.5 19.087 -2.5 18.9999H-1.5C-1.5 19.2047 -1.5332 19.4203 -1.58203 19.6398C-1.62744 19.8461 -1.6875 20.0558 -1.74658 20.2635L-1.74951 20.2731Z" fill="#0B2343"/>
</g>
<defs>
<clipPath id="clip0_6362_99775">
<rect width="25" height="25" fill="white"/>
</clipPath>
</defs>
</svg>
