<svg width="40" height="40" viewBox="0 0 40 40" fill="none" xmlns="http://www.w3.org/2000/svg">
<path d="M20.76 9.61011L21.38 9.89014" stroke="#0B2343" stroke-linecap="round" stroke-linejoin="round"/>
<path d="M24.36 11.25L26.6001 12.26" stroke="#0B2343" stroke-linecap="round" stroke-linejoin="round" stroke-dasharray="0.6 0.6"/>
<path d="M28.1001 12.9399L28.7201 13.22" stroke="#0B2343" stroke-linecap="round" stroke-linejoin="round"/>
<path d="M20.76 9.61011H21.4501" stroke="#0B2343" stroke-linecap="round" stroke-linejoin="round"/>
<path d="M24.48 9.61011H26.75" stroke="#0B2343" stroke-linecap="round" stroke-linejoin="round" stroke-dasharray="0.54 0.54"/>
<path d="M28.26 9.61011H28.9501" stroke="#0B2343" stroke-linecap="round" stroke-linejoin="round"/>
<path d="M20.76 9.61011L21.38 9.33008" stroke="#0B2343" stroke-linecap="round" stroke-linejoin="round"/>
<path d="M24.36 7.97998L26.6001 6.95996" stroke="#0B2343" stroke-linecap="round" stroke-linejoin="round" stroke-dasharray="0.6 0.6"/>
<path d="M28.1001 6.28003L28.7201 6" stroke="#0B2343" stroke-linecap="round" stroke-linejoin="round"/>
<path d="M12.6801 34.49H21.2201C21.6001 34.49 21.9 34.1901 21.9 33.8101V17.24C21.9 16.86 21.6001 16.5601 21.2201 16.5601H12.6801C12.3001 16.5601 12 16.86 12 17.24V33.8101C12.01 34.1801 12.3101 34.49 12.6801 34.49Z" stroke="#0B2343" stroke-miterlimit="10" stroke-linecap="round" stroke-linejoin="round"/>
<path d="M13.24 16.5601H20.66V14.8501C20.66 13.5901 19.63 12.5601 18.37 12.5601H15.5701C14.2901 12.5601 13.24 13.6101 13.24 14.8901V16.5601V16.5601Z" stroke="#0B2343" stroke-miterlimit="10" stroke-linecap="round" stroke-linejoin="round"/>
<path d="M17.05 12.5601V10.5901" stroke="#0B2343" stroke-miterlimit="10" stroke-linecap="round" stroke-linejoin="round"/>
<path d="M15.98 8.63013H17.98V10.5901H15.98V8.63013Z" stroke="#0B2343" stroke-miterlimit="10" stroke-linecap="round" stroke-linejoin="round"/>
</svg>
