<svg width="40" height="40" viewBox="0 0 40 40" fill="none" xmlns="http://www.w3.org/2000/svg">
<path d="M20.9333 8.33337H18.1333C17.8756 8.33337 17.6667 8.54233 17.6667 8.80004V12.0667H17.2C16.9423 12.0667 16.7333 12.2757 16.7333 12.5334V15.3609C14.6092 15.6004 13.003 17.3958 13 19.5334V32.6C13 33.3732 13.6269 34 14.4 34H24.6667C25.4398 34 26.0667 33.3732 26.0667 32.6V19.5334C26.0637 17.3958 24.4575 15.6004 22.3333 15.3609V12.5334C22.3333 12.2757 22.1244 12.0667 21.8667 12.0667H21.4V8.80004C21.4 8.54233 21.191 8.33337 20.9333 8.33337ZM18.6 9.26671H20.4667V10.2H20C19.7423 10.2 19.5333 10.409 19.5333 10.6667C19.5333 10.9244 19.7423 11.1334 20 11.1334H20.4667V12.0667H18.6V9.26671ZM17.6667 13H21.4V15.3334H17.6667V13ZM25.1333 32.6C25.1333 32.8578 24.9244 33.0667 24.6667 33.0667H14.4C14.1423 33.0667 13.9333 32.8578 13.9333 32.6V30.2667H25.1333V32.6ZM25.1333 29.3334H13.9333V20.9334H25.1333V29.3334ZM21.8667 16.2667C23.67 16.2688 25.1313 17.7301 25.1333 19.5334V20H13.9333V19.5334C13.9354 17.7301 15.3967 16.2688 17.2 16.2667H21.8667Z" fill="#0B2343"/>
<path d="M23.7335 10.2C23.4758 10.2 23.2668 10.4089 23.2668 10.6666C23.2668 10.9243 23.4758 11.1333 23.7335 11.1333H24.2001C24.4579 11.1333 24.6668 10.9243 24.6668 10.6666C24.6668 10.4089 24.4579 10.2 24.2001 10.2H23.7335Z" fill="#0B2343"/>
<path d="M26.533 12.5333C26.533 12.2756 26.3241 12.0667 26.0664 12.0667H25.5997C25.342 12.0667 25.133 12.2756 25.133 12.5333C25.133 12.791 25.342 13 25.5997 13H26.0664C26.3241 13 26.533 12.791 26.533 12.5333Z" fill="#0B2343"/>
<path d="M26.0664 8.33337H25.5997C25.342 8.33337 25.133 8.54233 25.133 8.80004C25.133 9.05776 25.342 9.26671 25.5997 9.26671H26.0664C26.3241 9.26671 26.533 9.05776 26.533 8.80004C26.533 8.54233 26.3241 8.33337 26.0664 8.33337Z" fill="#0B2343"/>
<path d="M28.4002 13.4667H28.8668C29.1245 13.4667 29.3335 13.2577 29.3335 13C29.3335 12.7423 29.1245 12.5333 28.8668 12.5333H28.4002C28.1424 12.5333 27.9335 12.7423 27.9335 13C27.9335 13.2577 28.1424 13.4667 28.4002 13.4667Z" fill="#0B2343"/>
<path d="M28.4 10.6666C28.4 10.4089 28.191 10.2 27.9333 10.2H27.4667C27.209 10.2 27 10.4089 27 10.6666C27 10.9243 27.209 11.1333 27.4667 11.1333H27.9333C28.191 11.1333 28.4 10.9243 28.4 10.6666Z" fill="#0B2343"/>
<path d="M28.8668 7.40002H28.4002C28.1424 7.40002 27.9335 7.60898 27.9335 7.86669C27.9335 8.12441 28.1424 8.33336 28.4002 8.33336H28.8668C29.1245 8.33336 29.3335 8.12441 29.3335 7.86669C29.3335 7.60898 29.1245 7.40002 28.8668 7.40002Z" fill="#0B2343"/>
<path d="M30.7335 12.5333H31.2001C31.4579 12.5333 31.6668 12.3244 31.6668 12.0666C31.6668 11.8089 31.4579 11.6 31.2001 11.6H30.7335C30.4758 11.6 30.2668 11.8089 30.2668 12.0666C30.2668 12.3244 30.4758 12.5333 30.7335 12.5333Z" fill="#0B2343"/>
<path d="M31.1999 14.8667H31.6665C31.9242 14.8667 32.1332 14.6577 32.1332 14.4C32.1332 14.1423 31.9242 13.9333 31.6665 13.9333H31.1999C30.9421 13.9333 30.7332 14.1423 30.7332 14.4C30.7332 14.6577 30.9421 14.8667 31.1999 14.8667Z" fill="#0B2343"/>
<path d="M30.7335 9.73338H31.2001C31.4579 9.73338 31.6668 9.52443 31.6668 9.26672C31.6668 9.009 31.4579 8.80005 31.2001 8.80005H30.7335C30.4758 8.80005 30.2668 9.009 30.2668 9.26672C30.2668 9.52443 30.4758 9.73338 30.7335 9.73338Z" fill="#0B2343"/>
<path d="M31.6665 6H31.1999C30.9421 6 30.7332 6.20895 30.7332 6.46667C30.7332 6.72438 30.9421 6.93333 31.1999 6.93333H31.6665C31.9242 6.93333 32.1332 6.72438 32.1332 6.46667C32.1332 6.20895 31.9242 6 31.6665 6Z" fill="#0B2343"/>
</svg>
