<svg width="40" height="40" viewBox="0 0 40 40" fill="none" xmlns="http://www.w3.org/2000/svg">
<path d="M25.94 25.16C23.06 26.97 20.49 25.86 19.28 24.19L15.74 19.72C15.73 19.71 15.73 19.71 15.72 19.7C13.86 16.92 14.85 14.43 17.08 13.47C17.22 13.41 17.38 13.4599 17.47 13.5799L19.62 16.8799C19.7 16.9999 19.68 17.1601 19.58 17.2701C18.52 18.3601 18.95 19.0201 18.97 19.0401C19.18 19.3101 21.15 21.95 21.47 21.98C21.92 22.03 22.55 21.5099 22.74 21.3299C22.87 21.1999 23.08 21.2099 23.2 21.3499L26.01 24.69C26.13 24.83 26.1 25.06 25.94 25.16Z" stroke="#0B2343" stroke-miterlimit="10" stroke-linecap="round" stroke-linejoin="round"/>
<path d="M9.00999 16.97H10.51C11.34 16.97 12.01 16.3 12.01 15.47C12.01 14.64 11.34 13.97 10.51 13.97H9.00999H9V7.01001C9 6.46001 9.49 6 10.03 6H28.96C29.51 6 30.01 6.46001 30.01 7.01001V33.9199C30.01 34.4699 29.5 34.9399 28.96 34.9399H10.03C9.48 34.9399 9 34.4699 9 33.9199L9.00999 28.96H10.51C11.34 28.96 12.01 28.29 12.01 27.46C12.01 26.63 11.34 25.96 10.51 25.96H9.00999V22.96H10.51C11.34 22.96 12.01 22.29 12.01 21.46C12.01 20.63 11.34 19.96 10.51 19.96H9.00999V16.97Z" stroke="#0B2343" stroke-miterlimit="10" stroke-linecap="round" stroke-linejoin="round"/>
</svg>
