<svg width="40" height="40" viewBox="0 0 40 40" fill="none" xmlns="http://www.w3.org/2000/svg">
<path d="M23.73 20.8398C21.95 20.1598 19.97 19.32 19.81 18.79V18.24C20.18 17.87 20.47 17.35 20.64 16.74C21.06 16.45 21.16 15.8599 20.81 15.4399V14.2C20.81 12.93 20.09 12.05 18.45 12.05C16.85 12.05 16.09 12.92 16.09 14.2V15.4399C15.75 15.8499 15.85 16.45 16.26 16.74C16.43 17.35 16.72 17.87 17.09 18.24V18.79C16.92 19.32 14.95 20.1598 13.17 20.8398C13.02 20.8998 12.92 21.04 12.92 21.21V22.5898C12.92 22.8098 13.1 22.98 13.31 22.98H23.59C23.81 22.98 23.98 22.7998 23.98 22.5898V21.21C23.98 21.04 23.88 20.8898 23.73 20.8398Z" stroke="#0B2343" stroke-miterlimit="10" stroke-linecap="round" stroke-linejoin="round"/>
<path d="M32.96 6H8V34.97H28.97V14.97H32.96V6Z" stroke="#0B2343" stroke-linecap="round" stroke-linejoin="round"/>
<path d="M31.67 34.97H32.94V27.97H31.67" stroke="#0B2343" stroke-linecap="round" stroke-linejoin="round"/>
<path d="M31.67 24.97H32.94V17.97H31.67" stroke="#0B2343" stroke-linecap="round" stroke-linejoin="round"/>
<path d="M12.92 30.98H23.92" stroke="#0B2343" stroke-linecap="round" stroke-linejoin="round"/>
<path d="M12.92 26.98H23.92" stroke="#0B2343" stroke-linecap="round" stroke-linejoin="round"/>
</svg>
