<svg viewBox="0 0 40 40" fill="none" xmlns="http://www.w3.org/2000/svg">
<path fill-rule="evenodd" clip-rule="evenodd" d="M32.5954 13.6598C33.0238 13.5808 33.4901 13.5617 33.8913 13.7186C34.0905 13.7965 34.2837 13.9364 34.3643 14.1731C34.4413 14.399 34.3807 14.6138 34.3081 14.7667C34.1669 15.0646 33.8709 15.3591 33.5975 15.5954C33.3104 15.8435 32.9919 16.0742 32.7489 16.2408C32.6266 16.3247 32.5217 16.3935 32.447 16.4416C32.4096 16.4656 32.3798 16.4845 32.359 16.4975L32.3349 16.5126L32.3283 16.5167L32.3264 16.5178L24.4716 21.3475C24.4544 21.358 24.4365 21.3673 24.4179 21.3751L24.2621 21.0067C24.4179 21.3751 24.418 21.3751 24.4179 21.3751L24.4169 21.3756L24.4152 21.3763L24.41 21.3784L24.3922 21.3857C24.377 21.3919 24.3551 21.4006 24.3265 21.4116C24.2693 21.4337 24.1853 21.465 24.0741 21.5039C23.8517 21.5816 23.5205 21.6892 23.0777 21.8122C22.1919 22.0582 20.8596 22.3656 19.0572 22.6183C18.7543 22.6612 18.5499 22.4508 18.4862 22.2586C18.4238 22.0705 18.4603 21.8029 18.6902 21.6488L16.7636 20.2375C16.6559 20.1585 16.5946 20.0311 16.6003 19.8977C16.6061 19.7643 16.678 19.6425 16.792 19.5731L17.3474 19.2351C17.4366 19.1808 17.5434 19.1636 17.6452 19.187C18.2859 19.3348 18.8072 19.4648 19.2428 19.5735C19.8378 19.722 20.2729 19.8306 20.6339 19.8897C20.9331 19.9387 21.1435 19.9458 21.3201 19.9189C21.4911 19.8929 21.6531 19.8316 21.8491 19.7108L24.2012 18.2681L21.4554 15.5725C21.3677 15.4864 21.3244 15.3647 21.3381 15.2426C21.3518 15.1204 21.4208 15.0114 21.5254 14.9468L21.8305 14.7583C21.9357 14.6933 22.065 14.6806 22.1807 14.7239L27.0081 16.5274L29.8716 14.7689L30.0766 15.1094C29.8716 14.7689 29.8715 14.7689 29.8716 14.7689L29.8743 14.7673L29.8806 14.7635L29.9036 14.7499C29.9234 14.7383 29.9521 14.7217 29.9886 14.7009C30.0617 14.6593 30.1666 14.6009 30.296 14.5326C30.5541 14.3963 30.9127 14.2188 31.3119 14.0556C31.7092 13.8932 32.1583 13.7404 32.5954 13.6598ZM24.7896 18.8458L22.269 20.3918C22.2688 20.3919 22.2692 20.3916 22.269 20.3918C22.0013 20.5567 21.7381 20.6646 21.4404 20.7099C21.148 20.7543 20.8454 20.735 20.5046 20.6792C20.1169 20.6157 19.6289 20.4942 18.9956 20.3366C18.6654 20.2544 18.2957 20.1624 17.8801 20.0637L19.6408 21.3535C19.748 21.4321 19.8092 21.5588 19.8041 21.6916C19.8041 21.6931 19.804 21.6946 19.8039 21.6962C21.1406 21.4783 22.1559 21.2379 22.8636 21.0413C23.2896 20.923 23.6042 20.8206 23.8103 20.7486C23.9133 20.7126 23.9893 20.6842 24.0385 20.6652C24.0559 20.6585 24.07 20.653 24.0807 20.6487L31.9067 15.8368L31.9081 15.8359L31.913 15.8329L31.9337 15.8199C31.9521 15.8084 31.9794 15.7911 32.0141 15.7688C32.0834 15.7242 32.1817 15.6597 32.2965 15.581C32.5277 15.4225 32.8191 15.2108 33.0744 14.9901C33.3246 14.7739 33.4968 14.5852 33.5704 14.4529C33.3744 14.386 33.0937 14.3814 32.7404 14.4465C32.3777 14.5134 31.9847 14.6449 31.6145 14.7961C31.2464 14.9466 30.9123 15.1119 30.6696 15.24C30.5485 15.3039 30.451 15.3582 30.3843 15.3962C30.3509 15.4152 30.3253 15.4301 30.3083 15.44L30.2895 15.4511L30.2854 15.4536L27.2603 17.3113C27.1553 17.3758 27.0265 17.3883 26.911 17.3452L22.8621 15.8325L25.6042 18.5244C25.7618 18.6792 25.7642 18.9324 25.6094 19.0901C25.4546 19.2477 25.2014 19.2501 25.0437 19.0953L24.7896 18.8458ZM33.6395 14.4829C33.6394 14.4829 33.639 14.4826 33.6383 14.482ZM33.6002 14.3854C33.6003 14.3841 33.6005 14.3835 33.6005 14.3835Z" fill="#0B2343"/>
<path fill-rule="evenodd" clip-rule="evenodd" d="M28.8625 19.0881C29.0823 19.1111 29.2417 19.3079 29.2187 19.5276L29.0234 21.393C29.0125 21.4972 28.9612 21.5929 28.8805 21.6597L28.4167 22.0431C28.2573 22.1749 28.0237 22.1635 27.878 22.0167L26.7612 20.8923C26.6055 20.7356 26.6064 20.4823 26.7631 20.3266C26.9199 20.1709 27.1732 20.1718 27.3288 20.3285L28.1883 21.1939L28.2448 21.1472L28.4231 19.4443C28.4461 19.2246 28.6428 19.0651 28.8625 19.0881Z" fill="#0B2343"/>
<path d="M14.2841 19.5884C14.7664 19.5889 15.1639 19.2104 15.1869 18.7286L16.1283 12.2547V12.1945C16.1283 11.696 15.7241 11.2918 15.2256 11.2918H11.851C11.851 11.2918 11.851 11.2617 11.851 11.2488V9.66255C11.851 9.164 11.4468 8.75981 10.9483 8.75981H9.98537V6.85975H10.441C10.6784 6.85975 10.8709 6.66728 10.8709 6.42988C10.8709 6.19248 10.6784 6 10.441 6H8.66995C8.43255 6 8.24007 6.19248 8.24007 6.42988C8.24007 6.66728 8.43255 6.85975 8.66995 6.85975H9.12562V8.75981H8.1584C7.65985 8.75981 7.25565 9.164 7.25565 9.66255V11.2402C7.25565 11.2402 7.25565 11.2703 7.25565 11.2832H3.90262C3.40407 11.2832 2.99988 11.6874 2.99988 12.1859L3.94561 18.7243C3.96855 19.2061 4.36608 19.5846 4.84835 19.5841H7.25565V32.8866H5.26103C5.02363 32.8866 4.83115 33.0791 4.83115 33.3165C4.83115 33.5539 5.02363 33.7464 5.26103 33.7464C15.1448 33.7464 26.6162 33.7464 36.5 33.7464C36.7374 33.7464 36.9299 33.5539 36.9299 33.3165C36.9299 33.0791 36.7374 32.8866 36.5 32.8866H11.8553V19.5884H14.2841ZM14.5679 16.9747H11.8553V13.8925H14.9977L14.5679 16.9747ZM8.11111 9.66255C8.11111 9.6388 8.13035 9.61956 8.1541 9.61956H10.9526C10.9763 9.61956 10.9956 9.6388 10.9956 9.66255V11.2402C10.9956 11.2639 10.9763 11.2832 10.9526 11.2832H8.1584C8.13464 11.2833 8.1153 11.2642 8.11519 11.2404L8.11541 11.2359H8.11111V9.66255ZM3.84244 12.1687C3.84733 12.1455 3.87016 12.1306 3.89338 12.1356C3.89655 12.1363 3.89966 12.1373 3.90262 12.1386H15.2041C15.222 12.1396 15.2374 12.1516 15.2428 12.1687L15.1181 13.0285H3.9671L3.84244 12.1687ZM10.9956 13.8925V16.9747H8.11541L8.11111 13.8925H10.9956ZM4.12615 13.8925H7.26855V16.9747H4.55603L4.12615 13.8925ZM10.9956 32.8866H8.11541V19.5884H10.9999L10.9956 32.8866ZM4.82685 18.7114C4.81648 18.7061 4.80874 18.6968 4.80536 18.6857L4.80106 18.6814L4.6764 17.8216H14.426L14.3099 18.6083V18.6685C14.3099 18.6922 14.2907 18.7114 14.2669 18.7114H4.82685Z" fill="#0B2343"/>
<path fill-rule="evenodd" clip-rule="evenodd" d="M25.6185 5.84236C25.8182 5.74803 26.0566 5.83349 26.151 6.03325L27.6333 9.17201C27.7276 9.37177 27.6421 9.61018 27.4424 9.70451C27.2426 9.79885 27.0042 9.71339 26.9099 9.51363L25.4276 6.37487C25.3333 6.17511 25.4187 5.9367 25.6185 5.84236Z" fill="#0B2343"/>
<path fill-rule="evenodd" clip-rule="evenodd" d="M39.4346 10.4093C39.5388 10.6041 39.4653 10.8465 39.2705 10.9507L36.2096 12.5878C36.0148 12.6919 35.7724 12.6185 35.6683 12.4237C35.5641 12.2289 35.6375 11.9865 35.8323 11.8823L38.8932 10.2453C39.088 10.1411 39.3304 10.2145 39.4346 10.4093Z" fill="#0B2343"/>
<path fill-rule="evenodd" clip-rule="evenodd" d="M33.3513 5.62017C33.5611 5.6895 33.6749 5.91574 33.6056 6.12549L32.6301 9.0767C32.5608 9.28646 32.3345 9.40029 32.1248 9.33096C31.915 9.26163 31.8012 9.03538 31.8705 8.82563L32.846 5.87442C32.9154 5.66467 33.1416 5.55083 33.3513 5.62017Z" fill="#0B2343"/>
</svg>
