<svg version="1.1" xmlns="http://www.w3.org/2000/svg" width="1024" height="1024" viewBox="0 0 1024 1024">
<title></title>
<g id="icomoon-ignore">
</g>
<path fill="#000" d="M944.128 724.992l-110.592-63.488 93.184-55.296c15.36-7.168 19.456-27.648 11.264-41.984-8.192-15.36-27.648-18.432-41.984-10.24l-124.928 72.704-196.608-115.712 197.632-113.664 124.928 72.704c4.096 3.072 9.216 4.096 14.336 4.096 10.24 0 20.48-5.12 27.648-14.336 8.192-15.36 4.096-34.816-11.264-41.984l-93.184-55.296 110.592-63.488c14.336-8.192 19.456-26.624 11.264-41.984-8.192-14.336-27.648-19.456-41.984-11.264l-111.616 64.512-2.048-111.616c0-17.408-13.312-30.72-30.72-30.72s-30.72 15.36-30.72 30.72l1.024 146.432-196.608 113.664v-231.424l123.904-70.656c14.336-8.192 20.48-27.648 12.288-41.984-8.192-15.36-26.624-19.456-41.984-11.264l-94.208 53.248v-125.952c0-17.408-14.336-30.72-30.72-30.72s-30.72 14.336-30.72 30.72v126.976l-97.28-54.272c-15.36-8.192-32.768-4.096-40.96 11.264s-3.072 33.792 11.264 41.984l126.976 71.68v229.376l-201.728-115.712 1.024-143.36c2.048-16.384-12.288-30.72-29.696-30.72h-1.024c-16.384 0-30.72 14.336-30.72 30.72l-1.024 107.52-108.544-62.464c-15.36-9.216-33.792-3.072-41.984 11.264-8.192 15.36-4.096 33.792 11.264 41.984l109.568 63.488-95.232 57.344c-15.36 7.168-19.456 27.648-10.24 41.984 6.144 9.216 14.336 14.336 26.624 14.336 6.144 0 11.264-2.048 16.384-4.096l124.928-73.728 200.704 114.688-201.728 116.736-124.928-74.752c-15.36-9.216-34.816-5.12-41.984 10.24-8.192 15.36-4.096 33.792 10.24 41.984l95.232 56.32-109.568 64.512c-15.36 9.216-19.456 27.648-11.264 41.984 6.144 10.24 14.336 15.36 26.624 15.36 3.072 0 8.192-2.048 15.36-4.096l108.544-62.464 1.024 107.52c0 17.408 14.336 30.72 30.72 30.72h1.024c17.408 0 29.696-14.336 29.696-31.744l-1.024-143.36 200.704-114.688v227.328l-126.976 71.68c-15.36 8.192-20.48 27.648-11.264 41.984 6.144 10.24 14.336 15.36 26.624 15.36 5.12 0 10.24-1.024 15.36-3.072l97.28-55.296v130.048c0 17.408 13.312 30.72 30.72 30.72s30.72-13.312 30.72-30.72v-126.976l94.208 53.248c4.096 2.048 9.216 3.072 14.336 3.072 12.288 0 21.504-5.12 27.648-15.36 8.192-15.36 3.072-33.792-12.288-41.984l-123.904-69.632v-231.424l196.608 113.664-1.024 145.408c0 17.408 13.312 31.744 30.72 31.744s30.72-13.312 30.72-30.72l2.048-111.616 109.568 65.536c4.096 2.048 10.24 3.072 16.384 3.072 11.264 0 20.48-5.12 25.6-14.336 10.24-14.336 4.096-33.792-10.24-41.984z"></path>
</svg>
