<svg width="27" height="27" viewBox="0 0 27 27" fill="none" xmlns="http://www.w3.org/2000/svg">
<g clip-path="url(#clip0_4758_58058)">
<path d="M24.8941 19.116L21.9781 17.442L24.4351 15.984C24.8401 15.795 24.9481 15.255 24.7321 14.877C24.5161 14.472 24.0031 14.391 23.6251 14.607L20.3311 16.524L15.1471 13.473L20.3581 10.476L23.6521 12.393C23.7601 12.474 23.8951 12.501 24.0301 12.501C24.3001 12.501 24.5701 12.366 24.7591 12.123C24.9751 11.718 24.8671 11.205 24.4621 11.016L22.0051 9.558L24.9211 7.884C25.2991 7.668 25.4341 7.182 25.2181 6.777C25.0021 6.399 24.4891 6.264 24.1111 6.48L21.1681 8.181L21.1141 5.238C21.1141 4.779 20.7631 4.428 20.3041 4.428C19.8451 4.428 19.4941 4.833 19.4941 5.238L19.5211 9.099L14.3371 12.096V5.994L17.6041 4.131C17.9821 3.915 18.1441 3.402 17.9281 3.024C17.7121 2.619 17.2261 2.511 16.8211 2.727L14.3371 4.131V0.81C14.3371 0.351 13.9591 0 13.5271 0C13.0951 0 12.7171 0.378 12.7171 0.81V4.158L10.1521 2.727C9.74709 2.511 9.28809 2.619 9.07209 3.024C8.85609 3.429 8.99109 3.915 9.36909 4.131L12.7171 6.021V12.069L7.39809 9.018L7.42509 5.238C7.47909 4.806 7.10109 4.428 6.64209 4.428H6.61509C6.18309 4.428 5.80509 4.806 5.80509 5.238L5.77809 8.073L2.91609 6.426C2.51109 6.183 2.02509 6.345 1.80909 6.723C1.59309 7.128 1.70109 7.614 2.10609 7.83L4.99509 9.504L2.48409 11.016C2.07909 11.205 1.97109 11.745 2.21409 12.123C2.37609 12.366 2.59209 12.501 2.91609 12.501C3.07809 12.501 3.21309 12.447 3.34809 12.393L6.64209 10.449L11.9341 13.473L6.61509 16.551L3.32109 14.58C2.91609 14.337 2.40309 14.445 2.21409 14.85C1.99809 15.255 2.10609 15.741 2.48409 15.957L4.99509 17.442L2.10609 19.143C1.70109 19.386 1.59309 19.872 1.80909 20.25C1.97109 20.52 2.18709 20.655 2.51109 20.655C2.59209 20.655 2.72709 20.601 2.91609 20.547L5.77809 18.9L5.80509 21.735C5.80509 22.194 6.18309 22.545 6.61509 22.545H6.64209C7.10109 22.545 7.42509 22.167 7.42509 21.708L7.39809 17.928L12.6901 14.904V20.898L9.34209 22.788C8.93709 23.004 8.80209 23.517 9.04509 23.895C9.20709 24.165 9.42309 24.3 9.74709 24.3C9.88209 24.3 10.0171 24.273 10.1521 24.219L12.7171 22.761V26.19C12.7171 26.649 13.0681 27 13.5271 27C13.9861 27 14.3371 26.649 14.3371 26.19V22.842L16.8211 24.246C16.9291 24.3 17.0641 24.327 17.1991 24.327C17.5231 24.327 17.7661 24.192 17.9281 23.922C18.1441 23.517 18.0091 23.031 17.6041 22.815L14.3371 20.979V14.877L19.5211 17.874L19.4941 21.708C19.4941 22.167 19.8451 22.545 20.3041 22.545C20.7631 22.545 21.1141 22.194 21.1141 21.735L21.1681 18.792L24.0571 20.52C24.1651 20.574 24.3271 20.601 24.4891 20.601C24.7861 20.601 25.0291 20.466 25.1641 20.223C25.4341 19.845 25.2721 19.332 24.8941 19.116Z" fill="#0B2343"/>
</g>
<defs>
<clipPath id="clip0_4758_58058">
<rect width="27" height="27" fill="white"/>
</clipPath>
</defs>
</svg>
