<svg width="40" height="40" viewBox="0 0 40 40" fill="none" xmlns="http://www.w3.org/2000/svg">
<path d="M22.4359 9.88452C22.4352 9.8848 22.4345 9.88505 22.4337 9.88527L22.3695 9.82102L22.262 9.79415C22.0065 9.73028 21.186 9.62568 20.0259 9.62568C18.8658 9.62568 18.0453 9.73028 17.7898 9.79415L17.6823 9.82102L17.6181 9.88527C17.6173 9.88505 17.6166 9.8848 17.6159 9.88452C17.6127 9.88329 17.6107 9.88194 17.6097 9.88119C17.6096 9.88091 17.6096 9.88057 17.6095 9.88014C17.6091 9.87852 17.6086 9.87499 17.6086 9.86917C17.6086 9.852 17.6088 9.83891 17.6091 9.82916C17.6255 9.81926 17.6537 9.80478 17.6996 9.78775C17.9761 9.68536 18.6125 9.59092 20.0259 9.59092C21.4393 9.59092 22.0757 9.68536 22.3521 9.78775C22.3981 9.80478 22.4263 9.81926 22.4426 9.82916C22.443 9.83891 22.4432 9.852 22.4432 9.86917C22.4432 9.87499 22.4427 9.87852 22.4423 9.88014C22.4422 9.88057 22.4421 9.88091 22.4421 9.88119C22.4411 9.88194 22.4391 9.88329 22.4359 9.88452ZM17.5896 9.84322C17.5895 9.8432 17.59 9.84265 17.5912 9.8416C17.5902 9.84271 17.5896 9.84324 17.5896 9.84322ZM22.4622 9.84322C22.4622 9.84324 22.4616 9.84271 22.4605 9.8416C22.4617 9.84265 22.4623 9.8432 22.4622 9.84322Z" fill="#0B2343" stroke="#0B2343" stroke-width="0.8"/>
<mask id="path-2-inside-1_3193_4581" fill="white">
<path d="M19.9737 33.869C15.0173 33.869 11 29.8517 11 24.8953V15.9737C11 11.0173 15.0173 7 19.9737 7C24.9302 7 28.9475 11.0173 28.9475 15.9737V24.8953C28.9996 29.8517 24.9823 33.869 19.9737 33.869ZM19.9737 7.78259C15.4869 7.78259 11.7826 11.4869 11.7826 15.9737V24.8953C11.7826 29.3822 15.4869 33.0864 19.9737 33.0864C24.5128 33.0864 28.217 29.3822 28.217 24.8953V15.9737C28.217 11.4869 24.5128 7.78259 19.9737 7.78259Z"/>
</mask>
<path d="M19.9737 33.869C15.0173 33.869 11 29.8517 11 24.8953V15.9737C11 11.0173 15.0173 7 19.9737 7C24.9302 7 28.9475 11.0173 28.9475 15.9737V24.8953C28.9996 29.8517 24.9823 33.869 19.9737 33.869ZM19.9737 7.78259C15.4869 7.78259 11.7826 11.4869 11.7826 15.9737V24.8953C11.7826 29.3822 15.4869 33.0864 19.9737 33.0864C24.5128 33.0864 28.217 29.3822 28.217 24.8953V15.9737C28.217 11.4869 24.5128 7.78259 19.9737 7.78259Z" fill="#0B2343"/>
<path d="M28.9475 24.8953H27.9474L27.9475 24.9058L28.9475 24.8953ZM19.9737 32.869C15.5696 32.869 12 29.2994 12 24.8953H10C10 30.404 14.465 34.869 19.9737 34.869V32.869ZM12 24.8953V15.9737H10V24.8953H12ZM12 15.9737C12 11.5696 15.5696 8 19.9737 8V6C14.465 6 10 10.465 10 15.9737H12ZM19.9737 8C24.3779 8 27.9475 11.5696 27.9475 15.9737H29.9475C29.9475 10.465 25.4824 6 19.9737 6V8ZM27.9475 15.9737V24.8953H29.9475V15.9737H27.9475ZM27.9475 24.9058C27.9937 29.2959 24.4359 32.869 19.9737 32.869V34.869C25.5287 34.869 30.0055 30.4075 29.9474 24.8848L27.9475 24.9058ZM19.9737 6.78259C14.9346 6.78259 10.7826 10.9346 10.7826 15.9737H12.7826C12.7826 12.0392 16.0392 8.78259 19.9737 8.78259V6.78259ZM10.7826 15.9737V24.8953H12.7826V15.9737H10.7826ZM10.7826 24.8953C10.7826 29.9344 14.9346 34.0864 19.9737 34.0864V32.0864C16.0392 32.0864 12.7826 28.8299 12.7826 24.8953H10.7826ZM19.9737 34.0864C25.0609 34.0864 29.217 29.9386 29.217 24.8953H27.217C27.217 28.8258 23.9646 32.0864 19.9737 32.0864V34.0864ZM29.217 24.8953V15.9737H27.217V24.8953H29.217ZM29.217 15.9737C29.217 10.9305 25.0609 6.78259 19.9737 6.78259V8.78259C23.9646 8.78259 27.217 12.0433 27.217 15.9737H29.217Z" fill="#0B2343" mask="url(#path-2-inside-1_3193_4581)"/>
<mask id="path-4-inside-2_3193_4581" fill="white">
<path d="M20.5998 11.9558H19.3477C17.1564 11.9558 15.1217 11.4341 13.6086 10.495C13.4521 10.3906 13.4 10.1298 13.5043 9.97326C13.6086 9.76457 13.8695 9.71239 14.026 9.86891C15.4347 10.7037 17.3651 11.1732 19.3998 11.1732H20.652C22.6867 11.1732 24.6171 10.7037 25.9736 9.81674C26.1823 9.71239 26.391 9.76457 26.4953 9.92108C26.5997 10.1298 26.5475 10.3385 26.391 10.4428C24.8258 11.4341 22.7911 11.9558 20.5998 11.9558ZM26.9649 22.4947H19.2433C17.8868 22.4947 16.7912 21.3991 16.7912 20.0426C16.7912 19.26 17.3129 18.4774 18.0433 18.0079C18.3042 16.234 19.7129 14.9297 21.4867 14.9297C22.3215 14.9297 22.9998 15.1905 23.678 15.7644C24.3563 15.6601 25.0867 15.8166 25.6606 16.1818C26.1301 16.547 26.4953 17.0166 26.6519 17.5905C27.4866 17.4861 28.3214 17.7992 28.8953 18.4253C29.0518 18.5818 29.0518 18.8426 28.8953 18.9992C28.7388 19.1557 28.4779 19.1557 28.3214 18.9992C27.8518 18.4774 27.1214 18.3209 26.4432 18.4774C26.3388 18.5296 26.2345 18.4774 26.1301 18.4253C26.0258 18.3731 25.9736 18.2687 25.9736 18.1644C25.9214 17.6427 25.6084 17.1731 25.191 16.8601C24.7736 16.547 24.1997 16.4427 23.6258 16.5992C23.5215 16.6514 23.365 16.5992 23.2606 16.4949C22.6867 15.9731 22.165 15.7123 21.4867 15.7123C20.0781 15.7123 18.9825 16.8079 18.8259 18.2687C18.8259 18.4253 18.7216 18.5296 18.6172 18.5818C17.9912 18.8948 17.5738 19.5209 17.5738 20.0426C17.5738 20.8252 18.1999 21.7122 19.2433 21.7122H26.9649C27.4866 21.7122 27.9562 21.5035 28.3214 21.1382C28.4779 20.9817 28.7388 20.9817 28.8953 21.1382C29.0518 21.2948 29.0518 21.5556 28.8953 21.7122C28.3736 22.1817 27.6953 22.4947 26.9649 22.4947ZM15.9564 28.8077H12.2522C12.0435 28.8077 11.8869 28.6511 11.8869 28.3903C11.8869 28.1294 12.0435 27.9729 12.2522 27.9729H15.9564C16.426 27.9729 16.7912 27.5555 16.7912 27.2425C16.7912 27.0338 16.6868 26.8251 16.4782 26.6686C16.3738 26.5642 16.0608 26.4077 15.6956 26.5121C15.5912 26.5642 15.4869 26.5121 15.3825 26.4599C15.2782 26.4077 15.226 26.3034 15.226 26.199C15.1738 25.9903 15.0695 25.7816 14.8608 25.6251C14.6521 25.4686 14.3912 25.4164 14.1304 25.5208C14.026 25.5729 13.8695 25.5208 13.7652 25.4164C13.5043 25.1556 13.1913 25.0512 12.8782 25.0512C12.4608 25.0512 12.0435 25.2599 11.7826 25.6251C11.6782 25.7816 11.4174 25.8338 11.2609 25.7295C11.1043 25.6251 11.0522 25.3643 11.1565 25.2077C11.5739 24.6338 12.2 24.2686 12.8782 24.2686C13.3478 24.2686 13.7652 24.4251 14.1304 24.7382C14.5478 24.686 14.9651 24.7903 15.2782 24.999C15.539 25.2077 15.7477 25.4686 15.8521 25.7816C16.2173 25.7816 16.5825 25.886 16.8955 26.0947C17.2607 26.4077 17.5216 26.8251 17.5216 27.2946C17.5738 28.1294 16.8434 28.8077 15.9564 28.8077Z"/>
</mask>
<path d="M20.5998 11.9558H19.3477C17.1564 11.9558 15.1217 11.4341 13.6086 10.495C13.4521 10.3906 13.4 10.1298 13.5043 9.97326C13.6086 9.76457 13.8695 9.71239 14.026 9.86891C15.4347 10.7037 17.3651 11.1732 19.3998 11.1732H20.652C22.6867 11.1732 24.6171 10.7037 25.9736 9.81674C26.1823 9.71239 26.391 9.76457 26.4953 9.92108C26.5997 10.1298 26.5475 10.3385 26.391 10.4428C24.8258 11.4341 22.7911 11.9558 20.5998 11.9558ZM26.9649 22.4947H19.2433C17.8868 22.4947 16.7912 21.3991 16.7912 20.0426C16.7912 19.26 17.3129 18.4774 18.0433 18.0079C18.3042 16.234 19.7129 14.9297 21.4867 14.9297C22.3215 14.9297 22.9998 15.1905 23.678 15.7644C24.3563 15.6601 25.0867 15.8166 25.6606 16.1818C26.1301 16.547 26.4953 17.0166 26.6519 17.5905C27.4866 17.4861 28.3214 17.7992 28.8953 18.4253C29.0518 18.5818 29.0518 18.8426 28.8953 18.9992C28.7388 19.1557 28.4779 19.1557 28.3214 18.9992C27.8518 18.4774 27.1214 18.3209 26.4432 18.4774C26.3388 18.5296 26.2345 18.4774 26.1301 18.4253C26.0258 18.3731 25.9736 18.2687 25.9736 18.1644C25.9214 17.6427 25.6084 17.1731 25.191 16.8601C24.7736 16.547 24.1997 16.4427 23.6258 16.5992C23.5215 16.6514 23.365 16.5992 23.2606 16.4949C22.6867 15.9731 22.165 15.7123 21.4867 15.7123C20.0781 15.7123 18.9825 16.8079 18.8259 18.2687C18.8259 18.4253 18.7216 18.5296 18.6172 18.5818C17.9912 18.8948 17.5738 19.5209 17.5738 20.0426C17.5738 20.8252 18.1999 21.7122 19.2433 21.7122H26.9649C27.4866 21.7122 27.9562 21.5035 28.3214 21.1382C28.4779 20.9817 28.7388 20.9817 28.8953 21.1382C29.0518 21.2948 29.0518 21.5556 28.8953 21.7122C28.3736 22.1817 27.6953 22.4947 26.9649 22.4947ZM15.9564 28.8077H12.2522C12.0435 28.8077 11.8869 28.6511 11.8869 28.3903C11.8869 28.1294 12.0435 27.9729 12.2522 27.9729H15.9564C16.426 27.9729 16.7912 27.5555 16.7912 27.2425C16.7912 27.0338 16.6868 26.8251 16.4782 26.6686C16.3738 26.5642 16.0608 26.4077 15.6956 26.5121C15.5912 26.5642 15.4869 26.5121 15.3825 26.4599C15.2782 26.4077 15.226 26.3034 15.226 26.199C15.1738 25.9903 15.0695 25.7816 14.8608 25.6251C14.6521 25.4686 14.3912 25.4164 14.1304 25.5208C14.026 25.5729 13.8695 25.5208 13.7652 25.4164C13.5043 25.1556 13.1913 25.0512 12.8782 25.0512C12.4608 25.0512 12.0435 25.2599 11.7826 25.6251C11.6782 25.7816 11.4174 25.8338 11.2609 25.7295C11.1043 25.6251 11.0522 25.3643 11.1565 25.2077C11.5739 24.6338 12.2 24.2686 12.8782 24.2686C13.3478 24.2686 13.7652 24.4251 14.1304 24.7382C14.5478 24.686 14.9651 24.7903 15.2782 24.999C15.539 25.2077 15.7477 25.4686 15.8521 25.7816C16.2173 25.7816 16.5825 25.886 16.8955 26.0947C17.2607 26.4077 17.5216 26.8251 17.5216 27.2946C17.5738 28.1294 16.8434 28.8077 15.9564 28.8077Z" fill="#0B2343"/>
<path d="M13.6086 10.495L13.0539 11.327L13.0675 11.3361L13.0813 11.3446L13.6086 10.495ZM13.5043 9.97326L14.3363 10.528L14.3709 10.4762L14.3987 10.4205L13.5043 9.97326ZM14.026 9.86891L13.3189 10.576L13.4079 10.665L13.5162 10.7292L14.026 9.86891ZM25.9736 9.81674L25.5264 8.92231L25.4747 8.94815L25.4264 8.97977L25.9736 9.81674ZM26.4953 9.92108L27.3898 9.47387L27.3619 9.41819L27.3274 9.36638L26.4953 9.92108ZM26.391 10.4428L26.926 11.2876L26.9359 11.2814L26.9457 11.2749L26.391 10.4428ZM18.0433 18.0079L18.5841 18.8491L18.9665 18.6032L19.0327 18.1534L18.0433 18.0079ZM23.678 15.7644L23.0321 16.5278L23.3798 16.8221L23.8301 16.7528L23.678 15.7644ZM25.6606 16.1818L26.2745 15.3925L26.2373 15.3635L26.1975 15.3382L25.6606 16.1818ZM26.6519 17.5905L25.6871 17.8536L25.9153 18.6903L26.7759 18.5828L26.6519 17.5905ZM28.8953 18.4253L28.1581 19.101L28.1728 19.117L28.1882 19.1324L28.8953 18.4253ZM28.3214 18.9992L27.5781 19.6681L27.5957 19.6877L27.6143 19.7063L28.3214 18.9992ZM26.4432 18.4774L26.2183 17.503L26.1024 17.5298L25.996 17.583L26.4432 18.4774ZM25.9736 18.1644H26.9736V18.1145L26.9687 18.0649L25.9736 18.1644ZM23.6258 16.5992L23.3627 15.6344L23.2672 15.6605L23.1786 15.7048L23.6258 16.5992ZM23.2606 16.4949L23.9677 15.7878L23.9509 15.7709L23.9333 15.7549L23.2606 16.4949ZM18.8259 18.2687L17.8316 18.1622L17.8259 18.2153V18.2687H18.8259ZM18.6172 18.5818L18.17 17.6874L18.6172 18.5818ZM28.8953 21.7122L29.5643 22.4554L29.5838 22.4379L29.6024 22.4193L28.8953 21.7122ZM16.4782 26.6686L15.771 27.3757L15.8213 27.4259L15.8782 27.4686L16.4782 26.6686ZM15.6956 26.5121L15.4208 25.5505L15.3315 25.5761L15.2483 25.6176L15.6956 26.5121ZM15.226 26.199H16.226V26.0759L16.1961 25.9565L15.226 26.199ZM14.1304 25.5208L13.759 24.5923L13.7204 24.6077L13.6832 24.6263L14.1304 25.5208ZM11.7826 25.6251L10.9689 25.0439L10.9595 25.057L10.9505 25.0704L11.7826 25.6251ZM11.2609 25.7295L10.7062 26.5615L11.2609 25.7295ZM11.1565 25.2077L10.3478 24.6196L10.3358 24.6361L10.3245 24.653L11.1565 25.2077ZM14.1304 24.7382L13.4796 25.4974L13.8155 25.7853L14.2544 25.7305L14.1304 24.7382ZM15.2782 24.999L15.9029 24.2182L15.869 24.1911L15.8329 24.167L15.2782 24.999ZM15.8521 25.7816L14.9034 26.0979L15.1313 26.7816H15.8521V25.7816ZM16.8955 26.0947L17.5463 25.3354L17.5005 25.2961L17.4502 25.2626L16.8955 26.0947ZM17.5216 27.2946H16.5216V27.3259L16.5236 27.357L17.5216 27.2946ZM20.5998 10.9558H19.3477V12.9558H20.5998V10.9558ZM19.3477 10.9558C17.302 10.9558 15.4593 10.4667 14.136 9.64534L13.0813 11.3446C14.784 12.4015 17.0108 12.9558 19.3477 12.9558V10.9558ZM14.1633 9.66293C14.3557 9.79117 14.4199 9.96077 14.4392 10.0576C14.4586 10.1544 14.4646 10.3356 14.3363 10.528L12.6722 9.41856C12.4397 9.76742 12.4196 10.1574 12.4781 10.4498C12.5366 10.7423 12.7051 11.0945 13.0539 11.327L14.1633 9.66293ZM14.3987 10.4205C14.2355 10.7468 13.7031 10.9602 13.3189 10.576L14.7331 9.1618C14.0359 8.46455 12.9817 8.7823 12.6099 9.52604L14.3987 10.4205ZM13.5162 10.7292C15.1121 11.6749 17.2283 12.1732 19.3998 12.1732V10.1732C17.5019 10.1732 15.7573 9.73243 14.5358 9.00862L13.5162 10.7292ZM19.3998 12.1732H20.652V10.1732H19.3998V12.1732ZM20.652 12.1732C22.8172 12.1732 24.9554 11.6773 26.5209 10.6537L25.4264 8.97977C24.2789 9.73005 22.5562 10.1732 20.652 10.1732V12.1732ZM26.4208 10.7112C26.3452 10.749 26.2189 10.7821 26.0641 10.7489C25.9063 10.7151 25.7587 10.6189 25.6633 10.4758L27.3274 9.36638C26.8968 8.7205 26.107 8.63203 25.5264 8.92231L26.4208 10.7112ZM25.6009 10.3683C25.5631 10.2927 25.53 10.1663 25.5632 10.0115C25.597 9.85373 25.6931 9.7062 25.8363 9.61076L26.9457 11.2749C27.5916 10.8443 27.6801 10.0544 27.3898 9.47387L25.6009 10.3683ZM25.8559 9.59799C24.482 10.4682 22.6422 10.9558 20.5998 10.9558V12.9558C22.9399 12.9558 25.1697 12.4 26.926 11.2876L25.8559 9.59799ZM26.9649 21.4947H19.2433V23.4947H26.9649V21.4947ZM19.2433 21.4947C18.4391 21.4947 17.7912 20.8468 17.7912 20.0426H15.7912C15.7912 21.9514 17.3345 23.4947 19.2433 23.4947V21.4947ZM17.7912 20.0426C17.7912 19.6893 18.056 19.1886 18.5841 18.8491L17.5026 17.1667C16.5699 17.7663 15.7912 18.8307 15.7912 20.0426H17.7912ZM19.0327 18.1534C19.2271 16.8311 20.2476 15.9297 21.4867 15.9297V13.9297C19.1782 13.9297 17.3813 15.6369 17.054 17.8624L19.0327 18.1534ZM21.4867 15.9297C22.066 15.9297 22.5194 16.094 23.0321 16.5278L24.3239 15.0011C23.4802 14.2871 22.577 13.9297 21.4867 13.9297V15.9297ZM23.8301 16.7528C24.2667 16.6856 24.7526 16.7893 25.1237 17.0255L26.1975 15.3382C25.4208 14.8439 24.4458 14.6346 23.526 14.7761L23.8301 16.7528ZM25.0466 16.9712C25.3893 17.2377 25.6006 17.5364 25.6871 17.8536L27.6166 17.3274C27.3901 16.4968 26.871 15.8564 26.2745 15.3925L25.0466 16.9712ZM26.7759 18.5828C27.2824 18.5195 27.7983 18.7085 28.1581 19.101L29.6324 17.7495C28.8444 16.8899 27.6909 16.4528 26.5278 16.5982L26.7759 18.5828ZM28.1882 19.1324C27.9542 18.8984 27.9542 18.5261 28.1882 18.2921L29.6024 19.7063C30.1494 19.1592 30.1494 18.2652 29.6024 17.7182L28.1882 19.1324ZM28.1882 18.2921C28.4222 18.058 28.7945 18.058 29.0285 18.2921L27.6143 19.7063C28.1613 20.2533 29.0554 20.2533 29.6024 19.7063L28.1882 18.2921ZM29.0647 18.3302C28.3012 17.4819 27.1702 17.2834 26.2183 17.503L26.668 19.4518C27.0726 19.3585 27.4024 19.473 27.5781 19.6681L29.0647 18.3302ZM25.996 17.583C26.094 17.534 26.1993 17.507 26.3025 17.5006C26.4013 17.4944 26.4801 17.5081 26.5292 17.5203C26.5764 17.5321 26.6061 17.5452 26.6092 17.5466C26.6107 17.5472 26.6077 17.546 26.5773 17.5308L25.6829 19.3197C25.7122 19.3344 25.8656 19.416 26.0441 19.4606C26.2591 19.5144 26.5688 19.5326 26.8904 19.3719L25.996 17.583ZM26.5773 17.5308C26.8587 17.6715 26.9736 17.9454 26.9736 18.1644H24.9736C24.9736 18.5921 25.1929 19.0747 25.6829 19.3197L26.5773 17.5308ZM26.9687 18.0649C26.8831 17.2096 26.3838 16.5047 25.791 16.0601L24.591 17.6601C24.833 17.8415 24.9598 18.0757 24.9786 18.2639L26.9687 18.0649ZM25.791 16.0601C25.104 15.5448 24.2058 15.4045 23.3627 15.6344L23.889 17.564C24.1937 17.4809 24.4432 17.5492 24.591 17.6601L25.791 16.0601ZM23.1786 15.7048C23.4252 15.5815 23.6401 15.6208 23.7306 15.6479C23.8315 15.6782 23.9086 15.7287 23.9677 15.7878L22.5535 17.202C22.717 17.3654 22.9245 17.4942 23.1559 17.5636C23.3768 17.6298 23.7222 17.6691 24.073 17.4936L23.1786 15.7048ZM23.9333 15.7549C23.2409 15.1255 22.4901 14.7123 21.4867 14.7123V16.7123C21.8399 16.7123 22.1325 16.8208 22.588 17.2348L23.9333 15.7549ZM21.4867 14.7123C19.4982 14.7123 18.0349 16.2648 17.8316 18.1622L19.8202 18.3753C19.93 17.351 20.658 16.7123 21.4867 16.7123V14.7123ZM17.8259 18.2687C17.8259 18.1101 17.8829 17.9682 17.9607 17.8644C18.031 17.7706 18.1099 17.7174 18.17 17.6874L19.0645 19.4762C19.3725 19.3222 19.8259 18.9345 19.8259 18.2687H17.8259ZM18.17 17.6874C17.289 18.1279 16.5738 19.0567 16.5738 20.0426H18.5738C18.5738 20.0439 18.574 20.021 18.5905 19.9746C18.6068 19.9291 18.6353 19.8712 18.68 19.8074C18.7713 19.6769 18.9065 19.5552 19.0645 19.4762L18.17 17.6874ZM16.5738 20.0426C16.5738 21.2735 17.5491 22.7122 19.2433 22.7122V20.7122C19.0272 20.7122 18.8736 20.6278 18.7613 20.5027C18.6349 20.362 18.5738 20.181 18.5738 20.0426H16.5738ZM19.2433 22.7122H26.9649V20.7122H19.2433V22.7122ZM26.9649 22.7122C27.7692 22.7122 28.4884 22.3855 29.0285 21.8454L27.6143 20.4311C27.424 20.6214 27.2041 20.7122 26.9649 20.7122V22.7122ZM29.0285 21.8454C28.7945 22.0794 28.4222 22.0794 28.1882 21.8454L29.6024 20.4311C29.0554 19.8841 28.1613 19.8841 27.6143 20.4311L29.0285 21.8454ZM28.1882 21.8454C27.9542 21.6114 27.9542 21.239 28.1882 21.005L29.6024 22.4193C30.1494 21.8722 30.1494 20.9782 29.6024 20.4311L28.1882 21.8454ZM28.2263 20.9689C27.8537 21.3042 27.4055 21.4947 26.9649 21.4947V23.4947C27.9851 23.4947 28.8934 23.0592 29.5643 22.4554L28.2263 20.9689ZM15.9564 27.8077H12.2522V29.8077H15.9564V27.8077ZM12.2522 27.8077C12.4091 27.8077 12.5936 27.8727 12.7312 28.0241C12.8637 28.1698 12.8869 28.321 12.8869 28.3903H10.8869C10.8869 28.7204 10.9885 29.0803 11.2513 29.3695C11.5194 29.6644 11.8865 29.8077 12.2522 29.8077V27.8077ZM12.8869 28.3903C12.8869 28.4595 12.8637 28.6107 12.7312 28.7564C12.5936 28.9079 12.4091 28.9729 12.2522 28.9729V26.9729C11.8865 26.9729 11.5194 27.1162 11.2513 27.4111C10.9885 27.7003 10.8869 28.0602 10.8869 28.3903H12.8869ZM12.2522 28.9729H15.9564V26.9729H12.2522V28.9729ZM15.9564 28.9729C16.493 28.9729 16.9397 28.7361 17.2411 28.4477C17.5213 28.1797 17.7912 27.7526 17.7912 27.2425H15.7912C15.7912 27.132 15.8212 27.0637 15.8324 27.0415C15.8454 27.0154 15.856 27.005 15.8587 27.0024C15.8601 27.001 15.8894 26.9729 15.9564 26.9729V28.9729ZM17.7912 27.2425C17.7912 26.6808 17.5065 26.1898 17.0782 25.8686L15.8782 27.4686C15.8753 27.4665 15.8529 27.4484 15.8306 27.4065C15.8079 27.3641 15.7912 27.3074 15.7912 27.2425H17.7912ZM17.1853 25.9615C16.8518 25.628 16.1713 25.3361 15.4208 25.5505L15.9703 27.4736C15.9478 27.48 15.9252 27.4779 15.91 27.4736C15.9031 27.4716 15.8924 27.4678 15.8764 27.4589C15.868 27.4543 15.8557 27.4468 15.8399 27.4352C15.825 27.4244 15.8005 27.4052 15.771 27.3757L17.1853 25.9615ZM15.2483 25.6176C15.3464 25.5686 15.4517 25.5416 15.5549 25.5352C15.6537 25.529 15.7325 25.5427 15.7816 25.555C15.8288 25.5668 15.8585 25.5799 15.8616 25.5812C15.863 25.5819 15.8601 25.5806 15.8297 25.5655L14.9353 27.3543C14.9646 27.369 15.118 27.4506 15.2965 27.4952C15.5115 27.549 15.8212 27.5673 16.1428 27.4065L15.2483 25.6176ZM15.8297 25.5655C16.1111 25.7061 16.226 25.9801 16.226 26.199H14.226C14.226 26.6267 14.4453 27.1093 14.9353 27.3543L15.8297 25.5655ZM16.1961 25.9565C16.105 25.5917 15.9016 25.1557 15.4608 24.8251L14.2608 26.4251C14.2592 26.4239 14.2558 26.421 14.2519 26.4167C14.2481 26.4124 14.2457 26.4088 14.2446 26.407C14.2427 26.4038 14.2486 26.4124 14.2559 26.4416L16.1961 25.9565ZM15.4608 24.8251C15.0043 24.4828 14.3787 24.3444 13.759 24.5923L14.5018 26.4492C14.4669 26.4632 14.4152 26.4717 14.3592 26.4629C14.3066 26.4546 14.2739 26.4349 14.2608 26.4251L15.4608 24.8251ZM13.6832 24.6263C13.9297 24.5031 14.1446 24.5423 14.2351 24.5695C14.336 24.5997 14.4132 24.6502 14.4723 24.7093L13.0581 26.1235C13.2215 26.287 13.4291 26.4157 13.6604 26.4851C13.8813 26.5514 14.2267 26.5906 14.5776 26.4152L13.6832 24.6263ZM14.4723 24.7093C14.0042 24.2413 13.4274 24.0512 12.8782 24.0512V26.0512C12.9232 26.0512 12.9546 26.0585 12.9769 26.0672C12.9974 26.0753 13.0244 26.0899 13.0581 26.1235L14.4723 24.7093ZM12.8782 24.0512C12.1348 24.0512 11.4156 24.4184 10.9689 25.0439L12.5963 26.2064C12.6713 26.1014 12.7869 26.0512 12.8782 26.0512V24.0512ZM10.9505 25.0704C11.0788 24.8781 11.2484 24.8139 11.3452 24.7945C11.442 24.7752 11.6232 24.7692 11.8156 24.8974L10.7062 26.5615C11.055 26.7941 11.445 26.8142 11.7374 26.7557C12.0299 26.6972 12.3821 26.5287 12.6146 26.1798L10.9505 25.0704ZM11.8156 24.8974C12.0079 25.0256 12.0721 25.1952 12.0915 25.292C12.1108 25.3888 12.1168 25.5701 11.9886 25.7624L10.3245 24.653C10.0919 25.0019 10.0718 25.3918 10.1303 25.6843C10.1888 25.9767 10.3573 26.3289 10.7062 26.5615L11.8156 24.8974ZM11.9653 25.7959C12.2274 25.4355 12.572 25.2686 12.8782 25.2686V23.2686C11.828 23.2686 10.9205 23.8321 10.3478 24.6196L11.9653 25.7959ZM12.8782 25.2686C13.1028 25.2686 13.2908 25.3356 13.4796 25.4974L14.7812 23.9789C14.2396 23.5147 13.5928 23.2686 12.8782 23.2686V25.2686ZM14.2544 25.7305C14.4373 25.7076 14.6132 25.7576 14.7235 25.8311L15.8329 24.167C15.3171 23.8231 14.6582 23.6644 14.0063 23.7459L14.2544 25.7305ZM14.6535 25.7799C14.8036 25.9 14.8743 26.0106 14.9034 26.0979L16.8008 25.4654C16.6211 24.9265 16.2745 24.5155 15.9029 24.2182L14.6535 25.7799ZM15.8521 26.7816C16.0282 26.7816 16.1989 26.8321 16.3408 26.9267L17.4502 25.2626C16.9661 24.9399 16.4063 24.7816 15.8521 24.7816V26.7816ZM16.2447 26.8539C16.4728 27.0494 16.5216 27.2125 16.5216 27.2946H18.5216C18.5216 26.4377 18.0486 25.766 17.5463 25.3354L16.2447 26.8539ZM16.5236 27.357C16.5295 27.4516 16.4957 27.5502 16.4007 27.6408C16.3019 27.7352 16.1456 27.8077 15.9564 27.8077V29.8077C17.3115 29.8077 18.6143 28.7458 18.5197 27.2323L16.5236 27.357Z" fill="#0B2343" mask="url(#path-4-inside-2_3193_4581)"/>
</svg>
