<svg width="40" height="40" viewBox="0 0 40 40" fill="none" xmlns="http://www.w3.org/2000/svg">
<path d="M15.4986 25.5886L20.4186 22.1186V14.1086" stroke="#0B2343" stroke-miterlimit="10" stroke-linecap="round" stroke-linejoin="round"/>
<path d="M30.3686 21.5087C30.3686 27.3087 25.6686 32.0187 19.8586 32.0187C14.0486 32.0187 9.34863 27.3187 9.34863 21.5087C9.34863 15.7087 14.0486 10.9987 19.8586 10.9987C25.6686 10.9987 30.3686 15.7087 30.3686 21.5087Z" stroke="#0B2343" stroke-miterlimit="10" stroke-linecap="round" stroke-linejoin="round"/>
<path d="M16.5286 8.01862C15.4186 6.08862 12.9486 5.42861 11.0186 6.53861C9.08861 7.64861 8.42862 10.1186 9.53862 12.0486L16.5286 8.01862Z" stroke="#0B2343" stroke-miterlimit="10" stroke-linecap="round" stroke-linejoin="round"/>
<path d="M30.2186 12.0486C31.3286 10.1186 30.6686 7.65861 28.7386 6.53861C26.8086 5.42861 24.3486 6.08862 23.2286 8.01862L30.2186 12.0486Z" stroke="#0B2343" stroke-miterlimit="10" stroke-linecap="round" stroke-linejoin="round"/>
<path d="M26.0486 30.0986L28.5186 34.3286" stroke="#0B2343" stroke-miterlimit="10" stroke-linecap="round" stroke-linejoin="round"/>
<path d="M13.6886 30.0986L11.2086 34.3286" stroke="#0B2343" stroke-miterlimit="10" stroke-linecap="round" stroke-linejoin="round"/>
</svg>
