<svg xmlns="http://www.w3.org/2000/svg" viewBox="0 0 30.85 28.18"><title>alert</title><path d="M27.09,28.18H4.39a4.08,4.08,0,0,1-3.58-2,4,4,0,0,1,0-4.06l11.3-20a4.1,4.1,0,0,1,7.14,0l11.3,20A4.06,4.06,0,0,1,27.09,28.18ZM15.69,2a2.09,2.09,0,0,0-1.83,1.07l-11.3,20a2,2,0,0,0,0,2.07,2.1,2.1,0,0,0,1.85,1h22.7a2.07,2.07,0,0,0,1.74-3.09v0l-11.3-20A2.09,2.09,0,0,0,15.69,2Z" transform="translate(-0.26)"/><path d="M15.69,18.77a1,1,0,0,1-1-1V8.67a1,1,0,0,1,2,0v9.1A1,1,0,0,1,15.69,18.77Z" transform="translate(-0.26)"/><path d="M15.69,23a1,1,0,0,1-1-1v-0.3a1,1,0,0,1,2,0V22A1,1,0,0,1,15.69,23Z" transform="translate(-0.26)"/></svg>