<svg width="40" height="40" viewBox="0 0 40 40" fill="none" xmlns="http://www.w3.org/2000/svg">
<path d="M36 13.9089C36 14.8666 35.2198 15.6468 34.25 15.6468H29.78V20.0801C29.78 21.0377 28.9998 21.8179 28.03 21.8179C27.0601 21.8179 26.2799 21.0377 26.2799 20.0801V15.6468H21.8154C20.8509 15.6468 20.0653 14.8666 20.0653 13.9089C20.0653 12.9513 20.8455 12.1711 21.8154 12.1711H26.2799V7.73781C26.2799 6.78013 27.0601 6 28.03 6C28.9998 6 29.78 6.78013 29.78 7.73781V12.1711H34.25C35.2144 12.1711 36 12.9513 36 13.9089Z" fill="#284A8C"/>
<path d="M6.76371 19.5582L8.43791 29.334L17.6162 29.3287C19.4421 29.3287 19.5992 31.8843 17.6162 31.8843L5.90223 31.8896L4.01672 19.994C3.89752 19.23 4.4285 18.5198 5.19787 18.4122C5.94557 18.3099 6.63909 18.8157 6.76371 19.5582Z" fill="#284A8C"/>
<path d="M12.5557 6.00539C11.1633 5.94621 9.98211 7.01687 9.91709 8.39959C9.85749 9.78231 10.9357 10.9552 12.3282 11.0198C13.7206 11.0789 14.9018 10.0083 14.9668 8.62556C15.0264 7.23746 13.9482 6.06457 12.5557 6.00539Z" fill="#284A8C"/>
<path d="M24.1721 33.6113C24.9036 33.6113 25.4454 32.9442 25.2937 32.234L23.7387 25.046C23.4082 23.5073 22.0374 22.4097 20.4499 22.4097H17.1015C16.8523 22.4097 16.6355 22.2321 16.5813 21.99L15.281 15.7113C15.0209 14.4954 13.9427 13.6238 12.6911 13.6238C11.044 13.6238 9.79786 15.098 10.085 16.7067L11.5642 25.0514C11.5642 25.5302 11.9543 25.9122 12.4311 25.9122H20.2223C20.9592 25.9122 21.5985 26.418 21.7665 27.1335L23.056 32.7236C23.1752 33.2455 23.6357 33.6113 24.1721 33.6113Z" fill="#284A8C"/>
</svg>
