<svg width="25" height="25" viewBox="0 0 25 25" fill="none" xmlns="http://www.w3.org/2000/svg">
<path d="M20.5455 9.0893C20.5455 9.58446 20.1421 9.98783 19.6407 9.98783H17.3295V12.2801C17.3295 12.7752 16.9261 13.1786 16.4246 13.1786C15.9232 13.1786 15.5198 12.7752 15.5198 12.2801V9.98783H13.2114C12.7127 9.98783 12.3065 9.58446 12.3065 9.0893C12.3065 8.59413 12.7099 8.19076 13.2114 8.19076H15.5198V5.89853C15.5198 5.40337 15.9232 5 16.4246 5C16.9261 5 17.3295 5.40337 17.3295 5.89853V8.19076H19.6407C20.1393 8.19076 20.5455 8.59413 20.5455 9.0893Z" fill="white"/>
<path d="M5.42897 12.0102L6.29461 17.0648L11.0402 17.062C11.9843 17.062 12.0655 18.3834 11.0402 18.3834L4.98354 18.3862L4.00865 12.2355C3.94701 11.8405 4.22155 11.4733 4.61936 11.4177C5.00595 11.3648 5.36454 11.6263 5.42897 12.0102Z" fill="white"/>
<path d="M8.42368 5.0028C7.70371 4.9722 7.093 5.52578 7.05938 6.24071C7.02857 6.95564 7.58605 7.56208 8.30602 7.59547C9.02599 7.62607 9.6367 7.07248 9.67031 6.35755C9.70113 5.63984 9.14365 5.0334 8.42368 5.0028Z" fill="white"/>
<path d="M14.4299 19.2763C14.8081 19.2763 15.0883 18.9313 15.0098 18.5641L14.2058 14.8476C14.0349 14.052 13.3262 13.4845 12.5054 13.4845H10.7741C10.6452 13.4845 10.5332 13.3927 10.5052 13.2675L9.83281 10.0211C9.69834 9.39243 9.14086 8.94177 8.49373 8.94177C7.64209 8.94177 6.99776 9.70399 7.14624 10.5358L7.91103 14.8504C7.91103 15.098 8.11273 15.2955 8.35926 15.2955H12.3877C12.7687 15.2955 13.0993 15.557 13.1861 15.927L13.8529 18.8173C13.9145 19.0871 14.1526 19.2763 14.4299 19.2763Z" fill="white"/>
</svg>
