<svg width="30" height="30" viewBox="0 0 30 30" fill="none" xmlns="http://www.w3.org/2000/svg">
<path d="M26.029 6.22273C25.8807 6.07426 25.7048 6 25.5017 6H12.0008C11.7975 6 11.6217 6.07426 11.4733 6.22273C11.3248 6.37116 11.2506 6.54692 11.2506 6.75007V10.5002H9.37544C9.17217 10.5002 8.94559 10.5512 8.6956 10.6527C8.44558 10.7543 8.24637 10.8793 8.09786 11.0277L5.77737 13.348C5.62899 13.4965 5.50395 13.6959 5.4024 13.9458C5.30085 14.1959 5.25007 14.4224 5.25007 14.6256V19.5009C5.0468 19.5009 4.87107 19.5752 4.7226 19.7237C4.57426 19.872 4.5 20.0479 4.5 20.251C4.5 20.4541 4.57426 20.6299 4.72264 20.7784C4.87128 20.9268 5.04701 21.001 5.25011 21.001H6.7503C6.7503 21.8294 7.04313 22.5362 7.62917 23.1223C8.21522 23.7082 8.92215 24.0011 9.75046 24.0011C10.5787 24.0011 11.2857 23.7082 11.8717 23.1223C12.4576 22.5362 12.7506 21.8294 12.7506 21.001H17.251C17.251 21.8294 17.5441 22.5362 18.1298 23.1223C18.7159 23.7082 19.4227 24.0011 20.251 24.0011C21.0792 24.0011 21.7863 23.7082 22.3721 23.1223C22.9582 22.5362 23.2512 21.8294 23.2512 21.001H25.5013C25.7044 21.001 25.8803 20.9268 26.0286 20.7784C26.177 20.6299 26.2514 20.4542 26.2514 20.251V6.75024C26.2514 6.54697 26.1773 6.37132 26.029 6.22273ZM10.8111 22.0617C10.5179 22.3546 10.1645 22.5011 9.75033 22.5011C9.33624 22.5011 8.98265 22.3546 8.68965 22.0617C8.39677 21.7687 8.25015 21.4151 8.25015 21.001C8.25015 20.587 8.39661 20.2335 8.68965 19.9404C8.98282 19.6475 9.33624 19.5009 9.75033 19.5009C10.1645 19.5009 10.518 19.6475 10.8111 19.9404C11.1039 20.2335 11.2505 20.587 11.2505 21.001C11.2504 21.4151 11.1041 21.7687 10.8111 22.0617ZM11.2506 15.0007H6.7503V14.6492C6.76581 14.571 6.80107 14.485 6.85571 14.3914L9.14093 12.1059C9.20337 12.0514 9.2894 12.016 9.39872 12.0005H11.2506V15.0007H11.2506ZM21.3117 22.0617C21.0187 22.3546 20.6653 22.5011 20.2511 22.5011C19.837 22.5011 19.4836 22.3546 19.1906 22.0617C18.8975 21.7687 18.7507 21.4151 18.7507 21.001C18.7507 20.587 18.8975 20.2335 19.1906 19.9404C19.4836 19.6475 19.837 19.5009 20.2511 19.5009C20.6653 19.5009 21.0187 19.6475 21.3117 19.9404C21.6046 20.2335 21.7511 20.587 21.7511 21.001C21.7509 21.4151 21.6047 21.7687 21.3117 22.0617ZM23.2512 13.1255C23.2512 13.235 23.2161 13.3249 23.146 13.3951C23.0755 13.4654 22.9856 13.5005 22.8763 13.5005H20.2512V16.1255C20.2512 16.2351 20.2161 16.3249 20.146 16.3953C20.0754 16.4655 19.9858 16.5005 19.8763 16.5005H17.6261C17.5166 16.5005 17.4267 16.4654 17.3567 16.3953C17.2861 16.3249 17.2512 16.2351 17.2512 16.1255V13.5005H14.6261C14.5166 13.5005 14.4268 13.4654 14.3565 13.3951C14.2863 13.3249 14.2511 13.235 14.2511 13.1255V10.8754C14.2511 10.7659 14.2861 10.6762 14.3565 10.6059C14.4268 10.5356 14.5166 10.5004 14.6261 10.5004H17.2512V7.8752C17.2512 7.76589 17.2861 7.67599 17.3567 7.60564C17.4267 7.53548 17.5166 7.50035 17.6261 7.50035H19.8763C19.9858 7.50035 20.0755 7.53548 20.146 7.60564C20.2161 7.67603 20.2512 7.76593 20.2512 7.8752V10.5003H22.8763C22.9856 10.5003 23.0755 10.5356 23.146 10.6058C23.2161 10.6762 23.2512 10.7659 23.2512 10.8753V13.1255Z" fill="#0B2343"/>
</svg>
