<svg width="40" height="40" viewBox="0 0 40 40" fill="none" xmlns="http://www.w3.org/2000/svg">
<path d="M34.3976 19.8714L30.5976 18.5918C30.3822 18.5192 30.2089 18.3555 30.1223 18.1424L28.0048 12.9364C27.6424 12.0447 26.7915 11.4685 25.8368 11.4685H25.8125V10.6158C25.8125 9.44914 24.8733 8.5 23.7188 8.5C22.5643 8.5 21.625 9.44914 21.625 10.6158V11.4685H18.4399C18.4391 11.4685 18.4383 11.4684 18.4375 11.4684C18.4367 11.4684 18.4359 11.4685 18.4351 11.4685H6.34375C5.05138 11.4685 4 12.531 4 13.837V17.7331C4 17.9947 4.20981 18.2068 4.46875 18.2068C4.72769 18.2068 4.9375 17.9947 4.9375 17.7331V13.837C4.9375 13.0534 5.56837 12.4159 6.34375 12.4159H17.9688V22.6474H4.9375V19.1737C4.9375 18.9121 4.72769 18.7 4.46875 18.7C4.20981 18.7 4 18.9121 4 19.1737V26.6264C4 27.9324 5.05138 28.9949 6.34375 28.9949H7.5445C7.77719 30.9661 9.44069 32.5 11.4531 32.5C13.4656 32.5 15.1291 30.9661 15.3617 28.9949H23.9039C24.1366 30.9661 25.8001 32.5 27.8125 32.5C29.8249 32.5 31.4884 30.9661 31.7211 28.9949H33.6562C34.9486 28.9949 36 27.9324 36 26.6264V22.1182C36 21.0969 35.356 20.1939 34.3976 19.8714ZM11.4531 31.5526C9.79888 31.5526 8.45312 30.1927 8.45312 28.5211C8.45312 26.8495 9.79888 25.4895 11.4531 25.4895C13.1074 25.4895 14.4531 26.8495 14.4531 28.5211C14.4531 30.1927 13.1074 31.5526 11.4531 31.5526ZM17.9688 28.0475H15.3617C15.1292 26.0761 13.4656 24.5421 11.4531 24.5421C9.44069 24.5421 7.77706 26.0761 7.5445 28.0475H6.34375C5.56837 28.0475 4.9375 27.41 4.9375 26.6264V23.5947H17.9688V28.0475ZM22.5625 10.6158C22.5625 9.97151 23.0812 9.44737 23.7188 9.44737C24.3563 9.44737 24.875 9.97151 24.875 10.6158V11.4685H22.5625V10.6158ZM27.8125 31.5526C26.1583 31.5526 24.8125 30.1927 24.8125 28.5211C24.8125 26.8495 26.1583 25.4895 27.8125 25.4895C29.4668 25.4895 30.8125 26.8495 30.8125 28.5211C30.8125 30.1927 29.4668 31.5526 27.8125 31.5526ZM35.0625 22.6474H35.1508C34.8918 22.6474 34.682 22.8595 34.682 23.1211C34.682 23.3827 34.8918 23.5947 35.1508 23.5947H35.0625V26.6264C35.0625 27.41 34.4316 28.0475 33.6562 28.0475H31.7211C31.4886 26.0761 29.8249 24.5421 27.8125 24.5421C25.8001 24.5421 24.1364 26.0761 23.9039 28.0475H18.9062V23.5947H27.249C27.5079 23.5947 27.7177 23.3827 27.7177 23.1211C27.7177 22.8595 27.5079 22.6474 27.249 22.6474H18.9062V12.4159H25.8369C26.4097 12.4159 26.9203 12.7615 27.1377 13.2964L29.2551 18.5025C29.4456 18.9707 29.8268 19.3308 30.3012 19.4905L34.1012 20.7701C34.6762 20.9636 35.0625 21.5054 35.0625 22.1182V22.6474ZM26.2637 13.8579C26.144 13.5574 25.8595 13.3632 25.5389 13.3632H20.625C20.1942 13.3632 19.8438 13.7173 19.8438 14.1526V18.5421C19.8438 18.9775 20.1942 19.3316 20.625 19.3316H27.2874C27.8267 19.3356 28.2179 18.7531 28.0121 18.2473L26.2637 13.8579ZM20.7812 18.3842V14.3105H25.4334L27.0561 18.3842H20.7812ZM27.8125 27.1C27.0371 27.1 26.4062 27.7375 26.4062 28.5211C26.4062 29.3047 27.0371 29.9421 27.8125 29.9421C28.5879 29.9421 29.2188 29.3047 29.2188 28.5211C29.2188 27.7375 28.5879 27.1 27.8125 27.1ZM27.8125 28.9947C27.554 28.9947 27.3438 28.7823 27.3438 28.5211C27.3438 28.2598 27.554 28.0474 27.8125 28.0474C28.071 28.0474 28.2812 28.2598 28.2812 28.5211C28.2812 28.7823 28.071 28.9947 27.8125 28.9947ZM11.4531 27.1C10.6778 27.1 10.0469 27.7375 10.0469 28.5211C10.0469 29.3047 10.6778 29.9421 11.4531 29.9421C12.2285 29.9421 12.8594 29.3047 12.8594 28.5211C12.8594 27.7375 12.2285 27.1 11.4531 27.1ZM11.4531 28.9947C11.1946 28.9947 10.9844 28.7823 10.9844 28.5211C10.9844 28.2598 11.1946 28.0474 11.4531 28.0474C11.7116 28.0474 11.9219 28.2598 11.9219 28.5211C11.9219 28.7823 11.7116 28.9947 11.4531 28.9947Z" fill="#0B2343"/>
<rect x="13.7224" y="16.3599" width="1.53018" height="5.35564" rx="0.765092" transform="rotate(90 13.7224 16.3599)" fill="#0B2343"/>
<rect x="11.8097" y="19.8024" width="1.53018" height="5.35564" rx="0.765092" transform="rotate(-180 11.8097 19.8024)" fill="#0B2343"/>
</svg>
