<svg width="15" height="12" viewBox="0 0 15 12" fill="none" xmlns="http://www.w3.org/2000/svg">
<path d="M9.68628 3.82821C9.90535 3.8308 10.0557 3.89691 10.1776 3.95395C10.4316 4.07451 10.7285 4.21191 11.1005 4.3908C11.1005 4.3921 11.702 3.96432 11.7331 3.94228C11.9366 3.80228 12.1337 3.90858 12.1985 4.02914C12.4228 4.45043 12.835 5.32932 13.0541 6.13173C13.08 6.22766 13.0489 6.37932 12.8985 6.4234C12.8129 6.44932 12.6626 6.47006 12.5057 6.48951C12.2879 6.51673 12.2918 6.69303 12.2918 6.79932C12.2918 6.93025 12.2931 7.81692 12.2931 8.11895C12.2983 8.30562 12.1557 8.91358 11.4544 8.91229C11.4065 8.91229 9.84442 8.91229 9.8522 8.91229C9.24683 8.91488 8.75942 8.40414 8.75683 7.8584C8.75554 7.49932 8.75554 5.00525 8.75683 4.72525C8.75942 4.18599 9.24424 3.82173 9.68628 3.82821Z" fill="#004990"/>
<path d="M7.15296 8.91182H1.94444V9.49127H8.05648C8.05648 9.49127 8.27685 8.97923 8.27685 8.41405C8.27685 8.38423 8.27814 4.48627 8.27814 4.48627C8.27814 4.17645 8.40388 3.65405 9.04166 3.51405C9.05851 3.51016 9.07666 3.50756 9.09481 3.50368C10.8993 3.07719 12.7594 3.46608 13.8068 3.91849C13.9961 4.00923 14.0389 3.85886 14.0337 3.79405C14.057 2.91127 13.3855 1.90534 12.1502 1.84442C11.1481 1.82108 10.592 2.18145 10.3872 2.28127C10.3717 2.28905 10.347 2.28516 10.3237 2.25923C10.1383 2.07645 9.74425 1.80423 9.29962 1.6759C9.23351 1.66293 9.22703 1.56442 9.30351 1.55664C10.2537 1.45553 11.0833 1.56182 11.4294 1.61886C11.5085 1.63182 11.5694 1.58516 11.537 1.51256C11.5137 1.45682 11.493 1.4296 11.4528 1.34405C11.3685 1.16256 11.1443 0.969416 10.8604 0.891638C10.1163 0.682934 8.84592 0.504045 7.71426 0.496268C6.44 0.48849 5.09703 0.74386 4.7587 0.819045C4.67703 0.837194 4.56296 0.865712 4.54352 0.869601C4.45148 0.887749 4.42944 0.975897 4.46963 1.01868C4.49426 1.04719 4.56426 1.10553 4.59796 1.14701C4.63944 1.19886 4.66018 1.27405 4.57981 1.35182L2.22315 3.46868H3.83444L3.85259 3.46738C3.95759 3.46608 4.05741 3.56071 4.05741 3.68127C4.05741 3.78886 3.97055 3.89256 3.86167 3.89256L3.8487 3.89386H1.75389L1.11352 4.4759H3.85389L3.86944 4.4746C3.97704 4.4759 4.06129 4.58738 4.06 4.68849C4.0587 4.78312 3.97963 4.89719 3.86944 4.89719H3.85259H0.644259L0.00259259 5.47793H5.53907L5.55592 5.47923C5.66481 5.47923 5.75037 5.59071 5.75166 5.68793C5.75296 5.80201 5.67259 5.90442 5.56111 5.90442L5.54555 5.90312H0.0012963V6.48127H5.53259L5.54944 6.48256C5.67648 6.48386 5.75037 6.59794 5.74907 6.70423C5.74907 6.79886 5.65703 6.90256 5.54685 6.90256H5.53129H0.0012963L0 7.4859H7.22296L7.24111 7.4846C7.36037 7.48849 7.43814 7.5909 7.43426 7.70368C7.43166 7.80219 7.35 7.90719 7.24111 7.90719H7.22555H1.94574V8.48794H7.15296H7.26185C7.36037 8.48794 7.44333 8.60979 7.44333 8.70701C7.44333 8.80553 7.35777 8.91182 7.25926 8.91182H7.15296Z" fill="#004990"/>
<path d="M3.88802 10.9141L3.88672 11.5065C3.88672 11.5065 4.66968 11.5091 5.11561 11.5065C6.21617 11.5 6.93691 10.9141 6.93691 10.9141H3.88802Z" fill="#004990"/>
<path d="M3.88802 9.91406L3.88672 10.4948H7.42302C7.58635 10.3302 7.79635 10.0268 7.8508 9.91536L3.88802 9.91406Z" fill="#004990"/>
</svg>
