<svg
    width="16"
    height="15"
    viewBox="3 0 16 15"
    fill="none"
    xmlns="http://www.w3.org/2000/svg"
>
    <path
        d="M10.8182 4C10.529 4.00036 10.2518 4.11541 10.0472 4.31991C9.84274 4.52442 9.72769 4.80169 9.72733 5.09091V9.0909H10.4546C10.7438 9.09125 11.0211 9.2063 11.2256 9.4108C11.4301 9.61531 11.5452 9.89258 11.5455 10.1818V11.2727H14.4546V10.1818C14.4549 9.89258 14.57 9.61531 14.7745 9.4108C14.979 9.2063 15.2563 9.09125 15.5455 9.0909H16.2728V5.09091C16.2724 4.80169 16.1574 4.52442 15.9529 4.31991C15.7483 4.11541 15.4711 4.00036 15.1819 4H10.8182ZM9.3637 9.81817C9.26727 9.8182 9.17479 9.85653 9.10661 9.92471C9.03842 9.9929 9.0001 10.0854 9.00006 10.1818V13.4545C9.00026 13.6473 9.07694 13.8322 9.21329 13.9686C9.34964 14.1049 9.53451 14.1816 9.72733 14.1818H16.2728C16.4656 14.1816 16.6505 14.1049 16.7868 13.9686C16.9232 13.8322 16.9998 13.6473 17 13.4545V10.1818C17.0001 10.1341 16.9907 10.0868 16.9724 10.0427C16.9541 9.99857 16.9274 9.95848 16.8936 9.92471C16.8599 9.89095 16.8198 9.86416 16.7757 9.84588C16.7316 9.8276 16.6843 9.81818 16.6366 9.81817H15.5455C15.4978 9.81815 15.4505 9.82754 15.4064 9.8458C15.3623 9.86406 15.3222 9.89083 15.2884 9.92457C15.2546 9.95832 15.2279 9.99839 15.2096 10.0425C15.1913 10.0866 15.1819 10.1339 15.1819 10.1816V12H10.8182V10.1818C10.8182 10.0854 10.7799 9.9929 10.7117 9.92471C10.6435 9.85653 10.551 9.8182 10.4546 9.81817H9.3637ZM10.091 14.5454C10.0196 15.0021 9.90547 15.451 9.75006 15.8863C9.73103 15.9409 9.72523 15.9993 9.73313 16.0566C9.74103 16.1139 9.76241 16.1684 9.79551 16.2159C9.82936 16.2623 9.87386 16.3 9.92527 16.3257C9.97667 16.3514 10.0335 16.3644 10.091 16.3636H15.9091C15.9666 16.3643 16.0234 16.3513 16.0748 16.3256C16.1262 16.2999 16.1707 16.2623 16.2046 16.2159C16.2377 16.1684 16.259 16.1138 16.2669 16.0566C16.2748 15.9993 16.269 15.9409 16.25 15.8863C16.0943 15.4511 15.9802 15.0022 15.9091 14.5454H10.091Z"
        fill="#E05F0A"
    />
    <path
        fill-rule="evenodd"
        clip-rule="evenodd"
        d="M8.06782 10.0546C8.04191 9.98514 7.99542 9.92531 7.93456 9.88307C7.8737 9.84082 7.80138 9.81818 7.7273 9.81819H7.36366V5.09093C7.36216 4.80206 7.24675 4.52545 7.04249 4.32119C6.83823 4.11693 6.56162 4.00152 6.27276 4.00002H3.00004V4.72729H6.27276C6.2767 4.72724 6.28064 4.72724 6.28457 4.72729C6.37945 4.72886 6.46981 4.76806 6.53579 4.83625C6.60177 4.90444 6.63796 4.99605 6.63639 5.09093V9.81819H6.60231C6.57897 9.82045 6.5559 9.82491 6.5334 9.83151C6.45795 9.85391 6.39178 9.90014 6.34479 9.96328C6.2978 10.0264 6.27251 10.1031 6.27272 10.1818V11.6363H3V12.3636H6.63636C6.73278 12.3636 6.82525 12.3252 6.89343 12.257C6.96162 12.1889 6.99994 12.0964 6.99999 12V10.5454H7.36363V13.4545H3V14.1818H7.36363C7.55608 14.1804 7.74025 14.1033 7.87633 13.9672C8.01242 13.8311 8.08949 13.647 8.0909 13.4545V10.1818C8.09101 10.1383 8.08319 10.0952 8.06782 10.0546Z"
        fill="#E05F0A"
    />
    <path
        d="M3.00003 15.6364H6.51139C6.49257 15.574 6.48546 15.5801 6.46593 15.5113C6.3591 15.1993 6.29414 14.8745 6.27275 14.5454H7.00002C7.01723 14.6785 7.04273 14.8104 7.07638 14.9403C7.10406 15.0591 7.13675 15.1887 7.17049 15.3068C7.20846 15.4401 7.2454 15.5664 7.27522 15.6667L7.34093 15.8864C7.36119 15.9476 7.36476 16.0131 7.35128 16.0761C7.3378 16.1391 7.30775 16.1974 7.26424 16.245C7.25645 16.2537 7.24816 16.262 7.2394 16.2697C7.21649 16.2903 7.19108 16.308 7.16377 16.3223C7.11321 16.3487 7.05712 16.3629 7.00006 16.3636H3.00007"
        fill="#E05F0A"
    />
</svg>
