<?xml version="1.0" encoding="utf-8"?>
<!-- Generator: Adobe Illustrator 19.2.1, SVG Export Plug-In . SVG Version: 6.00 Build 0)  -->
<svg version="1.1" id="Layer_1" xmlns="http://www.w3.org/2000/svg" xmlns:xlink="http://www.w3.org/1999/xlink" x="0px" y="0px"
	 viewBox="0 0 10 16" enable-background="new 0 0 10 16" xml:space="preserve">
<g>
	<path d="M10,2.1C10,0.9,7.8,0,5,0S0,0.9,0,2.1h0v9.2c1.1,0,1.9-1,3.1-2.6c0.7-1,1.5-2,2.6-2.9C7,4.8,8.4,4.3,10,4.3L10,2.1L10,2.1z
		"/>
	<path d="M5.1,10.2c-0.6,0.8-1.3,1.7-2,2.3c-1,0.8-2,1.3-3.1,1.3v0.2h0c0,0,0,0,0,0C0,15.1,2.2,16,5,16s5-0.9,5-2.1c0,0,0,0,0,0h0
		V6.8c-1,0-1.9,0.3-2.7,1C6.5,8.4,5.8,9.3,5.1,10.2z"/>
</g>
</svg>
