<?xml version="1.0" encoding="utf-8"?>
<!-- Generator: Adobe Illustrator 19.2.1, SVG Export Plug-In . SVG Version: 6.00 Build 0)  -->
<svg version="1.1" id="Layer_1" xmlns="http://www.w3.org/2000/svg" xmlns:xlink="http://www.w3.org/1999/xlink" x="0px" y="0px"
	 viewBox="0 0 16 11" enable-background="new 0 0 16 11" xml:space="preserve">
<g>
	<path d="M2.8,6.2l1.4,1.4C5.2,6.6,6.6,6,8,6c1.4,0,2.8,0.6,3.8,1.6l1.4-1.4C11.8,4.8,10,4,8,4C6,4,4.2,4.8,2.8,6.2z"/>
	<path d="M12.3,0.8C10.9,0.3,9.5,0,8,0C6.5,0,5.1,0.3,3.7,0.8C2.3,1.4,1.1,2.2,0,3.3l1.4,1.4C3.2,3,5.5,2,8,2c2.5,0,4.8,1,6.6,2.7
		L16,3.3C14.9,2.2,13.7,1.4,12.3,0.8z"/>
	<ellipse cx="8" cy="9.5" rx="1.5" ry="1.5"/>
</g>
</svg>
