<?xml version="1.0" encoding="utf-8"?>
<!-- Generator: Adobe Illustrator 19.2.1, SVG Export Plug-In . SVG Version: 6.00 Build 0)  -->
<svg version="1.1" id="Layer_1" xmlns="http://www.w3.org/2000/svg" xmlns:xlink="http://www.w3.org/1999/xlink" x="0px" y="0px"
	 viewBox="0 0 16 16" enable-background="new 0 0 16 16" xml:space="preserve">
<g>
	<path d="M16,3.8C16,1.7,14.9,0,13.5,0C12.1,0,11,1.7,11,3.8C11,5,11.3,6,11.8,6.7l0,0c0,0,0.8,1.2,0.8,2.2v6.6
		c0,0.3,0.2,0.5,0.4,0.5H14c0.2,0,0.5-0.2,0.5-0.5V8.6c0.1-1,0.7-1.9,0.7-1.9l0,0C15.7,6,16,5,16,3.8z"/>
	<path d="M4.8,0L4.8,0L4.5,0v4.9c0,0.1-0.1,0.2-0.2,0.2H3.5c-0.1,0-0.2-0.1-0.2-0.2V0h-1v4.9c0,0.1-0.1,0.2-0.2,0.2H1.3
		C1.1,5.2,1,5.1,1,4.9V0H0.7C0.3,0.2,0,0.5,0,0.9v4.5C0,5.7,0.1,6,0.3,6.2h0c0,0,1.4,0.8,1.5,2.7v6.6C1.8,15.8,2,16,2.3,16h0.9
		c0.2,0,0.5-0.2,0.5-0.5V8.9c0.1-1.6,1.2-2.4,1.4-2.7c0.3-0.2,0.4-0.5,0.4-0.9V0.9C5.5,0.5,5.2,0.2,4.8,0z"/>
	<polygon points="8,12.9 5.8,14.5 6.7,11.9 4.5,10.4 7.2,10.4 8,7.9 8.8,10.4 11.5,10.4 9.3,11.9 10.2,14.5 	"/>
</g>
</svg>
