<?xml version="1.0" encoding="utf-8"?>
<!-- Generator: Adobe Illustrator 19.2.1, SVG Export Plug-In . SVG Version: 6.00 Build 0)  -->
<svg version="1.1" id="Layer_1" xmlns="http://www.w3.org/2000/svg" xmlns:xlink="http://www.w3.org/1999/xlink" x="0px" y="0px"
	 viewBox="0 0 16 14" enable-background="new 0 0 16 14" xml:space="preserve">
<g>
	<path d="M11.5,0h-7C3.7,0,3,0.7,3,1.5v5C3,7.3,3.7,8,4.5,8h7C12.3,8,13,7.3,13,6.5v-5C13,0.7,12.3,0,11.5,0z"/>
	<path d="M11.5,9.5h-7C3.7,9.5,3,10.2,3,11v0.5C3,12.3,3.7,13,4.5,13h7c0.8,0,1.5-0.7,1.5-1.5V11C13,10.2,12.3,9.5,11.5,9.5z"/>
	<path d="M1,4L1,4C0.4,4,0,4.4,0,5v9h2V5C2,4.4,1.6,4,1,4z"/>
	<path d="M15,4L15,4c-0.6,0-1,0.4-1,1v9h2V5C16,4.4,15.6,4,15,4z"/>
</g>
</svg>
