<?xml version="1.0" encoding="utf-8"?>
<!-- Generator: Adobe Illustrator 19.2.1, SVG Export Plug-In . SVG Version: 6.00 Build 0)  -->
<svg version="1.1" id="Layer_1" xmlns="http://www.w3.org/2000/svg" xmlns:xlink="http://www.w3.org/1999/xlink" x="0px" y="0px"
	 viewBox="0 0 16 16" enable-background="new 0 0 16 16" xml:space="preserve">
<path d="M14,0v9.7c0,2.3-1.9,4.3-4.3,4.3c-2.3,0-4.1-1.8-4.2-4h2.4C8.5,10,9,9.5,9,8.9V5H7.5V1c0-0.6-0.4-1-1-1s-1,0.4-1,1v4h-2V1
	c0-0.6-0.4-1-1-1s-1,0.4-1,1v4H0v3.9C0,9.5,0.5,10,1.1,10h2.3c0.1,1.6,0.7,3,1.8,4.2C6.5,15.3,8.1,16,9.7,16c1.7,0,3.2-0.7,4.4-1.8
	C15.3,13,16,11.4,16,9.7V0H14z"/>
</svg>
