<?xml version="1.0" encoding="utf-8"?>
<!-- Generator: Adobe Illustrator 19.2.1, SVG Export Plug-In . SVG Version: 6.00 Build 0)  -->
<svg version="1.1" id="Layer_1" xmlns="http://www.w3.org/2000/svg" xmlns:xlink="http://www.w3.org/1999/xlink" x="0px" y="0px"
	 viewBox="0 0 24 15" enable-background="new 0 0 24 15" xml:space="preserve">
<g>
	<g>
		<path d="M22.2,11.5L22.2,11.5l-20.5,0V0.9c0-0.3-0.1-0.5-0.2-0.7C1.3,0.1,1.1,0,0.8,0C0.4,0,0,0.4,0,0.9v14c0,0,0,0,0,0.1h1.7
			c0,0,0,0,0-0.1v-1.8h20.5v1.7c0,0,0,0.1,0,0.1H24c0,0,0-0.1,0-0.1v-3.4H22.2z M5,8.8c1.2,0,2.2-1.1,2.2-2.4S6.2,4.1,5,4.1
			c-1.2,0-2.2,1.1-2.2,2.4S3.8,8.8,5,8.8z M24,6.4C24,5.6,23.4,5,22.7,5H9.4C8.7,5,8.1,5.6,8.1,6.4v3.3H24V6.4z"/>
	</g>
</g>
</svg>
