<?xml version="1.0" encoding="utf-8"?>
<!-- Generator: Adobe Illustrator 19.2.1, SVG Export Plug-In . SVG Version: 6.00 Build 0)  -->
<svg version="1.1" id="Layer_1" xmlns="http://www.w3.org/2000/svg" xmlns:xlink="http://www.w3.org/1999/xlink" x="0px" y="0px"
	 viewBox="0 0 8.5 16" enable-background="new 0 0 8.5 16" xml:space="preserve">
<path fill="#231F20" d="M8.5,3.8H6v2.5h0.9v1.5L4.6,8.5v-6h1.1L4.3,0L2.8,2.5h1.1v7.9L1.6,9.3V7.7c0.5-0.2,0.9-0.6,0.9-1.2
	c0-0.7-0.6-1.3-1.2-1.3S0,5.8,0,6.5c0,0.6,0.4,1,0.9,1.2v2l3,1.5V12c-0.9,0.2-1.6,1-1.6,2c0,1.1,0.9,2,2,2s2-0.9,2-2
	c0-1-0.7-1.8-1.6-2V9.3l3-1v-2h0.9V3.8z"/>
</svg>
