<svg width="16" height="15" viewBox="0 0 16 15" fill="none" xmlns="http://www.w3.org/2000/svg">
<path d="M9.1373 0.770508C8.49328 0.770508 7.96918 1.29461 7.96918 1.93863V6.22176H8.74793C9.39196 6.22176 9.91605 6.74586 9.91605 7.38988V8.55801H13.0311V7.38988C13.0311 6.74586 13.5552 6.22176 14.1992 6.22176H14.9779V1.93863C14.9779 1.29461 14.4538 0.770508 13.8098 0.770508H9.1373ZM7.5798 7.00051C7.36487 7.00051 7.19043 7.17495 7.19043 7.38988V10.8943C7.19043 11.3237 7.5397 11.673 7.96918 11.673H14.9779C15.4074 11.673 15.7567 11.3237 15.7567 10.8943V7.38988C15.7567 7.17495 15.5826 7.00051 15.3673 7.00051H14.1992C13.9839 7.00051 13.8098 7.17495 13.8098 7.38988V9.33676H9.1373V7.38988C9.1373 7.17495 8.96286 7.00051 8.74793 7.00051H7.5798ZM8.35855 12.0624C8.35855 12.2894 8.14654 13.0395 7.99352 13.4982C7.9538 13.6174 7.96898 13.7498 8.04219 13.8511C8.115 13.9531 8.23318 14.0093 8.35855 14.0093H14.5886C14.7135 14.0093 14.8317 13.9531 14.9049 13.8511C14.9781 13.7494 14.9933 13.6166 14.9536 13.4982C14.8002 13.0399 14.5886 12.2902 14.5886 12.0624H8.35855Z" fill="#5A5095"/>
<path fill-rule="evenodd" clip-rule="evenodd" d="M-0.402734 0.770508H4.26977C4.91011 0.770508 5.43789 1.2981 5.43789 1.93863V7.00051H5.82727C5.93069 7.00051 6.02956 7.04157 6.10257 7.11458C6.14211 7.15432 6.17253 7.20185 6.19193 7.25356C6.20828 7.29672 6.21664 7.34292 6.21664 7.38988V10.8943C6.21664 11.3199 5.86339 11.673 5.43789 11.673H-1.57086C-1.99636 11.673 -2.34961 11.3199 -2.34961 10.8943V7.38988C-2.34961 7.28665 -2.30854 7.18759 -2.23553 7.11458C-2.16253 7.04157 -2.06366 7.00051 -1.96023 7.00051H-1.57086V1.93863C-1.57086 1.2981 -1.04307 0.770508 -0.402734 0.770508ZM5.43789 10.8943V7.77926H5.04852V9.33676C5.04852 9.44 5.00745 9.53905 4.93444 9.61206C4.86143 9.68507 4.76257 9.72613 4.65914 9.72613H-0.792109C-0.8385 9.72613 -0.883749 9.71796 -0.926337 9.70237C-0.952955 9.69248 -0.978431 9.67993 -1.00239 9.66472C-1.02558 9.6497 -1.04764 9.63202 -1.06741 9.61206C-1.10962 9.57004 -1.1408 9.51928 -1.16019 9.46395C-1.17426 9.42345 -1.18148 9.38049 -1.18148 9.33676V7.77926H-1.57086V10.8943H5.43789ZM4.26977 8.94738V7.38988C4.26939 7.29273 4.30551 7.19881 4.37053 7.12675C4.40399 7.09006 4.44354 7.0604 4.48727 7.03891C4.50704 7.02922 4.52758 7.02104 4.54887 7.01477C4.57282 7.00773 4.59754 7.00298 4.62264 7.00051H4.65914V1.93863C4.65914 1.71866 4.48993 1.54926 4.26977 1.54926H-0.402734C-0.463954 1.54926 -0.521372 1.56238 -0.572325 1.58614C-0.636587 1.61618 -0.690583 1.66295 -0.728608 1.72151C-0.768914 1.78311 -0.792109 1.85745 -0.792109 1.93863V7.00051H-0.755605C-0.658642 7.00963 -0.568903 7.05469 -0.5035 7.12675C-0.474601 7.15888 -0.451026 7.19539 -0.434295 7.23474C-0.42745 7.25052 -0.421747 7.26668 -0.417184 7.28322C-0.407677 7.31764 -0.402734 7.35357 -0.402734 7.38988V8.94738H4.26977Z" fill="#5A5095"/>
<path d="M-0.597041 13.0539L-0.60959 13.0967L-0.619096 13.128C-0.62518 13.1461 -0.630503 13.1573 -0.635827 13.1687L-0.646854 13.1959L-0.658262 13.2305H4.52529C4.50514 13.1638 4.49754 13.1702 4.47662 13.0967C4.37662 12.7468 4.26977 12.3875 4.26977 12.0624H5.04852C5.04852 12.1044 5.08198 12.2795 5.13027 12.4852C5.15993 12.6124 5.19491 12.7512 5.23104 12.8776C5.27172 13.0204 5.31127 13.1556 5.34321 13.263L5.41356 13.4982C5.43257 13.5564 5.43789 13.6182 5.42877 13.6786C5.41926 13.7391 5.39606 13.7965 5.3607 13.8461C5.35157 13.8587 5.34207 13.8708 5.33142 13.8823C5.32306 13.8916 5.31431 13.9003 5.3048 13.9087C5.28047 13.9307 5.25309 13.9496 5.22381 13.965C5.16982 13.9933 5.10974 14.0085 5.04852 14.0093H-1.18148C-1.2427 14.0085 -1.30278 13.9933 -1.35678 13.965C-1.37085 13.9577 -1.38416 13.9497 -1.39709 13.941C-1.40963 13.9324 -1.42142 13.9233 -1.43245 13.9134C-1.45526 13.8937 -1.4758 13.871 -1.49367 13.8461C-1.52903 13.7965 -1.55223 13.7391 -1.56173 13.6786C-1.57086 13.6182 -1.56554 13.5564 -1.54652 13.4982C-1.54652 13.4982 -1.45869 13.2085 -1.364 12.8776C-1.26932 12.5468 -1.18148 12.1303 -1.18148 12.0624H-0.402734C-0.402734 12.2219 -0.428591 12.3898 -0.466616 12.5607C-0.501979 12.7214 -0.54875 12.8847 -0.59476 13.0465L-0.597041 13.0539Z" fill="#5A5095"/>
</svg>
