<?xml version="1.0" encoding="utf-8"?>
<!-- Generator: Adobe Illustrator 19.2.1, SVG Export Plug-In . SVG Version: 6.00 Build 0)  -->
<svg version="1.1" id="Layer_1" xmlns="http://www.w3.org/2000/svg" xmlns:xlink="http://www.w3.org/1999/xlink" x="0px" y="0px"
	 viewBox="0 0 16 16" enable-background="new 0 0 16 16" xml:space="preserve">
<g>
	<g>
		<rect x="0" y="14.5" width="16" height="1.5"/>
		<polygon points="8,2.5 0,8 0,9.5 16,9.5 16,8 		"/>
		<polygon points="4,13 6,12 8,13 10,12 12,13 14,12 16,13 16,12 14,11 12,12 10,11 8,12 6,11 4,12 2,11 0,12 0,13 2,12 		"/>
	</g>
	<g>
		<g>
			<polygon points="13.4,3.8 11.7,5 12.4,3.1 10.7,1.9 12.8,1.9 13.4,0 14,1.9 16,1.9 14.3,3.1 15,5 			"/>
		</g>
	</g>
</g>
</svg>
