<?xml version="1.0" encoding="utf-8"?>
<!-- Generator: Adobe Illustrator 19.2.1, SVG Export Plug-In . SVG Version: 6.00 Build 0)  -->
<svg version="1.1" id="Layer_1" xmlns="http://www.w3.org/2000/svg" xmlns:xlink="http://www.w3.org/1999/xlink" x="0px" y="0px"
	 viewBox="0 0 12.5 16" enable-background="new 0 0 12.5 16" xml:space="preserve">
<path fill="#010101" d="M12,0L3.6,2.5C3.4,2.6,3.5,2.7,3.5,3l0,9.8c-0.3-0.3-0.8-0.5-1.3-0.5c-1.2,0-2.2,1-2.2,2S1.1,16,2.2,16
	c1.2,0,2-0.8,2-1.8l0-8L11.7,4v5.8c-0.3-0.2-0.8-0.3-1.3-0.3c-1.2,0-2,1-2,2s0.8,1.8,2,1.8s2-1,2-2V0.5C12.5,0.2,12.3-0.1,12,0z"/>
</svg>
