<?xml version="1.0" encoding="utf-8"?>
<!-- Generator: Adobe Illustrator 19.2.1, SVG Export Plug-In . SVG Version: 6.00 Build 0)  -->
<svg version="1.1" id="Layer_1" xmlns="http://www.w3.org/2000/svg" xmlns:xlink="http://www.w3.org/1999/xlink" x="0px" y="0px"
	 viewBox="0 0 16 15" enable-background="new 0 0 16 15" xml:space="preserve">
<path d="M14,4h-2.8V1.5c0-0.8-0.7-1.5-1.5-1.5H6.2C5.4,0,4.8,0.7,4.8,1.5V4H2C0.9,4,0,4.9,0,6v7c0,1.1,0.9,2,2,2h12c1.1,0,2-0.9,2-2
	V6C16,4.9,15.1,4,14,4z M5.8,1.5C5.8,1.2,6,1,6.2,1h3.5c0.3,0,0.5,0.2,0.5,0.5V4H5.8V1.5z M10.6,13.5l-2.6-2l-2.6,2l1.1-3.1L3.8,8.6
	l3.3,0.1L8,5.5l0.9,3.1l3.3-0.1l-2.7,1.9L10.6,13.5z"/>
</svg>
