<?xml version="1.0" encoding="utf-8"?>
<!-- Generator: Adobe Illustrator 23.0.0, SVG Export Plug-In . SVG Version: 6.00 Build 0)  -->
<svg version="1.1" id="Layer_1" xmlns="http://www.w3.org/2000/svg" xmlns:xlink="http://www.w3.org/1999/xlink" x="0px" y="0px"
	 viewBox="0 0 29 25" style="enable-background:new 0 0 29 25;" xml:space="preserve">
<g>
	<g>
		<path d="M23.4,24.8c-0.2,0-0.4-0.1-0.5-0.2l-3-3h-1.6c-2,0-3.9-1.3-5-3.3c-0.2-0.4-0.1-0.8,0.3-1c0.4-0.2,0.8-0.1,1,0.3
			c0.8,1.5,2.3,2.5,3.7,2.5h1.9c0.2,0,0.4,0.1,0.5,0.2l2,2v-1.7c0-0.4,0.3-0.7,0.7-0.7c2.2-0.1,4.2-2.3,4.2-4.8
			c0-2.7-1.9-4.8-4.2-4.8c-0.4,0-0.7-0.3-0.7-0.7s0.3-0.7,0.7-0.7c3.2,0,5.7,2.7,5.7,6.2c0,3-2.2,5.7-4.9,6.2V24
			c0,0.3-0.2,0.6-0.4,0.7C23.6,24.7,23.5,24.8,23.4,24.8z"/>
	</g>
	<path d="M13.6,16.5"/>
	<path d="M14,0.2H6.9C3,0.2,0,3.7,0,8c0,3.9,2,7,5.8,7.7v5.6l6-5.3H14c3.9,0,7-3.5,7-7.9C21,3.8,17.8,0.2,14,0.2z M10.7,11.8H5.8
		c-0.4,0-0.7-0.3-0.7-0.7s0.3-0.7,0.7-0.7h4.9c0.4,0,0.7,0.3,0.7,0.7S11.1,11.8,10.7,11.8z M15.6,8.8H5.8C5.4,8.8,5,8.5,5,8.1
		c0-0.4,0.3-0.7,0.7-0.7h9.8c0.4,0,0.7,0.3,0.7,0.7C16.3,8.5,16,8.8,15.6,8.8z M15.6,5.9H5.8C5.4,5.9,5,5.6,5,5.2
		c0-0.4,0.3-0.7,0.7-0.7h9.8c0.4,0,0.7,0.3,0.7,0.7C16.3,5.6,16,5.9,15.6,5.9z"/>
</g>
</svg>
