<?xml version="1.0" encoding="utf-8"?>
<!-- Generator: Adobe Illustrator 19.2.1, SVG Export Plug-In . SVG Version: 6.00 Build 0)  -->
<svg version="1.1" id="Layer_1" xmlns="http://www.w3.org/2000/svg" xmlns:xlink="http://www.w3.org/1999/xlink" x="0px" y="0px"
	 viewBox="0 0 16 16" enable-background="new 0 0 16 16" xml:space="preserve">
<path d="M16,7.3c0-2.4-2-4.3-4.6-4.3c-1.2,0-2.2,0.5-3,1.1c0,0,0,0,0-0.1C8.4,3.6,8.3,3,8.1,2.5C7.8,1.6,7.2,0.8,6.6,0.2
	C6.2-0.2,5.5,0.1,5.5,0.7c0,0.4,0.5,0.6,0.7,0.8C7,2.2,7.6,3,7.8,4c0,0.1,0,0.2,0,0.3C7,3.5,5.8,3,4.6,3C2.1,3,0,4.9,0,7.3
	c0,0-0.2,4.2,3.1,7.6C4.3,16,4.9,16,5.1,16c1.5,0,1.8-1.2,2.9-1.2c1,0,1.4,1.2,2.9,1.2c0.2,0,0.9,0,2.1-1.1C16.2,11.5,16,7.3,16,7.3
	z"/>
</svg>
