<svg viewBox="0 0 20 20" fill="none" xmlns="http://www.w3.org/2000/svg">
<rect width="20" height="20" fill="white"/>
<path fill-rule="evenodd" clip-rule="evenodd" d="M20 20H10.0502H0V10.0186V0H9.90113H20V10.0756V20Z" fill="white"/>
<path fill-rule="evenodd" clip-rule="evenodd" d="M20 20V16.831H17.587L16.345 15.4573L15.0965 16.831H7.141V10.429H4.57335L7.75843 3.22134H10.8297L11.9264 5.69072V3.22134H15.7282L16.3884 5.08229L17.0527 3.22134H20V0H0V20H20ZM17.9937 16.0295H20L17.3459 13.2148L20 10.4324H18.0256L16.3866 12.2233L14.763 10.4324H12.7561L15.3947 13.2309L12.7561 16.0295H14.7073L16.3543 14.2225L17.9937 16.0295ZM18.4629 13.2173L20 14.8523V11.5956L18.4629 13.2173ZM9.51803 14.7342V13.8623H12.6761V12.5993H9.51803V11.7277H12.7561V10.4324H7.99058V16.0295H12.7561V14.7342H9.51803ZM18.4887 9.61999H20V4.02288H17.6493L16.3937 7.50922L15.1465 4.02288H12.7558V9.61999H14.2668V5.7022L15.7062 9.61999H17.0496L18.4887 5.69414V9.61999ZM11.0368 9.61999H12.7558L10.2852 4.02288H8.3182L5.84725 9.61999H7.52658L7.99027 8.50076H10.5647L11.0368 9.61999ZM10.0372 7.24514H8.5178L9.2775 5.41425L10.0372 7.24514Z" fill="#006FCF"/>
</svg>
