<svg id="Capa_1" data-name="Capa 1" xmlns="http://www.w3.org/2000/svg" viewBox="0 0 55 50"><defs><style>.cls-1{opacity:0.5;}.cls-2{fill:#fff;}</style></defs><title>Mesa de trabajo 2</title><g class="cls-1"><path class="cls-2" d="M20.55,13.41a4.74,4.74,0,1,1,4.74-4.74A4.75,4.75,0,0,1,20.55,13.41Zm0-8a3.27,3.27,0,1,0,3.27,3.27A3.28,3.28,0,0,0,20.55,5.4Z"/></g><path class="cls-2" d="M12.23,15.11a2.59,2.59,0,0,1-2.48-1.84l-3-9.8A2.6,2.6,0,0,1,8.52.24,2.6,2.6,0,0,1,11.75,2l3,9.8A2.59,2.59,0,0,1,13,15,2.43,2.43,0,0,1,12.23,15.11ZM9.27,1.6a1.26,1.26,0,0,0-.33,0A1.12,1.12,0,0,0,8.19,3l3,9.8a1.12,1.12,0,1,0,2.14-.64l-3-9.8A1.12,1.12,0,0,0,9.27,1.6Z"/><g class="cls-1"><path class="cls-2" d="M37.59,49.87a.73.73,0,0,1-.72-.61l-2.11-11.9a2.12,2.12,0,0,0-2-1.79h0s-1.29-.11-3.94-.11-5.26.28-5.29.28h0c-3,.15-5.31-2.19-5.52-5.68l-.47-3.59-.51-6a4,4,0,0,1,3.8-4.3h.34a3.91,3.91,0,0,1,4.15,3.32L26,25.06l5.09,3.36a.74.74,0,0,1,.2,1,.73.73,0,0,1-1,.21l-5.63-3.72-.91-6.21a2.44,2.44,0,0,0-2.59-2.06h0l-.36,0a2.47,2.47,0,0,0-2.38,2.69l.51,6L19.36,30c.12,2.18,1.33,4.32,3.77,4.32h.18c.29,0,2.8-.29,5.43-.29s3.86.1,4.05.12a3.58,3.58,0,0,1,3.42,3L38.32,49a.74.74,0,0,1-.6.85Z"/></g><path class="cls-2" d="M11.56,15.91a2.51,2.51,0,0,1,2.69,2.21L15.88,32a6.53,6.53,0,0,0,6.61,5.75h8.94a2.61,2.61,0,1,1,0,5.21h-9A11.62,11.62,0,0,1,10.92,32.76l-1.67-14a2.51,2.51,0,0,1,2.31-2.81m.19,1.46h-.08a1,1,0,0,0-.73.38,1.06,1.06,0,0,0-.23.79l1.67,14a10.15,10.15,0,0,0,10.07,8.93h9a1.14,1.14,0,1,0,0-2.27H22.49a8.2,8.2,0,0,1-5.42-2,8,8,0,0,1-2.66-5L12.79,18.29A1,1,0,0,0,11.75,17.37Z"/><path class="cls-2" d="M47,10.89H41.48V5.4A1.36,1.36,0,0,0,40.12,4H40A1.36,1.36,0,0,0,38.59,5.4v5.49H33.1a1.36,1.36,0,0,0-1.36,1.36v.17a1.36,1.36,0,0,0,1.36,1.36h5.49v5.49A1.36,1.36,0,0,0,40,20.63h.17a1.36,1.36,0,0,0,1.36-1.36V13.78H47a1.36,1.36,0,0,0,1.36-1.36v-.17A1.36,1.36,0,0,0,47,10.89Z"/></svg>