<svg width="40" height="40" viewBox="0 0 40 40" fill="none" xmlns="http://www.w3.org/2000/svg">
<path d="M17.52 28.8009H21.5846" stroke="#0B2343" stroke-miterlimit="10" stroke-linecap="round" stroke-linejoin="round"/>
<path d="M12.7383 31.1918C14.0587 31.1918 15.1291 30.1214 15.1291 28.8009C15.1291 27.4804 14.0587 26.41 12.7383 26.41C11.4178 26.41 10.3473 27.4804 10.3473 28.8009C10.3473 30.1214 11.4178 31.1918 12.7383 31.1918Z" stroke="#0B2343" stroke-linecap="round" stroke-linejoin="round"/>
<path d="M26.6055 31.1918C27.7939 31.1918 28.7573 30.1214 28.7573 28.8009C28.7573 27.4804 27.7939 26.41 26.6055 26.41C25.4171 26.41 24.4536 27.4804 24.4536 28.8009C24.4536 30.1214 25.4171 31.1918 26.6055 31.1918Z" stroke="#0B2343" stroke-linecap="round" stroke-linejoin="round"/>
<path d="M30.281 28.3227C30.831 28.3227 32.1046 27.3137 32.1046 26.7162V23.8949C32.1046 22.8467 31.1108 21.9455 30.1363 21.7887L24.1255 21.0736L21.7328 15.0392C21.5688 14.6572 21.1827 14.2164 20.7872 14.2164H8.07093C7.52099 14.2164 7 14.5789 7 15.2352V26.0403C7 26.8828 7.27973 27.2745 7.65601 27.4411L8.17705 27.7937" stroke="#0B2343" stroke-miterlimit="10" stroke-linecap="round" stroke-linejoin="round"/>
<path d="M7.23911 21.15H24.4537" stroke="#0B2343" stroke-miterlimit="10" stroke-linecap="round" stroke-linejoin="round"/>
<path d="M16.5636 14.2164V21.15" stroke="#0B2343" stroke-miterlimit="10" stroke-linecap="round" stroke-linejoin="round"/>
<path d="M20.15 14.2164C20.15 13.3754 19.7808 12.7818 19.3284 12.7818H17.8635C17.4081 12.7818 17.0418 13.3754 17.0418 14.2164H20.15Z" stroke="#0B2343" stroke-miterlimit="10" stroke-linecap="round" stroke-linejoin="round"/>
<path d="M16.5605 10.8331L16.5605 10.8331C16.5872 10.8186 16.6001 10.7986 16.6053 10.7806C16.6104 10.7629 16.609 10.7447 16.598 10.7258C16.598 10.7258 16.598 10.7258 16.598 10.7257L15.8301 9.40878L15.8301 9.40871C15.8186 9.38902 15.7979 9.37157 15.7671 9.36328C15.7363 9.35496 15.7042 9.3585 15.6768 9.37345L16.5605 10.8331ZM16.5605 10.8331C16.5347 10.8472 16.5021 10.8514 16.47 10.8429C16.439 10.8347 16.4186 10.8176 16.4072 10.798L16.4071 10.7978M16.5605 10.8331L16.4071 10.7978M16.4071 10.7978L15.6393 9.48083M16.4071 10.7978L15.6393 9.48083M21.5019 10.7979L21.502 10.7978L22.2698 9.48083C22.2698 9.48082 22.2698 9.48081 22.2698 9.4808C22.2809 9.46185 22.2823 9.44358 22.2772 9.4259C22.272 9.40793 22.2591 9.38805 22.2324 9.37347L22.2322 9.37336C22.205 9.3585 22.1729 9.35491 22.142 9.36324C22.1113 9.37154 22.0905 9.38903 22.0789 9.40878L21.5019 10.7979ZM21.5019 10.7979C21.4907 10.8172 21.4704 10.8345 21.439 10.8427C21.4065 10.8513 21.3739 10.8469 21.3486 10.8331L21.3485 10.8331C21.3218 10.8185 21.3089 10.7986 21.3037 10.7807C21.2986 10.763 21.3001 10.7447 21.3111 10.7258C21.3111 10.7258 21.3111 10.7258 21.3111 10.7257L22.0789 9.4088L21.5019 10.7979ZM15.6393 9.48083C15.6393 9.48082 15.6393 9.48081 15.6393 9.4808M15.6393 9.48083L15.6393 9.4808M15.6393 9.4808C15.6282 9.46189 15.6268 9.44363 15.6319 9.42594M15.6393 9.4808L15.6319 9.42594M15.6319 9.42594C15.6371 9.40793 15.65 9.38804 15.6767 9.37347L15.6319 9.42594ZM19.06 10.355C19.06 10.3871 19.0285 10.4409 18.9545 10.4409C18.8805 10.4409 18.849 10.3871 18.849 10.355V8.58585C18.849 8.55382 18.8805 8.5 18.9545 8.5C19.0285 8.5 19.06 8.55382 19.06 8.58585V10.355Z" fill="#0B2343" stroke="#0B2343"/>
<rect x="13.7589" y="17.1039" width="1.1035" height="3.86224" rx="0.551749" transform="rotate(90 13.7589 17.1039)" fill="#0B2343"/>
<rect x="12.3795" y="19.5867" width="1.1035" height="3.86224" rx="0.551749" transform="rotate(-180 12.3795 19.5867)" fill="#0B2343"/>
</svg>
