<svg width="40" height="40" viewBox="0 0 40 40" fill="none" xmlns="http://www.w3.org/2000/svg">
<path d="M33.05 26.1801L30.49 21.2401L25.55 23.8" stroke="#0B2343" stroke-miterlimit="10" stroke-linecap="round" stroke-linejoin="round"/>
<path d="M6 26.1801L8.56006 21.2401L13.5 23.8" stroke="#0B2343" stroke-miterlimit="10" stroke-linecap="round" stroke-linejoin="round"/>
<path d="M30.49 21.2401C30.49 27.3001 25.58 32.2101 19.52 32.2101C13.46 32.2101 8.55005 27.3001 8.55005 21.2401" stroke="#0B2343" stroke-miterlimit="10" stroke-linecap="round" stroke-linejoin="round"/>
<path d="M19.53 32.2101V12.42" stroke="#0B2343" stroke-miterlimit="10" stroke-linecap="round" stroke-linejoin="round"/>
<path d="M21.74 10.2101C21.74 11.4301 20.75 12.4201 19.53 12.4201C18.31 12.4201 17.3201 11.4301 17.3201 10.2101C17.3201 8.9901 18.31 8.00007 19.53 8.00007C20.75 7.99007 21.74 8.9901 21.74 10.2101Z" stroke="#0B2343" stroke-miterlimit="10" stroke-linecap="round" stroke-linejoin="round"/>
<path d="M15.0701 13.3701H23.99" stroke="#0B2343" stroke-miterlimit="10" stroke-linecap="round" stroke-linejoin="round"/>
</svg>
