<?xml version="1.0" encoding="utf-8"?>
<!-- Generator: Adobe Illustrator 19.1.0, SVG Export Plug-In . SVG Version: 6.00 Build 0)  -->
<svg version="1.1" id="Layer_1" xmlns="http://www.w3.org/2000/svg" xmlns:xlink="http://www.w3.org/1999/xlink" x="0px" y="0px"
	 viewBox="0 0 38 50" enable-background="new 0 0 38 50" xml:space="preserve">
<g>
	<path d="M35.5,10.9L33,5c-0.1-0.3-0.4-0.5-0.7-0.6L31,4.1C34.2,2.5,37.1,2,37.2,2c0.5-0.1,0.9-0.6,0.8-1.2
		c-0.1-0.5-0.6-0.9-1.2-0.8c-0.3,0.1-4.6,0.8-8.7,3.3L16.8,0.3c-0.3-0.1-0.6,0-0.8,0.1l-5.4,3.8c-0.2,0.1-0.3,0.3-0.4,0.6L0,42.5
		c-0.1,0.5,0.2,1.1,0.7,1.2L24.2,50c0.5,0.1,1.1-0.2,1.2-0.7l10.1-37.7C35.6,11.3,35.6,11.1,35.5,10.9z M16.7,2.3L26,4.8
		c-1.4,1.1-2.7,2.5-3.7,4.1c-2-0.3-3.9,0.9-4.5,2.9c-0.6,2.2,0.7,4.4,2.9,5s4.4-0.7,5-2.9c0.4-1.6-0.2-3.3-1.5-4.3
		c1.1-1.7,2.7-3.1,4.3-4.2l2.9,0.8l2.1,5.1l-3.5,13L8.5,18.6l3.5-13L16.7,2.3z M23.7,13.4c-0.3,1.1-1.4,1.7-2.5,1.5
		c-1.1-0.3-1.7-1.4-1.5-2.5c0.2-0.8,0.8-1.3,1.6-1.5c-0.2,0.6-0.4,1.1-0.5,1.8c-0.1,0.5,0.2,1,0.7,1.2c0,0,0,0,0,0
		c0.5,0.1,1.1-0.2,1.2-0.7c0.1-0.6,0.3-1.1,0.5-1.6C23.7,12,23.9,12.7,23.7,13.4z M2.2,42L8,20.5l21.5,5.8l-5.8,21.5L2.2,42z"/>
	<path d="M22.2,29.3l-3.9,2.2l-5.6-4.2c-0.4-0.3-1.1-0.2-1.4,0.2c-0.3,0.4-0.2,1.1,0.2,1.4l4.9,3.7l-4.5,2.6l-2.3-1.2
		c-0.5-0.2-1.1-0.1-1.3,0.4c-0.2,0.5-0.1,1.1,0.4,1.3l2.3,1.1l0,2.7c0,0.5,0.3,0.9,0.7,1c0.1,0,0.2,0,0.2,0c0.5,0,1-0.4,1-1l0-2.8
		l4.5-2.6l0.8,6.2c0.1,0.4,0.4,0.7,0.7,0.8c0.1,0,0.2,0,0.4,0c0.5-0.1,0.9-0.6,0.9-1.1l-0.9-7l3.8-2.2c0.5-0.3,0.6-0.9,0.4-1.4
		C23.2,29.2,22.6,29,22.2,29.3z"/>
</g>
</svg>
