<?xml version="1.0" encoding="utf-8"?>
<!-- Generator: Adobe Illustrator 19.1.0, SVG Export Plug-In . SVG Version: 6.00 Build 0)  -->
<svg version="1.1" id="Layer_1" xmlns="http://www.w3.org/2000/svg" xmlns:xlink="http://www.w3.org/1999/xlink" x="0px" y="0px"
	 viewBox="0 0 50 50" enable-background="new 0 0 50 50" xml:space="preserve">
<g>
	<path d="M25.1,29.8c-0.6,0-1,0.5-1,1v13.4c0,2-1.7,3.7-3.7,3.7s-3.7-1.7-3.7-3.7c0-0.6-0.5-1-1-1s-1,0.5-1,1c0,3.2,2.6,5.8,5.8,5.8
		s5.8-2.6,5.8-5.8V30.8C26.1,30.3,25.6,29.8,25.1,29.8z"/>
	<path d="M26.1,3.9V1c0-0.6-0.5-1-1-1s-1,0.5-1,1v2.9C10.7,4.4,0,14.2,0,26.2c0,0.6,0.5,1,1,1h0.5c0.4,0,0.8-0.3,1-0.7
		c0.7-2,2.6-3.3,4.7-3.3s4,1.3,4.7,3.3c0.1,0.4,0.5,0.7,1,0.7h0.7c0.4,0,0.8-0.3,1-0.7c0.7-2,2.6-3.3,4.7-3.3s4,1.3,4.7,3.3
		c0.1,0.4,0.5,0.7,1,0.7h0.4c0.4,0,0.8-0.3,1-0.7c0.7-2,2.6-3.3,4.7-3.3s4,1.3,4.7,3.3c0.1,0.4,0.5,0.7,1,0.7h0.7
		c0.4,0,0.8-0.3,1-0.7c0.7-2,2.6-3.3,4.7-3.3s4,1.3,4.7,3.3c0.1,0.4,0.5,0.7,1,0.7H49c0.6,0,1-0.5,1-1C50,14.2,39.4,4.4,26.1,3.9z
		 M43,21.1c-2.5,0-4.7,1.3-6,3.4c-1.3-2.1-3.5-3.4-6-3.4c-2.4,0-4.6,1.2-5.9,3.2c-1.3-2-3.5-3.2-5.9-3.2c-2.5,0-4.7,1.3-6,3.4
		c-1.3-2.1-3.5-3.4-6-3.4c-1.8,0-3.5,0.7-4.8,1.9C4.1,13.4,13.6,6,25,6c11.3,0,20.8,7.3,22.6,16.9C46.3,21.7,44.7,21.1,43,21.1z"/>
</g>
</svg>
