<?xml version="1.0" encoding="utf-8"?>
<!-- Generator: Adobe Illustrator 19.1.0, SVG Export Plug-In . SVG Version: 6.00 Build 0)  -->
<svg version="1.1" id="Layer_1" xmlns="http://www.w3.org/2000/svg" xmlns:xlink="http://www.w3.org/1999/xlink" x="0px" y="0px"
	 viewBox="0 0 48 50" enable-background="new 0 0 48 50" xml:space="preserve">
<g>
	<path d="M47,43.7h-2.4H3.2H1c-0.6,0-1,0.5-1,1s0.5,1,1,1h1.5l2.3,3.7C5.1,49.8,5.4,50,5.8,50H42c0.4,0,0.7-0.2,0.9-0.5l2.3-3.7H47
		c0.6,0,1-0.5,1-1S47.5,43.7,47,43.7z M41.4,47.9H6.4L5,45.8h37.7L41.4,47.9z"/>
	<path d="M3.1,41.6h41.5c0.6,0,1-0.5,1-1c0-12.7-9.2-21.9-21.8-21.9S2.1,27.9,2.1,40.6C2.1,41.2,2.5,41.6,3.1,41.6z M23.9,20.8
		c11.1,0,19.2,7.8,19.7,18.7H4.2C4.7,28.6,12.8,20.8,23.9,20.8z"/>
	<path d="M21.4,17.9c0.6,0,1-0.5,1-1c0-2.6,2.8-2.6,2.8,0c0,0.6,0.5,1,1,1c0.6,0,1-0.5,1-1c0-4-4.1-4.9-5.9-2.9
		c-0.5,0.5-1.1,1.4-1.1,2.9C20.4,17.5,20.8,17.9,21.4,17.9z"/>
	<path d="M18,24.3c-4.4,1.9-7.4,5.6-8.9,11c-0.2,0.6,0.2,1.1,0.7,1.3c0.1,0,0.2,0,0.3,0c0.5,0,0.9-0.3,1-0.8c1.4-4.9,3.9-8,7.8-9.7
		c0.5-0.2,0.8-0.8,0.5-1.4C19.1,24.3,18.5,24,18,24.3z"/>
	<path d="M23.9,10.1c0.6,0,1-0.5,1-1V1c0-0.6-0.5-1-1-1c-0.6,0-1,0.5-1,1v8C22.8,9.6,23.3,10.1,23.9,10.1z"/>
	<path d="M35.8,15.1c0.3,0,0.5-0.1,0.8-0.3l6.2-6.5c0.4-0.4,0.4-1.1,0-1.5c-0.4-0.4-1.1-0.4-1.5,0l-6.2,6.5c-0.4,0.4-0.4,1.1,0,1.5
		C35.3,15,35.5,15.1,35.8,15.1z"/>
	<path d="M11.2,14.8c0.2,0.2,0.5,0.3,0.8,0.3c0.3,0,0.5-0.1,0.7-0.3c0.4-0.4,0.4-1.1,0-1.5L6.5,6.8C6.1,6.4,5.4,6.4,5,6.8
		C4.6,7.2,4.6,7.9,5,8.3L11.2,14.8z"/>
</g>
</svg>
