<svg width="40" height="40" viewBox="0 0 40 40" fill="none" xmlns="http://www.w3.org/2000/svg">
<path d="M31.7716 28.1557C31.7716 30.8339 29.602 33.0027 26.9253 33.0027C24.2486 33.0027 22.0784 30.8339 22.0784 28.1557C22.0784 25.4798 24.2486 23.311 26.9253 23.311C29.602 23.311 31.7716 25.4798 31.7716 28.1557Z" stroke="#0B2343" stroke-miterlimit="10" stroke-linecap="round" stroke-linejoin="round"/>
<path d="M25.3184 29.9171C25.7462 30.2899 26.4061 30.5696 26.8824 30.5696C27.645 30.5696 28.2629 30.0294 28.2629 29.3622C28.2629 28.6958 27.6031 28.3677 26.8824 28.1571C26.136 27.9215 25.5026 27.6162 25.5026 26.9498C25.5026 26.2833 26.1206 25.7432 26.8824 25.7432C27.3962 25.7432 27.8439 25.9883 28.0817 26.3523" stroke="#0B2343" stroke-miterlimit="10" stroke-linecap="round" stroke-linejoin="round"/>
<path d="M26.8826 25.0839V31.2292" stroke="#0B2343" stroke-miterlimit="10" stroke-linecap="round" stroke-linejoin="round"/>
<path d="M26.2925 22.6163C26.1361 22.38 26.0297 22.2449 26.0297 22.2449C23.466 18.5495 19.8367 18.6185 19.2473 18.6559C18.658 18.6185 15.0286 18.5495 12.4642 22.2449C12.4642 22.2449 9.25395 26.3132 12.073 29.1058C14.8921 31.8999 16.1919 27.1322 19.1556 27.2996C20.0407 27.2489 20.7938 27.6394 21.4895 28.1363" stroke="#0B2343" stroke-miterlimit="10" stroke-linecap="round" stroke-linejoin="round"/>
<path d="M26.2925 22.6163C26.1361 22.38 26.0297 22.2449 26.0297 22.2449C23.466 18.5495 19.8367 18.6185 19.2473 18.6559C18.658 18.6185 15.0286 18.5495 12.4642 22.2449C12.4642 22.2449 9.25395 26.3132 12.073 29.1058C14.8921 31.8999 16.1919 27.1322 19.1556 27.2996C20.0407 27.2489 20.7938 27.6394 21.4895 28.1363" stroke="#0B2343" stroke-miterlimit="10" stroke-linecap="round" stroke-linejoin="round"/>
<path d="M18.7637 12.026C18.7637 14.801 17.1491 17.0513 15.1571 17.0513C13.1652 17.0513 11.5513 14.801 11.5513 12.026C11.5513 9.24945 13.1652 6.99991 15.1571 6.99991C17.1491 6.99991 18.7637 9.24945 18.7637 12.026Z" stroke="#0B2343" stroke-miterlimit="10" stroke-linecap="round" stroke-linejoin="round"/>
<path d="M27.265 12.026C27.265 14.801 25.6503 17.0513 23.6584 17.0513C21.6664 17.0513 20.0525 14.801 20.0525 12.026C20.0525 9.24945 21.6664 6.99991 23.6584 6.99991C25.6503 6.99991 27.265 9.24945 27.265 12.026Z" stroke="#0B2343" stroke-miterlimit="10" stroke-linecap="round" stroke-linejoin="round"/>
<path d="M33 18.7508C33 20.8865 31.7575 22.6187 30.225 22.6187C28.6918 22.6187 27.4492 20.8865 27.4492 18.7508C27.4492 16.615 28.6918 14.8829 30.225 14.8829C31.7575 14.8829 33 16.615 33 18.7508Z" stroke="#0B2343" stroke-miterlimit="10" stroke-linecap="round" stroke-linejoin="round"/>
<path d="M11.5508 18.7508C11.5508 20.8865 10.3083 22.6187 8.77578 22.6187C7.24257 22.6187 6 20.8865 6 18.7508C6 16.615 7.24257 14.8829 8.77578 14.8829C10.3083 14.8829 11.5508 16.615 11.5508 18.7508Z" stroke="#0B2343" stroke-miterlimit="10" stroke-linecap="round" stroke-linejoin="round"/>
</svg>
