<svg width="40" height="40" viewBox="0 0 40 40" fill="none" xmlns="http://www.w3.org/2000/svg">
<path d="M26.1782 23.3645C23.5953 19.6409 19.9411 19.7104 19.346 19.75C18.7508 19.7104 15.0947 19.6409 12.5098 23.3645C12.5098 23.3645 9.27815 27.4631 12.115 30.2761C14.9558 33.0931 16.2671 28.2883 19.2527 28.455C22.2403 28.2883 23.7341 33.0931 26.573 30.2761C29.4138 27.4631 26.1782 23.3645 26.1782 23.3645Z" stroke="#0B2343" stroke-miterlimit="10" stroke-linecap="round" stroke-linejoin="round"/>
<path d="M18.857 13.0647C18.857 15.8618 17.2323 18.1333 15.2227 18.1333C13.2171 18.1333 11.5903 15.8618 11.5903 13.0647C11.5903 10.2715 13.2171 8.00002 15.2227 8.00002C17.2323 8.00002 18.857 10.2715 18.857 13.0647Z" stroke="#0B2343" stroke-miterlimit="10" stroke-linecap="round" stroke-linejoin="round"/>
<path d="M27.4242 13.0647C27.4242 15.8618 25.7974 18.1333 23.7898 18.1333C21.7822 18.1333 20.1575 15.8618 20.1575 13.0647C20.1575 10.2715 21.7822 8.00002 23.7898 8.00002C25.7974 8.00002 27.4242 10.2715 27.4242 13.0647Z" stroke="#0B2343" stroke-miterlimit="10" stroke-linecap="round" stroke-linejoin="round"/>
<path d="M33.201 19.8438C33.201 21.9982 31.9492 23.7419 30.4038 23.7419C28.8604 23.7419 27.6106 21.9982 27.6106 19.8438C27.6106 17.6933 28.8604 15.9496 30.4038 15.9496C31.9492 15.9496 33.201 17.6933 33.201 19.8438Z" stroke="#0B2343" stroke-miterlimit="10" stroke-linecap="round" stroke-linejoin="round"/>
<path d="M11.5904 19.8438C11.5904 21.9982 10.3386 23.7419 8.7932 23.7419C7.2498 23.7419 6 21.9982 6 19.8438C6 17.6933 7.2498 15.9496 8.7932 15.9496C10.3386 15.9496 11.5904 17.6933 11.5904 19.8438Z" stroke="#0B2343" stroke-miterlimit="10" stroke-linecap="round" stroke-linejoin="round"/>
</svg>
