<svg width="40" height="40" viewBox="0 0 40 40" fill="none" xmlns="http://www.w3.org/2000/svg">
<path d="M20.3837 16.4299L23.8237 34.01H16.4237L19.8637 16.4299" stroke="#0B2343" stroke-miterlimit="10" stroke-linecap="round" stroke-linejoin="round"/>
<path d="M20.1237 16.45C19.3437 16.45 18.7137 15.82 18.7137 15.04C18.7137 14.26 19.3437 13.6299 20.1237 13.6299C20.9037 13.6299 21.5338 14.26 21.5338 15.04C21.5338 15.82 20.9037 16.45 20.1237 16.45Z" stroke="#0B2343" stroke-linecap="round" stroke-linejoin="round"/>
<path d="M12.8237 8.94995C9.28374 12.26 9.29374 17.8199 12.8237 21.1299" stroke="#0B2343" stroke-miterlimit="10" stroke-linecap="round" stroke-linejoin="round"/>
<path d="M9.87375 6C4.71375 10.94 4.70375 19.1301 9.87375 24.0801" stroke="#0B2343" stroke-miterlimit="10" stroke-linecap="round" stroke-linejoin="round"/>
<path d="M15.7738 18.1799C13.8738 16.5099 13.8738 13.5699 15.7738 11.9099" stroke="#0B2343" stroke-miterlimit="10" stroke-linecap="round" stroke-linejoin="round"/>
<path d="M27.4237 21.1299C30.9637 17.8199 30.9537 12.26 27.4237 8.94995" stroke="#0B2343" stroke-miterlimit="10" stroke-linecap="round" stroke-linejoin="round"/>
<path d="M30.3737 24.0801C35.5337 19.1401 35.5337 10.95 30.3737 6" stroke="#0B2343" stroke-miterlimit="10" stroke-linecap="round" stroke-linejoin="round"/>
<path d="M24.4738 11.9099C26.3738 13.5799 26.3738 16.5199 24.4738 18.1799" stroke="#0B2343" stroke-miterlimit="10" stroke-linecap="round" stroke-linejoin="round"/>
</svg>
