<svg width="40" height="40" viewBox="0 0 40 40" fill="none" xmlns="http://www.w3.org/2000/svg">
<path d="M24.4943 15.2269C23.038 15.0296 21.6005 15.49 20.3134 16.3638C19.0262 15.49 17.5886 15.0296 16.1324 15.2269C12.0736 15.7812 9.44292 19.53 10.1006 24.2652C10.7583 29.0193 14.5257 33.5573 18.5845 33.0124C19.1952 32.9278 19.7684 32.7681 20.3134 32.5332C20.8583 32.7681 21.4314 32.9278 22.0421 33.0124C26.1009 33.5667 29.6148 28.6717 30.5261 24.2652C31.4563 19.7649 28.5531 15.7812 24.4943 15.2269Z" stroke="#0B2343" stroke-miterlimit="10" stroke-linecap="round" stroke-linejoin="round"/>
<path d="M20.3133 16.3637C20.3133 16.3637 19.4019 9.11978 22.3614 7.49438C22.3614 7.49438 22.2675 8.04879 22.944 8.27427C23.8365 8.58432 20.9992 11.7975 20.3133 16.3637Z" stroke="#0B2343" stroke-miterlimit="10" stroke-linecap="round" stroke-linejoin="round"/>
<path d="M11.0589 6.03816C11.1435 10.4728 15.174 14.0147 20.1818 13.5826C20.116 9.19492 16.0666 5.58719 11.0589 6.03816Z" stroke="#0B2343" stroke-linecap="round" stroke-linejoin="round"/>
<path d="M15.813 18.2333C15.813 18.2333 12.8722 19.4735 13.3043 24.4436" stroke="#0B2343" stroke-miterlimit="10" stroke-linecap="round" stroke-linejoin="round"/>
</svg>
