<svg width="40" height="40" viewBox="0 0 40 40" fill="none" xmlns="http://www.w3.org/2000/svg">
<path d="M26.6285 33.3999L3.99994 31.6012V12.6023L26.6285 13.9378V33.3999Z" stroke="#0B2343" stroke-linecap="round" stroke-linejoin="round"/>
<path d="M10.7745 10.3945L26.6285 11.31" stroke="#0B2343" stroke-linecap="round" stroke-linejoin="round"/>
<path d="M13.8871 8.17554L29.7411 9.09099" stroke="#0B2343" stroke-linecap="round" stroke-linejoin="round"/>
<path d="M26.6284 33.4L35.1801 24.7837V6.86182L26.6284 13.938V33.4Z" stroke="#0B2343" stroke-linecap="round" stroke-linejoin="round"/>
<path d="M35.1802 6.86162L13.7687 6L3.99997 12.6022" stroke="#0B2343" stroke-linecap="round" stroke-linejoin="round"/>
<path d="M19.8539 18.9031C19.8108 19.5494 19.2507 20.0448 18.6045 20.0125L11.5822 19.5709C10.936 19.5278 10.4406 18.9678 10.4729 18.3216C10.516 17.6753 11.076 17.1799 11.7222 17.2122L18.7445 17.6538C19.4015 17.6861 19.897 18.2462 19.8539 18.9031Z" stroke="#0B2343" stroke-linecap="round" stroke-linejoin="round"/>
</svg>
