<svg id="Layer_1" data-name="Layer 1" xmlns="http://www.w3.org/2000/svg" xmlns:xlink="http://www.w3.org/1999/xlink" viewBox="0 0 15.98014 13.41203"><defs><style>.cls-1,.cls-4{fill:none;}.cls-2{clip-path:url(#clip-path);}.cls-3{fill:#007cc2;fill-rule:evenodd;}.cls-4{stroke:#007cc2;stroke-linecap:round;stroke-linejoin:round;stroke-width:0.7px;}</style><clipPath id="clip-path" transform="translate(-2.04596 -3.25)"><rect class="cls-1" x="2" y="2" width="16" height="16"/></clipPath></defs><g class="cls-2"><path class="cls-3" d="M15.9562,3.35214a.35.35,0,0,0-.4942.49572l1.3673,1.3632H14.0165a4.35976,4.35976,0,0,0-3.3753,1.25955A5.03572,5.03572,0,0,0,9.53425,9.96184v.25676a3.93975,3.93975,0,0,1-.8767,2.8614,3.87639,3.87639,0,0,1-2.90558.9209H2.396a.35.35,0,0,0,0,.7H5.752a4.55429,4.55429,0,0,0,3.40665-1.1321,4.61683,4.61683,0,0,0,1.07558-3.3502V9.96184a4.35273,4.35273,0,0,1,.9242-3.01946,3.671,3.671,0,0,1,2.8581-1.03132h2.8146L15.4616,7.2805a.35.35,0,1,0,.495.495l1.9669-1.96691a.33728.33728,0,0,0,.0309-.0353.34806.34806,0,0,0,.0708-.18808l.0009-.02437-.0009-.02412a.35009.35009,0,0,0-.0787-.19781l-.0233-.02567Z" transform="translate(-2.04596 -3.25)"/><path class="cls-3" d="M15.9563,12.1362a.35.35,0,1,0-.4942.4957l1.3673,1.3632H14.0166a3.76962,3.76962,0,0,1-2.4899-.941.35.35,0,0,0-.46.5276,4.46945,4.46945,0,0,0,2.9499,1.1134h2.8145l-1.3694,1.3695a.35.35,0,1,0,.495.4949l1.9669-1.9669a.34874.34874,0,0,0,.0982-.193.34393.34393,0,0,0,.0043-.0547.35248.35248,0,0,0-.0043-.0545.34631.34631,0,0,0-.0496-.1319.35.35,0,0,0-.049-.0612Z" transform="translate(-2.04596 -3.25)"/><path class="cls-4" d="M8.47763,6.58827A4.10783,4.10783,0,0,0,5.75781,5.561h-3.356" transform="translate(-2.04596 -3.25)"/></g></svg>