<?xml version="1.0" encoding="utf-8"?>
<!-- Generator: Adobe Illustrator 19.0.0, SVG Export Plug-In . SVG Version: 6.00 Build 0)  -->
<svg version="1.1" xmlns="http://www.w3.org/2000/svg" xmlns:xlink="http://www.w3.org/1999/xlink" x="0px" y="0px"
	 viewBox="0 0 30 30" enable-background="new 0 0 30 30" xml:space="preserve">
<g id="Layer_1">
	<g id="XMLID_1_">
		<polygon id="XMLID_4_" fill-rule="evenodd" clip-rule="evenodd" points="19.8,12 25.7,6 19.8,0 19.8,5 4.3,5 4.3,7 19.8,7 		"/>
		<polygon id="XMLID_5_" fill-rule="evenodd" clip-rule="evenodd" points="10.2,18 4.3,24 10.2,30 10.2,25 25.7,25 25.7,23 10.2,23 
					"/>
	</g>
</g>
<g id="Layer_1_copy" display="none">
	<path id="XMLID_10_" display="inline" fill-rule="evenodd" clip-rule="evenodd" d="M25.7,15l-6,6v-5H4.3v-2h15.5V9L25.7,15z"/>
</g>
<g id="Layer_2" display="none">
	<polygon id="XMLID_11_" display="inline" points="19.8,7 19.8,12 25.7,6 19.8,0 19.8,5 4.3,5 4.3,7 4.3,7 22.7,23 10.2,23 10.2,18 
		4.3,24 10.2,30 10.2,25 25.7,25 25.7,23 7.3,7 	"/>
</g>
</svg>
