<?xml version="1.0" encoding="utf-8"?>
<!-- Generator: Adobe Illustrator 25.2.1, SVG Export Plug-In . SVG Version: 6.00 Build 0)  -->
<svg version="1.1" id="Layer_1" xmlns="http://www.w3.org/2000/svg" xmlns:xlink="http://www.w3.org/1999/xlink" x="0px" y="0px"
	 viewBox="0 0 16 13" style="enable-background:new 0 0 16 13;" xml:space="preserve">
<style type="text/css">
	.st0{fill-rule:evenodd;clip-rule:evenodd;}
</style>
<path class="st0" d="M0,6.4c0-0.6,0.5-1.1,1.1-1.1h13.5c0.6,0,1.1,0.5,1.1,1.1c0,0.6-0.5,1.1-1.1,1.1H1.1C0.5,7.5,0,7,0,6.4z"/>
<path class="st0" d="M8.6,0.4C9.1,0,9.7,0,10.2,0.4l5.2,5.2c0.4,0.4,0.4,1.1,0,1.5l-4.9,5.4c-0.4,0.4-1.1,0.5-1.5,0.1
	c-0.4-0.4-0.5-1.1-0.1-1.5l4.2-4.6L8.6,1.9C8.2,1.5,8.2,0.8,8.6,0.4z"/>
</svg>
