<svg viewBox="0 0 20 20" fill="none" xmlns="http://www.w3.org/2000/svg">
<path fill-rule="evenodd" clip-rule="evenodd" d="M17.3715 9.84143C17.3715 9.28915 16.9238 8.84143 16.3715 8.84143H4.00024C3.44795 8.84143 3.00024 9.28915 3.00024 9.84143C3.00024 10.3937 3.44795 10.8414 4.00024 10.8414H16.3715C16.9238 10.8414 17.3715 10.3937 17.3715 9.84143Z" fill="black"/>
<path fill-rule="evenodd" clip-rule="evenodd" d="M9.3311 4.27798C8.93234 3.89587 8.29932 3.90937 7.91721 4.30813L3.27798 9.14959C2.90701 9.53673 2.90739 10.1475 3.27883 10.5342L7.91806 15.3638C8.30066 15.7621 8.9337 15.7748 9.33199 15.3922C9.73028 15.0096 9.74301 14.3766 9.36041 13.9783L5.38581 9.84061L9.36126 5.69187C9.74337 5.2931 9.72987 4.66008 9.3311 4.27798Z" fill="black"/>
</svg>
