<svg width="48" height="48" viewBox="0 0 48 48" fill="none" xmlns="http://www.w3.org/2000/svg">
<rect width="48" height="48" rx="24" fill="white" fill-opacity="0.1"/>
<path fill-rule="evenodd" clip-rule="evenodd" d="M21.5896 7.88179C20.1827 7.82357 18.9839 8.91014 18.926 10.3206L18.926 10.3207C18.8678 11.7276 19.9544 12.9264 21.3648 12.9843L21.3649 12.9843C22.7718 13.0426 23.9706 11.956 24.0286 10.5456L24.0287 10.5425C24.0964 9.13027 23.0041 7.93992 21.5898 7.8818L21.5896 7.88179ZM21.6271 6.97347C19.7264 6.89489 18.0966 8.36313 18.0177 10.2831ZM21.6272 6.97348C23.5428 7.05227 25.0279 8.66687 24.9368 10.5845C24.8571 12.5037 23.2276 13.9712 21.3274 13.8927C19.4074 13.8138 17.9391 12.1839 18.0177 10.2832" fill="#C2C2C2"/>
<path fill-rule="evenodd" clip-rule="evenodd" d="M24.3727 17.1408C25.017 17.8226 25.4045 18.7678 25.5274 19.8062L25.5285 19.8161L25.872 23.3914L29.6515 25.759C29.8643 25.8923 29.9287 26.1728 29.7954 26.3855C29.6622 26.5982 29.3817 26.6627 29.1689 26.5294L25.1997 24.0429C25.08 23.968 25.002 23.8417 24.9885 23.7012L24.624 19.9082C24.5182 19.0211 24.1931 18.2743 23.712 17.7652C23.2379 17.2635 22.595 16.9718 21.7876 17.006C20.4029 17.063 19.2814 18.2685 19.1908 19.7227L20.575 28.5948C20.5764 28.6037 20.5775 28.6126 20.5784 28.6215C20.5784 28.6216 20.5783 28.6215 20.5784 28.6215L20.5785 28.623L20.5794 28.6317C20.5803 28.64 20.5819 28.6533 20.5841 28.671C20.5886 28.7065 20.596 28.7593 20.607 28.8251C20.6291 28.9573 20.6655 29.1383 20.7222 29.3341C20.8423 29.7491 21.0265 30.1333 21.2726 30.3255L21.276 30.3282C21.5374 30.5365 22.0429 30.6765 22.5655 30.7546C22.812 30.7914 23.0384 30.8113 23.2034 30.822C23.2855 30.8273 23.3518 30.8303 23.3968 30.8319C23.4193 30.8327 23.4365 30.8332 23.4476 30.8334L23.4597 30.8337L31.9423 30.8337C32.1617 30.8337 32.3448 30.9892 32.3875 31.1959L37.3933 40.2965C37.5143 40.5164 37.4341 40.7928 37.2141 40.9138C36.9942 41.0348 36.7178 40.9546 36.5968 40.7346L31.6507 31.7428H23.4504L23.4564 31.2882C23.4504 31.7427 23.4505 31.7428 23.4504 31.7428L23.4479 31.7427L23.443 31.7426L23.4258 31.7423C23.4112 31.7419 23.3904 31.7413 23.3641 31.7404C23.3114 31.7385 23.2365 31.7351 23.1448 31.7292C22.9619 31.7174 22.7092 31.6952 22.4311 31.6537C21.905 31.575 21.1798 31.413 20.7112 31.0406C20.2284 30.6624 19.9796 30.0381 19.8489 29.5868C19.7801 29.3491 19.7367 29.1324 19.7104 28.9752C19.6971 28.8963 19.6881 28.8315 19.6823 28.7855C19.6793 28.7625 19.6772 28.7441 19.6758 28.7309L19.675 28.7235L18.2852 19.8156C18.2805 19.7853 18.2788 19.7546 18.2803 19.7239C18.3698 17.8447 19.8178 16.1773 21.7494 16.0978C22.8237 16.0523 23.7205 16.4506 24.3727 17.1408Z" fill="#C2C2C2"/>
<path fill-rule="evenodd" clip-rule="evenodd" d="M11.3906 21.9248C11.3906 21.6737 11.5941 21.4702 11.8452 21.4702H14.5826C14.7762 21.4702 14.9486 21.5929 15.0121 21.7758L19.4227 34.4957H29.5584C29.8094 34.4957 30.0129 34.6992 30.0129 34.9502C30.0129 35.2013 29.8094 35.4048 29.5584 35.4048H19.0993C18.9056 35.4048 18.7332 35.2821 18.6698 35.0991L14.2591 22.3793H11.8452C11.5941 22.3793 11.3906 22.1758 11.3906 21.9248Z" fill="#C2C2C2"/>
<rect x="0.5" y="0.5" width="47" height="47" rx="23.5" stroke="white" stroke-opacity="0.6"/>
</svg>
