<svg width="40" height="40" viewBox="0 0 40 40" fill="none" xmlns="http://www.w3.org/2000/svg">
<path d="M14.9478 13.9038C14.3907 14.0783 13.7913 13.7653 13.6168 13.2066L11.9485 7.87943C11.7733 7.3223 12.087 6.72291 12.6442 6.54841C13.2029 6.37392 13.7999 6.68691 13.9752 7.24483L15.6442 12.5728C15.8187 13.1307 15.505 13.7293 14.9478 13.9038Z" stroke="#0B2343" stroke-miterlimit="10" stroke-linecap="round" stroke-linejoin="round"/>
<path d="M13.9574 22.2577C14.1405 23.2733 14.3682 24.5167 14.4262 24.6873C14.524 24.9807 15.3072 27.5457 16.9411 28.4276C18.5741 29.3095 19.535 29.3055 20.9599 29.3666H25.417C26.0015 29.3666 26.4788 28.8893 26.4788 28.3055C26.4788 27.7194 26.0015 27.2429 25.417 27.2429H20.179C19.823 27.2319 19.1117 27.1639 18.5585 26.8102C17.7901 26.3196 17.1696 25.5355 16.7282 24.5566C16.2885 23.5769 15.8918 21.2412 15.8385 20.7623L15.319 16.0619C15.2548 15.4813 14.7274 15.0588 14.1468 15.1229C13.5662 15.1871 13.1444 15.7145 13.2086 16.2951L13.9574 22.2577Z" stroke="#0B2343" stroke-miterlimit="10" stroke-linecap="round" stroke-linejoin="round"/>
<path d="M21.5271 10.5037C21.6609 11.7338 20.7712 12.8402 19.5403 12.9748C18.3087 13.1086 17.2023 12.2181 17.0692 10.9881C16.9354 9.75719 17.8243 8.65075 19.056 8.51695C20.2868 8.38314 21.3933 9.27205 21.5271 10.5037Z" stroke="#0B2343" stroke-miterlimit="10" stroke-linecap="round" stroke-linejoin="round"/>
<path d="M28.9164 33.2293L27.7521 26.7339C27.7075 26.5562 27.605 26.1 27.3624 25.8262C27.1558 25.5938 26.8577 25.413 26.7348 25.3692C25.2927 24.8661 20.9311 25.4091 20.5853 25.377C20.5305 25.3723 20.1392 25.4013 19.8395 25.3082C19.5406 25.2143 19.3857 25.0726 19.2316 24.9341C18.6721 24.4365 18.2722 23.1501 18.1987 22.4177C18.0789 21.229 17.6361 17.6726 17.6361 17.6726C17.5046 16.4653 18.0085 15.4457 19.2073 15.2508C20.4851 15.045 21.4022 15.9457 21.5407 17.2172L21.9718 20.0702L25.022 22.0248" stroke="#0B2343" stroke-miterlimit="10" stroke-linecap="round" stroke-linejoin="round"/>
</svg>
