<svg width="40" height="40" viewBox="0 0 40 40" fill="none" xmlns="http://www.w3.org/2000/svg">
<path d="M24.92 10.82V14.95H29.05" stroke="#0B2343" stroke-miterlimit="10" stroke-linecap="round" stroke-linejoin="round"/>
<path d="M29.05 33.91C29.05 34.36 28.68 34.74 28.23 34.74H10.81C10.36 34.74 10 34.36 10 33.91V11.65C10 11.2 10.36 10.82 10.81 10.82H24.91C25.12 10.82 25.22 10.91 25.38 11.06L28.8 14.44C28.96 14.59 29.04 14.73 29.04 14.95V33.91H29.05Z" stroke="#0B2343" stroke-miterlimit="10" stroke-linecap="round" stroke-linejoin="round"/>
<path d="M14.94 12.81V18.51C14.94 19.9 16.07 21.02 17.45 21.02C18.84 21.02 19.96 19.89 19.96 18.51V7.89001C19.96 6.85001 19.12 6 18.07 6C17.03 6 16.18 6.84001 16.18 7.89001V10.82" stroke="#0B2343" stroke-miterlimit="10" stroke-linecap="round" stroke-linejoin="round"/>
</svg>
