<!-- Generated by IcoMoon.io -->
<svg version="1.1" xmlns="http://www.w3.org/2000/svg" width="1024" height="1024" viewBox="0 0 1024 1024">
<title></title>
<g id="icomoon-ignore">
</g>
<path fill="#000" d="M512 0c-282.624 0-512 229.376-512 512s229.376 512 512 512c282.624 0 512-229.376 512-512s-229.376-512-512-512zM197.632 745.472c-41.984-59.392-67.584-139.264-69.632-209.92h219.136c-8.192 70.656-81.92 173.056-149.504 209.92zM512 896c-73.728 0-143.36-21.504-201.728-57.344 29.696-40.96 65.536-122.88 210.944-122.88 141.312 0 175.104 56.32 210.944 109.568-61.44 45.056-137.216 70.656-220.16 70.656zM450.56 546.816c0-37.888 30.72-67.584 67.584-67.584 37.888 0 67.584 30.72 67.584 67.584s-30.72 67.584-67.584 67.584c-37.888 1.024-67.584-29.696-67.584-67.584zM830.464 738.304c-105.472-41.984-118.784-132.096-125.952-202.752h191.488c-2.048 70.656-26.624 144.384-65.536 202.752zM142.336 417.792c46.080-164.864 194.56-278.528 369.664-278.528s323.584 113.664 369.664 278.528h-739.328z"></path>
</svg>
