<svg width="40" height="40" viewBox="0 0 40 40" fill="none" xmlns="http://www.w3.org/2000/svg">
<path d="M20.9963 23.7384V31.9322C20.9963 32.5618 23.2985 33.0786 26.1362 33.0786C28.974 33.0786 31.2761 32.5712 31.2761 31.9322V29.5455L32.4695 27.6568L32.1124 26.1721L31.2761 26.9333V23.729" stroke="#0B2343" stroke-miterlimit="10" stroke-linecap="round" stroke-linejoin="round"/>
<path d="M25.9764 12.3217C18.882 19.4349 12.4078 23.2405 11.0922 27.2904C10.0962 30.3819 7.39946 27.2904 7.39946 27.2904C7.04239 26.8488 6.78865 26.4259 7.24908 25.9843C9.71098 23.6351 19.6714 14.2949 23.3548 9.46509" stroke="#0B2343" stroke-linecap="round" stroke-linejoin="round"/>
<path d="M25.488 7.12522L26.5216 6.09162C26.6438 5.96946 26.8505 5.96946 26.9727 6.09162L29.2936 8.45951C29.4157 8.58167 29.4157 8.76962 29.2936 8.89177C29.0962 9.0985 28.7016 9.50255 28.2788 9.94419" stroke="#0B2343" stroke-linecap="round" stroke-linejoin="round"/>
<path d="M24.567 6.19507L28.4572 10.1134C28.4572 10.1134 30.7689 12.1713 33.8039 13.6277C33.8039 13.6277 32.3663 16.9353 27.5834 18.5328C27.5834 18.5328 26.7189 13.6278 26.0236 12.3686L22.3777 8.40324L24.567 6.19507Z" stroke="#0B2343" stroke-linecap="round" stroke-linejoin="round"/>
<path d="M31.2667 23.8418C31.2667 24.415 28.9646 24.8754 26.1268 24.8754C23.2891 24.8754 20.9869 24.415 20.9869 23.8418C20.9869 23.2686 23.2891 22.8081 26.1268 22.8081C28.9646 22.8081 31.2667 23.278 31.2667 23.8418Z" stroke="#0B2343" stroke-miterlimit="10" stroke-linecap="round" stroke-linejoin="round"/>
<path d="M23.7684 27.901V24.772" stroke="#0B2343" stroke-miterlimit="10" stroke-linecap="round" stroke-linejoin="round"/>
<path d="M28.3914 26.3881V24.8752" stroke="#0B2343" stroke-miterlimit="10" stroke-linecap="round" stroke-linejoin="round"/>
</svg>
