<svg width="40" height="40" viewBox="0 0 40 40" fill="none" xmlns="http://www.w3.org/2000/svg">
<path d="M23.8008 30.6923C28.1359 29.4608 31.4923 26.0477 32.5021 21.7808C32.8593 21.922 33.2493 22.0025 33.6598 22.0025C35.3339 22.0025 36.6911 20.7003 36.6911 19.0944C36.6911 17.4876 35.3339 16.1863 33.6598 16.1863C33.2493 16.1863 32.8593 16.2659 32.5021 16.4079C31.2279 11.0236 26.2188 7.00052 20.2211 7.00052C14.2497 7.00052 9.25944 10.9899 7.95891 16.3398C7.66416 16.2478 7.35627 16.1863 7.03032 16.1863C5.35705 16.1863 3.99988 17.4876 3.99988 19.0944C3.99988 20.7003 5.35705 22.0025 7.03032 22.0025C7.35627 22.0025 7.66416 21.9401 7.95891 21.849C9.01477 26.1898 12.5001 29.6357 16.9673 30.7802" stroke="#0B2343" stroke-miterlimit="10" stroke-linecap="round" stroke-linejoin="round"/>
<path d="M24.0496 28.9389C24.0496 30.9849 22.3911 32.6425 20.3459 32.6425C18.2998 32.6425 16.6414 30.9849 16.6414 28.9389C16.6414 26.8937 18.2998 25.2352 20.3459 25.2352C22.3911 25.2352 24.0496 26.8937 24.0496 28.9389Z" stroke="#0B2343" stroke-miterlimit="10" stroke-linecap="round" stroke-linejoin="round"/>
<path d="M16.8241 24.9709C17.6172 23.9634 18.8989 23.3099 20.3447 23.3099C21.7938 23.3099 23.0771 23.9659 23.8702 24.9766" stroke="#0B2343" stroke-miterlimit="10" stroke-linecap="round" stroke-linejoin="round"/>
<path d="M20.5749 7.00006C20.5749 7.00006 17.776 7.17084 17.9763 9.12408C18.1758 11.0773 22.717 11.7637 23.0019 9.8351C23.2876 7.90648 18.5946 8.73655 20.4838 9.95743" stroke="#0B2343" stroke-miterlimit="10" stroke-linecap="round" stroke-linejoin="round"/>
</svg>
