<svg width="40" height="40" viewBox="0 0 40 40" fill="none" xmlns="http://www.w3.org/2000/svg">
<path d="M31.0801 22.5999C30.2401 22.5999 29.0601 21.9199 29.0601 21.0699C29.0601 20.2299 30.2401 19.5399 31.0801 19.5399C31.9201 19.5399 32.61 20.2199 32.61 21.0699C32.61 21.9199 31.9301 22.5999 31.0801 22.5999Z" stroke="#0B2343" stroke-miterlimit="10" stroke-linecap="round" stroke-linejoin="round"/>
<path d="M23.11 9.32989C22.35 10.0899 20.6701 10.53 19.9101 9.76995C19.1501 9.00995 19.6001 7.33 20.3501 6.57C21.1101 5.81 22.3401 5.81 23.1001 6.57C23.8701 7.34 23.87 8.56989 23.11 9.32989Z" stroke="#0B2343" stroke-miterlimit="10" stroke-linecap="round" stroke-linejoin="round"/>
<path d="M20.0601 25.4698H33.8101" stroke="#0B2343" stroke-miterlimit="10" stroke-linecap="round" stroke-linejoin="round"/>
<path d="M22.73 16.5798L18.91 14.8298C18.91 14.8298 18.63 11.7898 18.14 11.1498C17.68 10.5598 16.81 10.4799 16.19 10.9099L11.57 14.5399C10.86 15.0999 10.3 15.8399 9.97003 16.6799L7 25.4798H16.83L14.41 18.0898" stroke="#0B2343" stroke-miterlimit="10" stroke-linecap="round" stroke-linejoin="round"/>
<path d="M16.5599 15.8699L14.4199 18.0898" stroke="#0B2343" stroke-miterlimit="10" stroke-linecap="round" stroke-linejoin="round"/>
<path d="M26.61 19.8499V21.8398C26.61 22.6998 25.8001 23.3699 24.9401 23.3699H23.1601C21.9601 23.3699 21.2101 22.1699 21.8201 21.1399V21.1499C22.3401 20.2699 21.8801 19.2399 20.9001 18.9399L19.5601 18.5699" stroke="#0B2343" stroke-miterlimit="10" stroke-linecap="round" stroke-linejoin="round"/>
<path d="M10.6899 25.4698V34.0999" stroke="#0B2343" stroke-miterlimit="10" stroke-linecap="round" stroke-linejoin="round"/>
<path d="M13.54 25.4698V34.0999" stroke="#0B2343" stroke-miterlimit="10" stroke-linecap="round" stroke-linejoin="round"/>
</svg>
