<svg width="40" height="40" viewBox="0 0 40 40" fill="none" xmlns="http://www.w3.org/2000/svg">
<path d="M11.7544 32.9865V25.1948" stroke="#0B2343" stroke-miterlimit="10" stroke-linecap="round" stroke-linejoin="round"/>
<path d="M28.1682 12.7583V32.9858" stroke="#0B2343" stroke-miterlimit="10" stroke-linecap="round" stroke-linejoin="round"/>
<path d="M22.2013 21.4684L17.2482 26.4214L11.1074 20.2807C10.9337 20.1069 10.8468 19.8559 10.8757 19.6049L11.4068 15.6366L15.3751 15.1055C15.6261 15.0766 15.8771 15.1538 16.0509 15.3372L22.2013 21.4684Z" stroke="#0B2343" stroke-miterlimit="10" stroke-linecap="round" stroke-linejoin="round"/>
<path d="M15.4138 21.9021L16.6111 20.7048" stroke="#0B2343" stroke-miterlimit="10" stroke-linecap="round" stroke-linejoin="round"/>
<path d="M16.9972 23.4952L19.2469 21.2358" stroke="#0B2343" stroke-miterlimit="10" stroke-linecap="round" stroke-linejoin="round"/>
<path d="M31.5862 33.0342H8.41379C7.08138 33.0342 6 31.9528 6 30.6204V15.1721C6 13.8397 7.08138 12.7583 8.41379 12.7583H31.5862C32.9186 12.7583 34 13.8397 34 15.1721V30.6204C34 31.9528 32.9186 33.0342 31.5862 33.0342Z" stroke="#0B2343" stroke-miterlimit="10" stroke-linecap="round" stroke-linejoin="round"/>
<path d="M25.3104 9.86207C25.3104 7.72828 23.5821 6 21.4483 6H18.5518C16.418 6 14.6897 7.72828 14.6897 9.86207" stroke="#0B2343" stroke-miterlimit="10" stroke-linecap="round" stroke-linejoin="round"/>
</svg>
