<svg viewBox="0 0 47 47" fill="none" xmlns="http://www.w3.org/2000/svg">
<path d="M31.7972 36.2074H9.20647C7.90751 36.2074 6.85327 35.1532 6.85327 33.8542V18.7937C6.85327 17.4947 7.90751 16.4405 9.20647 16.4405H31.7972C33.0962 16.4405 34.1504 17.4947 34.1504 18.7937V33.8542C34.1504 35.1532 33.0962 36.2074 31.7972 36.2074Z" stroke="#007CC2" stroke-width="0.974898" stroke-miterlimit="10" stroke-linecap="round" stroke-linejoin="round"/>
<path d="M25.679 13.6166C25.679 11.5363 23.9941 9.85144 21.9139 9.85144H19.0901C17.0098 9.85144 15.325 11.5363 15.325 13.6166" stroke="#007CC2" stroke-width="0.974898" stroke-miterlimit="10" stroke-linecap="round" stroke-linejoin="round"/>
<path d="M15.3248 16.4405H10.6184V36.2074H15.3248V16.4405Z" stroke="#007CC2" stroke-width="0.974898" stroke-miterlimit="10" stroke-linecap="round" stroke-linejoin="round"/>
<path d="M30.3854 16.4405H25.679V36.2074H30.3854V16.4405Z" stroke="#007CC2" stroke-width="0.974898" stroke-miterlimit="10" stroke-linecap="round" stroke-linejoin="round"/>
<path d="M45.0017 41.2191L37.4561 27.9539C36.6641 26.5606 34.6476 26.5606 33.8556 27.9539L26.3174 41.2191C25.5401 42.5904 26.53 44.3063 28.1139 44.3063C31.9938 44.3063 38.0255 44.3063 43.1978 44.3063C44.7817 44.3063 45.7863 42.5977 45.0017 41.2191Z" fill="#FBAF28"/>
<path d="M35.6599 31.5693V37.9049" stroke="#0B2343" stroke-width="0.733292" stroke-miterlimit="10" stroke-linecap="round" stroke-linejoin="round"/>
<path d="M35.6599 40.5228V40.6841" stroke="#0B2343" stroke-width="0.733292" stroke-miterlimit="10" stroke-linecap="round" stroke-linejoin="round"/>
</svg>
