<svg viewBox="0 0 20 20" fill="none" xmlns="http://www.w3.org/2000/svg">
<path fill-rule="evenodd" clip-rule="evenodd" d="M11.6897 8.01247L13.5984 8.01245C14.4558 8.01245 15.0553 8.67975 15.0553 9.49998L15.0553 14.3475C15.0553 15.1677 14.5127 16 13.6552 16L12.4932 16V16.2258C12.4932 16.5791 12.1936 16.8657 11.8242 16.8657C11.4547 16.8657 11.1552 16.5792 11.1552 16.2258V16H8.15521V16.2258C8.15521 16.5791 7.85567 16.8657 7.48622 16.8657C7.11677 16.8657 6.81723 16.5792 6.81723 16.2258V16L5.60031 16C4.74283 16 4.10015 15.1677 4.10015 14.3475L4.1001 9.50003C4.1001 8.67978 4.79768 8.01247 5.65522 8.01247L7.71871 8.0125L7.71894 3.03993C7.71894 2.68655 8.01845 2.40002 8.38793 2.40002H11.0209C11.3904 2.40002 11.6899 2.68651 11.6899 3.03993L11.6897 8.01247ZM8.3372 8.0125H11.0712L11.0714 2.96036H8.33743L8.3372 8.0125Z" fill="#53448F"/>
</svg>
