<svg width="20" height="20" viewBox="0 0 20 20" fill="none" xmlns="http://www.w3.org/2000/svg">
<path d="M4.80005 7.86035V15.6845C4.80005 16.5965 5.57574 17.3385 6.52916 17.3385H6.82039V17.5895C6.82039 17.9825 7.15345 18.301 7.56423 18.301C7.97501 18.301 8.30807 17.9824 8.30807 17.5895V17.3385H11.4083V17.5895C11.4083 17.9825 11.7414 18.301 12.1522 18.301C12.5629 18.301 12.896 17.9824 12.896 17.5895V17.3385H13.1872C14.1407 17.3385 14.9163 16.5965 14.9163 15.6845V7.86035H4.80005Z" fill="#3E6AAB"/>
<path d="M13.1875 4.42758H12.0661V3.11189C12.0661 2.71893 11.733 2.40039 11.3222 2.40039H8.39468C7.98386 2.40039 7.65084 2.71897 7.65084 3.11189V4.42761H6.5294C5.57592 4.42761 4.80029 5.16958 4.80029 6.08161V6.86441H14.9166V6.86435V6.08154C14.9166 5.16955 14.1409 4.42758 13.1875 4.42758ZM10.5784 4.42761H9.13852V3.82342H10.5784V4.42761Z" fill="#3E6AAB"/>
</svg>
