<svg width="27" height="27" viewBox="0 0 27 27" fill="none" xmlns="http://www.w3.org/2000/svg">
<path d="M24.3 5.39998H22.95V25.65H24.3C25.785 25.65 27 24.435 27 22.95V8.09998C27 6.61497 25.785 5.39998 24.3 5.39998ZM0 8.09998V22.95C0 24.435 1.215 25.65 2.7 25.65H4.05V5.39998H2.7C1.215 5.39998 0 6.61497 0 8.09998ZM18.09 2.56498C17.172 2.15998 15.714 1.34998 13.5 1.34998C11.286 1.34998 9.828 2.15998 8.91 2.56498V5.39998H5.94V25.65H21.06V5.39998H18.09V2.56498ZM16.47 5.39998H10.53V3.59098C11.259 3.29398 12.285 2.96998 13.5 2.96998C14.715 2.96998 15.741 3.29398 16.47 3.59098V5.39998Z" fill="#0B2343"/>
</svg>
