<svg id="Layer_1" data-name="Layer 1" xmlns="http://www.w3.org/2000/svg" viewBox="0 0 31.22511 47.6019"><defs><style>.cls-1{fill:#007cc2;fill-rule:evenodd;}.cls-2{fill:#48a83e;}.cls-3{fill:none;stroke:#f5fafd;stroke-linecap:round;stroke-linejoin:round;stroke-width:0.90783px;}</style></defs><path class="cls-1" d="M11.885,40.3419v-16.17h.98v16.17Z" transform="translate(-7.47485 -4.5)"/><path class="cls-1" d="M14.8251,40.3419v-16.17h.98v16.17Z" transform="translate(-7.47485 -4.5)"/><path class="cls-1" d="M20.705,40.3419v-16.17h.98v16.17Z" transform="translate(-7.47485 -4.5)"/><path class="cls-1" d="M11.1499,48.6719a1.225,1.225,0,1,0,1.225,1.225A1.225,1.225,0,0,0,11.1499,48.6719Zm-2.205,1.225a2.205,2.205,0,1,1,2.205,2.205A2.205,2.205,0,0,1,8.945,49.8969Z" transform="translate(-7.47485 -4.5)"/><path class="cls-1" d="M25.85,48.6719a1.225,1.225,0,1,0,1.225,1.225A1.225,1.225,0,0,0,25.85,48.6719Zm-2.205,1.225a2.205,2.205,0,1,1,2.205,2.205A2.205,2.205,0,0,1,23.645,49.8969Z" transform="translate(-7.47485 -4.5)"/><path class="cls-1" d="M22.175,10.9414h-7.35v-.98h7.35Z" transform="translate(-7.47485 -4.5)"/><path class="cls-1" d="M14.335,7.44a1.96006,1.96006,0,0,1,1.96-1.96h4.41a1.96,1.96,0,0,1,1.96,1.96V18.22h-8.33Zm1.96-2.94a2.94007,2.94007,0,0,0-2.94,2.94V18.2915H10.4151l-.0542.0005H8.94485a1.47,1.47,0,0,0-1.47,1.47v2.94l.00021.0251V43.2564l-.00021.0251v2.94a1.47,1.47,0,0,0,1.47,1.47H28.0551a1.47,1.47,0,0,0,1.47-1.47V31.4592c-.3003-.2944-.6314-.62-.98-.9636V41.8952a1.46712,1.46712,0,0,0-.49-.0837h-1.47a1.47,1.47,0,0,0-1.47,1.47v2.94a1.46959,1.46959,0,0,0,.0836.49H11.8012a1.46712,1.46712,0,0,0,.0837-.49v-2.94a1.47008,1.47008,0,0,0-1.47-1.47h-1.47a1.46827,1.46827,0,0,0-.48979.0836V24.0884a1.46827,1.46827,0,0,0,.48979.0836h1.47a1.47,1.47,0,0,0,1.47-1.47v-2.94a1.4672,1.4672,0,0,0-.0839-.4905H23.0034L23.003,19.2h.642V7.44a2.94,2.94,0,0,0-2.94-2.94ZM28.0551,42.7915a.49.49,0,0,1,.49.4861v1.4739a1.96,1.96,0,0,1-1.96,1.96h-.0046a.49.49,0,0,1-.4854-.49v-2.94a.49.49,0,0,1,.49-.49Zm-17.1502,3.43a.49012.49012,0,0,1-.4855.49h-.0043a1.96,1.96,0,0,1-1.96-1.96V43.267a.49.49,0,0,1,.48979-.4755h1.47a.49.49,0,0,1,.49.49Zm-1.96-23.0295a.49.49,0,0,1-.48979-.4755v-1.485A1.96,1.96,0,0,1,10.3709,19.272h.044a.49.49,0,0,1,.49.49v2.94a.49.49,0,0,1-.49.49Z" transform="translate(-7.47485 -4.5)"/><path class="cls-1" d="M23.5301,25l.001.2077a.55692.55692,0,0,0,.1658.3937c.0229.0221.2995.2964.7362.7296l.0569.0565V40h-.98V25Z" transform="translate(-7.47485 -4.5)"/><path class="cls-2" d="M38.5322,26.2611c-5.4034-5.3517-4.2948-4.2534-7.6674-7.5949-.2124-.2124-.487-.1606-.803-.1606l-5.8024.0259a.56485.56485,0,0,0-.5594.5647l.031,6.2116a.55692.55692,0,0,0,.1658.3937c.1244.1192,7.6778,7.6312,7.8332,7.7037a.54965.54965,0,0,0,.6268-.114l6.1806-6.2375A.55806.55806,0,0,0,38.5322,26.2611Z" transform="translate(-7.47485 -4.5)"/><path class="cls-3" d="M31.7761,29.3008a1.33074,1.33074,0,1,1-1.8471-1.8472,1.33072,1.33072,0,1,1,1.8471,1.8472Z" transform="translate(-7.47485 -4.5)"/><path class="cls-3" d="M31.4769,22.9722a1.33079,1.33079,0,1,1-1.8473-1.8472,1.468,1.468,0,0,1,2.0447-.1974A1.46811,1.46811,0,0,1,31.4769,22.9722Z" transform="translate(-7.47485 -4.5)"/><path class="cls-3" d="M34.6174,24.6431l-7.9111,1.2611" transform="translate(-7.47485 -4.5)"/></svg>