<svg width="32" height="32" viewBox="0 0 32 32" fill="none" xmlns="http://www.w3.org/2000/svg">
<path d="M15.4062 26.9525V14.0338" stroke="#0074B8" stroke-width="0.996815" stroke-miterlimit="10" stroke-linecap="round" stroke-linejoin="round"/>
<path d="M26.1399 13.723V26.9528" stroke="#0074B8" stroke-width="0.996815" stroke-miterlimit="10" stroke-linecap="round" stroke-linejoin="round"/>
<path d="M27.9582 26.9847H13.636C12.5355 26.9847 11.6423 26.0915 11.6423 24.991V15.7167C11.6423 14.6162 12.5355 13.723 13.636 13.723H27.9582C29.0587 13.723 29.9518 14.6162 29.9518 15.7167V24.991C29.9518 26.0915 29.0587 26.9847 27.9582 26.9847Z" stroke="#0074B8" stroke-width="0.996815" stroke-miterlimit="10" stroke-linecap="round" stroke-linejoin="round"/>
<path d="M24.266 11.8254C24.266 10.4299 23.1337 9.29749 21.7381 9.29749H19.8402C18.4446 9.29749 17.3123 10.4299 17.3123 11.8254" stroke="#0074B8" stroke-width="0.996815" stroke-miterlimit="10" stroke-linecap="round" stroke-linejoin="round"/>
<path d="M6.15601 9.14624V22.1607" stroke="#0074B8" stroke-width="0.996815" stroke-miterlimit="10" stroke-linecap="round" stroke-linejoin="round"/>
<path d="M14.8721 9.14624H3.95493C3.09368 9.14624 2.3999 9.84003 2.3999 10.7013V20.6375C2.3999 21.4988 3.09368 22.1926 3.95493 22.1926H8.65991" stroke="#0074B8" stroke-width="0.996815" stroke-miterlimit="10" stroke-linecap="round" stroke-linejoin="round"/>
<path d="M7.99805 7.28011C7.99805 5.9085 9.10651 4.80005 10.4781 4.80005H12.3442C13.7158 4.80005 14.8242 5.9085 14.8242 7.28011" stroke="#0074B8" stroke-width="0.996815" stroke-miterlimit="10" stroke-linecap="round" stroke-linejoin="round"/>
</svg>
