<svg width="40" height="40" viewBox="0 0 40 40" fill="none" xmlns="http://www.w3.org/2000/svg">
<path d="M10.518 9.11607C11.1609 8.57143 11.9157 7.80934 12.9067 6.76186C16.2331 3.24412 23.4202 2.71202 25.2831 7.37027C27.146 12.0275 26.5783 17.6214 23.2864 17.4844C18.9951 17.3057 19.063 13.9583 21.2238 9.49346" stroke="#0B2343" stroke-miterlimit="10" stroke-linecap="round" stroke-linejoin="round"/>
<path d="M20.243 19.7169C20.243 19.7169 19.2927 20.9233 17.1539 21.2181C14.8582 21.5317 10.6369 22.4558 6.68744 19.5256" stroke="#0B2343" stroke-miterlimit="10" stroke-linecap="round" stroke-linejoin="round"/>
<path d="M24.0406 35.5893C25.0191 36.1778 26.398 36.4695 27.9441 36.228C32.0703 35.5819 33.4 33.8257 33.4 33.8257C33.4 33.8257 40.5871 31.8102 36.9941 24.4475C36.9941 24.4475 36.9941 26.6616 33.8004 28.6604C33.8004 28.6604 32.7812 25.0308 30.2659 23.4805C29.7265 23.1491 28.724 22.8292 28.0874 22.7122C24.4943 22.0462 24.6407 17.5814 24.6407 17.5814" stroke="#0B2343" stroke-miterlimit="10" stroke-linecap="round" stroke-linejoin="round"/>
<path d="M30.3394 32.1075C30.3394 32.1075 26.9555 29.4397 24.3399 30.7443" stroke="#0B2343" stroke-miterlimit="10" stroke-linecap="round" stroke-linejoin="round"/>
<path d="M17.4988 22.2547C17.4737 22.1198 17.4988 22.2547 17.4684 22.1293C17.3848 21.7832 17.2803 21.4748 17.1527 21.2166" stroke="#0B2343" stroke-miterlimit="10" stroke-linecap="round" stroke-linejoin="round"/>
<path d="M10.085 13.4428C10.085 15.6757 8.27443 17.4853 6.04252 17.4853C3.81061 17.4853 2 15.6757 2 13.4428C2 11.2098 3.81061 9.40024 6.04252 9.40024C8.27443 9.40024 10.085 11.2098 10.085 13.4428Z" stroke="#0B2343" stroke-miterlimit="10" stroke-linecap="round" stroke-linejoin="round"/>
<path d="M20.8941 36.5391H12.0971C10.6545 36.5391 9.48367 35.3693 9.48367 33.9256V28.9966C9.48367 27.5529 10.6545 26.3831 12.0971 26.3831H20.8941C22.3388 26.3831 23.5076 27.5529 23.5076 28.9966V33.9256C23.5076 35.3693 22.3388 36.5391 20.8941 36.5391Z" stroke="#0B2343" stroke-miterlimit="10" stroke-linecap="round" stroke-linejoin="round"/>
<path d="M19.1566 24.9323C19.1566 23.8639 18.291 22.9973 17.2216 22.9973H15.7716C14.7022 22.9973 13.8356 23.8639 13.8356 24.9323" stroke="#0B2343" stroke-miterlimit="10" stroke-linecap="round" stroke-linejoin="round"/>
</svg>
