<svg width="40" height="40" viewBox="0 0 40 40" fill="none" xmlns="http://www.w3.org/2000/svg">
<path d="M30.4 12.2668H29.1V32.0168H30.4C31.83 32.0168 33 30.8318 33 29.3834V14.9001C33 13.4518 31.83 12.2668 30.4 12.2668ZM7 14.9001V29.3834C7 30.8318 8.17 32.0168 9.6 32.0168H10.9V12.2668H9.6C8.17 12.2668 7 13.4518 7 14.9001V14.9001ZM24.42 9.50177C23.536 9.10677 22.132 8.31677 20 8.31677C17.868 8.31677 16.464 9.10677 15.58 9.50177V12.2668H12.72V32.0168H27.28V12.2668H24.42V9.50177ZM22.86 12.2668H17.14V10.5024C17.842 10.2128 18.83 9.89677 20 9.89677C21.17 9.89677 22.158 10.2128 22.86 10.5024V12.2668Z" fill="#0B2343"/>
</svg>
