<svg viewBox="0 0 20 20" fill="none" xmlns="http://www.w3.org/2000/svg">
<path d="M11.814 6.57074C11.3131 5.94477 10.669 5.60001 10.0001 5.60001C9.33129 5.60001 8.68714 5.94477 8.18633 6.57076C7.85002 6.99115 7.61441 7.50681 7.51514 8.01954C7.552 7.99971 7.58921 7.98037 7.62677 7.96171L8.11127 7.68947C8.12712 7.68057 8.14367 7.67347 8.16061 7.66809C8.4731 6.8482 9.17744 6.12569 10.0002 6.12569C10.8229 6.12569 11.5272 6.8482 11.8397 7.66809C11.8567 7.67347 11.8732 7.68055 11.8891 7.68946L12.3736 7.96174C12.4112 7.98039 12.4483 7.99969 12.4852 8.01953C12.3859 7.50679 12.1503 6.99113 11.814 6.57074Z" fill="#53448F"/>
<path d="M14.3549 12.4445L13.8967 10.6179C13.7492 10.0298 13.4522 9.51173 13.0525 9.09968V10.5487C13.0525 10.6939 12.9348 10.8116 12.7896 10.8116H11.7602C11.6151 10.8116 11.4974 10.6939 11.4974 10.5487V8.19216C11.225 8.12101 10.94 8.08331 10.6478 8.08331H9.35247C9.06021 8.08331 8.77529 8.12101 8.50286 8.19216V10.5487C8.50286 10.6939 8.38517 10.8116 8.24001 10.8116H7.21056C7.0654 10.8116 6.94771 10.6939 6.94771 10.5487V9.09966C6.54798 9.51172 6.25105 10.0298 6.10351 10.6179L5.64531 12.4445C5.53341 12.8906 5.63149 13.3544 5.91438 13.7171C6.19729 14.0797 6.62332 14.2877 7.08324 14.2877H12.9169C13.3768 14.2877 13.8029 14.0797 14.0858 13.7171C14.3687 13.3544 14.4668 12.8906 14.3549 12.4445Z" fill="#53448F"/>
<path d="M7.47339 8.65095V10.2859H7.97709V8.36792L7.47339 8.65095Z" fill="#53448F"/>
<path d="M12.0232 8.36792V10.2859H12.5269V8.65095L12.0232 8.36792Z" fill="#53448F"/>
</svg>
