<svg width="13" height="18" viewBox="0 0 13 18" fill="none" xmlns="http://www.w3.org/2000/svg">
<path d="M8.72748 12.3053H9.35544V12.502C9.35544 12.8099 9.61643 13.0595 9.93833 13.0595C10.2602 13.0595 10.5212 12.8099 10.5212 12.502V12.3053H10.7494C11.4966 12.3053 12.1044 11.7238 12.1044 11.0092V4.87793H6.46503C6.48373 4.96728 6.49362 5.06046 6.49362 5.15679V5.38784H6.57241C7.72756 5.38784 8.72738 6.29434 8.72739 7.48395L8.72748 12.3053Z" fill="#53448F"/>
<path fill-rule="evenodd" clip-rule="evenodd" d="M9.87093 2.18818H10.7497C11.4968 2.18818 12.1047 2.7696 12.1047 3.48427V4.0977L5.97494 4.09774C5.73353 3.90916 5.42952 3.79961 5.11085 3.79961H4.17725V3.48432C4.17725 2.76963 4.78505 2.1882 5.53223 2.1882H6.41102V1.15716C6.41102 0.849254 6.67198 0.599609 6.99391 0.599609H9.28803C9.60994 0.599609 9.87093 0.849229 9.87093 1.15716V2.18818ZM7.57681 2.1882H8.70512V1.71473H7.57681V2.1882Z" fill="#53448F"/>
<path d="M0 8.87793V15.0092C0 15.7238 0.607853 16.3053 1.35498 16.3053H1.5832V16.502C1.5832 16.8099 1.84419 17.0595 2.16609 17.0595C2.488 17.0595 2.74899 16.8099 2.74899 16.502V16.3053H5.17844V16.502C5.17844 16.8099 5.43943 17.0595 5.76133 17.0595C6.08323 17.0595 6.34423 16.8099 6.34423 16.502V16.3053H6.57245C7.31962 16.3053 7.92743 15.7238 7.92743 15.0092V8.87793H0Z" fill="#53448F"/>
<path d="M6.57247 6.18818H5.69368V5.15716C5.69368 4.84923 5.43269 4.59961 5.11079 4.59961H2.81666C2.49474 4.59961 2.23377 4.84925 2.23377 5.15716V6.1882H1.35498C0.607802 6.1882 0 6.76963 0 7.48432V8.09774H7.92745V8.0977V7.48427C7.92745 6.7696 7.3196 6.18818 6.57247 6.18818ZM4.52787 6.1882H3.39956V5.71473H4.52787V6.1882Z" fill="#53448F"/>
</svg>
