<svg width="40" height="40" viewBox="0 0 40 40" fill="none" xmlns="http://www.w3.org/2000/svg">
<path d="M21.3714 14.3901C21.3714 15.3044 20.6285 16.0473 19.7143 16.0473C18.8 16.0473 18.0571 15.3044 18.0571 14.3901C18.0571 13.4758 18.8 12.733 19.7143 12.733C20.6285 12.7235 21.3714 13.4663 21.3714 14.3901Z" stroke="#0B2343" stroke-miterlimit="10" stroke-linecap="round" stroke-linejoin="round"/>
<path d="M13 33.0002V11.7431L15.3048 9.21924H24.1143L26.2095 11.7431V33.0002H13Z" stroke="#0B2343" stroke-miterlimit="10" stroke-linecap="round" stroke-linejoin="round"/>
<path d="M13 19.6096H26.2095" stroke="#0B2343" stroke-miterlimit="10" stroke-linecap="round" stroke-linejoin="round"/>
<path d="M16.1333 27.7048L17.8094 28.0477L18.2571 29.8286" stroke="#0B2343" stroke-miterlimit="10" stroke-linecap="round" stroke-linejoin="round"/>
<path d="M20.6381 25.2855L16.7715 23.7427" stroke="#0B2343" stroke-miterlimit="10" stroke-linecap="round" stroke-linejoin="round"/>
<path d="M22.2285 29.2L20.6381 25.2856" stroke="#0B2343" stroke-miterlimit="10" stroke-linecap="round" stroke-linejoin="round"/>
<path d="M17.8094 28.0474L22.619 23.3618" stroke="#0B2343" stroke-miterlimit="10" stroke-linecap="round" stroke-linejoin="round"/>
<path d="M26.0571 6C26.0571 6 19.5048 9.05718 19.7048 14.3905" stroke="#0B2343" stroke-miterlimit="10" stroke-linecap="round" stroke-linejoin="round"/>
</svg>
