<svg width="40" height="40" viewBox="0 0 40 40" fill="none" xmlns="http://www.w3.org/2000/svg">
<path d="M31.97 19.01L21.0299 8" stroke="#0B2343" stroke-miterlimit="10" stroke-linecap="round" stroke-linejoin="round"/>
<path d="M26.34 19.01H31.97V13.39" stroke="#0B2343" stroke-miterlimit="10" stroke-linecap="round" stroke-linejoin="round"/>
<path d="M28 32.99H33C33.55 32.99 34 32.54 34 31.99V28.03C34 27.48 33.55 27.03 33 27.03H28C27.45 27.03 27 27.48 27 28.03V31.99C27 32.54 27.45 32.99 28 32.99Z" stroke="#0B2343" stroke-miterlimit="10" stroke-linecap="round" stroke-linejoin="round"/>
<path d="M18 32.99H23C23.55 32.99 24 32.54 24 31.99V23.99C24 23.44 23.55 22.99 23 22.99H18C17.45 22.99 17 23.44 17 23.99V31.99C17 32.54 17.45 32.99 18 32.99Z" stroke="#0B2343" stroke-miterlimit="10" stroke-linecap="round" stroke-linejoin="round"/>
<path d="M8 32.99H13C13.55 32.99 14 32.54 14 31.99V9.08997C14 8.53997 13.55 8.08997 13 8.08997H8C7.45 8.08997 7 8.53997 7 9.08997V31.99C7 32.54 7.45 32.99 8 32.99Z" stroke="#0B2343" stroke-miterlimit="10" stroke-linecap="round" stroke-linejoin="round"/>
</svg>
