<svg width="40" height="40" viewBox="0 0 40 40" fill="none" xmlns="http://www.w3.org/2000/svg">
<path d="M13 32.9H8C7.45 32.9 7 32.45 7 31.9V13.9C7 13.35 7.45 12.9 8 12.9H13C13.55 12.9 14 13.35 14 13.9V31.9C14 32.45 13.55 32.9 13 32.9Z" stroke="#0B2343" stroke-miterlimit="10" stroke-linecap="round" stroke-linejoin="round"/>
<path d="M23 32.9H18C17.45 32.9 17 32.45 17 31.9V23.9C17 23.35 17.45 22.9 18 22.9H23C23.55 22.9 24 23.35 24 23.9V31.9C24 32.45 23.55 32.9 23 32.9Z" stroke="#0B2343" stroke-miterlimit="10" stroke-linecap="round" stroke-linejoin="round"/>
<path d="M33 32.9H28C27.45 32.9 27 32.45 27 31.9V9C27 8.45 27.45 8 28 8H33C33.55 8 34 8.45 34 9V31.9C34 32.45 33.55 32.9 33 32.9Z" stroke="#0B2343" stroke-miterlimit="10" stroke-linecap="round" stroke-linejoin="round"/>
</svg>
