<svg width="40" height="40" viewBox="0 0 40 40" fill="none" xmlns="http://www.w3.org/2000/svg">
<path d="M19.0399 7L8.02991 18.1" stroke="#0B2343" stroke-miterlimit="10" stroke-linecap="round" stroke-linejoin="round"/>
<path d="M13.4199 7H19.0399V12.63" stroke="#0B2343" stroke-miterlimit="10" stroke-linecap="round" stroke-linejoin="round"/>
<path d="M13 32.1H8C7.45 32.1 7 31.65 7 31.1V27.14C7 26.59 7.45 26.14 8 26.14H13C13.55 26.14 14 26.59 14 27.14V31.1C14 31.65 13.55 32.1 13 32.1Z" stroke="#0B2343" stroke-miterlimit="10" stroke-linecap="round" stroke-linejoin="round"/>
<path d="M23 32.1H18C17.45 32.1 17 31.65 17 31.1V23.1C17 22.55 17.45 22.1 18 22.1H23C23.55 22.1 24 22.55 24 23.1V31.1C24 31.65 23.55 32.1 23 32.1Z" stroke="#0B2343" stroke-miterlimit="10" stroke-linecap="round" stroke-linejoin="round"/>
<path d="M33 32.1H28C27.45 32.1 27 31.65 27 31.1V8.19995C27 7.64995 27.45 7.19995 28 7.19995H33C33.55 7.19995 34 7.64995 34 8.19995V31.1C34 31.65 33.55 32.1 33 32.1Z" stroke="#0B2343" stroke-miterlimit="10" stroke-linecap="round" stroke-linejoin="round"/>
</svg>
