<svg width="40" height="40" viewBox="0 0 40 40" fill="none" xmlns="http://www.w3.org/2000/svg">
<g clip-path="url(#clip0_3182_770)">
<path d="M33.8199 34.1669C33.8199 36.5969 31.8399 38.5568 29.4099 38.5568C26.9699 38.5568 25 36.5869 25 34.1669C25 31.7369 26.9799 29.7769 29.4099 29.7769C31.8499 29.7769 33.8199 31.7469 33.8199 34.1669Z" stroke="#0B2343" stroke-miterlimit="10" stroke-linecap="round" stroke-linejoin="round"/>
<path d="M29.4099 29.7769C29.4099 32.2069 27.43 34.1669 25 34.1669" stroke="#0B2343" stroke-miterlimit="10" stroke-linecap="round" stroke-linejoin="round"/>
<path d="M29.4099 38.5568C29.4099 36.1268 31.3899 34.1669 33.8199 34.1669" stroke="#0B2343" stroke-miterlimit="10" stroke-linecap="round" stroke-linejoin="round"/>
<path d="M10.1699 37.4169L8.27002 35.5269L28.8099 12.1669C30.1199 10.6769 32.4099 10.6069 33.8099 11.9969C35.2099 13.3969 35.14 15.6768 33.64 16.9768L10.1699 37.4169Z" stroke="#0B2343" stroke-miterlimit="10" stroke-linecap="round" stroke-linejoin="round"/>
<path d="M8.11003 39.4169L6.33 37.6468C5.89 37.2068 5.89 36.4968 6.33 36.0568L6.77995 35.6068C7.21995 35.1768 7.92003 35.1768 8.36003 35.6068L10.1401 37.3768C10.5801 37.8168 10.5801 38.5268 10.1401 38.9668L9.68999 39.4169C9.24999 39.8569 8.55003 39.8569 8.11003 39.4169Z" stroke="#0B2343" stroke-miterlimit="10" stroke-linecap="round" stroke-linejoin="round"/>
<path d="M15.85 26.8969L18.84 29.8668" stroke="#0B2343" stroke-miterlimit="10" stroke-linecap="round" stroke-linejoin="round"/>
</g>
<defs>
<clipPath id="clip0_3182_770">
<rect width="40" height="40" fill="white"/>
</clipPath>
</defs>
</svg>
