<svg viewBox="0 0 25 25" fill="none" xmlns="http://www.w3.org/2000/svg">
<path d="M5.35861 12.7112L6.17861 17.5512H10.6886C11.5886 17.5512 11.6686 18.8112 10.6886 18.8112H4.92861L4.00861 12.9312C3.94861 12.5512 4.20861 12.2012 4.58861 12.1512C4.95861 12.1012 5.29861 12.3512 5.35861 12.7112ZM8.20861 6.00121C7.51861 5.97121 6.93861 6.50122 6.90861 7.19122C6.87861 7.88122 7.40861 8.46122 8.09861 8.49122C8.78861 8.52122 9.36861 7.99122 9.39861 7.30122C9.42861 6.61122 8.89861 6.03121 8.20861 6.00121ZM13.9186 19.6712C14.2786 19.6712 14.5486 19.3412 14.4686 18.9912L13.7086 15.4312C13.5486 14.6712 12.8686 14.1212 12.0886 14.1212H10.4386C10.3186 14.1212 10.2086 14.0312 10.1886 13.9112L9.54861 10.8012C9.41861 10.2012 8.88861 9.77122 8.27861 9.77122C7.46861 9.77122 6.85861 10.5012 6.99861 11.3012L7.72861 15.4312C7.72861 15.6712 7.91861 15.8612 8.15861 15.8612H11.9886C12.3486 15.8612 12.6686 16.1112 12.7486 16.4612L13.3786 19.2312C13.4286 19.4912 13.6586 19.6712 13.9186 19.6712ZM22.8586 15.5312C22.8586 15.7112 22.7086 15.8512 22.5286 15.8512H16.3786C16.1986 15.8512 16.0486 15.7112 16.0486 15.5312V10.2212C16.0486 10.0412 16.1986 9.90121 16.3786 9.90121H17.0886V8.38122C17.0886 7.07122 18.1486 6.02122 19.4486 6.02122C20.7486 6.02122 21.8086 7.08122 21.8086 8.38122V9.90121H22.5186C22.6986 9.90121 22.8486 10.0412 22.8486 10.2212L22.8586 15.5312ZM17.9886 9.90121H20.9186V8.38122C20.9186 7.57122 20.2586 6.92121 19.4586 6.92121C18.6586 6.92121 17.9986 7.58122 17.9986 8.38122V9.90121H17.9886ZM20.7286 13.6912C20.7286 13.1512 20.3886 12.6912 19.9086 12.5112V11.9312V11.4712C19.9086 11.2512 19.7386 11.0712 19.5286 11.0312C19.5086 11.0312 19.4786 11.0212 19.4586 11.0212C19.4386 11.0212 19.4086 11.0312 19.3886 11.0312C19.1786 11.0712 19.0086 11.2412 19.0086 11.4712V11.9312V12.5112C18.5286 12.6912 18.1886 13.1512 18.1886 13.6912C18.1886 14.3912 18.7586 14.9612 19.4586 14.9612C20.1586 14.9612 20.7286 14.3912 20.7286 13.6912Z" fill="white"/>
</svg>
