<svg viewBox="0 0 40 40" fill="none" xmlns="http://www.w3.org/2000/svg">
<path d="M5.71697 19.4324L7.36697 29.1124L16.397 29.1024C18.187 29.1024 18.347 31.6324 16.397 31.6324L4.87697 31.6424L3.01697 19.8624C2.89697 19.1124 3.42697 18.4024 4.17697 18.3024C4.91697 18.1924 5.59697 18.6924 5.71697 19.4324ZM11.417 6.00243C10.047 5.94243 8.88697 7.00243 8.82697 8.37243C8.76697 9.74243 9.82697 10.9024 11.197 10.9624C12.567 11.0224 13.727 9.96243 13.787 8.59243C13.847 7.23243 12.787 6.06243 11.417 6.00243ZM22.837 33.3424C23.557 33.3424 24.087 32.6824 23.937 31.9824L22.407 24.8624C22.077 23.3424 20.737 22.2524 19.177 22.2524H15.887C15.637 22.2524 15.427 22.0824 15.377 21.8324L14.097 15.6124C13.847 14.4024 12.777 13.5424 11.547 13.5424C9.92697 13.5424 8.70697 15.0024 8.98697 16.5924L10.437 24.8524C10.437 25.3224 10.817 25.7024 11.287 25.7024H18.947C19.677 25.7024 20.307 26.2024 20.467 26.9124L21.737 32.4424C21.857 32.9824 22.317 33.3424 22.837 33.3424ZM37.007 21.7224C37.007 22.0124 36.767 22.2424 36.467 22.2424H26.327C26.027 22.2424 25.787 22.0124 25.787 21.7224V12.9624C25.787 12.6724 26.027 12.4424 26.327 12.4424H27.497V9.93243C27.497 7.78243 29.247 6.03243 31.397 6.03243C33.547 6.03243 35.297 7.78243 35.297 9.93243V12.4424H36.467C36.767 12.4424 37.007 12.6724 37.007 12.9624V21.7224ZM33.397 18.6924C33.397 17.8724 32.907 17.1724 32.197 16.8624V15.7724V15.0024C32.197 14.5624 31.837 14.2024 31.397 14.2024C30.957 14.2024 30.597 14.5624 30.597 15.0024V15.7724V16.8524C29.897 17.1624 29.397 17.8624 29.397 18.6824C29.397 19.7824 30.297 20.6824 31.397 20.6824C32.497 20.6924 33.397 19.7924 33.397 18.6924ZM33.497 12.4324V9.92242C33.497 8.76242 32.557 7.82243 31.397 7.82243C30.237 7.82243 29.297 8.76242 29.297 9.92242V12.4324H33.497Z" fill="#007CC2"/>
</svg>
