<svg width="40" height="40" viewBox="0 0 40 40" fill="none" xmlns="http://www.w3.org/2000/svg">
<path d="M25.91 13.9301L21.46 8.87012" stroke="#0B2343" stroke-miterlimit="10" stroke-linecap="round" stroke-linejoin="round"/>
<path d="M19.2599 8.87012L14.81 13.9301" stroke="#0B2343" stroke-miterlimit="10" stroke-linecap="round" stroke-linejoin="round"/>
<path d="M21.86 7.86017C21.86 8.68017 21.19 9.35016 20.36 9.35016C19.53 9.35016 18.86 8.68017 18.86 7.86017C18.86 7.04017 19.53 6.37012 20.36 6.37012C21.19 6.38012 21.86 7.04017 21.86 7.86017Z" stroke="#0B2343" stroke-miterlimit="10" stroke-linecap="round" stroke-linejoin="round"/>
<path d="M13.42 25.0303H27.89" stroke="#0B2343" stroke-miterlimit="10" stroke-linecap="round" stroke-linejoin="round"/>
<path d="M28.79 21.0601H12.52" stroke="#0B2343" stroke-miterlimit="10" stroke-linecap="round" stroke-linejoin="round"/>
<path d="M14.3199 29.0303H26.99" stroke="#0B2343" stroke-miterlimit="10" stroke-linecap="round" stroke-linejoin="round"/>
<path d="M32.3799 17H8.50995C7.19995 17 6.12994 18.08 6.12994 19.4V20.2C6.12994 21.26 6.79995 22.15 7.75995 22.46C10.1899 31.02 10.14 33.05 13.28 33.05H27.6C30.79 33.05 30.7299 30.89 33.1299 22.46C34.0899 22.15 34.7599 21.26 34.7599 20.2V19.4C34.7599 18.08 33.6899 17 32.3799 17Z" stroke="#0B2343" stroke-miterlimit="10" stroke-linecap="round" stroke-linejoin="round"/>
</svg>
