<svg width="40" height="40" viewBox="0 0 40 40" fill="none" xmlns="http://www.w3.org/2000/svg">
<path d="M30.5074 10.2225C24.8974 4.5925 15.8075 4.5925 10.2075 10.2225C4.5975 15.8525 4.5975 24.9825 10.2075 30.6125C15.8175 36.2425 24.9074 36.2425 30.5074 30.6125C36.1174 24.9825 36.1174 15.8525 30.5074 10.2225Z" stroke="#0B2343" stroke-linecap="round" stroke-linejoin="round"/>
<path d="M6.11755 18.6126C10.3676 18.0726 14.8075 19.4425 18.0675 22.7225C21.3275 26.0025 22.6975 30.4525 22.1575 34.7225" stroke="#0B2343" stroke-linecap="round" stroke-linejoin="round"/>
<path d="M34.6076 22.2225C30.3576 22.7625 25.9175 21.3925 22.6575 18.1125C19.3975 14.8425 18.0276 10.3826 18.5676 6.12256" stroke="#0B2343" stroke-linecap="round" stroke-linejoin="round"/>
<path d="M10.2075 30.6125L30.5074 10.2225" stroke="#0B2343" stroke-linecap="round" stroke-linejoin="round"/>
</svg>
