<svg width="40" height="40" viewBox="0 0 40 40" fill="none" xmlns="http://www.w3.org/2000/svg">
<path d="M23.5844 15.0931V11.9097C23.5844 9.19965 22.0158 7 20.0854 7C18.1549 7 16.5864 9.19965 16.5864 11.9097V15.0931C16.5864 15.0931 16.9298 18.3229 13.1617 19.3253C12.8926 19.3996 12.6977 19.6594 12.6977 19.9749V32.523C12.6977 33.2562 13.2359 33.8502 13.8948 33.8502H26.3873C27.0462 33.8502 27.5844 33.2562 27.5844 32.523V19.9749C27.5844 19.6687 27.3895 19.3996 27.1204 19.3253C23.3615 18.3229 23.5844 15.0931 23.5844 15.0931Z" stroke="#0B2343" stroke-linecap="round" stroke-linejoin="round"/>
<path d="M23.5658 14.3229H16.5771" stroke="#0B2343" stroke-linecap="round" stroke-linejoin="round"/>
<path d="M22.6655 30.1008H17.5145C16.9205 30.1008 16.4101 29.4418 16.4101 28.7458V23.604H23.872V28.7458C23.872 29.4418 23.2688 30.1008 22.6655 30.1008Z" stroke="#0B2343" stroke-linecap="round" stroke-linejoin="round"/>
<path d="M16.4101 25.525H17.4773" stroke="#0B2343" stroke-linecap="round" stroke-linejoin="round"/>
<path d="M19.4728 25.525H21.8024" stroke="#0B2343" stroke-linecap="round" stroke-linejoin="round" stroke-dasharray="1.16 1.16"/>
<path d="M22.8047 25.525H23.872" stroke="#0B2343" stroke-linecap="round" stroke-linejoin="round"/>
<path d="M31.9094 28.588C31.9094 28.588 29.45 26.7503 30.8793 26.1284C32.2714 25.5252 32.3642 25.024 32.3642 25.024C32.9304 23.5948 31.1669 23.5947 31.1669 23.5947H9.11506C9.11506 23.5947 7.95497 23.5948 8.00137 25.024C8.00137 25.024 7.94566 26.3419 9.48632 26.1284C11.0177 25.915 10.1638 27.9383 10.1638 27.9383" stroke="#0B2343" stroke-linecap="round" stroke-linejoin="round"/>
</svg>
