<svg width="40" height="40" viewBox="0 0 40 40" fill="none" xmlns="http://www.w3.org/2000/svg">
<path d="M22.8799 22.03H19.39L25.1899 12.99H21.8199L24.3299 8H16.95L13.45 17.0499H16.6799L13.45 25.98H17.4099V32.22L22.8799 22.03Z" stroke="#0B2343" stroke-miterlimit="10" stroke-linecap="round" stroke-linejoin="round"/>
<path d="M12.06 13.03H6.65C6.29 13.03 6 13.3199 6 13.6799V29.34C6 29.7 6.29 29.99 6.65 29.99H14.33" stroke="#0B2343" stroke-linecap="round" stroke-linejoin="round"/>
<path d="M21.8599 30H31.3099C31.6699 30 31.9599 29.71 31.9599 29.35V25.02H34.3499C34.7099 25.02 34.9999 24.73 34.9999 24.37V18.6799C34.9999 18.3199 34.7099 18.03 34.3499 18.03H31.9599V13.7C31.9599 13.34 31.6699 13.0499 31.3099 13.0499H28.3999" stroke="#0B2343" stroke-linecap="round" stroke-linejoin="round"/>
</svg>
