<svg width="40" height="40" viewBox="0 0 40 40" fill="none" xmlns="http://www.w3.org/2000/svg">
<path d="M30.98 16.9801V12.65C30.98 12.29 30.69 12 30.33 12H5.65C5.29 12 5 12.29 5 12.65V28.3101C5 28.6701 5.29 28.9601 5.65 28.9601H30.32C30.68 28.9601 30.97 28.6701 30.97 28.3101V23.9801H33.36C33.72 23.9801 34.01 23.6901 34.01 23.3301V17.64C34.01 17.28 33.72 16.9901 33.36 16.9901H30.98V16.9801Z" stroke="#0B2343" stroke-linecap="round" stroke-linejoin="round"/>
<path d="M10 16.9701H7V23.9701H10V16.9701Z" stroke="#0B2343" stroke-miterlimit="10" stroke-linecap="round" stroke-linejoin="round"/>
<path d="M16 16.9701H13V23.9701H16V16.9701Z" stroke="#0B2343" stroke-miterlimit="10" stroke-linecap="round" stroke-linejoin="round"/>
<path d="M22 16.9701H19V23.9701H22V16.9701Z" stroke="#0B2343" stroke-miterlimit="10" stroke-linecap="round" stroke-linejoin="round"/>
<path d="M28 16.9701H25V23.9701H28V16.9701Z" stroke="#0B2343" stroke-miterlimit="10" stroke-linecap="round" stroke-linejoin="round"/>
</svg>
