<svg width="40" height="40" viewBox="0 0 40 40" fill="none" xmlns="http://www.w3.org/2000/svg">
<path d="M30.5287 16.6379C29.0708 11.6538 24.4785 8 19.0206 8C13.5627 8 8.97044 11.6447 7.51257 16.6379" stroke="#0B2343" stroke-width="0.96" stroke-miterlimit="10" stroke-linecap="round" stroke-linejoin="round"/>
<path d="M32.1232 12.5195L30.5287 16.638L26.4102 15.0435" stroke="#0B2343" stroke-width="0.96" stroke-miterlimit="10" stroke-linecap="round" stroke-linejoin="round"/>
<path d="M7.60365 23.3623C9.06152 28.3464 13.6538 32.0002 19.1117 32.0002C24.5696 32.0002 29.1619 28.3555 30.6198 23.3623" stroke="#0B2343" stroke-width="0.96" stroke-miterlimit="10" stroke-linecap="round" stroke-linejoin="round"/>
<path d="M6 27.4808L7.60366 23.3623L11.7222 24.966" stroke="#0B2343" stroke-width="0.96" stroke-miterlimit="10" stroke-linecap="round" stroke-linejoin="round"/>
<path d="M21.3077 14.1141V12.2917H17.663V14.1141H14.9295V26.8704H24.0412V14.1141H21.3077Z" stroke="#0B2343" stroke-width="0.96" stroke-linecap="round" stroke-linejoin="round"/>
<path d="M19.4853 16.0002V19.5812" stroke="#0B2343" stroke-width="0.96" stroke-linecap="round" stroke-linejoin="round"/>
<path d="M17.6994 17.7859H21.2712" stroke="#0B2343" stroke-width="0.96" stroke-linecap="round" stroke-linejoin="round"/>
<path d="M17.6994 23.2529H21.2712" stroke="#0B2343" stroke-width="0.96" stroke-linecap="round" stroke-linejoin="round"/>
</svg>
