<svg width="40" height="40" viewBox="0 0 40 40" fill="none" xmlns="http://www.w3.org/2000/svg">
<path d="M23.0399 14.1441C23.2999 12.2441 21.0499 10.4641 22.8399 8.63408C22.9099 8.55408 22.84 8.44403 22.73 8.46403C21.22 8.68403 20.44 10.4741 20.23 11.1641C19.54 10.0041 19.4199 7.84405 19.4199 6.10405C19.4199 6.02405 19.32 5.97408 19.24 6.01408C16.57 7.42408 17.42 11.4041 16.51 12.6241C16.5 12.6241 16.5 12.6241 16.49 12.6341C16.22 11.7941 14.3999 9.61406 14.2199 9.49406C14.1199 9.43406 13.9899 9.51406 14.0299 9.61406C14.5899 10.9641 13.9099 12.6541 14.0599 14.1541" stroke="#0B2343" stroke-miterlimit="10" stroke-linecap="round" stroke-linejoin="round"/>
<path d="M17.13 24.344L13.46 30.774" stroke="#0B2343" stroke-miterlimit="10" stroke-linecap="round" stroke-linejoin="round"/>
<path d="M20.6499 24.344L25.08 33.584" stroke="#0B2343" stroke-miterlimit="10" stroke-linecap="round" stroke-linejoin="round"/>
<path d="M14.01 31.4341H24.0499" stroke="#0B2343" stroke-miterlimit="10" stroke-linecap="round" stroke-linejoin="round"/>
<path d="M26.8099 16.4341C26.8099 20.2841 23.2699 24.574 18.8899 24.574C14.5099 24.574 10.97 20.2941 10.97 16.4341H26.8099Z" stroke="#0B2343" stroke-miterlimit="10" stroke-linecap="round" stroke-linejoin="round"/>
<path d="M15.12 20.834C14.47 20.154 14 19.3341 13.76 18.4241" stroke="#0B2343" stroke-miterlimit="10" stroke-linecap="round" stroke-linejoin="round"/>
<path d="M14.12 32.014C14.12 32.884 13.4199 33.584 12.5499 33.584C11.6799 33.584 10.98 32.884 10.98 32.014C10.98 31.144 11.6799 30.4441 12.5499 30.4441C13.4199 30.4441 14.12 31.154 14.12 32.014Z" stroke="#0B2343" stroke-miterlimit="10" stroke-linecap="round" stroke-linejoin="round"/>
<path d="M10.98 16.4341H10" stroke="#0B2343" stroke-miterlimit="10" stroke-linecap="round" stroke-linejoin="round"/>
<path d="M29.2899 18.4341H26.51" stroke="#0B2343" stroke-miterlimit="10" stroke-linecap="round" stroke-linejoin="round"/>
</svg>
