<svg width="40" height="40" viewBox="0 0 40 40" fill="none" xmlns="http://www.w3.org/2000/svg">
<path d="M17.13 24.47L13.46 30.9" stroke="#0B2343" stroke-miterlimit="10" stroke-linecap="round" stroke-linejoin="round"/>
<path d="M20.6499 24.47L25.08 33.71" stroke="#0B2343" stroke-miterlimit="10" stroke-linecap="round" stroke-linejoin="round"/>
<path d="M14.01 31.5601H24.0499" stroke="#0B2343" stroke-miterlimit="10" stroke-linecap="round" stroke-linejoin="round"/>
<path d="M26.8099 16.5601C26.8099 20.4101 23.2699 24.7 18.8899 24.7C14.5099 24.7 10.97 20.4201 10.97 16.5601H26.8099Z" stroke="#0B2343" stroke-miterlimit="10" stroke-linecap="round" stroke-linejoin="round"/>
<path d="M15.12 20.96C14.47 20.28 14 19.46 13.76 18.55" stroke="#0B2343" stroke-miterlimit="10" stroke-linecap="round" stroke-linejoin="round"/>
<path d="M14.12 32.14C14.12 33.01 13.4199 33.71 12.5499 33.71C11.6799 33.71 10.98 33.01 10.98 32.14C10.98 31.27 11.6799 30.5701 12.5499 30.5701C13.4199 30.5701 14.12 31.28 14.12 32.14Z" stroke="#0B2343" stroke-miterlimit="10" stroke-linecap="round" stroke-linejoin="round"/>
<path d="M10.98 16.5601H10" stroke="#0B2343" stroke-miterlimit="10" stroke-linecap="round" stroke-linejoin="round"/>
<path d="M29.2899 18.5601H26.51" stroke="#0B2343" stroke-miterlimit="10" stroke-linecap="round" stroke-linejoin="round"/>
<path d="M17.7299 6C17.7299 6 19.5499 6.54 17.2199 10.12C14.8799 13.7 17.2199 13.92 17.2199 13.92" stroke="#0B2343" stroke-miterlimit="10" stroke-linecap="round" stroke-linejoin="round"/>
<path d="M20.74 9.40991C20.74 9.40991 21.78 9.71989 20.45 11.7599C19.12 13.7999 20.45 13.9199 20.45 13.9199" stroke="#0B2343" stroke-miterlimit="10" stroke-linecap="round" stroke-linejoin="round"/>
</svg>
