<svg width="40" height="40" viewBox="0 0 40 40" fill="none" xmlns="http://www.w3.org/2000/svg">
<path d="M22.61 7.95325C20.64 5.40325 16.45 5.34324 13.25 7.81324C10.05 10.2832 9.04001 14.3533 11.01 16.9033L22.61 7.95325Z" stroke="#0B2343" stroke-miterlimit="10" stroke-linecap="round" stroke-linejoin="round"/>
<path d="M17.13 24.8132L13.46 31.2433" stroke="#0B2343" stroke-miterlimit="10" stroke-linecap="round" stroke-linejoin="round"/>
<path d="M20.6499 24.8132L25.08 34.0532" stroke="#0B2343" stroke-miterlimit="10" stroke-linecap="round" stroke-linejoin="round"/>
<path d="M14.01 31.9033H24.0499" stroke="#0B2343" stroke-miterlimit="10" stroke-linecap="round" stroke-linejoin="round"/>
<path d="M26.8099 16.9033C26.8099 20.7533 23.2699 25.0432 18.8899 25.0432C14.5099 25.0432 10.97 20.7633 10.97 16.9033H26.8099Z" stroke="#0B2343" stroke-miterlimit="10" stroke-linecap="round" stroke-linejoin="round"/>
<path d="M15.12 21.3032C14.47 20.6232 14 19.8033 13.76 18.8933" stroke="#0B2343" stroke-miterlimit="10" stroke-linecap="round" stroke-linejoin="round"/>
<path d="M14.12 32.4833C14.12 33.3533 13.4199 34.0532 12.5499 34.0532C11.6799 34.0532 10.98 33.3533 10.98 32.4833C10.98 31.6133 11.6799 30.9133 12.5499 30.9133C13.4199 30.9133 14.12 31.6233 14.12 32.4833Z" stroke="#0B2343" stroke-miterlimit="10" stroke-linecap="round" stroke-linejoin="round"/>
<path d="M10.98 16.9033H10" stroke="#0B2343" stroke-miterlimit="10" stroke-linecap="round" stroke-linejoin="round"/>
<path d="M29.2899 18.9033H26.51" stroke="#0B2343" stroke-miterlimit="10" stroke-linecap="round" stroke-linejoin="round"/>
</svg>
