<svg width="40" height="40" viewBox="0 0 40 40" fill="none" xmlns="http://www.w3.org/2000/svg">
<path d="M33.62 8.46996C28.34 3.66996 11.3599 8.79006 9.64994 15.8201C9.64994 15.8201 8.77996 20.5501 14.04 16.3601C14.01 16.3301 14.04 16.3301 14.11 16.3401C14.16 15.2801 14.61 13.9 16.25 12.56C16.25 12.56 15.51 14.9001 15.49 16.6401C17.26 16.9401 19.76 17.3401 21.17 14.1601L21.0201 10.1101L23.0101 13.4399C25.9501 15.2799 27.95 13.6501 29.25 12.4101C28.26 10.9801 26.33 9.45995 26.33 9.45995C28.43 9.64995 29.59 10.5401 30.22 11.3901C30.28 11.3301 30.3 11.3201 30.29 11.3601C36.99 11.9001 33.62 8.46996 33.62 8.46996Z" stroke="#0B2343" stroke-miterlimit="10" stroke-linecap="round" stroke-linejoin="round"/>
<path d="M23 16.5801L28.11 33.22" stroke="#0B2343" stroke-miterlimit="10" stroke-linecap="round" stroke-linejoin="round"/>
<path d="M6 19.9299L23.22 33.22" stroke="#0B2343" stroke-miterlimit="10" stroke-linecap="round" stroke-linejoin="round"/>
<path d="M16.3199 30.5901L7.52002 33.22" stroke="#0B2343" stroke-miterlimit="10" stroke-linecap="round" stroke-linejoin="round"/>
<path d="M6 19.9299C13.06 36.9699 23.4099 28.47 23.4099 28.47" stroke="#0B2343" stroke-miterlimit="10" stroke-linecap="round" stroke-linejoin="round"/>
<path d="M19.75 6L20.2899 7.72998" stroke="#0B2343" stroke-miterlimit="10" stroke-linecap="round" stroke-linejoin="round"/>
</svg>
