<svg width="40" height="40" viewBox="0 0 40 40" fill="none" xmlns="http://www.w3.org/2000/svg">
<path d="M11.97 17.9699V14.0997C11.97 13.3097 12.52 12.7298 13.22 12.9398C14.12 13.1998 15.3399 13.3799 16.6499 12.9899C17.3399 12.7799 18 13.3898 18 14.1598V17.9699" stroke="#0B2343" stroke-linecap="round" stroke-linejoin="round"/>
<path d="M22.97 17.9699V14.0997C22.97 13.3097 23.52 12.7298 24.22 12.9398C25.12 13.1998 26.3399 13.3799 27.6499 12.9899C28.3399 12.7799 29 13.3898 29 14.1598V17.9699" stroke="#0B2343" stroke-linecap="round" stroke-linejoin="round"/>
<path d="M35 23H6V22.8201C6 20.2601 8.9199 18 12.5199 18H28.48C32.08 18 35 20.2601 35 22.8201V23Z" stroke="#0B2343" stroke-linecap="round" stroke-linejoin="round"/>
<path d="M35 23H6V29H35V23Z" stroke="#0B2343" stroke-linecap="round" stroke-linejoin="round"/>
<path d="M6 29V31.8699" stroke="#0B2343" stroke-linecap="round" stroke-linejoin="round"/>
<path d="M35 29V31.8699" stroke="#0B2343" stroke-linecap="round" stroke-linejoin="round"/>
<path d="M9 18.78V8H32V18.78" stroke="#0B2343" stroke-linecap="round" stroke-linejoin="round"/>
</svg>
