<svg width="40" height="40" viewBox="0 0 40 40" fill="none" xmlns="http://www.w3.org/2000/svg">
<path d="M14.6604 15.9946V15.2319C14.6604 12.2775 17.0538 9.55981 20.0082 9.55981C22.9626 9.55981 25.3559 12.2775 25.3559 15.2319V15.9946" stroke="#0B2343" stroke-width="0.876669" stroke-miterlimit="10" stroke-linecap="round" stroke-linejoin="round"/>
<path d="M15.1339 25.042C16.0018 27.7772 18.4127 30.4861 20.0082 30.4861C21.6037 30.4861 24.0145 27.7772 24.8824 25.042" stroke="#0B2343" stroke-width="0.876669" stroke-miterlimit="10" stroke-linecap="round" stroke-linejoin="round"/>
<path d="M19.9994 30.4861V32.2657" stroke="#0B2343" stroke-width="0.876669" stroke-miterlimit="10" stroke-linecap="round" stroke-linejoin="round"/>
<path d="M17.4746 20.948H22.5329" stroke="#0B2343" stroke-width="0.876669" stroke-miterlimit="10" stroke-linecap="round" stroke-linejoin="round"/>
<path d="M15.6686 24.4719H24.3389" stroke="#0B2343" stroke-width="0.876669" stroke-miterlimit="10" stroke-linecap="round" stroke-linejoin="round"/>
<path d="M16.6417 27.9785H23.3658" stroke="#0B2343" stroke-width="0.876669" stroke-miterlimit="10" stroke-linecap="round" stroke-linejoin="round"/>
<path d="M18.8685 17.3447H21.1303" stroke="#0B2343" stroke-width="0.876669" stroke-miterlimit="10" stroke-linecap="round" stroke-linejoin="round"/>
<path d="M21.6914 9.81413C21.6914 9.81413 21.1829 8.00817 22.9363 7" stroke="#0B2343" stroke-width="0.876669" stroke-miterlimit="10" stroke-linecap="round" stroke-linejoin="round"/>
<path d="M18.1759 9.88439C18.1759 9.88439 18.6844 8.07848 16.9311 7.07031" stroke="#0B2343" stroke-width="0.876669" stroke-miterlimit="10" stroke-linecap="round" stroke-linejoin="round"/>
<path d="M15.3794 24.8139C13.6874 26.5059 10.9522 26.5059 9.26899 24.8139C7.57702 23.1219 7.57702 20.3868 9.26899 18.7036C10.961 17.0116 19.9994 14.0835 19.9994 14.0835C19.9994 14.0835 17.0713 23.1219 15.3794 24.8139Z" stroke="#0B2343" stroke-width="0.876669" stroke-miterlimit="10" stroke-linecap="round" stroke-linejoin="round"/>
<path d="M30.7386 18.7036C32.4306 20.3955 32.4306 23.1307 30.7386 24.8139C29.0466 26.5059 26.3114 26.5059 24.6281 24.8139C22.9362 23.1219 20.0082 14.0835 20.0082 14.0835C20.0082 14.0835 29.0466 17.0116 30.7386 18.7036Z" stroke="#0B2343" stroke-width="0.876669" stroke-miterlimit="10" stroke-linecap="round" stroke-linejoin="round"/>
</svg>
