<svg width="40" height="40" viewBox="0 0 40 40" fill="none" xmlns="http://www.w3.org/2000/svg">
<path d="M24.8297 32.4389H11.2113C10.5433 32.4389 10 31.8956 10 31.2276V12.3451C10 11.6771 10.5433 11.1338 11.2113 11.1338H24.8297C25.4977 11.1338 26.0411 11.6771 26.0411 12.3451V31.2276C26.0411 31.8956 25.4977 32.4389 24.8297 32.4389Z" stroke="#0B2343" stroke-miterlimit="10" stroke-linecap="round" stroke-linejoin="round"/>
<path d="M26.0411 14.5004H27.4928C29.2029 14.5004 30.5836 15.9255 30.5836 17.6177V21.4743C30.5836 23.1666 29.2119 24.5917 27.4928 24.5917H26.0411" stroke="#0B2343" stroke-miterlimit="10" stroke-linecap="round" stroke-linejoin="round"/>
<path d="M13.5538 16.7092V28.7869" stroke="#0B2343" stroke-miterlimit="10" stroke-linecap="round" stroke-linejoin="round"/>
<path d="M18.025 16.7092V28.7869" stroke="#0B2343" stroke-miterlimit="10" stroke-linecap="round" stroke-linejoin="round"/>
<path d="M22.4962 16.7092V28.7869" stroke="#0B2343" stroke-miterlimit="10" stroke-linecap="round" stroke-linejoin="round"/>
<path d="M11.4606 11.1335C11.523 9.26312 13.2242 7.96275 14.872 8.59513C16.3327 6.60001 19.0493 6.45751 20.6793 8.2745C22.4873 7.32147 24.5804 8.91575 24.3399 11.1335" stroke="#0B2343" stroke-miterlimit="10" stroke-linecap="round" stroke-linejoin="round"/>
</svg>
