<svg width="40" height="40" viewBox="0 0 40 40" fill="none" xmlns="http://www.w3.org/2000/svg">
<path d="M25.7971 9.03898C25.4071 10.269 24.0971 10.959 22.8671 10.569C21.6371 10.179 20.9471 8.86896 21.3371 7.63896C21.7271 6.40896 23.0371 5.71905 24.2671 6.10905C25.4971 6.49905 26.1771 7.80898 25.7971 9.03898Z" stroke="#0B2343" stroke-miterlimit="10" stroke-linecap="round" stroke-linejoin="round"/>
<path d="M34.207 30.469C33.427 32.949 30.7871 34.3389 28.3071 33.5589C25.8271 32.7789 24.437 30.1389 25.217 27.6589C25.997 25.1789 28.637 23.7889 31.117 24.5689C33.597 25.3389 34.977 27.979 34.207 30.469Z" stroke="#0B2343" stroke-miterlimit="10" stroke-linecap="round" stroke-linejoin="round"/>
<path d="M20.6771 30.299C20.6771 30.299 20.8371 24.209 20.6771 23.959L15.8871 20.079C15.2571 19.499 15.1571 18.539 15.6571 17.849L18.5271 13.829C19.5171 12.019 21.6071 12.349 22.2471 13.819L24.8071 19.119H28.2971" stroke="#0B2343" stroke-miterlimit="10" stroke-linecap="round" stroke-linejoin="round"/>
<path d="M15.207 30.469C14.427 32.949 11.7871 34.3389 9.30709 33.5589C6.82709 32.7789 5.437 30.1389 6.217 27.6589C6.997 25.1789 9.63702 23.7889 12.117 24.5689C14.597 25.3389 15.977 27.979 15.207 30.469Z" stroke="#0B2343" stroke-miterlimit="10" stroke-linecap="round" stroke-linejoin="round"/>
</svg>
