<svg width="40" height="40" viewBox="0 0 40 40" fill="none" xmlns="http://www.w3.org/2000/svg">
<path d="M25.6472 9.01434C25.2647 10.2374 23.9632 10.9192 22.7392 10.5367C21.5161 10.1542 20.8343 8.85273 21.2168 7.62967C21.5993 6.40565 22.9018 5.72384 24.1248 6.10634C25.3479 6.48885 26.0297 7.79128 25.6472 9.01434Z" stroke="#0B2343" stroke-linecap="round" stroke-linejoin="round"/>
<path d="M33.9949 30.2714C33.2241 32.7367 30.6011 34.1098 28.1368 33.3391C25.6715 32.5684 24.2984 29.9453 25.0691 27.481C25.8399 25.0158 28.4629 23.6426 30.9272 24.4133C33.3924 25.1841 34.7656 27.8062 33.9949 30.2714Z" stroke="#0B2343" stroke-linecap="round" stroke-linejoin="round"/>
<path d="M20.5701 30.1069C20.5701 30.1069 20.7336 24.0624 20.5701 23.8128L15.8165 19.9648C15.193 19.3901 15.0945 18.4405 15.5879 17.7491L18.4319 13.7596C19.4159 11.9599 21.4852 12.2927 22.1221 13.7453L24.6667 19.0085H28.1303" stroke="#0B2343" stroke-linecap="round" stroke-linejoin="round"/>
<path d="M15.1401 30.2714C14.3694 32.7367 11.7463 34.1098 9.28206 33.3391C6.81681 32.5684 5.44362 29.9453 6.21437 27.481C6.98511 25.0158 9.60814 23.6426 12.0724 24.4133C14.5377 25.1841 15.9109 27.8062 15.1401 30.2714Z" stroke="#0B2343" stroke-linecap="round" stroke-linejoin="round"/>
</svg>
