<svg width="40" height="40" viewBox="0 0 40 40" fill="none" xmlns="http://www.w3.org/2000/svg">
<path d="M22.97 12.44H24.11C24.11 12.44 24.74 12.4 24.99 13.01C25.04 13.13 25.36 14.96 25.77 16.21C26.71 19.03 29.66 23.7 29.66 23.7" stroke="#0B2343" stroke-miterlimit="10" stroke-linecap="round" stroke-linejoin="round"/>
<path d="M20.2001 23.11L26.26 17.44" stroke="#0B2343" stroke-miterlimit="10" stroke-linecap="round" stroke-linejoin="round"/>
<path d="M25.77 16.26H16.99L18.98 22.51" stroke="#0B2343" stroke-miterlimit="10" stroke-linecap="round" stroke-linejoin="round"/>
<path d="M16.99 14.02V16.26L11.6 23.1" stroke="#0B2343" stroke-miterlimit="10" stroke-linecap="round" stroke-linejoin="round"/>
<path d="M16.0601 25.1801C15.4101 27.2801 13.46 28.8 11.14 28.8C8.30001 28.8 6 26.5 6 23.66C6 20.82 8.30001 18.52 11.14 18.52C13.63 18.52 15.7001 20.39 16.1801 22.73" stroke="#0B2343" stroke-miterlimit="10" stroke-linecap="round" stroke-linejoin="round"/>
<path d="M34.89 23.66C34.89 26.5 32.59 28.8 29.75 28.8C26.91 28.8 24.61 26.5 24.61 23.66C24.61 20.82 26.91 18.52 29.75 18.52C32.58 18.52 34.89 20.82 34.89 23.66Z" stroke="#0B2343" stroke-miterlimit="10" stroke-linecap="round" stroke-linejoin="round"/>
<path d="M18.98 22.51C18.87 22.51 11.14 23.15 11.14 23.15C10.81 23.15 10.53 23.42 10.53 23.76C10.53 24.07 10.7601 24.31 11.0601 24.35V24.36C11.0601 24.36 18.81 25.6201 18.98 25.6201C19.84 25.6201 20.53 24.92 20.53 24.07C20.53 23.2 19.84 22.51 18.98 22.51Z" stroke="#0B2343" stroke-linecap="round" stroke-linejoin="round"/>
<path d="M14.99 12C14.99 12 20.6001 12.4601 19.6601 12.8701C18.1901 13.5201 16.99 14.01 16.99 14.01C15.71 14.11 11.84 12.09 14.99 12Z" stroke="#0B2343" stroke-miterlimit="10" stroke-linecap="round" stroke-linejoin="round"/>
</svg>
