<svg width="40" height="40" viewBox="0 0 40 40" fill="none" xmlns="http://www.w3.org/2000/svg">
<path d="M27.2354 26.3899C22.7954 26.8699 16.7653 26.8699 12.3253 26.3899C12.3253 26.3899 11.8053 26.92 11.6853 28.03C11.6853 28.03 19.0054 29.6599 19.1154 34.1399C19.4754 34.3399 20.0753 34.3399 20.4453 34.1399C20.5653 29.6699 27.8754 28.03 27.8754 28.03C27.7554 26.92 27.2354 26.3899 27.2354 26.3899Z" stroke="#0B2343" stroke-miterlimit="10" stroke-linecap="round" stroke-linejoin="round"/>
<path d="M12.5953 11.6499C12.5953 11.6499 17.3253 13.7999 18.9553 16.6099C18.9553 16.6099 17.4853 19.3699 14.0953 19.1499C10.5853 18.9399 10.0253 13.7499 12.5953 11.6499Z" stroke="#0B2343" stroke-miterlimit="10" stroke-linecap="round" stroke-linejoin="round"/>
<path d="M18.9553 16.6199H20.6254" stroke="#0B2343" stroke-miterlimit="10" stroke-linecap="round" stroke-linejoin="round"/>
<path d="M12.5953 11.6499L15.0753 6" stroke="#0B2343" stroke-miterlimit="10" stroke-linecap="round" stroke-linejoin="round"/>
<path d="M26.9854 11.6499C26.9854 11.6499 22.2554 13.7999 20.6254 16.6099C20.6254 16.6099 22.0954 19.3699 25.4854 19.1499C28.9954 18.9399 29.5554 13.7499 26.9854 11.6499Z" stroke="#0B2343" stroke-miterlimit="10" stroke-linecap="round" stroke-linejoin="round"/>
<path d="M26.9854 11.6499L24.5054 6" stroke="#0B2343" stroke-miterlimit="10" stroke-linecap="round" stroke-linejoin="round"/>
</svg>
