<svg width="40" height="40" viewBox="0 0 40 40" fill="none" xmlns="http://www.w3.org/2000/svg">
<path d="M29.3818 17.2251C29.0008 17.0044 28.5995 16.8207 28.1834 16.6767C28.2663 16.2431 28.3077 15.8027 28.3071 15.3613C28.3071 11.5797 25.3201 8.41566 21.359 8.00233C21.1473 7.98393 20.9545 8.12463 20.9074 8.33188C20.8789 8.44553 20.8997 8.56588 20.9646 8.66342C21.0294 8.76097 21.1324 8.82673 21.2482 8.8445C23.6424 9.23048 25.4063 11.2914 25.4181 13.7165C25.4168 14.4056 25.2699 15.0867 24.9869 15.715C22.3881 13.5255 18.5903 13.5255 15.9915 15.715C15.7086 15.0867 15.5617 14.4056 15.5605 13.7165C15.5722 11.2914 17.3361 9.23053 19.7302 8.8445C19.9357 8.80564 20.0842 8.62564 20.0833 8.41649C20.0833 8.29858 20.0333 8.18624 19.9458 8.1073C19.8578 8.02884 19.7411 7.99066 19.6238 8.00194C15.6603 8.41165 12.6712 11.5757 12.6712 15.3613C12.6706 15.8027 12.712 16.2431 12.7949 16.6767C12.3788 16.8208 11.9776 17.0045 11.5965 17.2251C8.28691 19.1352 7.05012 23.4758 8.78084 27.1074C8.88117 27.3119 9.12591 27.3996 9.3333 27.3054C9.54069 27.2112 9.6357 26.9692 9.54777 26.7591C8.90982 25.3177 9.00713 23.657 9.80907 22.2999C10.611 20.9429 12.0189 20.0566 13.5892 19.9202C13.5263 20.2998 13.4944 20.6838 13.4938 21.0686C13.4973 24.0117 15.3397 26.639 18.1056 27.645C17.2394 28.8927 15.8446 29.6693 14.3278 29.7483C12.811 29.8274 11.3431 29.2 10.3519 28.0492C10.2718 27.9633 10.1598 27.9142 10.0424 27.9137C9.92321 27.9146 9.80907 27.9619 9.72407 28.0455C9.57824 28.1933 9.56335 28.4259 9.68906 28.5911C12.0402 31.6746 16.2214 32.6095 19.4147 30.7673C19.7965 30.5473 20.1563 30.2912 20.4891 30.0024C20.8222 30.2911 21.1821 30.5472 21.564 30.7673C22.6428 31.3875 23.8661 31.7122 25.1105 31.7087C27.5467 31.6885 29.8337 30.5321 31.2939 28.5821C31.4272 28.3904 31.3852 28.1276 31.1989 27.9869C31.024 27.8521 30.7742 27.8779 30.6304 28.0455C29.6396 29.198 28.1711 29.8268 26.6533 29.7485C25.1356 29.6701 23.7396 28.8934 22.8728 27.645C25.6388 26.639 27.4813 24.0117 27.4849 21.0685C27.4842 20.6844 27.4523 20.3009 27.3896 19.922C28.9519 20.0706 30.3489 20.9575 31.1481 22.3082C31.9473 23.6589 32.0522 25.3103 31.4304 26.7513C31.3843 26.8588 31.3854 26.9806 31.4335 27.0872C31.4817 27.1937 31.5723 27.2751 31.6834 27.3115L31.6958 27.3156C31.8952 27.3819 32.1127 27.2886 32.202 27.0983C33.9523 23.4079 32.7399 19.1633 29.3818 17.2251ZM24.5751 16.4639C24.5626 16.4827 24.5512 16.5032 24.5385 16.5217C24.3948 16.7252 24.2359 16.9175 24.0632 17.0969C22.0353 15.258 18.9429 15.258 16.9151 17.097C16.7427 16.9179 16.5841 16.7259 16.4407 16.5229C16.4277 16.5039 16.4163 16.483 16.4034 16.4639C18.7313 14.3868 22.2472 14.3868 24.5751 16.4639ZM23.4455 17.6574C21.6947 18.9747 19.2836 18.9747 17.533 17.6574C19.2277 16.1821 21.7507 16.1821 23.4455 17.6574ZM14.3269 21.0686C14.3302 20.6785 14.3702 20.2897 14.4465 19.9071C14.4611 19.9083 14.4752 19.9078 14.4899 19.909C14.7431 19.9316 14.994 19.9741 15.2404 20.0359C15.1726 20.3759 15.1384 20.7218 15.1384 21.0686C15.1332 23.3794 16.6162 25.4308 18.8121 26.1505C18.7411 26.4102 18.6491 26.6639 18.5371 26.9088C16.0252 26.0681 14.3306 23.7174 14.3269 21.0686ZM15.9716 21.0686C15.9737 20.81 15.9984 20.5522 16.0454 20.298C17.0091 20.717 17.8132 21.4338 18.3398 22.3432C18.3425 22.3481 18.3451 22.3533 18.3482 22.3582C18.8678 23.2556 19.0887 24.2949 18.9788 25.326C17.1736 24.69 15.9675 22.9825 15.9716 21.0686ZM22.4411 26.9089C22.3292 26.6639 22.2373 26.4103 22.1663 26.1505C24.7304 25.307 26.2628 22.6838 25.7381 20.036C25.9856 19.9739 26.2376 19.9313 26.4918 19.9087C26.5051 19.9075 26.5186 19.9078 26.5321 19.9068C27.1423 22.9407 25.3837 25.9507 22.4411 26.9089ZM21.9993 25.3261C21.8896 24.295 22.1107 23.2556 22.6304 22.3583C22.6339 22.3526 22.6371 22.3465 22.6402 22.3404C23.1668 21.4322 23.9703 20.7165 24.9332 20.2981C24.98 20.5523 25.0047 20.8101 25.0068 21.0686C25.0109 22.9826 23.8046 24.6902 21.9993 25.3261ZM29.7814 19.8281C28.9058 19.3221 27.9122 19.056 26.9009 19.0567C26.7402 19.0588 26.5796 19.0644 26.4227 19.0783C25.982 19.1141 25.5469 19.2007 25.1261 19.3363L25.122 19.3366L25.1193 19.3381L25.1092 19.3407C23.7602 19.7806 22.6218 20.7042 21.9133 21.9335H21.9135C21.91 21.9396 21.9066 21.9453 21.9035 21.9514C21.2068 23.1577 20.9752 24.577 21.2522 25.9422C21.2532 25.9474 21.2552 25.9526 21.2563 25.9579L21.2565 25.9621L21.2589 25.9676C21.3496 26.4179 21.4944 26.8555 21.6901 27.271C21.744 27.3877 21.8022 27.5045 21.8641 27.6152C21.8695 27.625 21.8768 27.6336 21.8824 27.6434L21.8881 27.6524C22.9375 29.5199 24.9396 30.6477 27.0807 30.5774C25.3808 31.1189 23.5322 30.9262 21.9806 30.0456C21.5443 29.7946 21.1411 29.4898 20.7807 29.1384C20.6187 28.98 20.3598 28.98 20.1978 29.1384C19.8376 29.4899 19.4346 29.7947 18.9982 30.0456C17.4487 30.9262 15.6017 31.1193 13.9035 30.5782C16.0428 30.6461 18.0423 29.5183 19.0906 27.6522L19.0963 27.6436C19.1015 27.6342 19.1084 27.6261 19.1136 27.6167C19.1767 27.504 19.2351 27.3873 19.2875 27.2734C19.4841 26.8571 19.6292 26.4185 19.72 25.9673L19.7222 25.9621L19.7224 25.958L19.7255 25.9462C20.0022 24.5881 19.7754 23.1758 19.0875 21.9725C19.0774 21.9503 19.0653 21.9291 19.0513 21.9091C18.3413 20.6914 17.2085 19.7771 15.8683 19.3402L15.8595 19.3379L15.8569 19.3366L15.853 19.3362C15.433 19.2009 14.9989 19.1145 14.5591 19.0786C14.4074 19.0652 14.2603 19.0566 14.1077 19.0566H14.1073C13.6027 19.0565 13.1001 19.1191 12.6109 19.243C11.0773 19.6509 9.77816 20.67 9.01684 22.0624C9.40214 20.3346 10.4873 18.8441 12.0133 17.9468C12.4477 17.6942 12.9124 17.4977 13.3963 17.3621C13.6151 17.3016 13.7451 17.0771 13.6889 16.8572C13.5651 16.3682 13.5032 15.8657 13.5046 15.3612C13.5119 13.5509 14.2877 11.8289 15.6387 10.6239C14.4742 12.4318 14.422 14.74 15.5034 16.5988C15.5827 16.7355 15.6666 16.8677 15.7557 16.9967C16.0046 17.3572 16.2948 17.6876 16.6202 17.981L16.6218 17.9833L16.6235 17.9844L16.6277 17.9886C18.8178 19.9741 22.1567 19.9751 24.348 17.991L24.3538 17.9851L24.3568 17.9833L24.3595 17.9795C24.6848 17.6861 24.9748 17.3558 25.2238 16.9954C25.3121 16.8677 25.3959 16.7355 25.4746 16.6C26.5561 14.7426 26.5051 12.4357 25.3426 10.6279C26.6916 11.8324 27.4662 13.5527 27.4741 15.3611C27.4754 15.8655 27.4134 16.3681 27.2898 16.8571C27.2335 17.077 27.3635 17.3015 27.5823 17.362C28.0662 17.4976 28.5309 17.6941 28.9654 17.9467C30.4907 18.8445 31.5752 20.3351 31.96 22.0627C31.4535 21.1314 30.6996 20.358 29.7814 19.8281Z" fill="#0B2343"/>
</svg>
