<svg width="40" height="40" viewBox="0 0 40 40" fill="none" xmlns="http://www.w3.org/2000/svg">
<path d="M7 17.5454L19.5483 7L32.0876 17.5454" stroke="#0B2343" stroke-linecap="round" stroke-linejoin="round"/>
<path d="M15.5959 18.7064C15.5959 16.5264 17.3594 14.7629 19.5394 14.7629C21.7194 14.7629 23.4828 16.5264 23.4828 18.7064C23.4828 20.8864 21.7194 22.6499 19.5394 22.6499C17.3683 22.6499 15.5959 20.8864 15.5959 18.7064Z" stroke="#0B2343" stroke-linecap="round" stroke-linejoin="round"/>
<path d="M20.842 26.664C20.842 27.3818 20.2572 27.9667 19.5394 27.9667C18.8216 27.9667 18.2367 27.3818 18.2367 26.664C18.2367 25.9462 18.8216 25.3613 19.5394 25.3613C20.266 25.3613 20.842 25.9462 20.842 26.664Z" stroke="#0B2343" stroke-linecap="round" stroke-linejoin="round"/>
<path d="M28.8442 14.8161L27.1162 32.4421H12.0512L10.3143 14.7629" stroke="#0B2343" stroke-miterlimit="10" stroke-linecap="round" stroke-linejoin="round"/>
</svg>
