<svg width="40" height="40" viewBox="0 0 40 40" fill="none" xmlns="http://www.w3.org/2000/svg">
<path d="M25.7897 9.08095C25.7897 9.08095 24.4366 9.26198 24.6749 8.12812C24.9131 6.99425 25.8088 6.95616 25.5515 6.1272C25.2942 5.28871 27.6001 8.8618 25.7897 9.08095Z" stroke="#0B2343" stroke-linecap="round" stroke-linejoin="round"/>
<path d="M9.38208 24.193C9.38208 24.193 10.916 27.4612 12.5073 24.193C14.0985 20.9248 15.6421 24.193 15.6421 24.193C15.6421 24.193 17.1762 27.4612 18.7674 24.193C20.3586 20.9248 21.9021 24.193 21.9021 24.193C21.9021 24.193 23.4362 27.4612 25.0275 24.193C26.6187 20.9248 28.1623 24.193 28.1623 24.193C28.1623 24.193 29.6964 27.4612 31.2876 24.193" stroke="#0B2343" stroke-miterlimit="10" stroke-linecap="round" stroke-linejoin="round"/>
<path d="M25.5611 11.749V18.6952" stroke="#0B2343" stroke-linecap="round" stroke-linejoin="round"/>
<path d="M21.0256 9.08095C21.0256 9.08095 19.6726 9.26198 19.9108 8.12812C20.149 6.99425 21.0447 6.95616 20.7874 6.1272C20.5301 5.28871 22.836 8.8618 21.0256 9.08095Z" stroke="#0B2343" stroke-linecap="round" stroke-linejoin="round"/>
<path d="M20.7969 11.749V18.6952" stroke="#0B2343" stroke-linecap="round" stroke-linejoin="round"/>
<path d="M16.2614 9.08095C16.2614 9.08095 14.9084 9.26198 15.1466 8.12812C15.3848 6.99425 16.2805 6.95616 16.0232 6.1272C15.766 5.28871 18.0718 8.8618 16.2614 9.08095Z" stroke="#0B2343" stroke-linecap="round" stroke-linejoin="round"/>
<path d="M16.0328 11.749V18.6952" stroke="#0B2343" stroke-linecap="round" stroke-linejoin="round"/>
<path d="M31.2971 33.2258H9.38208V20.839C9.38208 19.7909 10.2396 18.9333 11.2877 18.9333H29.3915C30.4396 18.9333 31.2971 19.7909 31.2971 20.839V33.2258Z" stroke="#0B2343" stroke-miterlimit="10" stroke-linecap="round" stroke-linejoin="round"/>
<path d="M7 33.2258H33.6792" stroke="#0B2343" stroke-miterlimit="10" stroke-linecap="round" stroke-linejoin="round"/>
</svg>
