<svg width="40" height="40" viewBox="0 0 40 40" fill="none" xmlns="http://www.w3.org/2000/svg">
<path d="M38 20.0001C38 29.9389 29.9388 38 20 38C10.0612 38 2 29.9389 2 20.0001C2 10.0612 10.0612 2 20 2C29.9388 2 38 10.0612 38 20.0001Z" stroke="#0B2343" stroke-miterlimit="10" stroke-linecap="round" stroke-linejoin="round"/>
<path d="M15.5438 10.8123V28.1488" stroke="#0B2343" stroke-miterlimit="10" stroke-linecap="round" stroke-linejoin="round"/>
<path d="M18.1224 7.73315V10.8124" stroke="#0B2343" stroke-miterlimit="10" stroke-linecap="round" stroke-linejoin="round"/>
<path d="M18.1224 28.3242V31.3659" stroke="#0B2343" stroke-miterlimit="10" stroke-linecap="round" stroke-linejoin="round"/>
<path d="M20.6509 7.73315V10.8124" stroke="#0B2343" stroke-miterlimit="10" stroke-linecap="round" stroke-linejoin="round"/>
<path d="M20.6509 28.3242V31.3659" stroke="#0B2343" stroke-miterlimit="10" stroke-linecap="round" stroke-linejoin="round"/>
<path d="M13.6412 10.8123H21.0265C28.7873 10.975 27.7733 19.4868 21.4896 19.4868" stroke="#0B2343" stroke-linecap="round" stroke-linejoin="round"/>
<path d="M13.6412 28.1487H22.4034C28.7997 28.0736 28.587 19.5367 22.6537 19.4741H15.6315" stroke="#0B2343" stroke-linecap="round" stroke-linejoin="round"/>
</svg>
