<svg width="40" height="40" viewBox="0 0 40 40" fill="none" xmlns="http://www.w3.org/2000/svg">
<path d="M10.1101 7.95177C10.1101 6.76177 11.1601 5.81185 12.3601 6.03185C13.1301 6.17185 13.76 6.81179 13.89 7.60179C14.06 8.61179 13.4701 9.52175 12.6101 9.81175C12.2501 9.93175 12.01 10.2718 12.01 10.6518V11.9918" stroke="#0B2343" stroke-miterlimit="10" stroke-linecap="round" stroke-linejoin="round"/>
<path d="M27.01 16.2518C26.91 16.2518 20.9901 25.5618 20.9901 28.8218C20.9901 32.0818 23.69 34.7318 27.01 34.7318C30.34 34.7318 33.03 32.0918 33.03 28.8218C33.04 25.5618 27.11 16.2518 27.01 16.2518Z" stroke="#0B2343" stroke-miterlimit="10" stroke-linecap="round" stroke-linejoin="round"/>
<path d="M24.14 26.5319C23.68 27.5119 23.3301 28.4418 23.3301 29.0118C23.3301 30.4718 24.3601 31.7019 25.7401 32.0419" stroke="#0B2343" stroke-miterlimit="10" stroke-linecap="round" stroke-linejoin="round"/>
<path d="M12.02 28.0818C8.76002 28.0818 6.01001 24.1718 6.01001 20.7318V13.5519C6.01001 12.6919 6.84003 11.9818 7.66003 11.9818H16.51C17.32 11.9818 18.03 12.6919 18.03 13.5519V20.7318C18.02 24.1718 15.28 28.0818 12.02 28.0818Z" stroke="#0B2343" stroke-miterlimit="10" stroke-linecap="round" stroke-linejoin="round"/>
<path d="M18.02 16.5018C16.34 17.3218 13.65 17.3319 12.01 16.5419C10.37 15.7419 7.68 15.7618 6 16.5818" stroke="#0B2343" stroke-miterlimit="10" stroke-linecap="round" stroke-linejoin="round"/>
<path d="M11.9901 28.0818V34.4119" stroke="#0B2343" stroke-miterlimit="10" stroke-linecap="round" stroke-linejoin="round"/>
</svg>
