<?xml version="1.0" encoding="utf-8"?>
<!-- Generator: Adobe Illustrator 26.0.3, SVG Export Plug-In . SVG Version: 6.00 Build 0)  -->
<svg version="1.1" id="Layer_1" xmlns="http://www.w3.org/2000/svg" xmlns:xlink="http://www.w3.org/1999/xlink" x="0px" y="0px"
	 viewBox="0 0 512 512" style="enable-background:new 0 0 512 512;" xml:space="preserve">
<path d="M324,238c0-3.6-1.7-6.9-4.6-9l-79.5-57c0,0-0.1,0-0.1-0.1c-0.4-0.3-0.8-0.5-1.2-0.7c-0.1,0-0.1,0-0.2-0.1
	c-0.4-0.2-0.7-0.3-1.1-0.5c-0.1,0-0.2-0.1-0.3-0.1c-0.4-0.1-0.8-0.3-1.2-0.4c0,0,0,0-0.1,0c-0.4-0.1-0.9-0.2-1.3-0.2
	c-0.1,0-0.3,0-0.4,0c-0.2,0-0.4,0-0.6,0c-0.1,0-0.3,0-0.4,0c-0.1,0-0.3,0-0.4,0c-0.4,0-0.9,0.1-1.3,0.2c0,0,0,0-0.1,0
	c-0.5,0.1-0.9,0.2-1.3,0.4c-0.1,0-0.2,0.1-0.3,0.1c-0.4,0.1-0.7,0.3-1.1,0.5c0,0-0.1,0-0.1,0.1c0,0,0,0-0.1,0
	c-0.4,0.2-0.8,0.5-1.2,0.7c-0.1,0.1-0.1,0.1-0.2,0.2c-0.3,0.2-0.6,0.4-0.9,0.7c-0.1,0.1-0.2,0.2-0.3,0.2c-0.3,0.3-0.6,0.6-0.9,1
	c0,0,0,0.1-0.1,0.1c-0.3,0.3-0.5,0.7-0.7,1c-0.1,0.1-0.1,0.2-0.2,0.3c-0.2,0.3-0.4,0.7-0.6,1.1c0,0,0,0.1-0.1,0.1
	c-0.2,0.4-0.3,0.9-0.5,1.3c0,0.1,0,0.2-0.1,0.3c-0.1,0.4-0.2,0.7-0.2,1.1c0,0.1,0,0.2-0.1,0.3c-0.1,0.5-0.1,0.9-0.1,1.4v75.3
	L202.4,242c-5-3.5-11.8-2.3-15.3,2.6c-3.5,5-2.3,11.8,2.6,15.3l32.9,23.3v5.4L189.6,312c-5,3.5-6.1,10.4-2.6,15.3s10.4,6.1,15.3,2.6
	l20.1-14.3V391c0,0.5,0,0.9,0.1,1.4c0,0.1,0,0.2,0.1,0.3c0.1,0.4,0.1,0.7,0.2,1.1c0,0.1,0,0.2,0.1,0.3c0.1,0.4,0.3,0.9,0.5,1.3
	c0,0,0,0.1,0.1,0.1c0.2,0.4,0.4,0.7,0.6,1.1c0.1,0.1,0.1,0.2,0.2,0.3c0.2,0.3,0.5,0.7,0.7,1c0,0,0,0.1,0.1,0.1
	c0.3,0.3,0.6,0.7,0.9,1c0.1,0.1,0.2,0.2,0.3,0.2c0.3,0.2,0.6,0.5,0.9,0.7c0.1,0.1,0.1,0.1,0.2,0.2c0.4,0.3,0.8,0.5,1.2,0.7
	c0,0,0,0,0.1,0c0.1,0,0.1,0.1,0.2,0.1c0.3,0.1,0.6,0.3,0.9,0.4c0.1,0,0.2,0.1,0.3,0.1c0.3,0.1,0.6,0.2,0.9,0.3
	c0.1,0,0.2,0.1,0.3,0.1c0.3,0.1,0.6,0.1,0.9,0.2c0.1,0,0.2,0,0.3,0c0.4,0,0.8,0.1,1.2,0.1c0,0,0,0,0,0c0,0,0,0,0,0c0,0,0,0,0,0
	c0,0,0,0,0,0c0.3,0,0.7,0,1-0.1c0.1,0,0.2,0,0.3,0c0.2,0,0.4-0.1,0.6-0.1c0.1,0,0.3,0,0.4-0.1c0.2,0,0.4-0.1,0.6-0.2
	c0.1,0,0.2-0.1,0.4-0.1c0.3-0.1,0.6-0.2,0.9-0.3c0.1-0.1,0.3-0.1,0.4-0.2c0.2-0.1,0.3-0.2,0.5-0.2c0.1-0.1,0.3-0.1,0.4-0.2
	c0.2-0.1,0.3-0.2,0.5-0.3c0.1-0.1,0.2-0.1,0.3-0.2c0,0,0.1-0.1,0.1-0.1l79.5-57c2.9-2.1,4.6-5.4,4.6-9c0-3.6-1.7-6.9-4.6-8.9l-55-39
	l55-39C322.3,244.9,324,241.6,324,238z M294.1,334l-49.6,35.5v-69.5l0.8-0.6L294.1,334z M245.3,272.5l-0.8-0.6v-69.5l49.6,35.5
	L245.3,272.5z"/>
<path d="M473,289.8v-40.1c0-57.5-22.9-112.6-63.6-153.3C368.7,55.8,313.6,33,256,33S143.3,55.8,102.6,96.5
	C61.9,137.1,39,192.3,39,249.7v40.1C21.4,297.2,9,314.7,9,335v96c0,27.1,21.9,49,49,49h34c8.3,0,15-6.7,15-15v-8h1
	c8.3,0,15-6.7,15-15V324c0-8.3-6.7-15-15-15h-1v-8c0-7.9-6.1-14.3-13.8-14.9v-36.3c0-43.1,17.1-84.5,47.7-114.9
	c30.5-30.5,71.9-47.6,115.1-47.6s84.6,17.1,115.1,47.6c30.5,30.5,47.7,71.8,47.7,114.9v36.3c-7.7,0.6-13.8,7.1-13.8,14.9v8h-1
	c-8.3,0-15,6.7-15,15v118c0,8.3,6.7,15,15,15h1v8c0,8.3,6.7,15,15,15h34c27.1,0,49-21.9,49-49v-96C503,314.7,490.6,297.2,473,289.8z
	"/>
</svg>
