<?xml version="1.0" encoding="utf-8"?>
<!-- Generator: Adobe Illustrator 19.2.1, SVG Export Plug-In . SVG Version: 6.00 Build 0)  -->
<svg version="1.1" id="Layer_1" xmlns="http://www.w3.org/2000/svg" xmlns:xlink="http://www.w3.org/1999/xlink" x="0px" y="0px"
	 viewBox="0 0 23 50" enable-background="new 0 0 23 50" xml:space="preserve">
<g>
	<path fill="#221F1F" d="M22.5,0h-22C0.2,0,0,0.2,0,0.5l0,31.1c0,0.1,0.1,0.3,0.2,0.4c0.1,0.1,0.2,0.2,0.4,0.2h2.5
		c-0.2,0.3-0.3,0.7-0.3,1c0,0.6,0.2,1.1,0.6,1.5c0.3,0.3,0.7,0.5,1.4,0.6c-0.2,0.3-0.3,0.7-0.3,1.1c0,1.1,0.7,2.1,2.1,2.1h1.4
		c-1.1,2.4-2,6.5,0.8,11c0.1,0.2,0.3,0.2,0.4,0.2c0.1,0,0.2,0,0.3-0.1c0.2-0.2,0.3-0.5,0.2-0.7c-4-6.5,0.2-11.9,0.4-12.1
		c0.1-0.1,0.1-0.2,0.1-0.3v-8.3c0-1.1,1-1.4,1.6-1.4c0.4,0,0.8,0.1,1.1,0.4c0.3,0.3,0.5,0.6,0.5,1.1v7.8c0,0.3,0.2,0.5,0.5,0.5
		s0.5-0.2,0.5-0.5v-4h5.2c0.2,1,0.6,4.3-1.4,9.7c-1.3,3.5-1.7,7.4-1.7,7.6c0,0.3,0.2,0.6,0.5,0.6c0,0,0,0,0.1,0
		c0.3,0,0.5-0.2,0.5-0.5c0,0,0.5-3.9,1.7-7.3c1.9-5.4,1.7-8.7,1.4-10.1h1.7c0.3,0,0.5-0.2,0.5-0.5v-31C23,0.2,22.8,0,22.5,0z
		 M3.8,33.2c0-0.5,0.4-1,1.3-1h4.1v2.1H5.1c-0.4,0-0.8-0.1-1-0.3C3.9,33.7,3.8,33.4,3.8,33.2z M8.5,37.5c-0.1,0-0.2-0.1-0.3-0.1H6.7
		c-0.8,0-1.1-0.5-1.1-1.1c0-0.5,0.3-1.1,1.1-1.1h2.6v1.1C9.1,36.6,8.8,37,8.5,37.5z M22,31h-7.5v-2.7c0-3.3-5.3-3.3-5.3,0v2.8H5.1H1
		l0-30H22V31z"/>
	<path fill="#221F1F" d="M5.1,13.2c0,4,3,7.2,6.7,7.2c0,0,0,0,0,0c0,0,0,0,0,0c0,0,0,0,0,0c0,0,0,0,0,0c0,0,0,0,0,0c0,0,0,0,0,0
		c3.7,0,6.6-3.3,6.6-7.2c0-4-3-7.2-6.6-7.2c0,0,0,0,0,0c0,0,0,0,0,0c0,0,0,0,0,0c0,0,0,0,0,0c0,0,0,0,0,0c0,0,0,0,0,0
		C9.2,6,7,7.5,5.8,9.9c0,0,0,0,0,0.1C5.4,10.9,5.1,12,5.1,13.2z M16.9,15.8h-1.7c0.1-0.6,0.2-1.3,0.2-2.1h2
		C17.4,14.4,17.2,15.1,16.9,15.8z M6.2,13.7h2c0,0.7,0.1,1.4,0.2,2.1H6.7C6.4,15.1,6.2,14.4,6.2,13.7z M9.2,13.7h2.1v2.1H9.5
		C9.3,15.1,9.2,14.4,9.2,13.7z M11.3,16.8v2.4c-0.6-0.3-1.1-1.2-1.5-2.4H11.3z M12.3,19.2v-2.4h1.6C13.5,18,12.9,18.9,12.3,19.2z
		 M12.3,15.8v-2.1h2.1c0,0.7-0.1,1.4-0.2,2.1H12.3z M17.4,12.6h-2c0-0.7-0.1-1.4-0.2-2h1.7C17.2,11.2,17.4,11.9,17.4,12.6z
		 M14.4,12.6h-2.1v-2h1.8C14.3,11.2,14.4,11.9,14.4,12.6z M12.3,9.6V7.1c0.6,0.3,1.2,1.2,1.6,2.4H12.3z M11.3,7.1v2.4H9.7
		C10.1,8.3,10.7,7.5,11.3,7.1z M11.3,10.6v2H9.2c0-0.7,0.1-1.4,0.2-2H11.3z M8.2,12.6h-2c0.1-0.7,0.2-1.4,0.5-2h1.7
		C8.3,11.3,8.2,11.9,8.2,12.6z M7.2,16.8h1.4c0.2,0.8,0.5,1.4,0.8,2C8.6,18.4,7.8,17.7,7.2,16.8z M14.1,18.8c0.3-0.5,0.6-1.2,0.8-2
		h1.4C15.8,17.7,15,18.3,14.1,18.8z M16.4,9.6H15c-0.2-0.8-0.5-1.4-0.8-2C15,8,15.8,8.7,16.4,9.6z M9.5,7.5c-0.3,0.6-0.6,1.2-0.8,2
		H7.2C7.8,8.7,8.6,8,9.5,7.5z"/>
</g>
</svg>
