<svg width="40" height="40" viewBox="0 0 40 40" fill="none" xmlns="http://www.w3.org/2000/svg">
<path d="M27.1899 20.1L26.4299 11.38C26.4299 10.25 25.55 9.34002 24.46 9.15002H16.35C15.26 9.34002 14.38 10.26 14.38 11.38L13.62 20.1" stroke="#0B2343" stroke-linecap="round" stroke-linejoin="round"/>
<path d="M27.19 31.64L31.24 23.76C31.38 23.49 31.3 23.16 31.06 22.98L23.43 17.27C21.99 16.3 21.2599 15.81 20.3999 15.81C19.5399 15.81 18.82 16.3 17.35 17.29L9.75003 22.98C9.51003 23.16 9.42997 23.49 9.56997 23.76L13.62 31.64" stroke="#0B2343" stroke-miterlimit="10" stroke-linecap="round" stroke-linejoin="round"/>
<path d="M23.0499 12.09L24.5599 12.57" stroke="#0B2343" stroke-linecap="round" stroke-linejoin="round"/>
<path d="M19.6399 12.04H21.1599" stroke="#0B2343" stroke-linecap="round" stroke-linejoin="round"/>
<path d="M16.24 12.57L17.7599 12.09" stroke="#0B2343" stroke-linecap="round" stroke-linejoin="round"/>
<path d="M19.9099 9.14001V6" stroke="#0B2343" stroke-miterlimit="10" stroke-linecap="round" stroke-linejoin="round"/>
<path d="M21.9099 9.14001V7.19" stroke="#0B2343" stroke-miterlimit="10" stroke-linecap="round" stroke-linejoin="round"/>
<path d="M18.83 19.65L18.1399 20.11" stroke="#0B2343" stroke-miterlimit="10" stroke-linecap="round" stroke-linejoin="round"/>
<path d="M21.97 19.65L22.6599 20.11" stroke="#0B2343" stroke-miterlimit="10" stroke-linecap="round" stroke-linejoin="round"/>
<path d="M7 30.99C8.06 29.93 9.76996 29.93 10.83 30.99C11.89 32.05 13.5999 32.05 14.6599 30.99C15.7199 29.93 17.43 29.93 18.49 30.99C19.55 32.05 21.2599 32.05 22.3199 30.99C23.3799 29.93 25.0899 29.93 26.1499 30.99C27.2099 32.05 28.92 32.05 29.98 30.99C31.04 29.93 32.7499 29.93 33.8099 30.99" stroke="#0B2343" stroke-miterlimit="10" stroke-linecap="round" stroke-linejoin="round"/>
<path d="M7 34.02C8.06 32.96 9.76996 32.96 10.83 34.02C11.89 35.08 13.5999 35.08 14.6599 34.02C15.7199 32.96 17.43 32.96 18.49 34.02C19.55 35.08 21.2599 35.08 22.3199 34.02C23.3799 32.96 25.0899 32.96 26.1499 34.02C27.2099 35.08 28.92 35.08 29.98 34.02C31.04 32.96 32.7499 32.96 33.8099 34.02" stroke="#0B2343" stroke-miterlimit="10" stroke-linecap="round" stroke-linejoin="round"/>
</svg>
