<svg width="40" height="40" viewBox="0 0 40 40" fill="none" xmlns="http://www.w3.org/2000/svg">
<path d="M19.5852 30.1798L11.1986 34.0175L9.08502 29.4006L13.4877 27.394" stroke="#0B2343" stroke-miterlimit="10" stroke-linecap="round" stroke-linejoin="round"/>
<path d="M19.595 24.5887L27.9717 20.7412L30.095 25.3679L25.6923 27.3842" stroke="#0B2343" stroke-miterlimit="10" stroke-linecap="round" stroke-linejoin="round"/>
<path d="M9.93237 31.2609L12.2506 30.1992" stroke="#0B2343" stroke-miterlimit="10" stroke-linecap="round" stroke-linejoin="round"/>
<path d="M25.2637 25.3098L29.2378 23.5078" stroke="#0B2343" stroke-miterlimit="10" stroke-linecap="round" stroke-linejoin="round"/>
<path d="M11.1167 20.7299L9 25.3528L27.8897 34.0019L30.0064 29.379L11.1167 20.7299Z" stroke="#0B2343" stroke-miterlimit="10" stroke-linecap="round" stroke-linejoin="round"/>
<path d="M29.2378 31.2609L26.9294 30.1992" stroke="#0B2343" stroke-miterlimit="10" stroke-linecap="round" stroke-linejoin="round"/>
<path d="M13.9162 25.3098L9.93237 23.5078" stroke="#0B2343" stroke-miterlimit="10" stroke-linecap="round" stroke-linejoin="round"/>
<path d="M25.7996 18.7739C26.1794 15.881 23.0917 13.066 25.5561 10.1829C25.6632 10.066 25.556 9.88097 25.4002 9.91019C23.306 10.2608 22.2248 13.0953 21.9325 14.1862C20.9682 12.355 20.8125 8.93612 20.8125 6.16985C20.8125 6.04323 20.6664 5.9556 20.5592 6.02378C16.8969 8.22511 18.0072 14.6148 16.7605 16.4947C16.7507 16.4947 16.741 16.5044 16.7312 16.5044C16.3611 15.1798 13.8286 11.7219 13.5753 11.5368C13.439 11.4394 13.2636 11.5758 13.3123 11.7316C14.0916 13.8648 13.1565 16.5434 13.3416 18.8811" stroke="#0B2343" stroke-miterlimit="10" stroke-linecap="round" stroke-linejoin="round"/>
</svg>
