<svg width="40" height="40" viewBox="0 0 40 40" fill="none" xmlns="http://www.w3.org/2000/svg">
<path d="M19.2586 33.0553C19.5625 31.4252 17.2324 30.1081 19.0836 28.57C19.1573 28.5056 19.0836 28.4134 18.9731 28.4227C17.4442 28.6069 16.6522 30.0804 16.4403 30.6515C15.7404 29.6936 15.6206 27.9069 15.6206 26.4609C15.6206 26.3872 15.5102 26.3504 15.4365 26.3873C14.23 26.903 13.6312 28.1464 13.3918 29.0029C13.2076 29.8042 13.1708 31.2962 12.655 31.8488C12.6458 31.8488 12.6458 31.8488 12.6366 31.858C12.3142 31.0475 9.69861 28.5148 10.1407 29.3621C10.7117 30.4857 10.0209 31.858 10.1682 33.0922" stroke="#0B2343" stroke-miterlimit="10" stroke-linecap="round" stroke-linejoin="round"/>
<path d="M15.6206 7C15.6206 7 17.3428 7.46971 15.1324 10.5643C12.9312 13.6589 15.1324 13.8431 15.1324 13.8431" stroke="#0B2343" stroke-miterlimit="10" stroke-linecap="round" stroke-linejoin="round"/>
<path d="M18.4665 9.34863C18.4665 9.34863 19.4428 9.61568 18.1902 11.3748C16.9377 13.1339 18.1902 13.2445 18.1902 13.2445" stroke="#0B2343" stroke-miterlimit="10" stroke-linecap="round" stroke-linejoin="round"/>
<path d="M11.8169 9.34863C11.8169 9.34863 12.7931 9.61568 11.5405 11.3748C10.288 13.1339 11.5405 13.2445 11.5405 13.2445" stroke="#0B2343" stroke-miterlimit="10" stroke-linecap="round" stroke-linejoin="round"/>
<path d="M7.67236 14.2947L8.89726 21.2943C8.89726 22.3535 11.5774 23.2192 14.8746 23.2192C18.1718 23.2192 20.852 22.3535 20.852 21.2943L22.0954 14.2947" stroke="#0B2343" stroke-miterlimit="10" stroke-linecap="round" stroke-linejoin="round"/>
<path d="M20.6769 11.559C21.9755 12.0103 22.7676 12.6182 22.7676 13.2813C22.7676 14.6812 19.2401 15.8233 14.8838 15.8233C10.5274 15.8233 7 14.6905 7 13.2813C7 12.5998 7.8289 11.9827 9.18278 11.5222" stroke="#0B2343" stroke-miterlimit="10" stroke-linecap="round" stroke-linejoin="round"/>
<path d="M22.7585 13.2814L33.0001 11.6604V12.7656L21.8282 15.8141" stroke="#0B2343" stroke-miterlimit="10" stroke-linecap="round" stroke-linejoin="round"/>
</svg>
