<svg xmlns="http://www.w3.org/2000/svg" viewBox="0 0 38.57 50"><title>arrows-change</title><path d="M16.63,39.86a2.23,2.23,0,0,0-2.93,0L10.6,43V2.2a2,2,0,1,0-4,0h0V43L3.47,39.86a2.23,2.23,0,0,0-2.93,0,2.23,2.23,0,0,0,0,2.93l6.58,6.58a0.18,0.18,0,0,1,.18.18c0.18,0.18.37,0.18,0.55,0.37a4.15,4.15,0,0,0,.73.18H9a1.1,1.1,0,0,0,.73-0.18,1,1,0,0,0,.55-0.37,0.18,0.18,0,0,0,.18-0.18L17,42.78A2.87,2.87,0,0,0,16.63,39.86Z" fill="#231f20"/><path d="M37.84,7.32L31.26,0.74A0.18,0.18,0,0,1,31.08.55h0c-0.18-.18-0.37-0.18-0.55-0.37A1.1,1.1,0,0,0,29.8,0h0a1.1,1.1,0,0,0-.73.18,1,1,0,0,0-.55.37,0.18,0.18,0,0,0-.18.18h0L21.75,7.32a2.23,2.23,0,0,0,0,2.93,2.23,2.23,0,0,0,2.93,0l3.11-3.11V47.9a2,2,0,1,0,4,0V7.14l3.11,3.11a2.23,2.23,0,0,0,2.93,0A1.83,1.83,0,0,0,37.84,7.32Z" fill="#231f20"/></svg>