<svg width="40" height="40" viewBox="0 0 40 40" fill="none" xmlns="http://www.w3.org/2000/svg">
<path d="M9.5 17H16.5" stroke="#0B2343" stroke-miterlimit="10" stroke-linecap="round" stroke-linejoin="round"/>
<path d="M9.5 21H16.5" stroke="#0B2343" stroke-miterlimit="10" stroke-linecap="round" stroke-linejoin="round"/>
<path d="M9.5 25H16.5" stroke="#0B2343" stroke-miterlimit="10" stroke-linecap="round" stroke-linejoin="round"/>
<path d="M20 31.41V12.49C20 11.32 17 10.36 13 10.36C9 10.36 6 11.31 6 12.49V31.41C8 31.04 10.35 30.83 13 30.83C15.64 30.83 18 31.05 20 31.41Z" stroke="#0B2343" stroke-miterlimit="10" stroke-linecap="round" stroke-linejoin="round"/>
<path d="M24 10.62C21.67 10.97 20 11.66 20 12.49V31.41C23 31.04 24.85 30.83 27.5 30.83C30.15 30.83 33 31.04 35 31.41V12.49C35 11.69 33.28 10.99 31.04 10.62" stroke="#0B2343" stroke-miterlimit="10" stroke-linecap="round" stroke-linejoin="round"/>
<path d="M30.1 22.63L27.82 20.64C27.63 20.48 27.35 20.48 27.17 20.64L24.82 22.65C24.5 22.93 23.99 22.7 23.99 22.27V8H30.92V22.25C30.93 22.68 30.42 22.91 30.1 22.63Z" stroke="#0B2343" stroke-miterlimit="10" stroke-linecap="round" stroke-linejoin="round"/>
</svg>
