<svg width="40" height="40" viewBox="0 0 40 40" fill="none" xmlns="http://www.w3.org/2000/svg">
<path d="M6 29.43H34.65" stroke="#0B2343" stroke-miterlimit="10" stroke-linecap="round" stroke-linejoin="round"/>
<path d="M14.84 10.39H6.78998V29.43H14.84V10.39Z" stroke="#0B2343" stroke-miterlimit="10" stroke-linecap="round" stroke-linejoin="round"/>
<path d="M12.17 25.47H9.50998" stroke="#0B2343" stroke-miterlimit="10" stroke-linecap="round" stroke-linejoin="round"/>
<path d="M34.46 27.26L28.41 29.43L22.91 12.17L28.97 10L34.46 27.26Z" stroke="#0B2343" stroke-miterlimit="10" stroke-linecap="round" stroke-linejoin="round"/>
<path d="M28.24 14.32C28.45 14.96 28.12 15.65 27.51 15.87C26.9 16.09 26.23 15.75 26.02 15.11C25.81 14.47 26.14 13.78 26.75 13.56C27.37 13.35 28.03 13.69 28.24 14.32Z" stroke="#0B2343" stroke-miterlimit="10" stroke-linecap="round" stroke-linejoin="round"/>
<path d="M12.33 14.95C12.33 15.78 11.66 16.46 10.82 16.46C9.98998 16.46 9.31 15.79 9.31 14.95C9.31 14.12 9.97998 13.44 10.82 13.44C11.65 13.45 12.33 14.12 12.33 14.95Z" stroke="#0B2343" stroke-miterlimit="10" stroke-linecap="round" stroke-linejoin="round"/>
<path d="M22.9 10.39H14.85V29.43H22.9V10.39Z" stroke="#0B2343" stroke-miterlimit="10" stroke-linecap="round" stroke-linejoin="round"/>
<path d="M20.23 25.47H17.57" stroke="#0B2343" stroke-miterlimit="10" stroke-linecap="round" stroke-linejoin="round"/>
<path d="M20.38 14.95C20.38 15.78 19.71 16.46 18.87 16.46C18.03 16.46 17.36 15.79 17.36 14.95C17.36 14.12 18.03 13.44 18.87 13.44C19.71 13.44 20.38 14.12 20.38 14.95Z" stroke="#0B2343" stroke-miterlimit="10" stroke-linecap="round" stroke-linejoin="round"/>
</svg>
