<svg width="40" height="40" viewBox="0 0 40 40" fill="none" xmlns="http://www.w3.org/2000/svg">
<path d="M19.96 28.91V33.6C19.37 29.52 6 30.71 6 30.71C6 30.7 6 7.20001 6 7.20001C6 7.20001 7.36999 7.27001 8.89999 7.45001" stroke="#0B2343" stroke-linecap="round" stroke-linejoin="round"/>
<path d="M19.96 33.6C20.55 29.52 33.92 30.71 33.92 30.71C33.92 30.7 33.92 7.20001 33.92 7.20001C33.92 7.20001 32.51 7.26001 31.02 7.44001" stroke="#0B2343" stroke-linecap="round" stroke-linejoin="round"/>
<path d="M19.96 28.91C19.49 25.76 8.90002 26.69 8.90002 26.69V6C8.90002 6 19.5 6.65 19.96 9.79C19.96 9.8 19.96 28.91 19.96 28.91Z" stroke="#0B2343" stroke-linecap="round" stroke-linejoin="round"/>
<path d="M19.96 28.91C20.43 25.76 31.02 26.69 31.02 26.69V6C31.02 6 20.42 6.65 19.96 9.79C19.96 9.8 19.96 28.91 19.96 28.91Z" stroke="#0B2343" stroke-linecap="round" stroke-linejoin="round"/>
</svg>
