<?xml version="1.0" encoding="UTF-8"?>
<svg width="18px" height="51px" viewBox="0 0 18 51" version="1.1" xmlns="http://www.w3.org/2000/svg" xmlns:xlink="http://www.w3.org/1999/xlink">
    <!-- Generator: Sketch 56.3 (81716) - https://sketch.com -->
    <title>booker-arrow</title>
    <desc>Created with Sketch.</desc>
    <g id="Page-1" stroke="none" stroke-width="1" fill="none" fill-rule="evenodd">
        <g id="booker-arrow" transform="translate(-1.000000, 0.000000)" fill="#231F20" fill-rule="nonzero">
            <path d="M17.63,39.86 C16.7903539,39.1283625 15.5396461,39.1283625 14.7,39.86 L11.6,43 L11.6,2.2 C11.6,1.0954305 10.7045695,0.2 9.6,0.2 C8.4954305,0.2 7.6,1.0954305 7.6,2.2 L7.6,2.2 L7.6,43 L4.47,39.86 C3.63035385,39.1283625 2.37964615,39.1283625 1.54,39.86 C0.808362453,40.6996461 0.808362453,41.9503539 1.54,42.79 L8.12,49.37 C8.21941125,49.37 8.3,49.4505887 8.3,49.55 C8.48,49.73 8.67,49.73 8.85,49.92 C9.08738573,50.0019644 9.33172155,50.0622116 9.58,50.1 L10,50.1 C10.2569221,50.1276045 10.5153617,50.0638797 10.73,49.92 C10.9500674,49.8627841 11.1440645,49.7322769 11.28,49.55 C11.3794113,49.55 11.46,49.4694113 11.46,49.37 L18,42.78 C18.4231538,41.8127042 18.2810431,40.6911818 17.63,39.86 L17.63,39.86 Z" id="Path"></path>
        </g>
    </g>
</svg>