<svg width="40" height="40" viewBox="0 0 40 40" fill="none" xmlns="http://www.w3.org/2000/svg">
<path d="M6 12.85C6 12.85 9.88 11.39 19.88 16.11V33.91C19.88 33.91 14.32 29.92 7.53 30.04L6 12.85Z" stroke="#0B2343" stroke-miterlimit="10" stroke-linecap="round" stroke-linejoin="round"/>
<path d="M33.9 12.85C33.9 12.85 29.88 11.39 19.88 16.11V33.91C19.88 33.91 25.51 29.92 32.3 30.04L33.9 12.85Z" stroke="#0B2343" stroke-miterlimit="10" stroke-linecap="round" stroke-linejoin="round"/>
<path d="M32.91 9.26C23.75 9.77 19.89 16.11 19.89 16.11C19.89 16.11 20.76 8.53 31.66 6" stroke="#0B2343" stroke-miterlimit="10" stroke-linecap="round" stroke-linejoin="round"/>
<path d="M6.95001 9.26C16.11 9.77 19.97 16.11 19.97 16.11C19.97 16.11 19.1 8.53 8.20001 6" stroke="#0B2343" stroke-miterlimit="10" stroke-linecap="round" stroke-linejoin="round"/>
</svg>
