<svg width="40" height="40" viewBox="0 0 40 40" fill="none" xmlns="http://www.w3.org/2000/svg">
<path d="M7.97705 32.0876C7.97705 32.0876 11.1373 35.54 14.1696 29.8498C17.7773 23.091 26.4906 22.1868 26.4906 22.1868C26.4906 22.1868 30.7285 22.1776 32.8018 18.6339C34.5554 15.6381 29.596 10.6786 29.596 10.6786C29.596 10.6786 24.5269 5.60955 21.5311 7.37231C17.9873 9.44561 17.9782 13.6836 17.9782 13.6836C17.9782 13.6836 17.0739 22.3969 10.3152 26.0046C4.63414 29.0278 7.97705 32.0876 7.97705 32.0876Z" stroke="#0B2343" stroke-linecap="round" stroke-linejoin="round"/>
<path d="M11.329 30.553C10.8358 31.0462 10.0411 31.0462 9.54788 30.553C9.05468 30.0598 9.05468 29.2652 9.54788 28.772C10.0411 28.2788 10.8358 28.2788 11.329 28.772C11.8222 29.2652 11.8222 30.0598 11.329 30.553Z" stroke="#0B2343" stroke-linecap="round" stroke-linejoin="round"/>
<path d="M30.427 15.1175C29.7237 15.8208 24.3989 10.4869 25.0931 9.78363C22.2069 7.74686 21.2113 10.6878 21.2113 10.6878C21.2113 10.6878 19.7043 14.3321 20.5446 15.1267C21.7411 13.9302 26.2713 18.4695 25.0748 19.6569C25.9425 20.625 29.4132 18.8988 29.4132 18.8988C29.4132 18.8988 32.4638 18.0037 30.427 15.1175Z" stroke="#0B2343" stroke-linecap="round" stroke-linejoin="round"/>
</svg>
