<svg width="40" height="40" viewBox="0 0 40 40" fill="none" xmlns="http://www.w3.org/2000/svg">
<path d="M25.3 31.8599C25.62 32.9299 26.15 34.55 26.7 34.98H30.8099C30.8099 34.98 37.1799 27.9299 30.8099 16.9399H26.75C26.75 16.9399 25.71 19.24 25.2 21.27" stroke="#0B2343" stroke-linecap="round" stroke-linejoin="round"/>
<path d="M15.28 18.28C10.71 18.28 7 21.99 7 26.55C7 31.12 10.71 34.8298 15.28 34.8298C19.85 34.8298 23.5599 31.13 23.5599 26.55C23.5499 21.98 19.85 18.28 15.28 18.28Z" stroke="#0B2343" stroke-linecap="round" stroke-linejoin="round"/>
<path d="M31.49 8.88989C31.49 7.28989 30.27 6 28.76 6C27.25 6 26.03 7.28989 26.03 8.88989C26.03 8.95989 26.75 11.99 26.75 11.99H30.77C30.78 11.98 31.49 8.95989 31.49 8.88989Z" stroke="#0B2343" stroke-linecap="round" stroke-linejoin="round"/>
<path d="M11.96 22.9299C12.28 23.3999 12.17 24.0299 11.7 24.3599C11.23 24.6799 10.6 24.5699 10.27 24.0999C9.95003 23.6299 10.06 22.9999 10.53 22.6699C11 22.3499 11.64 22.4599 11.96 22.9299Z" stroke="#0B2343" stroke-linecap="round" stroke-linejoin="round"/>
<path d="M15.3 20.6599C15.63 21.1299 15.51 21.7699 15.04 22.0999C14.57 22.4299 13.93 22.3099 13.6 21.8399C13.27 21.3699 13.39 20.7299 13.86 20.3999C14.33 20.0799 14.98 20.1899 15.3 20.6599Z" stroke="#0B2343" stroke-linecap="round" stroke-linejoin="round"/>
<path d="M15.51 24.49C15.83 24.96 15.72 25.5999 15.25 25.9299C14.78 26.2599 14.1399 26.1399 13.8099 25.6699C13.4799 25.1999 13.5999 24.56 14.0699 24.23C14.5399 23.91 15.18 24.02 15.51 24.49Z" stroke="#0B2343" stroke-linecap="round" stroke-linejoin="round"/>
<path d="M26.74 11.98V16.9399H30.8L30.78 11.98H26.74Z" stroke="#0B2343" stroke-linecap="round" stroke-linejoin="round"/>
</svg>
