<svg width="40" height="40" viewBox="0 0 40 40" fill="none" xmlns="http://www.w3.org/2000/svg">
<path d="M21.82 30.1901L30.28 27.8401" stroke="#0B2343" stroke-miterlimit="10" stroke-linecap="round" stroke-linejoin="round"/>
<path d="M11.65 5.23999L18.0099 28.16" stroke="#0B2343" stroke-miterlimit="10" stroke-linecap="round" stroke-linejoin="round"/>
<path d="M29.5652 12.1201L17.9538 15.3411L21.1748 26.9525L32.7862 23.7315L29.5652 12.1201Z" stroke="#0B2343" stroke-miterlimit="10" stroke-linecap="round" stroke-linejoin="round"/>
<path d="M12.71 9.04004H7.20001" stroke="#0B2343" stroke-miterlimit="10" stroke-linecap="round" stroke-linejoin="round"/>
<path d="M25.65 17.8301L26.39 15.8501L28.05 17.1601" stroke="#0B2343" stroke-miterlimit="10" stroke-linecap="round" stroke-linejoin="round"/>
<path d="M27.81 20.9101L26.39 15.8501" stroke="#0B2343" stroke-miterlimit="10" stroke-linecap="round" stroke-linejoin="round"/>
<path d="M22.07 18.8301L22.81 16.8501L24.47 18.1601" stroke="#0B2343" stroke-miterlimit="10" stroke-linecap="round" stroke-linejoin="round"/>
<path d="M24.2299 21.9201L22.81 16.8501" stroke="#0B2343" stroke-miterlimit="10" stroke-linecap="round" stroke-linejoin="round"/>
<path d="M23.71 23.7399L29.19 22.2" stroke="#0B2343" stroke-miterlimit="10" stroke-linecap="round" stroke-linejoin="round"/>
<path d="M21.93 31.02C21.93 32.68 20.58 34.03 18.92 34.03C17.26 34.03 15.91 32.69 15.91 31.02C15.91 29.36 17.26 28.02 18.92 28.02C20.59 28.02 21.93 29.37 21.93 31.02Z" stroke="#0B2343" stroke-miterlimit="10" stroke-linecap="round" stroke-linejoin="round"/>
</svg>
