<svg width="40" height="40" viewBox="0 0 40 40" fill="none" xmlns="http://www.w3.org/2000/svg">
<path d="M15 28.6078C15.56 28.3978 16.46 26.2878 16.46 26.2878C16.37 26.2378 8.89993 28.9178 6.17993 31.5478C6.05993 31.6578 6 31.8178 6 31.9778V34.1378C6 34.4778 6.26999 34.7378 6.60999 34.7378H20.4299C19.3699 29.3478 15 28.6078 15 28.6078Z" stroke="#0B2343" stroke-miterlimit="10" stroke-linecap="round" stroke-linejoin="round"/>
<path d="M34.66 31.5478C32 28.9778 24.47 26.2378 24.38 26.2878C24.38 26.2878 25.28 28.4078 25.84 28.6078C25.84 28.6078 21.47 29.3478 20.42 34.7478H34.24C34.58 34.7478 34.85 34.4778 34.85 34.1478V31.9878C34.84 31.8178 34.78 31.6578 34.66 31.5478Z" stroke="#0B2343" stroke-miterlimit="10" stroke-linecap="round" stroke-linejoin="round"/>
<path d="M23.73 24.0878C23.79 23.9578 23.77 23.2178 23.77 23.0578C24.93 21.9178 25.71 20.2778 25.83 18.6278C25.84 18.6278 25.84 18.6278 25.85 18.6278C26.99 18.6278 27.32 16.9678 26.28 16.4778C26.49 15.8178 26.61 15.0978 26.61 14.3578C26.61 13.6778 26.51 13.0278 26.33 12.4178C26.57 12.8978 26.72 13.3378 26.86 13.6278C26.95 13.8078 27.27 13.6278 27.27 13.6278C27.9 10.9078 25.61 9.21778 25.61 9.21778C27.32 9.31778 27.92 10.0978 27.92 10.0978C26.46 7.58778 24.53 8.25778 24.52 8.25778C21.88 4.48778 16.02 6.57778 16.02 6.57778C17.62 6.27778 19.02 7.19778 20.13 7.31778C14.73 7.05778 13.3099 12.2078 13.3099 12.2078C13.5199 11.5578 14.28 11.0878 15.26 10.7478C14.61 11.7878 14.23 13.0278 14.23 14.3578C14.23 15.0978 14.3499 15.8078 14.5599 16.4778C13.5199 16.9678 13.85 18.6278 14.99 18.6278C15 18.6278 15 18.6278 15.01 18.6278C15.13 20.2778 15.9099 21.9178 17.0699 23.0578C17.0699 23.2178 17.05 23.9578 17.11 24.0878" stroke="#0B2343" stroke-miterlimit="10" stroke-linecap="round" stroke-linejoin="round"/>
</svg>
