<svg width="40" height="40" viewBox="0 0 40 40" fill="none" xmlns="http://www.w3.org/2000/svg">
<path d="M20.8985 18.7772C23.0377 14.0455 25.3242 10.9933 27.693 9.71042C27.7271 9.69067 28.1989 9.42392 28.9456 9.16773C28.7617 7.75445 28.1256 7.11328 27.4563 6.4437C27.3208 6.3087 27.1062 5.99028 27.1062 5.71163V4.90002H11.9562V5.71163C11.9562 5.99028 11.7417 6.3087 11.6064 6.44397C10.8124 7.23799 10.0625 7.98792 10.0625 10.0402V23.3019C14.7295 25.0982 18.6731 23.4574 20.8985 18.7772Z" fill="#0B2343"/>
<path d="M22.9016 23.5881C20.7384 28.4018 17.5772 31.8376 14.4484 32.7728C13.8557 32.95 13.2732 33.0385 12.7029 33.0385C11.7885 33.0385 10.906 32.8091 10.0625 32.3551V33.0358C10.0625 34.2291 11.0335 35.2 12.2268 35.2H26.8357C28.029 35.2 29 34.2291 29 33.0358V17.7949C26.5979 18.1953 24.5467 20.1396 22.9016 23.5881Z" fill="#0B2343"/>
</svg>
