<svg width="40" height="40" viewBox="0 0 40 40" fill="none" xmlns="http://www.w3.org/2000/svg">
<path d="M33.2869 23.2832H36.086" stroke="#0B2343" stroke-linecap="round" stroke-linejoin="round"/>
<path d="M9.93143 23.2832H30.9304" stroke="#0B2343" stroke-linecap="round" stroke-linejoin="round"/>
<path d="M4.72034 23.2832H7.77394" stroke="#0B2343" stroke-linecap="round" stroke-linejoin="round"/>
<path d="M7.69655 28.9256L7.96207 9H9.76546L10.031 30.5963" stroke="#0B2343" stroke-linecap="round" stroke-linejoin="round"/>
<path d="M30.8086 30.5963L31.1627 9H33.0988L33.3644 28.9256" stroke="#0B2343" stroke-linecap="round" stroke-linejoin="round"/>
<path d="M9.76543 9.99561C9.76543 9.99561 19.3356 29.7333 31.1406 9.99561" stroke="#0B2343" stroke-linecap="round" stroke-linejoin="round"/>
<path d="M33.1099 9.99561C33.818 10.7147 34.2716 12.2195 36.086 13.6578" stroke="#0B2343" stroke-linecap="round" stroke-linejoin="round"/>
<path d="M7.96205 9.99561C7.25397 10.7147 6.26932 12.2195 4.45486 13.6578" stroke="#0B2343" stroke-linecap="round" stroke-linejoin="round"/>
<path d="M12.2216 17.7292V23.2833" stroke="#0B2343" stroke-linecap="round" stroke-linejoin="round"/>
<path d="M15.5407 20.0308V23.2834" stroke="#0B2343" stroke-linecap="round" stroke-linejoin="round"/>
<path d="M18.7381 21.4355V23.2831" stroke="#0B2343" stroke-linecap="round" stroke-linejoin="round"/>
<path d="M22.1236 21.314V23.2833" stroke="#0B2343" stroke-linecap="round" stroke-linejoin="round"/>
<path d="M25.4649 19.7979V23.283" stroke="#0B2343" stroke-linecap="round" stroke-linejoin="round"/>
<path d="M28.6623 17.4084V23.2832" stroke="#0B2343" stroke-linecap="round" stroke-linejoin="round"/>
<path d="M4.63188 30.0539C5.89315 28.7926 7.92892 28.7926 9.17912 30.0539C10.4404 31.3151 12.4761 31.3151 13.7263 30.0539C14.9876 28.7926 17.0233 28.7926 18.2735 30.0539C19.5347 31.3151 21.5704 31.3151 22.8206 30.0539C24.0819 28.7926 26.1177 28.7926 27.3679 30.0539C28.6292 31.3151 30.6649 31.3151 31.9151 30.0539C33.1763 28.7926 35.212 28.7926 36.4622 30.0539" stroke="#0B2343" stroke-miterlimit="10" stroke-linecap="round" stroke-linejoin="round"/>
</svg>
