<svg width="40" height="40" viewBox="0 0 40 40" fill="none" xmlns="http://www.w3.org/2000/svg">
<path d="M38 20C38 10.0588 29.9411 2 20 2C10.0588 2 2 10.0588 2 20C2 29.9411 10.0588 38 20 38C29.9411 38 38 29.9411 38 20Z" stroke="#0B2343" stroke-miterlimit="10" stroke-linecap="round" stroke-linejoin="round"/>
<path d="M14.0781 20.7935H23.1972" stroke="#0B2343" stroke-miterlimit="10" stroke-linecap="round" stroke-linejoin="round"/>
<path d="M25.869 12.2639C24.8028 11.0346 23.2223 9.98096 21.4662 9.98096C18.5687 9.98096 16.6872 11.5363 16.0224 14.3335C15.7214 15.5753 15.7841 16.8673 16.0224 18.1091C16.5367 20.7307 17.8411 26.4756 14.1534 29.6114C14.1534 29.6114 17.4648 26.7766 21.0523 28.8212C24.6397 30.8657 26.1951 28.332 26.1951 28.332" stroke="#0B2343" stroke-miterlimit="10" stroke-linecap="round" stroke-linejoin="round"/>
</svg>
