<svg width="40" height="40" viewBox="0 0 40 40" fill="none" xmlns="http://www.w3.org/2000/svg">
<path d="M22.1256 23.3422H4V7H36.7892" stroke="#0B2343" stroke-miterlimit="10" stroke-linecap="round" stroke-linejoin="round"/>
<path d="M36.7892 23.342H25.6225" stroke="#0B2343" stroke-miterlimit="10" stroke-linecap="round" stroke-linejoin="round"/>
<path d="M34.2831 11.033V19.0058" stroke="#0B2343" stroke-miterlimit="10" stroke-linecap="round" stroke-linejoin="round"/>
<path d="M29.9469 30.9651L27.8372 28.1792L29.7371 27.8063C30.0285 27.748 30.1218 27.3866 29.912 27.1884L22.2421 20.2995C21.9974 20.0781 21.5894 20.2879 21.6477 20.6259L23.3961 30.662C23.4427 30.9417 23.7924 31.0584 24.0023 30.8485L25.5176 29.3332L27.4059 32.6553C27.5108 32.8418 27.7439 32.8884 27.9188 32.7719L29.8653 31.4664C30.0402 31.3614 30.0752 31.1283 29.9469 30.9651Z" stroke="#0B2343" stroke-linecap="round" stroke-linejoin="round"/>
<path d="M6.9491 13.0027L8.56934 17.3388L10.1662 13.0027L11.7864 17.3388L13.3834 13.0027" stroke="#0B2343" stroke-miterlimit="10" stroke-linecap="round" stroke-linejoin="round"/>
<path d="M15.1085 13.0027L16.7287 17.3388L18.3256 13.0027L19.9458 17.3388L21.5428 13.0027" stroke="#0B2343" stroke-miterlimit="10" stroke-linecap="round" stroke-linejoin="round"/>
<path d="M23.2679 13.0027L24.8881 17.3388L26.485 13.0027L28.1052 17.3388L29.7022 13.0027" stroke="#0B2343" stroke-miterlimit="10" stroke-linecap="round" stroke-linejoin="round"/>
</svg>
