<svg width="40" height="40" viewBox="0 0 40 40" fill="none" xmlns="http://www.w3.org/2000/svg">
<path d="M6 21.8701H10.93" stroke="#0B2343" stroke-linecap="round" stroke-linejoin="round"/>
<path d="M12.1801 16.47L8.80005 13.25V11.55" stroke="#0B2343" stroke-linecap="round" stroke-linejoin="round"/>
<path d="M12.1801 27.1401L8.80005 30.3601V32.0601" stroke="#0B2343" stroke-linecap="round" stroke-linejoin="round"/>
<path d="M34.31 21.8701H29.37" stroke="#0B2343" stroke-linecap="round" stroke-linejoin="round"/>
<path d="M28.13 16.47L31.6 13.25V11.55" stroke="#0B2343" stroke-linecap="round" stroke-linejoin="round"/>
<path d="M28.13 27.1401L31.6 30.3601V32.0601" stroke="#0B2343" stroke-linecap="round" stroke-linejoin="round"/>
<path d="M24.64 15.54H24.66C24.99 14.08 24.61 12.63 23.73 11.54C24.47 9.98004 23.94 7 21.43 7V10.48C21.21 10.45 20.39 9.84009 20.16 9.84009C19.89 9.84009 19.05 10.45 18.8 10.5V7.01001C16.28 7.01001 15.74 10.0301 16.53 11.6201C15.69 12.7001 15.33 14.11 15.65 15.55H15.67C13.98 17.02 12.89 19.2901 12.89 21.8401C12.89 26.2601 16.14 29.8501 20.16 29.8501C24.17 29.8501 27.43 26.2601 27.43 21.8401C27.42 19.2801 26.33 17.01 24.64 15.54Z" stroke="#0B2343" stroke-linecap="round" stroke-linejoin="round"/>
</svg>
