<svg width="40" height="40" viewBox="0 0 40 40" fill="none" xmlns="http://www.w3.org/2000/svg">
<path d="M18.01 20.01H31.97" stroke="#0B2343" stroke-linecap="round" stroke-linejoin="round"/>
<path d="M18.01 30.01H31.97" stroke="#0B2343" stroke-linecap="round" stroke-linejoin="round"/>
<path d="M18.01 10.01H31.97" stroke="#0B2343" stroke-linecap="round" stroke-linejoin="round"/>
<path d="M12 13C13.6569 13 15 11.6569 15 10C15 8.34315 13.6569 7 12 7C10.3431 7 9 8.34315 9 10C9 11.6569 10.3431 13 12 13Z" stroke="#0B2343" stroke-linecap="round" stroke-linejoin="round"/>
<path d="M12 23.01C13.6569 23.01 15 21.6669 15 20.01C15 18.3532 13.6569 17.01 12 17.01C10.3431 17.01 9 18.3532 9 20.01C9 21.6669 10.3431 23.01 12 23.01Z" stroke="#0B2343" stroke-linecap="round" stroke-linejoin="round"/>
<path d="M12 33.01C13.6569 33.01 15 31.6669 15 30.01C15 28.3532 13.6569 27.01 12 27.01C10.3431 27.01 9 28.3532 9 30.01C9 31.6669 10.3431 33.01 12 33.01Z" stroke="#0B2343" stroke-linecap="round" stroke-linejoin="round"/>
</svg>
