<svg width="40" height="40" viewBox="0 0 40 40" fill="none" xmlns="http://www.w3.org/2000/svg">
<path d="M14.9399 20.01H31.9699" stroke="#0B2343" stroke-linecap="round" stroke-linejoin="round"/>
<path d="M14.9399 28.01H31.9699" stroke="#0B2343" stroke-linecap="round" stroke-linejoin="round"/>
<path d="M14.9399 12.01H31.9699" stroke="#0B2343" stroke-linecap="round" stroke-linejoin="round"/>
<path d="M10 13C10.5523 13 11 12.5523 11 12C11 11.4477 10.5523 11 10 11C9.44772 11 9 11.4477 9 12C9 12.5523 9.44772 13 10 13Z" stroke="#0B2343" stroke-linecap="round" stroke-linejoin="round"/>
<path d="M10 21C10.5523 21 11 20.5523 11 20C11 19.4477 10.5523 19 10 19C9.44772 19 9 19.4477 9 20C9 20.5523 9.44772 21 10 21Z" stroke="#0B2343" stroke-linecap="round" stroke-linejoin="round"/>
<path d="M10 29C10.5523 29 11 28.5523 11 28C11 27.4477 10.5523 27 10 27C9.44772 27 9 27.4477 9 28C9 28.5523 9.44772 29 10 29Z" stroke="#0B2343" stroke-linecap="round" stroke-linejoin="round"/>
</svg>
