<svg width="40" height="40" viewBox="0 0 40 40" fill="none" xmlns="http://www.w3.org/2000/svg">
<path d="M28.64 21.02H19.88" stroke="#0B2343" stroke-miterlimit="10" stroke-linecap="round" stroke-linejoin="round"/>
<path d="M13 22.88C14.0273 22.88 14.86 22.0473 14.86 21.02C14.86 19.9928 14.0273 19.16 13 19.16C11.9728 19.16 11.14 19.9928 11.14 21.02C11.14 22.0473 11.9728 22.88 13 22.88Z" stroke="#0B2343" stroke-miterlimit="10" stroke-linecap="round" stroke-linejoin="round"/>
<path d="M28.64 28.02H19.88" stroke="#0B2343" stroke-miterlimit="10" stroke-linecap="round" stroke-linejoin="round"/>
<path d="M13 29.88C14.0273 29.88 14.86 29.0473 14.86 28.02C14.86 26.9928 14.0273 26.16 13 26.16C11.9728 26.16 11.14 26.9928 11.14 28.02C11.14 29.0473 11.9728 29.88 13 29.88Z" stroke="#0B2343" stroke-miterlimit="10" stroke-linecap="round" stroke-linejoin="round"/>
<path d="M28.64 14.02H19.88" stroke="#0B2343" stroke-miterlimit="10" stroke-linecap="round" stroke-linejoin="round"/>
<path d="M13 15.88C14.0273 15.88 14.86 15.0473 14.86 14.02C14.86 12.9928 14.0273 12.16 13 12.16C11.9728 12.16 11.14 12.9928 11.14 14.02C11.14 15.0473 11.9728 15.88 13 15.88Z" stroke="#0B2343" stroke-miterlimit="10" stroke-linecap="round" stroke-linejoin="round"/>
<path d="M32 35H9C7.34 35 6 33.66 6 32V9C6 7.34 7.34 6 9 6H32C33.66 6 35 7.34 35 9V32C35 33.65 33.66 35 32 35Z" stroke="#0B2343" stroke-miterlimit="10" stroke-linecap="round" stroke-linejoin="round"/>
</svg>
