<svg width="40" height="40" viewBox="0 0 40 40" fill="none" xmlns="http://www.w3.org/2000/svg">
<path d="M20.0911 29.5501L13.7126 32.4683L12.1044 28.9539L15.4473 27.436" stroke="#0B2343" stroke-miterlimit="10" stroke-linecap="round" stroke-linejoin="round"/>
<path d="M20.0911 25.2949L26.4694 22.3767L28.0776 25.8912L24.7347 27.427" stroke="#0B2343" stroke-miterlimit="10" stroke-linecap="round" stroke-linejoin="round"/>
<path d="M12.746 30.3724L14.5077 29.5684" stroke="#0B2343" stroke-miterlimit="10" stroke-linecap="round" stroke-linejoin="round"/>
<path d="M24.4095 25.8551L27.4271 24.4819" stroke="#0B2343" stroke-miterlimit="10" stroke-linecap="round" stroke-linejoin="round"/>
<path d="M13.6289 22.3584L12.0192 25.874L26.3858 32.4522L27.9955 28.9365L13.6289 22.3584Z" stroke="#0B2343" stroke-miterlimit="10" stroke-linecap="round" stroke-linejoin="round"/>
<path d="M27.4271 30.3724L25.6743 29.5684" stroke="#0B2343" stroke-miterlimit="10" stroke-linecap="round" stroke-linejoin="round"/>
<path d="M15.7725 25.8551L12.746 24.4819" stroke="#0B2343" stroke-miterlimit="10" stroke-linecap="round" stroke-linejoin="round"/>
<path d="M25.0058 20.8772C25.313 18.5283 22.8466 16.369 24.8161 14.0832C24.8974 13.9929 24.8161 13.8484 24.6896 13.8664C23.0363 14.1465 22.178 16.3871 21.9431 17.2453C21.1842 15.7998 21.0577 13.0985 21.0577 10.9031C21.0577 10.3068 19.2507 11.7071 18.6454 14.7518C18.4467 15.9624 18.4015 18.2301 17.8504 19.0703C17.8413 19.0703 17.8324 19.0793 17.8324 19.0793C17.7059 18.6186 15.5285 14.8963 15.1762 15.1493C15.131 15.1855 15.113 15.2487 15.1311 15.3029C15.7454 16.9923 15.0045 19.1064 15.1581 20.9585" stroke="#0B2343" stroke-miterlimit="10" stroke-linecap="round" stroke-linejoin="round"/>
<path d="M7 33.2002V7H33.2002V33.2002" stroke="#0B2343" stroke-miterlimit="10" stroke-linecap="round" stroke-linejoin="round"/>
</svg>
