<svg width="40" height="40" viewBox="0 0 40 40" fill="none" xmlns="http://www.w3.org/2000/svg">
<path d="M30.96 23.46V10.02C30.61 8.06002 29.08 6 27.02 6H13.96C11.9 6 10.35 8.12002 10 10.02V23.46" stroke="#0B2343" stroke-linecap="round" stroke-linejoin="round"/>
<path d="M15.59 27.01C15.59 27.92 14.85 28.66 13.94 28.66C13.03 28.66 12.29 27.92 12.29 27.01C12.29 26.1 13.03 25.36 13.94 25.36C14.85 25.36 15.59 26.1 15.59 27.01Z" stroke="#0B2343" stroke-linecap="round" stroke-linejoin="round"/>
<path d="M28.69 27.01C28.69 27.92 27.95 28.66 27.04 28.66C26.13 28.66 25.39 27.92 25.39 27.01C25.39 26.1 26.13 25.36 27.04 25.36C27.95 25.36 28.69 26.1 28.69 27.01Z" stroke="#0B2343" stroke-linecap="round" stroke-linejoin="round"/>
<path d="M10 10.03H30.96" stroke="#0B2343" stroke-linecap="round" stroke-linejoin="round"/>
<path d="M30.96 22.89H10.01L9.90002 33.2C9.90002 34.05 10.59 34.73 11.43 34.73H13.52C14.37 34.73 15.05 34.04 15.05 33.2V30.9301H26.05V33.2C26.05 34.05 26.74 34.73 27.58 34.73H29.55C30.4 34.73 31.08 34.04 31.08 33.2L30.96 22.89Z" stroke="#0B2343" stroke-linecap="round" stroke-linejoin="round"/>
<path d="M17.79 7.82001H23.12" stroke="#0B2343" stroke-linecap="round" stroke-linejoin="round"/>
<path d="M7 11.94V16.89" stroke="#0B2343" stroke-linecap="round" stroke-linejoin="round"/>
<path d="M34 11.94V16.89" stroke="#0B2343" stroke-linecap="round" stroke-linejoin="round"/>
<path d="M10.05 30.9301H30.96" stroke="#0B2343" stroke-linecap="round" stroke-linejoin="round"/>
<path d="M18.61 22.89L29.17 10.04" stroke="#0B2343" stroke-linecap="round" stroke-linejoin="round"/>
<path d="M10.05 20.77L19.17 10.04" stroke="#0B2343" stroke-linecap="round" stroke-linejoin="round"/>
</svg>
