<svg width="40" height="40" viewBox="0 0 40 40" fill="none" xmlns="http://www.w3.org/2000/svg">
<path d="M17.2091 24.484V15.3486" stroke="#0B2343" stroke-miterlimit="10" stroke-linecap="round" stroke-linejoin="round"/>
<path d="M23.6603 15.3486V24.484" stroke="#0B2343" stroke-miterlimit="10" stroke-linecap="round" stroke-linejoin="round"/>
<path d="M26.437 23.3644C26.437 24.003 25.9187 24.5213 25.28 24.5213H15.617C14.9784 24.5213 14.4601 24.003 14.4601 23.3644V16.4226C14.4601 15.7839 14.9784 15.2656 15.617 15.2656H25.28C25.9187 15.2656 26.437 15.7839 26.437 16.4226V23.3644Z" stroke="#0B2343" stroke-miterlimit="10" stroke-linecap="round" stroke-linejoin="round"/>
<path d="M18.9027 15.2748V14.1179C18.9027 13.6829 19.2359 13.2385 19.6617 13.2385H21.1889C21.6239 13.2385 21.9479 13.6829 21.9479 14.1179V15.2748" stroke="#0B2343" stroke-miterlimit="10" stroke-linecap="round" stroke-linejoin="round"/>
<path d="M21.7814 8.36067C21.7814 7.61096 21.1705 7 20.4207 7C19.671 7 19.0602 7.61096 19.0602 8.36067C19.0602 9.11039 19.671 9.72124 20.4207 9.72124C21.1705 9.72124 21.7814 9.11964 21.7814 8.36067Z" stroke="#0B2343" stroke-miterlimit="10" stroke-linecap="round" stroke-linejoin="round"/>
<path d="M13.4697 31.0558C13.4697 32.0554 12.6552 32.87 11.6556 32.87C10.656 32.87 9.84143 32.0554 9.84143 31.0558C9.84143 30.0562 10.656 29.2417 11.6556 29.2417C12.6552 29.2417 13.4697 30.0469 13.4697 31.0558Z" stroke="#0B2343" stroke-miterlimit="10" stroke-linecap="round" stroke-linejoin="round"/>
<path d="M31.0278 31.0558C31.0278 32.0554 30.2133 32.87 29.2137 32.87C28.2141 32.87 27.3995 32.0554 27.3995 31.0558C27.3995 30.0562 28.2141 29.2417 29.2137 29.2417C30.2225 29.2417 31.0278 30.0469 31.0278 31.0558Z" stroke="#0B2343" stroke-miterlimit="10" stroke-linecap="round" stroke-linejoin="round"/>
<path d="M33.8415 26.391H7V17.8109C7 13.3497 10.619 9.73071 15.0802 9.73071H25.7706C30.2319 9.73071 33.8508 13.3497 33.8508 17.8109V26.391H33.8415Z" stroke="#0B2343" stroke-miterlimit="10" stroke-linecap="round" stroke-linejoin="round"/>
</svg>
