<svg id="Capa_1" data-name="Capa 1" xmlns="http://www.w3.org/2000/svg" viewBox="0 0 392.65 308.02"><title>caballero_aguila</title><path d="M345.66,103.59c-1.75-3.36-7.27-6.33-13-2.43-.85.63-17.7,12.56-17.7,12.56-10.42-5-18.73-8.88-25.85-12.23a30.74,30.74,0,0,0-13.74-3.55c-12.35-.17-25.92,10-26,25.16,0,7.83,0,77.6,0,87.64.06,15.23,13.74,29.58,30.67,29.51h44.8c19.64,0,23.64-17,23.46-22.21,0-8.44,0-33.26,0-36.94,0-3-.1-7.9,6-8.66a85,85,0,0,0,11-1.86,6.57,6.57,0,0,0,4.39-8.17C363.52,140,352,115.39,345.66,103.59Z" transform="translate(-4.35 -4.8)" fill="#002d59"/><path d="M397,97c.63-24.69-18.14-52.82-52.68-54.54-28.05-.64-43.6,9.43-49.32,12.24a1.51,1.51,0,0,1-1.78-.63C288,49,277,41.39,264.55,37.82a1.7,1.7,0,0,1,.13-3.38,231,231,0,0,1,59.47,1.75c2.19.35,3.94-.95,3-3-.64-1.56-1.21-2.29-2.38-4.7-2.32-5.09-8.59-10.48-16.53-12.68C287.4,10,251.84,5,220.16,4.8c-35.61-.21-73.19,6.88-82.67,9-2.28.51-5.51,1.34-6,1.44-2.6.52-3.19,3-2.06,4.2.67.81,2.59,2.46,3.57,3.62,1.17,1.42,1.73,3.55-.51,5.7L66.56,88h45.1l.49,0a5.94,5.94,0,0,1,5.72,6c0,3-2.42,5.92-5.48,5.92l-.4,0H53.4L35.48,116.1h76.71l.43,0c3,0,5.37,3.17,5.31,6s-2.25,5.88-5.31,5.88H22.34L4.4,144.15H159.77c3,0,5.44,3.14,5.48,5.86,0,3.19-2.22,6.06-5.35,6l-.43-.06H4.37v16.22H159.63c3.55.05,5.59,3.26,5.58,6.22a5.93,5.93,0,0,1-5.68,5.56l-.4,0H4.4l-.05,16.32h202.1l.49,0a5.78,5.78,0,0,1,5.42,6.14c-.09,2.73-2.39,5.66-5.42,5.66l-.42,0H58.77v16.3H207.53c2.76,0,5.12,3.39,5.12,6.13s-2.41,5.72-5.16,5.72H58.75v16.2h171s6.2-14.33,6.2-30.18c0-.85,0-109.88,0-109.88,0-8.66,3.53-23.3,21.34-27.2.5-.1,1-.21,1.48-.29,50.5-11.92,102.53-1.08,131.82,11.6C396,103,397.17,98.82,397,97Z" transform="translate(-4.35 -4.8)" fill="#002d59"/><path d="M113.13,312.79s21.92,0,34.4,0c30.78-.19,51-16.58,51-16.58H113.17Z" transform="translate(-4.35 -4.8)" fill="#002d59"/><path d="M113.13,284.53h98.94a84,84,0,0,0,12-16.2H113.17Z" transform="translate(-4.35 -4.8)" fill="#002d59"/><path d="M102.59,302.93c0-1.6-1-2.24-2.79-2.24H97v7.57h1.4V305h.85l2,3.27h1.44l-2-3.32A1.85,1.85,0,0,0,102.59,302.93Zm-4.2,1v-2.17h1.25c.73,0,1.54.14,1.54,1s-.72,1.13-1.55,1.13Z" transform="translate(-4.35 -4.8)" fill="#002d59"/><path d="M99.56,297.83a6.69,6.69,0,1,0,6.68,6.68A6.69,6.69,0,0,0,99.56,297.83Zm0,12.05a5.39,5.39,0,1,1,5-5.37A5.12,5.12,0,0,1,99.56,309.88Z" transform="translate(-4.35 -4.8)" fill="#002d59"/></svg>