<svg width="40" height="40" viewBox="0 0 40 40" fill="none" xmlns="http://www.w3.org/2000/svg">
<path d="M8 15.4535C8 15.4535 19.3754 14.0826 31.9049 9.57056" stroke="#0B2343" stroke-miterlimit="10" stroke-linecap="round" stroke-linejoin="round"/>
<path d="M19.1238 10.1604C19.1238 10.7938 18.6032 11.3144 17.9698 11.3144C17.3364 11.3144 16.8158 10.7938 16.8158 10.1604C16.8158 9.52698 17.3364 9.00635 17.9698 9.00635C18.6032 9.00635 19.1238 9.52698 19.1238 10.1604Z" stroke="#0B2343" stroke-miterlimit="10" stroke-linecap="round" stroke-linejoin="round"/>
<path d="M23.0979 9.15405C23.0979 9.78747 22.5772 10.308 21.9438 10.308C21.3104 10.308 20.7898 9.78747 20.7898 9.15405C20.7898 8.52063 21.3104 8 21.9438 8C22.5772 8 23.0979 8.52063 23.0979 9.15405Z" stroke="#0B2343" stroke-miterlimit="10" stroke-linecap="round" stroke-linejoin="round"/>
<path d="M20.3994 15.5403V19.8788" stroke="#0B2343" stroke-miterlimit="10" stroke-linecap="round" stroke-linejoin="round"/>
<path d="M23.0197 19.8787V25.9785" stroke="#0B2343" stroke-miterlimit="10" stroke-linecap="round" stroke-linejoin="round"/>
<path d="M17.8135 19.8787V25.9785" stroke="#0B2343" stroke-miterlimit="10" stroke-linecap="round" stroke-linejoin="round"/>
<path d="M24.7379 32.9202H16.0609C14.6205 32.9202 13.4578 31.7575 13.4578 30.3171V22.5079C13.4578 21.0675 14.6205 19.9048 16.0609 19.9048H24.7379C26.1782 19.9048 27.3409 21.0675 27.3409 22.5079V30.3171C27.3409 31.7488 26.1782 32.9202 24.7379 32.9202Z" stroke="#0B2343" stroke-miterlimit="10" stroke-linecap="round" stroke-linejoin="round"/>
<path d="M13.4578 25.9785H27.3409" stroke="#0B2343" stroke-miterlimit="10" stroke-linecap="round" stroke-linejoin="round"/>
</svg>
