<svg width="40" height="40" viewBox="0 0 40 40" fill="none" xmlns="http://www.w3.org/2000/svg">
<path d="M34.3042 22.3639L30.8587 11.2849C30.5032 10.2491 29.1568 9.61212 27.9611 9.61212H11.2427C10.0478 9.61212 8.65234 10.0601 8.3451 11.2849L4.89966 22.3648" stroke="#0B2343" stroke-linecap="round" stroke-linejoin="round"/>
<path d="M5.44196 25.7177L7.4103 31.5628C7.79581 32.5994 9.25459 33.2364 10.5493 33.2364H28.655C29.9497 33.2364 31.461 32.7884 31.7932 31.5628L33.7615 25.7185" stroke="#0B2343" stroke-linecap="round" stroke-linejoin="round"/>
<path d="M10.4279 25.7177H3.86594C3.38717 25.7177 3 25.3305 3 24.8526V23.2297C3 22.7518 3.38717 22.3646 3.86594 22.3646H35.3437C35.8225 22.3646 36.2096 22.7518 36.2096 23.2297V24.8526C36.2096 25.3305 35.8225 25.7177 35.3437 25.7177H29.0698" stroke="#0B2343" stroke-linecap="round" stroke-linejoin="round"/>
<path d="M27.0148 25.7177H12.4836" stroke="#0B2343" stroke-linecap="round" stroke-linejoin="round"/>
<path d="M12.0524 28.1338H10.8593C10.6211 28.1338 10.428 27.9407 10.428 27.7025V25.2837C10.428 25.0456 10.6211 24.8524 10.8593 24.8524H12.0524C12.2906 24.8524 12.4838 25.0456 12.4838 25.2837V27.7025C12.4838 27.9407 12.2906 28.1338 12.0524 28.1338Z" stroke="#0B2343" stroke-linecap="round" stroke-linejoin="round"/>
<path d="M28.6392 28.1338H27.4461C27.2079 28.1338 27.0148 27.9407 27.0148 27.7025V25.2837C27.0148 25.0456 27.2079 24.8524 27.4461 24.8524H28.6392C28.8774 24.8524 29.0705 25.0456 29.0705 25.2837V27.7025C29.0705 27.9407 28.8774 28.1338 28.6392 28.1338Z" stroke="#0B2343" stroke-linecap="round" stroke-linejoin="round"/>
<path d="M29.51 19.7022H9.91224C9.29526 19.7022 8.69743 19.1552 8.79485 18.5848L10.3918 13.3925C10.5634 12.7988 10.8923 12.2743 11.5101 12.2743H27.9879C28.6057 12.2743 28.8905 12.733 29.1061 13.3925L30.6282 18.5848C30.7648 19.0652 30.127 19.7022 29.51 19.7022Z" stroke="#0B2343" stroke-linecap="round" stroke-linejoin="round"/>
<path d="M17.225 18.5795V13.1682" stroke="#0B2343" stroke-linecap="round" stroke-linejoin="round"/>
<path d="M12.7706 18.5795V13.1682" stroke="#0B2343" stroke-linecap="round" stroke-linejoin="round"/>
<path d="M21.8774 18.5795V13.1682" stroke="#0B2343" stroke-linecap="round" stroke-linejoin="round"/>
<path d="M26.483 18.5795V13.1682" stroke="#0B2343" stroke-linecap="round" stroke-linejoin="round"/>
<path d="M23.7148 8.99158C23.7148 7.33963 22.3759 5.99992 20.7231 5.99992H18.48C16.8281 5.99992 15.4892 7.33963 15.4892 8.99158" stroke="#0B2343" stroke-linecap="round" stroke-linejoin="round"/>
</svg>
