<svg width="40" height="40" viewBox="0 0 40 40" fill="none" xmlns="http://www.w3.org/2000/svg">
<path d="M17.02 19.5601C17.02 20.3901 16.34 21.07 15.51 21.07C14.68 21.07 14 20.3901 14 19.5601C14 18.7301 14.68 18.05 15.51 18.05C16.35 18.05 17.02 18.7301 17.02 19.5601Z" stroke="#0B2343" stroke-miterlimit="10" stroke-linecap="round" stroke-linejoin="round"/>
<path d="M22.02 19.5601C22.02 20.3901 21.34 21.07 20.51 21.07C19.68 21.07 19 20.3901 19 19.5601C19 18.7301 19.68 18.05 20.51 18.05C21.35 18.05 22.02 18.7301 22.02 19.5601Z" stroke="#0B2343" stroke-miterlimit="10" stroke-linecap="round" stroke-linejoin="round"/>
<path d="M27.02 19.5601C27.02 20.3901 26.34 21.07 25.51 21.07C24.68 21.07 24 20.3901 24 19.5601C24 18.7301 24.68 18.05 25.51 18.05C26.35 18.05 27.02 18.7301 27.02 19.5601Z" stroke="#0B2343" stroke-miterlimit="10" stroke-linecap="round" stroke-linejoin="round"/>
<path d="M17.02 24.5601C17.02 25.3901 16.34 26.07 15.51 26.07C14.68 26.07 14 25.3901 14 24.5601C14 23.7301 14.68 23.05 15.51 23.05C16.35 23.05 17.02 23.7301 17.02 24.5601Z" stroke="#0B2343" stroke-miterlimit="10" stroke-linecap="round" stroke-linejoin="round"/>
<path d="M22.02 24.5601C22.02 25.3901 21.34 26.07 20.51 26.07C19.68 26.07 19 25.3901 19 24.5601C19 23.7301 19.68 23.05 20.51 23.05C21.35 23.05 22.02 23.7301 22.02 24.5601Z" stroke="#0B2343" stroke-miterlimit="10" stroke-linecap="round" stroke-linejoin="round"/>
<path d="M27.02 24.5601C27.02 25.3901 26.34 26.07 25.51 26.07C24.68 26.07 24 25.3901 24 24.5601C24 23.7301 24.68 23.05 25.51 23.05C26.35 23.05 27.02 23.7301 27.02 24.5601Z" stroke="#0B2343" stroke-miterlimit="10" stroke-linecap="round" stroke-linejoin="round"/>
<path d="M17.02 29.5601C17.02 30.3901 16.34 31.07 15.51 31.07C14.68 31.07 14 30.3901 14 29.5601C14 28.7301 14.68 28.05 15.51 28.05C16.35 28.05 17.02 28.7301 17.02 29.5601Z" stroke="#0B2343" stroke-miterlimit="10" stroke-linecap="round" stroke-linejoin="round"/>
<path d="M22.02 29.5601C22.02 30.3901 21.34 31.07 20.51 31.07C19.68 31.07 19 30.3901 19 29.5601C19 28.7301 19.68 28.05 20.51 28.05C21.35 28.05 22.02 28.7301 22.02 29.5601Z" stroke="#0B2343" stroke-miterlimit="10" stroke-linecap="round" stroke-linejoin="round"/>
<path d="M27.02 29.5601C27.02 30.3901 26.34 31.07 25.51 31.07C24.68 31.07 24 30.3901 24 29.5601C24 28.7301 24.68 28.05 25.51 28.05C26.35 28.05 27.02 28.7301 27.02 29.5601Z" stroke="#0B2343" stroke-miterlimit="10" stroke-linecap="round" stroke-linejoin="round"/>
<path d="M29 35H12C10.9 35 10 34.1 10 33V8C10 6.9 10.9 6 12 6H29C30.1 6 31 6.9 31 8V33C31 34.1 30.11 35 29 35Z" stroke="#0B2343" stroke-miterlimit="10" stroke-linecap="round" stroke-linejoin="round"/>
<path d="M27 10H14V15H27V10Z" stroke="#0B2343" stroke-miterlimit="10" stroke-linecap="round" stroke-linejoin="round"/>
</svg>
