<svg width="50" height="50" viewBox="0 0 50 50" fill="none" xmlns="http://www.w3.org/2000/svg">
<path d="M21.616 19.5C22.228 19.5 22.732 18.996 22.732 18.384V16.116C22.732 15.504 22.228 15 21.616 15C21.004 15 20.5 15.504 20.5 16.116V18.348C20.5 18.996 21.004 19.5 21.616 19.5ZM30.616 17.232V18.384C30.616 19.644 29.608 20.616 28.384 20.616C27.124 20.616 26.152 19.608 26.152 18.384V17.232H23.92V18.384C23.92 19.644 22.912 20.616 21.688 20.616C20.428 20.616 19.456 19.608 19.456 18.384V17.232H16V33H34V17.232H30.616ZM21.616 30.732H19.384V28.5H21.616V30.732ZM21.616 26.268H19.384V24H21.616V26.268ZM26.116 30.732H23.884V28.5H26.116V30.732ZM26.116 26.268H23.884V24H26.116V26.268ZM30.616 30.732H28.384V28.5H30.616V30.732ZM30.616 26.268H28.384V24H30.616V26.268ZM28.384 19.5C28.996 19.5 29.5 18.996 29.5 18.384V16.116C29.5 15.504 28.996 15 28.384 15C27.772 15 27.268 15.504 27.268 16.116V18.348C27.232 18.996 27.736 19.5 28.384 19.5Z" fill="#007CC2"/>
</svg>
