<svg width="40" height="40" viewBox="0 0 40 40" fill="none" xmlns="http://www.w3.org/2000/svg">
<path d="M35 9C35 7.34 33.66 6 32 6H9C7.34 6 6 7.34 6 9V32C6 33.66 7.34 35 9 35H32C33.66 35 35 33.66 35 32V9Z" stroke="#0B2343" stroke-miterlimit="10" stroke-linecap="round" stroke-linejoin="round"/>
<path d="M6.12988 13.02H34.8799" stroke="#0B2343" stroke-miterlimit="10" stroke-linecap="round" stroke-linejoin="round"/>
<path d="M16.0231 30.2021C18.5016 30.2021 20.3649 28.6729 20.3649 26.5195C20.3649 24.7178 19.0905 23.5488 17.2009 23.3994V23.3643C18.8268 23.0391 19.9079 21.9404 19.9079 20.3672C19.9079 18.5479 18.3962 17.1152 15.9792 17.1152C14.2038 17.1152 12.8151 17.9502 12.2438 19.2861C12.0944 19.5938 12.0329 19.875 12.0329 20.165C12.0329 20.5254 12.2262 20.7275 12.569 20.7275C12.8942 20.7275 12.9997 20.5693 13.1227 20.2002C13.4831 18.9346 14.4675 18.1699 15.9792 18.1699C17.693 18.1699 18.695 19.1367 18.695 20.5078C18.695 21.9141 17.5261 22.916 15.8298 22.916H14.7839C14.4587 22.916 14.2389 23.127 14.2389 23.4346C14.2389 23.7422 14.4587 23.9443 14.7839 23.9443H15.8825C17.904 23.9443 19.152 24.8936 19.1432 26.5547C19.1345 28.0488 17.86 29.1475 16.0231 29.1475C14.3268 29.1475 13.2282 28.3213 12.8766 27.1084C12.7536 26.7305 12.5954 26.5723 12.3141 26.5723C11.9714 26.5723 11.7604 26.8008 11.7604 27.1436C11.7604 27.4336 11.822 27.7061 11.9889 28.0225C12.6305 29.3936 14.0807 30.2021 16.0231 30.2021ZM26.3939 30.1494C26.7366 30.1494 26.9739 29.8945 26.9739 29.5254V17.8271C26.9739 17.4141 26.7279 17.168 26.3323 17.168C26.0599 17.168 25.9017 17.2295 25.5501 17.4844L22.5443 19.5322C22.2894 19.7168 22.2103 19.8574 22.2103 20.0771C22.2103 20.376 22.4036 20.5781 22.6937 20.5781C22.8431 20.5781 22.9661 20.5342 23.098 20.4375L25.7874 18.6357H25.8138V29.5254C25.8138 29.8945 26.0511 30.1494 26.3939 30.1494Z" fill="#0B2343"/>
</svg>
