<svg width="40" height="40" viewBox="0 0 40 40" fill="none" xmlns="http://www.w3.org/2000/svg">
<path d="M28.96 12C28.96 12 30.9 11.9999 31.31 13.1799C31.31 13.1799 34.88 27.13 34.88 27.22C34.88 27.64 34.4801 27.97 33.9901 27.97H33.98H30.96" stroke="#0B2343" stroke-miterlimit="10" stroke-linecap="round" stroke-linejoin="round"/>
<path d="M11.98 10V12.95" stroke="#0B2343" stroke-miterlimit="10" stroke-linecap="round" stroke-linejoin="round"/>
<path d="M17.98 10V12.95" stroke="#0B2343" stroke-miterlimit="10" stroke-linecap="round" stroke-linejoin="round"/>
<path d="M23.98 10V12.95" stroke="#0B2343" stroke-miterlimit="10" stroke-linecap="round" stroke-linejoin="round"/>
<path d="M12.48 19.75C13.69 19.75 14.67 18.7798 14.67 17.5898C14.67 16.3998 13.69 15.4299 12.48 15.4299C11.27 15.4299 10.29 16.3998 10.29 17.5898C10.29 18.7898 11.27 19.75 12.48 19.75Z" stroke="#0B2343" stroke-miterlimit="10" stroke-linecap="round" stroke-linejoin="round"/>
<path d="M11.36 29.98L18.89 19.3999L22.01 23.5999L26.02 17.3L30.96 24.55" stroke="#0B2343" stroke-miterlimit="10" stroke-linecap="round" stroke-linejoin="round"/>
<path d="M28.96 29.98H8C6.9 29.98 6 29.08 6 27.98V14C6 12.9 6.9 12 8 12H28.96C30.06 12 30.96 12.9 30.96 14V27.98C30.96 29.08 30.07 29.98 28.96 29.98Z" stroke="#0B2343" stroke-miterlimit="10" stroke-linecap="round" stroke-linejoin="round"/>
</svg>
