<svg width="40" height="40" viewBox="0 0 40 40" fill="none" xmlns="http://www.w3.org/2000/svg">
<mask id="mask0_3149_1827" style="mask-type:alpha" maskUnits="userSpaceOnUse" x="6" y="5" width="28" height="30">
<path fill-rule="evenodd" clip-rule="evenodd" d="M34 5.33331H6.6667V34.6666H22.0458C19.6147 33.1316 18 30.421 18 27.3333C18 22.5468 21.8802 18.6666 26.6667 18.6666C29.7544 18.6666 32.465 20.2813 34 22.7124V5.33331ZM34 31.9541C33.3095 33.0477 32.3811 33.9761 31.2875 34.6666H34V31.9541Z" fill="#C4C4C4"/>
</mask>
<g mask="url(#mask0_3149_1827)">
<path d="M11.8804 8H10.3334C8.67652 8 7.33337 9.34315 7.33337 11V29C7.33337 30.6569 8.67652 32 10.3334 32H29.6667C31.3236 32 32.6667 30.6569 32.6667 29V11C32.6667 9.34315 31.3236 8 29.6667 8H28.3334M14.3334 8H25.3334" stroke="#0B2343"/>
<line x1="7.33337" y1="14.8333" x2="32.6667" y2="14.8333" stroke="#0B2343"/>
<rect x="11.8334" y="6.5" width="2.33333" height="3.66667" rx="0.5" stroke="#0B2343"/>
<rect x="25.8334" y="6.5" width="2.33333" height="3.66667" rx="0.5" stroke="#0B2343"/>
</g>
<path d="M35.3333 27.3333C35.3333 22.5469 31.4531 18.6667 26.6667 18.6667C21.8802 18.6667 18 22.5469 18 27.3333C18 32.1198 21.8802 36 26.6667 36C31.4531 36 35.3333 32.1198 35.3333 27.3333Z" stroke="#0B2343" stroke-miterlimit="10" stroke-linecap="round" stroke-linejoin="round"/>
<path d="M24.2071 30.2605C24.9179 30.8761 26.0148 31.3406 26.8039 31.3406C28.0688 31.3406 29.093 30.4452 29.093 29.337C29.093 28.2289 27.996 27.686 26.8039 27.3334C25.5671 26.9473 24.5149 26.438 24.5149 25.3298C24.5149 24.2217 25.5391 23.3262 26.8039 23.3262C27.6546 23.3262 28.399 23.7348 28.7963 24.3336" stroke="#0B2343" stroke-miterlimit="10" stroke-linecap="round" stroke-linejoin="round"/>
<path d="M26.804 22.235V32.4376" stroke="#0B2343" stroke-miterlimit="10" stroke-linecap="round" stroke-linejoin="round"/>
<mask id="mask1_3149_1827" style="mask-type:alpha" maskUnits="userSpaceOnUse" x="18" y="18" width="18" height="18">
<path fill-rule="evenodd" clip-rule="evenodd" d="M26.6667 36C31.4532 36 35.3334 32.1198 35.3334 27.3333C35.3334 22.5468 31.4532 18.6666 26.6667 18.6666C21.8803 18.6666 18.0001 22.5468 18.0001 27.3333C18.0001 32.1198 21.8803 36 26.6667 36ZM28.5039 26.0083V26.1534C28.8181 26.3003 29.1303 26.4774 29.4173 26.6932C30.146 27.2413 30.793 28.113 30.793 29.337C30.793 30.9369 29.7817 32.1321 28.4852 32.6906C28.3631 33.5095 27.6568 34.1376 26.8039 34.1376C25.961 34.1376 25.2613 33.5241 25.1272 32.7192C25.0221 32.6814 24.9196 32.6413 24.8203 32.5998C24.2161 32.3471 23.6042 31.9873 23.0941 31.5455C22.3844 30.9308 22.3074 29.8572 22.9221 29.1475C23.4771 28.5067 24.4063 28.3817 25.1039 28.816V28.5079C24.7833 28.3587 24.4645 28.1797 24.1738 27.961C23.4346 27.4051 22.8149 26.5376 22.8149 25.3298C22.8149 23.7296 23.8266 22.5342 25.1236 21.9758C25.2484 21.1599 25.9532 20.535 26.8039 20.535C27.6523 20.535 28.3556 21.1565 28.4832 21.969C29.185 22.2699 29.7915 22.7587 30.2129 23.3937C30.732 24.176 30.5186 25.231 29.7363 25.7502C29.3587 26.0007 28.9176 26.0806 28.5039 26.0083Z" fill="#C4C4C4"/>
</mask>
<g mask="url(#mask1_3149_1827)">
<path d="M32.7689 33.3724L20.7689 21.1134" stroke="#0B2343" stroke-miterlimit="10" stroke-linecap="round" stroke-linejoin="round"/>
</g>
<path d="M30.6384 2.66675L28.6667 4.6385L30.6384 6.60468" stroke="#0B2343" stroke-miterlimit="10" stroke-linecap="round" stroke-linejoin="round"/>
<path d="M36 9.78467V7.52189C36 5.92916 34.7203 4.6385 33.1276 4.6385H28.6667" stroke="#0B2343" stroke-miterlimit="10" stroke-linecap="round" stroke-linejoin="round"/>
<path d="M8.69502 37.1179L10.6667 35.1462L8.69502 33.18" stroke="#0B2343" stroke-miterlimit="10" stroke-linecap="round" stroke-linejoin="round"/>
<path d="M3.33339 30L3.33339 32.2628C3.33339 33.8555 4.61307 35.1462 6.2058 35.1462L10.6667 35.1462" stroke="#0B2343" stroke-miterlimit="10" stroke-linecap="round" stroke-linejoin="round"/>
</svg>
