<svg width="25" height="25" viewBox="0 0 25 25" fill="none" xmlns="http://www.w3.org/2000/svg">
<path d="M21.552 0.506348H2.79126C1.43663 0.506348 0.506348 1.46111 0.506348 2.81574V21.6417C0.506348 22.9964 1.43663 24.0001 2.79126 24.0001H21.552C22.9066 24.0001 23.9919 22.9964 23.9919 21.6417V2.81574C24.0001 1.46111 22.9066 0.506348 21.552 0.506348Z" stroke="#0B2343" stroke-miterlimit="10"/>
<path d="M0.506348 7.77686H24.0001" stroke="#0B2343" stroke-miterlimit="10"/>
<path d="M0.506348 11.8572H24.0001" stroke="#0B2343" stroke-miterlimit="10"/>
<path d="M0.506348 15.9376H24.0001" stroke="#0B2343" stroke-miterlimit="10"/>
<path d="M0.506348 20.0173H24.0001" stroke="#0B2343" stroke-miterlimit="10"/>
<path d="M9.4502 7.72839V24.0002" stroke="#0B2343"/>
<path d="M14.3464 7.72839V24.0002" stroke="#0B2343"/>
<path d="M19.2427 7.72839V24.0002" stroke="#0B2343"/>
<path d="M4.55371 7.72839V24.0002" stroke="#0B2343"/>
<path d="M8.65049 3.63165C8.65049 4.10495 8.26695 4.48032 7.80181 4.48032C7.32851 4.48032 6.95312 4.09679 6.95312 3.63165C6.95312 3.1665 7.33667 2.78296 7.80181 2.78296C8.27511 2.78296 8.65049 3.1665 8.65049 3.63165Z" stroke="#0B2343" stroke-miterlimit="10" stroke-linecap="round" stroke-linejoin="round"/>
<path d="M17.5533 3.63165C17.5533 4.10495 17.1698 4.48032 16.7046 4.48032C16.2313 4.48032 15.856 4.09679 15.856 3.63165C15.856 3.1665 16.2395 2.78296 16.7046 2.78296C17.1779 2.78296 17.5533 3.1665 17.5533 3.63165Z" stroke="#0B2343" stroke-miterlimit="10" stroke-linecap="round" stroke-linejoin="round"/>
</svg>
