<?xml version="1.0" encoding="utf-8"?>
<!-- Generator: Adobe Illustrator 19.0.1, SVG Export Plug-In . SVG Version: 6.00 Build 0)  -->
<!DOCTYPE svg PUBLIC "-//W3C//DTD SVG 1.1//EN" "http://www.w3.org/Graphics/SVG/1.1/DTD/svg11.dtd">
<svg version="1.1" id="Layer_1" xmlns="http://www.w3.org/2000/svg" xmlns:xlink="http://www.w3.org/1999/xlink" x="0px" y="0px"
	 viewBox="0 0 50 50" enable-background="new 0 0 50 50" xml:space="preserve">
<g>
	<g>
		<path d="M15.6,12.5c1.7,0,3.1-1.4,3.1-3.1V3.1c0-1.7-1.4-3.1-3.1-3.1c-1.7,0-3.1,1.4-3.1,3.1v6.2C12.5,11.1,13.9,12.5,15.6,12.5z
			 M40.6,6.2v3.2c0,3.5-2.8,6.2-6.2,6.2c-3.5,0-6.2-2.8-6.2-6.2V6.2h-6.2v3.2c0,3.5-2.8,6.2-6.2,6.2c-3.5,0-6.2-2.8-6.2-6.2V6.2H0
			V50h50V6.2H40.6z M15.6,43.7H9.4v-6.2h6.2V43.7z M15.6,31.3H9.4V25h6.2V31.3z M28.1,43.7h-6.2v-6.2h6.2V43.7z M28.1,31.3h-6.2V25
			h6.2V31.3z M40.6,43.7h-6.2v-6.2h6.2V43.7z M40.6,31.3h-6.2V25h6.2V31.3z M34.4,12.5c1.7,0,3.1-1.4,3.1-3.1V3.1
			c0-1.7-1.4-3.1-3.1-3.1c-1.7,0-3.1,1.4-3.1,3.1v6.2C31.2,11.1,32.6,12.5,34.4,12.5z"/>
	</g>
</g>
</svg>
