<svg xmlns="http://www.w3.org/2000/svg" viewBox="0 0 32 50"><path d="M16.7 25.1c-3.4-1.1-4.1-2-4.1-3 0-1.6 1.6-2.9 3.5-2.9 1.3 0 2.5.6 3.1 1.6.6.9 1.7 1.1 2.6.6.9-.6 1.1-1.7.6-2.6-1-1.5-2.6-2.6-4.4-3.1v-2.8c0-1.1-.8-1.9-1.9-1.9s-1.9.9-1.9 1.9v2.8c-3.1.8-5.4 3.4-5.4 6.5 0 4.5 4.7 6 6.7 6.7 4 1.2 4 2.5 4 3 0 1.6-1.6 2.9-3.5 2.9-1.6 0-3.5-.6-3.7-1.5-.2-1-1.2-1.7-2.2-1.5-1 .2-1.6 1.2-1.4 2.2.6 2.7 3.2 3.9 5.5 4.3v2.9c0 1.1.8 1.9 1.9 1.9s1.9-.9 1.9-1.9v-3c3.1-.8 5.4-3.4 5.4-6.5 0-4.5-5.1-6.1-6.7-6.6z"/><path d="M30.8 13.6L19.3 1.4c-1.7-1.8-4.9-1.8-6.6 0L1.2 13.6c-.8.9-1.2 2-1.2 3.2v28.6C0 47.9 2 50 4.5 50h22.9c2.5 0 4.5-2.1 4.5-4.6V16.8c.1-1.2-.3-2.3-1.1-3.2zm-2.6 31.8c0 .4-.4.8-.8.8H4.5c-.4 0-.8-.4-.8-.8V16.8c0-.2.1-.4.2-.5L15.4 4c.2-.2.4-.2.6-.2.1 0 .4 0 .6.2L28 16.3c.1.1.2.3.2.5v28.6z"/></svg>