<svg width="40" height="40" viewBox="0 0 40 40" fill="none" xmlns="http://www.w3.org/2000/svg">
<path d="M35 9C35 7.34 33.66 6 32 6H9C7.34 6 6 7.34 6 9V32C6 33.66 7.34 35 9 35H32C33.66 35 35 33.66 35 32V9Z" stroke="#0B2343" stroke-miterlimit="10" stroke-linecap="round" stroke-linejoin="round"/>
<path d="M6.12988 13.02H34.8799" stroke="#0B2343" stroke-miterlimit="10" stroke-linecap="round" stroke-linejoin="round"/>
<path d="M12.1946 29.1685C14.0916 29.1685 15.2195 27.9966 15.2195 26.0557V18.8486C15.2195 18.5264 15.0291 18.3286 14.7215 18.3286C14.4139 18.3286 14.2234 18.5264 14.2234 18.8486V26.041C14.2234 27.4546 13.4837 28.2383 12.1946 28.2383C11.1985 28.2383 10.4661 27.6523 10.261 26.6416C10.1805 26.3193 10.0267 26.1802 9.76299 26.1802C9.47002 26.1802 9.28691 26.3706 9.28691 26.7002C9.28691 26.9126 9.33086 27.0737 9.38945 27.2715C9.71904 28.4141 10.825 29.1685 12.1946 29.1685ZM19.5991 29.1245C20.7344 29.1245 21.7817 28.4946 22.2065 27.5498H22.2285V28.6338C22.2285 28.9268 22.4189 29.1245 22.6899 29.1245C22.9609 29.1245 23.1514 28.9268 23.1514 28.6338V23.7852C23.1514 22.2324 22.0674 21.2583 20.3242 21.2583C19.0059 21.2583 17.9438 21.8735 17.5483 22.7817C17.4678 22.9502 17.4165 23.126 17.4165 23.2725C17.4165 23.5361 17.5923 23.7119 17.8486 23.7119C18.0391 23.7119 18.1709 23.624 18.2588 23.4482C18.6323 22.5181 19.3135 22.1152 20.3022 22.1152C21.4888 22.1152 22.1846 22.7744 22.1846 23.873V24.5322L19.8042 24.6787C18.0391 24.7959 17.0723 25.5942 17.0723 26.8906C17.0723 28.2236 18.0977 29.1245 19.5991 29.1245ZM19.7969 28.2896C18.7715 28.2896 18.0537 27.7256 18.0537 26.876C18.0537 26.0557 18.7202 25.5283 19.9214 25.4478L22.1846 25.2939V26.1362C22.1846 27.3447 21.1299 28.2896 19.7969 28.2896ZM25.5607 29.1245C25.8464 29.1245 26.0441 28.9121 26.0441 28.6045V24.4883C26.0441 23.0747 26.923 22.1226 28.2561 22.1226C29.5158 22.1226 30.2556 22.8843 30.2556 24.2173V28.6045C30.2556 28.9121 30.4533 29.1245 30.739 29.1245C31.0246 29.1245 31.2224 28.9121 31.2224 28.6045V24.0635C31.2224 22.335 30.1896 21.2583 28.5344 21.2583C27.2966 21.2583 26.4104 21.8589 26.0148 22.7891H25.9929V21.749C25.9929 21.4561 25.8024 21.2583 25.5314 21.2583C25.2678 21.2583 25.0773 21.4561 25.0773 21.749V28.6045C25.0773 28.9121 25.2751 29.1245 25.5607 29.1245Z" fill="#0B2343"/>
</svg>
