<svg width="40" height="40" viewBox="0 0 40 40" fill="none" xmlns="http://www.w3.org/2000/svg">
<path d="M13.89 22.1101C14.32 23.6601 15.02 24.59 15.94 25.54V26.9399C15.52 28.2699 12.1 30.4199 7.63 32.1399C7.25 32.2899 7 32.6601 7 33.0701V33.78C7 34.33 7.44001 34.78 7.98001 34.78H31.02C31.56 34.78 32 34.33 32 33.78V33.0701C32 32.6601 31.75 32.2799 31.37 32.1399C26.9 30.4099 23.25 28.2699 22.84 26.9399V25.54C23.77 24.59 24.59 23.6601 25.03 22.1101V15.1599C25.03 11.9199 23.57 9.84009 19.45 9.84009C15.43 9.84009 13.89 11.9199 13.89 15.1599V22.1101V22.1101Z" stroke="#0B2343" stroke-miterlimit="10" stroke-linecap="round" stroke-linejoin="round"/>
<path d="M27.01 21.6599C27.01 25.1299 24.6 25.69 20.72 25.76" stroke="#0B2343" stroke-miterlimit="10" stroke-linecap="round" stroke-linejoin="round"/>
<path d="M13.89 21.8601H12.64C11.86 21.8601 11.23 21.23 11.23 20.45V16.1699C11.23 15.3899 11.86 14.76 12.64 14.76H13.9" stroke="#0B2343" stroke-miterlimit="10" stroke-linecap="round" stroke-linejoin="round"/>
<path d="M25.04 14.77H26.29C27.07 14.77 27.7 15.3999 27.7 16.1799V20.46C27.7 21.24 27.07 21.8699 26.29 21.8699H25.04" stroke="#0B2343" stroke-miterlimit="10" stroke-linecap="round" stroke-linejoin="round"/>
<path d="M12.6799 14.77V12.78C12.6799 9.04003 15.7099 6 19.4599 6C23.1999 6 26.2399 9.03003 26.2399 12.78V14.77" stroke="#0B2343" stroke-linecap="round" stroke-linejoin="round"/>
<path d="M20.72 25.77C20.72 26.34 20.26 26.8 19.69 26.8C19.12 26.8 18.66 26.34 18.66 25.77C18.66 25.2 19.12 24.74 19.69 24.74C20.26 24.74 20.72 25.2 20.72 25.77Z" stroke="#0B2343" stroke-miterlimit="10" stroke-linecap="round" stroke-linejoin="round"/>
</svg>
