<svg width="40" height="40" viewBox="0 0 40 40" fill="none" xmlns="http://www.w3.org/2000/svg">
<path d="M24.7188 23.4834C24.4888 23.2534 24.1088 23.2434 23.8688 23.4634C23.8688 23.4634 22.1288 25.1732 22.0088 25.2732C21.9788 25.3032 21.9488 25.3233 21.9088 25.3433C20.0988 26.2633 13.5588 19.2534 14.7988 17.9434L16.6588 16.1133C16.8988 15.8733 16.8988 15.4832 16.6688 15.2532L10.5688 9.0332C10.4588 8.9132 10.2988 8.85327 10.1388 8.85327C9.97885 8.85327 9.81885 8.9132 9.70885 9.0332C6.64885 12.0332 1.74885 15.0534 13.1988 26.7234C24.4988 38.2434 27.7288 33.8732 30.8488 30.5232C31.0688 30.2832 31.0688 29.9133 30.8388 29.6733L24.7188 23.4834Z" stroke="#0B2343" stroke-miterlimit="10" stroke-linecap="round" stroke-linejoin="round"/>
<path d="M29.7888 18.9834C29.9488 14.0734 25.9588 10.0832 21.0488 10.2432" stroke="#0B2343" stroke-miterlimit="10" stroke-linecap="round" stroke-linejoin="round"/>
<path d="M34.0288 18.9834C34.1888 11.7334 28.3088 5.84318 21.0488 6.00318" stroke="#0B2343" stroke-miterlimit="10" stroke-linecap="round" stroke-linejoin="round"/>
<path d="M21.0588 14.4835C23.6188 14.3135 25.7288 16.4235 25.5588 18.9835" stroke="#0B2343" stroke-miterlimit="10" stroke-linecap="round" stroke-linejoin="round"/>
</svg>
