<svg width="40" height="40" viewBox="0 0 40 40" fill="none" xmlns="http://www.w3.org/2000/svg">
<path d="M22.7935 29.0135C27.5335 28.9835 30.4435 28.6235 31.4435 26.0435C32.1535 24.2035 31.3434 22.8735 30.2634 22.7635" stroke="#0B2343" stroke-linecap="round" stroke-linejoin="round"/>
<path d="M22.7935 29.0236C22.7935 29.5136 22.3434 29.9035 21.7834 29.9035H21.3634C20.8034 29.9035 20.3534 29.5136 20.3534 29.0236C20.3534 28.5336 20.8034 28.1436 21.3634 28.1436H21.7834C22.3434 28.1436 22.7935 28.5336 22.7935 29.0236Z" stroke="#0B2343" stroke-linecap="round" stroke-linejoin="round"/>
<path d="M29.6534 16.6135C29.6534 17.7135 29.0135 20.9335 29.3335 21.8635C29.9135 22.1235 30.3135 22.7135 30.3135 23.3935C30.3135 24.3135 29.5734 25.0635 28.6534 25.0635C28.6434 25.0635 28.6334 25.0635 28.6234 25.0635C28.2834 29.4735 23.4035 33.1935 20.1835 33.1935C17.0435 33.1935 12.0834 29.4735 11.7434 25.0635C11.7334 25.0635 11.7234 25.0635 11.7134 25.0635C10.8034 25.0635 10.0535 24.3135 10.0535 23.3935C10.0535 22.7135 10.4534 22.1335 11.0334 21.8635C11.3834 20.7635 10.8834 18.0135 10.8834 16.9135" stroke="#0B2343" stroke-linecap="round" stroke-linejoin="round"/>
<path d="M17.9634 29.0236H18.8135" stroke="#0B2343" stroke-linecap="round" stroke-linejoin="round"/>
<path d="M10.8934 16.9035C10.8934 16.9035 22.9334 15.3835 23.8734 12.6335C23.8734 12.6335 27.3434 17.3535 29.6534 16.6135" stroke="#0B2343" stroke-linecap="round" stroke-linejoin="round"/>
<path d="M12.6734 31.1536C6.4634 31.9236 4.62336 30.1836 7.00336 16.6136C9.42336 2.82359 22.6834 6.42359 22.6834 6.42359C22.6834 6.42359 29.7734 5.24358 32.7634 14.6536C35.5434 23.4136 36.2134 32.1236 27.7934 31.3136" stroke="#0B2343" stroke-linecap="round" stroke-linejoin="round"/>
<path d="M17.7834 21.5936H16.5835" stroke="#0B2343" stroke-linecap="round" stroke-linejoin="round"/>
<path d="M24.0535 21.5936H22.8434" stroke="#0B2343" stroke-linecap="round" stroke-linejoin="round"/>
</svg>
