<svg width="40" height="40" viewBox="0 0 40 40" fill="none" xmlns="http://www.w3.org/2000/svg">
<path d="M30.8816 19.16C30.8816 20.32 29.5016 21.88 29.8416 22.86C30.4616 23.14 30.8816 23.75 30.8816 24.47C30.8816 25.44 30.0916 26.23 29.1216 26.23C29.1116 26.23 29.1016 26.23 29.0916 26.23C28.7316 30.88 23.5316 34.8 20.1016 34.8C16.7616 34.8 11.4716 30.88 11.1116 26.23C11.1016 26.23 11.0915 26.23 11.0815 26.23C10.1115 26.23 9.32153 25.44 9.32153 24.47C9.32153 23.75 9.75157 23.14 10.3616 22.86C10.7316 21.7 10.2015 17.95 10.2015 16.79" stroke="#0B2343" stroke-linecap="round" stroke-linejoin="round"/>
<path d="M22.8616 30.4101C27.9116 30.3801 31.0115 30.0001 32.0815 27.2801C32.6015 25.9401 32.4716 24.3701 31.1116 23.9001C30.9716 23.8501 30.9715 23.8301 30.8215 23.8201" stroke="#0B2343" stroke-linecap="round" stroke-linejoin="round"/>
<path d="M22.8616 30.41C22.8616 30.92 22.3815 31.34 21.7915 31.34H21.3516C20.7616 31.34 20.2815 30.93 20.2815 30.41C20.2815 29.9 20.7616 29.48 21.3516 29.48H21.7915C22.3815 29.48 22.8616 29.9 22.8616 30.41Z" stroke="#0B2343" stroke-linecap="round" stroke-linejoin="round"/>
<path d="M17.7115 29.98H18.6216" stroke="#0B2343" stroke-linecap="round" stroke-linejoin="round"/>
<path d="M31.6615 19.44C31.6615 19.44 17.7015 14.31 14.8915 18.26C12.0815 22.2 13.2815 13.92 15.5615 12.15C15.5615 12.15 9.68149 16.31 8.03149 19.7C8.03149 19.7 6.78149 6.00001 20.0315 6.00001C34.3815 5.99001 31.6615 19.44 31.6615 19.44Z" stroke="#0B2343" stroke-linecap="round" stroke-linejoin="round"/>
<path d="M17.5315 22.35H16.2915" stroke="#0B2343" stroke-linecap="round" stroke-linejoin="round"/>
<path d="M23.9215 22.35H22.6915" stroke="#0B2343" stroke-linecap="round" stroke-linejoin="round"/>
</svg>
