<svg width="40" height="40" viewBox="0 0 40 40" fill="none" xmlns="http://www.w3.org/2000/svg">
<path d="M30.04 26.3201C29.85 30.7901 27.44 32.4801 23.24 32.6301" stroke="#0B2343" stroke-miterlimit="10" stroke-linecap="round" stroke-linejoin="round"/>
<path d="M23.2401 32.8701C23.2401 33.3301 22.8701 33.7 22.4101 33.7H20.6301C20.1701 33.7 19.8 33.3301 19.8 32.8701C19.8 32.4101 20.1701 32.04 20.6301 32.04H22.4101C22.8701 32.04 23.2401 32.4101 23.2401 32.8701Z" stroke="#0B2343" stroke-miterlimit="10" stroke-linecap="round" stroke-linejoin="round"/>
<path d="M12.03 17.9102V15.3801C12.03 10.7501 15.83 7 20.51 7C25.19 7 28.99 10.7501 28.99 15.3801V17.9001" stroke="#0B2343" stroke-linecap="round" stroke-linejoin="round"/>
<path d="M14 26.8601H12.53C11.15 26.8601 10 25.7401 10 24.3601V20.3101C10 18.9301 11.15 17.8601 12.53 17.8601H14V26.8601Z" stroke="#0B2343" stroke-miterlimit="10" stroke-linecap="round" stroke-linejoin="round"/>
<path d="M27 17.8601H28.47C29.85 17.8601 31 18.9801 31 20.3601V24.4102C31 25.7902 29.85 26.8601 28.47 26.8601H27V17.8601Z" stroke="#0B2343" stroke-miterlimit="10" stroke-linecap="round" stroke-linejoin="round"/>
</svg>
