<svg width="40" height="40" viewBox="0 0 40 40" fill="none" xmlns="http://www.w3.org/2000/svg">
<path d="M18.9437 28.98C15.6537 28.98 12.9738 26.29 12.9738 22.99C12.9738 19.69 15.6537 17 18.9437 17C22.2337 17 24.9138 19.69 24.9138 22.99C24.9138 26.29 22.2337 28.98 18.9437 28.98Z" stroke="#0B2343" stroke-miterlimit="10" stroke-linecap="round" stroke-linejoin="round"/>
<path d="M29.3038 20.6499C28.6238 20.6499 28.0637 20.0899 28.0637 19.4099C28.0637 18.7299 28.6138 18.1699 29.3038 18.1699C29.9838 18.1699 30.5338 18.7299 30.5338 19.4099C30.5338 20.0899 29.9838 20.6499 29.3038 20.6499Z" stroke="#0B2343" stroke-miterlimit="10" stroke-linecap="round" stroke-linejoin="round"/>
<path d="M18.8937 19.3498C16.8537 19.2798 15.2038 20.9399 15.2738 22.9899" stroke="#0B2343" stroke-miterlimit="10" stroke-linecap="round" stroke-linejoin="round"/>
<path d="M8.70372 31.98C7.78372 31.98 7.11375 31.6498 6.61375 31.0798C5.91375 30.2898 6.00377 29.23 6.00377 28.98V17.1199C6.00377 14.7599 7.75381 14.02 8.79381 13.98H13.7838C13.9538 11.46 14.7838 9 17.1138 9H21.5038C23.8338 9 24.6737 11.46 24.8337 13.98H32.1638C34.2138 13.98 34.8338 15.82 34.8938 16.79L34.8437 29.01C34.8437 31.08 33.1138 31.88 32.1638 31.97H8.70372V31.98Z" stroke="#0B2343" stroke-miterlimit="10" stroke-linecap="round" stroke-linejoin="round"/>
</svg>
