<svg width="40" height="40" viewBox="0 0 40 40" fill="none" xmlns="http://www.w3.org/2000/svg">
<path d="M19.0226 7V20.8501" stroke="#0B2343" stroke-miterlimit="10" stroke-linecap="round" stroke-linejoin="round"/>
<path d="M14.6025 11.4199L19.0326 7L23.4525 11.4199" stroke="#0B2343" stroke-miterlimit="10" stroke-linecap="round" stroke-linejoin="round"/>
<path d="M18.5525 30.74C16.6525 30.74 15.1125 29.2 15.1125 27.3C15.1125 25.4 16.6525 23.8601 18.5525 23.8601C20.4525 23.8601 21.9926 25.4 21.9926 27.3C21.9926 29.2 20.4525 30.74 18.5525 30.74Z" stroke="#0B2343" stroke-miterlimit="10" stroke-linecap="round" stroke-linejoin="round"/>
<path d="M20.9825 19.76C22.5125 19.76 23.0326 20.4601 23.0326 21.8301H27.2925C28.6325 21.8301 28.9925 23.2301 29.0425 23.8601L29.0525 31.8799C29.0525 33.2099 27.9125 33.7 27.2925 33.77L27.3025 33.8H11.7726C11.1726 33.8 10.7326 33.59 10.4026 33.22C9.94259 32.71 10.0026 32.0299 10.0026 31.8699V23.8699C10.0026 22.3499 11.1525 21.8701 11.8325 21.8401H14.9825C15.0925 20.2201 15.5125 19.77 17.0425 19.77" stroke="#0B2343" stroke-miterlimit="10" stroke-linecap="round" stroke-linejoin="round"/>
</svg>
