<svg width="40" height="40" viewBox="0 0 40 40" fill="none" xmlns="http://www.w3.org/2000/svg">
<path d="M28.1149 18.625L28.465 18.4451C28.785 18.2751 28.9149 17.8749 28.7449 17.5549L22.9049 6.35499C22.7349 6.03499 22.3349 5.90496 22.0149 6.07496L6.3549 14.2451C6.0349 14.4151 5.90499 14.815 6.07499 15.135L11.915 26.335C12.085 26.655 12.485 26.785 12.805 26.615L13.2749 26.365" stroke="#0B2343" stroke-miterlimit="10" stroke-linecap="round" stroke-linejoin="round"/>
<path d="M13.2149 18.5151C14.0849 18.0651 14.4149 16.995 13.9649 16.125C13.5149 15.255 12.4449 14.925 11.5749 15.375C10.7049 15.825 10.3749 16.8951 10.8249 17.7651C11.2849 18.6351 12.3549 18.9651 13.2149 18.5151Z" stroke="#0B2343" stroke-miterlimit="10" stroke-linecap="round" stroke-linejoin="round"/>
<path d="M16.4349 20.175L17.1849 15.2251L20.7749 16.9651L21.2549 11.2952L24.4149 12.9551" stroke="#0B2343" stroke-miterlimit="10" stroke-linecap="round" stroke-linejoin="round"/>
<path d="M23.8649 31.675C21.9649 31.675 20.4249 30.1351 20.4249 28.2351C20.4249 26.3351 21.9649 24.7952 23.8649 24.7952C25.7649 24.7952 27.3049 26.3351 27.3049 28.2351C27.3049 30.1351 25.7649 31.675 23.8649 31.675Z" stroke="#0B2343" stroke-miterlimit="10" stroke-linecap="round" stroke-linejoin="round"/>
<path d="M25.7749 20.6951C27.3049 20.6951 27.855 21.1749 27.965 22.8049H32.4849C33.8249 22.8049 34.1849 24.205 34.2349 24.835L34.2449 32.825C34.2449 34.155 33.1049 34.6451 32.4849 34.7151L32.4949 34.7451H17.085C16.485 34.7451 16.045 34.535 15.715 34.165C15.255 33.655 15.3149 32.9749 15.3149 32.8149V24.845C15.3149 23.325 16.4649 22.8449 17.1449 22.8149H20.4149C20.5249 21.1949 21.0749 20.7051 22.6049 20.7051L25.7749 20.6951Z" stroke="#0B2343" stroke-miterlimit="10" stroke-linecap="round" stroke-linejoin="round"/>
</svg>
