<svg width="40" height="40" viewBox="0 0 40 40" fill="none" xmlns="http://www.w3.org/2000/svg">
<path d="M19.9099 28.89H23.9099" stroke="#0B2343" stroke-miterlimit="10" stroke-linecap="round" stroke-linejoin="round"/>
<path d="M14.9099 31.26C16.2188 31.26 17.2799 30.1989 17.2799 28.89C17.2799 27.5811 16.2188 26.52 14.9099 26.52C13.601 26.52 12.5398 27.5811 12.5398 28.89C12.5398 30.1989 13.601 31.26 14.9099 31.26Z" stroke="#0B2343" stroke-linecap="round" stroke-linejoin="round"/>
<path d="M28.9099 31.26C30.2188 31.26 31.2799 30.1989 31.2799 28.89C31.2799 27.5811 30.2188 26.52 28.9099 26.52C27.601 26.52 26.5398 27.5811 26.5398 28.89C26.5398 30.1989 27.601 31.26 28.9099 31.26Z" stroke="#0B2343" stroke-linecap="round" stroke-linejoin="round"/>
<path d="M33.0099 28.4301C33.5799 28.4301 34.8999 27.4 34.8999 26.79V23.91C34.8999 22.84 33.8699 21.92 32.8599 21.76L26.6299 21.03L24.1499 14.87C23.9799 14.48 23.5798 14.03 23.1698 14.03H9.98987C9.41987 14.03 8.87988 14.4001 8.87988 15.0701V26.1001C8.87988 26.9601 9.16981 27.36 9.55981 27.53L10.0999 27.89" stroke="#0B2343" stroke-miterlimit="10" stroke-linecap="round" stroke-linejoin="round"/>
<path d="M8.87 19.0601H6V25.0701H8.87V19.0601Z" stroke="#0B2343" stroke-miterlimit="10" stroke-linecap="round" stroke-linejoin="round"/>
<path d="M8.93994 21.03H26.62" stroke="#0B2343" stroke-miterlimit="10" stroke-linecap="round" stroke-linejoin="round"/>
<path d="M18.8999 14.04V20.99" stroke="#0B2343" stroke-miterlimit="10" stroke-linecap="round" stroke-linejoin="round"/>
<path d="M13.8999 14.04V20.99" stroke="#0B2343" stroke-miterlimit="10" stroke-linecap="round" stroke-linejoin="round"/>
<path d="M20.9298 11.9C20.9298 10.2 19.7299 9 18.2599 9H13.4999C12.0199 9 10.8298 10.2 10.8298 11.9H20.9298Z" stroke="#0B2343" stroke-miterlimit="10" stroke-linecap="round" stroke-linejoin="round"/>
</svg>
