<svg width="40" height="40" viewBox="0 0 40 40" fill="none" xmlns="http://www.w3.org/2000/svg">
<path d="M16.6523 29.0588C16.6523 30.6845 15.3368 32 13.7112 32C12.0855 32 10.77 30.6845 10.77 29.0588C10.77 27.4332 12.0855 26.1177 13.7112 26.1177C15.3368 26.1177 16.6523 27.4332 16.6523 29.0588Z" stroke="#0B2343" stroke-linecap="round" stroke-linejoin="round"/>
<path d="M19.0587 29.0588H35.0692" stroke="#0B2343" stroke-linecap="round" stroke-linejoin="round"/>
<path d="M7.88236 28.9518C5.73264 28.9518 4.00003 27.1764 4.00003 24.9839V15.9145C4.00003 13.722 5.74334 11.9467 7.88236 11.9467H22.9517C22.9517 11.9467 29.5078 12.353 30.7057 28.9518" stroke="#0B2343" stroke-linecap="round" stroke-linejoin="round"/>
<path d="M4.19247 25.8503H9.34759" stroke="#0B2343" stroke-miterlimit="10" stroke-linecap="round" stroke-linejoin="round"/>
<path d="M18.064 25.8503H30.4169" stroke="#0B2343" stroke-miterlimit="10" stroke-linecap="round" stroke-linejoin="round"/>
<path d="M11.1657 20.5135H8.66311C7.86097 20.5135 7.20859 19.861 7.20859 19.0589V16.6418C7.20859 15.8396 7.86097 15.1873 8.66311 15.1873H11.1657C11.9679 15.1873 12.6202 15.8396 12.6202 16.6418V19.0589C12.6202 19.861 11.9679 20.5135 11.1657 20.5135Z" stroke="#0B2343" stroke-miterlimit="10" stroke-linecap="round" stroke-linejoin="round"/>
<path d="M22.2565 20.5135H17.6149C16.5881 20.5135 15.7539 19.6792 15.7539 18.6525V17.0482C15.7539 16.0215 16.5881 15.1873 17.6149 15.1873H21.3796C22.663 15.1873 24.1174 18.2568 24.1174 19.2943C24.1174 20.321 23.2832 20.5135 22.2565 20.5135Z" stroke="#0B2343" stroke-miterlimit="10" stroke-linecap="round" stroke-linejoin="round"/>
<path d="M9.49722 11.9466L21.1229 8" stroke="#0B2343" stroke-linecap="round" stroke-linejoin="round"/>
<path d="M19.0587 8.69537V11.9467" stroke="#0B2343" stroke-linecap="round" stroke-linejoin="round"/>
</svg>
