<?xml version="1.0" encoding="utf-8"?>
<!-- Generator: Adobe Illustrator 22.0.1, SVG Export Plug-In . SVG Version: 6.00 Build 0)  -->
<svg version="1.1" id="Layer_1" xmlns="http://www.w3.org/2000/svg" xmlns:xlink="http://www.w3.org/1999/xlink" x="0px" y="0px"
	 viewBox="0 0 30 30" style="enable-background:new 0 0 30 30;" xml:space="preserve">
<style type="text/css">
	.st0{fill:none;stroke:#231F20;stroke-linecap:round;stroke-linejoin:round;stroke-miterlimit:10;}
	.st1{fill:#231F20;}
</style>
<g>
	<g>
		<g>
			<path class="st0" d="M27.6,20.8"/>
		</g>
		<g>
			<path class="st1" d="M27.6,21.3c-0.1,0-0.3-0.1-0.4-0.2c-1.4-1.5-4.7-5.8-4.4-12.4c0.1-2.9-1.1-5.1-3.7-6.4c-2.5-1.3-5.5-1.3-8,0
				C8.4,3.6,7.1,5.8,7.3,8.7c0.3,6.7-3,10.9-4.4,12.4c-0.2,0.2-0.5,0.2-0.7,0c-0.2-0.2-0.2-0.5,0-0.7C3.4,19,6.5,15.1,6.3,8.8
				c-0.2-4.2,2.2-6.3,4.3-7.4c2.8-1.4,6.1-1.4,8.9,0c2,1,4.4,3.2,4.3,7.4c-0.2,6.3,2.8,10.3,4.2,11.7c0.2,0.2,0.2,0.5,0,0.7
				C27.8,21.3,27.7,21.3,27.6,21.3z"/>
		</g>
		<g>
			<path class="st0" d="M2.4,20.8"/>
		</g>
		<g>
			<path class="st1" d="M15,25.5c-4.7,0-9.4-1.4-12.9-4.3c-0.2-0.2-0.2-0.5-0.1-0.7c0.2-0.2,0.5-0.2,0.7-0.1
				c6.6,5.4,17.8,5.4,24.5,0c0.2-0.2,0.5-0.1,0.7,0.1c0.2,0.2,0.1,0.5-0.1,0.7C24.4,24,19.7,25.5,15,25.5z"/>
		</g>
		<g>
			<path class="st0" d="M2.4,20.8"/>
		</g>
		<g>
			<path class="st0" d="M27.6,20.8"/>
		</g>
	</g>
	<g>
		<path class="st1" d="M15,29.7c-1.8,0-3.3-1.2-3.3-2.7c0-0.3,0.2-0.5,0.5-0.5s0.5,0.2,0.5,0.5c0,1,1,1.7,2.3,1.7
			c1.3,0,2.3-0.8,2.3-1.7c0-0.3,0.2-0.5,0.5-0.5s0.5,0.2,0.5,0.5C18.3,28.4,16.8,29.7,15,29.7z"/>
	</g>
</g>
</svg>
