<svg width="40" height="40" viewBox="0 0 40 40" fill="none" xmlns="http://www.w3.org/2000/svg">
<path d="M18.7 7.96997V7.22998C18.7 6.54998 19.28 6 20 6C20.71 6 21.3 6.54998 21.3 7.22998V7.96997" stroke="#0B2343" stroke-linecap="round" stroke-linejoin="round"/>
<path d="M26.02 26.8401L26.66 32.76C26.8 33.66 26.28 34.5302 25.51 34.6902C24.74 34.8502 24 34.2401 23.87 33.3401L23.17 26.8401" stroke="#0B2343" stroke-linecap="round" stroke-linejoin="round"/>
<path d="M16.98 26.8401L16.24 33.3401C16.1 34.2401 15.37 34.8502 14.6 34.6902C13.83 34.5302 13.31 33.66 13.45 32.76L14.09 26.8401" stroke="#0B2343" stroke-linecap="round" stroke-linejoin="round"/>
<path d="M27 8H13V24.8301H27V8Z" stroke="#0B2343" stroke-linecap="round" stroke-linejoin="round"/>
<path d="M29 24.8301H11V26.8101H29V24.8301Z" stroke="#0B2343" stroke-linecap="round" stroke-linejoin="round"/>
</svg>
