<svg width="40" height="40" viewBox="0 0 40 40" fill="none" xmlns="http://www.w3.org/2000/svg">
<path d="M14 21.3999V26.6" stroke="#0B2343" stroke-miterlimit="10" stroke-linecap="round" stroke-linejoin="round"/>
<path d="M11.3999 24H16.6" stroke="#0B2343" stroke-miterlimit="10" stroke-linecap="round" stroke-linejoin="round"/>
<path d="M17 11.77V7.98999H11V11.77C11 11.77 6.29 13.81 6 16.5V31.1499C6.29 32.7199 7.67995 34.02 9.19995 34.02H18.8099C20.3299 34.02 21.72 32.7199 22 31.1499V16.5C21.73 13.95 17 11.77 17 11.77Z" stroke="#0B2343" stroke-linecap="round" stroke-linejoin="round"/>
<path d="M18 5H10V8H18V5Z" stroke="#0B2343" stroke-miterlimit="10" stroke-linecap="round" stroke-linejoin="round"/>
<path d="M22 19H6V29H22V19Z" stroke="#0B2343" stroke-linecap="round" stroke-linejoin="round"/>
<path d="M30.5 31C28.57 31 27 29.43 27 27.5V20.5C27 18.57 28.57 17 30.5 17C32.43 17 34 18.57 34 20.5V27.5C34 29.43 32.43 31 30.5 31Z" stroke="#0B2343" stroke-miterlimit="10" stroke-linecap="round" stroke-linejoin="round"/>
<path d="M27 24H34" stroke="#0B2343" stroke-miterlimit="10" stroke-linecap="round" stroke-linejoin="round"/>
</svg>
