<svg width="40" height="40" viewBox="0 0 40 40" fill="none" xmlns="http://www.w3.org/2000/svg">
<path d="M16.7307 19.77V25.6801" stroke="#0B2343" stroke-miterlimit="10" stroke-linecap="round" stroke-linejoin="round"/>
<path d="M16.7307 31.64H22.7307" stroke="#0B2343" stroke-miterlimit="10" stroke-linecap="round" stroke-linejoin="round"/>
<path d="M11.7306 34.01C13.0395 34.01 14.1006 32.9489 14.1006 31.64C14.1006 30.3311 13.0395 29.27 11.7306 29.27C10.4217 29.27 9.3606 30.3311 9.3606 31.64C9.3606 32.9489 10.4217 34.01 11.7306 34.01Z" stroke="#0B2343" stroke-linecap="round" stroke-linejoin="round"/>
<path d="M27.7306 34.01C29.0395 34.01 30.1006 32.9489 30.1006 31.64C30.1006 30.3311 29.0395 29.27 27.7306 29.27C26.4217 29.27 25.3606 30.3311 25.3606 31.64C25.3606 32.9489 26.4217 34.01 27.7306 34.01Z" stroke="#0B2343" stroke-linecap="round" stroke-linejoin="round"/>
<path d="M32.7608 31.6401H34.5207C34.4107 25.3901 29.2208 25.8101 27.3808 25.6801C27.0808 25.6601 27.0108 25.4701 26.9408 25.1801C26.5508 23.6701 24.9308 19.7001 19.1008 19.7301C18.9508 19.7301 17.6208 19.7301 17.4708 19.7301C10.5108 19.9301 9.5708 23.84 9.4508 25.25C9.4308 25.53 9.2208 25.7201 8.9508 25.8001C5.8708 26.6601 6.00079 31.6501 6.00079 31.6501H6.87078" stroke="#0B2343" stroke-miterlimit="10" stroke-linecap="round" stroke-linejoin="round"/>
<path d="M10.3506 19.17C10.7706 16.99 12.6906 15.3401 14.9906 15.3401C16.6206 15.3401 18.0606 16.17 18.9106 17.42" stroke="#0B2343" stroke-miterlimit="10" stroke-linecap="round" stroke-linejoin="round"/>
<path d="M25.1807 17.88C26.7989 17.88 28.1107 16.5683 28.1107 14.9501C28.1107 13.3319 26.7989 12.02 25.1807 12.02C23.5625 12.02 22.2507 13.3319 22.2507 14.9501C22.2507 16.5683 23.5625 17.88 25.1807 17.88Z" stroke="#0B2343" stroke-miterlimit="10" stroke-linecap="round" stroke-linejoin="round"/>
<path d="M19.0008 10.6801C19.0008 11.7001 18.1708 12.53 17.1508 12.53C16.1308 12.53 15.3008 11.7001 15.3008 10.6801C15.3008 9.66005 16.1308 8.83008 17.1508 8.83008C18.1708 8.84008 19.0008 9.66005 19.0008 10.6801Z" stroke="#0B2343" stroke-miterlimit="10" stroke-linecap="round" stroke-linejoin="round"/>
<path d="M23.1006 8.30005C23.7358 8.30005 24.2507 7.78515 24.2507 7.15002C24.2507 6.5149 23.7358 6 23.1006 6C22.4655 6 21.9507 6.5149 21.9507 7.15002C21.9507 7.78515 22.4655 8.30005 23.1006 8.30005Z" stroke="#0B2343" stroke-miterlimit="10" stroke-linecap="round" stroke-linejoin="round"/>
<path d="M9.18066 25.6801H27.3807" stroke="#0B2343" stroke-miterlimit="10" stroke-linecap="round" stroke-linejoin="round"/>
</svg>
