<svg width="40" height="40" viewBox="0 0 40 40" fill="none" xmlns="http://www.w3.org/2000/svg">
<path d="M15.0299 19.01V24.02" stroke="#0B2343" stroke-miterlimit="10" stroke-linecap="round" stroke-linejoin="round"/>
<path d="M15.0499 29.0499H20.0299" stroke="#0B2343" stroke-miterlimit="10" stroke-linecap="round" stroke-linejoin="round"/>
<path d="M12.9399 29.0499C12.9399 30.1699 12.06 31.0699 10.98 31.0699C9.89998 31.0699 9.0199 30.1599 9.0199 29.0499C9.0199 27.9399 9.89998 27.03 10.98 27.03C12.06 27.02 12.9399 27.9299 12.9399 29.0499Z" stroke="#0B2343" stroke-linecap="round" stroke-linejoin="round"/>
<path d="M26 29.0499C26 30.1699 25.1199 31.0699 24.0399 31.0699C22.9599 31.0699 22.08 30.1599 22.08 29.0499C22.08 27.9399 22.9599 27.03 24.0399 27.03C25.1199 27.02 26 27.9299 26 29.0499Z" stroke="#0B2343" stroke-linecap="round" stroke-linejoin="round"/>
<path d="M28.0299 29.0499H28.8999C28.8099 23.8499 24.7899 24.13 23.3099 24.02C23.0699 24 23.0099 23.84 22.9499 23.6C22.6399 22.34 21.3699 19.17 16.6499 18.99C16.5299 18.99 15.46 18.99 15.34 18.99C9.73996 19.16 8.98989 22.48 8.88989 23.65C8.86989 23.88 8.69999 24.04 8.48999 24.1C6.00999 24.82 6.11999 29.03 6.11999 29.03H6.81994" stroke="#0B2343" stroke-miterlimit="10" stroke-linecap="round" stroke-linejoin="round"/>
<path d="M8.66992 24.02H23.3099" stroke="#0B2343" stroke-miterlimit="10" stroke-linecap="round" stroke-linejoin="round"/>
<path d="M9.97998 15.03L20.49 6L34.8099 18.2899" stroke="#0B2343" stroke-linecap="round" stroke-linejoin="round"/>
<path d="M32 15.88V34.01H6" stroke="#0B2343" stroke-miterlimit="10" stroke-linecap="round" stroke-linejoin="round"/>
<path d="M31 14.96V7.01001H25V9.87" stroke="#0B2343" stroke-miterlimit="10" stroke-linecap="round" stroke-linejoin="round"/>
</svg>
