<svg width="40" height="40" viewBox="0 0 40 40" fill="none" xmlns="http://www.w3.org/2000/svg">
<path d="M34.92 34.09V20.63C34.92 12.55 28.4 6 20.46 6C12.53 6 6 12.55 6 20.63V34.09" stroke="#0B2343" stroke-linecap="round" stroke-linejoin="round"/>
<path d="M12.45 20.36H9.76001C9.43001 20.36 9.17004 20.6201 9.17004 20.9401V21.66C9.17004 22.29 9.90994 22.27 10.5599 22.38C10.3099 22.87 9.87 27.11 9.87 27.11C9.87 27.21 9.87 32.9301 9.87 32.9301C9.87 33.5101 10.34 33.97 10.92 33.97H12.88C13.46 33.97 13.9301 33.5001 13.9301 32.9301V30.92H26.86V32.9301C26.86 33.5101 27.33 33.97 27.91 33.97H30.02C30.6 33.97 31.0699 33.5001 31.0699 32.9301C31.0699 32.9301 31.0699 27.21 31.0699 27.11C31.0699 27.11 30.63 22.87 30.38 22.38C31.02 22.27 31.75 22.29 31.75 21.66V20.9401C31.75 20.6201 31.49 20.36 31.16 20.36H28.49" stroke="#0B2343" stroke-linecap="round" stroke-linejoin="round"/>
<path d="M28.48 20.23C28.48 21.33 27.15 21.9401 25.9 21.9401H15.04C13.79 21.9401 12.46 21.33 12.46 20.23L13.5 16.73C13.72 15.72 14.52 14.85 15.77 14.85H25.1801C26.4301 14.85 27.24 15.69 27.45 16.73L28.48 20.23Z" stroke="#0B2343" stroke-linecap="round" stroke-linejoin="round"/>
<path d="M17.9399 28H22.97" stroke="#0B2343" stroke-linecap="round" stroke-linejoin="round"/>
<path d="M17.9399 26H22.97" stroke="#0B2343" stroke-linecap="round" stroke-linejoin="round"/>
<path d="M28.8199 27.12C28.8199 27.91 28.17 28.55 27.38 28.55C26.58 28.55 25.9399 27.91 25.9399 27.12C25.9399 26.33 26.58 25.6901 27.38 25.6901C28.18 25.6901 28.8199 26.33 28.8199 27.12Z" stroke="#0B2343" stroke-linecap="round" stroke-linejoin="round"/>
<path d="M14.99 27.12C14.99 27.91 14.34 28.55 13.55 28.55C12.75 28.55 12.11 27.91 12.11 27.12C12.11 26.33 12.75 25.6901 13.55 25.6901C14.35 25.6901 14.99 26.33 14.99 27.12Z" stroke="#0B2343" stroke-linecap="round" stroke-linejoin="round"/>
<path d="M19.17 16.9H21.77" stroke="#0B2343" stroke-linecap="round" stroke-linejoin="round"/>
<path d="M31.0699 30.92H9.87" stroke="#0B2343" stroke-linecap="round" stroke-linejoin="round"/>
</svg>
