<svg width="40" height="40" viewBox="0 0 40 40" fill="none" xmlns="http://www.w3.org/2000/svg">
<path d="M10.11 15.51H6.73999C6.32999 15.51 6 15.84 6 16.25V17.16C6 17.95 6.91999 17.93 7.73999 18.07C7.41999 18.69 6.87 24.02 6.87 24.02C6.87 24.14 6.87 30.72 6.87 30.72C6.87 31.45 7.45999 32.03 8.17999 32.03H10.19C10.92 32.03 11.5 31.44 11.5 30.72V28.09H28.75V30.72C28.75 31.45 29.34 32.03 30.06 32.03H32.07C32.8 32.03 33.38 31.44 33.38 30.72C33.38 30.72 33.38 24.14 33.38 24.02C33.38 24.02 32.83 18.68 32.51 18.06C33.31 17.92 34.23 17.95 34.23 17.16V16.25C34.23 15.84 33.9 15.51 33.49 15.51H30.15" stroke="#0B2343" stroke-linecap="round" stroke-linejoin="round"/>
<path d="M30.17 15.43C30.17 16.89 28.51 18.06 26.94 18.06H13.34C11.77 18.06 10.11 16.88 10.11 15.43L11.41 10.64C11.68 9.30001 12.68 8 14.25 8H26.03C27.6 8 28.6 9.25001 28.87 10.64L30.17 15.43Z" stroke="#0B2343" stroke-linecap="round" stroke-linejoin="round"/>
<path d="M17.03 23.07H23.26" stroke="#0B2343" stroke-linecap="round" stroke-linejoin="round"/>
<path d="M17.03 25.07H23.26" stroke="#0B2343" stroke-linecap="round" stroke-linejoin="round"/>
<path d="M14.58 23.73C14.58 24.8 13.71 25.67 12.64 25.67C11.57 25.67 10.7 24.8 10.7 23.73C10.7 22.66 11.57 21.79 12.64 21.79C13.72 21.79 14.58 22.66 14.58 23.73Z" stroke="#0B2343" stroke-linecap="round" stroke-linejoin="round"/>
<path d="M29.59 23.73C29.59 24.8 28.72 25.67 27.65 25.67C26.58 25.67 25.71 24.8 25.71 23.73C25.71 22.66 26.58 21.79 27.65 21.79C28.72 21.79 29.59 22.66 29.59 23.73Z" stroke="#0B2343" stroke-linecap="round" stroke-linejoin="round"/>
<path d="M18.53 10.03H21.77" stroke="#0B2343" stroke-linecap="round" stroke-linejoin="round"/>
<path d="M33.41 28.09H6.88" stroke="#0B2343" stroke-linecap="round" stroke-linejoin="round"/>
</svg>
