<svg id="Capa_1" data-name="Capa 1" xmlns="http://www.w3.org/2000/svg" viewBox="0 0 26.35 18.63"><title>CARD_COBRANDED_CP</title><path id="_Trazado_" data-name=" Trazado " d="M10.21,12.43a1.41,1.41,0,0,0-1.34.94H5.62a1.39,1.39,0,1,0-.88,1.76,1.4,1.4,0,0,0,.88-.88H8.85a1.44,1.44,0,0,0,1.35,1,1.39,1.39,0,0,0,0-2.78h0" transform="translate(-0.32 -0.42)" fill="#067dc2"/><path d="M24.72,19H2.27A2,2,0,0,1,.32,17.09V8.82a.5.5,0,0,1,.5-.5H26.17a.5.5,0,0,1,.5.5v8.27A2,2,0,0,1,24.72,19ZM1.32,9.32v7.77a1,1,0,0,0,1,.95H24.72a1,1,0,0,0,1-.95V9.32Z" transform="translate(-0.32 -0.42)" fill="#067dc2"/><path d="M26.17,4.93H.82a.5.5,0,0,1-.5-.5V2.37a2,2,0,0,1,2-1.95H24.72a2,2,0,0,1,2,2V4.43A.5.5,0,0,1,26.17,4.93Zm-24.85-1H25.67V2.37a1,1,0,0,0-1-1H2.27a1,1,0,0,0-.95,1Z" transform="translate(-0.32 -0.42)" fill="#067dc2"/><path d="M26.17,9.32H.82a.5.5,0,0,1-.5-.5V4.43a.5.5,0,0,1,.5-.5H26.17a.5.5,0,0,1,.5.5V8.82A.5.5,0,0,1,26.17,9.32Zm-24.85-1H25.67V4.93H1.32Z" transform="translate(-0.32 -0.42)" fill="#067dc2"/></svg>