<?xml version="1.0" encoding="utf-8"?>
<!-- Generator: Adobe Illustrator 22.1.0, SVG Export Plug-In . SVG Version: 6.00 Build 0)  -->
<svg version="1.1" id="Capa_1" xmlns="http://www.w3.org/2000/svg" xmlns:xlink="http://www.w3.org/1999/xlink" x="0px" y="0px"
	 viewBox="0 0 80 60" style="enable-background:new 0 0 80 60;" xml:space="preserve">
<style type="text/css">
	.st0{fill:#007DC3;}
</style>
<g>
	<g>
		<g>
			<path class="st0" d="M50.4,47L38,46.9c-0.5,0-0.9-0.4-0.9-0.9c0-0.5,0.4-0.9,0.9-0.9l12.5,0.1c0.5,0,0.9,0.4,0.9,0.9
				C51.3,46.6,50.9,47,50.4,47z"/>
		</g>
	</g>
	<g>
		<g>
			<path class="st0" d="M55.9,55.9L11,55.5c-2.1,0-3.8-1.7-3.7-3.8l0.3-29.4c0-2.1,1.7-3.8,3.8-3.8l44.9,0.4c2.1,0,3.8,1.7,3.7,3.8
				l-0.3,29.4C59.7,54.2,58,55.9,55.9,55.9z M11.3,20.2c-1.1,0-2,0.9-2,2L9,51.7c0,1.1,0.9,2,2,2.1L56,54.1c1.1,0,2-0.9,2-2
				l0.3-29.4c0-1.1-0.9-2-2-2.1L11.3,20.2z"/>
		</g>
	</g>
	<g>
		<g>
			<path class="st0" d="M59,36.4L8.3,36c-0.5,0-0.9-0.4-0.9-0.9l0.1-8.8c0-0.5,0.4-0.9,0.9-0.9l50.7,0.4c0.5,0,0.9,0.4,0.9,0.9
				l-0.1,8.8C59.9,36,59.5,36.4,59,36.4z M9.2,34.2l49,0.4l0.1-7l-49-0.4L9.2,34.2z"/>
		</g>
	</g>
</g>
<g>
	<path class="st0" d="M64.7,22.6C64.7,22.6,64.7,22.6,64.7,22.6c-0.5,0-0.9-0.4-0.9-0.9c0.1-2.8-0.9-5.5-2.9-7.4c-2-2-4.6-3.1-7.4-3
		c-0.5,0-0.9-0.4-0.9-0.9c0-0.5,0.4-0.9,0.9-0.9c3.3-0.1,6.4,1.2,8.7,3.5c2.3,2.3,3.5,5.4,3.4,8.8C65.6,22.3,65.2,22.6,64.7,22.6z"
		/>
</g>
<g>
	<path class="st0" d="M70.8,22C70.8,22,70.8,22,70.8,22c-0.5,0-0.9-0.4-0.9-0.9c0.1-4.3-1.4-8.3-4.4-11.3c-3-3-6.9-4.7-11.2-4.6
		c-0.5,0-0.9-0.4-0.9-0.9c0-0.5,0.4-0.9,0.9-0.9c4.8,0,9.2,1.8,12.5,5.1c3.3,3.4,5.1,7.9,4.9,12.6C71.7,21.7,71.3,22,70.8,22z"/>
</g>
</svg>
