<svg width="25" height="25" viewBox="0 0 25 25" fill="none" xmlns="http://www.w3.org/2000/svg">
<path d="M19.1471 13.7907V9.76468L22.6851 13.317C22.8266 13.4591 23.0389 13.5538 23.2276 13.5538C23.4163 13.5538 23.6285 13.4828 23.77 13.317C24.0767 13.0091 24.0767 12.5118 23.77 12.2039L19.1471 7.53855V4.38882C19.1471 2.32847 17.4489 0.647034 15.3969 0.647034H9.26442C7.2124 0.647034 5.51418 2.32847 5.51418 4.38882V7.53855L0.867663 12.2276C0.56104 12.5355 0.56104 13.0328 0.867663 13.3407C1.00918 13.4828 1.22146 13.5775 1.41015 13.5775C1.59884 13.5775 1.81112 13.5065 1.95264 13.3407L5.49059 9.78836V13.8143L0.867663 18.456C0.56104 18.7639 0.56104 19.2612 0.867663 19.5691C1.00918 19.7112 1.22146 19.8059 1.41015 19.8059C1.59884 19.8059 1.81112 19.7349 1.95264 19.5691L5.49059 16.0168V20.6111C5.49059 22.6715 7.18881 24.3529 9.24083 24.3529H15.3733C17.4253 24.3529 19.1235 22.6715 19.1235 20.6111V15.9931L22.6615 19.5454C22.803 19.6875 23.0153 19.7822 23.204 19.7822C23.3927 19.7822 23.6049 19.7112 23.7465 19.5454C24.0531 19.2376 24.0531 18.7402 23.7465 18.4324L19.1471 13.7907ZM9.26442 2.21006H15.3969C16.5998 2.21006 17.5668 3.18103 17.5668 4.38882V6.11762C17.1659 5.90448 16.7177 5.76239 16.2224 5.76239H8.43889C7.94358 5.76239 7.49544 5.90448 7.09447 6.11762V4.38882C7.09447 3.18103 8.06151 2.21006 9.26442 2.21006ZM15.3969 22.7662H9.26442C8.06151 22.7662 7.09447 21.7952 7.09447 20.5874V20.4217C7.49544 20.6348 7.94358 20.7769 8.43889 20.7769H16.2224C16.7177 20.7769 17.1659 20.6348 17.5668 20.4217V20.5874C17.5668 21.7952 16.5998 22.7662 15.3969 22.7662Z" fill="#0B2343"/>
</svg>
