<svg viewBox="0 0 20 20" fill="none" xmlns="http://www.w3.org/2000/svg">
<rect width="20" height="20" fill="white"/>
<g clip-path="url(#clip0_4893_62145)">
<path d="M19.9573 2.86938H-0.173828V17.911H19.9573V2.86938Z" fill="#EC1C24"/>
<path d="M9.74756 8.53955C12.741 8.53955 15.2197 9.70845 15.7181 11.2424C15.7771 11.0616 15.8131 10.874 15.8131 10.6797C15.8131 8.87448 13.0984 7.41419 9.74756 7.41419C6.39674 7.41419 3.68199 8.87783 3.68199 10.6797C3.68199 10.8707 3.71805 11.0582 3.77707 11.2424C4.27543 9.70845 6.7574 8.53955 9.74756 8.53955ZM9.74756 6.59362C12.741 6.59362 15.2197 7.76252 15.7181 9.29649C15.7771 9.11228 15.8131 8.92472 15.8131 8.73381C15.8131 6.92855 13.0984 5.46826 9.74756 5.46826C6.39674 5.46826 3.68199 6.9319 3.68199 8.73381C3.68199 8.92472 3.71805 9.11228 3.77707 9.29649C4.27543 7.76252 6.7574 6.59362 9.74756 6.59362ZM12.2394 14.4175L10.9935 12.7965H10.4V15.2147H10.9672V13.6305L12.1967 15.2147H12.8066V12.7965H12.2394V14.4175ZM2.9115 14.7123C2.79346 14.796 2.65576 14.8362 2.49182 14.8362C2.27216 14.8362 2.09183 14.7726 1.9574 14.6419C1.8197 14.5113 1.75085 14.2936 1.75085 13.9888C1.75085 13.7008 1.8197 13.4931 1.96068 13.3625C2.10167 13.2352 2.28199 13.1683 2.50494 13.1683C2.66559 13.1683 2.8033 13.2051 2.91805 13.2788C3.02953 13.3525 3.10494 13.4496 3.141 13.5769L3.74756 13.463C3.67871 13.2687 3.57707 13.1214 3.43936 13.0175C3.20986 12.8434 2.90822 12.7563 2.53772 12.7563C2.11478 12.7563 1.77052 12.8668 1.5115 13.0912C1.25249 13.3123 1.12134 13.6271 1.12134 14.029C1.12134 14.4108 1.24921 14.7089 1.50822 14.9266C1.76724 15.1443 2.09839 15.2549 2.49838 15.2549C2.82297 15.2549 3.09182 15.1912 3.30166 15.0606C3.5115 14.9333 3.66559 14.7357 3.75412 14.4711L3.16068 14.3271C3.1115 14.5013 3.02625 14.6285 2.9115 14.7123ZM16.0689 12.7965V13.2051H16.9672V15.2147H17.5803V13.2051H18.4722V12.7965H16.0689ZM14.0722 14.1463H15.5902V13.7376H14.0722V13.2051H15.7017V12.7965H13.459V15.2147H15.7607V14.8061H14.0689V14.1463H14.0722ZM9.35084 14.3506C9.26559 14.2769 9.1574 14.2099 9.02297 14.1496C9.28854 14.1195 9.48854 14.0458 9.62297 13.9252C9.7574 13.808 9.82297 13.6573 9.82297 13.4764C9.82297 13.3324 9.78035 13.2051 9.69182 13.0946C9.6033 12.984 9.48527 12.907 9.341 12.8635C9.19346 12.8199 8.96068 12.7998 8.63609 12.7998H7.34428V15.218H7.9574V14.2099H8.08199C8.22297 14.2099 8.32461 14.2199 8.39018 14.2367C8.45576 14.2534 8.51477 14.2869 8.57379 14.3372C8.63281 14.3841 8.73773 14.5046 8.8951 14.6888L9.33445 15.2147H10.0656L9.6951 14.7424C9.55084 14.5549 9.43609 14.4209 9.35084 14.3506ZM8.40658 13.818H7.95412V13.2018H8.42953C8.67543 13.2018 8.82625 13.2051 8.87543 13.2118C8.97379 13.2252 9.0492 13.2553 9.10494 13.3056C9.16068 13.3558 9.18691 13.4228 9.18691 13.5032C9.18691 13.5769 9.16723 13.6372 9.12461 13.6841C9.08199 13.7309 9.02625 13.7678 8.95412 13.7879C8.88199 13.808 8.70166 13.818 8.40658 13.818ZM5.15412 12.7965L3.97379 15.2147H4.62297L4.87215 14.6654H6.08527L6.34756 15.2147H7.01314L5.80002 12.7965H5.15412ZM5.06232 14.2534L5.47215 13.3592L5.88854 14.2534H5.06232Z" fill="white"/>
</g>
<defs>
<clipPath id="clip0_4893_62145">
<rect width="20" height="14.7368" fill="white" transform="translate(0 3)"/>
</clipPath>
</defs>
</svg>
