<?xml version="1.0" encoding="utf-8"?>
<!-- Generator: Adobe Illustrator 21.0.2, SVG Export Plug-In . SVG Version: 6.00 Build 0)  -->
<svg version="1.1" id="Capa_1" xmlns="http://www.w3.org/2000/svg" xmlns:xlink="http://www.w3.org/1999/xlink" x="0px" y="0px"
	 viewBox="0 0 30 30" style="enable-background:new 0 0 30 30;" xml:space="preserve">
<style type="text/css">
	.st0{fill:#0B2343;}
</style>
<g>
	<path class="st0" d="M28.8,6.5H14.4c-0.3,0-0.5-0.2-0.5-0.5s0.2-0.5,0.5-0.5h14.4c0.3,0,0.5,0.2,0.5,0.5S29.1,6.5,28.8,6.5z"/>
</g>
<g>
	<path class="st0" d="M8,6.5H1.2C0.9,6.5,0.7,6.3,0.7,6s0.2-0.5,0.5-0.5H8c0.3,0,0.5,0.2,0.5,0.5S8.3,6.5,8,6.5z"/>
</g>
<g>
	<circle class="st0" cx="11.2" cy="6" r="3.2"/>
</g>
<g>
	<circle class="st0" cx="6.3" cy="24" r="3.2"/>
</g>
<g>
	<circle class="st0" cx="21.3" cy="15" r="3.2"/>
</g>
<g>
	<path class="st0" d="M28.8,24.5H9.5C9.2,24.5,9,24.3,9,24s0.2-0.5,0.5-0.5h19.3c0.3,0,0.5,0.2,0.5,0.5S29.1,24.5,28.8,24.5z"/>
</g>
<g>
	<path class="st0" d="M3.1,24.5H1.2c-0.3,0-0.5-0.2-0.5-0.5s0.2-0.5,0.5-0.5h1.9c0.3,0,0.5,0.2,0.5,0.5S3.4,24.5,3.1,24.5z"/>
</g>
<g>
	<path class="st0" d="M28.8,15.5h-4.3c-0.3,0-0.5-0.2-0.5-0.5s0.2-0.5,0.5-0.5h4.3c0.3,0,0.5,0.2,0.5,0.5S29.1,15.5,28.8,15.5z"/>
</g>
<g>
	<path class="st0" d="M18.1,15.5H1.2c-0.3,0-0.5-0.2-0.5-0.5s0.2-0.5,0.5-0.5h16.9c0.3,0,0.5,0.2,0.5,0.5S18.4,15.5,18.1,15.5z"/>
</g>
</svg>
