<?xml version="1.0" encoding="utf-8"?>
<!-- Generator: Adobe Illustrator 21.0.2, SVG Export Plug-In . SVG Version: 6.00 Build 0)  -->
<svg version="1.1" id="Capa_1" xmlns="http://www.w3.org/2000/svg" xmlns:xlink="http://www.w3.org/1999/xlink" x="0px" y="0px"
	 viewBox="0 0 30 30" style="enable-background:new 0 0 30 30;" xml:space="preserve">
<style type="text/css">
	.st0{fill:#0B2343;}
</style>
<g>
	<g>
		<path class="st0" d="M26.9,27.5h-2c-1,0-1.8-0.8-1.8-1.8v-2.1H6.8v2.1c0,1-0.8,1.8-1.8,1.8H3c-1,0-1.8-0.8-1.8-1.8V19
			c0.1-1.1,0.5-4.2,0.8-5.6c-0.7-0.1-1.6-0.3-1.6-1.3v-0.9c0-0.7,0.5-1.2,1.2-1.2H5c0.3,0,0.5,0.2,0.5,0.5S5.3,11,5,11H1.6
			c-0.1,0-0.2,0.1-0.2,0.2v0.9c0,0.2,0.1,0.3,1,0.4l0.3,0c0.2,0,0.3,0.1,0.4,0.3s0.1,0.3,0,0.5c-0.2,0.4-0.6,3.3-0.9,5.8l0,6.6
			c0,0.4,0.4,0.8,0.8,0.8h2c0.4,0,0.8-0.4,0.8-0.8v-2.6c0-0.3,0.2-0.5,0.5-0.5h17.3c0.3,0,0.5,0.2,0.5,0.5v2.6
			c0,0.4,0.4,0.8,0.8,0.8h2c0.4,0,0.8-0.4,0.8-0.8V19c-0.2-2.1-0.7-5.4-0.9-5.8c-0.1-0.1-0.1-0.3,0-0.4s0.2-0.2,0.4-0.2l0.3,0
			c0.8-0.1,1-0.2,1-0.4v-0.9c0-0.1-0.1-0.2-0.2-0.2H25c-0.3,0-0.5-0.2-0.5-0.5S24.7,10,25,10h3.3c0.7,0,1.2,0.5,1.2,1.2v0.9
			c0,1-0.9,1.2-1.6,1.3c0.3,1.5,0.7,4.8,0.8,5.5l0,6.8C28.7,26.7,27.9,27.5,26.9,27.5z"/>
	</g>
	<g>
		<path class="st0" d="M21.8,13.5H8.2c-1.8,0-3.7-1.2-3.7-3.1c0,0,0-0.1,0-0.1l1.3-4.8c0.2-1.4,1.4-3,3.3-3h11.8
			c1.9,0,3.1,1.6,3.3,3l1.3,4.7c0,0,0,0.1,0,0.1C25.5,12.2,23.5,13.5,21.8,13.5z M5.5,10.5c0,1.2,1.4,2,2.7,2h13.6
			c1.2,0,2.6-0.9,2.7-2l-1.3-4.7c-0.2-1.1-1-2.2-2.3-2.2H9.1C7.9,3.5,7,4.6,6.8,5.7L5.5,10.5z"/>
	</g>
	<g>
		<path class="st0" d="M18.1,18.5h-6.2c-0.3,0-0.5-0.2-0.5-0.5s0.2-0.5,0.5-0.5h6.2c0.3,0,0.5,0.2,0.5,0.5S18.4,18.5,18.1,18.5z"/>
	</g>
	<g>
		<path class="st0" d="M18.1,20.5h-6.2c-0.3,0-0.5-0.2-0.5-0.5s0.2-0.5,0.5-0.5h6.2c0.3,0,0.5,0.2,0.5,0.5S18.4,20.5,18.1,20.5z"/>
	</g>
	<g>
		<path class="st0" d="M7.5,21.1c-1.3,0-2.4-1.1-2.4-2.4s1.1-2.4,2.4-2.4s2.4,1.1,2.4,2.4S8.8,21.1,7.5,21.1z M7.5,17.3
			c-0.8,0-1.4,0.6-1.4,1.4c0,0.8,0.6,1.4,1.4,1.4s1.4-0.6,1.4-1.4C8.9,17.9,8.3,17.3,7.5,17.3z"/>
	</g>
	<g>
		<path class="st0" d="M22.5,21.1c-1.3,0-2.4-1.1-2.4-2.4s1.1-2.4,2.4-2.4s2.4,1.1,2.4,2.4S23.8,21.1,22.5,21.1z M22.5,17.3
			c-0.8,0-1.4,0.6-1.4,1.4c0,0.8,0.6,1.4,1.4,1.4s1.4-0.6,1.4-1.4C23.9,17.9,23.3,17.3,22.5,17.3z"/>
	</g>
	<g>
		<path class="st0" d="M16.6,5.5h-3.2c-0.3,0-0.5-0.2-0.5-0.5s0.2-0.5,0.5-0.5h3.2c0.3,0,0.5,0.2,0.5,0.5S16.9,5.5,16.6,5.5z"/>
	</g>
	<g>
		<path class="st0" d="M28.3,23.6H1.8c-0.3,0-0.5-0.2-0.5-0.5s0.2-0.5,0.5-0.5h26.5c0.3,0,0.5,0.2,0.5,0.5S28.6,23.6,28.3,23.6z"/>
	</g>
</g>
</svg>
