<svg width="40" height="40" viewBox="0 0 40 40" fill="none" xmlns="http://www.w3.org/2000/svg">
<path d="M29.2218 30.0799C28.7737 32.257 26.8359 33.9067 24.5309 33.9067H14.5375C12.2456 33.9067 10.3157 32.2744 9.85449 30.1147" stroke="#0B2343" stroke-linecap="round" stroke-linejoin="round"/>
<path d="M9.74927 19.3186V14.8775C9.74927 14.063 10.0477 13.3069 10.5576 12.6787C11.4182 11.618 12.8835 10.9219 14.5376 10.9219H24.531C27.1649 10.9219 29.3193 12.6882 29.3193 14.8775V19.3186" stroke="#0B2343" stroke-linecap="round" stroke-linejoin="round"/>
<path d="M28.4038 30.3264H10.6646C9.74918 30.3264 9 29.5772 9 28.661L9.33326 20.4148C9.33326 19.4994 10.0824 18.7502 10.9978 18.7502H28.0706C28.9868 18.7502 29.736 19.4994 29.736 20.4148L30.0693 28.661C30.0693 29.5772 29.3201 30.3264 28.4038 30.3264Z" stroke="#0B2343" stroke-linecap="round" stroke-linejoin="round"/>
<path d="M16.3503 13.3245C16.7619 14.6941 18.0314 15.6921 19.5341 15.6921C21.0377 15.6921 22.3072 14.6941 22.7188 13.3245H16.3503Z" stroke="#0B2343" stroke-linecap="round" stroke-linejoin="round"/>
<path d="M14.1953 25.7866H14.0056C12.6213 25.7866 11.4979 24.6642 11.4979 23.2789V20.4962H16.703V23.2789C16.703 24.6642 15.5806 25.7866 14.1953 25.7866Z" stroke="#0B2343" stroke-linecap="round" stroke-linejoin="round"/>
<path d="M25.0629 25.7866H24.8732C23.4888 25.7866 22.3655 24.6642 22.3655 23.2789V20.4962H27.5706V23.2789C27.5706 24.6642 26.4481 25.7866 25.0629 25.7866Z" stroke="#0B2343" stroke-linecap="round" stroke-linejoin="round"/>
<path d="M16.8857 8.5173C16.8857 8.5173 16.9606 6.00959 19.5344 6.00002C22.1892 5.98958 22.1831 8.51904 22.1831 8.51904" stroke="#0B2343" stroke-linecap="round" stroke-linejoin="round"/>
<path d="M19.5345 8.51981C19.5345 8.51981 10.138 7.80108 10.2215 13.1646" stroke="#0B2343" stroke-linecap="round" stroke-linejoin="round"/>
<path d="M19.5344 8.51981C19.5344 8.51981 28.9309 7.80108 28.8474 13.1646" stroke="#0B2343" stroke-linecap="round" stroke-linejoin="round"/>
</svg>
