<svg width="25" height="25" viewBox="0 0 25 25" fill="none" xmlns="http://www.w3.org/2000/svg">
<g clip-path="url(#clip0_3313_7775)">
<path d="M11.8689 14.704V21.6481C11.8689 22.3414 12.4586 22.9055 13.1835 22.9055H14.0574V13.4467H13.1835C12.4586 13.4467 11.8689 14.0107 11.8689 14.704Z" fill="#0B2343"/>
<path d="M23.6856 13.4467H22.8116V22.9055H23.6856C24.4104 22.9055 25.0001 22.3415 25.0001 21.6481V14.704C25.0001 14.0107 24.4105 13.4467 23.6856 13.4467Z" fill="#0B2343"/>
<path d="M19.8575 10.5779H17.0117C16.1873 10.5779 15.5166 11.2195 15.5166 12.0081V22.9055H21.3526V12.0081C21.3527 11.2195 20.682 10.5779 19.8575 10.5779ZM16.9757 13.4466V12.0081C16.9757 11.989 16.9919 11.9735 17.0118 11.9735H19.8576C19.8775 11.9735 19.8937 11.989 19.8937 12.0081V13.4466H16.9757Z" fill="#0B2343"/>
<path d="M9.67722 7.32165H8.95083V4.42109C8.95083 3.4554 8.12946 2.66974 7.11987 2.66974H4.94575C3.93617 2.66974 3.1148 3.4554 3.1148 4.42109V7.32165H2.3884C1.17995 7.32165 0.196777 8.26208 0.196777 9.41799V19.4136C0.196777 20.5695 1.17995 21.51 2.3884 21.51H3.1148V22.9056H4.5738V21.51H7.49182V22.9056H8.95083V21.51H9.67722C9.93416 21.51 10.1806 21.467 10.4098 21.3889V14.704C10.4098 13.6959 11.0009 12.8174 11.8688 12.3686V9.41799C11.8688 8.26208 10.8857 7.32165 9.67722 7.32165ZM4.5738 18.7188H3.1148V10.3454H4.5738V18.7188ZM4.5738 7.32165V4.42109C4.5738 4.22492 4.74067 4.06531 4.94575 4.06531H7.11982C7.32491 4.06531 7.49177 4.22492 7.49177 4.42109V7.32165H4.5738ZM8.95083 18.7188H7.49182V10.3454H8.95083V18.7188Z" fill="#0B2343"/>
</g>
<defs>
<clipPath id="clip0_3313_7775">
<rect width="25" height="25" fill="white"/>
</clipPath>
</defs>
</svg>
