<svg width="40" height="40" viewBox="0 0 40 40" fill="none" xmlns="http://www.w3.org/2000/svg">
<path d="M24.1578 16.6334C24.1578 18.3734 22.4479 33.7334 20.3479 33.7334C18.2479 33.7334 16.5378 18.3734 16.5378 16.6334C16.5378 14.8934 18.2479 13.4834 20.3479 13.4834C22.4479 13.4834 24.1578 14.8934 24.1578 16.6334Z" stroke="#0B2343" stroke-linecap="round" stroke-linejoin="round"/>
<path d="M19.0378 16.7637H20.9078" stroke="#0B2343" stroke-linecap="round" stroke-linejoin="round"/>
<path d="M20.2878 21.6736H23.6578" stroke="#0B2343" stroke-linecap="round" stroke-linejoin="round"/>
<path d="M17.7878 26.5935H19.5679" stroke="#0B2343" stroke-linecap="round" stroke-linejoin="round"/>
<path d="M20.3479 13.4837V10.0337C20.3479 10.0337 23.7278 3.15374 24.0078 7.91374C24.1578 10.3937 21.3579 7.52373 20.3479 10.0337" stroke="#0B2343" stroke-linecap="round" stroke-linejoin="round"/>
<path d="M20.3479 12.4135C20.3479 12.4135 15.4278 5.71346 15.0078 10.3535C14.7978 12.7535 18.8779 9.96352 20.3479 12.4135Z" stroke="#0B2343" stroke-linecap="round" stroke-linejoin="round"/>
<path d="M20.3378 10.1535C20.3378 10.1535 20.4879 3.79358 17.8479 6.81358C16.4679 8.38358 20.6078 7.95354 20.3378 10.1535Z" stroke="#0B2343" stroke-linecap="round" stroke-linejoin="round"/>
</svg>
