<svg width="40" height="40" viewBox="0 0 40 40" fill="none" xmlns="http://www.w3.org/2000/svg">
<path d="M22.7266 17.8754V22.1943" stroke="#0B2343" stroke-width="0.9" stroke-miterlimit="10" stroke-linecap="round" stroke-linejoin="round"/>
<path d="M22.7266 26.5497H27.1112" stroke="#0B2343" stroke-width="0.9" stroke-miterlimit="10" stroke-linecap="round" stroke-linejoin="round"/>
<path d="M19.0727 28.2817C20.0292 28.2817 20.8046 27.5063 20.8046 26.5498C20.8046 25.5933 20.0292 24.8179 19.0727 24.8179C18.1162 24.8179 17.3407 25.5933 17.3407 26.5498C17.3407 27.5063 18.1162 28.2817 19.0727 28.2817Z" stroke="#0B2343" stroke-width="0.9" stroke-linecap="round" stroke-linejoin="round"/>
<path d="M30.7652 28.2817C31.7217 28.2817 32.4971 27.5063 32.4971 26.5498C32.4971 25.5933 31.7217 24.8179 30.7652 24.8179C29.8087 24.8179 29.0332 25.5933 29.0332 26.5498C29.0332 27.5063 29.8087 28.2817 30.7652 28.2817Z" stroke="#0B2343" stroke-width="0.9" stroke-linecap="round" stroke-linejoin="round"/>
<path d="M34.4405 26.5496H35.7267C35.6463 21.9823 31.8536 22.2892 30.509 22.1942C30.2897 22.1796 30.2386 22.0408 30.1875 21.8289C29.9025 20.7254 28.7186 17.8243 24.4582 17.8462C24.3486 17.8462 23.3767 17.8462 23.2671 17.8462C18.1809 17.9923 17.494 20.8496 17.4063 21.88C17.3917 22.0846 17.2382 22.2235 17.0409 22.2819C14.7901 22.9104 14.8851 26.5569 14.8851 26.5569H15.5209" stroke="#0B2343" stroke-width="0.9" stroke-miterlimit="10" stroke-linecap="round" stroke-linejoin="round"/>
<path d="M17.2089 22.1943H30.5088" stroke="#0B2343" stroke-width="0.9" stroke-miterlimit="10" stroke-linecap="round" stroke-linejoin="round"/>
<path d="M36.8077 27.3459L39 27.3459" stroke="#0B2343" stroke-width="0.9" stroke-miterlimit="10" stroke-linecap="round" stroke-linejoin="round"/>
<path d="M6.82654 27.982V15.8305" stroke="#0B2343" stroke-width="0.9" stroke-miterlimit="10" stroke-linecap="round" stroke-linejoin="round"/>
<path d="M6.82654 22.9378C6.82654 22.9378 7.47482 18.3282 10.5796 19.3988" stroke="#0B2343" stroke-width="0.9" stroke-miterlimit="10" stroke-linecap="round" stroke-linejoin="round"/>
<path d="M6.82655 21.6773C6.82655 21.6773 5.4288 18.6081 3.99536 20.0713" stroke="#0B2343" stroke-width="0.9" stroke-miterlimit="10" stroke-linecap="round" stroke-linejoin="round"/>
<path d="M5.67945 23.6281C3.75829 25.121 1.05206 23.6281 1.05206 21.0289C1.05206 19.8393 1.6528 18.8044 2.53903 18.2572C1.67659 15.1286 3.83564 12 6.82147 12C9.04597 12 10.8839 13.7665 11.2289 16.0803C12.9775 16.562 14.2682 18.281 14.2682 20.333C14.2682 22.7597 12.46 24.7285 10.2296 24.7285C9.37309 24.7285 8.58203 24.437 7.92776 23.9493" stroke="#0B2343" stroke-width="0.9" stroke-miterlimit="10" stroke-linecap="round" stroke-linejoin="round"/>
<path d="M1 27.9822H16.1488" stroke="#0B2343" stroke-width="0.9" stroke-miterlimit="10" stroke-linecap="round" stroke-linejoin="round"/>
</svg>
