<?xml version="1.0" encoding="utf-8"?>
<!-- Generator: Adobe Illustrator 26.2.1, SVG Export Plug-In . SVG Version: 6.00 Build 0)  -->
<svg version="1.1" id="Layer_1" xmlns="http://www.w3.org/2000/svg" xmlns:xlink="http://www.w3.org/1999/xlink" x="0px" y="0px"
	 viewBox="0 0 36 36" style="enable-background:new 0 0 36 36;" xml:space="preserve">
<style type="text/css">
	.st0{fill:#0B2343;}
	.st1{opacity:0.5;enable-background:new    ;}
</style>
<g>
	<path class="st0" d="M16.1,22.3c-0.3-1.6-1.9-2.7-3.5-2.4c-1.6,0.3-2.7,1.9-2.4,3.5c0.3,1.4,1.5,2.4,2.9,2.4c0.2,0,0.4,0,0.5-0.1
		C15.3,25.4,16.4,23.9,16.1,22.3C16.1,22.3,16.1,22.3,16.1,22.3z M13.5,24.8c-1.1,0.2-2.1-0.5-2.3-1.6c-0.2-1.1,0.5-2.1,1.6-2.3
		c0.1,0,0.2,0,0.4,0c0.9,0,1.8,0.7,1.9,1.6C15.3,23.5,14.6,24.6,13.5,24.8z"/>
	<path class="st0" d="M29.3,17.6c-0.7-0.4-1.5-0.6-2.2-0.5c-1.6,0.3-2.7,1.9-2.4,3.5c0.3,1.4,1.5,2.4,2.9,2.4c0.2,0,0.4,0,0.6-0.1
		c1.6-0.3,2.7-1.9,2.4-3.5C30.4,18.7,29.9,18.1,29.3,17.6z M28,22c-1.1,0.2-2.1-0.5-2.3-1.6c-0.2-1.1,0.5-2.1,1.6-2.3
		c0.1,0,0.3,0,0.4,0c0.4,0,0.8,0.1,1.1,0.3c0.4,0.3,0.7,0.7,0.8,1.3v0C29.8,20.8,29.1,21.8,28,22z"/>
	<path class="st0" d="M23.2,20.4l-5.8,1.1c-0.3,0.1-0.4,0.3-0.4,0.6c0,0.2,0.3,0.4,0.5,0.4c0,0,0.1,0,0.1,0l5.8-1.1
		c0.3-0.1,0.4-0.3,0.4-0.6S23.5,20.4,23.2,20.4z"/>
	<path class="st0" d="M33,17.9l-0.5-2.7c-0.3-1.2-1.4-2.1-2.6-2L24,13.4l-3.3-4.7c-0.3-0.5-1-0.7-1.5-0.6l-4,0.8c0,0,0,0,0,0
		s0,0,0,0l-5.9,1.2c0,0,0,0,0,0c0,0,0,0,0,0l-3.1,0.6c-0.4,0.1-0.7,0.3-1,0.6c-0.2,0.3-0.3,0.7-0.2,1.1l0.5,2.8l-1.9,0.4
		c-0.3,0.1-0.4,0.3-0.4,0.6l1.1,5.7c0,0.2,0.3,0.4,0.5,0.4c0,0,0.1,0,0.1,0L6.8,22L7,22.8c0.1,0.6,0.6,1.1,1.2,1.2L9,24.1
		c0,0,0.1,0,0.1,0c0.2,0,0.4-0.2,0.5-0.4c0.1-0.3-0.1-0.5-0.4-0.6L8.4,23c-0.2,0-0.4-0.2-0.4-0.4l-0.2-1.2c0,0,0-0.1,0-0.1L7,17.8
		l3.6-0.7c0,0,0,0,0.1,0c0,0,0,0,0,0l5.9-1.2c0,0,0,0,0,0c0,0,0,0,0,0l7.2-1.4l6-0.2c0.8,0,1.4,0.5,1.6,1.2l0.5,2.6
		c0,0.1,0,0.3-0.1,0.4c-0.1,0.1-0.2,0.2-0.3,0.2c-0.3,0.1-0.4,0.3-0.4,0.6s0.3,0.4,0.6,0.4c0.4-0.1,0.7-0.3,1-0.6
		C33,18.7,33,18.3,33,17.9z M19.4,9.1c0.2,0,0.4,0,0.5,0.2l3,4.3l-6,1.2l-1-5L19.4,9.1z M15.9,15l-5,1l-1-5l5-1L15.9,15z M5.2,21.3
		l-0.9-4.8l1.4-0.3l0.2,1.2c0,0,0,0,0,0c0,0,0,0,0,0.1L6.6,21L5.2,21.3z M6.6,15.5c0,0,0-0.1-0.1-0.1l-0.6-3.1c0-0.1,0-0.3,0.1-0.4
		c0.1-0.1,0.2-0.2,0.3-0.2L9,11.1l1,5l-3.1,0.6L6.6,15.5z"/>
	<path class="st0" d="M6.5,8.9C6.6,8.9,6.6,8.9,6.5,8.9l10.4-2.1c0.3-0.1,0.4-0.3,0.4-0.6C17.3,6,17,5.8,16.7,5.8l-10.3,2
		C6.2,7.9,6,8.2,6,8.5C6.1,8.7,6.3,8.9,6.5,8.9z"/>
</g>
<g class="st1">
	<path class="st0" d="M3.3,30.2c-0.1,0-0.3-0.1-0.4-0.2c-0.2-0.2-0.1-0.5,0.1-0.7c1.9-1.6,11.8-5.4,18.7-3.6
		c0.8-0.7,3.7-3.1,6.8-2.8c1.8,0.2,3.4,1.2,4.7,3.1c0.2,0.2,0.1,0.5-0.1,0.7c-0.2,0.2-0.5,0.1-0.7-0.1c-1.1-1.6-2.5-2.5-4-2.7
		c-3.2-0.3-6.2,2.7-6.3,2.8c-0.1,0.1-0.3,0.2-0.5,0.1C15,24.8,5.2,28.7,3.6,30.1C3.5,30.1,3.4,30.2,3.3,30.2z"/>
</g>
</svg>
