<svg width="33" height="30" viewBox="0 0 33 30" fill="none" xmlns="http://www.w3.org/2000/svg">
<path d="M4.78003 10.4445L7.06159 20.0992C7.06159 20.108 7.05277 20.1168 7.05277 20.1256L6.44495 21.9138C6.34805 22.3983 6.71801 22.8388 7.20251 22.8388H22.9178" stroke="#007CC2" stroke-miterlimit="10" stroke-linecap="round" stroke-linejoin="round"/>
<path d="M25.6752 10.4444H4.789L5.32634 7.73998C5.23825 7.30834 4.85067 7 4.41022 7H1.15088" stroke="#007CC2" stroke-miterlimit="10" stroke-linecap="round" stroke-linejoin="round"/>
<path d="M26.1509 8.69145L23.9134 16.9014C23.7284 17.5885 23.1382 18.0994 22.4335 18.1875L7.05298 20.1255" stroke="#007CC2" stroke-miterlimit="10" stroke-linecap="round" stroke-linejoin="round"/>
<path d="M8.13681 25.3931C7.21187 25.3931 6.46313 26.1331 6.46313 27.058C6.46313 27.9741 7.21187 28.7229 8.13681 28.7229C9.06176 28.7229 9.80173 27.983 9.80173 27.058C9.80173 26.1331 9.05295 25.3931 8.13681 25.3931Z" stroke="#007CC2" stroke-miterlimit="10" stroke-linecap="round" stroke-linejoin="round"/>
<path d="M21.2621 25.3931C20.3371 25.3931 19.5972 26.1331 19.5972 27.058C19.5972 27.9741 20.3459 28.7229 21.2621 28.7229C22.187 28.7229 22.927 27.983 22.927 27.058C22.927 26.1331 22.187 25.3931 21.2621 25.3931Z" stroke="#007CC2" stroke-miterlimit="10" stroke-linecap="round" stroke-linejoin="round"/>
</svg>
