<?xml version="1.0" encoding="utf-8"?>
<!-- Generator: Adobe Illustrator 19.1.0, SVG Export Plug-In . SVG Version: 6.00 Build 0)  -->
<svg version="1.1" id="Layer_1" xmlns="http://www.w3.org/2000/svg" xmlns:xlink="http://www.w3.org/1999/xlink" x="0px" y="0px"
	 viewBox="0 0 50 44" enable-background="new 0 0 50 44" xml:space="preserve">
<g>
	<path fill="#231F20" d="M49.3,3.3C48.7,3.2,48.2,3.5,48,4l-0.7,2.6H9.2l0.8-4c0-0.1,0-0.3,0-0.4C9.7,0.9,8.6,0,7.3,0H1
		C0.5,0,0,0.5,0,1s0.5,1,1,1h6.3C7.6,2,7.9,2.2,8,2.5l-1,5c0,0,0,0,0,0c0,0.1,0,0.3,0,0.4l4.3,18.4l-1.1,3.4c-0.2,0.7,0,1.5,0.5,2.1
		c0.5,0.6,1.2,0.9,1.9,0.9h30.2c0.6,0,1-0.5,1-1c0-0.6-0.5-1-1-1H12.7c-0.2,0-0.3-0.1-0.4-0.2c-0.1-0.1-0.1-0.2-0.1-0.3l1-2.9
		L42,23.7c1.8-0.2,3.2-1.5,3.7-3.2L50,4.6C50.1,4,49.8,3.5,49.3,3.3z M43.7,19.9c-0.3,0.9-1,1.6-2,1.7l-28.6,3.6L9.3,8.7h37.5
		L43.7,19.9z"/>
	<path fill="#231F20" d="M14.4,35.5c-2.3,0-4.2,1.9-4.2,4.2c0,2.3,1.9,4.2,4.2,4.2c2.3,0,4.2-1.9,4.2-4.2
		C18.6,37.4,16.7,35.5,14.4,35.5z M14.4,42c-1.2,0-2.2-1-2.2-2.2c0-1.2,1-2.2,2.2-2.2c1.2,0,2.2,1,2.2,2.2C16.6,41,15.6,42,14.4,42z
		"/>
	<path fill="#231F20" d="M39.6,35.5c-2.3,0-4.2,1.9-4.2,4.2c0,2.3,1.9,4.2,4.2,4.2c2.3,0,4.2-1.9,4.2-4.2
		C43.8,37.4,41.9,35.5,39.6,35.5z M39.6,42c-1.2,0-2.2-1-2.2-2.2c0-1.2,1-2.2,2.2-2.2s2.2,1,2.2,2.2C41.8,41,40.8,42,39.6,42z"/>
</g>
</svg>
