<svg width="40" height="40" viewBox="0 0 40 40" fill="none" xmlns="http://www.w3.org/2000/svg">
<path d="M31.64 17.83C30.46 12.74 25.89 8.94 20.44 8.94C15 8.94 10.43 12.74 9.23999 17.83" stroke="#0B2343" stroke-miterlimit="10" stroke-linecap="round" stroke-linejoin="round"/>
<path d="M22.52 31.7401C27.55 30.8201 31.45 26.6101 31.89 21.4301" stroke="#0B2343" stroke-miterlimit="10" stroke-linecap="round" stroke-linejoin="round"/>
<path d="M8.98999 21.41C9.42999 26.61 13.35 30.84 18.4 31.75" stroke="#0B2343" stroke-miterlimit="10" stroke-linecap="round" stroke-linejoin="round"/>
<path d="M20.44 6C12.48 6 6 12.48 6 20.44C6 28.4 12.48 34.88 20.44 34.88C28.4 34.88 34.88 28.4 34.88 20.44C34.88 12.48 28.4 6 20.44 6Z" stroke="#0B2343" stroke-miterlimit="10" stroke-linecap="round" stroke-linejoin="round"/>
<path d="M17.19 17.19C15.4 18.98 15.4 21.9 17.19 23.69C18.98 25.48 21.9 25.48 23.69 23.69C25.48 21.9 25.48 18.98 23.69 17.19C21.9 15.39 18.98 15.39 17.19 17.19Z" stroke="#0B2343" stroke-miterlimit="10" stroke-linecap="round" stroke-linejoin="round"/>
<path d="M18.4 31.7401C18.4 31.7401 20.48 19.09 8.98999 21.4" stroke="#0B2343" stroke-miterlimit="10" stroke-linecap="round" stroke-linejoin="round"/>
<path d="M22.52 31.7401C22.52 31.7401 20.31 19.06 31.8 21.38" stroke="#0B2343" stroke-miterlimit="10" stroke-linecap="round" stroke-linejoin="round"/>
<path d="M9.25 17.83H16.65" stroke="#0B2343" stroke-linecap="round" stroke-linejoin="round"/>
<path d="M24.23 17.83H31.63" stroke="#0B2343" stroke-linecap="round" stroke-linejoin="round"/>
</svg>
