<?xml version="1.0" encoding="utf-8"?>
<!-- Generator: Adobe Illustrator 19.0.1, SVG Export Plug-In . SVG Version: 6.00 Build 0)  -->
<!DOCTYPE svg PUBLIC "-//W3C//DTD SVG 1.1//EN" "http://www.w3.org/Graphics/SVG/1.1/DTD/svg11.dtd">
<svg version="1.1" id="Layer_1" xmlns="http://www.w3.org/2000/svg" xmlns:xlink="http://www.w3.org/1999/xlink" x="0px" y="0px"
	 viewBox="0 0 50 38" enable-background="new 0 0 50 38" xml:space="preserve">
<path d="M49.9,23.2c-0.2-0.5-0.8-0.8-1.4-0.6l-8.8,3.6v-2.6l9.6-4c0.5-0.2,0.8-0.8,0.6-1.4c-0.2-0.5-0.8-0.8-1.4-0.6l-8.8,3.6v-2.8
	l9.6-3.9c0.5-0.2,0.8-0.8,0.6-1.4c-0.2-0.5-0.8-0.8-1.4-0.6l-8.8,3.6v-2.6l9.6-4c0,0,0.1-0.1,0.1-0.1c0.1,0,0.1-0.1,0.2-0.1
	c0.1-0.1,0.1-0.1,0.1-0.2c0,0,0.1-0.1,0.1-0.1c0,0,0,0,0,0c0-0.1,0-0.1,0.1-0.2c0-0.1,0-0.1,0-0.2c0-0.1,0-0.1,0-0.2
	c0-0.1,0-0.2,0-0.2c0,0,0,0,0,0c0,0-0.1-0.1-0.1-0.1c0-0.1-0.1-0.1-0.1-0.2c-0.1-0.1-0.1-0.1-0.2-0.1c0,0-0.1-0.1-0.1-0.1L33.8,0.1
	c-0.3-0.1-0.6-0.1-0.9,0L16.5,6.9l-4.4,1.8c0,0,0,0,0,0L0.6,13.5c0,0-0.1,0.1-0.1,0.1c-0.1,0-0.1,0.1-0.2,0.1
	c-0.1,0.1-0.1,0.1-0.1,0.2c0,0-0.1,0.1-0.1,0.1c0,0,0,0,0,0c0,0.1,0,0.1-0.1,0.2c0,0.1,0,0.1,0,0.2c0,0.1,0,0.1,0,0.2
	c0,0.1,0,0.2,0,0.2c0,0,0,0,0,0c0,0,0,0,0,0.1c0.1,0.1,0.2,0.3,0.3,0.4c0,0,0.1,0.1,0.1,0.1c0,0,0,0,0.1,0L16,23
	c0.1,0.1,0.3,0.1,0.5,0.1c0.1,0,0.3,0,0.4-0.1L27,18.9v2.6l-10.5,4.3l-15-7.4c-0.5-0.3-1.2,0-1.4,0.5c-0.3,0.5-0.1,1.1,0.5,1.4
	L16,28c0.1,0.1,0.3,0.1,0.5,0.1c0.1,0,0.3,0,0.4-0.1L27,23.8v2.8l-10.5,4.3l-15-7.4C1,23.2,0.4,23.4,0.1,24s-0.1,1.1,0.5,1.4L16,33
	c0.1,0.1,0.3,0.1,0.5,0.1c0.1,0,0.3,0,0.4-0.1L27,28.9v2.6l-10.5,4.3l-15-7.4c-0.5-0.3-1.2-0.1-1.4,0.5S0.1,30,0.6,30.2L16,37.9
	c0.1,0.1,0.3,0.1,0.5,0.1c0.1,0,0.3,0,0.4-0.1l11.6-4.8c0,0,0,0,0,0l10.6-4.4c0,0,0,0,0,0l10.2-4.2C49.9,24.4,50.1,23.8,49.9,23.2z
	 M33.3,2.2l13.1,6.5l-7.6,3.2L25.9,5.2L33.3,2.2z M16.5,20.9L3.6,14.5l8.9-3.7l13,6.4L16.5,20.9z"/>
</svg>
