<svg width="40" height="40" viewBox="0 0 40 40" fill="none" xmlns="http://www.w3.org/2000/svg">
<path d="M30.6015 19.5879L28.7908 30.4142L6.75127 26.743L8.97399 13.4443L22.1478 15.7045" stroke="#0B2343" stroke-miterlimit="10" stroke-linecap="round" stroke-linejoin="round"/>
<path d="M7.35063 23.1592C9.32358 23.4838 10.6597 25.3569 10.335 27.3298" stroke="#0B2343" stroke-miterlimit="10" stroke-linecap="round" stroke-linejoin="round"/>
<path d="M25.0322 29.7146C25.3944 27.7542 27.3299 26.3057 29.4152 26.6303" stroke="#0B2343" stroke-miterlimit="10" stroke-linecap="round" stroke-linejoin="round"/>
<path d="M12.5452 14.0437C12.2206 16.0166 10.3476 17.3528 8.37463 17.0281" stroke="#0B2343" stroke-miterlimit="10" stroke-linecap="round" stroke-linejoin="round"/>
<path d="M32.3871 15.7044C32.3871 18.5265 30.102 20.8241 27.2675 20.8241C24.4454 20.8241 22.1478 18.5389 22.1478 15.7044C22.1478 12.8823 24.4329 10.5847 27.2675 10.5847C30.0895 10.5972 32.3871 12.8823 32.3871 15.7044Z" stroke="#0B2343" stroke-miterlimit="10" stroke-linecap="round" stroke-linejoin="round"/>
<path d="M32.7368 7.26327C39.7545 14.281 39.7545 25.7066 32.7368 32.7367C25.7191 39.7544 14.2934 39.7544 7.26327 32.7367C0.245577 25.719 0.245577 14.2934 7.26327 7.26327C14.2934 0.245577 25.7191 0.245577 32.7368 7.26327Z" stroke="#0B2343" stroke-miterlimit="10" stroke-linecap="round" stroke-linejoin="round"/>
<path d="M32.7368 32.7244L7.27579 7.26343" stroke="#0B2343" stroke-miterlimit="10" stroke-linecap="round" stroke-linejoin="round"/>
<path d="M16.8533 23.7834C17.3154 24.3702 18.0895 24.8947 18.7014 25.0071C19.6754 25.1944 20.6118 24.6574 20.7741 23.7958C20.9365 22.9467 20.1748 22.3598 19.3007 21.9103C18.4017 21.4233 17.6649 20.8739 17.8272 20.0248C17.9895 19.1756 18.9136 18.6262 19.9001 18.8135C20.5619 18.9384 21.0739 19.363 21.2861 19.8874" stroke="#0B2343" stroke-miterlimit="10" stroke-linecap="round" stroke-linejoin="round"/>
<path d="M20.0625 17.9644L19.9001 18.8135" stroke="#0B2343" stroke-miterlimit="10" stroke-linecap="round" stroke-linejoin="round"/>
<path d="M18.6764 25.1067L18.5141 25.9558" stroke="#0B2343" stroke-miterlimit="10" stroke-linecap="round" stroke-linejoin="round"/>
<path d="M26.1811 16.9779C26.4933 17.2526 26.9927 17.4649 27.3423 17.4649C27.9042 17.4649 28.3663 17.0653 28.3663 16.5658C28.3663 16.0664 27.8792 15.8291 27.3423 15.6668C26.7929 15.492 26.3184 15.2672 26.3184 14.7677C26.3184 14.2682 26.7804 13.8687 27.3423 13.8687C27.7169 13.8687 28.0542 14.0559 28.229 14.3182" stroke="#0B2343" stroke-miterlimit="10" stroke-linecap="round" stroke-linejoin="round"/>
<path d="M27.3298 13.4067V13.8937" stroke="#0B2343" stroke-miterlimit="10" stroke-linecap="round" stroke-linejoin="round"/>
<path d="M27.3298 17.5276V18.0146" stroke="#0B2343" stroke-miterlimit="10" stroke-linecap="round" stroke-linejoin="round"/>
</svg>
