<svg width="40" height="40" viewBox="0 0 40 40" fill="none" xmlns="http://www.w3.org/2000/svg">
<path d="M8.88367 11.7271V9.81226H30.1601V11.7271" stroke="#0B2343" stroke-miterlimit="10" stroke-linecap="round" stroke-linejoin="round"/>
<path d="M28.0602 9.81226L29.161 33.9194L12.5191 33.9379L13.6569 9.81226" stroke="#0B2343" stroke-miterlimit="10" stroke-linecap="round" stroke-linejoin="round"/>
<path d="M12.8706 26.5004H9.76245L11.4553 9.81226" stroke="#0B2343" stroke-miterlimit="10" stroke-linecap="round" stroke-linejoin="round"/>
<path d="M24.5264 33.8916C24.5264 31.5142 26.4968 29.5993 28.9204 29.5901" stroke="#0B2343" stroke-miterlimit="10" stroke-linecap="round" stroke-linejoin="round"/>
<path d="M12.7226 29.6177C15.1463 29.6177 16.9871 31.5233 16.9964 33.9007" stroke="#0B2343" stroke-miterlimit="10" stroke-linecap="round" stroke-linejoin="round"/>
<path d="M23.5181 22.3378C24.1009 21.6625 24.5449 20.6357 24.5449 19.8864C24.5449 18.693 23.6938 17.7217 22.6577 17.7217C21.6124 17.7217 21.0945 18.7578 20.7707 19.8864C20.4007 21.0519 19.9196 22.051 18.8835 22.051C17.8382 22.051 16.9964 21.0797 16.9964 19.8864C16.9964 19.0815 17.3849 18.3785 17.9492 18.0084" stroke="#0B2343" stroke-miterlimit="10" stroke-linecap="round" stroke-linejoin="round"/>
<path d="M15.5719 19.886H25.9418" stroke="#0B2343" stroke-miterlimit="10" stroke-linecap="round" stroke-linejoin="round"/>
<path d="M8.83737 15.3163C7.25552 15.1406 6.08997 13.79 6.08997 12.1619V10.062C6.08997 8.30434 7.37572 7 9.12408 7H29.9472C31.7049 7 33 8.30434 33 10.062V12.1619C33 13.8177 31.8344 15.1776 30.2156 15.3256" stroke="#0B2343" stroke-miterlimit="10" stroke-linecap="round" stroke-linejoin="round"/>
</svg>
