<?xml version="1.0" encoding="utf-8"?>
<!-- Generator: Adobe Illustrator 22.1.0, SVG Export Plug-In . SVG Version: 6.00 Build 0)  -->
<svg version="1.1" id="Layer_1" xmlns="http://www.w3.org/2000/svg" xmlns:xlink="http://www.w3.org/1999/xlink" x="0px" y="0px"
	 viewBox="0 0 30 30" style="enable-background:new 0 0 30 30;" xml:space="preserve">
<style type="text/css">
	.st0{fill:#007DC3;}
</style>
<g>
	<g>
		<path class="st0" d="M2.3,23.3c-0.1,0-0.2,0-0.3-0.1S1.9,23,1.9,22.9L1.9,1c0-0.2,0.2-0.4,0.4-0.4l13.4,0h0c0.1,0,0.2,0,0.3,0.1
			C16,0.8,16.1,0.9,16.1,1l0,13.7c0,0.2-0.2,0.4-0.4,0.4c0,0,0,0,0,0c-0.2,0-0.4-0.2-0.4-0.4l0-13.3l-12.7,0l0,21.1l12.6,0v-1
			c0-0.2,0.2-0.4,0.4-0.4s0.4,0.2,0.4,0.4v1.3c0,0.2-0.2,0.4-0.4,0.4L2.3,23.3L2.3,23.3z"/>
	</g>
	<g>
		<path class="st0" d="M12.1,23.3c-0.2,0-0.4-0.2-0.4-0.4c0-1.6,1-3,2.6-3.7c0.2-0.1,0.4,0,0.5,0.2c0.1,0.2,0,0.4-0.2,0.5
			c-1.3,0.5-2.1,1.7-2.1,3C12.5,23.1,12.3,23.3,12.1,23.3L12.1,23.3z"/>
	</g>
	<g>
		<path class="st0" d="M15.6,5.1C15.6,5.1,15.6,5.1,15.6,5.1c-2.2,0-4-1.9-4-4.1c0-0.2,0.2-0.4,0.4-0.4s0.4,0.2,0.4,0.4
			c0,1.8,1.4,3.3,3.3,3.4c0.2,0,0.4,0.2,0.4,0.4C16,5,15.8,5.1,15.6,5.1z"/>
	</g>
	<g>
		<path class="st0" d="M2.4,4.9C2.3,4.9,2.3,4.9,2.4,4.9c-0.3,0-0.4-0.2-0.4-0.4c0-0.2,0.2-0.3,0.4-0.4c0.9,0,1.6-0.3,2.2-0.9
			C5.1,2.6,5.5,1.8,5.4,1c0-0.2,0.2-0.4,0.4-0.4c0.3,0,0.4,0.2,0.4,0.4c0,1-0.4,2-1.1,2.7C4.3,4.5,3.4,4.9,2.4,4.9z"/>
	</g>
	<g>
		<path class="st0" d="M5.9,23.3c-0.2,0-0.4-0.2-0.4-0.4c0-0.8-0.3-1.6-0.9-2.2c-0.6-0.6-1.4-0.9-2.3-0.9c0,0,0,0,0,0h0
			c-0.2,0-0.4-0.2-0.4-0.4c0-0.2,0.2-0.4,0.4-0.4c1.1,0,2.1,0.4,2.8,1.1c0.8,0.7,1.2,1.7,1.2,2.8C6.3,23.1,6.1,23.3,5.9,23.3
			L5.9,23.3z"/>
	</g>
	<g>
		<path class="st0" d="M17.9,24.6c-0.1,0-0.2,0-0.3-0.1c-3.6-3.8-4.4-6.3-5.9-10.7c-0.2-0.7-0.4-1.3-0.7-2.1c-0.4-1.1,0.3-2,1.2-2.3
			c0.9-0.3,1.9,0,2.3,1.2l1.5,4.4c0.7,0.4,1.3,0.4,1.6,0.2c0.4-0.4,0.3-1.5-0.2-2.8c-0.5-1.2-1.4-2.2-2-2.6
			c-0.2-0.1-0.2-0.4-0.1-0.5C15.5,9,15.7,9,15.9,9.1c1,0.7,1.8,1.8,2.3,2.9c0.5,1.3,0.8,2.9,0,3.6c-0.5,0.5-1.4,0.5-2.5-0.1
			c-0.1,0-0.2-0.1-0.2-0.2l-1.6-4.6C13.7,10,13,9.8,12.5,10c-0.5,0.2-0.9,0.7-0.7,1.4c0.2,0.7,0.5,1.4,0.7,2.1
			c1.4,4.4,2.2,6.8,5.7,10.4c0.1,0.1,0.1,0.4,0,0.5C18.1,24.5,18,24.6,17.9,24.6z"/>
	</g>
	<g>
		<path class="st0" d="M19.4,29.2c-0.1,0-0.2-0.1-0.3-0.2l-2.6-3.8c-0.1-0.1-0.1-0.2-0.1-0.3c0-0.1,0.1-0.2,0.2-0.2l7.1-4.9
			c0.2-0.1,0.4-0.1,0.5,0.1l2.6,3.8c0.1,0.1,0.1,0.2,0.1,0.3c0,0.1-0.1,0.2-0.2,0.2l-7.1,4.9C19.5,29.1,19.5,29.2,19.4,29.2z
			 M17.3,25.1l2.2,3.2l6.5-4.5l-2.2-3.2L17.3,25.1z"/>
	</g>
	<g>
		<path class="st0" d="M22.7,21.3c-0.1,0-0.1,0-0.2,0c-0.2-0.1-0.6-0.3-0.5-6.7c0-5.5-4.9-7.9-6.4-8.6c-0.2-0.1-0.3-0.3-0.2-0.5
			c0.1-0.2,0.3-0.3,0.5-0.2c1.6,0.7,6.9,3.3,6.8,9.3c0,4.8,0.2,5.9,0.2,6.1c0,0,0,0,0,0.1c0.1,0.2,0.1,0.4-0.1,0.5
			C22.8,21.3,22.7,21.3,22.7,21.3z"/>
	</g>
	<g>
		<path class="st0" d="M7.4,14.3c-1.1,0-1.9-1-1.9-2.2c0-0.8,0.4-1.5,1-1.9c0.2-0.1,0.4-0.1,0.5,0.1C7,10.6,7,10.8,6.8,10.9
			c-0.4,0.2-0.6,0.7-0.6,1.2c0,0.8,0.5,1.4,1.2,1.4c0.5,0,0.9-0.4,1.2-1.5c0.3-0.9,0.7-2,1.9-2c0.4,0,0.8,0.2,1.2,0.5
			c0.2,0.1,0.2,0.4,0,0.5c-0.1,0.2-0.4,0.2-0.5,0c-0.2-0.2-0.4-0.3-0.7-0.3c-0.4,0-0.8,0.2-1.2,1.5C9.1,12.9,8.6,14.3,7.4,14.3z"/>
	</g>
	<g>
		<path class="st0" d="M11.7,12.5H5.1c-0.2,0-0.4-0.2-0.4-0.4s0.2-0.4,0.4-0.4h6.6c0.2,0,0.4,0.2,0.4,0.4S11.9,12.5,11.7,12.5z"/>
	</g>
</g>
</svg>
