<svg width="40" height="40" viewBox="0 0 40 40" fill="none" xmlns="http://www.w3.org/2000/svg">
<path d="M21.9965 22.1351L14.7112 25.3127L4.45862 20.1643" stroke="#0B2343" stroke-miterlimit="10" stroke-linecap="round" stroke-linejoin="round"/>
<path d="M36.3014 16.3333L29.8022 19.0348" stroke="#0B2343" stroke-miterlimit="10" stroke-linecap="round" stroke-linejoin="round"/>
<path d="M36.3014 13.0118L25.8938 7.83008L4.45862 16.8315" stroke="#0B2343" stroke-miterlimit="10" stroke-linecap="round" stroke-linejoin="round"/>
<path d="M29.8022 15.8791L36.3014 13.0115" stroke="#0B2343" stroke-miterlimit="10" stroke-linecap="round" stroke-linejoin="round"/>
<path d="M4.45862 16.8313L14.7112 21.9798L21.9965 18.78" stroke="#0B2343" stroke-miterlimit="10" stroke-linecap="round" stroke-linejoin="round"/>
<path d="M21.9965 25.5672L14.7112 28.7227L4.45862 23.5742" stroke="#0B2343" stroke-miterlimit="10" stroke-linecap="round" stroke-linejoin="round"/>
<path d="M36.3014 19.7434L29.8022 22.4671" stroke="#0B2343" stroke-miterlimit="10" stroke-linecap="round" stroke-linejoin="round"/>
<path d="M36.3014 23.0208L14.7112 32.0001L4.45862 26.8517" stroke="#0B2343" stroke-miterlimit="10" stroke-linecap="round" stroke-linejoin="round"/>
<path d="M21.9965 28.9662V18.78L12.0761 13.6316" stroke="#0B2343" stroke-miterlimit="10" stroke-linecap="round" stroke-linejoin="round"/>
<path d="M19.3503 10.5759L29.8021 15.8794V25.6891" stroke="#0B2343" stroke-miterlimit="10" stroke-linecap="round" stroke-linejoin="round"/>
<path d="M21.753 16.2889C22.2401 16.4771 22.9488 16.2224 23.0927 15.7021C23.2366 15.2038 23.1591 14.6945 22.5834 14.4066C22.0187 14.1188 21.3433 14.2738 20.9448 14.6281C20.513 14.9824 19.8929 15.1484 19.3172 14.8606C18.7525 14.5727 18.6418 14.0634 18.8743 13.5984C19.0293 13.2884 19.3836 13.1112 19.7601 13.1223" stroke="#0B2343" stroke-miterlimit="10" stroke-linecap="round" stroke-linejoin="round"/>
<path d="M18.4646 13.0669L19.0735 13.3658" stroke="#0B2343" stroke-miterlimit="10" stroke-linecap="round" stroke-linejoin="round"/>
<path d="M23.0151 15.8794L23.5687 16.1562" stroke="#0B2343" stroke-miterlimit="10" stroke-linecap="round" stroke-linejoin="round"/>
</svg>
