<svg width="40" height="40" viewBox="0 0 40 40" fill="none" xmlns="http://www.w3.org/2000/svg">
<path d="M30.3028 25.4903L29.0286 33.0001L5.48422 29.0639L7.85632 14.873L19.4162 16.81" stroke="#0B2343" stroke-miterlimit="10" stroke-linecap="round" stroke-linejoin="round"/>
<path d="M6.12643 25.252C8.23953 25.6041 9.65869 27.6033 9.30651 29.706" stroke="#0B2343" stroke-miterlimit="10" stroke-linecap="round" stroke-linejoin="round"/>
<path d="M25.02 32.2438C25.4136 30.1514 27.361 28.6391 29.7019 29.0431" stroke="#0B2343" stroke-miterlimit="10" stroke-linecap="round" stroke-linejoin="round"/>
<path d="M11.6785 15.5151C11.3263 17.6282 9.32719 19.0473 7.22446 18.6951" stroke="#0B2343" stroke-miterlimit="10" stroke-linecap="round" stroke-linejoin="round"/>
<path d="M24.6264 18.3534C24.2327 18.4466 23.777 18.4881 23.3523 18.4881C20.338 18.4881 17.8832 16.0435 17.8832 13.0292C17.8832 10.015 20.3277 7.56006 23.3523 7.56006C26.3769 7.56006 28.8215 10.0046 28.8215 13.0292C28.8215 13.599 28.7387 14.2204 28.5729 14.7384" stroke="#0B2343" stroke-miterlimit="10" stroke-linecap="round" stroke-linejoin="round"/>
<path d="M35.3058 20.0522C35.3058 23.0665 32.8612 25.5214 29.8366 25.5214C26.812 25.5214 24.3674 23.0768 24.3674 20.0522C24.3674 17.0276 26.812 14.583 29.8366 14.583C32.8612 14.583 35.3058 17.0379 35.3058 20.0522Z" stroke="#0B2343" stroke-miterlimit="10" stroke-linecap="round" stroke-linejoin="round"/>
<path d="M15.5007 26.1117C16.029 26.7746 16.9199 27.365 17.6139 27.4997C18.7326 27.7068 19.789 27.0853 19.9755 26.1117C20.1619 25.138 19.2815 24.4647 18.2871 23.9571C17.2616 23.4081 16.4122 22.7866 16.5986 21.8026C16.7851 20.8289 17.8417 20.2074 18.9604 20.4146C19.7165 20.5596 20.307 21.0361 20.5556 21.6369" stroke="#0B2343" stroke-miterlimit="10" stroke-linecap="round" stroke-linejoin="round"/>
<path d="M19.1986 19.1094L17.3755 28.8151" stroke="#0B2343" stroke-miterlimit="10" stroke-linecap="round" stroke-linejoin="round"/>
<path d="M28.2932 22.0201C28.7697 22.4345 29.5052 22.7452 30.0439 22.7452C30.8932 22.7452 31.5872 22.1444 31.5872 21.3986C31.5872 20.6528 30.8518 20.2903 30.0439 20.0521C29.2152 19.7931 28.5005 19.4513 28.5005 18.7055C28.5005 17.9597 29.1945 17.3589 30.0439 17.3589C30.6136 17.3589 31.121 17.6282 31.38 18.0425" stroke="#0B2343" stroke-miterlimit="10" stroke-linecap="round" stroke-linejoin="round"/>
<path d="M30.0439 16.6338V17.3692" stroke="#0B2343" stroke-miterlimit="10" stroke-linecap="round" stroke-linejoin="round"/>
<path d="M30.0439 22.7556V23.4911" stroke="#0B2343" stroke-miterlimit="10" stroke-linecap="round" stroke-linejoin="round"/>
<path d="M21.7157 14.9454C22.1922 15.3598 22.9276 15.6705 23.4662 15.6705C24.3156 15.6705 25.0097 15.0697 25.0097 14.3239C25.0097 13.5781 24.2742 13.2156 23.4662 12.9773C22.6376 12.7184 21.9228 12.3765 21.9228 11.6307C21.9228 10.8849 22.6168 10.2842 23.4662 10.2842C24.0359 10.2842 24.5435 10.5535 24.8025 10.9678" stroke="#0B2343" stroke-miterlimit="10" stroke-linecap="round" stroke-linejoin="round"/>
<path d="M23.4662 9.54883V10.2843" stroke="#0B2343" stroke-miterlimit="10" stroke-linecap="round" stroke-linejoin="round"/>
<path d="M23.4662 15.8882V16.2921" stroke="#0B2343" stroke-miterlimit="10" stroke-linecap="round" stroke-linejoin="round"/>
</svg>
