<svg width="40" height="40" viewBox="0 0 40 40" fill="none" xmlns="http://www.w3.org/2000/svg">
<path d="M32.96 8V10.04H31.16V8H29.0701V10.04H27.0701V8H25.0001V15.5701L26.05 16.9501V32.0601H34.0701V16.9501L35.0001 15.5701V8H32.96Z" stroke="#0B2343" stroke-miterlimit="10" stroke-linecap="round" stroke-linejoin="round"/>
<path d="M22.0601 32.0601V27.5801C22.0601 26.7001 21.35 25.97 20.47 25.97H20.55C19.67 25.97 19.0201 26.6901 19.0201 27.5801V32.0601" stroke="#0B2343" stroke-miterlimit="10" stroke-linecap="round" stroke-linejoin="round"/>
<path d="M31.03 21.1V19.05C31.03 18.5 30.57 18.05 30.04 18.05C29.51 18.05 29.0701 18.5 29.0701 19.05V21.1H31.03Z" stroke="#0B2343" stroke-miterlimit="10" stroke-linecap="round" stroke-linejoin="round"/>
<path d="M13.96 8V10.04H12.16V8H10.0701V10.04H8.07007V8H6.00006V15.5701L7.05005 16.9501V32.0601H15.0701V16.9501L16.0001 15.5701V8H13.96Z" stroke="#0B2343" stroke-miterlimit="10" stroke-linecap="round" stroke-linejoin="round"/>
<path d="M12.03 21.1V19.05C12.03 18.5 11.57 18.05 11.04 18.05C10.51 18.05 10.0701 18.5 10.0701 19.05V21.1H12.03Z" stroke="#0B2343" stroke-miterlimit="10" stroke-linecap="round" stroke-linejoin="round"/>
<path d="M26.05 21.0601H15.05V32.0601H26.05V21.0601Z" stroke="#0B2343" stroke-miterlimit="10" stroke-linecap="round" stroke-linejoin="round"/>
</svg>
