<?xml version="1.0" encoding="utf-8"?>
<!-- Generator: Adobe Illustrator 23.0.0, SVG Export Plug-In . SVG Version: 6.00 Build 0)  -->
<svg version="1.1" id="Layer_1" xmlns="http://www.w3.org/2000/svg" xmlns:xlink="http://www.w3.org/1999/xlink" x="0px" y="0px"
	 viewBox="0 0 50 19" style="enable-background:new 0 0 50 19;" xml:space="preserve">
<style type="text/css">
	.st0{fill:#0B2343;}
</style>
<g>
	<path class="st0" d="M0,18.7L8.9,19c0,0,9.2-2.3,19-2.8c11.6-0.6,22.2,1,22.2,1s-11.6-3.8-25-3.4C11.3,14.3,0,18.7,0,18.7z"/>
	<g>
		<path class="st0" d="M19,12.5l-2-2.1c-1.1,1-2.2,1.7-3.8,1.7c-2.5,0-4.2-2.1-4.2-4.6v0C8.9,5,10.6,3,13.1,3c1.5,0,2.6,0.6,3.7,1.7
			l2-2.4C17.5,1,15.9,0,13.1,0C8.6,0,5.5,3.4,5.5,7.6v0c0,3.2,1.8,5.9,4.6,7c2.4-0.5,5.2-1.1,8.2-1.4C18.6,13,18.8,12.8,19,12.5z"/>
		<path class="st0" d="M27.4,12.6c1.6,0,3.2,0.1,4.8,0.2c0.3-0.5,0.5-1.1,0.5-1.9v0c0-2-1-2.9-2.7-3.6c1-0.6,1.9-1.5,1.9-3.2v0
			c0-1-0.3-1.8-1-2.5C30,0.7,28.7,0.3,27,0.3h-6.8V13c1.5-0.1,3.1-0.3,4.7-0.3C25.8,12.6,26.6,12.6,27.4,12.6z M23.4,3.1h3.2
			c1.4,0,2.1,0.5,2.1,1.5v0c0,1.1-0.9,1.5-2.3,1.5h-3V3.1z M23.4,8.9h3.7c1.6,0,2.4,0.6,2.4,1.6v0c0,1.1-0.9,1.6-2.3,1.6h-3.8V8.9z"
			/>
		<path class="st0" d="M39.6,9.9l2.7,4.2c1.5,0.3,2.8,0.6,3.9,0.8h0.4l-5.1-7.5l4.9-7.1h-3.7L39.7,5l-3.1-4.7h-3.8l4.9,7.2L34,12.9
			c1.2,0.1,2.3,0.2,3.4,0.4L39.6,9.9z"/>
	</g>
</g>
</svg>
