<svg width="70" height="70" viewBox="0 0 70 70" fill="none" xmlns="http://www.w3.org/2000/svg">
<circle cx="34.3519" cy="34.3519" r="34.3519" fill="#402A55"/>
<path d="M7.77808 46.9085C7.79047 46.592 7.89079 46.2861 8.06685 46.0278C8.24292 45.7695 8.48717 45.57 8.76995 45.4535C9.05274 45.337 9.36191 45.3086 9.65994 45.3715C9.95796 45.4345 10.232 45.5862 10.4489 45.8083L10.052 46.2883C9.95644 46.1816 9.84155 46.0958 9.71395 46.0356C9.58636 45.9755 9.44858 45.9423 9.30859 45.9379C9.19285 45.9401 9.07872 45.9666 8.97302 46.0157C8.86733 46.0649 8.77223 46.1357 8.69342 46.2241C8.6146 46.3124 8.55369 46.4163 8.51432 46.5297C8.47496 46.6431 8.45794 46.7636 8.46429 46.884C8.45701 47.0051 8.47331 47.1265 8.51222 47.241C8.55112 47.3554 8.61183 47.4604 8.69069 47.5497C8.76955 47.6391 8.86494 47.7109 8.97113 47.7609C9.07731 47.8109 9.19209 47.838 9.30859 47.8406C9.45263 47.8399 9.59502 47.8085 9.72694 47.7482C9.85885 47.6879 9.97749 47.6001 10.0755 47.4902L10.4691 47.9422C10.3222 48.1204 10.1384 48.2615 9.93156 48.355C9.72472 48.4484 9.50021 48.4918 9.27495 48.4818C9.07737 48.4856 8.88109 48.4478 8.69783 48.3708C8.51457 48.2938 8.3481 48.1791 8.20837 48.0336C8.06864 47.888 7.95852 47.7146 7.88459 47.5237C7.81066 47.3328 7.77443 47.1283 7.77808 46.9225" fill="#FEFEFE"/>
<path d="M12.319 46.8555C12.6285 46.8555 12.8101 46.6803 12.8101 46.4245C12.8101 46.1372 12.6184 45.99 12.3056 45.99H11.6665V46.8625L12.319 46.8555ZM11.0273 45.3804H12.3728C12.5267 45.3701 12.6811 45.3922 12.8266 45.4451C12.9722 45.4981 13.1062 45.5809 13.2205 45.6887C13.3064 45.7813 13.3732 45.8912 13.4166 46.0118C13.46 46.1323 13.4791 46.2609 13.4728 46.3895C13.4818 46.5963 13.4255 46.8004 13.3125 46.9707C13.1995 47.1409 13.036 47.2679 12.8471 47.332L13.5602 48.4183H12.8101L12.1845 47.4442H11.6799V48.4183H11.0408L11.0273 45.3804Z" fill="#FEFEFE"/>
<path d="M16.3822 46.9087C16.3863 46.785 16.3664 46.6618 16.3238 46.5463C16.2812 46.4308 16.2166 46.3255 16.1341 46.2366C16.0515 46.1476 15.9526 46.0769 15.8433 46.0286C15.7339 45.9804 15.6163 45.9555 15.4976 45.9556C15.3797 45.955 15.2629 45.9793 15.1544 46.0271C15.0458 46.0749 14.9476 46.1452 14.8659 46.2336C14.7841 46.322 14.7204 46.4269 14.6787 46.5417C14.6369 46.6565 14.618 46.779 14.623 46.9016C14.6189 47.0255 14.6388 47.1489 14.6814 47.2645C14.724 47.3802 14.7885 47.4857 14.871 47.575C14.9535 47.6642 15.0524 47.7352 15.1617 47.7839C15.2711 47.8325 15.3887 47.8578 15.5077 47.8582C15.6254 47.8583 15.7419 47.8336 15.8503 47.7857C15.9587 47.7377 16.0566 47.6675 16.1383 47.5791C16.2199 47.4908 16.2837 47.3862 16.3256 47.2716C16.3675 47.157 16.3868 47.0347 16.3822 46.9122V46.9087ZM13.9536 46.9122C13.9722 46.4972 14.1435 46.1057 14.4319 45.8189C14.7204 45.5321 15.1039 45.3721 15.5026 45.3721C15.9014 45.3721 16.2848 45.5321 16.5733 45.8189C16.8617 46.1057 17.0331 46.4972 17.0516 46.9122C17.0331 47.3271 16.8617 47.7186 16.5733 48.0054C16.2848 48.2922 15.9014 48.4522 15.5026 48.4522C15.1039 48.4522 14.7204 48.2922 14.4319 48.0054C14.1435 47.7186 13.9722 47.3271 13.9536 46.9122Z" fill="#FEFEFE"/>
<path d="M17.4524 47.9736L17.8291 47.5006C18.0671 47.7296 18.3765 47.8615 18.7003 47.872C18.9627 47.872 19.1208 47.7634 19.1208 47.5847C19.1208 47.4165 19.0199 47.3289 18.5321 47.1992C17.9468 47.0451 17.5667 46.8734 17.5667 46.2707C17.5667 45.7206 17.9939 45.3527 18.5759 45.3527C18.9683 45.3471 19.3503 45.4847 19.6556 45.7416L19.3192 46.2427C19.1023 46.0649 18.838 45.9609 18.5624 45.9449C18.3168 45.9449 18.189 46.0605 18.189 46.2077C18.189 46.4074 18.3135 46.4704 18.818 46.6071C19.4067 46.7683 19.7431 46.989 19.7431 47.5181C19.7431 48.1208 19.2991 48.4607 18.67 48.4607C18.215 48.462 17.7755 48.2886 17.4355 47.9736" fill="#FEFEFE"/>
<path d="M20.1131 47.9737L20.4898 47.5006C20.7278 47.7297 21.0371 47.8616 21.361 47.8721C21.6234 47.8721 21.7815 47.7634 21.7815 47.5847C21.7815 47.4166 21.6839 47.329 21.1962 47.1993C20.6075 47.0451 20.2308 46.8734 20.2308 46.2708C20.2308 45.7207 20.6546 45.3528 21.2399 45.3528C21.6335 45.3464 22.0168 45.484 22.323 45.7417L21.9867 46.2427C21.7677 46.0662 21.5028 45.9625 21.2265 45.9449C20.9809 45.9449 20.8531 46.0605 20.8531 46.2077C20.8531 46.4074 20.9775 46.4705 21.4821 46.6072C22.0741 46.7683 22.4071 46.9891 22.4071 47.5182C22.4071 48.1208 21.9631 48.4607 21.3375 48.4607C20.8813 48.4629 20.4405 48.2894 20.0996 47.9737" fill="#FEFEFE"/>
<path d="M25.6828 47.1637H24.9428V47.8294H25.703C25.9889 47.8294 26.1571 47.7278 26.1571 47.5C26.1571 47.2968 26.0125 47.1707 25.6828 47.1707V47.1637ZM25.9957 46.2842C25.9957 46.0845 25.8443 45.9723 25.5752 45.9723H24.9428V46.6136H25.5247C25.8073 46.6136 25.9856 46.519 25.9856 46.2947L25.9957 46.2842ZM24.3138 45.3872H25.6593C25.7968 45.3776 25.9348 45.3965 26.0653 45.4428C26.1958 45.4891 26.3162 45.5619 26.4195 45.657C26.4851 45.724 26.5369 45.8042 26.5716 45.8928C26.6063 45.9814 26.6232 46.0764 26.6213 46.1721C26.6255 46.3083 26.5915 46.4428 26.5233 46.5592C26.4552 46.6756 26.356 46.7688 26.2379 46.8273C26.3969 46.8681 26.5377 46.9644 26.6369 47.1002C26.736 47.236 26.7875 47.4031 26.7828 47.5736C26.7828 48.1272 26.3489 48.4076 25.6896 48.4076H24.3037L24.3138 45.3872Z" fill="#FEFEFE"/>
<path d="M29.6689 46.9087C29.6729 46.785 29.653 46.6618 29.6104 46.5463C29.5678 46.4308 29.5032 46.3255 29.4207 46.2366C29.3381 46.1476 29.2392 46.0769 29.1299 46.0286C29.0205 45.9804 28.903 45.9555 28.7842 45.9556C28.6663 45.955 28.5496 45.9793 28.441 46.0271C28.3324 46.0749 28.2343 46.1452 28.1525 46.2336C28.0707 46.322 28.007 46.4269 27.9653 46.5417C27.9236 46.6565 27.9046 46.779 27.9096 46.9016C27.9056 47.0255 27.9254 47.1489 27.968 47.2645C28.0106 47.3802 28.0751 47.4857 28.1576 47.575C28.2401 47.6642 28.339 47.7352 28.4483 47.7839C28.5577 47.8325 28.6754 47.8578 28.7943 47.8582C28.9122 47.8588 29.0289 47.8345 29.1375 47.7867C29.2461 47.7389 29.3442 47.6686 29.426 47.5802C29.5077 47.4918 29.5714 47.3869 29.6132 47.2721C29.6549 47.1573 29.6739 47.0348 29.6689 46.9122V46.9087ZM27.2402 46.9122C27.2588 46.4972 27.4301 46.1057 27.7186 45.8189C28.007 45.5321 28.3905 45.3721 28.7892 45.3721C29.188 45.3721 29.5714 45.5321 29.8599 45.8189C30.1484 46.1057 30.3197 46.4972 30.3382 46.9122C30.3197 47.3271 30.1484 47.7186 29.8599 48.0054C29.5714 48.2922 29.188 48.4522 28.7892 48.4522C28.3905 48.4522 28.007 48.2922 27.7186 48.0054C27.4301 47.7186 27.2588 47.3271 27.2402 46.9122Z" fill="#FEFEFE"/>
<path d="M32.2525 46.8554C32.5653 46.8554 32.7436 46.6802 32.7436 46.4244C32.7436 46.1371 32.5519 45.99 32.2391 45.99H31.6033V46.8624L32.2525 46.8554ZM30.9608 45.3803H32.3063C32.4602 45.3703 32.6145 45.3924 32.76 45.4453C32.9056 45.4983 33.0395 45.581 33.154 45.6886C33.2387 45.7819 33.3044 45.8921 33.3471 46.0125C33.3899 46.133 33.4089 46.2612 33.4029 46.3894C33.4127 46.5959 33.3572 46.7999 33.2447 46.9703C33.1323 47.1406 32.9692 47.2677 32.7806 47.332L33.4904 48.4182H32.7234L32.1011 47.4441H31.5966V48.4182H30.9541L30.9608 45.3803Z" fill="#FEFEFE"/>
<path d="M34.6508 45.9838V47.8163H35.1487C35.2651 47.8234 35.3818 47.8048 35.4909 47.7617C35.6 47.7187 35.6992 47.6522 35.782 47.5666C35.8649 47.481 35.9294 47.3782 35.9716 47.2649C36.0137 47.1515 36.0325 47.0302 36.0266 46.9088C36.0324 46.7871 36.0136 46.6655 35.9716 46.5518C35.9295 46.4382 35.865 46.3349 35.7823 46.2488C35.6996 46.1626 35.6005 46.0955 35.4914 46.0516C35.3822 46.0078 35.2655 45.9883 35.1487 45.9943L34.6508 45.9838ZM34.0117 45.3811H35.1487C35.3471 45.3677 35.5461 45.3968 35.7334 45.4666C35.9207 45.5364 36.0923 45.6454 36.2376 45.7868C36.3828 45.9283 36.4988 46.0993 36.5782 46.2893C36.6576 46.4792 36.6988 46.6841 36.6993 46.8913C36.6992 47.0991 36.6584 47.3046 36.5792 47.4953C36.5001 47.686 36.3843 47.8579 36.2391 48.0003C36.0939 48.1427 35.9222 48.2527 35.7347 48.3235C35.5472 48.3943 35.3478 48.4244 35.1487 48.412H34.0117V45.3811Z" fill="#FEFEFE"/>
<path d="M37.3154 45.377H39.5153V45.9726H37.9512V46.5893H39.327V47.185H37.9512V47.8227H39.5355V48.4148H37.3154V45.377Z" fill="#FEFEFE"/>
<path d="M41.4421 46.8554C41.7515 46.8554 41.9298 46.6802 41.9298 46.4244C41.9298 46.1371 41.7414 45.99 41.4286 45.99H40.7895V46.8624L41.4421 46.8554ZM40.1504 45.3803H41.4959C41.6498 45.3703 41.804 45.3924 41.9496 45.4453C42.0952 45.4983 42.2291 45.581 42.3435 45.6886C42.4295 45.7812 42.4962 45.8911 42.5396 46.0117C42.583 46.1323 42.6021 46.2608 42.5958 46.3894C42.6049 46.5962 42.5486 46.8003 42.4356 46.9706C42.3226 47.1408 42.1591 47.2678 41.9702 47.332L42.6833 48.4182H41.9332L41.3075 47.4441H40.803V48.4182H40.1638L40.1504 45.3803Z" fill="#FEFEFE"/>
<path d="M47.0289 45.377L46.0535 46.8626L47.0727 48.4148H46.3226L45.6666 47.3742L45.0107 48.4148H44.2808L45.2966 46.8731L44.3211 45.377H45.0712L45.6801 46.3651L46.299 45.377H47.0289Z" fill="#FEFEFE"/>
<path d="M48.7344 46.9121C48.7976 46.9204 48.8617 46.9149 48.9226 46.8958C48.9836 46.8766 49.04 46.8444 49.0882 46.8011C49.1364 46.7578 49.1753 46.7045 49.2025 46.6445C49.2296 46.5846 49.2444 46.5193 49.2457 46.453C49.2457 46.1552 49.0439 45.994 48.7243 45.994H48.2299V46.9226L48.7344 46.9121ZM47.5874 45.3809H48.7782C49.4745 45.3809 49.8949 45.8083 49.8949 46.432C49.8949 47.1328 49.3702 47.5007 48.7143 47.5007H48.2299V48.4117H47.5908L47.5874 45.3809Z" fill="#FEFEFE"/>
<path d="M51.7053 46.8554C52.0181 46.8554 52.1964 46.6802 52.1964 46.4244C52.1964 46.1371 52.0047 45.9899 51.6919 45.9899H51.0561V46.8624L51.7053 46.8554ZM50.417 45.3802H51.7625C51.9169 45.3703 52.0716 45.3925 52.2177 45.4454C52.3638 45.4983 52.4984 45.581 52.6135 45.6886C52.6982 45.7819 52.7639 45.8921 52.8067 46.0125C52.8494 46.1329 52.8684 46.2611 52.8624 46.3894C52.8721 46.5962 52.816 46.8007 52.7029 46.971C52.5898 47.1414 52.426 47.2682 52.2368 47.3319L52.9499 48.4181H52.1998L51.5741 47.444H51.0561V48.4181H50.417V45.3802Z" fill="#FEFEFE"/>
<path d="M53.4707 45.377H55.6706V45.9726H54.1064V46.5893H55.4822V47.185H54.1064V47.8227H55.6908V48.4148H53.4707V45.377Z" fill="#FEFEFE"/>
<path d="M56.1013 47.9737L56.4814 47.5006C56.7174 47.7308 57.0261 47.863 57.3493 47.8721C57.6117 47.8721 57.7731 47.7634 57.7731 47.5847C57.7731 47.4166 57.6722 47.329 57.1845 47.1993C56.5958 47.0451 56.2191 46.8734 56.2191 46.2708C56.2191 45.7207 56.6429 45.3528 57.2282 45.3528C57.6218 45.3464 58.0051 45.484 58.3113 45.7417L57.9749 46.2427C57.7571 46.0665 57.4934 45.9627 57.2181 45.9449C56.9692 45.9449 56.8414 46.0605 56.8414 46.2077C56.8414 46.4074 56.9658 46.4705 57.4704 46.6072C58.0624 46.7683 58.3954 46.9891 58.3954 47.5182C58.3954 48.1208 57.9548 48.4607 57.3257 48.4607C56.8696 48.4629 56.4288 48.2894 56.0879 47.9737" fill="#FEFEFE"/>
<path d="M58.7722 47.9736L59.1489 47.5006C59.3869 47.7296 59.6963 47.8615 60.0201 47.872C60.2825 47.872 60.4406 47.7634 60.4406 47.5847C60.4406 47.4165 60.3397 47.3289 59.852 47.1993C59.2667 47.0451 58.8866 46.8734 58.8866 46.2707C58.8866 45.7206 59.3104 45.3527 59.8957 45.3527C60.2881 45.3471 60.6701 45.4847 60.9754 45.7416L60.6391 46.2427C60.4213 46.0664 60.1575 45.9627 59.8822 45.9449C59.6367 45.9449 59.5055 46.0605 59.5055 46.2077C59.5055 46.4074 59.6333 46.4704 60.1379 46.6071C60.7265 46.7683 61.0595 46.989 61.0595 47.5181C61.0595 48.1208 60.6189 48.4607 59.9899 48.4607C59.5348 48.4626 59.095 48.2891 58.7554 47.9736" fill="#FEFEFE"/>
<path d="M61.4931 45.4782H61.3687V45.3906H61.7084V45.4782H61.5839V45.8181H61.4931V45.4782Z" fill="#FEFEFE"/>
<path d="M61.7725 45.3906H61.87L61.9776 45.5728L62.0886 45.3906H62.1862V45.8181H62.0954V45.5378L61.9776 45.7235L61.8633 45.5413V45.8181H61.7725V45.3906Z" fill="#FEFEFE"/>
<path d="M26.9645 37.0482L24.8789 34.8092C23.7084 35.941 22.6656 36.6628 20.9635 36.6628C18.4105 36.6628 16.6445 34.4028 16.6445 31.6907V31.6452C16.6445 28.9332 18.4542 26.7152 20.9635 26.7152C22.4537 26.7152 23.6243 27.395 24.7713 28.5022L26.8568 25.9478C25.4743 24.5007 23.7925 23.4951 20.9837 23.4951C16.4124 23.4951 13.2202 27.1812 13.2202 31.6802V31.7258C13.2202 35.5485 15.5311 38.695 18.878 39.5955C21.0207 39.1015 23.2509 38.681 25.5853 38.3481C26.0823 37.9559 26.544 37.5173 26.9645 37.0377" fill="#FEFEFE"/>
<path d="M35.7706 36.5504H31.8787V33.0675H35.6663C37.3482 33.0675 38.0916 33.7227 38.0916 34.7879V34.83C38.0916 36.0073 37.217 36.5504 35.7706 36.5504ZM31.8787 26.8306H35.1113C36.4938 26.8306 37.2607 27.4157 37.2607 28.4564V28.5019C37.2607 29.6757 36.3458 30.1733 34.9061 30.1733H31.8787V26.8306ZM40.6615 37.3913C41.0853 37.0935 42.266 32.5734 38.6768 31.5994C39.7398 30.9687 40.5269 29.7003 40.5269 27.9133V27.8677C40.5418 27.372 40.4601 26.8782 40.2867 26.4163C40.1132 25.9543 39.8517 25.5339 39.5178 25.1802C38.6432 24.2762 37.2977 23.7646 35.6158 23.7646H28.6865V37.9624C32.6625 37.5076 36.6622 37.3168 40.6615 37.3913Z" fill="#FEFEFE"/>
<path d="M46.4776 37.7417L48.6876 34.1747L51.2642 38.3794C52.8485 38.6492 54.3218 38.9681 55.674 39.3325L50.6654 31.6239L55.6438 23.7646H51.9201L48.7515 28.8944L45.6434 23.7646H41.8154L46.7938 31.6484L42.9591 37.4824C43.5579 37.5104 44.16 37.542 44.7553 37.584C45.3507 37.6261 45.9091 37.6751 46.4776 37.7277" fill="#FEFEFE"/>
<path d="M60.9887 42.301C42.2157 34.5925 15.7128 40.6542 7.89209 43.9899H17.3947C24.3778 42.0102 43.7328 39.3367 60.9887 42.301Z" fill="#F060A6"/>
<rect x="49.2593" y="49.2588" width="20.7407" height="20.7407" rx="10.3704" fill="#48A83E"/>
<path fill-rule="evenodd" clip-rule="evenodd" d="M59.5068 53.8965C59.0772 53.8965 58.729 54.2447 58.729 54.6743L58.729 64.2964C58.729 64.7259 59.0772 65.0742 59.5068 65.0742C59.9363 65.0742 60.2846 64.7259 60.2846 64.2964L60.2846 54.6743C60.2846 54.2447 59.9363 53.8965 59.5068 53.8965Z" fill="white"/>
<path fill-rule="evenodd" clip-rule="evenodd" d="M55.1796 60.1498C54.8824 60.46 54.8929 60.9523 55.203 61.2495L58.9686 64.8578C59.2697 65.1463 59.7448 65.146 60.0455 64.8571L63.8019 61.2488C64.1117 60.9513 64.1216 60.4589 63.824 60.1491C63.5264 59.8393 63.034 59.8294 62.7243 60.127L59.5061 63.2184L56.2793 60.1264C55.9691 59.8292 55.4768 59.8397 55.1796 60.1498Z" fill="white"/>
</svg>