<svg width="42" height="42" viewBox="0 0 42 42" fill="none" xmlns="http://www.w3.org/2000/svg">
<path fill-rule="evenodd" clip-rule="evenodd" d="M0.5 21C0.5 9.6961 9.69611 0.5 21 0.5C32.3039 0.5 41.4999 9.6961 41.4999 21C41.4999 32.3039 32.3039 41.5 21 41.5C9.69611 41.5 0.5 32.3039 0.5 21ZM21 1.5C10.2484 1.5 1.5 10.2484 1.5 21C1.5 31.7516 10.2484 40.5 21 40.5C31.7516 40.5 40.4999 31.7516 40.4999 21C40.4999 10.2484 31.7516 1.5 21 1.5Z" fill="#48A83E"/>
<path d="M32.6214 19.4617C32.5356 19.3529 32.4373 19.2545 32.3284 19.1687L32.326 19.1683L32.0248 18.9289L31.9693 18.5486C31.8294 17.5847 30.9346 16.9166 29.9706 17.0565C29.8336 17.0764 29.6994 17.1123 29.5708 17.1636C29.3415 17.2558 29.0854 17.2558 28.8561 17.1636C27.9512 16.8031 26.9254 17.2444 26.5649 18.1493C26.5137 18.2777 26.4778 18.4118 26.458 18.5486L26.4029 18.9289L26.2138 19.0797V19.0342H24.3838L27.4906 15.9286C27.9188 16.1204 28.4061 16.1316 28.8425 15.9597L29.2017 15.8173L29.5608 15.9597C30.4654 16.3204 31.4911 15.8795 31.8517 14.9749C31.9031 14.8462 31.939 14.7118 31.9589 14.5747L32.014 14.1945L32.3153 13.955C33.0798 13.3523 33.211 12.2438 32.6082 11.4792C32.5224 11.3704 32.4241 11.272 32.3153 11.1862L32.014 10.9468L31.9585 10.5665C31.8183 9.60238 30.9231 8.93446 29.959 9.07462C29.8222 9.09452 29.6883 9.13038 29.56 9.18151C29.3307 9.27373 29.0746 9.27373 28.8453 9.18151C27.9404 8.82099 26.9147 9.26226 26.5541 10.1672C26.503 10.2955 26.467 10.4294 26.4472 10.5661L26.3917 10.9468L26.0909 11.1862C25.327 11.7867 25.1947 12.8928 25.7952 13.6566C25.8601 13.7393 25.9324 13.8159 26.0111 13.8856L21.8245 18.071V16.0838C22.7083 16.0955 23.4636 15.4499 23.5898 14.5751L23.6452 14.1945L23.9461 13.955C24.7107 13.3523 24.8419 12.2438 24.2391 11.4792C24.1533 11.3704 24.0549 11.272 23.9461 11.1862L23.6448 10.9468L23.5894 10.5665C23.4495 9.60258 22.5547 8.93451 21.5907 9.07442C21.4537 9.09432 21.3194 9.13024 21.1908 9.18151C20.9616 9.27373 20.7055 9.27373 20.4762 9.18151C19.5713 8.82099 18.5455 9.26231 18.185 10.1672C18.1338 10.2956 18.0979 10.4297 18.078 10.5665L18.023 10.9468L17.7217 11.1862C16.9571 11.789 16.826 12.8974 17.4287 13.6621C17.5145 13.7709 17.6129 13.8693 17.7217 13.955L18.023 14.1945L18.0784 14.5747C18.1548 15.1096 18.4731 15.5795 18.9415 15.8488C19.0942 15.936 19.2589 16 19.4303 16.0388V19.6671L9.17261 29.9248C9.01684 30.0806 9.01684 30.3332 9.17261 30.489L11.5668 32.8832C11.7226 33.039 11.9752 33.039 12.131 32.8832L23.5858 21.4284H25.6647C25.7763 21.6243 25.9245 21.797 26.1012 21.9371L26.4025 22.1766L26.458 22.5568C26.595 23.5192 27.4863 24.1882 28.4487 24.0512C28.5882 24.0313 28.7249 23.9947 28.8557 23.9422L29.2148 23.7998L29.574 23.9422C30.4785 24.303 31.5042 23.8621 31.865 22.9575C31.9162 22.8289 31.9522 22.6946 31.9721 22.5576L32.0276 22.177L32.3284 21.9375C33.093 21.3348 33.2242 20.2263 32.6214 19.4617ZM26.4179 11.9756C26.4651 11.9156 26.5193 11.8615 26.5792 11.8143H26.58L27.0058 11.4779C27.0856 11.4147 27.1384 11.3233 27.153 11.2225L27.2328 10.6842C27.3093 10.1567 27.7989 9.79097 28.3265 9.86743C28.4016 9.87831 28.4751 9.89801 28.5456 9.92609C28.9648 10.0945 29.4328 10.0945 29.852 9.92609C30.3469 9.72847 30.9082 9.96938 31.1059 10.4643C31.1341 10.535 31.1539 10.6089 31.1648 10.6842L31.2446 11.2221C31.2594 11.323 31.3123 11.4144 31.3923 11.4775L31.8184 11.8139C32.2371 12.1438 32.3091 12.7507 31.9792 13.1694C31.9321 13.2291 31.8782 13.2831 31.8184 13.3302L31.3923 13.6665C31.312 13.7297 31.259 13.8213 31.2442 13.9223L31.1644 14.4602C31.0878 14.988 30.5978 15.3537 30.0699 15.277C29.995 15.2661 29.9216 15.2464 29.8512 15.2184L29.3461 15.0188C29.2512 14.9805 29.1452 14.9805 29.0504 15.0188L28.5452 15.2184C28.0497 15.4156 27.4882 15.1739 27.2909 14.6784C27.263 14.6082 27.2433 14.535 27.2324 14.4602L27.1526 13.9223C27.138 13.8215 27.0852 13.7301 27.0054 13.6669L26.5792 13.3306C26.1605 13.001 26.0883 12.3944 26.4179 11.9756ZM26.4432 14.5791C26.493 14.8996 26.6312 15.1999 26.8422 15.4462L23.2554 19.0342H22.6225C22.5167 19.0342 22.4152 19.0763 22.3404 19.1511L21.8245 19.6671V19.1994L26.4432 14.5791ZM19.3406 15.1577C19.084 15.0103 18.9097 14.7528 18.8681 14.4598L18.7883 13.9219C18.7736 13.8211 18.7207 13.7297 18.6407 13.6665L18.2145 13.3302C17.7958 13.0002 17.7238 12.3933 18.0538 11.9746C18.1008 11.9149 18.1548 11.861 18.2145 11.8139L18.6407 11.4775C18.7209 11.4144 18.7739 11.3228 18.7887 11.2217L18.8685 10.6838C18.9449 10.1562 19.4345 9.79047 19.9621 9.86684C20.0374 9.87771 20.1111 9.89751 20.1817 9.92569C20.6007 10.0941 21.0686 10.0941 21.4877 9.92569C21.9826 9.72807 22.5439 9.96899 22.7416 10.4639C22.7698 10.5346 22.7896 10.6085 22.8005 10.6838L22.8803 11.2217C22.895 11.3225 22.9477 11.4139 23.0276 11.4771L23.4537 11.8135C23.8724 12.1434 23.9444 12.7503 23.6145 13.169C23.5674 13.2287 23.5135 13.2827 23.4537 13.3298L23.028 13.6662C22.9481 13.7293 22.8954 13.8207 22.8807 13.9215L22.8009 14.4598C22.7242 14.9876 22.2342 15.3533 21.7064 15.2766C21.6315 15.2657 21.558 15.246 21.4877 15.218L20.983 15.0184C20.9361 14.9994 20.8859 14.9897 20.8353 14.9897C20.7846 14.9898 20.7344 14.9995 20.6873 15.0184L20.1817 15.218C19.907 15.3285 19.5967 15.3062 19.3406 15.1577ZM25.4345 20.6303H23.4206C23.3148 20.6303 23.2133 20.6724 23.1385 20.7472L11.8489 32.0369L10.0189 30.2069L20.1115 20.1144C20.1863 20.0396 20.2284 19.9381 20.2284 19.8323V16.0324C20.3126 16.0142 20.3955 15.9899 20.4762 15.9597L20.8353 15.8173L21.0264 15.8939V20.4651L12.7638 28.7277L13.3281 29.292L22.7877 19.8323H25.5853C25.4832 20.0588 25.4302 20.3044 25.4301 20.5529C25.4301 20.5789 25.4333 20.6044 25.4345 20.6303ZM31.9931 21.1479C31.9461 21.2076 31.8921 21.2616 31.8324 21.3087H31.8316L31.4058 21.6451C31.326 21.7082 31.2733 21.7996 31.2586 21.9004L31.1788 22.4387C31.1021 22.9665 30.6121 23.3322 30.0843 23.2555C30.0093 23.2446 29.9359 23.2249 29.8656 23.1969L29.3608 22.9954C29.3139 22.9763 29.2638 22.9666 29.2132 22.9666C29.1625 22.9667 29.1122 22.9764 29.0651 22.9954L28.5596 23.1969C28.0641 23.3941 27.5025 23.1524 27.3053 22.6569C27.2773 22.5868 27.2577 22.5135 27.2468 22.4387L27.167 21.9008C27.1522 21.8 27.0994 21.7086 27.0193 21.6455L26.5932 21.3091C26.1745 20.9791 26.1025 20.3722 26.4324 19.9535C26.4795 19.8938 26.5334 19.8399 26.5932 19.7928L27.0193 19.4564C27.0996 19.3933 27.1526 19.3017 27.1674 19.2006L27.2472 18.6627C27.3236 18.1351 27.8132 17.7694 28.3408 17.8457C28.416 17.8566 28.4898 17.8764 28.5604 17.9046C28.9795 18.073 29.4473 18.073 29.8664 17.9046C30.3612 17.707 30.9226 17.9479 31.1203 18.4428C31.1485 18.5135 31.1683 18.5874 31.1792 18.6627L31.259 19.2006C31.2737 19.3014 31.3264 19.3928 31.4062 19.456L31.8324 19.7924C32.2512 20.1223 32.3231 20.7292 31.9931 21.1479Z" fill="#48A83E"/>
</svg>
