<svg viewBox="0 0 70 100" fill="none" xmlns="http://www.w3.org/2000/svg">
<path d="M3 37C3 22.0883 15.0883 10 30 10H40C54.9117 10 67 22.0883 67 37V84C67 90.6274 61.6274 96 55 96H15C8.37258 96 3 90.6274 3 84V37Z" fill="#F7F7F7"/>
<path fill-rule="evenodd" clip-rule="evenodd" d="M40 12H30C16.1929 12 5 23.1929 5 37V84C5 89.5229 9.47715 94 15 94H55C60.5228 94 65 89.5229 65 84V37C65 23.1929 53.8071 12 40 12ZM30 10C15.0883 10 3 22.0883 3 37V84C3 90.6274 8.37258 96 15 96H55C61.6274 96 67 90.6274 67 84V37C67 22.0883 54.9117 10 40 10H30Z" fill="#CCCCCC"/>
<path fill-rule="evenodd" clip-rule="evenodd" d="M44 49.8042L42.2014 48L35.0004 55.2004L27.8 48L26 49.8042L33.1995 57.0012L26 64.2L27.8 66L35.0004 58.8015L42.2014 66L44 64.2L36.8012 57.0012L44 49.8042Z" fill="#CCCCCC"/>
<path d="M65.0002 35C66.1048 35 67.0057 34.1037 66.948 33.0007C66.5009 24.447 63.1965 16.3422 57.6276 10.2513C51.6265 3.68749 43.4872 7.00815e-07 35.0002 0C26.5133 -7.00815e-07 18.374 3.68749 12.3728 10.2513C6.80393 16.3422 3.49959 24.447 3.05243 33.0006C2.99476 34.1037 3.89565 35 5.00022 35H13.8002C14.9048 35 15.7911 34.1028 15.8872 33.0024C16.3096 28.1659 18.2561 23.6154 21.4238 20.1508C25.0245 16.2125 29.9081 14 35.0002 14C40.0924 14 44.976 16.2125 48.5767 20.1508C51.7443 23.6154 53.6908 28.1659 54.1132 33.0024C54.2093 34.1028 55.0957 35 56.2002 35H65.0002Z" fill="#F7F7F7"/>
<path fill-rule="evenodd" clip-rule="evenodd" d="M64.9451 33C64.4995 24.9252 61.3698 17.3083 56.1516 11.6008C50.5088 5.42901 42.8959 2 35.0002 2C27.1045 2 19.4916 5.429 13.8489 11.6008C8.63061 17.3083 5.50096 24.9252 5.05535 33H13.8002C13.8006 33 13.8009 33 13.8011 33C13.8035 32.9989 13.8131 32.9941 13.8267 32.9808C13.8587 32.9497 13.8889 32.8955 13.8948 32.8284C14.3535 27.576 16.4688 22.6063 19.9477 18.8012C23.9068 14.471 29.3169 12 35.0002 12C40.6836 12 46.0937 14.471 50.0527 18.8012C53.5316 22.6063 55.6469 27.5761 56.1056 32.8284C56.1115 32.8955 56.1417 32.9497 56.1737 32.9808C56.1873 32.9941 56.1969 32.9989 56.1993 33C56.1995 33 56.1999 33 56.2002 33H64.9451ZM66.948 33.0007C67.0057 34.1037 66.1048 35 65.0002 35H56.2002C55.0957 35 54.2093 34.1028 54.1132 33.0024C53.6908 28.1659 51.7443 23.6154 48.5767 20.1508C44.976 16.2125 40.0924 14 35.0002 14C29.9081 14 25.0245 16.2125 21.4238 20.1508C18.2561 23.6154 16.3096 28.1659 15.8872 33.0024C15.7911 34.1028 14.9048 35 13.8002 35H5.00022C3.89565 35 2.99476 34.1037 3.05243 33.0006C3.49959 24.447 6.80393 16.3422 12.3728 10.2513C18.374 3.68749 26.5133 0 35.0002 0C43.4872 0 51.6265 3.68749 57.6276 10.2513C63.1965 16.3422 66.5009 24.447 66.948 33.0007Z" fill="#CCCCCC"/>
<path d="M3 88.5C3 84.3579 6.35786 81 10.5 81H59.5C63.6421 81 67 84.3579 67 88.5V88.5C67 92.6421 63.6421 96 59.5 96H10.5C6.35786 96 3 92.6421 3 88.5V88.5Z" fill="#F7F7F7"/>
<path fill-rule="evenodd" clip-rule="evenodd" d="M59.5 83H10.5C7.46243 83 5 85.4624 5 88.5C5 91.5376 7.46243 94 10.5 94H59.5C62.5376 94 65 91.5376 65 88.5C65 85.4624 62.5376 83 59.5 83ZM10.5 81C6.35786 81 3 84.3579 3 88.5C3 92.6421 6.35786 96 10.5 96H59.5C63.6421 96 67 92.6421 67 88.5C67 84.3579 63.6421 81 59.5 81H10.5Z" fill="#CCCCCC"/>
</svg>
