<svg width="40" height="40" viewBox="0 0 40 40" fill="none" xmlns="http://www.w3.org/2000/svg">
<path d="M26.04 11.94H14.99" stroke="#0B2343" stroke-miterlimit="10" stroke-linecap="round" stroke-linejoin="round"/>
<path d="M26.04 15.94H14.99" stroke="#0B2343" stroke-miterlimit="10" stroke-linecap="round" stroke-linejoin="round"/>
<path d="M26.04 19.94H14.99" stroke="#0B2343" stroke-miterlimit="10" stroke-linecap="round" stroke-linejoin="round"/>
<path d="M21.95 23.94H14.99" stroke="#0B2343" stroke-miterlimit="10" stroke-linecap="round" stroke-linejoin="round"/>
<path d="M26.97 29.47C26.97 30.32 26.29 31 25.46 31C24.63 31 23.95 30.31 23.95 29.47C23.95 28.62 24.63 27.94 25.46 27.94C26.29 27.94 26.97 28.62 26.97 29.47Z" stroke="#0B2343" stroke-miterlimit="10" stroke-linecap="round" stroke-linejoin="round"/>
<path d="M31 8.97C31 7.33 29.69 6 28.08 6H12.92C11.31 6 10 7.33 10 8.97V31.94C10 33.58 11.31 34.91 12.92 34.91H28.08C29.69 34.91 31 33.58 31 31.94V8.97Z" stroke="#0B2343" stroke-miterlimit="10" stroke-linecap="round" stroke-linejoin="round"/>
</svg>
