<svg id="Layer_1" data-name="Layer 1" xmlns="http://www.w3.org/2000/svg" viewBox="0 0 27 27.6045"><defs><style>.cls-1{fill:#007cc2;fill-rule:evenodd;}</style></defs><path class="cls-1" d="M9.28105,6.08706v-.609h.94445V7.44028H9.28105V6.32279a.40237.40237,0,0,0,0-.23573Zm-.8-.28213V5.4414a.76333.76333,0,0,1,.76334-.76333H10.2622a.76335.76335,0,0,1,.7633.76333v.36353h8.1421V5.4414a.76329.76329,0,0,1,.7633-.76333h1.0178a.76329.76329,0,0,1,.7633.76333v.36353h.7635a2.69239,2.69239,0,0,1,2.69,2.6928V15.3649a.4.4,0,1,1-.8,0v-3.562H5.82783v10.432a1.89,1.89,0,0,0,1.89,1.89H16.3689a.4.4,0,0,1,0,.8H7.71782a2.69,2.69,0,0,1-2.69-2.69v-13.74a2.69,2.69,0,0,1,2.69-2.69Zm-2.65322,5.198H24.3655V8.49773a1.89238,1.89238,0,0,0-1.89-1.8928H21.712v.872a.76329.76329,0,0,1-.7633.76333H19.9309a.76329.76329,0,0,1-.7633-.76333v-.872H11.0255v.872a.76336.76336,0,0,1-.7633.76333H9.24439A.76334.76334,0,0,1,8.48105,7.477v-.872H7.71782a1.89,1.89,0,0,0-1.89,1.89ZM19.9676,5.47807V7.44028h.9444V5.47807Z" transform="translate(-3 -1.89999)"/><path class="cls-1" d="M23.6715,18.6783a.4.4,0,0,1,.4.4v4.0842h2.5762a.4.4,0,0,1,0,.8H23.6715a.4.4,0,0,1-.4-.4V19.0783A.4.4,0,0,1,23.6715,18.6783Z" transform="translate(-3 -1.89999)"/><path class="cls-1" d="M23.875,18.0545a5.325,5.325,0,1,0,5.325,5.325A5.32515,5.32515,0,0,0,23.875,18.0545Zm-6.125,5.325a6.125,6.125,0,1,1,6.125,6.125A6.12518,6.12518,0,0,1,17.75,23.3795Z" transform="translate(-3 -1.89999)"/><path class="cls-1" d="M22.9522,2.00285a.35.35,0,0,1,.4957.49429L22.8467,3.1h3.257a1.30525,1.30525,0,0,1,1.0917.85454A4.06458,4.06458,0,0,1,27.55,5.69308V7.45a.35.35,0,1,1-.7,0V5.69308A3.37441,3.37441,0,0,0,26.566,4.261c-.1808-.37133-.3653-.461-.4623-.461H22.886l.5615.5615a.35.35,0,0,1-.4949.495L21.7747,3.67863a.35.35,0,0,1-.0004-.49463Z" transform="translate(-3 -1.89999)"/><path class="cls-1" d="M7.59783,28.7972a.35.35,0,1,1-.49566-.4943l.6012-.6029h-3.257a1.30527,1.30527,0,0,1-1.09171-.8545A4.06424,4.06424,0,0,1,3,25.1069V23.35a.35.35,0,1,1,.7,0v1.7569a3.37452,3.37452,0,0,0,.284,1.4321c.18084.3713.36531.461.46237.461H7.664l-.56151-.5615a.35.35,0,1,1,.495-.495l1.17787,1.1779a.35.35,0,0,1,.00035.4946Z" transform="translate(-3 -1.89999)"/></svg>