<svg width="40" height="40" viewBox="0 0 40 40" fill="none" xmlns="http://www.w3.org/2000/svg">
<path d="M16.3447 7.81804C16.2832 9.31291 15.0136 10.4597 13.529 10.3982C12.0341 10.3368 10.8873 9.06718 10.9488 7.58254C11.0102 6.08767 12.2798 4.94092 13.7645 5.00236C15.2593 5.06379 16.4163 6.32317 16.3447 7.81804Z" stroke="#0B2343" stroke-width="1.02388" stroke-miterlimit="10" stroke-linecap="round" stroke-linejoin="round"/>
<path d="M20.7678 21.8041L17.2047 19.572L16.877 16.1625C16.6722 14.4321 15.5972 13.1216 13.9078 13.1932C12.4129 13.2547 11.2559 14.555 11.1842 16.0601L12.4334 24.0669C12.4334 24.0669 12.5563 25.3672 13.2115 25.8792C13.8668 26.4014 15.4231 26.4218 15.4231 26.4218H23.0408H23.0203L27.5766 34.7051" stroke="#0B2343" stroke-width="1.02388" stroke-miterlimit="10" stroke-linecap="round" stroke-linejoin="round"/>
<path d="M5 18.0161H7.45735L11.5119 29.7089H20.9009" stroke="#0B2343" stroke-width="1.02388" stroke-miterlimit="10" stroke-linecap="round" stroke-linejoin="round"/>
<path d="M34.2071 11.1765C33.5109 8.79313 31.2871 7.04785 28.6812 7.04785C26.0754 7.04785 23.8757 8.79313 23.1796 11.1765" stroke="#0B2343" stroke-width="1.02388" stroke-miterlimit="10" stroke-linecap="round" stroke-linejoin="round"/>
<path d="M35 9.13672L34.2072 11.1769L32.2395 10.413" stroke="#0B2343" stroke-width="1.02388" stroke-miterlimit="10" stroke-linecap="round" stroke-linejoin="round"/>
<path d="M23.194 14.3862C23.8901 16.7696 26.114 18.5149 28.7198 18.5149C31.3256 18.5149 33.5253 16.7696 34.2215 14.3862" stroke="#0B2343" stroke-width="1.02388" stroke-miterlimit="10" stroke-linecap="round" stroke-linejoin="round"/>
<path d="M22.406 16.4264L23.194 14.3862L25.1617 15.1501" stroke="#0B2343" stroke-width="1.02388" stroke-miterlimit="10" stroke-linecap="round" stroke-linejoin="round"/>
</svg>
