<svg width="40" height="40" viewBox="0 0 40 40" fill="none" xmlns="http://www.w3.org/2000/svg">
<path d="M15.1 21.4C15.1 22.29 14.38 23.02 13.48 23.02C12.59 23.02 11.86 22.3 11.86 21.4C11.86 20.51 12.58 19.78 13.48 19.78C14.38 19.78 15.1 20.51 15.1 21.4Z" stroke="#0B2343" stroke-miterlimit="10" stroke-linecap="round" stroke-linejoin="round"/>
<path d="M22.17 27.33C22.17 28.22 21.45 28.95 20.55 28.95C19.66 28.95 18.93 28.23 18.93 27.33C18.93 26.44 19.65 25.71 20.55 25.71C21.45 25.71 22.17 26.43 22.17 27.33Z" stroke="#0B2343" stroke-miterlimit="10" stroke-linecap="round" stroke-linejoin="round"/>
<path d="M29.25 15.46C29.25 16.35 28.53 17.08 27.63 17.08C26.74 17.08 26.01 16.36 26.01 15.46C26.01 14.57 26.73 13.84 27.63 13.84C28.52 13.84 29.25 14.57 29.25 15.46Z" stroke="#0B2343" stroke-miterlimit="10" stroke-linecap="round" stroke-linejoin="round"/>
<path d="M28.87 16.5L35 21.6" stroke="#0B2343" stroke-miterlimit="10" stroke-linecap="round" stroke-linejoin="round"/>
<path d="M21.38 25.94L26.81 16.84" stroke="#0B2343" stroke-miterlimit="10" stroke-linecap="round" stroke-linejoin="round"/>
<path d="M14.72 22.4301L19.32 26.2901" stroke="#0B2343" stroke-miterlimit="10" stroke-linecap="round" stroke-linejoin="round"/>
<path d="M6 27.5301L12.25 22.4301" stroke="#0B2343" stroke-miterlimit="10" stroke-linecap="round" stroke-linejoin="round"/>
<path d="M35 32.5C35 33.88 33.88 35 32.5 35H8.5C7.12 35 6 33.88 6 32.5V8.5C6 7.12 7.12 6 8.5 6H32.5C33.88 6 35 7.12 35 8.5V32.5Z" stroke="#0B2343" stroke-miterlimit="10" stroke-linecap="round" stroke-linejoin="round"/>
</svg>
