<svg width="40" height="40" viewBox="0 0 40 40" fill="none" xmlns="http://www.w3.org/2000/svg">
<path d="M34.01 13.99C34.01 11.23 31.77 9 29.02 9C26.26 9 24.03 11.23 24.03 13.99C24.03 16.75 26.26 18.98 29.02 18.98C31.77 18.98 34.01 16.74 34.01 13.99Z" stroke="#0B2343" stroke-miterlimit="10" stroke-linecap="round" stroke-linejoin="round"/>
<path d="M26.8401 14.08L28.9301 11.98L31.0301 14.08" stroke="#0B2343" stroke-miterlimit="10" stroke-linecap="round" stroke-linejoin="round"/>
<path d="M28.9299 15.96V11.98" stroke="#0B2343" stroke-linecap="round" stroke-linejoin="round"/>
<path d="M31 20.98V29.01C31 30.11 30.1 31.01 29 31.01H7C5.9 31.01 5 30.11 5 29.01V13.01C5 11.91 5.9 11.01 7 11.01H22.03" stroke="#0B2343" stroke-miterlimit="10" stroke-linecap="round" stroke-linejoin="round"/>
<path d="M9 26.99V22.99" stroke="#0B2343" stroke-miterlimit="10" stroke-linecap="round" stroke-linejoin="round"/>
<path d="M12 26.9901V19.0601" stroke="#0B2343" stroke-miterlimit="10" stroke-linecap="round" stroke-linejoin="round"/>
<path d="M15 26.99V21.01" stroke="#0B2343" stroke-miterlimit="10" stroke-linecap="round" stroke-linejoin="round"/>
<path d="M18 26.99V16.13" stroke="#0B2343" stroke-miterlimit="10" stroke-linecap="round" stroke-linejoin="round"/>
<path d="M21 26.99V22.15" stroke="#0B2343" stroke-miterlimit="10" stroke-linecap="round" stroke-linejoin="round"/>
<path d="M24 26.99V21.01" stroke="#0B2343" stroke-miterlimit="10" stroke-linecap="round" stroke-linejoin="round"/>
<path d="M27 26.99V22.99" stroke="#0B2343" stroke-miterlimit="10" stroke-linecap="round" stroke-linejoin="round"/>
</svg>
