<svg width="40" height="40" viewBox="0 0 40 40" fill="none" xmlns="http://www.w3.org/2000/svg">
<path d="M7.54999 20.37C6.69999 20.37 6 19.68 6 18.82C6 17.97 6.68999 17.27 7.54999 17.27C8.39999 17.27 9.10004 17.96 9.10004 18.82C9.10004 19.67 8.39999 20.37 7.54999 20.37Z" stroke="#0B2343" stroke-miterlimit="10" stroke-linecap="round" stroke-linejoin="round"/>
<path d="M15.82 15.1C14.97 15.1 14.27 14.41 14.27 13.55C14.27 12.7 14.96 12 15.82 12C16.67 12 17.37 12.69 17.37 13.55C17.37 14.41 16.68 15.1 15.82 15.1Z" stroke="#0B2343" stroke-miterlimit="10" stroke-linecap="round" stroke-linejoin="round"/>
<path d="M24.09 27.89C23.24 27.89 22.54 27.2 22.54 26.34C22.54 25.49 23.23 24.79 24.09 24.79C24.94 24.79 25.64 25.48 25.64 26.34C25.64 27.19 24.95 27.89 24.09 27.89Z" stroke="#0B2343" stroke-miterlimit="10" stroke-linecap="round" stroke-linejoin="round"/>
<path d="M32.3701 18.86C31.5201 18.86 30.8201 18.17 30.8201 17.31C30.8201 16.46 31.5101 15.76 32.3701 15.76C33.2201 15.76 33.92 16.45 33.92 17.31C33.91 18.17 33.2201 18.86 32.3701 18.86Z" stroke="#0B2343" stroke-miterlimit="10" stroke-linecap="round" stroke-linejoin="round"/>
<path d="M14.5301 14.4L8.8501 17.99" stroke="#0B2343" stroke-miterlimit="10" stroke-linecap="round" stroke-linejoin="round"/>
<path d="M16.66 14.85L23.25 25.04" stroke="#0B2343" stroke-miterlimit="10" stroke-linecap="round" stroke-linejoin="round"/>
<path d="M25.13 25.19L31.33 18.46" stroke="#0B2343" stroke-miterlimit="10" stroke-linecap="round" stroke-linejoin="round"/>
</svg>
