<svg width="40" height="40" viewBox="0 0 40 40" fill="none" xmlns="http://www.w3.org/2000/svg">
<path d="M13.92 27.0598C10.28 26.2098 6 21.89 6 16.46C6 10.8 10.78 6 15.86 6H25.16C30.24 6 34.83 10.85 34.83 16.52C34.83 22.13 30.24 27.04 25.16 27.04H22.23L13.91 34.1899V27.0598H13.92Z" stroke="#0B2343" stroke-miterlimit="10" stroke-linecap="round" stroke-linejoin="round"/>
<path d="M26.79 13.5798C26.6 12.1398 25.63 11.25 24.26 11.25C22.92 11.25 21.51 12.11 20.63 13.46C20.16 13.12 19.06 12.52 17.2 12.52C16.89 12.52 14.97 12.5999 15.01 12.9099C15.03 13.0399 15.46 15.8698 17.64 16.8098C16.93 17.0798 16.25 17.21 15.55 17.21C14.57 17.21 13.56 16.7899 13.12 17.6399C12.94 17.9799 13.06 18.3599 13.45 18.6899C12.77 18.8099 12.29 19.1 12.19 19.45C11.94 20.34 13.62 20.6699 14.55 20.6699C15.61 20.6699 16.8 20.46 17.5 20.25C17.5 20.26 17.51 20.26 17.51 20.27C18.41 21.6 19.77 21.9999 21.33 21.8499C26.73 21.3299 26.97 16.53 26.97 15.77C29.56 14.63 29.51 15.1198 26.79 13.5798ZM25.16 13.8899C25.16 14.3299 24.81 14.6899 24.37 14.6899C23.94 14.6899 23.58 14.3299 23.58 13.8899C23.58 13.4499 23.93 13.0898 24.37 13.0898C24.81 13.0898 25.16 13.4499 25.16 13.8899Z" stroke="#0B2343" stroke-linecap="round" stroke-linejoin="round"/>
</svg>
