<svg width="40" height="40" viewBox="0 0 40 40" fill="none" xmlns="http://www.w3.org/2000/svg">
<path d="M13.92 27.0598C10.28 26.2098 6 21.89 6 16.46C6 10.8 10.78 6 15.86 6H25.16C30.24 6 34.83 10.85 34.83 16.52C34.83 22.13 30.24 27.04 25.16 27.04H22.23L13.91 34.1899V27.0598H13.92Z" stroke="#0B2343" stroke-miterlimit="10" stroke-linecap="round" stroke-linejoin="round"/>
<path d="M15 16.52C15 17.64 14.09 18.54 12.96 18.54C11.83 18.54 10.92 17.63 10.92 16.52C10.92 15.41 11.83 14.5 12.96 14.5C14.09 14.5 15 15.4 15 16.52Z" stroke="#0B2343" stroke-miterlimit="10" stroke-linecap="round" stroke-linejoin="round"/>
<path d="M22 16.52C22 17.64 21.09 18.54 19.96 18.54C18.83 18.54 17.92 17.63 17.92 16.52C17.92 15.41 18.83 14.5 19.96 14.5C21.09 14.5 22 15.4 22 16.52Z" stroke="#0B2343" stroke-miterlimit="10" stroke-linecap="round" stroke-linejoin="round"/>
<path d="M29 16.52C29 17.64 28.09 18.54 26.96 18.54C25.83 18.54 24.92 17.63 24.92 16.52C24.92 15.41 25.83 14.5 26.96 14.5C28.09 14.5 29 15.4 29 16.52Z" stroke="#0B2343" stroke-miterlimit="10" stroke-linecap="round" stroke-linejoin="round"/>
</svg>
