<svg width="40" height="40" viewBox="0 0 40 40" fill="none" xmlns="http://www.w3.org/2000/svg">
<path d="M13.92 27.0598C10.28 26.2098 6 21.89 6 16.46C6 10.8 10.78 6 15.86 6H25.16C30.24 6 34.83 10.85 34.83 16.52C34.83 22.13 30.24 27.04 25.16 27.04H22.23L13.91 34.1899V27.0598H13.92Z" stroke="#0B2343" stroke-miterlimit="10" stroke-linecap="round" stroke-linejoin="round"/>
<path d="M25.9301 12.6098C24.6301 11.2798 22.5101 11.2798 21.2101 12.6098L20.4201 13.4099L19.6301 12.6098C18.3301 11.2798 16.2101 11.2798 14.9101 12.6098C13.6101 13.9398 13.6101 16.0999 14.9101 17.4299L20.4201 23.05L25.9301 17.4299C27.2401 16.0999 27.2401 13.9398 25.9301 12.6098Z" stroke="#0B2343" stroke-miterlimit="10" stroke-linecap="round" stroke-linejoin="round"/>
</svg>
