<?xml version="1.0" encoding="utf-8"?>
<!-- Generator: Adobe Illustrator 19.1.0, SVG Export Plug-In . SVG Version: 6.00 Build 0)  -->
<svg version="1.1" id="Layer_1" xmlns="http://www.w3.org/2000/svg" xmlns:xlink="http://www.w3.org/1999/xlink" x="0px" y="0px"
	 viewBox="0 0 48.3 50" enable-background="new 0 0 48.3 50" xml:space="preserve">
<g>
	<path fill="#231F20" d="M12.5,50V36.4C6.3,34.3,0,26.9,0,18.3C0,8.5,7.9,0,17,0h14.7c8.9,0,16.7,8.6,16.7,18.4
		c0,9.8-7.8,18.4-16.7,18.4h-4.1L12.5,50z M17,2.8c-7.4,0-14.1,7.4-14.1,15.4c0,8.5,6.6,14.6,11.4,15.7l1.1,0.3v9.5l11.2-9.8h5.2
		c7.2,0,13.8-7.4,13.8-15.5c0-8.3-6.5-15.5-13.8-15.5H17z"/>
</g>
</svg>
