<svg width="40" height="40" viewBox="0 0 40 40" fill="none" xmlns="http://www.w3.org/2000/svg">
<path d="M24.12 13.97H9C6.86 13.97 5 15.6901 5 17.8201V24.1599C5 26.2799 6.86 28.02 9 28.02H10.11V31.79C10.11 32.62 10.94 33.06 11.56 32.49L16.26 28.02H24.12C26.26 28.02 28 26.2799 28 24.1599V17.8201C28 15.6901 26.26 13.97 24.12 13.97Z" stroke="#0B2343" stroke-miterlimit="10" stroke-linecap="round" stroke-linejoin="round"/>
<path d="M30.56 20.8599C32.49 20.6399 34.08 19.41 34.08 17.03V11.8499C34.08 9.71985 32.17 8 30.03 8H17.66C15.65 8 14.2 9.52999 14.01 11.49" stroke="#0B2343" stroke-miterlimit="10" stroke-linecap="round" stroke-linejoin="round"/>
<path d="M10.12 22.97H22.55" stroke="#0B2343" stroke-miterlimit="10" stroke-linecap="round" stroke-linejoin="round"/>
<path d="M10.12 18.97H22.55" stroke="#0B2343" stroke-miterlimit="10" stroke-linecap="round" stroke-linejoin="round"/>
</svg>
