<svg width="40" height="40" viewBox="0 0 40 40" fill="none" xmlns="http://www.w3.org/2000/svg">
<path d="M30.5366 35C30.2927 35 30.0488 34.878 29.9268 34.7561L26.2683 31.0975H24.317C21.878 31.0975 19.5609 29.5122 18.2195 27.0732C17.9756 26.5854 18.0975 26.0975 18.5853 25.8536C19.0731 25.6097 19.5609 25.7317 19.8049 26.2195C20.7805 28.0488 22.6097 29.2683 24.317 29.2683H26.6341C26.878 29.2683 27.1219 29.3902 27.2439 29.5122L29.6829 31.9512V29.878C29.6829 29.3902 30.0488 29.0244 30.5366 29.0244C33.2195 28.9024 35.6585 26.2195 35.6585 23.1707C35.6585 19.878 33.3414 17.3171 30.5366 17.3171C30.0488 17.3171 29.6829 16.9512 29.6829 16.4634C29.6829 15.9756 30.0488 15.6097 30.5366 15.6097C34.439 15.6097 37.4878 18.9024 37.4878 23.1707C37.4878 26.8293 34.8049 30.1219 31.5122 30.7317V34.0244C31.5122 34.3902 31.2683 34.7561 31.0244 34.878C30.7805 34.878 30.6585 35 30.5366 35Z" fill="#0B2343"/>
<path d="M19.0732 5H10.4146C5.65854 5 2 9.26829 2 14.5122C2 19.2683 4.43902 23.0488 9.07317 23.9024V30.7317L16.3902 24.2683H19.0732C23.8293 24.2683 27.6098 20 27.6098 14.6341C27.6098 9.39024 23.7073 5 19.0732 5ZM15.0488 19.1463H9.07317C8.58537 19.1463 8.21951 18.7805 8.21951 18.2927C8.21951 17.8049 8.58537 17.439 9.07317 17.439H15.0488C15.5366 17.439 15.9024 17.8049 15.9024 18.2927C15.9024 18.7805 15.5366 19.1463 15.0488 19.1463ZM21.0244 15.4878H9.07317C8.58537 15.4878 8.09756 15.122 8.09756 14.6341C8.09756 14.1463 8.46342 13.7805 8.95122 13.7805H20.9024C21.3902 13.7805 21.7561 14.1463 21.7561 14.6341C21.8781 15.122 21.5122 15.4878 21.0244 15.4878ZM21.0244 11.9512H9.07317C8.58537 11.9512 8.09756 11.5854 8.09756 11.0976C8.09756 10.6098 8.46342 10.2439 8.95122 10.2439H20.9024C21.3902 10.2439 21.7561 10.6098 21.7561 11.0976C21.8781 11.5854 21.5122 11.9512 21.0244 11.9512Z" fill="#0B2343"/>
</svg>
