<svg width="40" height="40" viewBox="0 0 40 40" fill="none" xmlns="http://www.w3.org/2000/svg">
<path d="M17.42 24.03C18.32 26.37 20.4201 28 22.8701 28H24.7601L29.9001 32.5601V27.8901C32.6701 27.3501 34.78 24.6802 34.78 21.4702C34.78 17.8702 32.13 14.9502 28.86 14.9502C27.36 14.9502 28.85 14.9502 27.3 14.9502" stroke="#0B2343" stroke-miterlimit="10" stroke-linecap="round" stroke-linejoin="round"/>
<path d="M24.98 20.6802L28.16 23.8901" stroke="#0B2343" stroke-miterlimit="10" stroke-linecap="round" stroke-linejoin="round"/>
<path d="M23.39 23.8901L28.16 19.0801" stroke="#0B2343" stroke-miterlimit="10" stroke-linecap="round" stroke-linejoin="round"/>
<path d="M10.93 20.9302C8.02001 20.3502 6 17.48 6 14.02C6 10.14 8.78001 7 12.21 7H18.49C21.92 7 24.7 10.14 24.7 14.02C24.7 17.9 21.92 20.9202 18.49 20.9202H16.51L10.93 25.9502V20.9302Z" stroke="#0B2343" stroke-miterlimit="10" stroke-linecap="round" stroke-linejoin="round"/>
<path d="M14 16.79L18.94 11.4602" stroke="#0B2343" stroke-miterlimit="10" stroke-linecap="round" stroke-linejoin="round"/>
<path d="M14 16.79L11.76 14.29" stroke="#0B2343" stroke-miterlimit="10" stroke-linecap="round" stroke-linejoin="round"/>
</svg>
