<svg width="40" height="40" viewBox="0 0 40 40" fill="none" xmlns="http://www.w3.org/2000/svg">
<path d="M11.89 23.79C8.06998 23.13 6 19.89 6 15.96C6 11.54 9.02999 8 12.99 8H20.24C24.2 8 27.41 11.62 27.41 16.04C27.41 20.46 24.2 24.0601 20.24 24.0601H17.96L11.89 29.52V23.79V23.79Z" stroke="#0B2343" stroke-miterlimit="10" stroke-linecap="round" stroke-linejoin="round"/>
<path d="M20.25 26.04C21.13 27.69 22.77 29.02 24.65 29.02H26.62L29.89 32.29V28.73C32.44 28.63 34.84 26.1401 34.84 23.0701C34.84 19.9401 32.58 17.47 29.77 17.47" stroke="#0B2343" stroke-miterlimit="10" stroke-linecap="round" stroke-linejoin="round"/>
<path d="M11.88 13.05H21.88" stroke="#0B2343" stroke-miterlimit="10" stroke-linecap="round" stroke-linejoin="round"/>
<path d="M11.88 16.05H21.88" stroke="#0B2343" stroke-miterlimit="10" stroke-linecap="round" stroke-linejoin="round"/>
<path d="M11.88 19.05H16.89" stroke="#0B2343" stroke-miterlimit="10" stroke-linecap="round" stroke-linejoin="round"/>
</svg>
