<svg width="40" height="40" viewBox="0 0 40 40" fill="none" xmlns="http://www.w3.org/2000/svg">
<path d="M24.8 34.5798V33.3499C24.8 33.0099 24.59 32.6998 24.28 32.5698C20.6 31.1298 18.55 29.35 18.2 28.24V27.0698C18.96 26.2798 19.56 25.1799 19.92 23.8899C20.77 23.2899 20.99 22.0399 20.28 21.1499V18.5398C20.28 15.8498 18.8 14 15.4 14C12.09 14 10.52 15.8398 10.52 18.5398V21.1499C9.81 22.0299 10.03 23.2799 10.88 23.8899C11.24 25.1799 11.84 26.2798 12.6 27.0698V28.24C12.26 29.35 10.2 31.1298 6.52 32.5698C6.21 32.6898 6 32.9999 6 33.3499V34.5798" stroke="#0B2343" stroke-miterlimit="10" stroke-linecap="round" stroke-linejoin="round"/>
<path d="M22.89 17.98H24.92V22.6799L30.17 18.1799C32.8 17.6699 34.8 15.1599 34.8 12.1399C34.8 8.74989 32.29 6 29.18 6H23.49C20.73 6 18.44 8.1698 17.96 11.0398" stroke="#0B2343" stroke-miterlimit="10" stroke-linecap="round" stroke-linejoin="round"/>
<path d="M22.42 10.9099H29.73" stroke="#0B2343" stroke-miterlimit="10" stroke-linecap="round" stroke-linejoin="round"/>
<path d="M22.42 13.99H26.07" stroke="#0B2343" stroke-miterlimit="10" stroke-linecap="round" stroke-linejoin="round"/>
</svg>
