<svg width="40" height="40" viewBox="0 0 40 40" fill="none" xmlns="http://www.w3.org/2000/svg">
<path d="M13.92 27.0598C10.28 26.2098 6 21.89 6 16.46C6 10.8 10.78 6 15.86 6H25.16C30.24 6 34.83 10.85 34.83 16.52C34.83 22.13 30.24 27.04 25.16 27.04H22.23L13.91 34.1899V27.0598H13.92Z" stroke="#0B2343" stroke-miterlimit="10" stroke-linecap="round" stroke-linejoin="round"/>
<path d="M19.8 11.97H15.0099C14.9099 11.97 14.8199 12.0599 14.8199 12.1699V16.8298C14.8199 16.9398 14.8999 17.03 15.0099 17.03H17.3799C17.3799 18.3 17.43 19.97 15.89 19.97C15.79 19.97 15.71 20.0599 15.71 20.1699V21.8398C15.71 21.9498 15.79 22.04 15.89 22.04C19.06 22.04 19.99 19.6399 19.99 16.4099V12.1699C19.99 12.0499 19.91 11.97 19.8 11.97Z" stroke="#0B2343" stroke-miterlimit="10" stroke-linecap="round" stroke-linejoin="round"/>
<path d="M26.8 11.97H22.0099C21.9099 11.97 21.8199 12.0599 21.8199 12.1699V16.8298C21.8199 16.9398 21.8999 17.03 22.0099 17.03H24.3799C24.3799 18.3 24.43 19.97 22.89 19.97C22.79 19.97 22.71 20.0599 22.71 20.1699V21.8398C22.71 21.9498 22.79 22.04 22.89 22.04C26.06 22.04 26.99 19.6399 26.99 16.4099V12.1699C26.99 12.0499 26.91 11.97 26.8 11.97Z" stroke="#0B2343" stroke-miterlimit="10" stroke-linecap="round" stroke-linejoin="round"/>
</svg>
