<svg viewBox="0 0 40 40" fill="none" xmlns="http://www.w3.org/2000/svg">
<path d="M18.3493 23.1489H13.375V6.375H25.4554V23.1145H20.7791" stroke="#0B2343" stroke-width="0.875" stroke-linecap="round" stroke-linejoin="round"/>
<path d="M18.2003 32.6736C15.8678 28.9544 18.4467 25.8197 18.4467 25.8197V21.3611C18.4467 19.9571 20.7734 19.9514 20.7734 21.3611V25.5847" stroke="#0B2343" stroke-width="0.875" stroke-linecap="round" stroke-linejoin="round"/>
<path d="M24.166 23.1147C24.166 23.1147 24.8536 24.9715 23.4668 28.7595C22.7734 30.6564 22.5212 32.7882 22.5212 32.7882" stroke="#0B2343" stroke-width="0.875" stroke-linecap="round" stroke-linejoin="round"/>
<path d="M18.4522 24.8338H15.8848C14.5668 24.8338 14.5725 23.149 15.8848 23.149H18.4522" stroke="#0B2343" stroke-width="0.875" stroke-linecap="round" stroke-linejoin="round"/>
<path d="M17.6388 26.5762H16.7505C15.5643 26.5762 15.5643 24.8341 16.7505 24.8341" stroke="#0B2343" stroke-width="0.875" stroke-linecap="round" stroke-linejoin="round"/>
<path d="M22.9795 13.1947C22.9795 15.189 21.4551 16.8108 19.5812 16.8108C17.7015 16.8108 16.1829 15.1948 16.1829 13.1947C16.1829 11.2004 17.7072 9.57864 19.5812 9.57864C21.4551 9.57864 22.9795 11.2004 22.9795 13.1947Z" stroke="#0B2343" stroke-width="0.875" stroke-linecap="round" stroke-linejoin="round"/>
<path d="M19.5928 9.5787C20.5326 9.5787 21.2948 11.1948 21.2948 13.1948C21.2948 15.1891 20.5326 16.8109 19.5928 16.8109" stroke="#0B2343" stroke-width="0.875" stroke-linecap="round" stroke-linejoin="round"/>
<path d="M19.5641 9.5787C18.6243 9.5787 17.8621 11.1948 17.8621 13.1948C17.8621 15.1891 18.6243 16.8109 19.5641 16.8109" stroke="#0B2343" stroke-width="0.875" stroke-linecap="round" stroke-linejoin="round"/>
<path d="M19.5759 9.5787V16.8052" stroke="#0B2343" stroke-width="0.875" stroke-linecap="round" stroke-linejoin="round"/>
<path d="M22.9796 13.1949H16.1772" stroke="#0B2343" stroke-width="0.875" stroke-linecap="round" stroke-linejoin="round"/>
<path d="M22.5784 11.533H16.5554" stroke="#0B2343" stroke-width="0.875" stroke-linecap="round" stroke-linejoin="round"/>
<path d="M22.5785 14.88H16.6128" stroke="#0B2343" stroke-width="0.875" stroke-linecap="round" stroke-linejoin="round"/>
</svg>
