<svg width="25" height="25" viewBox="0 0 25 25" fill="none" xmlns="http://www.w3.org/2000/svg">
<path d="M5.13123 8.82355V20.7034C5.13123 22.0881 6.309 23.2147 7.75662 23.2147H8.19882V23.5958C8.19882 24.1925 8.70452 24.6761 9.32823 24.6761C9.95194 24.6761 10.4576 24.1924 10.4576 23.5958V23.2147H15.1649V23.5958C15.1649 24.1925 15.6706 24.6761 16.2943 24.6761C16.918 24.6761 17.4237 24.1924 17.4237 23.5958V23.2147H17.8659C19.3137 23.2147 20.4913 22.0881 20.4913 20.7034V8.82355H5.13123Z" fill="#0B2343"/>
<path d="M17.8661 3.61114H16.1634V1.61345C16.1634 1.0168 15.6577 0.533142 15.034 0.533142H10.5889C9.96513 0.533142 9.45948 1.01685 9.45948 1.61345V3.61118H7.75674C6.30902 3.61118 5.13135 4.73775 5.13135 6.12253V7.3111H20.4915V7.311V6.12243C20.4915 4.7377 19.3137 3.61114 17.8661 3.61114ZM13.9045 3.61118H11.7183V2.6938H13.9045V3.61118Z" fill="#0B2343"/>
</svg>
