<?xml version="1.0" encoding="utf-8"?>
<!-- Generator: Adobe Illustrator 19.1.0, SVG Export Plug-In . SVG Version: 6.00 Build 0)  -->
<svg version="1.1" id="Layer_1" xmlns="http://www.w3.org/2000/svg" xmlns:xlink="http://www.w3.org/1999/xlink" x="0px" y="0px"
	 viewBox="0 0 38.7 52" enable-background="new 0 0 38.7 52" xml:space="preserve">
<g>
	<g>
		<path fill="#231F20" d="M27.4,23.2c-0.6,0-1-0.4-1-1V2H12.2v20.2c0,0.6-0.4,1-1,1s-1-0.4-1-1V1c0-0.6,0.4-1,1-1h16.2
			c0.6,0,1,0.4,1,1v21.2C28.4,22.7,28,23.2,27.4,23.2z"/>
	</g>
	<g>
		<path fill="#231F20" d="M30,52c-0.4,0-0.8-0.1-1.2-0.4l-9.5-6.3l-9.5,6.3c-0.8,0.5-1.7,0.5-2.5-0.1c-0.7-0.5-1-1.4-0.7-2.3
			L10,38.8l-9.1-6.6c-0.7-0.5-1-1.4-0.8-2.3c0.3-0.9,1-1.4,2-1.5l11.5-0.2l3.8-10.4c0.3-0.8,1.1-1.4,2-1.4l0,0c0.9,0,1.7,0.5,2,1.4
			l3.8,10.4l11.5,0.2c0,0,0,0,0,0c0.9,0,1.7,0.6,2,1.5c0.3,0.8,0,1.7-0.8,2.3l-9.1,6.6L32,49.3c0.3,0.8,0,1.7-0.7,2.3
			C30.9,51.9,30.4,52,30,52z M19.3,43.1c0.2,0,0.4,0.1,0.6,0.2l10,6.7c0,0,0.1,0,0.1,0l-3.5-11.3c-0.1-0.4,0-0.9,0.4-1.1l9.7-7.1
			l-0.1-1.1l0,1l-12.2-0.2c-0.4,0-0.8-0.3-0.9-0.7l-4-11.1c0,0-0.2,0-0.2,0l-4,11.1c-0.1,0.4-0.5,0.7-0.9,0.7L2.1,30.4l-1,0.4l1-0.3
			l9.7,7.1c0.3,0.3,0.5,0.7,0.4,1.1L8.6,49.9L8.7,50c0,0,0.1,0,0.1,0l10-6.7C18.9,43.2,19.1,43.1,19.3,43.1z"/>
	</g>
</g>
</svg>
