<svg width="40" height="40" viewBox="0 0 40 40" fill="none" xmlns="http://www.w3.org/2000/svg">
<path d="M22.9658 24.1234C22.2039 23.5979 21.7046 23.0986 21.5732 22.6782V20.9835C22.6767 19.8406 23.5438 18.2378 24.0693 16.3723C25.3042 15.4921 25.6196 13.666 24.5949 12.3917V8.59495C24.5949 4.68001 22.4403 2 17.5269 2C12.7449 2 10.459 4.68001 10.459 8.59495V12.3917C9.4343 13.666 9.74963 15.4921 10.9845 16.3723C11.4969 18.2378 12.377 19.8406 13.4805 20.9835V22.6782C12.9813 24.2941 7.06956 26.8822 1.74892 28.971C1.28911 29.155 1 29.6016 1 30.1009V31.8876" stroke="#0B2343" stroke-miterlimit="10" stroke-linecap="round" stroke-linejoin="round"/>
<path d="M36.8914 25.0298C34.08 22.2184 29.5345 22.2184 26.7231 25.0298C23.9117 27.8412 23.9117 32.3999 26.7231 35.1982C29.5345 38.0096 34.08 38.0096 36.8914 35.1982C39.7028 32.3999 39.7028 27.8412 36.8914 25.0298Z" stroke="#0B2343" stroke-miterlimit="10" stroke-linecap="round" stroke-linejoin="round"/>
<path d="M30.5723 33.0305L35.1835 28.0909" stroke="#0B2343" stroke-miterlimit="10" stroke-linecap="round" stroke-linejoin="round"/>
<path d="M30.5722 33.0305L28.4308 30.7315" stroke="#0B2343" stroke-miterlimit="10" stroke-linecap="round" stroke-linejoin="round"/>
</svg>
