<svg width="40" height="40" viewBox="0 0 40 40" fill="none" xmlns="http://www.w3.org/2000/svg">
<path d="M6 20.4586V16.4885H34.9401V30.7686C34.9401 31.1686 34.6101 31.4985 34.2101 31.4985H19.86C20.13 31.0385 20.25 30.4585 20.1 29.8585C19.9 29.0285 19.22 28.3786 18.38 28.2186C16.96 27.9486 15.73 29.0285 15.73 30.3785C15.73 30.7885 15.84 31.1685 16.04 31.4885H6.01001V25.3885C7.12001 25.1085 7.94006 24.1086 7.94006 22.9186C7.93006 21.7286 7.11 20.7386 6 20.4586Z" stroke="#0B2343" stroke-linecap="round" stroke-linejoin="round"/>
<path d="M6 16.4886H34.9401C34.9401 16.4886 35.16 9.96866 22.92 9.00866C22.41 8.96866 21.9001 9.06868 21.4401 9.27868L6 16.4886Z" stroke="#0B2343" stroke-linecap="round" stroke-linejoin="round"/>
<path d="M23.3101 26.5088C23.3101 27.9788 24.51 29.1688 25.99 29.1688C27.47 29.1688 28.67 27.9788 28.67 26.5088C28.67 25.0388 27.47 23.8489 25.99 23.8489C24.51 23.8489 23.3101 25.0388 23.3101 26.5088Z" stroke="#0B2343" stroke-linecap="round" stroke-linejoin="round"/>
<path d="M28.29 20.4689C28.29 21.4089 29.06 22.1688 30 22.1688C30.95 22.1688 31.7101 21.4089 31.7101 20.4689C31.7101 19.5289 30.94 18.7688 30 18.7688C29.05 18.7688 28.29 19.5289 28.29 20.4689Z" stroke="#0B2343" stroke-linecap="round" stroke-linejoin="round"/>
<path d="M14.86 23.4489C14.86 24.5289 15.7401 25.3988 16.8201 25.3988C17.9001 25.3988 18.78 24.5289 18.78 23.4489C18.78 22.3689 17.9001 21.4988 16.8201 21.4988C15.7401 21.4988 14.86 22.3689 14.86 23.4489Z" stroke="#0B2343" stroke-linecap="round" stroke-linejoin="round"/>
<path d="M20.99 20.5088C20.99 21.0588 21.44 21.4988 21.99 21.4988C22.54 21.4988 22.99 21.0588 22.99 20.5088C22.99 19.9588 22.54 19.5188 21.99 19.5188C21.44 19.5188 20.99 19.9588 20.99 20.5088Z" stroke="#0B2343" stroke-linecap="round" stroke-linejoin="round"/>
<path d="M10.98 28.1387C11.7918 28.1387 12.4501 27.485 12.4501 26.6787C12.4501 25.8724 11.7918 25.2188 10.98 25.2188C10.1681 25.2188 9.51001 25.8724 9.51001 26.6787C9.51001 27.485 10.1681 28.1387 10.98 28.1387Z" stroke="#0B2343" stroke-linecap="round" stroke-linejoin="round"/>
</svg>
