<svg width="40" height="40" viewBox="0 0 40 40" fill="none" xmlns="http://www.w3.org/2000/svg">
<path d="M29.35 14.4149C29.35 12.4846 27.7195 10.8822 25.6018 10.5262C23.887 5.7004 15.791 5.85974 14.3854 10.8073C11.9491 10.976 10 12.7282 10 14.8647C10 16.542 11.6399 17.985 12.4926 18.6129V22.8577H26.4639V18.2662C28.8534 17.8164 29.35 16.2703 29.35 14.4149Z" stroke="#0B2343" stroke-width="0.937044" stroke-miterlimit="10" stroke-linecap="round" stroke-linejoin="round"/>
<path d="M15.2194 18.3317V20.4213" stroke="#0B2343" stroke-width="0.937044" stroke-miterlimit="10" stroke-linecap="round" stroke-linejoin="round"/>
<path d="M18.0305 18.3317V20.4213" stroke="#0B2343" stroke-width="0.937044" stroke-miterlimit="10" stroke-linecap="round" stroke-linejoin="round"/>
<path d="M20.8697 18.3317V20.4213" stroke="#0B2343" stroke-width="0.937044" stroke-miterlimit="10" stroke-linecap="round" stroke-linejoin="round"/>
<path d="M23.6808 18.3317V20.4213" stroke="#0B2343" stroke-width="0.937044" stroke-miterlimit="10" stroke-linecap="round" stroke-linejoin="round"/>
<path d="M13.0172 25.4065C11.874 25.9219 12.2395 27.6554 13.4951 27.6554C13.5045 27.6554 13.5045 27.6554 13.5139 27.6554C13.7575 30.757 16.325 33.8586 19.4641 33.8586C22.6032 33.8586 25.1707 30.757 25.4143 27.6554C25.4237 27.6554 25.4237 27.6554 25.4331 27.6554C26.6887 27.6554 27.0541 25.9219 25.911 25.4065" stroke="#0B2343" stroke-width="0.937044" stroke-miterlimit="10" stroke-linecap="round" stroke-linejoin="round"/>
<path d="M19.4641 28.283V29.1356" stroke="#0B2343" stroke-width="0.937044" stroke-miterlimit="10" stroke-linecap="round" stroke-linejoin="round"/>
<path d="M16.8966 26.5966H17.2621" stroke="#0B2343" stroke-width="0.937044" stroke-miterlimit="10" stroke-linecap="round" stroke-linejoin="round"/>
<path d="M21.5818 26.5966H21.9473" stroke="#0B2343" stroke-width="0.937044" stroke-miterlimit="10" stroke-linecap="round" stroke-linejoin="round"/>
</svg>
