<svg width="40" height="40" viewBox="0 0 40 40" fill="none" xmlns="http://www.w3.org/2000/svg">
<path d="M19.5624 26.1901C20.6424 24.2901 22.8324 23.1501 25.0924 23.5601C27.9624 24.0801 29.8724 26.8201 29.3624 29.7001C28.8424 32.5701 26.1024 34.4801 23.2224 33.9701C21.8324 33.7201 20.7024 32.8901 19.9224 31.8301" stroke="#0B2343" stroke-linecap="round" stroke-linejoin="round"/>
<path d="M20.4924 30.2301C19.9724 33.1001 17.2324 35.0101 14.3524 34.5001C11.4824 33.9801 9.5724 31.2401 10.0824 28.3601C10.6024 25.4901 13.3424 23.5802 16.2224 24.0902C19.0924 24.6102 21.0024 27.3601 20.4924 30.2301Z" stroke="#0B2343" stroke-linecap="round" stroke-linejoin="round"/>
<path d="M16.4524 21.7399L19.5424 14.8999L23.2924 23.5499" stroke="#0B2343" stroke-linecap="round" stroke-linejoin="round"/>
<path d="M19.5524 15.03C19.5524 15.03 18.4924 7.89 29.3724 6C29.3724 6 30.5624 20.96 19.5524 15.03Z" stroke="#0B2343" stroke-linecap="round" stroke-linejoin="round"/>
<path d="M26.5624 9.66992C26.5624 9.66992 24.7024 11.15 22.6824 11.84C20.6624 12.53 19.5724 14.8499 19.5724 14.8499" stroke="#0B2343" stroke-linecap="round" stroke-linejoin="round"/>
<path d="M19.5424 14.9001C19.5824 9.75006 11.7825 10.25 11.7825 10.25C11.7825 10.25 13.0924 19.4001 19.5424 14.9001Z" stroke="#0B2343" stroke-miterlimit="10" stroke-linecap="round" stroke-linejoin="round"/>
</svg>
