<svg width="40" height="40" viewBox="0 0 40 40" fill="none" xmlns="http://www.w3.org/2000/svg">
<path d="M20 2C10.0681 2 2 10.0681 2 20C2 29.9194 10.0681 38 20 38C29.9194 38 38 29.9194 38 20C38 10.0806 29.9319 2 20 2Z" stroke="#0B2343" stroke-miterlimit="10" stroke-linecap="round" stroke-linejoin="round"/>
<path d="M31.9833 33.4218C28.0806 31.7957 24.2906 29.9194 23.9278 28.7561V27.18C24.966 26.1167 25.7916 24.6282 26.2795 22.877C27.4428 22.0639 27.7428 20.3627 26.7672 19.1744V15.647C26.7672 12.0069 24.7408 9.50521 20.1001 9.50521C15.5844 9.50521 13.4205 12.0069 13.4205 15.647V19.1744C12.4448 20.3753 12.7575 22.0639 13.9083 22.877C14.3962 24.6157 15.2218 26.1042 16.26 27.18V28.7561C15.8847 29.9444 12.3322 31.6956 8.39197 33.3343" stroke="#0B2343" stroke-miterlimit="10" stroke-linecap="round" stroke-linejoin="round"/>
</svg>
