<svg width="40" height="40" viewBox="0 0 40 40" fill="none" xmlns="http://www.w3.org/2000/svg">
<path d="M31.3201 18.8425C31.3201 16.1725 29.05 13.7825 26.26 13.7825C23.46 13.7825 21.2001 16.1725 21.2001 18.8425H31.3201Z" stroke="#0B2343" stroke-miterlimit="10" stroke-linecap="round" stroke-linejoin="round"/>
<path d="M26.26 13.7824C26.26 9.92239 23.6 5.88261 19.17 6.00261C15.31 6.10261 12.1901 9.00247 12.1901 12.8625V33.9626" stroke="#0B2343" stroke-miterlimit="10" stroke-linecap="round" stroke-linejoin="round"/>
<path d="M9 33.9526H15.38" stroke="#0B2343" stroke-miterlimit="10" stroke-linecap="round" stroke-linejoin="round"/>
<path d="M26.24 25.9426V27.7327" stroke="#0B2343" stroke-linecap="round" stroke-linejoin="round"/>
<path d="M23.66 24.6326L21.9601 26.3826" stroke="#0B2343" stroke-linecap="round" stroke-linejoin="round"/>
<path d="M28.8201 24.6326L30.52 26.3826" stroke="#0B2343" stroke-linecap="round" stroke-linejoin="round"/>
<path d="M24.37 21.0825C24.37 22.2325 25.26 23.1626 26.36 23.1626C27.46 23.1626 28.35 22.2325 28.35 21.0825" stroke="#0B2343" stroke-miterlimit="10" stroke-linecap="round" stroke-linejoin="round"/>
</svg>
