<svg viewBox="0 0 40 40" fill="none" xmlns="http://www.w3.org/2000/svg">
<path d="M5.72697 19.4324L7.37697 29.1124L16.407 29.1024C18.197 29.1024 18.357 31.6324 16.407 31.6324L4.88697 31.6424L3.01697 19.8624C2.89697 19.1124 3.42697 18.4024 4.17697 18.3024C4.91697 18.1924 5.59697 18.6924 5.72697 19.4324ZM11.417 6.00243C10.047 5.94243 8.88697 7.00243 8.82697 8.37243C8.76697 9.74243 9.82697 10.9024 11.197 10.9624C12.567 11.0224 13.727 9.96243 13.787 8.59243C13.847 7.23243 12.787 6.06243 11.417 6.00243ZM22.837 33.3424C23.557 33.3424 24.087 32.6824 23.937 31.9824L22.407 24.8624C22.077 23.3424 20.737 22.2524 19.177 22.2524H15.887C15.637 22.2524 15.427 22.0824 15.377 21.8324L14.097 15.6124C13.847 14.4024 12.777 13.5424 11.547 13.5424C9.92697 13.5424 8.70697 15.0024 8.98697 16.5924L10.437 24.8524C10.437 25.3224 10.817 25.7024 11.287 25.7024H18.947C19.677 25.7024 20.307 26.2024 20.467 26.9124L21.737 32.4424C21.857 32.9824 22.317 33.3424 22.837 33.3424ZM27.637 21.0424C28.147 20.9624 28.587 20.6424 28.827 20.1924C28.867 20.1124 32.927 12.5624 36.547 8.80243C37.177 8.14243 37.157 7.10243 36.497 6.47243C35.837 5.84243 34.797 5.86243 34.167 6.52243C31.377 9.43243 28.477 14.1624 26.967 16.7724L24.217 14.1724C23.557 13.5424 22.507 13.5824 21.887 14.2424C21.257 14.9024 21.297 15.9524 21.957 16.5724L26.247 20.6224C26.557 20.9124 26.957 21.0724 27.377 21.0724C27.457 21.0624 27.547 21.0624 27.637 21.0424Z" fill="#004990"/>
</svg>
