<svg viewBox="0 0 25 25" fill="none" xmlns="http://www.w3.org/2000/svg">
<path d="M4.36861 12.7112L5.18861 17.5512H9.69861C10.5986 17.5512 10.6786 18.8112 9.69861 18.8112H3.93861L3.00861 12.9212C2.94861 12.5412 3.20861 12.1912 3.58861 12.1412C3.95861 12.1012 4.29861 12.3512 4.36861 12.7112ZM7.20861 6.00121C6.51861 5.97121 5.93861 6.50122 5.90861 7.19122C5.87861 7.88122 6.40861 8.46122 7.09861 8.49122C7.78861 8.52122 8.36861 7.99122 8.39861 7.30122C8.42861 6.61122 7.89861 6.03121 7.20861 6.00121ZM12.9186 19.6712C13.2786 19.6712 13.5486 19.3412 13.4686 18.9912L12.7086 15.4312C12.5486 14.6712 11.8686 14.1212 11.0886 14.1212H9.43861C9.31861 14.1212 9.20861 14.0312 9.18861 13.9112L8.54861 10.8012C8.41861 10.2012 7.88861 9.77122 7.27861 9.77122C6.46861 9.77122 5.85862 10.5012 5.99862 11.3012L6.72861 15.4312C6.72861 15.6712 6.91861 15.8612 7.15861 15.8612H10.9886C11.3486 15.8612 11.6686 16.1112 11.7486 16.4612L12.3786 19.2312C12.4286 19.4912 12.6586 19.6712 12.9186 19.6712ZM17.3286 15.1112C17.6386 15.0612 17.8986 14.8712 18.0486 14.5912C18.0686 14.5412 20.5286 9.97122 22.7286 7.69122C23.1086 7.29122 23.0986 6.66121 22.6986 6.28121C22.2986 5.90121 21.6686 5.91121 21.2886 6.31121C19.5986 8.07121 17.8386 10.9412 16.9286 12.5212L15.2586 10.9512C14.8586 10.5712 14.2286 10.5912 13.8486 10.9912C13.4686 11.3912 13.4886 12.0212 13.8886 12.4012L16.4886 14.8512C16.6786 15.0312 16.9186 15.1212 17.1786 15.1212C17.2186 15.1312 17.2686 15.1212 17.3286 15.1112Z" fill="#004990"/>
</svg>
