<?xml version="1.0" encoding="UTF-8"?><svg id="Layer_1" xmlns="http://www.w3.org/2000/svg" viewBox="0 0 800 800"><defs><style>.cls-1{fill:#fff;}</style></defs><path class="cls-1" d="M450.07,400.67c-1.15-1.48-2.23-2.94-3.38-4.33-42.98-52.04-85.9-104.13-129.03-156.05-4.92-5.93-6.59-11.89-3.65-18.83,3.07-7.25,9.1-10.44,16.74-10.46,33.67-.06,67.33-.05,101,0,5.41,0,10.06,1.96,13.69,6.15,26.38,30.5,52.76,61,79.18,91.47,22.05,25.44,44.16,50.83,66.24,76.24,10.03,11.54,10.03,18.95-.04,30.66-38.14,44.36-76.28,88.7-114.42,133.06-1.58,1.84-3.12,3.72-5.12,6.12,2.03,.16,3.29,.35,4.55,.35,15.67,.02,31.33,.12,47-.11,2.16-.03,4.99-1.13,6.33-2.73,41.79-49.99,83.44-100.11,125.1-150.21,.62-.75,1.15-1.57,1.88-2.59-1.21-1.53-2.3-2.97-3.44-4.36-42.76-51.79-85.52-103.57-128.29-155.36-6.51-7.88-5.81-18.23,1.67-24.55,7.38-6.24,18.15-5.16,24.56,2.34,47.42,55.5,94.86,110.97,142.29,166.45,.97,1.14,1.98,2.26,2.92,3.42,7.22,8.85,7.18,17.48-.35,26.15-40.2,46.31-80.46,92.58-120.67,138.89-8.85,10.19-17.58,20.48-26.4,30.7-3.58,4.15-8.15,6.17-13.65,6.17-33.83-.01-67.67,.01-101.5-.03-7.33,0-12.99-3.26-16.04-9.93-3.1-6.78-2.07-13.25,2.78-19.1,42.9-51.68,85.77-103.37,128.64-155.07,1.27-1.53,2.52-3.08,4.05-4.95-1.28-1.61-2.46-3.15-3.7-4.64-40.71-48.94-81.41-97.89-122.19-146.78-1.26-1.51-3.31-3.35-5.01-3.37-17.82-.25-35.64-.15-54.76-.15,1.81,2.19,2.95,3.65,4.16,5.05,38.86,44.83,77.73,89.66,116.58,134.49,9.95,11.48,9.99,18.84,.18,30.26-42.01,48.94-84.05,97.85-126.02,146.82-15.59,18.2-35.23,27.29-59.21,27.26-44.17-.07-88.33,.03-132.5-.04-40.51-.06-71.46-31.16-71.47-71.69-.01-78.67-.04-157.33,.01-236,.03-35.08,23.2-63.41,56.58-69.31,4.08-.72,8.28-1.05,12.43-1.08,28.5-.19,57-.33,85.5-.33,11.63,0,19.06,7.94,18.2,19-.71,9.18-7.09,15.15-17.04,15.47-7.83,.25-15.66,.07-23.5,.07-20.17,0-40.33-.03-60.5,.01-21.71,.05-37.01,15.43-37.01,37.23-.02,78.33-.02,156.67,0,235,0,23.07,14,37.11,37.01,37.13,44.5,.03,89-.08,133.5,.07,11.64,.04,21.29-4.1,28.63-12.86,38.86-46.37,77.55-92.87,116.29-139.33,.41-.49,.69-1.08,1.16-1.84Z"/></svg>