<svg viewBox="0 0 50 50" fill="none" xmlns="http://www.w3.org/2000/svg">
<path fill-rule="evenodd" clip-rule="evenodd" d="M43.6141 25.7128C44.1552 25.3805 44.8634 25.5497 45.1958 26.0907L49.7237 33.46C50.0562 34.0011 49.887 34.7093 49.3459 35.0418C48.8047 35.3743 48.0965 35.2052 47.764 34.664L43.8381 28.2745L37.5953 32.1089C37.0541 32.4413 36.3459 32.272 36.0135 31.7308C35.6811 31.1896 35.8504 30.4814 36.3915 30.149L43.6141 25.7128Z" fill="#007CC2"/>
<path fill-rule="evenodd" clip-rule="evenodd" d="M24.4855 4.37447C13.2208 3.41994 3.32895 11.7683 2.37447 23.0138L1.22859 22.9165L2.37447 23.0138C1.41984 34.2785 9.76828 44.1703 21.0138 45.1248C32.2653 46.0798 42.1158 37.8357 43.0698 26.5955C43.1235 25.9626 43.6801 25.4932 44.3129 25.5469C44.9458 25.6006 45.4153 26.1572 45.3616 26.79C44.2991 39.3073 33.3251 48.478 20.8192 47.4165C8.30726 46.3546 -0.979112 35.3488 0.0827018 22.8194L0.0827143 22.8192C1.14469 10.3073 12.1505 1.02089 24.6799 2.0827L24.6801 2.08272C30.8195 2.60399 36.1888 5.5208 39.9338 9.84494C40.3496 10.325 40.2975 11.0513 39.8174 11.4671C39.3373 11.8829 38.611 11.8308 38.1952 11.3507C34.8277 7.46241 30.0049 4.84315 24.4857 4.37449" fill="#007CC2"/>
<path fill-rule="evenodd" clip-rule="evenodd" d="M22.6949 10.3092C23.33 10.3092 23.8449 10.8241 23.8449 11.4592V25.4143H30.8707C31.5059 25.4143 32.0207 25.9291 32.0207 26.5643C32.0207 27.1994 31.5059 27.7143 30.8707 27.7143H21.5449V11.4592C21.5449 10.8241 22.0598 10.3092 22.6949 10.3092Z" fill="#007CC2"/>
</svg>
