<svg viewBox="0 0 40 40" fill="none" xmlns="http://www.w3.org/2000/svg">
<path fill-rule="evenodd" clip-rule="evenodd" d="M36.1262 21.1927C36.3615 21.0482 36.6693 21.1218 36.8139 21.357L40.5871 27.498C40.7316 27.7333 40.6581 28.0413 40.4228 28.1858C40.1875 28.3304 39.8796 28.2568 39.7351 28.0216L36.2236 22.3065L30.6307 25.7417C30.3954 25.8862 30.0875 25.8126 29.943 25.5773C29.7985 25.342 29.8721 25.0341 30.1074 24.8896L36.1262 21.1927Z" fill="#0B2343"/>
<path fill-rule="evenodd" clip-rule="evenodd" d="M19.985 2.56368C10.3457 1.7468 1.88047 8.89073 1.06365 18.5143C0.246759 28.1536 7.3907 36.6188 17.0143 37.4356C26.6406 38.2527 35.0732 31.198 35.8898 21.5767C35.9132 21.3015 36.1551 21.0974 36.4303 21.1207C36.7055 21.1441 36.9096 21.3861 36.8862 21.6612C36.0225 31.8378 27.1014 39.2954 16.9297 38.4321C6.75547 37.5685 -0.796262 28.619 0.0672252 18.4298L0.0672307 18.4298C0.930787 8.2555 9.88033 0.703768 20.0695 1.56726L20.0696 1.56726C25.0622 1.99116 29.4277 4.36255 32.4734 7.87915C32.6541 8.08789 32.6315 8.40366 32.4227 8.58444C32.214 8.76523 31.8982 8.74256 31.7174 8.53382C28.8359 5.20671 24.708 2.96469 19.985 2.56368Z" fill="#0B2343"/>
<path fill-rule="evenodd" clip-rule="evenodd" d="M18.454 8.42426C18.7301 8.42426 18.954 8.64811 18.954 8.92426V21.0118H25.2672C25.5433 21.0118 25.7672 21.2357 25.7672 21.5118C25.7672 21.7879 25.5433 22.0118 25.2672 22.0118H17.954V8.92426C17.954 8.64811 18.1778 8.42426 18.454 8.42426Z" fill="#0B2343"/>
</svg>
