<svg width="40" height="40" viewBox="0 0 40 40" fill="none" xmlns="http://www.w3.org/2000/svg">
<path d="M38 20C38 29.9379 29.9379 38 20 38C10.0621 38 2 29.9379 2 20C2 10.0621 10.0621 2 20 2C29.9379 2 38 10.0497 38 20Z" stroke="#0B2343"/>
<path d="M11.3664 11.528L20.5217 20.6336L26.0869 17.441" stroke="#0B2343" stroke-miterlimit="10" stroke-linecap="round" stroke-linejoin="round"/>
<path d="M34.4348 19.7516C34.4348 20.4721 33.8509 21.056 33.1304 21.056C32.4099 21.056 31.8261 20.4721 31.8261 19.7516C31.8261 19.0311 32.4099 18.4473 33.1304 18.4473C33.8509 18.4473 34.4348 19.0311 34.4348 19.7516Z" stroke="#0B2343"/>
<path d="M8.14912 19.7516C8.14912 20.4721 7.56529 21.056 6.84479 21.056C6.12429 21.056 5.54042 20.4721 5.54042 19.7516C5.54042 19.0311 6.12429 18.4473 6.84479 18.4473C7.56529 18.4473 8.14912 19.0311 8.14912 19.7516Z" stroke="#0B2343"/>
<path d="M21.2795 6.67081C21.2795 7.3913 20.6956 7.97516 19.9751 7.97516C19.2546 7.97516 18.6708 7.3913 18.6708 6.67081C18.6708 5.95031 19.2546 5.36646 19.9751 5.36646C20.6956 5.36646 21.2795 5.95031 21.2795 6.67081Z" stroke="#0B2343"/>
<path d="M21.2795 32.9317C21.2795 33.6522 20.6956 34.2361 19.9751 34.2361C19.2546 34.2361 18.6708 33.6522 18.6708 32.9317C18.6708 32.2112 19.2546 31.6274 19.9751 31.6274C20.6956 31.6274 21.2795 32.2112 21.2795 32.9317Z" stroke="#0B2343"/>
</svg>
