<svg width="100" height="100" viewBox="0 0 100 100" fill="none" xmlns="http://www.w3.org/2000/svg">
<rect width="100" height="100" fill="white"/>
<path d="M90 50C90 72.0766 72.1045 90 50 90C27.9234 90 10 72.1045 10 50C10 27.9234 27.8955 10 50 10C72.1045 10 90 27.8955 90 50Z" stroke="#007CC2" stroke-width="2" stroke-miterlimit="10" stroke-linecap="round" stroke-linejoin="round"/>
<path d="M69.3727 53.5044H48.5783V22.1734" stroke="#007CC2" stroke-width="2" stroke-miterlimit="10" stroke-linecap="round" stroke-linejoin="round"/>
<path d="M96.9999 78C96.9999 66.9544 88.0456 58.0001 76.9999 58.0001C65.9543 58.0001 57 66.9544 57 78C57 89.0457 65.9543 98 77 98C88.0456 98 96.9999 89.0457 96.9999 78Z" fill="white" stroke="#007CC2" stroke-width="2" stroke-miterlimit="10" stroke-linecap="round" stroke-linejoin="round"/>
<path d="M71.324 84.7549C72.9643 86.1756 75.4957 87.2475 77.3167 87.2475C80.2356 87.2475 82.5991 85.1811 82.5991 82.6239C82.5991 80.0667 80.0677 78.8139 77.3167 78.0002C74.4625 77.109 72.0344 75.9338 72.0344 73.3766C72.0344 70.8193 74.3979 68.7529 77.3167 68.7529C79.2799 68.7529 80.9976 69.6957 81.9146 71.0776" fill="white"/>
<path d="M71.324 84.7549C72.9643 86.1756 75.4957 87.2475 77.3167 87.2475C80.2356 87.2475 82.5991 85.1811 82.5991 82.6239C82.5991 80.0667 80.0677 78.8139 77.3167 78.0002C74.4625 77.109 72.0344 75.9338 72.0344 73.3766C72.0344 70.8193 74.3979 68.7529 77.3167 68.7529C79.2799 68.7529 80.9976 69.6957 81.9146 71.0776" stroke="#007CC2" stroke-width="2" stroke-miterlimit="10" stroke-linecap="round" stroke-linejoin="round"/>
<path d="M77.3168 66.2346V89.7792" stroke="#007CC2" stroke-width="2" stroke-miterlimit="10" stroke-linecap="round" stroke-linejoin="round"/>
<mask id="mask0_12_628" style="mask-type:alpha" maskUnits="userSpaceOnUse" x="57" y="58" width="40" height="40">
<path fill-rule="evenodd" clip-rule="evenodd" d="M77.0001 97.9999C88.0458 97.9999 97.0001 89.0456 97.0001 78C97.0001 66.9543 88.0458 58 77.0001 58C65.9544 58 57.0002 66.9543 57.0002 78C57.0002 89.0456 65.9544 97.9999 77.0001 97.9999ZM79.0167 66.2347C79.0167 65.2958 78.2556 64.5347 77.3167 64.5347C76.3779 64.5347 75.6167 65.2958 75.6167 66.2347V67.2454C72.7005 67.9136 70.3344 70.2628 70.3344 73.3766C70.3344 75.3089 71.298 76.7051 72.5834 77.6718C73.4676 78.3368 74.5374 78.8285 75.6167 79.2222V85.2294C75.3878 85.1548 75.1507 85.067 74.9084 84.9656C73.9854 84.5796 73.1024 84.0463 72.437 83.4699C71.7273 82.8553 70.6537 82.9323 70.039 83.642C69.4243 84.3516 69.5014 85.4253 70.211 86.04C71.1859 86.8843 72.3887 87.5973 73.5967 88.1024C74.2461 88.374 74.9319 88.6001 75.6167 88.7499V89.7792C75.6167 90.7181 76.3779 91.4792 77.3167 91.4792C78.2556 91.4792 79.0167 90.7181 79.0167 89.7792V88.7551C81.9329 88.087 84.2991 85.7377 84.2991 82.6239C84.2991 80.6753 83.2935 79.2639 82.0113 78.2996C81.1283 77.6356 80.0725 77.146 79.0167 76.7662V70.806C79.6581 71.0911 80.1711 71.5248 80.4981 72.0176C81.0172 72.7999 82.0722 73.0133 82.8545 72.4942C83.6368 71.9751 83.8502 70.9201 83.3311 70.1378C82.3707 68.6904 80.8142 67.6495 79.0167 67.2422V66.2347ZM73.7344 73.3766C73.7344 72.3756 74.4288 71.3247 75.6167 70.7976V75.5422C75.2343 75.3568 74.9034 75.1625 74.627 74.9546C73.9848 74.4715 73.7344 74.0015 73.7344 73.3766ZM79.0167 85.2029V80.4464C79.3786 80.6243 79.6976 80.8138 79.9677 81.0169C80.639 81.5217 80.8991 82.0153 80.8991 82.6239C80.8991 83.6249 80.2047 84.6758 79.0167 85.2029Z" fill="white"/>
</mask>
<g mask="url(#mask0_12_628)">
<path d="M91.082 91.9363L63.3898 63.6464" stroke="#007CC2" stroke-width="1.5" stroke-miterlimit="10" stroke-linecap="round" stroke-linejoin="round"/>
</g>
</svg>
