<svg id="Layer_1" data-name="Layer 1" xmlns="http://www.w3.org/2000/svg" viewBox="0 0 15.09999 15.09995"><defs><style>.cls-1{fill:#e91b2f;fill-rule:evenodd;}</style></defs><path class="cls-1" d="M2.45,10a7.55,7.55,0,1,1,7.55,7.55A7.54765,7.54765,0,0,1,2.45,10ZM10,3.15A6.85,6.85,0,1,0,16.85,10,6.84765,6.84765,0,0,0,10,3.15Z" transform="translate(-2.45001 -2.44995)"/><path class="cls-1" d="M13.1687,7.32114a.35.35,0,1,0-.4952-.49477L10,9.50217,7.32654,6.82637a.35.35,0,1,0-.49519.49477L9.50526,9.99736,6.83135,12.6736a.35.35,0,1,0,.49519.4947L10,10.4925l2.6735,2.6758a.35.35,0,1,0,.4952-.4947L10.4948,9.99736Z" transform="translate(-2.45001 -2.44995)"/></svg>