<svg width="40" height="40" viewBox="0 0 40 40" fill="none" xmlns="http://www.w3.org/2000/svg">
<path d="M26.7879 23.0001C26.0679 20.7001 23.7979 18.8801 20.4979 19.2801C16.1179 15.6701 9.59789 18.1701 8.64789 23.8201C3.72789 26.7901 6.28786 33.0501 11.2379 33.0501H27.4179C30.4079 33.0501 32.9279 30.7201 32.9279 28.0101C32.9179 25.2401 30.2179 22.6701 26.7879 23.0001Z" stroke="#0B2343" stroke-miterlimit="10" stroke-linecap="round" stroke-linejoin="round"/>
<path d="M18.3779 18.0601C18.8879 16.4901 20.3579 15.3501 22.0979 15.3501C24.2579 15.3501 26.0079 17.1001 26.0079 19.2601C26.0079 19.8701 25.8679 20.4401 25.6179 20.9601" stroke="#0B2343" stroke-miterlimit="10" stroke-linecap="round" stroke-linejoin="round"/>
<path d="M29.5579 19.0901H34.3779" stroke="#0B2343" stroke-miterlimit="10" stroke-linecap="round" stroke-linejoin="round"/>
<path d="M21.928 11.83V7" stroke="#0B2343" stroke-miterlimit="10" stroke-linecap="round" stroke-linejoin="round"/>
<path d="M27.5281 13.8602L30.938 10.4402" stroke="#0B2343" stroke-miterlimit="10" stroke-linecap="round" stroke-linejoin="round"/>
<path d="M13.2679 10.4402L16.678 13.8602" stroke="#0B2343" stroke-miterlimit="10" stroke-linecap="round" stroke-linejoin="round"/>
</svg>
