<svg width="14" height="14" viewBox="0 0 14 14" fill="none" xmlns="http://www.w3.org/2000/svg">
<g clip-path="url(#clip0_5418_91035)">
<circle cx="7.5" cy="6.5" r="5.5" fill="#0B2343"/>
<path d="M9.63552 9.37937H10.1076C10.1076 9.3798 10.1076 9.38024 10.1076 9.38067C10.1068 10.5615 9.04225 11.4721 7.86711 11.4721H2.68006C1.67369 11.4721 0.897415 10.8273 0.629684 10.0177C0.371021 9.2356 0.594636 8.33209 1.42354 7.73063C1.89004 5.76406 4.15628 4.87076 5.79455 6.06568C6.81832 6.01279 7.60977 6.53775 7.98488 7.28617L5.65043 6.55186C6.69474 6.42378 7.43362 7.00506 7.67006 7.76366C8.7587 7.66021 9.64044 8.46314 9.63552 9.37937ZM9.63552 9.37937C9.63552 10.2611 8.82275 11 7.86711 11H2.68006C1.0939 11 0.271238 8.98036 1.84755 8.01487L9.63552 9.37937Z" fill="#F7F7F7" stroke="#0B2343" stroke-width="0.944142" stroke-miterlimit="10" stroke-linecap="round" stroke-linejoin="round"/>
<path d="M13.5674 2.97737L13.5673 2.97247C13.5601 2.23942 12.9732 1.63877 12.2323 1.54138C11.9636 1.09872 11.4766 0.808586 10.877 0.813377C9.81463 0.10031 8.39272 0.657999 8.05108 1.88272C7.54129 2.29291 7.39564 2.8954 7.57083 3.42574C7.75676 3.98856 8.29514 4.43216 8.98732 4.43216H12.0291C12.829 4.43216 13.5674 3.80812 13.5674 2.97737Z" fill="#F7F7F7" stroke="#0B2343" stroke-miterlimit="10" stroke-linecap="round" stroke-linejoin="round"/>
</g>
<defs>
<clipPath id="clip0_5418_91035">
<rect width="14" height="14" fill="white"/>
</clipPath>
</defs>
</svg>
