<svg width="40" height="40" viewBox="0 0 40 40" fill="none" xmlns="http://www.w3.org/2000/svg">
<path d="M28.5237 29.095C31.6637 29.095 34.3137 26.255 34.3137 22.885C34.3137 19.405 31.4337 16.315 27.8637 16.715C27.1037 13.845 24.7037 11.605 21.2437 12.105C16.6437 7.62498 9.77373 10.675 8.78373 17.675C3.60373 21.365 6.31374 29.095 11.5137 29.095H28.5237Z" stroke="#0B2343" stroke-miterlimit="10" stroke-linecap="round" stroke-linejoin="round"/>
<path d="M23.7337 19.615C23.2037 17.795 21.5238 16.465 19.5338 16.465C17.5438 16.465 15.8637 17.795 15.3337 19.615" stroke="#0B2343" stroke-miterlimit="10" stroke-linecap="round" stroke-linejoin="round"/>
<path d="M24.5938 17.475L23.7538 19.615L21.6138 18.785" stroke="#0B2343" stroke-miterlimit="10" stroke-linecap="round" stroke-linejoin="round"/>
<path d="M15.3638 22.075C15.8938 23.895 17.5738 25.225 19.5638 25.225C21.5538 25.225 23.2338 23.895 23.7638 22.075" stroke="#0B2343" stroke-miterlimit="10" stroke-linecap="round" stroke-linejoin="round"/>
<path d="M14.5137 24.225L15.3437 22.075L17.4937 22.905" stroke="#0B2343" stroke-miterlimit="10" stroke-linecap="round" stroke-linejoin="round"/>
</svg>
