<svg width="40" height="40" viewBox="0 0 40 40" fill="none" xmlns="http://www.w3.org/2000/svg">
<path d="M19.1294 21.1791C18.6285 19.5722 17.0633 18.3408 14.8511 18.6121C11.8668 16.1182 7.44233 17.8295 6.79538 21.7113C3.45625 23.7565 5.19892 28.0347 8.55892 28.0347H19.5468C21.5711 28.0347 23.2928 26.4695 23.2928 24.6017C23.3033 22.6608 21.4354 20.96 19.1294 21.1791Z" stroke="#0B2343" stroke-miterlimit="10" stroke-linecap="round" stroke-linejoin="round"/>
<path d="M32.6006 12.2262C32.3189 11.3184 31.4529 10.661 30.232 10.8071C28.5833 9.4297 26.1312 10.3688 25.7764 12.5184C23.9294 13.6558 24.8894 16.0245 26.7572 16.0245H32.8407C33.9677 16.0245 34.9172 15.1479 34.9172 14.1149C34.9068 13.0506 33.8841 12.101 32.6006 12.2262Z" stroke="#0B2343" stroke-miterlimit="10" stroke-linecap="round" stroke-linejoin="round"/>
<path d="M32.0893 16.0242C32.5067 17.2346 32.7259 18.6537 32.7259 19.9998C32.7259 26.6259 27.3311 31.9998 20.6841 31.9998C17.1259 31.9998 13.9328 30.4659 11.731 28.0242" stroke="#0B2343" stroke-miterlimit="10" stroke-linecap="round" stroke-linejoin="round"/>
<path d="M8.7467 18.4452C9.51888 12.5495 14.5694 8 20.6842 8C23.3137 8 25.745 8.84521 27.7276 10.2748" stroke="#0B2343" stroke-miterlimit="10" stroke-linecap="round" stroke-linejoin="round"/>
</svg>
