<svg width="40" height="40" viewBox="0 0 40 40" fill="none" xmlns="http://www.w3.org/2000/svg">
<path d="M28.96 21.5C28.36 19.52 26.48 18.03 23.84 18.36C20.28 15.31 14.97 17.39 14.2 22.15C12.9 22.97 12.04 24.35 12.04 25.7C12.04 28.03 13.95 29.92 16.31 29.92H29.47C31.9 29.92 33.95 27.99 33.95 25.7C33.95 23.31 31.71 21.22 28.96 21.5Z" stroke="#0B2343" stroke-miterlimit="10" stroke-linecap="round" stroke-linejoin="round"/>
<path d="M22.98 6V11H27.98" stroke="#0B2343" stroke-miterlimit="10" stroke-linecap="round" stroke-linejoin="round"/>
<path d="M27.98 33V33.98C27.98 34.53 27.5401 34.98 26.9901 34.98H7.98004C7.43004 34.98 7 34.53 7 33.98V7.01001C7 6.46001 7.44004 6 7.98004 6H22.98C23.24 6 23.36 6.11004 23.54 6.29004L27.6801 10.38C27.8701 10.57 27.97 10.74 27.97 11V15" stroke="#0B2343" stroke-miterlimit="10" stroke-linecap="round" stroke-linejoin="round"/>
</svg>
