<svg xmlns="http://www.w3.org/2000/svg" viewBox="0 0 28.9 10"><title>club-premier-outline</title><path d="M24.67,10.4a4.89,4.89,0,0,1-4.6-3.1h-9.7a5,5,0,0,1-4.7,3.1,5,5,0,0,1-5-5,5,5,0,0,1,5-5,5,5,0,0,1,4.7,3.3h9.5a5,5,0,0,1,9.7,1.7A4.87,4.87,0,0,1,24.67,10.4ZM10,6.3h10.4a0.55,0.55,0,0,1,.5.3,4,4,0,0,0,3.8,2.8,4,4,0,1,0,0-8,4.08,4.08,0,0,0-3.9,2.9,0.66,0.66,0,0,1-.5.4H10.07a0.51,0.51,0,0,1-.5-0.4,4.08,4.08,0,0,0-3.9-2.9,4,4,0,0,0,0,8,4,4,0,0,0,3.8-2.8A0.55,0.55,0,0,1,10,6.3Z" transform="translate(-0.67 -0.4)" fill="#221d1f"/></svg>