<svg width="40" height="40" viewBox="0 0 40 40" fill="none" xmlns="http://www.w3.org/2000/svg">
<path d="M31.8758 15.1233C31.9082 9.25546 24.4007 7.10893 21.2726 11.855C18.5544 7.69141 12.3522 8.16601 10.3027 12.7287H10.2919C6.71079 13.4622 4.40243 17.0002 5.13592 20.6137C5.82626 24.0223 8.97598 26.2874 12.3306 25.9207C14.1643 28.3477 17.5943 29.1243 20.3233 27.3337C23.9045 34.2156 34.3999 30.8178 33.2134 23.0515C37.4525 21.509 36.3631 15.1557 31.8758 15.1233Z" stroke="#0B2343" stroke-miterlimit="10" stroke-linecap="round" stroke-linejoin="round"/>
<path d="M16.6774 16.7198C16.1165 16.1589 15.3507 15.8137 14.5093 15.8137C12.7727 15.8137 11.3705 17.2699 11.3705 19.0712C11.3705 20.8726 12.7727 22.3288 14.5093 22.3288C15.383 22.3288 16.1813 21.962 16.7422 21.358" stroke="#0B2343" stroke-linecap="round" stroke-linejoin="round"/>
<path d="M24.6703 19.0712C24.6703 20.8726 23.3219 22.3288 21.65 22.3288C19.9781 22.3288 18.6299 20.8726 18.6299 19.0712C18.6299 17.2699 19.9781 15.8137 21.65 15.8137C23.3219 15.8137 24.6703 17.2807 24.6703 19.0712Z" stroke="#0B2343" stroke-linecap="round" stroke-linejoin="round"/>
<path d="M29.0281 24.3998H26.4177L28.3162 22.5877C30.0636 20.9481 27.6905 19.2762 26.5364 21.1315" stroke="#0B2343" stroke-miterlimit="10" stroke-linecap="round" stroke-linejoin="round"/>
</svg>
