<?xml version="1.0" encoding="utf-8"?>
<!-- Generator: Adobe Illustrator 23.0.0, SVG Export Plug-In . SVG Version: 6.00 Build 0)  -->
<svg version="1.1" id="Layer_1" xmlns="http://www.w3.org/2000/svg" xmlns:xlink="http://www.w3.org/1999/xlink" x="0px" y="0px"
	 viewBox="0 0 38 50" style="enable-background:new 0 0 38 50;" xml:space="preserve">
<path d="M37.5,10c-8.6,0-17.7,5.9-19.8,15.7c-1.8-5.3-7.6-5.6-17.2-5.6c-0.1,0-0.3,0.1-0.4,0.2S0,20.6,0,20.7
	c0.6,5.8,3.5,10.2,7.7,11.9c1.1,0.5,2.3,0.7,3.5,0.7c2.2,0,4.3-0.8,6.2-2.2c0.6,2.1,3.5,12.3,1.2,18c-0.1,0.3,0,0.5,0.3,0.6
	c0.1,0,0.1,0,0.2,0c0.2,0,0.4-0.1,0.5-0.3c2.4-5.9-0.3-15.7-1.1-18.4c2.5,0.7,5.1,1.3,7.5,1.3c2.3,0,4.4-0.5,6.2-1.9
	C36.1,27.5,38,21,38,10.5C38,10.2,37.7,10,37.5,10z M8.1,31.7c-3.7-1.5-6.3-5.4-7-10.5c11,0,15.5,0.7,16.1,7.1
	c-2.5-2.3-8.4-2.3-8.7-2.3c-0.3,0-0.5,0.2-0.5,0.5s0.2,0.5,0.5,0.5c2.3,0,8.1,0.6,8.8,3.1c-0.1,0-0.2,0.1-0.2,0.1
	C14.3,32.4,11.1,32.9,8.1,31.7z M31.6,29.7c-3.4,2.6-8.3,1.7-13.1,0.4c-0.1,0-0.1,0-0.2,0c1.4-4.5,4.2-5.9,7.7-7.7
	c1.9-1,4-2.1,6.1-3.8c0.2-0.2,0.2-0.5,0.1-0.7c-0.2-0.2-0.5-0.2-0.7-0.1c-2,1.6-4,2.7-5.9,3.7c-2.8,1.5-5.4,2.8-7.1,5.7
	C19.9,17.3,28.6,11.3,37,11C36.9,20.9,35.1,27,31.6,29.7z"/>
<path d="M4.2,11.4L4.2,11.4c-0.3,0.2-0.5,0.5-0.4,0.9c0.1,0.3,0.4,0.5,0.7,0.5c0,0,0.1,0,0.1,0c5.4-0.7,8-1.7,8.2-1.8l12-6.9
	C26,3.3,28,2,27.9,1c0-0.2-0.1-0.6-0.7-0.8c-2-0.7-5.6,1.3-6,1.5l-4.4,2.5L9.4,1.6c-0.1,0-0.3,0-0.4,0L8.5,1.9
	C8.3,2,8.3,2.1,8.2,2.3c0,0.2,0,0.3,0.2,0.4l4.2,3.9L9,8.7C8.1,9.2,7.5,9.1,4.9,8.5C4.2,8.4,3.4,8.2,2.5,8C2.4,7.9,2.2,8,2.1,8
	L1.3,8.5C1.1,8.6,1,8.8,1,8.9s0.1,0.3,0.2,0.4L4.2,11.4z M4.6,9.5c2.6,0.6,3.6,0.8,4.8,0.1l3.9-2.3l0.5,0.4c0.2,0.2,0.5,0.2,0.7,0
	c0.2-0.2,0.2-0.5,0-0.7l-4.4-4.1l6.6,2.3c0.1,0,0.3,0,0.4,0l4.6-2.7c1-0.6,3.9-1.9,5.2-1.4c0,0,0,0,0,0c-0.2,0.4-1.3,1.3-2.6,2.1
	L12.4,10c0,0-2.2,0.9-6.7,1.5c0,0,0-0.1,0-0.1c0-0.2-0.1-0.3-0.2-0.4L2.5,9C3.3,9.2,4,9.3,4.6,9.5z"/>
<path d="M19,8.3l-0.3,2.5l-0.2,0.2l-1.4-1.3c-0.2-0.2-0.5-0.2-0.7,0c-0.2,0.2-0.2,0.5,0,0.7l1.7,1.6c0.1,0.1,0.2,0.1,0.3,0.1
	c0.1,0,0.2,0,0.3-0.1l0.7-0.5c0.1-0.1,0.2-0.2,0.2-0.3L20,8.4c0-0.3-0.2-0.5-0.4-0.6C19.3,7.8,19.1,8,19,8.3z"/>
</svg>
