<svg width="40" height="40" viewBox="0 0 40 40" fill="none" xmlns="http://www.w3.org/2000/svg">
<path d="M12.7364 31.4498C12.7901 32.4782 13.2193 32.8806 13.738 32.8806H25.5603C26.079 32.8806 26.5083 32.4782 26.5619 31.4498L28.2879 12.3391H11.0016L12.7364 31.4498Z" stroke="#0B2343" stroke-linecap="round" stroke-linejoin="round"/>
<path d="M28.6725 10.0137H26.1327L25.2474 7H14.051L13.1657 10.0137H10.626L10 12.3389H29.2985L28.6725 10.0137Z" stroke="#0B2343" stroke-linecap="round" stroke-linejoin="round"/>
<path d="M28.6725 10.0137H26.1327L25.2474 7H14.051L13.1657 10.0137H10.626L10 12.3389H29.2985L28.6725 10.0137Z" stroke="#0B2343" stroke-linecap="round" stroke-linejoin="round"/>
<path d="M11.5381 17.7585C11.8958 17.7495 27.796 17.7585 27.796 17.7585" stroke="#0B2343" stroke-linecap="round" stroke-linejoin="round"/>
<path d="M12.2357 25.7799C12.5934 25.7709 27.0717 25.7799 27.0717 25.7799" stroke="#0B2343" stroke-linecap="round" stroke-linejoin="round"/>
</svg>
