<svg width="40" height="40" viewBox="0 0 40 40" fill="none" xmlns="http://www.w3.org/2000/svg">
<path d="M27.1279 25.7722C27.7986 26.9107 29.246 27.2726 30.358 26.5842C31.4612 25.887 31.8142 24.3955 31.1435 23.2569C30.4728 22.1184 29.0253 21.7567 27.9133 22.4451" stroke="#0B2343" stroke-linecap="round" stroke-linejoin="round"/>
<path d="M28.1164 19.8944C28.1164 26.7343 23.8359 32.2768 18.5581 32.2768C13.2804 32.2768 9 26.7343 9 19.8944H28.1164Z" stroke="#0B2343" stroke-linecap="round" stroke-linejoin="round"/>
<path d="M17.8873 7C17.8873 7 19.9879 7.64421 17.2961 11.8982C14.6043 16.1521 17.2961 16.4081 17.2961 16.4081" stroke="#0B2343" stroke-linecap="round" stroke-linejoin="round"/>
<path d="M21.3647 11.0422C21.3647 11.0422 22.565 11.4129 21.0294 13.8312C19.4937 16.2582 21.0294 16.3994 21.0294 16.3994" stroke="#0B2343" stroke-linecap="round" stroke-linejoin="round"/>
<path d="M9.01767 32.2769H28.081" stroke="#0B2343" stroke-linecap="round" stroke-linejoin="round"/>
</svg>
