<svg width="40" height="40" viewBox="0 0 40 40" fill="none" xmlns="http://www.w3.org/2000/svg">
<path d="M21.28 29.6461C22.1166 31.4828 23.559 32.8291 25.3764 33.2234C28.9248 33.983 32.5885 30.8385 33.5501 26.2036C34.5117 21.5686 32.425 17.1933 28.8671 16.4336C27.9247 16.2317 26.9727 16.3086 26.0688 16.6067" stroke="#0B2343" stroke-linecap="round" stroke-linejoin="round"/>
<path d="M28.7804 16.4144L27.7131 18.0204C26.4149 19.982 25.915 23.3958 26.5977 25.646C27.2804 27.8961 26.79 31.2809 25.4918 33.233" stroke="#0B2343" stroke-linecap="round" stroke-linejoin="round"/>
<path d="M15.0872 29.7327C20.1059 29.7327 24.1744 24.4199 24.1744 17.8663C24.1744 11.3128 20.1059 6.00012 15.0872 6.00012C10.0684 6.00012 6 11.3128 6 17.8663C6 24.4199 10.0684 29.7327 15.0872 29.7327Z" stroke="#0B2343" stroke-linecap="round" stroke-linejoin="round"/>
<path d="M15.2218 6.00024L16.2123 8.49078C17.4143 11.5198 17.1258 16.2895 15.568 19.1455C14.0102 22.0015 13.7218 26.7134 14.9238 29.7424" stroke="#0B2343" stroke-linecap="round" stroke-linejoin="round"/>
</svg>
