<svg width="40" height="40" viewBox="0 0 40 40" fill="none" xmlns="http://www.w3.org/2000/svg">
<path d="M27.0156 23.7615C27.0156 24.8645 28.96 25.7628 31.3707 25.7628C33.7701 25.7628 35.726 24.8645 35.726 23.7615" stroke="#0B2343" stroke-linecap="round" stroke-linejoin="round"/>
<path d="M27.0156 26.2629C27.0156 27.366 28.96 28.2643 31.3707 28.2643C33.7701 28.2643 35.726 27.366 35.726 26.2629" stroke="#0B2343" stroke-linecap="round" stroke-linejoin="round"/>
<path d="M35.726 21.2483V28.7647C35.726 29.8677 33.7815 30.7661 31.3707 30.7661C28.9714 30.7661 27.0156 29.8677 27.0156 28.7647V21.2483" stroke="#0B2343" stroke-linecap="round" stroke-linejoin="round"/>
<path d="M35.726 21.2484C35.726 22.3515 33.7815 23.2498 31.3707 23.2498C28.9714 23.2498 27.0156 22.3515 27.0156 21.2484C27.0156 20.1454 28.96 19.2471 31.3707 19.2471C33.7701 19.2584 35.726 20.1454 35.726 21.2484Z" stroke="#0B2343" stroke-linecap="round" stroke-linejoin="round"/>
<path d="M4 11.5601C4 12.6631 5.94445 13.5614 8.35517 13.5614C10.7545 13.5614 12.7104 12.6631 12.7104 11.5601" stroke="#0B2343" stroke-linecap="round" stroke-linejoin="round"/>
<path d="M4 14.0615C4 15.1645 5.94445 16.0629 8.35517 16.0629C10.7545 16.0629 12.7104 15.1645 12.7104 14.0615" stroke="#0B2343" stroke-linecap="round" stroke-linejoin="round"/>
<path d="M4 16.5632C4 17.6663 5.94445 18.5646 8.35517 18.5646C10.7545 18.5646 12.7104 17.6663 12.7104 16.5632" stroke="#0B2343" stroke-linecap="round" stroke-linejoin="round"/>
<path d="M4 19.0764C4 20.1794 5.94445 21.0777 8.35517 21.0777C10.7545 21.0777 12.7104 20.1794 12.7104 19.0764" stroke="#0B2343" stroke-linecap="round" stroke-linejoin="round"/>
<path d="M4 21.5781C4 22.6811 5.94445 23.5795 8.35517 23.5795C10.7545 23.5795 12.7104 22.6811 12.7104 21.5781" stroke="#0B2343" stroke-linecap="round" stroke-linejoin="round"/>
<path d="M4 24.0911C4 25.1941 5.94445 26.0924 8.35517 26.0924C10.7545 26.0924 12.7104 25.1941 12.7104 24.0911" stroke="#0B2343" stroke-linecap="round" stroke-linejoin="round"/>
<path d="M4 26.5928C4 27.6958 5.94445 28.5941 8.35517 28.5941C10.7545 28.5941 12.7104 27.6958 12.7104 26.5928" stroke="#0B2343" stroke-linecap="round" stroke-linejoin="round"/>
<path d="M12.7104 9.00146V29.0946C12.7104 30.1976 10.7659 31.096 8.35517 31.096C5.95582 31.096 4 30.1976 4 29.0946V9.00146" stroke="#0B2343" stroke-linecap="round" stroke-linejoin="round"/>
<path d="M12.7104 9.00133C12.7104 10.1044 10.7659 11.0027 8.35517 11.0027C5.95582 11.0027 4 10.1044 4 9.00133C4 7.89831 5.94445 7 8.35517 7C10.7659 7.01137 12.7104 7.89831 12.7104 9.00133Z" stroke="#0B2343" stroke-linecap="round" stroke-linejoin="round"/>
<path d="M15.4736 20.509C15.4736 21.6121 17.4182 22.5104 19.8289 22.5104C22.2282 22.5104 24.1841 21.6121 24.1841 20.509" stroke="#0B2343" stroke-linecap="round" stroke-linejoin="round"/>
<path d="M15.4736 23.0107C15.4736 24.1138 17.4182 25.0121 19.8289 25.0121C22.2282 25.0121 24.1841 24.1138 24.1841 23.0107" stroke="#0B2343" stroke-linecap="round" stroke-linejoin="round"/>
<path d="M15.4736 25.5237C15.4736 26.6267 17.4182 27.525 19.8289 27.525C22.2282 27.525 24.1841 26.6267 24.1841 25.5237" stroke="#0B2343" stroke-linecap="round" stroke-linejoin="round"/>
<path d="M15.4736 28.0256C15.4736 29.1287 17.4182 30.027 19.8289 30.027C22.2282 30.027 24.1841 29.1287 24.1841 28.0256" stroke="#0B2343" stroke-linecap="round" stroke-linejoin="round"/>
<path d="M24.1841 17.9619V30.5386C24.1841 31.6416 22.2396 32.54 19.8289 32.54C17.4295 32.54 15.4736 31.6416 15.4736 30.5386V17.9619" stroke="#0B2343" stroke-linecap="round" stroke-linejoin="round"/>
<path d="M24.1841 17.9618C24.1841 19.0648 22.2396 19.9632 19.8289 19.9632C17.4295 19.9632 15.4736 19.0648 15.4736 17.9618C15.4736 16.8588 17.4182 15.9604 19.8289 15.9604C22.2282 15.9604 24.1841 16.8588 24.1841 17.9618Z" stroke="#0B2343" stroke-linecap="round" stroke-linejoin="round"/>
</svg>
