<svg width="40" height="40" viewBox="0 0 40 40" fill="none" xmlns="http://www.w3.org/2000/svg">
<path d="M14.85 26.8201C14.85 28.5101 19.09 29.89 24.32 29.89C29.55 29.89 33.8 28.5201 33.8 26.8201" stroke="#0B2343" stroke-linecap="round" stroke-linejoin="round"/>
<path d="M33.8 22.9099V30.5699C33.8 32.2599 29.56 33.6399 24.32 33.6399C19.09 33.6399 14.85 32.2699 14.85 30.5699V22.9099" stroke="#0B2343" stroke-linecap="round" stroke-linejoin="round"/>
<path d="M33.8 22.6999C33.8 24.5099 29.56 25.9699 24.32 25.9699C19.09 25.9699 14.85 24.5099 14.85 22.6999C14.85 20.8899 19.09 19.4299 24.32 19.4299C29.56 19.4299 33.8 20.8999 33.8 22.6999Z" stroke="#0B2343" stroke-linecap="round" stroke-linejoin="round"/>
<path d="M14.85 30.3L7 22.79L23.8 6L33.05 15.25L28.56 19.78" stroke="#0B2343" stroke-linecap="round" stroke-linejoin="round"/>
<path d="M32 16.3L33.92 18.95L31.61 20.61" stroke="#0B2343" stroke-linecap="round" stroke-linejoin="round"/>
</svg>
