<svg width="40" height="40" viewBox="0 0 40 40" fill="none" xmlns="http://www.w3.org/2000/svg">
<path d="M5 21.99C5 23.74 9.01998 25.17 13.98 25.17C14.31 25.17 14.73 25.18 15.05 25.16" stroke="#0B2343" stroke-linecap="round" stroke-linejoin="round"/>
<path d="M5 18.1201C5 19.8701 9.01998 21.3001 13.98 21.3001C14.42 21.3001 14.79 21.3201 15.21 21.3001" stroke="#0B2343" stroke-linecap="round" stroke-linejoin="round"/>
<path d="M5 14.24C5 15.99 9.01998 17.42 13.98 17.42C18.94 17.42 22.96 16 22.96 14.24" stroke="#0B2343" stroke-linecap="round" stroke-linejoin="round"/>
<path d="M5 10.1799V25.8699C5 27.6199 9.01998 29.0499 13.98 29.0499C14.32 29.0499 14.72 29.0599 15.05 29.0399" stroke="#0B2343" stroke-linecap="round" stroke-linejoin="round"/>
<path d="M22.96 10.1799V18.6399" stroke="#0B2343" stroke-linecap="round" stroke-linejoin="round"/>
<path d="M22.96 10.18C22.96 11.93 18.94 13.36 13.98 13.36C9.01998 13.36 5 11.94 5 10.18C5 8.41999 9.01998 7 13.98 7C18.94 7.01 22.96 8.42999 22.96 10.18Z" stroke="#0B2343" stroke-linecap="round" stroke-linejoin="round"/>
<path d="M15.05 26.01C15.05 27.7 19.29 29.08 24.52 29.08C29.75 29.08 34 27.71 34 26.01" stroke="#0B2343" stroke-linecap="round" stroke-linejoin="round"/>
<path d="M34 22.1001V29.7601C34 31.4501 29.76 32.8301 24.52 32.8301C19.29 32.8301 15.05 31.4601 15.05 29.7601V22.1001" stroke="#0B2343" stroke-linecap="round" stroke-linejoin="round"/>
<path d="M34 21.8901C34 23.7001 29.76 25.1601 24.52 25.1601C19.29 25.1601 15.05 23.7001 15.05 21.8901C15.05 20.0801 19.29 18.6201 24.52 18.6201C29.76 18.6201 34 20.0901 34 21.8901Z" stroke="#0B2343" stroke-linecap="round" stroke-linejoin="round"/>
</svg>
