<svg width="40" height="40" viewBox="0 0 40 40" fill="none" xmlns="http://www.w3.org/2000/svg">
<path d="M13.5873 10.8207L14.1614 7L32.6152 9.7949L30.9308 20.9181L25.4916 20.0994" stroke="#0B2343" stroke-miterlimit="10" stroke-linecap="round" stroke-linejoin="round"/>
<path d="M27.7877 20.3818C28.07 18.7443 29.6227 17.4834 31.4107 17.7563" stroke="#0B2343" stroke-miterlimit="10" stroke-linecap="round" stroke-linejoin="round"/>
<path d="M31.9753 12.6838C30.4226 12.4862 29.3875 10.99 29.6698 9.35254" stroke="#0B2343" stroke-miterlimit="10" stroke-linecap="round" stroke-linejoin="round"/>
<path d="M17.1539 7.45166C16.8998 9.1079 15.3565 10.2466 13.7097 9.99249" stroke="#0B2343" stroke-miterlimit="10" stroke-linecap="round" stroke-linejoin="round"/>
<path d="M25.9903 26.4231C25.9903 27.3359 27.5995 28.0793 29.5851 28.0793C31.5707 28.0793 33.1799 27.3359 33.1799 26.4231" stroke="#0B2343" stroke-linecap="round" stroke-linejoin="round"/>
<path d="M25.9903 28.4934C25.9903 29.4062 27.5995 30.1496 29.5851 30.1496C31.5707 30.1496 33.1799 29.4062 33.1799 28.4934" stroke="#0B2343" stroke-linecap="round" stroke-linejoin="round"/>
<path d="M33.1705 24.3435V30.5638C33.1705 31.4766 31.5613 32.22 29.5757 32.22C27.5901 32.22 25.9809 31.4766 25.9809 30.5638V24.3435" stroke="#0B2343" stroke-linecap="round" stroke-linejoin="round"/>
<path d="M33.1705 24.3435C33.1705 25.2563 31.5613 25.9997 29.5757 25.9997C27.5901 25.9997 25.9809 25.2563 25.9809 24.3435C25.9809 23.4307 27.5901 22.6873 29.5757 22.6873C31.5613 22.6967 33.1705 23.4307 33.1705 24.3435Z" stroke="#0B2343" stroke-linecap="round" stroke-linejoin="round"/>
<path d="M7.0094 16.3257C7.0094 17.2385 8.61859 17.9819 10.6042 17.9819C12.5898 17.9819 14.199 17.2385 14.199 16.3257" stroke="#0B2343" stroke-linecap="round" stroke-linejoin="round"/>
<path d="M7.0094 18.396C7.0094 19.3088 8.61859 20.0522 10.6042 20.0522C12.5898 20.0522 14.199 19.3088 14.199 18.396" stroke="#0B2343" stroke-linecap="round" stroke-linejoin="round"/>
<path d="M7.0094 20.4663C7.0094 21.3791 8.61859 22.1225 10.6042 22.1225C12.5898 22.1225 14.199 21.3791 14.199 20.4663" stroke="#0B2343" stroke-linecap="round" stroke-linejoin="round"/>
<path d="M7.0094 22.5461C7.0094 23.459 8.61859 24.2024 10.6042 24.2024C12.5898 24.2024 14.199 23.459 14.199 22.5461" stroke="#0B2343" stroke-linecap="round" stroke-linejoin="round"/>
<path d="M7.0094 24.6165C7.0094 25.5293 8.61859 26.2727 10.6042 26.2727C12.5898 26.2727 14.199 25.5293 14.199 24.6165" stroke="#0B2343" stroke-linecap="round" stroke-linejoin="round"/>
<path d="M7.0094 26.696C7.0094 27.6089 8.61859 28.3523 10.6042 28.3523C12.5898 28.3523 14.199 27.6089 14.199 26.696" stroke="#0B2343" stroke-linecap="round" stroke-linejoin="round"/>
<path d="M7.0094 28.7664C7.0094 29.6792 8.61859 30.4226 10.6042 30.4226C12.5898 30.4226 14.199 29.6792 14.199 28.7664" stroke="#0B2343" stroke-linecap="round" stroke-linejoin="round"/>
<path d="M14.1896 14.2083V30.8365C14.1896 31.7493 12.5804 32.4928 10.5948 32.4928C8.60919 32.4928 7 31.7493 7 30.8365V14.2083" stroke="#0B2343" stroke-linecap="round" stroke-linejoin="round"/>
<path d="M14.1896 14.2082C14.1896 15.121 12.5804 15.8645 10.5948 15.8645C8.60919 15.8645 7 15.121 7 14.2082C7 13.2954 8.60919 12.552 10.5948 12.552C12.5804 12.5614 14.1896 13.2954 14.1896 14.2082Z" stroke="#0B2343" stroke-linecap="round" stroke-linejoin="round"/>
<path d="M16.4763 23.7317C16.4763 24.6445 18.0855 25.3879 20.0711 25.3879C22.0567 25.3879 23.6659 24.6445 23.6659 23.7317" stroke="#0B2343" stroke-linecap="round" stroke-linejoin="round"/>
<path d="M16.4763 25.8018C16.4763 26.7146 18.0855 27.458 20.0711 27.458C22.0567 27.458 23.6659 26.7146 23.6659 25.8018" stroke="#0B2343" stroke-linecap="round" stroke-linejoin="round"/>
<path d="M16.4763 27.8816C16.4763 28.7944 18.0855 29.5378 20.0711 29.5378C22.0567 29.5378 23.6659 28.7944 23.6659 27.8816" stroke="#0B2343" stroke-linecap="round" stroke-linejoin="round"/>
<path d="M16.4763 29.9521C16.4763 30.865 18.0855 31.6084 20.0711 31.6084C22.0567 31.6084 23.6659 30.865 23.6659 29.9521" stroke="#0B2343" stroke-linecap="round" stroke-linejoin="round"/>
<path d="M23.6565 21.6238V32.0317C23.6565 32.9445 22.0473 33.688 20.0617 33.688C18.0761 33.688 16.4669 32.9445 16.4669 32.0317V21.6238" stroke="#0B2343" stroke-linecap="round" stroke-linejoin="round"/>
<path d="M23.6565 21.6238C23.6565 22.5366 22.0473 23.28 20.0617 23.28C18.0761 23.28 16.4669 22.5366 16.4669 21.6238C16.4669 20.711 18.0761 19.9675 20.0617 19.9675C22.0473 19.9675 23.6565 20.711 23.6565 21.6238Z" stroke="#0B2343" stroke-linecap="round" stroke-linejoin="round"/>
<path d="M20.504 15.8931C20.918 16.373 21.6144 16.787 22.1414 16.8623C22.9884 16.9847 23.76 16.4765 23.8635 15.7331C23.967 14.9896 23.2801 14.5191 22.5178 14.1803C21.7273 13.8039 21.0686 13.371 21.1721 12.6276C21.2756 11.8842 22.0473 11.3854 22.8943 11.4984C23.4683 11.5736 23.9294 11.9218 24.1364 12.3641" stroke="#0B2343" stroke-miterlimit="10" stroke-linecap="round" stroke-linejoin="round"/>
<path d="M22.9884 10.7642L22.8943 11.4982" stroke="#0B2343" stroke-miterlimit="10" stroke-linecap="round" stroke-linejoin="round"/>
<path d="M22.1414 16.8621L22.0473 17.5961" stroke="#0B2343" stroke-miterlimit="10" stroke-linecap="round" stroke-linejoin="round"/>
</svg>
