<svg width="40" height="40" viewBox="0 0 40 40" fill="none" xmlns="http://www.w3.org/2000/svg">
<path d="M24.3643 11.3278L25.9561 13.5944C26.0512 13.7242 26.1465 13.8712 26.1465 14.027V29.1754C26.1465 29.4609 25.809 29.729 25.5668 29.8675C25.1602 30.0924 24.52 30.8537 24.1653 31.5717C24.0269 31.8572 23.7327 32.0476 23.4126 32.0476H16.5348C16.2233 32.0476 15.9465 31.8572 15.8081 31.5717C15.4534 30.845 14.8219 30.0924 14.4152 29.8675C14.1644 29.729 14 29.4609 14 29.1754V14.027C14 13.8712 14.0605 13.7155 14.1557 13.5944L15.6351 11.3278" stroke="#0B2343" stroke-width="0.865131" stroke-linecap="round" stroke-linejoin="round"/>
<path d="M14.1038 29.5648H25.8869" stroke="#0B2343" stroke-width="0.865131" stroke-linecap="round" stroke-linejoin="round"/>
<path d="M21.7602 11.3278L23.4732 13.7327C23.551 13.8452 23.5856 13.9837 23.5856 14.1221V18.6814" stroke="#0B2343" stroke-width="0.865131" stroke-linecap="round" stroke-linejoin="round"/>
<path d="M19.2254 9.5543V8.26526C19.2254 6.58691 17.3913 6.56961 17.3913 8.26526V9.5543" stroke="#0B2343" stroke-width="0.865131" stroke-linecap="round" stroke-linejoin="round"/>
<path d="M17.3913 8.75818H19.2254" stroke="#0B2343" stroke-width="0.865131" stroke-linecap="round" stroke-linejoin="round"/>
<path d="M14.8305 11.3278H25.1342" stroke="#0B2343" stroke-width="0.865131" stroke-linecap="round" stroke-linejoin="round"/>
<path d="M20.1164 15.6965H14V26.0954H20.1164V15.6965Z" stroke="#0B2343" stroke-width="0.865131" stroke-linecap="round" stroke-linejoin="round"/>
</svg>
