<svg width="40" height="40" viewBox="0 0 40 40" fill="none" xmlns="http://www.w3.org/2000/svg">
<path d="M17.828 9.56585C17.6619 9.23369 17.5642 8.85267 17.5642 8.45212C17.5642 7.09418 18.6584 6 20.0163 6C21.3743 6 22.4684 7.09418 22.4684 8.45212C22.4684 8.85267 22.3707 9.23369 22.2047 9.56585" stroke="#0B2343" stroke-miterlimit="10" stroke-linecap="round" stroke-linejoin="round"/>
<path d="M32.0229 21.9534C32.0229 28.5868 26.6497 33.96 20.0163 33.96C13.3829 33.96 8.00978 28.5868 8.00978 21.9534C8.00978 15.32 13.3829 9.94678 20.0163 9.94678C26.6497 9.94678 32.0229 15.32 32.0229 21.9534Z" stroke="#0B2343" stroke-miterlimit="10" stroke-linecap="round" stroke-linejoin="round"/>
<path d="M20.0065 12.7797V9.93677" stroke="#0B2343" stroke-miterlimit="10" stroke-linecap="round" stroke-linejoin="round"/>
<path d="M20.0065 33.9599V31.1169" stroke="#0B2343" stroke-miterlimit="10" stroke-linecap="round" stroke-linejoin="round"/>
<path d="M29.1507 21.5237H32.0229" stroke="#0B2343" stroke-miterlimit="10" stroke-linecap="round" stroke-linejoin="round"/>
<path d="M8 21.5237H10.8136" stroke="#0B2343" stroke-miterlimit="10" stroke-linecap="round" stroke-linejoin="round"/>
<path d="M22.0288 23.9754L13.5686 28.3911L17.9843 19.9309L22.0288 23.9754Z" stroke="#0B2343" stroke-linecap="round" stroke-linejoin="round"/>
<path d="M17.9843 19.9312L26.4446 15.5056L22.0288 23.9757L17.9843 19.9312Z" stroke="#0B2343" stroke-linecap="round" stroke-linejoin="round"/>
</svg>
