<svg width="40" height="40" viewBox="0 0 40 40" fill="none" xmlns="http://www.w3.org/2000/svg">
<path d="M15.67 29.97L15.04 34.3899C15.04 34.7099 15.32 34.97 15.67 34.97H25.32C25.67 34.97 25.95 34.7099 25.95 34.3899L25.32 29.97" stroke="#0B2343" stroke-miterlimit="10" stroke-linecap="round" stroke-linejoin="round"/>
<path d="M32.89 6H8.04C6.9 6 6 6.89001 6 8.01001V24.96C6 26.08 6.9 26.98 8.04 26.98H32.89C34.03 26.98 34.94 26.08 34.94 24.96V8.01001C34.94 6.89001 34.03 6 32.89 6Z" stroke="#0B2343" stroke-miterlimit="10" stroke-linecap="round" stroke-linejoin="round"/>
<path d="M6.01001 22.98H34.94" stroke="#0B2343" stroke-miterlimit="10" stroke-linecap="round" stroke-linejoin="round"/>
<path d="M24.55 14.1599C24.15 12.8299 22.87 11.78 21.04 12.01C18.59 9.92004 14.95 11.3499 14.43 14.6099C11.68 16.3299 13.12 19.94 15.88 19.94H24.91C26.58 19.94 27.98 18.6101 27.98 17.0401C27.98 15.4301 26.46 13.9799 24.55 14.1599Z" stroke="#0B2343" stroke-miterlimit="10" stroke-linecap="round" stroke-linejoin="round"/>
</svg>
