<svg width="40" height="40" viewBox="0 0 40 40" fill="none" xmlns="http://www.w3.org/2000/svg">
<path d="M11.9299 10.98H28.0599" stroke="#0B2343" stroke-linecap="round" stroke-linejoin="round"/>
<path d="M11.9299 13.98H19.2699" stroke="#0B2343" stroke-linecap="round" stroke-linejoin="round"/>
<path d="M11.9299 17.98H28.0599" stroke="#0B2343" stroke-linecap="round" stroke-linejoin="round"/>
<path d="M11.9299 20.98H19.2699" stroke="#0B2343" stroke-linecap="round" stroke-linejoin="round"/>
<path d="M22.9199 30.96C25.4599 30.96 26.0399 32.91 26.8299 34.49C26.8299 34.75 26.5699 34.97 26.2399 34.97H14.7199C14.3999 34.97 14.1299 34.7099 14.1299 34.4399C14.9399 32.8699 15.5599 30.95 18.0399 30.95H22.9199V30.96Z" stroke="#0B2343" stroke-miterlimit="10" stroke-linecap="round" stroke-linejoin="round"/>
<path d="M32.93 6H8.02C6.87 6 6 6.95998 6 8.09998V24.0399C6 25.1799 6.87 25.9399 8.02 25.9399H32.93C34.08 25.9399 34.95 25.1699 34.95 24.0399V8.09998C34.96 6.96998 34.08 6 32.93 6Z" stroke="#0B2343" stroke-miterlimit="10" stroke-linecap="round" stroke-linejoin="round"/>
<path d="M20.48 30.96V28.2899" stroke="#0B2343" stroke-miterlimit="10" stroke-linecap="round" stroke-linejoin="round"/>
</svg>
