<svg width="40" height="40" viewBox="0 0 40 40" fill="none" xmlns="http://www.w3.org/2000/svg">
<path d="M14.1802 20.96H26.7702" stroke="#0B2343" stroke-linecap="round" stroke-linejoin="round"/>
<path d="M22.9101 30.96C25.4501 30.96 26.0301 32.91 26.8201 34.49C26.8201 34.75 26.5601 34.97 26.2301 34.97H14.7101C14.3901 34.97 14.1201 34.7099 14.1201 34.4399C14.9301 32.8699 15.5501 30.95 18.0301 30.95H22.9101V30.96Z" stroke="#0B2343" stroke-miterlimit="10" stroke-linecap="round" stroke-linejoin="round"/>
<path d="M32.92 6H8.02C6.87 6 6 6.95998 6 8.09998V24.0399C6 25.1799 6.87 25.9399 8.02 25.9399H32.93C34.08 25.9399 34.95 25.1699 34.95 24.0399V8.09998C34.95 6.96998 34.07 6 32.92 6Z" stroke="#0B2343" stroke-miterlimit="10" stroke-linecap="round" stroke-linejoin="round"/>
<path d="M20.4702 30.96V28.2899" stroke="#0B2343" stroke-miterlimit="10" stroke-linecap="round" stroke-linejoin="round"/>
<path d="M23.3201 11.1899C21.7501 9.6299 19.2001 9.6299 17.6201 11.1899C16.0501 12.7499 16.0501 15.2699 17.6201 16.8299C19.1901 18.3899 21.7401 18.3899 23.3201 16.8299C24.8901 15.2799 24.8901 12.7499 23.3201 11.1899Z" stroke="#0B2343" stroke-miterlimit="10" stroke-linecap="round" stroke-linejoin="round"/>
<path d="M19.8101 15.5599L22.2701 12.96" stroke="#0B2343" stroke-miterlimit="10" stroke-linecap="round" stroke-linejoin="round"/>
<path d="M19.8102 15.5599L18.6702 14.35" stroke="#0B2343" stroke-miterlimit="10" stroke-linecap="round" stroke-linejoin="round"/>
</svg>
