<svg width="40" height="40" viewBox="0 0 40 40" fill="none" xmlns="http://www.w3.org/2000/svg">
<path d="M15.67 29.97L15.04 34.3899C15.04 34.7099 15.32 34.97 15.67 34.97H25.32C25.67 34.97 25.95 34.7099 25.95 34.3899L25.32 29.97" stroke="#0B2343" stroke-miterlimit="10" stroke-linecap="round" stroke-linejoin="round"/>
<path d="M32.89 6H8.03998C6.89998 6 6 6.89001 6 8.01001V24.96C6 26.08 6.89998 26.98 8.03998 26.98H32.89C34.03 26.98 34.94 26.08 34.94 24.96V8.01001C34.94 6.89001 34.03 6 32.89 6Z" stroke="#0B2343" stroke-miterlimit="10" stroke-linecap="round" stroke-linejoin="round"/>
<path d="M6.01001 22.98H34.94" stroke="#0B2343" stroke-miterlimit="10" stroke-linecap="round" stroke-linejoin="round"/>
<path d="M17.69 13.98C17.17 13.98 16.76 14.3899 16.76 14.8899L17.17 19.1099C17.17 19.6099 17.59 20.02 18.11 20.02H22.91C23.43 20.02 23.85 19.6099 23.85 19.1099L24.26 14.8899C24.26 14.3899 23.84 13.98 23.32 13.98H17.69Z" stroke="#0B2343" stroke-miterlimit="10" stroke-linecap="round" stroke-linejoin="round"/>
<path d="M19 13.98V11.3398C19 10.5698 19.67 9.94995 20.5 9.94995C21.33 9.94995 22 10.5698 22 11.3398V13.98" stroke="#0B2343" stroke-miterlimit="10" stroke-linecap="round" stroke-linejoin="round"/>
<path d="M20.5 16.9299V17.9199" stroke="#0B2343" stroke-miterlimit="10" stroke-linecap="round" stroke-linejoin="round"/>
</svg>
