<svg width="40" height="40" viewBox="0 0 40 40" fill="none" xmlns="http://www.w3.org/2000/svg">
<path d="M15.67 29.97L15.04 34.3899C15.04 34.7099 15.32 34.97 15.67 34.97H25.32C25.67 34.97 25.95 34.7099 25.95 34.3899L25.32 29.97" stroke="#0B2343" stroke-miterlimit="10" stroke-linecap="round" stroke-linejoin="round"/>
<path d="M32.89 6H8.03999C6.89999 6 6 6.89001 6 8.01001V24.96C6 26.08 6.89999 26.98 8.03999 26.98H32.89C34.03 26.98 34.94 26.08 34.94 24.96V8.01001C34.94 6.89001 34.03 6 32.89 6Z" stroke="#0B2343" stroke-miterlimit="10" stroke-linecap="round" stroke-linejoin="round"/>
<path d="M6.01001 22.98H34.94" stroke="#0B2343" stroke-miterlimit="10" stroke-linecap="round" stroke-linejoin="round"/>
<path d="M23.75 17.78C22.15 17.16 20.37 16.3799 20.22 15.8999V15.3899C20.55 15.0499 20.81 14.57 20.97 14.01C21.34 13.75 21.44 13.1998 21.13 12.8198V11.6899C21.13 10.5199 20.48 9.71997 19 9.71997C17.56 9.71997 16.87 10.5199 16.87 11.6899V12.8198C16.56 13.1998 16.65 13.74 17.03 14.01C17.19 14.57 17.45 15.0499 17.78 15.3899V15.8999C17.63 16.3799 15.85 17.16 14.25 17.78C14.11 17.83 14.02 17.9699 14.02 18.1199V19.3899C14.02 19.5899 14.18 19.75 14.37 19.75H23.63C23.82 19.75 23.98 19.5899 23.98 19.3899V18.1199C23.98 17.9699 23.89 17.83 23.75 17.78Z" stroke="#0B2343" stroke-miterlimit="10" stroke-linecap="round" stroke-linejoin="round"/>
<path d="M26.46 19.74H28.72C28.86 19.74 28.97 19.62 28.97 19.47V18.52C28.97 18.41 28.91 18.31 28.81 18.27C27.67 17.8 26.41 17.2199 26.3 16.8599V16.48C26.54 16.22 26.72 15.87 26.83 15.45C26.98 15.34 26.94 13.71 26.94 13.71C26.94 12.83 26.48 12.23 25.43 12.23C24.41 12.23 23.92 12.83 23.92 13.71C23.92 13.71 23.89 15.34 24.03 15.45" stroke="#0B2343" stroke-miterlimit="10" stroke-linecap="round" stroke-linejoin="round"/>
</svg>
