<svg width="40" height="40" viewBox="0 0 40 40" fill="none" xmlns="http://www.w3.org/2000/svg">
<path d="M15.67 29.97L15.04 34.3899C15.04 34.7099 15.32 34.97 15.67 34.97H25.32C25.67 34.97 25.95 34.7099 25.95 34.3899L25.32 29.97" stroke="#0B2343" stroke-miterlimit="10" stroke-linecap="round" stroke-linejoin="round"/>
<path d="M32.89 6H8.03999C6.89999 6 6 6.89001 6 8.01001V24.96C6 26.08 6.89999 26.98 8.03999 26.98H32.89C34.03 26.98 34.94 26.08 34.94 24.96V8.01001C34.94 6.89001 34.03 6 32.89 6Z" stroke="#0B2343" stroke-miterlimit="10" stroke-linecap="round" stroke-linejoin="round"/>
<path d="M6.01001 22.98H34.94" stroke="#0B2343" stroke-miterlimit="10" stroke-linecap="round" stroke-linejoin="round"/>
<path d="M20.48 15.8298C19.91 15.8298 19.45 15.37 19.45 14.8C19.45 14.23 19.91 13.77 20.48 13.77C21.05 13.77 21.51 14.23 21.51 14.8C21.51 15.37 21.05 15.8298 20.48 15.8298Z" stroke="#0B2343" stroke-miterlimit="10" stroke-linecap="round" stroke-linejoin="round"/>
<path d="M24.87 14.8101C24.87 17.2401 22.9 19.2 20.48 19.2C18.05 19.2 16.09 17.2301 16.09 14.8101C16.09 12.3801 18.06 10.42 20.48 10.42C22.91 10.41 24.87 12.3801 24.87 14.8101Z" stroke="#0B2343" stroke-miterlimit="10" stroke-linecap="round" stroke-linejoin="round"/>
<path d="M20.48 10.4099V9.1499" stroke="#0B2343" stroke-miterlimit="10" stroke-linecap="round" stroke-linejoin="round"/>
<path d="M20.48 20.5V19.23" stroke="#0B2343" stroke-miterlimit="10" stroke-linecap="round" stroke-linejoin="round"/>
<path d="M24.89 14.8198H26.15" stroke="#0B2343" stroke-miterlimit="10" stroke-linecap="round" stroke-linejoin="round"/>
<path d="M14.81 14.8198H16.07" stroke="#0B2343" stroke-miterlimit="10" stroke-linecap="round" stroke-linejoin="round"/>
<path d="M22.68 11L23.32 9.90991" stroke="#0B2343" stroke-miterlimit="10" stroke-linecap="round" stroke-linejoin="round"/>
<path d="M17.64 19.74L18.27 18.6399" stroke="#0B2343" stroke-miterlimit="10" stroke-linecap="round" stroke-linejoin="round"/>
<path d="M18.27 11L17.64 9.90991" stroke="#0B2343" stroke-miterlimit="10" stroke-linecap="round" stroke-linejoin="round"/>
<path d="M23.32 19.74L22.68 18.6399" stroke="#0B2343" stroke-miterlimit="10" stroke-linecap="round" stroke-linejoin="round"/>
<path d="M24.3 17.03L25.39 17.6599" stroke="#0B2343" stroke-miterlimit="10" stroke-linecap="round" stroke-linejoin="round"/>
<path d="M15.57 11.99L16.66 12.6199" stroke="#0B2343" stroke-miterlimit="10" stroke-linecap="round" stroke-linejoin="round"/>
<path d="M24.3 12.6199L25.39 11.99" stroke="#0B2343" stroke-miterlimit="10" stroke-linecap="round" stroke-linejoin="round"/>
<path d="M15.57 17.6599L16.66 17.03" stroke="#0B2343" stroke-miterlimit="10" stroke-linecap="round" stroke-linejoin="round"/>
</svg>
