<svg width="40" height="40" viewBox="0 0 40 40" fill="none" xmlns="http://www.w3.org/2000/svg">
<path d="M12.84 15.72C11.54 15.16 10.11 14.46 9.98999 14.02V13.56C10.26 13.25 10.47 12.82 10.6 12.32C10.9 12.08 10.98 11.59 10.73 11.25V10.23C10.73 9.17 10.2099 8.45 9.00989 8.45C7.84989 8.45 7.28992 9.17 7.28992 10.23V11.25C7.03992 11.6 7.11992 12.09 7.41992 12.32C7.54992 12.82 7.75991 13.26 8.02991 13.56V14.02C7.90991 14.45 6.46993 15.15 5.17993 15.72C5.06993 15.77 5 15.89 5 16.02V17.16C5 17.34 5.12992 17.49 5.28992 17.49H12.7699C12.9299 17.49 13.0499 17.34 13.0499 17.16V16.02C13.0199 15.89 12.95 15.77 12.84 15.72Z" stroke="#0B2343" stroke-miterlimit="10" stroke-linecap="round" stroke-linejoin="round"/>
<path d="M23.8199 31.69C22.5199 31.13 21.09 30.43 20.97 29.99V29.53C21.24 29.22 21.45 28.79 21.58 28.29C21.88 28.05 21.96 27.56 21.71 27.22V26.2C21.71 25.14 21.19 24.42 19.99 24.42C18.83 24.42 18.2699 25.14 18.2699 26.2V27.22C18.0199 27.57 18.0999 28.06 18.3999 28.29C18.5299 28.79 18.7399 29.23 19.0099 29.53V29.99C18.8899 30.42 17.4499 31.12 16.1599 31.69C16.0499 31.74 15.98 31.86 15.98 31.99V33.13C15.98 33.31 16.1099 33.46 16.2699 33.46H23.75C23.91 33.46 24.0399 33.31 24.0399 33.13V31.99C23.9999 31.86 23.9299 31.74 23.8199 31.69Z" stroke="#0B2343" stroke-miterlimit="10" stroke-linecap="round" stroke-linejoin="round"/>
<path d="M33.7999 15.72C32.4999 15.16 31.07 14.46 30.95 14.02V13.56C31.22 13.25 31.4299 12.82 31.5599 12.32C31.8599 12.08 31.9399 11.59 31.6899 11.25V10.23C31.6899 9.17 31.17 8.45 29.97 8.45C28.81 8.45 28.25 9.17 28.25 10.23V11.25C28 11.6 28.0799 12.09 28.3799 12.32C28.5099 12.82 28.72 13.26 28.99 13.56V14.02C28.87 14.45 27.4299 15.15 26.1399 15.72C26.0299 15.77 25.96 15.89 25.96 16.02V17.16C25.96 17.34 26.09 17.49 26.25 17.49H33.73C33.89 17.49 34.0199 17.34 34.0199 17.16V16.02C33.9799 15.89 33.9099 15.77 33.7999 15.72Z" stroke="#0B2343" stroke-miterlimit="10" stroke-linecap="round" stroke-linejoin="round"/>
<path d="M25.0399 8.45999C23.4499 7.52999 21.6 7 19.62 7C17.64 7 15.79 7.52999 14.2 8.45999" stroke="#0B2343" stroke-miterlimit="10" stroke-linecap="round" stroke-linejoin="round"/>
<path d="M25.5699 27.78C28.1599 26.06 29.97 23.26 30.34 20.02C29.97 23.26 28.1699 26.06 25.5699 27.78Z" stroke="#0B2343" stroke-miterlimit="10" stroke-linecap="round" stroke-linejoin="round"/>
<path d="M13.6799 27.78C11.0899 26.06 9.27991 23.26 8.90991 20.02C9.27991 23.26 11.0899 26.06 13.6799 27.78Z" stroke="#0B2343" stroke-miterlimit="10" stroke-linecap="round" stroke-linejoin="round"/>
</svg>
