<svg width="40" height="40" viewBox="0 0 40 40" fill="none" xmlns="http://www.w3.org/2000/svg">
<path d="M12.8553 14.9877C12.8553 14.9877 13.4833 11.0656 15.0698 10.9995C16.6453 10.9334 18.6065 13.0487 19.2895 11.8698C19.9726 10.691 21.2065 10.1842 23.7294 9.8757C26.2414 9.56722 25.1837 7.45195 26.7592 8.13502C28.3346 8.81809 31.2874 13.864 31.4086 14.9877" stroke="#0B2343" stroke-miterlimit="10" stroke-linecap="round" stroke-linejoin="round"/>
<path d="M29.4805 29.9384C29.4805 31.4477 30.7145 32.6597 32.2459 32.6597C33.7663 32.6597 35.0111 31.4367 35.0111 29.9384C35.0111 28.429 33.7773 27.2171 32.2459 27.2171C30.7145 27.2061 29.4805 28.429 29.4805 29.9384Z" stroke="#0B2343" stroke-miterlimit="10" stroke-linecap="round" stroke-linejoin="round"/>
<path d="M5 14.9875H8.0849L13.6816 32.6593H15.5657L18.2538 26.721" stroke="#0B2343" stroke-linecap="round" stroke-linejoin="round"/>
<path d="M10.6189 22.9751C10.6189 22.9751 27.3431 35.8323 34.0416 17.158H8.79002" stroke="#0B2343" stroke-miterlimit="10" stroke-linecap="round" stroke-linejoin="round"/>
</svg>
