<svg width="40" height="40" viewBox="0 0 40 40" fill="none" xmlns="http://www.w3.org/2000/svg">
<path d="M24.6001 25.5024L22.2409 26.9494C21.4405 27.443 20.9086 27.1289 18.3546 26.54L17.8754 26.8316L19.9502 28.3516L19.5342 28.6096C19.4288 28.6713 19.4868 28.8395 19.6026 28.8227C22.6833 28.3908 24.142 27.7739 24.142 27.7739L30.9194 23.6067C30.9194 23.6067 33.2575 22.1709 32.3254 21.8063C31.2933 21.4025 29.1605 22.6869 29.1605 22.6869L26.5485 24.2909L22.2251 22.6757L21.9618 22.8383L25.0583 25.8782" stroke="#0B2343" stroke-width="0.8" stroke-miterlimit="10" stroke-linecap="round" stroke-linejoin="round"/>
<path d="M28.0759 26.4619L27.9074 28.0716L27.5071 28.4025L26.5435 27.4322" stroke="#0B2343" stroke-width="0.8" stroke-miterlimit="10" stroke-linecap="round" stroke-linejoin="round"/>
<mask id="mask0_3182_315" style="mask-type:alpha" maskUnits="userSpaceOnUse" x="3" y="4" width="35" height="35">
<path fill-rule="evenodd" clip-rule="evenodd" d="M38 4H3V39H38V4ZM19 17C21.7614 17 24 14.7614 24 12C24 9.23858 21.7614 7 19 7C16.2386 7 14 9.23858 14 12C14 14.7614 16.2386 17 19 17Z" fill="#C4C4C4"/>
</mask>
<g mask="url(#mask0_3182_315)">
<path d="M17.2843 19.5884C17.7665 19.5889 18.1641 19.2104 18.187 18.7286L19.1284 12.2547V12.1945C19.1284 11.696 18.7242 11.2918 18.2257 11.2918H14.8512V11.2488V9.66255C14.8512 9.164 14.447 8.75981 13.9484 8.75981H12.9855V6.85975H13.4412C13.6786 6.85975 13.871 6.66728 13.871 6.42988C13.871 6.19248 13.6786 6 13.4412 6H11.6701C11.4327 6 11.2402 6.19248 11.2402 6.42988C11.2402 6.66728 11.4327 6.85975 11.6701 6.85975H12.1257V8.75981H11.1585C10.66 8.75981 10.2558 9.164 10.2558 9.66255V11.2402V11.2832H6.90274C6.40419 11.2832 6 11.6874 6 12.1859L6.94573 18.7243C6.96867 19.2061 7.3662 19.5846 7.84847 19.5841H10.2558V32.8866H8.26115C8.02375 32.8866 7.83127 33.0791 7.83127 33.3165C7.83127 33.5539 8.02375 33.7464 8.26115 33.7464H33.5701C33.8075 33.7464 34 33.5539 34 33.3165C34 33.0791 33.8075 32.8866 33.5701 32.8866H14.8555V19.5884H17.2843ZM17.568 16.9747H14.8555V13.8925H17.9979L17.568 16.9747ZM11.1112 9.66255C11.1112 9.6388 11.1305 9.61956 11.1542 9.61956H13.9527C13.9765 9.61956 13.9957 9.6388 13.9957 9.66255V11.2402C13.9957 11.2639 13.9765 11.2832 13.9527 11.2832H11.1585C11.1348 11.2833 11.1154 11.2642 11.1153 11.2404L11.1155 11.2359H11.1112V9.66255ZM6.84256 12.1687C6.84745 12.1455 6.87029 12.1306 6.8935 12.1356C6.89667 12.1363 6.89979 12.1373 6.90274 12.1386H18.2042C18.2221 12.1396 18.2375 12.1516 18.2429 12.1687L18.1182 13.0285H6.96722L6.84256 12.1687ZM13.9957 13.8925V16.9747H11.1155L11.1112 13.8925H13.9957ZM7.12628 13.8925H10.2687V16.9747H7.55615L7.12628 13.8925ZM13.9957 32.8866H11.1155V19.5884H14L13.9957 32.8866ZM7.82697 18.7114C7.8166 18.7061 7.80887 18.6968 7.80548 18.6857L7.80118 18.6814L7.67652 17.8216H17.4261L17.31 18.6083V18.6685C17.31 18.6922 17.2908 18.7114 17.2671 18.7114H7.82697Z" fill="#0B2343"/>
<path d="M17.2843 19.5884C17.7665 19.5889 18.1641 19.2104 18.187 18.7286L19.1284 12.2547V12.1945C19.1284 11.696 18.7242 11.2918 18.2257 11.2918H14.8512V11.2488V9.66255C14.8512 9.164 14.447 8.75981 13.9484 8.75981H12.9855V6.85975H13.4412C13.6786 6.85975 13.871 6.66728 13.871 6.42988C13.871 6.19248 13.6786 6 13.4412 6H11.6701C11.4327 6 11.2402 6.19248 11.2402 6.42988C11.2402 6.66728 11.4327 6.85975 11.6701 6.85975H12.1257V8.75981H11.1585C10.66 8.75981 10.2558 9.164 10.2558 9.66255V11.2402V11.2832H6.90274C6.40419 11.2832 6 11.6874 6 12.1859L6.94573 18.7243C6.96867 19.2061 7.3662 19.5846 7.84847 19.5841H10.2558V32.8866H8.26115C8.02375 32.8866 7.83127 33.0791 7.83127 33.3165C7.83127 33.5539 8.02375 33.7464 8.26115 33.7464H33.5701C33.8075 33.7464 34 33.5539 34 33.3165C34 33.0791 33.8075 32.8866 33.5701 32.8866H14.8555V19.5884H17.2843ZM17.568 16.9747H14.8555V13.8925H17.9979L17.568 16.9747ZM11.1112 9.66255C11.1112 9.6388 11.1305 9.61956 11.1542 9.61956H13.9527C13.9765 9.61956 13.9957 9.6388 13.9957 9.66255V11.2402C13.9957 11.2639 13.9765 11.2832 13.9527 11.2832H11.1585C11.1348 11.2833 11.1154 11.2642 11.1153 11.2404L11.1155 11.2359H11.1112V9.66255ZM6.84256 12.1687C6.84745 12.1455 6.87029 12.1306 6.8935 12.1356C6.89667 12.1363 6.89979 12.1373 6.90274 12.1386H18.2042C18.2221 12.1396 18.2375 12.1516 18.2429 12.1687L18.1182 13.0285H6.96722L6.84256 12.1687ZM13.9957 13.8925V16.9747H11.1155L11.1112 13.8925H13.9957ZM7.12628 13.8925H10.2687V16.9747H7.55615L7.12628 13.8925ZM13.9957 32.8866H11.1155V19.5884H14L13.9957 32.8866ZM7.82697 18.7114C7.8166 18.7061 7.80887 18.6968 7.80548 18.6857L7.80118 18.6814L7.67652 17.8216H17.4261L17.31 18.6083V18.6685C17.31 18.6922 17.2908 18.7114 17.2671 18.7114H7.82697Z" stroke="white"/>
</g>
<circle cx="19" cy="12" r="3.65" stroke="#0B2343" stroke-width="0.7"/>
<path d="M18 13.411C18.3021 13.6727 18.7683 13.8701 19.1037 13.8701C19.6413 13.8701 20.0766 13.4895 20.0766 13.0186C20.0766 12.5476 19.6104 12.3169 19.1037 12.167C18.578 12.0029 18.1308 11.7864 18.1308 11.3154C18.1308 10.8444 18.5661 10.4639 19.1037 10.4639C19.4653 10.4639 19.7816 10.6375 19.9505 10.892M19.1037 10V14.3363" stroke="#0B2343" stroke-width="0.7" stroke-miterlimit="10" stroke-linecap="round" stroke-linejoin="round"/>
</svg>
