<svg width="40" height="40" viewBox="0 0 40 40" fill="none" xmlns="http://www.w3.org/2000/svg">
<path d="M17.7121 14.2551V12.8274C17.7121 11.6426 18.7318 10.6811 19.9944 10.6811H28.1138C29.3764 10.6811 30.3961 9.71954 30.3961 8.53467" stroke="#0B2343" stroke-linecap="round" stroke-linejoin="round"/>
<path d="M31.7266 7.26262C31.7266 7.96189 31.1342 8.52524 30.4155 8.52524C29.6871 8.52524 29.1043 7.96189 29.1043 7.26262C29.1043 6.56335 29.6968 6 30.4155 6C31.1342 6 31.7266 6.56335 31.7266 7.26262Z" stroke="#0B2343" stroke-linecap="round" stroke-linejoin="round"/>
<path d="M19.3243 27.687C19.3243 28.328 18.7999 28.8524 18.1589 28.8524C17.5179 28.8524 16.9934 28.328 16.9934 27.687C16.9934 27.046 17.5179 26.5215 18.1589 26.5215C18.7999 26.5215 19.3243 27.0363 19.3243 27.687Z" stroke="#0B2343" stroke-linecap="round" stroke-linejoin="round"/>
<path d="M10.9525 21.3743C10.9525 17.4409 14.177 14.2552 18.1492 14.2552C22.1214 14.2552 25.3458 17.4409 25.3458 21.3743" stroke="#0B2343" stroke-linecap="round" stroke-linejoin="round"/>
<path d="M27.3854 21.3743H8.93243V34H27.3854V21.3743Z" stroke="#0B2343" stroke-linecap="round" stroke-linejoin="round"/>
<path d="M23.5005 24.288H12.8173V31.0864H23.5005V24.288Z" stroke="#0B2343" stroke-linecap="round" stroke-linejoin="round"/>
<path d="M8 21.3743H28.3566" stroke="#0B2343" stroke-linecap="round" stroke-linejoin="round"/>
</svg>
