<svg width="40" height="40" viewBox="0 0 40 40" fill="none" xmlns="http://www.w3.org/2000/svg">
<path d="M14.9028 7C14.9028 7 16.8943 7.59529 14.3401 11.5023C11.786 15.4094 14.3401 15.6476 14.3401 15.6476" stroke="#0B2343" stroke-miterlimit="10" stroke-linecap="round" stroke-linejoin="round"/>
<path d="M18.2038 11.3075C18.2038 11.3075 19.3402 11.643 17.8791 13.8725C16.418 16.102 17.8791 16.2318 17.8791 16.2318" stroke="#0B2343" stroke-miterlimit="10" stroke-linecap="round" stroke-linejoin="round"/>
<path d="M10.498 11.3075C10.498 11.3075 11.6343 11.643 10.1732 13.8725C8.71215 16.102 10.1732 16.2318 10.1732 16.2318" stroke="#0B2343" stroke-miterlimit="10" stroke-linecap="round" stroke-linejoin="round"/>
<path d="M5.77924 23.5156L7.18612 31.4055C7.18612 32.6068 10.2707 33.5701 14.0695 33.5701C17.8684 33.5701 20.9528 32.596 20.9528 31.4055L22.3814 23.5156" stroke="#0B2343" stroke-miterlimit="10" stroke-linecap="round" stroke-linejoin="round"/>
<path d="M23.1606 22.3685C23.1606 23.9486 19.0912 25.2257 14.0802 25.2257C9.06926 25.2257 5 23.9486 5 22.3685C5 20.7883 9.06926 19.5112 14.0802 19.5112C19.0912 19.5112 23.1606 20.7883 23.1606 22.3685Z" stroke="#0B2343" stroke-miterlimit="10" stroke-linecap="round" stroke-linejoin="round"/>
<path d="M23.1604 22.3684L34.9465 20.5393V21.7948L22.089 25.2257" stroke="#0B2343" stroke-miterlimit="10" stroke-linecap="round" stroke-linejoin="round"/>
</svg>
