<svg width="40" height="40" viewBox="0 0 40 40" fill="none" xmlns="http://www.w3.org/2000/svg">
<path d="M13.6105 27.697C15.6886 28.2654 17.8692 22.8886 17.8692 22.8886V27.1192C17.8692 30.3248 20.0124 33.2508 23.218 33.2508C26.4236 33.2508 28.9675 30.3341 28.9675 27.1192V10.0942H16.0333V13.7658C11.9891 19.2358 10.6286 26.877 13.6105 27.697Z" stroke="#0B2343" stroke-linecap="round" stroke-linejoin="round"/>
<path d="M12.4457 7.29884C12.8278 6.76768 14.002 6.96334 15.0736 7.73678C16.1452 8.51022 16.4247 9.56325 16.0333 10.0944C15.6513 10.6256 14.7568 10.4299 13.6851 9.65646C12.6228 8.88302 12.0636 7.82068 12.4457 7.29884Z" stroke="#0B2343" stroke-linecap="round" stroke-linejoin="round"/>
<path d="M28.9675 13.7565H28.399" stroke="#0B2343" stroke-linecap="round" stroke-linejoin="round"/>
<path d="M25.2587 13.7565H18.4654" stroke="#0B2343" stroke-linecap="round" stroke-linejoin="round" stroke-dasharray="0.85 0.85"/>
<path d="M16.8907 13.7566H16.0426" stroke="#0B2343" stroke-linecap="round" stroke-linejoin="round"/>
</svg>
