<svg id="Layer_1" data-name="Layer 1" xmlns="http://www.w3.org/2000/svg" viewBox="0 0 29.86 29.61"><title>cookie</title><path d="M14.8,29.61A14.81,14.81,0,1,1,24.65,3.75a.53.53,0,0,1,.17.36.46.46,0,0,1-.14.36,2.3,2.3,0,0,0-.07,3.1.49.49,0,0,1,0,.69,2.32,2.32,0,0,0,1.1,4,.48.48,0,0,1,.39.37.48.48,0,0,1-.18.51,2.31,2.31,0,0,0,.69,4,.51.51,0,0,1,.31.28.51.51,0,0,1,0,.42,2.31,2.31,0,0,0,.92,3.06.5.5,0,0,1,.2.66A14.77,14.77,0,0,1,14.8,29.61ZM14.8,1A13.81,13.81,0,1,0,26.88,21.49a3.27,3.27,0,0,1-1.11-3.61,3.3,3.3,0,0,1-1.11-4.94,3.26,3.26,0,0,1-1.73-2.08,3.33,3.33,0,0,1,.65-3,3.28,3.28,0,0,1,.05-3.66A13.79,13.79,0,0,0,14.8,1Z" fill="#010101"/><path d="M28.2,10.79a.51.51,0,0,1-.33-.13L27,9.84a.52.52,0,0,1-.17-.39l0-.81a.51.51,0,0,1,.52-.48.49.49,0,0,1,.47.52l0,.58.73.65a.5.5,0,0,1,0,.71A.48.48,0,0,1,28.2,10.79Z" fill="#010101"/><path d="M26.28,7a.43.43,0,0,1-.19,0l-.55-.23a.5.5,0,0,1,.38-.92l.56.23a.52.52,0,0,1,.27.66A.5.5,0,0,1,26.28,7Z" fill="#010101"/><path d="M10.61,23.87a.49.49,0,0,1-.36-.15.48.48,0,0,1-.14-.35.63.63,0,0,1,0-.19.64.64,0,0,1,.11-.16.51.51,0,0,1,.86.35.49.49,0,0,1-.15.35.42.42,0,0,1-.16.11A.43.43,0,0,1,10.61,23.87Z" fill="#010101"/><path d="M21.31,9.24a.43.43,0,0,1-.19,0L20.57,9a.5.5,0,0,1-.27-.66A.49.49,0,0,1,21,8.05l.55.23a.49.49,0,0,1,.27.65A.5.5,0,0,1,21.31,9.24Z" fill="#010101"/><path d="M10.88,12.54a.43.43,0,0,1-.19,0l-.55-.23a.5.5,0,1,1,.38-.92l.56.23a.49.49,0,0,1,.26.65A.5.5,0,0,1,10.88,12.54Z" fill="#010101"/><path d="M27.76,15.35a.5.5,0,0,1-.42-.24.49.49,0,0,1,.16-.69l.51-.31a.49.49,0,0,1,.69.16.51.51,0,0,1-.16.69l-.51.31A.56.56,0,0,1,27.76,15.35Z" fill="#010101"/><path d="M29.1,18.17a.51.51,0,0,1-.5-.5.41.41,0,0,1,0-.19.45.45,0,0,1,.11-.17.52.52,0,0,1,.7,0,.45.45,0,0,1,.11.17.41.41,0,0,1,0,.19.43.43,0,0,1,0,.19.36.36,0,0,1-.11.16A.47.47,0,0,1,29.1,18.17Z" fill="#010101"/><path d="M20.5,21.18a.49.49,0,0,1-.42-.23.5.5,0,0,1,.16-.69l.51-.32a.5.5,0,1,1,.53.85l-.51.32A.52.52,0,0,1,20.5,21.18Z" fill="#010101"/><path d="M22.24,14.83a.71.71,0,0,1-.2,0,.91.91,0,0,1-.16-.11.5.5,0,0,1-.14-.35.69.69,0,0,1,0-.2.53.53,0,0,1,.27-.27.53.53,0,0,1,.39,0,.91.91,0,0,1,.16.11.57.57,0,0,1,.11.16.71.71,0,0,1,0,.2.51.51,0,0,1-.15.35.57.57,0,0,1-.16.11A.65.65,0,0,1,22.24,14.83Z" fill="#010101"/><path d="M14,16.5a.52.52,0,0,1-.43-.24.51.51,0,0,1,.16-.69l.51-.31a.49.49,0,0,1,.69.16.5.5,0,0,1-.16.69l-.51.31A.5.5,0,0,1,14,16.5Z" fill="#010101"/><path d="M5.3,10a.58.58,0,0,1-.19,0l-.17-.11a.51.51,0,0,1-.14-.36.43.43,0,0,1,0-.19.54.54,0,0,1,.1-.16A.53.53,0,0,1,5.49,9a.46.46,0,0,1,.16.11.57.57,0,0,1,.11.16.46.46,0,0,1,0,.19.51.51,0,0,1-.15.36.91.91,0,0,1-.16.11A.65.65,0,0,1,5.3,10Z" fill="#010101"/><path d="M15.72,10.13a.5.5,0,0,1-.26-.92L16,8.89a.5.5,0,0,1,.69.16.51.51,0,0,1-.16.69l-.51.31A.47.47,0,0,1,15.72,10.13Z" fill="#010101"/><path d="M6,17.66H6a.51.51,0,0,1-.48-.52l0-.6A.48.48,0,0,1,6,16.06a.5.5,0,0,1,.48.52l0,.6A.5.5,0,0,1,6,17.66Z" fill="#010101"/><path d="M16.23,25.09h0a.51.51,0,0,1-.48-.52l0-.6a.5.5,0,0,1,.52-.48.5.5,0,0,1,.48.52l0,.6A.5.5,0,0,1,16.23,25.09Z" fill="#010101"/><path d="M9.21,4.81a.45.45,0,0,1-.2,0,.46.46,0,0,1-.3-.46A.5.5,0,0,1,8.85,4a.51.51,0,0,1,.71,0,.64.64,0,0,1,.11.16.65.65,0,0,1,0,.19.58.58,0,0,1,0,.19,1,1,0,0,1-.11.17.54.54,0,0,1-.16.1A.43.43,0,0,1,9.21,4.81Z" fill="#010101"/><path d="M16.83,3.93h0a.5.5,0,0,1-.48-.52l0-.6a.5.5,0,1,1,1,0l0,.6A.5.5,0,0,1,16.83,3.93Z" fill="#010101"/></svg>