<svg width="40" height="40" viewBox="0 0 40 40" fill="none" xmlns="http://www.w3.org/2000/svg">
<path d="M6 31.49H33.5" stroke="#0B2343" stroke-miterlimit="10" stroke-linecap="round" stroke-linejoin="round"/>
<path d="M14.91 11.38C14.91 12.7 13.84 14.53 12.53 14.53C11.21 14.53 10.15 12.69 10.15 11.38C10.15 10.07 11.22 9 12.53 9C13.85 9 14.91 10.07 14.91 11.38Z" stroke="#0B2343" stroke-miterlimit="10" stroke-linecap="round" stroke-linejoin="round"/>
<path d="M14.2199 17.04C13.2199 18.48 11.8499 18.48 10.8499 17.04C9.26995 17.7 8.13998 19.27 8.13998 21.09L7.61996 27.22C7.50996 28.42 8.44994 29.45 9.65994 29.45H13.19" stroke="#0B2343" stroke-miterlimit="10" stroke-linecap="round" stroke-linejoin="round"/>
<path d="M26.39 31.49H22.09L22.73 25.49H25.69L26.39 31.49Z" stroke="#0B2343" stroke-miterlimit="10" stroke-linecap="round" stroke-linejoin="round"/>
<path d="M20.17 28.52H18.17C17.07 28.52 16.17 27.62 16.17 26.52V19.52C16.17 18.42 17.07 17.52 18.17 17.52H30.17C31.27 17.52 32.17 18.42 32.17 19.52V26.52C32.17 27.62 31.27 28.52 30.17 28.52H28.17" stroke="#0B2343" stroke-miterlimit="10" stroke-linecap="round" stroke-linejoin="round"/>
</svg>
