<svg width="40" height="40" viewBox="0 0 40 40" fill="none" xmlns="http://www.w3.org/2000/svg">
<path d="M30.2001 8H22.2701C21.1501 8 20.3301 8.95007 20.3301 10.0701V14.17C20.3301 15.29 21.1501 16.1101 22.2701 16.1101H22.97V18.2001C22.97 18.6401 23.35 18.82 23.67 18.52L26.0801 16.1101H30.2001C31.3201 16.1101 32.22 15.29 32.22 14.17V10.0701C32.22 8.96007 31.3201 8 30.2001 8Z" stroke="#0B2343" stroke-miterlimit="10" stroke-linecap="round" stroke-linejoin="round"/>
<path d="M15.6199 15.2301C15.6199 16.3201 14.7399 17.8401 13.6499 17.8401C12.5599 17.8401 11.6799 16.3201 11.6799 15.2301C11.6799 14.1401 12.5599 13.26 13.6499 13.26C14.7399 13.26 15.6199 14.1401 15.6199 15.2301Z" stroke="#0B2343" stroke-miterlimit="10" stroke-linecap="round" stroke-linejoin="round"/>
<path d="M6 32.0701H33.5" stroke="#0B2343" stroke-miterlimit="10" stroke-linecap="round" stroke-linejoin="round"/>
<path d="M17.8801 29.8L17.28 23.27C17.28 21.76 16.35 20.46 15.04 19.91C14.21 21.1 13.0801 21.1 12.2501 19.91C10.9401 20.46 10.0101 21.76 10.0101 23.27L9.58007 28.1801C9.49007 29.1701 10.2701 30.03 11.2701 30.03H14.2001" stroke="#0B2343" stroke-miterlimit="10" stroke-linecap="round" stroke-linejoin="round"/>
</svg>
