<svg width="40" height="40" viewBox="0 0 40 40" fill="none" xmlns="http://www.w3.org/2000/svg">
<path d="M28.9899 34.6101V27.24H32.9299L29.8699 20.24L30.4698 17.3301C30.6398 12.4601 30.2298 12.74 30.1498 12.67C29.9398 12.61 29.7098 12.5801 29.4698 12.5801L27.5999 14.42L25.7299 12.5801C25.4899 12.5801 25.2699 12.61 25.0499 12.67C24.9699 12.73 24.5499 12.4601 24.7299 17.3301L25.3298 20.24L22.2698 27.24H26.2098V34.6101" stroke="#0B2343" stroke-miterlimit="10" stroke-linecap="round" stroke-linejoin="round"/>
<path d="M11.0798 34.7101V24.78" stroke="#0B2343" stroke-miterlimit="10" stroke-linecap="round" stroke-linejoin="round"/>
<path d="M12.9299 8.05005C12.9299 9.04005 12.0998 10.4301 11.0798 10.4301C10.0598 10.4301 9.22986 9.04005 9.22986 8.05005C9.22986 7.06005 10.0598 6.25 11.0798 6.25C12.0998 6.26 12.9299 7.06005 12.9299 8.05005Z" stroke="#0B2343" stroke-miterlimit="10" stroke-linecap="round" stroke-linejoin="round"/>
<path d="M29.4698 8.33008C29.4698 9.32008 28.6299 10.7101 27.5999 10.7101C26.5699 10.7101 25.7299 9.32008 25.7299 8.33008C25.7299 7.34008 26.5699 6.53003 27.5999 6.53003C28.6299 6.53003 29.4698 7.33008 29.4698 8.33008Z" stroke="#0B2343" stroke-miterlimit="10" stroke-linecap="round" stroke-linejoin="round"/>
<path d="M8.36987 34.7101L7.95984 22.38C7.94984 22.12 7.09984 22.4601 7.08984 22.2101C6.73984 13.1701 7.51985 12.2701 7.59985 12.2001C7.69985 12.1701 8.54986 12.15 8.79986 12.13C9.13986 12.11 9.43984 12.3101 9.58984 12.6101C10.1498 13.6601 12.0198 13.6601 12.5698 12.6101C12.7298 12.3101 13.0199 12.11 13.3599 12.13C13.6099 12.15 14.4599 12.1701 14.5599 12.2001C14.6499 12.2701 15.4198 13.1701 15.0698 22.2101C15.0598 22.4501 14.2098 22.12 14.1998 22.38L13.7299 34.7101" stroke="#0B2343" stroke-miterlimit="10" stroke-linecap="round" stroke-linejoin="round"/>
<path d="M19.1498 6V34.7101" stroke="#0B2343" stroke-miterlimit="10" stroke-linecap="round" stroke-linejoin="round"/>
</svg>
