<svg width="40" height="40" viewBox="0 0 40 40" fill="none" xmlns="http://www.w3.org/2000/svg">
<path d="M16.7695 24.2495C17.0447 25.4877 18.8102 25.8775 19.8192 25.8775C21.4472 25.8775 22.7771 24.7081 22.7771 23.2406C22.7771 21.796 21.3555 21.0623 19.8192 20.6037C18.2141 20.0992 16.8612 19.4343 16.8612 17.9668C16.8612 16.5222 18.1911 15.3298 19.8192 15.3298C20.9198 15.3298 21.8828 15.8572 22.3873 16.6598" stroke="#0B2343" stroke-miterlimit="10" stroke-linecap="round" stroke-linejoin="round"/>
<path d="M19.8192 12.9678V15.3525" stroke="#0B2343" stroke-miterlimit="10" stroke-linecap="round" stroke-linejoin="round"/>
<path d="M19.8192 25.877V28.3763" stroke="#0B2343" stroke-miterlimit="10" stroke-linecap="round" stroke-linejoin="round"/>
<path d="M26.056 32.068H13.4675C12.665 32.068 12 31.403 12 30.6005V15.1229C12 14.756 12.1376 14.3891 12.3898 14.1139L18.6726 7.46433C19.2458 6.84522 20.2088 6.84522 20.805 7.46433L27.0878 14.1139C27.3401 14.3891 27.4776 14.756 27.4776 15.1229V30.6005C27.5235 31.403 26.8814 32.068 26.056 32.068Z" stroke="#0B2343" stroke-miterlimit="10"/>
</svg>
