<svg width="40" height="40" viewBox="0 0 40 40" fill="none" xmlns="http://www.w3.org/2000/svg">
<path d="M32.7839 20.5148C23.0264 10.8509 25.0284 12.8342 18.9382 6.80007C18.5546 6.4165 18.0588 6.51006 17.4881 6.51006L7.01032 6.55682C6.46772 6.56618 6 6.99654 6 7.57656L6.05613 18.7934C6.05613 19.0647 6.1684 19.3173 6.3555 19.5044C6.58003 19.7196 20.2199 33.2846 20.5005 33.4156C20.9215 33.612 21.3705 33.4811 21.6325 33.2098L32.7932 21.9461C33.1861 21.5438 33.1862 20.9077 32.7839 20.5148Z" stroke="#0B2343" stroke-miterlimit="10" stroke-linecap="round" stroke-linejoin="round"/>
<path d="M12.0809 15.0139C13.4346 15.0139 14.5319 13.9166 14.5319 12.5629C14.5319 11.2092 13.4346 10.1118 12.0809 10.1118C10.7272 10.1118 9.62982 11.2092 9.62982 12.5629C9.62982 13.9166 10.7272 15.0139 12.0809 15.0139Z" stroke="#0B2343" stroke-miterlimit="10" stroke-linecap="round" stroke-linejoin="round"/>
<path d="M22.3902 26.6423C21.4828 27.5498 20.1357 27.6807 19.3873 26.9323C18.6388 26.1839 18.7698 24.8367 19.6773 23.9293C20.5847 23.0218 21.9318 22.8909 22.6802 23.6393C23.4287 24.3877 23.2977 25.7349 22.3902 26.6423Z" stroke="#0B2343" stroke-linecap="round" stroke-linejoin="round"/>
<path d="M21.9506 18.915C21.0431 19.8225 19.696 19.9534 18.9476 19.205C18.1991 18.4566 18.3301 17.1094 19.2376 16.202C20.145 15.2945 21.4922 15.1636 22.2406 15.912C22.989 16.6604 22.8581 17.9982 21.9506 18.915Z" stroke="#0B2343" stroke-linecap="round" stroke-linejoin="round"/>
<path d="M26.5627 20.4397L14.9436 22.292" stroke="#0B2343" stroke-linecap="round" stroke-linejoin="round"/>
</svg>
