<svg width="40" height="40" viewBox="0 0 40 40" fill="none" xmlns="http://www.w3.org/2000/svg">
<path d="M34.7202 19.8528C37.8632 21.7689 37.8516 28.382 33.0495 29.2583V31.6769C33.0495 32.2961 32.5471 32.8102 31.9162 32.8102H11.668C11.0487 32.8102 10.5347 32.3078 10.5347 31.6769V30.8239" stroke="#0B2343" stroke-linecap="round" stroke-linejoin="round"/>
<path d="M27.7567 10.0849L27.1726 7.81823C27.0207 7.23404 26.4248 6.88354 25.8406 7.03543L6.8309 11.931C6.2467 12.0829 5.89628 12.6788 6.04817 13.263L6.63236 15.5296C1.98218 17.621 3.93333 25.3558 9.05086 24.9468L9.63505 27.2135C9.78695 27.7977 10.3828 28.1482 10.967 27.9963L29.9767 23.1008C30.5609 22.9489 30.9113 22.353 30.7594 21.7688L30.1752 19.5021C34.7904 17.364 32.8159 9.71102 27.7567 10.0849Z" stroke="#0B2343" stroke-linecap="round" stroke-linejoin="round"/>
<path d="M24.7657 18.2171C25.0578 19.3972 24.5086 20.5539 23.5272 20.7992C22.5574 21.0446 21.5293 20.2734 21.2372 19.0934C20.9451 17.9133 21.4941 16.7566 22.4756 16.5112C23.4454 16.2775 24.4619 17.037 24.7657 18.2171Z" stroke="#0B2343" stroke-linecap="round" stroke-linejoin="round"/>
<path d="M18.2694 14.7937C18.5615 15.9737 18.0123 17.1304 17.0309 17.3757C16.0611 17.6211 15.033 16.85 14.7409 15.6699C14.4488 14.4899 14.998 13.3331 15.9794 13.0878C16.9492 12.8424 17.9773 13.6136 18.2694 14.7937Z" stroke="#0B2343" stroke-linecap="round" stroke-linejoin="round"/>
<path d="M21.7628 11.8025L17.5918 22.131" stroke="#0B2343" stroke-linecap="round" stroke-linejoin="round"/>
<path d="M13.1518 18.8127L10.266 19.5371" stroke="#0B2343" stroke-linecap="round" stroke-linejoin="round"/>
</svg>
