<svg width="40" height="40" viewBox="0 0 40 40" fill="none" xmlns="http://www.w3.org/2000/svg">
<path d="M32.9015 20.5764C23.1012 10.87 25.112 12.862 18.995 6.80138C18.6098 6.41614 18.1118 6.5101 17.5386 6.5101L7.01476 6.55707C6.46977 6.56647 6 6.99872 6 7.58129L6.05638 18.8474C6.05638 19.1199 6.16908 19.3736 6.35701 19.5616C6.58252 19.7777 20.2824 33.4117 20.5643 33.5338C20.9871 33.7312 21.4381 33.5996 21.7012 33.3271L32.9109 22.014C33.3056 21.6193 33.2962 20.971 32.9015 20.5764Z" stroke="#0B2343" stroke-width="0.939629" stroke-miterlimit="10" stroke-linecap="round" stroke-linejoin="round"/>
<path d="M12.0982 15.0325C13.4579 15.0325 14.5601 13.9303 14.5601 12.5707C14.5601 11.2111 13.4579 10.1089 12.0982 10.1089C10.7386 10.1089 9.63641 11.2111 9.63641 12.5707C9.63641 13.9303 10.7386 15.0325 12.0982 15.0325Z" stroke="#0B2343" stroke-width="0.939629" stroke-miterlimit="10" stroke-linecap="round" stroke-linejoin="round"/>
</svg>
