<svg width="40" height="40" viewBox="0 0 40 40" fill="none" xmlns="http://www.w3.org/2000/svg">
<path d="M23.4897 16.6899C22.4897 15.6899 20.8698 15.6899 19.8698 16.6899L19.2698 17.29L18.6698 16.6899C17.6698 15.6899 16.0498 15.6899 15.0498 16.6899C14.0498 17.6899 14.0498 19.3101 15.0498 20.3101L19.2798 24.54L23.5098 20.3101C24.4898 19.3101 24.4897 17.6899 23.4897 16.6899Z" stroke="#0B2343" stroke-miterlimit="10" stroke-linecap="round" stroke-linejoin="round"/>
<path d="M20.2698 26.8401H24.2098V34.3601" stroke="#0B2343" stroke-miterlimit="10" stroke-linecap="round" stroke-linejoin="round"/>
<path d="M26.9897 34.3601V26.8401H30.9298L27.8698 19.99L28.4697 17.0801C28.6397 12.2101 28.2298 12.4902 28.1498 12.4202C27.9398 12.3602 27.7097 12.3301 27.4697 12.3301L25.5997 14.1702L23.7297 12.3301C23.4897 12.3301 23.2698 12.3602 23.0498 12.4202" stroke="#0B2343" stroke-miterlimit="10" stroke-linecap="round" stroke-linejoin="round"/>
<path d="M13.0798 34.46V24.53" stroke="#0B2343" stroke-miterlimit="10" stroke-linecap="round" stroke-linejoin="round"/>
<path d="M14.9298 7.80005C14.9298 8.79005 14.0998 10.1799 13.0798 10.1799C12.0598 10.1799 11.2297 8.79005 11.2297 7.80005C11.2297 6.81005 12.0598 6 13.0798 6C14.0998 6.01 14.9298 6.81005 14.9298 7.80005Z" stroke="#0B2343" stroke-miterlimit="10" stroke-linecap="round" stroke-linejoin="round"/>
<path d="M27.4697 8.08008C27.4697 9.07008 26.6297 10.46 25.5997 10.46C24.5697 10.46 23.7297 9.07008 23.7297 8.08008C23.7297 7.09008 24.5697 6.28003 25.5997 6.28003C26.6297 6.28003 27.4697 7.08008 27.4697 8.08008Z" stroke="#0B2343" stroke-miterlimit="10" stroke-linecap="round" stroke-linejoin="round"/>
<path d="M16.0698 25.54L15.7297 34.46" stroke="#0B2343" stroke-miterlimit="10" stroke-linecap="round" stroke-linejoin="round"/>
<path d="M10.3698 34.4599L9.95985 22.13C9.94985 21.87 9.09985 22.2099 9.08985 21.9599C8.73985 12.9199 9.51974 12.2201 9.59974 12.1501C9.69974 12.1201 10.5498 12.1 10.7998 12.08C11.1398 12.06 11.4399 12.26 11.5899 12.56C12.1499 13.61 14.0198 13.61 14.5698 12.56C14.7298 12.26 15.0197 12.06 15.3597 12.08C15.6097 12.1 16.4598 12.1201 16.5598 12.1501C16.5998 12.1801 16.7998 12.3599 16.9498 13.4899" stroke="#0B2343" stroke-miterlimit="10" stroke-linecap="round" stroke-linejoin="round"/>
</svg>
