<svg width="22" height="22" viewBox="0 0 22 22" fill="none" xmlns="http://www.w3.org/2000/svg">
<mask id="path-1-inside-1_3721_52335" fill="white">
<path fill-rule="evenodd" clip-rule="evenodd" d="M2 11.3928C2 12.9905 3.29515 14.2856 4.89281 14.2856C6.15235 14.2856 7.22389 13.4806 7.62101 12.3571H14.379C14.7761 13.4807 15.8476 14.2857 17.1072 14.2857C18.7048 14.2857 20 12.9905 20 11.3929C20 9.79523 18.7048 8.50007 17.1072 8.50007C15.8477 8.50007 14.7762 9.30502 14.379 10.4285H7.62101C7.22389 9.30498 6.15235 8.5 4.89281 8.5C3.29515 8.5 2 9.79515 2 11.3928Z"/>
</mask>
<path d="M7.62101 12.3571L6.96102 12.1238L7.12598 11.6571H7.62101V12.3571ZM14.379 12.3571V11.6571H14.874L15.039 12.1238L14.379 12.3571ZM14.379 10.4285L15.039 10.6618L14.874 11.1285H14.379V10.4285ZM7.62101 10.4285V11.1285H7.12598L6.96102 10.6618L7.62101 10.4285ZM4.89281 14.9856C2.90855 14.9856 1.3 13.3771 1.3 11.3928H2.7C2.7 12.6039 3.68175 13.5856 4.89281 13.5856V14.9856ZM8.28099 12.5903C7.78811 13.9848 6.45823 14.9856 4.89281 14.9856V13.5856C5.84647 13.5856 6.65966 12.9764 6.96102 12.1238L8.28099 12.5903ZM7.62101 11.6571H14.379V13.0571H7.62101V11.6571ZM17.1072 14.9857C15.5417 14.9857 14.2118 13.9849 13.719 12.5903L15.039 12.1238C15.3403 12.9765 16.1535 13.5857 17.1072 13.5857V14.9857ZM20.7 11.3929C20.7 13.3771 19.0914 14.9857 17.1072 14.9857V13.5857C18.3182 13.5857 19.3 12.6039 19.3 11.3929H20.7ZM17.1072 7.80007C19.0914 7.80007 20.7 9.40863 20.7 11.3929H19.3C19.3 10.1818 18.3182 9.20007 17.1072 9.20007V7.80007ZM13.719 10.1952C14.2119 8.8008 15.5418 7.80007 17.1072 7.80007V9.20007C16.1535 9.20007 15.3404 9.80923 15.039 10.6618L13.719 10.1952ZM14.379 11.1285H7.62101V9.72854H14.379V11.1285ZM4.89281 7.8C6.45823 7.8 7.78811 8.80077 8.28099 10.1953L6.96102 10.6618C6.65966 9.80919 5.84647 9.2 4.89281 9.2V7.8ZM1.3 11.3928C1.3 9.40855 2.90855 7.8 4.89281 7.8V9.2C3.68175 9.2 2.7 10.1818 2.7 11.3928H1.3Z" fill="#0B2343" mask="url(#path-1-inside-1_3721_52335)"/>
</svg>
