<svg viewBox="0 0 20 20" fill="none" xmlns="http://www.w3.org/2000/svg">
<rect width="20" height="20" fill="white"/>
<g clip-path="url(#clip0_4893_62148)">
<path d="M18.9818 11.0181C18.3636 10.3635 17.4181 10.0363 16.1454 10.0363H11.2363V17.9999H13.6363V15.2363H16.1091C17.3454 15.2363 18.2181 14.9453 18.8727 14.3272C19.3454 13.8544 19.6363 13.2726 19.6363 12.6181C19.6727 12.0726 19.4181 11.4908 18.9818 11.0181ZM17.0181 13.2363C16.7636 13.4908 16.4 13.4908 16.2909 13.4908H13.6727V11.8908H16.2909C16.5091 11.8908 16.8363 11.9272 17.0545 12.1453C17.2 12.2908 17.2727 12.509 17.2727 12.6908C17.2727 12.8726 17.1636 13.0544 17.0181 13.2363Z" fill="#3C5567"/>
<path d="M9.16366 16.0727C8.40002 15.3818 7.23639 16.0727 7.23639 16.0727C6.69093 16.3272 6.10911 16.4727 5.60002 16.4727C3.96366 16.4727 2.80002 15.4545 2.80002 14.0363C2.80002 12.6545 3.96366 11.6363 5.5273 11.6363C6.07275 11.6363 6.69093 11.7818 7.30911 12.0727C7.30911 12.0727 8.21821 12.5454 8.94548 11.7454L9.5273 11.1636C8.29093 10.3272 6.69093 9.85449 5.20002 9.85449C2.47275 9.85449 0.400024 11.6727 0.400024 14.0363C0.400024 16.4727 2.43639 18.2181 5.27275 18.2181C7.45457 18.2181 9.01821 17.2727 9.81821 16.6545L9.16366 16.0727Z" fill="#3C5567"/>
<path d="M16.5455 8.58186C15.1637 8.58186 13.9637 7.74549 13.4546 6.50913H6.61826C6.14553 7.74549 4.90917 8.58186 3.52735 8.58186C1.70917 8.58186 0.218262 7.12731 0.218262 5.34549C0.218262 3.56368 1.70917 2.10913 3.52735 2.10913C4.87281 2.10913 6.10917 2.90913 6.61826 4.14549H13.4546C13.9637 2.90913 15.1637 2.10913 16.5455 2.10913C18.3637 2.10913 19.8546 3.56368 19.8546 5.34549C19.8546 7.12731 18.3637 8.58186 16.5455 8.58186Z" fill="#FD8204"/>
</g>
<defs>
<clipPath id="clip0_4893_62148">
<rect width="20" height="16.3636" fill="white" transform="translate(0 2)"/>
</clipPath>
</defs>
</svg>
