<svg width="137" height="128" viewBox="0 0 137 128" fill="none" xmlns="http://www.w3.org/2000/svg">
<path d="M62 124C96.2417 124 124 96.2417 124 62C124 27.7583 96.2417 0 62 0C27.7583 0 0 27.7583 0 62C0 96.2417 27.7583 124 62 124Z" fill="#E7F4F9"/>
<path d="M88.7257 65.1723C86.9479 63.2866 84.2289 62.3438 80.5688 62.3438H66.4512V85.2865H73.3531V77.3246H80.4642C84.0198 77.3246 86.5296 76.4866 88.412 74.7057C89.7714 73.3437 90.608 71.6675 90.608 69.7817C90.7126 68.2103 89.9806 66.5342 88.7257 65.1723ZM83.0786 71.5627C82.3466 72.296 81.3008 72.296 80.9871 72.296H73.4577V67.6866H80.9871C81.6146 67.6866 82.5557 67.7913 83.1832 68.4198C83.6015 68.8389 83.8106 69.4676 83.8106 69.9914C83.8106 70.5152 83.4969 71.0389 83.0786 71.5627Z" fill="#3C5567"/>
<path d="M60.4897 79.7326C58.2936 77.7422 54.9472 79.7326 54.9472 79.7326C53.3786 80.466 51.7054 80.885 50.2414 80.885C45.5355 80.885 42.1891 77.9517 42.1891 73.866C42.1891 69.885 45.5355 66.9517 50.0322 66.9517C51.6008 66.9517 53.3786 67.3707 55.1564 68.2088C55.1564 68.2088 57.7708 69.5707 59.8623 67.266L61.5355 65.5898C57.9799 63.1803 53.3786 61.8184 49.091 61.8184C41.2479 61.8184 35.2871 67.0565 35.2871 73.866C35.2871 80.885 41.1433 85.9136 49.3002 85.9136C55.5747 85.9136 60.0714 83.1898 62.3721 81.4088L60.4897 79.7326Z" fill="#3C5567"/>
<path d="M81.719 58.1515C77.7451 58.1515 74.2942 55.742 72.8301 52.1801H53.1699C51.8104 55.742 48.2548 58.1515 44.281 58.1515C39.0522 58.1515 34.7646 53.961 34.7646 48.8277C34.7646 43.6944 39.0522 39.5039 44.281 39.5039C48.1503 39.5039 51.7058 41.8087 53.1699 45.3706H72.8301C74.2942 41.8087 77.7451 39.5039 81.719 39.5039C86.9478 39.5039 91.2352 43.6944 91.2352 48.8277C91.2352 53.961 86.9478 58.1515 81.719 58.1515Z" fill="#FD8204"/>
<path d="M123.5 62C123.5 28.0345 95.9655 0.5 62 0.5C28.0345 0.5 0.5 28.0345 0.5 62C0.5 95.9655 28.0345 123.5 62 123.5C95.9655 123.5 123.5 95.9655 123.5 62Z" stroke="#007CC2" stroke-opacity="0.2"/>
<path d="M134.381 118.257L117.126 89.2839C115.315 86.2387 110.705 86.2387 108.894 89.2839L91.624 118.257C89.8285 121.259 92.1261 125 95.7323 125H130.257C133.894 125 136.161 121.259 134.381 118.257Z" fill="#FBAF28"/>
<path fill-rule="evenodd" clip-rule="evenodd" d="M113 97C113.552 97 114 97.5069 114 98.1322V110.868C114 111.493 113.552 112 113 112C112.448 112 112 111.493 112 110.868V98.1322C112 97.5069 112.448 97 113 97Z" fill="#0B2343"/>
<path fill-rule="evenodd" clip-rule="evenodd" d="M113 116C113.552 116 114 116.563 114 117.258V117.742C114 118.437 113.552 119 113 119C112.448 119 112 118.437 112 117.742V117.258C112 116.563 112.448 116 113 116Z" fill="#0B2343"/>
</svg>
