<svg width="40" height="40" viewBox="0 0 40 40" fill="none" xmlns="http://www.w3.org/2000/svg">
<path d="M15.2356 24.2878C14.8133 24.2846 14.4005 24.4132 14.0548 24.6558C13.7091 24.8983 13.4476 25.2426 13.3068 25.6408H8.62881C8.50335 25.2657 8.26952 24.9362 7.95686 24.6939C7.6442 24.4516 7.26675 24.3075 6.87219 24.2796C6.47763 24.2518 6.08367 24.3415 5.74009 24.5375C5.39651 24.7335 5.11872 25.0269 4.94183 25.3807C4.76494 25.7344 4.69688 26.1327 4.74626 26.5252C4.79563 26.9176 4.96022 27.2866 5.21922 27.5856C5.47823 27.8845 5.82004 28.1 6.20145 28.2047C6.58287 28.3095 6.98677 28.2988 7.36214 28.1741C7.65665 28.075 7.92423 27.909 8.14396 27.6893C8.3637 27.4696 8.52964 27.202 8.62881 26.9075H13.2781C13.4106 27.3206 13.6694 27.6817 14.018 27.9399C14.3666 28.1982 14.7874 28.3405 15.2212 28.3469C15.7519 28.3469 16.2608 28.1361 16.636 27.7609C17.0112 27.3856 17.222 26.8767 17.222 26.3461C17.222 25.8155 17.0112 25.3066 16.636 24.9314C16.2608 24.5561 15.7519 24.3454 15.2212 24.3454" fill="#0B2343"/>
<path d="M36.1212 33.7441H3.80682C3.07775 33.7266 2.38249 33.433 1.8615 32.9227C1.34051 32.4124 1.03261 31.7234 1 30.9948V19.091C1 18.9002 1.07582 18.7171 1.21079 18.5821C1.34576 18.4472 1.52882 18.3713 1.7197 18.3713H38.2083C38.3992 18.3713 38.5823 18.4472 38.7172 18.5821C38.8522 18.7171 38.928 18.9002 38.928 19.091V30.9948C38.8954 31.7234 38.5875 32.4124 38.0665 32.9227C37.5455 33.433 36.8503 33.7266 36.1212 33.7441ZM2.43939 19.8107V30.9948C2.45787 31.364 2.61764 31.7118 2.88561 31.9664C3.15357 32.221 3.50918 32.3627 3.87879 32.3622H36.1212C36.4908 32.3627 36.8464 32.221 37.1144 31.9664C37.3823 31.7118 37.5421 31.364 37.5606 30.9948V19.8107H2.43939Z" fill="#0B2343"/>
<path d="M38.2083 13.4917H1.7197C1.52882 13.4917 1.34576 13.4158 1.21079 13.2809C1.07582 13.1459 1 12.9628 1 12.772V9.80682C1.01878 9.05586 1.33035 8.34198 1.86821 7.81758C2.40606 7.29317 3.12759 6.99977 3.87879 7H36.1212C36.8847 7 37.6169 7.3033 38.1568 7.84318C38.6967 8.38305 39 9.11529 39 9.87879V12.772C39.0005 12.8729 38.9798 12.9727 38.9392 13.0651C38.8986 13.1574 38.8391 13.2402 38.7644 13.3081C38.6898 13.376 38.6017 13.4274 38.5059 13.459C38.4101 13.4906 38.3087 13.5018 38.2083 13.4917ZM2.43939 12.0523H37.4886V9.80682C37.4886 9.42507 37.337 9.05895 37.067 8.78901C36.7971 8.51907 36.431 8.36742 36.0492 8.36742H3.80682C3.43768 8.3859 3.08979 8.54567 2.83523 8.81364C2.58066 9.0816 2.43893 9.43722 2.43939 9.80682V12.0523Z" fill="#0B2343"/>
<path d="M38.2083 19.8103H1.7197C1.52882 19.8103 1.34576 19.7345 1.21079 19.5995C1.07582 19.4646 1 19.2815 1 19.0906V12.7717C1 12.5808 1.07582 12.3978 1.21079 12.2628C1.34576 12.1278 1.52882 12.052 1.7197 12.052H38.2083C38.3992 12.052 38.5823 12.1278 38.7172 12.2628C38.8522 12.3978 38.928 12.5808 38.928 12.7717V19.0906C38.928 19.2815 38.8522 19.4646 38.7172 19.5995C38.5823 19.7345 38.3992 19.8103 38.2083 19.8103ZM2.43939 18.3709H37.4886V13.4914H2.43939V18.3709Z" fill="#0B2343"/>
</svg>
