<svg width="40" height="40" viewBox="0 0 40 40" fill="none" xmlns="http://www.w3.org/2000/svg">
<path d="M19.7799 26.77C18.0199 26.09 16.0599 25.24 15.8999 24.72V24.17C16.2699 23.8 16.55 23.28 16.72 22.67C17.13 22.38 17.2299 21.79 16.8899 21.37V20.13C16.8899 18.85 16.1799 17.98 14.5499 17.98C12.9699 17.98 12.21 18.85 12.21 20.13V21.37C11.87 21.79 11.9799 22.38 12.3799 22.67C12.5499 23.28 12.84 23.8 13.2 24.18V24.73C13.04 25.26 11.0799 26.1 9.31995 26.78C9.16995 26.84 9.06995 26.98 9.06995 27.15V28.53C9.06995 28.75 9.23996 28.92 9.45996 28.92H19.62C19.83 28.92 20.0099 28.74 20.0099 28.53V27.15C20.0199 26.98 19.9299 26.83 19.7799 26.77Z" stroke="#0B2343" stroke-miterlimit="10" stroke-linecap="round" stroke-linejoin="round"/>
<path d="M22.0299 8.38C21.8199 8.14 21.5099 8 21.1899 8H17.8399C17.5199 8 17.21 8.14 17 8.38C16.79 8.62 16.6899 8.94 16.7199 9.27L17.3899 14.95C17.4599 15.52 17.9399 15.95 18.5099 15.95H20.5299C21.0999 15.95 21.5799 15.52 21.6499 14.95L22.3199 9.27C22.3399 8.94 22.2399 8.62 22.0299 8.38Z" stroke="#0B2343" stroke-linecap="round" stroke-linejoin="round"/>
<path d="M22.0299 8.38C21.8199 8.14 21.5099 8 21.1899 8H17.8399C17.5199 8 17.21 8.14 17 8.38C16.79 8.62 16.6899 8.94 16.7199 9.27L17.3899 14.95C17.4599 15.52 17.9399 15.95 18.5099 15.95H20.5299C21.0999 15.95 21.5799 15.52 21.6499 14.95L22.3199 9.27C22.3399 8.94 22.2399 8.62 22.0299 8.38Z" stroke="#0B2343" stroke-linecap="round" stroke-linejoin="round"/>
<path d="M21.86 12.99H34V32.99H5V12.99H17.1499" stroke="#0B2343" stroke-miterlimit="10" stroke-linecap="round" stroke-linejoin="round"/>
<path d="M23.0099 20.99H30.0099" stroke="#0B2343" stroke-linecap="round" stroke-linejoin="round"/>
<path d="M23.0099 23.99H30.0099" stroke="#0B2343" stroke-linecap="round" stroke-linejoin="round"/>
</svg>
