<svg width="40" height="40" viewBox="0 0 40 40" fill="none" xmlns="http://www.w3.org/2000/svg">
<path d="M25.9199 24.72V23.96C25.9199 23.8 25.8199 23.66 25.6699 23.6C23.8999 22.93 21.93 22.11 21.76 21.59V21.05C22.13 20.68 22.42 20.17 22.59 19.58C23 19.3 23.11 18.72 22.76 18.31V17.1C22.76 15.85 22.04 15 20.41 15C18.82 15 18.0599 15.85 18.0599 17.1V18.31C17.7199 18.72 17.82 19.3 18.23 19.58C18.4 20.18 18.6899 20.69 19.0599 21.05V21.59C18.8899 22.1 16.93 22.93 15.15 23.6C15 23.66 14.9 23.8 14.9 23.96V24.72" stroke="#0B2343" stroke-miterlimit="10" stroke-linecap="round" stroke-linejoin="round"/>
<path d="M21.82 6H19.01C18.52 6 18 6.46 18.07 7L18.63 11.18C18.69 11.6 19.09 11.89 19.57 11.89H21.26C21.74 11.89 22.14 11.61 22.2 11.19L22.76 6.98C22.84 6.44 22.3 6 21.82 6Z" stroke="#0B2343" stroke-linecap="round" stroke-linejoin="round"/>
<path d="M15.39 11.02H13.33C12.09 11.02 11 11.96 11 13.2V32.85C11 34.09 12.1 34.89 13.33 34.89H27.51C28.75 34.89 29.84 34.08 29.84 32.85V13.2C29.84 11.96 28.74 11.02 27.51 11.02H25.45" stroke="#0B2343" stroke-linecap="round" stroke-linejoin="round"/>
<path d="M21.1799 31.08H25.9199" stroke="#0B2343" stroke-linecap="round" stroke-linejoin="round"/>
<path d="M14.91 31.08H17.4199" stroke="#0B2343" stroke-linecap="round" stroke-linejoin="round"/>
<path d="M11.01 26.95H29.8199" stroke="#0B2343" stroke-linecap="round" stroke-linejoin="round"/>
</svg>
