<svg width="40" height="40" viewBox="0 0 40 40" fill="none" xmlns="http://www.w3.org/2000/svg">
<path d="M4.77904 29.5776H14.1127" stroke="#0B2343" stroke-miterlimit="10" stroke-linecap="round" stroke-linejoin="round"/>
<path d="M39 31.2405C39 32.4422 38.0258 33.425 36.8285 33.425H3.17059C1.97218 33.425 1.00017 32.4422 1.00017 31.2405V9.18141C1.00017 7.97647 1.97218 7.00011 3.17059 7.00011H36.8285C38.0258 7.00011 39 7.97647 39 9.18141V31.2405Z" stroke="#0B2343" stroke-miterlimit="10" stroke-linecap="round" stroke-linejoin="round"/>
<path d="M35.9876 19.1442C35.9876 19.3347 35.8352 19.4849 35.6491 19.4849H30.3982C30.2121 19.4849 30.0586 19.3347 30.0586 19.1442V15.6817C30.0586 15.4912 30.2121 15.3367 30.3982 15.3367H35.6491C35.8352 15.3367 35.9876 15.4912 35.9876 15.6817V19.1442Z" stroke="#0B2343" stroke-miterlimit="10" stroke-linecap="round" stroke-linejoin="round"/>
<path d="M1 26.8606C1 26.8606 4.11195 24.3201 11.9751 24.3201C17.9008 24.3201 21.4525 26.2086 28.3806 26.2086C34.6132 26.2086 38.7712 24.0687 38.7712 24.0687C38.7712 24.0687 35.1183 26.915 27.7885 26.915C20.4576 26.915 18.1217 25.0004 10.879 25.0004C3.63847 25.0004 1 26.8606 1 26.8606Z" fill="#0B2343"/>
</svg>
