<svg width="40" height="40" viewBox="0 0 40 40" fill="none" xmlns="http://www.w3.org/2000/svg">
<path d="M25.3745 27.1694H34.0801" stroke="#0B2343" stroke-miterlimit="10" stroke-linecap="round" stroke-linejoin="round"/>
<path d="M39 30.6074C39 31.7323 38.0936 32.6448 36.9747 32.6448H5.58375C4.46488 32.6448 3.5585 31.7323 3.5585 30.6074V10.0374C3.5585 8.91247 4.46488 8.00002 5.58375 8.00002H36.9747C38.0936 8.00002 39 8.91247 39 10.0374V30.6074Z" stroke="#0B2343" stroke-miterlimit="10" stroke-linecap="round" stroke-linejoin="round"/>
<path d="M16.5233 16.6795C16.8746 16.683 17.1149 16.7879 17.31 16.8799C17.7168 17.0724 18.193 17.2945 18.7906 17.5833C18.7906 17.5859 19.7516 16.8972 19.8036 16.8617C20.1323 16.6405 20.4472 16.8087 20.5495 17.0004C20.9086 17.6787 21.5704 19.0847 21.9208 20.3709C21.9607 20.5262 21.9121 20.7638 21.671 20.8384C21.5314 20.8783 21.292 20.913 21.0422 20.9442C20.6927 20.9876 20.6987 21.2704 20.6987 21.4404C20.6987 21.6529 20.7022 23.071 20.7022 23.5567C20.71 23.8542 20.4828 24.8291 19.3569 24.8291H16.7896C15.819 24.8326 15.0376 24.0112 15.0324 23.1378C15.0315 22.5627 15.0324 18.566 15.0341 18.1184C15.0384 17.2537 15.8156 16.67 16.5233 16.6795Z" stroke="#0B2343" stroke-miterlimit="10" stroke-linecap="round" stroke-linejoin="round"/>
<path d="M13.8275 25.8379C13.8275 25.8379 14.2638 24.9359 14.2638 24.0277C14.2638 23.98 14.2673 17.736 14.2673 17.736C14.2673 17.2399 14.4694 16.4003 15.4885 16.1783C15.5171 16.1722 15.5458 16.1661 15.5752 16.16C18.4652 15.4783 21.4437 16.0993 23.1264 16.8227C23.4273 16.9701 23.4967 16.7299 23.4872 16.6267C23.5219 15.2129 22.4472 13.5996 20.4705 13.5034C18.8634 13.4661 17.9726 14.042 17.6456 14.2016C17.6187 14.2155 17.5788 14.2094 17.5424 14.1678C17.2466 13.8763 16.6143 13.4383 15.9031 13.2362C15.7964 13.2119 15.7877 13.0549 15.9092 13.0419C17.4288 12.878 18.7619 13.0523 19.3152 13.1417C19.4436 13.1634 19.5407 13.0888 19.4896 12.9708C19.4488 12.8797 19.4185 12.8398 19.3534 12.7011C19.2172 12.4088 18.8599 12.1009 18.4054 11.9734C17.2093 11.6412 15.1737 11.3541 13.3609 11.3428C11.32 11.3298 9.16816 11.7375 8.62434 11.8615C8.49424 11.8884 8.31123 11.9361 8.27827 11.9413C8.12995 11.9716 8.09439 12.113 8.15944 12.1815C8.19847 12.2249 8.31209 12.3203 8.36587 12.3862C8.43352 12.4712 8.46388 12.5909 8.33638 12.7158C7.14118 13.7887 5.0847 15.6405 3.80276 16.7923" stroke="#0B2343" stroke-miterlimit="10" stroke-linecap="round" stroke-linejoin="round"/>
<path d="M3.80295 16.8064H7.47442" stroke="#0B2343" stroke-miterlimit="10" stroke-linecap="round" stroke-linejoin="round"/>
<path d="M2.28766 18.2554H7.47439" stroke="#0B2343" stroke-miterlimit="10" stroke-linecap="round" stroke-linejoin="round"/>
<path d="M1 19.7522H10.1522" stroke="#0B2343" stroke-miterlimit="10" stroke-linecap="round" stroke-linejoin="round"/>
<path d="M1 21.2737H10.1522" stroke="#0B2343" stroke-miterlimit="10" stroke-linecap="round" stroke-linejoin="round"/>
<path d="M4.05865 22.8193H12.9117" stroke="#0B2343" stroke-miterlimit="10" stroke-linecap="round" stroke-linejoin="round"/>
<path d="M4.05865 24.3398H12.9299" stroke="#0B2343" stroke-miterlimit="10" stroke-linecap="round" stroke-linejoin="round"/>
<path d="M7.23132 25.8379H13.8145" stroke="#0B2343" stroke-miterlimit="10" stroke-linecap="round" stroke-linejoin="round"/>
<path d="M7.2016 27.238H12.5288" stroke="#0B2343" stroke-miterlimit="10" stroke-linecap="round" stroke-linejoin="round"/>
<path d="M7.23132 28.8079H10.1525" stroke="#0B2343" stroke-miterlimit="10" stroke-linecap="round" stroke-linejoin="round"/>
<path d="M39 30.6081C39 31.7331 38.0936 32.6455 36.9747 32.6455H5.58375C4.46488 32.6455 3.5585 31.7331 3.5585 30.6081V10.0381C3.5585 8.9132 4.46488 8.00075 5.58375 8.00075H36.9747C38.0936 8.00075 39 8.9132 39 10.0381V30.6081Z" stroke="#0B2343" stroke-miterlimit="10" stroke-linecap="round" stroke-linejoin="round"/>
</svg>
