<svg width="40" height="40" viewBox="0 0 40 40" fill="none" xmlns="http://www.w3.org/2000/svg">
<path d="M16.4305 22.3696C14.5873 21.6575 12.5347 20.7673 12.3671 20.2227V19.6467C12.7546 19.2592 13.0479 18.7147 13.2259 18.0758C13.6553 17.7721 13.7599 17.1542 13.4039 16.7144V15.4158C13.4039 14.0753 12.6604 13.1642 10.9533 13.1642C9.29865 13.1642 8.50277 14.0753 8.50277 15.4158V16.7144C8.1467 17.1542 8.26182 17.7721 8.68072 18.0758C8.85876 18.7147 9.16253 19.2592 9.53955 19.6572V20.2332C9.37199 20.7882 7.31935 21.6679 5.47617 22.3801C5.31908 22.4429 5.21436 22.5895 5.21436 22.7676V24.2128C5.21436 24.4432 5.39241 24.6212 5.6228 24.6212H16.263C16.4829 24.6212 16.6713 24.4327 16.6713 24.2128V22.7676C16.6818 22.5895 16.5876 22.4325 16.4305 22.3696Z" stroke="#0B2343" stroke-width="0.893252" stroke-miterlimit="10" stroke-linecap="round" stroke-linejoin="round"/>
<path d="M31.3227 28.5448V8H0.952148V28.5448H31.3227Z" stroke="#0B2343" stroke-width="0.893252" stroke-miterlimit="10" stroke-linecap="round" stroke-linejoin="round"/>
<path d="M19.8132 16.3165H27.1441" stroke="#0B2343" stroke-width="0.893252" stroke-linecap="round" stroke-linejoin="round"/>
<path d="M19.8132 19.4583H27.1441" stroke="#0B2343" stroke-width="0.893252" stroke-linecap="round" stroke-linejoin="round"/>
<path d="M38.7556 29.67L32.803 19.2052C32.1782 18.1061 30.5874 18.1061 29.9626 19.2052L24.0158 29.67C23.4026 30.7518 24.1835 32.1055 25.4331 32.1055C28.4938 32.1055 33.2522 32.1055 37.3325 32.1055C38.5821 32.1055 39.3746 30.7576 38.7556 29.67Z" fill="#FBAF28"/>
<path d="M31.3856 22.0571V27.0553" stroke="#0B2343" stroke-width="0.578487" stroke-miterlimit="10" stroke-linecap="round" stroke-linejoin="round"/>
<path d="M31.3856 29.1205V29.2477" stroke="#0B2343" stroke-width="0.578487" stroke-miterlimit="10" stroke-linecap="round" stroke-linejoin="round"/>
</svg>
