<svg width="40" height="40" viewBox="0 0 40 40" fill="none" xmlns="http://www.w3.org/2000/svg">
<path d="M8.01398 12.1001V10.0342H30.9683V12.1001" stroke="#0B2343" stroke-width="0.998014" stroke-miterlimit="10" stroke-linecap="round" stroke-linejoin="round"/>
<path d="M7.96407 15.9722C6.25747 15.7825 5 14.3254 5 12.5689V10.3034C5 8.4072 6.38715 7 8.27339 7H30.7387C32.6349 7 34.0322 8.4072 34.0322 10.3034V12.5689C34.0322 14.3554 32.7747 15.8224 31.0282 15.9821" stroke="#0B2343" stroke-width="0.998014" stroke-miterlimit="10" stroke-linecap="round" stroke-linejoin="round"/>
<path d="M27.7646 10.0937L28.7228 30.2736C28.8625 32.2696 27.2655 33.9762 25.2396 33.9762L13.6527 33.9862C11.6267 33.9862 10.0299 32.2895 10.1596 30.2935L11.0479 10.0837" stroke="#0B2343" stroke-width="0.998014" stroke-miterlimit="10" stroke-linecap="round" stroke-linejoin="round"/>
<path d="M20.6188 33.9762V10.0938" stroke="#0B2343" stroke-width="0.998014" stroke-miterlimit="10" stroke-linecap="round" stroke-linejoin="round"/>
<path d="M24.7705 33.9762L24.1617 10.0938" stroke="#0B2343" stroke-width="0.998014" stroke-miterlimit="10" stroke-linecap="round" stroke-linejoin="round"/>
</svg>
