<svg width="40" height="40" viewBox="0 0 40 40" fill="none" xmlns="http://www.w3.org/2000/svg">
<path d="M27.1709 27.4807L27.7436 29.7527C27.8844 30.5226 27.3775 31.2642 26.6076 31.4051L12.7034 33.9963C11.9335 34.1371 11.1918 33.6301 11.051 32.8603L7.02348 11.267C6.88266 10.4972 7.38959 9.75548 8.15944 9.61465L22.0636 7.02348C22.8334 6.88266 23.5751 7.38962 23.7159 8.15947L24.0164 9.64282" stroke="#0B2343" stroke-linecap="round" stroke-linejoin="round"/>
<path d="M13.8244 8.59277L9.83717 9.33618L14.382 33.7119L18.3692 32.9684L13.8244 8.59277Z" stroke="#0B2343" stroke-miterlimit="10" stroke-linecap="round" stroke-linejoin="round"/>
<path d="M24.4013 19.5476C21.8101 19.388 19.7071 17.2286 19.7071 14.5999C19.7071 11.8585 21.9228 9.64282 24.6642 9.64282C27.4056 9.64282 29.6213 11.8585 29.6213 14.5999C29.6213 15.7453 29.2364 16.8625 28.5792 17.7074" stroke="#0B2343" stroke-miterlimit="10" stroke-linecap="round" stroke-linejoin="round"/>
<path d="M33.2264 22.6458C33.2264 25.3872 31.0107 27.6028 28.2693 27.6028C25.5279 27.6028 23.3123 25.3872 23.3123 22.6458C23.3123 19.9044 25.5279 17.6887 28.2693 17.6887C31.0107 17.6887 33.2264 19.9138 33.2264 22.6458Z" stroke="#0B2343" stroke-miterlimit="10" stroke-linecap="round" stroke-linejoin="round"/>
<path d="M26.8048 24.4296C27.2273 24.7957 27.8845 25.0774 28.3539 25.0774C29.1143 25.0774 29.7246 24.5423 29.7246 23.8851C29.7246 23.2279 29.0674 22.8993 28.3539 22.6927C27.6122 22.458 26.9831 22.1576 26.9831 21.5004C26.9831 20.8432 27.5934 20.3081 28.3539 20.3081C28.8609 20.3081 29.3115 20.5522 29.5462 20.9089" stroke="#0B2343" stroke-miterlimit="10" stroke-linecap="round" stroke-linejoin="round"/>
<path d="M28.3633 19.6416V20.2894" stroke="#0B2343" stroke-miterlimit="10" stroke-linecap="round" stroke-linejoin="round"/>
<path d="M28.3633 25.1335V25.7813" stroke="#0B2343" stroke-miterlimit="10" stroke-linecap="round" stroke-linejoin="round"/>
<path d="M23.3311 16.0926C23.7161 16.4305 24.3168 16.684 24.7487 16.684C25.4434 16.684 25.9974 16.1959 25.9974 15.5856C25.9974 14.9754 25.3965 14.6843 24.7487 14.4872C24.0727 14.2712 23.5001 13.999 23.5001 13.3887C23.5001 12.7879 24.0633 12.2903 24.7487 12.2903C25.2181 12.2903 25.6218 12.5156 25.8378 12.8442" stroke="#0B2343" stroke-miterlimit="10" stroke-linecap="round" stroke-linejoin="round"/>
<path d="M24.7487 11.699V12.2998" stroke="#0B2343" stroke-miterlimit="10" stroke-linecap="round" stroke-linejoin="round"/>
<path d="M24.7487 16.6841V17.2756" stroke="#0B2343" stroke-miterlimit="10" stroke-linecap="round" stroke-linejoin="round"/>
</svg>
