<svg width="40" height="40" viewBox="0 0 40 40" fill="none" xmlns="http://www.w3.org/2000/svg">
<path d="M20.3281 24.0869C18.2647 23.2897 15.9667 22.2931 15.7791 21.6834V21.0386C16.2129 20.6048 16.5413 19.9952 16.7406 19.28C17.2213 18.94 17.3384 18.2483 16.9398 17.7559V16.3021C16.9398 14.8014 16.1074 13.7814 14.1964 13.7814C12.344 13.7814 11.453 14.8014 11.453 16.3021V17.7559C11.0544 18.2483 11.1833 18.94 11.6522 19.28C11.8515 19.9952 12.1916 20.6048 12.6137 21.0503V21.6952C12.4261 22.3165 10.1282 23.3014 8.06471 24.0986C7.88885 24.169 7.77161 24.3331 7.77161 24.5324V26.1503C7.77161 26.4083 7.97093 26.6076 8.22887 26.6076H20.1406C20.3868 26.6076 20.5977 26.3965 20.5977 26.1503V24.5324C20.6095 24.3331 20.504 24.1572 20.3281 24.0869Z" stroke="#0B2343" stroke-miterlimit="10" stroke-linecap="round" stroke-linejoin="round"/>
<path d="M37 31V8H3V31H37Z" stroke="#0B2343" stroke-miterlimit="10" stroke-linecap="round" stroke-linejoin="round"/>
<path d="M24.1151 17.3104H32.322" stroke="#0B2343" stroke-linecap="round" stroke-linejoin="round"/>
<path d="M24.1151 20.8276H32.322" stroke="#0B2343" stroke-linecap="round" stroke-linejoin="round"/>
</svg>
