<svg width="40" height="40" viewBox="0 0 40 40" fill="none" xmlns="http://www.w3.org/2000/svg">
<path d="M20 38C29.9411 38 38 29.9411 38 20C38 10.0589 29.9411 2 20 2C10.0589 2 2 10.0589 2 20C2 29.9411 10.0589 38 20 38Z" stroke="#0B2343" stroke-miterlimit="10" stroke-linecap="round" stroke-linejoin="round"/>
<path d="M32.6087 32.8464C28.3057 31.4705 23.9401 31.4454 23.5399 30.1696V28.0806C28.1806 28.0681 30.032 26.5671 30.032 26.5671C28.0931 25.4663 27.4801 17.7735 27.4801 17.7735C27.4801 13.7707 24.4906 9.90549 20 9.90549C15.747 9.90549 12.5198 13.5455 12.5198 17.7735C12.5198 17.7735 11.9068 25.4663 9.96798 26.5671C9.96798 26.5671 11.8067 28.0681 16.4599 28.0806V30.1696C16.0596 31.4454 11.6941 31.4705 7.39111 32.8464" stroke="#0B2343" stroke-miterlimit="10" stroke-linecap="round" stroke-linejoin="round"/>
</svg>
