<svg width="40" height="40" viewBox="0 0 40 40" fill="none" xmlns="http://www.w3.org/2000/svg">
<path d="M20.0065 39.0001C30.5057 39.0001 39 30.4926 39 19.9934C39 9.49429 30.4925 1 20.0065 1C9.52056 1 1 9.49429 1 19.9934V39.0001H20.0065Z" stroke="#0B2343" stroke-miterlimit="10" stroke-linecap="round" stroke-linejoin="round"/>
<path d="M28.1712 25.0056C25.2298 23.8713 21.9719 22.46 21.6949 21.5762V20.6529C22.3016 20.033 22.7897 19.1625 23.0667 18.1469C23.7394 17.672 23.924 16.6828 23.3568 15.9837V13.9129C23.3568 11.7761 22.1698 10.3253 19.4527 10.3253C16.8147 10.3253 15.5484 11.7893 15.5484 13.9129V15.9837C14.9812 16.6828 15.1528 17.672 15.8387 18.1469C16.1288 19.1625 16.6036 20.033 17.2103 20.6529V21.5762C16.9333 22.46 13.6754 23.8713 10.734 25.0056C10.4834 25.0979 10.312 25.3485 10.312 25.6123V27.9206C10.312 28.2767 10.6022 28.5801 10.9583 28.5801H27.9205C28.2766 28.5801 28.5668 28.2899 28.5668 27.9206V25.6123C28.5932 25.3485 28.4218 25.0979 28.1712 25.0056Z" stroke="#0B2343" stroke-miterlimit="10" stroke-linecap="round" stroke-linejoin="round"/>
</svg>
