<svg width="40" height="40" viewBox="0 0 40 40" fill="none" xmlns="http://www.w3.org/2000/svg">
<path d="M12.2988 25.933C12.2988 25.933 11.3683 26.8411 10.1463 27.7828C6.45784 30.608 4.26048 27.5473 4.26048 25.35C4.21564 22.323 6.13272 19.5428 6.22241 19.4194" stroke="#0B2343" stroke-miterlimit="10" stroke-linecap="round" stroke-linejoin="round"/>
<path d="M16.3684 24.5652L13.375 26.3253C13.106 26.4823 12.7696 26.4374 12.5566 26.202L6.04297 19.24C5.99813 19.2064 5.97575 19.1728 5.94211 19.1392C5.43762 18.2423 9.12599 14.1726 13.4534 13.4775" stroke="#0B2343" stroke-miterlimit="10" stroke-linecap="round" stroke-linejoin="round"/>
<path d="M28.4427 25.933C28.4427 25.933 29.3732 26.8411 30.5952 27.7828C34.3509 30.6528 36.481 27.4801 36.481 25.35C36.5258 22.323 34.6087 19.5428 34.519 19.4194" stroke="#0B2343" stroke-miterlimit="10" stroke-linecap="round" stroke-linejoin="round"/>
<path d="M24.3731 24.5652L27.3664 26.3253C27.6355 26.4823 27.9718 26.4374 28.1848 26.202L34.6984 19.24C34.7433 19.2064 34.7657 19.1728 34.7993 19.1392C35.3038 18.2423 31.6602 14.1838 27.2431 13.4775" stroke="#0B2343" stroke-miterlimit="10" stroke-linecap="round" stroke-linejoin="round"/>
<path d="M27.3327 13.0965C27.3327 12.222 24.2049 11 20.3483 11C16.4917 11 13.3639 12.222 13.3639 13.0965C13.3639 13.1525 16.4357 24.7559 16.4357 24.7559C16.5366 25.1371 16.8953 25.4061 17.2989 25.4061H23.3978C23.8126 25.4061 24.1712 25.1371 24.2609 24.7559C24.2609 24.7447 27.3327 13.1525 27.3327 13.0965Z" stroke="#0B2343" stroke-miterlimit="10" stroke-linecap="round" stroke-linejoin="round"/>
</svg>
