<svg width="40" height="40" viewBox="0 0 40 40" fill="none" xmlns="http://www.w3.org/2000/svg">
<path d="M29.14 13.05H11.83C11.46 13.05 11.04 13.41 11.04 13.77V26.27C11.04 26.63 11.46 26.99 11.83 26.99H29.14C29.51 26.99 29.93 26.63 29.93 26.27V13.77C29.93 13.41 29.51 13.05 29.14 13.05Z" stroke="#0B2343" stroke-miterlimit="10" stroke-linecap="round" stroke-linejoin="round"/>
<path d="M15.57 19.5601C16.51 19.5601 17.28 18.7901 17.28 17.8401C17.28 16.8901 16.52 16.1201 15.57 16.1201C14.63 16.1201 13.86 16.8901 13.86 17.8401C13.86 18.7901 14.63 19.5601 15.57 19.5601Z" stroke="#0B2343" stroke-miterlimit="10" stroke-linecap="round" stroke-linejoin="round"/>
<path d="M15.81 26.99L20.51 19.02L22.8 22.1301L25.74 17.47L29.93 23.4199" stroke="#0B2343" stroke-miterlimit="10" stroke-linecap="round" stroke-linejoin="round"/>
<path d="M11.03 10.53V8" stroke="#0B2343" stroke-miterlimit="10" stroke-linecap="round" stroke-linejoin="round"/>
<path d="M8.51001 13.0701H6" stroke="#0B2343" stroke-miterlimit="10" stroke-linecap="round" stroke-linejoin="round"/>
<path d="M34.97 13.0701H32.45" stroke="#0B2343" stroke-miterlimit="10" stroke-linecap="round" stroke-linejoin="round"/>
<path d="M8.51001 27.02H6" stroke="#0B2343" stroke-miterlimit="10" stroke-linecap="round" stroke-linejoin="round"/>
<path d="M34.97 27.02H32.45" stroke="#0B2343" stroke-miterlimit="10" stroke-linecap="round" stroke-linejoin="round"/>
<path d="M29.93 10.53V8" stroke="#0B2343" stroke-miterlimit="10" stroke-linecap="round" stroke-linejoin="round"/>
<path d="M11.03 32.0901V29.55" stroke="#0B2343" stroke-miterlimit="10" stroke-linecap="round" stroke-linejoin="round"/>
<path d="M29.93 32.0901V29.55" stroke="#0B2343" stroke-miterlimit="10" stroke-linecap="round" stroke-linejoin="round"/>
</svg>
