<svg width="40" height="40" viewBox="0 0 40 40" fill="none" xmlns="http://www.w3.org/2000/svg">
<path d="M27.03 21.1599L25.48 12.3401L20.14 21.3799L14.86 12.3599L13.25 21.1599L8.41003 16.79L11.8501 32H28.4301L31.8501 16.78L27.03 21.1599Z" stroke="#0B2343" stroke-miterlimit="10" stroke-linecap="round" stroke-linejoin="round"/>
<path d="M16.27 10.6799C16.27 11.6099 15.5201 12.3599 14.5901 12.3599C13.6601 12.3599 12.91 11.6099 12.91 10.6799C12.91 9.74993 13.6601 9 14.5901 9C15.5201 9 16.27 9.75993 16.27 10.6799Z" stroke="#0B2343" stroke-linecap="round" stroke-linejoin="round"/>
<path d="M27.37 10.6799C27.37 11.6099 26.6201 12.3599 25.6901 12.3599C24.7601 12.3599 24.01 11.6099 24.01 10.6799C24.01 9.74993 24.7601 9 25.6901 9C26.6201 9 27.37 9.75993 27.37 10.6799Z" stroke="#0B2343" stroke-linecap="round" stroke-linejoin="round"/>
<path d="M34.27 15.28C34.27 16.21 33.5201 16.96 32.5901 16.96C31.6601 16.96 30.91 16.21 30.91 15.28C30.91 14.35 31.6601 13.6001 32.5901 13.6001C33.5201 13.6101 34.27 14.36 34.27 15.28Z" stroke="#0B2343" stroke-linecap="round" stroke-linejoin="round"/>
<path d="M9.35999 15.28C9.35999 16.21 8.61005 16.96 7.68005 16.96C6.75005 16.96 6 16.21 6 15.28C6 14.35 6.75005 13.6001 7.68005 13.6001C8.61005 13.6001 9.35999 14.36 9.35999 15.28Z" stroke="#0B2343" stroke-linecap="round" stroke-linejoin="round"/>
<path d="M11.17 29H29.0601" stroke="#0B2343" stroke-linecap="round" stroke-linejoin="round"/>
</svg>
