<svg width="42" height="42" viewBox="0 0 42 42" fill="none" xmlns="http://www.w3.org/2000/svg">
<path fill-rule="evenodd" clip-rule="evenodd" d="M0.5 21C0.5 9.6961 9.69611 0.5 21 0.5C32.3039 0.5 41.4999 9.6961 41.4999 21C41.4999 32.3039 32.3039 41.5 21 41.5C9.69611 41.5 0.5 32.3039 0.5 21ZM21 1.5C10.2484 1.5 1.5 10.2484 1.5 21C1.5 31.7516 10.2484 40.5 21 40.5C31.7516 40.5 40.4999 31.7516 40.4999 21C40.4999 10.2484 31.7516 1.5 21 1.5Z" fill="#F97722"/>
<path fill-rule="evenodd" clip-rule="evenodd" d="M14.9119 8.71656C15.0337 8.89343 15.0289 9.12827 14.9001 9.30003C14.6748 9.60035 14.3842 10.096 14.2432 10.5879C14.0969 11.098 14.1503 11.4432 14.3536 11.6465C14.6016 11.8945 14.7369 11.995 14.8166 12.033C14.8344 12.0415 14.8417 12.0452 14.8489 12.0451C14.8555 12.0451 14.8621 12.0417 14.8769 12.0358C14.9582 12.0033 15.0743 11.9249 15.3151 11.7423C15.3407 11.7229 15.3672 11.7027 15.3948 11.6817C15.6068 11.5202 15.8772 11.3143 16.2227 11.084C16.3761 10.9817 16.5734 10.9722 16.736 11.0592C16.8986 11.1462 17.0001 11.3156 17.0001 11.5C17.0001 12.4096 16.551 13.268 16.0155 13.9374C15.4769 14.6107 14.7972 15.1605 14.2237 15.4472C14.0061 15.556 13.9206 15.6429 13.8888 15.6856C13.8926 15.6903 13.8964 15.6951 13.9001 15.7C14.1671 16.056 14.5593 16.658 14.8871 17.3311C15.1147 17.7985 15.3272 18.332 15.4319 18.8579C16.6297 18.1118 17.5915 17.662 18.3932 17.3926L18.2016 16.9576C18.0903 16.7049 18.2049 16.4098 18.4576 16.2985C18.7103 16.1872 19.0054 16.3018 19.1168 16.5545L19.3706 17.1309C20.0387 17.0001 20.5606 17 21 17C21.4394 17 21.9614 17.0001 22.6295 17.1309L22.8833 16.5545C22.9947 16.3018 23.2898 16.1872 23.5425 16.2985C23.7952 16.4098 23.9098 16.7049 23.7985 16.9576L23.6069 17.3926C24.4086 17.662 25.3704 18.1119 26.5682 18.8579C26.6729 18.332 26.8854 17.7985 27.113 17.3311C27.4408 16.658 27.833 16.056 28.1001 15.7C28.1037 15.6951 28.1075 15.6903 28.1113 15.6856C28.0795 15.6429 27.994 15.556 27.7764 15.4472C27.203 15.1605 26.5233 14.6107 25.9846 13.9374C25.4491 13.268 25 12.4096 25 11.5C25 11.3156 25.1015 11.1462 25.2641 11.0592C25.4267 10.9722 25.624 10.9817 25.7774 11.084C26.1229 11.3143 26.3933 11.5202 26.6053 11.6817C26.6329 11.7027 26.6594 11.7229 26.6851 11.7423C26.9258 11.9249 27.0419 12.0033 27.1232 12.0358C27.138 12.0417 27.1446 12.0451 27.1513 12.0451C27.1585 12.0452 27.1657 12.0415 27.1835 12.033C27.2632 11.995 27.3985 11.8945 27.6465 11.6465C27.8498 11.4432 27.9032 11.098 27.7569 10.5879C27.6159 10.096 27.3253 9.60035 27.1 9.30003C26.9712 9.12827 26.9664 8.89343 27.0882 8.71656C27.2099 8.53969 27.431 8.46029 27.6374 8.51927C28.3084 8.71098 29.2504 9.21362 29.9762 10.1105C30.7105 11.0178 31.2081 12.311 30.9996 14.0346C30.9908 14.3486 30.8639 14.6341 30.7448 14.8388C30.7111 14.8968 30.6757 14.9523 30.6398 15.0046C31.0105 15.5681 31.3509 16.5286 30.9744 17.6581C30.463 19.1922 29.4705 20.2342 28.9392 20.7679C29.1216 21.0282 29.2569 21.2979 29.3489 21.5759C29.5095 22.0606 29.5294 22.5415 29.4679 23H31.574L33.5001 20.8114V19.5C33.5001 19.2239 33.7239 19 34.0001 19C34.2762 19 34.5001 19.2239 34.5001 19.5V21C34.5001 21.1216 34.4557 21.2391 34.3754 21.3303L32.1754 23.8303C32.0805 23.9382 31.9437 24 31.8001 24H29.2124C29.1422 24.193 29.063 24.3813 28.9797 24.5635L31.986 24.9929L34.305 24.5291L35.7227 23.584C35.9525 23.4308 36.2629 23.4929 36.4161 23.7227C36.5693 23.9524 36.5072 24.2629 36.2774 24.4161L34.7774 25.4161C34.7231 25.4523 34.6622 25.4775 34.5981 25.4903L32.0981 25.9903C32.0425 26.0014 31.9855 26.003 31.9293 25.995L28.5034 25.5056C28.4906 25.5297 28.4778 25.5535 28.4653 25.577C28.4538 25.5985 28.4424 25.6198 28.4312 25.6408L31.697 27.0405C31.7775 27.075 31.8475 27.13 31.9001 27.2L33.4001 29.2C33.4323 29.243 33.4574 29.2909 33.4744 29.3419L33.9744 30.8419C34.0617 31.1039 33.9201 31.3871 33.6582 31.4744C33.3962 31.5617 33.113 31.4201 33.0257 31.1581L32.5514 29.7351L31.1802 27.907L27.9953 26.542L27.9815 26.5782L27.944 26.6306C27.8759 26.7261 27.8002 26.8275 27.7176 26.9338L29.8124 28.6096C29.8689 28.6548 29.9149 28.7117 29.9473 28.7764L30.9473 30.7764C30.982 30.8459 31.0001 30.9224 31.0001 31V32.5C31.0001 32.7762 30.7762 33 30.5001 33C30.2239 33 30.0001 32.7762 30.0001 32.5V31.1181L29.102 29.3219L27.0704 27.6967C26.576 28.2357 25.9625 28.8176 25.2672 29.3398C24.0744 30.2357 22.5821 31 21.0001 31C19.418 31 17.9257 30.2357 16.7329 29.3398C16.0376 28.8176 15.4241 28.2357 14.9297 27.6967L12.8982 29.3219L12.0001 31.1181V32.5C12.0001 32.7762 11.7762 33 11.5001 33C11.2239 33 11.0001 32.7762 11.0001 32.5V31C11.0001 30.9224 11.0181 30.8459 11.0528 30.7764L12.0528 28.7764C12.0852 28.7117 12.1312 28.6548 12.1877 28.6096L14.2825 26.9338C14.1999 26.8275 14.1243 26.7261 14.0561 26.6306L14.0186 26.5782L14.0048 26.542L10.8199 27.907L9.44874 29.7351L8.97439 31.1581C8.88707 31.4201 8.60391 31.5617 8.34194 31.4744C8.07997 31.3871 7.93839 31.1039 8.02571 30.8419L8.52571 29.3419C8.54271 29.2909 8.56781 29.243 8.60005 29.2L10.1001 27.2C10.1526 27.13 10.2226 27.075 10.3031 27.0405L13.5689 25.6408C13.5577 25.6198 13.5463 25.5985 13.5348 25.577C13.5223 25.5535 13.5095 25.5297 13.4967 25.5056L10.0708 25.995C10.0146 26.003 9.95758 26.0014 9.902 25.9903L7.402 25.4903C7.33795 25.4775 7.27704 25.4523 7.2227 25.4161L5.7227 24.4161C5.49294 24.2629 5.43085 23.9524 5.58403 23.7227C5.7372 23.4929 6.04764 23.4308 6.2774 23.584L7.6951 24.5291L10.0141 24.9929L13.0204 24.5635C12.9371 24.3813 12.8579 24.193 12.7877 24H10.2001C10.0564 24 9.91962 23.9382 9.8247 23.8303L7.6247 21.3303C7.54437 21.2391 7.50005 21.1216 7.50005 21V19.5C7.50005 19.2239 7.72391 19 8.00005 19C8.2762 19 8.50005 19.2239 8.50005 19.5V20.8114L10.4261 23H12.5322C12.4707 22.5415 12.4906 22.0606 12.6512 21.5759C12.7433 21.2979 12.8785 21.0282 13.0609 20.7679C12.5296 20.2342 11.5371 19.1922 11.0257 17.6581C10.6492 16.5286 10.9896 15.5681 11.3603 15.0046C11.3244 14.9522 11.289 14.8968 11.2553 14.8388C11.1363 14.6341 11.0094 14.3486 11.0005 14.0346C10.792 12.311 11.2896 11.0178 12.0239 10.1105C12.7497 9.21362 13.6917 8.71098 14.3627 8.51927C14.5691 8.46029 14.7902 8.53969 14.9119 8.71656ZM13.7378 20.0303C13.872 19.9145 14.0179 19.8012 14.1762 19.6904C14.2857 19.6137 14.3935 19.5392 14.4997 19.4668C14.4905 18.9881 14.2846 18.3778 13.988 17.769C13.6977 17.1727 13.3494 16.6359 13.1163 16.3218C12.9511 16.139 12.8094 15.8301 12.9032 15.4636C13.0005 15.0831 13.3162 14.7829 13.7764 14.5528C14.203 14.3396 14.7733 13.8894 15.2346 13.3127C15.3776 13.134 15.505 12.9495 15.613 12.7626C15.4936 12.8432 15.3714 12.915 15.2483 12.9643C14.9666 13.0769 14.6805 13.0758 14.3867 12.9358C14.1382 12.8175 13.8985 12.6056 13.6465 12.3536C13.0498 11.7569 13.1032 10.9354 13.2819 10.3122C13.2908 10.2814 13.3 10.2506 13.3097 10.2199C13.133 10.3699 12.9606 10.5427 12.8012 10.7396C12.231 11.4442 11.8134 12.4754 11.9962 13.938C11.9988 13.9586 12.0001 13.9793 12.0001 14C12.0001 14.0725 12.0349 14.1901 12.1198 14.3362C12.2006 14.4752 12.2984 14.5912 12.3536 14.6465C12.5489 14.8417 12.5489 15.1583 12.3536 15.3536C12.1153 15.5919 11.6499 16.3684 11.9744 17.3419C12.4004 18.62 13.224 19.5111 13.7378 20.0303ZM15.446 26.7737C15.4308 26.7438 15.4123 26.715 15.3905 26.6877C15.362 26.652 15.3295 26.6213 15.2943 26.5957C15.1455 26.4172 15.0151 26.2497 14.9055 26.0989C14.7765 25.7778 14.5848 25.4193 14.3963 25.0667C14.3425 24.966 14.2889 24.8658 14.2371 24.7671C13.9796 24.2762 13.742 23.781 13.6086 23.2852C13.4767 22.7946 13.4546 22.3307 13.6004 21.8904C13.7452 21.4534 14.0744 20.9823 14.7497 20.5096C16.5797 19.2286 17.871 18.607 18.8295 18.3019C19.7766 18.0005 20.4208 18 21 18C21.5793 18 22.2235 18.0005 23.1705 18.3019C24.1291 18.607 25.4205 19.2286 27.2504 20.5096C27.9257 20.9823 28.2549 21.4534 28.3997 21.8904C28.5455 22.3307 28.5234 22.7946 28.3915 23.2852C28.2581 23.781 28.0205 24.2762 27.763 24.7671C27.7112 24.8658 27.6576 24.966 27.6038 25.0666C27.4153 25.4192 27.2236 25.7778 27.0947 26.0989C26.985 26.2497 26.8546 26.4172 26.7058 26.5957C26.6706 26.6213 26.6381 26.652 26.6096 26.6877C26.5878 26.715 26.5693 26.7438 26.5541 26.7737C26.0676 27.3335 25.4182 27.9758 24.6666 28.5402C23.5516 29.3777 22.2706 30 21.0001 30C19.7295 30 18.4485 29.3777 17.3335 28.5402C16.5819 27.9758 15.9325 27.3335 15.446 26.7737ZM28.2623 20.0303C28.7761 19.5111 29.5997 18.62 30.0257 17.3419C30.3502 16.3684 29.8848 15.5919 29.6465 15.3536C29.4512 15.1583 29.4512 14.8417 29.6465 14.6465C29.7017 14.5912 29.7995 14.4752 29.8803 14.3362C29.9652 14.1901 30 14.0725 30 14C30 13.9793 30.0013 13.9586 30.0039 13.938C30.1867 12.4754 29.7691 11.4442 29.1989 10.7396C29.0395 10.5427 28.8671 10.3699 28.6904 10.2199C28.7001 10.2506 28.7093 10.2814 28.7182 10.3122C28.8969 10.9354 28.9503 11.7569 28.3536 12.3536C28.1016 12.6056 27.8619 12.8175 27.6135 12.9358C27.3196 13.0758 27.0335 13.0769 26.7519 12.9643C26.6287 12.915 26.5065 12.8432 26.3871 12.7626C26.4951 12.9495 26.6225 13.134 26.7655 13.3127C27.2269 13.8894 27.7972 14.3396 28.2237 14.5528C28.6839 14.7829 28.9996 15.0831 29.097 15.4636C29.1907 15.8301 29.049 16.139 28.8838 16.3218C28.6507 16.6359 28.3024 17.1727 28.0121 17.769C27.7155 18.3778 27.5096 18.9881 27.5004 19.4668C27.6066 19.5392 27.7144 19.6137 27.8239 19.6904C27.9822 19.8012 28.1281 19.9145 28.2623 20.0303Z" fill="#F97722"/>
</svg>
