<?xml version="1.0" encoding="utf-8"?>
<!-- Generator: Adobe Illustrator 23.0.0, SVG Export Plug-In . SVG Version: 6.00 Build 0)  -->
<svg version="1.1" id="Layer_1" xmlns="http://www.w3.org/2000/svg" xmlns:xlink="http://www.w3.org/1999/xlink" x="0px" y="0px"
	 viewBox="0 0 15.1 28.6" style="enable-background:new 0 0 15.1 28.6;" xml:space="preserve">
<g>
	<path d="M14.1,2.8C14,2.1,13.9,0,12,0c-0.3,0-0.7,0-1,0.4c-0.3,0.3-0.5,0.9-0.6,2.1c0,0.1,0,0.1,0,0.2v0.6c0,1.1,0,2.7,0,4.8
		c0,1.4,0,2.9,0,4.8v15.1c0,0.3,0.2,0.5,0.5,0.5s0.5-0.2,0.5-0.5v-13c0.4,0.3,1,0.4,1.5,0.4c0.6,0,1.2,0,1.7-0.5
		c0.3-0.3,0.5-0.8,0.5-1.5L14.1,2.8z M13.9,14.2c-0.2,0.2-0.6,0.2-1.2,0.2c-0.9,0-1.4-0.5-1.4-1.6V3.2c0-1.3,0.1-2,0.4-2.2
		C11.7,1,11.8,1,12,1c0.4,0,1,0,1.1,1.9L14,13.5C14,13.7,14,14.1,13.9,14.2z"/>
	<path d="M5.8,0.4c-0.3,0-0.5,0.2-0.5,0.5v4.9H3.6V0.8c0-0.3-0.2-0.5-0.5-0.5S2.7,0.6,2.7,0.8v4.9H1V0.8c0-0.3-0.2-0.5-0.5-0.5
		S0,0.6,0,0.8v5.4v0.1v1.7c0,1.4,1.1,2.5,2.5,2.5h0.1v17.3c0,0.3,0.2,0.5,0.5,0.5s0.5-0.2,0.5-0.5V10.6h0.1c1.4,0,2.5-1.1,2.5-2.5
		V6.3V6.2V0.8C6.3,0.6,6.1,0.4,5.8,0.4z M5.4,8.1c0,0.9-0.7,1.6-1.6,1.6H2.5C1.7,9.6,1,8.9,1,8.1V6.7h4.4V8.1z"/>
</g>
</svg>
