<svg xmlns="http://www.w3.org/2000/svg" viewBox="0 0 176.84 255.1"><title>svg-comida</title><path d="M62.7,98c7.2-5.2,12.6-16.6,12.6-26.6V9.2c0-5.1-3.5-9.2-7.8-9.2s-7.8,4.1-7.8,9.2v56H55.4V9.2c0-5.1-3.5-9.2-7.8-9.2s-7.8,4.1-7.8,9.2v56H35.5V9.2C35.5,4.1,32,0,27.7,0s-7.8,4.1-7.8,9.2v56H15.6v-54C15.6,6.1,12.1,2,7.8,2S0,6.1,0,11.2V72.4C0,82.7,5.9,93.9,13.6,98.5l13.5,8a20.3,20.3,0,0,0,5,2.1L26.9,247.3c0,4.3,8.7,7.8,13,7.8s13-3.5,13-7.8L47.7,107.9a22.26,22.26,0,0,0,5.1-2.6Z"/><path d="M176.8,71.2S176.2,0,141.5,0c-34.9,0-35.3,72.4-35.3,72.4,0,25.9,24.7,34,24.7,34a20.3,20.3,0,0,0,5,2.1l-5.2,138.7c0,4.3,8.7,7.8,13,7.8s13-3.5,13-7.8l-5.2-139.4a22.26,22.26,0,0,0,5.1-2.6S177.9,96.3,176.8,71.2Z"/></svg>