<svg viewBox="0 0 27.17 30" xmlns="http://www.w3.org/2000/svg" xmlns:xlink="http://www.w3.org/1999/xlink">
  <g>
    <path d="M19,26H17V21.6a0.5,0.5,0,0,0-1,0V26H14V21.6a0.5,0.5,0,0,0-1,0V26H10.9a0.66,0.66,0,0,0-.5.4l-0.8,3a0.6,0.6,0,0,0,.1.4,0.52,0.52,0,0,0,.4.2h9.7a0.52,0.52,0,0,0,.4-0.2,0.6,0.6,0,0,0,.1-0.4l-0.8-3A0.66,0.66,0,0,0,19,26Zm-8.2,3,0.6-2h7.3l0.5,2H10.8Z" transform="translate(-1.36)" fill="#231f20"></path>
    <path d="M25.3,3.6A3.76,3.76,0,0,0,24,3.47V1.4A1.45,1.45,0,0,0,22.5,0H7.4A1.51,1.51,0,0,0,6,1.4V3.47a3.75,3.75,0,0,0-1.4.13c-2.5.7-3.8,3.8-3,6.9a6.7,6.7,0,0,0,2.9,4,4.2,4.2,0,0,0,2.1.6A3.43,3.43,0,0,0,7.1,15,9,9,0,0,0,15,20.1a8.89,8.89,0,0,0,7.86-5l0.54,0a3.38,3.38,0,0,0,2-.6,6.42,6.42,0,0,0,2.9-4C29.1,7.4,27.8,4.3,25.3,3.6ZM5,13.6a5.17,5.17,0,0,1-2.4-3.3C2,7.7,3,5.1,4.9,4.6A2,2,0,0,1,6,4.48V10.4a10.27,10.27,0,0,0,.67,3.67A4,4,0,0,1,5,13.6ZM15,19c-4.4,0-8-3.9-8-8.7V4.2A0.31,0.31,0,0,0,7,4V1.4A0.43,0.43,0,0,1,7.4,1H22.6a0.43,0.43,0,0,1,.4.4V3.76a0.42,0.42,0,0,0-.1.45,0.76,0.76,0,0,0,.1.15V10.3a9.24,9.24,0,0,1-.85,3.88,0.53,0.53,0,0,0-.15.22s0,0.06,0,.08A7.94,7.94,0,0,1,15,19Zm12.3-8.8a5.77,5.77,0,0,1-2.4,3.4,2.6,2.6,0,0,1-1.6.49A10.55,10.55,0,0,0,24,10.3V4.45a3.78,3.78,0,0,1,1,0C27,5.1,28,7.6,27.3,10.2Z" transform="translate(-1.36)" fill="#231f20"></path>
    <path d="M17.7,7.1h-1l-0.3-.8C15.8,4.5,15.6,4,15,4s-0.7.5-1.4,2.2a9.46,9.46,0,0,0-.3.9H12.5c-2,0-2.5,0-2.7.6s0.3,0.9,1.7,1.9a5.55,5.55,0,0,0,.8.6l-0.2.8c-0.6,1.9-.8,2.4-0.3,2.7a0.76,0.76,0,0,0,.4.1,5.74,5.74,0,0,0,2-1.1,5.55,5.55,0,0,1,.8-0.6l0.8,0.5c1.6,1.1,2,1.4,2.5,1.1s0.3-.8-0.2-2.5c-0.1-.3-0.2-0.6-0.3-1l0.6-.5c1.6-1.1,2-1.5,1.8-2S19.5,7.1,17.7,7.1Zm0.1,1.8-0.9.7a0.37,0.37,0,0,0-.2.5c0.1,0.5.3,0.9,0.4,1.3s0.2,0.7.3,1c-0.3-.2-0.6-0.4-1-0.7l-1-.7a0.64,0.64,0,0,0-.6,0c-0.4.3-.8,0.6-1.1,0.8l-0.9.6c0.1-.3.3-0.8,0.4-1.2l0.3-1.1a0.48,0.48,0,0,0-.2-0.5c-0.4-.3-0.8-0.6-1.1-0.8s-0.7-.5-0.9-0.7h2.4a0.55,0.55,0,0,0,.5-0.3c0.1-.5.3-0.9,0.4-1.3a4.18,4.18,0,0,0,.4-1c0.1,0.3.3,0.8,0.4,1.2l0.4,1.1a0.55,0.55,0,0,0,.5.3h2.5A11.49,11.49,0,0,1,17.8,8.9Z" transform="translate(-1.36)" fill="#231f20"></path>
  </g>
</svg>