<svg viewBox="0 0 20 20" fill="none" xmlns="http://www.w3.org/2000/svg">
<path d="M17.8323 10.7611C12.4288 5.40942 13.5375 6.50771 10.1649 3.16617C9.95245 2.95376 9.67788 3.00557 9.36186 3.00557L3.55949 3.03147C3.25901 3.03665 3 3.27497 3 3.59617L3.03108 9.8078C3.03108 9.95804 3.09325 10.0979 3.19687 10.2015C3.3212 10.3207 10.8746 17.8327 11.0301 17.9052C11.2632 18.014 11.5118 17.9415 11.6569 17.7912L17.8374 11.5537C18.055 11.3309 18.0551 10.9787 17.8323 10.7611Z" fill="#48A83E"/>
<path fill-rule="evenodd" clip-rule="evenodd" d="M10.9523 12.0771C10.6755 11.8003 10.0513 11.7728 9.54959 12.2745C9.04789 12.7762 9.07531 13.4005 9.35214 13.6773C9.62896 13.9541 10.2531 13.9815 10.7548 13.4798C11.2565 12.9781 11.2291 12.3539 10.9523 12.0771ZM8.90766 11.6326C9.64167 10.8986 10.8519 10.6928 11.5942 11.4352C12.3366 12.1775 12.1308 13.3877 11.3968 14.1218C10.6628 14.8558 9.45253 15.0615 8.71021 14.3192C7.96789 13.5769 8.17365 12.3666 8.90766 11.6326Z" fill="#F5FAFD"/>
<path fill-rule="evenodd" clip-rule="evenodd" d="M10.6535 5.74829C10.3767 5.47146 9.75247 5.44404 9.25077 5.94574C8.74906 6.44745 8.77648 7.07166 9.05331 7.34849C9.32998 7.62517 9.95366 7.65271 10.4552 7.15186C10.959 6.6422 10.9295 6.02426 10.6535 5.74829ZM8.60884 5.30381C9.34285 4.5698 10.5531 4.36404 11.2954 5.10636C12.0385 5.84938 11.8307 7.05268 11.0996 7.79131L11.098 7.79297L11.098 7.79296C10.364 8.52697 9.1537 8.73274 8.41138 7.99042C7.66906 7.2481 7.87483 6.03783 8.60884 5.30381Z" fill="#F5FAFD"/>
<path fill-rule="evenodd" clip-rule="evenodd" d="M14.3661 9.07161C14.4055 9.31917 14.2368 9.55185 13.9893 9.59132L6.07817 10.8525C5.83061 10.892 5.59793 10.7233 5.55846 10.4757C5.519 10.2281 5.68769 9.99546 5.93525 9.95599L13.8464 8.69481C14.0939 8.65535 14.3266 8.82404 14.3661 9.07161Z" fill="#F5FAFD"/>
</svg>
