<svg viewBox="0 0 15 15" fill="none" xmlns="http://www.w3.org/2000/svg">
<path d="M14.8323 7.76106C9.42884 2.40942 10.5375 3.50771 7.16485 0.166169C6.95245 -0.0462386 6.67788 0.00556944 6.36186 0.00556944L0.55949 0.0314665C0.259011 0.0366472 0 0.274972 0 0.596174L0.0310828 6.8078C0.0310828 6.95804 0.0932547 7.09793 0.196868 7.20154C0.321205 7.3207 7.87463 14.8327 8.03005 14.9052C8.26318 15.014 8.51183 14.9415 8.65689 14.7912L14.8374 8.55369C15.055 8.33092 15.0551 7.97865 14.8323 7.76106Z" fill="#48A83E"/>
<path fill-rule="evenodd" clip-rule="evenodd" d="M7.9523 9.07708C7.67548 8.80026 7.0513 8.77284 6.54959 9.27454C6.04789 9.77624 6.07531 10.4005 6.35214 10.6773C6.62896 10.9541 7.25314 10.9815 7.75484 10.4798C8.25655 9.97812 8.22913 9.35391 7.9523 9.07708ZM5.90766 8.63261C6.64167 7.8986 7.85191 7.69283 8.59423 8.43515C9.33655 9.17747 9.13078 10.3877 8.39677 11.1218C7.66276 11.8558 6.45253 12.0615 5.71021 11.3192C4.96789 10.5769 5.17365 9.36662 5.90766 8.63261Z" fill="#F5FAFD"/>
<path fill-rule="evenodd" clip-rule="evenodd" d="M7.65351 2.74829C7.37669 2.47146 6.75247 2.44404 6.25077 2.94574C5.74906 3.44745 5.77648 4.07166 6.05331 4.34849C6.32998 4.62517 6.95366 4.65271 7.45523 4.15186C7.959 3.6422 7.92949 3.02426 7.65351 2.74829ZM5.60884 2.30381C6.34285 1.5698 7.55312 1.36404 8.29544 2.10636C9.03846 2.84938 8.83072 4.05268 8.09963 4.79131L8.09799 4.79297L8.09798 4.79296C7.36397 5.52697 6.1537 5.73274 5.41138 4.99042C4.66906 4.2481 4.87483 3.03783 5.60884 2.30381Z" fill="#F5FAFD"/>
<path fill-rule="evenodd" clip-rule="evenodd" d="M11.3661 6.07161C11.4055 6.31917 11.2368 6.55185 10.9893 6.59132L3.07817 7.8525C2.83061 7.89197 2.59793 7.72327 2.55846 7.47571C2.519 7.22814 2.68769 6.99546 2.93525 6.95599L10.8464 5.69481C11.0939 5.65535 11.3266 5.82404 11.3661 6.07161Z" fill="#F5FAFD"/>
</svg>
