<svg width="40" height="40" viewBox="0 0 40 40" fill="none" xmlns="http://www.w3.org/2000/svg">
<path d="M31.2 17.8222C34.67 11.5022 27.7 4.54221 21.39 8.01221" stroke="#0B2343" stroke-miterlimit="10" stroke-linecap="round" stroke-linejoin="round"/>
<path d="M34.7 16.3123L31.22 17.8523L29.69 14.3623" stroke="#0B2343" stroke-miterlimit="10" stroke-linecap="round" stroke-linejoin="round"/>
<path d="M9.51003 22.3223C6.04003 28.6423 13.01 35.6023 19.32 32.1323" stroke="#0B2343" stroke-miterlimit="10" stroke-linecap="round" stroke-linejoin="round"/>
<path d="M6 23.8323L9.47998 22.3022L11.01 25.7823" stroke="#0B2343" stroke-miterlimit="10" stroke-linecap="round" stroke-linejoin="round"/>
<path d="M13.2969 19.8405C17.0793 19.7614 20.0814 16.6311 20.0023 12.8487C19.9232 9.06629 16.7929 6.06414 13.0105 6.14321C9.22814 6.22228 6.22596 9.35262 6.30503 13.135C6.3841 16.9174 9.51447 19.9196 13.2969 19.8405Z" stroke="#0B2343" stroke-miterlimit="10" stroke-linecap="round" stroke-linejoin="round"/>
<path d="M34.81 27.8622C34.81 31.6422 31.74 34.7122 27.96 34.7122C24.18 34.7122 21.11 31.6422 21.11 27.8622C21.11 24.0822 24.18 21.0122 27.96 21.0122C31.75 21.0122 34.81 24.0822 34.81 27.8622Z" stroke="#0B2343" stroke-miterlimit="10" stroke-linecap="round" stroke-linejoin="round"/>
<path d="M11.04 15.4124C11.62 15.9224 12.53 16.3024 13.18 16.3024C14.22 16.3024 15.06 15.5624 15.06 14.6524C15.06 13.7424 14.16 13.2924 13.18 13.0024C12.16 12.6824 11.3 12.2624 11.3 11.3524C11.3 10.4424 12.14 9.70239 13.18 9.70239C13.88 9.70239 14.49 10.0324 14.82 10.5324" stroke="#0B2343" stroke-miterlimit="10" stroke-linecap="round" stroke-linejoin="round"/>
<path d="M13.18 8.81226V9.71225" stroke="#0B2343" stroke-miterlimit="10" stroke-linecap="round" stroke-linejoin="round"/>
<path d="M13.18 16.3022V17.2022" stroke="#0B2343" stroke-miterlimit="10" stroke-linecap="round" stroke-linejoin="round"/>
<path d="M24.64 27.0122H28.71" stroke="#0B2343" stroke-linecap="round" stroke-linejoin="round"/>
<path d="M24.64 28.8323H28.71" stroke="#0B2343" stroke-linecap="round" stroke-linejoin="round"/>
<path d="M30.52 25.7422C30.01 24.8922 29.22 24.3423 28.34 24.3423C26.81 24.3423 25.57 25.9723 25.57 27.9823C25.57 29.9923 26.81 31.6223 28.34 31.6223C29.27 31.6223 30.09 31.0223 30.59 30.1023" stroke="#0B2343" stroke-linecap="round" stroke-linejoin="round"/>
</svg>
