<svg width="40" height="40" viewBox="0 0 40 40" fill="none" xmlns="http://www.w3.org/2000/svg">
<path d="M9 12.8717C9 14.6724 10.4614 16.9167 12.2621 16.9167C14.0628 16.9167 15.5242 14.6724 15.5242 12.8717C15.5242 11.071 14.0628 7.62622 12.2621 7.62622C10.4614 7.62622 9 11.071 9 12.8717Z" stroke="#0B2343" stroke-width="0.917797" stroke-miterlimit="10" stroke-linecap="round" stroke-linejoin="round"/>
<path d="M27.9723 18.2564C27.9723 19.6047 28.7204 20.1528 29.6512 20.1528C30.582 20.1528 31.33 20.1875 31.33 18.8392L30.495 9.12252C30.3906 7.6698 29.9469 7.00004 29.0248 7.00004C27.6852 6.99134 27.9723 8.4527 27.9723 18.2564Z" stroke="#0B2343" stroke-width="0.917797" stroke-miterlimit="10" stroke-linecap="round" stroke-linejoin="round"/>
<path d="M27.9722 8.94849V32.0006" stroke="#0B2343" stroke-width="0.917797" stroke-miterlimit="10" stroke-linecap="round" stroke-linejoin="round"/>
<path d="M12.2621 16.9167V32.0006" stroke="#0B2343" stroke-width="0.917797" stroke-miterlimit="10" stroke-linecap="round" stroke-linejoin="round"/>
<path d="M20.961 15.786V32.0095" stroke="#0B2343" stroke-width="0.917797" stroke-miterlimit="10" stroke-linecap="round" stroke-linejoin="round"/>
<path d="M20.961 7.33057V12.2542" stroke="#0B2343" stroke-width="0.917797" stroke-miterlimit="10" stroke-linecap="round" stroke-linejoin="round"/>
<path d="M23.4053 7.33057V12.3324" stroke="#0B2343" stroke-width="0.917797" stroke-miterlimit="10" stroke-linecap="round" stroke-linejoin="round"/>
<path d="M18.5165 7.33057V12.3324" stroke="#0B2343" stroke-width="0.917797" stroke-miterlimit="10" stroke-linecap="round" stroke-linejoin="round"/>
<path d="M21.5263 15.786H20.3955C19.3517 15.786 18.5165 14.9421 18.5165 13.907V12.2543H23.414V13.907C23.4053 14.9508 22.5615 15.786 21.5263 15.786Z" stroke="#0B2343" stroke-width="0.917797" stroke-miterlimit="10" stroke-linecap="round" stroke-linejoin="round"/>
</svg>
