<svg width="40" height="40" viewBox="0 0 40 40" fill="none" xmlns="http://www.w3.org/2000/svg">
<path d="M19.3129 15.1019V18.9558" stroke="#0B2343" stroke-width="1.00359" stroke-miterlimit="10" stroke-linecap="round" stroke-linejoin="round"/>
<path d="M19.3531 6.2605V11.1681" stroke="#0B2343" stroke-width="1.00359" stroke-miterlimit="10" stroke-linecap="round" stroke-linejoin="round"/>
<path d="M21.4103 6.2605V11.2483" stroke="#0B2343" stroke-width="1.00359" stroke-miterlimit="10" stroke-linecap="round" stroke-linejoin="round"/>
<path d="M17.2957 6.2605V11.2483" stroke="#0B2343" stroke-width="1.00359" stroke-miterlimit="10" stroke-linecap="round" stroke-linejoin="round"/>
<path d="M19.4735 15.0518H19.2325C18.1687 15.0518 17.2957 14.1886 17.2957 13.1148V11.1578H21.4103V13.1148C21.4103 14.1886 20.5473 15.0518 19.4735 15.0518Z" stroke="#0B2343" stroke-width="1.00359" stroke-miterlimit="10" stroke-linecap="round" stroke-linejoin="round"/>
<path d="M15.0878 14.7608C15.2484 15.8246 14.7164 16.3465 13.9837 16.4569C13.2511 16.5673 12.659 16.6877 12.5085 15.6239L12.0167 7.85608C11.9264 6.69192 12.1974 6.11991 12.93 6.00951C13.6627 5.89912 13.8834 6.75209 14.044 7.8159L15.0878 14.7608Z" stroke="#0B2343" stroke-width="1.00359" stroke-miterlimit="10" stroke-linecap="round" stroke-linejoin="round"/>
<path d="M13.9938 7.41443L15.7199 18.9457" stroke="#0B2343" stroke-width="1.00359" stroke-miterlimit="10" stroke-linecap="round" stroke-linejoin="round"/>
<path d="M23.5078 11.5594C23.1666 12.9544 23.9394 14.7308 25.3344 15.072C26.7294 15.4132 28.2247 14.1888 28.566 12.7938C28.9072 11.3988 28.3552 8.72927 26.9502 8.38805C25.5552 8.03679 23.849 10.1644 23.5078 11.5594Z" stroke="#0B2343" stroke-width="1.00359" stroke-miterlimit="10" stroke-linecap="round" stroke-linejoin="round"/>
<path d="M25.3344 15.062L24.4814 18.9459" stroke="#0B2343" stroke-width="1.00359" stroke-miterlimit="10" stroke-linecap="round" stroke-linejoin="round"/>
<path d="M14.4555 21.0634L15.1379 33.9193H23.7186L24.401 21.0734" stroke="#0B2343" stroke-width="1.00359" stroke-linecap="round" stroke-linejoin="round"/>
<path d="M25.3845 18.9558H13.2813V21.0231H25.3845V18.9558Z" stroke="#0B2343" stroke-width="1.00359" stroke-linecap="round" stroke-linejoin="round"/>
<path d="M25.3845 18.9558H13.2813V21.0231H25.3845V18.9558Z" stroke="#0B2343" stroke-width="1.00359" stroke-linecap="round" stroke-linejoin="round"/>
</svg>
