<svg width="40" height="40" viewBox="0 0 40 40" fill="none" xmlns="http://www.w3.org/2000/svg">
<path d="M25.97 6V11H30.97" stroke="#0B2343" stroke-miterlimit="10" stroke-linecap="round" stroke-linejoin="round"/>
<path d="M30.97 33.98C30.97 34.53 30.53 34.98 29.98 34.98H10.98C10.43 34.98 10 34.53 10 33.98V7.01001C10 6.46001 10.44 6 10.98 6H25.98C26.24 6 26.36 6.11004 26.54 6.29004L30.68 10.38C30.87 10.57 30.97 10.74 30.97 11V33.98Z" stroke="#0B2343" stroke-miterlimit="10" stroke-linecap="round" stroke-linejoin="round"/>
<path d="M13.75 29.9H27.19" stroke="#0B2343" stroke-linecap="round" stroke-linejoin="round"/>
<path d="M13.75 26.1H27.19" stroke="#0B2343" stroke-linecap="round" stroke-linejoin="round"/>
<path d="M21.05 17.72C20.65 17.3 20.11 17.04 19.51 17.04C18.28 17.04 17.28 18.13 17.28 19.47C17.28 20.81 18.28 21.9 19.51 21.9C20.13 21.9 20.7 21.62 21.1 21.17" stroke="#0B2343" stroke-linecap="round" stroke-linejoin="round"/>
<path d="M23.03 17.22L24.93 21.9L26.81 17.22" stroke="#0B2343" stroke-miterlimit="10" stroke-linecap="round" stroke-linejoin="round"/>
</svg>
