<svg width="40" height="40" viewBox="0 0 40 40" fill="none" xmlns="http://www.w3.org/2000/svg">
<path d="M29.1496 27.4843V14.8528C29.1496 14.386 28.7726 14 28.2968 14H7.49582C7.02899 14 6.64294 14.377 6.64294 14.8528V27.4843" stroke="#0B2343" stroke-miterlimit="10" stroke-linecap="round" stroke-linejoin="round"/>
<path d="M19.2833 29.3068V29.6478C19.2833 29.9171 19.0678 30.1326 18.7985 30.1326H16.994C16.7246 30.1326 16.5092 29.9171 16.5092 29.6478V29.3068H5V31.1023C5 31.596 5.40399 32 5.89775 32H29.9037C30.3974 32 30.8014 31.596 30.8014 31.1023V29.3068H19.2833Z" stroke="#0B2343" stroke-miterlimit="10" stroke-linecap="round" stroke-linejoin="round"/>
<path d="M34.1435 18.6932L28.5179 8.78134C27.9275 7.73955 26.4244 7.73955 25.834 8.78134L20.2034 18.6932C19.618 19.7201 20.3671 21 21.5429 21H32.7991C33.9848 21 34.7239 19.7201 34.1435 18.6932Z" fill="#FBAF28" stroke="#FBAF28" stroke-miterlimit="10" stroke-linecap="round" stroke-linejoin="round"/>
<path d="M27.1734 11.8373V16.3269" stroke="#002B5C" stroke-miterlimit="10" stroke-linecap="round" stroke-linejoin="round"/>
<path d="M27.1734 18.2864V18.4402" stroke="#002B5C" stroke-miterlimit="10" stroke-linecap="round" stroke-linejoin="round"/>
</svg>
