<svg width="40" height="40" viewBox="0 0 40 40" fill="none" xmlns="http://www.w3.org/2000/svg">
<path d="M33.9657 34H11.161C9.84974 34 8.78552 32.9358 8.78552 31.6245V26.3985V23.0728V19.7471L11.1265 19.0747C11.1265 17.7635 10.1763 16.6992 12.1112 15.9463L13.0614 14.0459H17.3373H22.5634H28.2646H33.9657C35.277 14.0459 36.3412 15.1101 36.3412 16.4214V31.6245C36.3412 32.9358 35.277 34 33.9657 34Z" stroke="#0B2343" stroke-miterlimit="10" stroke-linecap="round" stroke-linejoin="round"/>
<path d="M27.7894 11.1953C27.7894 9.09538 26.0886 7.39453 23.9887 7.39453H21.1381C19.0381 7.39453 17.3373 9.09538 17.3373 11.1953" stroke="#0B2343" stroke-miterlimit="10" stroke-linecap="round" stroke-linejoin="round"/>
<line x1="10.0388" y1="12.4557" x2="8.35309" y2="8.06713" stroke="#0B2343" stroke-linecap="round"/>
<line x1="8.54865" y1="13.8104" x2="4.2535" y2="11.8992" stroke="#0B2343" stroke-linecap="round"/>
<path d="M12.1307 11.6926L12.873 6.99997" stroke="#0B2343" stroke-linecap="round"/>
</svg>
