<svg width="40" height="40" viewBox="0 0 40 40" fill="none" xmlns="http://www.w3.org/2000/svg">
<path d="M21.7529 9.17719L19.0778 10.2308C18.1065 10.6177 17.4233 10.1156 15.0775 9.22663L14.5342 9.44064L16.4768 11.2597L15.9993 11.449C14.9622 11.8605 19.5963 11.663 20.938 11.3502L28.6259 8.31299C28.6259 8.31299 31.2763 7.26763 30.3627 6.76554C29.342 6.21405 26.922 7.1359 26.922 7.1359L23.9588 8.30475L19.6046 6L19.3083 6.11525L21.7529 9.17719Z" stroke="#0B2343" stroke-width="0.904208" stroke-miterlimit="10" stroke-linecap="round" stroke-linejoin="round"/>
<path d="M24.6453 15.7307H8.25755V27.2481H24.6453V15.7307Z" stroke="#0B2343" stroke-width="0.904208" stroke-miterlimit="10" stroke-linecap="round" stroke-linejoin="round"/>
<path d="M11.54 30.4318H9.06374V27.2481H24.6452V18.9473H29.7458C29.7458 18.9473 31.3006 20.4199 31.3006 23.1347V27.2563H31.9999V30.44H29.9432" stroke="#0B2343" stroke-width="0.904208" stroke-miterlimit="10" stroke-linecap="round" stroke-linejoin="round"/>
<path d="M25.6489 30.4319H15.8344" stroke="#0B2343" stroke-width="0.904208" stroke-miterlimit="10" stroke-linecap="round" stroke-linejoin="round"/>
<path d="M27.796 33.8952C29.1205 33.8952 30.1983 32.8175 30.1983 31.493C30.1983 30.1685 29.1205 29.0908 27.796 29.0908C26.4715 29.0908 25.3938 30.1685 25.3938 31.493C25.402 32.8175 26.4797 33.8952 27.796 33.8952Z" stroke="#0B2343" stroke-width="0.904208" stroke-miterlimit="10" stroke-linecap="round" stroke-linejoin="round"/>
<path d="M27.7961 30.843C28.1581 30.843 28.446 31.1392 28.446 31.4929C28.446 31.8549 28.1498 32.1429 27.7961 32.1429C27.4341 32.1429 27.1461 31.8467 27.1461 31.4929C27.1461 31.1309 27.4423 30.843 27.7961 30.843Z" stroke="#0B2343" stroke-width="0.904208" stroke-miterlimit="10" stroke-linecap="round" stroke-linejoin="round"/>
<path d="M13.6872 33.8952C15.0117 33.8952 16.0812 32.8175 16.0812 31.493C16.0812 30.1685 15.0035 29.0908 13.6872 29.0908C12.3627 29.0908 11.2851 30.1685 11.2851 31.493C11.2851 32.8175 12.3627 33.8952 13.6872 33.8952Z" stroke="#0B2343" stroke-width="0.904208" stroke-miterlimit="10" stroke-linecap="round" stroke-linejoin="round"/>
<path d="M13.6871 30.843C14.0491 30.843 14.3371 31.1392 14.3371 31.4929C14.3371 31.8549 14.0409 32.1429 13.6871 32.1429C13.3252 32.1429 13.0372 31.8467 13.0372 31.4929C13.0372 31.1309 13.3252 30.843 13.6871 30.843Z" stroke="#0B2343" stroke-width="0.904208" stroke-miterlimit="10" stroke-linecap="round" stroke-linejoin="round"/>
<path d="M27.9771 23.8504V18.9473" stroke="#0B2343" stroke-width="0.904208" stroke-miterlimit="10" stroke-linecap="round" stroke-linejoin="round"/>
<path d="M31.3007 23.8503H24.637" stroke="#0B2343" stroke-width="0.904208" stroke-miterlimit="10" stroke-linecap="round" stroke-linejoin="round"/>
<path d="M29.1371 17.3843C29.1371 17.3843 27.8455 15.6484 26.2989 15.6484" stroke="#0B2343" stroke-width="0.904208" stroke-miterlimit="10" stroke-linecap="round" stroke-linejoin="round"/>
</svg>
