<svg width="40" height="40" viewBox="0 0 40 40" fill="none" xmlns="http://www.w3.org/2000/svg">
<path d="M3.51746 20.5139V24.3094H4.87206V28.0921H7.58126" stroke="#0B2343" stroke-miterlimit="10" stroke-linecap="round" stroke-linejoin="round"/>
<path d="M3.55591 12.6804V9H31.5809L34.3029 15.2107L37.1782 17.1659C37.6127 17.4598 38.06 17.9583 38.06 18.4822V28.1689H34.6991" stroke="#0B2343" stroke-miterlimit="10" stroke-linecap="round" stroke-linejoin="round"/>
<path d="M13.8306 28.1946H28.4629" stroke="#0B2343" stroke-miterlimit="10" stroke-linecap="round" stroke-linejoin="round"/>
<path d="M31.5809 31.2103C33.3061 31.2103 34.699 29.8047 34.699 28.0923C34.699 26.3671 33.2933 24.9741 31.5809 24.9741C29.8557 24.9741 28.4627 26.3798 28.4627 28.0923C28.4627 29.8175 29.8557 31.2103 31.5809 31.2103Z" stroke="#0B2343" stroke-miterlimit="10" stroke-linecap="round" stroke-linejoin="round"/>
<path d="M10.6995 31.2103C12.4247 31.2103 13.8177 29.8047 13.8177 28.0923C13.8177 26.3671 12.4119 24.9741 10.6995 24.9741C8.97431 24.9741 7.58136 26.3798 7.58136 28.0923C7.58136 29.8175 8.98709 31.2103 10.6995 31.2103Z" stroke="#0B2343" stroke-miterlimit="10" stroke-linecap="round" stroke-linejoin="round"/>
<path d="M5.98394 17.9583H2.31628" stroke="#0B2343" stroke-miterlimit="10" stroke-linecap="round" stroke-linejoin="round"/>
<path d="M1 15.4153H7.35135" stroke="#0B2343" stroke-miterlimit="10" stroke-linecap="round" stroke-linejoin="round"/>
<path d="M4.87225 24.3096H38.0473" stroke="#0B2343" stroke-miterlimit="10" stroke-linecap="round" stroke-linejoin="round"/>
<path d="M26.6991 9V24.3096" stroke="#0B2343" stroke-miterlimit="10" stroke-linecap="round" stroke-linejoin="round"/>
</svg>
