<svg width="40" height="40" viewBox="0 0 40 40" fill="none" xmlns="http://www.w3.org/2000/svg">
<path d="M7.03589 25.6147V28.6841H8.13134V31.7431H10.3222" stroke="#0B2343" stroke-width="1.03345" stroke-miterlimit="10" stroke-linecap="round" stroke-linejoin="round"/>
<path d="M24.5527 16.3035H29.7303L31.9316 21.326L34.2568 22.9071C34.6082 23.1448 34.9699 23.5479 34.9699 23.9716V31.8052H32.2519" stroke="#0B2343" stroke-width="1.03345" stroke-miterlimit="10" stroke-linecap="round" stroke-linejoin="round"/>
<path d="M7.06689 19.2797V16.3035H8.05903" stroke="#0B2343" stroke-width="1.03345" stroke-miterlimit="10" stroke-linecap="round" stroke-linejoin="round"/>
<path d="M15.3759 31.8259H27.2088" stroke="#0B2343" stroke-width="1.03345" stroke-miterlimit="10" stroke-linecap="round" stroke-linejoin="round"/>
<path d="M29.7304 34.2646C31.1255 34.2646 32.252 33.1279 32.252 31.743C32.252 30.3479 31.1152 29.2214 29.7304 29.2214C28.3352 29.2214 27.2088 30.3582 27.2088 31.743C27.2088 33.1382 28.3352 34.2646 29.7304 34.2646Z" stroke="#0B2343" stroke-width="1.03345" stroke-miterlimit="10" stroke-linecap="round" stroke-linejoin="round"/>
<path d="M12.8439 34.2646C14.239 34.2646 15.3655 33.1279 15.3655 31.743C15.3655 30.3479 14.2287 29.2214 12.8439 29.2214C11.4487 29.2214 10.3223 30.3582 10.3223 31.743C10.3223 33.1382 11.4591 34.2646 12.8439 34.2646Z" stroke="#0B2343" stroke-width="1.03345" stroke-miterlimit="10" stroke-linecap="round" stroke-linejoin="round"/>
<path d="M9.03044 23.5479H6.06445" stroke="#0B2343" stroke-width="1.03345" stroke-miterlimit="10" stroke-linecap="round" stroke-linejoin="round"/>
<path d="M5 21.4915H10.1363" stroke="#0B2343" stroke-width="1.03345" stroke-miterlimit="10" stroke-linecap="round" stroke-linejoin="round"/>
<path d="M8.13135 28.6841H34.9596" stroke="#0B2343" stroke-width="1.03345" stroke-miterlimit="10" stroke-linecap="round" stroke-linejoin="round"/>
<path d="M25.7826 16.3035V28.6841" stroke="#0B2343" stroke-width="1.03345" stroke-miterlimit="10" stroke-linecap="round" stroke-linejoin="round"/>
<path d="M18.2487 10.2578L16.4092 12.1077L13.4639 9.16235" stroke="#0B2343" stroke-width="1.03345" stroke-miterlimit="10" stroke-linecap="round" stroke-linejoin="round"/>
<path d="M16.4092 18.2154C19.7824 18.2154 22.5169 15.4809 22.5169 12.1077C22.5169 8.73453 19.7824 6 16.4092 6C13.036 6 10.3016 8.73453 10.3016 12.1077C10.3016 15.4809 13.036 18.2154 16.4092 18.2154Z" stroke="#0B2343" stroke-width="1.03345" stroke-miterlimit="10" stroke-linecap="round" stroke-linejoin="round"/>
</svg>
