<svg id="Capa_1" data-name="Capa 1" xmlns="http://www.w3.org/2000/svg" viewBox="0 0 194.85 145"><title>delta_logo</title><path d="M90.75,145h90.76L90.75,106.65Zm0-145V89l84.09,40.49Z" fill="#981732"/><polygon points="90.75 0 6.65 129.53 90.75 89.04 90.75 0" fill="#e31b38"/><polygon points="0 145 90.75 145 90.75 106.65 0 145" fill="#e31b38"/><path d="M188.85,118.38a6,6,0,1,1-6,6,6,6,0,0,1,6-6m0,11.07a5.11,5.11,0,1,0-5.09-5.13v0a5.09,5.09,0,0,0,5.09,5.09m-1.3-1.67h-.87v-6.89h2.66c1.55,0,2.17.66,2.17,1.9a1.88,1.88,0,0,1-1.74,2l2.06,3h-1l-2.06-3h-1.24Zm0-3.8h1.11c1,0,2,0,2-1.19,0-.88-.79-1.14-1.53-1.14h-1.55Z" fill="#981732"/></svg>