<svg width="30" height="30" viewBox="0 0 30 30" fill="none" xmlns="http://www.w3.org/2000/svg">
<path d="M23.6408 9.61816C23.1004 8.04957 21.9971 6.89545 20.6136 6.45175C17.9864 5.60935 15.8259 6.69187 15.0001 7.21086C14.1743 6.69183 12.0138 5.60931 9.38663 6.45175C8.00246 6.89564 6.89882 8.05046 6.35867 9.62C5.64845 11.6839 6.00606 14.0645 7.31544 15.9881C8.18988 17.2728 8.76085 18.7227 8.96669 20.1808C8.97858 20.265 8.99016 20.3509 9.00151 20.4388C9.19974 21.9766 9.49169 23.2109 9.8693 24.1073C10.3218 25.1816 10.9056 25.7617 11.6046 25.8316C12.3455 25.9056 12.9605 25.2895 13.4331 24.0002C13.7636 23.0987 14.0241 21.8906 14.1667 20.5985C14.2464 19.8762 14.4327 19.2914 14.7056 18.9073C14.803 18.7704 14.944 18.7556 15.0001 18.7556C15.0562 18.7556 15.1973 18.7704 15.2946 18.9073C15.5675 19.2914 15.7538 19.8762 15.8335 20.5985C15.9761 21.8906 16.2367 23.0987 16.5671 24.0002C17.0143 25.2204 17.5891 25.8376 18.2773 25.8376C18.3164 25.8376 18.3558 25.8356 18.3956 25.8316C19.0946 25.7617 19.6784 25.1816 20.1309 24.1073C20.5085 23.2109 20.8004 21.9766 20.9987 20.4388C21.0096 20.3541 21.0207 20.2713 21.0322 20.1901C21.2377 18.7294 21.8101 17.2749 22.6875 15.984C23.995 14.0605 24.3513 11.6807 23.6408 9.61816Z" fill="#0B2343"/>
</svg>
