<svg width="40" height="40" viewBox="0 0 40 40" fill="none" xmlns="http://www.w3.org/2000/svg">
<path d="M27.7501 14.9299C27.7501 14.9299 30.86 19.5299 31.08 26.3799C31.21 30.3899 30.9001 32.18 30.6201 32.97C30.4001 33.57 29.82 33.95 29.18 33.95H23.6201C22.8801 33.95 22.25 33.43 22.1 32.71C21.63 30.32 21.55 25.2499 23.97 21.6299C26.79 17.4099 25.57 14.9399 25.57 14.9399" stroke="#0B2343" stroke-linecap="round" stroke-linejoin="round"/>
<path d="M27.75 12.95C27.75 12.95 28.17 10.5198 29.59 9.57983C30.6 8.90983 28.77 7.98999 25.85 7.98999C23.05 7.98999 20.97 7.98999 20.97 7.98999V9.91992C20.97 9.91992 24.2699 10.86 25.3799 12.96H27.75V12.95Z" stroke="#0B2343" stroke-linecap="round" stroke-linejoin="round"/>
<path d="M20.97 7.97998L19.0199 8.17993V9.70996L20.97 9.90991" stroke="#0B2343" stroke-linecap="round" stroke-linejoin="round"/>
<path d="M23.33 10.99C23.33 10.99 23.73 13.25 21.84 14.73" stroke="#0B2343" stroke-linecap="round" stroke-linejoin="round"/>
<path d="M22.8199 23.9099H30.87" stroke="#0B2343" stroke-linecap="round" stroke-linejoin="round"/>
<path d="M30.99 31.02H21.8899" stroke="#0B2343" stroke-linecap="round" stroke-linejoin="round"/>
<path d="M15.96 8.93994H15.46" stroke="#0B2343" stroke-linecap="round" stroke-linejoin="round"/>
<path d="M12.9099 8.93994H10.7799" stroke="#0B2343" stroke-linecap="round" stroke-linejoin="round" stroke-dasharray="0.85 0.85"/>
<path d="M9.5 8.93994H9" stroke="#0B2343" stroke-linecap="round" stroke-linejoin="round"/>
<path d="M15.96 8.93994L15.5099 9.13989" stroke="#0B2343" stroke-linecap="round" stroke-linejoin="round"/>
<path d="M12.96 10.23L10.83 11.1399" stroke="#0B2343" stroke-linecap="round" stroke-linejoin="round" stroke-dasharray="0.92 0.92"/>
<path d="M9.55994 11.6899L9.09998 11.8799" stroke="#0B2343" stroke-linecap="round" stroke-linejoin="round"/>
<path d="M15.96 8.93994L15.5099 8.75" stroke="#0B2343" stroke-linecap="round" stroke-linejoin="round"/>
<path d="M12.96 7.6499L10.83 6.73999" stroke="#0B2343" stroke-linecap="round" stroke-linejoin="round" stroke-dasharray="0.92 0.92"/>
<path d="M9.55994 6.19995L9.09998 6" stroke="#0B2343" stroke-linecap="round" stroke-linejoin="round"/>
</svg>
