<svg width="32" height="32" viewBox="0 0 32 32" fill="none" xmlns="http://www.w3.org/2000/svg">
<path d="M24.6338 20.5787L26.5277 20.9319V6.56952L20.7331 5.59998L15.1415 8.15531L10.4217 6.00585L4.80005 8.11769V22.48L10.4217 20.3682L14.9236 22.3823" stroke="#0074B8" stroke-miterlimit="10" stroke-linecap="round" stroke-linejoin="round"/>
<path d="M10.7825 8.76404V17.8805" stroke="#0074B8" stroke-miterlimit="10" stroke-linecap="round" stroke-linejoin="round"/>
<path d="M15.2393 10.5303V14.0026" stroke="#0074B8" stroke-miterlimit="10" stroke-linecap="round" stroke-linejoin="round"/>
<path d="M21.3345 8.11792V12.725" stroke="#0074B8" stroke-miterlimit="10" stroke-linecap="round" stroke-linejoin="round"/>
<path d="M23.3861 19.0078C23.3861 21.1948 19.4104 27.1998 19.4104 27.1998C19.4104 27.1998 15.4346 21.1948 15.4346 19.0078C15.4346 16.8207 17.2158 15.0546 19.4104 15.0546C21.6049 15.0546 23.3861 16.8283 23.3861 19.0078Z" stroke="#0074B8" stroke-miterlimit="10" stroke-linecap="round" stroke-linejoin="round"/>
<path d="M19.4103 19.6995C18.8692 19.6995 18.4258 19.2636 18.4258 18.7225C18.4258 18.1813 18.8692 17.7455 19.4103 17.7455C19.9515 17.7455 20.3949 18.1813 20.3949 18.7225C20.3949 19.2636 19.9515 19.6995 19.4103 19.6995Z" stroke="#0074B8" stroke-miterlimit="10" stroke-linecap="round" stroke-linejoin="round"/>
</svg>
