<svg viewBox="0 0 40 40" fill="none" xmlns="http://www.w3.org/2000/svg">
<path d="M30.7921 25.7234L33.1596 26.1649V8.21193L25.9164 7L18.9268 10.1942L13.0271 7.50734L6 10.1471V28.1001L13.0271 25.4603L18.6544 27.978" stroke="#0B2343" stroke-miterlimit="10" stroke-linecap="round" stroke-linejoin="round"/>
<path d="M13.478 10.9551V22.3507" stroke="#0B2343" stroke-miterlimit="10" stroke-linecap="round" stroke-linejoin="round"/>
<path d="M19.0491 13.1628V17.5032" stroke="#0B2343" stroke-miterlimit="10" stroke-linecap="round" stroke-linejoin="round"/>
<path d="M26.668 10.1475V15.9063" stroke="#0B2343" stroke-miterlimit="10" stroke-linecap="round" stroke-linejoin="round"/>
<path d="M29.2326 23.7598C29.2326 26.4936 24.263 33.9999 24.263 33.9999C24.263 33.9999 19.2932 26.4936 19.2932 23.7598C19.2932 21.026 21.5198 18.8183 24.263 18.8183C27.0062 18.8183 29.2326 21.0354 29.2326 23.7598Z" stroke="#0B2343" stroke-miterlimit="10" stroke-linecap="round" stroke-linejoin="round"/>
<path d="M24.2629 24.6244C23.5865 24.6244 23.0322 24.0795 23.0322 23.4031C23.0322 22.7267 23.5865 22.1819 24.2629 22.1819C24.9393 22.1819 25.4936 22.7267 25.4936 23.4031C25.4936 24.0795 24.9393 24.6244 24.2629 24.6244Z" stroke="#0B2343" stroke-miterlimit="10" stroke-linecap="round" stroke-linejoin="round"/>
</svg>
