<svg width="40" height="40" viewBox="0 0 40 40" fill="none" xmlns="http://www.w3.org/2000/svg">
<path d="M23.6193 28.4298C24.5795 27.7835 25.429 26.5924 26.0291 25.2167L27.1463 22.6315L20.9233 19.9263L19.7969 22.5115C19.2244 23.8318 19.0305 25.2537 19.1782 26.3708" stroke="#0B2343" stroke-miterlimit="10" stroke-linecap="round" stroke-linejoin="round"/>
<path d="M22.6776 24.4227L29.9808 7.58179" stroke="#0B2343" stroke-miterlimit="10" stroke-linecap="round" stroke-linejoin="round"/>
<path d="M31.2642 8.09872L28.7344 7" stroke="#0B2343" stroke-miterlimit="10" stroke-linecap="round" stroke-linejoin="round"/>
<path d="M33 33.2953C33 33.2953 32.1137 27.8294 29.8977 27.7463C27.6818 27.6632 24.9396 30.6085 23.9794 28.9651C23.0192 27.3124 21.2926 26.6199 17.7656 26.186C14.2387 25.752 15.7343 22.7975 13.5184 23.7577C11.3025 24.7087 7.18466 31.7442 7 33.3046" stroke="#0B2343" stroke-miterlimit="10" stroke-linecap="round" stroke-linejoin="round"/>
</svg>
