<svg viewBox="0 0 20 20" fill="none" xmlns="http://www.w3.org/2000/svg">
<rect width="20" height="20" fill="white"/>
<g clip-path="url(#clip0_4893_62146)">
<path d="M18.5556 17.7059H1.44112C0.647365 17.7059 0 17.0577 0 16.2556V4.45029C0 3.65148 0.644112 3 1.44112 3H18.5589C19.3526 3 20 3.64821 20 4.45029V16.2556C19.9967 17.0577 19.3526 17.7059 18.5556 17.7059Z" fill="#0063A5"/>
<path d="M9.55882 4.76465C7.85275 4.76465 6.47058 6.14682 6.47058 7.85288C6.47058 9.55895 7.85275 10.9411 9.55882 10.9411C11.2649 10.9411 12.6471 9.55895 12.6471 7.85288C12.6471 6.14682 11.2649 4.76465 9.55882 4.76465ZM8.86613 9.6776C8.13175 9.3954 7.61223 8.68347 7.60903 7.85288C7.61223 7.01909 8.13175 6.31037 8.86613 6.02496V9.6776ZM10.2675 9.6776V6.02496C11.0019 6.30716 11.5246 7.01909 11.5246 7.85288C11.5214 8.68667 11.0019 9.3954 10.2675 9.6776Z" fill="white"/>
<path d="M18.3499 3.29407H1.64995C0.900987 3.29407 0.294067 3.90421 0.294067 4.65715V16.0486C0.294067 16.8016 0.900987 17.4117 1.64995 17.4117H18.3499C19.0989 17.4117 19.7058 16.8016 19.7058 16.0486V4.65715C19.7058 3.90421 19.0989 3.29407 18.3499 3.29407ZM10.4116 11.2227H9.53024C7.65137 11.2324 6.10502 9.70056 6.10502 7.83768C6.10502 5.80279 7.65137 4.39427 9.53024 4.39427H10.4116C12.2678 4.39427 13.9627 5.80279 13.9627 7.83768C13.9627 9.70056 12.2678 11.2227 10.4116 11.2227Z" fill="white"/>
<path d="M2.71571 13.8793C3.91997 13.8793 4.11759 13.0431 4.11759 12.7074C4.11759 12.1123 3.63897 11.5294 2.75585 11.5294C2.50265 11.5294 2.3112 11.5355 2.16607 11.5355C2.03329 11.5355 1.89743 11.5355 1.76465 11.5294V11.6179C1.91904 11.621 2.07652 11.6027 2.07652 11.9048V13.5375C2.06726 13.7664 1.96845 13.7725 1.76465 13.7939V13.8824C1.91904 13.8793 2.06726 13.8763 2.22165 13.8763C2.38222 13.8702 2.54279 13.8793 2.71571 13.8793ZM2.4131 11.6515C2.47485 11.6484 2.5397 11.6393 2.67866 11.6393C3.33637 11.6393 3.74396 12.094 3.74396 12.7227C3.74396 13.2232 3.50311 13.7725 2.7682 13.7725C2.60146 13.7725 2.4131 13.742 2.4131 13.4826V11.6515Z" fill="#1E120D"/>
<path d="M4.85299 11.8235C4.93469 11.8235 5.00005 11.7555 5.00005 11.6738C5.00005 11.5921 4.93197 11.5294 4.85299 11.5294C4.77674 11.5294 4.70593 11.5975 4.70593 11.6738C4.70593 11.7527 4.77402 11.8235 4.85299 11.8235Z" fill="#1E120D"/>
<path d="M4.99998 13.8794V13.795H4.95282C4.87588 13.795 4.81631 13.795 4.81631 13.6901V12.4583C4.81631 12.4321 4.81135 12.4117 4.79645 12.4117C4.78156 12.4117 4.76667 12.4147 4.74681 12.4292C4.73689 12.438 4.583 12.4991 4.45394 12.5457V12.5981C4.5557 12.6622 4.59541 12.6826 4.59541 12.8223V13.693C4.59541 13.7979 4.54081 13.7979 4.46387 13.7979H4.41174V13.8823C4.51351 13.8794 4.6103 13.8765 4.70958 13.8765C4.81135 13.8707 4.90814 13.8794 4.99998 13.8794Z" fill="#1E120D"/>
<path d="M7.05877 13.7977H6.99507C6.89632 13.7977 6.81987 13.7977 6.81987 13.6927V12.8611C6.81987 12.6102 6.71475 12.4117 6.41532 12.4117C6.17961 12.4117 6.00759 12.5226 5.80691 12.6539V12.4438C5.80691 12.4176 5.79736 12.4117 5.78462 12.4117C5.61579 12.4789 5.47245 12.5226 5.32274 12.5664V12.6277C5.48838 12.6889 5.5266 12.721 5.5266 12.8407V13.6927C5.5266 13.7977 5.45652 13.7977 5.35777 13.7977H5.29407V13.8823C5.42148 13.8794 5.54571 13.8765 5.67313 13.8765C5.80054 13.8765 5.92159 13.8823 6.04582 13.8823V13.7977H5.98211C5.88336 13.7977 5.80691 13.7977 5.80691 13.6927V12.7415C5.92159 12.6714 6.10316 12.5868 6.21464 12.5868C6.41532 12.5868 6.53637 12.6773 6.53637 12.8611V13.6927C6.53637 13.7977 6.46629 13.7977 6.36754 13.7977H6.30384V13.8823C6.43125 13.8794 6.55548 13.8765 6.6829 13.8765C6.81031 13.8765 6.93136 13.8823 7.05559 13.8823V13.7977H7.05877Z" fill="#1E120D"/>
<path d="M7.65563 13.8823C7.91137 13.8823 8.09039 13.7214 8.23531 13.5295L8.19269 13.4872C8.07618 13.6029 7.94263 13.696 7.76929 13.696C7.51923 13.696 7.32885 13.4533 7.30895 13.1569C7.30327 13.0497 7.30327 13.0045 7.30895 12.9763H8.18984L8.21826 12.9565C8.2211 12.9368 8.2211 12.9198 8.2211 12.9001C8.21826 12.5698 7.94547 12.4117 7.69257 12.4117C7.47377 12.4117 7.05889 12.5924 7.05889 13.2021C7.05605 13.4025 7.15835 13.8823 7.65563 13.8823ZM7.67552 12.5134C7.8517 12.5134 7.94831 12.6404 7.94831 12.7984C7.94831 12.8351 7.93978 12.8775 7.86022 12.8775H7.31464C7.35442 12.6545 7.48513 12.5134 7.67552 12.5134Z" fill="#1E120D"/>
<path d="M9.42503 13.8823V13.7977H9.23156C9.13482 13.7977 9.06616 13.7977 9.06616 13.6927V12.937C9.06616 12.7444 9.25964 12.6685 9.31581 12.6685C9.43752 12.6685 9.43752 12.7473 9.54362 12.7473C9.64036 12.7473 9.70589 12.6685 9.70589 12.5839C9.70589 12.4672 9.59667 12.4147 9.50929 12.4147C9.30021 12.4147 9.15354 12.6218 9.06928 12.7473H9.06304V12.4526C9.06304 12.4205 9.05368 12.4117 9.03184 12.4117C9.00063 12.4117 8.86332 12.4964 8.61055 12.5956V12.6423C8.66361 12.6685 8.78843 12.6889 8.78843 12.7881V13.6927C8.78843 13.7977 8.71978 13.7977 8.62304 13.7977H8.52942V13.8823C8.65424 13.8794 8.79779 13.8765 8.93822 13.8765C9.09113 13.8736 9.23468 13.8765 9.42503 13.8823Z" fill="#1E120D"/>
<path d="M10.2627 13.7805C9.97904 13.7805 9.82498 13.6052 9.77596 13.3987L9.70593 13.4157L9.74795 13.7749C9.881 13.8371 10.0631 13.8823 10.2171 13.8823C10.6758 13.8823 10.8824 13.6646 10.8824 13.4581C10.8824 12.9689 9.98604 13.082 9.98604 12.7172C9.98604 12.5843 10.1331 12.5107 10.2872 12.5107C10.5358 12.5107 10.6688 12.6238 10.7073 12.819H10.7949L10.7669 12.5022C10.6163 12.44 10.4517 12.4117 10.3257 12.4117C9.90201 12.4117 9.72694 12.6352 9.72694 12.8105C9.72694 13.3111 10.5673 13.1923 10.5673 13.5628C10.5743 13.6674 10.4902 13.7805 10.2627 13.7805Z" fill="#1E120D"/>
<path d="M14.0323 13.7151L14.1176 13.2427L14.0323 13.2222C13.9573 13.5625 13.647 13.7825 13.2753 13.7825C12.6956 13.7825 12.1568 13.3131 12.1568 12.6589C12.1568 11.8844 12.7843 11.635 13.2173 11.635C13.6368 11.635 13.9505 11.7876 14.0221 12.166H14.1142L14.0767 11.7025C13.7868 11.6145 13.4935 11.5294 13.1901 11.5294C12.4535 11.5294 11.7646 12.0047 11.7646 12.6677C11.7646 13.3953 12.3205 13.8823 13.2003 13.8823C13.4492 13.8852 13.8755 13.7972 14.0323 13.7151Z" fill="#1E120D"/>
<path d="M15 13.8824V13.7912H14.929C14.8131 13.7912 14.7234 13.7912 14.7234 13.6781V11.2857C14.7234 11.2574 14.7159 11.2354 14.6897 11.2354C14.6785 11.2354 14.6448 11.2542 14.6 11.2731C14.514 11.3139 14.3383 11.3768 14.1738 11.4208V11.4774C14.3308 11.5151 14.3906 11.5214 14.3906 11.7478V13.6781C14.3906 13.7912 14.3084 13.7912 14.1925 13.7912H14.1177V13.8824C14.271 13.8793 14.4168 13.8761 14.5663 13.8761C14.7159 13.873 14.858 13.8824 15 13.8824Z" fill="#1E120D"/>
<path d="M15.2162 12.6797V13.5009C15.2162 13.7688 15.4162 13.8823 15.6065 13.8823C15.8582 13.8823 16.0227 13.7688 16.2356 13.6115V13.8707L16.2517 13.8794C16.3195 13.859 16.6099 13.7921 16.7647 13.7804V13.7134C16.7195 13.7134 16.6647 13.7163 16.6228 13.7163C16.5615 13.7163 16.5227 13.7134 16.5227 13.6552V12.47C16.5227 12.435 16.5227 12.4117 16.4937 12.4117C16.4582 12.4117 16.2582 12.438 15.9388 12.4554V12.5137C16.0679 12.5457 16.2356 12.5806 16.2356 12.6447V13.5096C16.0872 13.6232 15.9259 13.7047 15.8065 13.7047C15.4968 13.7047 15.4968 13.4281 15.4968 13.332V12.5049C15.4968 12.435 15.4968 12.4117 15.4581 12.4117C15.4129 12.4117 15.129 12.4321 15 12.435V12.4962C15.2 12.5166 15.2162 12.5952 15.2162 12.6797Z" fill="#1E120D"/>
<path d="M16.9274 11.7401V13.1991C16.9274 13.4053 16.9103 13.6023 16.8846 13.8024L16.9503 13.8393L17.0445 13.7624C17.1273 13.7993 17.2501 13.8824 17.4814 13.8824C17.9326 13.8824 18.2352 13.4392 18.2352 12.9929C18.2352 12.6235 18.0154 12.2788 17.6499 12.2788C17.4757 12.2788 17.3072 12.4081 17.1816 12.5219V11.2846C17.1816 11.2569 17.1758 11.2354 17.1559 11.2354C17.1473 11.2354 17.1216 11.2538 17.0873 11.2723C17.0216 11.3123 16.8903 11.3739 16.7646 11.417V11.4724C16.8789 11.5124 16.9274 11.5185 16.9274 11.7401ZM17.1787 12.6204C17.2644 12.5435 17.3615 12.4604 17.4785 12.4604C17.7241 12.4604 17.9811 12.7651 17.9811 13.1314C17.9811 13.433 17.8383 13.7901 17.5042 13.7901C17.2929 13.7901 17.1787 13.5715 17.1787 13.4453V12.6204Z" fill="#1E120D"/>
<path d="M2.04787 14.775C1.95761 14.775 1.84557 14.7681 1.77087 14.7681H1.76465V14.8404V14.8507H1.79888C1.86736 14.8507 1.9296 14.8576 1.9296 14.961V16.0424C1.9296 16.1422 1.86736 16.1491 1.79888 16.1526H1.77087H1.76465V16.1629V16.2249V16.2352H1.77399C1.84868 16.2352 1.95761 16.2283 2.04787 16.2283C2.14124 16.2283 2.25329 16.2352 2.34355 16.2352H2.35288V16.1526V16.1422H2.31554C2.24706 16.1388 2.18482 16.1354 2.18482 16.032V14.9506C2.18482 14.8507 2.24706 14.8439 2.31554 14.8404H2.34043H2.34977V14.775V14.7646H2.34043C2.25329 14.7646 2.14124 14.775 2.04787 14.775Z" fill="#1E120D"/>
<path d="M3.84278 14.7749C3.74153 14.7749 3.64027 14.7681 3.53902 14.7681H3.52817V14.8395V14.8498H3.58603C3.6475 14.8498 3.76322 14.8702 3.76684 15.0336V15.7859L2.81216 14.7749C2.73984 14.7715 2.67474 14.7783 2.61327 14.7783C2.53371 14.7783 2.44693 14.7715 2.36375 14.7715H2.35291V14.8429V14.8532H2.39268C2.4867 14.8532 2.58072 14.9178 2.58072 15.0268V15.888C2.58072 16.0514 2.53733 16.1365 2.3963 16.1365H2.36375H2.35291V16.208V16.2182H2.36375C2.46139 16.2182 2.56264 16.2114 2.66028 16.2114C2.7543 16.2114 2.84471 16.2182 2.93873 16.2182H2.94958V16.1365V16.1263H2.90257C2.73984 16.1229 2.71091 16.0752 2.70729 15.8948V15.0778L3.80662 16.2318L3.89702 16.2352H3.90787L3.90425 16.225C3.89341 16.1637 3.88979 16.0923 3.88979 16.0208V15.0914C3.89341 14.8498 3.98381 14.8429 4.07422 14.8395H4.10676H4.11761V14.7749V14.7646H4.10676C4.01997 14.7646 3.92957 14.7749 3.84278 14.7749Z" fill="#1E120D"/>
<path d="M5.2331 14.768V14.7779C5.23033 14.8307 5.19703 14.8307 5.14986 14.8307H4.29248H4.28416C4.24254 14.8307 4.21202 14.8307 4.20092 14.7812V14.7746H4.15652H4.1482V14.7845C4.1482 14.8407 4.14542 14.8968 4.1371 14.9497C4.13155 15.0059 4.12323 15.0621 4.11768 15.1183V15.1282H4.17594H4.18149V15.1216C4.20924 14.9761 4.20647 14.9497 4.32855 14.9464H4.59492V15.9973C4.59215 16.1526 4.55608 16.1526 4.46451 16.1559H4.43399H4.42567V16.2253V16.2352H4.43399C4.50058 16.2352 4.61435 16.2286 4.71424 16.2286C4.80303 16.2286 4.91956 16.2352 4.98616 16.2352H4.99448V16.1625V16.1526H4.95563C4.87517 16.1493 4.82522 16.1394 4.82522 15.9907V14.9464H5.09159C5.19703 14.9464 5.20258 15.0555 5.20813 15.1282V15.1381L5.2664 15.1116L5.27195 15.1083V15.1017C5.27195 15.0489 5.27195 14.996 5.27472 14.9431C5.28027 14.8902 5.28582 14.8374 5.29415 14.7845V14.7746L5.24698 14.7646L5.2331 14.768Z" fill="#1E120D"/>
<path d="M6.41975 15.8693L6.41721 15.8762C6.37144 16.1075 6.2977 16.1213 6.11462 16.1213C6.01545 16.1213 5.93408 16.1213 5.93408 15.997V15.5241H6.10953C6.21124 15.5241 6.21124 15.5931 6.22142 15.7209V15.7312L6.27481 15.7174H6.2799V15.7105C6.27736 15.6311 6.27481 15.5517 6.27481 15.4758C6.27481 15.3964 6.27736 15.3135 6.2799 15.2341V15.2238H6.2265H6.22142V15.2307C6.21124 15.3411 6.19599 15.4033 6.10699 15.4033H5.93154V14.8786H6.1375C6.29516 14.882 6.30787 14.9787 6.31804 15.1133V15.1237L6.37144 15.103L6.37653 15.0995V15.0926C6.37398 15.0339 6.37144 14.9545 6.37144 14.882C6.37144 14.844 6.37144 14.8061 6.37398 14.775V14.7646H6.36636C6.2621 14.7646 6.10445 14.7716 5.97476 14.7716C5.84762 14.7716 5.68743 14.7646 5.59589 14.7646H5.58826V14.8371V14.8475H5.61623C5.67217 14.8475 5.72048 14.8544 5.72303 14.958V16.0419C5.72303 16.142 5.67217 16.1489 5.61623 16.1524H5.59589H5.58826V16.1627V16.2249V16.2352H5.59589C5.68234 16.2352 5.86542 16.2283 6.00273 16.2283C6.14005 16.2283 6.3155 16.2352 6.41213 16.2352H6.41721V16.2283C6.42993 16.1179 6.45027 16.0109 6.46807 15.9004L6.47061 15.8935L6.4223 15.8762L6.41975 15.8693Z" fill="#1E120D"/>
<path d="M7.77709 16.0281L7.49146 15.5068C7.62155 15.4413 7.72336 15.3239 7.72336 15.1375C7.72336 14.8371 7.52539 14.7646 7.31329 14.7646C7.22279 14.7646 7.14078 14.7716 7.03897 14.7716C6.93433 14.7716 6.82969 14.7646 6.77596 14.7646H6.76748V14.8371V14.8475H6.80424C6.85797 14.8509 6.91454 14.8475 6.91736 14.9959V16.0488C6.91736 16.1179 6.86646 16.1524 6.80424 16.1524H6.77313H6.76465V16.2249V16.2352H6.77313C6.85797 16.2352 6.93716 16.2283 7.01917 16.2283C7.11533 16.2283 7.21431 16.2352 7.31046 16.2352H7.31895V16.1558V16.1455H7.28218C7.203 16.142 7.15209 16.1455 7.15209 15.9901V15.5552H7.25107C7.36137 15.7899 7.47166 16.0143 7.60175 16.2214C7.66114 16.2249 7.71487 16.218 7.76578 16.218C7.82234 16.218 7.87607 16.2249 7.93263 16.2249H7.94112V16.1558V16.1489H7.93546C7.85345 16.1351 7.82234 16.1144 7.77709 16.0281ZM7.48015 15.1513C7.47732 15.3929 7.39248 15.462 7.22562 15.4654H7.14926V14.8648C7.17189 14.8613 7.19168 14.8579 7.23693 14.8579C7.38682 14.8579 7.48015 14.9718 7.48015 15.1513Z" fill="#1E120D"/>
<path d="M9.70587 14.8429V14.7749V14.7646H9.69504C9.60482 14.7646 9.51821 14.7715 9.42799 14.7715C9.32694 14.7715 9.2259 14.7646 9.12485 14.7646H9.11402V14.8361V14.8463H9.17176C9.23311 14.8463 9.3486 14.8668 9.35221 15.0302V15.7825L8.39948 14.7715C8.3273 14.7681 8.26595 14.7783 8.201 14.7783C8.11799 14.7783 8.03499 14.7715 7.95199 14.7715H7.94116V14.8429V14.8532H7.98086C8.07469 14.8532 8.16852 14.9178 8.16852 15.0268V15.888C8.16852 16.0514 8.12521 16.1365 7.98447 16.1399H7.9556H7.94477V16.2114V16.2216H7.9556C8.05304 16.2216 8.15408 16.2148 8.24791 16.2148C8.34174 16.2148 8.43196 16.2216 8.52579 16.2216H8.53662V16.1365V16.1263H8.4897C8.3273 16.1229 8.29843 16.0752 8.29483 15.8948V15.0778L9.3919 16.2318L9.48212 16.2352H9.49295V16.225C9.48212 16.1637 9.47851 16.0923 9.47851 16.0208V15.0914C9.48212 14.8498 9.57234 14.8429 9.66256 14.8395H9.69504H9.70587V14.8429Z" fill="#1E120D"/>
<path d="M10.7603 16.0783C10.7381 16.0182 10.7187 15.9447 10.6993 15.8746L10.3941 14.826C10.3885 14.8093 10.383 14.7926 10.3802 14.7759C10.3746 14.7659 10.3663 14.7626 10.3608 14.7659C10.3552 14.7659 10.3497 14.7692 10.3441 14.7692C10.3108 14.7926 10.2442 14.8327 10.1943 14.8561C10.1804 14.9362 10.1499 15.0364 10.1277 15.1099L9.86131 16.0282C9.83634 16.1083 9.7864 16.1518 9.72258 16.1518H9.71426H9.70593V16.2219V16.2319H9.71426C9.77252 16.2286 9.83357 16.2252 9.89461 16.2252C9.9612 16.2252 10.0278 16.2286 10.0944 16.2319H10.1027V16.1618V16.1518H10.075C10.0195 16.1518 9.95843 16.1384 9.95843 16.0916C9.95843 16.0582 9.97785 16.0048 9.9945 15.938L10.0472 15.7377H10.4135L10.4773 15.9647C10.4967 16.0282 10.5106 16.085 10.5106 16.105C10.5106 16.1451 10.4523 16.1551 10.4135 16.1551H10.3941H10.3857V16.2252V16.2352H10.3941C10.4801 16.2319 10.5633 16.2286 10.6438 16.2286C10.7242 16.2286 10.7992 16.2319 10.8741 16.2352H10.8824V16.1618V16.1518H10.8658C10.8103 16.1551 10.7797 16.1317 10.7603 16.0783ZM10.3746 15.6074H10.0833L10.2304 15.0698L10.3746 15.6074Z" fill="#1E120D"/>
<path d="M12.0005 14.7679V14.7778C11.9978 14.8306 11.9645 14.8306 11.9173 14.8306H11.0599H11.0516C11.01 14.8306 10.9794 14.8306 10.9683 14.7811L10.9656 14.7745H10.9212H10.9128V14.7844C10.9128 14.8405 10.9101 14.8965 10.9017 14.9526C10.8962 15.0086 10.8879 15.0647 10.8823 15.1208V15.1306H10.9406H10.9461V15.1241C10.9739 14.979 10.9711 14.9526 11.0932 14.9493H11.3596V15.9978C11.3568 16.1528 11.3207 16.1528 11.2292 16.1561H11.1986H11.1903V16.2253V16.2352H11.1986C11.2625 16.2352 11.379 16.2286 11.4789 16.2286C11.5677 16.2286 11.6842 16.2352 11.7508 16.2352H11.7591V16.1594V16.1495H11.7203C11.6398 16.1462 11.5899 16.1363 11.5899 15.9879V14.946H11.8562C11.9617 14.946 11.9672 15.0548 11.9728 15.1273V15.1372L12.031 15.1109L12.0366 15.1076V15.101C12.0366 15.0482 12.0366 14.9955 12.0394 14.9427C12.0449 14.8899 12.0505 14.8372 12.0588 14.7844V14.7745L12.0116 14.7646L12.0005 14.7679Z" fill="#1E120D"/>
<path d="M12.6408 14.775C12.55 14.775 12.4374 14.7681 12.3623 14.7681H12.3529V14.8404V14.8507H12.3873C12.4562 14.8507 12.5187 14.8576 12.5187 14.961V16.0424C12.5187 16.1422 12.4562 16.1491 12.3873 16.1526H12.3623H12.3529V16.1629V16.2249V16.2352H12.3623C12.4343 16.2352 12.5469 16.2283 12.6376 16.2283C12.7315 16.2283 12.8441 16.2352 12.9349 16.2352H12.9411V16.1526V16.1422H12.9067C12.8379 16.1422 12.7753 16.1354 12.7753 16.032V14.9506C12.7753 14.8507 12.8379 14.8439 12.9067 14.8404H12.9318H12.938V14.775V14.7646H12.9318C12.8473 14.7646 12.7346 14.775 12.6408 14.775Z" fill="#1E120D"/>
<path d="M13.6636 14.7646C13.2572 14.7646 12.9412 15.0907 12.9412 15.5099C12.9412 15.9424 13.2604 16.2352 13.6732 16.2352C14.0893 16.2352 14.4117 15.9258 14.4117 15.4633C14.4117 15.0308 14.0796 14.7646 13.6636 14.7646ZM13.6926 16.1288C13.3862 16.1288 13.2282 15.7927 13.2282 15.4401C13.2282 15.1739 13.3282 14.8711 13.6603 14.8711C13.9732 14.8711 14.1247 15.2171 14.1247 15.5066C14.1247 15.7961 14.0635 16.1288 13.6926 16.1288Z" fill="#1E120D"/>
<path d="M15.8823 14.8428V14.7748V14.7646H15.8763C15.8006 14.7646 15.728 14.7714 15.6524 14.7714C15.5676 14.7714 15.4829 14.7646 15.3982 14.7646H15.3891V14.836V14.8462H15.4375C15.489 14.8462 15.5858 14.8665 15.5888 15.0296V15.7801L14.793 14.7714C14.7325 14.768 14.678 14.7748 14.6266 14.7748C14.557 14.7748 14.4874 14.768 14.4178 14.768H14.4117V14.8394V14.8496H14.442C14.5207 14.8496 14.5993 14.9141 14.5993 15.0228V15.882C14.5993 16.045 14.563 16.13 14.445 16.13H14.4208H14.4148V16.2013V16.2115H14.4208C14.5025 16.2115 14.5872 16.2047 14.6689 16.2047C14.7476 16.2047 14.8233 16.2115 14.9019 16.2115H14.911V16.1333V16.1232H14.8717C14.7355 16.1198 14.7113 16.0722 14.7083 15.8956V15.0805L15.6282 16.2318L15.7038 16.2352H15.7129L15.7099 16.225C15.7008 16.1639 15.7008 16.0926 15.7008 16.0213V15.0941C15.7038 14.853 15.7795 14.8462 15.8551 14.8428H15.8823Z" fill="#1E120D"/>
<path d="M17.2041 16.0815C17.1764 16.0213 17.1522 15.9478 17.128 15.8776L16.7474 14.8282C16.7405 14.8114 16.7335 14.7947 16.7266 14.778C16.7197 14.768 16.7093 14.7646 16.7024 14.7646C16.6955 14.7646 16.6886 14.768 16.6816 14.768C16.6401 14.7914 16.5571 14.8315 16.4913 14.8549C16.474 14.9351 16.436 15.0354 16.4083 15.1089L16.0761 16.028C16.045 16.1082 15.9827 16.1517 15.9031 16.1517H15.8927H15.8823V16.2219V16.2319H15.8927C15.9688 16.2286 16.0415 16.2252 16.1176 16.2252C16.2007 16.2252 16.2837 16.2286 16.3668 16.2319H16.3771V16.165V16.155H16.346C16.2768 16.155 16.2007 16.1417 16.2007 16.0949C16.2007 16.0614 16.2249 16.0113 16.2456 15.9411L16.3114 15.7372H16.7681L16.8477 15.9645C16.8719 16.028 16.8892 16.0848 16.8892 16.1049C16.8892 16.145 16.8166 16.155 16.7681 16.155H16.7439H16.7335V16.2252V16.2352H16.7439C16.8512 16.2319 16.955 16.2286 17.0553 16.2286C17.1557 16.2286 17.2491 16.2319 17.3425 16.2352H17.3529V16.165V16.155H17.3322C17.2664 16.1584 17.2283 16.135 17.2041 16.0815ZM16.7197 15.6102H16.3564L16.5398 15.0721L16.7197 15.6102Z" fill="#1E120D"/>
<path d="M18.4541 15.859V15.8659C18.4405 15.9107 18.4234 15.966 18.3926 16.0109C18.3584 16.0592 18.2866 16.1075 18.2011 16.1179C18.1498 16.1248 18.095 16.1248 18.0472 16.1248C18.0061 16.1248 17.9685 16.1248 17.9343 16.1213C17.8693 16.111 17.8214 16.0902 17.818 16.0143V14.9476C17.8214 14.844 17.8693 14.8475 17.948 14.844H17.9993H18.0061V14.775V14.7646H17.9993C17.8933 14.7646 17.7907 14.7716 17.6881 14.7716C17.5786 14.7716 17.4726 14.7646 17.3632 14.7646H17.3529V14.8371V14.8475H17.3905C17.4658 14.8475 17.5342 14.8544 17.5376 14.958V16.0212C17.5376 16.1455 17.4658 16.1489 17.3905 16.1524H17.3632H17.3529V16.2249V16.2352H17.3632C17.5444 16.2352 17.7257 16.2283 17.9035 16.2283C18.0848 16.2283 18.2626 16.2352 18.4439 16.2352H18.4507V16.2283C18.4747 16.111 18.5054 15.9936 18.526 15.8762L18.5294 15.8659H18.4576H18.4541V15.859Z" fill="#1E120D"/>
<path d="M18.4559 14.9841L18.41 14.9227C18.4513 14.9095 18.4789 14.8788 18.4789 14.8393C18.4789 14.791 18.433 14.7646 18.3824 14.7646H18.2354V14.7778C18.2721 14.7778 18.2767 14.7866 18.2767 14.8129V15.0193C18.2767 15.0412 18.2721 15.0412 18.2354 15.0456V15.0588H18.3778V15.0456C18.341 15.0412 18.3365 15.0412 18.3365 15.0236V14.9315H18.3686C18.4238 15.0061 18.4467 15.0588 18.4743 15.0588H18.5295V15.05C18.5065 15.0412 18.4789 15.0149 18.4559 14.9841ZM18.364 14.9139H18.3319V14.7822H18.364C18.3962 14.7822 18.4192 14.7998 18.4192 14.8437C18.4192 14.8876 18.4008 14.9139 18.364 14.9139Z" fill="#1E120D"/>
<path d="M18.3824 14.7646C18.2984 14.7646 18.2354 14.83 18.2354 14.9117C18.2354 14.9934 18.2984 15.0588 18.3824 15.0588C18.4664 15.0588 18.5295 14.9957 18.5295 14.9117C18.5295 14.83 18.4664 14.7646 18.3824 14.7646ZM18.3824 15.0308C18.3171 15.0308 18.2657 14.9747 18.2657 14.9117C18.2657 14.8487 18.3171 14.7927 18.3824 14.7927C18.4501 14.7927 18.4991 14.8487 18.4991 14.9117C18.4991 14.9747 18.4501 15.0308 18.3824 15.0308Z" fill="#1E120D"/>
</g>
<defs>
<clipPath id="clip0_4893_62146">
<rect width="20" height="14.7059" fill="white" transform="translate(0 3)"/>
</clipPath>
</defs>
</svg>
