<svg width="40" height="40" viewBox="0 0 40 40" fill="none" xmlns="http://www.w3.org/2000/svg">
<path d="M18.5004 13.0926C19.0518 14.1156 18.6685 15.3948 17.6455 15.9461C16.6225 16.4975 15.3434 16.1143 14.792 15.0913C14.2406 14.0683 14.6238 12.7892 15.6468 12.2378C16.6641 11.6758 17.9433 12.0589 18.5004 13.0926Z" stroke="#0B2343" stroke-miterlimit="10" stroke-linecap="round" stroke-linejoin="round"/>
<path d="M20.3562 38.9632L7.53679 15.1786L8.5936 10.9648L18.4505 5.65213L22.3169 7.21251L35.1362 30.9971L20.3562 38.9632Z" stroke="#0B2343" stroke-miterlimit="10" stroke-linecap="round" stroke-linejoin="round"/>
<path d="M12.281 23.9807L27.0611 16.0146" stroke="#0B2343" stroke-miterlimit="10" stroke-linecap="round" stroke-linejoin="round"/>
<path d="M20.6688 31.1489L22.751 30.5217L24.3259 32.2445" stroke="#0B2343" stroke-miterlimit="10" stroke-linecap="round" stroke-linejoin="round"/>
<path d="M24.2501 25.7255L18.9933 26.3311" stroke="#0B2343" stroke-miterlimit="10" stroke-linecap="round" stroke-linejoin="round"/>
<path d="M28.3904 29.1462L24.2502 25.7256" stroke="#0B2343" stroke-miterlimit="10" stroke-linecap="round" stroke-linejoin="round"/>
<path d="M22.751 30.5215L25.3067 22.3783" stroke="#0B2343" stroke-miterlimit="10" stroke-linecap="round" stroke-linejoin="round"/>
<path d="M18.6833 0.878838C18.6833 0.878838 13.1956 8.25099 16.6357 14.0978" stroke="#0B2343" stroke-miterlimit="10" stroke-linecap="round" stroke-linejoin="round"/>
</svg>
