<svg width="40" height="40" viewBox="0 0 40 40" fill="none" xmlns="http://www.w3.org/2000/svg">
<path d="M20.86 13.94H9.97" stroke="#0B2343" stroke-miterlimit="10" stroke-linecap="round" stroke-linejoin="round"/>
<path d="M15 9.94H9.97" stroke="#0B2343" stroke-miterlimit="10" stroke-linecap="round" stroke-linejoin="round"/>
<path d="M20.29 25.93C21.23 25.93 22 25.04 22 23.95C22 22.86 21.24 21.97 20.29 21.97H19.06V25.93H20.29Z" stroke="#0B2343" stroke-linecap="round" stroke-linejoin="round"/>
<path d="M31.72 22.52C31.4 22.18 30.97 21.97 30.49 21.97C29.51 21.97 28.71 22.86 28.71 23.95C28.71 25.04 29.51 25.93 30.49 25.93C30.99 25.93 31.43 25.7 31.76 25.34" stroke="#0B2343" stroke-linecap="round" stroke-linejoin="round"/>
<path d="M27.1 23.96C27.1 25.05 26.34 25.94 25.39 25.94C24.45 25.94 23.68 25.05 23.68 23.96C23.68 22.87 24.44 21.98 25.39 21.98C26.34 21.98 27.1 22.86 27.1 23.96Z" stroke="#0B2343" stroke-linecap="round" stroke-linejoin="round"/>
<path d="M22.98 6V11H27.98" stroke="#0B2343" stroke-miterlimit="10" stroke-linecap="round" stroke-linejoin="round"/>
<path d="M27.98 33V33.98C27.98 34.53 27.54 34.98 26.99 34.98H7.97998C7.42998 34.98 7 34.53 7 33.98V7.01001C7 6.46001 7.43998 6 7.97998 6H22.98C23.24 6 23.36 6.11004 23.54 6.29004L27.68 10.38C27.87 10.57 27.97 10.74 27.97 11V15" stroke="#0B2343" stroke-miterlimit="10" stroke-linecap="round" stroke-linejoin="round"/>
<path d="M32.6 18.03H17.32C16.57 18.03 15.97 18.63 15.97 19.38V28.58C15.97 29.33 16.58 29.93 17.32 29.93H32.6C33.35 29.93 33.95 29.33 33.95 28.58V19.38C33.95 18.63 33.34 18.03 32.6 18.03Z" stroke="#0B2343" stroke-miterlimit="10" stroke-linecap="round" stroke-linejoin="round"/>
</svg>
