<svg width="40" height="40" viewBox="0 0 40 40" fill="none" xmlns="http://www.w3.org/2000/svg">
<path d="M22.58 5.03998V10.04H27.58" stroke="#0B2343" stroke-miterlimit="10" stroke-linecap="round" stroke-linejoin="round"/>
<path d="M27.58 31.04V33.02C27.58 33.57 27.14 34.02 26.59 34.02H7.57998C7.02998 34.02 6.59998 33.57 6.59998 33.02V6.04999C6.59998 5.49999 7.03998 5.03998 7.57998 5.03998H22.58C22.84 5.03998 22.96 5.15002 23.14 5.33002L27.28 9.41998C27.47 9.60998 27.57 9.77998 27.57 10.04V13.04" stroke="#0B2343" stroke-miterlimit="10" stroke-linecap="round" stroke-linejoin="round"/>
<path d="M10.61 25H17.63" stroke="#0B2343" stroke-linecap="round" stroke-linejoin="round"/>
<path d="M10.61 20.99H17.63" stroke="#0B2343" stroke-linecap="round" stroke-linejoin="round"/>
<path d="M10.61 16.99H17.63" stroke="#0B2343" stroke-linecap="round" stroke-linejoin="round"/>
<path d="M31.467 23.7315C29.9992 21.6154 27.9226 21.6548 27.5843 21.6774C27.2461 21.6548 25.1684 21.6154 23.6994 23.7315C23.6994 23.7315 21.8629 26.0606 23.4751 27.6592C25.0895 29.2601 25.8347 26.5296 27.5314 26.6243C29.2292 26.5296 30.0781 29.2601 31.6914 27.6592C33.3058 26.0606 31.467 23.7315 31.467 23.7315Z" stroke="#0B2343" stroke-miterlimit="10" stroke-linecap="round" stroke-linejoin="round"/>
<path d="M27.3065 17.8782C27.3065 19.4678 26.3832 20.7586 25.2412 20.7586C24.1014 20.7586 23.1769 19.4678 23.1769 17.8782C23.1769 16.2908 24.1014 15 25.2412 15C26.3832 15 27.3065 16.2908 27.3065 17.8782Z" stroke="#0B2343" stroke-miterlimit="10" stroke-linecap="round" stroke-linejoin="round"/>
<path d="M32.1751 17.8782C32.1751 19.4678 31.2506 20.7586 30.1097 20.7586C28.9688 20.7586 28.0455 19.4678 28.0455 17.8782C28.0455 16.2908 28.9688 15 30.1097 15C31.2506 15 32.1751 16.2908 32.1751 17.8782Z" stroke="#0B2343" stroke-miterlimit="10" stroke-linecap="round" stroke-linejoin="round"/>
<path d="M35.4579 21.7306C35.4579 22.955 34.7466 23.9459 33.8683 23.9459C32.9912 23.9459 32.281 22.955 32.281 21.7306C32.281 20.5086 32.9912 19.5176 33.8683 19.5176C34.7466 19.5176 35.4579 20.5086 35.4579 21.7306Z" stroke="#0B2343" stroke-miterlimit="10" stroke-linecap="round" stroke-linejoin="round"/>
<path d="M23.1769 21.7306C23.1769 22.955 22.4656 23.9459 21.5873 23.9459C20.7102 23.9459 20 22.955 20 21.7306C20 20.5086 20.7102 19.5176 21.5873 19.5176C22.4656 19.5176 23.1769 20.5086 23.1769 21.7306Z" stroke="#0B2343" stroke-miterlimit="10" stroke-linecap="round" stroke-linejoin="round"/>
</svg>
