<svg width="40" height="40" viewBox="0 0 40 40" fill="none" xmlns="http://www.w3.org/2000/svg">
<path d="M19.2724 24.3142H13.5425L13.5432 5H27.4575V24.2792H22.0707" stroke="#0B2343" stroke-miterlimit="10" stroke-linecap="round" stroke-linejoin="round"/>
<path d="M19.1042 35.2811C16.4194 30.995 19.3912 27.3864 19.3912 27.3864V22.2524C19.3912 20.6338 22.0714 20.6312 22.0714 22.2524V27.1185" stroke="#0B2343" stroke-miterlimit="10" stroke-linecap="round" stroke-linejoin="round"/>
<path d="M25.9705 24.2792C25.9705 24.2792 26.7622 26.413 25.1635 30.7758C24.3631 32.9598 24.0728 35.4149 24.0728 35.4149" stroke="#0B2343" stroke-miterlimit="10" stroke-linecap="round" stroke-linejoin="round"/>
<path d="M19.3909 26.2561H16.4336C14.9154 26.2561 14.9253 24.3142 16.4336 24.3142H19.3909" stroke="#0B2343" stroke-miterlimit="10" stroke-linecap="round" stroke-linejoin="round"/>
<path d="M18.4522 28.2615H17.4308C16.067 28.2615 16.067 26.2563 17.4308 26.2563" stroke="#0B2343" stroke-miterlimit="10" stroke-linecap="round" stroke-linejoin="round"/>
<path d="M22.6881 13.5714C21.8291 12.3329 20.6137 12.356 20.4157 12.3692C20.2178 12.356 19.0017 12.3329 18.142 13.5714C18.142 13.5714 17.0671 14.9346 18.0107 15.8702C18.9555 16.8072 19.3917 15.2091 20.3847 15.2645C21.3784 15.2091 21.8752 16.8072 22.8194 15.8702C23.7643 14.9346 22.6881 13.5714 22.6881 13.5714Z" stroke="#0B2343" stroke-miterlimit="10" stroke-linecap="round" stroke-linejoin="round"/>
<path d="M20.253 10.1458C20.253 11.0761 19.7126 11.8316 19.0442 11.8316C18.3771 11.8316 17.8361 11.0761 17.8361 10.1458C17.8361 9.21674 18.3771 8.46125 19.0442 8.46125C19.7126 8.46125 20.253 9.21674 20.253 10.1458Z" stroke="#0B2343" stroke-miterlimit="10" stroke-linecap="round" stroke-linejoin="round"/>
<path d="M23.1025 10.1458C23.1025 11.0761 22.5614 11.8316 21.8937 11.8316C21.2259 11.8316 20.6855 11.0761 20.6855 10.1458C20.6855 9.21674 21.2259 8.46125 21.8937 8.46125C22.5614 8.46125 23.1025 9.21674 23.1025 10.1458Z" stroke="#0B2343" stroke-miterlimit="10" stroke-linecap="round" stroke-linejoin="round"/>
<path d="M25.0238 12.4004C25.0238 13.1169 24.6075 13.6969 24.0935 13.6969C23.5801 13.6969 23.1644 13.1169 23.1644 12.4004C23.1644 11.6851 23.5801 11.1052 24.0935 11.1052C24.6075 11.1052 25.0238 11.6851 25.0238 12.4004Z" stroke="#0B2343" stroke-miterlimit="10" stroke-linecap="round" stroke-linejoin="round"/>
<path d="M17.8361 12.4004C17.8361 13.1169 17.4198 13.6969 16.9058 13.6969C16.3924 13.6969 15.9767 13.1169 15.9767 12.4004C15.9767 11.6851 16.3924 11.1052 16.9058 11.1052C17.4198 11.1052 17.8361 11.6851 17.8361 12.4004Z" stroke="#0B2343" stroke-miterlimit="10" stroke-linecap="round" stroke-linejoin="round"/>
</svg>
