<svg width="40" height="40" viewBox="0 0 40 40" fill="none" xmlns="http://www.w3.org/2000/svg">
<path d="M26.5138 4V9.48617H32" stroke="#0B2343" stroke-miterlimit="10" stroke-linecap="round" stroke-linejoin="round"/>
<path d="M32 34.7007C32 35.3042 31.5172 35.7979 30.9137 35.7979H10.0553C9.4518 35.7979 8.97998 35.3042 8.97998 34.7007V5.10822C8.97998 4.50474 9.46277 4 10.0553 4H26.5138C26.7991 4 26.9307 4.12074 27.1282 4.31824L31.6708 8.8059C31.8793 9.01437 31.989 9.20089 31.989 9.48618V34.7007H32Z" stroke="#0B2343" stroke-miterlimit="10" stroke-linecap="round" stroke-linejoin="round"/>
<path d="M24.467 22.7315C22.9992 20.6154 20.9226 20.6548 20.5843 20.6774C20.2461 20.6548 18.1684 20.6154 16.6994 22.7315C16.6994 22.7315 14.8629 25.0606 16.4751 26.6592C18.0895 28.2601 18.8347 25.5296 20.5314 25.6243C22.2292 25.5296 23.0781 28.2601 24.6914 26.6592C26.3058 25.0606 24.467 22.7315 24.467 22.7315Z" stroke="#0B2343" stroke-miterlimit="10" stroke-linecap="round" stroke-linejoin="round"/>
<path d="M20.3065 16.8782C20.3065 18.4678 19.3832 19.7586 18.2412 19.7586C17.1014 19.7586 16.1769 18.4678 16.1769 16.8782C16.1769 15.2908 17.1014 14 18.2412 14C19.3832 14 20.3065 15.2908 20.3065 16.8782Z" stroke="#0B2343" stroke-miterlimit="10" stroke-linecap="round" stroke-linejoin="round"/>
<path d="M25.1751 16.8782C25.1751 18.4678 24.2506 19.7586 23.1097 19.7586C21.9688 19.7586 21.0455 18.4678 21.0455 16.8782C21.0455 15.2908 21.9688 14 23.1097 14C24.2506 14 25.1751 15.2908 25.1751 16.8782Z" stroke="#0B2343" stroke-miterlimit="10" stroke-linecap="round" stroke-linejoin="round"/>
<path d="M28.4579 20.7306C28.4579 21.955 27.7466 22.9459 26.8683 22.9459C25.9912 22.9459 25.281 21.955 25.281 20.7306C25.281 19.5086 25.9912 18.5176 26.8683 18.5176C27.7466 18.5176 28.4579 19.5086 28.4579 20.7306Z" stroke="#0B2343" stroke-miterlimit="10" stroke-linecap="round" stroke-linejoin="round"/>
<path d="M16.1769 20.7306C16.1769 21.955 15.4656 22.9459 14.5873 22.9459C13.7102 22.9459 13 21.955 13 20.7306C13 19.5086 13.7102 18.5176 14.5873 18.5176C15.4656 18.5176 16.1769 19.5086 16.1769 20.7306Z" stroke="#0B2343" stroke-miterlimit="10" stroke-linecap="round" stroke-linejoin="round"/>
</svg>
