<svg width="25" height="25" viewBox="0 0 25 25" fill="none" xmlns="http://www.w3.org/2000/svg">
<path d="M21.1479 20.2748C21.1479 20.6528 20.8408 20.96 20.4627 20.96H6.8674C6.48932 20.96 6.18213 20.645 6.18213 20.2748V2.07158C6.18213 1.69349 6.48932 1.37842 6.8674 1.37842H17.6664C17.8476 1.37842 17.9342 1.45719 18.0603 1.58322L20.9432 4.39522C21.0771 4.52125 21.1479 4.70241 21.1479 4.88358V20.2748Z" fill="#0B2343" stroke="#0B2343" stroke-width="1.45102" stroke-miterlimit="10" stroke-linecap="round" stroke-linejoin="round"/>
<path d="M3.71677 4.31665C3.32294 4.31665 3 4.63958 3 5.03341V23.339C3 23.7328 3.32294 24.0558 3.71677 24.0558H18.5566C18.9504 24.0558 19.2733 23.7328 19.2733 23.339" stroke="#0B2343" stroke-width="1.45102" stroke-miterlimit="10" stroke-linecap="round" stroke-linejoin="round"/>
<path d="M17.2329 1.37842V5.20655H21.1477" stroke="white" stroke-width="0.870612" stroke-miterlimit="10" stroke-linecap="round" stroke-linejoin="round"/>
</svg>
