<svg width="25" height="25" viewBox="0 0 25 25" fill="none" xmlns="http://www.w3.org/2000/svg">
<path d="M17.7241 1.99976V5.69102H21.4989" stroke="#0B2343" stroke-miterlimit="10" stroke-linecap="round" stroke-linejoin="round"/>
<path d="M21.4993 20.2205C21.4993 20.5851 21.2031 20.8813 20.8386 20.8813H7.72938C7.36481 20.8813 7.0686 20.5775 7.0686 20.2205V2.66813C7.0686 2.30356 7.36481 1.99976 7.72938 1.99976H18.1423C18.317 1.99976 18.4005 2.07571 18.5221 2.19724L21.3019 4.9087C21.431 5.03022 21.4993 5.20491 21.4993 5.37959V20.2205Z" stroke="#0B2343" stroke-miterlimit="10" stroke-linecap="round" stroke-linejoin="round"/>
<path d="M4.69115 4.83289C4.31139 4.83289 4 5.14427 4 5.52402V23.1751C4 23.5548 4.31139 23.8663 4.69115 23.8663H19.0004C19.3801 23.8663 19.6915 23.5548 19.6915 23.1751" stroke="#0B2343" stroke-miterlimit="10" stroke-linecap="round" stroke-linejoin="round"/>
</svg>
