<svg width="40" height="40" viewBox="0 0 40 40" fill="none" xmlns="http://www.w3.org/2000/svg">
<path d="M10.6022 8.80615C11.2452 8.26255 12.001 7.49941 12.991 6.45193C16.3174 2.93419 23.5045 2.40208 25.3674 7.06035C27.2302 11.7176 26.6626 17.3125 23.3707 17.1756C19.0783 16.9958 19.1473 13.6495 21.3081 9.18459" stroke="#0B2343" stroke-miterlimit="10" stroke-linecap="round" stroke-linejoin="round"/>
<path d="M20.3273 19.4066C20.3273 19.4066 19.3771 20.6141 17.2382 20.9078C14.9425 21.2214 10.7223 22.1466 6.77173 19.2164" stroke="#0B2343" stroke-miterlimit="10" stroke-linecap="round" stroke-linejoin="round"/>
<path d="M30.4249 31.7973C30.4249 31.7973 26.2998 28.5482 23.6382 30.9787C20.9756 33.4103 23.9037 36.5643 28.0299 35.9182C32.154 35.2732 33.4858 33.5159 33.4858 33.5159C33.4858 33.5159 40.6718 31.5014 37.0778 24.1377C37.0778 24.1377 37.0778 26.3529 33.8851 28.3517C33.8851 28.3517 32.8669 24.7221 30.3517 23.1718C29.8112 22.8393 28.8077 22.5194 28.1731 22.4023C24.5801 21.7364 24.7254 17.2737 24.7254 17.2737" stroke="#0B2343" stroke-miterlimit="10" stroke-linecap="round" stroke-linejoin="round"/>
<path d="M17.5679 30.1103C17.5679 30.1103 18.4241 23.31 17.2375 20.9077" stroke="#0B2343" stroke-miterlimit="10" stroke-linecap="round" stroke-linejoin="round"/>
<path d="M20.3099 31.1103C20.3099 31.1103 16.6176 28.455 14.7369 31.796C12.8584 35.1392 21.1274 35.8218 22.7164 33.6171" stroke="#0B2343" stroke-miterlimit="10" stroke-linecap="round" stroke-linejoin="round"/>
<path d="M10.1694 13.1333C10.1694 15.3663 8.35984 17.1769 6.12688 17.1769C3.89497 17.1769 2.08435 15.3663 2.08435 13.1333C2.08435 10.9014 3.89497 9.09182 6.12688 9.09182C8.35984 9.09182 10.1694 10.9014 10.1694 13.1333Z" stroke="#0B2343" stroke-miterlimit="10" stroke-linecap="round" stroke-linejoin="round"/>
</svg>
