<svg width="40" height="40" viewBox="0 0 40 40" fill="none" xmlns="http://www.w3.org/2000/svg">
<path d="M2 31.1077C2.41505 32.1373 2.80349 33.0711 2.90459 33.3159C2.98441 33.997 3.20523 35.3592 3.69743 35.8355C3.8145 35.9552 5.78597 36.1601 6.46441 35.7849C6.71983 35.6466 6.96726 35.3619 7.01515 35.0027C7.01515 35.0027 6.99918 34.2897 6.90074 34.1354C6.90074 34.1354 5.77799 33.4064 5.59441 32.6933C5.59441 32.6933 5.62634 32.0255 5.90037 31.7302C6.09459 31.403 8.529 29.2213 9.19414 28.6945C9.8513 28.1518 10.5537 27.5319 10.6974 26.6087C10.7905 25.9515 11.1816 25.5365 12.0409 25.5338C12.4241 25.5338 12.8923 25.6216 13.4244 25.8211C14.5392 26.2202 16.492 26.4224 18.413 26.4251C20.0173 26.4224 21.5631 26.2841 22.5661 25.9143C22.8375 25.8132 24.1012 26.026 24.3966 26.4224C24.6866 26.8215 24.8781 27.3563 24.9899 27.758C25.1495 28.3327 25.663 29.639 26.1472 30.8416C26.5622 31.8766 26.9507 32.8104 27.0518 33.0499C27.1316 33.731 27.3524 35.0958 27.842 35.5747C27.9617 35.6945 29.9332 35.8993 30.6116 35.5189C30.867 35.3805 31.1145 35.0985 31.1597 34.7367C31.1597 34.7367 31.1464 34.0289 31.0479 33.872C31.0479 33.872 29.9252 33.1456 29.7416 32.43C29.582 31.6983 29.3479 27.8751 29.3479 27.2818C29.3479 27.2818 29.3505 25.5178 29.441 24.9831C29.4756 24.9511 30.5611 23.1952 30.6914 22.3278C30.726 22.0219 31.8009 17.6053 31.8248 16.9828C31.8301 16.1021 32.49 13.8699 33.0407 13.2101C33.3813 12.7817 33.4238 11.651 33.4238 11.5552V11.5206C33.4877 11.518 34.6929 11.5579 35.1931 11.5579C35.507 11.5552 35.7758 11.5499 36.0391 11.4595C36.4462 11.3158 36.981 11.1109 37.2923 10.8103C37.4147 10.6852 37.5557 10.499 37.5583 10.225C37.5583 10.225 37.9947 7.22917 38 7.14669C38.0026 6.75293 37.7525 6.48155 37.4306 6.38311C36.2147 5.98935 34.4029 6.35917 33.7564 5.24972C32.3915 3.20907 29.0472 2.98825 27.3578 5.90687C26.368 7.59633 25.7002 9.19532 25.0644 10.5017C24.4258 11.8133 23.8166 12.8004 23.0131 13.3405C18.0964 16.6608 8.60882 13.266 5.22459 15.9052L5.26184 15.876C2.12771 18.0497 2.35918 22.3411 2.35119 24.5946C2.35119 24.5946 2.73963 27.6888 2.88597 28.189C3.0323 28.6919 2 31.1077 2 31.1077Z" stroke="#0B2343" stroke-miterlimit="10" stroke-linecap="round" stroke-linejoin="round"/>
</svg>
