<svg width="40" height="40" viewBox="0 0 40 40" fill="none" xmlns="http://www.w3.org/2000/svg">
<path d="M26.05 12.9299C26.05 9.10993 23.13 6 19.54 6C15.95 6 13.03 9.10994 13.03 12.9399C13.03 13.9899 13.8301 14.8499 14.8201 14.8499C15.8101 14.8499 16.6101 13.9999 16.6101 12.9399C16.6101 11.2099 17.93 9.80981 19.55 9.80981C21.17 9.80981 22.4901 11.2099 22.4901 12.9399C22.4901 14.9299 20.93 16.5998 19.37 16.8098C17.31 17.1998 13 18.01 13 22.77V33.02C13 34.07 13.8401 34.8899 14.8301 34.8899H24.28C25.27 34.8899 26.05 34.08 26.05 33.02V24.0898V12.9299V12.9299Z" stroke="#0B2343" stroke-linecap="round" stroke-linejoin="round"/>
</svg>
