<!-- Generated by IcoMoon.io -->
<svg version="1.1" xmlns="http://www.w3.org/2000/svg" width="1024" height="1024" viewBox="0 0 1024 1024">
<title></title>
<g id="icomoon-ignore">
</g>
<path fill="#000" d="M807.936 568.32v-174.080l153.6 153.6c6.144 6.144 15.36 10.24 23.552 10.24s17.408-3.072 23.552-10.24c13.312-13.312 13.312-34.816 0-48.128l-200.704-201.728v-136.192c0-89.088-73.728-161.792-162.816-161.792h-266.24c-89.088 0-162.816 72.704-162.816 161.792v136.192l-201.728 202.752c-13.312 13.312-13.312 34.816 0 48.128 6.144 6.144 15.36 10.24 23.552 10.24s17.408-3.072 23.552-10.24l153.6-153.6v174.080l-200.704 200.704c-13.312 13.312-13.312 34.816 0 48.128 6.144 6.144 15.36 10.24 23.552 10.24s17.408-3.072 23.552-10.24l153.6-153.6v198.656c0 89.088 73.728 161.792 162.816 161.792h266.24c89.088 0 162.816-72.704 162.816-161.792v-199.68l153.6 153.6c6.144 6.144 15.36 10.24 23.552 10.24s17.408-3.072 23.552-10.24c13.312-13.312 13.312-34.816 0-48.128l-199.68-200.704zM378.88 67.584h266.24c52.224 0 94.208 41.984 94.208 94.208v74.752c-17.408-9.216-36.864-15.36-58.368-15.36h-337.92c-21.504 0-40.96 6.144-58.368 15.36v-74.752c0-52.224 41.984-94.208 94.208-94.208zM645.12 956.416h-266.24c-52.224 0-94.208-41.984-94.208-94.208v-7.168c17.408 9.216 36.864 15.36 58.368 15.36h337.92c21.504 0 40.96-6.144 58.368-15.36v7.168c0 52.224-41.984 94.208-94.208 94.208z"></path>
</svg>
