<svg width="40" height="40" viewBox="0 0 40 40" fill="none" xmlns="http://www.w3.org/2000/svg">
<path d="M31.47 22.1622C29.4497 21.492 28.9965 18.8486 30.6769 17.5552C28.5339 17.1304 27.7976 14.4492 29.4119 12.9859C28.5245 11.9569 28.5528 10.4276 29.4874 9.42693C27.0989 7.3028 23.9553 6 20.5001 6C13.042 6 7 12.0419 7 19.4999C7 26.958 13.042 33 20.5001 33C25.7396 33 30.2805 30.0168 32.5179 25.6552C31.2812 24.9566 30.8186 23.4178 31.47 22.1622Z" stroke="#0B2343" stroke-miterlimit="10" stroke-linecap="round" stroke-linejoin="round"/>
<path d="M25.3808 19.5095C25.3808 22.4644 22.9829 24.8623 20.028 24.8623C17.0731 24.8623 14.6752 22.4644 14.6752 19.5095C14.6752 16.5546 17.0731 14.1566 20.028 14.1566C22.9829 14.1472 25.3808 16.5451 25.3808 19.5095Z" stroke="#0B2343" stroke-miterlimit="10" stroke-linecap="round" stroke-linejoin="round"/>
<path d="M32.3384 13.7034L32.3008 14.4681L33.1503 15.2422" stroke="#0B2343" stroke-linecap="round" stroke-linejoin="round"/>
<path d="M30.8185 11.4189L31.3473 11.6361" stroke="#0B2343" stroke-linecap="round" stroke-linejoin="round"/>
<path d="M26.1266 13.5619L26.6457 13.779" stroke="#0B2343" stroke-linecap="round" stroke-linejoin="round"/>
<path d="M9.92656 13.4485L10.4553 13.6657" stroke="#0B2343" stroke-linecap="round" stroke-linejoin="round"/>
<path d="M32.735 19.5474L33.2165 19.2452" stroke="#0B2343" stroke-linecap="round" stroke-linejoin="round"/>
<path d="M24.6727 26.1178L25.1542 25.8252" stroke="#0B2343" stroke-linecap="round" stroke-linejoin="round"/>
<path d="M14.4297 14.1473L14.9112 13.8546" stroke="#0B2343" stroke-linecap="round" stroke-linejoin="round"/>
<path d="M15.2132 28.5912L15.6853 28.2892" stroke="#0B2343" stroke-linecap="round" stroke-linejoin="round"/>
<path d="M17.3941 10.0311L17.8755 9.729" stroke="#0B2343" stroke-linecap="round" stroke-linejoin="round"/>
<path d="M28.6755 25.7024L28.6944 25.1359" stroke="#0B2343" stroke-linecap="round" stroke-linejoin="round"/>
<path d="M13.4196 24.6073L13.4479 24.0409" stroke="#0B2343" stroke-linecap="round" stroke-linejoin="round"/>
<path d="M23.8135 29.6296L23.8418 29.0632" stroke="#0B2343" stroke-linecap="round" stroke-linejoin="round"/>
<path d="M9.71887 21.1614L9.74722 20.595" stroke="#0B2343" stroke-linecap="round" stroke-linejoin="round"/>
<path d="M22.4163 8.76575L22.4446 8.19934" stroke="#0B2343" stroke-linecap="round" stroke-linejoin="round"/>
</svg>
