<?xml version="1.0" encoding="utf-8"?>
<!-- Generator: Adobe Illustrator 19.1.0, SVG Export Plug-In . SVG Version: 6.00 Build 0)  -->
<svg version="1.1" id="Layer_1" xmlns="http://www.w3.org/2000/svg" xmlns:xlink="http://www.w3.org/1999/xlink" x="0px" y="0px"
	 viewBox="0 0 50 50" enable-background="new 0 0 50 50" xml:space="preserve">
<g>
	<path fill="#231F20" d="M24.1,41.2c0.2,0.2,0.6,0.4,0.9,0.4c0,0,0,0,0,0c0,0,0,0,0,0c0.4,0,0.7-0.2,0.9-0.5l9-9.3
		c0.5-0.5,0.5-1.3,0-1.8c-0.5-0.5-1.3-0.5-1.7,0l-7,7.2v-36C26.3,0.6,25.7,0,25,0s-1.2,0.6-1.2,1.3v36.1L16.7,30
		c-0.5-0.5-1.3-0.5-1.7,0c-0.5,0.5-0.5,1.3,0,1.8L24.1,41.2z"/>
	<path fill="#231F20" d="M48.8,35.6c-0.7,0-1.2,0.6-1.2,1.3v10.6H2.5V36.9c0-0.7-0.6-1.3-1.2-1.3c-0.7,0-1.2,0.6-1.2,1.3v11.9
		C0,49.4,0.6,50,1.2,50h47.5c0.7,0,1.2-0.6,1.2-1.3V36.9C50,36.1,49.4,35.6,48.8,35.6z"/>
</g>
</svg>
