<svg width="25" height="25" viewBox="0 0 25 25" fill="none" xmlns="http://www.w3.org/2000/svg">
<g clip-path="url(#clip0_3202_652)">
<g clip-path="url(#clip1_3202_652)">
<path d="M12.6569 16.1458C12.4461 16.1458 12.2445 16.0594 12.0994 15.9071L6.69903 10.2496C6.231 9.75996 6.57868 8.94527 7.25656 8.94527H10.0853V3.03056C10.0853 2.32182 10.6624 1.74475 11.3711 1.74475H13.9428C14.6515 1.74475 15.2286 2.32182 15.2286 3.03056V8.94527H18.0573C18.7352 8.94527 19.0829 9.75996 18.6149 10.2496L13.2145 15.9071C13.0694 16.0594 12.8678 16.1458 12.6569 16.1458Z" fill="#0B2343"/>
<path d="M23.1999 22.3177H2.11263C1.11999 22.3177 0.3125 21.5102 0.3125 20.5176V20.0033C0.3125 19.0106 1.11999 18.2031 2.11263 18.2031H23.1999C24.1925 18.2031 25 19.0106 25 20.0033V20.5176C25 21.5102 24.1925 22.3177 23.1999 22.3177Z" fill="#0B2343"/>
</g>
</g>
<defs>
<clipPath id="clip0_3202_652">
<rect width="25" height="25" fill="white"/>
</clipPath>
<clipPath id="clip1_3202_652">
<rect width="24.6875" height="24.6875" fill="white" transform="translate(0.3125 -0.3125)"/>
</clipPath>
</defs>
</svg>
