<svg width="40" height="40" viewBox="0 0 40 40" fill="none" xmlns="http://www.w3.org/2000/svg">
<path d="M19.963 24.8385V32.9591" stroke="#0B2343" stroke-miterlimit="10" stroke-linecap="round" stroke-linejoin="round"/>
<path d="M23.947 32.9591H15.979" stroke="#0B2343" stroke-miterlimit="10" stroke-linecap="round" stroke-linejoin="round"/>
<path d="M13.4307 15.8835C13.1525 16.9782 13 17.3282 13 18.1447C13 21.8505 16.1226 24.8295 19.981 24.8295C23.8394 24.8295 26.9619 21.8685 26.9619 18.1537C26.9619 17.3371 26.8094 16.9692 26.5312 15.8745H13.4307V15.8835Z" stroke="#0B2343" stroke-miterlimit="10" stroke-linecap="round" stroke-linejoin="round"/>
<path d="M17.6211 15.8833L14.4984 7" stroke="#0B2343" stroke-miterlimit="10" stroke-linecap="round" stroke-linejoin="round"/>
<path d="M25.8583 15.8833C25.8583 13.8195 23.633 12.5364 21.8474 13.5414C21.2821 12.0608 19.8554 11.0021 18.1685 11.0021C15.6112 11.0021 13.7448 13.3978 14.346 15.8743" stroke="#0B2343" stroke-miterlimit="10" stroke-linecap="round" stroke-linejoin="round"/>
</svg>
