<svg viewBox="0 0 45 60" fill="none" xmlns="http://www.w3.org/2000/svg">
<path fill-rule="evenodd" clip-rule="evenodd" d="M11.5784 10.8796C11.5784 6.49751 15.1818 2.5 19.6376 2.5H19.7734C24.2329 2.5 27.5784 6.51992 27.5784 10.8796V22.0344C27.5784 22.3106 27.3545 22.5344 27.0784 22.5344C26.8022 22.5344 26.5784 22.3106 26.5784 22.0344V10.8796C26.5784 6.97158 23.5851 3.5 19.7734 3.5H19.6376C15.7883 3.5 12.5784 6.99398 12.5784 10.8796V22.0344C12.5784 22.3106 12.3545 22.5344 12.0784 22.5344C11.8022 22.5344 11.5784 22.3106 11.5784 22.0344V10.8796Z" fill="#007CC2"/>
<path fill-rule="evenodd" clip-rule="evenodd" d="M4.5 17.2704C4.5 16.9942 4.72386 16.7704 5 16.7704H33.6516C33.9278 16.7704 34.1516 16.9942 34.1516 17.2704V25.748C34.1516 26.0241 33.9278 26.248 33.6516 26.248C33.3755 26.248 33.1516 26.0241 33.1516 25.748V17.7704H5.5V55.5344H33.1516V51.0962C33.1516 50.82 33.3755 50.5962 33.6516 50.5962C33.9278 50.5962 34.1516 50.82 34.1516 51.0962V56.0344C34.1516 56.3105 33.9278 56.5344 33.6516 56.5344H5C4.72386 56.5344 4.5 56.3105 4.5 56.0344V17.2704Z" fill="#007CC2"/>
<path fill-rule="evenodd" clip-rule="evenodd" d="M31.4099 28.5679L31.9156 28.5679C32.2308 28.5679 32.5268 28.6861 32.7569 28.9158C32.7572 28.916 32.7575 28.9163 32.7578 28.9166L42.2296 38.3043C42.6856 38.7602 42.7048 39.5188 42.2257 39.9761L34.5965 47.6727L34.595 47.6743C34.5211 47.7481 34.4344 47.8137 34.3516 47.8646C34.2827 47.907 34.1796 47.9623 34.0632 47.9904C33.7834 48.0695 33.4905 48.0437 33.2424 47.9197C33.2371 47.917 33.2318 47.9143 33.2266 47.9114C33.1758 47.8837 33.1354 47.8492 33.1335 47.8476C33.119 47.8357 33.1042 47.8228 33.0905 47.8107C33.0626 47.7859 33.0274 47.7536 32.987 47.7158C32.9056 47.6397 32.7936 47.5327 32.6563 47.4005C32.3815 47.1356 31.9997 46.7634 31.5476 46.3204C30.643 45.434 29.4531 44.2604 28.2648 43.0858C25.8885 40.7369 23.5153 38.3806 23.4383 38.3035L23.4293 38.2945C23.3516 38.2127 23.3137 38.1224 23.2969 38.0791C23.2761 38.0256 23.2611 37.9709 23.2496 37.9221C23.2266 37.8238 23.2085 37.7068 23.1934 37.5821C23.163 37.3305 23.1393 37.0002 23.1205 36.6245C23.0829 35.8706 23.0633 34.8977 23.0538 33.9268C23.0383 32.3376 23.0496 30.7306 23.0542 30.0763C23.0552 29.9317 23.0559 29.8337 23.0559 29.7926C23.0559 29.154 23.5747 28.6024 24.2456 28.6017L24.2446 28.6017L24.247 29.1017V28.6017M31.4099 29.5679L24.2493 29.6017L24.247 29.6017C24.1433 29.6017 24.0559 29.6901 24.0559 29.7926C24.0559 29.8385 24.0552 29.9436 24.0541 30.0969C24.0494 30.7639 24.0384 32.3428 24.0538 33.917C24.0633 34.8843 24.0827 35.8412 24.1193 36.5746C24.1377 36.9426 24.16 37.2454 24.1862 37.462C24.1972 37.5533 24.2081 37.6212 24.2177 37.6683C24.64 38.0879 26.8017 40.2334 28.9678 42.3746C30.1559 43.549 31.3445 44.7213 32.2475 45.6061C32.6991 46.0487 33.0785 46.4185 33.3503 46.6805C33.4864 46.8117 33.5941 46.9144 33.6699 46.9853C33.6907 47.0047 33.7083 47.021 33.7231 47.0345C33.7416 47.0368 33.7656 47.0358 33.7943 47.0272C33.7997 47.0256 33.8052 47.024 33.8107 47.0226C33.8149 47.0204 33.8206 47.0172 33.8278 47.0128C33.8397 47.0054 33.8523 46.9968 33.864 46.9877C33.8755 46.9788 33.8833 46.9717 33.8874 46.9676C33.8876 46.9675 33.8873 46.9678 33.8874 46.9676L41.521 39.2665C41.5253 39.2622 41.5297 39.2579 41.5341 39.2537C41.5864 39.2047 41.6034 39.0929 41.5231 39.012C41.5229 39.0118 41.5233 39.0121 41.5231 39.012L32.0522 29.6253L32.0507 29.6237C32.0112 29.5843 31.9707 29.5679 31.9156 29.5679H31.4099Z" fill="#007CC2"/>
<path fill-rule="evenodd" clip-rule="evenodd" d="M31.4099 28.5679L31.9156 28.5679C32.2308 28.5679 32.5268 28.6861 32.7569 28.9158L32.7578 28.9166L42.2296 38.3043C42.6856 38.7602 42.7048 39.5188 42.2257 39.9761L34.5965 47.6727L34.595 47.6743C34.5211 47.7481 34.4344 47.8137 34.3516 47.8646C34.2827 47.907 34.1796 47.9623 34.0632 47.9904C33.7834 48.0695 33.4905 48.0437 33.2424 47.9197C33.2371 47.917 33.2318 47.9143 33.2266 47.9114C33.1758 47.8837 33.1354 47.8492 33.1335 47.8476C33.119 47.8357 33.1042 47.8228 33.0905 47.8107C33.0626 47.7859 33.0274 47.7536 32.987 47.7158C32.9056 47.6397 32.7936 47.5327 32.6563 47.4005C32.3815 47.1356 31.9997 46.7634 31.5476 46.3204C30.643 45.434 29.4531 44.2604 28.2648 43.0858C25.8885 40.7369 23.5153 38.3806 23.4383 38.3035L23.4293 38.2945C23.3516 38.2127 23.3137 38.1224 23.2969 38.0791C23.2761 38.0256 23.2611 37.9709 23.2496 37.9221C23.2266 37.8238 23.2085 37.7068 23.1934 37.5821C23.163 37.3305 23.1393 37.0002 23.1205 36.6245C23.0829 35.8706 23.0633 34.8977 23.0538 33.9268C23.0383 32.3376 23.0496 30.7306 23.0542 30.0763C23.0552 29.9317 23.0559 29.8337 23.0559 29.7926C23.0559 29.154 23.5747 28.6024 24.2456 28.6017L24.2446 28.6017L24.247 28.6017M31.4099 29.5679L24.2493 29.6017L24.247 29.6017C24.1433 29.6017 24.0559 29.6901 24.0559 29.7926C24.0559 29.8385 24.0552 29.9436 24.0541 30.0969C24.0494 30.7639 24.0384 32.3428 24.0538 33.917C24.0633 34.8843 24.0827 35.8412 24.1193 36.5746C24.1377 36.9426 24.16 37.2454 24.1862 37.462C24.1972 37.5533 24.2081 37.6212 24.2177 37.6683C24.64 38.0879 26.8017 40.2334 28.9678 42.3746C30.1559 43.549 31.3445 44.7213 32.2475 45.6061C32.6991 46.0487 33.0785 46.4185 33.3503 46.6805C33.4864 46.8117 33.5941 46.9144 33.6699 46.9853C33.6907 47.0047 33.7083 47.021 33.7231 47.0345C33.7416 47.0368 33.7656 47.0358 33.7943 47.0272C33.7997 47.0256 33.8052 47.024 33.8107 47.0226C33.8149 47.0204 33.8206 47.0172 33.8278 47.0128C33.8397 47.0054 33.8523 46.9968 33.864 46.9877C33.8755 46.9788 33.8833 46.9717 33.8874 46.9676L41.521 39.2665C41.5253 39.2622 41.5297 39.2579 41.5341 39.2537C41.5864 39.2047 41.6034 39.0929 41.5231 39.012L32.0522 29.6253L32.0507 29.6237C32.0112 29.5843 31.9707 29.5679 31.9156 29.5679H31.4099Z" fill="#007CC2"/>
<path fill-rule="evenodd" clip-rule="evenodd" d="M26.9434 32.6235C26.5285 33.0551 26.536 33.7311 26.941 34.1387C27.3725 34.556 28.0502 34.5492 28.4585 34.1435C28.8766 33.7112 28.869 33.0316 28.4609 32.6235C28.0536 32.2162 27.3759 32.2078 26.9434 32.6235ZM26.2411 31.9116C27.0561 31.1186 28.3634 31.1117 29.168 31.9164C29.9726 32.721 29.9658 34.0284 29.1728 34.8433L29.168 34.8483C28.3634 35.6529 27.0561 35.646 26.2411 34.853L26.2362 34.8483C25.4316 34.0436 25.4385 32.7362 26.2315 31.9213L26.2411 31.9116Z" fill="#007CC2"/>
</svg>
