<svg width="40" height="40" viewBox="0 0 40 40" fill="none" xmlns="http://www.w3.org/2000/svg">
<path d="M27.9955 25.4126C27.9955 30.1013 24.1962 33.9103 19.4978 33.9103C14.809 33.9103 11 30.1013 11 25.4126C11 20.7238 14.7994 16.9148 19.4978 16.9148C24.1865 16.9148 27.9955 20.7238 27.9955 25.4126Z" stroke="#0B2343" stroke-linecap="round" stroke-linejoin="round"/>
<path d="M14.2386 20.7624C14.2386 20.7624 13.1558 23.2373 14.4609 22.7732C15.4277 22.4349 15.5148 22.0385 15.5148 22.0385L16.0851 21.0427C16.0851 21.0427 16.1721 22.4349 16.2881 22.6282C16.4041 22.8312 16.8585 23.392 17.0229 22.5992C17.3322 21.1394 17.3903 20.7237 17.9317 20.7237C18.473 20.7237 19.5848 20.2983 19.6911 21.6035C19.8071 22.9086 19.5751 22.1448 18.8694 22.4832C18.1637 22.8216 17.9897 24.0203 18.6471 24.1557C19.3044 24.3007 20.7739 24.8904 20.7739 24.8904C20.7739 24.8904 21.6439 25.4415 21.7406 26.5919C21.8566 28.013 21.7406 30.4782 22.5623 29.9369C23.2197 29.5115 25.0082 26.7273 24.6312 25.6832C24.2638 24.6294 24.2349 24.523 24.9116 24.146C25.5883 23.7786 26.0716 23.3243 26.0426 22.8119" stroke="#0B2343" stroke-linecap="round" stroke-linejoin="round"/>
<path d="M12.9045 27.4619C12.9045 27.4619 13.1076 25.2094 13.5619 25.5671C14.0163 25.9248 14.2096 25.9248 14.6157 26.3211C15.012 26.7175 16.7135 26.9495 16.1528 27.4522C15.5824 27.9646 15.3697 27.9356 14.5963 30.2075" stroke="#0B2343" stroke-linecap="round" stroke-linejoin="round"/>
<path d="M26.3327 8.9292C26.3327 8.9292 24.5345 10.0313 22.6783 10.4277C20.8221 10.8144 19.5751 12.8929 19.5751 12.8929C19.5751 12.8929 19.2754 15.0004 19.5751 16.9146" stroke="#0B2343" stroke-linecap="round" stroke-linejoin="round"/>
<path d="M19.6621 11.4041C19.0627 8.0398 12.4598 8.24283 12.4598 8.24283C12.4598 8.24283 13.3782 17.021 19.5751 12.9026C19.5654 12.8929 19.4784 12.2742 19.6621 11.4041Z" stroke="#0B2343" stroke-miterlimit="10" stroke-linecap="round" stroke-linejoin="round"/>
<path d="M29.2039 6C21.8662 6.26102 20.0681 9.46097 19.662 11.4041C19.4783 12.2742 19.5654 12.893 19.5654 12.893C28.6335 19.3219 29.2039 6 29.2039 6Z" stroke="#0B2343" stroke-linecap="round" stroke-linejoin="round"/>
<path d="M15.6597 10.9111C15.6597 10.9111 18.7534 11.5588 19.5751 12.893" stroke="#0B2343" stroke-miterlimit="10" stroke-linecap="round" stroke-linejoin="round"/>
</svg>
