<svg width="40" height="40" viewBox="0 0 40 40" fill="none" xmlns="http://www.w3.org/2000/svg">
<path d="M34.43 11.48C34.58 11.33 34.67 11.12 34.67 10.91C34.67 10.7 34.58 10.49 34.43 10.34L30.33 6.24C30.17 6.08 29.96 6 29.76 6C29.55 6 29.35 6.08 29.19 6.24C29.19 6.24 13.93 21.5 13.92 21.51C13.73 21.7 11.07 28.4 10.97 28.65C10.85 28.95 10.92 29.29 11.15 29.52C11.38 29.75 11.72 29.82 12.02 29.7C12.26 29.6 18.98 26.93 19.16 26.75C19.28 26.63 34.32 11.59 34.43 11.48Z" stroke="#0B2343" stroke-miterlimit="10" stroke-linecap="round" stroke-linejoin="round"/>
<path d="M30.93 11.21L17.27 24.85" stroke="#0B2343" stroke-miterlimit="10" stroke-linecap="round" stroke-linejoin="round"/>
<path d="M13.92 21.5L19.17 26.74" stroke="#0B2343" stroke-miterlimit="10" stroke-linecap="round" stroke-linejoin="round"/>
<path d="M11.46 27.4399L13.23 29.2199" stroke="#0B2343" stroke-miterlimit="10" stroke-linecap="round" stroke-linejoin="round"/>
<path d="M27.94 21.74V32.71C27.94 33.79 27.61 34.54 26.53 34.54H7.83C6.75 34.54 6 33.79 6 32.71V14.13C6 12.99 6.81 12.6 7.96 12.6H18.81" stroke="#0B2343" stroke-miterlimit="10" stroke-linecap="round" stroke-linejoin="round"/>
</svg>
