<svg width="42" height="42" viewBox="0 0 42 42" fill="none" xmlns="http://www.w3.org/2000/svg">
<path fill-rule="evenodd" clip-rule="evenodd" d="M0.5 21C0.5 9.6961 9.69611 0.5 21 0.5C32.3039 0.5 41.4999 9.6961 41.4999 21C41.4999 32.3039 32.3039 41.5 21 41.5C9.69611 41.5 0.5 32.3039 0.5 21ZM21 1.5C10.2484 1.5 1.5 10.2484 1.5 21C1.5 31.7516 10.2484 40.5 21 40.5C31.7516 40.5 40.4999 31.7516 40.4999 21C40.4999 10.2484 31.7516 1.5 21 1.5Z" fill="#FBAF28"/>
<path fill-rule="evenodd" clip-rule="evenodd" d="M12.6983 21.2294C13.0827 18.3663 14.3386 15.4069 15.9768 13.0288C16.969 11.5885 18.1149 10.3415 19.3173 9.44993C20.515 8.56186 21.8055 8 23.076 8C24.3466 8 25.6371 8.56186 26.8348 9.44993C28.0372 10.3415 29.183 11.5885 30.1753 13.0288C32.1548 15.9023 33.576 19.6244 33.576 23C33.576 26.369 32.4133 29.1254 30.5009 31.0408C28.5905 32.9543 25.9599 34 23.076 34C21.6541 34 20.2908 33.7706 19.0428 33.3112C18.9879 33.3322 18.9327 33.3524 18.8773 33.372C16.9234 34.0615 14.7749 33.8622 12.7704 32.936C10.7658 32.0098 9.22151 30.5029 8.48018 28.5681C7.73707 26.6286 7.82341 24.3182 8.97161 21.8332C9.44728 20.8037 10.0696 19.8206 10.7909 18.9252C10.8269 18.8805 10.8704 18.8423 10.9193 18.8123L11.5566 18.4224C11.6991 18.3353 11.8757 18.325 12.0273 18.395C12.1789 18.4651 12.2855 18.6062 12.3115 18.7712L12.6983 21.2294ZM13.645 21.7321C13.9403 18.9491 15.1574 15.981 16.8003 13.5962C17.7455 12.224 18.8184 11.0647 19.9129 10.2532C21.0121 9.43814 22.0966 9 23.076 9C24.0555 9 25.14 9.43814 26.2392 10.2532C27.3336 11.0647 28.4065 12.224 29.3518 13.5962C31.2473 16.3477 32.576 19.8756 32.576 23C32.576 26.131 31.5002 28.6246 29.7933 30.3342C28.0844 32.0457 25.715 33 23.076 33C22.118 33 21.1969 32.8874 20.3313 32.6657C21.6745 31.8167 22.8343 30.4791 23.6875 28.6326C24.2043 27.514 24.5673 26.2991 24.7756 25.0683C24.8083 24.875 24.725 24.6805 24.5627 24.5707C24.4003 24.4609 24.1888 24.4561 24.0216 24.5584L21.3974 26.1639L20.8553 22.7188C20.8293 22.5538 20.7227 22.4127 20.5711 22.3426C20.4194 22.2726 20.2429 22.2829 20.1004 22.37L17.1255 24.1901L16.5834 20.745C16.5574 20.58 16.4508 20.4389 16.2992 20.3688C16.1476 20.2988 15.971 20.3091 15.8285 20.3962L13.645 21.7321ZM13.4889 23H13.576C13.576 22.9822 13.5761 22.9644 13.5762 22.9466L15.7119 21.6399L16.254 25.085C16.28 25.25 16.3866 25.3911 16.5382 25.4612C16.6898 25.5312 16.8664 25.521 17.0089 25.4338L19.9838 23.6137L20.5259 27.0588C20.5519 27.2238 20.6585 27.3649 20.8101 27.435C20.9617 27.505 21.1383 27.4948 21.2808 27.4076L23.5536 26.017C23.3595 26.7779 23.101 27.5177 22.7797 28.2131C21.7257 30.4943 20.2088 31.8416 18.5445 32.429C16.8754 33.018 14.9983 32.8638 13.1898 32.0282C11.3813 31.1926 10.0472 29.8631 9.41398 28.2103C8.7825 26.5622 8.82537 24.5338 9.87939 22.2526C10.2911 21.3616 10.8251 20.5018 11.4466 19.7076L11.9821 23.1112C12.0081 23.2762 12.1147 23.4173 12.2663 23.4874C12.418 23.5574 12.5945 23.5472 12.737 23.46L13.4889 23Z" fill="#FBAF28"/>
</svg>
