<svg width="40" height="40" viewBox="0 0 40 40" fill="none" xmlns="http://www.w3.org/2000/svg">
<path d="M24.3747 14.4143C24.1321 14.2404 23.8806 14.0789 23.6207 13.9299C22.3573 9.91326 18.6054 6.99986 14.1715 6.99986C8.70164 6.99986 4.26709 11.4344 4.26709 16.905C4.26709 21.7678 7.77509 25.8039 12.3968 26.6417C13.9775 28.7506 16.4897 30.1213 19.3282 30.1213C21.0309 30.1213 22.6193 29.63 23.9596 28.7818" stroke="#0B2343" stroke-width="0.946467" stroke-miterlimit="10" stroke-linecap="round" stroke-linejoin="round"/>
<path d="M18.5357 15.1328C18.5357 17.3947 16.702 19.2291 14.4393 19.2291C12.1773 19.2291 10.3436 17.3947 10.3436 15.1328C10.3436 12.8708 12.1773 11.0364 14.4393 11.0364C16.702 11.0364 18.5357 12.8708 18.5357 15.1328Z" stroke="#0B2343" stroke-width="0.946467" stroke-miterlimit="10" stroke-linecap="round" stroke-linejoin="round"/>
<path d="M29.3585 29.3009H24.3917C24.3917 29.3009 24.9371 25.5025 24.8242 24.2364C24.7258 23.1297 23.9482 20.9952 23.9586 19.8836C23.9704 18.6043 24.7784 16.1261 24.8242 14.8482C24.8637 13.7471 24.3917 10.4664 24.3917 10.4664H29.3585C29.3585 10.4664 29.8304 13.7471 29.7909 14.8482C29.7452 16.1261 28.9413 18.6043 28.9261 19.8836C28.9115 21.0306 29.6946 23.2371 29.7909 24.3792C29.8956 25.6099 29.3585 29.3009 29.3585 29.3009Z" stroke="#0B2343" stroke-width="0.946467" stroke-miterlimit="10" stroke-linecap="round" stroke-linejoin="round"/>
<path d="M27.028 11.6068C27.1617 12.663 27.3322 14.1696 27.3079 14.848C27.2622 16.1266 26.4576 18.6048 26.4424 19.8841C26.4285 21.0304 27.2116 23.2369 27.3079 24.379C27.38 25.2334 27.1437 27.2723 26.9919 28.4407" stroke="#0B2343" stroke-width="0.946467" stroke-miterlimit="10" stroke-linecap="round" stroke-linejoin="round"/>
<path d="M30.1431 14.2113C30.245 13.4067 30.3129 12.7684 30.3129 12.7684L35.1272 13.9902C35.1272 13.9902 34.7779 17.2862 34.4689 18.343C34.1106 19.571 32.7218 21.7755 32.3919 23.0118C32.096 24.1199 32.3122 26.4512 32.1251 27.5815C31.9235 28.8005 30.4952 32.2461 30.4952 32.2461L25.6808 31.0243C25.6808 31.0243 25.9012 30.49 26.1826 29.763" stroke="#0B2343" stroke-width="0.946467" stroke-miterlimit="10" stroke-linecap="round" stroke-linejoin="round"/>
<path d="M28.7891 29.8612C28.6547 30.2167 28.5244 30.5501 28.4135 30.8293" stroke="#0B2343" stroke-width="0.946467" stroke-miterlimit="10" stroke-linecap="round" stroke-linejoin="round"/>
<path d="M32.5879 14.5217C32.4583 15.5786 32.2525 17.081 32.0619 17.7324C31.7029 18.9604 30.3142 21.1642 29.985 22.4005" stroke="#0B2343" stroke-width="0.946467" stroke-miterlimit="10" stroke-linecap="round" stroke-linejoin="round"/>
</svg>
