<svg width="40" height="40" viewBox="0 0 40 40" fill="none" xmlns="http://www.w3.org/2000/svg">
<path d="M27.8282 33.7157C27.8282 33.7157 26.1994 31.75 24.5237 27.7248V25.3658H23.2787C23.026 24.6824 22.8107 23.6808 22.2022 22.9038L22.1741 20.6852H21.7622C21.0601 17.6803 20.5453 13.6831 20.3862 9.52681C20.7513 9.49873 21.0415 9.19917 21.0415 8.82473C21.0415 8.44093 20.7326 8.12265 20.3488 8.12265C20.3394 7.72949 20.3394 7.32693 20.3394 6.91504C20.3394 7.31756 20.3394 7.72013 20.33 8.12265C19.9462 8.13201 19.6373 8.44093 19.6373 8.82473C19.6373 9.19917 19.9275 9.49873 20.2926 9.52681C20.1335 13.6831 19.6186 17.6803 18.9165 20.6852H18.5233V22.9038C17.943 23.7837 17.6715 24.5981 17.3906 25.3658H16.0894V27.7248C14.4606 31.75 12.8412 33.7251 12.8412 33.7251" stroke="#0B2343" stroke-linecap="round" stroke-linejoin="round"/>
<path d="M27.8282 33.7156H30" stroke="#0B2343" stroke-linecap="round" stroke-linejoin="round"/>
<path d="M10.66 33.7156H12.8318" stroke="#0B2343" stroke-linecap="round" stroke-linejoin="round"/>
<path d="M12.8318 33.7157H17.2877V32.7702C17.2877 30.898 18.4578 29.3909 20.33 29.3909C22.2022 29.3909 23.363 30.9073 23.363 32.7702V33.7157H27.8282" stroke="#0B2343" stroke-linecap="round" stroke-linejoin="round"/>
<path d="M17.1098 20.6851H23.6251" stroke="#0B2343" stroke-linecap="round" stroke-linejoin="round"/>
<path d="M13.8522 25.3564H26.8828" stroke="#0B2343" stroke-linecap="round" stroke-linejoin="round"/>
</svg>
