<svg width="40" height="40" viewBox="0 0 40 40" fill="none" xmlns="http://www.w3.org/2000/svg">
<path d="M27.29 31.9915H32.43C33.76 31.9915 34.85 30.8415 34.85 29.4915C34.85 28.1415 33.77 26.9915 32.43 26.9915H27.99L14.9 17.3715C14.51 17.1215 14.06 16.9915 13.61 16.9915H8.41998C7.08998 16.9915 6 18.1415 6 19.4915C6 20.8415 7.07998 21.9915 8.41998 21.9915H12.91L26 31.6115C26.39 31.8615 26.84 31.9915 27.29 31.9915Z" stroke="#0B2343" stroke-miterlimit="10" stroke-linecap="round" stroke-linejoin="round"/>
<path d="M22.6801 9.8815C22.6401 10.8815 21.7901 11.6515 20.8001 11.6115C19.8001 11.5715 19.0301 10.7215 19.0701 9.73147C19.1101 8.73147 19.9601 7.96149 20.9501 8.00149C21.9501 8.04149 22.7201 8.8915 22.6801 9.8815Z" stroke="#0B2343" stroke-miterlimit="10" stroke-linecap="round" stroke-linejoin="round"/>
<path d="M18.77 16.8814L18.81 15.7815C18.85 14.8015 19.62 13.9615 20.6 13.9515C21.64 13.9415 22.47 14.8115 22.42 15.8315L22.93 19.4814L24.96 20.9115" stroke="#0B2343" stroke-miterlimit="10" stroke-linecap="round" stroke-linejoin="round"/>
<path d="M31.21 20.3514L26.49 17.3414" stroke="#0B2343" stroke-miterlimit="10" stroke-linecap="round" stroke-linejoin="round"/>
<path d="M29.13 20.8115L31.21 20.3514L30.75 18.2715" stroke="#0B2343" stroke-miterlimit="10" stroke-linecap="round" stroke-linejoin="round"/>
</svg>
