<svg width="40" height="40" viewBox="0 0 40 40" fill="none" xmlns="http://www.w3.org/2000/svg">
<path d="M18.8901 9.8815C18.8501 10.8815 18.0001 11.6515 17.0101 11.6115C16.0101 11.5715 15.2401 10.7215 15.2801 9.73147C15.3201 8.73147 16.1701 7.96149 17.1601 8.00149C18.1601 8.04149 18.9301 8.8815 18.8901 9.8815Z" stroke="#0B2343" stroke-miterlimit="10" stroke-linecap="round" stroke-linejoin="round"/>
<path d="M14.85 22.0415L15.02 15.7815C15.06 14.8015 15.83 13.9614 16.81 13.9514C17.85 13.9414 18.68 14.8114 18.63 15.8314L19.14 19.4814L20.74 18.3114" stroke="#0B2343" stroke-miterlimit="10" stroke-linecap="round" stroke-linejoin="round"/>
<path d="M13.56 32.4514H8.41998C7.08998 32.4514 6 31.3014 6 29.9514C6 28.6014 7.07998 27.4514 8.41998 27.4514H12.86L25.95 17.8314C26.34 17.5814 26.79 17.4514 27.24 17.4514H32.43C33.76 17.4514 34.85 18.6014 34.85 19.9514C34.85 21.3014 33.77 22.4514 32.43 22.4514H27.94L14.85 32.0714C14.46 32.3214 14.01 32.4514 13.56 32.4514Z" stroke="#0B2343" stroke-miterlimit="10" stroke-linecap="round" stroke-linejoin="round"/>
<path d="M28.35 11.8514L23.63 14.8715" stroke="#0B2343" stroke-miterlimit="10" stroke-linecap="round" stroke-linejoin="round"/>
<path d="M26.27 11.3915L28.35 11.8514L27.8901 13.9314" stroke="#0B2343" stroke-miterlimit="10" stroke-linecap="round" stroke-linejoin="round"/>
</svg>
