<svg width="40" height="40" viewBox="0 0 40 40" fill="none" xmlns="http://www.w3.org/2000/svg">
<path d="M24.96 24.73V6.87C24.96 6.35 24.62 6 24.08 6H7.01996C6.46996 6 6 6.35 6 6.87V28.02C6 28.54 6.46996 28.91 7.01996 28.91H24.17" stroke="#0B2343" stroke-linecap="round" stroke-linejoin="round"/>
<path d="M22.78 25.93H8.96997V8.96002H22.03V21.48" stroke="#0B2343" stroke-linecap="round" stroke-linejoin="round"/>
<path d="M24.96 17.62C24.96 17.62 28.55 20.12 28.68 23.7C28.81 27.11 28.11 28.9 29.85 31.03C30.67 32.04 31.96 33.42 33.08 34.59" stroke="#0B2343" stroke-linecap="round" stroke-linejoin="round"/>
<path d="M27.21 34.56C26.07 32.74 24.53 30.06 23.95 28.09C23.75 27.41 20.87 22.78 21.16 23.27C20.34 21.91 22.29 20.75 23.07 22.04L25.48 25.47" stroke="#0B2343" stroke-linecap="round" stroke-linejoin="round"/>
<path d="M19.82 11.93H17.43" stroke="#0B2343" stroke-miterlimit="10" stroke-linecap="round" stroke-linejoin="round"/>
<path d="M19.82 13.93H17.43" stroke="#0B2343" stroke-miterlimit="10" stroke-linecap="round" stroke-linejoin="round"/>
<path d="M19.82 15.93H17.43" stroke="#0B2343" stroke-miterlimit="10" stroke-linecap="round" stroke-linejoin="round"/>
<path d="M19.82 17.93H11.06" stroke="#0B2343" stroke-miterlimit="10" stroke-linecap="round" stroke-linejoin="round"/>
<path d="M19.82 19.93H11.06" stroke="#0B2343" stroke-miterlimit="10" stroke-linecap="round" stroke-linejoin="round"/>
<path d="M11.0509 15.9332H14.9809V11.9332H11.0509V15.9332Z" stroke="#0B2343" stroke-miterlimit="10" stroke-linecap="round" stroke-linejoin="round"/>
</svg>
