<svg width="40" height="40" viewBox="0 0 40 40" fill="none" xmlns="http://www.w3.org/2000/svg">
<path d="M20.511 28.4289L17.4523 29.8102L16.674 27.0256" stroke="#0B2343" stroke-miterlimit="10" stroke-linecap="round" stroke-linejoin="round"/>
<path d="M20.522 16.238L16.7726 23.8463L21.4209 22.2238L17.4523 29.8101" stroke="#0B2343" stroke-miterlimit="10" stroke-linecap="round" stroke-linejoin="round"/>
<path d="M10.2827 25.6552C11.7176 25.6552 12.8809 24.4919 12.8809 23.0569C12.8809 21.622 11.7176 20.4587 10.2827 20.4587C8.84771 20.4587 7.68433 21.622 7.68433 23.0569C7.68433 24.4919 8.84771 25.6552 10.2827 25.6552Z" stroke="#0B2343" stroke-linecap="round" stroke-linejoin="round"/>
<path d="M27.8233 25.6552C29.2583 25.6552 30.4215 24.4919 30.4215 23.0569C30.4215 21.622 29.2583 20.4587 27.8233 20.4587C26.3884 20.4587 25.225 21.622 25.225 23.0569C25.225 24.4919 26.3884 25.6552 27.8233 25.6552Z" stroke="#0B2343" stroke-linecap="round" stroke-linejoin="round"/>
<path d="M33.3376 23.057H35.2671C35.1465 16.2052 29.4567 16.6656 27.4396 16.5231C27.1107 16.5012 27.034 16.2929 26.9573 15.975C26.5297 14.3196 24.7538 9.9673 18.3624 10.0002C18.1979 10.0002 16.7399 10.0002 16.5754 10.0002C8.94523 10.2194 7.9147 14.506 7.78315 16.0408C7.76122 16.3477 7.531 16.556 7.235 16.6437C3.85842 17.5865 4.00086 23.057 4.00086 23.057H4.95463" stroke="#0B2343" stroke-miterlimit="10" stroke-linecap="round" stroke-linejoin="round"/>
</svg>
