<svg width="40" height="40" viewBox="0 0 40 40" fill="none" xmlns="http://www.w3.org/2000/svg">
<path d="M27.3515 33L22.4214 21.7903L22.0526 10.5356L19.7494 7L17.5093 10.5356L17.0235 21.7903L12.1564 33" stroke="#0B2343" stroke-linecap="round" stroke-linejoin="round"/>
<path d="M8.59371 17.1121L8.5668 15.9785" stroke="#0B2343" stroke-linecap="round" stroke-linejoin="round"/>
<path d="M9.02551 32.9998H12.1564" stroke="#0B2343" stroke-linecap="round" stroke-linejoin="round"/>
<path d="M27.3604 32.9998H30.4913" stroke="#0B2343" stroke-linecap="round" stroke-linejoin="round"/>
<path d="M8.59369 11.669V10.5354" stroke="#0B2343" stroke-linecap="round" stroke-linejoin="round"/>
<path d="M31.0401 17.1121L31.0131 15.9785" stroke="#0B2343" stroke-linecap="round" stroke-linejoin="round"/>
<path d="M31.0401 11.669V10.5354" stroke="#0B2343" stroke-linecap="round" stroke-linejoin="round"/>
<path d="M17.5363 10.5354L22.2325 15.9783H31.5799" stroke="#0B2343" stroke-linecap="round" stroke-linejoin="round"/>
<path d="M22.0795 10.5354L17.2664 15.9783H8" stroke="#0B2343" stroke-linecap="round" stroke-linejoin="round"/>
<path d="M22.4484 21.7904L17.2754 16.5994" stroke="#0B2343" stroke-linecap="round" stroke-linejoin="round"/>
<path d="M22.2505 16.5994L17.0505 21.7904" stroke="#0B2343" stroke-linecap="round" stroke-linejoin="round"/>
<path d="M27.3515 33L17.0505 21.7903" stroke="#0B2343" stroke-linecap="round" stroke-linejoin="round"/>
<path d="M22.4484 21.7903L12.1564 33" stroke="#0B2343" stroke-linecap="round" stroke-linejoin="round"/>
<path d="M27.3695 33C25.7591 31.7585 24.1847 30.8678 22.8982 30.346C20.883 29.5363 18.6249 29.5363 16.6187 30.346C15.3321 30.8678 13.7668 31.7585 12.1564 33" stroke="#0B2343" stroke-linecap="round" stroke-linejoin="round"/>
<path d="M8.02692 10.5354H17.5363" stroke="#0B2343" stroke-linecap="round" stroke-linejoin="round"/>
<path d="M22.0795 10.5354H31.6069" stroke="#0B2343" stroke-linecap="round" stroke-linejoin="round"/>
</svg>
