<svg id="Layer_1" data-name="Layer 1" xmlns="http://www.w3.org/2000/svg" viewBox="0 0 29.64025 29.63931"><defs><style>.cls-1{fill:#e91b2f;}</style></defs><path class="cls-1" d="M15,.18035A14.81965,14.81965,0,1,0,29.82012,14.99953,14.83641,14.83641,0,0,0,15,.18035Zm0,28.86884a13.988,13.988,0,0,1-9.67793-3.89066l3.758-3.75723a7.64593,7.64593,0,0,0,4.71914,1.74634,7.04152,7.04152,0,0,0,.84-.0498c3.51987-.42205,6.16129-3.32843,6.874-4.19062l.86817.86824a.38535.38535,0,1,0,.545-.545l-3.0909-3.0909,4.88175-4.94728-.54872-.5412-4.87805,4.94346-4.8468-4.8468,4.95268-5.0187-.54872-.54026-4.94892,5.014L10.57736,6.88149a.385.385,0,1,0-.545.544l1.126,1.126c-.83125.68143-3.82231,3.3592-4.24166,6.91026a7.26856,7.26856,0,0,0,1.632,5.381L4.78016,24.61052A14.03,14.03,0,1,1,15,29.04919ZM20.96556,18.3595c-.57162.69412-3.13129,3.58259-6.4222,3.97446a6.71327,6.71327,0,0,1-4.91874-1.477l.07986-.07986-.545-.545-.06771.06771a6.50335,6.50335,0,0,1-1.4112-4.744c.39245-3.33554,3.3908-5.93914,4.02572-6.45621Z" transform="translate(-0.17988 -0.18035)"/></svg>