<svg width="40" height="40" viewBox="0 0 40 40" fill="none" xmlns="http://www.w3.org/2000/svg">
<path d="M17.95 11.6699C17.95 11.2699 17.63 10.9399 17.23 10.9399H11.74C11.34 10.9399 11.02 11.2699 11.02 11.6699V17.2399C11.02 17.6399 11.34 17.9699 11.74 17.9699H17.23C17.63 17.9699 17.95 17.6399 17.95 17.2399V11.6699Z" stroke="#0B2343" stroke-miterlimit="10" stroke-linecap="round" stroke-linejoin="round"/>
<path d="M29.78 13.03H21.16" stroke="#0B2343" stroke-miterlimit="10" stroke-linecap="round" stroke-linejoin="round"/>
<path d="M29.78 16.03H21.16" stroke="#0B2343" stroke-miterlimit="10" stroke-linecap="round" stroke-linejoin="round"/>
<path d="M17.95 23.6699C17.95 23.2699 17.63 22.9399 17.23 22.9399H11.74C11.34 22.9399 11.02 23.2699 11.02 23.6699V29.2399C11.02 29.6399 11.34 29.9699 11.74 29.9699H17.23C17.63 29.9699 17.95 29.6399 17.95 29.2399V23.6699Z" stroke="#0B2343" stroke-miterlimit="10" stroke-linecap="round" stroke-linejoin="round"/>
<path d="M29.78 25.03H21.16" stroke="#0B2343" stroke-miterlimit="10" stroke-linecap="round" stroke-linejoin="round"/>
<path d="M29.78 28.03H21.16" stroke="#0B2343" stroke-miterlimit="10" stroke-linecap="round" stroke-linejoin="round"/>
<path d="M32 35H9C7.34 35 6 33.66 6 32V9C6 7.34 7.34 6 9 6H32C33.66 6 35 7.34 35 9V32C35 33.65 33.66 35 32 35Z" stroke="#0B2343" stroke-miterlimit="10" stroke-linecap="round" stroke-linejoin="round"/>
</svg>
