<svg xmlns="http://www.w3.org/2000/svg" viewBox="0 0 111.9 95.4"><defs><style>.cls-1{fill:#666;}</style></defs><title>ICONO_ERROR_</title><g id="Capa_1" data-name="Capa 1"><path class="cls-1" d="M125.15,126.35l6.15-6.15a1.9,1.9,0,0,0,0-2.7,2,2,0,0,0-2.7,0l-6.15,6.15-6.15-6.15a1.9,1.9,0,0,0-2.7,0,2,2,0,0,0,0,2.7l6.15,6.15-6.15,6.15a2,2,0,0,0,0,2.7,1.9,1.9,0,0,0,1.3.5,2.65,2.65,0,0,0,1.4-.5l6.15-6.15,6.15,6.15a1.9,1.9,0,0,0,1.3.5,3,3,0,0,0,1.4-.5,2,2,0,0,0,0-2.7Z" transform="translate(-44.1 -55.3)"/><path class="cls-1" d="M99.5,104.6a9.78,9.78,0,0,1-6.3-2.3L55.9,69.4a1.79,1.79,0,0,1-.2-2.6,1.88,1.88,0,0,1,2.6-.2L95.6,99.5a5.78,5.78,0,0,0,7.6,0l37.3-32.9a1.84,1.84,0,1,1,2.4,2.8l-37.3,32.9A8.45,8.45,0,0,1,99.5,104.6Z" transform="translate(-44.1 -55.3)"/><path class="cls-1" d="M57.2,126.6a1.93,1.93,0,0,1-1.5-.7,1.79,1.79,0,0,1,.3-2.6l25-20.4a1.85,1.85,0,0,1,2.3,2.9l-25,20.4A2.1,2.1,0,0,1,57.2,126.6Z" transform="translate(-44.1 -55.3)"/><path class="cls-1" d="M143.1,55.3H57c-7.2,0-12.9,5.4-12.9,12.4v57.4A12.58,12.58,0,0,0,57,137.5h43.16a24.24,24.24,0,0,0,21.64,13.2,24.49,24.49,0,0,0,21.77-13.36c6.79-.57,12.43-6,12.43-12.34V67.7A12.7,12.7,0,0,0,143.1,55.3Zm-6.7,85.6a20.76,20.76,0,0,1-29.2,0,20.65,20.65,0,0,1,29.2-29.2,20.76,20.76,0,0,1,0,29.2Zm15.9-16c0,3.76-3.07,7.18-7.08,8.31a24.92,24.92,0,0,0,1-6.91,24.12,24.12,0,0,0-7.1-17.2,24.37,24.37,0,0,0-40.48,24.6H57a8.8,8.8,0,0,1-9.1-8.7V67.7A8.8,8.8,0,0,1,57,59h86.1c5.2,0,9.2,3.8,9.2,8.7Z" transform="translate(-44.1 -55.3)"/></g></svg>