<?xml version="1.0" encoding="utf-8"?>
<!-- Generator: Adobe Illustrator 19.2.1, SVG Export Plug-In . SVG Version: 6.00 Build 0)  -->
<svg version="1.1" id="Layer_1" xmlns="http://www.w3.org/2000/svg" xmlns:xlink="http://www.w3.org/1999/xlink" x="0px" y="0px"
	 viewBox="0 0 50 20" enable-background="new 0 0 50 20" xml:space="preserve">
<g>
	<path fill="#231F20" d="M50,18l0-16c0-0.6-0.3-1.1-0.7-1.4c-0.1-0.1-0.2-0.2-0.3-0.2C48.7,0.1,48.4,0,48,0L20.7,0
		c-0.4,0-0.8,0.2-1.1,0.4c-0.1,0-0.2,0.1-0.2,0.2C19,0.9,18.7,1.4,18.7,2l0,16c0,0.5,0.2,1,0.6,1.4c0.4,0.4,0.9,0.6,1.4,0.6L48,20
		C49.1,20,50,19.1,50,18z M46.5,1.6L34.4,9.1L22.2,1.6L46.5,1.6z M48,18.4H20.7c-0.2,0-0.4-0.2-0.4-0.4l0-15.8l13.7,8.5
		c0.3,0.2,0.6,0.2,0.8,0l13.6-8.5V18C48.4,18.2,48.2,18.4,48,18.4z"/>
	<path fill="#231F20" d="M15.3,3.6c0-0.4-0.4-0.8-0.8-0.8l-13.7,0C0.4,2.8,0,3.2,0,3.6C0,3.8,0.1,4,0.2,4.2c0.1,0.1,0.3,0.2,0.6,0.2
		l13.7,0C15,4.4,15.3,4,15.3,3.6z"/>
	<path fill="#231F20" d="M15.3,9.3c0-0.4-0.4-0.8-0.8-0.8l-9.2,0c-0.4,0-0.8,0.3-0.8,0.8c0,0.2,0.1,0.4,0.2,0.6
		c0.1,0.1,0.3,0.2,0.6,0.2l9.2,0C15,10.1,15.3,9.7,15.3,9.3z"/>
	<path fill="#231F20" d="M14.5,14.2l-4.6,0c-0.4,0-0.8,0.3-0.8,0.8c0,0.2,0.1,0.4,0.2,0.6c0.1,0.1,0.3,0.2,0.6,0.2l4.6,0
		c0.4,0,0.8-0.3,0.8-0.8S15,14.2,14.5,14.2z"/>
</g>
</svg>
