<?xml version="1.0" encoding="utf-8"?>
<!-- Generator: Adobe Illustrator 19.1.0, SVG Export Plug-In . SVG Version: 6.00 Build 0)  -->
<svg version="1.1" id="Layer_1" xmlns="http://www.w3.org/2000/svg" xmlns:xlink="http://www.w3.org/1999/xlink" x="0px" y="0px"
	 viewBox="0 0 67 50" enable-background="new 0 0 67 50" xml:space="preserve">
<g>
	<path d="M57.4,6.9L35.3,26.7c-1.1,1-3,1-4.1,0L9,6.9C8.4,6.4,7.5,6.4,7,7C6.5,7.6,6.6,8.5,7.1,9l22.1,19.8c1.1,1,2.5,1.5,3.9,1.5
		c1.4,0,2.8-0.5,3.9-1.5L59.3,9c0.6-0.5,0.6-1.4,0.1-2C58.8,6.4,58,6.4,57.4,6.9z"/>
	<path d="M59,0H7.9C3.5,0,0,3.4,0,7.8v34.5C0,46.6,3.5,50,7.9,50H59c4.4,0,8-3.5,8-7.7V7.8C67,3.5,63.4,0,59,0z M64.2,42.3
		c0,2.8-2.3,5-5.2,5H7.9c-2.9,0-5.1-2.2-5.1-5V7.8c0-2.8,2.3-5,5.1-5H59c2.9,0,5.2,2.2,5.2,5V42.3z"/>
</g>
</svg>
