<svg width="40" height="40" viewBox="0 0 40 40" fill="none" xmlns="http://www.w3.org/2000/svg">
<path d="M7.81729 26.9H25.1871C28.9506 26.9 31.9961 24.0167 31.9961 20.4501C31.9961 16.8835 28.9506 14 25.1871 14H7.81729" stroke="#0B2343" stroke-miterlimit="10" stroke-linecap="round" stroke-linejoin="round"/>
<path d="M12.1945 20.4502C12.1945 24.0168 10.1332 26.9001 7.59719 26.9001C5.06119 26.9001 3 24.0168 3 20.4502C3 16.8836 5.06119 14.0001 7.59719 14.0001C10.1448 14.0001 12.1945 16.8836 12.1945 20.4502Z" stroke="#0B2343" stroke-miterlimit="10" stroke-linecap="round" stroke-linejoin="round"/>
<path d="M11.6965 17.5204H18.6677" stroke="#0B2343" stroke-miterlimit="10" stroke-linecap="round" stroke-linejoin="round"/>
<path d="M36.0723 19.4773C35.9217 20.45 34.729 20.4617 34.729 20.4617C34.729 20.4617 36.107 20.8901 36.0723 21.3186" stroke="#0B2343" stroke-miterlimit="10" stroke-linecap="round" stroke-linejoin="round"/>
</svg>
