<svg width="40" height="40" viewBox="0 0 40 40" fill="none" xmlns="http://www.w3.org/2000/svg">
<path d="M18.9501 13.4201C18.6701 14.3501 17.7001 14.8701 16.8001 14.5801C15.9001 14.2901 15.3901 13.3 15.6701 12.37C15.9501 11.44 16.9201 10.9201 17.8201 11.2101C18.7201 11.5001 19.2401 12.4901 18.9501 13.4201Z" stroke="#0B2343" stroke-miterlimit="10" stroke-linecap="round" stroke-linejoin="round"/>
<path d="M15.77 32.2101C15.77 32.2101 15.7601 28.26 15.6901 27.01C15.6801 26.78 15.58 26.57 15.43 26.41L12.77 23.44C12.54 23.02 12.49 22.53 12.63 22.07L13.79 18.26C14.07 17.33 14.99 16.7 15.93 16.91C16.98 17.15 17.4 18.12 17.27 19.28L17.02 22.07L20.17 22.12" stroke="#0B2343" stroke-miterlimit="10" stroke-linecap="round" stroke-linejoin="round"/>
<path d="M11.79 25.2001L10.1901 27.03H6" stroke="#0B2343" stroke-miterlimit="10" stroke-linecap="round" stroke-linejoin="round"/>
<path d="M12.17 17.0701H10.41L8.30005 20.88" stroke="#0B2343" stroke-miterlimit="10" stroke-linecap="round" stroke-linejoin="round"/>
<path d="M19.67 27.22V28.99H25.7001" stroke="#0B2343" stroke-linecap="round" stroke-linejoin="round"/>
<path d="M19.6901 9.04004V6.02002L34.7001 6" stroke="#0B2343" stroke-linecap="round" stroke-linejoin="round"/>
<path d="M34.7001 6.14001V29.1L25.7001 34.27V11.3201L34.7001 6.14001Z" stroke="#0B2343" stroke-linecap="round" stroke-linejoin="round"/>
</svg>
