<svg width="40" height="40" viewBox="0 0 40 40" fill="none" xmlns="http://www.w3.org/2000/svg">
<path d="M30.7599 19.99H25.1499" stroke="#0B2343" stroke-miterlimit="10" stroke-linecap="round" stroke-linejoin="round"/>
<path d="M27.4399 16.74L30.7599 19.99L27.4399 23.24" stroke="#0B2343" stroke-miterlimit="10" stroke-linecap="round" stroke-linejoin="round"/>
<path d="M21.16 12.95C20.92 13.73 20.09 14.16 19.32 13.92C18.54 13.68 18.11 12.85 18.35 12.08C18.59 11.3 19.42 10.87 20.19 11.11C20.97 11.35 21.4 12.18 21.16 12.95Z" stroke="#0B2343" stroke-miterlimit="10" stroke-linecap="round" stroke-linejoin="round"/>
<path d="M18.1399 28.63C18.1399 28.63 18.1299 25.34 18.0699 24.29C18.0599 24.1 17.9799 23.93 17.8499 23.79L15.86 21.31C15.67 20.96 15.62 20.55 15.74 20.17L16.73 16.99C16.97 16.21 17.7599 15.69 18.5599 15.86C19.4599 16.06 19.8299 16.88 19.7099 17.84L19.3299 20.98L22.23 21.0299" stroke="#0B2343" stroke-miterlimit="10" stroke-linecap="round" stroke-linejoin="round"/>
<path d="M14.86 22.98L13.6399 24.98H10.33" stroke="#0B2343" stroke-miterlimit="10" stroke-linecap="round" stroke-linejoin="round"/>
<path d="M14.86 16.01H13.6799L12.0199 19.2" stroke="#0B2343" stroke-miterlimit="10" stroke-linecap="round" stroke-linejoin="round"/>
<path d="M6 7.5C6 6.12 7.12 5 8.5 5H32.5C33.88 5 35 6.12 35 7.5V31.5C35 32.88 33.88 34 32.5 34H8.5C7.12 34 6 32.88 6 31.5V7.5Z" stroke="#0B2343" stroke-miterlimit="10" stroke-linecap="round" stroke-linejoin="round"/>
</svg>
