<svg width="48" height="48" viewBox="0 0 48 48" fill="none" xmlns="http://www.w3.org/2000/svg">
<rect width="48" height="48" rx="24" fill="white" fill-opacity="0.1"/>
<path fill-rule="evenodd" clip-rule="evenodd" d="M14.5107 13.6152C14.5107 12.3458 15.5902 11.2825 16.9752 11.2825H19.2057C20.5907 11.2825 21.6702 12.3458 21.6702 13.6152C21.6702 13.8913 21.894 14.1152 22.1702 14.1152C22.4463 14.1152 22.6702 13.8913 22.6702 13.6152C22.6702 11.7512 21.0997 10.2825 19.2057 10.2825H16.9752C15.0812 10.2825 13.5107 11.7512 13.5107 13.6152C13.5107 13.8913 13.7346 14.1152 14.0107 14.1152C14.2869 14.1152 14.5107 13.8913 14.5107 13.6152ZM6.81885 17.5227C6.81885 16.2417 7.89365 15.2466 9.17759 15.2466H11.8086H22.227C22.5031 15.2466 22.727 15.4704 22.727 15.7466C22.727 16.0227 22.5031 16.2466 22.227 16.2466H12.3086V30.1479H14.8015C15.0777 30.1479 15.3015 30.3718 15.3015 30.6479C15.3015 30.9241 15.0777 31.1479 14.8015 31.1479H9.17759C7.89365 31.1479 6.81885 30.1528 6.81885 28.8718V17.5227ZM9.17759 16.2466H11.3086V30.1479H9.17759C8.40261 30.1479 7.81885 29.5582 7.81885 28.8718V17.5227C7.81885 16.8363 8.40261 16.2466 9.17759 16.2466ZM24.6436 18.8068C24.6436 16.9155 26.2426 15.4194 28.1652 15.4194H30.4338C32.3564 15.4194 33.9555 16.9155 33.9555 18.8068C33.9555 19.083 33.7316 19.3068 33.4555 19.3068C33.1794 19.3068 32.9555 19.083 32.9555 18.8068C32.9555 17.5102 31.8475 16.4194 30.4338 16.4194H28.1652C26.7516 16.4194 25.6436 17.5102 25.6436 18.8068C25.6436 19.083 25.4197 19.3068 25.1436 19.3068C24.8674 19.3068 24.6436 19.083 24.6436 18.8068ZM18.8667 23.2515C18.8667 22.2918 19.6888 21.4744 20.7497 21.4744H22.3657V35.6216H20.7497C19.6888 35.6216 18.8667 34.8042 18.8667 33.8445V23.2515ZM23.3657 35.6216H35.1958V21.4744H23.3657V35.6216ZM35.6958 20.4744H37.8693C39.4392 20.4744 40.7523 21.6972 40.7523 23.2515V33.8445C40.7523 35.3988 39.4392 36.6216 37.8693 36.6216H20.7497C19.1798 36.6216 17.8667 35.3988 17.8667 33.8445V23.2515C17.8667 21.6972 19.1798 20.4744 20.7497 20.4744H35.6958ZM36.1958 21.4744V35.6216H37.8693C38.9302 35.6216 39.7523 34.8042 39.7523 33.8445V23.2515C39.7523 22.2918 38.9302 21.4744 37.8693 21.4744H36.1958Z" fill="#C2C2C2"/>
<rect x="0.5" y="0.5" width="47" height="47" rx="23.5" stroke="white" stroke-opacity="0.6"/>
</svg>
