<svg xmlns="http://www.w3.org/2000/svg" xmlns:xlink="http://www.w3.org/1999/xlink" viewBox="0 0 124 124"><defs><style>.a,.n,.p{fill:none;}.b{clip-path:url(#a);}.c{fill:#057cc1;fill-opacity:0.15;}.d,.e,.l{fill:#1e3056;}.d,.e{stroke:#1e3056;}.d{stroke-width:0.58px;}.e{stroke-width:0.11px;}.f{fill:#01498f;}.g{fill:#3170aa;}.h{fill:#143556;}.i{fill:#f39b7f;}.j,.m{fill:#224b71;}.k{fill:#dcf1fd;}.m{fill-rule:evenodd;}.n{stroke:#057cc1;stroke-opacity:0.2;stroke-width:1.65px;}.o{fill:#f9ae2a;stroke:#f9ae2a;stroke-width:1.44px;}.o,.p{stroke-linecap:round;stroke-linejoin:round;}.p{stroke:#182540;stroke-width:2.17px;}</style><clipPath id="a"><path class="a" d="M62,3.5h0A58.5,58.5,0,0,1,120.5,62h0A58.5,58.5,0,0,1,62,120.5h0A58.5,58.5,0,0,1,3.5,62h0A58.5,58.5,0,0,1,62,3.5Z"/></clipPath></defs><title>error-disconnection</title><g class="b"><path class="c" d="M62,3.5h0A58.5,58.5,0,0,1,120.5,62h0A58.5,58.5,0,0,1,62,120.5h0A58.5,58.5,0,0,1,3.5,62h0A58.5,58.5,0,0,1,62,3.5Z"/><path class="d" d="M-46,97.3v.2l.2.6v.4h.3a32.1,32.1,0,0,1,10.7-2.2A32.6,32.6,0,0,1-25,97.5a46.5,46.5,0,0,0,8.1,1.6H-14V99h3.2Zm0,0h.2m-.2.1h.2m0,0a35.6,35.6,0,0,1,11-2.2m-11,2.2,30.4,1.1h.7m0,0v-.3h0m0,.3v-.3h0m0,.3h.5m-.5-.3h-1.9m1.9.2h.5m-2.4-.2h0v.3c0-.1,0-.1-.1-.2h-.2m.3,0h-.3m.3,0h-.2a52.9,52.9,0,0,1-7.9-1.5h0A31.2,31.2,0,0,0-34.8,95m17.9,2.9ZM-34.8,95v0Zm20.6,3.1h0v.3m0-.3a31.7,31.7,0,0,0,4.3-.2H-9m-5.2.3v.3m0,0a31.7,31.7,0,0,0,4.3-.2l.9-.4m0,0h2.9m-2.9.4,2.7.8h1.2v0l3.4-.9h0L-.2,97l.9-.5M-9,97.8h0v.3m0-.3v.3m2.9-.7h.6m-.6.2h0v.2m0-.2h0v.2m.6-.4h.1m-.1,0h0v.3m0-.3h0v.3m.1-.3,3.3-.8h0l1.5-.5h0l.9-.4h0l1.4-.8h.1c3.1-2,5.6-5.1,8.2-8.3h0c2.5-3,5-6.1,8.2-8.4h.1l.6-.4h0l1.5-.9,1-.4.3-.2v.3l.2.5h0l.2.2-.3.2h-.2l-.8.3h0c-.1,0-.2,0-.2.1h0l-1,.5h0l-.6.5h-.2C15.8,81,13.4,84,11,87h-.1a37.6,37.6,0,0,1-7.5,7.9l-.2.2H3.1a.1.1,0,0,1-.1.1H2.9l-.4.2H2.4l-.4.3m-7.4,1.3h0v.3m0-.3h0v.3M2,95.9H2l-.2-.3.2.3Zm0,0-1.3.6m0,0h0v0Zm-7.6,1.9v.3h-.8Zm0,0h0Zm1.5-.9h-.1m.1,0,3.4-.9,1.5-.5-5,1.4m0,0h-.6m.6-.1-3.5.6m2.9-.5h0a.1.1,0,0,1-.1.1H-7.8l-1.2.2"/><path class="d" d="M99.4,46.8h-.2v.3l.3.6V48h.4c4.9-2.2,11.5-.8,17.1,3.8a22.2,22.2,0,0,1,3,3.1h0c1.8,2,3.7,4.3,7.1,5.6l2,.6h8.3l3.3-.4h1.3l.7-.2h0l3.4-.7Zm0,0h.2m-.2,0h.2M173,61.3h-.1l-.8-.5-.9-.5h-.1c-9.7-4.8-17.2-3.2-25-1.5h0M173,61.3l-38.2-.8m38.2.8,1.5.9m-1.5-.9,1.5.9m-28.4-3.4v-.3l-3.4.7-1,.2h0l-1.2.2h-.7l-1.5.2h-3.5m11.3-1.4v-.3h0c7.8-1.7,15.3-3.3,25.1,1.5m-25.1-1.2L171.2,60m-36.4.2v.3m0-.3h0v.3m0-.3h-2.7m2.7.4h-2.7m0-.3h0v.3m0-.3h-.2c-.1,0-.2,0-.2-.1m.4.1h0v.3m0,0h-.5m0,0H131m.6.1V60h0m-.1.3V60h0m0,0H131m0,0h0v.2h0m0-.2h0v.2m0-.2h-.1m.1.3h-.1m0,0V60h0m0,.3h-.1m.1,0v-.3h0m0,0h0m-.1.3v-.3h0m-.1.3v-.3h0m-.1.3-.4-.3m.5,0h-.5m0,0h0v.2h.1Zm40.8.1h.1l.9.4.8.5h.2a6,6,0,0,1,1.5.9h0l-.2.2M171.2,60l3.3,2.2M173,62h-.1m.1,0h-.1m.1,0,.9.6Zm-.1,0-.2.2h0m.2-.2-.2.2h0m0,0-.7-.4h0l-.9-.4m1.6.8-1.6-.8m0,0H171c-9.6-4.8-16.9-3.3-24.7-1.6ZM99.6,46.8h0a14.4,14.4,0,0,1,9-.7,22.2,22.2,0,0,1,9.3,4.7h0a24.2,24.2,0,0,1,3.2,3.2c2.1,2.4,4.2,4.8,8.5,5.8h.8Zm.3,1.1Z"/><path class="e" d="M60.8,52.8h0a.6.6,0,0,0-.7-.4h0L46.9,57.2h0c-.2.1-.4.4-.3.6h0l.3.8h0a.5.5,0,0,0,.7.3h0l13.1-4.7h0a.6.6,0,0,0,.4-.7h0Z"/><path class="e" d="M66,70.4l-.3-.7a.6.6,0,0,0-.7-.4L51.8,74a.6.6,0,0,0-.3.8l.2.7a.7.7,0,0,0,.8.4l13.2-4.7A.6.6,0,0,0,66,70.4Zm-.3-.7h0a.5.5,0,0,0-.7-.3h0L51.8,74.1h0a.6.6,0,0,0-.3.7h0l.3.7h0a.5.5,0,0,0,.7.3h0l13.2-4.7h0c.2-.1.4-.4.3-.6Z"/><path class="f" d="M46.6,84.4,36.1,55.1l-9.5,3.4a11.6,11.6,0,0,0-7,14.8l2.7,7.5a11.6,11.6,0,0,0,14.8,7Z"/><path class="g" d="M55.5,81.6,44.9,51.9A2.1,2.1,0,0,0,42,50.6L30.3,54.7a2.3,2.3,0,0,0-1.4,2.9s3,9.2,5.1,15.1,5.5,14.6,5.5,14.6a2.4,2.4,0,0,0,3,1.4l11.6-4.2A2.3,2.3,0,0,0,55.5,81.6Z"/><path class="h" d="M42.5,88.7h0l11.6-4.2h0L42.4,88.6h.1Z"/><path class="i" d="M84.5,71.4s.2.5,1.5.9V71.1Z"/><path class="i" d="M84.4,71a.7.7,0,0,0,.7.2v-.4Z"/><path class="i" d="M84.4,70.3a.9.9,0,0,0,.8,0L85,70Z"/><path class="i" d="M84.3,71.8a.9.9,0,0,0,.8.2v-.4Z"/><path class="i" d="M84.5,72h.7l.3.2c0,.2-.1.3-.3.4h-.7a.3.3,0,0,1-.3-.3c-.1-.1.1-.3.2-.3Z"/><path class="i" d="M84.5,69.7h.7c.2-.1.3,0,.4.2s-.1.3-.2.3l-.7.3c-.2,0-.4-.1-.4-.3s0-.3.2-.4Z"/><path class="i" d="M84.5,70.5l.8-.2a.3.3,0,1,1,.2.6l-.8.2c-.2.1-.4,0-.4-.2s0-.4.2-.4Z"/><path class="i" d="M84.5,71.2h.8l.4.2c0,.2-.1.3-.3.4l-.8.2c-.2,0-.4-.1-.4-.3a.5.5,0,0,1,.2-.4Z"/><path class="f" d="M74.9,40.6,85.1,70.1l9.5-3.3A11.6,11.6,0,0,0,101.7,52l-2.6-7.5a11.5,11.5,0,0,0-14.7-7.2Z"/><path class="g" d="M65.2,41.4,77,75.5l13.9-4.9a2.3,2.3,0,0,0,1.4-2.9S91.1,57.2,88.7,51,82,38,82,38a2.3,2.3,0,0,0-2.9-1.4Z"/><path class="j" d="M67.2,59.8c-3.2-9.4-4.2-17.7-2-18.4s6.5,6.3,9.8,15.7,4.1,17.6,2,18.3S70.5,69.2,67.2,59.8Z"/><path class="k" d="M67.8,59.6c-2.9-8.6-3.9-16.1-2.1-16.7s5.7,5.8,8.6,14.4,4,16,2.2,16.6S70.8,68.1,67.8,59.6Z"/><path class="l" d="M73.2,64.5c-.3.1-.3,1.1.1,2.2s1,1.9,1.3,1.8.2-1.1-.1-2.2S73.5,64.4,73.2,64.5Z"/><path class="l" d="M67.6,48.4c-.3.1-.3,1.1.1,2.2s1,1.8,1.3,1.7.2-1-.1-2.1S67.9,48.3,67.6,48.4Z"/><path class="m" d="M63.7,43.9a54.8,54.8,0,0,0,3.1,13.5c3.3,9.4,7.7,16.4,9.8,15.7s1-1.1,1.1-2.4c.2,2.7-.1,4.5-1.1,4.8s-6.5-6.2-9.8-15.6C64.5,53.2,63.4,47.1,63.7,43.9Z"/></g><path class="n" d="M62,2.7h0A59.4,59.4,0,0,1,121.3,62h0A59.4,59.4,0,0,1,62,121.3h0A59.4,59.4,0,0,1,2.7,62h0A59.4,59.4,0,0,1,62,2.7Z"/><path class="o" d="M119.2,114.2,103.3,87.3a4.5,4.5,0,0,0-7.6,0L79.8,114.2a4.3,4.3,0,0,0,3.8,6.3h31.8A4.3,4.3,0,0,0,119.2,114.2Z"/><path class="p" d="M99.5,95.6v12.2"/><path class="p" d="M99.5,113.1v.4"/></svg>