<?xml version="1.0" encoding="utf-8"?>
<!-- Generator: Adobe Illustrator 25.4.1, SVG Export Plug-In . SVG Version: 6.00 Build 0)  -->
<svg version="1.1" id="Layer_1" xmlns="http://www.w3.org/2000/svg" xmlns:xlink="http://www.w3.org/1999/xlink" x="0px" y="0px"
	 viewBox="0 0 126 123" style="enable-background:new 0 0 126 123;" xml:space="preserve">
<style type="text/css">
	.st0{clip-path:url(#SVGID_00000163792545145108229550000016362197661369159050_);}
	.st1{fill:#007CC2;fill-opacity:0.1;}
	.st2{fill:none;stroke:#0B2343;stroke-width:0.367335;stroke-linecap:round;stroke-linejoin:round;}
	.st3{fill:#004990;}
	.st4{fill:none;stroke:#007CC2;stroke-opacity:0.2;}
	.st5{fill:none;stroke:#007CC2;stroke-width:0.367335;stroke-linecap:round;stroke-miterlimit:10;}
	.st6{fill:#007CC2;}
	.st7{fill:#EBF5FA;stroke:#0B2343;stroke-width:0.367335;stroke-miterlimit:10;}
	.st8{fill:#EBF5FA;}
	.st9{opacity:0.5;fill:#007CC2;enable-background:new    ;}
	.st10{fill:none;stroke:#0B2343;stroke-width:0.367335;stroke-linecap:round;stroke-miterlimit:10;}
	.st11{fill:none;stroke:#0B2343;stroke-width:0.367335;stroke-miterlimit:10;}
	.st12{fill:none;stroke:#E91B2F;stroke-width:0.367335;stroke-linecap:round;stroke-miterlimit:10;}
	.st13{fill:#FBAF28;stroke:#FBAF28;stroke-width:1.45183;stroke-linecap:round;stroke-linejoin:round;stroke-miterlimit:10;}
	.st14{fill:none;stroke:#0B2343;stroke-width:2.18152;stroke-linecap:round;stroke-linejoin:round;stroke-miterlimit:10;}
</style>
<g>
	<defs>
		<path id="SVGID_1_" d="M61.9790001,0L61.9790001,0c33.9539146,0,61.4790001,27.5250854,61.4790001,61.4790001l0,0
			c0,33.9539146-27.5250854,61.4790001-61.4790001,61.4790001l0,0C28.0250854,122.9580002,0.5,95.4329147,0.5,61.4790001l0,0
			C0.5,27.5250854,28.0250854,0,61.9790001,0z"/>
	</defs>
	<clipPath id="SVGID_00000130610678879351877140000013715100511433779646_">
		<use xlink:href="#SVGID_1_"  style="overflow:visible;"/>
	</clipPath>
	<g style="clip-path:url(#SVGID_00000130610678879351877140000013715100511433779646_);">
		<path class="st1" d="M61.9790001,0L61.9790001,0c33.9539146,0,61.4790001,27.5250854,61.4790001,61.4790001l0,0
			c0,33.9539146-27.5250854,61.4790001-61.4790001,61.4790001l0,0C28.0250854,122.9580002,0.5,95.4329147,0.5,61.4790001l0,0
			C0.5,27.5250854,28.0250854,0,61.9790001,0z"/>
		<path class="st2" d="M16.8092003,19.3103008H119.663002c0,0-3.4589996-4.6963005-11.3730011-3.9543009
			c0,0-6.6740036-9.8905106-15.328598-10.8804798c-8.6544037-0.9899702-27.4491043-1.7301502-38.0761032,9.89048
			C54.8852997,14.3660002,31.3978996-0.468807,16.8092003,19.3103008z"/>
		<path class="st3" d="M78.135498,25.2444992c0,0-18.0195999-10.7445993-28.6520996-11.080699
			c-10.6324997-0.3361006-13.9881973,2.6852007-13.9881973,2.6852007S24.7507,9.1350002,12.3274002,12.4850998
			C-0.0958436,15.8352003-3.2843101,23.5657997-0.599093,25.2444992H78.135498z"/>
	</g>
</g>
<path class="st4" d="M61.9790001,0.5L61.9790001,0.5c33.6777687,0,60.9790001,27.3012276,60.9790001,60.9790001l0,0
	c0,33.6777687-27.3012314,60.9790001-60.9790001,60.9790001l0,0C28.3012276,122.4580002,1,95.1567688,1,61.4790001l0,0
	C1,27.8012276,28.3012276,0.5,61.9790001,0.5z"/>
<path class="st5" d="M2.5,70h119"/>
<path class="st6" d="M64.112999,92.5259018h10.1185989c0.2121048-0.0004044,0.4152985-0.0849991,0.5651016-0.235199
	c0.1498032-0.1501007,0.233902-0.3535004,0.233902-0.5656052v-4.5c0-0.2118988-0.084198-0.4151993-0.2340012-0.5649948
	c-0.1498032-0.1498032-0.3531036-0.2340012-0.5650024-0.2340012h-6.7352982L64.112999,92.5259018z"/>
<path class="st7" d="M43.678299,49.9258995l5.7984009,12.7778015l21.2209015-0.6152992L58.5332985,47.8064003
	c-0.1881981-0.2206993-0.4221992-0.3978004-0.6857986-0.519001c-0.2635994-0.1210976-0.5503998-0.1833992-0.8404007-0.1825981
	h-11.510498c-0.3339005,0-0.6625023,0.0836983-0.9556999,0.2435989c-0.2932014,0.1598015-0.5416031,0.3905983-0.7224998,0.671299
	c-0.1809006,0.2807007-0.2885017,0.6021996-0.3129997,0.9353027C43.4808998,49.2879982,43.5404015,49.6217995,43.678299,49.9258995z
	"/>
<path class="st8" d="M33.3544998,76.3884964c-0.6665001-0.3287964-1.3129005-0.6967926-1.9358997-1.1019974l-14.2157993-9.2457962
	c-1.8073006-1.1755066-0.9752998-3.9819031,1.1809998-3.9819031h72.4916992
	c1.3546982,0.0079002,2.7001953,0.224102,3.9891968,0.6409988c0,0,11.9162979,2.4244003,15.3602982,10.7794037
	c0.0970001,0.2388,0.3670044,0.9421997-0.1199951,1.3591995l-1.6230011,1.4123993
	c-0.9189987,0.6024017-2.5839996,1.6622009-3.6900024,1.6622009"/>
<path class="st9" d="M108.4349976,75.4645996c-0.9300003,0.6023026-2.0149994,0.921402-3.1230011,0.9184036H33.3549995
	c2.6190987,1.2896957,5.5036011,1.9488983,8.4230003,1.9247971h64.3389969
	c1.614006-0.0147018,3.1350021-1.4105988,3.9120026-2.8266983c0.2350006-0.3927994,0.3610001-0.8408051,0.3670044-1.2985001
	L108.4349976,75.4645996z"/>
<path class="st10" d="M34.0493011,76.7085037c0,0,3.1223984,1.4306946,5.7854996,1.518898
	c2.6632004,0.0880966,59.5982971,0.0862961,59.5982971,0.0862961h6.1929016c0,0,3.6539993-0.1964951,4.776001-4.1251984"/>
<path class="st7" d="M62.5974998,93.2494965h10.175602c0.1949005,0,0.3816986-0.0774002,0.5195007-0.2151947
	c0.1377945-0.1378021,0.2151947-0.3246994,0.2151947-0.5195007v-6.0503006c0-0.1949005-0.0774002-0.3816986-0.2151947-0.5195007
	c-0.1378021-0.1378021-0.3246002-0.2152023-0.5195007-0.2152023h-6.7960052L62.5974998,93.2494965z"/>
<path class="st6" d="M39.6721992,67.3869019h-2.2262001c-0.6025009,0-1.0909996,0.4884949-1.0909996,1.0909958v6.0613022
	c0,0.6026001,0.4884987,1.0910034,1.0909996,1.0910034h2.2262001c0.6025009,0,1.0909996-0.4884033,1.0909996-1.0910034v-6.0613022
	C40.7631989,67.8753967,40.2747002,67.3869019,39.6721992,67.3869019z"/>
<path class="st6" d="M48.1716003,67.9085999h-2.0811005c-0.6025009,0-1.0909996,0.4885025-1.0909996,1.0911026v2.6118011
	c0,0.6026001,0.4884987,1.091095,1.0909996,1.091095h2.0811005c0.6025009,0,1.0909996-0.4884949,1.0909996-1.091095v-2.6118011
	C49.2625999,68.3971024,48.7741013,67.9085999,48.1716003,67.9085999z"/>
<path class="st6" d="M53.7803001,67.9085999h-2.0810013c-0.6026001,0-1.0909996,0.4885025-1.0909996,1.0911026v2.6118011
	c0,0.6026001,0.4883995,1.091095,1.0909996,1.091095h2.0810013c0.6026001,0,1.0910988-0.4884949,1.0910988-1.091095v-2.6118011
	C54.8713989,68.3971024,54.3829002,67.9085999,53.7803001,67.9085999z"/>
<path class="st6" d="M59.3914986,67.9085999h-2.0809975c-0.6026001,0-1.0911026,0.4885025-1.0911026,1.0911026v2.6118011
	c0,0.6026001,0.4885025,1.091095,1.0911026,1.091095h2.0809975c0.6026001,0,1.0909996-0.4884949,1.0909996-1.091095v-2.6118011
	C60.4824982,68.3971024,59.9940987,67.9085999,59.3914986,67.9085999z"/>
<path class="st6" d="M65.0001984,67.9085999h-2.0809975c-0.6026001,0-1.0911026,0.4885025-1.0911026,1.0911026v2.6118011
	c0,0.6026001,0.4885025,1.091095,1.0911026,1.091095h2.0809975c0.6026001,0,1.0910034-0.4884949,1.0910034-1.091095v-2.6118011
	C66.0912018,68.3971024,65.6027985,67.9085999,65.0001984,67.9085999z"/>
<path class="st6" d="M98.3426971,69.6884003h-0.7567978c-0.6025009,0-1.0909958,0.4884033-1.0909958,1.0910034v2.8064957
	c0,0.6026001,0.4884949,1.0911026,1.0909958,1.0911026h0.7567978c0.6025009,0,1.0910034-0.4885025,1.0910034-1.0911026v-2.8064957
	C99.4337006,70.1768036,98.9451981,69.6884003,98.3426971,69.6884003z"/>
<path class="st6" d="M109.3539963,72.0416031c-3.345993,2.885498-6.359993,2.4042969-7.897995,2.1820984
	c-0.223999-0.0343018-0.4280014-0.1477051-0.5750046-0.319603c-0.1469955-0.1718979-0.2279968-0.3908005-0.2269974-0.6171951
	v-3.2657013c-0.0079956-0.2155991,0.0620041-0.4267044,0.1969986-0.5951004
	c0.1350021-0.1684036,0.3250046-0.2831039,0.5370026-0.3233032c3.2789993-0.4040985,4.2249985-1.4583969,4.2249985-1.4583969
	s1.3280029,0.6446991,3.737999,4.4081955"/>
<path class="st7" d="M52.7271004,77.2080002l-8.0243988,20.7049026c-0.1198006,0.3084946-0.1625023,0.6415939-0.1245003,0.9703979
	c0.0380974,0.3287964,0.1556969,0.6433029,0.3428001,0.9163971c0.1870995,0.2733002,0.4379997,0.4962997,0.7308998,0.6502991
	c0.2927971,0.1539993,0.6189003,0.2350006,0.9498978,0.2340012h10.7152023
	c0.2887001,0.0009995,0.5741997-0.060997,0.8373985-0.1790009c0.2631989-0.1189957,0.4980011-0.2929993,0.6888008-0.5093994
	l18.8700027-21.3641968c0.184494-0.2084045,0.324295-0.4525986,0.4105988-0.7172012
	c0.0863953-0.2647018,0.1175003-0.5441971,0.0915985-0.8214035c-0.026001-0.2770996-0.1086044-0.5459976-0.2426987-0.7899933
	c-0.1341019-0.2440033-0.316803-0.457901-0.5368042-0.6284027l-2.3876953-1.8495026
	c-0.2127991-0.1631012-0.4557037-0.2823944-0.7148056-0.3510971c-0.2590942-0.0688019-0.5292969-0.0855026-0.794899-0.0493011
	l-19.1766968,2.501503c-0.3626022,0.0469971-0.7058029,0.1908951-0.9934998,0.4164963
	C53.0806999,76.5681,52.8591995,76.8671036,52.7271004,77.2080002L52.7271004,77.2080002z"/>
<path class="st3" d="M43.4972,61.8734016c0,0-10.7352982,2.5932961-14.9871998,11.5232964l-11.3066006-7.3466949
	c0,0-2.6410999-2.7275047,1.1809998-3.9875031h16.0562019L43.4972,61.8734016z"/>
<path class="st11" d="M33.3544998,76.3884964c-0.6665001-0.3287964-1.3129005-0.6967926-1.9358997-1.1019974l-14.2157993-9.2457962
	c-1.8073006-1.1755066-0.9752998-3.9819031,1.1809998-3.9819031h72.4916992
	c1.3546982,0.0079002,2.7001953,0.224102,3.9891968,0.6409988c0,0,11.9162979,2.4244003,15.3602982,10.7794037"/>
<path class="st3" d="M23.6382008,67.6240997l-5.0180016,5.398201c-0.0835991,0.0900955-0.1390991,0.2026978-0.1596985,0.3238983
	c-0.0207005,0.1211014-0.0055008,0.2457047,0.0436993,0.3583984c0.0491009,0.1127014,0.1299992,0.2086029,0.2329006,0.276001
	c0.1027985,0.0673981,0.2229996,0.103302,0.3459988,0.103302h3.6441002c0.5972996,0.0000992,1.1879997-0.125,1.7339001-0.3673019
	l9.095602-4.0409012c0.1245995-0.0551987,0.2335968-0.1406937,0.3167992-0.2486954
	c0.0832977-0.1081009,0.1381989-0.2350998,0.1599007-0.3698044c0.0217972-0.1345978,0.0094986-0.2724991-0.0356026-0.4011993
	c-0.0450974-0.1287003-0.1215973-0.2440948-0.222599-0.3358002l-0.5270996-0.4794006
	c-0.1511002-0.1365967-0.3473015-0.2124939-0.5509987-0.2129974L23.6382008,67.6240997z"/>
<path class="st3" d="M16.1254997,53.4322014L20.0028,64.5500031h13.4780998l-8.7980003-10.8772049
	c-0.1819992-0.2259979-0.434-0.3849983-0.7162991-0.4517975l-6.3073997-1.4970016
	c-0.2284012-0.0527-0.4667015-0.0431976-0.6902008,0.027401c-0.2234993,0.0707016-0.4239006,0.1999016-0.5804996,0.3743019
	c-0.156601,0.1743965-0.2635994,0.3875999-0.3099003,0.6173973C16.0324001,52.9728012,16.0485992,53.2108002,16.1254997,53.4322014z
	"/>
<path class="st11" d="M33.0407982,64.3881989H19.8584003l-1.6659012-5.0290985"/>
<path class="st10" d="M21.3453999,70.0779037l2.2206993-2.3621063l7.4921017-0.0917969
	c0.5509987,0,1.7687988-0.1231003,2.2040977,0.2129974"/>
<path class="st10" d="M76.7434006,77.0662994L57.7789993,98.3634033"/>
<path class="st6" d="M92.6557999,84.3892975c1.2832031,0,2.3235016-1.0402985,2.3235016-2.323494
	c0-1.2832031-1.0402985-2.3235016-2.3235016-2.3235016c-1.2833023,0-2.3235016,1.0402985-2.3235016,2.3235016
	C90.3322983,83.348999,91.3724976,84.3892975,92.6557999,84.3892975z"/>
<path class="st2" d="M92.7076035,78.3907013v3.6753998"/>
<path class="st8" d="M19.7362003,57.6711998c0.1047001-0.0955009,0.1835995-0.1837006,0.2754993-0.2480011
	c0.0284004-0.0141983,0.0601997-0.0200005,0.0918007-0.0164986h0.8155003c0.0660992,0,0.1285992-0.009201,0.1267986-0.0918999
	c-0.0018997-0.0825996-0.0625-0.0900002-0.1285992-0.0900002h-0.6576004L20.2486,57.2046013
	c0.0238991-0.0183029,0.0459003-0.0385017,0.0680008-0.0587006l0.9182987-0.8156013
	c0.0918999-0.0807991,0.0918999-0.0807991,0.0165997-0.1835976c-0.0513992-0.0680008,0-0.0809021,0.0514011-0.0900002
	c0.1542988-0.0331001,0.3104-0.0643005,0.468399-0.0882034c0.4454002-0.0748978,0.8987007-0.0903969,1.3481998-0.0458984
	c0.3214016,0.0367012,0.639101,0.0973015,0.9569016,0.1561012c0.0644989,0.0116005,0.125,0.0393982,0.1757984,0.0808983
	c0.0508003,0.0414009,0.0902004,0.0951004,0.1144009,0.156002c0.0084991,0.0262985,0.0140991,0.0533981,0.0165005,0.0808983
	c-0.0270996,0.0063019-0.0548,0.0100021-0.0825996,0.0110016c-0.1470013-0.0110016-0.2921009-0.0312004-0.4390011-0.0368004
	c-0.1469002-0.0055008-0.2772999,0-0.4169006,0c-0.0276985,0.0025978-0.0534,0.0158005-0.0716991,0.0368004
	c0.0238991,0.0109978,0.0496006,0.0182991,0.0734997,0.0312004c0.1175003,0.0660973,0.2406006,0.1266975,0.3507996,0.2038994
	c0.0188999,0.0179977,0.0432014,0.0291977,0.0691013,0.0317993c0.0259991,0.0027008,0.0520992-0.0032997,0.0741997-0.0171013
	c0.2747993-0.149498,0.5939999-0.1956978,0.8999996-0.1303978c0.1814995,0.0436974,0.3437996,0.145298,0.4624996,0.2893982
	c0.1186008,0.1441994,0.1871014,0.3230019,0.1949997,0.5096016c0,0.1119995-0.0292988,0.1358986-0.1339989,0.0954971
	c-0.646801-0.2627983-1.3572998-0.3267975-2.0407009-0.1836967c-0.0569992,0.0034981-0.1127987,0.0186996-0.1637001,0.044899
	c-0.0507984,0.0261002-0.0956993,0.0625-0.1317997,0.1068993c-0.0361004,0.0443001-0.0625992,0.0956993-0.0777988,0.1507988
	c-0.0152016,0.0552025-0.0188007,0.1128006-0.0105,0.1694031c0,0.5510979,0,1.1020966-0.0129013,1.6660004
	c-0.0115986,0.1579971-0.0368004,0.3146973-0.0753002,0.4682999c-0.0073986,0.0149994-0.0182991,0.0279999-0.0317001,0.037899
	c-0.0133991,0.0098991-0.0289993,0.0163994-0.0454998,0.0191002c-0.8724003,0-1.743,0-2.613699,0
	c-0.0158005,0.0014992-0.0318012,0.0014992-0.0477009,0v-0.2626991h0.1102009h2.1709995
	c0.0258007,0,0.0587997,0.0091972,0.0771999,0c0.0184002-0.009201,0.0753002-0.0551033,0.0753002-0.0826035
	c0-0.0275993-0.0440998-0.0642967-0.0753002-0.0863991c-0.0312004-0.0219994-0.0513992,0-0.0771999,0h-2.1709995H20.1145v-0.2663002
	h0.1102009h2.1618996c0.0293999,0,0.0660992,0,0.0844994,0c0.0335999-0.0207977,0.0578995-0.0536003,0.0678997-0.0918007
	c0-0.0275993-0.0422001-0.0606003-0.0716-0.0807991s-0.0513992,0-0.0770988,0h-3.0307007h-0.1102009v-0.2663994h0.1066017h2.2921982
	c0.0294018,0,0.0661011,0.009201,0.0863018,0c0.0201988-0.009201,0.0642986-0.0569,0.0625-0.0862999
	c-0.0018005-0.0293999-0.0367012-0.0661011-0.0680008-0.0807991c-0.0338001-0.0076027-0.0690002-0.0076027-0.1028004,0h-2.2481995
	h-0.1266994c0-0.0827026,0-0.1525002,0-0.2204018c0-0.0183983,0.0311985-0.0386009,0.0531998-0.0477982
	c0.0224991-0.0037003,0.0454998-0.0037003,0.0679989,0h2.2756996c0.0257015,0,0.0588017,0,0.0753002,0
	c0.0166016,0,0.0735016-0.0550995,0.0735016-0.0825996c0-0.0276031-0.0404015-0.0643005-0.0716-0.0864029
	c-0.0313015-0.0219994-0.0515003,0-0.0772018,0H19.3743h-0.1009998v-0.0201988
	c0.0881996-0.0770988,0.172699-0.1578979,0.2626991-0.2313995c0.0286999-0.0130005,0.0606003-0.0173988,0.0918007-0.0129013
	h1.3370991c0.0588017,0,0.0956001-0.0293007,0.0956001-0.0900002c0-0.0606003-0.038599-0.0900002-0.101099-0.0900002h-1.2084999
	L19.7362003,57.6711998z"/>
<path class="st8" d="M23.1310997,58.4866982c0-0.2166977,0-0.4333992,0-0.6501999
	c-0.0051994-0.0756989,0.0100994-0.1512985,0.0440998-0.2190971c0.0340996-0.0678024,0.085701-0.1252022,0.1494007-0.1663017
	c0.0637989-0.0410004,0.1373997-0.0643005,0.2131996-0.0671997c0.0757999-0.0029984,0.151001,0.0144005,0.2178001,0.0503998
	c0.1229992,0.0569,0.2423992,0.1194,0.3673,0.1725998C24.1396999,57.6142006,24.1578999,57.618,24.1762009,57.618
	c0.0182991,0,0.0363998-0.0037994,0.0531998-0.0111008c0.0753002-0.0440979,0.1432991-0.0991974,0.2148991-0.1469002
	c0.1047001-0.0715981,0.1928997-0.0569,0.2425003,0.0569c0.1224003,0.2915001,0.2406006,0.5853004,0.3544998,0.8817024
	c0.0366993,0.0972977,0,0.1450996-0.0991993,0.1707993c-0.0085011,0.0008011-0.0172005,0.0008011-0.0256996,0
	c-0.2278004,0.0183983-0.2057018,0.0513992-0.2076015,0.2497978v0.4628029
	c0.0043011,0.0459976-0.0009003,0.0922966-0.0151997,0.136097c-0.0144005,0.0439034-0.0377007,0.084301-0.0683002,0.1187019
	c-0.0306988,0.0345001-0.0681,0.0622978-0.1099987,0.0816002c-0.0419006,0.0193977-0.0873013,0.0298996-0.1334,0.0309982
	c-0.2797012,0.016201-0.5601006,0.0132027-0.8394012-0.0091972c-0.1176987-0.0142021-0.2257004-0.0721016-0.302599-0.1623001
	c-0.0769005-0.0902023-0.1170998-0.2060013-0.1125011-0.3244019v-0.009201
	C23.1292,58.9257011,23.1310997,58.7070999,23.1310997,58.4866982z"/>
<path class="st8" d="M20.9715004,60.3418007v-0.2498016h1.7724991c-0.0679989,0.0900002-0.1285992,0.1690025-0.1836987,0.2443008
	c0,0.0110016-0.0368004,0.0129013-0.0551014,0.0129013h-1.5005989L20.9715004,60.3418007z"/>
<path class="st8" d="M20.969101,60.7971992v-0.2644997h1.3536987C21.9057999,60.8522987,21.4375,60.8027,20.969101,60.7971992z"/>
<path class="st12" d="M57.7789993,66.3014984c0,0,11.0971985-0.9789963,17.8616028,3.8863983
	c6.7644958,4.865303,17.8634949,2.396904,17.8634949,2.396904"/>
<path class="st6" d="M84.9812012,67.3869019h-2.2262039c-0.6025009,0-1.0909958,0.4884949-1.0909958,1.0909958v6.0613022
	c0,0.6026001,0.4884949,1.0910034,1.0909958,1.0910034h2.2262039c0.6025009,0,1.0909958-0.4884033,1.0909958-1.0910034v-6.0613022
	C86.072197,67.8753967,85.5837021,67.3869019,84.9812012,67.3869019z"/>
<path class="st6" d="M70.6113968,67.9085999h-2.0811005c-0.6024933,0-1.0909958,0.4885025-1.0909958,1.0911026v2.6118011
	c0,0.6026001,0.4885025,1.091095,1.0909958,1.091095h2.0811005c0.6025009,0,1.0910034-0.4884949,1.0910034-1.091095v-2.6118011
	C71.7024002,68.3971024,71.2138977,67.9085999,70.6113968,67.9085999z"/>
<path class="st6" d="M76.2225037,67.7910995h-2.0810013c-0.6026001,0-1.0911026,0.4884033-1.0911026,1.0910034v2.6119003
	c0,0.6024933,0.4885025,1.0909958,1.0911026,1.0909958h2.0810013c0.6026001,0,1.0909958-0.4885025,1.0909958-1.0909958V68.882103
	C77.3134995,68.2795029,76.8251038,67.7910995,76.2225037,67.7910995z"/>
<path class="st9" d="M73.3302002,90.5936966H68.9459l3.836998-4.6800003L71.5541,85.889801l-6.3478012,7.1688995
	l7.4829025,0.0128021c0,0,0.6409988,0.0697937,0.6409988-0.6667023V90.5936966z"/>
<path class="st9" d="M44.6654015,51.6559982l7.6794968,10.2234001h-3.0452995L44.6654015,51.6559982z"/>
<path class="st9" d="M77.7111969,76.2304001l-21.6084976,24.267601l1.3959007,0.0130005
	c0,0,0.8981018-0.1279984,1.2857018-0.7343979l18.9104004-21.3936005
	C77.6947021,78.3830032,78.5138016,77.2809982,77.7111969,76.2304001z"/>
<path class="st13" d="M123.9260025,115.4909973l-16.0019989-27.0865936c-1.6790009-2.8470001-5.9550018-2.8470001-7.6340027,0
	l-16.0158997,27.0865936c-1.6651001,2.8069992,0.4656982,6.3040009,3.8098984,6.3040009h32.0179977
	C123.473999,121.7949982,125.5770035,118.2979965,123.9260025,115.4909973z"/>
<path class="st14" d="M104.098999,96.754303v12.2686996"/>
<path class="st14" d="M104.098999,114.3789978v0.4200058"/>
</svg>
