<?xml version="1.0" encoding="utf-8"?>
<!-- Generator: Adobe Illustrator 25.4.1, SVG Export Plug-In . SVG Version: 6.00 Build 0)  -->
<svg version="1.1" id="Layer_1" xmlns="http://www.w3.org/2000/svg" xmlns:xlink="http://www.w3.org/1999/xlink" x="0px" y="0px"
	 viewBox="0 0 128 127" style="enable-background:new 0 0 128 127;" xml:space="preserve">
<style type="text/css">
	.st0{fill:#E7F4F9;}
	.st1{fill:none;stroke:#007CC2;stroke-opacity:0.2;}
	.st2{fill-rule:evenodd;clip-rule:evenodd;fill:#007CC2;}
	.st3{fill:#007CC2;stroke:#007CC2;stroke-width:2;stroke-linecap:round;stroke-linejoin:round;}
	.st4{fill-rule:evenodd;clip-rule:evenodd;fill:#E7F4F9;}
	.st5{fill:#FBAF28;stroke:#FBAF28;stroke-width:1.46413;stroke-linecap:round;stroke-linejoin:round;stroke-miterlimit:10;}
	.st6{fill:none;stroke:#0B2343;stroke-width:2.2;stroke-linecap:round;stroke-linejoin:round;stroke-miterlimit:10;}
</style>
<circle class="st0" cx="62" cy="62" r="62"/>
<circle class="st1" cx="62" cy="62" r="61.5"/>
<path class="st2" d="M89.4095001,59.4645996c0.2874985-0.4715996,0.9028015-0.6208,1.3743973-0.3332977
	c3.6240997,2.2095985,5.2955017,6.9908981,4.8399048,11.3289948c-0.4387054,4.1773071-2.8815002,8.2294006-7.7627029,9.4822006
	v4.1211014c0,1.8066025-1.4640961,3.3078995-3.3078995,3.3078995H43.3199997c-1.8065987,0-3.3078003-1.4640961-3.3078003-3.3078995
	v-1.7370987c0-0.5522995,0.4477005-1,1-1s1,0.4477005,1,1v1.7370987c0,0.7258987,0.5923996,1.3078995,1.3078003,1.3078995
	h41.2332001c0.7258987,0,1.3078995-0.5923996,1.3078995-1.3078995V79.138298c0-0.4830017,0.3452988-0.8969955,0.8205032-0.983696
	c4.3494949-0.7938004,6.5593948-4.1534042,6.9532013-7.9031982c0.400795-3.8169022-1.1161041-7.720005-3.8921051-9.4124031
	C89.2712021,60.5514984,89.1220016,59.9361,89.4095001,59.4645996z"/>
<path class="st3" d="M76.0831985,40.094101l-1.1894989-4.6159019c-0.3094025-1.1895981-1.5227966-1.9032974-2.7126007-1.593998
	l-38.7108994,9.9692001c-1.1895981,0.3092995-1.9032001,1.5226974-1.5938988,2.7123985l1.1895981,4.615799
	c-9.4694996,4.2590027-5.4962997,20.0097008,4.9249992,19.1769981l1.1897011,4.6159058
	c0.3092995,1.1894989,1.5227013,1.9033966,2.7124023,1.5939941l38.7109947-9.9690933
	c1.1895065-0.3094025,1.9032059-1.5229034,1.5938034-2.7126045l-1.1894989-4.6156998
	C90.4064026,54.9169998,86.385498,39.3326988,76.0831985,40.094101z"/>
<path class="st4" d="M63.2178993,50.5699005l-0.1380997,0.0253983c-2.2672005-1.577198-4.0606995-2.8381004-5.4892006-3.8423996
	c-1.854599-1.3038979-3.093998-2.1751976-3.9557991-2.7443008c-0.7649994-0.5050964-1.2733994-0.8002968-1.6720009-0.9434967
	c-0.2081985-0.0748024-0.396698-0.1123009-0.5844002-0.1149025c-0.1856003-0.0024986-0.348999,0.0294991-0.4993973,0.0679016
	l-1.0680008,0.2724991c-0.1450005,0.0369987-0.2609024,0.1456985-0.3071022,0.288002
	c-0.0461998,0.1422997-0.0163994,0.2982979,0.0792007,0.4134979l7.0820999,8.5349007l-5.8199005,1.9491005l-3.2072983-2.1263008
	c-0.1028023-0.0681992-0.229599-0.0895996-0.348999-0.0592003l-2.0433998,0.5214005
	c-0.1557007,0.0397987-0.2770004,0.1618996-0.3157005,0.3177986c-0.0386009,0.156002,0.0116005,0.3206024,0.1306992,0.4285011
	l3.5461006,3.2108002l-1.4762001,4.9067001c-0.0454025,0.1506996-0.0060997,0.3140984,0.1027985,0.4276009
	c0.108902,0.1135979,0.2705002,0.1597977,0.4229012,0.1208992l2.0433006-0.5214005
	c0.1194992-0.0304985,0.2203979-0.1100998,0.2779999-0.219101l1.7964973-3.4031982l6.0435028-1.0779991L55.7020988,67.938797
	c-0.0282974,0.1468048,0.020401,0.2978058,0.1291008,0.4004059c0.1086998,0.1025009,0.2624016,0.1421967,0.4071999,0.1053009
	l1.0646019-0.2717056c0.1481972-0.0365982,0.3078003-0.0850983,0.4684982-0.1738968
	c0.1636009-0.0904007,0.3109016-0.211998,0.4575996-0.3759003c0.2803001-0.3134003,0.5838013-0.8131027,1.0121994-1.6203003
	c0.4874001-0.9185028,1.1655006-2.2933006,2.1855011-4.3613014c0.7684021-1.5578003,1.7308998-3.5093002,2.9519005-5.9548988
	l0.1811981-0.0587997c0.7434006-0.240799,1.8219986-0.5902023,2.7141037-1.0790024
	c0.5242004-0.2871971,1.0245972-0.6431999,1.3608017-1.0884972c0.3480988-0.4611015,0.5209961-1.0230026,0.3577957-1.6625023
	l-0.4910965-0.0998993l0,0l0.4910965,0.0998993c-0.1576996-0.6184006-0.5557022-1.0247002-1.0631027-1.2656975
	c-0.4893951-0.2324028-1.0781937-0.3121033-1.6629944-0.3198013C65.2331009,50.1987,64.0733032,50.4123001,63.2178993,50.5699005z
	 M64.2449036,50.8321991L64.2449036,50.8321991z"/>
<path class="st5" d="M124.4710007,116.4700012l-16.137001-27.3167038c-1.6930008-2.8710938-6.0049973-2.8710938-7.6989975,0
	L84.483902,116.4700012c-1.6791,2.8300018,0.469696,6.3570023,3.8423004,6.3570023h32.2887955
	C124.0159988,122.8270035,126.1360016,119.3000031,124.4710007,116.4700012z"/>
<path class="st6" d="M104.4769974,97.5740967v12.3729019"/>
<path class="st6" d="M104.4769974,115.3479996v0.4230042"/>
</svg>
