<?xml version="1.0" encoding="utf-8"?>
<!-- Generator: Adobe Illustrator 19.1.0, SVG Export Plug-In . SVG Version: 6.00 Build 0)  -->
<svg version="1.1" id="Layer_1" xmlns="http://www.w3.org/2000/svg" xmlns:xlink="http://www.w3.org/1999/xlink" x="0px" y="0px"
	 viewBox="0 0 24 22" enable-background="new 0 0 24 22" xml:space="preserve">
<g>
	<g>
		<path d="M21,22H3c-1.1,0-2-0.6-2.6-1.5c-0.5-0.9-0.5-2,0-3l9-16C9.9,0.6,10.9,0,12,0c0,0,0,0,0,0c1.1,0,2.1,0.6,2.6,1.5l9,16l0,0
			c0.5,0.9,0.5,2.1,0,3C23.1,21.4,22.1,22,21,22z M12,1c-0.7,0-1.4,0.4-1.7,1l-9,16c-0.4,0.6-0.3,1.4,0,2c0.4,0.6,1,1,1.7,1h18
			c0.7,0,1.3-0.4,1.7-1c0.4-0.6,0.4-1.4,0-2l-9-16C13.4,1.4,12.7,1,12,1C12,1,12,1,12,1z"/>
	</g>
	<g>
		<path d="M12,14.5c-0.3,0-0.5-0.2-0.5-0.5V6.7c0-0.3,0.2-0.5,0.5-0.5c0.3,0,0.5,0.2,0.5,0.5v7.2C12.5,14.2,12.3,14.5,12,14.5z"/>
	</g>
	<g>
		<path d="M12,17.9c-0.3,0-0.5-0.2-0.5-0.5v-0.3c0-0.3,0.2-0.5,0.5-0.5c0.3,0,0.5,0.2,0.5,0.5v0.3C12.5,17.6,12.3,17.9,12,17.9z"/>
	</g>
</g>
</svg>
