<svg width="20" height="20" viewBox="0 0 20 20" fill="none" xmlns="http://www.w3.org/2000/svg">
<g clip-path="url(#clip0_503_31399)">
<path d="M7 16V18" stroke="#5A5095" stroke-linecap="round"/>
<path d="M13 16V18" stroke="#5A5095" stroke-linecap="round"/>
<path d="M7 17L13 17" stroke="#5A5095" stroke-linecap="round"/>
<path d="M1.09489 9.36898L1.75089 13.241H5.35889C6.07889 13.241 6.14289 14.249 5.35889 14.249H0.750888L0.00688796 9.53697C-0.041112 9.23297 0.166889 8.95297 0.470889 8.91297C0.766889 8.88097 1.03889 9.08098 1.09489 9.36898ZM3.36689 4.00097C2.81489 3.97697 2.35089 4.40097 2.32689 4.95297C2.30289 5.50497 2.72689 5.96897 3.27889 5.99297C3.83089 6.01697 4.29489 5.59297 4.31889 5.04097C4.34289 4.48897 3.91889 4.02497 3.36689 4.00097ZM7.93489 14.937C8.22289 14.937 8.43889 14.673 8.37489 14.393L7.76689 11.545C7.63889 10.937 7.09489 10.497 6.47089 10.497H5.15089C5.05489 10.497 4.96689 10.425 4.95089 10.329L4.43889 7.84097C4.33489 7.36097 3.91089 7.01697 3.42289 7.01697C2.77489 7.01697 2.28689 7.60097 2.39889 8.24097L2.98289 11.545C2.98289 11.737 3.13489 11.889 3.32689 11.889H6.39089C6.67889 11.889 6.93489 12.089 6.99889 12.369L7.50289 14.585C7.54289 14.793 7.72689 14.937 7.93489 14.937Z" fill="#53448F"/>
<path d="M13.0949 9.36898L13.7509 13.241H17.3589C18.0789 13.241 18.1429 14.249 17.3589 14.249H12.7509L12.0069 9.53697C11.9589 9.23297 12.1669 8.95297 12.4709 8.91297C12.7669 8.88097 13.0389 9.08098 13.0949 9.36898ZM15.3669 4.00097C14.8149 3.97697 14.3509 4.40097 14.3269 4.95297C14.3029 5.50497 14.7269 5.96897 15.2789 5.99297C15.8309 6.01697 16.2949 5.59297 16.3189 5.04097C16.3429 4.48897 15.9189 4.02497 15.3669 4.00097ZM19.9349 14.937C20.2229 14.937 20.4389 14.673 20.3749 14.393L19.7669 11.545C19.6389 10.937 19.0949 10.497 18.4709 10.497H17.1509C17.0549 10.497 16.9669 10.425 16.9509 10.329L16.4389 7.84097C16.3349 7.36097 15.9109 7.01697 15.4229 7.01697C14.7749 7.01697 14.2869 7.60097 14.3989 8.24097L14.9829 11.545C14.9829 11.737 15.1349 11.889 15.3269 11.889H18.3909C18.6789 11.889 18.9349 12.089 18.9989 12.369L19.5029 14.585C19.5429 14.793 19.7269 14.937 19.9349 14.937Z" fill="#53448F"/>
</g>
<defs>
<clipPath id="clip0_503_31399">
<rect width="20" height="20" fill="white"/>
</clipPath>
</defs>
</svg>
