<svg width="20" height="20" viewBox="0 0 20 20" fill="none" xmlns="http://www.w3.org/2000/svg">
<g clip-path="url(#clip0_503_31353)">
<path d="M2 16V18" stroke="#5A5095" stroke-linecap="round"/>
<path d="M14 16V18" stroke="#5A5095" stroke-linecap="round"/>
<path d="M2 17L14 17" stroke="#5A5095" stroke-linecap="round"/>
<path d="M2.09489 9.36898L2.75089 13.241H6.35889C7.07889 13.241 7.14289 14.249 6.35889 14.249H1.75089L1.00689 9.53697C0.958888 9.23297 1.16689 8.95297 1.47089 8.91297C1.76689 8.88097 2.03889 9.08098 2.09489 9.36898ZM4.36689 4.00097C3.81489 3.97697 3.35089 4.40097 3.32689 4.95297C3.30289 5.50497 3.72689 5.96897 4.27889 5.99297C4.83089 6.01697 5.29489 5.59297 5.31889 5.04097C5.34289 4.48897 4.91889 4.02497 4.36689 4.00097ZM8.93489 14.937C9.22289 14.937 9.43889 14.673 9.37489 14.393L8.76689 11.545C8.63889 10.937 8.09489 10.497 7.47089 10.497H6.15089C6.05489 10.497 5.96689 10.425 5.95089 10.329L5.43889 7.84097C5.33489 7.36097 4.91089 7.01697 4.42289 7.01697C3.77489 7.01697 3.28689 7.60097 3.39889 8.24097L3.98289 11.545C3.98289 11.737 4.13489 11.889 4.32689 11.889H7.39089C7.67889 11.889 7.93489 12.089 7.99889 12.369L8.50289 14.585C8.54289 14.793 8.72689 14.937 8.93489 14.937Z" fill="#53448F"/>
<path d="M14.0949 9.36898L14.7509 13.241H18.3589C19.0789 13.241 19.1429 14.249 18.3589 14.249H13.7509L13.0069 9.53697C12.9589 9.23297 13.1669 8.95297 13.4709 8.91297C13.7669 8.88097 14.0389 9.08098 14.0949 9.36898ZM16.3669 4.00097C15.8149 3.97697 15.3509 4.40097 15.3269 4.95297C15.3029 5.50497 15.7269 5.96897 16.2789 5.99297C16.8309 6.01697 17.2949 5.59297 17.3189 5.04097C17.3429 4.48897 16.9189 4.02497 16.3669 4.00097ZM20.9349 14.937C21.2229 14.937 21.4389 14.673 21.3749 14.393L20.7669 11.545C20.6389 10.937 20.0949 10.497 19.4709 10.497H18.1509C18.0549 10.497 17.9669 10.425 17.9509 10.329L17.4389 7.84097C17.3349 7.36097 16.9109 7.01697 16.4229 7.01697C15.7749 7.01697 15.2869 7.60097 15.3989 8.24097L15.9829 11.545C15.9829 11.737 16.1349 11.889 16.3269 11.889H19.3909C19.6789 11.889 19.9349 12.089 19.9989 12.369L20.5029 14.585C20.5429 14.793 20.7269 14.937 20.9349 14.937Z" fill="#53448F"/>
</g>
<defs>
<clipPath id="clip0_503_31353">
<rect width="20" height="20" fill="white"/>
</clipPath>
</defs>
</svg>
