<svg width="40" height="40" viewBox="0 0 40 40" fill="none" xmlns="http://www.w3.org/2000/svg">
<path d="M20 38C29.9411 38 38 29.9411 38 20C38 10.0589 29.9411 2 20 2C10.0589 2 2 10.0589 2 20C2 29.9411 10.0589 38 20 38Z" stroke="#0B2343" stroke-miterlimit="10" stroke-linecap="round" stroke-linejoin="round"/>
<path d="M11.7582 18.1511H21.8096" stroke="#0B2343" stroke-linecap="round" stroke-linejoin="round"/>
<path d="M11.7582 21.9314H21.8096" stroke="#0B2343" stroke-linecap="round" stroke-linejoin="round"/>
<path d="M26.9041 14.1957C25.5522 11.9301 23.4493 10.4656 21.0961 10.4656C17.028 10.4656 13.7234 14.7965 13.7234 20.1539C13.7234 25.4988 17.028 29.8423 21.0961 29.8423C23.562 29.8423 25.7525 28.2526 27.0918 25.7992" stroke="#0B2343" stroke-linecap="round" stroke-linejoin="round"/>
</svg>
