<svg width="25" height="25" viewBox="0 0 25 25" fill="none" xmlns="http://www.w3.org/2000/svg">
<path d="M10.9406 10.1665L5.66109 16.2003C5.38297 16.5161 4.90688 16.5444 4.59576 16.271C4.27994 15.9976 4.25165 15.5215 4.52506 15.2056L9.80455 9.17193C9.9554 9.00223 10.1628 8.91267 10.3702 8.91267C10.5446 8.91267 10.7238 8.97395 10.8699 9.10122C11.181 9.37934 11.214 9.85543 10.9406 10.1665Z" fill="#0B2343"/>
<path d="M13.8679 23.8264C13.6982 23.9678 13.4672 24.0291 13.2457 23.9867L1.17823 21.724C0.824691 21.658 0.56543 21.3469 0.56543 20.9839V4.39124C0.56543 4.02828 0.824691 3.71716 1.18294 3.65117L13.2504 1.38853C13.2975 1.3791 13.3446 1.37439 13.3871 1.37439C13.5615 1.37439 13.7312 1.43567 13.8679 1.5488C14.0423 1.69022 14.1413 1.90705 14.1413 2.1286V23.2466C14.1413 23.4728 14.0423 23.685 13.8679 23.8264ZM12.6329 3.03837L2.07386 5.01818V20.357L12.6329 22.3368V3.03837Z" fill="#0B2343"/>
<path d="M23.9463 20.9849H13.3873C12.9725 20.9849 12.6331 20.6455 12.6331 20.2306C12.6331 19.8158 12.9725 19.4764 13.3873 19.4764H23.1921V5.90059H13.3873C12.9725 5.90059 12.6331 5.56119 12.6331 5.14637C12.6331 4.73156 12.9725 4.39216 13.3873 4.39216H23.9463C24.3611 4.39216 24.7005 4.73156 24.7005 5.14637V20.2306C24.7005 20.6502 24.3611 20.9849 23.9463 20.9849Z" fill="#0B2343"/>
<path d="M16.4041 17.9683H13.3873C12.9725 17.9683 12.6331 17.6289 12.6331 17.214C12.6331 16.7992 12.9725 16.4598 13.3873 16.4598H16.4041C16.8189 16.4598 17.1583 16.7992 17.1583 17.214C17.1583 17.6289 16.8189 17.9683 16.4041 17.9683Z" fill="#0B2343"/>
<path d="M16.4041 14.951H13.3873C12.9725 14.951 12.6331 14.6117 12.6331 14.1968C12.6331 13.782 12.9725 13.4426 13.3873 13.4426H16.4041C16.8189 13.4426 17.1583 13.782 17.1583 14.1968C17.1583 14.6117 16.8189 14.951 16.4041 14.951Z" fill="#0B2343"/>
<path d="M16.4041 11.9344H13.3873C12.9725 11.9344 12.6331 11.5951 12.6331 11.1802C12.6331 10.7654 12.9725 10.426 13.3873 10.426H16.4041C16.8189 10.426 17.1583 10.7654 17.1583 11.1802C17.1583 11.5951 16.8189 11.9344 16.4041 11.9344Z" fill="#0B2343"/>
<path d="M16.4041 8.9176H13.3873C12.9725 8.9176 12.6331 8.57821 12.6331 8.16339C12.6331 7.74857 12.9725 7.40917 13.3873 7.40917H16.4041C16.8189 7.40917 17.1583 7.74857 17.1583 8.16339C17.1583 8.57821 16.8189 8.9176 16.4041 8.9176Z" fill="#0B2343"/>
<path d="M20.9291 17.9683H19.4207C19.0059 17.9683 18.6665 17.6289 18.6665 17.214C18.6665 16.7992 19.0059 16.4598 19.4207 16.4598H20.9291C21.344 16.4598 21.6834 16.7992 21.6834 17.214C21.6834 17.6289 21.344 17.9683 20.9291 17.9683Z" fill="#0B2343"/>
<path d="M20.9291 14.951H19.4207C19.0059 14.951 18.6665 14.6117 18.6665 14.1968C18.6665 13.782 19.0059 13.4426 19.4207 13.4426H20.9291C21.344 13.4426 21.6834 13.782 21.6834 14.1968C21.6834 14.6117 21.344 14.951 20.9291 14.951Z" fill="#0B2343"/>
<path d="M20.9291 11.9344H19.4207C19.0059 11.9344 18.6665 11.5951 18.6665 11.1802C18.6665 10.7654 19.0059 10.426 19.4207 10.426H20.9291C21.344 10.426 21.6834 10.7654 21.6834 11.1802C21.6834 11.5951 21.344 11.9344 20.9291 11.9344Z" fill="#0B2343"/>
<path d="M20.9291 8.9176H19.4207C19.0059 8.9176 18.6665 8.57821 18.6665 8.16339C18.6665 7.74857 19.0059 7.40917 19.4207 7.40917H20.9291C21.344 7.40917 21.6834 7.74857 21.6834 8.16339C21.6834 8.57821 21.344 8.9176 20.9291 8.9176Z" fill="#0B2343"/>
<path d="M10.8322 17.0538C10.5023 17.3131 10.0309 17.2518 9.77163 16.9219L4.49213 10.1339C4.23759 9.80396 4.29415 9.32786 4.62412 9.07332C4.76082 8.9649 4.92581 8.91305 5.08608 8.91305C5.30763 8.91305 5.53389 9.01204 5.68002 9.20059L10.9595 15.9885C11.2188 16.3279 11.1622 16.7993 10.8322 17.0538Z" fill="#0B2343"/>
</svg>
