<svg width="25" height="25" viewBox="0 0 25 25" fill="none" xmlns="http://www.w3.org/2000/svg">
<path d="M13.7793 24.2567C13.6035 24.4032 13.3642 24.4666 13.1347 24.4227L0.634764 22.079C0.268554 22.0106 0 21.6883 0 21.3124V4.12493C0 3.74896 0.268554 3.42669 0.639646 3.35833L13.1396 1.01459C13.1884 1.00483 13.2373 0.999945 13.2812 0.999945C13.4619 0.999945 13.6376 1.06342 13.7793 1.18061C13.9599 1.32709 14.0625 1.5517 14.0625 1.78119V23.6561C14.0625 23.8905 13.9599 24.1102 13.7793 24.2567Z" fill="#0B2343"/>
<path d="M24.2187 21.3132H13.2812C12.8516 21.3132 12.5 20.9617 12.5 20.532C12.5 20.1023 12.8516 19.7507 13.2812 19.7507H23.4375V12.7195V5.68829H13.2812C12.8516 5.68829 12.5 5.33673 12.5 4.90704C12.5 4.47736 12.8516 4.1258 13.2812 4.1258H24.2187C24.6484 4.1258 25 4.47736 25 4.90704V20.532C25 20.9666 24.6484 21.3132 24.2187 21.3132Z" fill="#0B2343"/>
<path d="M16.4062 18.1885H13.2812C12.8516 18.1885 12.5 17.8369 12.5 17.4072C12.5 16.9775 12.8516 16.626 13.2812 16.626H16.4062C16.8359 16.626 17.1875 16.9775 17.1875 17.4072C17.1875 17.8369 16.8359 18.1885 16.4062 18.1885Z" fill="#0B2343"/>
<path d="M16.4062 15.0632H13.2812C12.8516 15.0632 12.5 14.7117 12.5 14.282C12.5 13.8523 12.8516 13.5007 13.2812 13.5007H16.4062C16.8359 13.5007 17.1875 13.8523 17.1875 14.282C17.1875 14.7117 16.8359 15.0632 16.4062 15.0632Z" fill="#0B2343"/>
<path d="M16.4062 11.9386H13.2812C12.8516 11.9386 12.5 11.587 12.5 11.1574C12.5 10.7277 12.8516 10.3761 13.2812 10.3761H16.4062C16.8359 10.3761 17.1875 10.7277 17.1875 11.1574C17.1875 11.587 16.8359 11.9386 16.4062 11.9386Z" fill="#0B2343"/>
<path d="M16.4062 8.81335H13.2812C12.8516 8.81335 12.5 8.46179 12.5 8.03211C12.5 7.60242 12.8516 7.25086 13.2812 7.25086H16.4062C16.8359 7.25086 17.1875 7.60242 17.1875 8.03211C17.1875 8.46179 16.8359 8.81335 16.4062 8.81335Z" fill="#0B2343"/>
<path d="M21.0937 18.1885H19.5312C19.1016 18.1885 18.75 17.8369 18.75 17.4072C18.75 16.9775 19.1016 16.626 19.5312 16.626H21.0937C21.5234 16.626 21.875 16.9775 21.875 17.4072C21.875 17.8369 21.5234 18.1885 21.0937 18.1885Z" fill="#0B2343"/>
<path d="M21.0937 15.0632H19.5312C19.1016 15.0632 18.75 14.7117 18.75 14.282C18.75 13.8523 19.1016 13.5007 19.5312 13.5007H21.0937C21.5234 13.5007 21.875 13.8523 21.875 14.282C21.875 14.7117 21.5234 15.0632 21.0937 15.0632Z" fill="#0B2343"/>
<path d="M21.0937 11.9386H19.5312C19.1016 11.9386 18.75 11.587 18.75 11.1574C18.75 10.7277 19.1016 10.3761 19.5312 10.3761H21.0937C21.5234 10.3761 21.875 10.7277 21.875 11.1574C21.875 11.587 21.5234 11.9386 21.0937 11.9386Z" fill="#0B2343"/>
<path d="M21.0937 8.81335H19.5312C19.1016 8.81335 18.75 8.46179 18.75 8.03211C18.75 7.60242 19.1016 7.25086 19.5312 7.25086H21.0937C21.5234 7.25086 21.875 7.60242 21.875 8.03211C21.875 8.46179 21.5234 8.81335 21.0937 8.81335Z" fill="#0B2343"/>
<path d="M10.7471 10.1071L5.27834 16.357C4.99026 16.6842 4.4971 16.7135 4.17483 16.4303C3.84768 16.1471 3.81839 15.6539 4.10159 15.3268L9.57032 9.07678C9.72657 8.901 9.94141 8.80823 10.1563 8.80823C10.3369 8.80823 10.5225 8.87171 10.6738 9.00354C10.9961 9.29163 11.0303 9.78479 10.7471 10.1071Z" fill="white"/>
<path d="M10.6348 17.3315C10.293 17.6001 9.80469 17.5366 9.53614 17.1948L4.06741 10.1636C3.80374 9.82178 3.86233 9.32862 4.20413 9.06495C4.34573 8.95265 4.51663 8.89894 4.68264 8.89894C4.91213 8.89894 5.14651 9.00148 5.29787 9.19679L10.7666 16.228C11.0352 16.5796 10.9766 17.0678 10.6348 17.3315Z" fill="white"/>
</svg>
