<svg width="25" height="25" viewBox="0 0 25 25" fill="none" xmlns="http://www.w3.org/2000/svg">
<path d="M23.9301 11.7329C23.8833 11.6211 23.8164 11.5193 23.7312 11.4341L20.9821 8.685C20.6237 8.3275 20.0443 8.3275 19.6859 8.685C19.3275 9.0434 19.3275 9.62365 19.6859 9.98115L20.8712 11.1664H15.7506C15.2437 11.1664 14.834 11.5771 14.834 12.0831C14.834 12.5891 15.2437 12.9997 15.7506 12.9997H20.8711L19.6859 14.185C19.3275 14.5434 19.3275 15.1236 19.6859 15.4811C19.8646 15.6608 20.0993 15.7497 20.334 15.7497C20.5687 15.7497 20.8033 15.6608 20.9821 15.4811L23.7312 12.732C23.8164 12.6477 23.8833 12.5459 23.9301 12.4332C24.0226 12.2096 24.0226 11.9566 23.9301 11.7329Z" fill="#0B2343"/>
<path d="M17.5845 14.8333C17.0776 14.8333 16.6679 15.244 16.6679 15.75V20.3333H13.0012V5.66665C13.0012 5.2624 12.7354 4.9049 12.3476 4.7885L9.16402 3.83335H16.6679V8.4167C16.6679 8.9227 17.0776 9.33335 17.5845 9.33335C18.0914 9.33335 18.5012 8.9227 18.5012 8.4167V2.9167C18.5012 2.41065 18.0914 2 17.5845 2H2.91787C2.88487 2 2.85553 2.01375 2.82347 2.0174C2.78037 2.022 2.74097 2.0293 2.69972 2.0394C2.60347 2.06415 2.51637 2.10175 2.43482 2.15305C2.41467 2.1659 2.38992 2.1668 2.37067 2.18146C2.36328 2.187 2.36053 2.1971 2.35318 2.2026C2.25328 2.2814 2.16987 2.37765 2.10937 2.49225C2.09653 2.517 2.09378 2.5436 2.08372 2.56925C2.05437 2.6389 2.02232 2.70675 2.01132 2.78375C2.00672 2.81125 2.01497 2.8369 2.01407 2.8635C2.01317 2.88185 2.00122 2.89835 2.00122 2.91665V21.25C2.00122 21.6873 2.31012 22.0631 2.73822 22.1483L11.9049 23.9817C11.9645 23.9945 12.025 24 12.0845 24C12.2944 24 12.5007 23.9276 12.6657 23.7919C12.8774 23.6178 13.0012 23.3583 13.0012 23.0833V22.1667H17.5845C18.0914 22.1667 18.5012 21.756 18.5012 21.25V15.75C18.5012 15.244 18.0914 14.8333 17.5845 14.8333Z" fill="#0B2343"/>
</svg>
