<svg width="40" height="40" viewBox="0 0 40 40" fill="none" xmlns="http://www.w3.org/2000/svg">
<path d="M17.6559 9.91797C17.6551 9.91863 17.6546 9.91894 17.6546 9.91893L17.6559 9.91797ZM22.3958 9.91796C22.3967 9.9186 22.3971 9.91893 22.3971 9.91893L22.3958 9.91796Z" fill="#0B2343" stroke="#0B2343"/>
<mask id="path-2-inside-1_3555_59185" fill="white">
<path d="M19.9737 33.869C15.0173 33.869 11 29.8517 11 24.8953V15.9737C11 11.0173 15.0173 7 19.9737 7C24.9302 7 28.9475 11.0173 28.9475 15.9737V24.8953C28.9996 29.8517 24.9823 33.869 19.9737 33.869ZM19.9737 7.78259C15.4869 7.78259 11.7826 11.4869 11.7826 15.9737V24.8953C11.7826 29.3822 15.4869 33.0864 19.9737 33.0864C24.5128 33.0864 28.217 29.3822 28.217 24.8953V15.9737C28.217 11.4869 24.5128 7.78259 19.9737 7.78259Z"/>
</mask>
<path d="M19.9737 33.869C15.0173 33.869 11 29.8517 11 24.8953V15.9737C11 11.0173 15.0173 7 19.9737 7C24.9302 7 28.9475 11.0173 28.9475 15.9737V24.8953C28.9996 29.8517 24.9823 33.869 19.9737 33.869ZM19.9737 7.78259C15.4869 7.78259 11.7826 11.4869 11.7826 15.9737V24.8953C11.7826 29.3822 15.4869 33.0864 19.9737 33.0864C24.5128 33.0864 28.217 29.3822 28.217 24.8953V15.9737C28.217 11.4869 24.5128 7.78259 19.9737 7.78259Z" fill="#0B2343"/>
<path d="M28.9475 24.8953H27.9474L27.9475 24.9058L28.9475 24.8953ZM19.9737 32.869C15.5696 32.869 12 29.2994 12 24.8953H10C10 30.404 14.465 34.869 19.9737 34.869V32.869ZM12 24.8953V15.9737H10V24.8953H12ZM12 15.9737C12 11.5696 15.5696 8 19.9737 8V6C14.465 6 10 10.465 10 15.9737H12ZM19.9737 8C24.3779 8 27.9475 11.5696 27.9475 15.9737H29.9475C29.9475 10.465 25.4824 6 19.9737 6V8ZM27.9475 15.9737V24.8953H29.9475V15.9737H27.9475ZM27.9475 24.9058C27.9937 29.2959 24.4359 32.869 19.9737 32.869V34.869C25.5287 34.869 30.0055 30.4075 29.9474 24.8848L27.9475 24.9058ZM19.9737 6.78259C14.9346 6.78259 10.7826 10.9346 10.7826 15.9737H12.7826C12.7826 12.0392 16.0392 8.78259 19.9737 8.78259V6.78259ZM10.7826 15.9737V24.8953H12.7826V15.9737H10.7826ZM10.7826 24.8953C10.7826 29.9344 14.9346 34.0864 19.9737 34.0864V32.0864C16.0392 32.0864 12.7826 28.8299 12.7826 24.8953H10.7826ZM19.9737 34.0864C25.0609 34.0864 29.217 29.9386 29.217 24.8953H27.217C27.217 28.8258 23.9646 32.0864 19.9737 32.0864V34.0864ZM29.217 24.8953V15.9737H27.217V24.8953H29.217ZM29.217 15.9737C29.217 10.9305 25.0609 6.78259 19.9737 6.78259V8.78259C23.9646 8.78259 27.217 12.0433 27.217 15.9737H29.217Z" fill="#0B2343" mask="url(#path-2-inside-1_3555_59185)"/>
<mask id="path-4-inside-2_3555_59185" fill="white">
<path d="M20.5999 11.9559H19.3477C17.1565 11.9559 15.1217 11.4342 13.6087 10.495C13.4522 10.3907 13.4 10.1298 13.5044 9.97332C13.6087 9.76463 13.8696 9.71245 14.0261 9.86897C15.4348 10.7037 17.3652 11.1733 19.3999 11.1733H20.652C22.6868 11.1733 24.6172 10.7037 25.9737 9.8168C26.1824 9.71245 26.3911 9.76463 26.4954 9.92114C26.5997 10.1298 26.5476 10.3385 26.3911 10.4429C24.8259 11.4342 22.7911 11.9559 20.5999 11.9559ZM26.965 22.4948H19.2434C17.8869 22.4948 16.7913 21.3992 16.7913 20.0427C16.7913 19.2601 17.313 18.4775 18.0434 18.0079C18.3043 16.2341 19.7129 14.9297 21.4868 14.9297C22.3216 14.9297 22.9998 15.1906 23.6781 15.7645C24.3563 15.6602 25.0867 15.8167 25.6606 16.1819C26.1302 16.5471 26.4954 17.0167 26.6519 17.5906C27.4867 17.4862 28.3215 17.7992 28.8954 18.4253C29.0519 18.5818 29.0519 18.8427 28.8954 18.9992C28.7388 19.1557 28.478 19.1557 28.3215 18.9992C27.8519 18.4775 27.1215 18.321 26.4432 18.4775C26.3389 18.5297 26.2345 18.4775 26.1302 18.4253C26.0258 18.3731 25.9737 18.2688 25.9737 18.1645C25.9215 17.6427 25.6085 17.1732 25.1911 16.8601C24.7737 16.5471 24.1998 16.4428 23.6259 16.5993C23.5216 16.6514 23.365 16.5993 23.2607 16.4949C22.6868 15.9732 22.1651 15.7123 21.4868 15.7123C20.0781 15.7123 18.9825 16.808 18.826 18.2688C18.826 18.4253 18.7216 18.5297 18.6173 18.5818C17.9912 18.8949 17.5738 19.521 17.5738 20.0427C17.5738 20.8253 18.1999 21.7122 19.2434 21.7122H26.965C27.4867 21.7122 27.9562 21.5035 28.3215 21.1383C28.478 20.9818 28.7388 20.9818 28.8954 21.1383C29.0519 21.2948 29.0519 21.5557 28.8954 21.7122C28.3736 22.1818 27.6954 22.4948 26.965 22.4948ZM15.9565 28.8077H12.2522C12.0435 28.8077 11.887 28.6512 11.887 28.3903C11.887 28.1295 12.0435 27.973 12.2522 27.973H15.9565C16.426 27.973 16.7913 27.5556 16.7913 27.2425C16.7913 27.0338 16.6869 26.8252 16.4782 26.6686C16.3739 26.5643 16.0608 26.4078 15.6956 26.5121C15.5913 26.5643 15.4869 26.5121 15.3826 26.4599C15.2782 26.4078 15.2261 26.3034 15.2261 26.1991C15.1739 25.9904 15.0695 25.7817 14.8609 25.6252C14.6522 25.4687 14.3913 25.4165 14.1304 25.5208C14.0261 25.573 13.8696 25.5208 13.7652 25.4165C13.5044 25.1556 13.1913 25.0513 12.8783 25.0513C12.4609 25.0513 12.0435 25.26 11.7827 25.6252C11.6783 25.7817 11.4174 25.8339 11.2609 25.7295C11.1044 25.6252 11.0522 25.3643 11.1566 25.2078C11.574 24.6339 12.2 24.2687 12.8783 24.2687C13.3478 24.2687 13.7652 24.4252 14.1304 24.7382C14.5478 24.6861 14.9652 24.7904 15.2782 24.9991C15.5391 25.2078 15.7478 25.4687 15.8521 25.7817C16.2173 25.7817 16.5826 25.886 16.8956 26.0947C17.2608 26.4078 17.5217 26.8252 17.5217 27.2947C17.5738 28.1295 16.8434 28.8077 15.9565 28.8077Z"/>
</mask>
<path d="M20.5999 11.9559H19.3477C17.1565 11.9559 15.1217 11.4342 13.6087 10.495C13.4522 10.3907 13.4 10.1298 13.5044 9.97332C13.6087 9.76463 13.8696 9.71245 14.0261 9.86897C15.4348 10.7037 17.3652 11.1733 19.3999 11.1733H20.652C22.6868 11.1733 24.6172 10.7037 25.9737 9.8168C26.1824 9.71245 26.3911 9.76463 26.4954 9.92114C26.5997 10.1298 26.5476 10.3385 26.3911 10.4429C24.8259 11.4342 22.7911 11.9559 20.5999 11.9559ZM26.965 22.4948H19.2434C17.8869 22.4948 16.7913 21.3992 16.7913 20.0427C16.7913 19.2601 17.313 18.4775 18.0434 18.0079C18.3043 16.2341 19.7129 14.9297 21.4868 14.9297C22.3216 14.9297 22.9998 15.1906 23.6781 15.7645C24.3563 15.6602 25.0867 15.8167 25.6606 16.1819C26.1302 16.5471 26.4954 17.0167 26.6519 17.5906C27.4867 17.4862 28.3215 17.7992 28.8954 18.4253C29.0519 18.5818 29.0519 18.8427 28.8954 18.9992C28.7388 19.1557 28.478 19.1557 28.3215 18.9992C27.8519 18.4775 27.1215 18.321 26.4432 18.4775C26.3389 18.5297 26.2345 18.4775 26.1302 18.4253C26.0258 18.3731 25.9737 18.2688 25.9737 18.1645C25.9215 17.6427 25.6085 17.1732 25.1911 16.8601C24.7737 16.5471 24.1998 16.4428 23.6259 16.5993C23.5216 16.6514 23.365 16.5993 23.2607 16.4949C22.6868 15.9732 22.1651 15.7123 21.4868 15.7123C20.0781 15.7123 18.9825 16.808 18.826 18.2688C18.826 18.4253 18.7216 18.5297 18.6173 18.5818C17.9912 18.8949 17.5738 19.521 17.5738 20.0427C17.5738 20.8253 18.1999 21.7122 19.2434 21.7122H26.965C27.4867 21.7122 27.9562 21.5035 28.3215 21.1383C28.478 20.9818 28.7388 20.9818 28.8954 21.1383C29.0519 21.2948 29.0519 21.5557 28.8954 21.7122C28.3736 22.1818 27.6954 22.4948 26.965 22.4948ZM15.9565 28.8077H12.2522C12.0435 28.8077 11.887 28.6512 11.887 28.3903C11.887 28.1295 12.0435 27.973 12.2522 27.973H15.9565C16.426 27.973 16.7913 27.5556 16.7913 27.2425C16.7913 27.0338 16.6869 26.8252 16.4782 26.6686C16.3739 26.5643 16.0608 26.4078 15.6956 26.5121C15.5913 26.5643 15.4869 26.5121 15.3826 26.4599C15.2782 26.4078 15.2261 26.3034 15.2261 26.1991C15.1739 25.9904 15.0695 25.7817 14.8609 25.6252C14.6522 25.4687 14.3913 25.4165 14.1304 25.5208C14.0261 25.573 13.8696 25.5208 13.7652 25.4165C13.5044 25.1556 13.1913 25.0513 12.8783 25.0513C12.4609 25.0513 12.0435 25.26 11.7827 25.6252C11.6783 25.7817 11.4174 25.8339 11.2609 25.7295C11.1044 25.6252 11.0522 25.3643 11.1566 25.2078C11.574 24.6339 12.2 24.2687 12.8783 24.2687C13.3478 24.2687 13.7652 24.4252 14.1304 24.7382C14.5478 24.6861 14.9652 24.7904 15.2782 24.9991C15.5391 25.2078 15.7478 25.4687 15.8521 25.7817C16.2173 25.7817 16.5826 25.886 16.8956 26.0947C17.2608 26.4078 17.5217 26.8252 17.5217 27.2947C17.5738 28.1295 16.8434 28.8077 15.9565 28.8077Z" fill="#0B2343"/>
<path d="M13.6087 10.495L13.054 11.3271L13.0675 11.3361L13.0813 11.3447L13.6087 10.495ZM13.5044 9.97332L14.3364 10.528L14.3709 10.4762L14.3988 10.4205L13.5044 9.97332ZM14.0261 9.86897L13.319 10.5761L13.408 10.6651L13.5163 10.7293L14.0261 9.86897ZM25.9737 9.8168L25.5265 8.92237L25.4748 8.94821L25.4264 8.97983L25.9737 9.8168ZM26.4954 9.92114L27.3898 9.47393L27.362 9.41825L27.3275 9.36644L26.4954 9.92114ZM26.3911 10.4429L26.9261 11.2877L26.936 11.2814L26.9458 11.2749L26.3911 10.4429ZM18.0434 18.0079L18.5842 18.8491L18.9666 18.6033L19.0328 18.1534L18.0434 18.0079ZM23.6781 15.7645L23.0321 16.5279L23.3799 16.8221L23.8301 16.7529L23.6781 15.7645ZM25.6606 16.1819L26.2746 15.3925L26.2373 15.3636L26.1975 15.3382L25.6606 16.1819ZM26.6519 17.5906L25.6872 17.8537L25.9154 18.6904L26.776 18.5828L26.6519 17.5906ZM28.8954 18.4253L28.1582 19.101L28.1729 19.1171L28.1882 19.1324L28.8954 18.4253ZM28.3215 18.9992L27.5782 19.6682L27.5958 19.6877L27.6143 19.7063L28.3215 18.9992ZM26.4432 18.4775L26.2184 17.5031L26.1024 17.5299L25.996 17.5831L26.4432 18.4775ZM25.9737 18.1645H26.9737V18.1146L26.9687 18.065L25.9737 18.1645ZM23.6259 16.5993L23.3628 15.6345L23.2672 15.6606L23.1787 15.7048L23.6259 16.5993ZM23.2607 16.4949L23.9678 15.7878L23.951 15.771L23.9334 15.755L23.2607 16.4949ZM18.826 18.2688L17.8317 18.1623L17.826 18.2154V18.2688H18.826ZM18.6173 18.5818L18.1701 17.6874L18.6173 18.5818ZM28.8954 21.7122L29.5643 22.4555L29.5839 22.4379L29.6025 22.4193L28.8954 21.7122ZM16.4782 26.6686L15.7711 27.3757L15.8214 27.426L15.8782 27.4686L16.4782 26.6686ZM15.6956 26.5121L15.4209 25.5506L15.3315 25.5761L15.2484 25.6177L15.6956 26.5121ZM15.2261 26.1991H16.2261V26.076L16.1962 25.9565L15.2261 26.1991ZM14.1304 25.5208L13.759 24.5924L13.7204 24.6078L13.6832 24.6264L14.1304 25.5208ZM11.7827 25.6252L10.9689 25.0439L10.9596 25.0571L10.9506 25.0705L11.7827 25.6252ZM11.2609 25.7295L10.7062 26.5616L11.2609 25.7295ZM11.1566 25.2078L10.3478 24.6196L10.3358 24.6361L10.3245 24.6531L11.1566 25.2078ZM14.1304 24.7382L13.4796 25.4975L13.8155 25.7854L14.2545 25.7305L14.1304 24.7382ZM15.2782 24.9991L15.9029 24.2182L15.869 24.1911L15.8329 24.1671L15.2782 24.9991ZM15.8521 25.7817L14.9035 26.0979L15.1314 26.7817H15.8521V25.7817ZM16.8956 26.0947L17.5464 25.3355L17.5005 25.2962L17.4503 25.2627L16.8956 26.0947ZM17.5217 27.2947H16.5217V27.3259L16.5236 27.3571L17.5217 27.2947ZM20.5999 10.9559H19.3477V12.9559H20.5999V10.9559ZM19.3477 10.9559C17.302 10.9559 15.4593 10.4667 14.1361 9.64541L13.0813 11.3447C14.7841 12.4016 17.0109 12.9559 19.3477 12.9559V10.9559ZM14.1634 9.663C14.3558 9.79123 14.4199 9.96083 14.4393 10.0576C14.4587 10.1544 14.4646 10.3357 14.3364 10.528L12.6723 9.41862C12.4397 9.76749 12.4196 10.1574 12.4781 10.4499C12.5366 10.7423 12.7051 11.0945 13.054 11.3271L14.1634 9.663ZM14.3988 10.4205C14.2356 10.7469 13.7032 10.9603 13.319 10.5761L14.7332 9.16187C14.0359 8.46461 12.9818 8.78236 12.6099 9.5261L14.3988 10.4205ZM13.5163 10.7293C15.1122 11.675 17.2283 12.1733 19.3999 12.1733V10.1733C17.502 10.1733 15.7573 9.73249 14.5359 9.00868L13.5163 10.7293ZM19.3999 12.1733H20.652V10.1733H19.3999V12.1733ZM20.652 12.1733C22.8173 12.1733 24.9554 11.6774 26.5209 10.6538L25.4264 8.97983C24.2789 9.73011 22.5563 10.1733 20.652 10.1733V12.1733ZM26.4209 10.7112C26.3453 10.749 26.2189 10.7821 26.0641 10.749C25.9063 10.7151 25.7588 10.619 25.6634 10.4758L27.3275 9.36644C26.8969 8.72056 26.107 8.63209 25.5265 8.92237L26.4209 10.7112ZM25.601 10.3684C25.5632 10.2928 25.5301 10.1664 25.5633 10.0116C25.5971 9.85379 25.6932 9.70627 25.8364 9.61082L26.9458 11.2749C27.5916 10.8443 27.6801 10.0545 27.3898 9.47393L25.601 10.3684ZM25.856 9.59805C24.482 10.4682 22.6423 10.9559 20.5999 10.9559V12.9559C22.94 12.9559 25.1697 12.4001 26.9261 11.2877L25.856 9.59805ZM26.965 21.4948H19.2434V23.4948H26.965V21.4948ZM19.2434 21.4948C18.4392 21.4948 17.7913 20.8469 17.7913 20.0427H15.7913C15.7913 21.9515 17.3346 23.4948 19.2434 23.4948V21.4948ZM17.7913 20.0427C17.7913 19.6894 18.056 19.1886 18.5842 18.8491L17.5026 17.1668C16.5699 17.7664 15.7913 18.8308 15.7913 20.0427H17.7913ZM19.0328 18.1534C19.2272 16.8312 20.2476 15.9297 21.4868 15.9297V13.9297C19.1782 13.9297 17.3813 15.637 17.054 17.8624L19.0328 18.1534ZM21.4868 15.9297C22.0661 15.9297 22.5194 16.0941 23.0321 16.5279L24.324 15.0011C23.4802 14.2871 22.5771 13.9297 21.4868 13.9297V15.9297ZM23.8301 16.7529C24.2668 16.6857 24.7527 16.7894 25.1238 17.0256L26.1975 15.3382C25.4208 14.844 24.4459 14.6346 23.526 14.7761L23.8301 16.7529ZM25.0467 16.9712C25.3894 17.2378 25.6006 17.5365 25.6872 17.8537L27.6167 17.3274C27.3902 16.4968 26.871 15.8564 26.2746 15.3925L25.0467 16.9712ZM26.776 18.5828C27.2824 18.5195 27.7984 18.7085 28.1582 19.101L29.6325 17.7496C28.8445 16.89 27.691 16.4529 26.5279 16.5983L26.776 18.5828ZM28.1882 19.1324C27.9542 18.8984 27.9542 18.5261 28.1882 18.2921L29.6025 19.7063C30.1495 19.1593 30.1495 18.2653 29.6025 17.7182L28.1882 19.1324ZM28.1882 18.2921C28.4223 18.0581 28.7946 18.0581 29.0286 18.2921L27.6143 19.7063C28.1614 20.2534 29.0554 20.2534 29.6025 19.7063L28.1882 18.2921ZM29.0647 18.3303C28.3013 17.482 27.1703 17.2834 26.2184 17.5031L26.6681 19.4519C27.0727 19.3585 27.4025 19.473 27.5782 19.6682L29.0647 18.3303ZM25.996 17.5831C26.0941 17.534 26.1994 17.5071 26.3026 17.5006C26.4014 17.4945 26.4802 17.5081 26.5292 17.5204C26.5764 17.5322 26.6061 17.5453 26.6093 17.5467C26.6107 17.5473 26.6077 17.5461 26.5774 17.5309L25.683 19.3197C25.7123 19.3344 25.8657 19.4161 26.0442 19.4607C26.2591 19.5144 26.5689 19.5327 26.8904 19.3719L25.996 17.5831ZM26.5774 17.5309C26.8588 17.6716 26.9737 17.9455 26.9737 18.1645H24.9737C24.9737 18.5921 25.1929 19.0747 25.683 19.3197L26.5774 17.5309ZM26.9687 18.065C26.8832 17.2097 26.3839 16.5047 25.7911 16.0601L24.5911 17.6601C24.833 17.8416 24.9598 18.0758 24.9786 18.264L26.9687 18.065ZM25.7911 16.0601C25.1041 15.5449 24.2059 15.4046 23.3628 15.6345L23.889 17.564C24.1937 17.4809 24.4433 17.5493 24.5911 17.6601L25.7911 16.0601ZM23.1787 15.7048C23.4252 15.5816 23.6401 15.6208 23.7306 15.648C23.8316 15.6782 23.9087 15.7287 23.9678 15.7878L22.5536 17.202C22.717 17.3655 22.9246 17.4942 23.1559 17.5636C23.3769 17.6299 23.7222 17.6691 24.0731 17.4937L23.1787 15.7048ZM23.9334 15.755C23.241 15.1255 22.4901 14.7123 21.4868 14.7123V16.7123C21.84 16.7123 22.1326 16.8209 22.588 17.2349L23.9334 15.755ZM21.4868 14.7123C19.4982 14.7123 18.035 16.2648 17.8317 18.1623L19.8203 18.3753C19.93 17.3511 20.6581 16.7123 21.4868 16.7123V14.7123ZM17.826 18.2688C17.826 18.1102 17.8829 17.9682 17.9608 17.8645C18.0311 17.7707 18.1099 17.7175 18.1701 17.6874L19.0645 19.4763C19.3726 19.3222 19.826 18.9346 19.826 18.2688H17.826ZM18.1701 17.6874C17.289 18.128 16.5738 19.0568 16.5738 20.0427H18.5738C18.5738 20.0439 18.574 20.021 18.5906 19.9747C18.6068 19.9292 18.6354 19.8713 18.68 19.8075C18.7714 19.677 18.9065 19.5553 19.0645 19.4763L18.1701 17.6874ZM16.5738 20.0427C16.5738 21.2736 17.5491 22.7122 19.2434 22.7122V20.7122C19.0272 20.7122 18.8736 20.6278 18.7614 20.5028C18.6349 20.362 18.5738 20.181 18.5738 20.0427H16.5738ZM19.2434 22.7122H26.965V20.7122H19.2434V22.7122ZM26.965 22.7122C27.7692 22.7122 28.4884 22.3855 29.0286 21.8454L27.6143 20.4312C27.424 20.6215 27.2041 20.7122 26.965 20.7122V22.7122ZM29.0286 21.8454C28.7946 22.0794 28.4223 22.0794 28.1882 21.8454L29.6025 20.4312C29.0554 19.8842 28.1614 19.8842 27.6143 20.4312L29.0286 21.8454ZM28.1882 21.8454C27.9542 21.6114 27.9542 21.2391 28.1882 21.0051L29.6025 22.4193C30.1495 21.8723 30.1495 20.9782 29.6025 20.4312L28.1882 21.8454ZM28.2264 20.9689C27.8538 21.3042 27.4056 21.4948 26.965 21.4948V23.4948C27.9852 23.4948 28.8934 23.0593 29.5643 22.4555L28.2264 20.9689ZM15.9565 27.8077H12.2522V29.8077H15.9565V27.8077ZM12.2522 27.8077C12.4091 27.8077 12.5936 27.8728 12.7313 28.0242C12.8637 28.1699 12.887 28.3211 12.887 28.3903H10.887C10.887 28.7205 10.9885 29.0804 11.2514 29.3695C11.5195 29.6644 11.8866 29.8077 12.2522 29.8077V27.8077ZM12.887 28.3903C12.887 28.4596 12.8637 28.6108 12.7313 28.7565C12.5936 28.9079 12.4091 28.973 12.2522 28.973V26.973C11.8866 26.973 11.5195 27.1162 11.2514 27.4111C10.9885 27.7003 10.887 28.0602 10.887 28.3903H12.887ZM12.2522 28.973H15.9565V26.973H12.2522V28.973ZM15.9565 28.973C16.4931 28.973 16.9397 28.7361 17.2412 28.4478C17.5213 28.1798 17.7913 27.7526 17.7913 27.2425H15.7913C15.7913 27.1321 15.8213 27.0638 15.8324 27.0415C15.8455 27.0154 15.856 27.0051 15.8587 27.0025C15.8602 27.0011 15.8895 26.973 15.9565 26.973V28.973ZM17.7913 27.2425C17.7913 26.6809 17.5065 26.1899 17.0782 25.8686L15.8782 27.4686C15.8754 27.4665 15.853 27.4485 15.8306 27.4066C15.808 27.3642 15.7913 27.3074 15.7913 27.2425H17.7913ZM17.1853 25.9615C16.8518 25.628 16.1713 25.3362 15.4209 25.5506L15.9703 27.4736C15.9479 27.48 15.9253 27.478 15.91 27.4736C15.9032 27.4717 15.8924 27.4679 15.8764 27.459C15.8681 27.4543 15.8557 27.4468 15.8399 27.4353C15.825 27.4244 15.8006 27.4052 15.7711 27.3757L17.1853 25.9615ZM15.2484 25.6177C15.3465 25.5687 15.4518 25.5417 15.555 25.5353C15.6538 25.5291 15.7326 25.5427 15.7816 25.555C15.8288 25.5668 15.8585 25.5799 15.8617 25.5813C15.8631 25.5819 15.8601 25.5807 15.8298 25.5655L14.9354 27.3544C14.9647 27.369 15.118 27.4507 15.2966 27.4953C15.5115 27.549 15.8213 27.5673 16.1428 27.4065L15.2484 25.6177ZM15.8298 25.5655C16.1112 25.7062 16.2261 25.9801 16.2261 26.1991H14.2261C14.2261 26.6267 14.4453 27.1093 14.9354 27.3544L15.8298 25.5655ZM16.1962 25.9565C16.105 25.5918 15.9017 25.1558 15.4609 24.8252L14.2609 26.4252C14.2593 26.424 14.2559 26.4211 14.252 26.4167C14.2482 26.4125 14.2457 26.4089 14.2447 26.4071C14.2428 26.4039 14.2486 26.4125 14.2559 26.4416L16.1962 25.9565ZM15.4609 24.8252C15.0044 24.4828 14.3788 24.3445 13.759 24.5924L14.5018 26.4493C14.4669 26.4633 14.4153 26.4718 14.3592 26.4629C14.3066 26.4546 14.2739 26.435 14.2609 26.4252L15.4609 24.8252ZM13.6832 24.6264C13.9298 24.5031 14.1447 24.5424 14.2352 24.5695C14.3361 24.5998 14.4132 24.6503 14.4723 24.7094L13.0581 26.1236C13.2216 26.287 13.4291 26.4158 13.6605 26.4852C13.8814 26.5515 14.2268 26.5907 14.5776 26.4153L13.6832 24.6264ZM14.4723 24.7094C14.0043 24.2413 13.4274 24.0513 12.8783 24.0513V26.0513C12.9232 26.0513 12.9546 26.0586 12.9769 26.0673C12.9974 26.0753 13.0245 26.0899 13.0581 26.1236L14.4723 24.7094ZM12.8783 24.0513C12.1348 24.0513 11.4157 24.4185 10.9689 25.0439L12.5964 26.2064C12.6714 26.1015 12.787 26.0513 12.8783 26.0513V24.0513ZM10.9506 25.0705C11.0788 24.8781 11.2484 24.814 11.3452 24.7946C11.442 24.7752 11.6233 24.7692 11.8156 24.8975L10.7062 26.5616C11.0551 26.7942 11.445 26.8142 11.7375 26.7558C12.0299 26.6973 12.3821 26.5287 12.6147 26.1799L10.9506 25.0705ZM11.8156 24.8975C12.008 25.0257 12.0722 25.1953 12.0915 25.2921C12.1109 25.3889 12.1169 25.5701 11.9886 25.7625L10.3245 24.6531C10.092 25.002 10.0719 25.3919 10.1303 25.6843C10.1888 25.9768 10.3574 26.329 10.7062 26.5616L11.8156 24.8975ZM11.9653 25.796C12.2274 25.4356 12.5721 25.2687 12.8783 25.2687V23.2687C11.828 23.2687 10.9205 23.8322 10.3478 24.6196L11.9653 25.796ZM12.8783 25.2687C13.1028 25.2687 13.2908 25.3357 13.4796 25.4975L14.7812 23.979C14.2396 23.5147 13.5929 23.2687 12.8783 23.2687V25.2687ZM14.2545 25.7305C14.4374 25.7077 14.6132 25.7576 14.7235 25.8312L15.8329 24.1671C15.3172 23.8232 14.6583 23.6645 14.0064 23.746L14.2545 25.7305ZM14.6535 25.78C14.8036 25.9 14.8744 26.0107 14.9035 26.0979L16.8008 25.4655C16.6212 24.9266 16.2746 24.5155 15.9029 24.2182L14.6535 25.78ZM15.8521 26.7817C16.0283 26.7817 16.199 26.8322 16.3409 26.9268L17.4503 25.2627C16.9662 24.9399 16.4064 24.7817 15.8521 24.7817V26.7817ZM16.2448 26.854C16.4729 27.0495 16.5217 27.2126 16.5217 27.2947H18.5217C18.5217 26.4378 18.0487 25.766 17.5464 25.3355L16.2448 26.854ZM16.5236 27.3571C16.5295 27.4516 16.4958 27.5502 16.4008 27.6409C16.3019 27.7352 16.1457 27.8077 15.9565 27.8077V29.8077C17.3115 29.8077 18.6143 28.7459 18.5197 27.2323L16.5236 27.3571Z" fill="#0B2343" mask="url(#path-4-inside-2_3555_59185)"/>
</svg>
