<svg width="40" height="40" viewBox="0 0 40 40" fill="none" xmlns="http://www.w3.org/2000/svg">
<path d="M12.1459 26.6845C11.969 26.3297 11.8217 25.9577 11.7079 25.5787C11.6361 25.3394 11.3839 25.2037 11.1446 25.2756C10.9053 25.3474 10.7697 25.5996 10.8415 25.8388C10.9701 26.267 11.1366 26.6873 11.3362 27.088C11.4154 27.2468 11.5753 27.3387 11.7414 27.3387C11.8092 27.3387 11.8781 27.3234 11.9428 27.2911C12.1664 27.1796 12.2573 26.908 12.1459 26.6845Z" fill="#0B2343"/>
<path d="M16.5307 30.325C15.1186 29.9263 13.8365 29.0677 12.9206 27.9075C12.7658 27.7115 12.4814 27.678 12.2853 27.8328C12.0893 27.9876 12.0558 28.272 12.2106 28.4681C13.2438 29.7768 14.6908 30.7454 16.285 31.1955C16.3261 31.2071 16.3674 31.2126 16.4081 31.2126C16.6054 31.2126 16.7869 31.0824 16.8432 30.8831C16.911 30.6427 16.7711 30.3928 16.5307 30.325Z" fill="#0B2343"/>
<path d="M28.4124 10.138C28.1626 10.138 27.9601 10.3405 27.9601 10.5903V11.6306C27.9601 12.7527 27.0471 13.6657 25.925 13.6657C24.8028 13.6657 23.8898 12.7528 23.8898 11.6306V11.0878C23.8898 9.46688 22.5711 8.14807 20.9501 8.14807H20.9257C19.3048 8.14807 17.986 9.46682 17.986 11.0878V12.441H16.1769C15.927 12.441 15.7246 12.6435 15.7246 12.8933V14.5219C11.8389 15.6905 9 19.3005 9 23.5618C9 28.7661 13.2339 33 18.4382 33C23.6424 33 27.8764 28.7661 27.8764 23.5618C27.8764 19.3006 25.0375 15.6905 21.152 14.5219V12.8933C21.152 12.6435 20.9495 12.441 20.6997 12.441H18.8905V11.0878C18.8905 9.9656 19.8035 9.05258 20.9256 9.05258H20.95C22.0722 9.05258 22.9852 9.96554 22.9852 11.0878V11.6305C22.9852 13.2514 24.3039 14.5702 25.9249 14.5702C27.5459 14.5702 28.8647 13.2515 28.8647 11.6305V10.5902C28.8647 10.3405 28.6622 10.138 28.4124 10.138ZM26.9719 23.5618C26.9719 28.2673 23.1437 32.0954 18.4382 32.0954C13.7328 32.0954 9.90457 28.2673 9.90457 23.5618C9.90457 18.8563 13.7327 15.0282 18.4382 15.0282C23.1437 15.0282 26.9719 18.8563 26.9719 23.5618ZM20.2474 14.2983C19.6616 14.1841 19.0569 14.1236 18.4382 14.1236C17.8195 14.1236 17.2148 14.1841 16.6291 14.2983V13.3456H20.2474V14.2983Z" fill="#0B2343"/>
<path d="M29.0515 8.77898L30.0584 7.77207C30.235 7.59543 30.235 7.30905 30.0584 7.13247C29.8817 6.95584 29.5954 6.95584 29.4188 7.13247L28.4119 8.13932L27.4049 7.13247C27.2282 6.95584 26.9419 6.95584 26.7653 7.13247C26.5887 7.30911 26.5887 7.5955 26.7653 7.77207L27.7722 8.77898L26.7653 9.78589C26.5887 9.96252 26.5887 10.2489 26.7653 10.4255C26.8536 10.5138 26.9694 10.558 27.0851 10.558C27.2009 10.558 27.3167 10.5138 27.405 10.4255L28.4118 9.41863L29.4187 10.4255C29.507 10.5138 29.6228 10.558 29.7386 10.558C29.8543 10.558 29.9701 10.5138 30.0584 10.4255C30.235 10.2488 30.235 9.96246 30.0584 9.78589L29.0515 8.77898Z" fill="#0B2343"/>
</svg>
