<svg width="40" height="40" viewBox="0 0 40 40" fill="none" xmlns="http://www.w3.org/2000/svg">
<path d="M13.96 10.03H12.5599C12.5599 10.03 8.97998 10.03 8.97998 13.85C8.97998 18.54 8.97998 26.23 8.97998 26.23" stroke="#0B2343" stroke-linecap="round" stroke-linejoin="round"/>
<path d="M9.97998 28.13C9.97998 28.68 9.53999 29.12 8.98999 29.12C8.43999 29.12 8 28.68 8 28.13V27.23C8 26.68 8.43999 26.24 8.98999 26.24C9.53999 26.24 9.97998 26.68 9.97998 27.23V28.13Z" stroke="#0B2343" stroke-linecap="round" stroke-linejoin="round"/>
<path d="M18.9 10.11H22.87V9.04004H18.9V7.14001H20.86V5H15V7.14001H16.83V11.66C15.86 11.84 12.85 13.3201 12.85 16.1901V32.92C12.85 33.34 13.0499 34.03 13.9399 34.03H21.75C22.64 34.03 22.84 33.34 22.84 32.92V16.1901C22.84 13.3201 19.86 11.84 18.89 11.66L18.9 10.11Z" stroke="#0B2343" stroke-linecap="round" stroke-linejoin="round"/>
<path d="M22.87 8.02002V11.22L31.96 12.47V6.81006L22.87 8.02002Z" stroke="#0B2343" stroke-linecap="round" stroke-linejoin="round"/>
</svg>
