<svg viewBox="0 0 40 40" fill="none" xmlns="http://www.w3.org/2000/svg">
<path d="M18.9902 5.4494V7.58787" stroke="#0B2343" stroke-width="0.8" stroke-linecap="round" stroke-linejoin="round"/>
<path d="M18.9902 21.8473V29.19" stroke="#0B2343" stroke-width="0.8" stroke-linecap="round" stroke-linejoin="round"/>
<path d="M13.5969 29.1901C13.5969 30.6378 14.8041 31.8111 16.2936 31.8111C17.7831 31.8111 18.9902 30.6378 18.9902 29.1901" stroke="#0B2343" stroke-width="0.8" stroke-linecap="round" stroke-linejoin="round"/>
<path d="M29.1538 17.0691C27.6643 17.0691 26.3988 18.0058 25.9413 19.3021H25.5616C25.1041 18.0058 23.8384 17.0691 22.349 17.0691C20.8595 17.0691 19.594 18.0058 19.1364 19.3021H18.8931C18.4355 18.0058 17.1699 17.0691 15.6804 17.0691C14.1909 17.0691 12.9253 18.0058 12.4678 19.3021H12.0881C11.6305 18.0058 10.365 17.0691 8.87555 17.0691C7.38607 17.0691 6.12046 18.0058 5.6629 19.3021H5.40004C5.40004 12.83 11.4846 7.58792 19.0001 7.58792C26.5059 7.58792 32.6001 12.83 32.6001 19.3021H32.4151C31.9088 17.9963 30.6433 17.0691 29.1538 17.0691Z" stroke="#0B2343" stroke-width="0.8" stroke-linecap="round" stroke-linejoin="round"/>
</svg>
