<svg width="50" height="50" viewBox="0 0 50 50" fill="none" xmlns="http://www.w3.org/2000/svg">
<g clip-path="url(#clip0_3267_9747)">
<path d="M25 22.2728C23.4954 22.2728 22.2727 23.4955 22.2727 25C22.2727 26.5046 23.4954 27.7273 25 27.7273C26.5045 27.7273 27.7272 26.5046 27.7272 25C27.7272 23.4955 26.5045 22.2728 25 22.2728Z" fill="#999999"/>
<path d="M25 18.1818C20.4545 18.1818 16.5727 21.0091 15 25C16.5727 28.9909 20.4545 31.8182 25 31.8182C29.55 31.8182 33.4273 28.9909 35 25C33.4273 21.0091 29.55 18.1818 25 18.1818ZM25 29.5455C22.4909 29.5455 20.4545 27.5091 20.4545 25C20.4545 22.4909 22.4909 20.4546 25 20.4546C27.5091 20.4546 29.5455 22.4909 29.5455 25C29.5455 27.5091 27.5091 29.5455 25 29.5455Z" fill="#999999"/>
</g>
<defs>
<clipPath id="clip0_3267_9747">
<rect width="20" height="20" fill="white" transform="translate(15 15)"/>
</clipPath>
</defs>
</svg>
