<svg width="50" height="50" viewBox="0 0 50 50" fill="none" xmlns="http://www.w3.org/2000/svg">
<g clip-path="url(#clip0_5610_97258)">
<path d="M24.8477 22.2669L27.7106 25.1299L27.7243 24.9799C27.7243 23.4757 26.5018 22.2533 24.9976 22.2533L24.8477 22.2669Z" fill="#999999"/>
<path d="M24.9978 20.4355C27.5063 20.4355 29.5423 22.4714 29.5423 24.9799C29.5423 25.5661 29.4241 26.1251 29.2196 26.6386L31.8781 29.2971C33.2505 28.1519 34.3321 26.6704 35.0001 24.9799C33.4232 20.9899 29.5468 18.1633 24.9979 18.1633C23.7254 18.1633 22.5075 18.3905 21.376 18.7995L23.3392 20.7581C23.8526 20.5582 24.4116 20.4355 24.9978 20.4355Z" fill="#999999"/>
<path d="M15.9089 17.9588L17.9811 20.0311L18.3947 20.4446C16.895 21.6171 15.7089 23.1759 15 24.98C16.5724 28.97 20.4533 31.7966 24.9977 31.7966C26.4065 31.7966 27.7517 31.5239 28.9832 31.0286L29.3695 31.4149L32.0189 34.0688L33.1777 32.9145L17.0677 16.8L15.9089 17.9588ZM20.935 22.9804L22.3393 24.3847C22.2984 24.5801 22.2711 24.7755 22.2711 24.98C22.2711 26.4842 23.4935 27.7066 24.9977 27.7066C25.2022 27.7066 25.3977 27.6793 25.5885 27.6384L26.9928 29.0427C26.3883 29.3426 25.7158 29.5244 24.9977 29.5244C22.4892 29.5244 20.4533 27.4885 20.4533 24.98C20.4533 24.262 20.6351 23.5894 20.935 22.9804Z" fill="#999999"/>
</g>
<defs>
<clipPath id="clip0_5610_97258">
<rect width="20" height="20" fill="white" transform="translate(15 15)"/>
</clipPath>
</defs>
</svg>
