<svg id="Layer_1" data-name="Layer 1" xmlns="http://www.w3.org/2000/svg" viewBox="0 0 25.4 25.4"><title>eye_password</title><path d="M.53,25.48a.47.47,0,0,1-.35-.15.48.48,0,0,1,0-.7L24.57.23a.5.5,0,0,1,.71,0,.5.5,0,0,1,0,.71L.88,25.33A.47.47,0,0,1,.53,25.48Z" transform="translate(-0.03 -0.08)" fill="#e5e5e5"/><path d="M4.88,18.71a.51.51,0,0,1-.31-.11A16.41,16.41,0,0,1,.2,13.07a.49.49,0,0,1,0-.44C2.78,7.4,7.58,4.16,12.71,4.16a12.49,12.49,0,0,1,4.94,1,.5.5,0,0,1-.39.92,11.48,11.48,0,0,0-4.55-.94C8,5.16,3.65,8.1,1.21,12.85a15.29,15.29,0,0,0,4,5,.5.5,0,0,1,.08.7A.51.51,0,0,1,4.88,18.71Z" transform="translate(-0.03 -0.08)" fill="#e5e5e5"/><path d="M8.29,15.3A.51.51,0,0,1,7.83,15a5.59,5.59,0,0,1-.42-2.14,5.39,5.39,0,0,1,5.3-5.45A5.13,5.13,0,0,1,15,7.91a.5.5,0,0,1-.44.9,4.16,4.16,0,0,0-1.8-.41,4.38,4.38,0,0,0-4.3,4.45,4.6,4.6,0,0,0,.34,1.76.49.49,0,0,1-.27.65A.41.41,0,0,1,8.29,15.3Z" transform="translate(-0.03 -0.08)" fill="#e5e5e5"/><path d="M12.71,21.55a12.52,12.52,0,0,1-5-1.06.5.5,0,1,1,.4-.92,11.43,11.43,0,0,0,4.61,1c4.68,0,9.07-2.94,11.51-7.7a15.5,15.5,0,0,0-4-5,.5.5,0,0,1,.62-.78,16.31,16.31,0,0,1,4.44,5.57.49.49,0,0,1,0,.44C22.64,18.3,17.85,21.55,12.71,21.55Z" transform="translate(-0.03 -0.08)" fill="#e5e5e5"/><path d="M12.71,18.31a5.2,5.2,0,0,1-2.31-.55.51.51,0,0,1-.23-.67.51.51,0,0,1,.68-.23,4.08,4.08,0,0,0,1.86.45A4.39,4.39,0,0,0,17,12.85,4.57,4.57,0,0,0,16.64,11a.5.5,0,1,1,.92-.4A5.69,5.69,0,0,1,18,12.85,5.39,5.39,0,0,1,12.71,18.31Z" transform="translate(-0.03 -0.08)" fill="#e5e5e5"/><path d="M8.29,15.3A.51.51,0,0,1,7.83,15a5.59,5.59,0,0,1-.42-2.14,5.39,5.39,0,0,1,5.3-5.45A5.13,5.13,0,0,1,15,7.91a.5.5,0,0,1-.44.9,4.16,4.16,0,0,0-1.8-.41,4.38,4.38,0,0,0-4.3,4.45,4.6,4.6,0,0,0,.34,1.76.49.49,0,0,1-.27.65A.41.41,0,0,1,8.29,15.3Z" transform="translate(-0.03 -0.08)" fill="#e5e5e5"/><path d="M10.83,12.76l-.14,0a.5.5,0,0,1-.34-.62,2.49,2.49,0,0,1,1.71-1.71.5.5,0,0,1,.27,1,1.48,1.48,0,0,0-1,1A.49.49,0,0,1,10.83,12.76Z" transform="translate(-0.03 -0.08)" fill="#e5e5e5"/><path d="M12.71,18.31a5.2,5.2,0,0,1-2.31-.55.51.51,0,0,1-.23-.67.51.51,0,0,1,.68-.23,4.08,4.08,0,0,0,1.86.45A4.39,4.39,0,0,0,17,12.85,4.57,4.57,0,0,0,16.64,11a.5.5,0,1,1,.92-.4A5.69,5.69,0,0,1,18,12.85,5.39,5.39,0,0,1,12.71,18.31Z" transform="translate(-0.03 -0.08)" fill="#e5e5e5"/><path d="M13.08,15.35a.49.49,0,0,1-.49-.4.49.49,0,0,1,.39-.59,1.47,1.47,0,0,0,1.17-1.18.51.51,0,0,1,.6-.38.49.49,0,0,1,.38.59,2.49,2.49,0,0,1-2,1.95Z" transform="translate(-0.03 -0.08)" fill="#e5e5e5"/><path d="M10.83,12.76l-.14,0a.5.5,0,0,1-.34-.62,2.49,2.49,0,0,1,1.71-1.71.5.5,0,0,1,.27,1,1.48,1.48,0,0,0-1,1A.49.49,0,0,1,10.83,12.76Z" transform="translate(-0.03 -0.08)" fill="#e5e5e5"/><path d="M13.08,15.35a.49.49,0,0,1-.49-.4.49.49,0,0,1,.39-.59,1.47,1.47,0,0,0,1.17-1.18.51.51,0,0,1,.6-.38.49.49,0,0,1,.38.59,2.49,2.49,0,0,1-2,1.95Z" transform="translate(-0.03 -0.08)" fill="#e5e5e5"/></svg>