<svg id="Layer_1" data-name="Layer 1" xmlns="http://www.w3.org/2000/svg" viewBox="0 0 29.2 20.15"><title>eye_view</title><path d="M14.6,16.36a6.21,6.21,0,0,1-6.12-6.28A6.22,6.22,0,0,1,14.6,3.79a6.22,6.22,0,0,1,6.12,6.29A6.21,6.21,0,0,1,14.6,16.36Zm0-11.57a5.21,5.21,0,0,0-5.12,5.29,5.21,5.21,0,0,0,5.12,5.28,5.21,5.21,0,0,0,5.12-5.28A5.21,5.21,0,0,0,14.6,4.79Z" fill="#e5e5e5"/><path d="M14.6,13a2.89,2.89,0,1,1,2.81-2.88A2.85,2.85,0,0,1,14.6,13Zm0-4.77a1.89,1.89,0,1,0,1.81,1.89A1.85,1.85,0,0,0,14.6,8.19Z" fill="#e5e5e5"/><path d="M14.6,20.15c-6,0-11.54-3.77-14.55-9.85a.51.51,0,0,1,0-.45C3.06,3.78,8.63,0,14.6,0S26.14,3.78,29.15,9.85a.51.51,0,0,1,0,.45C26.14,16.38,20.57,20.15,14.6,20.15ZM1.06,10.08c2.86,5.6,8,9.07,13.54,9.07s10.68-3.47,13.54-9.07C25.28,4.47,20.11,1,14.6,1S3.92,4.47,1.06,10.08Z" fill="#e5e5e5"/></svg>