<svg width="40" height="40" viewBox="0 0 40 40" fill="none" xmlns="http://www.w3.org/2000/svg">
<path d="M28.3077 6H23.9808C19.1346 6 15.9846 8.99377 15.9846 13.6293V17.1381H11.6923C11.3115 17.1381 11 17.4278 11 17.7819V22.8681C11 23.2222 11.3115 23.5119 11.6923 23.5119H16.0192V36.3562C16.0192 36.7103 16.3308 37 16.7115 37H22.3885C22.7692 37 23.0808 36.7103 23.0808 36.3562V23.4797H28.1692C28.55 23.4797 28.8615 23.19 28.8615 22.8359V17.7497C28.8615 17.5888 28.7923 17.4278 28.6538 17.2991C28.5154 17.1703 28.3423 17.1059 28.1692 17.1059H23.0462V14.1443C23.0462 12.7279 23.4269 11.9875 25.4 11.9875H28.3077C28.6885 11.9875 29 11.6978 29 11.3437V6.64382C29 6.28972 28.6885 6 28.3077 6Z" fill="#FAFCFE"/>
</svg>
