<?xml version="1.0" encoding="utf-8"?>
<!-- Generator: Adobe Illustrator 19.1.0, SVG Export Plug-In . SVG Version: 6.00 Build 0)  -->
<svg version="1.1" id="Layer_1" xmlns="http://www.w3.org/2000/svg" xmlns:xlink="http://www.w3.org/1999/xlink" x="0px" y="0px"
	 viewBox="0 0 38 50" enable-background="new 0 0 38 50" xml:space="preserve">
<g>
	<path d="M29.6,35.4H8.4c-0.6,0-1.1,0.5-1.1,1c0,0.6,0.5,1,1.1,1h21.2c0.6,0,1.1-0.5,1.1-1C30.7,35.9,30.2,35.4,29.6,35.4z"/>
	<path d="M29.6,29.2H8.4c-0.6,0-1.1,0.5-1.1,1c0,0.6,0.5,1,1.1,1h21.2c0.6,0,1.1-0.5,1.1-1C30.7,29.7,30.2,29.2,29.6,29.2z"/>
	<path d="M29.6,22.9H8.4c-0.6,0-1.1,0.5-1.1,1c0,0.6,0.5,1,1.1,1h21.2c0.6,0,1.1-0.5,1.1-1C30.7,23.4,30.2,22.9,29.6,22.9z"/>
	<path d="M8.4,18.8h11.8c0.6,0,1.1-0.5,1.1-1s-0.5-1-1.1-1H8.4c-0.6,0-1.1,0.5-1.1,1S7.9,18.8,8.4,18.8z"/>
	<path d="M37.2,7.6l-7-6.8C29.9,0.5,29.4,0,28.5,0H2.7C1.2,0,0,1.2,0,2.7v40.7c0,0.3,0.2,0.6,0.4,0.8l5,5.3c0.4,0.4,1.1,0.4,1.5,0
		l5.6-5.9l5.7,6.1c0.2,0.2,0.5,0.3,0.8,0.3c0.3,0,0.6-0.1,0.8-0.3l5.7-6.1l5.7,6.1c0.2,0.2,0.5,0.4,0.8,0.3c0.3,0,0.6-0.1,0.8-0.3
		l4.9-5.1c0.2-0.2,0.3-0.4,0.3-0.7V9.4C38,8.5,37.6,8,37.2,7.6z M34.9,8.3h-5.4V3.1L34.9,8.3z M32,47.4l-5.8-6.1
		c-0.2-0.2-0.5-0.3-0.8-0.3c-0.3,0-0.6,0.1-0.8,0.3L19,47.4l-5.7-6.1c-0.4-0.4-1.1-0.4-1.5,0l-5.6,5.9l-4-4.3V2.7
		c0-0.3,0.3-0.6,0.6-0.6l24.7,0v7.3c0,0.6,0.5,1,1.1,1h7.4v33L32,47.4z"/>
</g>
</svg>
