<?xml version="1.0" encoding="utf-8"?>
<!-- Generator: Adobe Illustrator 19.2.1, SVG Export Plug-In . SVG Version: 6.00 Build 0)  -->
<svg version="1.1" id="Layer_1" xmlns="http://www.w3.org/2000/svg" xmlns:xlink="http://www.w3.org/1999/xlink" x="0px" y="0px"
	 viewBox="0 0 55 60" enable-background="new 0 0 55 60" xml:space="preserve">
<g>
	<g>
		<g>
			<path d="M27.5,60C12.3,60,1,44.2,0,29.5c0-0.2,0-0.3,0.2-0.5c0.1-0.1,0.3-0.2,0.4-0.2h53.8c0.2,0,0.3,0.1,0.4,0.2
				s0.2,0.3,0.2,0.5C54,44.2,42.7,60,27.5,60z M1.3,30.1c1.3,14,11.9,28.7,26.2,28.7s25-14.7,26.2-28.7H1.3z"/>
		</g>
		<g>
			<path d="M14.1,48c-0.2,0-0.3-0.1-0.4-0.2c-3.3-3.4-5.7-7.9-6.9-12.6c-0.1-0.3,0.1-0.7,0.4-0.7c0.3-0.1,0.7,0.1,0.7,0.4
				c1.1,4.5,3.5,8.8,6.6,12.1c0.2,0.2,0.2,0.6,0,0.9C14.4,48,14.3,48,14.1,48z"/>
		</g>
	</g>
	<g>
		<g>
			<path d="M28.2,25C28.2,25,28.2,25,28.2,25c-0.1,0-2.3-0.2-3.3-2.2c-1.1-2.2-0.1-5.6,2.8-10.1c3.6-5.6,3.8-8.5,3.2-10
				c-0.4-1.2-1.4-1.5-1.4-1.5c-0.3-0.1-0.5-0.4-0.4-0.8c0.1-0.3,0.4-0.5,0.8-0.4c0.1,0,1.5,0.5,2.2,2.3c0.9,2.5-0.2,6.2-3.4,11.1
				c-3.3,5.1-3.3,7.7-2.7,8.9c0.7,1.4,2.2,1.6,2.3,1.6c0.3,0,0.6,0.3,0.5,0.7C28.8,24.8,28.5,25,28.2,25z"/>
		</g>
		<g>
			<path d="M37.9,26.7C37.9,26.7,37.9,26.7,37.9,26.7c-0.1,0-1.5-0.2-2.1-1.4c-0.7-1.4-0.1-3.4,1.6-6c2.1-3.3,2-4.8,1.8-5.4
				c-0.2-0.5-0.6-0.7-0.6-0.7c-0.3-0.1-0.5-0.4-0.4-0.8c0.1-0.3,0.4-0.5,0.8-0.4c0.1,0,1,0.3,1.4,1.4c0.6,1.5-0.1,3.7-1.9,6.5
				c-1.9,2.9-1.8,4.3-1.5,4.8c0.3,0.7,1,0.7,1.1,0.7c0.3,0,0.6,0.3,0.5,0.7C38.5,26.4,38.2,26.7,37.9,26.7z"/>
		</g>
		<g>
			<path d="M16.8,26.7C16.8,26.7,16.8,26.7,16.8,26.7c-0.1,0-1.5-0.2-2.1-1.4c-0.7-1.4-0.1-3.4,1.6-6c2.1-3.3,2-4.8,1.8-5.4
				c-0.2-0.5-0.6-0.7-0.6-0.7c-0.3-0.1-0.5-0.4-0.4-0.8c0.1-0.3,0.4-0.5,0.8-0.4c0.1,0,1,0.3,1.4,1.4c0.6,1.5-0.1,3.7-1.9,6.5
				c-1.9,2.9-1.8,4.3-1.5,4.8c0.3,0.7,1,0.7,1.1,0.7c0.3,0,0.6,0.3,0.5,0.7C17.4,26.4,17.1,26.7,16.8,26.7z"/>
		</g>
	</g>
</g>
</svg>
