<?xml version="1.0" encoding="utf-8"?>
<!-- Generator: Adobe Illustrator 19.2.0, SVG Export Plug-In . SVG Version: 6.00 Build 0)  -->
<svg version="1.1" id="Capa_1" xmlns="http://www.w3.org/2000/svg" xmlns:xlink="http://www.w3.org/1999/xlink" x="0px" y="0px"
	 viewBox="0 0 25.8 20.7" style="enable-background:new 0 0 25.8 20.7;" xml:space="preserve">
<style type="text/css">
	.st0{fill:#FFFFFF;}
</style>
<title>fareclassic</title>
<path class="st0" d="M2.1,10.2l1.2,7.3h6.8c0.5-0.2,1.1,0.1,1.3,0.6c0.2,0.5-0.1,1.1-0.6,1.3c-0.2,0.1-0.4,0.1-0.6,0H1.4L0,10.5
	c0-0.5,0.4-1,0.9-1.1l0,0C1.4,9.3,2,9.6,2.1,10.2C2.1,10.2,2.1,10.2,2.1,10.2z M6.4,0.1c-1,0-1.9,0.8-2,1.8c0,1,0.8,1.9,1.8,2
	c1,0,1.9-0.8,2-1.8C8.3,1,7.4,0.1,6.4,0.1z M15,20.7L15,20.7c0.5,0,0.8-0.4,0.8-0.9c0,0,0-0.1,0-0.1l-1.2-5.4c-0.2-1.2-1.2-2-2.4-2
	H9.7c-0.2,0-0.3-0.1-0.4-0.3l-1-4.7c-0.2-0.9-1-1.6-1.9-1.6l0,0c-1,0-1.9,0.8-1.9,1.9c0,0.1,0,0.3,0,0.4l1.1,6.3
	c0,0.3,0.2,0.6,0.6,0.6c0,0,0,0,0,0H12c0.5,0,1,0.4,1.1,0.9l1,4.2C14.2,20.4,14.6,20.7,15,20.7z M18.7,11.4c0.4-0.1,0.7-0.3,0.9-0.6
	c1.6-3.1,3.5-6,5.8-8.6c0.5-0.5,0.4-1.3-0.1-1.8c-0.5-0.5-1.2-0.5-1.7,0c-2.1,2.4-3.9,5-5.4,7.8l-2.1-2c-0.5-0.5-1.3-0.4-1.8,0.1
	c-0.5,0.5-0.4,1.3,0.1,1.8l3.2,3.1c0.2,0.2,0.6,0.3,0.9,0.3C18.6,11.4,18.6,11.4,18.7,11.4L18.7,11.4z"/>
</svg>
