<svg xmlns="http://www.w3.org/2000/svg" viewBox="0 0 27.42 22.8"><title>farepremier</title><path d="M20.76,0.1h0l2-.1V0.1l0.9,3.4h-3.8Zm1,8.9,1.8-4.7h-3.7Zm-1.7-8.9h-1.4l-2.8,3.5h3.2Zm-4.2,4.2,5.2,5.1-2-5.1h-3.2Zm11.9-.8L25,0h-1.4l0.9,3.5h3.3Zm-5.3,5.9,5.2-5.1h-3.2Z" transform="translate(-0.34)" fill="#e3b256"/><path d="M6.06,2a1.9,1.9,0,1,1-1.8-2A2,2,0,0,1,6.06,2Zm16.2,17.4h0a0.91,0.91,0,0,0,.7-1.5l-3.4-4.4a3,3,0,0,0-2.5-1.2h-1.8a0.76,0.76,0,0,1-.5-0.2L8.86,6.3a1.9,1.9,0,0,0-1.3-.5h0A1.91,1.91,0,0,0,6.16,9l5.3,5.8a0.71,0.71,0,0,0,.6.3h5.6a1.43,1.43,0,0,1,1.1.5l2.8,3.6A1.45,1.45,0,0,0,22.26,19.4ZM1.36,9.3h0A1,1,0,0,0,.56,11l7.1,8.4H16a1,1,0,1,0,0-1.9H9.16l-7-7.9A1.91,1.91,0,0,0,1.36,9.3ZM24.56,22a0.79,0.79,0,0,0-.8-0.8h-5.6a0.8,0.8,0,1,0,0,1.6h5.6A0.86,0.86,0,0,0,24.56,22Z" transform="translate(-0.34)" fill="#fff"/></svg>