<svg xmlns="http://www.w3.org/2000/svg" viewBox="0 0 26.7 20.62"><title>fareflexible</title><path d="M2.8,10.13L4,17.43h6.8a1,1,0,1,1,0,1.9H2.1l-1.4-8.9a1.09,1.09,0,0,1,1-1.1h0A1,1,0,0,1,2.8,10.13ZM7.1,0a2,2,0,0,0-2,1.8,2,2,0,0,0,1.8,2A2,2,0,0,0,8.9,2,1.79,1.79,0,0,0,7.1,0Zm8.7,20.6h0a0.85,0.85,0,0,0,.8-1l-1.2-5.4a2.45,2.45,0,0,0-2.4-2H10.5a0.42,0.42,0,0,1-.4-0.3l-1-4.7a2,2,0,0,0-1.9-1.6h0a1.9,1.9,0,0,0-1.9,2.3l1.1,6.3a0.58,0.58,0,0,0,.6.6h5.8a1.17,1.17,0,0,1,1.1.9l1,4.2A0.86,0.86,0,0,0,15.8,20.62Zm5.3-20.4-1.2,3.7H16.1a0.4,0.4,0,0,0-.2.7L19,6.93l-1.1,3.6a0.39,0.39,0,0,0,.6.4l3.1-2.1,3.1,2.1a0.39,0.39,0,0,0,.6-0.4l-1.1-3.6,3.1-2.3a0.44,0.44,0,0,0-.2-0.7H23.3l-1.2-3.7A0.66,0.66,0,0,0,21.1.23Z" transform="translate(-0.7)" fill="#fff"/></svg>