<?xml version="1.0" encoding="utf-8"?>
<!-- Generator: Adobe Illustrator 19.2.1, SVG Export Plug-In . SVG Version: 6.00 Build 0)  -->
<svg version="1.1" id="Layer_1" xmlns="http://www.w3.org/2000/svg" xmlns:xlink="http://www.w3.org/1999/xlink" x="0px" y="0px"
	 viewBox="0 0 60 60" enable-background="new 0 0 60 60" xml:space="preserve">
<g>
	<path d="M60,13.2c-0.1-0.2-0.2-0.3-0.3-0.4L42,5.2c-0.3-0.1-0.6,0-0.8,0.2l-6.6,10.1l-2.6,0.3c-0.4-2.1-2.3-3.7-4.5-3.7
		c-2.6,0-4.6,2.1-4.6,4.6c0,0.1,0,0.1,0,0.2l-5.8,0.7l-0.9-2.7c-0.1-0.2-0.2-0.3-0.3-0.4l-15-7.2C0.6,7.3,0.4,7.3,0.2,7.5
		C0,7.7-0.1,8,0.1,8.2L6,19.8V49c0,0.2,0.1,0.4,0.3,0.5l14.3,10.3c0.1,0.1,0.2,0.1,0.4,0.1c0,0,0,0,0.1,0l30.5-3.4
		c0.1,0,0.1-0.1,0.2-0.1c0.1,0,0.1-0.1,0.2-0.1c0.1-0.1,0.1-0.1,0.1-0.2c0-0.1,0.1-0.1,0.1-0.2V26.6l8-12.9C60,13.6,60,13.4,60,13.2
		z M33.7,27.9c-0.4-0.4-0.6-0.9-0.6-1.4c0-1.1,0.9-2,2-2c1.1,0,2,0.9,2,2c0,0.4-0.1,0.8-0.4,1.1L33.7,27.9z M35.7,23.3v-6.1
		l13.9,8.8l-11.5,1.3c0.1-0.3,0.2-0.6,0.2-0.9C38.2,24.9,37.1,23.6,35.7,23.3z M27.6,13.4c1.9,0,3.4,1.5,3.4,3.4s-1.5,3.4-3.4,3.4
		c-1.9,0-3.4-1.5-3.4-3.4S25.7,13.4,27.6,13.4z M23.2,18.1c0.6,1.9,2.3,3.3,4.4,3.3c2.5,0,4.4-1.9,4.6-4.3l2.3-0.3v6.5
		c-1.5,0.3-2.6,1.6-2.6,3.1c0,0.6,0.2,1.1,0.4,1.6l-11,1.2l-3.7-10.5L23.2,18.1z M15.2,15.6l4.5,12.7L7,19.2L2,9.3L15.2,15.6z
		 M7.2,20.8l13.1,9.5v27.9L7.2,48.7V20.8z M21.5,30.5l15.6-1.8c0,0,0,0,0,0l13.6-1.5v28.2l-29.3,3.3V30.5z M51.1,25.6l-15.2-9.7
		L42,6.5l16.5,7.2L51.1,25.6z"/>
	<path d="M19.6,6.4c1.8,0,3.2-1.4,3.2-3.2S21.3,0,19.6,0s-3.2,1.4-3.2,3.2S17.8,6.4,19.6,6.4z M19.6,1.2c1.1,0,2,0.9,2,2s-0.9,2-2,2
		s-2-0.9-2-2S18.5,1.2,19.6,1.2z"/>
	<path d="M33.6,10.2c1.4,0,2.6-1.2,2.6-2.6S35,5,33.6,5C32.1,5,31,6.2,31,7.6S32.1,10.2,33.6,10.2z M33.6,6.3c0.8,0,1.4,0.6,1.4,1.4
		S34.3,9,33.6,9c-0.8,0-1.4-0.6-1.4-1.4S32.8,6.3,33.6,6.3z"/>
	<path d="M24.6,26c0.8,0,1.4-0.6,1.4-1.4c0-0.8-0.6-1.4-1.4-1.4c-0.8,0-1.4,0.6-1.4,1.4C23.2,25.4,23.9,26,24.6,26z M24.6,24.5
		c0.1,0,0.2,0.1,0.2,0.2c0,0.2-0.3,0.2-0.3,0C24.5,24.6,24.5,24.5,24.6,24.5z"/>
</g>
</svg>
