<svg
    width="12"
    height="11"
    viewBox="5 3 27.42 22.8"
    fill="none"
    xmlns="http://www.w3.org/2000/svg"
>
    <path
        d="M5.10995 9.49928L5.78209 13.4652L9.46577 13.4623C10.1976 13.4623 10.2616 14.4988 9.46577 14.4988L4.76414 14.5017L4.0065 9.67725C3.99525 9.60382 3.99863 9.52888 4.01646 9.45678C4.0343 9.38468 4.06622 9.31685 4.11038 9.25723C4.15453 9.19761 4.21005 9.14739 4.2737 9.10949C4.33735 9.07159 4.40786 9.04675 4.48115 9.03643C4.62538 9.01611 4.77181 9.05312 4.88926 9.13957C5.0067 9.22602 5.08589 9.35509 5.10995 9.49928ZM7.43285 4.001C7.23242 3.99207 7.03385 4.04301 6.86225 4.14737C6.69065 4.25173 6.55374 4.40483 6.46882 4.58731C6.3839 4.76978 6.35479 4.97343 6.38517 5.17252C6.41555 5.3716 6.50406 5.55717 6.6395 5.70575C6.77494 5.85434 6.95123 5.95927 7.14608 6.00728C7.34092 6.05529 7.54558 6.04422 7.73416 5.97548C7.92274 5.90673 8.08678 5.78338 8.20553 5.62105C8.32428 5.45871 8.39241 5.26467 8.40131 5.06346C8.41322 4.79366 8.31788 4.53015 8.13627 4.3309C7.95465 4.13165 7.70163 4.01298 7.43285 4.001ZM12.095 15.2C12.1636 15.2 12.2313 15.1846 12.2932 15.1549C12.3551 15.1252 12.4095 15.0821 12.4526 15.0285C12.4957 14.975 12.5263 14.9124 12.5422 14.8455C12.5581 14.7785 12.5589 14.7088 12.5445 14.6415L11.9203 11.7266C11.8554 11.4237 11.6891 11.1523 11.449 10.9576C11.209 10.7629 10.9097 10.6567 10.601 10.6567H9.25784C9.209 10.6567 9.16167 10.6398 9.12383 10.6088C9.08598 10.5778 9.05995 10.5347 9.05012 10.4867L8.52887 7.93946C8.47875 7.69993 8.34806 7.48499 8.15876 7.33074C7.96945 7.17648 7.73305 7.0923 7.48923 7.09231C7.33414 7.09232 7.18095 7.12641 7.04039 7.19219C6.89984 7.25798 6.77534 7.35386 6.67563 7.4731C6.57593 7.59234 6.50344 7.73205 6.46327 7.88241C6.42309 8.03277 6.4162 8.19014 6.44307 8.34346L7.03646 11.7289C7.03646 11.7749 7.04547 11.8204 7.06299 11.8628C7.0805 11.9053 7.10618 11.9439 7.13855 11.9764C7.17092 12.0089 7.20935 12.0347 7.25164 12.0522C7.29393 12.0698 7.33926 12.0789 7.38504 12.0789H10.5112C10.655 12.0789 10.7946 12.1279 10.9071 12.2179C11.0195 12.3079 11.0983 12.4336 11.1303 12.5743L11.6469 14.8414C11.6701 14.9433 11.7271 15.0342 11.8085 15.0994C11.8899 15.1645 11.9909 15.2 12.095 15.2Z"
        fill="#564293"
    />
    <path
        d="M16.6118 4.68988L14.4807 4.64508L13.7816 2.53625C13.7211 2.35462 13.4791 2.35462 13.4186 2.53625L12.7195 4.64508L10.5884 4.68988C10.4069 4.6946 10.3307 4.93993 10.4764 5.05551L12.1727 6.40239L11.5565 8.53714C11.5027 8.72112 11.6999 8.87208 11.85 8.76357L13.6001 7.48741L15.3502 8.76357C15.5003 8.87208 15.6953 8.72112 15.6437 8.53714L15.0275 6.40239L16.7261 5.05551C16.8672 4.93993 16.7933 4.6946 16.6118 4.68988Z"
        fill="#564293"
    />
</svg>
