<?xml version="1.0" encoding="utf-8"?>
<!-- Generator: Adobe Illustrator 23.0.0, SVG Export Plug-In . SVG Version: 6.00 Build 0)  -->
<svg version="1.1" id="Layer_1" xmlns="http://www.w3.org/2000/svg" xmlns:xlink="http://www.w3.org/1999/xlink" x="0px" y="0px"
	 viewBox="0 0 52.1 68.3" style="enable-background:new 0 0 52.1 68.3;" xml:space="preserve">
<g>
	<path d="M6.7,33.5l4.1,24.1l22.4,0c4.5,0,4.9,6.3,0,6.3l-28.7,0L0,34.6c-0.3-1.9,1-3.6,2.9-3.9l0,0C4.7,30.5,6.4,31.7,6.7,33.5z"/>
	<path d="M20.9,0.1C17.5,0,14.6,2.6,14.4,6c-0.2,3.4,2.5,6.3,5.9,6.4c3.4,0.2,6.3-2.5,6.4-5.9C26.9,3.2,24.3,0.3,20.9,0.1z"/>
	<path d="M49.3,68.1L49.3,68.1c1.8,0,3.1-1.6,2.7-3.4L48.2,47c-0.8-3.8-4.2-6.5-8-6.5H32c-0.6,0-1.1-0.4-1.3-1l-3.2-15.5
		c-0.6-3-3.3-5.1-6.3-5.1h0c-4,0-7.1,3.6-6.4,7.6l3.6,20.6c0,1.2,1,2.1,2.1,2.1h19.1c1.8,0,3.4,1.2,3.8,3L46.6,66
		C46.9,67.2,48,68.1,49.3,68.1z"/>
</g>
</svg>
