<?xml version="1.0" encoding="utf-8"?>
<!-- Generator: Adobe Illustrator 19.2.1, SVG Export Plug-In . SVG Version: 6.00 Build 0)  -->
<svg version="1.1" id="Layer_1" xmlns="http://www.w3.org/2000/svg" xmlns:xlink="http://www.w3.org/1999/xlink" x="0px" y="0px"
	 viewBox="0 0 60 57" enable-background="new 0 0 60 57" xml:space="preserve">
<g>
	<path d="M53.9,49.2v-9.3c0-2.2-1.8-4-4.1-4c-1.2,0-2.3,0.5-3.1,1.3v-3.9c0-2.7-2.2-4.8-4.9-4.8H12.2c-1.5,0-3,0.7-3.9,1.8
		c-0.8,0.9-1.1,2-1,3.1v4c-0.9-0.8-2.1-1.4-3.2-1.4c-2.2,0-4,1.8-4,4v9.3c0,2.3,1.9,4.2,4.3,4.2h3v3c0,0.3,0.3,0.6,0.6,0.6
		c0.3,0,0.6-0.3,0.6-0.6v-3h37v3c0,0.3,0.3,0.6,0.6,0.6c0.3,0,0.6-0.3,0.6-0.6v-3h2.9C51.9,53.4,53.9,51.5,53.9,49.2z M45.4,33.3
		v6.6v4.9H26.8V29.6h15C43.8,29.6,45.4,31.3,45.4,33.3z M8.5,33.2c-0.1-1,0.3-1.7,0.7-2.2c0.7-0.8,1.9-1.3,3-1.3h13.4v15.2H8.5v-4.9
		L8.5,33.2z M1.2,49.2v-9.3c0-1.5,1.3-2.8,2.8-2.8c1.5,0,3.2,1.2,3.2,2.8v5.6c0,0.3,0.3,0.6,0.6,0.6H46c0.3,0,0.6-0.3,0.6-0.6v-5.6
		c0-1.6,1.7-2.8,3.2-2.8c1.6,0,2.8,1.2,2.8,2.8v9.3c0,1.6-1.4,3-3.1,3H4.3C2.6,52.1,1.2,50.8,1.2,49.2z"/>
	<path d="M59.4,55.8h-2.5V7.4c0-4-3.3-7.3-7.5-7.4c-1.9-0.1-3.7,0.6-5.1,2c-1.5,1.4-2.4,3.6-2.5,5.8c-2.8,0.3-5.1,2.7-5.1,5.6
		c0,0.3,0.3,0.6,0.6,0.6h10c0.3,0,0.6-0.3,0.6-0.6c0-2.8-2.2-5.2-4.9-5.5c0.1-1.9,0.9-3.7,2.1-4.9c1.1-1.1,2.5-1.7,4.2-1.6
		c3.6,0.1,6.3,2.7,6.3,6.2v48.4h-2.5c-0.3,0-0.6,0.3-0.6,0.6s0.3,0.6,0.6,0.6h6.3c0.3,0,0.6-0.3,0.6-0.6S59.7,55.8,59.4,55.8z
		 M46.7,12.7H38c0.3-2.1,2.2-3.8,4.3-3.8S46.4,10.6,46.7,12.7z"/>
</g>
</svg>
