<?xml version="1.0" encoding="utf-8"?>
<!-- Generator: Adobe Illustrator 19.1.0, SVG Export Plug-In . SVG Version: 6.00 Build 0)  -->
<svg version="1.1" id="Layer_1" xmlns="http://www.w3.org/2000/svg" xmlns:xlink="http://www.w3.org/1999/xlink" x="0px" y="0px"
	 viewBox="-380 376 37.9 49" style="enable-background:new -380 376 37.9 49;" xml:space="preserve">
<g>
	<g>
		<path d="M-368.5,410.2c-0.2,0-0.3-0.1-0.4-0.2c-0.2-0.2-0.1-0.5,0.1-0.7l8.1-5.8v-13.3c0-0.3,0.2-0.5,0.5-0.5s0.5,0.2,0.5,0.5
			v13.6c0,0.2-0.1,0.3-0.2,0.4l-8.3,5.9C-368.3,410.2-368.4,410.2-368.5,410.2z"/>
	</g>
	<g>
		<path d="M-361.1,421.1c-10.1,0-18.3-8.2-18.3-18.3c0-10.1,8.2-18.3,18.3-18.3s18.3,8.2,18.3,18.3
			C-342.8,412.9-351,421.1-361.1,421.1z M-361.1,385.5c-9.5,0-17.3,7.8-17.3,17.3s7.8,17.3,17.3,17.3c9.5,0,17.3-7.8,17.3-17.3
			S-351.6,385.5-361.1,385.5z"/>
	</g>
	<g>
		<path d="M-375.7,425c-0.1,0-0.2,0-0.2-0.1c-0.2-0.1-0.3-0.4-0.2-0.7l4.1-7.2c0.1-0.2,0.4-0.3,0.7-0.2c0.2,0.1,0.3,0.4,0.2,0.7
			l-4.1,7.2C-375.4,424.9-375.5,425-375.7,425z M-346.4,425c-0.2,0-0.3-0.1-0.4-0.2l-4.2-7.2c-0.1-0.2-0.1-0.5,0.2-0.7
			c0.2-0.1,0.5-0.1,0.7,0.2l4.2,7.2c0.1,0.2,0.1,0.5-0.2,0.7C-346.2,425-346.3,425-346.4,425z M-378.6,387.2c-0.2,0-0.3-0.1-0.4-0.2
			c-2-3.4-0.8-7.9,2.7-10c1.7-1,3.6-1.3,5.5-0.8c1.9,0.5,3.5,1.7,4.5,3.4c0.1,0.2,0.1,0.5-0.2,0.7l-11.8,6.8
			C-378.4,387.2-378.5,387.2-378.6,387.2z M-372.7,377c-1.1,0-2.2,0.3-3.1,0.9c-2.8,1.7-3.9,5.3-2.6,8.2l10.9-6.3
			c-0.9-1.3-2.1-2.2-3.6-2.5C-371.6,377-372.2,377-372.7,377z M-343.5,387.2c-0.1,0-0.2,0-0.2-0.1l-11.8-6.8
			c-0.2-0.1-0.3-0.4-0.2-0.7c1-1.7,2.6-2.9,4.4-3.4c1.9-0.5,3.8-0.2,5.6,0.7c1.7,1,2.9,2.6,3.4,4.4c0.5,1.9,0.2,3.8-0.7,5.6
			c-0.1,0.1-0.2,0.2-0.3,0.2C-343.4,387.2-343.5,387.2-343.5,387.2z M-354.6,379.7l10.9,6.3c0.7-1.4,0.8-2.9,0.4-4.4
			c-0.4-1.6-1.5-3-3-3.8c-1.5-0.9-3.2-1.1-4.8-0.6C-352.5,377.6-353.7,378.5-354.6,379.7z"/>
	</g>
</g>
</svg>
