<?xml version="1.0" encoding="utf-8"?>
<!-- Generator: Adobe Illustrator 19.2.0, SVG Export Plug-In . SVG Version: 6.00 Build 0)  -->
<svg version="1.1" id="Capa_1" xmlns="http://www.w3.org/2000/svg" xmlns:xlink="http://www.w3.org/1999/xlink" x="0px" y="0px"
	 viewBox="0 0 24.3 22.8" style="enable-background:new 0 0 24.3 22.8;" xml:space="preserve">
<style type="text/css">
	.st0{fill:#FFFFFF;}
</style>
<title>fareconfort</title>
<path class="st0" d="M5.7,2c-0.1,1-1,1.9-2,1.8s-1.9-1-1.8-2c0.1-1,0.9-1.8,2-1.8C4.9,0.1,5.7,1,5.7,2z M21.9,19.4L21.9,19.4
	c0.5,0,0.9-0.4,0.9-0.9c0-0.2-0.1-0.4-0.2-0.6l-3.4-4.4c-0.6-0.8-1.5-1.2-2.5-1.2H15c-0.2,0-0.4-0.1-0.5-0.2L8.5,6.3
	C8.2,6,7.7,5.8,7.2,5.8l0,0c-1.1,0-1.9,0.9-1.9,1.9c0,0.5,0.2,0.9,0.5,1.3l5.3,5.8c0.1,0.2,0.4,0.3,0.6,0.3h5.6
	c0.4,0,0.8,0.2,1.1,0.5l2.8,3.6C21.5,19.3,21.7,19.4,21.9,19.4z M1,9.3L1,9.3c-0.6,0-1,0.4-1,1c0,0.3,0.1,0.5,0.3,0.7l7.1,8.4h8.3
	c0.5,0.2,1.1-0.1,1.3-0.6c0.2-0.5-0.1-1.1-0.6-1.3c-0.2-0.1-0.4-0.1-0.6,0H8.8l-7-7.9C1.6,9.4,1.3,9.3,1,9.3z M24.3,22
	c0-0.4-0.3-0.8-0.8-0.8c0,0,0,0,0,0h-5.6c-0.4,0-0.8,0.4-0.8,0.8c0,0.4,0.4,0.8,0.8,0.8h5.6C23.9,22.8,24.2,22.4,24.3,22z"/>
</svg>
