<?xml version="1.0" encoding="utf-8"?>
<!-- Generator: Adobe Illustrator 19.1.0, SVG Export Plug-In . SVG Version: 6.00 Build 0)  -->
<svg version="1.1" id="Layer_1" xmlns="http://www.w3.org/2000/svg" xmlns:xlink="http://www.w3.org/1999/xlink" x="0px" y="0px"
	 viewBox="-385 388 29 25" style="enable-background:new -385 388 29 25;" xml:space="preserve">
<style type="text/css">
	.st0{fill:#231F20;}
</style>
<g>
	<g>
		<path class="st0" d="M-360.1,396.4c-0.1,0-0.3,0-0.3-0.1c-0.2-0.2-0.2-0.5,0-0.7l3.3-3.4l-3.3-3.4c-0.2-0.2-0.2-0.5,0-0.7
			c0.2-0.2,0.5-0.2,0.7,0l3.6,3.7c0.2,0.2,0.2,0.5,0,0.7l-3.6,3.7C-359.8,396.3-360,396.4-360.1,396.4z"/>
	</g>
	<g>
		<path class="st0" d="M-360.1,413c-0.1,0-0.3,0-0.3-0.1c-0.2-0.2-0.2-0.5,0-0.7l3.3-3.4l-3.3-3.4c-0.2-0.2-0.2-0.5,0-0.7
			c0.2-0.2,0.5-0.2,0.7,0l3.6,3.7c0.2,0.2,0.2,0.5,0,0.7l-3.6,3.7C-359.8,412.9-360,413-360.1,413z M-378.4,409.3h-6.1
			c-0.3,0-0.5-0.2-0.5-0.5s0.2-0.5,0.5-0.5h6.1c5,0,7.1-2.2,7.1-7.3v-0.5c0-5.7,2.9-8.8,8.1-8.8h6.7c0.3,0,0.5,0.2,0.5,0.5
			s-0.2,0.5-0.5,0.5h-6.7c-4.7,0-7.1,2.6-7.1,7.8v0.5C-370.3,406.7-372.9,409.3-378.4,409.3z"/>
	</g>
	<g>
		<path class="st0" d="M-356.5,409.3h-6.7c-2,0-3.9-0.7-5.3-2c-0.2-0.2-0.2-0.5,0-0.7s0.5-0.2,0.7,0c1.2,1.1,2.9,1.8,4.7,1.8h6.7
			c0.3,0,0.5,0.2,0.5,0.5S-356.2,409.3-356.5,409.3z M-373.4,394.6c-0.1,0-0.2,0-0.3-0.1c-1.2-1.1-2.9-1.8-4.7-1.8h-6.1
			c-0.3,0-0.5-0.2-0.5-0.5s0.2-0.5,0.5-0.5h6.1c2,0,3.9,0.7,5.3,2c0.2,0.2,0.2,0.5,0,0.7C-373.1,394.5-373.3,394.6-373.4,394.6z"/>
	</g>
</g>
</svg>
