<?xml version="1.0" encoding="utf-8"?>
<!-- Generator: Adobe Illustrator 19.2.1, SVG Export Plug-In . SVG Version: 6.00 Build 0)  -->
<svg version="1.1" id="Layer_1" xmlns="http://www.w3.org/2000/svg" xmlns:xlink="http://www.w3.org/1999/xlink" x="0px" y="0px"
	 viewBox="0 0 60 56" enable-background="new 0 0 60 56" xml:space="preserve">
<g>
	<path d="M56,32.6c-5.3-5.3-14-5.3-19.3,0c-0.6,0.6-1.2,1.3-1.6,2c0-0.1-0.1-0.2-0.1-0.2c-1.3-0.9-1.8-1.5-1.9-1.8v-2.3
		c1.7-1.8,3-4.2,3.8-7c1-0.8,1.6-1.9,1.8-3.2c0.2-1.3-0.1-2.6-0.9-3.6v-5.7c0-7-4.1-10.9-11.5-10.9c-7.3,0-11.5,4-11.5,10.9v5.7
		c-0.8,1-1.1,2.3-0.9,3.6c0.2,1.3,0.8,2.4,1.8,3.2c0.8,2.8,2.1,5.2,3.8,7v2.3c-0.5,1.3-4,3.9-17.7,9.3C0.6,42.2,0,43.2,0,44.2V47
		c0,0.3,0.3,0.6,0.6,0.6s0.6-0.3,0.6-0.6v-2.8c0-0.5,0.3-1,0.8-1.2c15.7-6.2,18.1-8.8,18.5-10.2c0-0.1,0-0.1,0-0.2v-2.6
		c0-0.2-0.1-0.3-0.2-0.4c-1.7-1.7-2.9-4.1-3.7-6.9c0-0.1-0.1-0.3-0.2-0.3c-0.8-0.6-1.3-1.5-1.5-2.5c-0.1-1,0.1-2,0.8-2.8
		c0.1-0.1,0.1-0.2,0.1-0.4v-5.9c0-6.2,3.7-9.6,10.3-9.6c8.5,0,10.3,5.2,10.3,9.6v5.9c0,0.1,0,0.3,0.1,0.4c0.6,0.8,0.9,1.8,0.8,2.8
		c-0.1,1-0.7,1.9-1.5,2.4c-0.1,0.1-0.2,0.2-0.2,0.3c-0.8,2.8-2,5.2-3.7,6.9c-0.1,0.1-0.2,0.3-0.2,0.4v2.6c0,0.1,0,0.1,0,0.2
		c0.2,0.8,1,1.6,2.4,2.6c0.1,0.1,0.2,0.1,0.3,0.1c-1.2,2.1-1.8,4.4-1.8,6.8c0,3.7,1.4,7.1,4,9.7c2.7,2.7,6.2,4,9.6,4
		c3.5,0,7-1.3,9.6-4C61.3,46.7,61.3,38,56,32.6z M55.1,51.1c-4.8,4.9-12.7,4.8-17.5,0c-4.8-4.8-4.8-12.7,0-17.6
		c2.4-2.4,5.6-3.6,8.8-3.6c3.2,0,6.3,1.2,8.8,3.6C60,38.4,60,46.3,55.1,51.1z"/>
	<path d="M46.1,48c-0.3,0-0.6,0.3-0.6,0.6v0.3c0,0.3,0.3,0.6,0.6,0.6s0.6-0.3,0.6-0.6v-0.3C46.7,48.2,46.4,48,46.1,48z"/>
	<path d="M46.1,36c-1.4,0-2.8,0.7-3.5,1.8c-0.2,0.3-0.1,0.7,0.2,0.9c0.3,0.2,0.7,0.1,0.9-0.2c0.5-0.8,1.4-1.2,2.5-1.2
		c1.6,0,2.8,1.1,2.8,2.4c0,1-0.9,1.8-2.6,2.4c-0.5,0.2-0.9,0.7-0.9,1.2v1.8c0,0.3,0.3,0.6,0.6,0.6s0.6-0.3,0.6-0.6l0-1.9
		c2.3-0.8,3.5-2,3.5-3.6C50.2,37.6,48.4,36,46.1,36z"/>
</g>
</svg>
