<?xml version="1.0" encoding="utf-8"?>
<!-- Generator: Adobe Illustrator 19.1.0, SVG Export Plug-In . SVG Version: 6.00 Build 0)  -->
<svg version="1.1" id="Layer_1" xmlns="http://www.w3.org/2000/svg" xmlns:xlink="http://www.w3.org/1999/xlink" x="0px" y="0px"
	 viewBox="-376 375 46.5 51" style="enable-background:new -376 375 46.5 51;" xml:space="preserve">
<g>
	<path d="M-359.8,426h-2.2c-0.2,0-0.3-0.1-0.4-0.2c-0.1-0.1-0.1-0.3,0-0.5l9.7-20.6l-12.9-0.9l-5.2,5.8c-0.1,0.1-0.2,0.2-0.4,0.2
		h-4.2c-0.2,0-0.3-0.1-0.4-0.3c-0.1-0.2-0.1-0.4,0-0.5l5.4-8.9l-5.4-8.1c-0.1-0.2-0.1-0.4,0-0.5s0.3-0.3,0.4-0.3h4.2
		c0.1,0,0.3,0.1,0.4,0.2l5.2,5.8l12.9-0.9l-9.7-20.4c-0.1-0.2-0.1-0.3,0-0.5c0.1-0.1,0.3-0.2,0.4-0.2h2.2c1.9,0,2.4,0.6,10.6,10.2
		c2.3,2.7,5.2,6.1,9,10.4l0.7,0.1c4,0.3,10,0.8,10,4.8c0,4.2-6.7,4.6-10.3,4.9l-0.3,0c-3.3,3.9-6,7-8.2,9.6
		C-357.3,425.4-357.8,426-359.8,426z M-361.2,425h1.4c1.5,0,2.2-0.8,10.7-10.7c2.2-2.6,4.9-5.8,8.3-9.7c0.1-0.1,0.2-0.2,0.3-0.2
		l0.6,0c3-0.2,9.4-0.6,9.4-3.9c0-3.1-5.5-3.6-9.1-3.8l-0.9-0.1c-0.1,0-0.3-0.1-0.3-0.2c-3.8-4.4-6.8-7.9-9.1-10.6
		c-7.8-9.1-8.4-9.8-9.9-9.8h-1.4l9.7,20.4c0.1,0.1,0.1,0.3,0,0.5s-0.2,0.2-0.4,0.2l-13.9,1c-0.2,0-0.3,0-0.4-0.2l-5.3-5.8h-3
		l5.1,7.6c0.1,0.2,0.1,0.4,0,0.5l-5.1,8.4h3.1l5.3-5.8c0.1-0.1,0.3-0.2,0.4-0.2l13.9,1c0.2,0,0.3,0.1,0.4,0.2c0.1,0.1,0.1,0.3,0,0.5
		L-361.2,425z"/>
</g>
</svg>
