<svg width="32" height="32" viewBox="0 0 32 32" fill="none" xmlns="http://www.w3.org/2000/svg">
<path fill-rule="evenodd" clip-rule="evenodd" d="M18.5919 4.37349C18.7944 4.37349 18.9586 4.53833 18.9586 4.74167V8.05524H22.2586C22.4611 8.05524 22.6253 8.22008 22.6253 8.42341C22.6253 8.62675 22.4611 8.79159 22.2586 8.79159H18.5919C18.3894 8.79159 18.2253 8.62675 18.2253 8.42341V4.74167C18.2253 4.53833 18.3894 4.37349 18.5919 4.37349Z" fill="#0074B8"/>
<path fill-rule="evenodd" clip-rule="evenodd" d="M7.592 5.10984C7.41037 5.10984 7.24 5.27162 7.24 5.48539V25.3447C7.24 25.5562 7.40078 25.7129 7.592 25.7129H21.5326C21.7286 25.7129 21.8919 25.5512 21.8919 25.3447V23.8867C21.8919 23.6834 22.0561 23.5186 22.2586 23.5186C22.4611 23.5186 22.6253 23.6834 22.6253 23.8867V25.3447C22.6253 25.9482 22.1432 26.4493 21.5326 26.4493H7.592C6.97657 26.4493 6.50667 25.9433 6.50667 25.3447V5.48539C6.50667 4.88918 6.98164 4.37349 7.592 4.37349H18.5919C18.7464 4.37349 18.8813 4.40824 19.0052 4.48142C19.1123 4.54471 19.1977 4.63043 19.2589 4.69192L19.2603 4.69332L19.2619 4.6949L22.2979 7.70654C22.3819 7.79096 22.4655 7.88984 22.526 8.01283C22.5889 8.14079 22.6179 8.27647 22.6179 8.42341V10.6325C22.6179 10.8358 22.4538 11.0006 22.2513 11.0006C22.0488 11.0006 21.8846 10.8358 21.8846 10.6325V8.42341C21.8846 8.3789 21.877 8.35627 21.8684 8.33881C21.8574 8.31646 21.8348 8.28299 21.78 8.22789L18.7449 5.21716L18.7433 5.21558C18.7102 5.18232 18.6876 5.16017 18.6678 5.14275C18.649 5.12617 18.6385 5.11914 18.6333 5.11608C18.6295 5.11378 18.6259 5.11279 18.6259 5.11279C18.6233 5.11209 18.6135 5.10984 18.5919 5.10984H7.592Z" fill="#0074B8"/>
<path fill-rule="evenodd" clip-rule="evenodd" d="M11.5131 9.6176C11.6663 9.75058 11.6831 9.98308 11.5507 10.1369L9.96578 11.9778C9.89812 12.0564 9.80053 12.1026 9.6971 12.1051C9.59366 12.1075 9.49401 12.066 9.42271 11.9907L8.80763 11.3413C8.66808 11.194 8.6739 10.9609 8.82064 10.8208C8.96738 10.6807 9.19947 10.6865 9.33902 10.8339L9.67545 11.1891L10.9959 9.65533C11.1284 9.50151 11.3599 9.48461 11.5131 9.6176Z" fill="#0074B8"/>
<path fill-rule="evenodd" clip-rule="evenodd" d="M11.5131 14.772C11.6663 14.905 11.6831 15.1375 11.5507 15.2913L9.96578 17.1322C9.89812 17.2108 9.80053 17.257 9.6971 17.2595C9.59366 17.262 9.49401 17.2204 9.42271 17.1452L8.80763 16.4958C8.66808 16.3484 8.6739 16.1154 8.82064 15.9753C8.96738 15.8351 9.19947 15.841 9.33902 15.9883L9.67545 16.3435L10.9959 14.8098C11.1284 14.656 11.3599 14.6391 11.5131 14.772Z" fill="#0074B8"/>
<path fill-rule="evenodd" clip-rule="evenodd" d="M13.1066 10.6325C13.1066 10.4291 13.2708 10.2643 13.4733 10.2643H18.6066C18.8091 10.2643 18.9733 10.4291 18.9733 10.6325C18.9733 10.8358 18.8091 11.0006 18.6066 11.0006H13.4733C13.2708 11.0006 13.1066 10.8358 13.1066 10.6325Z" fill="#0074B8"/>
<path fill-rule="evenodd" clip-rule="evenodd" d="M13.1066 16.1551C13.1066 15.9517 13.2708 15.7869 13.4733 15.7869H18.6066C18.8091 15.7869 18.9733 15.9517 18.9733 16.1551C18.9733 16.3584 18.8091 16.5233 18.6066 16.5233H13.4733C13.2708 16.5233 13.1066 16.3584 13.1066 16.1551Z" fill="#0074B8"/>
<path fill-rule="evenodd" clip-rule="evenodd" d="M13.1066 21.3095C13.1066 21.1062 13.2708 20.9414 13.4733 20.9414H18.6066C18.8091 20.9414 18.9733 21.1062 18.9733 21.3095C18.9733 21.5129 18.8091 21.6777 18.6066 21.6777H13.4733C13.2708 21.6777 13.1066 21.5129 13.1066 21.3095Z" fill="#0074B8"/>
<path fill-rule="evenodd" clip-rule="evenodd" d="M8.70666 20.205C8.70666 20.0017 8.87082 19.8368 9.07333 19.8368H11.2733C11.4758 19.8368 11.64 20.0017 11.64 20.205V22.414C11.64 22.6174 11.4758 22.7822 11.2733 22.7822H9.07333C8.87082 22.7822 8.70666 22.6174 8.70666 22.414V20.205ZM9.43999 20.5732V22.0459H10.9067V20.5732H9.43999Z" fill="#0074B8"/>
<path fill-rule="evenodd" clip-rule="evenodd" d="M18.9586 8.05524L21.6058 8.05514L18.9585 5.42903L18.9586 8.05524ZM19.0652 5.68509V7.94847H21.3468L19.0652 5.68509ZM18.977 4.46546C18.8608 4.4031 18.7347 4.37349 18.5919 4.37349H7.592C6.98164 4.37349 6.50667 4.88918 6.50667 5.48539V25.3447C6.50667 25.9433 6.97657 26.4493 7.592 26.4493H21.5326C22.1432 26.4493 22.6253 25.9482 22.6253 25.3447V23.8867C22.6253 23.6834 22.4611 23.5186 22.2586 23.5186C22.0561 23.5186 21.8919 23.6834 21.8919 23.8867V25.3447C21.8919 25.5512 21.7286 25.7129 21.5326 25.7129H7.592C7.40078 25.7129 7.24 25.5562 7.24 25.3447V5.48539C7.24 5.27162 7.41037 5.10984 7.592 5.10984L18.2252 5.10974L18.2253 8.42341C18.2253 8.62675 18.3894 8.79159 18.5919 8.79159L21.8845 8.79149L21.8846 10.6325C21.8846 10.8358 22.0488 11.0006 22.2513 11.0006C22.4538 11.0006 22.6179 10.8358 22.6179 10.6325L22.6178 8.49692C22.6226 8.47313 22.6253 8.44862 22.6253 8.42341C22.6253 8.39218 22.6213 8.36174 22.614 8.33278C22.6051 8.23048 22.5808 8.1336 22.5391 8.04085C22.5348 8.03143 22.5305 8.02216 22.526 8.01283C22.4655 7.88984 22.3819 7.79096 22.2979 7.70654L19.2619 4.6949L19.2603 4.69332L19.2589 4.69192C19.1977 4.63043 19.1123 4.54471 19.0052 4.48142C18.9959 4.47592 18.9864 4.47053 18.977 4.46546ZM19.3355 4.6177L19.3347 4.61682L19.3321 4.61425C19.2715 4.55343 19.1783 4.45972 19.0594 4.38948C18.9175 4.30569 18.7635 4.26672 18.5918 4.26672H7.5919C6.91843 4.26672 6.3999 4.83445 6.3999 5.48528V25.3446C6.3999 25.9986 6.91407 26.5558 7.5919 26.5558H21.5325C22.204 26.5558 22.7318 26.0051 22.7318 25.3446V23.8866C22.7318 23.6248 22.5203 23.4118 22.2585 23.4118C21.9967 23.4118 21.7852 23.6248 21.7852 23.8866V25.3446C21.7852 25.4936 21.6682 25.6062 21.5325 25.6062H7.5919C7.46192 25.6062 7.34657 25.4995 7.34657 25.3446V5.48528C7.34657 5.32757 7.47199 5.21641 7.5919 5.21641H18.1185V8.42331C18.1185 8.68514 18.33 8.89815 18.5918 8.89815H21.7778V10.6324C21.7778 10.8942 21.9893 11.1072 22.2512 11.1072C22.513 11.1072 22.7245 10.8942 22.7245 10.6324V8.50697C22.7293 8.47981 22.7318 8.45185 22.7318 8.42331C22.7318 8.38615 22.7276 8.34997 22.7195 8.31525C22.708 8.19338 22.6764 8.07711 22.6216 7.96566C22.554 7.82814 22.4616 7.71981 22.3733 7.63117L19.3355 4.6177ZM11.5829 9.53694C11.7805 9.70847 11.8022 10.0081 11.6314 10.2064L10.0465 12.0473C9.95921 12.1487 9.83321 12.2084 9.69954 12.2116C9.56586 12.2148 9.43716 12.1611 9.34516 12.064L8.73009 11.4146C8.55015 11.2246 8.55764 10.9243 8.74687 10.7436C8.93635 10.5626 9.23619 10.5702 9.41636 10.7604L9.67157 11.0299L10.915 9.58563C11.0859 9.38708 11.3851 9.36519 11.5829 9.53694ZM10.9959 9.65533C11.1284 9.50151 11.3599 9.48461 11.5131 9.6176C11.6663 9.75058 11.6831 9.98308 11.5507 10.1369L9.96578 11.9778C9.89812 12.0564 9.80053 12.1026 9.6971 12.1051C9.59366 12.1075 9.49401 12.066 9.42271 11.9907L8.80763 11.3413C8.66808 11.194 8.6739 10.9609 8.82064 10.8208C8.96738 10.6807 9.19947 10.6865 9.33902 10.8339L9.67545 11.1891L10.9959 9.65533ZM11.5829 14.6914C11.7805 14.8629 11.8022 15.1625 11.6314 15.3608L10.0465 17.2017C9.95921 17.3031 9.83321 17.3629 9.69954 17.366C9.56586 17.3692 9.43716 17.3155 9.34516 17.2184L8.73009 16.569C8.55015 16.379 8.55764 16.0787 8.74687 15.898C8.93635 15.7171 9.23619 15.7246 9.41636 15.9149L9.67157 16.1843L10.915 14.7401C11.0859 14.5415 11.3851 14.5196 11.5829 14.6914ZM9.67545 16.3435L9.33902 15.9883C9.19947 15.841 8.96738 15.8351 8.82064 15.9753C8.6739 16.1154 8.66808 16.3484 8.80763 16.4958L9.42271 17.1452C9.49401 17.2204 9.59366 17.262 9.6971 17.2595C9.80053 17.257 9.89812 17.2108 9.96578 17.1322L11.5507 15.2913C11.6831 15.1375 11.6663 14.905 11.5131 14.772C11.3599 14.6391 11.1284 14.656 10.9959 14.8098L9.67545 16.3435ZM12.9999 10.6324C12.9999 10.3705 13.2114 10.1575 13.4732 10.1575H18.6065C18.8683 10.1575 19.0798 10.3705 19.0798 10.6324C19.0798 10.8942 18.8683 11.1072 18.6065 11.1072H13.4732C13.2114 11.1072 12.9999 10.8942 12.9999 10.6324ZM12.9999 16.155C12.9999 15.8931 13.2114 15.6801 13.4732 15.6801H18.6065C18.8683 15.6801 19.0798 15.8931 19.0798 16.155C19.0798 16.4168 18.8683 16.6298 18.6065 16.6298H13.4732C13.2114 16.6298 12.9999 16.4168 12.9999 16.155ZM12.9999 21.3094C12.9999 21.0476 13.2114 20.8346 13.4732 20.8346H18.6065C18.8683 20.8346 19.0798 21.0476 19.0798 21.3094C19.0798 21.5713 18.8683 21.7843 18.6065 21.7843H13.4732C13.2114 21.7843 12.9999 21.5713 12.9999 21.3094ZM8.59989 20.2049C8.59989 19.9431 8.8114 19.7301 9.07322 19.7301H11.2732C11.535 19.7301 11.7465 19.9431 11.7465 20.2049V22.4139C11.7465 22.6758 11.535 22.8888 11.2732 22.8888H9.07322C8.8114 22.8888 8.59989 22.6758 8.59989 22.4139V20.2049ZM9.54655 20.6797V21.9391H10.7999V20.6797H9.54655ZM13.1066 10.6325C13.1066 10.4291 13.2708 10.2643 13.4733 10.2643H18.6066C18.8091 10.2643 18.9733 10.4291 18.9733 10.6325C18.9733 10.8358 18.8091 11.0006 18.6066 11.0006H13.4733C13.2708 11.0006 13.1066 10.8358 13.1066 10.6325ZM13.4733 15.7869C13.2708 15.7869 13.1066 15.9517 13.1066 16.1551C13.1066 16.3584 13.2708 16.5233 13.4733 16.5233H18.6066C18.8091 16.5233 18.9733 16.3584 18.9733 16.1551C18.9733 15.9517 18.8091 15.7869 18.6066 15.7869H13.4733ZM13.1066 21.3095C13.1066 21.1062 13.2708 20.9414 13.4733 20.9414H18.6066C18.8091 20.9414 18.9733 21.1062 18.9733 21.3095C18.9733 21.5129 18.8091 21.6777 18.6066 21.6777H13.4733C13.2708 21.6777 13.1066 21.5129 13.1066 21.3095ZM9.07333 19.8368C8.87082 19.8368 8.70666 20.0017 8.70666 20.205V22.414C8.70666 22.6174 8.87082 22.7822 9.07333 22.7822H11.2733C11.4758 22.7822 11.64 22.6174 11.64 22.414V20.205C11.64 20.0017 11.4758 19.8368 11.2733 19.8368H9.07333ZM9.43999 20.5732H10.9067V22.0459H9.43999V20.5732Z" fill="#0074B8"/>
<path fill-rule="evenodd" clip-rule="evenodd" d="M24.3341 15.4853C24.6201 15.8016 24.7811 16.2266 24.8317 16.673L24.8327 16.682L24.9515 17.9757L26.2775 18.844C26.4747 18.9731 26.5298 19.2376 26.4007 19.4347C26.2716 19.6318 26.0072 19.687 25.81 19.5579L24.3118 18.5767C24.2029 18.5055 24.1325 18.3884 24.1206 18.2589L23.9833 16.7648C23.9472 16.4527 23.8396 16.2108 23.701 16.0575C23.5701 15.9126 23.4008 15.8322 23.1781 15.8421C22.8238 15.8573 22.4808 16.1897 22.4426 16.6575L22.9612 20.1327C22.9624 20.1404 22.9633 20.1482 22.9641 20.1559L22.9642 20.157L22.9656 20.1692C22.9669 20.1805 22.9693 20.1983 22.9729 20.221C22.9803 20.2668 22.9923 20.3292 23.0107 20.3957C23.054 20.5521 23.1075 20.6382 23.1363 20.6618L23.1396 20.6644C23.1794 20.6977 23.3059 20.7457 23.5006 20.7761C23.5842 20.7891 23.6617 20.7963 23.7186 20.8001C23.7467 20.802 23.7691 20.8031 23.7838 20.8036L23.7997 20.8041L26.9995 20.8041C27.1922 20.8041 27.3551 20.9319 27.4081 21.1073L29.2844 24.6733C29.3941 24.8818 29.314 25.1398 29.1055 25.2495C28.8969 25.3592 28.6389 25.2791 28.5292 25.0706L26.7333 21.6575H23.7905L23.7964 21.2322C23.7905 21.6574 23.7905 21.6575 23.7905 21.6575L23.7889 21.6574L23.7863 21.6574L23.7783 21.6572L23.7517 21.6563C23.7295 21.6555 23.6986 21.6541 23.6611 21.6515C23.5866 21.6465 23.4833 21.6371 23.3689 21.6192C23.1679 21.5878 22.8305 21.5167 22.595 21.3214C22.3494 21.1199 22.2396 20.8087 22.1883 20.6234C22.1594 20.5189 22.1413 20.4243 22.1303 20.356C22.1248 20.3215 22.121 20.2929 22.1184 20.2721L22.1158 20.2492L21.592 16.739C21.5879 16.7117 21.5865 16.6842 21.5878 16.6566C21.6258 15.8212 22.2474 15.0281 23.1406 14.9896C23.6281 14.968 24.0399 15.1598 24.3341 15.4853Z" fill="#0074B8"/>
<path fill-rule="evenodd" clip-rule="evenodd" d="M18.9869 17.5357C18.9869 17.3001 19.1779 17.109 19.4135 17.109H20.4468C20.6307 17.109 20.7939 17.2268 20.8518 17.4014L22.4597 22.2489H26.0997C26.3353 22.2489 26.5263 22.4399 26.5263 22.6756C26.5263 22.9112 26.3353 23.1022 26.0997 23.1022H22.1517C21.9678 23.1022 21.8046 22.9844 21.7467 22.8099L20.1388 17.9624H19.4135C19.1779 17.9624 18.9869 17.7713 18.9869 17.5357Z" fill="#0074B8"/>
<path fill-rule="evenodd" clip-rule="evenodd" d="M24.6934 12.9768C24.6934 13.8604 23.9771 14.5768 23.0934 14.5768C22.2098 14.5768 21.4934 13.8604 21.4934 12.9768C21.4934 12.0931 22.2098 11.3768 23.0934 11.3768C23.9771 11.3768 24.6934 12.0931 24.6934 12.9768ZM23.0934 13.7234C23.5058 13.7234 23.8401 13.3891 23.8401 12.9768C23.8401 12.5644 23.5058 12.2301 23.0934 12.2301C22.6811 12.2301 22.3468 12.5644 22.3468 12.9768C22.3468 13.3891 22.6811 13.7234 23.0934 13.7234Z" fill="#0074B8"/>
</svg>
