<?xml version="1.0" encoding="utf-8"?>
<!-- Generator: Adobe Illustrator 19.2.1, SVG Export Plug-In . SVG Version: 6.00 Build 0)  -->
<svg version="1.1" id="Layer_1" xmlns="http://www.w3.org/2000/svg" xmlns:xlink="http://www.w3.org/1999/xlink" x="0px" y="0px"
	 viewBox="0 0 39 60" enable-background="new 0 0 39 60" xml:space="preserve">
<g>
	<g>
		<path d="M6.7,17.6c-0.5,0-0.9-0.1-1.4-0.3c-0.7-0.4-1.2-1-1.5-1.7L0.1,3.8c-0.5-1.6,0.4-3.2,2-3.7c1.6-0.5,3.2,0.4,3.7,1.9
			l3.7,11.7c0.2,0.8,0.2,1.6-0.2,2.3c-0.4,0.7-1,1.2-1.7,1.5h0C7.3,17.6,7,17.6,6.7,17.6z M7.4,16.9L7.4,16.9L7.4,16.9z M3,1.2
			c-0.2,0-0.3,0-0.5,0.1C1.6,1.6,1,2.6,1.3,3.5L5,15.2c0.1,0.4,0.4,0.8,0.9,1c0.4,0.2,0.9,0.3,1.3,0.1c0.4-0.1,0.8-0.4,1-0.8
			c0.2-0.4,0.3-0.9,0.1-1.3L4.6,2.4C4.4,1.7,3.7,1.2,3,1.2z"/>
	</g>
	<g>
		<path d="M30.6,51.5l-10.4,0c-3-0.1-5.1-0.2-8.7-2.1c-3.2-1.7-5-6.1-5.8-8.5c-0.1-0.4-0.4-2-1.1-5.5c0,0,0,0,0,0L2.9,22.2
			c-0.1-0.8,0.1-1.6,0.6-2.2c0.5-0.6,1.2-1,2-1.1c0.8-0.1,1.6,0.1,2.2,0.6s1,1.2,1.1,2L10,31.9c0.1,1.1,1,6.1,1.9,8.2
			c0.9,2.1,2.3,3.7,3.8,4.7c1.1,0.7,2.7,0.8,3.3,0.9h11.6c1.6,0,3,1.3,3,3C33.6,50.2,32.3,51.5,30.6,51.5z M5.8,35.2
			c0.6,3.2,0.9,5,1,5.2c1.3,3.9,3.2,6.8,5.3,7.9c3.3,1.8,5.2,1.9,8.2,2l0.5,0h9.9c1,0,1.7-0.8,1.7-1.7c0-0.9-0.8-1.7-1.7-1.7H19
			c-0.9,0-2.6-0.2-3.9-1c-1.8-1.1-3.2-2.9-4.3-5.2c-1-2.3-1.9-7.6-2-8.5L7.6,21.7c0-0.5-0.3-0.9-0.6-1.1c-0.4-0.3-0.8-0.4-1.3-0.4
			c-0.5,0-0.9,0.3-1.2,0.6c-0.3,0.4-0.4,0.8-0.4,1.3L5.8,35.2z"/>
	</g>
	<g>
		<path d="M17,15.5c-1.3,0-2.5-0.4-3.5-1.2c-1.2-0.9-1.9-2.3-2.1-3.7c-0.2-1.5,0.3-2.9,1.2-4.1c0.9-1.2,2.3-1.9,3.8-2
			c1.5-0.2,2.9,0.3,4.1,1.2c1.2,0.9,1.9,2.3,2.1,3.7l0,0c0.3,3-1.9,5.8-5,6.1C17.4,15.5,17.2,15.5,17,15.5z M17,5.6
			c-0.2,0-0.3,0-0.5,0c-1.2,0.1-2.2,0.7-2.9,1.6c-0.7,0.9-1.1,2-0.9,3.2c0.1,1.1,0.7,2.2,1.6,2.9c0.9,0.7,2,1.1,3.2,0.9
			c2.4-0.3,4.1-2.4,3.9-4.8l0,0c-0.1-1.1-0.7-2.2-1.6-2.9C19,6,18,5.6,17,5.6z"/>
	</g>
	<g>
		<path d="M38.4,60c-0.3,0-0.6-0.2-0.6-0.5l-2.6-14.3c-0.1-0.4-0.3-1.2-0.7-1.7c-0.4-0.5-1-0.8-1.1-0.8c-2.3-0.8-8.6-0.3-11.5-0.1
			c-1.2,0.1-1.7,0.1-2,0.1c-0.4,0-1.1,0-1.8-0.2c-0.8-0.2-1.2-0.6-1.6-0.9c-1.4-1.3-2.3-4.3-2.5-5.9c-0.3-2.6-1.2-10.3-1.2-10.4
			c-0.4-3.2,1.2-5.6,4-6c1.4-0.2,2.7,0.1,3.8,0.9c1.2,0.9,1.9,2.3,2.1,4l0.9,6l6.5,4.1c0.3,0.2,0.4,0.6,0.2,0.9
			c-0.2,0.3-0.6,0.4-0.9,0.2L22.6,31c-0.2-0.1-0.3-0.3-0.3-0.4l-1-6.3c-0.2-1.4-0.7-2.5-1.6-3.2c-0.8-0.6-1.8-0.8-2.8-0.6
			c-2.1,0.3-3.2,2.1-3,4.6c0,0.1,1,7.8,1.2,10.4c0.1,1.5,1,4.2,2.1,5.1c0.3,0.3,0.6,0.5,1.1,0.7c0.4,0.1,1.1,0.1,1.3,0.1
			c0,0,0.2,0,0.2,0c0.2,0,1-0.1,1.7-0.1c3.3-0.3,9.5-0.8,12.1,0.1c0.4,0.1,1.1,0.6,1.7,1.2c0.6,0.7,0.9,1.7,1,2.2L39,59.3
			c0.1,0.3-0.2,0.7-0.5,0.7C38.4,60,38.4,60,38.4,60z"/>
	</g>
</g>
</svg>
