<?xml version="1.0" encoding="utf-8"?>
<!-- Generator: Adobe Illustrator 19.2.1, SVG Export Plug-In . SVG Version: 6.00 Build 0)  -->
<svg version="1.1" id="Layer_1" xmlns="http://www.w3.org/2000/svg" xmlns:xlink="http://www.w3.org/1999/xlink" x="0px" y="0px"
	 viewBox="0 0 52 60" enable-background="new 0 0 52 60" xml:space="preserve">
<g>
	<g>
		<path d="M34.2,25.8c-0.3,0-0.5-0.1-0.7-0.2c-0.4-0.3-0.6-0.9-0.5-1.4l2-6.5l-5.4-4.1c-0.4-0.3-0.6-0.9-0.4-1.4
			c0.2-0.5,0.6-0.9,1.2-0.9l6.8-0.1l2.2-6.4c0.2-0.5,0.6-0.8,1.2-0.8l0,0c0.5,0,1,0.3,1.2,0.8l2.2,6.4l6.8,0.1l0,0
			c0.5,0,1,0.4,1.2,0.9c0.2,0.5,0,1.1-0.4,1.4l-5.4,4.1l2,6.5c0.2,0.5,0,1.1-0.5,1.4c-0.4,0.3-1,0.3-1.5,0l-5.6-3.9l-5.6,3.9
			C34.7,25.7,34.5,25.8,34.2,25.8z M40.5,20.4c0.1,0,0.2,0,0.3,0.1l6,4.1l-2-6.9c-0.1-0.2,0-0.5,0.2-0.7l5.8-4.4l0-0.7l0,0.6
			l-7.2-0.1c-0.3,0-0.5-0.2-0.6-0.4l-2.4-6.8L38.1,12c-0.1,0.2-0.3,0.4-0.6,0.4l-7.2,0.1L36,17c0.2,0.2,0.3,0.4,0.2,0.7l-2.1,6.9
			l6-4.1C40.3,20.4,40.4,20.4,40.5,20.4z"/>
	</g>
	<g>
		<g>
			<path d="M6.6,17.6c-0.5,0-0.9-0.1-1.4-0.3c-0.7-0.4-1.2-1-1.4-1.7L0.1,3.8C-0.3,2.3,0.5,0.6,2,0.1c1.5-0.5,3.2,0.4,3.7,1.9
				l3.7,11.7c0.2,0.7,0.2,1.5-0.2,2.2c-0.4,0.7-1,1.2-1.7,1.4l0,0C7.2,17.6,6.9,17.6,6.6,17.6z M2.9,1.2c-0.2,0-0.3,0-0.5,0.1
				C1.5,1.6,1,2.5,1.3,3.5l3.6,11.7c0.1,0.4,0.4,0.8,0.8,1c0.4,0.2,0.9,0.3,1.3,0.1h0c0.4-0.1,0.8-0.4,1-0.9
				c0.2-0.4,0.3-0.9,0.1-1.3L4.6,2.4C4.3,1.7,3.7,1.2,2.9,1.2z"/>
		</g>
		<g>
			<path d="M30.2,51.5l-10.2,0c-2.9-0.1-5.1-0.2-8.6-2.1c-3.2-1.7-5-6-5.8-8.5c-0.1-0.4-0.4-2-1.1-5.5c0,0,0,0,0,0L2.9,22.2
				c-0.2-1.6,1-3.1,2.6-3.3c0.8-0.1,1.5,0.1,2.1,0.6c0.6,0.5,1,1.2,1.1,2l1.1,10.3c0.1,1.1,1,6.1,1.9,8.2c0.9,2.1,2.2,3.7,3.8,4.7
				c1.1,0.7,2.5,0.8,3.2,0.9h11.4c1.6,0,2.9,1.3,2.9,2.9C33.1,50.2,31.8,51.5,30.2,51.5z M5.7,35.2c0.6,3.2,0.9,5,1,5.2
				c1.3,3.9,3.2,6.8,5.2,7.9c3.3,1.8,5.2,1.9,8.1,2l0.5,0h9.7c0.9,0,1.7-0.8,1.7-1.7c0-1-0.8-1.7-1.7-1.7H18.7c-0.9,0-2.5-0.2-3.9-1
				c-1.7-1.1-3.2-2.9-4.2-5.2c-1-2.3-1.9-7.6-2-8.5L7.5,21.7c0-0.5-0.3-0.9-0.6-1.2c-0.4-0.3-0.8-0.4-1.3-0.4
				c-0.9,0.1-1.6,1-1.5,1.9L5.7,35.2z"/>
		</g>
		<g>
			<path d="M16.8,15.5c-1.3,0-2.5-0.4-3.4-1.2c-1.1-0.9-1.9-2.2-2-3.7c-0.3-3,1.9-5.8,4.9-6.1c1.5-0.2,2.9,0.3,4,1.2
				c1.1,0.9,1.9,2.2,2,3.7l0,0c0.3,3-1.9,5.8-4.9,6.1C17.2,15.5,17,15.5,16.8,15.5z M16.8,5.6c-0.2,0-0.3,0-0.5,0
				C14,5.9,12.3,8,12.5,10.4c0.1,1.1,0.7,2.2,1.6,2.9c0.9,0.7,2,1.1,3.2,0.9c2.4-0.3,4.1-2.4,3.8-4.8c-0.1-1.1-0.7-2.2-1.6-2.9
				C18.7,5.9,17.8,5.6,16.8,5.6z"/>
		</g>
		<g>
			<path d="M37.8,60c-0.3,0-0.5-0.2-0.6-0.5l-2.5-14.3c-0.1-0.4-0.3-1.2-0.7-1.7c-0.4-0.4-1-0.8-1.1-0.8c-2.3-0.8-8.4-0.3-11.4-0.1
				c-1.2,0.1-1.7,0.1-1.9,0.1c-0.4,0-1.1,0-1.8-0.2c-0.8-0.2-1.2-0.6-1.5-0.9c-1.4-1.3-2.3-4.3-2.5-5.9c-0.3-2.6-1.2-10.3-1.2-10.4
				c-0.3-3.2,1.2-5.6,3.9-6c1.4-0.2,2.7,0.1,3.7,0.9c1.2,0.9,1.9,2.3,2.1,4l0.9,6l6.4,4.2c0.3,0.2,0.4,0.6,0.2,0.8
				c-0.2,0.3-0.6,0.4-0.8,0.2L22.3,31c-0.1-0.1-0.2-0.2-0.3-0.4l-0.9-6.3c-0.1-1.4-0.7-2.5-1.6-3.2c-0.8-0.6-1.7-0.8-2.8-0.6
				c-2.1,0.3-3.2,2.1-2.9,4.7c0,0.1,1,7.8,1.2,10.4c0.1,1.5,1,4.2,2.1,5.1c0.3,0.3,0.6,0.5,1.1,0.7c0.4,0.1,1,0.1,1.3,0.1
				c0,0,0.2,0,0.2,0c0.1,0,1-0.1,1.7-0.1c3.3-0.3,9.4-0.8,11.9,0.1c0.4,0.1,1.1,0.6,1.6,1.2c0.6,0.7,0.8,1.7,1,2.2l2.6,14.4
				c0.1,0.3-0.2,0.6-0.5,0.7C37.9,60,37.9,60,37.8,60z"/>
		</g>
	</g>
</g>
</svg>
