<?xml version="1.0" encoding="utf-8"?>
<!-- Generator: Adobe Illustrator 19.2.1, SVG Export Plug-In . SVG Version: 6.00 Build 0)  -->
<svg version="1.1" id="Layer_1" xmlns="http://www.w3.org/2000/svg" xmlns:xlink="http://www.w3.org/1999/xlink" x="0px" y="0px"
	 viewBox="0 0 61 60" enable-background="new 0 0 61 60" xml:space="preserve">
<path d="M60.9,16.3c-0.3-0.8-1-1.3-1.8-1.3l-14.3-0.3L40.1,1.3c-0.3-0.8-1-1.3-1.8-1.3h0c-0.8,0-1.6,0.5-1.8,1.3l-4.7,13.3
	l-14.3,0.3c-0.8,0-1.6,0.5-1.8,1.3c-0.3,0.8,0,1.6,0.7,2.2l3.6,2.7l-3.7,10.6L1.9,32c-0.8,0-1.6,0.5-1.8,1.3c-0.3,0.8,0,1.6,0.7,2.2
	L12.2,44L8,57.5c-0.2,0.8,0,1.6,0.7,2.1C9.1,59.9,9.5,60,9.9,60c0.4,0,0.8-0.1,1.1-0.3l11.7-8.1l11.7,8.1c0.7,0.5,1.6,0.5,2.3,0
	c0.7-0.5,1-1.3,0.7-2.1L33.3,44l9-6.7l7.7,5.3c0.3,0.2,0.7,0.3,1.1,0.3c0.4,0,0.8-0.1,1.2-0.4c0.7-0.5,1-1.3,0.7-2.1l-4.1-13.5
	l11.4-8.5C60.9,17.9,61.2,17.1,60.9,16.3z M36.3,57.8c0.1,0.4-0.2,0.7-0.3,0.8c-0.1,0.1-0.4,0.3-0.8,0l-12.1-8.3
	c-0.2-0.1-0.5-0.1-0.7,0l-12.1,8.3c-0.4,0.3-0.7,0.1-0.8,0c-0.1-0.1-0.4-0.3-0.3-0.8l4.3-13.9c0.1-0.3,0-0.5-0.2-0.7L1.5,34.5
	c-0.4-0.3-0.3-0.7-0.2-0.8c0-0.1,0.2-0.5,0.7-0.5l14.7-0.3c0.3,0,0.5-0.2,0.6-0.4l4.8-13.7c0.2-0.4,0.5-0.5,0.7-0.5
	c0.1,0,0.5,0,0.7,0.5l4.8,13.7c0.1,0.2,0.3,0.4,0.6,0.4l14.7,0.3c0.5,0,0.6,0.4,0.7,0.5c0,0.1,0.1,0.5-0.2,0.8l-11.7,8.8
	c-0.2,0.2-0.3,0.4-0.2,0.7L36.3,57.8z M27.6,27.1l-0.1-0.3l0.1,0.1L27.6,27.1z M59.5,17.4l-11.7,8.8c-0.2,0.2-0.3,0.4-0.2,0.7
	l4.3,13.9c0.1,0.4-0.2,0.7-0.3,0.8c-0.1,0.1-0.4,0.3-0.8,0l-7.4-5.1l1.3-1c0.7-0.5,0.9-1.3,0.7-2.2c-0.3-0.8-1-1.3-1.8-1.3
	l-14.3-0.3l-0.9-2.6l0.7-2.2c0.1-0.3,0-0.5-0.2-0.7l-2-1.5l-2.2-6.3c-0.3-0.8-1-1.3-1.8-1.3c-0.8,0-1.6,0.5-1.8,1.3l-0.5,1.5
	l-3.3-2.5c-0.4-0.3-0.3-0.7-0.2-0.8c0-0.1,0.2-0.5,0.7-0.5l14.7-0.3c0.3,0,0.5-0.2,0.6-0.4l4.8-13.7c0.2-0.4,0.5-0.5,0.7-0.5
	c0.1,0,0.5,0,0.7,0.5l4.8,13.7c0.1,0.2,0.3,0.4,0.6,0.4l14.7,0.3c0.5,0,0.6,0.4,0.7,0.5C59.8,16.7,59.8,17.1,59.5,17.4z"/>
</svg>
