<?xml version="1.0" encoding="utf-8"?>
<!-- Generator: Adobe Illustrator 19.2.0, SVG Export Plug-In . SVG Version: 6.00 Build 0)  -->
<svg version="1.1" id="Capa_1" xmlns="http://www.w3.org/2000/svg" xmlns:xlink="http://www.w3.org/1999/xlink" x="0px" y="0px"
	 viewBox="0 0 25.9 20.7" style="enable-background:new 0 0 25.9 20.7;" xml:space="preserve">
<style type="text/css">
	.st0{fill:#FFFFFF;}
</style>
<title>farebasic</title>
<path class="st0" d="M2.1,10.2l1.2,7.3h6.8c0.5-0.2,1.1,0.1,1.3,0.6c0.2,0.5-0.1,1.1-0.6,1.3c-0.2,0.1-0.4,0.1-0.6,0H1.4L0,10.5
	c0-0.5,0.4-1,0.9-1.1l0,0C1.4,9.3,2,9.6,2.1,10.2C2.1,10.2,2.1,10.2,2.1,10.2z M6.4,0.1c-1,0-1.9,0.8-2,1.8c0,1,0.8,1.9,1.8,2
	c1,0,1.9-0.8,2-1.8C8.3,1.1,7.4,0.2,6.4,0.1z M15,20.7L15,20.7c0.5,0,0.8-0.4,0.8-0.9c0,0,0-0.1,0-0.1l-1.2-5.4
	c-0.2-1.2-1.2-2-2.4-2H9.7c-0.2,0-0.3-0.1-0.4-0.3l-1-4.7c-0.2-0.9-1-1.6-1.9-1.6l0,0c-1,0-1.9,0.8-1.9,1.9c0,0.1,0,0.3,0,0.4
	l1.1,6.3c0,0.3,0.2,0.6,0.6,0.6c0,0,0,0,0,0H12c0.5,0,1,0.4,1.1,0.9l1,4.2C14.2,20.4,14.6,20.7,15,20.7z M25.8,12
	c0,0.2-0.2,0.4-0.4,0.4h-7.7c-0.2,0-0.4-0.2-0.4-0.4V5.3c0-0.2,0.2-0.4,0.4-0.4h0.9V3c0-1.7,1.3-3,3-3s3,1.3,3,3v1.9h0.9
	c0.2,0,0.4,0.2,0.4,0.4L25.8,12z M23,9.7c0-0.6-0.4-1.1-0.9-1.4V6.9c0-0.3-0.3-0.6-0.6-0.6c-0.3,0-0.6,0.2-0.6,0.6c0,0,0,0,0,0v1.4
	C20.4,8.6,20,9.1,20,9.7c0,0.8,0.7,1.5,1.5,1.5C22.3,11.2,23,10.6,23,9.7C23,9.7,23,9.7,23,9.7z M23.1,4.9V3c0-0.9-0.7-1.6-1.6-1.6
	S19.9,2.1,19.9,3v1.9C19.9,4.9,23.1,4.9,23.1,4.9z"/>
</svg>
