<?xml version="1.0" encoding="utf-8"?>
<!-- Generator: Adobe Illustrator 19.1.0, SVG Export Plug-In . SVG Version: 6.00 Build 0)  -->
<svg version="1.1" id="Layer_1" xmlns="http://www.w3.org/2000/svg" xmlns:xlink="http://www.w3.org/1999/xlink" x="0px" y="0px"
	 viewBox="-384 385 31 31" style="enable-background:new -384 385 31 31;" xml:space="preserve">
<style type="text/css">
	.st0{fill:#231F20;}
</style>
<g>
	<g>
		<path class="st0" d="M-366.9,416.1c-0.2,0-0.5,0-0.7-0.1c0,0-0.1,0-0.1,0c-0.4-0.2-15.6-15.4-15.8-15.6c-0.3-0.3-0.4-0.7-0.4-1.2
			l-0.1-12.5c0-0.9,0.7-1.6,1.6-1.6l11.9-0.1c0.6,0,1.2,0,1.7,0.5l2.8,2.8c3.6,3.5,3.6,3.6,12.6,12.5v0c0.5,0.5,0.6,1.4,0.2,2.3
			c0,0-0.1,0.1-0.1,0.1l-12.4,12.5C-366,415.9-366.4,416.1-366.9,416.1z M-367.1,415.1c0.3,0.1,0.5,0,0.7-0.1l12.3-12.4
			c0.2-0.4,0.2-0.8,0-1.1c-8.9-8.9-9-9-12.6-12.5l-2.8-2.8c-0.2-0.2-0.5-0.2-0.9-0.2l-0.3,0l-11.6,0.1c-0.3,0-0.6,0.3-0.6,0.6
			l0.1,12.5c0,0.2,0.1,0.4,0.2,0.5C-382.6,399.8-368.2,414.1-367.1,415.1z"/>
	</g>
	<g>
		<path class="st0" d="M-376.8,395.5C-376.9,395.5-376.9,395.5-376.8,395.5c-0.9,0-1.7-0.4-2.2-1c-1.2-1.3-1.2-3.4,0-4.6
			c0.6-0.6,1.5-1,2.4-1c0.8,0,1.6,0.4,2.2,1c1.3,1.3,1.3,3.3,0,4.6C-375.2,395.2-376,395.5-376.8,395.5z M-376.8,390
			c-0.6,0-1.1,0.2-1.6,0.7c-0.9,0.9-0.9,2.2,0,3.2c0.4,0.4,0.9,0.6,1.4,0.7c0.6,0,1.2-0.2,1.6-0.7c0.9-0.9,0.9-2.3,0-3.2
			c0,0,0,0,0,0C-375.6,390.2-376.2,390-376.8,390C-376.7,390-376.7,390-376.8,390z"/>
	</g>
	<g>
		<path class="st0" d="M-367.3,409.3C-367.3,409.3-367.3,409.3-367.3,409.3c-0.7,0-1.3-0.3-1.7-0.7c-1-1-0.9-2.8,0.3-4
			c0.7-0.7,1.6-1,2.4-1c0.6,0,1.2,0.3,1.6,0.7c1,1,0.9,2.8-0.3,4C-365.6,408.9-366.4,409.3-367.3,409.3z M-366.3,404.5
			c-0.5,0-1.1,0.3-1.6,0.7c-0.8,0.8-0.9,2-0.3,2.6c0.3,0.3,0.7,0.4,0.9,0.4c0.6,0,1.2-0.3,1.7-0.7c0.8-0.8,0.9-2,0.3-2.6
			C-365.7,404.6-366,404.5-366.3,404.5C-366.3,404.5-366.3,404.5-366.3,404.5z M-373.6,403.5c-0.2,0-0.5-0.2-0.5-0.4
			c0-0.3,0.1-0.5,0.4-0.6l12.9-2c0.3,0,0.5,0.1,0.6,0.4s-0.1,0.5-0.4,0.6L-373.6,403.5C-373.5,403.5-373.6,403.5-373.6,403.5z
			 M-367.8,400.7C-367.8,400.7-367.8,400.7-367.8,400.7c-0.7,0-1.3-0.3-1.7-0.7c-1-1-0.9-2.8,0.3-4c0.7-0.7,1.6-1,2.4-1
			c0.6,0,1.2,0.3,1.6,0.7c1,1,0.9,2.8-0.3,4C-366.1,400.3-366.9,400.7-367.8,400.7z M-366.8,395.9c-0.5,0-1.1,0.3-1.6,0.7
			c-0.8,0.8-0.9,2-0.3,2.6c0.3,0.3,0.7,0.4,0.9,0.4c0.6,0,1.2-0.3,1.7-0.7c0.8-0.8,0.9-2,0.3-2.6
			C-366.2,396-366.5,395.9-366.8,395.9C-366.8,395.9-366.8,395.9-366.8,395.9z"/>
	</g>
</g>
</svg>
