<?xml version="1.0" encoding="utf-8"?>
<!-- Generator: Adobe Illustrator 19.1.0, SVG Export Plug-In . SVG Version: 6.00 Build 0)  -->
<svg version="1.1" id="Layer_1" xmlns="http://www.w3.org/2000/svg" xmlns:xlink="http://www.w3.org/1999/xlink" x="0px" y="0px"
	 viewBox="0 0 50 50" style="enable-background:new 0 0 50 50;" xml:space="preserve">
<g>
	<g>
		<path d="M49.3,50H1.9c-0.4,0-0.7-0.3-0.7-0.7V24c0-0.4,0.3-0.7,0.7-0.7h47.4c0.4,0,0.7,0.3,0.7,0.7v25.3
			C50,49.7,49.7,50,49.3,50z M2.6,48.6h46v-24h-46V48.6z"/>
	</g>
	<g>
		<g>
			<path d="M18.2,24.7h-8.1c-0.3,0-0.5-0.2-0.6-0.4c-0.1-0.2-0.1-0.5,0.1-0.7l7.9-8.6c0.1-0.1,0.3-0.2,0.5-0.2h8.1
				c0.3,0,0.5,0.2,0.6,0.4c0.1,0.2,0.1,0.5-0.1,0.7l-7.9,8.6C18.6,24.6,18.4,24.7,18.2,24.7z M11.7,23.3h6.2l6.7-7.2h-6.2L11.7,23.3
				z"/>
		</g>
		<g>
			<path d="M1.9,24.3c-0.1,0-0.2,0-0.3,0c-0.3-0.1-0.4-0.4-0.4-0.6v-8.2c0-0.4,0.3-0.7,0.7-0.7h8c0.3,0,0.5,0.2,0.6,0.4
				c0.1,0.2,0.1,0.5-0.1,0.7l-8,8.2C2.3,24.2,2.1,24.3,1.9,24.3z M2.6,16.1v5.8l5.7-5.8H2.6z"/>
		</g>
		<g>
			<path d="M10.1,24.7H1.9c-0.4,0-0.7-0.3-0.7-0.7v-0.3c0-0.2,0.1-0.3,0.2-0.5l8-8.2c0.1-0.1,0.3-0.2,0.5-0.2H18
				c0.3,0,0.5,0.2,0.6,0.4c0.1,0.2,0.1,0.5-0.1,0.7l-7.9,8.6C10.5,24.6,10.3,24.7,10.1,24.7z M3.2,23.3h6.6l6.7-7.2h-6.2L3.2,23.3z"
				/>
		</g>
		<g>
			<path d="M26.3,24.7h-8.1c-0.3,0-0.5-0.2-0.6-0.4c-0.1-0.2-0.1-0.5,0.1-0.7l7.9-8.6c0.1-0.1,0.3-0.2,0.5-0.2h8.1
				c0.3,0,0.5,0.2,0.6,0.4c0.1,0.2,0.1,0.5-0.1,0.7l-7.9,8.6C26.7,24.6,26.5,24.7,26.3,24.7z M19.8,23.3H26l6.7-7.2h-6.2L19.8,23.3z
				"/>
		</g>
		<g>
			<path d="M49.3,24.7h-6.7c-0.3,0-0.5-0.2-0.6-0.4c-0.1-0.2-0.1-0.5,0.1-0.7l6.7-7.4c0.2-0.2,0.5-0.3,0.8-0.2
				c0.3,0.1,0.5,0.4,0.5,0.6V24C50,24.4,49.7,24.7,49.3,24.7z M44.1,23.3h4.5v-4.9L44.1,23.3z"/>
		</g>
		<g>
			<path d="M42.6,24.7h-8.1c-0.3,0-0.5-0.2-0.6-0.4c-0.1-0.2-0.1-0.5,0.1-0.7l7.9-8.6c0.1-0.1,0.3-0.2,0.5-0.2h6.9
				c0.4,0,0.7,0.3,0.7,0.7v1.2c0,0.2-0.1,0.3-0.2,0.5l-6.7,7.4C42.9,24.6,42.8,24.7,42.6,24.7z M36,23.3h6.2l6.4-6.9v-0.3h-5.9
				L36,23.3z"/>
		</g>
		<g>
			<path d="M34.4,24.7h-8.1c-0.3,0-0.5-0.2-0.6-0.4c-0.1-0.2-0.1-0.5,0.1-0.7l7.9-8.6c0.1-0.1,0.3-0.2,0.5-0.2h8.1
				c0.3,0,0.5,0.2,0.6,0.4c0.1,0.2,0.1,0.5-0.1,0.7L35,24.4C34.8,24.6,34.6,24.7,34.4,24.7z M27.9,23.3h6.2l6.7-7.2h-6.2L27.9,23.3z
				"/>
		</g>
	</g>
	<g>
		<g>
			<path d="M9.8,15c-0.2,0-0.5-0.1-0.6-0.3c-0.1-0.2-0.1-0.5,0-0.7l6.4-9.4c0.1-0.2,0.3-0.3,0.5-0.3l7.8-1.1
				c0.3,0,0.5,0.1,0.7,0.3c0.1,0.2,0.1,0.5,0,0.7l-6.4,9.4c-0.1,0.2-0.3,0.3-0.5,0.3L9.9,15C9.9,15,9.8,15,9.8,15z M16.6,5.6
				l-5.3,7.8l5.9-0.8l5.3-7.8L16.6,5.6z"/>
		</g>
		<g>
			<path d="M1.9,15.8c-0.1,0-0.1,0-0.2,0c-0.3-0.1-0.5-0.3-0.5-0.6L0,7.3c0-0.2,0-0.4,0.1-0.5c0.1-0.1,0.3-0.2,0.5-0.3
				l7.7-1.1c0.3,0,0.6,0.1,0.7,0.3c0.1,0.2,0.1,0.5,0,0.7l-6.5,9C2.3,15.7,2.1,15.8,1.9,15.8z M1.5,7.7l0.8,5.6L6.9,7L1.5,7.7z"/>
		</g>
		<g>
			<path d="M2,16.1c-0.3,0-0.6-0.2-0.7-0.6l-0.1-0.3c0-0.2,0-0.3,0.1-0.5l6.5-9c0.1-0.2,0.3-0.3,0.5-0.3l7.8-1.1
				c0.3,0,0.5,0.1,0.7,0.3c0.1,0.2,0.1,0.5,0,0.7l-6.4,9.4c-0.1,0.2-0.3,0.3-0.5,0.3l-7.9,1.1C2,16.1,2,16.1,2,16.1z M8.8,6.7
				l-5.7,7.9l6.3-0.9l5.3-7.8L8.8,6.7z"/>
		</g>
		<g>
			<path d="M17.6,13.9c-0.2,0-0.5-0.1-0.6-0.3c-0.1-0.2-0.1-0.5,0-0.7l6.4-9.4c0.1-0.2,0.3-0.3,0.5-0.3l7.8-1.1
				c0.3,0,0.5,0.1,0.7,0.3c0.1,0.2,0.1,0.5,0,0.7L26,12.5c-0.1,0.2-0.3,0.3-0.5,0.3l-7.8,1.1C17.7,13.9,17.6,13.9,17.6,13.9z
				 M24.4,4.5l-5.3,7.8l5.9-0.8l5.3-7.8L24.4,4.5z"/>
		</g>
		<g>
			<path d="M41,10.5c-0.2,0-0.5-0.1-0.6-0.3c-0.1-0.2-0.1-0.5,0-0.7l5.4-8c0.2-0.2,0.5-0.3,0.7-0.3
				c0.3,0.1,0.5,0.3,0.5,0.6l1.1,7.1c0,0.2,0,0.4-0.1,0.5c-0.1,0.1-0.3,0.2-0.5,0.3l-6.5,0.9C41.1,10.5,41,10.5,41,10.5z M46,3.7
				L42.5,9l4.3-0.6L46,3.7z"/>
		</g>
		<g>
			<path d="M33.2,11.7c-0.2,0-0.5-0.1-0.6-0.3c-0.1-0.2-0.1-0.5,0-0.7L39,1.3C39.1,1.1,39.3,1,39.5,1L46.1,0
				c0.2,0,0.4,0,0.5,0.1c0.1,0.1,0.2,0.3,0.3,0.4l0.2,1.2c0,0.2,0,0.3-0.1,0.5l-5.4,8c-0.1,0.2-0.3,0.3-0.5,0.3l-7.8,1.1
				C33.3,11.7,33.2,11.7,33.2,11.7z M40,2.3l-5.3,7.8l5.9-0.8l5.1-7.6l0-0.2L40,2.3z"/>
		</g>
		<g>
			<path d="M25.4,12.8c-0.2,0-0.5-0.1-0.6-0.3c-0.1-0.2-0.1-0.5,0-0.7l6.4-9.4c0.1-0.2,0.3-0.3,0.5-0.3L39.5,1
				c0.3,0,0.5,0.1,0.7,0.3c0.1,0.2,0.1,0.5,0,0.7l-6.4,9.4c-0.1,0.2-0.3,0.3-0.5,0.3l-7.8,1.1C25.5,12.8,25.4,12.8,25.4,12.8z
				 M32.2,3.4l-5.3,7.8l5.9-0.8l5.3-7.8L32.2,3.4z"/>
		</g>
	</g>
	<g>
		<path d="M22.3,43c-0.3,0-0.5-0.1-0.8-0.2c-0.6-0.3-1-0.9-1-1.5l0-10.5c0-0.6,0.4-1.2,1-1.5c0.6-0.3,1.3-0.2,1.8,0.2
			l7,5.2l0,0c0.4,0.3,0.7,0.8,0.7,1.3c0,0.5-0.2,1-0.7,1.3l-7,5.2C23.1,42.9,22.7,43,22.3,43z M22.3,30.6c-0.1,0-0.1,0-0.2,0
			c-0.1,0-0.2,0.1-0.2,0.3l0,10.5c0,0.2,0.1,0.2,0.2,0.3c0.1,0,0.2,0.1,0.4,0l7-5.2c0.1-0.1,0.1-0.2,0.1-0.2s0-0.2-0.1-0.2l-7-5.2
			C22.5,30.6,22.4,30.6,22.3,30.6z"/>
	</g>
</g>
</svg>
