<svg xmlns="http://www.w3.org/2000/svg" viewBox="0 0 25.74 20.6"><title>am-plus</title><path d="M27.9,10.4a1.32,1.32,0,0,1-1.3,1.3H23.4v3.2a1.3,1.3,0,1,1-2.6,0V11.7H17.6a1.3,1.3,0,0,1,0-2.6h3.2V5.9a1.3,1.3,0,1,1,2.6,0V9.1h3.2A1.4,1.4,0,0,1,27.9,10.4ZM6.8,8.4a2,2,0,0,0,2-1.8A2,2,0,0,0,7,4.6,2,2,0,0,0,5,6.4,1.79,1.79,0,0,0,6.8,8.4Zm11.7,9.8A3.44,3.44,0,0,0,16,16.9H14.1a0.52,0.52,0,0,1-.4-0.2l-3.2-5.4a2.06,2.06,0,0,0-1.7-1A2,2,0,0,0,7,13.2L10.1,19a1,1,0,0,0,.8.5h5.6a1.43,1.43,0,0,1,1.1.5l3.9,4.9a0.92,0.92,0,0,0,1.4-1.2Zm-3.6,3.9H8.1L4.2,14.5a1,1,0,0,0-1.4-.4,1,1,0,0,0-.5,1.4l4.4,8.6H15A1,1,0,1,0,14.9,22.1Z" transform="translate(-2.16 -4.6)" fill="#fff"/></svg>