<?xml version="1.0" encoding="utf-8"?>
<!-- Generator: Adobe Illustrator 19.1.0, SVG Export Plug-In . SVG Version: 6.00 Build 0)  -->
<svg version="1.1" id="Layer_1" xmlns="http://www.w3.org/2000/svg" xmlns:xlink="http://www.w3.org/1999/xlink" x="0px" y="0px"
	 viewBox="-383 385 33 30.9" style="enable-background:new -383 385 33 30.9;" xml:space="preserve">
<style type="text/css">
	.st0{fill:#231F20;}
</style>
<g>
	<g>
		<g>
			<path class="st0" d="M-350.9,407.3c-0.2,0-0.3-0.1-0.4-0.2l-2.7-4.6l-4.4,2.8c-0.2,0.1-0.5,0.1-0.7-0.2c-0.1-0.2-0.1-0.5,0.2-0.7
				l4.8-3c0.1-0.1,0.2-0.1,0.4-0.1c0.1,0,0.2,0.1,0.3,0.2l2.9,5.1c0.1,0.2,0.1,0.5-0.2,0.7C-350.7,407.3-350.8,407.3-350.9,407.3z"
				/>
		</g>
		<g>
			<path class="st0" d="M-367.9,415.6c-0.4,0-0.9,0-1.3-0.1c-8.1-0.7-14-8-13.3-16.3c0.3-4,2.1-7.7,5.2-10.3c3-2.5,6.8-3.8,10.6-3.4
				c3.7,0.3,7.2,2.1,9.8,5.1c0.2,0.2,0.2,0.5-0.1,0.7c-0.2,0.2-0.5,0.2-0.7-0.1c-2.4-2.8-5.7-4.5-9.1-4.8c-3.6-0.3-7.1,0.8-9.9,3.2
				c-2.9,2.4-4.6,5.9-4.9,9.6c-0.7,7.8,4.9,14.6,12.4,15.3c3.6,0.3,7.1-0.8,9.8-3.1c2.9-2.4,4.6-5.9,5-9.7c0-0.3,0.3-0.5,0.5-0.4
				c0.3,0,0.5,0.3,0.4,0.5c-0.3,4.1-2.2,7.8-5.3,10.4C-361.3,414.4-364.5,415.6-367.9,415.6z"/>
		</g>
	</g>
	<g>
		<path class="st0" d="M-368.2,408.5c-0.3,0-0.5-0.2-0.5-0.5v-1.6c-1.1-0.1-2.3-0.7-3.3-1.6c-0.2-0.2-0.2-0.5,0-0.7
			c0.2-0.2,0.5-0.2,0.7,0c0.7,0.7,1.7,1.2,2.6,1.3v-4.6c-1.5-0.5-3-1.3-3-3.1c0-1.7,1.3-3,3-3.2V393c0-0.3,0.2-0.5,0.5-0.5
			s0.5,0.2,0.5,0.5v1.6c1,0.1,2.1,0.7,2.6,1.6c0.1,0.2,0.1,0.5-0.2,0.7c-0.2,0.1-0.5,0.1-0.7-0.2c-0.3-0.5-1-1-1.7-1.1v4.6
			c1,0.3,3,1.2,3,3.1c0,1.7-1.3,3-3,3.2v1.6C-367.7,408.3-367.9,408.5-368.2,408.5z M-367.7,401.2v4.3c1.2-0.2,2-1.1,2-2.2
			C-365.6,402.4-366.3,401.7-367.7,401.2z M-368.6,395.6c-1.2,0.2-2,1.1-2,2.2c0,0.9,0.6,1.5,2,2.1V395.6z"/>
	</g>
</g>
</svg>
