<?xml version="1.0" encoding="utf-8"?>
<!-- Generator: Adobe Illustrator 19.2.1, SVG Export Plug-In . SVG Version: 6.00 Build 0)  -->
<svg version="1.1" id="Layer_1" xmlns="http://www.w3.org/2000/svg" xmlns:xlink="http://www.w3.org/1999/xlink" x="0px" y="0px"
	 viewBox="0 0 60 51" enable-background="new 0 0 60 51" xml:space="preserve">
<g>
	<g>
		<path d="M8.9,15.4c-0.2,0-0.4,0-0.6-0.1c-0.7-0.2-1.4-0.6-1.8-1.2L0.4,4.3C-0.4,3,0,1.3,1.3,0.4c1.3-0.8,3-0.4,3.9,0.9l6.1,9.7
			c0.4,0.6,0.5,1.4,0.4,2.1c-0.2,0.7-0.6,1.4-1.2,1.8l0,0C9.9,15.2,9.4,15.4,8.9,15.4z M10.1,14.4L10.1,14.4L10.1,14.4z M2.8,1.2
			C2.5,1.2,2.2,1.3,2,1.5C1.2,1.9,1,2.9,1.5,3.6l6.1,9.7c0.2,0.4,0.6,0.6,1,0.7c0.4,0.1,0.8,0,1.2-0.2c0.4-0.2,0.6-0.6,0.7-1
			c0.1-0.4,0-0.8-0.2-1.2L4.1,2C3.8,1.5,3.3,1.2,2.8,1.2z"/>
	</g>
	<g>
		<path d="M50.9,51c-0.2,0-0.4,0-0.7-0.1c-0.5-0.2-1-0.6-1.3-1.1c-0.5-1.1-0.1-2.4,0.9-2.9l7-3.6c0.5-0.3,1.1-0.3,1.6-0.1
			c0.5,0.2,1,0.6,1.3,1.1v0c0.5,1.1,0.1,2.4-1,2.9l-7,3.6C51.6,50.9,51.2,51,50.9,51z M57.9,44.3c-0.1,0-0.2,0-0.4,0.1l-7,3.6
			c-0.4,0.2-0.6,0.8-0.4,1.3c0.1,0.2,0.3,0.4,0.5,0.5c0.2,0.1,0.4,0.1,0.6,0l7-3.6c0.4-0.2,0.6-0.8,0.4-1.3
			c-0.1-0.2-0.3-0.4-0.5-0.5C58,44.3,58,44.3,57.9,44.3z"/>
	</g>
	<g>
		<path d="M40.7,42.6l-9.6,0c-2.8-0.1-4.8-0.2-8.1-2c-3.5-1.9-6-6.5-6.1-6.7l0,0c0,0-1.8-3.1-2.7-4.8c0,0,0,0,0,0l-4.4-8.6
			c0-0.1-0.1-0.1-0.1-0.2c-0.2-1.6,0.6-3.3,2.1-3.5c1.4-0.1,2.5,0.5,3.1,1.7l3.9,7.7c0,0,2.7,4.7,3.7,6.1c1.2,1.7,2.7,3.2,4.2,4.2
			c0.9,0.6,2.3,0.8,3.3,0.8l10.7-0.3c1.6,0,2.8,1.3,2.8,2.8C43.5,41.3,42.3,42.6,40.7,42.6z M15.3,28.5c0.9,1.7,2.7,4.8,2.7,4.8
			c0,0.1,2.5,4.5,5.6,6.2c3.1,1.7,4.8,1.7,7.5,1.8l0.4,0h9.1c0.9,0,1.6-0.7,1.6-1.6c0-0.9-0.7-1.6-1.6-1.6L30,38.5
			c-0.6,0-2.6-0.1-3.9-1c-1.7-1.1-3.2-2.6-4.5-4.5c-1-1.4-3.6-6-3.7-6.2l-4-7.7c-0.3-0.7-1-1.1-1.8-1c-0.8,0.1-1.1,1.2-1,2
			L15.3,28.5z M16.9,33.9L16.9,33.9L16.9,33.9z"/>
	</g>
	<g>
		<g>
			<path d="M15.9,12.3c-0.5,0-0.9-0.1-1.4-0.2c-1.3-0.4-2.5-1.3-3.1-2.5c-0.7-1.2-0.9-2.6-0.5-4c0.4-1.3,1.3-2.5,2.5-3.2
				c2.5-1.4,5.7-0.5,7.1,2c1.4,2.5,0.5,5.7-2,7.1C17.7,12.1,16.8,12.3,15.9,12.3z M15.9,3c-0.7,0-1.3,0.2-1.9,0.5
				C13,4.1,12.3,4.9,12.1,6c-0.3,1-0.2,2.1,0.4,3c0.5,0.9,1.4,1.6,2.4,1.9c1,0.3,2.1,0.2,3-0.4c1.9-1.1,2.6-3.5,1.5-5.4l0,0
				C18.6,3.8,17.3,3,15.9,3z"/>
		</g>
		<g>
			<path d="M51.7,44.3c-0.2,0-0.4-0.1-0.5-0.3l-4.7-6.5c-0.2-0.3-0.7-1-1.2-1.2c-0.6-0.3-1.2-0.4-1.3-0.4c0,0-13.5,0.2-13.6,0.2l0,0
				c0,0-2.3-0.1-4.1-1.4c-1.9-1.4-3.3-3.8-3.5-4.3c-1.2-2.1-4.9-8.4-4.9-8.5c-1.5-2.7-1-5.3,1.2-6.7c1.1-0.7,2.4-0.9,3.6-0.6
				c1.3,0.3,2.5,1.3,3.3,2.7l3,4.9l6.4,3.7c0.3,0.2,0.4,0.6,0.2,0.9c-0.2,0.3-0.6,0.4-0.9,0.2l-6.5-3.8C28.1,23,28,22.9,28,22.8
				l-3.1-5.1c-0.6-1.1-1.5-1.9-2.5-2.1c-0.9-0.2-1.8-0.1-2.6,0.5c-1.7,1.1-2,2.9-0.8,5c0,0.1,3.7,6.4,4.9,8.5
				c0.1,0.3,1.5,2.6,3.2,3.9c1.3,0.9,3,1.1,3.4,1.2c0.1,0,13.5-0.2,13.5-0.2c0,0,0,0,0,0c0.5,0,1.4,0.3,1.8,0.6
				c0.8,0.4,1.4,1.2,1.7,1.5l4.7,6.6c0.2,0.3,0.1,0.7-0.1,0.9C51.9,44.2,51.8,44.3,51.7,44.3z"/>
		</g>
	</g>
</g>
</svg>
