<svg width="40" height="40" viewBox="0 0 40 40" fill="none" xmlns="http://www.w3.org/2000/svg">
<path fill-rule="evenodd" clip-rule="evenodd" d="M23.2401 5.46678C23.4932 5.46678 23.6984 5.67282 23.6984 5.92699V10.069H27.8234C28.0765 10.069 28.2817 10.275 28.2817 10.5292C28.2817 10.7833 28.0765 10.9894 27.8234 10.9894H23.2401C22.9869 10.9894 22.7817 10.7833 22.7817 10.5292V5.92699C22.7817 5.67282 22.9869 5.46678 23.2401 5.46678Z" fill="#0B2343"/>
<path fill-rule="evenodd" clip-rule="evenodd" d="M9.49013 6.38721C9.26308 6.38721 9.05013 6.58943 9.05013 6.85664V31.6808C9.05013 31.9451 9.25109 32.1411 9.49013 32.1411H26.9159C27.1609 32.1411 27.365 31.939 27.365 31.6808V29.8583C27.365 29.6042 27.5702 29.3981 27.8234 29.3981C28.0765 29.3981 28.2817 29.6042 28.2817 29.8583V31.6808C28.2817 32.4352 27.6791 33.0615 26.9159 33.0615H9.49013C8.72083 33.0615 8.13346 32.429 8.13346 31.6808V6.85664C8.13346 6.11138 8.72718 5.46678 9.49013 5.46678H23.2401C23.4331 5.46678 23.6018 5.51021 23.7566 5.60169C23.8905 5.68079 23.9972 5.78795 24.0738 5.86481L24.0755 5.86656L24.0775 5.86853L27.8725 9.63308C27.9775 9.7386 28.082 9.86221 28.1576 10.0159C28.2362 10.1759 28.2725 10.3455 28.2725 10.5292V13.2905C28.2725 13.5447 28.0673 13.7507 27.8142 13.7507C27.5611 13.7507 27.3559 13.5447 27.3559 13.2905V10.5292C27.3559 10.4735 27.3464 10.4452 27.3356 10.4234C27.3219 10.3955 27.2936 10.3536 27.2251 10.2848L23.4313 6.52135L23.4293 6.51938C23.3879 6.4778 23.3596 6.45012 23.3349 6.42835C23.3113 6.40763 23.2983 6.39884 23.2918 6.395C23.2869 6.39213 23.2826 6.39089 23.2826 6.39089C23.2792 6.39002 23.2669 6.38721 23.2401 6.38721H9.49013Z" fill="#0B2343"/>
<path fill-rule="evenodd" clip-rule="evenodd" d="M14.3915 12.0219C14.583 12.1881 14.604 12.4788 14.4385 12.671L12.4573 14.9721C12.3728 15.0704 12.2508 15.1282 12.1215 15.1312C11.9922 15.1343 11.8676 15.0824 11.7785 14.9883L11.0097 14.1766C10.8352 13.9924 10.8425 13.7011 11.0259 13.5259C11.2093 13.3508 11.4995 13.3581 11.6739 13.5422L12.0944 13.9862L13.745 12.0691C13.9106 11.8768 14.2 11.8557 14.3915 12.0219Z" fill="#0B2343"/>
<path fill-rule="evenodd" clip-rule="evenodd" d="M14.3915 18.465C14.583 18.6312 14.604 18.9218 14.4385 19.1141L12.4573 21.4152C12.3728 21.5134 12.2508 21.5712 12.1215 21.5743C11.9922 21.5774 11.8676 21.5255 11.7785 21.4314L11.0097 20.6196C10.8352 20.4354 10.8425 20.1441 11.0259 19.969C11.2093 19.7938 11.4995 19.8011 11.6739 19.9853L12.0944 20.4293L13.745 18.5121C13.9106 18.3199 14.2 18.2987 14.3915 18.465Z" fill="#0B2343"/>
<path fill-rule="evenodd" clip-rule="evenodd" d="M16.3834 13.2905C16.3834 13.0363 16.5886 12.8303 16.8418 12.8303H23.2584C23.5115 12.8303 23.7167 13.0363 23.7167 13.2905C23.7167 13.5447 23.5115 13.7507 23.2584 13.7507H16.8418C16.5886 13.7507 16.3834 13.5447 16.3834 13.2905Z" fill="#0B2343"/>
<path fill-rule="evenodd" clip-rule="evenodd" d="M16.3834 20.1938C16.3834 19.9396 16.5886 19.7335 16.8418 19.7335H23.2584C23.5115 19.7335 23.7167 19.9396 23.7167 20.1938C23.7167 20.4479 23.5115 20.654 23.2584 20.654H16.8418C16.5886 20.654 16.3834 20.4479 16.3834 20.1938Z" fill="#0B2343"/>
<path fill-rule="evenodd" clip-rule="evenodd" d="M16.3834 26.6368C16.3834 26.3826 16.5886 26.1766 16.8418 26.1766H23.2584C23.5115 26.1766 23.7167 26.3826 23.7167 26.6368C23.7167 26.891 23.5115 27.097 23.2584 27.097H16.8418C16.5886 27.097 16.3834 26.891 16.3834 26.6368Z" fill="#0B2343"/>
<path fill-rule="evenodd" clip-rule="evenodd" d="M10.8834 25.2562C10.8834 25.002 11.0887 24.7959 11.3418 24.7959H14.0918C14.3449 24.7959 14.5501 25.002 14.5501 25.2562V28.0175C14.5501 28.2716 14.3449 28.4777 14.0918 28.4777H11.3418C11.0887 28.4777 10.8834 28.2716 10.8834 28.0175V25.2562ZM11.8001 25.7164V27.5573H13.6334V25.7164H11.8001Z" fill="#0B2343"/>
<path fill-rule="evenodd" clip-rule="evenodd" d="M23.6984 10.069L27.0074 10.0688L23.6983 6.7862L23.6984 10.069ZM23.8316 7.10627V9.93549H26.6837L23.8316 7.10627ZM23.7213 5.58173C23.5761 5.50379 23.4186 5.46678 23.2401 5.46678H9.49013C8.72718 5.46678 8.13346 6.11138 8.13346 6.85664V31.6808C8.13346 32.429 8.72083 33.0615 9.49013 33.0615H26.9159C27.6791 33.0615 28.2817 32.4352 28.2817 31.6808V29.8583C28.2817 29.6042 28.0765 29.3981 27.8234 29.3981C27.5702 29.3981 27.365 29.6042 27.365 29.8583V31.6808C27.365 31.939 27.1609 32.1411 26.9159 32.1411H9.49013C9.25109 32.1411 9.05013 31.9451 9.05013 31.6808V6.85664C9.05013 6.58943 9.26308 6.38721 9.49013 6.38721L22.7816 6.38708L22.7817 10.5292C22.7817 10.7833 22.9869 10.9894 23.2401 10.9894L27.3557 10.9893L27.3559 13.2905C27.3559 13.5447 27.5611 13.7507 27.8142 13.7507C28.0673 13.7507 28.2725 13.5447 28.2725 13.2905L28.2724 10.6211C28.2784 10.5913 28.2817 10.5607 28.2817 10.5292C28.2817 10.4901 28.2767 10.4521 28.2676 10.4159C28.2565 10.288 28.2261 10.1669 28.174 10.051C28.1687 10.0392 28.1633 10.0276 28.1576 10.0159C28.082 9.86221 27.9775 9.7386 27.8725 9.63308L24.0775 5.86853L24.0755 5.86656L24.0738 5.86481C23.9972 5.78795 23.8905 5.68079 23.7566 5.60169C23.745 5.59481 23.7331 5.58807 23.7213 5.58173ZM24.1695 5.77203L24.1684 5.77093L24.1653 5.76773C24.0896 5.69169 23.9729 5.57456 23.8243 5.48676C23.647 5.38203 23.4545 5.33331 23.2399 5.33331H9.49C8.64816 5.33331 8 6.04297 8 6.85651V31.6807C8 32.4981 8.64272 33.1947 9.49 33.1947H26.9157C27.7551 33.1947 28.4149 32.5063 28.4149 31.6807V29.8582C28.4149 29.5309 28.1505 29.2647 27.8232 29.2647C27.496 29.2647 27.2316 29.5309 27.2316 29.8582V31.6807C27.2316 31.8669 27.0854 32.0076 26.9157 32.0076H9.49C9.32752 32.0076 9.18333 31.8743 9.18333 31.6807V6.85651C9.18333 6.65937 9.34011 6.52042 9.49 6.52042H22.6483V10.529C22.6483 10.8563 22.9126 11.1226 23.2399 11.1226H27.2224V13.2904C27.2224 13.6176 27.4868 13.8839 27.8141 13.8839C28.1414 13.8839 28.4057 13.6176 28.4057 13.2904V10.6336C28.4118 10.5997 28.4149 10.5647 28.4149 10.529C28.4149 10.4826 28.4096 10.4374 28.3995 10.394C28.3851 10.2416 28.3456 10.0963 28.2771 9.95699C28.1926 9.78508 28.0771 9.64967 27.9668 9.53887L24.1695 5.77203ZM14.4788 11.9211C14.7258 12.1355 14.7528 12.51 14.5394 12.7579L12.5583 15.059C12.4491 15.1857 12.2916 15.2604 12.1245 15.2644C11.9574 15.2684 11.7966 15.2013 11.6816 15.0799L10.9127 14.2681C10.6878 14.0307 10.6972 13.6553 10.9337 13.4294C11.1706 13.2032 11.5454 13.2127 11.7706 13.4504L12.0896 13.7872L13.6439 11.982C13.8575 11.7338 14.2315 11.7064 14.4788 11.9211ZM13.745 12.0691C13.9106 11.8768 14.2 11.8557 14.3915 12.0219C14.583 12.1881 14.604 12.4788 14.4385 12.671L12.4573 14.9721C12.3728 15.0704 12.2508 15.1282 12.1215 15.1312C11.9922 15.1343 11.8676 15.0824 11.7785 14.9883L11.0097 14.1766C10.8352 13.9924 10.8425 13.7011 11.0259 13.5259C11.2093 13.3508 11.4995 13.3581 11.6739 13.5422L12.0944 13.9862L13.745 12.0691ZM14.4788 18.3641C14.7258 18.5785 14.7528 18.9531 14.5394 19.201L12.5583 21.502C12.4491 21.6288 12.2916 21.7035 12.1245 21.7075C11.9574 21.7114 11.7966 21.6443 11.6816 21.5229L10.9127 20.7112C10.6878 20.4737 10.6972 20.0983 10.9337 19.8724C11.1706 19.6462 11.5454 19.6557 11.7706 19.8935L12.0896 20.2303L13.6439 18.425C13.8575 18.1768 14.2315 18.1495 14.4788 18.3641ZM12.0944 20.4293L11.6739 19.9853C11.4995 19.8011 11.2093 19.7938 11.0259 19.969C10.8425 20.1441 10.8352 20.4354 11.0097 20.6196L11.7785 21.4314C11.8676 21.5255 11.9922 21.5774 12.1215 21.5743C12.2508 21.5712 12.3728 21.5134 12.4573 21.4152L14.4385 19.1141C14.604 18.9218 14.583 18.6312 14.3915 18.465C14.2 18.2987 13.9106 18.3199 13.745 18.5121L12.0944 20.4293ZM16.25 13.2904C16.25 12.9631 16.5143 12.6968 16.8416 12.6968H23.2583C23.5855 12.6968 23.8499 12.9631 23.8499 13.2904C23.8499 13.6176 23.5855 13.8839 23.2583 13.8839H16.8416C16.5143 13.8839 16.25 13.6176 16.25 13.2904ZM16.25 20.1936C16.25 19.8663 16.5143 19.6001 16.8416 19.6001H23.2583C23.5855 19.6001 23.8499 19.8663 23.8499 20.1936C23.8499 20.5209 23.5855 20.7872 23.2583 20.7872H16.8416C16.5143 20.7872 16.25 20.5209 16.25 20.1936ZM16.25 26.6367C16.25 26.3094 16.5143 26.0431 16.8416 26.0431H23.2583C23.5855 26.0431 23.8499 26.3094 23.8499 26.6367C23.8499 26.964 23.5855 27.2302 23.2583 27.2302H16.8416C16.5143 27.2302 16.25 26.964 16.25 26.6367ZM10.75 25.256C10.75 24.9287 11.0144 24.6625 11.3417 24.6625H14.0916C14.4189 24.6625 14.6833 24.9287 14.6833 25.256V28.0173C14.6833 28.3446 14.4189 28.6109 14.0916 28.6109H11.3417C11.0144 28.6109 10.75 28.3446 10.75 28.0173V25.256ZM11.9333 25.8496V27.4238H13.5V25.8496H11.9333ZM16.3834 13.2905C16.3834 13.0363 16.5886 12.8303 16.8418 12.8303H23.2584C23.5115 12.8303 23.7167 13.0363 23.7167 13.2905C23.7167 13.5447 23.5115 13.7507 23.2584 13.7507H16.8418C16.5886 13.7507 16.3834 13.5447 16.3834 13.2905ZM16.8418 19.7335C16.5886 19.7335 16.3834 19.9396 16.3834 20.1938C16.3834 20.4479 16.5886 20.654 16.8418 20.654H23.2584C23.5115 20.654 23.7167 20.4479 23.7167 20.1938C23.7167 19.9396 23.5115 19.7335 23.2584 19.7335H16.8418ZM16.3834 26.6368C16.3834 26.3826 16.5886 26.1766 16.8418 26.1766H23.2584C23.5115 26.1766 23.7167 26.3826 23.7167 26.6368C23.7167 26.891 23.5115 27.097 23.2584 27.097H16.8418C16.5886 27.097 16.3834 26.891 16.3834 26.6368ZM11.3418 24.7959C11.0887 24.7959 10.8834 25.002 10.8834 25.2562V28.0175C10.8834 28.2716 11.0887 28.4777 11.3418 28.4777H14.0918C14.3449 28.4777 14.5501 28.2716 14.5501 28.0175V25.2562C14.5501 25.002 14.3449 24.7959 14.0918 24.7959H11.3418ZM11.8001 25.7164H13.6334V27.5573H11.8001V25.7164Z" fill="#0B2343"/>
<path fill-rule="evenodd" clip-rule="evenodd" d="M30.4177 19.3565C30.7752 19.7519 30.9766 20.2831 31.0397 20.8412L31.041 20.8524L31.1895 22.4695L32.847 23.5549C33.0934 23.7163 33.1624 24.0469 33.001 24.2933C32.8396 24.5397 32.5091 24.6087 32.2626 24.4473L30.3898 23.2208C30.2538 23.1317 30.1658 22.9854 30.1509 22.8235L29.9792 20.9559C29.9342 20.5658 29.7996 20.2634 29.6264 20.0718C29.4628 19.8907 29.2512 19.7901 28.9728 19.8025C28.5299 19.8215 28.1011 20.237 28.0534 20.8218L28.7017 25.1657C28.7031 25.1754 28.7043 25.1851 28.7052 25.1948L28.7053 25.1962L28.7071 25.2114C28.7088 25.2256 28.7117 25.2478 28.7163 25.2761C28.7255 25.3335 28.7405 25.4114 28.7635 25.4945C28.8177 25.6901 28.8845 25.7977 28.9206 25.8272L28.9246 25.8305C28.9744 25.872 29.1326 25.932 29.3759 25.97C29.4804 25.9863 29.5773 25.9953 29.6483 26.0001C29.6835 26.0024 29.7115 26.0037 29.7299 26.0044L29.7497 26.0051L33.7495 26.0051C33.9904 26.0051 34.194 26.1648 34.2602 26.384L36.6056 30.8415C36.7427 31.1022 36.6426 31.4247 36.382 31.5618C36.1213 31.699 35.7988 31.5988 35.6616 31.3382L33.4167 27.0718H29.7383L29.7456 26.5402C29.7383 27.0717 29.7383 27.0718 29.7383 27.0718L29.7362 27.0717L29.733 27.0716L29.723 27.0714L29.6897 27.0703C29.662 27.0693 29.6234 27.0675 29.5765 27.0643C29.4834 27.058 29.3543 27.0462 29.2112 27.0239C28.96 26.9846 28.5383 26.8958 28.2438 26.6517C27.9369 26.3998 27.7996 26.0107 27.7355 25.7792C27.6993 25.6485 27.6767 25.5303 27.663 25.4449C27.6561 25.4018 27.6513 25.366 27.6482 25.34L27.6449 25.3114L26.9901 20.9237C26.985 20.8896 26.9832 20.8551 26.9848 20.8207C27.0324 19.7764 27.8093 18.785 28.9258 18.7368C29.5353 18.7099 30.05 18.9497 30.4177 19.3565Z" fill="#0B2343"/>
<path fill-rule="evenodd" clip-rule="evenodd" d="M23.7337 21.9195C23.7337 21.625 23.9725 21.3862 24.2671 21.3862H25.5587C25.7885 21.3862 25.9925 21.5335 26.0649 21.7516L28.0748 27.811H32.6247C32.9193 27.811 33.1581 28.0498 33.1581 28.3444C33.1581 28.6389 32.9193 28.8777 32.6247 28.8777H27.6898C27.4599 28.8777 27.2559 28.7304 27.1836 28.5123L25.1737 22.4529H24.2671C23.9725 22.4529 23.7337 22.2141 23.7337 21.9195Z" fill="#0B2343"/>
<path fill-rule="evenodd" clip-rule="evenodd" d="M30.8669 16.2209C30.8669 17.3254 29.9715 18.2209 28.8669 18.2209C27.7624 18.2209 26.8669 17.3254 26.8669 16.2209C26.8669 15.1163 27.7624 14.2209 28.8669 14.2209C29.9715 14.2209 30.8669 15.1163 30.8669 16.2209ZM28.8669 17.1542C29.3824 17.1542 29.8003 16.7363 29.8003 16.2209C29.8003 15.7054 29.3824 15.2875 28.8669 15.2875C28.3515 15.2875 27.9336 15.7054 27.9336 16.2209C27.9336 16.7363 28.3515 17.1542 28.8669 17.1542Z" fill="#0B2343"/>
</svg>
