<?xml version="1.0" encoding="utf-8"?>
<!-- Generator: Adobe Illustrator 19.2.1, SVG Export Plug-In . SVG Version: 6.00 Build 0)  -->
<svg version="1.1" id="Layer_1" xmlns="http://www.w3.org/2000/svg" xmlns:xlink="http://www.w3.org/1999/xlink" x="0px" y="0px"
	 viewBox="0 0 60 60" enable-background="new 0 0 60 60" xml:space="preserve">
<g>
	<path d="M59.8,32.5c-0.1-0.1-0.3-0.2-0.5-0.2H0.6c-0.2,0-0.3,0.1-0.5,0.2C0,32.7,0,32.8,0,33c0.9,10.1,8.7,19.5,20,24v2.4
		c0,0.3,0.3,0.6,0.6,0.6h18.8c0.3,0,0.6-0.3,0.6-0.6V57c11.3-4.5,19.1-13.9,20-24C60,32.8,60,32.7,59.8,32.5z M39.2,56
		c-0.2,0.1-0.4,0.3-0.4,0.6v2.2H21.2v-2.2c0-0.3-0.2-0.5-0.4-0.6C10,51.8,2.5,43.1,1.3,33.6h57.4C57.5,43.1,50,51.8,39.2,56z"/>
	<path d="M4.4,28.6c0.2,0.5,0.5,0.9,0.8,1c0.1,0,0.2,0.1,0.3,0.1c0.2,0,0.5-0.1,0.6-0.4c0.1-0.3,0-0.7-0.3-0.8c0,0-0.1-0.1-0.1-0.2
		c0-0.2-0.1-0.8,0.8-2c0.2-0.2,0.1-0.5,0-0.8c-0.6-0.7-2.2-3-1.7-4.5c0.3-0.8,1.1-1.4,2.6-1.8c0.3-0.1,0.5-0.3,0.5-0.6
		c-0.1-1.8,0.2-6.9,2.5-8.3c1.2-0.7,3-0.4,5.2,0.9c0.2,0.1,0.4,0.1,0.6,0c0,0,2.9-1.3,4.7-0.1c1.1,0.7,1.7,2.3,1.7,4.6
		c0,0.3,0.2,0.6,0.5,0.6c0.9,0.1,3.2,0.6,3.7,1.9c0.3,0.7,0,1.7-1,2.8c-1.2,1.5-1.7,2.9-1.3,4c0.3,1,1.3,1.8,2.7,2.2
		c1.6,0.5,2.2,0.8,2.6,2.1c0.1,0.3,0.4,0.5,0.8,0.4c0.3-0.1,0.5-0.4,0.4-0.8c-0.3-1-0.7-1.6-1.3-2c0-1.2,0.3-3.6,1.7-4.3
		c0.6-0.3,1.4-0.3,2.8,0.2c0,0,0.1,0,0.1,0c1.2,0.5,2.7,1.5,4.7,3.2c0.2,0.1,0.4,0.2,0.6,0.1c0.2-0.1,0.4-0.2,0.4-0.4
		c0-0.1,2-6.2,5.4-6.7c1.8-0.3,3.7,1.1,5.8,4c0.1,0.1,0.2,0.2,0.4,0.3c0.2,0,0.3,0,0.5-0.1c0.4-0.3,1.4-0.9,1.9-0.6
		c0.3,0.1,0.5,0.6,0.5,1.3c0.1,3.2-1.6,4.4-1.7,4.4c-0.3,0.2-0.4,0.6-0.2,0.9c0.1,0.2,0.3,0.3,0.5,0.3c0.1,0,0.2,0,0.3-0.1
		c0.1-0.1,2.5-1.6,2.3-5.6c-0.1-1.3-0.5-2.1-1.2-2.4c-0.9-0.4-2,0.1-2.7,0.4c-1.1-1.5-2.2-2.5-3.3-3.2c1-0.5,2.2-1.3,2.3-2.4
		c0.1-0.8-0.4-1.5-1.3-2.1c-2-1.2-4.3-2.1-5.9-2.2c1.4-2.2,3.9-6.6,3.2-9.4c-0.2-1-0.8-1.7-1.7-2.2c-4.3-2.1-13,4.3-15.3,6
		c-1-1.6-3.6-5.2-5.6-5.4c-0.6,0-1,0.2-1.4,0.6c-0.6,0.4-2.6,2.2-2.5,7.8c-1.8-0.5-3.8,0.1-4.5,0.4c-2.5-1.4-4.6-1.7-6.2-0.7
		c-3,1.8-3.1,7.2-3.1,8.9c-1.6,0.5-2.6,1.3-3,2.5c-0.7,2.1,0.9,4.4,1.6,5.4C4.4,27,4.2,27.9,4.4,28.6z M23.4,2.7
		c0.1,0,0.2-0.1,0.2-0.2c0.2-0.2,0.3-0.2,0.5-0.2c1.3,0.1,3.7,3.2,5,5.4C29.2,7.9,29.3,8,29.5,8c0.2,0,0.4,0,0.5-0.1
		c2.9-2.3,11-8,14.5-6.3c0.6,0.3,0.9,0.7,1.1,1.3c0.7,2.7-2.6,7.9-3.9,9.7c-0.2,0.3-0.1,0.7,0.1,0.9c0.3,0.2,0.7,0.1,0.9-0.1
		c0.3-0.4,2.8-0.2,6.2,1.9c0.3,0.2,0.8,0.5,0.7,0.9c-0.1,0.6-1.5,1.4-2.6,1.9c-0.6-0.2-1.3-0.2-1.9-0.1c-3.3,0.5-5.4,4.8-6.1,6.7
		c-1.6-1.3-3-2.2-4.2-2.8c-0.3-0.4-1-1.6-1.6-3c0.6-0.7,2.5-2.6,5.3-2.1c0.3,0.1,0.7-0.2,0.7-0.5c0.1-0.3-0.2-0.7-0.5-0.7
		c-2.9-0.6-5,1-6.1,2c-0.6-2-0.8-4.1,0.8-5.2c1.4-1,2.5-1.6,3.4-2.1c1.7-1,2.8-1.6,2.4-3.3c-0.1-0.3-0.4-0.5-0.8-0.4
		c-0.3,0.1-0.5,0.4-0.4,0.8c0.2,0.7,0,0.8-1.8,1.8c-0.9,0.5-2.1,1.2-3.5,2.2c-0.8,0.6-1.3,1.3-1.5,2.1l-4.8-2.6
		c-0.3-0.2-0.7-0.1-0.8,0.2c-0.2,0.3-0.1,0.7,0.2,0.8l5.1,2.8c-0.1,2.3,1.1,5,1.9,6.6c-0.8-0.1-1.6-0.1-2.3,0.3
		c-1.9,0.9-2.3,3.4-2.4,4.8c-0.3-0.1-0.6-0.2-0.9-0.3c-0.7-0.2-1.7-0.6-1.9-1.4c-0.2-0.7,0.2-1.7,1.1-2.8c1.2-1.5,1.6-2.9,1.2-4.1
		c-0.7-1.7-3.1-2.4-4.2-2.6c-0.1-2.4-0.8-4-2.2-4.9C21.2,4,23.4,2.7,23.4,2.7z"/>
	<path d="M7.5,23c-0.1,0.3,0.1,0.7,0.4,0.8l5.3,1.4c0.7,1.4,1.7,2.8,3,4.1c0,0,0.1,0,0.1,0c0,0,0,0.1,0.1,0.1c0.1,0,0.2,0.1,0.2,0.1
		c0.1,0,0.3-0.1,0.4-0.2c0,0,0,0,0,0c0,0,0-0.1,0-0.1c0,0,0.1-0.1,0.1-0.1c0.1-0.2,2.3-5.3,3-9.4c0.1-0.3-0.2-0.7-0.5-0.7
		c-0.3-0.1-0.7,0.2-0.7,0.5c-0.5,3-1.9,6.5-2.6,8.2c-2.8-3.2-3.9-6.8-3.4-10.7c0-0.3-0.2-0.7-0.5-0.7c-0.3-0.1-0.7,0.2-0.7,0.5
		c-0.3,2.4,0,4.7,0.8,6.9l-4.4-1.2C7.9,22.4,7.6,22.6,7.5,23z"/>
	<path d="M46.4,23.7c0.3-0.1,0.5-0.5,0.3-0.8c-0.1-0.3-0.5-0.5-0.8-0.3c-3,1.3-1.4,6.5-1.3,6.7c0,0,0,0.1,0.1,0.1c0,0,0,0.1,0,0.1
		c0,0,0.1,0.1,0.1,0.1c0,0,0,0.1,0.1,0.1c0.1,0.1,0.2,0.1,0.3,0.1c0.1,0,0.1,0,0.2,0c0,0,0,0,0.1,0c0,0,0.1,0,0.1,0
		c1.4-1,3.9-2.8,4.5-3.6c0.2-0.3,0.1-0.7-0.1-0.9c-0.3-0.2-0.7-0.2-0.9,0.1c-0.3,0.4-1.6,1.5-3.5,2.8C45.3,26.7,45,24.3,46.4,23.7z"
		/>
</g>
</svg>
