<?xml version="1.0" encoding="utf-8"?>
<!-- Generator: Adobe Illustrator 19.1.0, SVG Export Plug-In . SVG Version: 6.00 Build 0)  -->
<svg version="1.1" id="Layer_1" xmlns="http://www.w3.org/2000/svg" xmlns:xlink="http://www.w3.org/1999/xlink" x="0px" y="0px"
	 viewBox="-369 371 60 60" style="enable-background:new -369 371 60 60;" xml:space="preserve">
<g>
	<path d="M-319.1,411c-4.2,0-8-2.6-9.4-6.5h-21c-1.5,3.9-5.2,6.5-9.4,6.5c-5.6,0-10.1-4.5-10.1-10s4.5-10,10.1-10
		c4.3,0,8.2,2.8,9.6,6.9h20.6c1.4-4.1,5.3-6.9,9.6-6.9c5.6,0,10.1,4.5,10.1,10S-313.5,411-319.1,411z M-349.9,403.3h21.8
		c0.3,0,0.5,0.2,0.6,0.4c1.2,3.6,4.6,6.1,8.4,6.1c4.9,0,8.8-3.9,8.8-8.8s-4-8.8-8.8-8.8c-3.9,0-7.5,2.6-8.5,6.4
		c-0.1,0.3-0.3,0.5-0.6,0.5h-21.6c-0.3,0-0.5-0.2-0.6-0.5c-1.1-3.8-4.6-6.4-8.5-6.4c-4.9,0-8.8,3.9-8.8,8.8s4,8.8,8.8,8.8
		c3.8,0,7.2-2.4,8.4-6.1C-350.4,403.4-350.2,403.3-349.9,403.3z"/>
</g>
</svg>
