<svg width="40" height="40" viewBox="0 0 40 40" fill="none" xmlns="http://www.w3.org/2000/svg">
<path d="M24.27 11.34C24.27 10.1 22.38 8.42004 20.04 8.42004C17.7 8.42004 15.8101 10.1 15.8101 11.34V11.92L24.29 11.9301L24.27 11.34Z" stroke="#0B2343" stroke-miterlimit="10" stroke-linecap="round" stroke-linejoin="round"/>
<path d="M16.0601 13.92L14.5601 17.49C14.4801 17.69 14.4399 17.89 14.4399 18.1V20.53C14.4399 20.76 14.5 20.9801 14.58 21.1901C15.43 23.2701 15.43 26.82 14.58 28.9C14.49 29.11 14.4399 29.3301 14.4399 29.5601V32.9C14.4399 33.93 16.94 34.76 20.03 34.76C23.12 34.76 25.62 33.93 25.62 32.9V29.5601C25.62 29.3301 25.57 29.11 25.48 28.9C24.63 26.82 24.63 23.2701 25.48 21.1901C25.57 20.9801 25.62 20.76 25.62 20.53L25.6 18.09C25.6 17.89 25.56 17.69 25.48 17.5L24 13.92" stroke="#0B2343" stroke-miterlimit="10" stroke-linecap="round" stroke-linejoin="round"/>
<path d="M18.84 8.57996V5.95996H21.23V8.57996" stroke="#0B2343" stroke-miterlimit="10" stroke-linecap="round" stroke-linejoin="round"/>
<path d="M18.35 5.95996H21.72" stroke="#0B2343" stroke-miterlimit="10" stroke-linecap="round" stroke-linejoin="round"/>
<path d="M18.5601 19.47V30.4301" stroke="#0B2343" stroke-miterlimit="10" stroke-linecap="round" stroke-linejoin="round"/>
<path d="M21.5601 19.47V30.4301" stroke="#0B2343" stroke-miterlimit="10" stroke-linecap="round" stroke-linejoin="round"/>
<path d="M24.5601 13.92H15.55C15 13.92 14.55 13.47 14.55 12.92C14.55 12.37 15 11.92 15.55 11.92H24.5601C25.1101 11.92 25.5601 12.37 25.5601 12.92C25.5601 13.48 25.1101 13.92 24.5601 13.92Z" stroke="#0B2343" stroke-miterlimit="10" stroke-linecap="round" stroke-linejoin="round"/>
</svg>
