<svg width="40" height="40" viewBox="0 0 40 40" fill="none" xmlns="http://www.w3.org/2000/svg">
<path d="M26.07 6V10.86H31.04" stroke="#0B2343" stroke-miterlimit="10" stroke-linecap="round" stroke-linejoin="round"/>
<path d="M31.04 29.9901C31.04 30.4701 30.65 30.86 30.17 30.86H12.91C12.43 30.86 12.04 30.4601 12.04 29.9901V6.88C12.04 6.4 12.43 6 12.91 6H26.62C26.85 6 26.96 6.10001 27.12 6.26001L30.78 9.83002C30.95 9.99002 31.04 10.22 31.04 10.45V29.9901Z" stroke="#0B2343" stroke-miterlimit="10" stroke-linecap="round" stroke-linejoin="round"/>
<path d="M26.73 17.89H16.74" stroke="#0B2343" stroke-miterlimit="10" stroke-linecap="round" stroke-linejoin="round"/>
<path d="M26.73 21.89H16.74" stroke="#0B2343" stroke-miterlimit="10" stroke-linecap="round" stroke-linejoin="round"/>
<path d="M26.73 25.89H16.74" stroke="#0B2343" stroke-miterlimit="10" stroke-linecap="round" stroke-linejoin="round"/>
<path d="M22.86 13.88H16.61" stroke="#0B2343" stroke-miterlimit="10" stroke-linecap="round" stroke-linejoin="round"/>
<path d="M8.90999 9.73004C8.40999 9.73004 8 10.14 8 10.64V33.88C8 34.38 8.40999 34.79 8.90999 34.79H27.75C28.25 34.79 28.66 34.38 28.66 33.88" stroke="#0B2343" stroke-miterlimit="10" stroke-linecap="round" stroke-linejoin="round"/>
</svg>
