<svg width="40" height="40" viewBox="0 0 40 40" fill="none" xmlns="http://www.w3.org/2000/svg">
<path d="M25.98 6V11H30.98" stroke="#0B2343" stroke-miterlimit="10" stroke-linecap="round" stroke-linejoin="round"/>
<path d="M30.98 33.98C30.98 34.53 30.54 34.98 29.99 34.98H10.98C10.43 34.98 10 34.53 10 33.98V7.01001C10 6.46001 10.44 6 10.98 6H25.98C26.24 6 26.36 6.11004 26.54 6.29004L30.68 10.38C30.87 10.57 30.97 10.74 30.97 11V33.98H30.98Z" stroke="#0B2343" stroke-miterlimit="10" stroke-linecap="round" stroke-linejoin="round"/>
<path d="M19.94 15H27.04" stroke="#0B2343" stroke-linecap="round" stroke-linejoin="round"/>
<path d="M17.01 14.08H14.03V17.07H17.01V14.08Z" stroke="#0B2343" stroke-linecap="round" stroke-linejoin="round"/>
<path d="M19.94 21H27.04" stroke="#0B2343" stroke-linecap="round" stroke-linejoin="round"/>
<path d="M17.01 20.08H14.03V23.07H17.01V20.08Z" stroke="#0B2343" stroke-linecap="round" stroke-linejoin="round"/>
<path d="M19.94 27H27.04" stroke="#0B2343" stroke-linecap="round" stroke-linejoin="round"/>
<path d="M17.01 26.08H14.03V29.07H17.01V26.08Z" stroke="#0B2343" stroke-linecap="round" stroke-linejoin="round"/>
</svg>
