<svg width="40" height="40" viewBox="0 0 40 40" fill="none" xmlns="http://www.w3.org/2000/svg">
<path d="M27.81 6V11H32.81" stroke="#0B2343" stroke-miterlimit="10" stroke-linecap="round" stroke-linejoin="round"/>
<path d="M11.83 14V7.01001C11.83 6.46001 12.27 6 12.81 6H27.81C28.07 6 28.19 6.11004 28.37 6.29004L32.51 10.38C32.7 10.57 32.8 10.74 32.8 11V33.98C32.8 34.53 32.36 34.98 31.81 34.98H12.8C12.25 34.98 11.82 34.53 11.82 33.98V31.96" stroke="#0B2343" stroke-miterlimit="10" stroke-linecap="round" stroke-linejoin="round"/>
<path d="M19.15 25.96C15.74 25.96 12.98 23.2 12.98 19.79C12.98 16.38 15.74 13.62 19.15 13.62C22.56 13.62 25.32 16.38 25.32 19.79C25.32 23.2 22.55 25.96 19.15 25.96Z" stroke="#0B2343" stroke-miterlimit="10" stroke-linecap="round" stroke-linejoin="round"/>
<path d="M14.79 24.15L8 30.94" stroke="#0B2343" stroke-miterlimit="10" stroke-linecap="round" stroke-linejoin="round"/>
</svg>
