<svg id="Layer_1" data-name="Layer 1" xmlns="http://www.w3.org/2000/svg" viewBox="0 0 50 50"><title>icons-ui_01</title><path d="M33.88,42.47H11a6.48,6.48,0,0,0-1-2,5.55,5.55,0,0,0-3.7-2.07,5.15,5.15,0,0,0-.65,0A5.68,5.68,0,0,0,1.71,40a6,6,0,0,0-.21,8.12,5.54,5.54,0,0,0,7.87.44A5.63,5.63,0,0,0,11,45.89H50V42.47H33.88ZM38.74,21.3A5.57,5.57,0,0,0,35,19.22a6,6,0,0,0-.65,0A5.6,5.6,0,0,0,29,23.29H0v3.42H29a6.18,6.18,0,0,0,1.24,2.23,5.58,5.58,0,0,0,9.53-2.23H50V23.29H39.78A6.49,6.49,0,0,0,38.74,21.3Zm4-17.18H22a6.48,6.48,0,0,0-1-2A5.6,5.6,0,0,0,16.63,0a5.59,5.59,0,0,0-5.37,4.11H0.08V7.53H11.24a6.19,6.19,0,0,0,1.24,2.23A5.58,5.58,0,0,0,22,7.53H50V4.11H42.73Z"/></svg>