<svg width="40" height="40" viewBox="0 0 40 40" fill="none" xmlns="http://www.w3.org/2000/svg">
<path d="M20.2628 20.2651C21.2928 25.3751 19.7728 30.4152 16.5728 34.0452" stroke="#0B2343" stroke-linecap="round" stroke-linejoin="round"/>
<path d="M16.7926 21.0751C16.7826 21.0351 16.7826 21.005 16.7726 20.965H16.7627C16.3727 19.035 17.6226 17.1451 19.5626 16.7551C21.5026 16.3651 23.3826 17.6151 23.7726 19.5551C24.8626 24.9651 23.6126 30.2951 20.7326 34.5151" stroke="#0B2343" stroke-linecap="round" stroke-linejoin="round"/>
<path d="M17.0128 23.3152C17.0528 26.8752 15.5627 30.2152 13.0527 32.5652" stroke="#0B2343" stroke-linecap="round" stroke-linejoin="round"/>
<path d="M27.5327 26.3953C27.2127 28.9153 26.4727 31.3452 25.3827 33.5852" stroke="#0B2343" stroke-linecap="round" stroke-linejoin="round"/>
<path d="M27.7026 24.1554C27.7526 22.4154 27.6126 20.6353 27.2526 18.8553C26.4726 14.9953 22.7126 12.4952 18.8426 13.2652C14.9826 14.0452 12.4826 17.8054 13.2526 21.6754H13.2626C13.9426 25.0254 12.6426 28.3253 10.1626 30.3553" stroke="#0B2343" stroke-linecap="round" stroke-linejoin="round"/>
<path d="M24.1027 10.2852C27.4027 11.5552 30.0027 14.4253 30.7527 18.1453C31.5927 22.3153 31.4127 26.4552 30.3827 30.3052" stroke="#0B2343" stroke-linecap="round" stroke-linejoin="round"/>
<path d="M9.83264 17.8852C10.7426 13.9052 13.8826 10.6351 18.1426 9.77513C19.4226 9.51513 20.6927 9.51506 21.9127 9.70506" stroke="#0B2343" stroke-linecap="round" stroke-linejoin="round"/>
<path d="M9.56268 20.1252C9.55268 20.8652 9.61264 21.6253 9.77264 22.3853H9.78265C10.1827 24.3653 9.43268 26.3152 7.99268 27.5352" stroke="#0B2343" stroke-linecap="round" stroke-linejoin="round"/>
<path d="M34.5326 20.5551C34.5526 19.5351 34.4626 18.4952 34.2526 17.4452H34.2426C32.6826 9.7252 25.1626 4.72504 17.4426 6.28504C15.3826 6.70504 13.5226 7.5452 11.9226 8.6952" stroke="#0B2343" stroke-linecap="round" stroke-linejoin="round"/>
<path d="M10.2127 10.1553C6.93268 13.4153 5.30268 18.2152 6.28268 23.0852H6.29269C6.33269 23.2852 6.38271 23.4953 6.43271 23.6953" stroke="#0B2343" stroke-linecap="round" stroke-linejoin="round"/>
</svg>
