<svg width="40" height="40" viewBox="0 0 40 40" fill="none" xmlns="http://www.w3.org/2000/svg">
<path d="M33.1804 16.2676H9.60638V15.018C9.60638 13.9665 10.5817 13.0979 11.7856 13.0979H32.0832C32.6927 13.0979 33.1804 13.5246 33.1804 14.0579V16.2676Z" stroke="#0B2343" stroke-miterlimit="10" stroke-linecap="round" stroke-linejoin="round"/>
<path d="M19.6944 20.0925C19.6944 20.0925 19.4506 21.6163 19.8011 22.0582" stroke="#0B2343" stroke-miterlimit="10" stroke-linecap="round" stroke-linejoin="round"/>
<path d="M31.6414 13.0979V12.077" stroke="#0B2343" stroke-miterlimit="10" stroke-linecap="round" stroke-linejoin="round"/>
<path d="M10.7646 18.9496C10.7646 18.9496 11.3589 20.8238 10.8408 21.8905C10.8408 21.8905 8.20459 27.346 8.20459 28.8851C8.20459 29.8604 8.99702 29.9975 8.99702 29.9975C9.10369 30.0127 14.6505 29.9517 14.6505 29.9517C14.0104 29.7689 14.62 27.6507 15.2753 27.8183C14.6353 27.6355 15.2448 25.5173 15.9 25.6849C15.26 25.502 15.8696 23.384 16.5249 23.5516L17.7896 20.138L30.1328 19.7268V18.9343" stroke="#0B2343" stroke-miterlimit="10" stroke-linecap="round" stroke-linejoin="round"/>
<path d="M23.2602 19.9705V22.0429C23.2602 22.9267 22.4982 23.6429 21.5991 23.5972L16.54 23.5667" stroke="#0B2343" stroke-miterlimit="10" stroke-linecap="round" stroke-linejoin="round"/>
</svg>
