<svg width="40" height="40" viewBox="0 0 40 40" fill="none" xmlns="http://www.w3.org/2000/svg">
<path d="M28.4676 21.8913L28.451 21.663C28.1837 18.1832 26.5634 16.0017 25.134 14.0776C23.8104 12.2959 22.6672 10.7572 22.6672 8.48701C22.6672 8.30471 22.5651 8.13809 22.4033 8.0545C22.2409 7.97046 22.0458 7.98422 21.8981 8.09155C19.7514 9.6278 17.9602 12.2171 17.3345 14.6876C16.9001 16.4076 16.8426 18.3412 16.8346 19.6183C14.8521 19.1948 14.403 16.2291 14.3982 16.1968C14.3759 16.043 14.2819 15.9091 14.1452 15.836C14.007 15.7638 13.8447 15.7586 13.7046 15.8279C13.6007 15.8782 11.1529 17.1221 11.0104 22.0888C11.0005 22.254 11 22.4192 11 22.5849C11 27.4097 14.9256 31.3353 19.7504 31.3353C24.5752 31.3353 28.5008 27.4097 28.5008 22.5849C28.5008 22.3428 28.4842 22.1168 28.4676 21.8913ZM19.7504 30.363C18.142 30.363 16.8336 28.9692 16.8336 27.2559C16.8336 27.1975 16.8332 27.1386 16.8374 27.0665C16.8569 26.3439 16.9941 25.8507 17.1446 25.5226C17.4266 26.1284 17.9312 26.6852 18.7497 26.6852C19.0184 26.6852 19.2358 26.4678 19.2358 26.1991C19.2358 25.5069 19.2501 24.7084 19.4224 23.9877C19.5758 23.3483 19.9422 22.6689 20.4066 22.1239C20.6131 22.8313 21.0157 23.4038 21.4088 23.9626C21.9713 24.7621 22.5529 25.5886 22.655 26.9981C22.6611 27.0816 22.6673 27.1656 22.6673 27.2558C22.6672 28.9692 21.3589 30.363 19.7504 30.363ZM22.8227 29.7279C23.3273 29.0397 23.6395 28.1891 23.6395 27.2559C23.6395 27.1415 23.6324 27.0351 23.6181 26.8362C23.5028 25.2492 22.813 24.2683 22.2039 23.4029C21.685 22.6661 21.2373 22.0295 21.2373 21.1265C21.2373 20.9419 21.1329 20.7733 20.9677 20.6912C20.8034 20.6086 20.605 20.6271 20.4583 20.7387C19.5259 21.4432 18.7483 22.6291 18.4767 23.7614C18.3381 24.342 18.2897 24.9701 18.2726 25.4866C17.9355 25.1239 17.8311 24.4516 17.8302 24.4426C17.8083 24.2864 17.7124 24.1502 17.5724 24.0776C17.4333 24.0054 17.2667 24.0035 17.1266 24.0756C17.0041 24.1383 15.9279 24.7555 15.8662 27.0257C15.8619 27.1026 15.8614 27.1795 15.8614 27.2559C15.8614 28.1892 16.1736 29.0398 16.6782 29.7279C13.9135 28.5341 11.9724 25.7828 11.9724 22.585C11.9724 22.4392 11.9719 22.294 11.9819 22.1321C12.0654 19.2181 12.9978 17.773 13.6064 17.1354C14.0308 18.6546 15.1427 20.6404 17.3199 20.6404C17.5886 20.6404 17.806 20.423 17.806 20.1543C17.806 18.5273 17.8426 16.6474 18.2774 14.9259C18.7711 12.9757 20.1237 10.8698 21.7563 9.44413C22.0274 11.5264 23.1615 13.0531 24.3536 14.6572C25.7707 16.5647 27.2358 18.5373 27.4812 21.7314L27.4979 21.964C27.513 22.1662 27.5287 22.368 27.5287 22.5849C27.5286 25.7828 25.5875 28.534 22.8227 29.7279Z" fill="#0B2343"/>
</svg>
