<svg width="40" height="40" viewBox="0 0 40 40" fill="none" xmlns="http://www.w3.org/2000/svg">
<path d="M12.1599 21.1899C12.1599 22.1199 12.32 23.0199 12.6 23.8499C12.11 24.0699 11.76 24.5599 11.76 25.1399C11.76 25.9199 12.3899 26.5499 13.1699 26.5499C13.1799 26.5499 13.1899 26.5499 13.1899 26.5499C13.4799 30.2699 17.71 33.4099 20.39 33.4099C23.14 33.4099 27.3 30.2699 27.59 26.5499C27.6 26.5499 27.61 26.5499 27.61 26.5499C28.39 26.5499 29.02 25.9199 29.02 25.1399C29.02 24.5699 28.6799 24.0699 28.1799 23.8499C28.4699 23.0099 28.62 22.1199 28.62 21.1899" stroke="#0B2343" stroke-linecap="round" stroke-linejoin="round"/>
<path d="M14.87 19.95L14.5499 24.4C14.5499 24.4 13.78 23.33 12.6 23.85" stroke="#0B2343" stroke-miterlimit="10" stroke-linecap="round" stroke-linejoin="round"/>
<path d="M25.96 19.96L26.2799 24.4C26.2799 24.4 27.05 23.33 28.23 23.85" stroke="#0B2343" stroke-miterlimit="10" stroke-linecap="round" stroke-linejoin="round"/>
<path d="M12.14 21.16C14.32 19.89 17.22 19.11 20.4 19.11C23.58 19.11 26.4799 19.89 28.6699 21.16" stroke="#0B2343" stroke-linecap="round" stroke-linejoin="round"/>
<path d="M20.47 11.99H18.81V14.26C18.81 14.26 18.76 15.28 20.41 16.1C22.06 15.28 22.0101 14.26 22.0101 14.26V11.99H20.47Z" stroke="#0B2343" stroke-miterlimit="10" stroke-linecap="round" stroke-linejoin="round"/>
<path d="M27.2 31.45C29.06 31.09 34.84 29.57 34.84 24.66C34.84 21.32 30.23 19.51 30.23 19.51C30.23 19.51 29.96 10.74 22.77 9.12V7.81C22.77 7.36 22.42 7 21.98 7H20.48H18.98C18.54 7 18.1899 7.36 18.1899 7.81V9.10001C10.8799 10.65 10.61 19.51 10.61 19.51C10.61 19.51 6 21.32 6 24.66C6 29.56 11.73 31.08 13.61 31.45" stroke="#0B2343" stroke-miterlimit="10" stroke-linecap="round" stroke-linejoin="round"/>
<path d="M19.46 28.45H21.35" stroke="#0B2343" stroke-miterlimit="3.864" stroke-linecap="round" stroke-linejoin="round"/>
</svg>
