<svg width="40" height="40" viewBox="0 0 40 40" fill="none" xmlns="http://www.w3.org/2000/svg">
<path d="M17.4248 20.7841C17.1309 20.4902 16.6573 20.4854 16.3691 20.7745C16.079 21.0637 16.0838 21.5373 16.3778 21.8312C16.6717 22.1251 17.1453 22.1299 17.4344 21.8408C17.7236 21.5517 17.7188 21.0781 17.4248 20.7841Z" stroke="#0B2343" stroke-width="0.957281" stroke-linecap="round" stroke-linejoin="round"/>
<path d="M31.0566 21.7242C21.7263 31.0805 15.4881 24.6079 13.6534 22.3909C13.3335 22.0047 13.3335 21.4437 13.6534 21.0576C15.4881 18.8405 21.7263 12.368 31.0566 21.7242Z" stroke="#0B2343" stroke-width="0.957281" stroke-linecap="round" stroke-linejoin="round"/>
<path d="M30.1927 20.8371C30.1927 20.8371 33.0995 17.9995 33.9967 17.8814C33.9967 17.8814 34.0976 20.4231 33.1629 21.7238C34.0976 23.0244 33.9967 25.5671 33.9967 25.5671C33.0995 25.449 30.1927 22.6104 30.1927 22.6104" stroke="#0B2343" stroke-width="0.957281" stroke-linecap="round" stroke-linejoin="round"/>
<path d="M19.7644 17.0005V26.448" stroke="#0B2343" stroke-width="0.957281" stroke-linecap="round" stroke-linejoin="round"/>
<path d="M21.859 18.386C21.859 18.386 22.3614 18.971 21.859 19.7078" stroke="#0B2343" stroke-width="0.957281" stroke-linecap="round" stroke-linejoin="round"/>
<path d="M21.859 21.0415C21.859 21.0415 22.3614 21.6265 21.859 22.3633" stroke="#0B2343" stroke-width="0.957281" stroke-linecap="round" stroke-linejoin="round"/>
<path d="M26.1013 21.0415C26.1013 21.0415 26.6037 21.6265 26.1013 22.3633" stroke="#0B2343" stroke-width="0.957281" stroke-linecap="round" stroke-linejoin="round"/>
<path d="M21.859 23.6965C21.859 23.6965 22.3614 24.2815 21.859 25.0183" stroke="#0B2343" stroke-width="0.957281" stroke-linecap="round" stroke-linejoin="round"/>
<path d="M23.9801 19.7383C23.9801 19.7383 24.4825 20.3233 23.9801 21.0601" stroke="#0B2343" stroke-width="0.957281" stroke-linecap="round" stroke-linejoin="round"/>
<path d="M23.9801 22.3938C23.9801 22.3938 24.4825 22.9788 23.9801 23.7156" stroke="#0B2343" stroke-width="0.957281" stroke-linecap="round" stroke-linejoin="round"/>
<path d="M5.9668 15.2014V5.7126" stroke="#0B2343" stroke-width="0.957281" stroke-linecap="round" stroke-linejoin="round"/>
<path d="M11.9332 29.549C12.4884 28.8689 13.1359 29.3291 13.1359 30.1638C13.1359 32.1436 11.5307 33.7488 9.55092 33.7488C7.57208 33.7488 5.96692 32.1436 5.96692 30.1638V17.6866" stroke="#0B2343" stroke-width="0.957281" stroke-linecap="round" stroke-linejoin="round"/>
<path d="M7.20932 16.4437C7.20932 17.1296 6.65313 17.6858 5.9663 17.6858C5.28043 17.6858 4.72424 17.1296 4.72424 16.4437C4.72424 15.7579 5.28043 15.2007 5.9663 15.2007C6.65313 15.2007 7.20932 15.7579 7.20932 16.4437Z" stroke="#0B2343" stroke-width="0.957281" stroke-linecap="round" stroke-linejoin="round"/>
<path d="M11.9331 29.5491L12.7804 25.7086C12.7804 25.7086 14.0973 27.8527 12.9398 31.3271" stroke="#0B2343" stroke-width="0.957281" stroke-linecap="round" stroke-linejoin="round"/>
</svg>
