<svg width="42" height="42" viewBox="0 0 42 42" fill="none" xmlns="http://www.w3.org/2000/svg">
<path fill-rule="evenodd" clip-rule="evenodd" d="M0.5 21C0.5 9.6961 9.69611 0.5 21 0.5C32.3039 0.5 41.4999 9.6961 41.4999 21C41.4999 32.3039 32.3039 41.5 21 41.5C9.69611 41.5 0.5 32.3039 0.5 21ZM21 1.5C10.2484 1.5 1.5 10.2484 1.5 21C1.5 31.7516 10.2484 40.5 21 40.5C31.7516 40.5 40.4999 31.7516 40.4999 21C40.4999 10.2484 31.7516 1.5 21 1.5Z" fill="#007CC2"/>
<path fill-rule="evenodd" clip-rule="evenodd" d="M12.4481 20.7867C12.2465 20.9882 11.9064 20.993 11.6881 20.7744C11.4698 20.5561 11.4743 20.2154 11.6756 20.0137C11.877 19.8124 12.2172 19.8075 12.4359 20.0262C12.6542 20.2445 12.6494 20.5849 12.4481 20.7867ZM11.0515 21.4106C11.6111 21.9708 12.5214 21.9862 13.0846 21.4229C13.647 20.8597 13.6318 19.9494 13.0723 19.3898C12.513 18.8305 11.6027 18.8138 11.0391 19.3774C10.4768 19.9406 10.4921 20.851 11.0515 21.4106C11.0514 21.4105 11.0515 21.4106 11.0515 21.4106Z" fill="#007CC2"/>
<path fill-rule="evenodd" clip-rule="evenodd" d="M15.4489 27.5665C19.5499 28.5737 24.8505 27.5326 31.0981 21.268C31.2733 21.0923 31.2733 20.8081 31.0981 20.6324C24.8505 14.3681 19.5499 13.327 15.4489 14.3341C11.3942 15.33 8.64706 18.3 7.42021 19.7822C6.86001 20.4596 6.85989 21.4407 7.42009 22.1181C8.64693 23.6003 11.3942 26.5706 15.4489 27.5665ZM8.11352 21.5444C7.8287 21.1998 7.82874 20.7004 8.11365 20.3559C9.31324 18.9066 11.9032 16.1317 15.6636 15.2082C19.3124 14.312 24.1949 15.1312 30.1402 20.9502C24.1949 26.7695 19.3124 27.5887 15.6636 26.6925C11.9033 25.7689 9.31312 22.9936 8.11352 21.5444Z" fill="#007CC2"/>
<path fill-rule="evenodd" clip-rule="evenodd" d="M35.1173 26.0497L34.6677 26.0319C35.1173 26.0497 35.1173 26.0498 35.1173 26.0497L35.1174 26.0484L35.1175 26.0459L35.1178 26.0372L35.1187 26.0058C35.1194 25.9788 35.1203 25.9397 35.1209 25.8899C35.1222 25.7902 35.1226 25.6472 35.1191 25.4708C35.1121 25.1184 35.0894 24.6298 35.0268 24.0847C34.9149 23.1097 34.6682 21.8855 34.1033 20.9505C34.6682 20.0154 34.9149 18.791 35.0269 17.8159C35.0894 17.2707 35.1121 16.7821 35.1191 16.4296C35.1226 16.2531 35.1222 16.1101 35.1209 16.0105C35.1203 15.9606 35.1194 15.9215 35.1187 15.8945L35.1178 15.8631L35.1175 15.8544L35.1174 15.8519L35.1173 15.8508C35.1173 15.8507 35.1173 15.8506 34.6677 15.8684L35.1173 15.8508C35.1123 15.7244 35.0543 15.6057 34.9575 15.5242C34.8608 15.4427 34.7342 15.4057 34.6087 15.4223C34.3775 15.4529 34.1293 15.5606 33.8977 15.6851C33.6568 15.8147 33.3927 15.9856 33.1209 16.1783C32.5768 16.5642 31.9727 17.0585 31.4136 17.5412C30.8531 18.0252 30.3309 18.5034 29.9493 18.8602C29.7584 19.0387 29.6022 19.1871 29.4937 19.2911C29.4394 19.3432 29.397 19.3841 29.368 19.4121L29.3349 19.4442L29.3232 19.4555C29.3232 19.4556 29.3232 19.4556 29.6375 19.7776L29.9519 20.0996L29.9622 20.0895L29.9939 20.0588C30.0218 20.0318 30.0632 19.9919 30.1163 19.941C30.2226 19.8392 30.376 19.6933 30.564 19.5176C30.9401 19.1659 31.4531 18.6962 32.0018 18.2224C32.5519 17.7474 33.1313 17.2743 33.6415 16.9125C33.8515 16.7636 34.0449 16.637 34.2162 16.538C34.2069 16.8557 34.1842 17.2648 34.1327 17.7132C34.0131 18.7549 33.7466 19.9267 33.1996 20.6878C33.0868 20.8448 33.0868 21.0562 33.1996 21.2131C33.7466 21.9743 34.0131 23.1459 34.1327 24.1874C34.1842 24.6357 34.2069 25.0447 34.2162 25.3623C34.0449 25.2633 33.8515 25.1368 33.6415 24.9879C33.1313 24.6261 32.5519 24.1529 32.0018 23.6779C31.4531 23.2041 30.9401 22.7344 30.564 22.3827C30.376 22.207 30.2226 22.0611 30.1163 21.9593C30.0632 21.9084 30.0218 21.8685 29.9939 21.8415L29.9622 21.8108L29.9524 21.8012L29.6375 22.1227C29.3232 22.4447 29.3232 22.4447 29.3232 22.4448L29.3349 22.4561L29.368 22.4883C29.397 22.5163 29.4394 22.5572 29.4937 22.6092C29.6022 22.7132 29.7584 22.8616 29.9493 23.0402C30.3309 23.3969 30.8531 23.8752 31.4136 24.3591C31.9727 24.8418 32.5768 25.3362 33.1209 25.722C33.3927 25.9148 33.6568 26.0856 33.8977 26.2152C34.1293 26.3398 34.3775 26.4475 34.6087 26.478C34.7342 26.4946 34.8608 26.4576 34.9575 26.3761C35.0543 26.2946 35.1123 26.1761 35.1173 26.0497ZM29.6375 22.1227L29.3232 22.4448C29.1454 22.2712 29.1419 21.9862 29.3155 21.8083C29.4891 21.6305 29.7746 21.6276 29.9524 21.8012L29.6375 22.1227ZM29.6375 19.7776L29.9519 20.0996C29.774 20.2732 29.4891 20.2698 29.3155 20.092C29.1419 19.9141 29.1454 19.6292 29.3232 19.4555L29.6375 19.7776Z" fill="#007CC2"/>
<path fill-rule="evenodd" clip-rule="evenodd" d="M15.8479 27.6465C16.0964 27.6465 16.2979 27.445 16.2979 27.1965V14.7039C16.2979 14.4554 16.0964 14.2539 15.8479 14.2539C15.5993 14.2539 15.3979 14.4554 15.3979 14.7039V27.1965C15.3979 27.445 15.5993 27.6465 15.8479 27.6465Z" fill="#007CC2"/>
<path fill-rule="evenodd" clip-rule="evenodd" d="M18.3639 18.6554C18.5692 18.7954 18.8492 18.7425 18.9892 18.5372C19.4032 17.9305 19.414 17.3564 19.3017 16.9302C19.2474 16.7238 19.1662 16.5582 19.0982 16.4433C19.064 16.3854 19.0324 16.3392 19.008 16.3057C18.9957 16.2889 18.9851 16.2752 18.9768 16.2648L18.966 16.2515L18.962 16.2467L18.9604 16.2447L18.9596 16.2439C18.9595 16.2437 18.9589 16.2431 18.6175 16.5362L18.9589 16.2431C18.7971 16.0545 18.513 16.0329 18.3244 16.1947C18.1371 16.3555 18.1145 16.6368 18.2727 16.8254C18.2737 16.8266 18.2747 16.8277 18.2757 16.8289M18.2727 16.8254C18.2738 16.8268 18.2769 16.8307 18.2815 16.837C18.2907 16.8496 18.3059 16.8714 18.3235 16.9013C18.3593 16.9619 18.4027 17.0506 18.4314 17.1594C18.4852 17.3635 18.496 17.6632 18.2457 18.03C18.1057 18.2353 18.1586 18.5153 18.3639 18.6554" fill="#007CC2"/>
<path fill-rule="evenodd" clip-rule="evenodd" d="M18.364 22.167C18.5693 22.307 18.8493 22.254 18.9893 22.0487C19.4031 21.4417 19.414 20.8677 19.3017 20.4415C19.2473 20.2351 19.1662 20.0696 19.0982 19.9546C19.064 19.8968 19.0324 19.8506 19.0079 19.8171C18.9956 19.8003 18.985 19.7867 18.9767 19.7762L18.9659 19.7629L18.9619 19.7581L18.9602 19.7561L18.9595 19.7553C18.9593 19.7551 18.9588 19.7545 18.6175 20.0477L18.9588 19.7545C18.7969 19.566 18.5128 19.5444 18.3243 19.7064C18.137 19.8672 18.1145 20.1486 18.2728 20.3371C18.2728 20.3371 18.2728 20.3371 18.2728 20.3371M18.2728 20.3371C18.2739 20.3384 18.277 20.3423 18.2816 20.3486C18.2908 20.3612 18.3059 20.383 18.3236 20.4129C18.3594 20.4734 18.4028 20.562 18.4314 20.6708C18.4851 20.8747 18.496 21.1744 18.2457 21.5417C18.1057 21.747 18.1586 22.027 18.364 22.167" fill="#007CC2"/>
<path fill-rule="evenodd" clip-rule="evenodd" d="M23.9738 22.167C24.1792 22.307 24.4591 22.254 24.5991 22.0487C25.013 21.4417 25.0239 20.8677 24.9115 20.4415C24.8572 20.2351 24.776 20.0696 24.708 19.9546C24.6738 19.8968 24.6422 19.8506 24.6177 19.8171C24.6054 19.8003 24.5949 19.7867 24.5865 19.7762L24.5758 19.7629L24.5717 19.7581L24.5701 19.7561L24.5693 19.7553C24.5692 19.7551 24.5687 19.7545 24.2273 20.0477L24.5687 19.7545C24.4067 19.566 24.1226 19.5444 23.9341 19.7064C23.7469 19.8672 23.7243 20.1486 23.8827 20.3371C23.8827 20.3371 23.8827 20.3371 23.8827 20.3371M23.8827 20.3371C23.8838 20.3384 23.8868 20.3423 23.8914 20.3486C23.9007 20.3612 23.9158 20.383 23.9334 20.4129C23.9692 20.4734 24.0126 20.562 24.0413 20.6708C24.095 20.8747 24.1059 21.1744 23.8555 21.5417C23.7155 21.747 23.7685 22.027 23.9738 22.167" fill="#007CC2"/>
<path fill-rule="evenodd" clip-rule="evenodd" d="M18.3639 25.6776C18.5692 25.8176 18.8492 25.7648 18.9892 25.5594C19.4032 24.9527 19.414 24.3786 19.3017 23.9524C19.2474 23.7461 19.1662 23.5804 19.0982 23.4655C19.064 23.4076 19.0324 23.3614 19.008 23.3279C18.9957 23.3111 18.9851 23.2975 18.9768 23.287L18.966 23.2737L18.962 23.2689L18.9604 23.267L18.9596 23.2661C18.9595 23.2659 18.9589 23.2653 18.6175 23.5584L18.9589 23.2653C18.7971 23.0767 18.513 23.0551 18.3244 23.2169C18.1371 23.3777 18.1145 23.6591 18.2727 23.8476C18.2737 23.8488 18.2747 23.85 18.2757 23.8511M18.2727 23.8476C18.2738 23.849 18.2769 23.8529 18.2815 23.8592C18.2907 23.8718 18.3059 23.8937 18.3235 23.9236C18.3593 23.9841 18.4027 24.0728 18.4314 24.1817C18.4852 24.3857 18.496 24.6854 18.2457 25.0522C18.1057 25.2576 18.1586 25.5375 18.3639 25.6776" fill="#007CC2"/>
<path fill-rule="evenodd" clip-rule="evenodd" d="M21.1687 20.4433C21.374 20.5834 21.654 20.5305 21.794 20.3252C22.208 19.7184 22.2188 19.1444 22.1065 18.7181C22.0522 18.5118 21.971 18.3462 21.903 18.2312C21.8688 18.1733 21.8372 18.1271 21.8128 18.0936C21.8005 18.0769 21.7899 18.0632 21.7816 18.0527L21.7708 18.0394L21.7668 18.0346L21.7652 18.0327L21.7644 18.0318C21.7643 18.0316 21.7638 18.031 21.4223 18.3241L21.7638 18.031C21.6019 17.8424 21.3178 17.8208 21.1292 17.9826C20.9419 18.1434 20.9193 18.4248 21.0776 18.6133C21.0785 18.6145 21.0795 18.6157 21.0805 18.6168M21.0776 18.6133C21.0786 18.6147 21.0817 18.6186 21.0863 18.6249C21.0956 18.6375 21.1107 18.6594 21.1283 18.6893C21.1642 18.7498 21.2075 18.8385 21.2362 18.9474C21.29 19.1514 21.3008 19.4511 21.0506 19.818C20.9105 20.0233 20.9634 20.3032 21.1687 20.4433" fill="#007CC2"/>
<path fill-rule="evenodd" clip-rule="evenodd" d="M21.1687 23.9544C21.374 24.0945 21.654 24.0416 21.794 23.8363C22.208 23.2295 22.2188 22.6555 22.1065 22.2292C22.0522 22.0229 21.971 21.8573 21.903 21.7423C21.8688 21.6844 21.8372 21.6382 21.8128 21.6047C21.8005 21.588 21.7899 21.5743 21.7816 21.5638L21.7708 21.5505L21.7668 21.5457L21.7652 21.5438L21.7644 21.5429C21.7643 21.5427 21.7638 21.5421 21.4223 21.8352L21.7638 21.5421C21.6019 21.3535 21.3178 21.3319 21.1292 21.4938C20.9419 21.6545 20.9193 21.9359 21.0776 22.1245C21.0785 22.1256 21.0795 22.1268 21.0805 22.1279M21.0776 22.1245C21.0786 22.1258 21.0817 22.1297 21.0863 22.136C21.0956 22.1487 21.1107 22.1705 21.1283 22.2004C21.1642 22.2609 21.2075 22.3496 21.2362 22.4585C21.29 22.6625 21.3008 22.9622 21.0506 23.3291C20.9105 23.5344 20.9634 23.8143 21.1687 23.9544" fill="#007CC2"/>
</svg>
