<svg width="40" height="40" viewBox="0 0 40 40" fill="none" xmlns="http://www.w3.org/2000/svg">
<path d="M10.0809 19.0258C9.63713 18.582 8.92258 18.5712 8.47876 19.015C8.04577 19.448 8.04578 20.1734 8.4896 20.6172C8.93342 21.061 9.64796 21.0718 10.0918 20.628C10.5356 20.1842 10.5248 19.4696 10.0809 19.0258Z" stroke="#0B2343" stroke-width="1.08248" stroke-miterlimit="10" stroke-linecap="round" stroke-linejoin="round"/>
<path d="M30.7345 20.444C16.5973 34.6136 7.14728 24.8171 4.36531 21.4506C3.87819 20.8661 3.87819 20.0217 4.36531 19.4264C7.14728 16.0815 16.5973 6.27429 30.7345 20.444Z" stroke="#0B2343" stroke-width="1.08248" stroke-miterlimit="10" stroke-linecap="round" stroke-linejoin="round"/>
<path d="M29.4248 19.1015C29.4248 19.1015 33.8304 14.804 35.1835 14.62C35.1835 14.62 35.335 18.4736 33.917 20.4437C35.335 22.4139 35.1835 26.2675 35.1835 26.2675C33.8196 26.0835 29.4248 21.786 29.4248 21.786" stroke="#0B2343" stroke-width="1.08248" stroke-miterlimit="10" stroke-linecap="round" stroke-linejoin="round"/>
<path d="M13.6205 13.2886V27.6098" stroke="#0B2343" stroke-width="1.08248" stroke-miterlimit="10" stroke-linecap="round" stroke-linejoin="round"/>
<path d="M16.7922 15.3885C16.7922 15.3885 17.5499 16.2762 16.7922 17.3911" stroke="#0B2343" stroke-width="1.08248" stroke-miterlimit="10" stroke-linecap="round" stroke-linejoin="round"/>
<path d="M16.7922 19.4153C16.7922 19.4153 17.5499 20.303 16.7922 21.418" stroke="#0B2343" stroke-width="1.08248" stroke-miterlimit="10" stroke-linecap="round" stroke-linejoin="round"/>
<path d="M23.222 19.4153C23.222 19.4153 23.9798 20.303 23.222 21.418" stroke="#0B2343" stroke-width="1.08248" stroke-miterlimit="10" stroke-linecap="round" stroke-linejoin="round"/>
<path d="M16.7922 23.4312C16.7922 23.4312 17.5499 24.3188 16.7922 25.4337" stroke="#0B2343" stroke-width="1.08248" stroke-miterlimit="10" stroke-linecap="round" stroke-linejoin="round"/>
<path d="M20.0072 17.4342C20.0072 17.4342 20.7649 18.3218 20.0072 19.4368" stroke="#0B2343" stroke-width="1.08248" stroke-miterlimit="10" stroke-linecap="round" stroke-linejoin="round"/>
<path d="M20.0072 21.4615C20.0072 21.4615 20.7649 22.3493 20.0072 23.4642" stroke="#0B2343" stroke-width="1.08248" stroke-miterlimit="10" stroke-linecap="round" stroke-linejoin="round"/>
</svg>
