<svg width="40" height="40" viewBox="0 0 40 40" fill="none" xmlns="http://www.w3.org/2000/svg">
<path d="M32.258 20.3468C32.258 20.3468 35.932 14.1331 37.5471 13.9358C37.5471 13.9358 37.732 18.1769 36.043 20.3468C37.7197 22.5167 37.5471 26.7577 37.5471 26.7577C35.932 26.5605 32.258 20.3468 32.258 20.3468Z" stroke="#0B2343" stroke-miterlimit="10" stroke-linecap="round" stroke-linejoin="round"/>
<path d="M11.7183 27.6451C7.08262 26.252 3.84007 22.9479 2.3976 21.2095C1.86747 20.5684 1.86747 19.6314 2.3976 18.9903C3.84007 17.252 7.07029 13.9602 11.7183 12.5547H11.7675V27.6451H11.7183V27.6451Z" stroke="#0B2343" stroke-miterlimit="10" stroke-linecap="round" stroke-linejoin="round"/>
<path d="M11.7675 20.3466H32.258" stroke="#0B2343" stroke-miterlimit="10" stroke-linecap="round" stroke-linejoin="round"/>
<path d="M15.4661 12V28.2001" stroke="#0B2343" stroke-miterlimit="10" stroke-linecap="round" stroke-linejoin="round"/>
<path d="M20.3114 12.7766V27.4232" stroke="#0B2343" stroke-miterlimit="10" stroke-linecap="round" stroke-linejoin="round"/>
<path d="M25.3662 14.5027V25.6973" stroke="#0B2343" stroke-miterlimit="10" stroke-linecap="round" stroke-linejoin="round"/>
<path d="M30.2362 16.9193V23.281" stroke="#0B2343" stroke-miterlimit="10" stroke-linecap="round" stroke-linejoin="round"/>
<path d="M7.11966 18.1644L8.9443 19.9768" stroke="#0B2343" stroke-miterlimit="10" stroke-linecap="round" stroke-linejoin="round"/>
<path d="M7.11966 19.9768L8.9443 18.1644" stroke="#0B2343" stroke-miterlimit="10" stroke-linecap="round" stroke-linejoin="round"/>
</svg>
