<svg width="40" height="40" viewBox="0 0 40 40" fill="none" xmlns="http://www.w3.org/2000/svg">
<path d="M34.08 26.1H5.38V11.26C5.38 10.84 5.24 10.56 5.1 10.28C4.82 10.14 4.54 10 4.12 10C3.56 10 3 10.56 3 11.26V30.86C3 30.86 3 30.86 3 31H5.38C5.38 31 5.38 31 5.38 30.86V28.34H34.08V30.72V30.86H36.6V30.72V25.96H34.08V26.1ZM10 22.32C11.68 22.32 13.08 20.78 13.08 18.96C13.08 17.14 11.68 15.74 10 15.74C8.32 15.74 6.92 17.28 6.92 19.1C6.92 20.92 8.32 22.32 10 22.32ZM36.6 18.96C36.6 17.84 35.76 17 34.78 17H16.16C15.18 17 14.34 17.84 14.34 18.96V23.58H36.6V18.96Z" fill="#0B2343"/>
</svg>
