<svg width="13" height="14" viewBox="0 0 13 14" fill="none" xmlns="http://www.w3.org/2000/svg">
<path d="M9.49049 8.11027C10.2433 8.0559 12 8.02245 12 7.04792C12 6.10267 10.3605 6.04828 9.49049 5.98555C5.40418 1.26349 5.32891 1 4.79773 1H4.26654L6.68823 6.10686L3.32966 6.35361L2.01635 4.90229H1L2.34678 6.93499L1.00419 9.16427H2.02053L3.33385 7.71293L6.69242 7.95971L4.27073 13.0917H4.80191C5.32891 13.0958 5.39581 12.8449 9.49049 8.11027Z" fill="#0B2343"/>
<path fill-rule="evenodd" clip-rule="evenodd" d="M4.05526 0.866357C4.10108 0.793915 4.18082 0.75 4.26654 0.75H4.79773C4.87415 0.75 4.95821 0.754569 5.04941 0.779179C5.14173 0.804093 5.22924 0.846155 5.32049 0.907874C5.49403 1.02525 5.69912 1.22709 5.99599 1.55391C6.33102 1.92274 6.80662 2.4781 7.51797 3.30876C8.0631 3.94531 8.74668 4.74353 9.61156 5.74338C9.62823 5.74452 9.64517 5.74567 9.66238 5.74683C10.0801 5.77513 10.6514 5.81384 11.1365 5.94438C11.4111 6.0183 11.6828 6.12756 11.89 6.29968C12.1059 6.47911 12.25 6.72688 12.25 7.04792C12.25 7.38009 12.0951 7.63264 11.8698 7.81268C11.6534 7.98564 11.3711 8.09403 11.0898 8.16629C10.6108 8.28932 10.0609 8.32416 9.68535 8.34795C9.65987 8.34956 9.6352 8.35112 9.6114 8.35266C8.75522 9.34305 8.07674 10.1355 7.53445 10.7689C6.81153 11.6133 6.33062 12.175 5.99333 12.5462C5.69732 12.8718 5.49313 13.0725 5.32037 13.1884C5.22935 13.2495 5.14201 13.2909 5.0498 13.3149C4.95932 13.3385 4.87602 13.3422 4.80092 13.3417C4.80059 13.3417 4.80125 13.3417 4.80092 13.3417H4.27073C4.18509 13.3417 4.10542 13.2978 4.05957 13.2255C4.01373 13.1532 4.00809 13.0624 4.04464 12.985L6.31092 8.18235L6.6741 8.20903L6.69242 7.95971L6.46633 7.85302L6.31092 8.18235L3.4373 7.9712L3.51922 7.88067L3.33385 7.71293L3.31553 7.96225L3.4373 7.9712L2.20591 9.33201C2.15851 9.38439 2.09117 9.41427 2.02053 9.41427H1.00419C0.914045 9.41427 0.830883 9.36574 0.786535 9.28727C0.742187 9.20879 0.743521 9.11251 0.790027 9.03529L2.05111 6.94135L2.13838 7.07307L2.34678 6.93499L2.13262 6.80601L2.05111 6.94135L0.791594 5.04037C0.74074 4.96362 0.73619 4.86513 0.77975 4.78401C0.82331 4.7029 0.907929 4.65229 1 4.65229H2.01635C2.08698 4.65229 2.15432 4.68217 2.20172 4.73455L3.43311 6.09534L3.31134 6.10428L3.32966 6.35361L3.51503 6.18587L3.43311 6.09534L6.30599 5.88426L6.46234 6.21397L6.68823 6.10686L6.66991 5.85753L6.30599 5.88426L4.04065 1.10712C4.00392 1.02967 4.00944 0.9388 4.05526 0.866357ZM4.66178 1.25L6.91412 5.99974C6.94946 6.07425 6.94577 6.1614 6.90427 6.23266C6.86277 6.30393 6.7888 6.35014 6.70655 6.35618L3.34798 6.60294C3.27114 6.60858 3.19599 6.57848 3.14429 6.52135L1.90541 5.15229H1.46553L2.55519 6.7969C2.60849 6.87735 2.61073 6.98129 2.56094 7.06396L1.44659 8.91427H1.9096L3.14848 7.54518C3.20017 7.48805 3.27533 7.45795 3.35217 7.4636L6.71074 7.71038C6.7929 7.71641 6.86681 7.76254 6.90834 7.83369C6.94986 7.90485 6.95367 7.99189 6.91851 8.06639L4.66514 12.8417H4.8039C4.8603 12.8421 4.89403 12.8388 4.92367 12.8311C4.95198 12.8237 4.98832 12.8091 5.04167 12.7733C5.15763 12.6955 5.32489 12.5382 5.62332 12.2099C5.95644 11.8433 6.42955 11.2907 7.14545 10.4545C7.70155 9.8049 8.40414 8.98422 9.3014 7.94673C9.34479 7.89657 9.40633 7.8657 9.47248 7.86092C9.532 7.85662 9.59624 7.85249 9.66417 7.84813C10.0431 7.82379 10.5369 7.79207 10.9654 7.68201C11.2173 7.6173 11.4212 7.53121 11.5577 7.42211C11.6853 7.32009 11.75 7.20302 11.75 7.04792C11.75 6.89634 11.6891 6.78284 11.5705 6.68426C11.443 6.57837 11.2505 6.49288 11.0065 6.4272C10.5727 6.31044 10.0545 6.27495 9.63075 6.24592C9.57632 6.24219 9.52345 6.23857 9.47251 6.2349C9.40637 6.23013 9.34484 6.19928 9.30145 6.14914C8.39545 5.10219 7.68793 4.27597 7.1292 3.62349C6.4248 2.80091 5.95688 2.25448 5.62588 1.8901C5.32675 1.56079 5.15803 1.40162 5.04036 1.32203C4.98601 1.28527 4.94857 1.26985 4.91914 1.26191C4.88859 1.25367 4.8541 1.25 4.79773 1.25H4.66178Z" fill="#0B2343"/>
</svg>
