<svg width="40" height="40" viewBox="0 0 40 40" fill="none" xmlns="http://www.w3.org/2000/svg">
<path d="M24.23 16.6001C19 25.7101 19.59 33.0701 19.59 33.0701C19.59 33.0701 19 25.6501 15.61 20.9301" stroke="#0B2343" stroke-linecap="round" stroke-linejoin="round"/>
<path d="M33.65 11.57C33.65 10.25 32.45 9.24 31.14 9.5C32.34 8.13 31.3599 6 29.5699 6C28.6399 6 27.86 6.61001 27.59 7.45001C26.85 5.18001 23.51 5.73005 23.51 8.11005C23.51 8.64005 23.7099 9.13 24.0399 9.5C22.7299 9.24 21.5299 10.25 21.5299 11.57C21.5299 12.89 22.7299 13.9 24.0399 13.64C23.7199 14.01 23.51 14.49 23.51 15.03C23.51 17.41 26.84 17.96 27.59 15.69C27.87 16.53 28.6399 17.14 29.5699 17.14C31.3599 17.14 32.34 15.02 31.14 13.64C32.45 13.9 33.65 12.89 33.65 11.57Z" stroke="#0B2343" stroke-linecap="round" stroke-linejoin="round"/>
<path d="M18.12 18.87C18.12 17.54 16.91 16.54 15.61 16.8C15.93 16.43 16.14 15.95 16.14 15.41C16.14 13.03 12.8099 12.48 12.0599 14.75C11.7799 13.91 11.01 13.3 10.08 13.3C8.28996 13.3 7.31001 15.42 8.51001 16.8C7.21001 16.54 6 17.54 6 18.87C6 20.19 7.20001 21.2 8.51001 20.94C8.19001 21.31 7.97998 21.79 7.97998 22.33C7.97998 24.71 11.3099 25.26 12.0599 22.99C12.7999 25.26 16.14 24.71 16.14 22.33C16.14 21.8 15.94 21.31 15.61 20.94C16.92 21.2 18.12 20.2 18.12 18.87Z" stroke="#0B2343" stroke-linecap="round" stroke-linejoin="round"/>
<path d="M21.7799 21.8C23.0999 18.59 28.6799 20.99 28.6799 20.99C28.6799 20.99 25.9499 25.69 21.7799 21.8Z" stroke="#0B2343" stroke-miterlimit="10" stroke-linecap="round" stroke-linejoin="round"/>
<path d="M29.3199 11.5699C29.3199 12.5299 28.55 13.3099 27.59 13.3099C26.63 13.3099 25.86 12.5299 25.86 11.5699C25.86 10.6099 26.63 9.82993 27.59 9.82993C28.55 9.81993 29.3199 10.5999 29.3199 11.5699Z" stroke="#0B2343" stroke-linecap="round" stroke-linejoin="round"/>
<path d="M13.7899 18.8701C13.7899 19.8301 13.0199 20.6102 12.0599 20.6102C11.0999 20.6102 10.33 19.8301 10.33 18.8701C10.33 17.9101 11.0999 17.1301 12.0599 17.1301C13.0199 17.1301 13.7899 17.9101 13.7899 18.8701Z" stroke="#0B2343" stroke-linecap="round" stroke-linejoin="round"/>
</svg>
