<svg width="40" height="40" viewBox="0 0 40 40" fill="none" xmlns="http://www.w3.org/2000/svg">
<path d="M24.5362 18.128C27.7403 15.9224 31.4888 13.0905 29.2197 10.8122C26.9687 8.5612 24.1186 12.2281 21.8676 15.4867C22.5846 11.5837 23.2019 7 20.0069 7C16.7938 7 17.4291 11.6654 18.0917 15.3687C15.1871 11.2115 12.8 8.82442 10.8212 10.8122C8.46131 13.1721 12.6457 16.1584 15.5048 18.128C11.6291 17.42 7 16.8391 7 20.025C7 23.3652 12.0829 22.512 15.4867 21.8857C12.2735 24.1004 8.56125 26.9868 10.8123 29.2378C13.1631 31.5887 16.1311 27.4497 18.128 24.5542C17.42 28.43 16.8391 33.0591 20.025 33.0591C23.3561 33.0591 22.5302 27.9671 21.8585 24.4362C24.1821 27.8309 26.9959 31.4889 29.256 29.2378C31.507 26.9868 27.84 24.1367 24.5815 21.8857C28.3665 22.5755 33.0591 23.2563 33.0591 20.025C33.0409 16.8482 28.4392 17.42 24.5362 18.128Z" stroke="#0B2343" stroke-miterlimit="10" stroke-linecap="round" stroke-linejoin="round"/>
<path d="M19.9343 22.721C18.4457 22.721 17.2294 21.5138 17.2294 20.0161C17.2294 18.5275 18.4366 17.3113 19.9343 17.3113C21.4319 17.3113 22.6391 18.5185 22.6391 20.0161C22.6391 21.5047 21.4319 22.721 19.9343 22.721Z" stroke="#0B2343" stroke-miterlimit="10" stroke-linecap="round" stroke-linejoin="round"/>
</svg>
