<svg width="40" height="40" viewBox="0 0 40 40" fill="none" xmlns="http://www.w3.org/2000/svg">
<path d="M33.77 9.92999H13.5C13.5 9.92999 12.34 7 11.69 7H7.18999C6.52999 7 6 7.54 6 8.13V32.72C6 33.44 6.52999 33.98 7.18999 33.98H33.77C34.43 33.98 34.96 33.44 34.96 32.72V11.06C34.97 10.47 34.43 9.92999 33.77 9.92999Z" stroke="#0B2343" stroke-miterlimit="10" stroke-linecap="round" stroke-linejoin="round"/>
<path d="M34.97 15.08H6" stroke="#0B2343" stroke-miterlimit="10" stroke-linecap="round" stroke-linejoin="round"/>
<path d="M19.63 24.98H22.25C22.8 26.44 24.2 27.48 25.85 27.48C27.98 27.48 29.7 25.75 29.7 23.63C29.7 21.5 27.97 19.77 25.85 19.77C24.3 19.77 22.97 20.68 22.36 22H11.29L10.74 23.35L12.37 24.86L14.07 23.87L15.91 25.11L18.15 23.42L19.63 24.98Z" stroke="#0B2343" stroke-miterlimit="10" stroke-linecap="round" stroke-linejoin="round"/>
<path d="M26.59 24.69C26.09 24.69 25.68 24.28 25.68 23.78C25.68 23.28 26.09 22.87 26.59 22.87C27.09 22.87 27.5 23.28 27.5 23.78C27.5 24.29 27.09 24.69 26.59 24.69Z" stroke="#0B2343" stroke-miterlimit="10" stroke-linecap="round" stroke-linejoin="round"/>
</svg>
