<svg width="40" height="40" viewBox="0 0 40 40" fill="none" xmlns="http://www.w3.org/2000/svg">
<path d="M11.73 8.85004C11.42 8.14004 10.95 6.92999 10.58 6.92999H6.95999C6.42999 6.92999 6 7.34998 6 8.22998V26.34C6 26.5 6.42999 26.93 6.95999 26.93H12.95" stroke="#0B2343" stroke-miterlimit="10" stroke-linecap="round" stroke-linejoin="round"/>
<path d="M29.94 14.93V11.12C29.94 10.23 29.51 9.81 28.99 9.81H26.52" stroke="#0B2343" stroke-miterlimit="10" stroke-linecap="round" stroke-linejoin="round"/>
<path d="M29.94 13.82H6" stroke="#0B2343" stroke-miterlimit="10" stroke-linecap="round" stroke-linejoin="round"/>
<path d="M27.21 13.82H8.77002L8.11002 9.58002L25.79 6L27.21 13.82Z" stroke="#0B2343" stroke-miterlimit="10" stroke-linecap="round" stroke-linejoin="round"/>
<path d="M33.9 25.8C33.9 30.75 29.89 34.76 24.94 34.76C19.99 34.76 15.98 30.75 15.98 25.8C15.98 20.85 19.99 16.84 24.94 16.84C29.89 16.84 33.9 20.85 33.9 25.8Z" stroke="#0B2343" stroke-miterlimit="10" stroke-linecap="round" stroke-linejoin="round"/>
<path d="M29.68 25.8H24.94V19.06" stroke="#0B2343" stroke-miterlimit="10" stroke-linecap="round" stroke-linejoin="round"/>
</svg>
