<svg width="40" height="40" viewBox="0 0 40 40" fill="none" xmlns="http://www.w3.org/2000/svg">
<path d="M18.7652 5H18.2174V14.1875C18.2174 14.375 18.0348 14.5625 17.8522 14.5625H16.3913C16.2087 14.5625 16.0261 14.375 16.0261 14.1875V5H14.2V14.1875C14.2 14.375 14.0174 14.5625 13.8348 14.5625H12.3739C12.0087 14.75 11.8261 14.5625 11.8261 14.1875V5H11.2783C10.5478 5.375 10 5.9375 10 6.6875V15.125C10 15.6875 10.1826 16.25 10.5478 16.625C10.5478 16.625 13.1043 18.125 13.287 21.6875V34.0625C13.287 34.625 13.6522 35 14.2 35H15.8435C16.2087 35 16.7565 34.625 16.7565 34.0625V21.6875C16.9391 18.6875 18.9478 17.1875 19.313 16.625C19.8609 16.25 20.0435 15.6875 20.0435 14.9375V6.6875C20.0435 5.9375 19.4957 5.375 18.7652 5ZM31 12.125C31 8.1875 28.9913 5 26.4348 5C23.8783 5 21.8696 8.1875 21.8696 12.125C21.8696 14.375 22.4174 16.25 23.3304 17.5625C23.3304 17.5625 24.7913 19.8125 24.7913 21.6875V34.0625C24.7913 34.625 25.1565 35 25.5217 35H27.1652C27.5304 35 28.0783 34.625 28.0783 34.0625V21.125C28.2609 19.25 29.3565 17.5625 29.3565 17.5625C30.4522 16.25 31 14.375 31 12.125Z" fill="#0B2343"/>
</svg>
