<svg width="40" height="40" viewBox="0 0 40 40" fill="none" xmlns="http://www.w3.org/2000/svg">
<path d="M21.0083 23.9021C21.0083 24.405 20.6021 24.8112 20.0991 24.8112C19.5962 24.8112 19.1901 24.405 19.1901 23.9021C19.1901 23.3992 19.5962 22.9929 20.0991 22.9929C20.6021 22.9929 21.0083 23.4089 21.0083 23.9021Z" stroke="#0B2343" stroke-miterlimit="10" stroke-linecap="round" stroke-linejoin="round"/>
<path d="M20.0992 22.9931V19.1342" stroke="#0B2343" stroke-miterlimit="10" stroke-linecap="round" stroke-linejoin="round"/>
<path d="M26.4438 23.9023C26.4438 27.4034 23.6003 30.2469 20.0991 30.2469C16.598 30.2469 13.7546 27.4034 13.7546 23.9023C13.7546 20.4011 16.598 17.5576 20.0991 17.5576C23.6003 17.5576 26.4438 20.4011 26.4438 23.9023Z" stroke="#0B2343" stroke-miterlimit="10" stroke-linecap="round" stroke-linejoin="round"/>
<path d="M19.7607 14.5981C14.7604 14.7722 10.8724 19.0373 10.8724 24.0375V32.626C10.8724 33.4094 11.5107 34.0478 12.2941 34.0478H27.9042C28.6877 34.0478 29.326 33.4094 29.326 32.626V23.8151C29.326 18.6118 25.0124 14.4143 19.7607 14.5981Z" stroke="#0B2343" stroke-miterlimit="10" stroke-linecap="round" stroke-linejoin="round"/>
<path d="M21.5306 14.6562V12.0835" stroke="#0B2343" stroke-miterlimit="10" stroke-linecap="round" stroke-linejoin="round"/>
<path d="M18.6678 12.0835V14.6562" stroke="#0B2343" stroke-miterlimit="10" stroke-linecap="round" stroke-linejoin="round"/>
<path d="M28.3105 9.86867H11.8687C9.73123 9.86867 8 8.13744 8 6H32.1792C32.1792 8.12777 30.448 9.86867 28.3105 9.86867Z" stroke="#0B2343" stroke-miterlimit="10" stroke-linecap="round" stroke-linejoin="round"/>
</svg>
