<svg width="40" height="40" viewBox="0 0 40 40" fill="none" xmlns="http://www.w3.org/2000/svg">
<path d="M20.05 6C13.85 6 9 13.2099 9 22.4099V23.86C9 23.9 9 23.94 9 23.97C9.04 28.19 10.18 31.0699 12.49 32.7799C15.86 35.2699 24.2 35.2999 27.62 32.7799C29.92 31.0799 31.07 28.2 31.11 23.97C31.11 23.93 31.11 23.9 31.11 23.86C31.11 10.98 25.05 6 20.05 6Z" stroke="#0B2343" stroke-miterlimit="10" stroke-linecap="round" stroke-linejoin="round"/>
<path d="M15.6 18.4199V22.84" stroke="#0B2343" stroke-miterlimit="10" stroke-linecap="round" stroke-linejoin="round"/>
<path d="M19.6 21.77V22.84" stroke="#0B2343" stroke-miterlimit="10" stroke-linecap="round" stroke-linejoin="round"/>
<path d="M11.6 21.77V22.84" stroke="#0B2343" stroke-miterlimit="10" stroke-linecap="round" stroke-linejoin="round"/>
<path d="M23.59 21.77V22.84" stroke="#0B2343" stroke-miterlimit="10" stroke-linecap="round" stroke-linejoin="round"/>
<path d="M27.59 21.77V22.84" stroke="#0B2343" stroke-miterlimit="10" stroke-linecap="round" stroke-linejoin="round"/>
<path d="M14.79 29.1L15.55 27.51C15.57 27.47 15.61 27.4399 15.64 27.4399C15.68 27.4399 15.71 27.47 15.73 27.51L16.49 29.1" stroke="#0B2343" stroke-miterlimit="10" stroke-linecap="round" stroke-linejoin="round"/>
<path d="M9.02002 24.6799H31.09" stroke="#0B2343" stroke-miterlimit="10" stroke-linecap="round" stroke-linejoin="round"/>
</svg>
