<?xml version="1.0" encoding="iso-8859-1"?>
<!-- Generator: Adobe Illustrator 19.1.0, SVG Export Plug-In . SVG Version: 6.00 Build 0)  -->
<svg version="1.1" id="Layer_1" xmlns="http://www.w3.org/2000/svg" xmlns:xlink="http://www.w3.org/1999/xlink" x="0px" y="0px"
	 viewBox="-349 351 100 100" style="enable-background:new -349 351 100 100;" xml:space="preserve">
<title>weather</title>
<path d="M-250,386.92c-3.94,0-6-2.17-7.74-4.09c-1.74-1.92-3.2-3.45-6.26-3.45s-4.55,1.6-6.27,3.45c-1.72,1.85-3.8,4.09-7.74,4.09
	c-3.94,0-6-2.17-7.73-4.09c-1.73-1.92-3.2-3.45-6.27-3.45c-3.07,0-4.55,1.6-6.27,3.45c-1.72,1.85-3.8,4.09-7.73,4.09
	c-3.93,0-6-2.17-7.73-4.09c-1.73-1.92-3.2-3.45-6.27-3.45c-3.07,0-4.55,1.6-6.26,3.45c-1.71,1.85-3.8,4.09-7.73,4.09
	s-6-2.17-7.73-4.09c-1.73-1.92-3.21-3.45-6.27-3.45c-0.552,0-1-0.448-1-1s0.448-1,1-1c3.93,0,6,2.17,7.73,4.09
	c1.73,1.92,3.2,3.45,6.26,3.45s4.55-1.6,6.26-3.45s3.79-4.09,7.73-4.09c3.94,0,6,2.17,7.73,4.09c1.73,1.92,3.2,3.45,6.27,3.45
	c3.07,0,4.55-1.6,6.27-3.45s3.8-4.09,7.73-4.09c3.93,0,6,2.17,7.73,4.09c1.73,1.92,3.2,3.45,6.27,3.45c3.07,0,4.55-1.6,6.27-3.45
	c1.72-1.85,3.8-4.09,7.74-4.09s6,2.17,7.74,4.09c1.74,1.92,3.21,3.45,6.27,3.45c0.551,0.034,0.97,0.511,0.936,1.062
	C-249.096,386.486-249.497,386.887-250,386.92z"/>
<path d="M-250,405.77c-3.94,0-6-2.17-7.74-4.09c-1.74-1.92-3.2-3.45-6.26-3.45s-4.55,1.6-6.27,3.45s-3.8,4.09-7.74,4.09
	c-3.94,0-6-2.17-7.73-4.09c-1.73-1.92-3.2-3.45-6.27-3.45c-3.07,0-4.55,1.6-6.27,3.45s-3.8,4.09-7.73,4.09c-3.93,0-6-2.17-7.73-4.09
	c-1.73-1.92-3.2-3.45-6.27-3.45c-3.07,0-4.55,1.6-6.26,3.45s-3.8,4.09-7.73,4.09s-6-2.17-7.74-4.09c-1.74-1.92-3.2-3.45-6.26-3.45
	c-0.552,0-1-0.448-1-1c0-0.552,0.448-1,1-1c3.93,0,6,2.17,7.73,4.09c1.73,1.92,3.2,3.45,6.26,3.45s4.55-1.6,6.26-3.45
	s3.79-4.09,7.73-4.09c3.94,0,6,2.17,7.73,4.09c1.73,1.92,3.2,3.45,6.27,3.45c3.07,0,4.55-1.6,6.27-3.45s3.8-4.09,7.73-4.09
	c3.93,0,6,2.17,7.73,4.09c1.73,1.92,3.2,3.45,6.27,3.45c3.07,0,4.55-1.6,6.27-3.45c1.72-1.85,3.8-4.09,7.74-4.09s6,2.17,7.74,4.09
	c1.74,1.92,3.21,3.45,6.27,3.45c0.55,0.049,0.956,0.538,0.908,1.088C-249.135,405.341-249.518,405.723-250,405.77z"/>
<path d="M-250,424.62c-3.94,0-6-2.17-7.74-4.09s-3.2-3.45-6.26-3.45s-4.55,1.6-6.27,3.45s-3.8,4.09-7.74,4.09
	c-3.94,0-6-2.17-7.73-4.09c-1.73-1.92-3.2-3.45-6.27-3.45c-3.07,0-4.55,1.6-6.27,3.45s-3.8,4.09-7.73,4.09c-3.93,0-6-2.17-7.73-4.09
	c-1.73-1.92-3.2-3.45-6.27-3.45c-3.07,0-4.55,1.6-6.26,3.45s-3.8,4.09-7.73,4.09s-6-2.17-7.73-4.09c-1.73-1.92-3.21-3.45-6.27-3.45
	c-0.552,0-1-0.448-1-1c0-0.552,0.448-1,1-1c3.93,0,6,2.17,7.73,4.09c1.73,1.92,3.2,3.45,6.26,3.45s4.55-1.6,6.26-3.45
	c1.71-1.85,3.79-4.09,7.73-4.09c3.94,0,6,2.17,7.73,4.09c1.73,1.92,3.2,3.45,6.27,3.45c3.07,0,4.55-1.6,6.27-3.45
	c1.72-1.85,3.8-4.09,7.73-4.09c3.93,0,6,2.17,7.73,4.09c1.73,1.92,3.2,3.45,6.27,3.45c3.07,0,4.55-1.6,6.27-3.45
	c1.72-1.85,3.8-4.09,7.74-4.09s6,2.17,7.74,4.09c1.74,1.92,3.21,3.45,6.27,3.45c0.557,0,1.008,0.443,1.008,1
	C-248.992,424.177-249.443,424.628-250,424.62z"/>
</svg>
