<?xml version="1.0" encoding="iso-8859-1"?>
<!-- Generator: Adobe Illustrator 19.1.0, SVG Export Plug-In . SVG Version: 6.00 Build 0)  -->
<svg version="1.1" id="Layer_1" xmlns="http://www.w3.org/2000/svg" xmlns:xlink="http://www.w3.org/1999/xlink" x="0px" y="0px"
	 viewBox="-349 351 100 100" style="enable-background:new -349 351 100 100;" xml:space="preserve">
<title>weather</title>
<path d="M-299,417.51c-9.168,0-16.6-7.432-16.6-16.6s7.432-16.6,16.6-16.6c9.168,0,16.6,7.432,16.6,16.6l0,0
	C-282.411,410.073-289.837,417.499-299,417.51z M-299,386.29c-8.074-0.017-14.633,6.516-14.65,14.59
	c-0.017,8.074,6.516,14.633,14.59,14.65c8.074,0.017,14.633-6.516,14.65-14.59c0-0.01,0-0.02,0-0.03
	c-0.005-8.062-6.528-14.602-14.59-14.63V386.29z"/>
<path d="M-250,402h-19.26c-0.552,0-1-0.448-1-1s0.448-1,1-1H-250c0.552,0,1,0.448,1,1S-249.448,402-250,402z"/>
<path d="M-328.74,402H-348c-0.552,0-1-0.448-1-1s0.448-1,1-1h19.26c0.552,0,1,0.448,1,1S-328.188,402-328.74,402z"/>
<path d="M-299,372.25c-0.552,0-1-0.448-1-1V352c0-0.552,0.448-1,1-1s1,0.448,1,1v19.26C-298.005,371.808-298.452,372.25-299,372.25z
	"/>
<path d="M-299,451c-0.552,0-1-0.448-1-1v-19.27c0-0.552,0.448-1,1-1s1,0.448,1,1V450C-298,450.552-298.448,451-299,451z"/>
<path d="M-277.34,380.33c-0.552-0.013-0.989-0.471-0.976-1.023c0.006-0.249,0.104-0.487,0.276-0.667l13.62-13.64
	c0.442-0.331,1.069-0.242,1.4,0.2c0.267,0.356,0.267,0.844,0,1.2l-13.62,13.6C-276.82,380.199-277.072,380.318-277.34,380.33z"/>
<path d="M-334.28,437.27c-0.552-0.013-0.989-0.471-0.976-1.023c0.006-0.249,0.104-0.487,0.276-0.667l13.63-13.58
	c0.442-0.331,1.069-0.242,1.4,0.2c0.267,0.356,0.267,0.844,0,1.2l-13.63,13.6C-333.769,437.177-334.02,437.274-334.28,437.27z"/>
<path d="M-263.72,437.27c-0.262-0.001-0.514-0.105-0.7-0.29L-278,423.35c-0.442-0.331-0.531-0.958-0.2-1.4
	c0.331-0.442,0.958-0.531,1.4-0.2c0.076,0.057,0.143,0.124,0.2,0.2l13.6,13.63c0.381,0.4,0.366,1.033-0.034,1.414
	C-263.219,437.17-263.464,437.269-263.72,437.27z"/>
<path d="M-320.65,380.33c-0.262-0.001-0.514-0.105-0.7-0.29L-335,366.42c-0.331-0.442-0.242-1.069,0.2-1.4
	c0.356-0.267,0.844-0.267,1.2,0l13.6,13.62c0.382,0.398,0.37,1.031-0.029,1.414C-320.197,380.216-320.417,380.313-320.65,380.33z"/>
</svg>
