<?xml version="1.0" encoding="iso-8859-1"?>
<!-- Generator: Adobe Illustrator 19.1.0, SVG Export Plug-In . SVG Version: 6.00 Build 0)  -->
<svg version="1.1" id="Layer_1" xmlns="http://www.w3.org/2000/svg" xmlns:xlink="http://www.w3.org/1999/xlink" x="0px" y="0px"
	 viewBox="-349 351 100 100" style="enable-background:new -349 351 100 100;" xml:space="preserve">
<title>weather</title>
<path d="M-294.63,451c-5.171-0.01-10.315-0.73-15.29-2.14c-13.361-3.649-24.629-12.641-31.15-24.86
	c-6.599-12.456-7.859-27.058-3.49-40.46c5.35-16.37,17.37-26.7,37.82-32.54c0.531-0.151,1.084,0.156,1.236,0.687
	c0.083,0.292,0.029,0.605-0.146,0.853c-12.16,17.16-12.81,37.39-1.76,54.16c11.8,17.89,33.41,26.43,55.07,21.76
	c0.536-0.132,1.078,0.195,1.21,0.732c0.077,0.313-0.001,0.643-0.21,0.888C-262.88,443.67-278.35,451-294.63,451z M-308.86,353.76
	c-18.14,5.73-28.91,15.44-33.8,30.4c-4.201,12.885-2.992,26.923,3.35,38.9c6.277,11.726,17.106,20.349,29.94,23.84
	c19.9,5.59,40.09-0.36,54.55-15.94c-21.48,3.52-42.53-5.37-54.26-23.16C-320.1,391.08-320,371.07-308.86,353.76z"/>
</svg>
