<?xml version="1.0" encoding="iso-8859-1"?>
<!-- Generator: Adobe Illustrator 19.1.0, SVG Export Plug-In . SVG Version: 6.00 Build 0)  -->
<svg version="1.1" id="Layer_1" xmlns="http://www.w3.org/2000/svg" xmlns:xlink="http://www.w3.org/1999/xlink" x="0px" y="0px"
	 viewBox="-349 351 100 100" style="enable-background:new -349 351 100 100;" xml:space="preserve">
<title>weather</title>
<path d="M-270,430.91h-58.93c-8.956,0.096-16.871-5.808-19.33-14.42c-1.88-6.56-0.49-15.69,9-21.83c1.83-10.4,8.54-18.65,18-22.12
	c8.994-3.291,19.063-1.484,26.35,4.73c9.05-1,19.54,3,23.3,14c5.881-0.43,11.682,1.568,16.05,5.53
	c4.097,3.622,6.479,8.802,6.56,14.27C-249,421.82-258.64,430.91-270,430.91z M-312.12,372.91c-2.873,0.001-5.723,0.509-8.42,1.5
	c-8.92,3.27-15.2,11.12-16.8,21c-0.046,0.286-0.214,0.537-0.46,0.69c-11.2,7-9.36,16.96-8.53,19.84
	c2.212,7.761,9.341,13.084,17.41,13H-270c10.32,0,19-8.17,19-17.83c-0.082-4.905-2.228-9.548-5.91-12.79
	c-4.169-3.763-9.749-5.561-15.33-4.94c-0.478,0.049-0.923-0.249-1.06-0.71c-2.16-7.15-9.17-14.92-21.82-13.34
	c-0.281,0.037-0.564-0.046-0.78-0.23c-4.507-3.946-10.28-6.142-16.27-6.19H-312.12z"/>
</svg>
