<?xml version="1.0" encoding="iso-8859-1"?>
<!-- Generator: Adobe Illustrator 19.1.0, SVG Export Plug-In . SVG Version: 6.00 Build 0)  -->
<svg version="1.1" id="Layer_1" xmlns="http://www.w3.org/2000/svg" xmlns:xlink="http://www.w3.org/1999/xlink" x="0px" y="0px"
	 viewBox="-349 351 100 100" style="enable-background:new -349 351 100 100;" xml:space="preserve">
<title>weather</title>
<path d="M-281.73,391.16c-0.59-1.517-1.432-2.923-2.49-4.16c0.553-1.314,0.838-2.725,0.84-4.15
	c0.014-5.976-4.818-10.832-10.794-10.846c-4.333-0.01-8.254,2.565-9.966,6.546c-4.05-1.283-8.414-1.167-12.39,0.33
	c-6.445,2.398-11.15,8.014-12.38,14.78c-6.49,4.14-7.51,10.29-6.27,14.73c1.742,6.084,7.363,10.231,13.69,10.1h19.69h-0.16
	c-1.591,0.463-2.505,2.128-2.042,3.719c0.378,1.299,1.579,2.184,2.932,2.161c0.302-0.002,0.602-0.049,0.89-0.14
	c1.582-0.491,2.467-2.172,1.976-3.755c-0.308-0.993-1.109-1.756-2.116-2.015h19.47c8,0,14.83-6.26,14.83-13.67
	c-0.072-3.722-1.705-7.242-4.5-9.7C-273.591,392.351-277.621,390.938-281.73,391.16z M-300.11,421.09
	c0.163,0.528-0.133,1.088-0.66,1.251c-0.528,0.163-1.088-0.133-1.251-0.66c-0.163-0.528,0.133-1.088,0.66-1.251
	c0.253-0.078,0.526-0.053,0.761,0.07C-300.365,420.624-300.188,420.836-300.11,421.09z M-294.21,374
	c4.86-0.014,8.812,3.914,8.826,8.774c0.003,0.894-0.131,1.783-0.396,2.636c-3.366-2.848-7.779-4.141-12.15-3.56
	c-1.325-1.052-2.781-1.93-4.33-2.61C-300.853,376.052-297.695,373.997-294.21,374z M-280.85,416.48h-40.64
	c-5.426,0.113-10.252-3.43-11.77-8.64c-1.38-4.94,0.78-9.7,5.77-12.72c0.255-0.144,0.434-0.393,0.49-0.68
	c0.97-6.258,5.24-11.507,11.17-13.73c1.919-0.719,3.951-1.088,6-1.09c1.991,0.006,3.965,0.365,5.83,1.06h0.09l0,0
	c1.814,0.682,3.504,1.658,5,2.89c0.212,0.175,0.487,0.254,0.76,0.22c8.54-1,13.28,4,14.73,8.67c0.136,0.433,0.546,0.721,1,0.7
	c3.81-0.393,7.609,0.833,10.47,3.38c2.43,2.072,3.866,5.078,3.95,8.27C-268,411.14-273.89,416.48-280.85,416.48z"/>
<path d="M-263.35,381.37h-12.12c-0.552,0-1,0.448-1,1c0,0.552,0.448,1,1,1h12.12c0.552,0,1-0.448,1-1
	C-262.35,381.818-262.798,381.37-263.35,381.37z"/>
<path d="M-294.63,365.14c0.552,0,1-0.448,1-1V352c0-0.552-0.448-1-1-1s-1,0.448-1,1v12.14
	C-295.63,364.692-295.182,365.14-294.63,365.14z"/>
<path d="M-280.56,370.22c0.266,0.002,0.521-0.103,0.71-0.29l8.57-8.58c0.419-0.359,0.468-0.991,0.109-1.41
	c-0.359-0.419-0.991-0.468-1.41-0.109c-0.039,0.034-0.076,0.07-0.109,0.109l-8.57,8.58c-0.387,0.394-0.38,1.027,0.014,1.414
	C-281.063,370.114-280.817,370.216-280.56,370.22z"/>
<path d="M-308.52,369.93c0.389,0.392,1.023,0.394,1.415,0.005c0.392-0.389,0.394-1.023,0.005-1.415l-8.58-8.58
	c-0.389-0.392-1.023-0.394-1.415-0.005c-0.392,0.389-0.394,1.023-0.005,1.415L-308.52,369.93z"/>
<path d="M-322.87,438.47c-1.468-0.769-3.281-0.202-4.049,1.266s-0.202,3.281,1.266,4.049c1.464,0.767,3.272,0.206,4.044-1.255
	c0.775-1.465,0.215-3.28-1.25-4.054C-322.863,438.474-322.866,438.472-322.87,438.47z M-323.38,441.6
	c-0.259,0.488-0.864,0.674-1.352,0.415c-0.488-0.259-0.674-0.864-0.415-1.352c0.259-0.488,0.864-0.674,1.352-0.415
	c0.232,0.123,0.406,0.332,0.485,0.582C-323.229,441.086-323.254,441.363-323.38,441.6z"/>
<path d="M-316.94,433.66c0.775-1.465,0.215-3.28-1.249-4.054c-0.004-0.002-0.007-0.004-0.011-0.006l0,0
	c-1.469-0.766-3.281-0.196-4.047,1.273c-0.766,1.469-0.196,3.281,1.273,4.047c0.424,0.221,0.896,0.338,1.374,0.34
	c0.302-0.002,0.602-0.049,0.89-0.14C-317.95,434.887-317.313,434.362-316.94,433.66z M-318.71,432.73
	c-0.124,0.235-0.336,0.412-0.59,0.49c-0.256,0.081-0.533,0.056-0.77-0.07c-0.492-0.26-0.68-0.868-0.42-1.36
	c0.26-0.492,0.868-0.68,1.36-0.42l0,0l0,0c0.49,0.255,0.681,0.858,0.426,1.349C-318.706,432.722-318.708,432.726-318.71,432.73z"/>
<path d="M-316.33,426.05c1.467,0.771,3.28,0.207,4.051-1.259s0.207-3.28-1.259-4.051c-1.466-0.771-3.28-0.207-4.051,1.259
	c0,0-0.001,0.001-0.001,0.001C-318.36,423.466-317.796,425.279-316.33,426.05z M-315.82,422.92c0.124-0.235,0.336-0.412,0.59-0.49
	c0.099-0.015,0.201-0.015,0.3,0c0.552,0.016,0.986,0.477,0.97,1.029c-0.016,0.552-0.477,0.986-1.029,0.97
	c-0.552-0.016-0.986-0.477-0.97-1.029C-315.954,423.231-315.906,423.066-315.82,422.92z"/>
<path d="M-297,438.47c-1.466-0.771-3.28-0.208-4.052,1.259c-0.771,1.466-0.208,3.28,1.259,4.052c1.466,0.771,3.28,0.208,4.052-1.259
	c0.37-0.703,0.446-1.523,0.211-2.282C-295.765,439.478-296.294,438.841-297,438.47z M-297.51,441.6
	c-0.259,0.488-0.864,0.674-1.352,0.415c-0.488-0.259-0.674-0.864-0.415-1.352c0.259-0.488,0.864-0.674,1.352-0.415
	c0.232,0.123,0.406,0.332,0.485,0.582C-297.359,441.086-297.384,441.363-297.51,441.6z"/>
<path d="M-292.33,429.6c-1.469-0.766-3.281-0.196-4.047,1.273s-0.196,3.281,1.273,4.047c0.424,0.221,0.896,0.338,1.374,0.34
	c0.302-0.002,0.602-0.049,0.89-0.14c1.583-0.49,2.468-2.171,1.978-3.753C-291.098,430.606-291.626,429.971-292.33,429.6z
	 M-292.84,432.73c-0.251,0.492-0.853,0.688-1.345,0.437c-0.492-0.251-0.688-0.853-0.437-1.345c0.251-0.492,0.853-0.688,1.345-0.437
	c0.247,0.126,0.431,0.348,0.507,0.615C-292.7,432.243-292.725,432.504-292.84,432.73z"/>
<path d="M-287.66,420.73c-1.469-0.766-3.281-0.196-4.047,1.273s-0.196,3.281,1.273,4.047c0.424,0.221,0.896,0.338,1.374,0.34
	c0.302-0.002,0.602-0.049,0.89-0.14c1.583-0.49,2.468-2.171,1.978-3.753C-286.428,421.736-286.956,421.101-287.66,420.73z
	 M-288.17,423.86c-0.255,0.49-0.858,0.681-1.349,0.426c-0.004-0.002-0.008-0.004-0.012-0.006c-0.492-0.26-0.68-0.868-0.42-1.36
	c0.26-0.492,0.868-0.68,1.36-0.42c0.49,0.255,0.681,0.858,0.426,1.349C-288.166,423.852-288.168,423.856-288.17,423.86z"/>
<path d="M-313.69,445.34c-1.468-0.769-3.281-0.202-4.049,1.266c-0.769,1.468-0.202,3.281,1.266,4.049
	c1.464,0.767,3.272,0.206,4.044-1.255c0.775-1.465,0.215-3.28-1.25-4.054C-313.683,445.344-313.686,445.342-313.69,445.34z
	 M-314.2,448.46c-0.259,0.488-0.864,0.674-1.352,0.415c-0.488-0.259-0.674-0.864-0.415-1.352c0.259-0.488,0.864-0.674,1.352-0.415
	c0.232,0.123,0.406,0.332,0.485,0.582C-314.049,447.946-314.074,448.223-314.2,448.46z"/>
<path d="M-309,436.47c-1.466-0.771-3.28-0.208-4.052,1.259c-0.771,1.466-0.208,3.28,1.259,4.052c1.466,0.771,3.28,0.208,4.052-1.259
	c0.37-0.703,0.446-1.523,0.211-2.282C-307.765,437.478-308.294,436.841-309,436.47z M-309.51,439.6
	c-0.261,0.487-0.867,0.67-1.354,0.408c-0.487-0.261-0.67-0.867-0.409-1.354c0.259-0.482,0.857-0.667,1.342-0.415l0,0
	c0.481,0.264,0.66,0.866,0.4,1.35L-309.51,439.6z"/>
<path d="M-304.34,427.6c-1.468-0.769-3.281-0.202-4.049,1.266c-0.769,1.468-0.202,3.281,1.266,4.049
	c1.464,0.767,3.272,0.206,4.044-1.255c0.775-1.465,0.215-3.28-1.249-4.054C-304.333,427.604-304.336,427.602-304.34,427.6z
	 M-304.85,430.73c-0.251,0.492-0.853,0.688-1.345,0.437c-0.492-0.251-0.688-0.853-0.437-1.345c0.251-0.492,0.853-0.688,1.345-0.437
	c0.247,0.126,0.431,0.348,0.507,0.615c0.067,0.245,0.038,0.506-0.08,0.73L-304.85,430.73z"/>
</svg>
