<?xml version="1.0" encoding="iso-8859-1"?>
<!-- Generator: Adobe Illustrator 19.1.0, SVG Export Plug-In . SVG Version: 6.00 Build 0)  -->
<svg version="1.1" id="Layer_1" xmlns="http://www.w3.org/2000/svg" xmlns:xlink="http://www.w3.org/1999/xlink" x="0px" y="0px"
	 viewBox="-349 351 100 100" style="enable-background:new -349 351 100 100;" xml:space="preserve">
<title>weather</title>
<path d="M-348.13,394.68h60.46c6.263,0.006,11.344-5.067,11.35-11.33s-5.067-11.344-11.33-11.35s-11.344,5.067-11.35,11.33
	c0,0.003,0,0.007,0,0.01c0,0.552,0.448,1,1,1s1-0.448,1-1c0.028-5.131,4.209-9.267,9.34-9.24s9.267,4.209,9.24,9.34
	c-0.027,5.111-4.179,9.24-9.29,9.24h-60.42c-0.552,0-1,0.448-1,1C-349.13,394.232-348.682,394.68-348.13,394.68z"/>
<path d="M-249.13,391.63c0-6.235-5.055-11.29-11.29-11.29c-6.235,0-11.29,5.055-11.29,11.29c0,0.552,0.448,1,1,1s1-0.448,1-1
	c0.044-5.131,4.239-9.254,9.37-9.21c5.131,0.044,9.254,4.239,9.21,9.37c-0.044,5.099-4.19,9.21-9.289,9.21h-87.71
	c-0.552,0-1,0.448-1,1s0.448,1,1,1h87.71C-254.163,402.978-249.108,397.887-249.13,391.63
	C-249.13,391.63-249.13,391.63-249.13,391.63z"/>
<path d="M-275.29,409.32h-72.84c-0.552,0-1,0.448-1,1c0,0.552,0.448,1,1,1h72.84c5.158-0.028,9.362,4.132,9.39,9.29
	c0.028,5.158-4.132,9.362-9.29,9.39s-9.362-4.132-9.39-9.29c0-0.017,0-0.033,0-0.05c0-0.552-0.448-1-1-1c-0.552,0-1,0.448-1,1
	c0.028,6.235,5.105,11.267,11.34,11.24c6.235-0.028,11.268-5.105,11.24-11.34C-264.028,414.344-269.074,409.32-275.29,409.32z"/>
</svg>
