<?xml version="1.0" encoding="iso-8859-1"?>
<!-- Generator: Adobe Illustrator 19.1.0, SVG Export Plug-In . SVG Version: 6.00 Build 0)  -->
<svg version="1.1" id="Layer_1" xmlns="http://www.w3.org/2000/svg" xmlns:xlink="http://www.w3.org/1999/xlink" x="0px" y="0px"
	 viewBox="-349 351 100 100" style="enable-background:new -349 351 100 100;" xml:space="preserve">
<title>weather</title>
<path d="M-275.52,410.2c-0.787-2.274-1.998-4.378-3.57-6.2c0.781-1.799,1.186-3.739,1.19-5.7
	c-0.001-8.008-6.494-14.499-14.502-14.498c-5.906,0.001-11.221,3.584-13.438,9.058c-5.574-1.852-11.614-1.732-17.11,0.34
	c-8.812,3.282-15.215,11.002-16.81,20.27c-5.88,3.73-11.12,10.83-8.59,19.91c2.346,8.205,9.928,13.799,18.46,13.62H-274
	c10.85,0,20-8.43,20-18.41c-0.112-4.99-2.31-9.705-6.06-13C-264.272,411.776-269.85,409.831-275.52,410.2z M-292.4,385.81
	c6.915,0.014,12.508,5.631,12.494,12.546c-0.003,1.401-0.241,2.792-0.704,4.114c-4.67-4.23-11.16-5.73-17-5.12
	c-1.944-1.549-4.095-2.818-6.39-3.77C-302.084,388.863-297.491,385.787-292.4,385.81z M-274,445h-55.89
	c-7.633,0.174-14.423-4.821-16.53-12.16c-1.94-7,1.08-13.66,8.09-17.9c0.25-0.15,0.421-0.402,0.47-0.69
	c1.357-8.739,7.326-16.065,15.61-19.16c2.677-1.003,5.512-1.518,8.37-1.52c2.8,0.002,5.576,0.503,8.2,1.48
	c0.038,0.026,0.078,0.05,0.12,0.07h0.06c2.509,0.947,4.847,2.298,6.92,4c0.212,0.175,0.487,0.254,0.76,0.22
	c12-1.45,18.6,5.65,20.64,12.17c0.136,0.433,0.546,0.721,1,0.7c5.369-0.554,10.722,1.185,14.74,4.79
	c3.358,2.921,5.333,7.12,5.44,11.57C-256,437.47-264.29,445-274,445z"/>
<path d="M-250,396.73h-16.66c-0.552,0-1,0.448-1,1c0,0.552,0.448,1,1,1H-250c0.552,0,1-0.448,1-1
	C-249,397.178-249.448,396.73-250,396.73z"/>
<path d="M-293,373.67c0.552,0,1-0.448,1-1V356c0-0.552-0.448-1-1-1s-1,0.448-1,1v16.67C-294,373.222-293.552,373.67-293,373.67z"/>
<path d="M-273.65,380.67c0.266,0.002,0.521-0.103,0.71-0.29l11.78-11.8c0.419-0.359,0.468-0.991,0.109-1.41
	c-0.359-0.419-0.991-0.468-1.41-0.109c-0.039,0.033-0.076,0.07-0.109,0.109L-274.36,379c-0.37,0.41-0.338,1.042,0.071,1.412
	C-274.113,380.571-273.887,380.662-273.65,380.67z"/>
<path d="M-311.8,380.37c0.306,0.46,0.926,0.585,1.386,0.28c0.46-0.306,0.585-0.926,0.28-1.386c-0.068-0.103-0.155-0.192-0.256-0.264
	l-11.78-11.83c-0.359-0.419-0.991-0.468-1.41-0.109c-0.419,0.359-0.468,0.991-0.109,1.41c0.034,0.039,0.07,0.076,0.109,0.109
	L-311.8,380.37z"/>
</svg>
