<?xml version="1.0" encoding="iso-8859-1"?>
<!-- Generator: Adobe Illustrator 19.1.0, SVG Export Plug-In . SVG Version: 6.00 Build 0)  -->
<svg version="1.1" id="Layer_1" xmlns="http://www.w3.org/2000/svg" xmlns:xlink="http://www.w3.org/1999/xlink" x="0px" y="0px"
	 viewBox="-349 351 100 100" style="enable-background:new -349 351 100 100;" xml:space="preserve">
<title>weather</title>
<path d="M-264.31,406c6.04-1.904,11.327-5.661,15.11-10.74c0.331-0.442,0.242-1.069-0.2-1.4c-0.252-0.189-0.578-0.248-0.88-0.16
	c-11,3.18-22.77-0.45-29.29-9c-5.55-7.34-5.87-16.55-0.86-24.7c0.293-0.468,0.151-1.085-0.317-1.378
	c-0.261-0.163-0.583-0.197-0.873-0.092c-10.32,3.68-16.06,9.26-18.07,17.56c-1.04,4.293-0.884,8.789,0.45,13
	c-7.33-3.92-16.046-4.288-23.68-1c-8.565,3.667-14.715,11.391-16.37,20.56c-6.16,3.86-11.71,11.21-9.07,20.62
	c2.36,8.38,10.3,14.23,19.36,14.23h58.86c11.39,0,21-8.77,21-19.14C-249.12,415.87-255.65,408.45-264.31,406z M-297.75,376.58
	c1.67-6.88,6.23-11.75,14.26-15.16c-4.051,7.912-3.142,17.455,2.33,24.46c6.43,8.47,17.59,12.46,28.49,10.43
	c-4.556,5.025-10.804,8.194-17.55,8.9c-0.5,0-1,0-1.5,0c-3.4-9.47-12.28-13.46-20.6-13.46c-0.892,0.001-1.783,0.048-2.67,0.14
	c-0.46-0.36-1-0.72-1.53-1.12C-298.47,386.302-298.902,381.317-297.75,376.58z M-270.14,441.5H-329c-8.21,0-15.4-5.25-17.48-12.76
	c-2-7.24,1.2-14.2,8.56-18.61c0.25-0.15,0.421-0.402,0.47-0.69c1.421-8.68,7.176-16.034,15.26-19.5
	c7.952-3.423,17.101-2.548,24.26,2.32l0,0c0.77,0.52,1.39,1,2,1.44c0.21,0.172,0.48,0.251,0.75,0.22c8.51-1,18.57,2.51,21.8,12.71
	c0.136,0.433,0.546,0.721,1,0.7h0.09c0.71-0.07,1.43-0.1,2.15-0.1c10.33,0,19.06,7.89,19.06,17.13
	C-251.08,433.6-259.83,441.5-270.14,441.5z"/>
</svg>
