<?xml version="1.0" encoding="iso-8859-1"?>
<!-- Generator: Adobe Illustrator 19.1.0, SVG Export Plug-In . SVG Version: 6.00 Build 0)  -->
<svg version="1.1" id="Layer_1" xmlns="http://www.w3.org/2000/svg" xmlns:xlink="http://www.w3.org/1999/xlink" x="0px" y="0px"
	 viewBox="-349 351 100 100" style="enable-background:new -349 351 100 100;" xml:space="preserve">
<title>weather</title>
<path d="M-254.26,408.17l-20.8,5.59L-297.1,401l22-12.77l20.8,5.59c0.528,0.162,1.087-0.135,1.249-0.663
	c0.162-0.528-0.135-1.087-0.663-1.249c-0.022-0.007-0.044-0.013-0.066-0.018l-18.84-5.07l16.32-9.45
	c0.489-0.256,0.679-0.86,0.423-1.35c-0.256-0.489-0.86-0.679-1.35-0.423c-0.025,0.013-0.049,0.027-0.073,0.042l-16.31,9.44
	l5.06-18.94c0.162-0.528-0.135-1.087-0.663-1.249c-0.528-0.162-1.087,0.135-1.249,0.663c-0.007,0.022-0.013,0.044-0.018,0.066
	l-5.58,20.88l-22,12.77v-25.33l15.2-15.28c0.389-0.392,0.387-1.026-0.005-1.415c-0.392-0.389-1.026-0.387-1.415,0.005l-13.81,13.86
	V352c0-0.552-0.448-1-1-1s-1,0.448-1,1v19.11l-13.81-13.86c-0.389-0.392-1.023-0.394-1.415-0.005
	c-0.392,0.389-0.394,1.023-0.005,1.415l15.23,15.28v25.33l-21.85-12.66l-5.57-20.88c-0.125-0.538-0.663-0.872-1.201-0.747
	c-0.538,0.125-0.872,0.663-0.747,1.201c0.005,0.022,0.011,0.044,0.018,0.066l5.06,18.94l-16.5-9.55
	c-0.466-0.296-1.084-0.159-1.38,0.307c-0.296,0.466-0.159,1.084,0.307,1.38c0.024,0.015,0.048,0.029,0.073,0.042l16.5,9.56
	l-18.88,5.07c-0.552,0.072-0.942,0.578-0.87,1.13c0.072,0.552,0.578,0.942,1.13,0.87c0.086,0.011,0.174,0.011,0.26,0l20.8-5.59
	l21.86,12.59l-21.86,12.66l-20.8-5.59c-0.528-0.162-1.087,0.135-1.249,0.663c-0.162,0.528,0.135,1.087,0.663,1.249
	c0.022,0.007,0.044,0.013,0.066,0.018l18.88,5.08l-16.5,9.56c-0.489,0.256-0.679,0.86-0.423,1.35c0.256,0.489,0.86,0.679,1.35,0.423
	c0.025-0.013,0.049-0.027,0.073-0.042l16.49-9.55l-5.06,18.93c-0.162,0.528,0.135,1.087,0.663,1.249
	c0.528,0.162,1.087-0.135,1.249-0.663c0.007-0.022,0.013-0.044,0.018-0.066l5.58-20.87l21.85-12.66v25.53l-15.23,15.28
	c-0.4,0.392-0.407,1.035-0.015,1.435c0.392,0.4,1.035,0.407,1.435,0.015l0,0l13.81-13.9V450c0,0.552,0.448,1,1,1s1-0.448,1-1v-18.9
	l13.81,13.9c0.389,0.392,1.023,0.394,1.415,0.005c0.392-0.389,0.394-1.023,0.005-1.415l-15.23-15.32v-25.53l22,12.76l5.57,20.87
	c0.125,0.538,0.663,0.872,1.201,0.747s0.872-0.663,0.747-1.201c-0.005-0.022-0.011-0.044-0.018-0.066l-5.02-18.93l16.31,9.45
	c0.466,0.296,1.084,0.159,1.38-0.307s0.159-1.084-0.307-1.38c-0.024-0.015-0.048-0.029-0.073-0.042l-16.32-9.46l18.88-5.08
	c0.538-0.125,0.872-0.663,0.747-1.201c-0.125-0.538-0.663-0.872-1.201-0.747C-254.216,408.157-254.238,408.163-254.26,408.17z"/>
</svg>
