<?xml version="1.0" encoding="iso-8859-1"?>
<!-- Generator: Adobe Illustrator 19.1.0, SVG Export Plug-In . SVG Version: 6.00 Build 0)  -->
<svg version="1.1" id="Layer_1" xmlns="http://www.w3.org/2000/svg" xmlns:xlink="http://www.w3.org/1999/xlink" x="0px" y="0px"
	 viewBox="-349 351 100 100" style="enable-background:new -349 351 100 100;" xml:space="preserve">
<title>weather</title>
<path d="M-280.95,393.56c-0.639-1.728-1.584-3.327-2.79-4.72c0.727-1.51,1.103-3.164,1.1-4.84
	c0.002-6.191-5.015-11.212-11.206-11.214c-4.678-0.002-8.865,2.902-10.504,7.284c-4.059-1.268-8.424-1.152-12.41,0.33
	c-6.794,2.536-11.716,8.507-12.91,15.66c-6.75,4.4-7.77,10.9-6.44,15.58c1.799,6.273,7.585,10.558,14.11,10.45h6.84l-0.69,1.23
	c-0.276,0.483-0.108,1.099,0.375,1.375c0.483,0.276,1.099,0.108,1.375-0.375l1.25-2.21h11.21l-0.71,1.24
	c-0.276,0.48-0.11,1.094,0.37,1.37c0.48,0.276,1.094,0.111,1.37-0.37l1.28-2.24h11.12l-0.71,1.24c-0.276,0.48-0.111,1.094,0.37,1.37
	c0.48,0.276,1.094,0.111,1.37-0.37l1.28-2.24h5.9c8.29,0,15.3-6.54,15.3-14.28c-0.063-3.917-1.773-7.627-4.71-10.22
	C-272.565,394.778-276.718,393.321-280.95,393.56z M-293.86,374.79c5.075-0.011,9.199,4.094,9.211,9.169
	c0.003,1.142-0.208,2.275-0.621,3.341c-3.433-2.911-7.939-4.23-12.4-3.63c-1.458-1.184-3.074-2.16-4.8-2.9
	C-301.132,377.173-297.698,374.788-293.86,374.79z M-280,420.09h-42c-5.62,0.089-10.603-3.599-12.16-9
	c-1.5-5.26,0.73-10.34,5.95-13.57c0.246-0.153,0.414-0.404,0.46-0.69c0.956-6.618,5.44-12.19,11.7-14.54
	c1.921-0.712,3.952-1.077,6-1.08c4.196,0.02,8.248,1.534,11.43,4.27c0.213,0.181,0.492,0.264,0.77,0.23
	c8.85-1.1,13.73,4.29,15.24,9.2c0.137,0.461,0.582,0.759,1.06,0.71c3.923-0.44,7.846,0.819,10.78,3.46
	c2.517,2.212,3.987,5.38,4.05,8.73C-266.73,414.47-272.82,420.09-280,420.09z"/>
<path d="M-318.16,429.4c-0.479-0.274-1.09-0.108-1.365,0.371c-0.002,0.003-0.004,0.006-0.005,0.009l-2.11,3.75
	c-0.276,0.483-0.108,1.099,0.375,1.375c0.483,0.276,1.099,0.108,1.375-0.375l2.11-3.75c0.279-0.477,0.118-1.089-0.359-1.368
	C-318.146,429.408-318.153,429.404-318.16,429.4z"/>
<path d="M-324.23,440.18c-0.479-0.274-1.09-0.109-1.365,0.371c-0.002,0.003-0.004,0.006-0.005,0.009l-1.4,2.54
	c-0.276,0.483-0.108,1.099,0.375,1.375s1.099,0.108,1.375-0.375l1.43-2.54c0.272-0.481,0.103-1.091-0.378-1.363
	C-324.209,440.191-324.219,440.186-324.23,440.18z"/>
<path d="M-306.06,431.82c-0.478-0.277-1.09-0.114-1.367,0.364c-0.001,0.002-0.002,0.004-0.003,0.006l-3,5.17
	c-0.276,0.48-0.111,1.094,0.37,1.37c0.48,0.276,1.094,0.11,1.37-0.37l3-5.17c0.277-0.478,0.114-1.09-0.364-1.367
	C-306.056,431.822-306.058,431.821-306.06,431.82z"/>
<path d="M-314.53,446.59c-0.483-0.268-1.092-0.093-1.359,0.39c-0.004,0.007-0.007,0.013-0.011,0.02l-1.46,2.5
	c-0.276,0.48-0.111,1.094,0.37,1.37c0.48,0.276,1.094,0.111,1.37-0.37l1.46-2.5c0.293-0.468,0.152-1.085-0.316-1.378
	C-314.494,446.61-314.512,446.6-314.53,446.59z"/>
<path d="M-291.25,429.42c-0.478-0.277-1.09-0.114-1.367,0.364c-0.001,0.002-0.002,0.004-0.003,0.006l-2.14,3.73
	c-0.276,0.48-0.11,1.094,0.37,1.37c0.48,0.276,1.094,0.11,1.37-0.37l0,0l2.14-3.73c0.277-0.478,0.114-1.09-0.364-1.367
	C-291.246,429.422-291.248,429.421-291.25,429.42z"/>
<path d="M-297.44,440.19c-0.478-0.277-1.09-0.114-1.367,0.364c-0.001,0.002-0.002,0.004-0.003,0.006l-1.45,2.53
	c-0.276,0.48-0.11,1.094,0.37,1.37c0.48,0.276,1.094,0.11,1.37-0.37l1.45-2.53c0.277-0.478,0.114-1.09-0.364-1.367
	C-297.436,440.192-297.438,440.191-297.44,440.19z"/>
<path d="M-261.78,382.55h-12.61c-0.552,0-1,0.448-1,1c0,0.552,0.448,1,1,1h12.61c0.552,0,1-0.448,1-1
	C-260.78,382.998-261.228,382.55-261.78,382.55z"/>
<path d="M-294.29,365.61c0.552,0,1-0.448,1-1V352c0-0.552-0.448-1-1-1s-1,0.448-1,1v12.61
	C-295.29,365.162-294.842,365.61-294.29,365.61z"/>
<path d="M-279.67,370.9c0.252-0.009,0.491-0.112,0.67-0.29l9-8.92c0.392-0.392,0.392-1.028,0-1.42s-1.028-0.392-1.42,0l0,0
	l-8.91,8.91c-0.398,0.383-0.41,1.016-0.027,1.414C-280.177,370.782-279.93,370.891-279.67,370.9z"/>
<path d="M-308.71,370.61c0.392,0.392,1.028,0.392,1.42,0c0.392-0.392,0.392-1.028,0-1.42l0,0l-8.91-8.92
	c-0.392-0.392-1.028-0.392-1.42,0s-0.392,1.028,0,1.42L-308.71,370.61z"/>
</svg>
