<?xml version="1.0" encoding="iso-8859-1"?>
<!-- Generator: Adobe Illustrator 19.1.0, SVG Export Plug-In . SVG Version: 6.00 Build 0)  -->
<svg version="1.1" id="Layer_1" xmlns="http://www.w3.org/2000/svg" xmlns:xlink="http://www.w3.org/1999/xlink" x="0px" y="0px"
	 viewBox="-349 351 100 100" style="enable-background:new -349 351 100 100;" xml:space="preserve">
<title>weather</title>
<path d="M-272.41,405.8h-54.07c-8.262,0.122-15.581-5.308-17.86-13.25c-1.7-6-0.4-14.27,8.27-19.86
	c1.481-9.177,7.772-16.855,16.48-20.11c8.294-3.06,17.592-1.437,24.36,4.25c8.32-0.83,17.95,2.73,21.43,12.76
	c5.421-0.381,10.764,1.46,14.8,5.1c3.743,3.294,5.921,8.015,6,13C-253,397.5-261.89,405.8-272.41,405.8z M-311.09,353.06
	c-2.666,0.002-5.31,0.476-7.81,1.4c-8.176,3.072-14.029,10.355-15.27,19c-0.046,0.286-0.214,0.537-0.46,0.69
	c-6.85,4.25-9.76,10.92-7.78,17.85c2.042,7.075,8.567,11.908,15.93,11.8h54.07c9.41,0,17.41-7.38,17.41-16.13
	c-0.08-4.412-2.015-8.587-5.33-11.5c-3.832-3.45-8.955-5.098-14.08-4.53c-0.472,0.045-0.91-0.247-1.05-0.7
	c-2-6.47-8.39-13.51-20-12.07c-0.278,0.034-0.557-0.049-0.77-0.23C-300.364,355.076-305.631,353.098-311.09,353.06z"/>
<path d="M-331.88,441.62c-2.077-0.001-3.759-1.686-3.758-3.762c0.001-2.077,1.686-3.759,3.762-3.758s3.759,1.686,3.758,3.762
	c-0.001,1.645-1.071,3.099-2.642,3.588C-331.123,441.563-331.5,441.621-331.88,441.62z M-331.88,436.11
	c-0.176,0.001-0.352,0.028-0.52,0.08c-0.922,0.289-1.436,1.271-1.147,2.193s1.271,1.436,2.193,1.147s1.436-1.271,1.147-2.193
	c-0.228-0.728-0.901-1.224-1.663-1.227H-331.88z"/>
<path d="M-325.46,429.43c-2.077,0.003-3.762-1.678-3.765-3.755s1.678-3.762,3.755-3.765c0.617-0.001,1.225,0.15,1.77,0.44l0,0
	c1.834,0.975,2.53,3.251,1.555,5.085C-322.797,428.661-324.071,429.428-325.46,429.43z M-325.46,423.92
	c-0.972-0.003-1.762,0.783-1.765,1.755c-0.003,0.972,0.783,1.762,1.755,1.765c0.972,0.003,1.762-0.783,1.765-1.755
	c0.002-0.657-0.363-1.261-0.945-1.565c-0.247-0.13-0.521-0.198-0.8-0.2H-325.46z"/>
<path d="M-319,417.24c-2.077,0.008-3.767-1.668-3.775-3.745s1.668-3.767,3.745-3.775c0.621-0.002,1.232,0.149,1.78,0.44l0,0
	c1.834,0.975,2.53,3.251,1.555,5.085C-316.345,416.468-317.615,417.234-319,417.24z M-319,411.73
	c-0.972-0.003-1.762,0.783-1.765,1.755c-0.003,0.972,0.783,1.762,1.755,1.765c0.972,0.003,1.762-0.783,1.765-1.755
	c0.002-0.657-0.363-1.261-0.945-1.565l0,0C-318.44,411.799-318.718,411.73-319,411.73z"/>
<path d="M-296.33,441.62c-2.077-0.004-3.757-1.691-3.753-3.767s1.691-3.757,3.767-3.753s3.757,1.691,3.753,3.767
	c-0.001,0.611-0.151,1.213-0.437,1.753C-293.648,440.858-294.933,441.63-296.33,441.62z M-296.33,436.11
	c-0.176,0.001-0.352,0.028-0.52,0.08c-0.922,0.289-1.436,1.271-1.147,2.193s1.271,1.436,2.193,1.147s1.436-1.271,1.147-2.193
	c-0.228-0.728-0.901-1.224-1.663-1.227H-296.33z"/>
<path d="M-289.9,429.43c-2.077,0.003-3.762-1.678-3.765-3.755s1.678-3.762,3.755-3.765c0.617-0.001,1.225,0.15,1.77,0.44l0,0
	c1.834,0.975,2.53,3.251,1.555,5.085C-287.237,428.661-288.511,429.428-289.9,429.43z M-289.9,423.92
	c-0.972,0.003-1.758,0.793-1.755,1.765c0.003,0.972,0.793,1.758,1.765,1.755s1.758-0.793,1.755-1.765
	c-0.002-0.654-0.366-1.252-0.945-1.555C-289.333,423.988-289.615,423.919-289.9,423.92z"/>
<path d="M-283.48,417.24c-2.077,0.008-3.767-1.668-3.775-3.745c-0.008-2.077,1.668-3.767,3.745-3.775
	c0.621-0.002,1.232,0.149,1.78,0.44l0,0c1.834,0.975,2.53,3.251,1.555,5.085C-280.825,416.468-282.095,417.234-283.48,417.24z
	 M-283.48,411.73c-0.972-0.003-1.762,0.783-1.765,1.755s0.783,1.762,1.755,1.765c0.972,0.003,1.762-0.783,1.765-1.755
	c0.002-0.657-0.363-1.261-0.945-1.565l0,0c-0.247-0.129-0.521-0.198-0.8-0.2L-283.48,411.73z"/>
<path d="M-319.26,451.05c-2.076,0.038-3.79-1.614-3.828-3.69c-0.038-2.076,1.614-3.79,3.69-3.829c0.66-0.012,1.311,0.15,1.888,0.469
	l0,0c1.817,1.005,2.476,3.292,1.471,5.11C-316.689,450.286-317.917,451.025-319.26,451.05z M-319.26,445.54
	c-0.966-0.001-1.751,0.781-1.752,1.748c-0.001,0.966,0.781,1.751,1.748,1.752c0.966,0.001,1.751-0.781,1.752-1.748
	c0.001-0.652-0.36-1.25-0.938-1.552l0,0c-0.247-0.129-0.521-0.198-0.8-0.2H-319.26z"/>
<path d="M-312.84,438.86c-2.077-0.001-3.759-1.686-3.758-3.762s1.686-3.759,3.762-3.758c2.077,0.001,3.759,1.686,3.758,3.762
	c-0.001,1.645-1.071,3.099-2.642,3.588C-312.083,438.803-312.46,438.861-312.84,438.86z M-312.84,433.35
	c-0.176,0.001-0.352,0.028-0.52,0.08c-0.928,0.29-1.445,1.277-1.155,2.205s1.277,1.445,2.205,1.155
	c0.928-0.29,1.445-1.277,1.155-2.205c-0.139-0.446-0.451-0.818-0.865-1.035l0,0c-0.25-0.131-0.528-0.2-0.81-0.2H-312.84z"/>
<path d="M-306.42,426.67c-2.077-0.001-3.759-1.686-3.758-3.762c0.001-2.077,1.686-3.759,3.762-3.758
	c2.077,0.001,3.759,1.686,3.758,3.762c-0.001,1.645-1.071,3.099-2.642,3.588C-305.663,426.613-306.04,426.671-306.42,426.67z
	 M-306.42,421.16c-0.176,0.001-0.352,0.028-0.52,0.08c-0.922,0.289-1.436,1.271-1.147,2.193c0.289,0.922,1.271,1.436,2.193,1.147
	c0.922-0.289,1.436-1.271,1.147-2.193c-0.228-0.728-0.901-1.224-1.663-1.227H-306.42z"/>
<path d="M-300,414.48c-2.077,0.003-3.762-1.678-3.765-3.755c-0.003-2.077,1.678-3.762,3.755-3.765c0.617-0.001,1.225,0.15,1.77,0.44
	l0,0c1.834,0.975,2.53,3.251,1.555,5.085C-297.337,413.711-298.611,414.478-300,414.48z M-300,409
	c-0.972-0.003-1.762,0.783-1.765,1.755s0.783,1.762,1.755,1.765c0.972,0.003,1.762-0.783,1.765-1.755
	c0.002-0.657-0.363-1.261-0.945-1.565C-299.44,409.069-299.718,409-300,409z"/>
</svg>
