<?xml version="1.0" encoding="iso-8859-1"?>
<!-- Generator: Adobe Illustrator 19.1.0, SVG Export Plug-In . SVG Version: 6.00 Build 0)  -->
<svg version="1.1" id="Layer_1" xmlns="http://www.w3.org/2000/svg" xmlns:xlink="http://www.w3.org/1999/xlink" x="0px" y="0px"
	 viewBox="-349 351 100 100" style="enable-background:new -349 351 100 100;" xml:space="preserve">
<title>weather</title>
<path style="fill:#231F20;" d="M-255.47,376.72c-4.397-3.981-10.235-5.984-16.15-5.54c-3.76-10.94-14.23-14.85-23.29-13.88
	c-7.353-6.198-17.47-7.966-26.49-4.63c-9.444,3.544-16.261,11.881-17.86,21.84c-6.25,4.04-11.74,11.73-9,21.49
	c2.45,8.626,10.384,14.534,19.35,14.41h10.28l-1.31,2.33c-0.276,0.48-0.11,1.094,0.37,1.37c0.48,0.276,1.094,0.111,1.37-0.37l0,0
	l1.87-3.32h16.69l-1.36,2.34c-0.296,0.466-0.159,1.084,0.307,1.38c0.466,0.296,1.084,0.159,1.38-0.307
	c0.015-0.024,0.029-0.048,0.042-0.073l1.91-3.35h16.55l-1.35,2.35c-0.271,0.478-0.106,1.085,0.37,1.36
	c0.478,0.271,1.085,0.106,1.36-0.37l1.92-3.35h8.51c11.4,0,21-9,21-19.64C-249.09,385.379-251.438,380.284-255.47,376.72z
	 M-270,408.41h-58.91c-8.06,0.12-15.201-5.173-17.43-12.92c-2.15-7.58,1-14.87,8.52-19.52c0.246-0.153,0.414-0.404,0.46-0.69
	c1.359-9.427,7.738-17.369,16.65-20.73c2.739-1.019,5.637-1.544,8.56-1.55c5.98,0.032,11.752,2.195,16.28,6.1
	c0.213,0.181,0.492,0.264,0.77,0.23c12.64-1.57,19.66,6.13,21.82,13.2c0.14,0.453,0.578,0.745,1.05,0.7
	c5.619-0.618,11.233,1.202,15.42,5c3.609,3.181,5.717,7.73,5.81,12.54C-251,400.33-259.72,408.41-270,408.41z"/>
<path style="fill:#231F20;" d="M-323.69,421.44c-0.481-0.27-1.089-0.1-1.36,0.38l-3,5.26c-0.276,0.48-0.111,1.094,0.37,1.37
	c0.48,0.276,1.094,0.11,1.37-0.37l3-5.26c0.279-0.477,0.118-1.089-0.359-1.368C-323.676,421.448-323.683,421.444-323.69,421.44z"/>
<path style="fill:#231F20;" d="M-332.22,436.57c-0.481-0.27-1.089-0.1-1.36,0.38l-2,3.57c-0.276,0.48-0.111,1.094,0.37,1.37
	c0.48,0.276,1.094,0.11,1.37-0.37l0,0l2-3.57c0.279-0.477,0.118-1.089-0.359-1.368C-332.206,436.578-332.213,436.574-332.22,436.57z
	"/>
<path style="fill:#231F20;" d="M-306.75,424.84c-0.478-0.271-1.085-0.106-1.36,0.37l-4.16,7.26c-0.296,0.466-0.159,1.084,0.307,1.38
	c0.466,0.296,1.084,0.159,1.38-0.307c0.015-0.024,0.029-0.048,0.042-0.073l4.16-7.26c0.277-0.478,0.114-1.09-0.364-1.367
	C-306.746,424.842-306.748,424.841-306.75,424.84z"/>
<path style="fill:#231F20;" d="M-318.62,445.58c-0.478-0.271-1.085-0.106-1.36,0.37l-2.02,3.55c-0.296,0.466-0.159,1.084,0.307,1.38
	c0.466,0.296,1.084,0.159,1.38-0.307c0.015-0.024,0.029-0.048,0.042-0.073l2-3.56C-317.995,446.467-318.151,445.861-318.62,445.58z"
	/>
<path style="fill:#231F20;" d="M-286,421.47c-0.478-0.271-1.085-0.106-1.36,0.37l-3,5.24c-0.273,0.475-0.113,1.082,0.36,1.36
	c0.478,0.271,1.085,0.106,1.36-0.37l3-5.24C-285.367,422.355-285.527,421.748-286,421.47z"/>
<path style="fill:#231F20;" d="M-294.65,436.59c-0.486-0.258-1.09-0.075-1.35,0.41l-2,3.56c-0.271,0.478-0.106,1.085,0.37,1.36
	c0.478,0.271,1.085,0.106,1.36-0.37l2-3.56c0.287-0.472,0.137-1.087-0.335-1.374C-294.62,436.607-294.635,436.598-294.65,436.59z"/>
</svg>
