<?xml version="1.0" encoding="utf-8"?>
<!-- Generator: Adobe Illustrator 19.1.0, SVG Export Plug-In . SVG Version: 6.00 Build 0)  -->
<svg version="1.1" id="Layer_1" xmlns="http://www.w3.org/2000/svg" xmlns:xlink="http://www.w3.org/1999/xlink" x="0px" y="0px"
	 width="128px" height="128px" viewBox="0 0 128 128" style="enable-background:new 0 0 128 128;" xml:space="preserve">
<g>
	<path d="M108.4,27.5H88c-1,0-1.8-0.8-1.8-1.8V5.3c0-1,0.8-1.8,1.8-1.8c1,0,1.8,0.8,1.8,1.8v18.6h18.6c1,0,1.8,0.8,1.8,1.8
		C110.2,26.7,109.4,27.5,108.4,27.5z"/>
	<path d="M104.4,124.5H25.6c-3.2,0-5.8-2.6-5.8-5.9V9.4c0-3.3,2.6-5.9,5.8-5.9H88c1.8,0,2.8,1,3.6,1.7l16.9,16.7
		c0.9,0.8,1.7,2,1.7,3.8v92.9C110.2,121.9,107.6,124.5,104.4,124.5z M25.6,7.1c-1.2,0-2.2,1.1-2.2,2.3v109.3c0,1.3,1,2.3,2.2,2.3
		h78.8c1.2,0,2.3-1.1,2.3-2.3V25.7c0-0.4-0.1-0.7-0.7-1.3L89,7.7c-0.7-0.7-0.7-0.7-1-0.7H25.6z"/>
	<path d="M90.7,93.9H39.4c-1,0-1.8-0.8-1.8-1.8c0-1,0.8-1.8,1.8-1.8h51.3c1,0,1.8,0.8,1.8,1.8C92.5,93.1,91.7,93.9,90.7,93.9z"/>
	<path d="M90.7,78.6H39.4c-1,0-1.8-0.8-1.8-1.8s0.8-1.8,1.8-1.8h51.3c1,0,1.8,0.8,1.8,1.8S91.7,78.6,90.7,78.6z"/>
	<path d="M90.7,63.2H39.4c-1,0-1.8-0.8-1.8-1.8s0.8-1.8,1.8-1.8h51.3c1,0,1.8,0.8,1.8,1.8S91.7,63.2,90.7,63.2z"/>
	<path d="M67.9,47.9H39.4c-1,0-1.8-0.8-1.8-1.8s0.8-1.8,1.8-1.8h28.5c1,0,1.8,0.8,1.8,1.8S68.9,47.9,67.9,47.9z"/>
</g>
</svg>
