<svg width="35" height="35" viewBox="0 0 35 35" fill="none" xmlns="http://www.w3.org/2000/svg">
<path d="M22.9397 29.2759H5.56034C4.56103 29.2759 3.75 28.4648 3.75 27.4655V15.8793C3.75 14.88 4.56103 14.069 5.56034 14.069H22.9397C23.939 14.069 24.75 14.88 24.75 15.8793V27.4655C24.75 28.4648 23.939 29.2759 22.9397 29.2759Z" stroke="#007CC2" stroke-miterlimit="10" stroke-linecap="round" stroke-linejoin="round"/>
<path d="M18.2326 11.8966C18.2326 10.2962 16.9364 9 15.3361 9H13.1636C11.5633 9 10.2671 10.2962 10.2671 11.8966" stroke="#007CC2" stroke-miterlimit="10" stroke-linecap="round" stroke-linejoin="round"/>
<path d="M28.0754 8.31896C28.0754 11.0514 23.1314 18.5683 23.1314 18.5683C23.1314 18.5683 18.1875 11.0514 18.1875 8.31896C18.1875 5.58651 20.4043 3.375 23.1314 3.375C25.8586 3.375 28.0754 5.58651 28.0754 8.31896Z" fill="#007CC2" stroke="white" stroke-width="0.75" stroke-miterlimit="10" stroke-linecap="round" stroke-linejoin="round"/>
<path d="M23.1313 9.31308C22.1903 9.31308 21.4248 8.54752 21.4248 7.60658C21.4248 6.66564 22.1903 5.90015 23.1313 5.90015C24.0722 5.90015 24.8377 6.66564 24.8377 7.60658C24.8377 8.55284 24.0722 9.31308 23.1313 9.31308Z" fill="white"/>
<rect x="1.5" y="1.5" width="29" height="29" stroke="black"/>
</svg>
