<svg width="40" height="40" viewBox="0 0 40 40" fill="none" xmlns="http://www.w3.org/2000/svg">
<path d="M12.06 31.4C12.06 33.07 10.7 34.43 9.02997 34.43C7.35997 34.43 6 33.07 6 31.4C6 29.73 7.35997 28.37 9.02997 28.37C10.7 28.37 12.06 29.72 12.06 31.4Z" stroke="#0B2343" stroke-miterlimit="10" stroke-linecap="round" stroke-linejoin="round"/>
<path d="M22.7099 31.4C22.7099 33.07 21.3499 34.43 19.6799 34.43C18.0099 34.43 16.6499 33.07 16.6499 31.4C16.6499 29.73 18.0099 28.37 19.6799 28.37C21.3599 28.37 22.7099 29.72 22.7099 31.4Z" stroke="#0B2343" stroke-miterlimit="10" stroke-linecap="round" stroke-linejoin="round"/>
<path d="M33.58 31.4C33.58 33.07 32.22 34.43 30.55 34.43C28.88 34.43 27.52 33.07 27.52 31.4C27.52 29.73 28.88 28.37 30.55 28.37C32.22 28.37 33.58 29.72 33.58 31.4Z" stroke="#0B2343" stroke-miterlimit="10" stroke-linecap="round" stroke-linejoin="round"/>
<path d="M19.6799 12.0699V28.3699" stroke="#0B2343" stroke-miterlimit="10" stroke-linecap="round" stroke-linejoin="round"/>
<path d="M11.03 29.1199L19.6801 18.8199L28.6901 28.9999" stroke="#0B2343" stroke-miterlimit="10" stroke-linecap="round" stroke-linejoin="round"/>
<path d="M22.7099 9.03C22.7099 10.7 21.3499 12.06 19.6799 12.06C18.0099 12.06 16.6499 10.7 16.6499 9.03C16.6499 7.36 18.0099 6 19.6799 6C21.3599 6 22.7099 7.36 22.7099 9.03Z" stroke="#0B2343" stroke-miterlimit="10" stroke-linecap="round" stroke-linejoin="round"/>
</svg>
