<svg width="40" height="40" viewBox="0 0 40 40" fill="none" xmlns="http://www.w3.org/2000/svg">
<path d="M22.3099 20.1899C22.3099 21.7399 21.0499 22.99 19.5099 22.99C17.9599 22.99 16.71 21.7299 16.71 20.1899C16.71 18.6399 17.9699 17.39 19.5099 17.39C21.0599 17.39 22.3099 18.6399 22.3099 20.1899Z" stroke="#0B2343" stroke-miterlimit="10" stroke-linecap="round" stroke-linejoin="round"/>
<path d="M6.62988 26.64C10.1899 26.64 13.0699 23.67 13.0699 20C13.0699 16.33 10.1899 13.36 6.62988 13.36" stroke="#0B2343" stroke-miterlimit="10" stroke-linecap="round" stroke-linejoin="round"/>
<path d="M34 10H5V30H34V10Z" stroke="#0B2343" stroke-linecap="round" stroke-linejoin="round"/>
<path d="M9 17H5V23H9V17Z" stroke="#0B2343" stroke-miterlimit="10" stroke-linecap="round" stroke-linejoin="round"/>
<path d="M32.37 13.35C28.81 13.35 25.9299 16.32 25.9299 19.99C25.9299 23.66 28.81 26.63 32.37 26.63" stroke="#0B2343" stroke-miterlimit="10" stroke-linecap="round" stroke-linejoin="round"/>
<path d="M30.001 22.9902H34.001V16.9902H30.001V22.9902Z" stroke="#0B2343" stroke-miterlimit="10" stroke-linecap="round" stroke-linejoin="round"/>
<path d="M19.5 10V30" stroke="#0B2343" stroke-miterlimit="10" stroke-linecap="round" stroke-linejoin="round"/>
</svg>
