<svg width="40" height="40" viewBox="0 0 40 40" fill="none" xmlns="http://www.w3.org/2000/svg">
<path d="M11.5873 9.99721L13.1649 12.6572C12.2838 13.6726 11.5287 14.6375 11.5287 14.99V30.6647C11.5287 31.6381 12.502 32.4017 13.4754 32.4017H27.3879C28.3613 32.4017 29.1585 31.6381 29.1585 30.6647V12.674C29.1585 11.7006 26.8006 8.90636 25.8272 8.90636H19.7268C19.3492 8.90636 18.5604 8.73854 17.5115 9.77065H14.9186L14.004 8.35254" stroke="#0B2343" stroke-linecap="round" stroke-linejoin="round"/>
<path d="M22.605 23.9182H18.0401C17.6625 23.9182 17.3605 23.6161 17.3605 23.2385V21.3169C17.3605 20.9393 17.6625 20.6372 18.0401 20.6372H22.605C22.9826 20.6372 23.2846 20.9393 23.2846 21.3169V23.2385C23.2846 23.6077 22.9826 23.9182 22.605 23.9182Z" stroke="#0B2343" stroke-linecap="round" stroke-linejoin="round"/>
<path d="M24.5014 19.0008L26.4901 15.4429" stroke="#0B2343" stroke-linecap="round" stroke-linejoin="round"/>
<path d="M24.5014 25.6047L26.4901 29.1626" stroke="#0B2343" stroke-linecap="round" stroke-linejoin="round"/>
<path d="M16.1857 19.0008L14.197 15.4429" stroke="#0B2343" stroke-linecap="round" stroke-linejoin="round"/>
<path d="M16.1857 25.6047L14.197 29.1626" stroke="#0B2343" stroke-linecap="round" stroke-linejoin="round"/>
<path d="M20.3394 12.2629H25.5251" stroke="#0B2343" stroke-linecap="round" stroke-linejoin="round"/>
<path d="M11 10.3999L14.5243 8" stroke="#0B2343" stroke-linecap="round" stroke-linejoin="round"/>
</svg>
