<svg width="19" height="20" viewBox="0 0 19 20" fill="none" xmlns="http://www.w3.org/2000/svg">
<path d="M7.975 19.0625H0.7975V10.0725H7.975V19.0625ZM7.975 5.795H0V8.73125H7.975V5.795ZM10.15 19.0625H17.3275V10.0725H10.15V19.0625ZM10.15 5.795V8.73125H18.125V5.795H10.15ZM10.9113 3.8375H12.5425C13.775 3.8375 13.7025 2.27875 12.7963 2.27875C12.035 2.2425 11.4913 2.93125 10.9113 3.8375ZM13.1588 0.9375C15.95 0.9375 15.95 4.925 13.1588 4.925C11.4913 4.925 9.135 4.925 9.135 4.925C9.715 3.72875 10.8025 0.9375 13.1588 0.9375ZM5.51 2.2425C4.5675 2.2425 4.53125 3.80125 5.76375 3.80125H7.395C6.77875 2.93125 6.235 2.2425 5.51 2.2425ZM5.11125 0.9375C7.4675 0.9375 8.59125 3.72875 9.135 4.925C9.135 4.925 6.77875 4.925 5.11125 4.925C2.35625 4.925 2.32 0.9375 5.11125 0.9375Z" fill="#48A83E"/>
</svg>
