<svg width="40" height="40" viewBox="0 0 40 40" fill="none" xmlns="http://www.w3.org/2000/svg">
<path d="M18.76 35H7.276V20.616H18.76V35ZM18.76 13.772H6V18.47H18.76V13.772ZM22.24 35H33.724V20.616H22.24V35ZM22.24 13.772V18.47H35V13.772H22.24ZM23.458 10.64H26.068C28.04 10.64 27.924 8.146 26.474 8.146C25.256 8.088 24.386 9.19 23.458 10.64ZM27.054 6C31.52 6 31.52 12.38 27.054 12.38C24.386 12.38 20.616 12.38 20.616 12.38C21.544 10.466 23.284 6 27.054 6ZM14.816 8.088C13.308 8.088 13.25 10.582 15.222 10.582H17.832C16.846 9.19 15.976 8.088 14.816 8.088ZM14.178 6C17.948 6 19.746 10.466 20.616 12.38C20.616 12.38 16.846 12.38 14.178 12.38C9.77 12.38 9.712 6 14.178 6Z" fill="#0B2343"/>
</svg>
