<svg width="40" height="40" viewBox="0 0 40 40" fill="none" xmlns="http://www.w3.org/2000/svg">
<path d="M25.98 19.28C25.36 20.02 26.6 22.58 28.87 23.65C30.84 24.57 31.44 24.58 32.26 24.24C33.14 23.88 33.01 22.57 31.1 20.95C29.2 19.32 26.6 18.53 25.98 19.28Z" stroke="#0B2343" stroke-miterlimit="10" stroke-linecap="round" stroke-linejoin="round"/>
<path d="M8.99997 24.24C9.81997 24.58 10.43 24.57 12.39 23.65C14.66 22.59 15.77 19.99 15.15 19.25C14.53 18.5 12.07 19.33 10.16 20.95C8.25 22.57 8.11997 23.88 8.99997 24.24Z" stroke="#0B2343" stroke-miterlimit="10" stroke-linecap="round" stroke-linejoin="round"/>
<path d="M34.77 30.77C32.1 28.14 28.85 26.29 25.35 25.41C25.34 25.41 25.3401 25.4 25.3301 25.4C24.7901 34.41 16.35 34.29 15.86 25.35C15.85 25.35 15.8501 25.35 15.8401 25.35C12.2501 26.21 8.91005 28.09 6.18005 30.77C6.06005 30.89 6 31.05 6 31.21V33.41C6 33.75 6.26999 34.03 6.60999 34.03H34.36C34.7 34.03 34.9701 33.75 34.9701 33.41V31.21C34.9601 31.04 34.89 30.88 34.77 30.77Z" stroke="#0B2343" stroke-miterlimit="10" stroke-linecap="round" stroke-linejoin="round"/>
<path d="M24.1 23.39V22.47C25.32 21.25 26.15 19.48 26.28 17.72C26.29 17.72 26.29 17.72 26.3 17.72C27.38 17.72 27.8301 16.23 26.9601 15.55C27.2701 14.76 27.4401 13.9 27.4401 13C27.4401 9.14 24.35 6 20.54 6C16.73 6 13.64 9.13 13.64 13C13.64 13.92 13.82 14.79 14.14 15.6C13.34 16.31 13.81 17.73 14.85 17.73C14.86 17.73 14.86 17.73 14.87 17.73C15 19.5 15.82 21.26 17.04 22.48V23.4" stroke="#0B2343" stroke-miterlimit="10" stroke-linecap="round" stroke-linejoin="round"/>
</svg>
