<svg width="40" height="40" viewBox="0 0 40 40" fill="none" xmlns="http://www.w3.org/2000/svg">
<path d="M18.12 24.6711C18.12 27.1311 15.41 29.1311 12.06 29.1311C8.72 29.1311 6 27.1311 6 24.6711C6 22.2111 8.71 20.2111 12.06 20.2111C15.41 20.2111 18.12 22.2111 18.12 24.6711Z" stroke="#0B2343" stroke-linecap="round" stroke-linejoin="round"/>
<path d="M34.39 24.6711C34.39 27.1311 31.68 29.1311 28.33 29.1311C24.98 29.1311 22.27 27.1311 22.27 24.6711C22.27 22.2111 24.98 20.2111 28.33 20.2111C31.68 20.2111 34.39 22.2111 34.39 24.6711Z" stroke="#0B2343" stroke-linecap="round" stroke-linejoin="round"/>
<path d="M17.91 23.2411C19.4 22.8111 21.02 22.7611 22.57 23.1311" stroke="#0B2343" stroke-linecap="round" stroke-linejoin="round"/>
<path d="M6.32996 23.2411L12.06 12.5311C12.06 12.5311 15.05 6.97111 17.91 12.5311" stroke="#0B2343" stroke-linecap="round" stroke-linejoin="round"/>
<path d="M34.05 23.1811L28.32 12.4711C28.32 12.4711 25.33 6.91111 22.47 12.4711" stroke="#0B2343" stroke-linecap="round" stroke-linejoin="round"/>
</svg>
