<svg width="40" height="40" viewBox="0 0 40 40" fill="none" xmlns="http://www.w3.org/2000/svg">
<path d="M28.7095 21.4343C25.6502 27.3243 18.402 29.622 12.4993 26.5627C6.60938 23.5035 4.31181 16.2553 7.37104 10.3526C10.4303 4.46264 17.6784 2.165 23.5811 5.22422C29.471 8.28345 31.7687 15.5444 28.7095 21.4343Z" stroke="#0B2343" stroke-width="1.05024" stroke-linecap="round" stroke-linejoin="round"/>
<path d="M29.9915 5.41455C34.1805 10.2001 35.2468 17.2326 32.1367 23.2114C28.0874 31.0055 18.5035 34.0393 10.7095 30.0026C8.86885 29.0506 7.28208 27.7811 6 26.2959" stroke="#0B2343" stroke-width="1.05024" stroke-linecap="round" stroke-linejoin="round"/>
<path d="M14.4668 6.62036C14.4668 6.62036 11.4964 9.03234 13.4386 9.29891C14.873 9.50201 15.2411 9.05764 15.2411 9.05764L16.5993 8.18184C16.5993 8.18184 15.7996 9.98427 15.8123 10.3016C15.825 10.6317 16.0282 11.6344 16.7517 10.7459C18.0973 9.12106 18.4273 8.63883 19.1128 8.98156C19.7855 9.33699 21.4611 9.52728 20.7503 11.241C20.0394 12.9546 20.2552 11.8377 19.1381 11.8123C18.021 11.7742 17.031 13.1577 17.7672 13.767C18.4908 14.3763 19.9632 16.0774 19.9632 16.0774C19.9632 16.0774 21.3088 17.3594 18.9477 21.4342C18.9477 21.4342 17.8179 23.6936 18.9096 23.5921C20.0013 23.4778 24.0633 21.155 24.2918 19.5936C24.5076 18.0323 24.5457 17.8673 25.6501 17.8546C26.7417 17.8292 27.643 17.5753 27.9477 16.9152" stroke="#0B2343" stroke-width="1.05024" stroke-linecap="round" stroke-linejoin="round"/>
<path d="M8.42455 14.1605C8.42455 14.1605 10.1383 11.4566 10.481 12.2056C10.8111 12.9545 11.0649 13.0815 11.3061 13.8431C11.5473 14.6048 13.5402 16.0011 12.4866 16.2677C11.4457 16.5343 11.2934 16.5596 10.646 17.0293C9.9859 17.499 8.7419 18.7048 8.7419 18.7048" stroke="#0B2343" stroke-width="1.05024" stroke-linecap="round" stroke-linejoin="round"/>
<path d="M29.9914 5.41458L33.9392 2" stroke="#0B2343" stroke-width="1.05024" stroke-linecap="round" stroke-linejoin="round"/>
<path d="M13.9337 37.9998H22.8194" stroke="#0B2343" stroke-width="1.05024" stroke-linecap="round" stroke-linejoin="round"/>
<path d="M18.3765 34.1282V37.9999" stroke="#0B2343" stroke-width="1.05024" stroke-linecap="round" stroke-linejoin="round"/>
</svg>
