<svg width="42" height="42" viewBox="0 0 42 42" fill="none" xmlns="http://www.w3.org/2000/svg">
<path fill-rule="evenodd" clip-rule="evenodd" d="M0.5 21C0.5 9.6961 9.69611 0.5 21 0.5C32.3039 0.5 41.4999 9.6961 41.4999 21C41.4999 32.3039 32.3039 41.5 21 41.5C9.69611 41.5 0.5 32.3039 0.5 21ZM21 1.5C10.2484 1.5 1.5 10.2484 1.5 21C1.5 31.7516 10.2484 40.5 21 40.5C31.7516 40.5 40.4999 31.7516 40.4999 21C40.4999 10.2484 31.7516 1.5 21 1.5ZM21.834 8.05553C22.1101 8.05553 22.334 8.27938 22.334 8.55552V10.8676L24.2556 9.78671C24.4963 9.65133 24.8012 9.7367 24.9365 9.97738C25.0719 10.2181 24.9865 10.5229 24.7459 10.6583L22.334 12.0149V14.3673L24.2556 13.2864C24.4963 13.1511 24.8012 13.2364 24.9365 13.4771C25.0719 13.7178 24.9865 14.0227 24.7459 14.158L22.334 15.5146V17.8809L24.2556 16.8001C24.4963 16.6647 24.8012 16.7501 24.9365 16.9907C25.0719 17.2314 24.9865 17.5363 24.7459 17.6717L22.334 19.0282V21.3775L24.2539 20.2876C24.494 20.1513 24.7992 20.2354 24.9356 20.4756C25.0719 20.7157 24.9877 21.0209 24.7476 21.1572L22.334 22.5274V33.8888C22.334 34.165 22.1101 34.3888 21.834 34.3888C21.5578 34.3888 21.334 34.165 21.334 33.8888V24.3968L18.4113 22.6663C18.1737 22.5256 18.0951 22.2189 18.2358 21.9813C18.3765 21.7437 18.6831 21.6651 18.9208 21.8058L21.334 23.2346V22.246C21.3339 22.2398 21.3339 22.2336 21.334 22.2274V20.9176L18.9209 19.5604C18.6802 19.425 18.5948 19.1201 18.7302 18.8794C18.8656 18.6388 19.1704 18.5534 19.4111 18.6888L21.334 19.7703V18.7457C21.3339 18.7394 21.3339 18.7331 21.334 18.7269V17.3902L18.9209 16.033C18.6802 15.8976 18.5948 15.5927 18.7302 15.352C18.8656 15.1114 19.1705 15.026 19.4111 15.1614L21.334 16.2429V15.232C21.3339 15.2258 21.3339 15.2195 21.334 15.2133V13.9043L18.9209 12.547C18.6802 12.4116 18.5948 12.1068 18.7302 11.8661C18.8656 11.6254 19.1705 11.54 19.4111 11.6754L21.334 12.7569V11.7323C21.3339 11.726 21.3339 11.7198 21.334 11.7135V8.55552C21.334 8.27938 21.5578 8.05553 21.834 8.05553ZM9.40785 8.81639C9.63962 8.66626 9.94921 8.73244 10.0993 8.96421L9.67969 9.23604C10.0993 8.96421 10.0993 8.96421 10.0993 8.96421L10.1002 8.96557L10.1015 8.96756L10.1052 8.97344L10.1174 8.99285C10.1275 9.00921 10.1417 9.03242 10.1596 9.06261C10.1953 9.12298 10.246 9.21124 10.3091 9.32838C10.4354 9.56268 10.6116 9.91245 10.8187 10.3856C10.9973 10.7937 11.1989 11.2936 11.4111 11.8901L13.0044 10.1233C13.1893 9.9182 13.5055 9.90187 13.7106 10.0868C13.9157 10.2717 13.932 10.5879 13.7471 10.793L11.7744 12.9805C11.9421 13.5176 12.112 14.1125 12.2788 14.7671C12.288 14.8034 12.2973 14.84 12.3065 14.8767L13.9366 13.3566C14.1385 13.1682 14.4549 13.1793 14.6433 13.3812C14.8316 13.5832 14.8205 13.8996 14.6186 14.0879L12.5714 15.997C12.6634 16.4121 12.7534 16.8471 12.8404 17.3024C12.8633 17.3606 12.8755 17.4233 12.8753 17.4872C12.9167 17.7094 12.9575 17.9362 12.9974 18.1679L14.7189 16.7149C14.9299 16.5368 15.2454 16.5635 15.4235 16.7745C15.6016 16.9856 15.5749 17.301 15.3639 17.4791L13.1824 19.3203C13.2899 20.0412 13.3885 20.8035 13.4756 21.6083L15.3717 20.2215C15.5946 20.0584 15.9074 20.107 16.0704 20.3298C16.2335 20.5527 16.1849 20.8656 15.9621 21.0286L13.5898 22.7638C13.8686 25.8762 13.9724 29.5733 13.7624 33.9129C13.749 34.1888 13.5146 34.4015 13.2388 34.3882C12.9629 34.3748 12.7502 34.1404 12.7635 33.8646C12.9325 30.3738 12.896 27.3088 12.7292 24.6383L9.84671 23.1972C9.59972 23.0737 9.4996 22.7733 9.6231 22.5264C9.74659 22.2794 10.0469 22.1792 10.2939 22.3027L12.6468 23.4791C12.5858 22.7147 12.5141 21.9851 12.4338 21.2896L9.47607 19.9708C9.22386 19.8583 9.11057 19.5627 9.22303 19.3105C9.33549 19.0583 9.6311 18.945 9.88331 19.0575L12.2878 20.1296C12.2487 19.8432 12.2082 19.5631 12.1664 19.2894C12.1463 19.2317 12.1372 19.1712 12.1389 19.1112C12.0714 18.6791 12.0007 18.2631 11.9277 17.8628L8.82705 16.8207C8.56529 16.7328 8.42441 16.4493 8.51238 16.1875C8.60034 15.9258 8.88385 15.7849 9.14561 15.8728L11.707 16.7336C11.6568 16.4928 11.6057 16.2585 11.5541 16.0307C11.5302 15.9749 11.5169 15.9158 11.5142 15.8563C11.4468 15.5647 11.3785 15.2839 11.3097 15.014C11.2675 14.8484 11.2252 14.6868 11.1827 14.5293L8.03472 13.5756C7.77044 13.4955 7.6211 13.2164 7.70117 12.9521C7.78123 12.6878 8.06038 12.5385 8.32466 12.6185L10.8527 13.3844C10.8192 13.2755 10.7857 13.1691 10.7524 13.065C10.7377 13.032 10.7266 12.9976 10.7194 12.9626C10.423 12.0484 10.1395 11.3278 9.90262 10.7866C9.7065 10.3385 9.54224 10.0132 9.42883 9.80283C9.37212 9.69761 9.32812 9.62109 9.2992 9.57227C9.28474 9.54786 9.27405 9.53037 9.26742 9.51968L9.26004 9.50788M9.40785 8.81639C9.17624 8.96642 9.11028 9.27616 9.26004 9.50788L9.40785 8.81639ZM33.9112 8.8164C34.1429 8.96643 34.2091 9.27572 34.0593 9.50744L34.0585 9.50873L34.0517 9.51969C34.045 9.53038 34.0343 9.54787 34.0199 9.57228C33.991 9.6211 33.947 9.69762 33.8903 9.80283C33.7768 10.0132 33.6126 10.3385 33.4165 10.7866C33.1809 11.3248 32.8992 12.0406 32.6045 12.9476C32.5966 12.9928 32.5825 13.037 32.5622 13.0789C32.5257 13.1931 32.489 13.3103 32.4522 13.4304L34.986 12.6208C35.249 12.5367 35.5304 12.6818 35.6145 12.9449C35.6985 13.2079 35.5534 13.4893 35.2904 13.5733L32.1211 14.586C32.0837 14.7255 32.0465 14.8682 32.0093 15.014C31.8743 15.5441 31.7411 16.1156 31.6128 16.7298L34.1738 15.8726C34.4357 15.785 34.719 15.9262 34.8067 16.1881C34.8943 16.45 34.7531 16.7333 34.4912 16.8209L31.3922 17.8581C31.3188 18.2599 31.2479 18.6775 31.1801 19.1113C31.1818 19.1713 31.1727 19.2316 31.1526 19.2893C31.1109 19.5629 31.0704 19.8427 31.0313 20.129L33.4344 19.0575C33.6867 18.945 33.9823 19.0583 34.0947 19.3105C34.2072 19.5627 34.0939 19.8583 33.8417 19.9708L30.8853 21.289C30.8013 22.0155 30.7269 22.7793 30.6641 23.5812L33.0124 22.3102C33.2552 22.1788 33.5586 22.2691 33.6901 22.512C33.8215 22.7548 33.7312 23.0582 33.4884 23.1897L30.5822 24.7627C30.4219 27.4038 30.3891 30.4278 30.5555 33.8646C30.5688 34.1404 30.356 34.3748 30.0802 34.3882C29.8044 34.4015 29.57 34.1888 29.5566 33.9129C29.3466 29.5732 29.4504 25.876 29.7292 22.7636L27.3572 21.0286C27.1343 20.8656 27.0858 20.5527 27.2488 20.3298C27.4118 20.107 27.7246 20.0584 27.9475 20.2215L29.8434 21.6082C29.9304 20.8038 30.0291 20.0419 30.1365 19.3213L27.9423 17.48C27.7307 17.3025 27.7032 16.9872 27.8807 16.7756C28.0582 16.5641 28.3735 16.5365 28.5851 16.714L30.3211 18.1708C30.3577 17.958 30.3951 17.7493 30.4331 17.5446C30.4207 17.4411 30.4414 17.3386 30.4887 17.25C30.587 16.7383 30.6891 16.2525 30.7937 15.7919L28.7256 14.1102C28.5113 13.9359 28.4789 13.621 28.6531 13.4068C28.8273 13.1925 29.1422 13.1601 29.3565 13.3343L31.0537 14.7145C31.2163 14.0799 31.3818 13.502 31.5451 12.9788L29.574 10.793C29.3891 10.5879 29.4054 10.2717 29.6105 10.0868C29.8155 9.90187 30.1317 9.9182 30.3166 10.1233L31.9085 11.8885C32.1205 11.2927 32.3219 10.7934 32.5004 10.3856C32.7075 9.91244 32.8837 9.56267 33.01 9.32837C33.0731 9.21123 33.1238 9.12297 33.1595 9.0626C33.1774 9.03242 33.1916 9.00921 33.2017 8.99285L33.2139 8.97343L33.2176 8.96755L33.2189 8.96556C33.2189 8.96556 33.2198 8.96421 33.6223 9.22499L33.2198 8.9642C33.3699 8.73244 33.6795 8.66626 33.9112 8.8164Z" fill="#F97722"/>
</svg>
