<svg width="40" height="40" viewBox="0 0 40 40" fill="none" xmlns="http://www.w3.org/2000/svg">
<path d="M25.8547 25.8599H25.8943C26.1845 25.8599 26.4202 26.0955 26.4202 26.3857V32.8377C26.4202 33.1279 26.1845 33.3635 25.8943 33.3635H25.8547C25.5645 33.3635 25.3289 33.1279 25.3289 32.8377V26.3857C25.3289 26.0955 25.5645 25.8599 25.8547 25.8599Z" stroke="#0B2343" stroke-linecap="round" stroke-linejoin="round"/>
<path d="M25.8745 25.8596V15.6457" stroke="#0B2343" stroke-linecap="round" stroke-linejoin="round"/>
<path d="M25.4381 15.3433L26.4863 15.3063C26.4863 15.3063 26.4054 14.6415 27.0641 14.5545L28.7568 14.3847C28.7568 14.3847 29.4137 14.3496 29.4823 13.6575L29.587 12.9479C29.587 12.9479 29.7092 11.8557 28.4253 11.8495C28.4253 11.8495 28.2758 11.853 28.2327 11.8741C27.648 12.1573 25.9165 13.0675 25.9165 13.0675C25.9165 13.0675 25.4249 13.3506 25.3809 14.0005C25.337 14.6512 25.4381 15.3433 25.4381 15.3433Z" stroke="#0B2343" stroke-linecap="round" stroke-linejoin="round"/>
<path d="M15.678 15.9771V9.46004" stroke="#0B2343" stroke-linecap="round" stroke-linejoin="round"/>
<path d="M16.0757 9.18384L15.1208 9.15042C15.1208 9.15042 15.1937 8.54366 14.5931 8.46451L13.0507 8.30974C13.0507 8.30974 12.4519 8.27809 12.3894 7.64758L12.2936 7.00036C12.2936 7.00036 12.1828 6.00492 13.3532 5.99964C13.3532 5.99964 13.4895 6.00228 13.5282 6.02162C14.0611 6.28016 15.6405 7.1094 15.6405 7.1094C15.6405 7.1094 16.0881 7.36706 16.1285 7.96063C16.1681 8.55333 16.0757 9.18384 16.0757 9.18384Z" stroke="#0B2343" stroke-linecap="round" stroke-linejoin="round"/>
<path d="M14.1704 15.9771L13.8116 12.4165" stroke="#0B2343" stroke-linecap="round" stroke-linejoin="round"/>
<path d="M14.1048 12.1662L13.345 12.2163C13.345 12.2163 13.3547 11.7291 12.8719 11.7142L11.6364 11.7151C11.6364 11.7151 11.1589 11.7379 11.0595 11.2428L10.932 10.7372C10.932 10.7372 10.7641 9.95721 11.6918 9.85872C11.6918 9.85872 11.8 9.8508 11.8325 9.86224C12.2757 10.0249 13.5939 10.5561 13.5939 10.5561C13.5939 10.5561 13.9694 10.7249 14.0485 11.1918C14.1277 11.6588 14.1048 12.1662 14.1048 12.1662Z" stroke="#0B2343" stroke-linecap="round" stroke-linejoin="round"/>
<path d="M16.6357 15.9771L17.1387 10.9849" stroke="#0B2343" stroke-linecap="round" stroke-linejoin="round"/>
<path d="M16.8455 10.7338L17.6052 10.7839C17.6052 10.7839 17.5956 10.2968 18.0783 10.2818L19.3139 10.2827C19.3139 10.2827 19.7914 10.3056 19.8907 9.81047L20.0182 9.30484C20.0182 9.30484 20.1862 8.52483 19.2585 8.42635C19.2585 8.42635 19.1503 8.41843 19.1178 8.42986C18.6746 8.59255 17.3564 9.12369 17.3564 9.12369C17.3564 9.12369 16.9809 9.29252 16.9018 9.75947C16.8226 10.2264 16.8455 10.7338 16.8455 10.7338Z" stroke="#0B2343" stroke-linecap="round" stroke-linejoin="round"/>
<path d="M17.813 15.9771L17.9387 15.5259" stroke="#0B2343" stroke-linecap="round" stroke-linejoin="round"/>
<path d="M17.7031 15.2427L18.4101 15.4133C18.4101 15.4133 18.4805 14.9534 18.9369 15.0176L20.0994 15.219C20.0994 15.219 20.5444 15.3175 20.7194 14.8672L20.9216 14.4126C20.9216 14.4126 21.2057 13.7056 20.3491 13.4629C20.3491 13.4629 20.248 13.4374 20.2155 13.4435C19.7723 13.5244 18.4453 13.8102 18.4453 13.8102C18.4453 13.8102 18.0645 13.9087 17.9142 14.3352C17.7638 14.7617 17.7031 15.2427 17.7031 15.2427Z" stroke="#0B2343" stroke-linecap="round" stroke-linejoin="round"/>
<path d="M13.3404 15.9771L13.0282 14.8541" stroke="#0B2343" stroke-linecap="round" stroke-linejoin="round"/>
<path d="M13.2637 14.5704L12.5566 14.741C12.5566 14.741 12.4863 14.2811 12.0299 14.3453L10.8674 14.5466C10.8674 14.5466 10.4224 14.6451 10.2474 14.1949L10.0452 13.7402C10.0452 13.7402 9.76113 13.0332 10.6176 12.7905C10.6176 12.7905 10.7188 12.765 10.7513 12.7712C11.1945 12.8521 12.5215 13.1379 12.5215 13.1379C12.5215 13.1379 12.9022 13.2364 13.0526 13.6629C13.203 14.0894 13.2637 14.5704 13.2637 14.5704Z" stroke="#0B2343" stroke-linecap="round" stroke-linejoin="round"/>
<path d="M11.26 21.9419V16.5857C11.26 16.2507 11.5335 15.9772 11.8685 15.9772H19.4285C19.7635 15.9772 20.037 16.2507 20.037 16.5857V32.7274C20.037 33.0625 19.7635 33.3359 19.4285 33.3359H11.8685C11.5335 33.3359 11.26 33.0625 11.26 32.7274V27.2586" stroke="#0B2343" stroke-linecap="round" stroke-linejoin="round"/>
<path d="M20.0382 18.9216C20.871 19.4932 21.8198 20.8096 21.8154 24.656C21.8119 28.2508 20.8094 29.6341 20.0374 30.1626" stroke="#0B2343" stroke-linecap="round" stroke-linejoin="round"/>
<path d="M12.1741 27.2888H12.0862C11.4443 27.2888 10.9202 26.7638 10.9202 26.1228V23.0793C10.9202 22.4382 11.4443 21.9132 12.0862 21.9132H12.1741C12.8152 21.9132 13.3402 22.4382 13.3402 23.0793V26.1228C13.3402 26.7638 12.8152 27.2888 12.1741 27.2888Z" stroke="#0B2343" stroke-linecap="round" stroke-linejoin="round"/>
<path d="M10.9199 23.1165H13.3408" stroke="#0B2343" stroke-linecap="round" stroke-linejoin="round"/>
</svg>
