<svg width="40" height="40" viewBox="0 0 40 40" fill="none" xmlns="http://www.w3.org/2000/svg">
<path d="M11.51 22.47C10.95 22.72 10.5599 23.28 10.5599 23.94C10.5599 24.83 11.2699 25.55 12.1599 25.55C12.1699 25.55 12.1799 25.55 12.1899 25.55C12.5199 29.78 17.2999 33.35 20.3199 33.35C23.4199 33.35 28.12 29.78 28.45 25.55C28.46 25.55 28.47 25.55 28.48 25.55C29.36 25.55 30.08 24.83 30.08 23.94C30.08 23.29 29.69 22.73 29.13 22.47" stroke="#0B2343" stroke-linecap="round" stroke-linejoin="round"/>
<path d="M13.7 23.09C13.7 23.09 12.83 21.88 11.5 22.47" stroke="#0B2343" stroke-miterlimit="10" stroke-linecap="round" stroke-linejoin="round"/>
<path d="M26.96 23.09C26.96 23.09 27.8299 21.88 29.1599 22.47" stroke="#0B2343" stroke-miterlimit="10" stroke-linecap="round" stroke-linejoin="round"/>
<path d="M27.9099 17.24C25.6699 18.18 23.5799 18.62 20.3199 18.62C17.0599 18.62 14.5199 18.05 12.2799 17.11" stroke="#0B2343" stroke-linecap="round" stroke-linejoin="round"/>
<path d="M7.91992 13.15V16.83" stroke="#0B2343" stroke-miterlimit="10" stroke-linecap="round" stroke-linejoin="round"/>
<path d="M9.26001 18.89C9.26001 19.2 8.95997 19.44 8.58997 19.44H7.26001C6.89001 19.44 6.58997 19.19 6.58997 18.89L6.90991 17.3799C6.90991 17.0699 7.20996 16.83 7.57996 16.83H8.2699C8.6399 16.83 8.93994 17.0799 8.93994 17.3799L9.26001 18.89Z" stroke="#0B2343" stroke-miterlimit="10" stroke-linecap="round" stroke-linejoin="round"/>
<path d="M6 10.24L20.46 7L34.84 10.24L20.46 14.15L6 10.24Z" stroke="#0B2343" stroke-miterlimit="10" stroke-linecap="round" stroke-linejoin="round"/>
<path d="M28.23 22.32L27.62 12.23" stroke="#0B2343" stroke-miterlimit="10" stroke-linecap="round" stroke-linejoin="round"/>
<path d="M12.61 12.03L11.9299 22.31" stroke="#0B2343" stroke-miterlimit="10" stroke-linecap="round" stroke-linejoin="round"/>
<path d="M6 10.24H19.75" stroke="#0B2343" stroke-miterlimit="10" stroke-linecap="round" stroke-linejoin="round"/>
<path d="M18.96 23.29C18.96 24.63 17.8799 25.72 16.5499 25.72C15.2199 25.72 14.14 24.63 14.14 23.29C14.14 21.95 15.2199 20.86 16.5499 20.86C17.8799 20.87 18.96 21.95 18.96 23.29Z" stroke="#0B2343" stroke-miterlimit="10" stroke-linecap="round" stroke-linejoin="round"/>
<path d="M26.5 23.29C26.5 24.63 25.42 25.72 24.09 25.72C22.76 25.72 21.6799 24.63 21.6799 23.29C21.6799 21.95 22.76 20.86 24.09 20.86C25.42 20.87 26.5 21.95 26.5 23.29Z" stroke="#0B2343" stroke-miterlimit="10" stroke-linecap="round" stroke-linejoin="round"/>
<path d="M18.96 23.29C18.96 22.53 19.5699 21.92 20.3199 21.92C21.0699 21.92 21.6799 22.53 21.6799 23.29" stroke="#0B2343" stroke-miterlimit="10" stroke-linecap="round" stroke-linejoin="round"/>
<path d="M18.2899 28.41C18.2899 28.41 20.1399 30.32 22.0399 28.41" stroke="#0B2343" stroke-linecap="round" stroke-linejoin="round"/>
</svg>
