<svg viewBox="0 0 40 40" fill="none" xmlns="http://www.w3.org/2000/svg">
<path d="M31.4176 9.41122C26.7976 5.21122 11.94 9.6913 10.4438 15.8426C10.4438 15.8426 9.68252 19.9813 14.285 16.3151C14.2588 16.2888 14.2851 16.2888 14.3463 16.2976C14.3901 15.3701 14.7838 14.1625 16.2188 12.99C16.2188 12.99 15.5713 15.0376 15.5538 16.5601C17.1026 16.8226 19.29 17.1726 20.5238 14.3901L20.3926 10.8463L22.1339 13.7599C24.7064 15.3699 26.4563 13.9439 27.5938 12.8589C26.7276 11.6076 25.0388 10.2775 25.0388 10.2775C26.8763 10.4437 27.8913 11.2226 28.4426 11.9664C28.4951 11.9139 28.5125 11.9051 28.5038 11.9401C34.3663 12.4126 31.4176 9.41122 31.4176 9.41122Z" stroke="#0B2343" stroke-width="0.875" stroke-miterlimit="10" stroke-linecap="round" stroke-linejoin="round"/>
<path d="M22.125 16.5076L26.5962 31.0675" stroke="#0B2343" stroke-width="0.875" stroke-miterlimit="10" stroke-linecap="round" stroke-linejoin="round"/>
<path d="M7.25 19.4387L22.3175 31.0675" stroke="#0B2343" stroke-width="0.875" stroke-miterlimit="10" stroke-linecap="round" stroke-linejoin="round"/>
<path d="M16.28 28.7664L8.58008 31.0675" stroke="#0B2343" stroke-width="0.875" stroke-miterlimit="10" stroke-linecap="round" stroke-linejoin="round"/>
<path d="M7.25 19.4387C13.4275 34.3487 22.4837 26.9113 22.4837 26.9113" stroke="#0B2343" stroke-width="0.875" stroke-miterlimit="10" stroke-linecap="round" stroke-linejoin="round"/>
<path d="M19.2812 7.25L19.7537 8.76373" stroke="#0B2343" stroke-width="0.875" stroke-miterlimit="10" stroke-linecap="round" stroke-linejoin="round"/>
</svg>
