<svg width="40" height="40" viewBox="0 0 40 40" fill="none" xmlns="http://www.w3.org/2000/svg">
<path d="M21.2908 12.8708C20.9908 11.2608 20.5608 9.39084 20.0408 8.61084C20.0408 8.61084 17.0707 10.4509 16.2407 14.0309C16.2407 14.0309 11.4708 9.82086 8.77075 10.7609C8.77075 10.7609 9.7107 16.8508 12.0907 18.0808C12.0907 18.0808 8.29078 18.4609 6.67078 21.5309C6.67078 21.5309 11.3208 23.7808 13.1508 23.3708C13.1508 23.3708 10.7608 24.8108 10.6808 26.4808C10.6808 26.4808 15.4108 28.0009 18.6808 24.4109" stroke="#0B2343" stroke-linecap="round" stroke-linejoin="round"/>
<path d="M19.9707 17.0309C19.8707 16.8109 19.7907 16.5709 19.7407 16.3209C19.3907 14.5509 20.5408 12.8309 22.3108 12.4809C24.0108 12.1409 25.6607 13.1909 26.1007 14.8409" stroke="#0B2343" stroke-linecap="round" stroke-linejoin="round"/>
<path d="M25.7907 17.8707C25.7207 17.6907 25.6507 17.4906 25.6107 17.2906C25.2607 15.5206 26.4108 13.8007 28.1808 13.4507C29.9508 13.1007 31.6707 14.2507 32.0207 16.0207C32.1907 16.8607 31.8807 17.7007 31.4607 18.3807" stroke="#0B2343" stroke-linecap="round" stroke-linejoin="round"/>
<path d="M19.3008 23.5408C17.9708 23.3408 16.8508 22.3408 16.5708 20.9408C16.2208 19.1708 17.3707 17.4508 19.1407 17.1008C20.6007 16.8108 22.0308 17.5508 22.6808 18.8108" stroke="#0B2343" stroke-linecap="round" stroke-linejoin="round"/>
<path d="M26.8808 29.5508C26.9608 29.7508 27.0807 30.0208 27.1207 30.2408C27.4707 32.0108 26.3208 33.7308 24.5508 34.0808C22.7808 34.4308 21.0607 33.2809 20.7107 31.5109C20.5407 30.6409 20.7707 29.7508 21.2207 29.0608" stroke="#0B2343" stroke-linecap="round" stroke-linejoin="round"/>
<path d="M24.4507 27.501C23.9907 28.281 23.2207 28.831 22.2707 29.021C20.5007 29.371 18.7808 28.2209 18.4308 26.4509C18.0808 24.6809 19.2307 22.961 21.0007 22.611C21.4107 22.531 21.8207 22.541 22.2007 22.601" stroke="#0B2343" stroke-linecap="round" stroke-linejoin="round"/>
<path d="M28.0308 19.7508C28.5008 19.0608 29.2207 18.5408 30.1007 18.3608C31.8707 18.0108 33.5908 19.1608 33.9408 20.9308C34.2908 22.7008 33.1407 24.4209 31.3707 24.7709C31.0407 24.8309 30.7208 24.8808 30.4008 24.8508" stroke="#0B2343" stroke-linecap="round" stroke-linejoin="round"/>
<path d="M27.6008 23.0808C29.0808 23.1308 30.4007 24.1908 30.7007 25.7108C31.0507 27.4808 29.9008 29.2008 28.1308 29.5508C26.3608 29.9008 24.6408 28.7508 24.2908 26.9808C24.1008 26.0008 24.3608 25.0408 24.9408 24.3208" stroke="#0B2343" stroke-linecap="round" stroke-linejoin="round"/>
<path d="M28.2507 20.4208C28.6007 22.1908 27.4508 23.9108 25.6808 24.2608C23.9108 24.6108 22.1907 23.4608 21.8407 21.6908C21.4907 19.9208 22.6407 18.2008 24.4107 17.8508C26.1807 17.5008 27.9007 18.6508 28.2507 20.4208Z" stroke="#0B2343" stroke-linecap="round" stroke-linejoin="round"/>
<path d="M26.6207 11.7907C26.6207 11.7907 26.6907 9.92076 27.1307 8.32076C27.5807 6.71076 28.3907 5.36076 29.7307 6.32076C31.4307 7.60076 30.3007 9.07074 29.3607 9.05074" stroke="#0B2343" stroke-linecap="round" stroke-linejoin="round"/>
</svg>
