<svg width="40" height="40" viewBox="0 0 40 40" fill="none" xmlns="http://www.w3.org/2000/svg">
<path d="M14.86 12.9799C14.86 14.0099 14.03 14.84 13 14.84C11.97 14.84 11.14 14.0099 11.14 12.9799C11.14 11.9499 11.97 11.12 13 11.12C14.02 11.11 14.86 11.9499 14.86 12.9799Z" stroke="#0B2343" stroke-miterlimit="10" stroke-linecap="round" stroke-linejoin="round"/>
<path d="M14.86 20.4799C14.86 21.5099 14.03 22.34 13 22.34C11.97 22.34 11.14 21.5099 11.14 20.4799C11.14 19.4499 11.97 18.62 13 18.62C14.02 18.61 14.86 19.4499 14.86 20.4799Z" stroke="#0B2343" stroke-miterlimit="10" stroke-linecap="round" stroke-linejoin="round"/>
<path d="M14.86 27.9799C14.86 29.0099 14.03 29.84 13 29.84C11.97 29.84 11.14 29.0099 11.14 27.9799C11.14 26.9499 11.97 26.12 13 26.12C14.02 26.11 14.86 26.9499 14.86 27.9799Z" stroke="#0B2343" stroke-miterlimit="10" stroke-linecap="round" stroke-linejoin="round"/>
<path d="M22.36 12.98C22.36 14.01 21.53 14.84 20.5 14.84C19.47 14.84 18.64 14.01 18.64 12.98C18.64 11.95 19.47 11.12 20.5 11.12C21.53 11.12 22.36 11.95 22.36 12.98Z" stroke="#0B2343" stroke-miterlimit="10" stroke-linecap="round" stroke-linejoin="round"/>
<path d="M22.36 20.48C22.36 21.51 21.53 22.34 20.5 22.34C19.47 22.34 18.64 21.51 18.64 20.48C18.64 19.45 19.47 18.62 20.5 18.62C21.53 18.62 22.36 19.45 22.36 20.48Z" stroke="#0B2343" stroke-miterlimit="10" stroke-linecap="round" stroke-linejoin="round"/>
<path d="M22.36 27.98C22.36 29.01 21.53 29.84 20.5 29.84C19.47 29.84 18.64 29.01 18.64 27.98C18.64 26.95 19.47 26.12 20.5 26.12C21.53 26.12 22.36 26.95 22.36 27.98Z" stroke="#0B2343" stroke-miterlimit="10" stroke-linecap="round" stroke-linejoin="round"/>
<path d="M29.86 12.98C29.86 14.01 29.03 14.84 28 14.84C26.97 14.84 26.14 14.01 26.14 12.98C26.14 11.95 26.97 11.12 28 11.12C29.03 11.12 29.86 11.95 29.86 12.98Z" stroke="#0B2343" stroke-miterlimit="10" stroke-linecap="round" stroke-linejoin="round"/>
<path d="M29.86 20.48C29.86 21.51 29.03 22.34 28 22.34C26.97 22.34 26.14 21.51 26.14 20.48C26.14 19.45 26.97 18.62 28 18.62C29.03 18.62 29.86 19.45 29.86 20.48Z" stroke="#0B2343" stroke-miterlimit="10" stroke-linecap="round" stroke-linejoin="round"/>
<path d="M29.86 27.98C29.86 29.01 29.03 29.84 28 29.84C26.97 29.84 26.14 29.01 26.14 27.98C26.14 26.95 26.97 26.12 28 26.12C29.03 26.12 29.86 26.95 29.86 27.98Z" stroke="#0B2343" stroke-miterlimit="10" stroke-linecap="round" stroke-linejoin="round"/>
<path d="M32 35H9C7.34 35 6 33.66 6 32V9C6 7.34 7.34 6 9 6H32C33.66 6 35 7.34 35 9V32C35 33.65 33.66 35 32 35Z" stroke="#0B2343" stroke-miterlimit="10" stroke-linecap="round" stroke-linejoin="round"/>
</svg>
