<svg width="40" height="40" viewBox="0 0 40 40" fill="none" xmlns="http://www.w3.org/2000/svg">
<path d="M23.0072 24.7C24.4372 22.89 24.4372 20.2901 22.9872 18.4901C21.0772 16.1101 17.5972 15.9701 15.4972 18.0601C14.2172 19.3401 14.2572 21.1901 12.2772 21.0401C10.5472 20.9101 8.85719 21.43 7.63719 22.65C5.18719 25.09 5.52719 29.3801 8.38719 32.2401C11.2472 35.1001 15.5572 35.4301 17.9972 32.9901C19.2072 31.7801 19.7372 30.12 19.6172 28.4C19.4672 26.18 21.4972 26.6 23.0072 24.7Z" stroke="#0B2343" stroke-miterlimit="10" stroke-linecap="round" stroke-linejoin="round"/>
<path d="M23.3273 18.8302L31.8373 10.3502L32.0873 10.6002L34.4272 8.27014C34.7672 7.93014 34.7672 7.38017 34.4272 7.05017L33.6672 6.29016C33.3272 5.95016 32.7773 5.95016 32.4373 6.29016L30.0973 8.62023L30.3473 8.87023L21.8373 17.3502" stroke="#0B2343" stroke-miterlimit="10" stroke-linecap="round" stroke-linejoin="round"/>
<path d="M18.9373 24.86C18.0673 25.73 16.6472 25.73 15.7672 24.86C14.8972 23.99 14.8972 22.5699 15.7672 21.6999C16.6372 20.8299 18.0573 20.8299 18.9373 21.6999C19.8073 22.5699 19.8073 23.99 18.9373 24.86Z" stroke="#0B2343" stroke-miterlimit="10" stroke-linecap="round" stroke-linejoin="round"/>
<path d="M10.9872 26.47L14.1472 29.6301" stroke="#0B2343" stroke-miterlimit="10" stroke-linecap="round" stroke-linejoin="round"/>
<path d="M30.3473 8.86011L31.8273 10.3401" stroke="#0B2343" stroke-miterlimit="10" stroke-linecap="round" stroke-linejoin="round"/>
<path d="M32.9473 9.72998L33.3972 10.1799" stroke="#0B2343" stroke-miterlimit="10" stroke-linecap="round" stroke-linejoin="round"/>
<path d="M30.5072 7.30005L30.9673 7.75" stroke="#0B2343" stroke-miterlimit="10" stroke-linecap="round" stroke-linejoin="round"/>
<path d="M34.2472 8.42993L34.6973 8.89014" stroke="#0B2343" stroke-miterlimit="10" stroke-linecap="round" stroke-linejoin="round"/>
<path d="M31.8073 6L32.2572 6.45996" stroke="#0B2343" stroke-miterlimit="10" stroke-linecap="round" stroke-linejoin="round"/>
</svg>
