<svg width="40" height="40" viewBox="0 0 40 40" fill="none" xmlns="http://www.w3.org/2000/svg">
<path d="M14.0499 19.99H26.96" stroke="#0B2343" stroke-miterlimit="10" stroke-linecap="round" stroke-linejoin="round"/>
<path d="M9 24C9 24.55 8.55 25 8 25H7C6.45 25 6 24.55 6 24V16C6 15.45 6.45 15 7 15H8C8.55 15 9 15.45 9 16V24Z" stroke="#0B2343" stroke-miterlimit="10" stroke-linecap="round" stroke-linejoin="round"/>
<path d="M12 27C12 27.55 11.55 28 11 28H10C9.45 28 9 27.55 9 27V13C9 12.45 9.45 12 10 12H11C11.55 12 12 12.45 12 13V27Z" stroke="#0B2343" stroke-miterlimit="10" stroke-linecap="round" stroke-linejoin="round"/>
<path d="M32 16C32 15.45 32.45 15 33 15H34C34.55 15 35 15.45 35 16V24C35 24.55 34.55 25 34 25H33C32.45 25 32 24.55 32 24V16Z" stroke="#0B2343" stroke-miterlimit="10" stroke-linecap="round" stroke-linejoin="round"/>
<path d="M29 13C29 12.45 29.45 12 30 12H31C31.55 12 32 12.45 32 13V27C32 27.55 31.55 28 31 28H30C29.45 28 29 27.55 29 27V13Z" stroke="#0B2343" stroke-miterlimit="10" stroke-linecap="round" stroke-linejoin="round"/>
</svg>
