<svg width="40" height="40" viewBox="0 0 40 40" fill="none" xmlns="http://www.w3.org/2000/svg">
<path d="M14.8321 26.0008C11.7381 25.2783 8.1001 21.6064 8.1001 16.9909C8.1001 12.1799 12.1631 8.09998 16.4811 8.09998H24.3861C28.7041 8.09998 32.6056 12.2225 32.6056 17.042C32.6056 21.8105 28.7041 25.984 24.3861 25.984H21.8956L14.8236 32.0614V26.0008H14.8321Z" stroke="#0B2343" stroke-miterlimit="10" stroke-linecap="round" stroke-linejoin="round"/>
<path d="M15.75 17.042C15.75 17.994 14.9765 18.759 14.016 18.759C13.0555 18.759 12.282 17.9855 12.282 17.042C12.282 16.0985 13.0555 15.325 14.016 15.325C14.9765 15.325 15.75 16.09 15.75 17.042Z" stroke="#0B2343" stroke-miterlimit="10" stroke-linecap="round" stroke-linejoin="round"/>
<path d="M21.7002 17.042C21.7002 17.994 20.9267 18.759 19.9662 18.759C19.0057 18.759 18.2322 17.9855 18.2322 17.042C18.2322 16.0985 19.0057 15.325 19.9662 15.325C20.9267 15.325 21.7002 16.09 21.7002 17.042Z" stroke="#0B2343" stroke-miterlimit="10" stroke-linecap="round" stroke-linejoin="round"/>
<path d="M27.6501 17.042C27.6501 17.994 26.8766 18.759 25.9161 18.759C24.9556 18.759 24.1821 17.9855 24.1821 17.042C24.1821 16.0985 24.9556 15.325 25.9161 15.325C26.8766 15.325 27.6501 16.09 27.6501 17.042Z" stroke="#0B2343" stroke-miterlimit="10" stroke-linecap="round" stroke-linejoin="round"/>
</svg>
