<svg width="40" height="40" viewBox="0 0 40 40" fill="none" xmlns="http://www.w3.org/2000/svg">
<path d="M31.9203 17.308C31.9203 11.6161 26.4266 7.00024 19.6492 7.00024C12.8718 7.00024 7.37811 11.6161 7.37811 17.308H31.9203Z" stroke="#0B2343" stroke-linecap="round" stroke-linejoin="round"/>
<path d="M31.9203 28.6538H7.37811V29.0596C7.37811 30.872 8.75626 32.3445 10.4553 32.3445H28.843C30.5421 32.3445 31.9203 30.872 31.9203 29.0596V28.6538Z" stroke="#0B2343" stroke-linecap="round" stroke-linejoin="round"/>
<path d="M33.2985 26.0582C33.2985 25.4257 32.7887 24.9065 32.1657 24.9065H7.13267C6.50968 24.9065 6 25.4257 6 26.0582V27.5117C6 28.1442 6.50968 28.6633 7.13267 28.6633H32.1657C32.7887 28.6633 33.2985 28.1442 33.2985 27.5117V26.0582Z" stroke="#0B2343" stroke-linecap="round" stroke-linejoin="round"/>
<path d="M32.6565 20.3852L30.5138 22.0842L28.3145 20.3379L26.1151 22.0842L23.9063 20.3379L21.773 22.037L19.5737 20.2812L17.3649 22.037L15.1655 20.2812L15.1373 20.319L13.004 22.0181L10.7951 20.2625L8.5958 22.0181L6.39648 20.2625" stroke="#0B2343" stroke-linecap="round" stroke-linejoin="round"/>
<path d="M16.5909 10.5021H16.9024" stroke="#0B2343" stroke-linecap="round" stroke-linejoin="round"/>
<path d="M20.1022 12.7205H20.4233" stroke="#0B2343" stroke-linecap="round" stroke-linejoin="round"/>
<path d="M22.4619 10.5021H22.783" stroke="#0B2343" stroke-linecap="round" stroke-linejoin="round"/>
</svg>
