<svg width="40" height="40" viewBox="0 0 40 40" fill="none" xmlns="http://www.w3.org/2000/svg">
<path d="M34.5599 10.97H11.47L15.25 7H30.8199L34.5599 10.97Z" stroke="#0B2343" stroke-miterlimit="10" stroke-linecap="round" stroke-linejoin="round"/>
<path d="M13.99 13.5L11.47 15.97H34.5599L32.0599 13.5" stroke="#0B2343" stroke-miterlimit="10" stroke-linecap="round" stroke-linejoin="round"/>
<path d="M13.99 18.49L11.47 20.97H34.5599L32.0599 18.49" stroke="#0B2343" stroke-miterlimit="10" stroke-linecap="round" stroke-linejoin="round"/>
<path d="M11 26.46C13.63 26.07 17.0599 25.77 19.1599 26.43L26.0299 28.6C27.9899 29.22 27.1199 32.41 25.1599 31.79L17.9399 29.52" stroke="#0B2343" stroke-linecap="round" stroke-linejoin="round"/>
<path d="M27.0099 29.53L32.36 26.91C34.3 25.96 35.5199 29.02 33.6899 29.92C25.5599 33.9 26.2 33.92 22.97 33.92C21.1 33.92 18.3199 33.6 14.7699 31.9C14.0299 31.55 12.47 31.81 11 32.23" stroke="#0B2343" stroke-linecap="round" stroke-linejoin="round"/>
<path d="M11 24.99H6V33.99H11V24.99Z" stroke="#0B2343" stroke-linecap="round" stroke-linejoin="round"/>
</svg>
