<svg width="40" height="40" viewBox="0 0 40 40" fill="none" xmlns="http://www.w3.org/2000/svg">
<path d="M19.05 12.29C19.91 12.89 21.42 14.4 22.01 15.83C22.95 18.11 22.81 20.59 20.08 19.42C19.85 19.32 19.6699 19.13 19.5899 18.9L17.92 14.04C17.22 11.93 14.07 12.98 14.79 15.17L17.18 22.4C17.56 23.55 19.48 26.74 22.06 29.44" stroke="#0B2343" stroke-linecap="round" stroke-linejoin="round"/>
<path d="M28.8526 24.7211L20.7687 30.2969L23.7497 34.6187L31.8335 29.0429L28.8526 24.7211Z" stroke="#0B2343" stroke-linecap="round" stroke-linejoin="round"/>
<path d="M15.33 16.8C14.8 16.97 14.13 17.1 13.55 17.1C10.48 17.1 8 14.61 8 11.55C8 8.48002 10.49 6 13.55 6C16.62 6 19.1 8.49002 19.1 11.55C19.1 12.62 18.65 13.78 18.12 14.63" stroke="#0B2343" stroke-linecap="round" stroke-linejoin="round"/>
<path d="M17.57 7.71997C17.57 7.71997 27.08 10.9 27.02 18.47C26.96 26.04 27.42 25.73 27.42 25.73" stroke="#0B2343" stroke-linecap="round" stroke-linejoin="round"/>
</svg>
