<svg width="40" height="40" viewBox="0 0 40 40" fill="none" xmlns="http://www.w3.org/2000/svg">
<path d="M26.6929 24.5154L23.3113 21.6891" stroke="#0B2343" stroke-linecap="round" stroke-linejoin="round"/>
<path d="M23.5887 26.2443L20.8381 23.9857" stroke="#0B2343" stroke-miterlimit="10" stroke-linecap="round" stroke-linejoin="round"/>
<path d="M8.54858 20.2887C9.53276 23.1024 17.4188 29.1967 17.4188 29.1967C19.3241 30.8118 21.0401 28.3514 19.4755 27.0265L18.2767 25.8657" stroke="#0B2343" stroke-linecap="round" stroke-linejoin="round"/>
<path d="M18.277 25.8655L21.5449 28.7044C23.425 30.2943 25.2546 27.695 23.7027 26.3828L24.5228 27.0768C26.1631 28.4647 28.3207 25.9033 26.693 24.5154L26.8192 24.6289C28.4595 26.0169 30.617 23.4555 28.9894 22.0676L20.9141 15.4812C20.9141 15.4812 19.3621 16.0742 18.7565 15.9101C18.7565 15.9101 16.4349 19.4809 14.7315 18.2318C13.0281 16.9953 14.7314 11.7085 19.5135 10.964C19.5135 10.964 21.6585 10.3458 26.9327 13.0712L28.8885 12.4781" stroke="#0B2343" stroke-linecap="round" stroke-linejoin="round"/>
<path d="M5.35579 9.99991L2 21.8492L7.73041 23.4721L11.0862 11.6228L5.35579 9.99991Z" stroke="#0B2343" stroke-linecap="round" stroke-linejoin="round"/>
<path d="M34.6442 10.3288L28.9138 11.9517L32.2696 23.801L38 22.1781L34.6442 10.3288Z" stroke="#0B2343" stroke-linecap="round" stroke-linejoin="round"/>
<path d="M10.7694 12.4531C10.7694 12.4531 11.047 11.9484 17.1161 11.8223" stroke="#0B2343" stroke-linecap="round" stroke-linejoin="round"/>
<path d="M29.5065 22.9131C29.5065 22.9131 31.0079 23.3042 31.8028 22.3958" stroke="#0B2343" stroke-linecap="round" stroke-linejoin="round"/>
</svg>
