<svg width="40" height="40" viewBox="0 0 40 40" fill="none" xmlns="http://www.w3.org/2000/svg">
<path d="M14.3245 16.0613C14.3245 16.0613 14.4737 6.02441 19.5706 5.99998C24.829 5.97556 24.8168 16.0657 24.8168 16.0657" stroke="#0B2343" stroke-linecap="round" stroke-linejoin="round"/>
<path d="M16.0485 14.1575C16.517 12.2642 17.7533 6.01648 21.0111 6.00078C24.3797 5.9842 25.5854 12.2555 26.0173 14.1619" stroke="#0B2343" stroke-linecap="round" stroke-linejoin="round"/>
<path d="M32.8386 33.0002H7.12781C5.40817 33.0002 4 31.1829 4 28.9607L6.57117 18.197C6.89224 16.0246 7.97847 14.1575 9.69898 14.1575H30.2675C31.988 14.1575 33.1649 16.0874 33.3953 18.197L35.9664 28.9607C35.9664 31.1829 34.5591 33.0002 32.8386 33.0002Z" stroke="#0B2343" stroke-linecap="round" stroke-linejoin="round"/>
<path d="M14.4751 17.6157H14.1732C13.8731 17.6157 13.6279 17.3706 13.6279 17.0704V15.8926C13.6279 15.5925 13.8731 15.3473 14.1732 15.3473H14.4751C14.7752 15.3473 15.0204 15.5925 15.0204 15.8926V17.0704C15.0204 17.3706 14.7752 17.6157 14.4751 17.6157Z" stroke="#0B2343" stroke-linecap="round" stroke-linejoin="round"/>
<path d="M24.9683 17.6157H24.6664C24.3663 17.6157 24.1211 17.3706 24.1211 17.0704V15.8926C24.1211 15.5925 24.3663 15.3473 24.6664 15.3473H24.9683C25.2684 15.3473 25.5136 15.5925 25.5136 15.8926V17.0704C25.5136 17.3706 25.2684 17.6157 24.9683 17.6157Z" stroke="#0B2343" stroke-linecap="round" stroke-linejoin="round"/>
<path d="M8.31654 17.0342C8.31654 17.0342 9.68806 23.3719 5.53162 29.0159" stroke="#0B2343" stroke-linecap="round" stroke-linejoin="round"/>
<path d="M31.715 17.0342C31.715 17.0342 30.3434 23.3719 34.4999 29.0159" stroke="#0B2343" stroke-linecap="round" stroke-linejoin="round"/>
</svg>
