<svg width="100" height="100" viewBox="0 0 100 100" fill="none" xmlns="http://www.w3.org/2000/svg">
<path d="M51.6998 39.675C45.2498 39.275 40.0247 33.9 40.0247 27.35C40.0247 20.525 45.5499 15 52.3749 15C59.1999 15 64.7247 20.525 64.7247 27.35C64.7247 30.2 63.775 32.975 62.15 35.075" stroke="#007CC2" stroke-width="2" stroke-miterlimit="10" stroke-linecap="round" stroke-linejoin="round"/>
<path d="M73.6749 47.375C73.6749 54.2 68.1498 59.725 61.3248 59.725C54.4998 59.725 48.9749 54.2 48.9749 47.375C48.9749 40.55 54.4998 35.025 61.3248 35.025C68.1498 35.025 73.6749 40.575 73.6749 47.375Z" stroke="#007CC2" stroke-width="2" stroke-miterlimit="10" stroke-linecap="round" stroke-linejoin="round"/>
<path d="M56.9748 52.15C58.1498 53.175 59.95 53.925 61.25 53.925C63.325 53.925 65.0247 52.45 65.0247 50.625C65.0247 48.8 63.225 47.9 61.25 47.325C59.2 46.675 57.475 45.85 57.475 44.025C57.475 42.2 59.175 40.725 61.25 40.725C62.65 40.725 63.8748 41.4 64.5248 42.4" stroke="#007CC2" stroke-width="2" stroke-miterlimit="10" stroke-linecap="round" stroke-linejoin="round"/>
<path d="M61.25 38.925V40.7251" stroke="#007CC2" stroke-width="2" stroke-miterlimit="10" stroke-linecap="round" stroke-linejoin="round"/>
<path d="M61.25 53.925V55.75" stroke="#007CC2" stroke-width="2" stroke-miterlimit="10" stroke-linecap="round" stroke-linejoin="round"/>
<path d="M48.8248 31.5C49.8248 32.375 51.375 33.025 52.5 33.025C54.275 33.025 55.7248 31.75 55.7248 30.2C55.7248 28.65 54.175 27.875 52.5 27.375C50.75 26.825 49.2749 26.1 49.2749 24.55C49.2749 23 50.725 21.725 52.5 21.725C53.7 21.725 54.75 22.3 55.3 23.15" stroke="#007CC2" stroke-width="2" stroke-miterlimit="10" stroke-linecap="round" stroke-linejoin="round"/>
<path d="M52.5 20.15V21.7" stroke="#007CC2" stroke-width="2" stroke-miterlimit="10" stroke-linecap="round" stroke-linejoin="round"/>
<path d="M52.5 33.025V34.575" stroke="#007CC2" stroke-width="2" stroke-miterlimit="10" stroke-linecap="round" stroke-linejoin="round"/>
<path d="M27.5 68.375C34.075 67.4 42.6498 66.65 47.8998 68.3L65.0748 73.725C69.9748 75.275 67.7998 83.25 62.8998 81.7L44.8499 76.025" stroke="#007CC2" stroke-width="2" stroke-linecap="round" stroke-linejoin="round"/>
<path d="M67.5247 76.0499L80.9 69.4999C85.75 67.1249 88.7998 74.7749 84.2248 77.0249C63.8998 86.9749 65.4999 87.0249 57.4249 87.0249C52.7499 87.0249 45.7997 86.225 36.9247 81.975C35.0747 81.1 31.175 81.7499 27.5 82.7999" stroke="#007CC2" stroke-width="2" stroke-linecap="round" stroke-linejoin="round"/>
<path d="M27.5 64.7H15V87.2H27.5V64.7Z" stroke="#007CC2" stroke-width="2" stroke-linecap="round" stroke-linejoin="round"/>
</svg>
