<svg width="40" height="40" viewBox="0 0 40 40" fill="none" xmlns="http://www.w3.org/2000/svg">
<path d="M33.6125 17.98H13.6525" stroke="#0B2343" stroke-linecap="round" stroke-linejoin="round"/>
<path d="M32.3325 13.8699H14.9425" stroke="#0B2343" stroke-linecap="round" stroke-linejoin="round"/>
<path d="M33.0925 21.4099C33.4225 20.4699 33.6025 19.4699 33.6025 18.4299C33.6025 13.2499 29.1925 9.05 23.7325 9C26.4625 9.05 28.6725 13.2499 28.6725 18.4299C28.6725 20.0199 28.4625 21.5098 28.0925 22.8298" stroke="#0B2343" stroke-linecap="round" stroke-linejoin="round"/>
<path d="M23.6325 9C23.6125 9 23.5925 9 23.5725 9C20.8325 9.03 18.6125 13.2399 18.6125 18.4299C18.6125 19.4299 18.6925 20.3798 18.8425 21.2898" stroke="#0B2343" stroke-linecap="round" stroke-linejoin="round"/>
<path d="M28.1025 22.8298C28.4725 21.5198 28.6825 20.0199 28.6825 18.4299C28.6825 13.2499 26.4725 9.05 23.7425 9C23.7025 9 23.6725 9 23.6325 9V22.3398" stroke="#0B2343" stroke-linecap="round" stroke-linejoin="round"/>
<path d="M18.8525 21.2898C18.7025 20.3898 18.6225 19.4299 18.6225 18.4299C18.6225 13.2399 20.8425 9.03 23.5825 9C18.1025 9.03 13.6625 13.2399 13.6625 18.4299C13.6625 19.2399 13.7825 20.0198 13.9825 20.7698" stroke="#0B2343" stroke-linecap="round" stroke-linejoin="round"/>
<path d="M26.6525 27.4599L32.0025 24.8398C33.9425 23.8898 35.1625 26.9498 33.3325 27.8498C25.2025 31.8298 25.8425 31.8498 22.6125 31.8498C20.7425 31.8498 17.9625 31.5298 14.4125 29.8298C13.3025 29.2998 11.1725 30.1599 8.58246 30.8699C7.77246 31.0899 6.94246 30.5699 6.71246 29.6999C6.55246 29.0699 5.90246 26.9098 6.01246 26.3298C6.14246 25.6198 6.66246 25.11 7.28246 25C9.32246 24.65 15.5125 23.3299 18.8025 24.3699L25.6725 26.5398C27.6325 27.1598 26.7625 30.35 24.8025 29.73L17.5825 27.4599" stroke="#0B2343" stroke-linecap="round" stroke-linejoin="round"/>
</svg>
