<svg width="40" height="40" viewBox="0 0 40 40" fill="none" xmlns="http://www.w3.org/2000/svg">
<path d="M26.6525 27.5661L32.0025 24.946C33.9425 23.996 35.1625 27.056 33.3325 27.956C25.2025 31.936 25.8425 31.956 22.6125 31.956C20.7425 31.956 17.9625 31.636 14.4125 29.936C13.3025 29.406 11.1725 30.2661 8.58247 30.9761C7.77247 31.1961 6.94247 30.6761 6.71247 29.8061C6.55247 29.1761 5.90246 27.016 6.01246 26.436C6.14246 25.726 6.66248 25.2162 7.28248 25.1062C9.32248 24.7562 15.5124 23.4361 18.8024 24.4761L25.6725 26.646C27.6325 27.266 26.7624 30.4562 24.8024 29.8362L17.5825 27.5661" stroke="#0B2343" stroke-linecap="round" stroke-linejoin="round"/>
<path d="M30.2825 16.0863C26.7925 11.8963 20.9224 11.9063 17.4324 16.0863" stroke="#0B2343" stroke-miterlimit="10" stroke-linecap="round" stroke-linejoin="round"/>
<path d="M33.4025 12.5863C28.1925 6.47625 19.5424 6.46625 14.3224 12.5863" stroke="#0B2343" stroke-miterlimit="10" stroke-linecap="round" stroke-linejoin="round"/>
<path d="M20.5524 19.5862C22.3124 17.3362 25.4125 17.3362 27.1725 19.5862" stroke="#0B2343" stroke-miterlimit="10" stroke-linecap="round" stroke-linejoin="round"/>
</svg>
