<svg width="40" height="40" viewBox="0 0 40 40" fill="none" xmlns="http://www.w3.org/2000/svg">
<path d="M26.5761 13.23L30.0261 10.42C30.8861 9.81005 30.9761 8.50005 30.3461 7.67005C29.7161 6.83005 28.5161 6.65005 27.6561 7.26005L26.5461 8.14005" stroke="#0B2343" stroke-linecap="round" stroke-linejoin="round"/>
<path d="M26.5461 19.0301L31.7061 14.9501C32.5761 14.3501 32.6961 13.0601 32.0861 12.2001C31.4761 11.3501 30.2761 11.1401 29.4061 11.7401L26.5461 13.8201" stroke="#0B2343" stroke-linecap="round" stroke-linejoin="round"/>
<path d="M26.5561 28.69C28.7961 27.45 30.8161 25.92 30.8161 25.92C31.7261 25.27 32.4661 24.53 32.2361 23.52C31.9961 22.51 30.9261 21.93 29.8961 22.16L32.1461 20.75C33.1761 20.01 33.4061 19.01 32.9261 18.09C32.3561 17.14 31.2861 16.79 30.3361 17.26L26.5561 19.69" stroke="#0B2343" stroke-linecap="round" stroke-linejoin="round"/>
<path d="M26.5561 24.26L29.8861 22.16" stroke="#0B2343" stroke-linecap="round" stroke-linejoin="round"/>
<path d="M13.5661 19.26C13.5661 19.26 12.5761 8.49001 8.75612 9.96001C6.69612 10.75 9.59612 19.17 7.56612 24.22C6.04612 27.99 7.37611 33.7 14.1461 34.58C16.0661 34.83 23.4061 31.01 23.4061 31.01" stroke="#0B2343" stroke-linecap="round" stroke-linejoin="round"/>
<path d="M24.4061 6H15.5761C14.4761 6 13.5561 6.96001 13.5561 8.10001V28.94C13.5561 30.08 14.4661 31 15.5761 31H24.4061C25.5061 31 26.4961 30.08 26.4961 28.94V8.10001C26.4961 6.96001 25.5061 6 24.4061 6Z" stroke="#0B2343" stroke-miterlimit="10" stroke-linecap="round" stroke-linejoin="round"/>
<path d="M13.5661 27H26.4961" stroke="#0B2343" stroke-miterlimit="10" stroke-linecap="round" stroke-linejoin="round"/>
<path d="M13.5661 10H26.4961" stroke="#0B2343" stroke-miterlimit="10" stroke-linecap="round" stroke-linejoin="round"/>
</svg>
