<svg width="40" height="40" viewBox="0 0 40 40" fill="none" xmlns="http://www.w3.org/2000/svg">
<path d="M15 7.9502V13.6301C15 14.9601 17.8301 17.73 20.4701 17.73C23.1101 17.73 25.9801 14.9601 25.9801 13.6301V7.9502" stroke="#0B2343" stroke-linecap="round" stroke-linejoin="round"/>
<path d="M25.9801 7.9502C25.9801 9.0302 23.2201 9.90015 20.4701 9.90015C17.7101 9.90015 15 9.0302 15 7.9502C15 6.8702 17.7101 6 20.4701 6C23.2301 6 25.9801 6.8802 25.9801 7.9502Z" stroke="#0B2343" stroke-linecap="round" stroke-linejoin="round"/>
<path d="M20.4701 21.0601V22.3101" stroke="#0B2343" stroke-linecap="round" stroke-linejoin="round"/>
<path d="M22.9601 17L23 33.6702C23 34.2902 21.8901 34.79 20.4701 34.79C19.0501 34.79 17.9701 34.2902 17.9701 33.6702V17" stroke="#0B2343" stroke-linecap="round" stroke-linejoin="round"/>
</svg>
