<svg width="40" height="40" viewBox="0 0 40 40" fill="none" xmlns="http://www.w3.org/2000/svg">
<path d="M20.86 26.51L20.87 28.96L7.01001 28.98L7 6.02002L20.92 6L20.86 18.58" stroke="#0B2343" stroke-miterlimit="10" stroke-linecap="round" stroke-linejoin="round"/>
<path d="M16.74 28.9701C16.74 27.4001 18.54 25.4501 19.93 24.8901" stroke="#0B2343" stroke-miterlimit="10" stroke-linecap="round" stroke-linejoin="round"/>
<path d="M20.86 9.93002C18.8 9.89002 17.06 8.21002 17.06 6.02002" stroke="#0B2343" stroke-miterlimit="10" stroke-linecap="round" stroke-linejoin="round"/>
<path d="M10.67 6.02002C10.71 7.95002 9.08002 9.72 7.02002 9.69" stroke="#0B2343" stroke-miterlimit="10" stroke-linecap="round" stroke-linejoin="round"/>
<path d="M7.04999 25.25C9.11999 25.25 10.8 26.91 10.8 28.97" stroke="#0B2343" stroke-miterlimit="10" stroke-linecap="round" stroke-linejoin="round"/>
<path d="M20.92 14.5801C21.71 15.1301 23.18 16.2901 23.72 17.6001C24.62 19.7901 24.45 22.1801 21.6 20.7301L19.95 15.9401C19.31 14.0001 16.42 15.0001 17.05 16.9001C19.04 22.9101 19.48 25.6101 23.76 30.1001" stroke="#0B2343" stroke-linecap="round" stroke-linejoin="round"/>
<path d="M29.9664 25.808L22.5329 30.9343L25.2692 34.9022L32.7027 29.7758L29.9664 25.808Z" stroke="#0B2343" stroke-linecap="round" stroke-linejoin="round"/>
<path d="M20.92 10.76C22.61 11.47 28.37 14.17 28.33 20.04C28.28 27 28.7 26.71 28.7 26.71" stroke="#0B2343" stroke-linecap="round" stroke-linejoin="round"/>
<path d="M16.46 16.2401C16.19 15.9901 15.88 15.8401 15.51 15.8401C14.62 15.8401 14.18 16.7301 13.9 17.7101C13.59 18.7201 13.18 19.5801 12.29 19.5801C11.4 19.5801 10.68 18.7401 10.68 17.7101C10.68 17.0201 11.01 16.4101 11.49 16.0901" stroke="#0B2343" stroke-miterlimit="10" stroke-linecap="round" stroke-linejoin="round"/>
<path d="M9.92999 17.71H17.31" stroke="#0B2343" stroke-miterlimit="10" stroke-linecap="round" stroke-linejoin="round"/>
</svg>
