<svg xmlns="http://www.w3.org/2000/svg" viewBox="0 0 12.85 27.25"><g id="Layer_2" data-name="Layer 2"><g id="Layer_1-2" data-name="Layer 1"><path d="M5.35,17.56h-5A.35.35,0,0,1,0,17.21V.35A.35.35,0,0,1,.35,0H12.5a.35.35,0,0,1,.35.35V17.18a.35.35,0,0,1-.35.35H7.79a.35.35,0,1,1,0-.7h4.36V.7H.7V16.86H5.35a.35.35,0,0,1,.35.35A.35.35,0,0,1,5.35,17.56Z"/><path d="M5.2,27.14A.37.37,0,0,1,4.9,27a6.42,6.42,0,0,1,.2-7.2V15.42a1.56,1.56,0,0,1,2.54-1.07,1.35,1.35,0,0,1,.5,1.07v4.24a.35.35,0,0,1-.7,0V15.42a.64.64,0,0,0-.24-.53.91.91,0,0,0-.58-.18.74.74,0,0,0-.82.71V19.9a.35.35,0,0,1-.08.22A5.6,5.6,0,0,0,5.5,26.6a.37.37,0,0,1-.11.49A.41.41,0,0,1,5.2,27.14Z"/><path d="M9.55,27.25H9.5a.34.34,0,0,1-.3-.39,20.33,20.33,0,0,1,1-4.13c1.32-3.61.71-5.41.7-5.43a.36.36,0,0,1,.21-.45.35.35,0,0,1,.45.21c0,.08.72,2-.7,5.92a20.92,20.92,0,0,0-.94,4A.34.34,0,0,1,9.55,27.25Z"/><path d="M5.45,19.26H2.87a1.38,1.38,0,0,1-1-.36,1.16,1.16,0,0,1-.36-.84,1.23,1.23,0,0,1,1.34-1.2H5.45a.35.35,0,0,1,.35.35.34.34,0,0,1-.35.35H2.87c-.44,0-.64.25-.64.5a.44.44,0,0,0,.14.33.72.72,0,0,0,.5.17H5.45a.35.35,0,0,1,0,.7Z"/><path d="M4.64,21h-.9A1.2,1.2,0,0,1,2.5,19.78,1.24,1.24,0,0,1,2.81,19a1.21,1.21,0,0,1,.93-.39.35.35,0,0,1,0,.7.53.53,0,0,0-.41.16.55.55,0,0,0-.13.36.5.5,0,0,0,.54.53h.9a.35.35,0,1,1,0,.7Z"/></g></g></svg>