<svg width="40" height="40" viewBox="0 0 40 40" fill="none" xmlns="http://www.w3.org/2000/svg">
<path d="M27.2101 16.4302C31.6801 17.4702 34.7001 19.4901 34.7001 21.8201C34.7001 25.2001 28.2701 27.9502 20.3501 27.9502C12.4201 27.9502 6 25.2101 6 21.8201C6 19.5001 9.02999 17.4702 13.49 16.4402" stroke="#0B2343" stroke-miterlimit="10" stroke-linecap="round" stroke-linejoin="round"/>
<path d="M22.23 12C20.24 12.33 20.3301 12.31 18.4701 12C15.6901 12 13.4401 14.2801 13.4401 17.0901V19.9602C13.4401 21.5902 16.5301 22.9102 20.3401 22.9102C24.1501 22.9102 27.24 21.5902 27.24 19.9602V17.0901C27.25 14.2801 25 12 22.23 12Z" stroke="#0B2343" stroke-miterlimit="10" stroke-linecap="round" stroke-linejoin="round"/>
<path d="M27.25 17.4502C27.25 19.0802 24.1601 20.4001 20.3501 20.4001C16.5401 20.4001 13.4501 19.0802 13.4501 17.4502" stroke="#0B2343" stroke-miterlimit="10" stroke-linecap="round" stroke-linejoin="round"/>
<path d="M20.5601 12.2302C20.5601 12.2302 19.58 13.2801 19.54 14.3701" stroke="#0B2343" stroke-miterlimit="10" stroke-linecap="round" stroke-linejoin="round"/>
</svg>
