<svg width="40" height="40" viewBox="0 0 40 40" fill="none" xmlns="http://www.w3.org/2000/svg">
<path d="M7.54999 25.6299V21.6399C7.54999 12.9999 13.14 6 20.04 6C26.94 6 32.53 12.9999 32.53 21.6399V25.6299" stroke="#0B2343" stroke-linecap="round" stroke-linejoin="round"/>
<path d="M14.45 31.03C14.45 32.65 13.13 33.97 11.51 33.97C9.89001 33.97 8.57001 32.65 8.57001 31.03V24.95C8.57001 23.33 9.89001 22.01 11.51 22.01C13.13 22.01 14.45 23.33 14.45 24.95V31.03Z" stroke="#0B2343" stroke-miterlimit="10" stroke-linecap="round" stroke-linejoin="round"/>
<path d="M8.58002 30.5601C7.16002 30.5601 6 29.41 6 27.98C6 26.56 7.15002 25.3999 8.58002 25.3999" stroke="#0B2343" stroke-miterlimit="10" stroke-linecap="round" stroke-linejoin="round"/>
<path d="M25.57 24.95C25.57 23.33 26.89 22.01 28.51 22.01C30.13 22.01 31.45 23.33 31.45 24.95V31.03C31.45 32.65 30.13 33.97 28.51 33.97C26.89 33.97 25.57 32.65 25.57 31.03V24.95Z" stroke="#0B2343" stroke-miterlimit="10" stroke-linecap="round" stroke-linejoin="round"/>
<path d="M31.45 25.4099C32.87 25.4099 34.03 26.56 34.03 27.99C34.03 29.41 32.88 30.5698 31.45 30.5698" stroke="#0B2343" stroke-miterlimit="10" stroke-linecap="round" stroke-linejoin="round"/>
<path d="M27.27 11.8C25.23 10.08 22.74 9.06982 20.05 9.06982C17.36 9.06982 14.87 10.08 12.83 11.8" stroke="#0B2343" stroke-linecap="round" stroke-linejoin="round"/>
</svg>
