<svg width="40" height="40" viewBox="0 0 40 40" fill="none" xmlns="http://www.w3.org/2000/svg">
<path d="M6.21997 22.86H15.4L17.58 14.65L20.77 28.34L22.6799 19.02L24.4 22.86H34.58" stroke="#0B2343" stroke-miterlimit="10" stroke-linecap="round" stroke-linejoin="round"/>
<path d="M7.82996 19.95C6.64996 18.53 6 16.74 6 14.89C6 10.54 9.51998 7 13.85 7C16.46 7 18.9 8.28001 20.4 10.26C21.9 8.28001 24.34 7 26.95 7C31.28 7 34.7999 10.54 34.7999 14.89C34.7999 16.74 34.15 18.53 32.97 19.95" stroke="#0B2343" stroke-miterlimit="10" stroke-linecap="round" stroke-linejoin="round"/>
<path d="M12.21 25.13L19.27 33.52C19.79 34.13 20.72 34.1299 21.24 33.5299L28.5 25.13" stroke="#0B2343" stroke-miterlimit="10" stroke-linecap="round" stroke-linejoin="round"/>
</svg>
