<svg width="30" height="30" viewBox="0 0 30 30" fill="none" xmlns="http://www.w3.org/2000/svg">
<path d="M24.4393 10.4545H19.5V7.09091C19.5 6.49091 19.0393 6 18.4393 6H11.7121C11.1121 6 10.5909 6.49091 10.5909 7.09091V10.4545H5.62118C5.01864 10.4545 4.5 10.943 4.5 11.5454V22.9091C4.5 23.5115 5.01864 24 5.62118 24H24.4393C25.0419 24 25.5 23.5115 25.5 22.9091V11.5454C25.5 10.943 25.0419 10.4545 24.4393 10.4545ZM12.0454 7.45454H18.0454V10.4545H12.0454V7.45454ZM18.7727 18.7273H16.5V21H13.5V18.7273H11.2273V15.7273H13.5V13.4545H16.5V15.7273H18.7727V18.7273Z" fill="#0B2343"/>
</svg>
