<svg width="25" height="25" viewBox="0 0 25 25" fill="none" xmlns="http://www.w3.org/2000/svg">
<circle cx="12.5" cy="12.5" r="12.5" fill="#0B2343"/>
<path d="M12.5909 7C10.3636 7 9.07576 8.10606 9 10.2576H10.7879C10.8485 9.07576 11.4545 8.51515 12.5909 8.51515C13.5909 8.51515 14.1818 9.0303 14.1818 9.81818C14.1818 10.4848 14.0303 10.8182 13.0758 11.6818C11.8485 12.7727 11.5758 13.3333 11.5758 14.8636C11.5758 15 11.5758 15.1667 11.5909 15.3333H13.0909C13.0909 13.8485 13.303 13.4091 14.4242 12.4545C15.697 11.3788 16 10.8182 16 9.77273C16 8.07576 14.6818 7 12.5909 7ZM13.303 18V16.197H11.3485V18H13.303Z" fill="white"/>
</svg>
