<svg width="40" height="40" viewBox="0 0 40 40" fill="none" xmlns="http://www.w3.org/2000/svg">
<path d="M28.9948 17.2289V30.1887C28.9948 31.9955 27.3867 33.3861 25.5137 33.3861H14.4173C12.5348 33.3861 11.0118 31.9955 11.0118 30.1887V17.2289" stroke="#0B2343" stroke-miterlimit="10" stroke-linecap="round" stroke-linejoin="round"/>
<path d="M28.3516 6H11.6551C11.2957 6 11.0118 6.28373 11.0118 6.6432V9.05548C11.0118 9.41495 11.2957 9.69868 11.6551 9.69868H28.3516C28.7111 9.69868 28.9948 9.41495 28.9948 9.05548V6.6432C28.9948 6.28373 28.7111 6 28.3516 6Z" stroke="#0B2343" stroke-miterlimit="10" stroke-linecap="round" stroke-linejoin="round"/>
<path d="M11.7402 9.69873C11.7402 9.69873 8.9874 13.1137 10.4064 14.9489C11.7213 16.6422 12.3929 13.2462 13.8308 13.3124C15.2687 13.3786 14.0105 15.4125 15.9592 15.0814C17.9079 14.7408 17.7756 10.6069 19.3743 12.688C20.973 14.7692 22.5433 15.3368 23.3852 13.1894C24.2271 11.0421 25.9015 12.2719 27.4907 13.9084C29.08 15.5449 30.7638 14.1544 29.6286 12.7354C28.484 11.3164 28.3516 9.7082 28.3516 9.7082H11.7402V9.69873Z" stroke="#0B2343" stroke-miterlimit="10" stroke-linecap="round" stroke-linejoin="round"/>
<path d="M16.489 24.3896L14.9755 21.8071L16.489 19.2246H19.5066L21.0203 21.8071L19.5066 24.3896H16.489Z" stroke="#0B2343" stroke-linecap="round" stroke-linejoin="round"/>
<path d="M21.0013 26.9722L19.4878 24.3897L21.0013 21.8073H24.0284L25.5419 24.3897L24.0284 26.9722H21.0013Z" stroke="#0B2343" stroke-linecap="round" stroke-linejoin="round"/>
<path d="M16.489 29.5546L14.9755 26.9721L16.489 24.3896H19.5066L21.0203 26.9721L19.5066 29.5546H16.489Z" stroke="#0B2343" stroke-linecap="round" stroke-linejoin="round"/>
</svg>
