<svg width="40" height="40" viewBox="0 0 40 40" fill="none" xmlns="http://www.w3.org/2000/svg">
<path d="M20.06 7.00903C24.4942 7.00903 29.0281 10.4185 29.1188 15.1247C29.2276 20.6199 21.8736 27.0127 20.06 27.0127" stroke="#0B2343" stroke-miterlimit="10" stroke-linecap="round" stroke-linejoin="round"/>
<path d="M20.06 7.00903C22.8348 7.00903 25.6639 10.4185 25.7183 15.1247C25.7818 20.6199 21.1844 27.0127 20.06 27.0127" stroke="#0B2343" stroke-miterlimit="10" stroke-linecap="round" stroke-linejoin="round"/>
<path d="M20.06 7.00879C15.6258 7.00879 11.0919 10.4183 11.0012 15.1245C10.8924 20.6196 18.2464 27.0125 20.06 27.0125" stroke="#0B2343" stroke-miterlimit="10" stroke-linecap="round" stroke-linejoin="round"/>
<path d="M20.06 27.0037C18.9265 27.0037 14.3291 20.6199 14.4016 15.1157C14.456 10.4095 17.2943 7 20.06 7V27.0037Z" stroke="#0B2343" stroke-miterlimit="10" stroke-linecap="round" stroke-linejoin="round"/>
<path d="M21.5109 33.0156H18.6092L18.3009 30.377H21.8191L21.5109 33.0156Z" stroke="#0B2343" stroke-miterlimit="10" stroke-linecap="round" stroke-linejoin="round"/>
</svg>
