<svg width="40" height="40" viewBox="0 0 40 40" fill="none" xmlns="http://www.w3.org/2000/svg">
<path d="M10.2521 7C10.2521 7 11.6673 7.41844 9.85145 10.2045C8.03561 12.9906 9.85145 13.1596 9.85145 13.1596" stroke="#0B2343" stroke-linecap="round" stroke-linejoin="round"/>
<path d="M12.9135 7.69434C12.9135 7.69434 13.7235 7.93471 12.6821 9.51912C11.6495 11.1035 12.6821 11.2015 12.6821 11.2015" stroke="#0B2343" stroke-linecap="round" stroke-linejoin="round"/>
<path d="M11.8186 29.0303C11.8186 31.0508 13.4564 32.6798 15.4681 32.6798H24.9745C26.995 32.6798 28.6241 31.0419 28.6241 29.0303V18.3667H11.8186V29.0303V29.0303Z" stroke="#0B2343" stroke-linecap="round" stroke-linejoin="round"/>
<path d="M11.8186 29.0303C11.8186 31.0508 13.4564 32.6798 15.4681 32.6798H24.9745C26.995 32.6798 28.6241 31.0419 28.6241 29.0303V18.3667H11.8186V29.0303V29.0303Z" stroke="#0B2343" stroke-linecap="round" stroke-linejoin="round"/>
<path d="M11.8186 20.4941C11.8186 20.4941 10.6347 19.1946 8 19.1145" stroke="#0B2343" stroke-linecap="round" stroke-linejoin="round"/>
<path d="M11.8186 20.4941C11.8186 20.4941 10.6347 19.1946 8 19.1145" stroke="#0B2343" stroke-linecap="round" stroke-linejoin="round"/>
<path d="M28.624 20.4941C28.624 20.4941 29.8078 19.1946 32.4426 19.1145" stroke="#0B2343" stroke-linecap="round" stroke-linejoin="round"/>
<path d="M28.624 20.4941C28.624 20.4941 29.8078 19.1946 32.4426 19.1145" stroke="#0B2343" stroke-linecap="round" stroke-linejoin="round"/>
<path d="M12.148 13.4889L28.6241 15.9278" stroke="#0B2343" stroke-linecap="round" stroke-linejoin="round"/>
<path d="M18.3966 14.4146L22.954 15.0911C23.1676 12.2071 19.0197 11.6552 18.3966 14.4146Z" stroke="#0B2343" stroke-linecap="round" stroke-linejoin="round"/>
</svg>
