<svg width="40" height="40" viewBox="0 0 40 40" fill="none" xmlns="http://www.w3.org/2000/svg">
<path d="M31.9652 12.9338L12.9437 31.9455C11.5662 33.323 9.32892 33.323 7.94164 31.9455C6.56413 30.568 6.56413 28.3308 7.94164 26.9533L26.9631 7.94158C28.3406 6.56407 30.5779 6.56407 31.9652 7.94158C33.3524 9.31909 33.3524 11.5563 31.9652 12.9338Z" stroke="#0B2343" stroke-miterlimit="10" stroke-linecap="round" stroke-linejoin="round"/>
<path d="M7.18945 27.6958L7.06244 27.5688C5.64585 26.1522 5.64585 23.8466 7.06244 22.43L22.4495 7.06244C23.8661 5.64585 26.1717 5.64585 27.598 7.06244L27.725 7.18945" stroke="#0B2343" stroke-miterlimit="10" stroke-linecap="round" stroke-linejoin="round"/>
<path d="M32.7174 12.1816L32.8443 12.3087C34.2609 13.7252 34.2609 16.0309 32.8443 17.4475L17.467 32.815C16.0504 34.2316 13.7449 34.2316 12.3185 32.815L12.1915 32.688" stroke="#0B2343" stroke-miterlimit="10" stroke-linecap="round" stroke-linejoin="round"/>
<path d="M10.5697 29.3175C10.5697 27.8423 11.7714 26.6406 13.2466 26.6406C14.7315 26.6406 15.9234 25.439 15.9234 23.9638C15.9234 22.4886 17.1251 21.2869 18.6003 21.2869C20.0853 21.2869 21.2771 20.0853 21.2771 18.61C21.2771 17.1348 22.4788 15.9332 23.954 15.9332C25.439 15.9332 26.6309 14.7315 26.6309 13.2563C26.6309 11.7811 27.8325 10.5795 29.3077 10.5795" stroke="#0B2343" stroke-miterlimit="10" stroke-linecap="round" stroke-linejoin="round"/>
</svg>
