<svg viewBox="0 0 40 40" fill="none" xmlns="http://www.w3.org/2000/svg">
<path d="M15.8513 21.5852V18.3674C15.8513 17.7105 16.3086 17.2283 16.8906 17.403C17.639 17.6191 18.6533 17.7688 19.7425 17.4446C20.3162 17.27 20.8651 17.7771 20.8651 18.4173V21.5852" stroke="#0B2343" stroke-linecap="round" stroke-linejoin="round"/>
<path d="M24.9976 21.5852V18.3674C24.9976 17.7105 25.4549 17.2283 26.0369 17.403C26.7852 17.6191 27.7995 17.7688 28.8888 17.4446C29.4625 17.27 30.0113 17.7771 30.0113 18.4173V21.5852" stroke="#0B2343" stroke-linecap="round" stroke-linejoin="round"/>
<path d="M34.9999 25.7676H10.8875V25.618C10.8875 23.4895 13.3152 21.6103 16.3085 21.6103H29.5787C32.572 21.6103 34.9999 23.4895 34.9999 25.618V25.7676Z" stroke="#0B2343" stroke-linecap="round" stroke-linejoin="round"/>
<path d="M34.9999 25.7676H10.8875V30.7564H34.9999V25.7676Z" stroke="#0B2343" stroke-linecap="round" stroke-linejoin="round"/>
<path d="M10.8875 30.7564V33.1426" stroke="#231F20" stroke-width="0.831463" stroke-linecap="round" stroke-linejoin="round"/>
<path d="M35 30.7564V33.1426" stroke="#0B2343" stroke-width="0.831463" stroke-linecap="round" stroke-linejoin="round"/>
<path d="M13.3818 22.2589V13.2957H32.5055V22.2589" stroke="#0B2343" stroke-linecap="round" stroke-linejoin="round"/>
<path fill-rule="evenodd" clip-rule="evenodd" d="M9.38602 6.00003C11.237 9.7749 7.6261 14.0635 3.39941 12.4639C4.24111 13.9214 5.35974 14.9052 7.10507 15.0255C9.69573 15.204 12.1406 13.3494 12.2827 10.6421C12.403 8.33563 10.9783 6.76156 9.38602 6.00003Z" stroke="#0B2343" stroke-width="0.7" stroke-linecap="round" stroke-linejoin="round"/>
</svg>
