<svg width="40" height="40" viewBox="0 0 40 40" fill="none" xmlns="http://www.w3.org/2000/svg">
<path d="M15.8514 21.5852V18.3674C15.8514 17.7105 16.3087 17.2283 16.8907 17.403C17.639 17.6191 18.6534 17.7688 19.7426 17.4446C20.3163 17.27 20.8651 17.7771 20.8651 18.4173V21.5852" stroke="#0B2343" stroke-linecap="round" stroke-linejoin="round"/>
<path d="M24.9975 21.5852V18.3674C24.9975 17.7105 25.4548 17.2283 26.0368 17.403C26.7851 17.6191 27.7995 17.7688 28.8887 17.4446C29.4624 17.27 30.0112 17.7771 30.0112 18.4173V21.5852" stroke="#0B2343" stroke-linecap="round" stroke-linejoin="round"/>
<path d="M35 25.7676H10.8876V25.618C10.8876 23.4895 13.3154 21.6103 16.3086 21.6103H29.5789C32.5721 21.6103 35 23.4895 35 25.618V25.7676Z" stroke="#0B2343" stroke-linecap="round" stroke-linejoin="round"/>
<path d="M35 25.7676H10.8876V30.7564H35V25.7676Z" stroke="#0B2343" stroke-linecap="round" stroke-linejoin="round"/>
<path d="M10.8876 30.7564V33.1426" stroke="#231F20" stroke-width="0.831463" stroke-linecap="round" stroke-linejoin="round"/>
<path d="M35 30.7564V33.1426" stroke="#0B2343" stroke-width="0.831463" stroke-linecap="round" stroke-linejoin="round"/>
<path d="M13.382 22.2589V13.2957H32.5056V22.2589" stroke="#0B2343" stroke-linecap="round" stroke-linejoin="round"/>
<path fill-rule="evenodd" clip-rule="evenodd" d="M9.38602 6.00003C11.237 9.7749 7.6261 14.0635 3.39941 12.4639C4.24111 13.9214 5.35974 14.9052 7.10507 15.0255C9.69573 15.204 12.1406 13.3494 12.2827 10.6421C12.403 8.33563 10.9783 6.76156 9.38602 6.00003Z" stroke="#0B2343" stroke-width="0.7" stroke-linecap="round" stroke-linejoin="round"/>
</svg>
