<svg viewBox="0 0 40 40" fill="none" xmlns="http://www.w3.org/2000/svg">
<path d="M22.5903 17.9817V22.0846" stroke="#0B2343" stroke-width="0.855" stroke-miterlimit="10" stroke-linecap="round" stroke-linejoin="round"/>
<path d="M22.5903 26.2222H26.7557" stroke="#0B2343" stroke-width="0.855" stroke-miterlimit="10" stroke-linecap="round" stroke-linejoin="round"/>
<path d="M19.119 27.8676C20.0277 27.8676 20.7644 27.131 20.7644 26.2223C20.7644 25.3136 20.0277 24.577 19.119 24.577C18.2104 24.577 17.4736 25.3136 17.4736 26.2223C17.4736 27.131 18.2104 27.8676 19.119 27.8676Z" stroke="#0B2343" stroke-width="0.855" stroke-linecap="round" stroke-linejoin="round"/>
<path d="M30.227 27.8676C31.1356 27.8676 31.8723 27.131 31.8723 26.2223C31.8723 25.3136 31.1356 24.577 30.227 24.577C29.3183 24.577 28.5815 25.3136 28.5815 26.2223C28.5815 27.131 29.3183 27.8676 30.227 27.8676Z" stroke="#0B2343" stroke-width="0.855" stroke-linecap="round" stroke-linejoin="round"/>
<path d="M33.7186 26.2221H34.9404C34.864 21.8832 31.261 22.1748 29.9836 22.0845C29.7753 22.0706 29.7268 21.9387 29.6782 21.7374C29.4074 20.6891 28.2828 17.9331 24.2354 17.9539C24.1313 17.9539 23.208 17.9539 23.1038 17.9539C18.272 18.0927 17.6194 20.8071 17.5361 21.786C17.5222 21.9804 17.3764 22.1123 17.189 22.1678C15.0507 22.7649 15.1409 26.2291 15.1409 26.2291H15.7449" stroke="#0B2343" stroke-width="0.855" stroke-miterlimit="10" stroke-linecap="round" stroke-linejoin="round"/>
<path d="M17.3486 22.0846H29.9836" stroke="#0B2343" stroke-width="0.855" stroke-miterlimit="10" stroke-linecap="round" stroke-linejoin="round"/>
<path d="M35.9673 26.9786L38.05 26.9786" stroke="#0B2343" stroke-width="0.855" stroke-miterlimit="10" stroke-linecap="round" stroke-linejoin="round"/>
<path d="M7.48511 27.5829V16.039" stroke="#0B2343" stroke-width="0.855" stroke-miterlimit="10" stroke-linecap="round" stroke-linejoin="round"/>
<path d="M7.48511 22.7909C7.48511 22.7909 8.10097 18.4117 11.0505 19.4288" stroke="#0B2343" stroke-width="0.855" stroke-miterlimit="10" stroke-linecap="round" stroke-linejoin="round"/>
<path d="M7.48529 21.5934C7.48529 21.5934 6.15742 18.6777 4.79565 20.0677" stroke="#0B2343" stroke-width="0.855" stroke-miterlimit="10" stroke-linecap="round" stroke-linejoin="round"/>
<path d="M6.39553 23.4467C4.57043 24.8649 1.99951 23.4467 1.99951 20.9774C1.99951 19.8473 2.57021 18.8641 3.41213 18.3443C2.59281 15.3722 4.64391 12.4 7.48044 12.4C9.59372 12.4 11.3397 14.0782 11.6675 16.2762C13.3287 16.7339 14.5549 18.3669 14.5549 20.3163C14.5549 22.6217 12.8371 24.492 10.7182 24.492C9.90449 24.492 9.15298 24.2152 8.53142 23.7518" stroke="#0B2343" stroke-width="0.855" stroke-miterlimit="10" stroke-linecap="round" stroke-linejoin="round"/>
<path d="M1.94995 27.5831H16.3413" stroke="#0B2343" stroke-width="0.855" stroke-miterlimit="10" stroke-linecap="round" stroke-linejoin="round"/>
</svg>
