<?xml version="1.0" encoding="utf-8"?>
<!-- Generator: Adobe Illustrator 26.2.1, SVG Export Plug-In . SVG Version: 6.00 Build 0)  -->
<svg version="1.1" id="Layer_1" xmlns="http://www.w3.org/2000/svg" xmlns:xlink="http://www.w3.org/1999/xlink" x="0px" y="0px"
	 viewBox="0 0 35 36" style="enable-background:new 0 0 35 36;" xml:space="preserve">
<style type="text/css">
	.st0{fill:#0B2343;}
	.st1{opacity:0.5;enable-background:new    ;}
</style>
<path class="st0" d="M28.9,19.7v-7.6c0-0.3-0.2-0.5-0.5-0.5H11.7c-0.3,0-0.5,0.2-0.5,0.5v7.6C9.9,20.4,9,21.6,9,22.9V23v4.4v2.1
	C9,29.8,9.3,30,9.5,30s0.5-0.2,0.5-0.5v-1.6h20.1v1.6c0,0.3,0.2,0.5,0.5,0.5s0.5-0.2,0.5-0.5v-2.1V23v-0.1
	C31.1,21.6,30.2,20.4,28.9,19.7z M12.2,12.6h15.7v6.6c-0.4-0.1-0.8-0.2-1.2-0.3v-2.4c0-0.5-0.2-0.9-0.6-1.1
	c-0.3-0.2-0.7-0.3-1.1-0.2c-0.7,0.2-1.4,0.2-2.2,0c-0.4-0.1-0.7,0-1,0.2c-0.3,0.2-0.5,0.7-0.5,1.2v2.3h-2.6v-2.3
	c0-0.5-0.2-0.9-0.6-1.1c-0.3-0.2-0.7-0.3-1.1-0.2c-0.7,0.2-1.4,0.2-2.2,0c-0.4-0.1-0.7,0-1,0.2c-0.3,0.2-0.5,0.7-0.5,1.2V19
	c-0.4,0.1-0.8,0.1-1.2,0.3V12.6z M25.8,18.9h-3.4v-2.3c0-0.2,0.1-0.3,0.1-0.4c0,0,0.1,0,0.1,0c1,0.3,1.9,0.3,2.8,0c0,0,0.1,0,0.2,0
	c0.1,0.1,0.2,0.2,0.2,0.3V18.9z M17.8,18.9h-3.4v-2.3c0-0.2,0.1-0.3,0.1-0.4c0,0,0.1,0,0.1,0c1,0.3,1.9,0.3,2.8,0c0,0,0.1,0,0.2,0
	c0.1,0.1,0.2,0.2,0.2,0.3V18.9z M14.3,19.9h11.6c2.1,0,3.9,1.2,4.2,2.6h-20C10.3,21.1,12.2,19.9,14.3,19.9z M10,23.5h20.1v3.4H10
	V23.5z"/>
<g class="st1">
	<path class="st0" d="M6.5,12.9c-0.1,0-0.2,0-0.3,0c-1.5-0.1-2.7-0.9-3.6-2.5C2.4,10.3,2.5,10,2.6,9.9C2.7,9.7,3,9.7,3.2,9.7
		c1.5,0.6,3,0.2,4-0.9c1-1.1,1.2-2.7,0.6-4.1C7.7,4.6,7.7,4.3,7.9,4.2C8,4,8.2,4,8.4,4.1c1.9,0.9,2.9,2.6,2.8,4.5
		c-0.1,1.2-0.6,2.3-1.5,3.1C8.9,12.5,7.7,12.9,6.5,12.9z M4.2,11c0.6,0.6,1.3,0.9,2.1,1c1,0.1,2.1-0.3,2.8-1
		c0.7-0.6,1.1-1.5,1.2-2.4c0.1-1.3-0.5-2.2-1.1-2.8c0.2,1.3-0.2,2.7-1.2,3.8C6.9,10.6,5.6,11.1,4.2,11z"/>
</g>
</svg>
