<svg width="40" height="40" viewBox="0 0 40 40" fill="none" xmlns="http://www.w3.org/2000/svg">
<path d="M24.7075 24.3455C24.7818 22.7585 22.7864 20.5775 24.4941 18.5915C24.5683 18.508 24.4941 18.378 24.3827 18.3966C22.87 18.6472 22.0904 20.6889 21.8863 21.4778C21.1902 20.1599 21.0788 17.7006 21.0788 15.7052C21.0788 15.6124 20.9767 15.5567 20.8932 15.6031C18.2575 17.1901 19.0556 21.7933 18.1554 23.139C18.1461 23.139 18.1461 23.1483 18.1368 23.1483C18.0162 22.7307 16.0394 19.334 15.7146 19.566C15.6682 19.5938 15.6589 19.6495 15.6774 19.7052C16.5684 22.146 14.2018 26.1645 17.6263 27.6958C20.1785 29.1251 25.0045 28.0949 24.7075 24.3455Z" stroke="#0B2343" stroke-miterlimit="10" stroke-linecap="round" stroke-linejoin="round"/>
<path d="M7 18.406L20.2807 7L33.5706 18.406" stroke="#0B2343" stroke-linecap="round" stroke-linejoin="round"/>
<path d="M30.9628 16.1697V32.9956H9.61722V16.1697" stroke="#0B2343" stroke-miterlimit="10" stroke-linecap="round" stroke-linejoin="round"/>
<path d="M30.0347 15.3156V7.9375H24.4663V10.5918" stroke="#0B2343" stroke-miterlimit="10" stroke-linecap="round" stroke-linejoin="round"/>
</svg>
