<svg width="40" height="40" viewBox="0 0 40 40" fill="none" xmlns="http://www.w3.org/2000/svg">
<path d="M21.7747 22.6451C21.3489 22.1822 20.7658 21.8953 20.127 21.8953C18.8032 21.8953 17.7385 23.108 17.7385 24.5984C17.7385 26.0889 18.8125 27.3016 20.127 27.3016C20.7935 27.3016 21.3952 26.9961 21.8303 26.4962" stroke="#0B2343" stroke-linecap="round" stroke-linejoin="round"/>
<path d="M28.1809 24.5984C28.1809 26.0889 27.1533 27.3016 25.8851 27.3016C24.6168 27.3016 23.5893 26.0889 23.5893 24.5984C23.5893 23.108 24.6168 21.8953 25.8851 21.8953C27.1533 21.8953 28.1809 23.108 28.1809 24.5984Z" stroke="#0B2343" stroke-linecap="round" stroke-linejoin="round"/>
<path d="M15.8223 21.8953H12.647V27.3108H15.8223" stroke="#0B2343" stroke-linecap="round" stroke-linejoin="round"/>
<path d="M12.647 24.5984H15.378" stroke="#0B2343" stroke-linecap="round" stroke-linejoin="round"/>
<path d="M7 18.3773L20.2474 7L33.5039 18.3773" stroke="#0B2343" stroke-linecap="round" stroke-linejoin="round"/>
<path d="M30.9026 16.1465V32.9301H9.61064V16.1465" stroke="#0B2343" stroke-miterlimit="10" stroke-linecap="round" stroke-linejoin="round"/>
<path d="M29.9769 15.2947V7.93506H24.4224V10.5827" stroke="#0B2343" stroke-miterlimit="10" stroke-linecap="round" stroke-linejoin="round"/>
</svg>
