<svg width="40" height="40" viewBox="0 0 40 40" fill="none" xmlns="http://www.w3.org/2000/svg">
<path d="M24.7061 21.6279C24.7061 21.6279 23.1544 22.6214 21.5458 22.9904C19.9373 23.3594 18.8775 25.1856 18.8775 25.1856C18.8775 25.1856 18.7262 26.69 19.0195 28.3553C19.3128 30.0206 19.1709 29.7651 19.1709 29.7651" stroke="#0B2343" stroke-linecap="round" stroke-linejoin="round"/>
<path d="M18.9344 23.88C18.3667 20.9563 12.6138 21.2307 12.6138 21.2307C12.6138 21.2307 13.5505 28.8664 18.8776 25.1763C18.8776 25.1858 18.7925 24.6464 18.9344 23.88Z" stroke="#0B2343" stroke-miterlimit="10" stroke-linecap="round" stroke-linejoin="round"/>
<path d="M27.1661 19.0259C20.7793 19.357 19.2655 22.1767 18.9343 23.8798C18.7829 24.6368 18.8775 25.1761 18.8775 25.1761C26.8727 30.645 27.1661 19.0259 27.1661 19.0259Z" stroke="#0B2343" stroke-linecap="round" stroke-linejoin="round"/>
<path d="M15.4429 23.5107C15.4429 23.5107 18.149 24.0311 18.8871 25.176" stroke="#0B2343" stroke-miterlimit="10" stroke-linecap="round" stroke-linejoin="round"/>
<path d="M6 18.6286L19.5399 7L33.0892 18.6286" stroke="#0B2343" stroke-linecap="round" stroke-linejoin="round"/>
<path d="M30.4305 16.3484V33.5027H8.66827V16.3484" stroke="#0B2343" stroke-miterlimit="10" stroke-linecap="round" stroke-linejoin="round"/>
<path d="M29.4844 15.4777V7.95557H23.8073V10.6616" stroke="#0B2343" stroke-miterlimit="10" stroke-linecap="round" stroke-linejoin="round"/>
</svg>
