<svg width="40" height="40" viewBox="0 0 40 40" fill="none" xmlns="http://www.w3.org/2000/svg">
<path d="M13.6992 16.8264H13.1328V18.8762H12V20.009H13.1328V22.1936H13.6992" stroke="#0B2343" stroke-miterlimit="10" stroke-linecap="round" stroke-linejoin="round"/>
<path d="M27.0677 16.8264H27.6341V18.8762H28.7669V20.009H27.6341V22.1936H27.0677" stroke="#0B2343" stroke-miterlimit="10" stroke-linecap="round" stroke-linejoin="round"/>
<path d="M23.9751 11.7289C23.9751 9.74205 22.5816 8.10581 21.4488 7.81812V7H19.1922V7.81812C18.0594 8.10581 16.7559 9.74205 16.7559 11.7289V12.3582H15.8028V14.9205H16.7559V16.8264H14.9848V22.1936H16.7559V30.7434H16.3692C15.1825 30.7434 14.2116 31.8762 14.2116 33C18.4461 33 21.7096 33 26.4654 33C26.4654 31.8672 25.5035 30.7434 24.3077 30.7434H23.9751V22.1936H25.7732V16.8264H23.9751V14.9205H24.8381V12.3582H23.9751V11.7289Z" stroke="#0B2343" stroke-miterlimit="10" stroke-linecap="round" stroke-linejoin="round"/>
<path d="M16.7559 12.3582H23.9752" stroke="#0B2343" stroke-miterlimit="10" stroke-linecap="round" stroke-linejoin="round"/>
<path d="M16.7559 14.9204H23.9752" stroke="#0B2343" stroke-miterlimit="10" stroke-linecap="round" stroke-linejoin="round"/>
</svg>
