<svg width="40" height="40" viewBox="0 0 40 40" fill="none" xmlns="http://www.w3.org/2000/svg">
<path d="M19.8707 33.9599C22.426 33.9599 24.4974 31.8968 24.4974 29.3518C24.4974 26.8068 22.426 24.7437 19.8707 24.7437C17.3155 24.7437 15.244 26.8068 15.244 29.3518C15.244 31.8968 17.3155 33.9599 19.8707 33.9599Z" stroke="#0B2343" stroke-miterlimit="10" stroke-linecap="round" stroke-linejoin="round"/>
<path d="M24.0506 24.5199C22.9614 23.4866 21.4905 22.8535 19.8614 22.8535C18.2323 22.8535 16.7707 23.4866 15.6722 24.5199" stroke="#0B2343" stroke-miterlimit="10" stroke-linecap="round" stroke-linejoin="round"/>
<path d="M18.8747 22.8537V20.0331H20.8576V22.8537" stroke="#0B2343" stroke-miterlimit="10" stroke-linecap="round" stroke-linejoin="round"/>
<path d="M19.8242 7C20.8483 7 21.6861 7.83784 21.6861 8.86186V20.033H17.9624V8.86186C17.9624 7.82853 18.8002 7 19.8242 7Z" stroke="#0B2343" stroke-miterlimit="10" stroke-linecap="round" stroke-linejoin="round"/>
</svg>
