<svg width="40" height="40" viewBox="0 0 40 40" fill="none" xmlns="http://www.w3.org/2000/svg">
<path d="M24.0805 19.8025L19.5587 33.98L14.9522 19.614" stroke="#0B2343" stroke-linecap="round" stroke-linejoin="round"/>
<path d="M25.4653 16.3262C27.5472 11.9928 24.3631 7 19.5587 7C14.792 7 11.5986 11.9269 13.6146 16.2603C12.3334 17.4755 13.2 19.6138 14.9616 19.6138C15.2254 19.6138 15.4703 19.5574 15.6964 19.4726C16.3935 20.1509 17.4486 20.3676 18.4 19.9437C18.4566 19.9531 18.5131 19.9624 18.5791 19.9718C19.003 22.9769 23.4587 22.6189 23.4305 19.6138C23.6942 19.7457 23.9863 19.8212 24.2972 19.8212C26.1436 19.8212 26.9631 17.466 25.4653 16.3262Z" stroke="#0B2343" stroke-linecap="round" stroke-linejoin="round"/>
<path d="M16.0355 13.7637L16.3276 13.4811" stroke="#0B2343" stroke-linecap="round" stroke-linejoin="round"/>
<path d="M23.5248 11.8703L23.8167 11.5878" stroke="#0B2343" stroke-linecap="round" stroke-linejoin="round"/>
<path d="M21.6877 16.6275L21.9704 16.3448" stroke="#0B2343" stroke-linecap="round" stroke-linejoin="round"/>
<path d="M17.0436 9.81668L17.4486 9.80725" stroke="#0B2343" stroke-linecap="round" stroke-linejoin="round"/>
<path d="M19.7754 13.4812L20.1805 13.4719" stroke="#0B2343" stroke-linecap="round" stroke-linejoin="round"/>
<path d="M19.9733 9.82621L20.3783 9.81689" stroke="#0B2343" stroke-linecap="round" stroke-linejoin="round"/>
<path d="M18.0986 16.4016V15.9965" stroke="#0B2343" stroke-linecap="round" stroke-linejoin="round"/>
</svg>
