<?xml version="1.0" encoding="utf-8"?>
<!-- Generator: Adobe Illustrator 23.0.0, SVG Export Plug-In . SVG Version: 6.00 Build 0)  -->
<svg version="1.1" id="Layer_1" xmlns="http://www.w3.org/2000/svg" xmlns:xlink="http://www.w3.org/1999/xlink" x="0px" y="0px"
	 viewBox="0 0 100 100" style="enable-background:new 0 0 100 100;" xml:space="preserve">
<style type="text/css">
	.st0{fill:#0B2443;}
	.st1{fill:#CCCCCB;}
</style>
<g>
	<path class="st0" d="M63.7,43.8c-1.8,0-3.4,0.8-4.5,2L41.8,33.7c0.4-0.8,0.6-1.8,0.6-2.7c0-3.4-2.8-6.2-6.2-6.2
		c-3.4,0-6.2,2.8-6.2,6.2c0,3.4,2.8,6.2,6.2,6.2c1.8,0,3.4-0.8,4.6-2l17.3,12.2c-0.4,0.8-0.7,1.8-0.7,2.8c0,1,0.3,2,0.7,2.8
		l-17.4,12c-1.1-1.2-2.7-1.9-4.5-1.9c-3.4,0-6.2,2.8-6.2,6.2c0,3.4,2.8,6.2,6.2,6.2c3.4,0,6.2-2.8,6.2-6.2c0-1-0.3-2-0.7-2.8
		l17.4-12c1.1,1.2,2.7,1.9,4.5,1.9c3.4,0,6.2-2.8,6.2-6.2C69.9,46.6,67.1,43.8,63.7,43.8z M36.3,35.4c-2.4,0-4.4-2-4.4-4.4
		c0-2.4,2-4.4,4.4-4.4s4.4,2,4.4,4.4C40.7,33.4,38.7,35.4,36.3,35.4z M36.3,73.5c-2.4,0-4.4-2-4.4-4.4c0-2.4,2-4.4,4.4-4.4
		s4.4,2,4.4,4.4C40.7,71.5,38.7,73.5,36.3,73.5z M63.7,54.5c-2.4,0-4.4-2-4.4-4.4c0-2.4,2-4.4,4.4-4.4s4.4,2,4.4,4.4
		C68.1,52.5,66.2,54.5,63.7,54.5z"/>
	<g>
		<path class="st1" d="M50,99.9C22.5,99.9,0.1,77.5,0.1,50C0.1,22.5,22.5,0.1,50,0.1c27.5,0,49.9,22.4,49.9,49.9
			C99.9,77.5,77.5,99.9,50,99.9z M50,1.8C23.4,1.8,1.8,23.4,1.8,50S23.4,98.2,50,98.2S98.2,76.6,98.2,50S76.6,1.8,50,1.8z"/>
	</g>
</g>
</svg>
