<?xml version="1.0" encoding="utf-8"?>
<!-- Generator: Adobe Illustrator 23.0.0, SVG Export Plug-In . SVG Version: 6.00 Build 0)  -->
<svg version="1.1" id="Layer_1" xmlns="http://www.w3.org/2000/svg" xmlns:xlink="http://www.w3.org/1999/xlink" x="0px" y="0px"
	 viewBox="0 0 40 40" style="enable-background:new 0 0 40 40;" xml:space="preserve">
<style type="text/css">
	.st1{fill:#666666;}
</style>

<g>
	<g>
		<path class="st1" d="M19.9,21.5c-0.4,0-0.8-0.1-1.1-0.4l-6.7-5.9c-0.1-0.1-0.2-0.3,0-0.5c0.1-0.1,0.3-0.2,0.5,0l6.7,5.9
			c0.4,0.3,1,0.3,1.4,0l6.7-5.9c0.1-0.1,0.4-0.1,0.5,0c0.1,0.1,0.1,0.4,0,0.5L21,21.1C20.7,21.3,20.3,21.5,19.9,21.5z"/>
	</g>
	<g>
		<path class="st1" d="M27.5,25.4c-0.1,0-0.1,0-0.2-0.1l-4.5-3.6c-0.1-0.1-0.2-0.3,0-0.5c0.1-0.1,0.3-0.2,0.5,0l4.5,3.6
			c0.1,0.1,0.2,0.3,0,0.5C27.7,25.4,27.6,25.4,27.5,25.4z"/>
	</g>
	<g>
		<path class="st1" d="M12.3,25.4c-0.1,0-0.2,0-0.3-0.1c-0.1-0.1-0.1-0.4,0-0.5l4.5-3.6c0.1-0.1,0.4-0.1,0.5,0
			c0.1,0.1,0.1,0.4,0,0.5l-4.5,3.6C12.5,25.4,12.4,25.4,12.3,25.4z"/>
	</g>
	<g>
		<path class="st1" d="M27.7,27.3H12.3c-1.3,0-2.3-1-2.3-2.2V14.9c0-1.2,1-2.2,2.3-2.2h15.4c1.3,0,2.3,1,2.3,2.2v10.2
			C30,26.3,29,27.3,27.7,27.3z M12.3,13.3c-0.9,0-1.6,0.7-1.6,1.6v10.2c0,0.9,0.7,1.5,1.6,1.5h15.4c0.9,0,1.6-0.7,1.6-1.5V14.9
			c0-0.9-0.7-1.6-1.6-1.6H12.3z"/>
	</g>
</g>
</svg>
