<?xml version="1.0" encoding="utf-8"?>
<!-- Generator: Adobe Illustrator 23.0.0, SVG Export Plug-In . SVG Version: 6.00 Build 0)  -->
<svg version="1.1" id="Layer_1" xmlns="http://www.w3.org/2000/svg" xmlns:xlink="http://www.w3.org/1999/xlink" x="0px" y="0px"
	 viewBox="0 0 100 100" style="enable-background:new 0 0 100 100;" xml:space="preserve">
<style type="text/css">
	.st0{fill:#0B2443;}
	.st1{fill:#CCCCCB;}
</style>
<g>
	<g>
		<path class="st0" d="M72.7,60.4c0-0.1,0-0.1,0-0.2c0-0.1,0-0.1,0-0.2c0-0.1,0-0.1,0-0.2c0-0.1-0.1-0.1-0.1-0.2c0,0,0-0.1-0.1-0.1
			c0,0,0,0,0,0c0,0,0,0,0,0c-2.3-2.5-7.7-9.5-7.3-20.4c0.3-7.3-3.9-11-7.5-12.8c-4.9-2.5-10.7-2.5-15.6,0c-3.6,1.8-7.8,5.5-7.5,12.8
			c0.4,11-4.9,17.9-7.3,20.4c0,0,0,0,0,0c0,0,0,0,0,0c0,0,0,0.1-0.1,0.1c0,0.1-0.1,0.1-0.1,0.2c0,0.1,0,0.1,0,0.2c0,0.1,0,0.1,0,0.2
			c0,0.1,0,0.1,0,0.2c0,0.1,0,0.1,0,0.2c0,0.1,0.1,0.1,0.1,0.1c0,0,0,0.1,0.1,0.1c0,0,0,0,0,0c0,0,0,0,0,0c6.1,5,14.3,7.4,22.5,7.4
			c8.2,0,16.4-2.5,22.5-7.4c0,0,0,0,0,0c0,0,0,0,0,0c0,0,0.1-0.1,0.1-0.1c0,0,0.1-0.1,0.1-0.1C72.7,60.5,72.7,60.4,72.7,60.4z
			 M29.4,60c2.7-3.1,7.5-10.2,7.1-21c-0.2-5.1,2-8.9,6.5-11.2c4.4-2.2,9.6-2.2,14,0c4.5,2.3,6.7,6.1,6.5,11.2
			c-0.4,10.7,4.4,17.8,7.1,21C59.2,68.7,40.8,68.7,29.4,60z"/>
		<path class="st0" d="M54.9,69.9c-0.5,0-0.9,0.4-0.9,0.9c0,1.7-1.8,3-4.1,3c-2.2,0-4.1-1.4-4.1-3c0-0.5-0.4-0.9-0.9-0.9
			s-0.9,0.4-0.9,0.9c0,2.6,2.6,4.8,5.8,4.8c3.2,0,5.8-2.1,5.8-4.8C55.8,70.3,55.4,69.9,54.9,69.9z"/>
	</g>
	<g>
		<path class="st1" d="M50,99.9C22.5,99.9,0.1,77.5,0.1,50C0.1,22.5,22.5,0.1,50,0.1c27.5,0,49.9,22.4,49.9,49.9
			C99.9,77.5,77.5,99.9,50,99.9z M50,1.8C23.4,1.8,1.8,23.4,1.8,50S23.4,98.2,50,98.2S98.2,76.6,98.2,50S76.6,1.8,50,1.8z"/>
	</g>
</g>
</svg>
