<?xml version="1.0" encoding="utf-8"?>
<!-- Generator: Adobe Illustrator 23.0.0, SVG Export Plug-In . SVG Version: 6.00 Build 0)  -->
<svg version="1.1" id="Layer_2" xmlns="http://www.w3.org/2000/svg" xmlns:xlink="http://www.w3.org/1999/xlink" x="0px" y="0px"
	 viewBox="0 0 40 40" style="enable-background:new 0 0 40 40;" xml:space="preserve">
<style type="text/css">
	.st0{fill:#666666;}
	.st1{fill:#CCCCCC;}
</style>
<g>
	<path class="st0" d="M17.5,27.7h5.6c0.2,0,0.3-0.2,0.3-0.3S23.3,27,23.1,27h-5.6c-0.2,0-0.3,0.2-0.3,0.3S17.3,27.7,17.5,27.7z"/>
	<path class="st0" d="M17.5,25.6h5.6c0.2,0,0.3-0.2,0.3-0.3s-0.2-0.3-0.3-0.3h-5.6c-0.2,0-0.3,0.2-0.3,0.3S17.3,25.6,17.5,25.6z"/>
	<path class="st0" d="M28.3,12.5h-2.8c0-0.1-0.1-0.1-0.1-0.2l-1.9-2.3c-0.1-0.1-0.3-0.2-0.6-0.2h-7c-0.4,0-0.8,0.4-0.8,0.8v2h-3.4
		c-1.1,0-2.1,0.9-2.1,2.1v6.1c0,1.2,0.9,2.1,2.1,2.1h16.6c1.1,0,2.1-0.9,2.1-2.1v-6.1C30.3,13.4,29.4,12.5,28.3,12.5z M15.8,10.5
		C15.8,10.4,15.9,10.4,15.8,10.5l7.2-0.1l1.8,2.3c0,0,0,0.1,0.1,0.1v3.1h-9V10.5z M29.7,20.7c0,0.8-0.6,1.4-1.4,1.4H11.7
		c-0.8,0-1.4-0.6-1.4-1.4v-6.1c0-0.8,0.6-1.4,1.4-1.4h3.4v3.1c0,0.2,0.2,0.3,0.3,0.3h9.7c0.2,0,0.3-0.2,0.3-0.3v-3.1h2.7
		c0.8,0,1.4,0.6,1.4,1.4V20.7z"/>
	<path class="st0" d="M25.2,23.6c-0.2,0-0.3,0.2-0.3,0.3v5.6c0,0.1,0,0.1-0.1,0.1h-8.9c0,0-0.1,0-0.1-0.1v-5.6
		c0-0.2-0.2-0.3-0.3-0.3s-0.3,0.2-0.3,0.3v5.6c0,0.4,0.3,0.8,0.8,0.8h8.9c0.4,0,0.8-0.4,0.8-0.8v-5.6C25.5,23.7,25.4,23.6,25.2,23.6
		z"/>
	<path class="st0" d="M27,19.4c-0.1,0.1-0.1,0.2-0.1,0.2c0,0.1,0,0.2,0.1,0.2c0,0,0.1,0.1,0.1,0.1c0,0,0.1,0,0.1,0c0,0,0.1,0,0.1,0
		s0.1,0,0.1-0.1c0.1-0.1,0.1-0.1,0.1-0.2c0-0.1,0-0.2-0.1-0.2C27.3,19.3,27.1,19.3,27,19.4z"/>
</g>
</svg>
