<?xml version="1.0" encoding="utf-8"?>
<!-- Generator: Adobe Illustrator 23.0.0, SVG Export Plug-In . SVG Version: 6.00 Build 0)  -->
<svg version="1.1" id="Layer_1" xmlns="http://www.w3.org/2000/svg" xmlns:xlink="http://www.w3.org/1999/xlink" x="0px" y="0px"
	 viewBox="0 0 100 100" style="enable-background:new 0 0 100 100;" xml:space="preserve">
<style type="text/css">
	.st0{fill:#0B2443;}
	.st1{fill:#CCCCCB;}
</style>
<g>
	<g>
		<path class="st0" d="M38.6,39.6h12.2c0.5,0,0.9-0.4,0.9-0.9s-0.4-0.9-0.9-0.9H38.6c-0.5,0-0.9,0.4-0.9,0.9S38.1,39.6,38.6,39.6z"
			/>
		<path class="st0" d="M61.5,44.8H38.6c-0.5,0-0.9,0.4-0.9,0.9s0.4,0.9,0.9,0.9h22.8c0.5,0,0.9-0.4,0.9-0.9S62,44.8,61.5,44.8z"/>
		<path class="st0" d="M61.5,51.8H38.6c-0.5,0-0.9,0.4-0.9,0.9s0.4,0.9,0.9,0.9h22.8c0.5,0,0.9-0.4,0.9-0.9S62,51.8,61.5,51.8z"/>
		<path class="st0" d="M61.5,58.8H38.6c-0.5,0-0.9,0.4-0.9,0.9s0.4,0.9,0.9,0.9h22.8c0.5,0,0.9-0.4,0.9-0.9S62,58.8,61.5,58.8z"/>
		<path class="st0" d="M68.5,31.6l-7.2-7.1c-0.3-0.3-0.8-0.8-1.6-0.8H33.3c-1.4,0-2.6,1.2-2.6,2.6v42.9c0,0.3,0.1,0.5,0.3,0.7
			l5.1,5.5c0.3,0.4,0.9,0.4,1.3,0l5.8-6.3l6,6.5c0.2,0.2,0.4,0.3,0.6,0.3s0.5-0.1,0.6-0.3l6-6.5l6,6.5c0.2,0.2,0.4,0.3,0.6,0.3
			c0.2,0,0.5-0.1,0.6-0.3l5.1-5.4c0.2-0.2,0.2-0.4,0.2-0.6V33.3C69.3,32.5,68.9,32,68.5,31.6z M66.9,32.4h-6.2v-6.2L66.9,32.4z
			 M63.3,73.7l-6-6.5c-0.2-0.2-0.4-0.3-0.6-0.3S56.2,67,56,67.2l-6,6.5l-6-6.5c-0.3-0.4-0.9-0.4-1.3,0l-5.8,6.3l-4.3-4.7V26.3
			c0-0.5,0.4-0.9,0.8-0.9h25.6v7.9c0,0.5,0.4,0.9,0.9,0.9h7.8v35.1L63.3,73.7z"/>
	</g>
	<g>
		<path class="st1" d="M50,99.9C22.5,99.9,0.1,77.5,0.1,50C0.1,22.5,22.5,0.1,50,0.1c27.5,0,49.9,22.4,49.9,49.9
			C99.9,77.5,77.5,99.9,50,99.9z M50,1.8C23.4,1.8,1.8,23.4,1.8,50S23.4,98.2,50,98.2S98.2,76.6,98.2,50S76.6,1.8,50,1.8z"/>
	</g>
</g>
</svg>
