<svg width="40" height="40" viewBox="0 0 40 40" fill="none" xmlns="http://www.w3.org/2000/svg">
<path d="M19.91 31.0399L13.07 34.13V24.34L19.91 21.24V31.0399Z" stroke="#0B2343" stroke-linecap="round" stroke-linejoin="round"/>
<path d="M13.07 34.13L6 31.0399V21.24L13.07 24.34V34.13Z" stroke="#0B2343" stroke-linecap="round" stroke-linejoin="round"/>
<path d="M13.07 18.1799L6 21.24L13.07 24.34L19.91 21.24L13.07 18.1799Z" stroke="#0B2343" stroke-linecap="round" stroke-linejoin="round"/>
<path d="M26.98 18.1799L19.91 21.24V11.89L26.98 8.92993V18.1799Z" stroke="#0B2343" stroke-linecap="round" stroke-linejoin="round"/>
<path d="M19.91 21.24L13.07 18.1799V8.92993L19.91 11.89V21.24Z" stroke="#0B2343" stroke-linecap="round" stroke-linejoin="round"/>
<path d="M19.91 6L13.07 8.92993L19.91 11.89L26.98 8.92993L19.91 6Z" stroke="#0B2343" stroke-linecap="round" stroke-linejoin="round"/>
<path d="M33.99 31.0399L26.98 34.13V24.34L33.99 21.24V31.0399Z" stroke="#0B2343" stroke-linecap="round" stroke-linejoin="round"/>
<path d="M26.98 34.13L19.91 31.0399V21.24L26.98 24.34V34.13Z" stroke="#0B2343" stroke-linecap="round" stroke-linejoin="round"/>
<path d="M26.98 18.1799L19.91 21.24L26.98 24.34L33.99 21.24L26.98 18.1799Z" stroke="#0B2343" stroke-linecap="round" stroke-linejoin="round"/>
</svg>
