<?xml version="1.0" encoding="utf-8"?>
<!-- Generator: Adobe Illustrator 23.0.0, SVG Export Plug-In . SVG Version: 6.00 Build 0)  -->
<svg version="1.1" id="Layer_1" xmlns="http://www.w3.org/2000/svg" xmlns:xlink="http://www.w3.org/1999/xlink" x="0px" y="0px"
	 viewBox="0 0 40 40" style="enable-background:new 0 0 40 40;" xml:space="preserve">
<style type="text/css">
	.st0{fill:#E5E5E5;}
	.st1{fill:#666666;}
</style>
<g>
	<g>
		<path class="st1" d="M19.7,26.6c-0.2,0-0.3-0.2-0.3-0.3V10.4c0-0.2,0.2-0.3,0.3-0.3s0.3,0.2,0.3,0.3v15.9
			C20,26.4,19.9,26.6,19.7,26.6z"/>
	</g>
	<g>
		<path class="st1" d="M19.7,26.6c-0.1,0-0.2,0-0.2-0.1l-3.8-3.8c-0.1-0.1-0.1-0.4,0-0.5c0.1-0.1,0.4-0.1,0.5,0l3.6,3.6l3.6-3.6
			c0.1-0.1,0.4-0.1,0.5,0c0.1,0.1,0.1,0.4,0,0.5l-3.8,3.8C19.8,26.5,19.7,26.6,19.7,26.6z"/>
	</g>
	<g>
		<path class="st1" d="M30,30H10c-0.2,0-0.3-0.2-0.3-0.3v-4.8c0-0.2,0.2-0.3,0.3-0.3s0.3,0.2,0.3,0.3v4.5h19.3v-4.5
			c0-0.2,0.2-0.3,0.3-0.3s0.3,0.2,0.3,0.3v4.8C30.3,29.8,30.2,30,30,30z"/>
	</g>
</g>
</svg>
