<svg width="40" height="40" viewBox="0 0 40 40" fill="none" xmlns="http://www.w3.org/2000/svg">
<path d="M11.0071 33.81V23.8" stroke="#0B2343" stroke-miterlimit="10" stroke-linecap="round" stroke-linejoin="round"/>
<path d="M12.8271 9.12997C12.8271 10.05 12.0171 11.33 11.0071 11.33C9.99708 11.33 9.18713 10.05 9.18713 9.12997C9.18713 8.20997 9.99708 7.46997 11.0071 7.46997C12.0171 7.46997 12.8271 8.20997 12.8271 9.12997Z" stroke="#0B2343" stroke-miterlimit="10" stroke-linecap="round" stroke-linejoin="round"/>
<path d="M8.1271 33.81L7.94717 21.98C7.93717 21.74 7.09706 22.05 7.08706 21.83C6.74706 13.46 7.50706 12.93 7.58706 12.86C7.68706 12.83 8.51712 12.81 8.76712 12.8C9.10712 12.78 9.38715 12.97 9.54715 13.24C10.0971 14.21 11.9371 14.21 12.4771 13.24C12.6271 12.97 12.9171 12.78 13.2571 12.8C13.5071 12.81 14.3372 12.83 14.4372 12.86C14.5272 12.93 15.2872 13.46 14.9372 21.83C14.9272 22.06 14.0872 21.75 14.0772 21.98L13.7371 33.81" stroke="#0B2343" stroke-miterlimit="10" stroke-linecap="round" stroke-linejoin="round"/>
<path d="M27.3171 16.13H23.6171V19.48H24.3771L24.9871 20.09H25.9371L26.5471 19.48H27.3171V16.13Z" stroke="#0B2343" stroke-miterlimit="10" stroke-linecap="round" stroke-linejoin="round"/>
<path d="M29.6571 10.13C29.6571 7.85 27.777 6 25.467 6C23.147 6 21.2771 7.85 21.2771 10.13C21.2771 11.35 21.8171 12.69 22.6671 13.68C22.6671 13.68 23.8871 14.99 23.8871 16.13H27.0571V16.12L27.0771 16.13C27.0771 14.99 28.2871 13.67 28.2871 13.67C29.1171 12.69 29.6571 11.35 29.6571 10.13Z" stroke="#0B2343" stroke-miterlimit="10" stroke-linecap="round" stroke-linejoin="round"/>
<path d="M25.467 16.13V12.42" stroke="#0B2343" stroke-miterlimit="10" stroke-linecap="round" stroke-linejoin="round"/>
<path d="M18.8071 10.1H17.0771" stroke="#0B2343" stroke-miterlimit="10" stroke-linecap="round" stroke-linejoin="round"/>
<path d="M19.5171 7.56998L18.1071 6.22998" stroke="#0B2343" stroke-miterlimit="10" stroke-linecap="round" stroke-linejoin="round"/>
<path d="M18.1071 14.11L19.5171 12.76" stroke="#0B2343" stroke-miterlimit="10" stroke-linecap="round" stroke-linejoin="round"/>
<path d="M32.1571 10.1H33.8971" stroke="#0B2343" stroke-miterlimit="10" stroke-linecap="round" stroke-linejoin="round"/>
<path d="M31.4572 7.56998L32.8571 6.22998" stroke="#0B2343" stroke-miterlimit="10" stroke-linecap="round" stroke-linejoin="round"/>
<path d="M32.8571 14.11L31.4572 12.76" stroke="#0B2343" stroke-miterlimit="10" stroke-linecap="round" stroke-linejoin="round"/>
<path d="M24.0671 10.0601L24.9771 10.3901L25.5471 10.0601L26.087 10.3801L27.0271 10.0601" stroke="#0B2343" stroke-miterlimit="10" stroke-linecap="round" stroke-linejoin="round"/>
</svg>
