<svg width="40" height="40" viewBox="0 0 40 40" fill="none" xmlns="http://www.w3.org/2000/svg">
<path d="M19.7799 21.78C18.0199 21.1 16.0599 20.25 15.8999 19.73V19.18C16.2699 18.81 16.55 18.29 16.72 17.67C17.13 17.38 17.2299 16.79 16.8899 16.37V15.13C16.8899 13.85 16.1799 12.98 14.5499 12.98C12.9699 12.98 12.21 13.85 12.21 15.13V16.37C11.87 16.79 11.9799 17.38 12.3799 17.67C12.5499 18.28 12.84 18.8 13.2 19.18V19.73C13.04 20.26 11.0799 21.1 9.31995 21.78C9.16995 21.84 9.06995 21.98 9.06995 22.15V23.53C9.06995 23.75 9.23996 23.92 9.45996 23.92H19.62C19.83 23.92 20.0099 23.74 20.0099 23.53V22.15C20.0199 21.99 19.9299 21.84 19.7799 21.78Z" stroke="#0B2343" stroke-miterlimit="10" stroke-linecap="round" stroke-linejoin="round"/>
<path d="M5 8V33H11V31C11 29.9 11.9 29 13 29C14.1 29 15 29.9 15 31V33H24V31C24 29.9 24.9 29 26 29C27.1 29 28 29.9 28 31V33H34V8H5V8Z" stroke="#0B2343" stroke-miterlimit="10" stroke-linecap="round" stroke-linejoin="round"/>
<path d="M23.0099 16H30.0099" stroke="#0B2343" stroke-linecap="round" stroke-linejoin="round"/>
<path d="M23.0099 19H30.0099" stroke="#0B2343" stroke-linecap="round" stroke-linejoin="round"/>
</svg>
