<svg width="40" height="40" viewBox="0 0 40 40" fill="none" xmlns="http://www.w3.org/2000/svg">
<path d="M19.9999 33.5C27.4558 33.5 33.5 27.4559 33.5 20.0001C33.5 12.5442 27.4558 6.5 19.9999 6.5C12.5441 6.5 6.5 12.5442 6.5 20.0001C6.5 27.4559 12.5441 33.5 19.9999 33.5Z" stroke="#0B2343" stroke-linecap="round" stroke-linejoin="round"/>
<path d="M11.2058 12.2068C11.2058 12.2068 9.40009 16.3514 11.5893 15.5749C13.2078 15.0042 13.3481 14.3399 13.3481 14.3399L14.3024 12.6746C14.3024 12.6746 14.4427 15.0042 14.6392 15.3317C14.8263 15.6685 15.5935 16.6133 15.8742 15.2848C16.3981 12.843 16.4823 12.1508 17.3898 12.1508C18.2973 12.1508 20.1497 11.4397 20.3368 13.6195C20.5239 15.8087 20.1496 14.5177 18.9614 15.0884C17.7733 15.6591 17.4927 17.6518 18.5779 17.8857C19.2515 18.0354 20.4397 18.4657 21.263 18.7744C23.9106 19.7848 23.9947 22.7132 23.9947 25.2953C23.9947 25.2953 24.0416 28.289 25.1362 27.578C26.2308 26.867 29.2245 22.2079 28.607 20.4585C27.9896 18.6996 27.9428 18.5125 29.0842 17.8951C30.2255 17.2776 31.0301 16.5198 30.9834 15.6591" stroke="#0B2343" stroke-linecap="round" stroke-linejoin="round"/>
<path d="M8.96985 23.4152C8.96985 23.4152 9.30657 19.6449 10.0644 20.2436C10.8222 20.8424 11.159 20.8424 11.8232 21.5066C12.4875 22.1709 15.3409 22.5545 14.3866 23.4058C13.4324 24.2572 13.0676 24.2103 11.7765 28.0087" stroke="#0B2343" stroke-linecap="round" stroke-linejoin="round"/>
</svg>
