<svg width="40" height="40" viewBox="0 0 40 40" fill="none" xmlns="http://www.w3.org/2000/svg">
<path d="M12.53 18.0601C13.94 18.0601 15.08 16.93 15.08 15.54C15.08 14.15 13.94 13.02 12.53 13.02C11.12 13.02 9.97998 14.15 9.97998 15.54C9.97998 16.93 11.12 18.0601 12.53 18.0601Z" stroke="#0B2343" stroke-miterlimit="10" stroke-linecap="round" stroke-linejoin="round"/>
<path d="M11.22 30L19.98 17.6399L23.6 22.55L28.25 15.1899L34 23.6599" stroke="#0B2343" stroke-miterlimit="10" stroke-linecap="round" stroke-linejoin="round"/>
<path d="M32 30H7C5.9 30 5 29.1 5 28V11C5 9.9 5.9 9 7 9H32C33.1 9 34 9.9 34 11V28C34 29.1 33.11 30 32 30Z" stroke="#0B2343" stroke-miterlimit="10" stroke-linecap="round" stroke-linejoin="round"/>
</svg>
