<svg width="40" height="40" viewBox="0 0 40 40" fill="none" xmlns="http://www.w3.org/2000/svg">
<path d="M16.48 20.75C17.69 20.75 18.67 19.7798 18.67 18.5898C18.67 17.3998 17.69 16.4299 16.48 16.4299C15.27 16.4299 14.29 17.3998 14.29 18.5898C14.29 19.7898 15.27 20.75 16.48 20.75Z" stroke="#0B2343" stroke-miterlimit="10" stroke-linecap="round" stroke-linejoin="round"/>
<path d="M15.36 30.98L22.89 20.3999L26.01 24.5999L30.02 18.3L34.96 25.55" stroke="#0B2343" stroke-miterlimit="10" stroke-linecap="round" stroke-linejoin="round"/>
<path d="M32.96 30.98H12C10.9 30.98 10 30.08 10 28.98V15C10 13.9 10.9 13 12 13H32.96C34.06 13 34.96 13.9 34.96 15V28.98C34.96 30.08 34.07 30.98 32.96 30.98Z" stroke="#0B2343" stroke-miterlimit="10" stroke-linecap="round" stroke-linejoin="round"/>
<path d="M8 26.98C6.9 26.98 6 26.08 6 24.98V11C6 9.9 6.9 9 8 9H28.96C30.06 9 30.96 9.9 30.96 11" stroke="#0B2343" stroke-miterlimit="10" stroke-linecap="round" stroke-linejoin="round"/>
</svg>
