<svg width="40" height="40" viewBox="0 0 40 40" fill="none" xmlns="http://www.w3.org/2000/svg">
<path d="M20.0001 2C10.0695 2 2 10.0695 2 20.0001C2 29.9307 10.0695 38 20.0001 38C29.9307 38 38.0001 29.9182 38.0001 20.0001C38.0001 10.0695 29.9182 2 20.0001 2Z" stroke="#0B2343" stroke-miterlimit="10" stroke-linecap="round" stroke-linejoin="round"/>
<path d="M19.5255 6.95905C21.5866 6.95905 23.2604 8.63287 23.2604 10.6939C23.2604 12.755 21.5866 14.4288 19.5255 14.4288C17.4644 14.4288 15.7906 12.755 15.7906 10.6939C15.7781 8.63287 17.4644 6.95905 19.5255 6.95905Z" stroke="#0B2343" stroke-miterlimit="10" stroke-linecap="round" stroke-linejoin="round"/>
<path d="M25.5337 31.8169H15.9652C14.204 31.8169 14.2664 29.3186 15.9652 29.3186H18.1512V20.7869H15.9652C14.2165 20.7869 14.2539 18.1139 15.9652 18.1139H23.8723C24.1346 18.1139 24.3345 18.3263 24.3345 18.5886V29.3061H25.5337C27.2325 29.3186 27.2949 31.8169 25.5337 31.8169Z" stroke="#0B2343" stroke-miterlimit="10" stroke-linecap="round" stroke-linejoin="round"/>
</svg>
