<svg width="40" height="40" viewBox="0 0 40 40" fill="none" xmlns="http://www.w3.org/2000/svg">
<path d="M30.07 29.41C30.07 29.41 37.36 24.8 33.01 22.24C33.01 22.24 37.11 15.25 32.84 15.25C32.84 15.25 34.95 10.37 30.06 6C25.17 10.37 27.28 15.25 27.28 15.25C23.01 15.25 27.11 22.24 27.11 22.24C22.77 24.8 30.07 29.41 30.07 29.41Z" stroke="#0B2343" stroke-miterlimit="10" stroke-linecap="round" stroke-linejoin="round"/>
<path d="M30.07 29.41V34.02" stroke="#0B2343" stroke-miterlimit="10" stroke-linecap="round" stroke-linejoin="round"/>
<path d="M30.07 16.5699V25.2199" stroke="#0B2343" stroke-miterlimit="10" stroke-linecap="round" stroke-linejoin="round"/>
<path d="M22.01 34.2199C22.01 30.4599 19.54 27.0799 17.06 25.7899V24.1999C17.06 23.5099 17.37 22.9499 18.05 22.9499V19.1899H10.08V22.9499C10.76 22.9499 10.95 23.5099 10.95 24.1999V25.7899C8.48 27.0799 6 30.4599 6 34.2199H22.01Z" stroke="#0B2343" stroke-miterlimit="10" stroke-linecap="round" stroke-linejoin="round"/>
</svg>
