<svg width="40" height="40" viewBox="0 0 40 40" fill="none" xmlns="http://www.w3.org/2000/svg">
<path d="M23.7899 23.001H4" stroke="#0B2343" stroke-width="1.06928" stroke-miterlimit="10" stroke-linecap="round" stroke-linejoin="round"/>
<path d="M4 7H36.1857V23.0013H27.3381" stroke="#0B2343" stroke-width="1.06928" stroke-miterlimit="10" stroke-linecap="round" stroke-linejoin="round"/>
<path d="M31.2984 30.1895L29.2725 27.511L31.0924 27.1563C31.3671 27.0991 31.4701 26.7557 31.2526 26.5611L23.8701 19.9339C23.6297 19.7164 23.2406 19.9225 23.2978 20.2429L24.9803 29.9033C25.0261 30.178 25.3695 30.2809 25.5641 30.0863L27.0177 28.6214L28.8376 31.8261C28.9406 31.9978 29.1695 32.055 29.3297 31.9406L31.1954 30.6815C31.3785 30.5785 31.4243 30.3497 31.2984 30.1895Z" stroke="#0B2343" stroke-width="1.06928" stroke-linecap="round" stroke-linejoin="round"/>
<path d="M27.2351 16.8663C27.4068 17.0952 27.7502 17.0952 27.9104 16.8663L30.7146 13.3982C30.8978 13.1464 30.749 12.7344 30.3712 12.7344H24.7628C24.614 12.7344 24.4766 12.8374 24.4652 12.8603C24.3164 13.0091 24.305 13.2379 24.4309 13.3982L27.2351 16.8663Z" stroke="#0B2343" stroke-width="1.06928" stroke-linecap="round" stroke-linejoin="round"/>
<path d="M19.017 23.0013V7" stroke="#0B2343" stroke-width="1.06928" stroke-miterlimit="10" stroke-linecap="round" stroke-linejoin="round"/>
</svg>
