<svg width="40" height="40" viewBox="0 0 40 40" fill="none" xmlns="http://www.w3.org/2000/svg">
<g clip-path="url(#clip0_7708_107007)">
<path d="M19.8942 3.82603C25.2039 3.82603 25.8272 3.8497 27.9258 3.94437C29.8667 4.03116 30.916 4.35463 31.6182 4.63077C32.5492 4.99369 33.2119 5.41973 33.9062 6.11401C34.6005 6.8083 35.0344 7.47103 35.3894 8.402C35.6577 9.10418 35.989 10.1535 36.0758 12.0943C36.1705 14.193 36.1942 14.8163 36.1942 20.126C36.1942 25.4357 36.1705 26.059 36.0758 28.1576C35.989 30.0984 35.6656 31.1478 35.3894 31.8499C35.0265 32.7809 34.6005 33.4436 33.9062 34.1379C33.2119 34.8322 32.5492 35.2661 31.6182 35.6212C30.916 35.8894 29.8667 36.2208 27.9258 36.3076C25.8272 36.4023 25.2039 36.4259 19.8942 36.4259C14.5845 36.4259 13.9612 36.4023 11.8626 36.3076C9.92173 36.2208 8.87241 35.8973 8.17024 35.6212C7.23926 35.2583 6.57654 34.8322 5.88225 34.1379C5.18796 33.4436 4.75403 32.7809 4.399 31.8499C4.13075 31.1478 3.79939 30.0984 3.7126 28.1576C3.61793 26.059 3.59426 25.4357 3.59426 20.126C3.59426 14.8163 3.61793 14.193 3.7126 12.0943C3.79939 10.1535 4.12286 9.10418 4.399 8.402C4.76192 7.47103 5.18796 6.8083 5.88225 6.11401C6.57654 5.41973 7.23926 4.9858 8.17024 4.63077C8.87241 4.36252 9.92173 4.03116 11.8626 3.94437C13.9612 3.84181 14.5924 3.82603 19.8942 3.82603ZM19.8942 0.244141C14.4977 0.244141 13.8192 0.267809 11.6969 0.362485C9.58248 0.45716 8.13868 0.796414 6.87634 1.28557C5.56666 1.79051 4.46212 2.4769 3.35757 3.58145C2.25303 4.68599 1.57452 5.79843 1.06169 7.10022C0.572537 8.36256 0.233283 9.80636 0.138608 11.9287C0.0439325 14.0431 0.0202637 14.7216 0.0202637 20.1181C0.0202637 25.5146 0.0439325 26.1931 0.138608 28.3154C0.233283 30.4298 0.572537 31.8736 1.06169 33.1438C1.56663 34.4535 2.25303 35.5581 3.35757 36.6626C4.46212 37.7672 5.57455 38.4457 6.87634 38.9585C8.13868 39.4476 9.58248 39.7869 11.7048 39.8816C13.8271 39.9762 14.4977 39.9999 19.9021 39.9999C25.3065 39.9999 25.9771 39.9762 28.0994 39.8816C30.2138 39.7869 31.6576 39.4476 32.9279 38.9585C34.2375 38.4536 35.3421 37.7672 36.4466 36.6626C37.5512 35.5581 38.2297 34.4456 38.7425 33.1438C39.2317 31.8815 39.5709 30.4377 39.6656 28.3154C39.7603 26.1931 39.7839 25.5225 39.7839 20.1181C39.7839 14.7137 39.7603 14.0431 39.6656 11.9208C39.5709 9.80635 39.2317 8.36256 38.7425 7.09233C38.2376 5.78265 37.5512 4.6781 36.4466 3.57356C35.3421 2.46901 34.2296 1.79051 32.9279 1.27768C31.6655 0.788524 30.2217 0.449271 28.0994 0.354595C25.9692 0.267809 25.2907 0.244141 19.8942 0.244141Z" fill="#FAFCFE"/>
<path d="M19.8932 9.9165C14.2601 9.9165 9.68408 14.4846 9.68408 20.1257C9.68408 25.7667 14.2522 30.3348 19.8932 30.3348C25.5343 30.3348 30.1024 25.7667 30.1024 20.1257C30.1024 14.4846 25.5343 9.9165 19.8932 9.9165ZM19.8932 26.7451C16.2325 26.7451 13.266 23.7786 13.266 20.1178C13.266 16.457 16.2325 13.4905 19.8932 13.4905C23.554 13.4905 26.5205 16.457 26.5205 20.1178C26.5205 23.7786 23.554 26.7451 19.8932 26.7451Z" fill="#FAFCFE"/>
<path d="M30.5043 11.8891C31.8198 11.8891 32.8861 10.8224 32.8861 9.50644C32.8861 8.19053 31.8198 7.12378 30.5043 7.12378C29.1889 7.12378 28.1226 8.19053 28.1226 9.50644C28.1226 10.8224 29.1889 11.8891 30.5043 11.8891Z" fill="#FAFCFE"/>
</g>
<defs>
<clipPath id="clip0_7708_107007">
<rect width="40" height="40" fill="white"/>
</clipPath>
</defs>
</svg>
