<?xml version="1.0" encoding="utf-8"?>
<!-- Generator: Adobe Illustrator 19.1.0, SVG Export Plug-In . SVG Version: 6.00 Build 0)  -->
<svg version="1.1" id="Layer_1" xmlns="http://www.w3.org/2000/svg" xmlns:xlink="http://www.w3.org/1999/xlink" x="0px" y="0px"
	 viewBox="0 0 50 50" enable-background="new 0 0 50 50" xml:space="preserve">
<path fill="#221F1F" d="M44.2,0H5.8C2.6,0,0,2.6,0,5.8v38.5C0,47.4,2.6,50,5.8,50h38.5c3.2,0,5.8-2.6,5.8-5.8V5.8
	C50,2.6,47.4,0,44.2,0z M25,15.4c5.3,0,9.6,4.3,9.6,9.6c0,5.3-4.3,9.6-9.6,9.6c-5.3,0-9.6-4.3-9.6-9.6C15.4,19.7,19.7,15.4,25,15.4z
	 M44.2,42.3c0,1.1-0.9,1.9-1.9,1.9H7.7c-1.1,0-1.9-0.9-1.9-1.9V21.2h4.4c-0.3,1.2-0.5,2.5-0.5,3.8c0,8.5,6.9,15.4,15.4,15.4
	c8.5,0,15.4-6.9,15.4-15.4c0-1.3-0.2-2.6-0.5-3.8h4.4V42.3z M44.2,13.5c0,1.1-0.9,1.9-1.9,1.9h-5.8c-1.1,0-1.9-0.9-1.9-1.9V7.7
	c0-1.1,0.9-1.9,1.9-1.9h5.8c1.1,0,1.9,0.9,1.9,1.9V13.5z"/>
</svg>
