<svg width="40" height="40" viewBox="0 0 40 40" fill="none" xmlns="http://www.w3.org/2000/svg">
<path d="M22.7331 4.90384H20.8602V3.97131C20.8602 2.88531 19.8527 2 18.5998 2H17.4632C16.2103 2 15.2028 2.88531 15.2028 3.97131V4.90384H13.2524C10.2686 4.90384 10.2299 9 13.2524 9H22.7331C25.7556 9 25.7556 4.90384 22.7331 4.90384Z" stroke="#0B2343" stroke-linecap="round" stroke-linejoin="round"/>
<path d="M27.3614 7H30V35H6V7H8.66157" stroke="#0B2343" stroke-linecap="round" stroke-linejoin="round"/>
<path d="M34.4074 25.4093C34.4019 25.4093 34.0273 25.5156 33.4515 25.5156C32.2329 25.5156 30.4664 25.0572 28.9738 22.8827C28.8005 22.6311 28.3869 22.6311 28.2136 22.8827C26.4136 25.51 23.8812 25.784 22.78 25.4038C22.4837 25.3144 22.1874 25.5379 22.1874 25.8565V30.2784C22.1874 36.4499 28.4093 38.2443 28.4708 38.2611C28.5099 38.2723 28.549 38.2777 28.5937 38.2777C28.6328 38.2777 28.6776 38.2723 28.7167 38.2611C28.7782 38.2443 35 36.4499 35 30.2784V25.8565C35 25.5547 34.7093 25.3254 34.4074 25.4093Z" fill="white" stroke="#0B2343" stroke-miterlimit="10" stroke-linecap="round" stroke-linejoin="round"/>
<path d="M26.1006 30.8401L27.8737 33.0575L31.6907 28.2842" stroke="#0B2343" stroke-miterlimit="10" stroke-linecap="round" stroke-linejoin="round"/>
<line x1="10.5" y1="15.5" x2="25.5" y2="15.5" stroke="#0B2343" stroke-linecap="round" stroke-linejoin="round"/>
<line x1="10.5" y1="20.5" x2="25.5" y2="20.5" stroke="#0B2343" stroke-linecap="round" stroke-linejoin="round"/>
<line x1="10.5" y1="25.5" x2="19.5" y2="25.5" stroke="#0B2343" stroke-linecap="round" stroke-linejoin="round"/>
</svg>
