<?xml version="1.0" encoding="utf-8"?>
<!-- Generator: Adobe Illustrator 19.1.0, SVG Export Plug-In . SVG Version: 6.00 Build 0)  -->
<svg version="1.1" id="Layer_1" xmlns="http://www.w3.org/2000/svg" xmlns:xlink="http://www.w3.org/1999/xlink" x="0px" y="0px"
	 viewBox="0 0 69 40" enable-background="new 0 0 69 40" xml:space="preserve">
<path fill="#221F1F" d="M64.1,8.9c-2.7,0-4.9,2.2-4.9,4.9c0,1,0.3,1.9,0.8,2.7L46.7,30.9c-0.7-0.4-1.5-0.6-2.3-0.6c0,0,0,0,0,0
	c-0.5,0-1.1,0.1-1.6,0.3L28.2,8.2c0.8-0.9,1.3-2,1.3-3.3c0-2.7-2.2-4.9-4.9-4.9c0,0,0,0,0,0c-1.3,0-2.5,0.5-3.4,1.4
	c-0.9,0.9-1.4,2.1-1.4,3.4c0,0.6,0.1,1.1,0.3,1.6L8.2,13.8c-0.9-0.8-2.1-1.3-3.4-1.3c0,0,0,0,0,0c-1.3,0-2.5,0.5-3.4,1.4
	C0.5,14.8,0,16,0,17.3c0,2.7,2.2,4.9,4.9,4.9c2.7,0,4.9-2.2,4.9-4.9c0-0.5-0.1-1-0.2-1.5l11.8-7.4c0.9,0.8,2,1.3,3.3,1.3
	c0.5,0,1.1-0.1,1.6-0.3l14.6,22.4c-0.8,0.9-1.3,2.1-1.3,3.3c0,2.7,2.2,4.9,4.9,4.9c0,0,0,0,0,0c2.7,0,4.9-2.2,4.9-4.9
	c0-1-0.3-1.9-0.8-2.7L61.8,18c0.7,0.4,1.5,0.6,2.3,0.6c0,0,0,0,0,0c2.7,0,4.9-2.2,4.9-4.9C69,11.1,66.8,8.9,64.1,8.9z M4.9,19.8
	c-1.4,0-2.5-1.1-2.5-2.5c0-0.7,0.3-1.3,0.7-1.8c0.5-0.5,1.1-0.7,1.8-0.7c0,0,0,0,0,0c1.4,0,2.5,1.1,2.5,2.5
	C7.4,18.7,6.3,19.8,4.9,19.8z M22.1,4.9c0-0.7,0.3-1.3,0.7-1.8c0.5-0.5,1.1-0.7,1.8-0.7c0,0,0,0,0,0c1.4,0,2.5,1.1,2.5,2.5
	c0,1.4-1.1,2.5-2.5,2.5C23.3,7.3,22.1,6.2,22.1,4.9z M44.4,37.6c-1.4,0-2.5-1.1-2.5-2.5c0-0.7,0.3-1.3,0.7-1.8
	c0.1-0.1,0.3-0.2,0.4-0.3c0,0,0,0,0,0c0,0,0,0,0,0c0.4-0.3,0.9-0.4,1.3-0.4c0,0,0,0,0,0c0.6,0,1.2,0.2,1.6,0.6c0,0,0,0,0.1,0.1
	c0,0,0.1,0.1,0.1,0.1c0.5,0.5,0.7,1.1,0.7,1.8C46.9,36.5,45.7,37.6,44.4,37.6z M64.1,16.2c-0.6,0-1.2-0.2-1.7-0.6c0,0,0,0,0,0
	c0,0,0,0,0,0c-0.5-0.5-0.8-1.1-0.8-1.8c0-1.4,1.1-2.5,2.5-2.5c1.4,0,2.5,1.1,2.5,2.5C66.6,15.1,65.5,16.2,64.1,16.2z"/>
</svg>
