<svg width="40" height="40" viewBox="0 0 40 40" fill="none" xmlns="http://www.w3.org/2000/svg">
<path d="M11.5578 18.1614C11.3 19.5243 11.1711 20.9609 11.1711 22.4344C11.1711 25.593 11.7881 28.549 12.8656 31.0814C13.2523 32.0023 13.7035 32.8588 14.2008 33.66H26.6697C27.167 32.868 27.6182 32.0023 28.005 31.0814C29.0824 28.549 29.6995 25.593 29.6995 22.4344C29.6995 20.7399 29.5245 19.1099 29.1929 17.572" stroke="#0B2343" stroke-miterlimit="10" stroke-linecap="round" stroke-linejoin="round"/>
<path d="M28.0418 7H12.7458C12.3959 7 12.1196 7.2762 12.1196 7.62614V11.0059C12.1196 11.3466 12.3959 11.632 12.7458 11.632H28.0418C28.3918 11.632 28.6681 11.3558 28.6681 11.0427V7.66302C28.6681 7.27624 28.3918 7 28.0418 7Z" stroke="#0B2343" stroke-miterlimit="10" stroke-linecap="round" stroke-linejoin="round"/>
<path d="M13.8416 11.632C13.8416 11.632 8.84128 14.588 10.2502 16.1444C11.5579 17.5902 12.2301 14.6893 13.6575 14.7446C15.0849 14.7998 13.8417 16.5403 15.7756 16.2549C17.7095 15.9694 17.5805 12.4332 19.1736 14.2105C20.7668 15.9878 22.3232 16.4667 23.1612 14.6433C23.9992 12.8107 25.6659 13.8606 27.2407 15.2603C28.8154 16.6601 30.5007 15.463 29.368 14.2566C28.2353 13.0502 27.3696 11.6412 27.3696 11.6412H13.8416V11.632Z" stroke="#0B2343" stroke-miterlimit="10" stroke-linecap="round" stroke-linejoin="round"/>
<path d="M25.9054 20.7949H22.931C22.6915 19.5886 21.6325 18.8794 20.3524 18.8794C19.0816 18.8794 18.0133 19.5978 17.7739 20.7949H14.9099V28.1897H25.8962V20.7949H25.9054Z" stroke="#0B2343" stroke-linecap="round" stroke-linejoin="round"/>
</svg>
