<?xml version="1.0" encoding="utf-8"?>
<!-- Generator: Adobe Illustrator 23.0.0, SVG Export Plug-In . SVG Version: 6.00 Build 0)  -->
<svg version="1.1" id="Layer_1" xmlns="http://www.w3.org/2000/svg" xmlns:xlink="http://www.w3.org/1999/xlink" x="0px" y="0px"
	 viewBox="0 0 51 34" style="enable-background:new 0 0 51 34;" xml:space="preserve">
<g>
	<path d="M36.9,16.5c0.2,0.3,0.5,0.5,0.8,0.6c0.1,0,0.2,0,0.2,0c0.3,0,0.5-0.1,0.8-0.2c0.3-0.2,0.6-0.5,0.7-0.8
		c0.1-0.3,0.1-0.7-0.1-1c-0.1-0.3-0.4-0.5-0.7-0.5c-0.4-0.1-0.8,0-1.2,0.2c-0.3,0.2-0.6,0.5-0.7,0.8C36.7,15.8,36.7,16.2,36.9,16.5z
		 M37.5,15.7c0.1-0.2,0.2-0.3,0.4-0.4c0.1-0.1,0.3-0.1,0.4-0.1c0.1,0,0.1,0,0.2,0c0.1,0,0.2,0.1,0.3,0.2c0.1,0.2,0,0.3,0,0.4
		c-0.1,0.2-0.2,0.3-0.4,0.4c-0.2,0.1-0.4,0.1-0.6,0.1c-0.1,0-0.3-0.1-0.3-0.2S37.5,15.8,37.5,15.7z"/>
	<path d="M50.5,6.8l-14-3.9V0.5C36.5,0.2,36.3,0,36,0H14.9c-0.3,0-0.5,0.2-0.5,0.5v2.4l-14,3.9C0.1,6.9-0.1,7.1,0,7.4l7.3,26.2
		C7.4,33.9,7.6,34,7.8,34c0,0,0.1,0,0.1,0l7-2c0.3-0.1,0.4-0.4,0.3-0.6S15,31,14.7,31.1l-6.5,1.8L1.1,7.6l13.2-3.7v11.9
		c-0.2,0-0.4,0-0.6,0c0.1-0.1,0.2-0.2,0.1-0.4c-0.1-0.4-0.4-0.7-0.8-0.8c-0.3-0.1-0.7,0-0.9,0.3c-0.3,0.3-0.3,0.7-0.2,1.1
		c0,0.2,0.2,0.3,0.3,0.3c-1.2,0.5-2.2,1.3-2.8,2.4c-0.8,1.3-0.9,3-0.5,4.6c0,0.2,0.2,0.3,0.3,0.3c0,0,0.1,0,0.1,0l4.9-1.4V23
		l-4.8,1.4c0,0,0,0,0,0L9,24.5c-0.2,0.1-0.3,0.2-0.2,0.4c0,0.2,0.2,0.3,0.3,0.3c0,0,0.1,0,0.1,0L9.5,25l0.9,0.9
		c0.1,0.1,0.2,0.1,0.3,0.1c0,0,0.1,0,0.1,0l3.6-1v5.2c0,0.3,0.2,0.5,0.5,0.5H36c0.3,0,0.5-0.2,0.5-0.5v-5.8c0.1,0,0.2,0,0.3-0.1
		l6.4-3.7c0.2-0.1,0.3-0.3,0.4-0.5c0.1-0.2,0-0.4-0.1-0.6L39,11.6c-0.2-0.3-0.5-0.4-0.7-0.4l-1.8-0.5V3.9l13.2,3.7l-7,25.3l-6.6-1.8
		c-0.3-0.1-0.5,0.1-0.6,0.3c-0.1,0.3,0.1,0.5,0.3,0.6l7.1,2c0,0,0.1,0,0.1,0c0.1,0,0.2,0,0.2-0.1c0.1-0.1,0.2-0.2,0.2-0.3l7.3-26.3
		C50.9,7.1,50.8,6.8,50.5,6.8z M12.6,15.8c-0.1-0.2,0-0.3,0.1-0.4c0.1-0.1,0.2-0.1,0.2-0.1c0.1,0,0.2,0.1,0.3,0.3
		c0,0.1,0.1,0.2,0.3,0.2c-0.2,0-0.3,0-0.5,0.1c-0.2,0-0.3,0.1-0.5,0.2C12.6,16.1,12.7,15.9,12.6,15.8z M9.6,22.7
		c-0.3-1.4-0.1-2.6,0.5-3.7c0.6-1.1,1.7-2,3.1-2.3c0.4-0.1,0.8-0.2,1.2-0.2v4.9L9.6,22.7z M10.7,25.3l-0.5-0.5l0.9-0.2l3.2-0.9v0.6
		L10.7,25.3z M35.5,29.7H15.4V1h20.2V29.7z M38.2,11.8c0.2,0,0.2,0.1,0.3,0.1l4.5,7.9c0,0,0,0.1,0,0.2l-6.4,3.7v-2.2
		c0.2,0.1,0.4,0.2,0.7,0.2c0.3,0,0.5-0.1,0.8-0.2c0.7-0.4,1-1.2,0.6-1.8c-0.3-0.6-1.2-0.8-1.9-0.4c-0.1,0.1-0.2,0.1-0.3,0.2v-1.2
		l3.9,0.4c0,0,0,0,0,0c0.2,0,0.3-0.1,0.3-0.3c0-0.2-0.1-0.4-0.3-0.4l-4-0.5v-6.1L38.2,11.8z M36.7,20.3c0.1-0.2,0.2-0.3,0.4-0.4
		c0.1-0.1,0.3-0.1,0.4-0.1c0.2,0,0.4,0.1,0.5,0.2c0.1,0.3,0,0.6-0.4,0.8c-0.3,0.2-0.8,0.1-0.9-0.1C36.6,20.5,36.7,20.4,36.7,20.3z"
		/>
	<path d="M11.9,17.9c-1,0.8-1.5,2-1.5,3.5c0,0.2,0.2,0.4,0.3,0.4c0,0,0,0,0,0c0.2,0,0.3-0.2,0.4-0.3c0-1.3,0.4-2.3,1.2-2.9
		c0.1-0.1,0.2-0.3,0.1-0.5C12.3,17.8,12.1,17.8,11.9,17.9z"/>
	<path d="M12.4,14.1C12.4,14.1,12.4,14.1,12.4,14.1c0.3-0.1,0.4-0.3,0.3-0.4l-0.6-2c-0.1-0.2-0.2-0.3-0.4-0.2
		c-0.2,0.1-0.3,0.2-0.2,0.4l0.6,2C12.1,14,12.2,14.1,12.4,14.1z"/>
	<path d="M9.7,16.2c0.1,0,0.2-0.1,0.3-0.2c0.1-0.2,0-0.4-0.1-0.5l-2-1.2c-0.2-0.1-0.4,0-0.5,0.1c-0.1,0.2,0,0.4,0.1,0.5l2,1.2
		C9.6,16.2,9.6,16.2,9.7,16.2z"/>
	<path d="M28.6,21.4c-0.2,0-0.3,0.2-0.3,0.4c0,0.7-0.6,1.2-1.2,1.2c-0.7,0-1.2-0.6-1.2-1.2v-4.4c0-0.2-0.2-0.4-0.4-0.4
		s-0.4,0.2-0.4,0.4v4.4c0,1.1,0.9,1.9,1.9,1.9c1.1,0,1.9-0.9,1.9-1.9C28.9,21.5,28.8,21.4,28.6,21.4z"/>
	<path d="M17.5,16.1h0.1c0.1,0,0.3-0.1,0.3-0.2c0.2-0.7,0.9-1.1,1.6-1.1c0.7,0,1.3,0.4,1.5,1.1c0,0.1,0.2,0.2,0.3,0.2h0.2
		c0.1,0,0.3-0.1,0.3-0.2c0.2-0.7,0.9-1.1,1.6-1.1c0.7,0,1.3,0.4,1.5,1.1c0,0.1,0.2,0.2,0.3,0.2h0.1c0.1,0,0.3-0.1,0.3-0.2
		c0.2-0.7,0.9-1.1,1.5-1.1s1.3,0.4,1.5,1.1c0,0.1,0.2,0.2,0.3,0.2h0.2c0.1,0,0.3-0.1,0.3-0.2c0.2-0.7,0.9-1.1,1.5-1.1
		c0.7,0,1.3,0.4,1.5,1.1c0,0.1,0.2,0.2,0.3,0.2h0.2c0.2,0,0.3-0.2,0.3-0.4c0-4-3.5-7.2-8-7.4V7.4c0-0.2-0.2-0.4-0.4-0.4
		s-0.4,0.2-0.4,0.4v0.9c-4.4,0.2-7.9,3.4-7.9,7.4C17.1,15.9,17.3,16.1,17.5,16.1z M25.4,9.1c3.8,0,6.9,2.4,7.5,5.6
		c-0.4-0.4-1-0.6-1.6-0.6c-0.8,0-1.6,0.4-2,1.1c-0.4-0.7-1.2-1.1-2-1.1c-0.8,0-1.5,0.4-2,1.1c-0.4-0.6-1.2-1.1-2-1.1
		c-0.8,0-1.6,0.4-2,1.1c-0.4-0.7-1.2-1.1-2-1.1c-0.6,0-1.1,0.2-1.5,0.6C18.5,11.5,21.7,9.1,25.4,9.1z"/>
</g>
</svg>
