<svg width="40" height="40" viewBox="0 0 40 40" fill="none" xmlns="http://www.w3.org/2000/svg">
<path d="M21.9555 11.7391C22.0395 12.2056 22.562 15.1723 22.7486 15.6015L25.6872 22.5145C25.9298 23.0836 26.0418 23.7086 26.0045 24.3243L25.4914 33.1591C25.4914 33.6163 23.0377 33.9801 20.0057 33.9801C16.9737 33.9801 14.5201 33.6069 14.5201 33.1591L14.0071 24.3243C13.9697 23.6993 14.0817 23.0836 14.3242 22.5145L17.263 15.6015C17.4496 15.1723 17.972 12.2056 18.0559 11.7391" stroke="#0B2343" stroke-miterlimit="10" stroke-linecap="round" stroke-linejoin="round"/>
<path d="M22.2261 11.7392H17.8134C17.3936 11.7392 17.0577 11.4033 17.0577 10.9835V7.75561C17.0577 7.3358 17.3936 7 17.8134 7H22.2261C22.646 7 22.9819 7.3358 22.9819 7.75561V10.9835C22.9725 11.4033 22.6366 11.7392 22.2261 11.7392Z" stroke="#0B2343" stroke-miterlimit="10" stroke-linecap="round" stroke-linejoin="round"/>
<path d="M17.0485 8.88428H22.9725" stroke="#0B2343" stroke-miterlimit="10" stroke-linecap="round" stroke-linejoin="round"/>
<path d="M22.3287 29.5114C22.3287 29.5114 23.1404 24.0538 23.1404 23.9885C23.1404 23.1395 21.741 22.4491 20.0151 22.4491C18.2892 22.4491 16.8898 23.1395 16.8898 23.9885C16.8898 24.0444 17.7014 29.5114 17.7014 29.5114H22.3287Z" stroke="#0B2343" stroke-miterlimit="10" stroke-linecap="round" stroke-linejoin="round"/>
</svg>
