<svg width="40" height="40" viewBox="0 0 40 40" fill="none" xmlns="http://www.w3.org/2000/svg">
<path d="M20.81 24.0725L24.25 20.6325C26.88 21.8225 30.0801 21.3426 32.2401 19.1826C35.0301 16.3926 35.0301 11.8725 32.2401 9.0925C29.4501 6.3025 24.93 6.3025 22.15 9.0925C20.12 11.1225 19.58 14.0625 20.5 16.5925L6 31.0925L7.05005 33.5725L11.17 33.4226L12.11 29.9026L16.13 29.1125L16.85 23.9824L20.81 24.0725ZM30.41 13.2925C29.75 13.9525 28.69 13.9525 28.03 13.2925C27.37 12.6325 27.37 11.5726 28.03 10.9126C28.69 10.2526 29.75 10.2526 30.41 10.9126C31.07 11.5726 31.07 12.6325 30.41 13.2925Z" stroke="#0B2343" stroke-miterlimit="10" stroke-linecap="round" stroke-linejoin="round"/>
</svg>
