<svg width="40" height="40" viewBox="0 0 40 40" fill="none" xmlns="http://www.w3.org/2000/svg">
<path d="M29.5659 32.2261L31.9639 29.8281C33.7954 30.6582 36.0222 30.3288 37.5374 28.8135C39.4875 26.8766 39.4875 23.7143 37.5374 21.7774C35.5873 19.8274 32.4383 19.8274 30.5014 21.7774C29.0915 23.1873 28.7094 25.2428 29.3551 27.0084L19.2489 37.1145L19.9868 38.8406L22.8593 38.7352L23.5181 36.2844L26.3246 35.731L26.8252 32.1471L29.5659 32.2261Z" stroke="#0B2343" stroke-miterlimit="10" stroke-linecap="round" stroke-linejoin="round"/>
<path d="M25.4814 24.9924C23.7817 24.0964 20.9487 22.0805 20.7379 21.4217V19.8273C21.7919 18.7469 22.6353 17.2448 23.1228 15.4924C24.3087 14.6623 24.5985 12.9494 23.6235 11.7503V8.19279C23.6235 4.51665 21.568 2 16.851 2C12.2656 2 10.0784 4.51665 10.0784 8.19279V11.7503C9.10335 12.9494 9.39324 14.6623 10.5791 15.4792C11.0798 17.2316 11.91 18.7337 12.964 19.8142V21.4085C12.4897 22.9237 6.82392 25.3613 1.72475 27.3114C1.28994 27.4827 1 27.9043 1 28.3655V32.3447C1 32.964 1.50066 33.4778 2.11994 33.4778H17.5229" stroke="#0B2343" stroke-miterlimit="10" stroke-linecap="round" stroke-linejoin="round"/>
</svg>
