<svg width="40" height="40" viewBox="0 0 40 40" fill="none" xmlns="http://www.w3.org/2000/svg">
<path d="M22.1559 27.1038C19.7767 27.7804 17.3491 27.0186 15.8566 25.3518L26.591 22.2999C26.198 24.502 24.5351 26.4272 22.1559 27.1038Z" stroke="#0B2343" stroke-linecap="round" stroke-linejoin="round"/>
<path d="M16.8623 8.46615C23.331 6.62707 30.0901 10.3933 31.9292 16.862C33.7683 23.3308 30.003 30.0908 23.5333 31.9299C17.0646 33.769 10.3055 30.0028 8.46638 23.5331C6.6273 17.0643 10.3935 10.3052 16.8623 8.46615Z" stroke="#0B2343" stroke-linecap="round" stroke-linejoin="round"/>
<path d="M23.2913 18.1382C23.2255 18.2563 23.2681 18.4063 23.3862 18.4721C23.5043 18.538 23.6543 18.4954 23.7201 18.3773C23.786 18.2582 23.7434 18.1092 23.6253 18.0433C23.5062 17.9775 23.3572 18.0201 23.2913 18.1382Z" fill="#0B2343" stroke="#0B2343" stroke-linecap="round" stroke-linejoin="round"/>
<path d="M16.9438 19.9424C16.878 20.0605 16.9206 20.2106 17.0387 20.2764C17.1568 20.3422 17.3068 20.2996 17.3726 20.1815C17.4384 20.0625 17.3958 19.9134 17.2777 19.8476C17.1597 19.7818 17.0096 19.8244 16.9438 19.9424Z" fill="#0B2343" stroke="#0B2343" stroke-linecap="round" stroke-linejoin="round"/>
<path d="M30.2799 13.3391C30.2799 13.3391 20.3508 18.1091 11.8619 11.3006C11.8619 11.3006 13.823 18.0597 8.19153 22.3477" stroke="#0B2343" stroke-linecap="round" stroke-linejoin="round"/>
<path d="M11.0284 8.37202C11.0284 8.37202 10.8813 10.5721 11.8608 11.301C11.8608 11.301 10.4447 10.6254 9.62781 11.0048" stroke="#0B2343" stroke-linecap="round" stroke-linejoin="round"/>
</svg>
