<svg width="40" height="40" viewBox="0 0 40 40" fill="none" xmlns="http://www.w3.org/2000/svg">
<path d="M25.0692 17.1544C25.0692 17.1544 32.9292 6.70441 24.0792 6.03441C15.2192 5.36441 3.06923 14.5445 6.63923 27.7545C10.2092 40.9545 30.3092 32.4845 25.6192 23.5745" stroke="#0B2343" stroke-miterlimit="10" stroke-linecap="round" stroke-linejoin="round"/>
<path d="M12.2092 22.4645C13.9292 21.1245 19.2793 20.4144 19.2793 20.4144" stroke="#0B2343" stroke-miterlimit="10" stroke-linecap="round" stroke-linejoin="round"/>
<path d="M33.0492 28.9344C33.0492 28.9344 31.8693 21.6844 22.6393 20.5644C21.9893 20.4844 21.3492 20.7744 20.9792 21.3144C20.0992 22.6044 18.3693 25.2344 16.7593 28.4244" stroke="#0B2343" stroke-miterlimit="10" stroke-linecap="round" stroke-linejoin="round"/>
<path d="M22.5193 12.7045C20.7993 14.7045 21.8093 18.7345 23.0093 18.8345C24.8993 18.9845 31.6893 19.4145 33.7493 24.9645" stroke="#0B2343" stroke-miterlimit="10" stroke-linecap="round" stroke-linejoin="round"/>
<path d="M14.7793 15.2345C15.0093 15.3345 15.6593 17.1645 20.2693 18.8245" stroke="#0B2343" stroke-miterlimit="10" stroke-linecap="round" stroke-linejoin="round"/>
</svg>
