<svg width="40" height="40" viewBox="0 0 40 40" fill="none" xmlns="http://www.w3.org/2000/svg">
<path d="M29.3458 23.5797C28.9936 23.8438 28.4655 23.7557 28.2894 23.4036C28.1133 23.0515 28.2894 22.6113 28.6415 22.4353C28.9936 22.1712 29.5218 22.2592 29.6979 22.6114C29.8739 22.9635 29.6979 23.4036 29.3458 23.5797Z" stroke="#0B2343" stroke-width="0.7" stroke-linecap="round" stroke-linejoin="round"/>
<path d="M29.9617 20.1471C29.6096 20.4111 29.0814 20.3231 28.9054 19.971C28.7293 19.6189 28.9054 19.1787 29.2575 19.0027C29.6096 18.7386 30.1378 18.8266 30.3138 19.1787C30.4899 19.4428 30.3138 19.883 29.9617 20.1471Z" stroke="#0B2343" stroke-width="0.7" stroke-linecap="round" stroke-linejoin="round"/>
<path d="M31.37 21.4671L27.9369 21.115" stroke="#0B2343" stroke-width="0.7" stroke-linecap="round" stroke-linejoin="round"/>
<path d="M33.4827 22.5237C31.1059 18.2983 31.5461 19.1786 30.0496 16.5377C29.9616 16.3617 29.7855 16.3617 29.6094 16.2736L28.0249 15.8335V25.6048C28.1129 25.6928 28.1129 25.7808 28.1129 25.7808C28.201 25.8689 28.377 25.8689 28.5531 25.7808L33.3947 22.9639C33.4827 22.8759 33.5708 22.6998 33.4827 22.5237Z" stroke="#0B2343" stroke-width="0.7" stroke-linecap="round" stroke-linejoin="round"/>
<path d="M27.9381 31.5034L33.3079 32.9999L38.8538 13.1052L27.9381 10.0242" stroke="#0B2343" stroke-width="0.7" stroke-linecap="round" stroke-linejoin="round"/>
<path d="M7.51404 26.3994L11.9155 25.167" stroke="#0B2343" stroke-width="0.7" stroke-linecap="round" stroke-linejoin="round"/>
<path d="M10.9471 19.3562C10.7711 18.652 9.80276 18.828 9.97881 19.6203" stroke="#0B2343" stroke-width="0.7" stroke-linecap="round" stroke-linejoin="round"/>
<path d="M9.89071 21.3809C9.18647 21.909 8.83435 22.7893 8.83435 23.8457" stroke="#0B2343" stroke-width="0.7" stroke-linecap="round" stroke-linejoin="round"/>
<path d="M10.067 18.0359L9.62683 16.4514" stroke="#0B2343" stroke-width="0.7" stroke-linecap="round" stroke-linejoin="round"/>
<path d="M6.45776 18.6521L8.04229 19.6204" stroke="#0B2343" stroke-width="0.7" stroke-linecap="round" stroke-linejoin="round"/>
<path d="M11.9153 19.7961C11.4751 19.7961 11.035 19.7961 10.5948 19.9722C8.39408 20.5884 7.07364 22.7011 7.77787 25.1659L11.9153 24.0216V19.7961Z" stroke="#0B2343" stroke-width="0.7" stroke-linecap="round" stroke-linejoin="round"/>
<path d="M11.9156 25.167L7.95422 26.3114L8.74649 27.1036L11.9156 26.1353V25.167Z" stroke="#0B2343" stroke-width="0.7" stroke-linecap="round" stroke-linejoin="round"/>
<path d="M11.9157 10.0242L1 13.1052L6.63389 32.9999L11.9157 31.5034" stroke="#0B2343" stroke-width="0.7" stroke-linecap="round" stroke-linejoin="round"/>
<path d="M27.937 8H11.9156V30.5355H27.937V8Z" stroke="#0B2343" stroke-width="0.7" stroke-linecap="round" stroke-linejoin="round"/>
<path d="M19.9259 13.1938V14.1622" stroke="#0B2343" stroke-width="0.7" stroke-linecap="round" stroke-linejoin="round"/>
<path d="M19.9259 20.6763V24.0214" stroke="#0B2343" stroke-width="0.7" stroke-linecap="round" stroke-linejoin="round"/>
<path d="M22.3031 24.0215C22.3031 24.7257 21.7749 25.2539 21.0707 25.2539C20.3664 25.2539 19.8383 24.7257 19.8383 24.0215" stroke="#0B2343" stroke-width="0.7" stroke-linecap="round" stroke-linejoin="round"/>
<path d="M15.4367 18.4751C16.1409 18.4751 16.6691 18.9152 16.8452 19.5314H17.0212C17.1973 18.9152 17.8135 18.4751 18.4297 18.4751C19.1339 18.4751 19.6621 18.9152 19.8382 19.5314H19.9262C20.1022 18.9152 20.7185 18.4751 21.3347 18.4751C22.0389 18.4751 22.5671 18.9152 22.7431 19.5314H23.0072C23.1833 18.9152 23.7995 18.4751 24.4157 18.4751C25.1199 18.4751 25.6481 18.9152 25.8242 19.5314H25.9122C25.9122 16.5384 23.1833 14.1616 19.9262 14.1616C16.5811 14.1616 13.9402 16.5384 13.9402 19.5314H14.0282C14.2043 18.9152 14.7324 18.4751 15.4367 18.4751Z" stroke="#0B2343" stroke-width="0.7" stroke-linecap="round" stroke-linejoin="round"/>
</svg>
