<svg width="40" height="40" viewBox="0 0 40 40" fill="none" xmlns="http://www.w3.org/2000/svg">
<path d="M4.86397 9.15534C4.86397 9.15534 3.76871 11.8162 4.29088 13.1846" stroke="#0B2343" stroke-linecap="round" stroke-linejoin="round"/>
<path d="M11.4735 7.86337L9.48291 14.2812" stroke="#0B2343" stroke-linecap="round" stroke-linejoin="round"/>
<path d="M32.6339 27.7647C34.4912 30.1589 35.6281 31.9097 35.6281 31.9097C35.6281 31.9097 39.1777 37.1092 38.7009 30.8163C38.2232 24.5243 37.1826 17.2621 33.9949 9.86465C33.9949 9.86465 33.0246 7.77967 30.7989 7.4547C28.6899 7.1464 17.566 5.97707 4.42191 9.26471C4.42191 9.26471 -2.87644 11.4719 3.84419 13.0801C8.90387 14.2901 16.3096 15.3086 21.86 17.8611" stroke="#0B2343" stroke-linecap="round" stroke-linejoin="round"/>
<path d="M22.781 18.3081C24.229 19.0506 25.5224 19.9126 26.576 20.931C28.4184 22.7086 30.0997 24.6177 31.5005 26.3379" stroke="#0B2343" stroke-linecap="round" stroke-linejoin="round"/>
<path d="M27.3354 14.6561L17.8826 22.2294C17.5503 22.472 17.0994 22.9636 17.1392 23.2812C17.1679 23.5099 17.4882 23.7515 18.0178 23.9441C20.4537 24.831 30.7277 29.1852 31.1637 29.3695C31.4091 29.4852 31.8155 29.5796 31.9498 29.463C32.0155 29.4065 32.0618 29.2056 31.996 28.8112C31.7174 27.1438 29.2537 15.9384 28.801 13.8849" stroke="#0B2343" stroke-linecap="round" stroke-linejoin="round"/>
<mask id="path-6-inside-1_3182_353" fill="white">
<path d="M29.4393 13.0574C29.5596 13.6055 32.4917 26.8005 32.8019 28.6522C32.9195 29.3558 32.8028 29.8632 32.4556 30.1604C32.2436 30.3409 31.9872 30.4001 31.7409 30.4001C31.3113 30.4001 30.915 30.2196 30.8493 30.1891C30.7586 30.1502 20.1744 25.6645 17.7571 24.785C16.8831 24.4674 16.4017 24.0008 16.3276 23.3981C16.2054 22.4074 17.2877 21.5918 17.4117 21.5029L29.4282 11.939"/>
</mask>
<path d="M28.4625 13.2719C28.3441 12.7325 28.6853 12.1991 29.2248 12.0807C29.7642 11.9622 30.2975 12.3035 30.416 12.8429L28.4625 13.2719ZM32.8019 28.6522L33.7882 28.487L33.7882 28.4874L32.8019 28.6522ZM32.4556 30.1604L33.1059 30.92L33.104 30.9217L32.4556 30.1604ZM30.8493 30.1891L31.2432 29.2699C31.2525 29.2739 31.2617 29.278 31.2708 29.2822L30.8493 30.1891ZM17.7571 24.785L18.0986 23.8451L18.099 23.8452L17.7571 24.785ZM16.3276 23.3981L17.3201 23.2756L17.3201 23.2761L16.3276 23.3981ZM17.4117 21.5029L18.0345 22.2853C18.0213 22.2958 18.0078 22.306 17.9941 22.3158L17.4117 21.5029ZM28.8054 11.1566C29.2375 10.8126 29.8667 10.8841 30.2106 11.3163C30.5545 11.7484 30.483 12.3775 30.0509 12.7214L28.8054 11.1566ZM30.416 12.8429C30.5297 13.3607 33.4725 26.6023 33.7882 28.487L31.8156 28.8174C31.511 26.9987 28.5896 13.8504 28.4625 13.2719L30.416 12.8429ZM33.7882 28.4874C33.9293 29.3315 33.8465 30.2861 33.1059 30.92L31.8053 29.4007C31.8056 29.4004 31.8053 29.4007 31.8049 29.4012C31.8045 29.4017 31.8051 29.401 31.8067 29.3984C31.8095 29.3935 31.8192 29.375 31.8284 29.3348C31.8482 29.2485 31.8603 29.0849 31.8156 28.817L33.7882 28.4874ZM33.104 30.9217C32.6569 31.3024 32.1425 31.4001 31.7409 31.4001V29.4001C31.7856 29.4001 31.8092 29.3946 31.8168 29.3922C31.8201 29.3912 31.8196 29.3911 31.8166 29.3927C31.8134 29.3944 31.81 29.3967 31.8073 29.399L33.104 30.9217ZM31.7409 31.4001C31.0784 31.4001 30.5126 31.1353 30.4278 31.0959L31.2708 29.2822C31.2815 29.2872 31.3504 29.3192 31.4496 29.3493C31.5544 29.3812 31.6579 29.4001 31.7409 29.4001V31.4001ZM30.4554 31.1082C30.4558 31.1084 30.4536 31.1074 30.4465 31.1044C30.4402 31.1018 30.4314 31.098 30.4201 31.0932C30.3975 31.0837 30.3652 31.07 30.3238 31.0524C30.2409 31.0173 30.1215 30.9667 29.9703 30.9027C29.6678 30.7748 29.2378 30.5931 28.7167 30.3734C27.6746 29.9339 26.2687 29.3425 24.7902 28.725C21.8196 27.4841 18.5962 26.1544 17.4152 25.7247L18.099 23.8452C20.5495 24.7368 31.1661 29.2368 31.2432 29.2699L30.4554 31.1082ZM17.4156 25.7248C16.3959 25.3543 15.4769 24.674 15.3351 23.52L17.3201 23.2761C17.3265 23.3275 17.3703 23.5805 18.0986 23.8451L17.4156 25.7248ZM15.3351 23.5205C15.2252 22.6293 15.6606 21.9079 15.9961 21.488C16.3469 21.049 16.7296 20.7615 16.8294 20.69L17.9941 22.3158C17.9699 22.3332 17.7493 22.4979 17.5585 22.7366C17.3525 22.9944 17.3078 23.1762 17.3201 23.2756L15.3351 23.5205ZM16.789 20.7204L28.8054 11.1566L30.0509 12.7214L18.0345 22.2853L16.789 20.7204Z" fill="#0B2343" mask="url(#path-6-inside-1_3182_353)"/>
<path d="M14.9697 7.42056L11.8116 14.7754" stroke="#0B2343" stroke-linecap="round" stroke-linejoin="round"/>
<path d="M19.0642 7.10384L14.8582 15.4956" stroke="#0B2343" stroke-linecap="round" stroke-linejoin="round"/>
<path d="M26.6597 7.08929L19.8363 17.0244" stroke="#0B2343" stroke-linecap="round" stroke-linejoin="round"/>
<path d="M29.891 18.8564L29.7716 18.9851L27.3088 21.6533" stroke="#0B2343" stroke-linecap="round" stroke-linejoin="round"/>
<path d="M35.2455 13.0578L30.7774 17.8972L30.5709 18.1194" stroke="#0B2343" stroke-linecap="round" stroke-linejoin="round"/>
<path d="M31.0617 24.2685L30.9682 24.3546L30.3322 24.9397" stroke="#0B2343" stroke-linecap="round" stroke-linejoin="round"/>
<path d="M36.9458 18.8529L31.9195 23.4783L31.7639 23.6218" stroke="#0B2343" stroke-linecap="round" stroke-linejoin="round"/>
<path d="M32.384 26.5466L37.6326 22.148" stroke="#0B2343" stroke-linecap="round" stroke-linejoin="round"/>
<path d="M38.1272 25.2818C38.1272 25.2818 33.6499 28.5657 33.2971 28.6333" stroke="#0B2343" stroke-linecap="round" stroke-linejoin="round"/>
<path d="M38.6131 29.7293C38.6131 29.7293 37.653 30.9977 35.5189 31.7449" stroke="#0B2343" stroke-linecap="round" stroke-linejoin="round"/>
<path d="M24.0001 18.9854L32.4289 8.04477" stroke="#0B2343" stroke-linecap="round" stroke-linejoin="round"/>
<path d="M32.9456 8.51331L24.5825 19.3521" stroke="#0B2343" stroke-linecap="round" stroke-linejoin="round"/>
</svg>
