<svg width="40" height="40" viewBox="0 0 40 40" fill="none" xmlns="http://www.w3.org/2000/svg">
<path d="M10.6877 18.4138C11.2711 19.0412 11.2352 20.0231 10.6078 20.6065C9.98043 21.1899 8.99853 21.1549 8.41514 20.5266C7.83174 19.8993 7.86764 18.9174 8.49502 18.334C9.12239 17.7506 10.1043 17.7865 10.6877 18.4138Z" stroke="#0B2343" stroke-width="0.973188" stroke-linecap="round" stroke-linejoin="round"/>
<path d="M21.2523 28.353C21.2523 28.353 17.7968 26.2546 17.5975 26.2672L13.7884 27.7517C13.2472 27.9231 12.6638 27.6655 12.4259 27.1503L11.0518 24.1768C10.3329 23.0091 11.2125 21.9177 12.2662 22.029L16.1659 22.2956L17.3139 20.2842" stroke="#0B2343" stroke-width="0.973188" stroke-linecap="round" stroke-linejoin="round"/>
<path d="M29.3192 16.4277C25.3377 9.69984 18.2239 5.97149 10.9324 6.00021L10.9378 6.0047L23.2905 26.8777L31.7847 22.6566C31.3108 20.5178 30.4959 18.4158 29.3192 16.4277Z" stroke="#0B2343" stroke-width="0.973188" stroke-linecap="round" stroke-linejoin="round"/>
<path d="M31.0732 24.5103C31.0454 24.6395 31.0166 24.7688 30.9852 24.8971C30.6594 26.2488 30.1371 27.5502 29.4361 28.7556" stroke="#0B2343" stroke-width="0.973188" stroke-linecap="round" stroke-linejoin="round"/>
<path d="M14.1067 32.769L31.0718 24.5091" stroke="#0B2343" stroke-width="0.973188" stroke-linecap="round" stroke-linejoin="round"/>
<path d="M21.7839 32.4802L27.0336 29.9241" stroke="#0B2343" stroke-width="0.973188" stroke-linecap="round" stroke-linejoin="round"/>
<path d="M23.5764 31.6072L29.4355 28.7548" stroke="#0B2343" stroke-width="0.973188" stroke-linecap="round" stroke-linejoin="round"/>
<path d="M13.082 30.2584C13.082 32.3246 11.3076 34.0002 9.11761 34.0002" stroke="#0B2343" stroke-width="0.973188" stroke-linecap="round" stroke-linejoin="round"/>
<path d="M32.9028 34.0002C30.7137 34.0002 28.9384 32.3255 28.9384 30.2584" stroke="#0B2343" stroke-width="0.973188" stroke-linecap="round" stroke-linejoin="round"/>
<path d="M21.0102 30.2584C21.0102 32.3246 19.2358 34.0002 17.0458 34.0002C15.9087 34.0002 14.8828 33.5479 14.1603 32.8236C13.4916 32.154 13.0823 31.2511 13.0823 30.2584" stroke="#0B2343" stroke-width="0.973188" stroke-linecap="round" stroke-linejoin="round"/>
<path d="M28.9387 30.2584C28.9387 32.3246 27.1634 34.0002 24.9743 34.0002C23.6657 34.0002 22.5052 33.4016 21.7836 32.4789C21.298 31.8578 21.0099 31.0896 21.0099 30.2584" stroke="#0B2343" stroke-width="0.973188" stroke-linecap="round" stroke-linejoin="round"/>
</svg>
