<svg width="40" height="40" viewBox="0 0 40 40" fill="none" xmlns="http://www.w3.org/2000/svg">
<mask id="mask0_3182_681" style="mask-type:alpha" maskUnits="userSpaceOnUse" x="4" y="6" width="30" height="29">
<mask id="path-1-inside-1_3182_681" fill="white">
<path fill-rule="evenodd" clip-rule="evenodd" d="M34 6H4V34.9285H20.6071V24.2143H29.1785V34.9285H34V6Z"/>
</mask>
<path fill-rule="evenodd" clip-rule="evenodd" d="M34 6H4V34.9285H20.6071V24.2143H29.1785V34.9285H34V6Z" fill="#C4C4C4"/>
<path d="M4 6H3V5H4V6ZM34 6V5H35V6H34ZM4 34.9285V35.9285H3V34.9285H4ZM20.6071 34.9285H21.6071V35.9285H20.6071V34.9285ZM20.6071 24.2143H19.6071V23.2143H20.6071V24.2143ZM29.1785 24.2143V23.2143H30.1785V24.2143H29.1785ZM29.1785 34.9285V35.9285H28.1785V34.9285H29.1785ZM34 34.9285H35V35.9285H34V34.9285ZM4 5H34V7H4V5ZM3 34.9285V6H5V34.9285H3ZM20.6071 35.9285H4V33.9285H20.6071V35.9285ZM19.6071 34.9285V24.2143H21.6071V34.9285H19.6071ZM20.6071 23.2143H29.1785V25.2143H20.6071V23.2143ZM30.1785 24.2143V34.9285H28.1785V24.2143H30.1785ZM34 35.9285H29.1785V33.9285H34V35.9285ZM35 6V34.9285H33V6H35Z" fill="#0B2343" mask="url(#path-1-inside-1_3182_681)"/>
</mask>
<g mask="url(#mask0_3182_681)">
<path d="M14.8943 25.2096H15.7477" stroke="#0B2343" stroke-miterlimit="10" stroke-linecap="round" stroke-linejoin="round"/>
<path d="M10.6275 25.2096H11.4808" stroke="#0B2343" stroke-miterlimit="10" stroke-linecap="round" stroke-linejoin="round"/>
<path d="M14.8943 22.6497H15.7477" stroke="#0B2343" stroke-miterlimit="10" stroke-linecap="round" stroke-linejoin="round"/>
<path d="M10.6275 22.6497H11.4808" stroke="#0B2343" stroke-miterlimit="10" stroke-linecap="round" stroke-linejoin="round"/>
<path d="M14.8943 20.0895H15.7477" stroke="#0B2343" stroke-miterlimit="10" stroke-linecap="round" stroke-linejoin="round"/>
<path d="M10.6275 20.0895H11.4808" stroke="#0B2343" stroke-miterlimit="10" stroke-linecap="round" stroke-linejoin="round"/>
<path d="M14.8943 27.7696H15.7477" stroke="#0B2343" stroke-miterlimit="10" stroke-linecap="round" stroke-linejoin="round"/>
<path d="M10.6275 27.7696H11.4808" stroke="#0B2343" stroke-miterlimit="10" stroke-linecap="round" stroke-linejoin="round"/>
<path d="M14.8943 30.3298H15.7477" stroke="#0B2343" stroke-miterlimit="10" stroke-linecap="round" stroke-linejoin="round"/>
<path d="M10.6275 30.3298H11.4808" stroke="#0B2343" stroke-miterlimit="10" stroke-linecap="round" stroke-linejoin="round"/>
<path d="M11.5326 12.393V16.6597H14.0383" stroke="#0B2343" stroke-miterlimit="10" stroke-linecap="round" stroke-linejoin="round"/>
<path d="M31.961 20.0895H19.1609V32.8896H31.961V20.0895Z" stroke="#0B2343" stroke-miterlimit="10" stroke-linecap="round" stroke-linejoin="round"/>
<path d="M27.6944 28.6229H23.4277V32.8896H27.6944V28.6229Z" stroke="#0B2343" stroke-miterlimit="10" stroke-linecap="round" stroke-linejoin="round"/>
<path d="M7.21425 32.8897H19.161V12.0255C19.161 9.8836 17.4202 8.14285 15.2783 8.14285H11.0969C8.955 8.14285 7.21425 9.8836 7.21425 12.0255V32.8897Z" stroke="#0B2343" stroke-miterlimit="10" stroke-linecap="round" stroke-linejoin="round"/>
</g>
<path d="M25.2243 30.3431C24.4484 30.0932 24.2886 29.8887 24.2886 29.6615C24.2886 29.298 24.6538 29.0027 25.0873 29.0027C25.384 29.0027 25.6578 29.139 25.7948 29.3662C25.9317 29.5706 26.1827 29.6161 26.3881 29.5025C26.5934 29.3662 26.6391 29.1163 26.525 28.9118C26.2968 28.571 25.9317 28.3211 25.5209 28.2075V27.5714C25.5209 27.3215 25.3384 27.1398 25.0873 27.1398C24.8363 27.1398 24.6538 27.3442 24.6538 27.5714V28.2075C23.9463 28.3893 23.4215 28.98 23.4215 29.6842C23.4215 30.7066 24.494 31.0473 24.9504 31.2064C25.8632 31.479 25.8632 31.7743 25.8632 31.8879C25.8632 32.2514 25.4981 32.5468 25.0645 32.5468C24.6994 32.5468 24.2658 32.4104 24.2202 32.206C24.1745 31.9788 23.9463 31.8198 23.7181 31.8652C23.4899 31.9106 23.353 32.1378 23.3987 32.365C23.5356 32.9784 24.1289 33.251 24.6538 33.3419V34.0007C24.6538 34.2506 24.8363 34.4324 25.0873 34.4324C25.3384 34.4324 25.5209 34.2279 25.5209 34.0007V33.3192C26.2283 33.1374 26.7532 32.5468 26.7532 31.8425C26.7532 30.8202 25.5894 30.4567 25.2243 30.3431Z" fill="#0B2343"/>
<path d="M28.4418 27.7305L25.8175 24.9589C25.4296 24.5499 24.6994 24.5499 24.3114 24.9589L21.6871 27.7305C21.5046 27.935 21.4133 28.1849 21.4133 28.4575V34.955C21.4133 35.5229 21.8697 36 22.4402 36H27.6659C28.2364 36 28.6928 35.5229 28.6928 34.955V28.4575C28.7156 28.1849 28.6244 27.935 28.4418 27.7305ZM27.8485 34.955C27.8485 35.0459 27.7572 35.1367 27.6659 35.1367H22.4402C22.3489 35.1367 22.2576 35.0459 22.2576 34.955V28.4575C22.2576 28.4121 22.2805 28.3666 22.3033 28.3439L24.9276 25.5496C24.9732 25.5041 25.0188 25.5041 25.0645 25.5041C25.0873 25.5041 25.1558 25.5041 25.2014 25.5496L27.8029 28.3439C27.8257 28.3666 27.8485 28.4121 27.8485 28.4575V34.955Z" fill="#0B2343"/>
</svg>
