<svg width="42" height="42" viewBox="0 0 42 42" fill="none" xmlns="http://www.w3.org/2000/svg">
<path fill-rule="evenodd" clip-rule="evenodd" d="M15.5724 7.79346C15.2963 7.79346 15.0724 8.01731 15.0724 8.29346V11.5962L11.601 15.7935C11.5832 15.815 11.5674 15.8378 11.5535 15.8617C11.5135 15.9308 11.4895 16.0103 11.4866 16.0951C11.4864 16.1008 11.4863 16.1065 11.4863 16.1121V33.2927C11.4863 33.5689 11.7102 33.7927 11.9863 33.7927H30.1667C30.4429 33.7927 30.6667 33.5689 30.6667 33.2927V16.095C30.6667 15.9816 30.6282 15.8716 30.5575 15.783L27.2186 11.601V8.29346C27.2186 8.01731 26.9947 7.79346 26.7186 7.79346H15.5724ZM12.4863 16.6123V32.7927H22.7617V16.2152C22.7617 16.104 22.7988 15.9959 22.8672 15.9081L25.6954 12.2758H15.8081L13.0486 15.6123H20.1241C20.4002 15.6123 20.6241 15.8362 20.6241 16.1123C20.6241 16.3884 20.4002 16.6123 20.1241 16.6123H12.4863ZM16.0724 11.2758V8.79346H26.2186V11.2758H16.0724ZM29.6667 32.7927H23.7617V16.3869L26.7233 12.5834L29.6667 16.2701V32.7927Z" fill="#97C8D8"/>
<path fill-rule="evenodd" clip-rule="evenodd" d="M0.5 21C0.5 9.6961 9.69611 0.5 21 0.5C32.3039 0.5 41.4999 9.6961 41.4999 21C41.4999 32.3039 32.3039 41.5 21 41.5C9.69611 41.5 0.5 32.3039 0.5 21ZM21 1.5C10.2484 1.5 1.5 10.2484 1.5 21C1.5 31.7516 10.2484 40.5 21 40.5C31.7516 40.5 40.4999 31.7516 40.4999 21C40.4999 10.2484 31.7516 1.5 21 1.5Z" fill="#97C8D8"/>
</svg>
