<svg width="40" height="40" viewBox="0 0 40 40" fill="none" xmlns="http://www.w3.org/2000/svg">
<path d="M32.9 25.02V10.95C32.9 10.43 32.48 10 31.95 10H8.78C8.26 10 7.83002 10.42 7.83002 10.95V25.02" stroke="#0B2343" stroke-miterlimit="10" stroke-linecap="round" stroke-linejoin="round"/>
<path d="M21.91 27.05V27.4299C21.91 27.7299 21.67 27.97 21.37 27.97H19.36C19.06 27.97 18.82 27.7299 18.82 27.4299V27.05H6V29.05C6 29.6 6.45 30.05 7 30.05H33.74C34.29 30.05 34.74 29.6 34.74 29.05V27.05H21.91Z" stroke="#0B2343" stroke-miterlimit="10" stroke-linecap="round" stroke-linejoin="round"/>
<path d="M13.03 18.5601C12.57 18.5601 12.2 18.19 12.2 17.74C12.2 17.29 12.57 16.9199 13.03 16.9199C13.49 16.9199 13.86 17.29 13.86 17.74C13.86 18.2 13.49 18.5601 13.03 18.5601Z" stroke="#0B2343" stroke-linecap="round" stroke-linejoin="round"/>
<path d="M17.89 15.51C17.43 15.51 17.06 15.1399 17.06 14.6899C17.06 14.2399 17.43 13.8699 17.89 13.8699C18.35 13.8699 18.72 14.2399 18.72 14.6899C18.72 15.1399 18.35 15.51 17.89 15.51Z" stroke="#0B2343" stroke-linecap="round" stroke-linejoin="round"/>
<path d="M22.76 22.9299C22.3 22.9299 21.93 22.5599 21.93 22.1099C21.93 21.6599 22.3 21.29 22.76 21.29C23.22 21.29 23.59 21.6599 23.59 22.1099C23.59 22.5599 23.22 22.9299 22.76 22.9299Z" stroke="#0B2343" stroke-linecap="round" stroke-linejoin="round"/>
<path d="M27.62 17.6899C27.16 17.6899 26.79 17.3199 26.79 16.8699C26.79 16.4199 27.16 16.05 27.62 16.05C28.08 16.05 28.45 16.4199 28.45 16.8699C28.45 17.3199 28.08 17.6899 27.62 17.6899Z" stroke="#0B2343" stroke-linecap="round" stroke-linejoin="round"/>
<path d="M17.07 15.21L13.73 17.3101" stroke="#0B2343" stroke-miterlimit="10" stroke-linecap="round" stroke-linejoin="round"/>
<path d="M18.34 15.3699L22.31 21.4299" stroke="#0B2343" stroke-miterlimit="10" stroke-linecap="round" stroke-linejoin="round"/>
<path d="M23.32 21.51L27.05 17.49" stroke="#0B2343" stroke-miterlimit="10" stroke-linecap="round" stroke-linejoin="round"/>
</svg>
