<svg width="40" height="40" viewBox="0 0 40 40" fill="none" xmlns="http://www.w3.org/2000/svg">
<path d="M16.93 12.48H8.78C8.26 12.48 7.83002 12.8999 7.83002 13.4299V27.5" stroke="#0B2343" stroke-miterlimit="10" stroke-linecap="round" stroke-linejoin="round"/>
<path d="M32.9 27.51V13.4399C32.9 12.9199 32.48 12.49 31.95 12.49H23.93" stroke="#0B2343" stroke-miterlimit="10" stroke-linecap="round" stroke-linejoin="round"/>
<path d="M21.91 29.54V29.9199C21.91 30.2199 21.67 30.46 21.37 30.46H19.36C19.06 30.46 18.82 30.2199 18.82 29.9199V29.54H6V31.54C6 32.09 6.45 32.54 7 32.54H33.74C34.29 32.54 34.74 32.09 34.74 31.54V29.54H21.91Z" stroke="#0B2343" stroke-miterlimit="10" stroke-linecap="round" stroke-linejoin="round"/>
<path d="M20.36 24.4399V8" stroke="#0B2343" stroke-miterlimit="10" stroke-linecap="round" stroke-linejoin="round"/>
<path d="M24.32 20.48L20.36 24.4399L16.41 20.48" stroke="#0B2343" stroke-miterlimit="10" stroke-linecap="round" stroke-linejoin="round"/>
</svg>
