<svg width="40" height="40" viewBox="0 0 40 40" fill="none" xmlns="http://www.w3.org/2000/svg">
<path d="M32.9 25.02V10.95C32.9 10.43 32.48 10 31.95 10H8.78C8.26 10 7.83002 10.42 7.83002 10.95V25.02" stroke="#0B2343" stroke-miterlimit="10" stroke-linecap="round" stroke-linejoin="round"/>
<path d="M21.91 27.05V27.4299C21.91 27.7299 21.67 27.97 21.37 27.97H19.36C19.06 27.97 18.82 27.7299 18.82 27.4299V27.05H6V29.05C6 29.6 6.45 30.05 7 30.05H33.74C34.29 30.05 34.74 29.6 34.74 29.05V27.05H21.91Z" stroke="#0B2343" stroke-miterlimit="10" stroke-linecap="round" stroke-linejoin="round"/>
<path d="M24.7 21.1399C23.24 20.5799 21.61 19.89 21.47 19.46V19.01C21.77 18.7 22.01 18.28 22.16 17.78C22.5 17.55 22.59 17.06 22.3 16.72V15.71C22.3 14.67 21.71 13.95 20.36 13.95C19.04 13.95 18.42 14.67 18.42 15.71V16.72C18.14 17.06 18.22 17.55 18.56 17.78C18.7 18.28 18.94 18.71 19.25 19.01V19.46C19.11 19.89 17.49 20.5799 16.02 21.1399C15.9 21.1899 15.81 21.3099 15.81 21.4399V22.5701C15.81 22.7501 15.95 22.8899 16.13 22.8899H24.58C24.76 22.8899 24.9 22.7501 24.9 22.5701V21.4399C24.91 21.3099 24.83 21.1899 24.7 21.1399Z" stroke="#0B2343" stroke-miterlimit="10" stroke-linecap="round" stroke-linejoin="round"/>
</svg>
