<svg width="40" height="40" viewBox="0 0 40 40" fill="none" xmlns="http://www.w3.org/2000/svg">
<path d="M32.7992 25.3853V23.9847C32.7992 21.468 30.8406 19.4252 28.4398 19.4252C26.0284 19.4252 23.4169 21.468 23.4169 23.9847V27.5861C23.4169 30.366 21.2581 32.6195 18.594 32.6195C15.9299 32.6195 13.7712 30.366 13.7712 27.5861V15.5291" stroke="#0B2343" stroke-linecap="round" stroke-linejoin="round"/>
<path d="M33.8206 31.4295V29.2498" stroke="#0B2343" stroke-linecap="round" stroke-linejoin="round"/>
<path d="M31.7146 31.4295V29.2498" stroke="#0B2343" stroke-linecap="round" stroke-linejoin="round"/>
<path d="M30.6405 28.1442C30.6405 26.6278 31.4303 25.6169 32.7887 25.6169C34.1576 25.6169 35 26.6278 35 28.1442V29.2709H30.6405V28.1442V28.1442Z" stroke="#0B2343" stroke-linecap="round" stroke-linejoin="round"/>
<path d="M21.1423 11.2012C21.1423 11.2012 19.1731 12.4121 17.1514 12.8333C15.1296 13.2545 13.7607 15.529 13.7607 15.529" stroke="#0B2343" stroke-linecap="round" stroke-linejoin="round"/>
<path d="M13.866 13.8969C13.2131 10.2218 6 10.443 6 10.443C6 10.443 7.00036 20.0254 13.7607 15.5185C13.7607 15.529 13.6659 14.8446 13.866 13.8969Z" stroke="#0B2343" stroke-miterlimit="10" stroke-linecap="round" stroke-linejoin="round"/>
<path d="M24.2802 8C16.2773 8.28431 14.3082 11.7698 13.8659 13.8969C13.6658 14.8446 13.7606 15.529 13.7606 15.529C23.659 22.5316 24.2802 8 24.2802 8Z" stroke="#0B2343" stroke-linecap="round" stroke-linejoin="round"/>
<path d="M9.49608 13.3599C9.49608 13.3599 12.8657 14.0759 13.7712 15.5291" stroke="#0B2343" stroke-miterlimit="10" stroke-linecap="round" stroke-linejoin="round"/>
</svg>
