<svg width="40" height="40" viewBox="0 0 40 40" fill="none" xmlns="http://www.w3.org/2000/svg">
<path d="M26.5226 24.9075C27.1739 24.401 31.7961 20.6019 31.9951 20.4391C32.2122 20.2673 32.167 19.9235 31.9137 19.8059L30.7197 19.2451C30.5116 19.1456 31.6875 15.1928 31.6242 15.419C31.6966 15.1476 31.4524 14.8943 31.19 14.9486C31.0544 14.9757 27.8252 15.6993 27.789 15.5637L27.3639 14.0622C27.2825 13.7818 26.9207 13.6913 26.7217 13.9084L24.0261 16.8934C23.7186 17.0562 25.0845 10.3083 25.0212 10.643C25.0845 10.3355 24.7497 10.1003 24.4784 10.236L22.8322 11.0953C22.6603 11.1224 22.5336 11.1677 22.4432 11.0048C22.1718 10.5254 20.399 7.19674 20.399 7.19674C20.2543 6.93442 19.8743 6.93442 19.7386 7.19674L17.6673 11.0682C17.6673 11.0682 17.6311 11.24 17.1788 11.0139C16.41 10.6249 15.6863 10.227 15.6773 10.227C15.3969 10.0732 15.0713 10.3174 15.1255 10.625C15.1979 10.9958 16.419 17.2099 16.1567 16.9386C16.0572 16.8391 14.4652 15.0662 13.4069 13.8994C13.2079 13.6823 12.8552 13.7637 12.7647 14.0441L12.3306 15.5185C12.2944 15.5999 12.222 15.6089 12.1316 15.5908C11.6341 15.4823 8.93855 14.9034 8.93855 14.9034C8.65815 14.8491 8.42298 15.1024 8.49534 15.3738L9.49031 19.019C9.49935 19.0642 9.50841 19.1276 9.49936 19.1637C9.25514 19.2904 8.50433 19.6612 8.21488 19.7969C7.96161 19.9145 7.92547 20.2492 8.14256 20.4301L13.7506 25.0161C13.7597 25.0251 13.9316 25.1879 13.8049 25.6221C13.5969 26.3367 13.4069 26.9789 13.4069 26.9789C13.3345 27.2321 13.5336 27.4854 13.8049 27.4583L18.8794 26.8523C18.8341 27.6483 18.1829 32.6865 18.1829 32.6865C18.1738 32.9126 18.3457 33.0845 18.5537 33.0845H21.5477C21.7648 33.0845 21.9367 32.9036 21.9186 32.6865L21.2492 26.8523C21.2673 26.8523 21.2944 26.8522 21.3125 26.8613C21.801 26.9065 26.2513 27.4764 26.2965 27.4854C26.5769 27.5216 26.7308 27.3226 26.7308 27.1146C26.7308 27.0513 26.7126 26.9879 26.6855 26.9337L26.2965 25.5859C26.2874 25.5678 26.2785 25.5407 26.2694 25.5135C26.2423 25.4412 26.1608 25.1879 26.5226 24.9075Z" stroke="#0B2343" stroke-linecap="round" stroke-linejoin="round"/>
</svg>
