<svg width="40" height="40" viewBox="0 0 40 40" fill="none" xmlns="http://www.w3.org/2000/svg">
<path d="M19.5898 33.06V14.7639" stroke="#0B2343" stroke-miterlimit="10" stroke-linecap="round" stroke-linejoin="round"/>
<path d="M19.5898 16.9457L22.7546 14.1367" stroke="#0B2343" stroke-miterlimit="10" stroke-linecap="round" stroke-linejoin="round"/>
<path d="M19.5898 21.2155L22.5393 18.5938" stroke="#0B2343" stroke-miterlimit="10" stroke-linecap="round" stroke-linejoin="round"/>
<path d="M19.5898 25.4852L22.2864 23.0881" stroke="#0B2343" stroke-miterlimit="10" stroke-linecap="round" stroke-linejoin="round"/>
<path d="M19.5898 16.9457L16.425 14.1367" stroke="#0B2343" stroke-miterlimit="10" stroke-linecap="round" stroke-linejoin="round"/>
<path d="M19.5898 21.2155L16.6404 18.5938" stroke="#0B2343" stroke-miterlimit="10" stroke-linecap="round" stroke-linejoin="round"/>
<path d="M19.5898 25.4852L16.8838 23.0881" stroke="#0B2343" stroke-miterlimit="10" stroke-linecap="round" stroke-linejoin="round"/>
<path d="M23.1667 26.5808C20.8727 27.7325 18.1948 27.7325 15.9101 26.5808C13.3633 25.3073 10.7321 23.0601 12.6703 16.6836C14.7022 9.97945 17.7079 7.14233 18.9626 6.19663C19.309 5.93446 19.7772 5.93446 20.1236 6.19663C21.3783 7.13297 24.384 9.97945 26.4158 16.6836C28.3353 23.0601 25.7042 25.298 23.1667 26.5808Z" stroke="#0B2343" stroke-miterlimit="10" stroke-linecap="round" stroke-linejoin="round"/>
</svg>
