<svg width="40" height="40" viewBox="0 0 40 40" fill="none" xmlns="http://www.w3.org/2000/svg">
<path d="M29.0429 12.2964C29.0429 12.2964 26.4524 14.4631 23.6212 15.5032C20.79 16.5528 19.2974 20.1255 19.2974 20.1255C19.2974 20.1255 19.3744 22.899 20.2989 25.8554C21.2234 28.8118 19.8078 33.723 19.8078 33.723" stroke="#0B2343" stroke-linecap="round" stroke-linejoin="round"/>
<path d="M19.0952 17.7471C17.3714 12.5758 7 14.4344 7 14.4344C7 14.4344 10.4956 28.0704 19.2974 20.1257C19.2974 20.1257 19.0085 19.1627 19.0952 17.7471Z" stroke="#0B2343" stroke-miterlimit="10" stroke-linecap="round" stroke-linejoin="round"/>
<path d="M32.8949 7C21.3871 9.10896 19.2878 14.5788 19.0952 17.7471C19.0085 19.1627 19.2974 20.116 19.2974 20.116C35.0905 28.1474 32.8949 7 32.8949 7Z" stroke="#0B2343" stroke-linecap="round" stroke-linejoin="round"/>
<path d="M12.6623 17.9011C12.6623 17.9011 17.6892 18.2093 19.2974 20.116" stroke="#0B2343" stroke-miterlimit="10" stroke-linecap="round" stroke-linejoin="round"/>
<path d="M29.0429 12.2964C29.0429 12.2964 26.4524 14.4631 23.6212 15.5032C20.79 16.5528 19.2974 20.1255 19.2974 20.1255C19.2974 20.1255 19.3744 22.899 20.2989 25.8554C21.2234 28.8118 19.8078 33.723 19.8078 33.723" stroke="#0B2343" stroke-linecap="round" stroke-linejoin="round"/>
<path d="M19.0952 17.7471C17.3714 12.5758 7 14.4344 7 14.4344C7 14.4344 10.4956 28.0704 19.2974 20.1257C19.2974 20.1257 19.0085 19.1627 19.0952 17.7471Z" stroke="#0B2343" stroke-miterlimit="10" stroke-linecap="round" stroke-linejoin="round"/>
<path d="M32.8949 7C21.3871 9.10896 19.2878 14.5788 19.0952 17.7471C19.0085 19.1627 19.2974 20.116 19.2974 20.116C35.0905 28.1474 32.8949 7 32.8949 7Z" stroke="#0B2343" stroke-linecap="round" stroke-linejoin="round"/>
<path d="M12.6623 17.9011C12.6623 17.9011 17.6892 18.2093 19.2974 20.116" stroke="#0B2343" stroke-miterlimit="10" stroke-linecap="round" stroke-linejoin="round"/>
</svg>
