<svg width="40" height="40" viewBox="0 0 40 40" fill="none" xmlns="http://www.w3.org/2000/svg">
<path d="M30.7424 9.81006C30.7424 9.81006 28.8824 11.3601 26.8524 12.1201C24.8124 12.8701 23.7424 15.4401 23.7424 15.4401C23.7424 15.4401 23.8024 17.4301 24.4624 19.5601C24.7924 20.6201 24.7023 22.0401 24.5323 23.1801" stroke="#0B2343" stroke-linecap="round" stroke-linejoin="round"/>
<path d="M23.5924 13.7302C22.3524 10.0102 14.9023 11.3502 14.9023 11.3502C14.9023 11.3502 17.4124 21.1502 23.7424 15.4402C23.7424 15.4302 23.5324 14.7402 23.5924 13.7302Z" stroke="#0B2343" stroke-miterlimit="10" stroke-linecap="round" stroke-linejoin="round"/>
<path d="M33.5124 6C25.2424 7.52 23.7324 11.45 23.5924 13.72C23.5324 14.74 23.7324 15.43 23.7324 15.43C35.0824 21.2 33.5124 6 33.5124 6Z" stroke="#0B2343" stroke-linecap="round" stroke-linejoin="round"/>
<path d="M18.9724 13.8401C18.9724 13.8401 22.5824 14.0601 23.7424 15.4301" stroke="#0B2343" stroke-miterlimit="10" stroke-linecap="round" stroke-linejoin="round"/>
<path d="M26.6524 28.9301L32.0025 26.3101C33.9425 25.3601 35.1624 28.4201 33.3324 29.3201C25.2024 33.3001 25.8424 33.3201 22.6124 33.3201C20.7424 33.3201 17.9624 33.0001 14.4124 31.3001C13.3024 30.7701 11.1724 31.6301 8.58241 32.3401C7.77241 32.5601 6.94241 32.0401 6.71241 31.1701C6.55241 30.5401 5.90246 28.3801 6.01246 27.8001C6.14246 27.0901 6.66236 26.5801 7.28236 26.4701C9.32236 26.1201 15.5124 24.8001 18.8024 25.8401L25.6724 28.0101C27.6324 28.6301 26.7624 31.8201 24.8024 31.2001L17.5824 28.9301" stroke="#0B2343" stroke-linecap="round" stroke-linejoin="round"/>
</svg>
