<svg width="40" height="40" viewBox="0 0 40 40" fill="none" xmlns="http://www.w3.org/2000/svg">
<path d="M17.6826 24.4929C17.6826 24.4929 14.1391 21.1502 20.0449 16.1067C20.0449 16.1067 25.8207 24.1031 17.6826 24.4929Z" stroke="#0B2343" stroke-linecap="round" stroke-linejoin="round"/>
<path d="M19.478 19.9927C19.478 19.9927 18.3677 22.6267 17.6826 24.5047C17.6826 24.5047 18.3559 28.2371 16.6668 29.4301" stroke="#0B2343" stroke-linecap="round" stroke-linejoin="round"/>
<path d="M9.76895 26.8673C11.315 26.8673 12.5683 25.6139 12.5683 24.0679C12.5683 22.5219 11.315 21.2686 9.76895 21.2686C8.22292 21.2686 6.96948 22.5219 6.96948 24.0679C6.96948 25.6139 8.22292 26.8673 9.76895 26.8673Z" stroke="#0B2343" stroke-linecap="round" stroke-linejoin="round"/>
<path d="M28.6674 26.8673C30.2134 26.8673 31.4667 25.6139 31.4667 24.0679C31.4667 22.5219 30.2134 21.2686 28.6674 21.2686C27.1214 21.2686 25.8679 22.5219 25.8679 24.0679C25.8679 25.6139 27.1214 26.8673 28.6674 26.8673Z" stroke="#0B2343" stroke-linecap="round" stroke-linejoin="round"/>
<path d="M34.6085 24.0677H36.6874C36.5575 16.6855 30.4273 17.1816 28.2539 17.0281C27.8996 17.0044 27.817 16.78 27.7343 16.4375C27.2737 14.654 25.3602 9.96477 18.4741 10.0002C18.2969 10.0002 16.726 10.0002 16.5488 10.0002C8.32802 10.2364 7.21771 14.8547 7.07597 16.5084C7.05235 16.8391 6.80431 17.0635 6.4854 17.158C2.84745 18.1738 3.00091 24.0677 3.00091 24.0677H4.02851" stroke="#0B2343" stroke-miterlimit="10" stroke-linecap="round" stroke-linejoin="round"/>
</svg>
