<svg width="40" height="40" viewBox="0 0 40 40" fill="none" xmlns="http://www.w3.org/2000/svg">
<path d="M26.7689 10.6567C26.7689 10.6567 24.9777 12.1494 23.028 12.877C21.0689 13.6047 20.0428 16.0675 20.0428 16.0675C20.0428 16.0675 20.0988 17.9799 20.7331 20.0229" stroke="#0B2343" stroke-linecap="round" stroke-linejoin="round"/>
<path d="M19.8935 14.4259C18.6994 10.853 11.5349 12.1404 11.5349 12.1404C11.5349 12.1404 13.9511 21.5531 20.0335 16.0678C20.0335 16.0585 19.8375 15.3961 19.8935 14.4259Z" stroke="#0B2343" stroke-miterlimit="10" stroke-linecap="round" stroke-linejoin="round"/>
<path d="M29.4276 7C21.4795 8.4553 20.0335 12.2334 19.8936 14.4257C19.8376 15.4052 20.0336 16.0676 20.0336 16.0676C30.939 21.6089 29.4276 7 29.4276 7Z" stroke="#0B2343" stroke-linecap="round" stroke-linejoin="round"/>
<path d="M15.453 14.5286C15.453 14.5286 18.9233 14.7431 20.0335 16.0585" stroke="#0B2343" stroke-miterlimit="10" stroke-linecap="round" stroke-linejoin="round"/>
<path d="M26.7689 10.6567C26.7689 10.6567 24.9777 12.1494 23.028 12.877C21.0689 13.6047 20.0428 16.0675 20.0428 16.0675C20.0428 16.0675 20.0988 17.9799 20.7331 20.0229C20.985 20.8158 20.985 21.814 20.901 22.7469" stroke="#0B2343" stroke-linecap="round" stroke-linejoin="round"/>
<path d="M19.8935 14.4259C18.6994 10.853 11.5349 12.1404 11.5349 12.1404C11.5349 12.1404 13.9511 21.5531 20.0335 16.0678C20.0335 16.0585 19.8375 15.3961 19.8935 14.4259Z" stroke="#0B2343" stroke-miterlimit="10" stroke-linecap="round" stroke-linejoin="round"/>
<path d="M29.4276 7C21.4795 8.4553 20.0335 12.2334 19.8936 14.4257C19.8376 15.4052 20.0336 16.0676 20.0336 16.0676C30.939 21.6089 29.4276 7 29.4276 7Z" stroke="#0B2343" stroke-linecap="round" stroke-linejoin="round"/>
<path d="M15.453 14.5286C15.453 14.5286 18.9233 14.7431 20.0335 16.0585" stroke="#0B2343" stroke-miterlimit="10" stroke-linecap="round" stroke-linejoin="round"/>
<path d="M15.6489 24.7809C14.1656 23.6427 15.453 24.5103 12.188 21.2545C11.4137 20.4802 10.1636 21.4878 10.9473 22.2621L12.1973 23.82C12.1973 23.82 12.813 24.9581 12.5238 25.2846C12.3092 25.5365 11.6468 25.3219 10.8726 24.7062C10.6113 24.4543 10.5927 24.5197 9.00679 22.1035C8.79223 21.7677 8.67096 21.3852 8.67096 20.9934V18.8944C8.67096 17.8029 7.0104 17.7936 7.0104 18.8944C7.0104 21.0493 6.87049 21.8889 7.6168 23.0177C9.977 26.6093 8.79228 25.8817 12.9156 28.615C14.3616 29.5759 14.1843 30.6673 14.1843 32.4398C14.1843 32.8969 14.5575 33.2701 15.0146 33.2701H17.4494C17.9065 33.2701 18.2797 32.8969 18.2797 32.4398V29.7251C18.2797 27.7568 18.0464 26.0216 15.6489 24.7809Z" stroke="#0B2343" stroke-miterlimit="10" stroke-linecap="round" stroke-linejoin="round"/>
<path d="M25.4535 24.8086C26.9181 23.6704 25.6494 24.5381 28.8772 21.2916C29.6422 20.5173 30.8735 21.5248 30.1085 22.2898L28.8679 23.8477C28.8679 23.8477 28.2615 24.9765 28.5414 25.3123C28.7559 25.5642 29.4089 25.3497 30.1739 24.734C30.4351 24.4821 30.4444 24.5474 32.021 22.1405C32.2356 21.814 32.3475 21.4222 32.3475 21.0304V18.9314C32.3475 17.8399 33.9894 17.8399 33.9894 18.9314C33.9894 21.077 34.1293 21.9167 33.3923 23.0454C31.0508 26.6277 32.2262 25.9001 28.1589 28.6241C26.7315 29.5756 26.8995 30.6671 26.8995 32.4395C26.8995 32.8967 26.5357 33.2698 26.0785 33.2698H23.6717C23.2146 33.2698 22.8508 32.8967 22.8508 32.4395V29.7342C22.8601 27.7752 23.0933 26.04 25.4535 24.8086Z" stroke="#0B2343" stroke-miterlimit="10" stroke-linecap="round" stroke-linejoin="round"/>
</svg>
