<svg width="40" height="40" viewBox="0 0 40 40" fill="none" xmlns="http://www.w3.org/2000/svg">
<path d="M20.2659 33.7002V14.9392" stroke="#0B2343" stroke-miterlimit="10" stroke-linecap="round" stroke-linejoin="round"/>
<path d="M20.2659 17.1763L23.5112 14.2959" stroke="#0B2343" stroke-miterlimit="10" stroke-linecap="round" stroke-linejoin="round"/>
<path d="M20.2659 21.5546L23.2903 18.8662" stroke="#0B2343" stroke-miterlimit="10" stroke-linecap="round" stroke-linejoin="round"/>
<path d="M20.2659 25.9328L23.0311 23.4749" stroke="#0B2343" stroke-miterlimit="10" stroke-linecap="round" stroke-linejoin="round"/>
<path d="M20.2659 17.1763L17.0206 14.2959" stroke="#0B2343" stroke-miterlimit="10" stroke-linecap="round" stroke-linejoin="round"/>
<path d="M20.2659 21.5546L17.2416 18.8662" stroke="#0B2343" stroke-miterlimit="10" stroke-linecap="round" stroke-linejoin="round"/>
<path d="M20.2659 25.9328L17.4911 23.4749" stroke="#0B2343" stroke-miterlimit="10" stroke-linecap="round" stroke-linejoin="round"/>
<path d="M27.9469 19.7976C26.6988 18.5111 25.7867 16.1971 27.7261 14.1328C29.6752 12.0686 27.2942 10.7916 25.0474 11.4829C23.2328 12.0398 22.4743 9.17859 22.2534 8.04563C22.0614 7.0951 21.226 5.97174 20.2755 6.00055C19.325 5.97174 18.4801 7.0855 18.2977 8.04563C18.0673 9.17859 17.3087 12.0494 15.5037 11.4829C13.257 10.7916 10.8758 12.059 12.8249 14.1328C14.7739 16.1971 13.8618 18.5111 12.6041 19.7976C11.3559 21.0842 12.2969 22.3324 13.1418 22.6684C13.9867 23.0141 15.6573 23.2733 14.5916 25.0304C13.5258 26.7874 15.4748 27.2771 16.4254 27.4019C17.4815 27.5363 20.2851 29.4566 20.2851 29.4566C20.2851 29.4566 23.1943 27.4883 24.1449 27.4019C25.0954 27.3155 27.0445 26.7874 25.9787 25.0304C24.913 23.2733 26.5836 23.0045 27.4286 22.6684C28.2447 22.3228 29.1951 21.0842 27.9469 19.7976Z" stroke="#0B2343" stroke-miterlimit="10" stroke-linecap="round" stroke-linejoin="round"/>
</svg>
