<svg viewBox="0 0 70 100" fill="none" xmlns="http://www.w3.org/2000/svg">
<path d="M3 37C3 22.0883 15.0883 10 30 10H40C54.9117 10 67 22.0883 67 37V86C67 91.5228 62.5228 96 57 96H13C7.47715 96 3 91.5228 3 86V37Z" fill="white"/>
<path fill-rule="evenodd" clip-rule="evenodd" d="M40 12H30C16.1929 12 5 23.1929 5 37V86C5 90.4183 8.58172 94 13 94H57C61.4183 94 65 90.4183 65 86V37C65 23.1929 53.8071 12 40 12ZM30 10C15.0883 10 3 22.0883 3 37V86C3 91.5229 7.47715 96 13 96H57C62.5228 96 67 91.5229 67 86V37C67 22.0883 54.9117 10 40 10H30Z" fill="#5A5095"/>
<path d="M16.0395 33.9946C16.0394 33.9976 16.0418 34 16.0447 34C16.0475 34 16.0498 34.0023 16.0498 34.0051V87C16.0498 88.1046 15.1544 89 14.0498 89H5.0498C3.94524 89 3.0498 88.1046 3.0498 87V34.0066C3.0498 34.003 3.05276 34 3.05641 34C3.06 34 3.06293 33.9971 3.06302 33.9936C3.29733 25.076 6.63845 16.5774 12.4224 10.2513C18.4235 3.68749 26.5629 0 35.0498 0C43.5367 0 51.6761 3.68749 57.6772 10.2513C63.2461 16.3422 66.5504 24.447 66.9976 33.0006C67.0553 34.1037 66.1544 35 65.0498 35H56.0822C54.9777 35 54.0914 34.1028 53.9945 33.0025C53.5726 28.2147 51.644 23.7106 48.5078 20.2803C44.9385 16.3764 40.0975 14.1833 35.0498 14.1833C30.0021 14.1833 25.1611 16.3765 21.5918 20.2803C18.2398 23.9466 16.2673 28.8396 16.0395 33.9946Z" fill="white"/>
<path fill-rule="evenodd" clip-rule="evenodd" d="M14.0498 34.2001V87H5.0498V34.2242C5.05654 34.1656 5.06076 34.1062 5.06233 34.0461C5.28462 25.5861 8.45491 17.5547 13.8984 11.6008C19.5412 5.42901 27.1541 2 35.0498 2C42.9455 2 50.5584 5.429 56.2012 11.6008C61.4194 17.3083 64.5491 24.9252 64.9947 33H56.0822C56.0819 33 56.0816 33 56.0813 33C56.0789 32.9989 56.0693 32.9941 56.0555 32.9807C56.0232 32.9493 55.9927 32.8946 55.9868 32.8269C55.5283 27.6238 53.4309 22.7011 49.9838 18.9308C46.0562 14.6349 40.6887 12.1833 35.0498 12.1833C29.4109 12.1833 24.0434 14.6349 20.1158 18.9308C16.4319 22.9601 14.2889 28.306 14.0415 33.9064C14.0371 34.0059 14.04 34.1039 14.0498 34.2001ZM16.0447 34C16.0417 34 16.0394 33.9976 16.0395 33.9946C16.0412 33.958 16.0429 33.9213 16.0447 33.8846C16.0756 33.2542 16.1326 32.6278 16.215 32.0071C16.8013 27.5929 18.6739 23.4718 21.5918 20.2803C25.1611 16.3765 30.0021 14.1833 35.0498 14.1833C40.0975 14.1833 44.9385 16.3764 48.5078 20.2803C51.644 23.7106 53.5726 28.2147 53.9945 33.0025C54.0914 34.1028 54.9777 35 56.0822 35H65.0498C66.1544 35 67.0553 34.1037 66.9976 33.0006C66.5504 24.447 63.2461 16.3422 57.6772 10.2513C51.6761 3.68749 43.5367 0 35.0498 0C26.5629 0 18.4235 3.68749 12.4224 10.2513C6.63845 16.5774 3.29733 25.076 3.06302 33.9936C3.06293 33.9971 3.06 34 3.05641 34C3.05276 34 3.0498 34.003 3.0498 34.0066V87C3.0498 88.1046 3.94524 89 5.0498 89H14.0498C15.1544 89 16.0498 88.1046 16.0498 87V34.0051C16.0498 34.0023 16.0475 34 16.0447 34Z" fill="#53448F"/>
<rect x="4" y="82" width="62" height="13" rx="6.5" fill="white" stroke="#5A5095" stroke-width="2"/>
</svg>
