<svg viewBox="0 0 70 100" fill="none" xmlns="http://www.w3.org/2000/svg">
<path d="M3 37C3 22.0883 15.0883 10 30 10H40C54.9117 10 67 22.0883 67 37V86C67 91.5228 62.5228 96 57 96H13C7.47715 96 3 91.5228 3 86V37Z" fill="#53448F"/>
<path fill-rule="evenodd" clip-rule="evenodd" d="M40 12H30C16.1929 12 5 23.1929 5 37V86C5 90.4183 8.58172 94 13 94H57C61.4183 94 65 90.4183 65 86V37C65 23.1929 53.8071 12 40 12ZM30 10C15.0883 10 3 22.0883 3 37V86C3 91.5229 7.47715 96 13 96H57C62.5228 96 67 91.5229 67 86V37C67 22.0883 54.9117 10 40 10H30Z" fill="white"/>
<path fill-rule="evenodd" clip-rule="evenodd" d="M16.0393 33.9946C16.0392 33.9976 16.0415 34 16.0445 34V34C16.0473 34 16.0496 34.0023 16.0496 34.0051V87C16.0496 88.1046 15.1542 89 14.0496 89H5.04958C3.94501 89 3.04958 88.1046 3.04958 87V35V34.0066C3.04958 34.003 3.05254 34 3.05619 34V34C3.05978 34 3.06271 33.9971 3.0628 33.9936C3.29711 25.076 6.63823 16.5774 12.4222 10.2513C18.4233 3.68749 26.5627 0 35.0496 0C43.5365 0 51.6758 3.68749 57.677 10.2513C63.2459 16.3422 66.5502 24.447 66.9974 33.0006C67.055 34.1037 66.1542 35 65.0496 35H56.082C54.9775 35 54.0912 34.1028 53.9943 33.0025C53.5724 28.2147 51.6438 23.7106 48.5075 20.2803C44.9383 16.3764 40.0973 14.1833 35.0496 14.1833C30.0019 14.1833 25.1609 16.3765 21.5916 20.2803C18.2396 23.9466 16.267 28.8396 16.0393 33.9946Z" fill="#53448F"/>
<path fill-rule="evenodd" clip-rule="evenodd" d="M14.0496 34.2001V87H5.04958V34.2242C5.05632 34.1656 5.06053 34.1062 5.06211 34.0461C5.28439 25.5861 8.45469 17.5547 13.8982 11.6008C19.541 5.42901 27.1539 2 35.0496 2C42.9453 2 50.5582 5.429 56.2009 11.6008C61.4192 17.3083 64.5488 24.9252 64.9945 33H56.082C56.0817 33 56.0823 33 56.082 33C56.0796 32.9989 56.0691 32.9941 56.0553 32.9807C56.023 32.9493 55.9925 32.8946 55.9865 32.8269C55.5281 27.6238 53.4307 22.7011 49.9836 18.9308C46.056 14.6349 40.6885 12.1833 35.0496 12.1833C29.4107 12.1833 24.0432 14.6349 20.1156 18.9308C16.4317 22.9601 14.2887 28.306 14.0413 33.9064C14.0369 34.0059 14.0398 34.104 14.0496 34.2001ZM16.0412 33.9988C16.04 33.9978 16.0392 33.9963 16.0393 33.9946C16.0409 33.9579 16.0427 33.9213 16.0445 33.8846C16.0754 33.2542 16.1324 32.6278 16.2148 32.0071C16.8011 27.5929 18.6737 23.4718 21.5916 20.2803C25.1609 16.3765 30.0019 14.1833 35.0496 14.1833C40.0973 14.1833 44.9383 16.3764 48.5075 20.2803C51.6438 23.7106 53.5724 28.2147 53.9943 33.0025C54.0912 34.1028 54.9775 35 56.082 35H65.0496C66.1542 35 67.055 34.1037 66.9974 33.0006C66.5502 24.447 63.2459 16.3422 57.677 10.2513C51.6758 3.68749 43.5365 0 35.0496 0C26.5627 0 18.4233 3.68749 12.4222 10.2513C6.63823 16.5774 3.29711 25.076 3.0628 33.9936C3.06271 33.9971 3.05978 34 3.05619 34C3.05254 34 3.04958 34.003 3.04958 34.0066V87C3.04958 88.1046 3.94501 89 5.04958 89H14.0496C15.1542 89 16.0496 88.1046 16.0496 87V34.0051C16.0496 34.0023 16.0473 34 16.0445 34C16.0432 34 16.0421 33.9996 16.0412 33.9988Z" fill="white"/>
<rect x="4" y="82" width="62" height="13" rx="6.5" fill="#5A5095" stroke="white" stroke-width="2"/>
</svg>
