<svg width="40" height="40" viewBox="0 0 40 40" fill="none" xmlns="http://www.w3.org/2000/svg">
<path d="M33.82 18.51L33.62 18.31C33.21 17.9 32.57 17.84 32.09 18.14L22.04 8.09C22.34 7.61 22.29 6.98 21.87 6.56L21.67 6.36C21.19 5.88 20.41 5.88 19.93 6.36L13.13 13.16C12.65 13.64 12.65 14.42 13.13 14.9L13.33 15.1C13.74 15.51 14.38 15.57 14.85 15.27L24.9 25.32C24.6 25.8 24.66 26.43 25.07 26.84L25.27 27.04C25.75 27.52 26.53 27.52 27.01 27.04L33.81 20.24C34.31 19.77 34.31 18.99 33.82 18.51Z" stroke="#0B2343" stroke-linecap="round" stroke-linejoin="round"/>
<path d="M18.22 21.98L6 34.2" stroke="#0B2343" stroke-linecap="round" stroke-linejoin="round"/>
<path d="M24.9099 25.33L32.0999 18.14" stroke="#0B2343" stroke-linecap="round" stroke-linejoin="round"/>
<path d="M14.87 15.28L22.05 8.09998" stroke="#0B2343" stroke-linecap="round" stroke-linejoin="round"/>
</svg>
