<svg width="40" height="40" viewBox="0 0 40 40" fill="none" xmlns="http://www.w3.org/2000/svg">
<path d="M27.78 6C26.05 6 24.45 7.13995 24 8.69995C23.56 7.13995 21.96 6 20.23 6C18.46 6 16.97 7.20006 16.57 8.81006C16.29 9.94006 16.56 11.0599 17.2 11.8899L23.92 19.6599L30.67 12.05C31.22 11.41 31.55 10.5799 31.55 9.67993C31.55 7.65993 29.86 6 27.78 6Z" stroke="#0B2343" stroke-linecap="round" stroke-linejoin="round"/>
<path d="M28.97 19.8701V33.9299C28.97 34.4099 28.58 34.8 28.09 34.8H9.88C9.4 34.8 9 34.4099 9 33.9299V10.7C9 10.22 9.39 9.83008 9.88 9.83008H14.13" stroke="#0B2343" stroke-miterlimit="10" stroke-linecap="round" stroke-linejoin="round"/>
<path d="M13.11 25.8H25.01" stroke="#0B2343" stroke-miterlimit="10" stroke-linecap="round" stroke-linejoin="round"/>
<path d="M13.11 21.8H18.04" stroke="#0B2343" stroke-miterlimit="10" stroke-linecap="round" stroke-linejoin="round"/>
<path d="M13.11 29.8H25.01" stroke="#0B2343" stroke-miterlimit="10" stroke-linecap="round" stroke-linejoin="round"/>
</svg>
