<svg width="40" height="40" viewBox="0 0 40 40" fill="none" xmlns="http://www.w3.org/2000/svg">
<path d="M28.4842 16.2771C29.1762 16.2771 29.7466 16.9036 29.7466 17.6891C29.7466 18.4653 29.1855 19.1012 28.4842 19.1012" stroke="#0B2343" stroke-miterlimit="10" stroke-linecap="round" stroke-linejoin="round"/>
<path d="M28.3345 33.9702H19.5346C18.375 33.9702 17.4399 33.035 17.4399 31.8754V21.8037H30.5041V31.81C30.5041 32.9976 29.5409 33.9702 28.3345 33.9702Z" stroke="#0B2343" stroke-miterlimit="10" stroke-linecap="round" stroke-linejoin="round"/>
<path d="M9.93984 21.8039H17.4399V8.84253H9.93984C8.68672 8.84253 8.68672 21.8039 9.93984 21.8039Z" stroke="#0B2343" stroke-miterlimit="10" stroke-linecap="round" stroke-linejoin="round"/>
<path d="M26.7261 16.2019H20.2266V21.8035H26.7261V16.2019Z" stroke="#0B2343" stroke-miterlimit="10" stroke-linecap="round" stroke-linejoin="round"/>
<path d="M24.9586 11.9002C24.9586 12.7138 24.2946 13.3684 23.4903 13.3684C22.6767 13.3684 22.0222 12.7045 22.0222 11.9002C22.0222 11.0866 22.6767 7 23.4903 7C24.2946 7 24.9586 11.0866 24.9586 11.9002Z" stroke="#0B2343" stroke-miterlimit="10" stroke-linecap="round" stroke-linejoin="round"/>
</svg>
