<svg width="40" height="40" viewBox="0 0 40 40" fill="none" xmlns="http://www.w3.org/2000/svg">
<path d="M23.63 26.9399H15.78V33.7998H17.36L18.61 34.8298H20.55L21.8 33.7998H23.63V26.9399Z" stroke="#0B2343" stroke-linecap="round" stroke-linejoin="round"/>
<path d="M28.16 14.45C28.16 9.78995 24.32 6 19.58 6C14.84 6 11 9.77995 11 14.45C11 16.94 12.1 19.69 13.84 21.71L13.83 21.72C13.83 21.72 16.34 24.6199 16.34 26.9399H23.09V26.9099L23.12 26.9399C23.12 24.6099 25.33 21.7 25.33 21.7C27.07 19.68 28.16 16.94 28.16 14.45Z" stroke="#0B2343" stroke-linecap="round" stroke-linejoin="round"/>
<path d="M19.58 26.9399V18.0398" stroke="#0B2343" stroke-linecap="round" stroke-linejoin="round"/>
<path d="M19.25 18.8899C18.66 19.4599 17.47 19.1898 16.61 18.2898C15.74 17.3898 15.52 16.1999 16.12 15.6299C16.72 15.0599 17.9 15.33 18.76 16.23C19.62 17.13 19.84 18.3199 19.25 18.8899Z" stroke="#0B2343" stroke-linecap="round" stroke-linejoin="round"/>
<path d="M19.91 18.8899C20.5 19.4599 21.69 19.1898 22.55 18.2898C23.41 17.3898 23.64 16.1999 23.04 15.6299C22.44 15.0599 21.26 15.33 20.4 16.23C19.54 17.13 19.32 18.3199 19.91 18.8899Z" stroke="#0B2343" stroke-linecap="round" stroke-linejoin="round"/>
</svg>
