<svg viewBox="0 0 20 20" fill="none" xmlns="http://www.w3.org/2000/svg">
<path fill-rule="evenodd" clip-rule="evenodd" d="M3 9.84143C3 9.28915 3.44772 8.84143 4 8.84143L16.3713 8.84143C16.9236 8.84143 17.3713 9.28915 17.3713 9.84143C17.3713 10.3937 16.9236 10.8414 16.3713 10.8414L4 10.8414C3.44772 10.8414 3 10.3937 3 9.84143Z" fill="#0B2343"/>
<path fill-rule="evenodd" clip-rule="evenodd" d="M11.0404 4.27798C11.4392 3.89587 12.0722 3.90937 12.4543 4.30813L17.0936 9.14959C17.4645 9.53673 17.4641 10.1475 17.0927 10.5342L12.4535 15.3638C12.0709 15.7621 11.4378 15.7748 11.0395 15.3922C10.6413 15.0096 10.6285 14.3766 11.0111 13.9783L14.9857 9.84061L11.0103 5.69187C10.6282 5.2931 10.6417 4.66008 11.0404 4.27798Z" fill="#0B2343"/>
</svg>
