<svg viewBox="0 0 29 23" fill="none" xmlns="http://www.w3.org/2000/svg">
<path fill-rule="evenodd" clip-rule="evenodd" d="M4.67114 11.415C4.67114 10.8628 5.11886 10.415 5.67114 10.415H22.8132C23.3655 10.415 23.8132 10.8628 23.8132 11.415C23.8132 11.9673 23.3655 12.415 22.8132 12.415H5.67114C5.11886 12.415 4.67114 11.9673 4.67114 11.415Z" fill="#007CC2"/>
<path fill-rule="evenodd" clip-rule="evenodd" d="M15.6929 3.98452C16.0917 3.60241 16.7247 3.61591 17.1068 4.01468L23.5351 10.7232C23.906 11.1103 23.9057 11.7211 23.5342 12.1078L17.1059 18.7998C16.7233 19.1981 16.0903 19.2108 15.692 18.8282C15.2937 18.4456 15.281 17.8126 15.6636 17.4143L21.4272 11.4142L15.6627 5.39841C15.2806 4.99965 15.2941 4.36663 15.6929 3.98452Z" fill="#007CC2"/>
</svg>
