<svg viewBox="0 0 29 23" fill="none" xmlns="http://www.w3.org/2000/svg">
<path fill-rule="evenodd" clip-rule="evenodd" d="M23.8152 11.3989C23.8152 11.9512 23.3675 12.3989 22.8152 12.3989L5.67309 12.3989C5.12081 12.3989 4.67309 11.9512 4.67309 11.3989C4.67309 10.8466 5.12081 10.3989 5.67309 10.3989L22.8152 10.3989C23.3675 10.3989 23.8152 10.8466 23.8152 11.3989Z" fill="#CCCCCC"/>
<path fill-rule="evenodd" clip-rule="evenodd" d="M12.7934 18.8294C12.3947 19.2116 11.7616 19.1981 11.3795 18.7993L4.95125 12.0908C4.58029 11.7037 4.58066 11.0928 4.9521 10.7062L11.3804 4.01416C11.763 3.61587 12.396 3.60314 12.7943 3.98574C13.1926 4.36834 13.2053 5.00138 12.8227 5.39967L7.05909 11.3998L12.8236 17.4156C13.2057 17.8143 13.1922 18.4473 12.7934 18.8294Z" fill="#CCCCCC"/>
</svg>
