<svg viewBox="0 0 20 20" fill="none" xmlns="http://www.w3.org/2000/svg">
<path fill-rule="evenodd" clip-rule="evenodd" d="M17.3716 9.84143C17.3716 9.28915 16.9239 8.84143 16.3716 8.84143L4.00029 8.84143C3.448 8.84143 3.00029 9.28915 3.00029 9.84143C3.00029 10.3937 3.448 10.8414 4.00029 10.8414L16.3716 10.8414C16.9239 10.8414 17.3716 10.3937 17.3716 9.84143Z" fill="#0B2343"/>
<path fill-rule="evenodd" clip-rule="evenodd" d="M9.33115 4.27798C8.93238 3.89587 8.29936 3.90937 7.91726 4.30813L3.27802 9.14959C2.90706 9.53673 2.90743 10.1475 3.27887 10.5342L7.91811 15.3638C8.3007 15.7621 8.93374 15.7748 9.33203 15.3922C9.73033 15.0096 9.74305 14.3766 9.36046 13.9783L5.38585 9.84061L9.36131 5.69187C9.74341 5.2931 9.72991 4.66008 9.33115 4.27798Z" fill="#0B2343"/>
</svg>
