<svg width="40" height="40" viewBox="0 0 40 40" fill="none" xmlns="http://www.w3.org/2000/svg">
<path d="M35.1449 0.693115H4.54832C2.4313 0.693115 0.693115 2.41032 0.693115 4.52381V35.1694C0.693115 37.2829 2.4313 39.0001 4.54832 39.0001H35.1449C37.2842 39.0001 39.0001 37.2829 39.0001 35.1694V4.52381C39.0001 2.41032 37.2842 0.693115 35.1449 0.693115ZM12.9941 31.0084H7.82414V14.6069H12.9718V31.0084H12.9941ZM10.3868 12.6035C8.76008 12.6035 7.71271 11.4587 7.71271 10.0497C7.69043 8.61869 8.78237 7.51792 10.4537 7.51792C12.125 7.51792 13.1278 8.61869 13.1724 10.0717C13.1501 11.4587 12.1027 12.6035 10.3868 12.6035ZM31.8022 31.0084H26.6545V21.916C26.6545 19.8026 25.9191 18.3716 24.0472 18.3716C22.621 18.3716 21.7742 19.3402 21.3954 20.2869C21.2617 20.6171 21.2171 21.1015 21.2171 21.5638V31.0084H16.0694V19.8466C16.0694 17.7992 16.0025 16.104 15.9357 14.6289H20.4148L20.66 16.8965H20.7491C21.4176 15.8178 23.089 14.2547 25.8745 14.2547C29.2618 14.2547 31.8022 16.5002 31.8022 21.3216V31.0084Z" fill="#FAFCFE"/>
</svg>
