<svg viewBox="0 0 29 23" fill="none" xmlns="http://www.w3.org/2000/svg">
<path fill-rule="evenodd" clip-rule="evenodd" d="M4.6731 11.3989C4.6731 11.9512 5.12081 12.3989 5.6731 12.3989L22.8152 12.3989C23.3675 12.3989 23.8152 11.9512 23.8152 11.3989C23.8152 10.8466 23.3675 10.3989 22.8152 10.3989L5.6731 10.3989C5.12081 10.3989 4.6731 10.8466 4.6731 11.3989Z" fill="#CCCCCC"/>
<path fill-rule="evenodd" clip-rule="evenodd" d="M15.6949 18.8294C16.0936 19.2116 16.7266 19.1981 17.1087 18.7993L23.537 12.0908C23.908 11.7037 23.9076 11.0928 23.5362 10.7062L17.1079 4.01416C16.7253 3.61587 16.0923 3.60314 15.694 3.98574C15.2957 4.36834 15.2829 5.00138 15.6655 5.39967L21.4292 11.3998L15.6647 17.4156C15.2826 17.8143 15.2961 18.4473 15.6949 18.8294Z" fill="#CCCCCC"/>
</svg>
