<svg viewBox="0 0 29 23" fill="none" xmlns="http://www.w3.org/2000/svg">
<path fill-rule="evenodd" clip-rule="evenodd" d="M23.8132 11.415C23.8132 10.8628 23.3655 10.415 22.8132 10.415H5.67114C5.11885 10.415 4.67114 10.8628 4.67114 11.415C4.67114 11.9673 5.11885 12.415 5.67114 12.415H22.8132C23.3655 12.415 23.8132 11.9673 23.8132 11.415Z" fill="#007CC2"/>
<path fill-rule="evenodd" clip-rule="evenodd" d="M12.7915 3.98452C12.3927 3.60241 11.7597 3.61591 11.3776 4.01468L4.9493 10.7232C4.57834 11.1103 4.57871 11.7211 4.95015 12.1078L11.3784 18.7998C11.761 19.1981 12.3941 19.2108 12.7924 18.8282C13.1907 18.4456 13.2034 17.8126 12.8208 17.4143L7.05713 11.4142L12.8216 5.39841C13.2037 4.99965 13.1902 4.36663 12.7915 3.98452Z" fill="#007CC2"/>
</svg>
