<svg xmlns="http://www.w3.org/2000/svg" viewBox="0 0 574.1 579"><title>linkedin</title><path d="M484.1,342.1c0-19.2-2.4-35.9-7.3-50.2s-11.6-26.1-20.2-35.5a79.55,79.55,0,0,0-30.3-20.8,105,105,0,0,0-38.2-6.7c-11,0-20.6,1.3-28.8,4a75.55,75.55,0,0,0-21.1,10.4,83.63,83.63,0,0,0-15,13.8c-4.1,4.9-7.5,9.4-10.4,13.5V235H229.6c0.4,6.9.6,20.4,0.6,40.4v75.9l-0.6,135.3h83.2V345.8a93.31,93.31,0,0,1,.6-10.7,34.83,34.83,0,0,1,2.4-9.5,68.46,68.46,0,0,1,15-20.8c6.7-6.5,16-9.8,27.8-9.8q22.65,0,32.4,15.6c6.5,10.4,9.8,24.2,9.8,41.3V486.5H484l0.1-144.4h0ZM141.4,200.7c14.7,0,26.3-4.3,34.9-12.9s12.6-18.8,12.2-30.6c0-12.2-4.2-22.5-12.5-30.9s-19.7-12.5-34-12.5-25.7,4.2-34.3,12.5-12.8,18.7-12.8,31a43.17,43.17,0,0,0,12.2,30.6c8.1,8.6,19.4,12.9,33.7,12.9l0.6-.1h0ZM183,235H99.8V486.5H183V235ZM561.8,0a14.58,14.58,0,0,1,10.4,4,13.09,13.09,0,0,1,4.3,10.1V564.9a13.09,13.09,0,0,1-4.3,10.1,14.58,14.58,0,0,1-10.4,4H17.1a14.58,14.58,0,0,1-10.4-4,13.09,13.09,0,0,1-4.3-10.1V14.1A13.28,13.28,0,0,1,6.7,4,14.84,14.84,0,0,1,17.1,0H561.8Z" transform="translate(-2.4)" fill="#010002"/></svg>