<svg width="40" height="40" viewBox="0 0 40 40" fill="none" xmlns="http://www.w3.org/2000/svg">
<path d="M11.74 16.9402C10.23 16.9402 9 18.1201 9 19.6301L10.21 32.2302C10.21 33.7402 11.44 34.9302 12.95 34.9302H27C28.51 34.9302 29.74 33.7202 29.74 32.2102L30.95 19.6201C30.95 18.1101 29.72 16.9402 28.21 16.9402H11.74Z" stroke="#0B2343" stroke-miterlimit="10" stroke-linecap="round" stroke-linejoin="round"/>
<path d="M21.34 29.8701H18.62L18.11 25.6602C18.11 24.6502 18.95 23.8401 19.98 23.8401C21.01 23.8401 21.85 24.6301 21.85 25.6501L21.34 29.8701Z" stroke="#0B2343" stroke-miterlimit="10" stroke-linecap="round" stroke-linejoin="round"/>
<path d="M14.4399 16.9402V11.1702C14.4399 8.32017 17.0599 6 19.9799 6C22.8999 6 25.5199 8.32017 25.5199 11.1702V16.9402" stroke="#0B2343" stroke-miterlimit="10" stroke-linecap="round" stroke-linejoin="round"/>
</svg>
