<svg width="40" height="40" viewBox="0 0 40 40" fill="none" xmlns="http://www.w3.org/2000/svg">
<path d="M37.9999 16.9695L33.2879 21.9047L28.3528 17.2064" stroke="#0B2343" stroke-miterlimit="10" stroke-linecap="round" stroke-linejoin="round"/>
<path d="M31.5872 27.2998C28.5899 32.7925 22.4419 36.1801 15.8478 35.3855C7.21828 34.3259 1.07028 26.4772 2.11586 17.8477C3.17537 9.21823 11.0242 3.07028 19.6537 4.11586C28.2832 5.17537 34.3196 13.2751 33.274 21.9046" stroke="#0B2343" stroke-miterlimit="10" stroke-linecap="round" stroke-linejoin="round"/>
<path d="M13.3802 19.0746C12.6414 19.0746 12.0419 19.6323 12.0419 20.3293L12.6274 26.1286C12.6274 26.8257 13.2269 27.3834 13.9657 27.3834H20.8386C21.5775 27.3834 22.177 26.8257 22.177 26.1286L22.7625 20.3293C22.7625 19.6323 22.1631 19.0746 21.4242 19.0746H13.3802Z" stroke="#0B2343" stroke-miterlimit="10" stroke-linecap="round" stroke-linejoin="round"/>
<path d="M14.6628 19.0746V16.2166C14.6628 14.7109 15.8896 13.4842 17.4092 13.4842C18.9287 13.4842 20.1555 14.7109 20.1555 16.2166V19.0746" stroke="#0B2343" stroke-miterlimit="10" stroke-linecap="round" stroke-linejoin="round"/>
<path d="M17.4091 23.2289V24.7206" stroke="#0B2343" stroke-miterlimit="10" stroke-linecap="round" stroke-linejoin="round"/>
</svg>
