<?xml version="1.0" encoding="utf-8"?>
<!-- Generator: Adobe Illustrator 19.1.0, SVG Export Plug-In . SVG Version: 6.00 Build 0)  -->
<svg version="1.1" id="Layer_1" xmlns="http://www.w3.org/2000/svg" xmlns:xlink="http://www.w3.org/1999/xlink" x="0px" y="0px"
	 viewBox="0 0 25 24" enable-background="new 0 0 25 24" xml:space="preserve">
<g>
	<path d="M24.9,13.5c0.1-0.2,0.1-0.4,0-0.6c0-0.1-0.1-0.2-0.1-0.2c0,0,0,0,0,0l-4.1-4.1c-0.3-0.3-0.8-0.3-1.2,0
		c-0.3,0.3-0.3,0.8,0,1.2l2.7,2.7H7.9c-0.5,0-0.8,0.4-0.8,0.8S7.5,14,7.9,14h14.3l-2.8,2.7c-0.3,0.3-0.3,0.8,0,1.2
		c0.2,0.2,0.4,0.2,0.6,0.2s0.4-0.1,0.6-0.2l4.2-4.1c0,0,0,0,0,0C24.8,13.6,24.9,13.5,24.9,13.5z"/>
	<path d="M15,17.7c-0.5,0-0.8,0.4-0.8,0.8v3.9H1.7V1.6h12.5v6.2c0,0.5,0.4,0.8,0.8,0.8s0.8-0.4,0.8-0.8V0.8C15.8,0.4,15.5,0,15,0
		H0.8C0.4,0,0,0.4,0,0.8v22.4C0,23.6,0.4,24,0.8,24H15c0.5,0,0.8-0.4,0.8-0.8v-4.7C15.8,18.1,15.5,17.7,15,17.7z"/>
</g>
</svg>
