<svg viewBox="0 0 22 22" fill="none" xmlns="http://www.w3.org/2000/svg">
<path fill-rule="evenodd" clip-rule="evenodd" d="M0.75 1.65005C0.75 1.45675 0.9067 1.30005 1.1 1.30005H14.3421C14.5354 1.30005 14.6921 1.45675 14.6921 1.65005V8.56534C14.6921 8.75864 14.5354 8.91534 14.3421 8.91534C14.1488 8.91534 13.9921 8.75864 13.9921 8.56534V2.00005H2.36764L7.58531 5.11906C7.69101 5.18225 7.75573 5.29633 7.75573 5.41948V17.3867H13.9921V12.7691C13.9921 12.5758 14.1488 12.4191 14.3421 12.4191C14.5354 12.4191 14.6921 12.5758 14.6921 12.7691V17.7367C14.6921 17.93 14.5354 18.0867 14.3421 18.0867H7.75573V21.4501C7.75573 21.576 7.68801 21.6923 7.57842 21.7545C7.46884 21.8166 7.33429 21.8151 7.22615 21.7505L0.920417 17.981C0.814717 17.9179 0.75 17.8038 0.75 17.6806V1.65005ZM7.05573 5.61802L1.45 2.26704V17.4821L7.05573 20.8331V5.61802ZM17.9602 7.52089C18.0959 7.38323 18.3175 7.38164 18.4552 7.51733L21.3979 10.418C21.4646 10.4837 21.5021 10.5734 21.5022 10.667C21.5022 10.7607 21.4648 10.8504 21.3982 10.9162L18.4555 13.8238C18.318 13.9597 18.0964 13.9584 17.9605 13.8209C17.8247 13.6834 17.826 13.4618 17.9635 13.3259L20.3 11.0172H10.8738C10.6805 11.0172 10.5238 10.8605 10.5238 10.6672C10.5238 10.4739 10.6805 10.3172 10.8738 10.3172H20.2985L17.9638 8.01586C17.8261 7.88016 17.8245 7.65856 17.9602 7.52089Z" fill="black"/>
</svg>
