<?xml version="1.0" encoding="utf-8"?>
<!-- Generator: Adobe Illustrator 23.0.4, SVG Export Plug-In . SVG Version: 6.00 Build 0)  -->
<svg version="1.1" id="Capa_1" xmlns="http://www.w3.org/2000/svg" xmlns:xlink="http://www.w3.org/1999/xlink" x="0px" y="0px"
	 viewBox="0 0 388.3 289" style="enable-background:new 0 0 388.3 289;" xml:space="preserve">
<style type="text/css">
	.st0{fill:#FFFFFF;}
</style>
<title>Delta_logo</title>
<path class="st0" d="M180.9,289h180.9l-180.9-76.4V289z M180.9,0v177.5l167.6,80.7L180.9,0z"/>
<polygon class="st0" points="180.9,0 13.2,258.2 180.9,177.5 "/>
<polygon class="st0" points="0,289 180.9,289 180.9,212.6 "/>
<path class="st0" d="M376.4,235.9c6.6,0,11.9,5.3,11.9,11.9c0,6.6-5.3,11.9-11.9,11.9c-6.6,0-11.9-5.3-11.9-11.9c0,0,0,0,0,0
	C364.5,241.3,369.9,236,376.4,235.9L376.4,235.9 M376.4,258c5.6,0,10.2-4.5,10.2-10.1s-4.5-10.2-10.1-10.2s-10.2,4.5-10.2,10.1
	c0,0,0,0.1,0,0.1C366.3,253.5,370.8,258,376.4,258C376.5,258,376.5,258,376.4,258 M373.9,254.7h-1.7v-13.7h5.3
	c3.1,0,4.3,1.3,4.3,3.8c0.1,2-1.4,3.8-3.5,3.9l4.1,6h-2l-4.1-6h-2.5L373.9,254.7z M373.9,247.1h2.2c1.9,0,3.9-0.1,3.9-2.4
	c0-1.8-1.6-2.3-3.1-2.3h-3.1V247.1z"/>
</svg>
