<svg width="40" height="40" viewBox="0 0 40 40" fill="none" xmlns="http://www.w3.org/2000/svg">
<path d="M31.7872 33.2469H8.43276C7.08987 33.2469 6 32.157 6 30.8142V15.2445C6 13.9016 7.08987 12.8118 8.43276 12.8118H31.7872C33.1301 12.8118 34.22 13.9016 34.22 15.2445V30.8142C34.22 32.157 33.1301 33.2469 31.7872 33.2469Z" stroke="#0B2343" stroke-miterlimit="10" stroke-linecap="round" stroke-linejoin="round"/>
<path d="M25.4621 9.89241C25.4621 7.74185 23.7202 6 21.5697 6H18.6503C16.4998 6 14.7579 7.74185 14.7579 9.89241" stroke="#0B2343" stroke-miterlimit="10" stroke-linecap="round" stroke-linejoin="round"/>
<path d="M20.1099 15.731C16.3538 15.731 13.2982 18.7865 13.2982 22.5427C13.2982 26.2988 16.3538 29.3544 20.1099 29.3544C23.8661 29.3544 26.9217 26.2988 26.9217 22.5427C26.9217 18.7865 23.8661 15.731 20.1099 15.731Z" stroke="#0B2343" stroke-miterlimit="10" stroke-linecap="round" stroke-linejoin="round"/>
<path d="M19.8374 26.3476V26.1335" stroke="#0B2343" stroke-linecap="round" stroke-linejoin="round"/>
<path d="M19.8375 24.6059V23.3117C19.8375 23.1073 19.964 22.9322 20.1586 22.8641C21.3263 22.4456 22.2994 21.8131 22.2994 20.7427C22.2994 19.575 21.2193 18.6213 19.8861 18.6213C18.9909 18.6213 18.2026 19.0495 17.7939 19.6917" stroke="#0B2343" stroke-linecap="round" stroke-linejoin="round"/>
</svg>
