<svg width="40" height="40" viewBox="0 0 40 40" fill="none" xmlns="http://www.w3.org/2000/svg">
<path d="M35.2448 30.8193C35.2448 32.3525 33.9999 33.6105 32.4536 33.6105H7.79122C6.25802 33.6105 5 32.3656 5 30.8193V14.1113C5 12.5781 6.24492 11.3201 7.79122 11.3201H32.4536C33.9868 11.3201 35.2448 12.565 35.2448 14.1113V30.8193Z" stroke="#0B2343" stroke-width="1.03758" stroke-linecap="round" stroke-linejoin="round" stroke-dasharray="1.32 1.32"/>
<path d="M15.4966 8.69941V8.21455C15.4966 8.16213 15.4966 8.09661 15.5097 8.04419" stroke="#0B2343" stroke-width="1.03758" stroke-linecap="round" stroke-linejoin="round"/>
<path d="M17.2787 6.06551C17.4621 6.02619 17.6456 6 17.829 6H22.3894C23.097 6 23.726 6.30142 24.1585 6.76007" stroke="#0B2343" stroke-width="1.03758" stroke-linecap="round" stroke-linejoin="round" stroke-dasharray="1.42 1.42"/>
<path d="M24.735 8.04419C24.735 8.09661 24.7481 8.16213 24.7481 8.21455V8.69941" stroke="#0B2343" stroke-width="1.03758" stroke-linecap="round" stroke-linejoin="round"/>
</svg>
