<svg width="41" height="40" viewBox="0 0 41 40" fill="none" xmlns="http://www.w3.org/2000/svg">
<path d="M39 21C39 11.0589 30.9411 3 21 3C11.0589 3 3 11.0589 3 21C3 30.9411 11.0589 39 21 39C30.9411 39 39 30.9411 39 21Z" stroke="#0B2343" stroke-miterlimit="10" stroke-linecap="round" stroke-linejoin="round"/>
<path d="M16.0956 26.9421C17.5267 28.1816 19.7353 29.1169 21.3242 29.1169C23.8709 29.1169 25.9331 27.3139 25.9331 25.0827C25.9331 22.8516 23.7244 21.7585 21.3242 21.0486C18.8338 20.271 16.7153 19.2456 16.7153 17.0144C16.7153 14.7832 18.7775 12.9802 21.3242 12.9802C23.037 12.9802 24.5358 13.8029 25.3358 15.0086" stroke="#0B2343" stroke-miterlimit="10" stroke-linecap="round" stroke-linejoin="round"/>
<path d="M21.3242 10.783V31.3257" stroke="#0B2343" stroke-miterlimit="10" stroke-linecap="round" stroke-linejoin="round"/>
<circle cx="34.5687" cy="9.56867" r="5.55057" fill="#0B2343" stroke="#0B2343" stroke-width="0.0361887"/>
<path d="M34.5918 12.3554V6.8208" stroke="#F7F7F7" stroke-width="0.523551" stroke-miterlimit="10" stroke-linecap="round" stroke-linejoin="round"/>
<path d="M36.1049 10.8503L34.5918 12.3554L33.0787 10.8503" stroke="#F7F7F7" stroke-width="0.523551" stroke-miterlimit="10" stroke-linecap="round" stroke-linejoin="round"/>
</svg>
