<svg width="40" height="40" viewBox="0 0 40 40" fill="none" xmlns="http://www.w3.org/2000/svg">
<path d="M27.6594 32.106C27.0746 32.106 26.6208 31.8355 26.0273 31.5562C25.4949 31.3031 25.0759 30.8405 24.8665 30.2557C24.6657 29.6709 24.6919 29.0251 24.9537 28.4665C26.132 25.883 28.5061 18.6824 26.2979 14.7374C23.95 10.5392 15.545 10.5479 13.2059 14.7461C11.1112 18.4991 13.2234 25.5862 14.55 28.4665C14.8032 29.0251 14.838 29.6709 14.6373 30.2557C14.2795 31.2769 13.6248 31.4951 12.7171 31.914C10.8842 32.7607 10.0551 31.0674 9.35682 29.9503C8.8506 29.1298 8.89425 28.0476 9.47903 27.2795C7.95163 22.5489 7.09631 16.7623 9.50524 12.4332C13.5463 5.18894 25.975 5.18894 30.016 12.4332C32.4249 16.7535 31.5783 22.5315 30.0422 27.2795C30.627 28.0563 30.6706 29.1298 30.1644 29.9503C29.4662 31.0674 29.021 32.106 27.6594 32.106Z" stroke="#0B2343" stroke-miterlimit="10" stroke-linecap="round" stroke-linejoin="round"/>
</svg>
