<svg width="40" height="40" viewBox="0 0 40 40" fill="none" xmlns="http://www.w3.org/2000/svg">
<path d="M17.1939 11.3601C17.1939 11.3601 16.2338 7.76998 13.6738 10.41C10.8138 13.35 7.3539 16.41 8.1039 27.88C8.7639 37.98 9.78386 33.28 14.4439 31.01C17.9739 29.29 18.2939 26.36 18.4339 23.78C18.5639 21.2 18.4239 15.9501 17.1939 11.3601Z" stroke="#0B2343" stroke-linecap="round" stroke-linejoin="round"/>
<path d="M22.8638 11.3601C22.8638 11.3601 23.8238 7.76998 26.3838 10.41C29.2438 13.35 32.7039 16.41 31.9539 27.88C31.2939 37.98 30.2638 33.28 25.6138 31.01C22.0938 29.29 21.7638 26.36 21.6238 23.78C21.4938 21.2 21.6338 15.9501 22.8638 11.3601Z" stroke="#0B2343" stroke-linecap="round" stroke-linejoin="round"/>
<path d="M19.9839 6V15.76" stroke="#0B2343" stroke-linecap="round" stroke-linejoin="round"/>
<path d="M19.9839 15.76C19.9839 15.76 20.0038 16.59 19.6838 16.78C19.2538 17.04 13.2438 20.63 13.2438 20.63" stroke="#0B2343" stroke-linecap="round" stroke-linejoin="round"/>
<path d="M16.6238 18.6201L13.2438 16.1901" stroke="#0B2343" stroke-linecap="round" stroke-linejoin="round"/>
<path d="M16.6238 18.6201L15.9438 22.38" stroke="#0B2343" stroke-linecap="round" stroke-linejoin="round"/>
<path d="M19.9839 15.76C19.9839 15.76 20.0339 16.59 20.3239 16.78C20.7439 17.06 26.7638 20.63 26.7638 20.63" stroke="#0B2343" stroke-linecap="round" stroke-linejoin="round"/>
<path d="M23.3838 18.6201L26.7638 16.1901" stroke="#0B2343" stroke-linecap="round" stroke-linejoin="round"/>
<path d="M23.3838 18.6201L24.0538 22.38" stroke="#0B2343" stroke-linecap="round" stroke-linejoin="round"/>
</svg>
