<svg width="42" height="42" viewBox="0 0 42 42" fill="none" xmlns="http://www.w3.org/2000/svg">
<path fill-rule="evenodd" clip-rule="evenodd" d="M0.5 21C0.5 9.6961 9.69611 0.5 21 0.5C32.3039 0.5 41.4999 9.6961 41.4999 21C41.4999 32.3039 32.3039 41.5 21 41.5C9.69611 41.5 0.5 32.3039 0.5 21ZM21 1.5C10.2484 1.5 1.5 10.2484 1.5 21C1.5 31.7516 10.2484 40.5 21 40.5C31.7516 40.5 40.4999 31.7516 40.4999 21C40.4999 10.2484 31.7516 1.5 21 1.5Z" fill="#D1AD2D"/>
<path d="M21.476 23.8601C20.8201 22.875 19.8843 22.0859 18.7698 21.5781C18.0963 21.2713 17.3731 21.0727 16.6187 20.9873C16.4731 20.9087 16.1648 20.7522 15.7394 20.7522C15.2541 20.7522 14.9385 20.9172 14.7865 21.004C14.0156 21.1057 13.2804 21.3259 12.6 21.659C12.5999 21.6591 12.5999 21.6591 12.5998 21.6592C10.3592 22.7566 9.02161 24.8937 9.02161 27.3762C9.02161 29.1607 9.72222 30.6312 11.0476 31.6287C12.2397 32.5258 13.8729 32.9999 15.7707 32.9999C17.6685 32.9999 19.3017 32.5257 20.4937 31.6287C21.8191 30.6312 22.5197 29.1607 22.5197 27.3762C22.5197 26.1013 22.1588 24.8853 21.476 23.8601ZM14.9823 21.918C15.0885 21.9053 15.164 21.8615 15.2246 21.8265C15.3169 21.773 15.4714 21.6836 15.7394 21.6836C15.9495 21.6836 16.1029 21.7671 16.1947 21.8169C16.2615 21.8532 16.3373 21.8944 16.4425 21.9051C16.9594 21.9579 17.4591 22.0712 17.9341 22.2428C17.5074 22.8532 16.6449 23.2531 15.6769 23.2531C14.7485 23.2531 13.9033 22.8754 13.4614 22.2975C13.9434 22.1091 14.4529 21.9817 14.9823 21.918ZM15.7707 32.0686C12.9582 32.0686 9.95292 30.8359 9.95292 27.3762C9.95292 25.4087 10.9382 23.6949 12.6115 22.7097C13.2017 23.6083 14.3678 24.1844 15.6769 24.1844C17.0146 24.1844 18.2188 23.5654 18.7911 22.6302C20.5513 23.5996 21.5884 25.343 21.5884 27.3762C21.5884 30.8359 18.5832 32.0686 15.7707 32.0686Z" fill="#D1AD2D"/>
<path d="M30.7717 11.5556C29.8701 10.654 28.7551 10.0495 27.5473 9.80726C26.3869 9.57445 25.1672 9.67832 24.0201 10.1073C24.02 10.1073 24.02 10.1073 24.0199 10.1074C23.3268 10.3666 22.675 10.7376 22.0813 11.2106C21.9227 11.258 21.5941 11.3653 21.2933 11.6661C20.9501 12.0093 20.8436 12.349 20.7976 12.5178C20.3243 13.1348 19.9602 13.8103 19.7147 14.527C19.7147 14.527 19.7147 14.5271 19.7147 14.5272C18.9062 16.8875 19.4715 19.3447 21.2271 21.1002C22.2994 22.1725 23.569 22.7267 24.9342 22.7267C25.1754 22.7267 25.4199 22.7094 25.6666 22.6745C27.1438 22.466 28.6339 21.6464 29.9759 20.3045C31.3179 18.9625 32.1375 17.4724 32.346 15.9951C32.5779 14.3526 32.0335 12.8174 30.7717 11.5556ZM21.5822 13.0259C21.6483 12.9417 21.6708 12.8574 21.6889 12.7897C21.7164 12.6866 21.7624 12.5141 21.9519 12.3247C22.1004 12.1761 22.2679 12.1266 22.368 12.0971C22.4409 12.0755 22.5236 12.051 22.6057 11.9842C23.0084 11.656 23.442 11.3828 23.8991 11.1683C24.0291 11.9016 23.702 12.7943 23.0175 13.4787C22.361 14.1352 21.4963 14.4657 20.7752 14.3696C20.9829 13.8955 21.253 13.4451 21.5822 13.0259ZM29.3173 19.6458C27.3286 21.6345 24.3319 22.888 21.8856 20.4416C20.4943 19.0503 19.9792 17.1418 20.4657 15.2619C21.5185 15.4801 22.7504 15.0629 23.676 14.1372C24.622 13.1912 25.0358 11.9021 24.7791 10.8361C26.7093 10.2768 28.6754 10.7764 30.1131 12.2141C32.5595 14.6604 31.3061 17.6572 29.3173 19.6458Z" fill="#D1AD2D"/>
</svg>
