<svg width="40" height="40" viewBox="0 0 40 40" fill="none" xmlns="http://www.w3.org/2000/svg">
<path d="M27.9299 9.12989C27.9299 9.12989 27.49 8.98984 25.89 7.57984C24.37 6.23984 21.66 7.61987 21.37 10.7299C21.08 13.8399 16.6899 18.4299 16.6899 18.4299C16.6899 18.4299 14.99 20.1899 17.66 22.5499C20.33 24.9099 23.16 28.2399 24.42 26.7899C25.68 25.3399 33.53 14.3499 33.91 12.8999C34.28 11.4599 32.0499 10.8599 27.9299 9.12989Z" stroke="#0B2343" stroke-miterlimit="10" stroke-linecap="round" stroke-linejoin="round"/>
<path d="M21.65 26.16C21.65 26.16 30.8 14.47 31.88 10.77" stroke="#0B2343" stroke-miterlimit="10" stroke-linecap="round" stroke-linejoin="round"/>
<path d="M25.3299 11.3101C24.9499 11.6901 24.3499 11.6901 23.9699 11.3101C23.5899 10.9301 23.5899 10.33 23.9699 9.95004C24.3499 9.57004 24.9499 9.57004 25.3299 9.95004C25.7099 10.32 25.7099 10.9301 25.3299 11.3101Z" stroke="#0B2343" stroke-miterlimit="10" stroke-linecap="round" stroke-linejoin="round"/>
<path d="M17.46 24.8999L9.13 33.2299C8.41 33.9499 7.25003 33.9499 6.53003 33.2299" stroke="#0B2343" stroke-miterlimit="10" stroke-linecap="round" stroke-linejoin="round"/>
<path d="M6.54 33.23C5.82 32.51 5.82 31.35 6.54 30.63L14.87 22.3" stroke="#0B2343" stroke-miterlimit="10" stroke-linecap="round" stroke-linejoin="round"/>
</svg>
