<svg width="40" height="40" viewBox="0 0 40 40" fill="none" xmlns="http://www.w3.org/2000/svg">
<path d="M27.88 17.8901L34.9 17.8701V34.8201H6V17.8701H12.88" stroke="#0B2343" stroke-linecap="round" stroke-linejoin="round"/>
<path d="M12.88 22.28V10.5601C12.88 10.1601 13.19 9.89014 13.59 9.89014H24.21C24.4 9.89014 24.58 9.94007 24.72 10.0701L27.71 12.76C27.85 12.9 27.89 13.07 27.89 13.26V22.3601" stroke="#0B2343" stroke-miterlimit="10" stroke-linecap="round" stroke-linejoin="round"/>
<path d="M15.85 13.3801V17.1902C15.85 18.5302 17.03 19.6101 18.36 19.6101C19.69 19.6101 20.87 18.5202 20.87 17.1902V7.82007C20.87 6.82007 19.99 6 18.99 6C17.99 6 17.1 6.81007 17.1 7.82007V9.88013" stroke="#0B2343" stroke-miterlimit="10" stroke-linecap="round" stroke-linejoin="round"/>
<path d="M23.91 9.89014V13.8901H27.88" stroke="#0B2343" stroke-miterlimit="10" stroke-linecap="round" stroke-linejoin="round"/>
<path d="M6 17.8701L20.43 27.1101L34.9 17.8701" stroke="#0B2343" stroke-linecap="round" stroke-linejoin="round"/>
</svg>
