<svg width="25" height="25" viewBox="0 0 25 25" fill="none" xmlns="http://www.w3.org/2000/svg">
<g clip-path="url(#clip0_3202_648)">
<path fill-rule="evenodd" clip-rule="evenodd" d="M2.94777 3.3208H22.015C23.6568 3.3208 25.0001 4.62677 25.0001 6.23126V19.1044C25.0001 20.6716 23.6568 21.9776 22.015 21.9776H2.94777C1.30597 21.9776 0 20.7089 0 19.1044V6.23126C0 4.58946 1.30597 3.3208 2.94777 3.3208ZM13.1719 13.2832L21.4182 5.8951C21.6421 5.70853 21.9406 5.70853 22.1644 5.93242C22.351 6.1563 22.351 6.49212 22.1271 6.67869L13.8062 14.0668C13.3958 14.4399 12.8734 14.6265 12.351 14.6265C11.8286 14.6265 11.3062 14.4399 10.8958 14.0668L2.64947 6.67869C2.46291 6.49212 2.42559 6.1563 2.61216 5.93242C2.79873 5.70853 3.13455 5.70853 3.35843 5.8951L11.642 13.2832C12.0525 13.6563 12.7614 13.6563 13.1719 13.2832Z" fill="#0B2343"/>
</g>
<defs>
<clipPath id="clip0_3202_648">
<rect width="25" height="25" fill="white"/>
</clipPath>
</defs>
</svg>
