<svg width="40" height="40" viewBox="0 0 40 40" fill="none" xmlns="http://www.w3.org/2000/svg">
<path d="M20.0798 34.4601V24.53" stroke="#0B2343" stroke-miterlimit="10" stroke-linecap="round" stroke-linejoin="round"/>
<path d="M21.9299 7.80005C21.9299 8.79005 21.0998 10.1801 20.0798 10.1801C19.0598 10.1801 18.2299 8.79005 18.2299 7.80005C18.2299 6.81005 19.0598 6 20.0798 6C21.0998 6.01 21.9299 6.81005 21.9299 7.80005Z" stroke="#0B2343" stroke-miterlimit="10" stroke-linecap="round" stroke-linejoin="round"/>
<path d="M17.3699 34.4601L16.9598 22.13C16.9498 21.87 16.0998 22.2101 16.0898 21.9601C15.7398 12.9201 16.5199 12.0501 16.5999 11.9801C16.6999 11.9501 17.5499 11.9301 17.7999 11.9101C18.1399 11.8901 18.4398 12.09 18.5898 12.39C19.1498 13.44 21.0198 13.44 21.5698 12.39C21.7298 12.09 22.0199 11.8901 22.3599 11.9101C22.6099 11.9301 23.4599 11.9501 23.5599 11.9801C23.6499 12.0501 24.4198 12.9201 24.0698 21.9601C24.0598 22.2001 23.2098 21.87 23.1998 22.13L22.7299 34.4601" stroke="#0B2343" stroke-miterlimit="10" stroke-linecap="round" stroke-linejoin="round"/>
</svg>
