<svg width="40" height="40" viewBox="0 0 40 40" fill="none" xmlns="http://www.w3.org/2000/svg">
<path d="M38.0973 31.3345C31.9755 28.9931 25.1866 26.076 24.6241 24.2578V22.348C25.893 21.0661 26.887 19.2609 27.4888 17.1549C28.9015 16.1738 29.2679 14.1332 28.0906 12.6812V8.41685C28.0906 4.02168 25.6182 1 19.9804 1C14.4864 1 11.8703 4.0086 11.8703 8.41685V12.6812C10.693 14.1201 11.0592 16.1607 12.472 17.1549C13.0606 19.2609 14.0679 21.053 15.3367 22.348V24.2578C14.7743 26.076 7.97215 28.98 1.86338 31.3345C1.34015 31.5308 1 32.0409 1 32.6034V37.3648C1 38.1104 1.60176 38.7252 2.34737 38.7252H37.6526C38.3982 38.7252 39 38.1235 39 37.3648V32.6034C38.9608 32.0409 38.6206 31.5308 38.0973 31.3345Z" stroke="#0B2343" stroke-miterlimit="10" stroke-linecap="round" stroke-linejoin="round"/>
</svg>
