<svg width="40" height="40" viewBox="0 0 40 40" fill="none" xmlns="http://www.w3.org/2000/svg">
<path d="M26.5955 28.0421C22.3732 26.3375 17.7052 24.2133 17.3119 22.902V21.5121C18.1904 20.5811 18.8723 19.2699 19.2787 17.7357C20.2622 17.0145 20.4983 15.5328 19.6853 14.4838V11.3892C19.6853 8.18979 17.9807 6 14.0994 6C10.3099 6 8.50031 8.18979 8.50031 11.3892V14.4838C7.68734 15.5328 7.93639 17.0145 8.90672 17.7357C9.3132 19.2699 10.0082 20.568 10.8867 21.5121V22.902C10.4933 24.2133 5.81224 26.3375 1.60312 28.0421C1.24909 28.1864 1 28.5535 1 28.96V32.4217C1 32.9593 1.41955 33.4051 1.93094 33.4051H26.2677C26.779 33.4051 27.1987 32.9593 27.1987 32.4217V28.96C27.1987 28.5535 26.9626 28.1864 26.5955 28.0421Z" stroke="#0B2343" stroke-miterlimit="10" stroke-linecap="round" stroke-linejoin="round"/>
<path d="M31.2898 33.4182H38.1214C38.6065 33.4182 39 33.0249 39 32.5397V29.432C39 29.0649 38.777 28.7371 38.4361 28.6059C34.4367 27.0849 30.0048 27.1636 29.6245 25.9834V24.2133C33.6107 24.2001 35.1973 22.9282 35.1973 22.9282C33.532 21.9972 33.0075 15.4803 33.0075 15.4803C33.0075 10.0518 26.8708 6.79986 22.8584 10.0255" stroke="#0B2343" stroke-miterlimit="10" stroke-linecap="round" stroke-linejoin="round"/>
</svg>
