<svg width="40" height="40" viewBox="0 0 40 40" fill="none" xmlns="http://www.w3.org/2000/svg">
<path d="M18.0323 7.82761C18.0323 8.83548 17.1912 10.2461 16.1529 10.2461C15.1155 10.2461 14.2744 8.83548 14.2744 7.82761C14.2744 6.81872 15.1155 6.00001 16.1529 6.00001C17.1912 6.00001 18.0323 6.81872 18.0323 7.82761Z" stroke="#0B2343" stroke-miterlimit="10" stroke-linecap="round" stroke-linejoin="round"/>
<path d="M14.9268 33.0676C15.0854 33.4612 15.2339 33.8182 15.2725 33.9117C15.3031 34.1721 15.3875 34.6928 15.5756 34.8748C15.6204 34.9206 16.374 34.9989 16.6333 34.8555C16.731 34.8026 16.8255 34.6938 16.8439 34.5565C16.8439 34.5565 16.8378 34.284 16.8001 34.225C16.8001 34.225 16.3709 33.9463 16.3008 33.6737C16.3008 33.6737 16.313 33.4185 16.4177 33.3056C16.492 33.1805 17.4225 32.3465 17.6768 32.1452C17.928 31.9377 18.1965 31.7007 18.2514 31.3478C18.287 31.0966 18.4365 30.9379 18.765 30.9369C18.9115 30.9369 19.0905 30.9705 19.2939 31.0468C19.72 31.1993 20.4665 31.2766 21.2008 31.2776C21.8141 31.2766 22.405 31.2237 22.7884 31.0824C22.8921 31.0437 23.3752 31.1251 23.4881 31.2766C23.5989 31.4292 23.6722 31.6336 23.7149 31.7872C23.7759 32.0068 23.9722 32.5062 24.1573 32.9659C24.3159 33.3615 24.4644 33.7185 24.5031 33.81C24.5336 34.0704 24.618 34.5921 24.8051 34.7752C24.8509 34.8209 25.6045 34.8993 25.8639 34.7538C25.9615 34.7009 26.0561 34.5931 26.0734 34.4548C26.0734 34.4548 26.0683 34.1843 26.0307 34.1243C26.0307 34.1243 25.6015 33.8466 25.5313 33.5731C25.4703 33.2934 25.3808 31.8319 25.3808 31.6051C25.3808 31.6051 25.3818 30.9308 25.4164 30.7264C25.4296 30.7142 25.8445 30.043 25.8944 29.7114C25.9076 29.5944 26.3185 27.9062 26.3276 27.6682C26.3297 27.3316 26.5819 26.4783 26.7924 26.2261C26.9226 26.0623 26.9389 25.6301 26.9389 25.5935V25.5802C26.9633 25.5792 27.424 25.5945 27.6152 25.5945C27.7352 25.5935 27.8379 25.5914 27.9386 25.5569C28.0942 25.5019 28.2986 25.4236 28.4176 25.3087C28.4644 25.2609 28.5183 25.1897 28.5193 25.085C28.5193 25.085 28.6861 23.9398 28.6881 23.9083C28.6892 23.7577 28.5936 23.654 28.4705 23.6164C28.0057 23.4658 27.3131 23.6072 27.066 23.1831C26.5442 22.4031 25.2658 22.3186 24.62 23.4343C24.2417 24.0801 23.9864 24.6914 23.7434 25.1907C23.4993 25.6921 23.2664 26.0694 22.9592 26.2759C21.0798 27.5451 17.4531 26.2474 16.1594 27.2563L16.1736 27.2451C14.9756 28.076 15.0641 29.7165 15.061 30.5779C15.061 30.5779 15.2095 31.7607 15.2654 31.9519C15.3214 32.1441 14.9268 33.0676 14.9268 33.0676Z" stroke="#0B2343" stroke-miterlimit="10" stroke-linecap="round" stroke-linejoin="round"/>
<path d="M13.3938 34.9377L12.9789 22.3958C12.9677 22.1334 12.1002 22.4751 12.091 22.2259C11.7371 13.032 12.5233 12.317 12.6128 12.2459C12.7165 12.2164 13.5749 12.194 13.8312 12.1777C14.178 12.1564 14.477 12.3628 14.6366 12.6639C15.2021 13.7297 17.1039 13.7297 17.6694 12.6639C17.8291 12.3628 18.1281 12.1564 18.4749 12.1777C18.7312 12.194 19.5896 12.2164 19.6943 12.2459C19.7828 12.317 20.569 13.032 20.216 22.2259C20.2059 22.4751 19.3394 22.1334 19.3282 22.3958L19.2265 25.0299" stroke="#0B2343" stroke-miterlimit="10" stroke-linecap="round" stroke-linejoin="round"/>
</svg>
