<svg width="40" height="40" viewBox="0 0 40 40" fill="none" xmlns="http://www.w3.org/2000/svg">
<path d="M27.7251 27.8483L36.1 29.781V8.444L27.5363 7L19.2614 10.7987L12.2971 7.59983L4 10.7431V32.0801L12.2971 28.9368L18.9504 31.9246L27.7251 27.8483Z" stroke="#0B2343" stroke-miterlimit="10" stroke-linecap="round" stroke-linejoin="round"/>
<path d="M28.2916 13.1643L29.8355 16.8519" stroke="#0B2343" stroke-miterlimit="10" stroke-linecap="round" stroke-linejoin="round"/>
<path d="M30.9018 14.2419L27.2142 15.7859" stroke="#0B2343" stroke-miterlimit="10" stroke-linecap="round" stroke-linejoin="round"/>
<path d="M8.94275 23.4501C8.94275 23.4501 9.17599 22.9393 9.55363 22.1951" stroke="#0B2343" stroke-linecap="round" stroke-linejoin="round"/>
<path d="M12.1306 18.1297C12.9858 17.1079 13.9077 16.3636 14.7741 16.4192C17.3954 16.5747 19.9501 24.6718 22.3492 24.7051C23.4933 24.7162 24.6929 23.3057 25.637 21.8173" stroke="#0B2343" stroke-linecap="round" stroke-linejoin="round" stroke-dasharray="1.91 1.91"/>
<path d="M26.8143 19.6957C27.192 18.9515 27.403 18.4294 27.403 18.4294" stroke="#0B2343" stroke-linecap="round" stroke-linejoin="round"/>
</svg>
