<svg width="40" height="40" viewBox="0 0 40 40" fill="none" xmlns="http://www.w3.org/2000/svg">
<path d="M12.9517 11.6046C13.4338 11.1969 14.0007 10.6246 14.7432 9.83897C17.238 7.20066 22.6283 6.80158 24.0255 10.2953C25.4227 13.7882 24.9969 17.9844 22.528 17.8817C19.3087 17.7468 19.3604 15.2371 20.9811 11.8885" stroke="#0B2343" stroke-miterlimit="10" stroke-linecap="round" stroke-linejoin="round"/>
<path d="M20.2456 19.555C20.2456 19.555 19.5329 20.4606 17.9287 20.6809C16.2069 20.9161 13.0418 21.61 10.0789 19.4123" stroke="#0B2343" stroke-miterlimit="10" stroke-linecap="round" stroke-linejoin="round"/>
<path d="M27.8187 28.848C27.8187 28.848 24.7248 26.4112 22.7287 28.2341C20.7317 30.0578 22.9278 32.4232 26.0224 31.9387C29.1155 31.4549 30.1144 30.137 30.1144 30.137C30.1144 30.137 35.5039 28.6261 32.8083 23.1033C32.8083 23.1033 32.8083 24.7647 30.4139 26.2638C30.4139 26.2638 29.6502 23.5416 27.7638 22.3788C27.3584 22.1295 26.6058 21.8896 26.1298 21.8018C23.4351 21.3024 23.5441 17.9553 23.5441 17.9553" stroke="#0B2343" stroke-miterlimit="10" stroke-linecap="round" stroke-linejoin="round"/>
<path d="M18.176 27.5827C18.176 27.5827 18.8181 22.4825 17.9282 20.6808" stroke="#0B2343" stroke-miterlimit="10" stroke-linecap="round" stroke-linejoin="round"/>
<path d="M20.2324 28.3327C20.2324 28.3327 17.4632 26.3412 16.0527 28.847C14.6438 31.3544 20.8456 31.8664 22.0373 30.2128" stroke="#0B2343" stroke-miterlimit="10" stroke-linecap="round" stroke-linejoin="round"/>
<path d="M12.627 14.85C12.627 16.5247 11.2699 17.8827 9.59513 17.8827C7.9212 17.8827 6.56323 16.5247 6.56323 14.85C6.56323 13.1761 7.9212 11.8189 9.59513 11.8189C11.2699 11.8189 12.627 13.1761 12.627 14.85Z" stroke="#0B2343" stroke-miterlimit="10" stroke-linecap="round" stroke-linejoin="round"/>
</svg>
