<svg width="40" height="40" viewBox="0 0 40 40" fill="none" xmlns="http://www.w3.org/2000/svg">
<g clip-path="url(#clip0_3182_673)">
<path d="M33.75 13.112C33.75 11.0133 32.9929 9.99746 32.3508 9.5183C31.7279 9.04871 30.9517 8.89538 30.2521 9.08705C28.9104 9.47038 28.0575 11.1091 27.7029 11.9429C27.6454 11.9237 27.5783 11.9045 27.5208 11.8854C26.7829 11.6745 25.9587 11.3583 25.0962 11.0229C23.3042 10.3137 21.2629 9.5183 19.3654 9.5183C17.2762 9.5183 14.8612 10.467 12.9158 11.2337C12.2833 11.4829 11.6892 11.7129 11.1908 11.8854C11.1429 11.9045 11.095 11.9237 11.0471 11.9429C10.6925 11.1091 9.83958 9.47038 8.48833 9.08705C7.79833 8.8858 7.0125 9.04871 6.39917 9.5183C5.75708 9.99746 5 11.0133 5 13.112C5 16.3512 8.98667 22.6283 9.15917 22.8966L9.16875 22.9062C9.73417 24.5833 10.3475 26.0208 10.6733 26.3562C12.5037 28.2154 16.7204 29.5091 19.3654 29.5091C22.02 29.5091 26.2463 28.2154 28.0575 26.3562C28.3833 26.0208 29.0158 24.545 29.61 22.8583C29.9933 22.2641 33.75 16.2554 33.75 13.112ZM30.5012 9.94955C30.9229 9.82496 31.4117 9.93038 31.8046 10.237C32.4754 10.745 32.8492 11.7608 32.8492 13.112C32.8492 14.6837 31.7375 17.1754 30.6833 19.1783C30.8175 18.565 30.9037 18.0283 30.9133 17.6258C30.9517 15.872 29.9071 13.4858 28.4888 12.3933C28.8146 11.5979 29.5429 10.2179 30.5012 9.94955ZM5.90083 13.112C5.90083 11.7608 6.27458 10.7354 6.94542 10.237C7.33833 9.93996 7.82708 9.83455 8.24875 9.94955C9.20708 10.2179 9.93542 11.6075 10.2613 12.3933C8.91958 13.4091 7.86542 15.4791 7.86542 17.3383C7.86542 17.8462 7.98042 18.5554 8.15292 19.3604C7.07 17.3191 5.90083 14.7316 5.90083 13.112ZM27.4154 25.7237C25.9683 27.1996 22.0583 28.5987 19.3654 28.5987C16.6342 28.5987 12.8008 27.2283 11.3154 25.7141C10.8746 25.235 8.76625 19.4179 8.76625 17.3191C8.76625 15.4504 10.1079 13.1791 11.4783 12.7191C11.9958 12.5466 12.6092 12.307 13.2512 12.0579C15.1296 11.32 17.4583 10.4 19.375 10.4C21.1 10.4 22.9688 11.1283 24.7896 11.8375C25.6712 12.1825 26.5146 12.5083 27.2908 12.7287C27.4346 12.767 27.5688 12.8341 27.7125 12.9204C27.7317 12.93 27.7508 12.9491 27.77 12.9587C28.9583 13.7158 30.0604 15.8912 30.0221 17.597C29.9742 19.6479 27.8467 25.2733 27.4154 25.7237Z" fill="#0B2343"/>
<path d="M24.2338 21.1134C24.1955 21.123 20.8605 21.7267 19.3751 21.7267C17.8897 21.7267 14.5451 21.123 14.5163 21.1134C14.2768 21.0655 14.0372 21.2284 13.9893 21.4776C13.9413 21.7171 14.1043 21.9567 14.3534 22.0046C14.4972 22.0334 17.813 22.6276 19.3751 22.6276C20.9372 22.6276 24.253 22.0238 24.3968 22.0046C24.6363 21.9567 24.7993 21.7267 24.7609 21.4776C24.713 21.238 24.483 21.0751 24.2338 21.1134Z" fill="#0B2343"/>
<path d="M24.2338 18.2C24.1955 18.2096 20.8605 18.8133 19.3751 18.8133C17.8897 18.8133 14.5451 18.2096 14.5163 18.2C14.2768 18.1521 14.0372 18.315 13.9893 18.5642C13.9413 18.8038 14.1043 19.0433 14.3534 19.0913C14.4972 19.12 17.813 19.7142 19.3751 19.7142C20.9372 19.7142 24.253 19.1104 24.3968 19.0913C24.6363 19.0433 24.7993 18.8133 24.7609 18.5642C24.7226 18.315 24.483 18.1521 24.2338 18.2Z" fill="#0B2343"/>
<path d="M24.2338 15.2772C24.1955 15.2867 20.8605 15.8905 19.3751 15.8905C17.8897 15.8905 14.5451 15.2867 14.5163 15.2772C14.2768 15.2292 14.0372 15.3922 13.9893 15.6413C13.9413 15.8809 14.1043 16.1205 14.3534 16.1684C14.4972 16.1972 17.813 16.7913 19.3751 16.7913C20.9372 16.7913 24.253 16.1876 24.3968 16.1684C24.6363 16.1205 24.7993 15.8905 24.7609 15.6413C24.713 15.3922 24.483 15.2292 24.2338 15.2772Z" fill="#0B2343"/>
</g>
<defs>
<clipPath id="clip0_3182_673">
<rect width="28.75" height="20.5083" fill="white" transform="translate(5 9)"/>
</clipPath>
</defs>
</svg>
