<svg viewBox="0 0 20 20" fill="none" xmlns="http://www.w3.org/2000/svg">
<rect width="20" height="20" fill="white"/>
<g clip-path="url(#clip0_4893_62147)">
<path d="M12.7308 5.38721H7.18726V14.4411H12.7308V5.38721Z" fill="#FF5F00"/>
<path d="M7.75909 9.91284C7.75653 8.14617 8.56935 6.47694 9.95909 5.38719C7.4591 3.42309 3.84115 3.85642 1.87448 6.35643C-0.092183 8.85643 0.343715 12.4744 2.84371 14.441C4.93089 16.0821 7.86935 16.0821 9.95909 14.441C8.56935 13.3513 7.75653 11.6795 7.75909 9.91284Z" fill="#EB001B"/>
<path d="M19.2718 9.9129C19.2718 13.0924 16.6949 15.6693 13.5154 15.6693C12.2257 15.6693 10.9718 15.236 9.95642 14.4385C12.4564 12.4744 12.8898 8.85393 10.9257 6.35393C10.6436 5.99239 10.318 5.66932 9.95642 5.3847C12.4564 3.4206 16.0744 3.85393 18.041 6.35137C18.8385 7.36932 19.2718 8.6206 19.2718 9.9129Z" fill="#F79E1B"/>
</g>
<defs>
<clipPath id="clip0_4893_62147">
<rect width="20" height="11.7949" fill="white" transform="translate(0 4)"/>
</clipPath>
</defs>
</svg>
