<?xml version="1.0" encoding="utf-8"?>
<!-- Generator: Adobe Illustrator 19.1.0, SVG Export Plug-In . SVG Version: 6.00 Build 0)  -->
<svg version="1.1" id="Layer_1" xmlns="http://www.w3.org/2000/svg" xmlns:xlink="http://www.w3.org/1999/xlink" x="0px" y="0px"
	 viewBox="0 0 140 50" enable-background="new 0 0 140 50" xml:space="preserve">
<g>
	<g>
		<path fill-rule="evenodd" clip-rule="evenodd" fill="#221F1F" d="M135,16.8c-1.5,0-2.6,1.2-2.6,2.8c0,1.5,1.2,2.8,2.6,2.8
			c1.5,0,2.6-1.2,2.6-2.8C137.6,18.1,136.4,16.8,135,16.8z M135,21.8c-1.1,0-2-1-2-2.1c0-1.2,0.9-2.1,2-2.1c1.1,0,2,0.9,2,2.1
			C137,20.8,136.1,21.8,135,21.8z M135.9,19.2c0-0.2-0.1-0.5-0.3-0.6c-0.2-0.1-0.4-0.1-0.6-0.1h-1v2.5h0.5v-1h0.4l0.4,1h0.6
			l-0.4-1.1C135.8,19.7,135.9,19.4,135.9,19.2z M135.2,19.4c-0.1,0.1-0.2,0.1-0.3,0.1h-0.3v-0.6h0.3c0.1,0,0.3,0,0.3,0
			c0.1,0,0.1,0.2,0.1,0.2C135.4,19.2,135.3,19.4,135.2,19.4z M87.6,22.6c1.2,0,2.3-0.2,3.9-0.6l0.8-5c-1.5,0.8-2.7,1.1-3.7,1.1
			c-2.6,0-4.1-2-4.1-5.3c0-4.8,2.3-8.1,5.6-8.1c1.2,0,2.4,0.3,3.9,1.2l0.7-4.7c-0.4-0.2-0.5-0.2-1.1-0.4l-1.8-0.5
			c-0.5-0.2-1.2-0.2-2-0.2c-5.8,0-9.9,5.4-9.9,13.2C79.9,19,82.8,22.6,87.6,22.6z M78.5,9.5c0.4-2.1,0.9-3.7,1.7-5.1l-0.2,0
			c-0.1,0-0.3,0-0.5,0c-1.5,0-2.3,0.8-3.6,2.9l0.4-2.7h-4l-2.7,17.7h4.4c1.6-10.8,2-12.7,4.1-12.7C78.3,9.5,78.3,9.5,78.5,9.5z
			 M50.5,22.6c1,0,2-0.2,3.2-0.6l0.6-3.9c-0.3,0.1-0.7,0.2-1.2,0.2c-1,0-1.5-0.4-1.5-1.3c0-0.2,0-0.4,0.1-0.7l1.2-7.4H55l0.6-4.3
			h-2.3l0.5-2.6h-4.4L47.6,14l-0.2,1.4l-0.3,1.7C47,17.6,47,18.2,47,18.7C47,21.2,48.2,22.6,50.5,22.6z M39.1,18.6
			c-1.3,0-2.5-0.2-3.9-0.7L34.6,22l0.2,0l0.8,0.2c0.3,0.1,0.6,0.1,1.2,0.2c1.1,0.1,1.9,0.1,2.4,0.1c4.6,0,6.8-1.9,6.8-5.9
			c0-2.4-0.9-3.9-3.1-4.9c-1.8-0.9-2-1.1-2-1.9c0-1,0.7-1.5,2.1-1.5c0.9,0,2,0.1,3.2,0.3l0.6-4.1c-1.2-0.2-2.9-0.3-3.9-0.3
			c-4.9,0-6.6,2.7-6.6,6c0,2.2,1,3.8,3.3,4.9c1.8,0.9,2.1,1.1,2.1,2C41.6,18.1,40.9,18.6,39.1,18.6z M121.7,22.4
			c1.6,0,2.9-0.6,4.1-2l-0.2,1.7h4.2l3.4-21.7h-4.3l-1,6.2c-1.2-1.7-2.5-2.4-4.2-2.4c-3.9,0-7.2,5-7.2,10.8
			C116.4,19.5,118.5,22.4,121.7,22.4z M124.4,8.6c1.5,0,2.3,1.2,2.3,3.5c0,3.5-1.4,6-3.5,6c-1.5,0-2.3-1.2-2.3-3.5
			C121,11.1,122.4,8.6,124.4,8.6z M63.1,22.5c1.6,0,3-0.2,4.5-0.7l0.7-4.4c-1.6,0.8-3,1.1-4.6,1.1c-2.6,0-3.9-1-3.9-3.1
			c0-0.2,0-0.3,0-0.5h8.8c0.4-1.8,0.5-3.1,0.5-4.4c0-3.9-2.3-6.4-6-6.4c-4.4,0-7.7,4.5-7.7,10.5C55.6,19.8,58.1,22.5,63.1,22.5z
			 M63.1,8.1c1.3,0,2.1,0.8,2.1,2.3c0,0.2,0,0.5,0,0.9l-4.9,0C60.7,9.2,61.7,8.1,63.1,8.1z M7.6,5.6L8,22.2h3l5.6-16.7l-2.5,16.7
			h4.4L22,0.5h-6.9l-4.3,13.5L10.6,0.5H4.3L0.8,22.2H5L7.6,5.6z M28.6,10.9c-4.9,0-7.8,2.5-7.8,6.8c0,2.8,1.6,4.8,4,4.8
			c2,0,3.5-0.7,4.6-2.1l-0.1,1.8h3.7l0.1-0.5l0.1-0.6l0.1-0.9l0.1-1.1l0.9-6.3c0.3-2,0.4-2.6,0.4-3.5c0-3.4-2-5.2-5.8-5.2
			c-1.6,0-3.1,0.3-5.3,1l-0.6,4l0.4-0.1l0.6-0.2c1-0.3,2.4-0.5,3.7-0.5c2.1,0,2.8,0.4,2.8,1.6c0,0.3,0,0.6-0.2,1.1
			C29.8,10.9,29.1,10.9,28.6,10.9z M26.7,18.7c-1,0-1.6-0.7-1.6-1.8c0-1.8,1.3-2.7,3.8-2.7c0.3,0,0.5,0,1,0.1
			C29.8,16.9,28.5,18.7,26.7,18.7z M101,10.9c-4.9,0-7.8,2.5-7.8,6.8c0,2.8,1.6,4.8,4,4.8c2,0,3.5-0.7,4.6-2.1l-0.1,1.8h3.7l0-0.5
			l0.1-0.6l0.1-0.9l0.1-1.1l0.9-6.3c0.3-2,0.4-2.6,0.4-3.5c0-3.4-2-5.2-5.8-5.2c-1.6,0-3.1,0.3-5.3,1l-0.6,4l0.4-0.1l0.6-0.2
			c1-0.3,2.4-0.5,3.7-0.5c2.1,0,2.8,0.4,2.8,1.6c0,0.3,0,0.6-0.2,1.1C102.1,10.9,101.5,10.9,101,10.9z M99.1,18.7
			c-1,0-1.6-0.7-1.6-1.8c0-1.8,1.3-2.7,3.8-2.7c0.3,0,0.5,0,1,0.1C102.2,16.9,100.9,18.7,99.1,18.7z M115.9,9.5c0.1,0,0.1,0,0.3,0
			c0.4-2.1,0.9-3.7,1.7-5.1l-0.2,0c-0.1,0-0.3,0-0.4,0c-1.4,0-2.3,0.8-3.6,2.9l0.4-2.7h-4l-2.7,17.7h4.4
			C113.4,11.4,113.8,9.5,115.9,9.5z M97.3,31.5c-4.7,0-7.8,4.2-7.8,10.4c0,4.4,1.8,8.1,6.3,8.1c4.5,0,7.8-3.2,7.8-10.6
			C103.6,35,101.4,31.5,97.3,31.5z M96.1,45.7c-1.4,0-2.3-1.5-2.3-3.9c0-2.8,1.3-6,3.3-6c1.6,0,2.2,1.7,2.2,3.6
			C99.3,43.4,98,45.7,96.1,45.7z M81.3,40.1c0-4.8,2.2-8.2,5.2-8.2c1.2,0,2.2,0.3,3.7,1.2l0.7-4.7c-0.4-0.2-0.5-0.2-1-0.4l-1.7-0.5
			c-0.5-0.1-1.1-0.2-1.9-0.2c-5.5,0-9.3,5.4-9.3,13.2c0,5.8,2.8,9.4,7.2,9.4c1.1,0,2.1-0.2,3.7-0.6l0.7-5c-1.4,0.8-2.5,1.1-3.5,1.1
			C82.8,45.4,81.3,43.4,81.3,40.1z M63.6,31.6c-0.1,0-0.3,0-0.4,0c-1.3,0-2.1,0.8-3.4,2.9l0.4-2.7h-3.7L54,49.4h4.1
			c1.5-10.8,1.9-12.7,3.8-12.7c0.1,0,0.1,0,0.3,0c0.4-2.1,0.9-3.7,1.6-5.1L63.6,31.6z M116.5,27.5l-0.9,6.2
			c-1.1-1.7-2.3-2.4-3.9-2.4c-3.6,0-6.7,5-6.7,10.9c0,4.4,2,7.3,5,7.3c1.5,0,2.7-0.6,3.8-2l-0.2,1.7h3.9l3.1-21.7H116.5z
			 M111.3,45.1c-1.4,0-2.1-1.2-2.1-3.5c0-3.5,1.3-5.9,3.2-5.9c1.4,0,2.2,1.2,2.2,3.5C114.6,42.6,113.3,45.1,111.3,45.1z M21,31.4
			c-4.1,0-7.2,4.5-7.2,10.5c0,5.2,2.4,7.9,7,7.9c1.5,0,2.8-0.2,4.2-0.7l0.7-4.4c-1.5,0.8-2.8,1.1-4.3,1.1c-2.4,0-3.6-1-3.6-3.1
			c0-0.2,0-0.3,0-0.6h8.2c0.4-1.8,0.5-3.1,0.5-4.4C26.6,33.9,24.4,31.4,21,31.4z M22.7,38.6l-4.5,0c0.4-2,1.3-3.2,2.6-3.2
			c1.2,0,1.9,0.8,1.9,2.3C22.8,38,22.7,38.3,22.7,38.6z M70,31.4c-4.1,0-7.2,4.5-7.2,10.5c0,5.2,2.4,7.9,7,7.9
			c1.4,0,2.8-0.2,4.2-0.7l0.7-4.4c-1.5,0.8-2.8,1.1-4.3,1.1c-2.4,0-3.6-1-3.6-3.1c0-0.2,0-0.3,0-0.6H75c0.4-1.8,0.5-3.1,0.5-4.4
			C75.5,33.9,73.4,31.4,70,31.4z M71.7,38.6l-4.5,0c0.4-2,1.3-3.2,2.6-3.2c1.2,0,1.9,0.8,1.9,2.3C71.7,38,71.7,38.3,71.7,38.6z
			 M127.4,31.4c-4.1,0-7.2,4.5-7.2,10.5c0,5.2,2.4,7.9,7,7.9c1.5,0,2.8-0.2,4.2-0.7l0.7-4.4c-1.5,0.8-2.8,1.1-4.3,1.1
			c-2.4,0-3.6-1-3.6-3.1c0-0.2,0-0.3,0-0.6h8.2c0.4-1.8,0.5-3.1,0.5-4.4C133,33.9,130.8,31.4,127.4,31.4z M129.2,38.6l-4.5,0
			c0.4-2,1.3-3.2,2.6-3.2c1.2,0,1.9,0.8,1.9,2.3C129.2,38,129.2,38.3,129.2,38.6z M9.4,31.4c1.5,0,2.6,0.5,3.4,1l1-4.4
			c-1.1-0.7-2.9-1-4.8-1c-3.4,0-7,1.7-7,7.4c0,6.2,6.1,4.9,6.1,8.5c0,2.3-2,2.6-3.3,2.6c-1.4,0-3-0.5-3.9-1.3l-1,4.5
			c1.4,0.6,3.2,1.1,4.8,1.1c3.6,0,7.6-1.6,7.6-7.7c0-6.7-6.1-5.6-6.1-8.7C6.4,31.7,7.7,31.4,9.4,31.4z M27.6,41.8c0,4.4,2.2,8,5.8,8
			c1.7,0,2.8-0.3,3.7-0.7l0.6-4.5c-0.9,0.5-1.7,0.8-2.8,0.8c-1.8,0-2.9-1.7-2.9-3.8c0-3.6,1.6-5.7,3.8-5.7c0.9,0,1.9,0.4,2.7,1
			l0.9-4.2c-1.2-0.7-2.8-1.2-3.9-1.2C30.8,31.5,27.6,36.1,27.6,41.8z M50.1,31.8l-1.2,8.1c-0.3,2.6-1.4,4.8-3.2,4.8
			c-1.2,0.1-1.7-1-1.7-2c0-0.9,0.2-1.8,0.3-2.7l1.2-8.2h-4.4L40,40c-0.3,1.8-0.3,2.5-0.3,3.7c0,3.4,1.3,6.1,3.8,6.1
			c2.2,0,3.5-1.3,4.8-3.3h0L48,49.3h4c0.1-1.6,0.3-3.1,0.5-4.6l1.9-13H50.1z M133.9,46.2h1v2.9h0.7v-2.9h1v-0.6h-2.6V46.2z
			 M139,45.5l-0.6,2.8h0l-0.6-2.8h-1v3.6h0.6v-3h0l0.6,3h0.7l0.6-3h0v3h0.6v-3.6H139z"/>
	</g>
</g>
</svg>
