<svg viewBox="0 0 25 16" fill="none" xmlns="http://www.w3.org/2000/svg">
<path d="M15.9135 2.76419H8.98401V14.2783H15.9135V2.76419Z" fill="#FF5F00"/>
<path d="M9.69881 8.5196C9.6956 6.27286 10.7116 4.15003 12.4488 2.76416C9.32381 0.266335 4.80137 0.817421 2.34304 3.99677C-0.11529 7.17612 0.429583 11.7772 3.55458 14.2783C6.16355 16.3653 9.83663 16.3653 12.4488 14.2783C10.7116 12.8924 9.6956 10.7663 9.69881 8.5196Z" fill="#EB001B"/>
<path d="M24.0898 8.51959C24.0898 12.5631 20.8686 15.8402 16.8943 15.8402C15.2821 15.8402 13.7148 15.2892 12.4456 14.275C15.5706 11.7772 16.1122 7.17285 13.6571 3.99351C13.3045 3.53372 12.8975 3.12285 12.4456 2.7609C15.5706 0.26307 20.093 0.814158 22.5513 3.99024C23.5481 5.28481 24.0898 6.87611 24.0898 8.51959Z" fill="#F79E1B"/>
</svg>
