<svg viewBox="0 0 40 13" fill="none" xmlns="http://www.w3.org/2000/svg">
<path d="M2.30762 1.17599H6.70971L8.41664 7.64399L10.1011 1.17599H14.5032V11.824H11.7856V3.70599L9.67438 11.824H7.18136L5.07015 3.70599V11.824H2.30762V1.17599Z" fill="#0B2343"/>
<path d="M23.5994 7.468L26.5416 8.348C26.3395 9.162 26.0251 9.822 25.5983 10.372C25.1716 10.922 24.655 11.318 24.0261 11.604C23.3973 11.868 22.5887 12 21.623 12C20.4326 12 19.4893 11.824 18.7257 11.494C17.9845 11.164 17.3332 10.57 16.7941 9.712C16.2551 8.876 15.9856 7.776 15.9856 6.456C15.9856 4.696 16.4572 3.354 17.423 2.408C18.3663 1.462 19.7139 1 21.4657 1C22.8358 1 23.9138 1.264 24.6999 1.814C25.486 2.364 26.07 3.178 26.4518 4.3L23.4647 4.96C23.3524 4.63 23.2625 4.388 23.1278 4.256C22.9481 4.014 22.701 3.816 22.4315 3.684C22.162 3.552 21.8476 3.486 21.5107 3.486C20.747 3.486 20.1631 3.794 19.7588 4.388C19.4444 4.828 19.3096 5.532 19.3096 6.478C19.3096 7.666 19.4893 8.458 19.8487 8.898C20.208 9.338 20.7246 9.558 21.3984 9.558C22.0497 9.558 22.5213 9.382 22.8582 9.03C23.1951 8.678 23.4422 8.128 23.5994 7.468Z" fill="#0B2343"/>
<path d="M27.4399 6.5C27.4399 4.762 27.9341 3.42 28.9223 2.452C29.9105 1.484 31.2805 1 33.0548 1C34.8516 1 36.2666 1.484 37.2323 2.43C38.1981 3.376 38.6922 4.718 38.6922 6.434C38.6922 7.688 38.4676 8.7 38.0409 9.492C37.6142 10.284 36.9853 10.9 36.1992 11.34C35.3906 11.78 34.38 12 33.1896 12C31.9543 12 30.9436 11.802 30.1576 11.428C29.349 11.054 28.6977 10.438 28.2036 9.624C27.687 8.788 27.4399 7.754 27.4399 6.5ZM30.7864 6.522C30.7864 7.6 30.9886 8.37 31.3928 8.832C31.7971 9.294 32.3586 9.536 33.0548 9.536C33.7736 9.536 34.335 9.316 34.7393 8.854C35.1436 8.392 35.3233 7.578 35.3233 6.39C35.3233 5.378 35.1211 4.652 34.6944 4.19C34.2677 3.728 33.7286 3.508 33.0099 3.508C32.3361 3.508 31.7971 3.75 31.3704 4.212C30.9436 4.674 30.7864 5.444 30.7864 6.522Z" fill="#0B2343"/>
</svg>
