<svg width="40" height="40" viewBox="0 0 40 40" fill="none" xmlns="http://www.w3.org/2000/svg">
<path d="M9.52002 17.95C9.52002 19.16 9.72009 21.11 10.0901 22.19C9.45009 22.48 9 23.12 9 23.87C9 24.89 9.82009 25.71 10.8401 25.71C10.8501 25.71 10.86 25.71 10.87 25.71C11.25 30.56 16.76 34.65 20.25 34.65C23.83 34.65 29.25 30.56 29.63 25.71C29.64 25.71 29.65 25.71 29.66 25.71C30.68 25.71 31.5 24.89 31.5 23.87C31.5 23.12 31.05 22.48 30.41 22.19C30.78 21.1 30.9 19.16 30.9 17.95" stroke="#0B2343" stroke-linecap="round" stroke-linejoin="round"/>
<path d="M12.9701 18.84L12.62 22.91C12.62 22.91 11.6201 21.52 10.0901 22.2" stroke="#0B2343" stroke-miterlimit="10" stroke-linecap="round" stroke-linejoin="round"/>
<path d="M27.4901 18.87L27.91 22.91C27.91 22.91 28.9101 21.52 30.4401 22.2" stroke="#0B2343" stroke-miterlimit="10" stroke-linecap="round" stroke-linejoin="round"/>
<path d="M23.8 19.42C26.03 19.2 28.51 18.75 30.9 17.95L29.5 11.19C29.5 11.19 28.8701 6 20.2101 6C12.1001 6 10.92 11.19 10.92 11.19L9.52002 17.95C9.52002 17.95 12.3201 18.94 16.5601 19.38" stroke="#0B2343" stroke-miterlimit="10" stroke-linecap="round" stroke-linejoin="round"/>
<path d="M24.87 16.23C24.87 18.81 22.7801 20.89 20.2101 20.89C17.6301 20.89 15.55 18.8 15.55 16.23C15.55 13.65 17.6401 11.57 20.2101 11.57C22.7801 11.56 24.87 13.65 24.87 16.23Z" stroke="#0B2343" stroke-miterlimit="10" stroke-linecap="round" stroke-linejoin="round"/>
<path d="M21.7001 16.23C21.7001 17.05 21.0301 17.72 20.2101 17.72C19.3901 17.72 18.7201 17.05 18.7201 16.23C18.7201 15.41 19.3901 14.74 20.2101 14.74C21.0301 14.73 21.7001 15.4 21.7001 16.23Z" stroke="#0B2343" stroke-miterlimit="10" stroke-linecap="round" stroke-linejoin="round"/>
<path d="M11.0701 26.91L18.27 25.9C19.51 25.73 20.79 25.72 22.04 25.89L29.4301 26.9" stroke="#0B2343" stroke-miterlimit="10" stroke-linecap="round" stroke-linejoin="round"/>
</svg>
