<svg width="40" height="40" viewBox="0 0 40 40" fill="none" xmlns="http://www.w3.org/2000/svg">
<mask id="path-1-outside-1_3182_670" maskUnits="userSpaceOnUse" x="14" y="16" width="13" height="13" fill="black">
<rect fill="white" x="14" y="16" width="13" height="13"/>
<path fill-rule="evenodd" clip-rule="evenodd" d="M22 17H19V21L15 21V24H19V28H22V24H26V21L22 21V17Z"/>
</mask>
<path d="M19 17H18C18 16.4477 18.4477 16 19 16V17ZM22 17V16C22.5523 16 23 16.4477 23 17H22ZM19 21H20C20 21.2652 19.8946 21.5196 19.7071 21.7071C19.5196 21.8946 19.2652 22 19 22V21ZM15 21H14C14 20.7348 14.1054 20.4804 14.2929 20.2929C14.4804 20.1054 14.7348 20 15 20V21ZM15 24V25C14.4477 25 14 24.5523 14 24H15ZM19 24V23C19.5523 23 20 23.4477 20 24H19ZM19 28V29C18.4477 29 18 28.5523 18 28H19ZM22 28H23C23 28.5523 22.5523 29 22 29V28ZM22 24H21C21 23.4477 21.4477 23 22 23V24ZM26 24H27C27 24.5523 26.5523 25 26 25V24ZM26 21L26 20C26.5523 20 27 20.4477 27 21H26ZM22 21V22C21.4477 22 21 21.5523 21 21H22ZM19 16H22V18H19V16ZM18 21V17H20V21H18ZM15 20L19 20V22H15V20ZM14 24V21H16V24H14ZM19 25H15V23H19V25ZM18 28V24H20V28H18ZM22 29H19V27H22V29ZM23 24V28H21V24H23ZM26 25H22V23H26V25ZM27 21V24H25V21H27ZM22 20L26 20L26 22L22 22V20ZM23 17V21H21V17H23Z" fill="#0B2343" mask="url(#path-1-outside-1_3182_670)"/>
<rect x="5.5" y="12.5" width="30" height="21" rx="1.5" stroke="#0B2343"/>
<path d="M25 10V9C25 7.34315 23.6569 6 22 6H18C16.3431 6 15 7.34315 15 9V10" stroke="#0B2343"/>
</svg>
