<svg width="40" height="40" viewBox="0 0 40 40" fill="none" xmlns="http://www.w3.org/2000/svg">
<path d="M21.9478 5.77841H20.3101V4.88617C20.3101 3.84707 19.4291 3 18.3335 3H17.3396C16.2441 3 15.3631 3.84707 15.3631 4.88617V5.77841H13.6576C11.0486 5.77841 11.0147 9.69765 13.6576 9.69765H21.9478C24.5907 9.69765 24.5907 5.77841 21.9478 5.77841Z" stroke="#0B2343" stroke-linecap="round" stroke-linejoin="round"/>
<path d="M27.0304 7.40479H29.6281V22.5M8.62033 7.40479H6V35.5508H21.5" stroke="#0B2343" stroke-linecap="round" stroke-linejoin="round"/>
<path d="M33.9251 26.2354C33.9196 26.2354 33.5532 26.3394 32.99 26.3394C31.7979 26.3394 30.0699 25.8911 28.6099 23.7639C28.4404 23.5178 28.0358 23.5178 27.8662 23.7639C26.1055 26.334 23.6283 26.6019 22.5511 26.2301C22.2613 26.1426 21.9714 26.3612 21.9714 26.6729V30.9984C21.9714 37.0354 28.0576 38.7907 28.1178 38.8071C28.1561 38.8181 28.1943 38.8234 28.2381 38.8234C28.2764 38.8234 28.3201 38.8181 28.3584 38.8071C28.4186 38.7907 34.5047 37.0354 34.5047 30.9984V26.6729C34.5047 26.3776 34.2204 26.1534 33.9251 26.2354Z" stroke="#0B2343" stroke-miterlimit="10" stroke-linecap="round" stroke-linejoin="round"/>
<path d="M25 32.5158H26.3548L27.1239 29L28.2127 34.4934L28.8643 30.8394L29.4458 32.1138H30.8687" stroke="#0B2343" stroke-width="0.5" stroke-miterlimit="10" stroke-linecap="round" stroke-linejoin="round"/>
</svg>
