<svg width="40" height="40" viewBox="0 0 40 40" fill="none" xmlns="http://www.w3.org/2000/svg">
<path d="M21.9478 5.77841H20.3101V4.88617C20.3101 3.84707 19.4291 3 18.3335 3H17.3396C16.2441 3 15.3631 3.84707 15.3631 4.88617V5.77841H13.6576C11.0486 5.77841 11.0147 9.69765 13.6576 9.69765H21.9478C24.5907 9.69765 24.5907 5.77841 21.9478 5.77841Z" stroke="#0B2343" stroke-linecap="round" stroke-linejoin="round"/>
<path d="M27.0304 7.40479H29.6281V22.5M8.62033 7.40479H6V35.5508H21.5" stroke="#0B2343" stroke-linecap="round" stroke-linejoin="round"/>
<path d="M33.9251 26.2354C33.9196 26.2354 33.5532 26.3394 32.99 26.3394C31.7979 26.3394 30.0699 25.8911 28.6099 23.7639C28.4404 23.5178 28.0358 23.5178 27.8662 23.7639C26.1055 26.334 23.6283 26.6019 22.5511 26.2301C22.2613 26.1426 21.9714 26.3612 21.9714 26.6729V30.9984C21.9714 37.0354 28.0576 38.7907 28.1178 38.8071C28.1561 38.8181 28.1943 38.8234 28.2381 38.8234C28.2764 38.8234 28.3201 38.8181 28.3584 38.8071C28.4186 38.7907 34.5047 37.0354 34.5047 30.9984V26.6729C34.5047 26.3776 34.2204 26.1534 33.9251 26.2354Z" stroke="#0B2343" stroke-miterlimit="10" stroke-linecap="round" stroke-linejoin="round"/>
<path d="M27.744 28.8638C28.2951 29.0117 28.6752 29.3685 28.6752 30.076C28.6752 31.0727 27.9192 32.3883 26.9879 32.3883C26.0567 32.3883 25.3007 31.0748 25.3007 30.076C25.3007 29.3685 25.6808 29.0117 26.2319 28.8638" stroke="#0B2343" stroke-width="0.5" stroke-linecap="round" stroke-linejoin="round"/>
<path d="M31.0573 30.1646C31.0573 30.5553 30.749 30.8742 30.3688 30.8742C29.9887 30.8742 29.6804 30.5574 29.6804 30.1646C29.6804 29.7718 29.9887 29.4551 30.3688 29.4551C30.749 29.4551 31.0573 29.7739 31.0573 30.1646Z" stroke="#0B2343" stroke-width="0.5" stroke-linecap="round" stroke-linejoin="round"/>
<path d="M26.6036 28.8596C26.6036 28.9694 26.5212 29.0581 26.4178 29.0581C26.3143 29.0581 26.2319 28.9694 26.2319 28.8596C26.2319 28.7498 26.3143 28.6611 26.4178 28.6611C26.5212 28.6611 26.6036 28.7498 26.6036 28.8596Z" stroke="#0B2343" stroke-width="0.5" stroke-linecap="round" stroke-linejoin="round"/>
<path d="M27.744 28.8596C27.744 28.9694 27.6616 29.0581 27.5581 29.0581C27.4547 29.0581 27.3723 28.9694 27.3723 28.8596C27.3723 28.7498 27.4547 28.6611 27.5581 28.6611C27.6616 28.6611 27.744 28.7498 27.744 28.8596Z" stroke="#0B2343" stroke-width="0.5" stroke-linecap="round" stroke-linejoin="round"/>
<path d="M26.9879 32.3884V33.0029C26.9879 33.8582 27.7397 34.4875 28.5802 34.4875H28.8146C29.6572 34.4875 30.3688 33.8582 30.3688 33.0029V30.4456" stroke="#0B2343" stroke-width="0.5" stroke-linecap="round" stroke-linejoin="round"/>
</svg>
