<svg width="40" height="40" viewBox="0 0 40 40" fill="none" xmlns="http://www.w3.org/2000/svg">
<path d="M27.4404 6.99988H10.1372L7 32.4229H9.21454L9.62754 29.6021C10.0669 27.8357 11.0776 27.0536 12.3079 27.0536L20.1993 27.0448C21.4296 27.0448 22.3875 27.8796 22.2908 29.4702L22.0799 32.4317H24.2943L27.4404 6.99988Z" stroke="#0B2343" stroke-linecap="round" stroke-linejoin="round"/>
<path d="M27.4404 6.99976L32.2385 32.4228H30.024L29.611 29.6019C29.1716 27.8356 28.161 27.0798 26.9307 27.0798" stroke="#0B2343" stroke-linecap="round" stroke-linejoin="round"/>
<path d="M14.0126 12.2285H22.8356" stroke="#0B2343" stroke-linecap="round" stroke-linejoin="round"/>
<path d="M13.0987 15.8401H22.1414" stroke="#0B2343" stroke-linecap="round" stroke-linejoin="round"/>
<path d="M12.2815 19.3201H21.7372" stroke="#0B2343" stroke-linecap="round" stroke-linejoin="round"/>
<path d="M17.0181 29.0485C16.9742 29.4527 17.1851 32.0187 17.2114 32.4229H14.9969L14.5751 29.0923" stroke="#0B2343" stroke-linecap="round" stroke-linejoin="round"/>
</svg>
