<svg width="40" height="40" viewBox="0 0 40 40" fill="none" xmlns="http://www.w3.org/2000/svg">
<path d="M33.4106 25.3419C33.4106 25.9725 32.8996 26.4835 32.269 26.4835C31.6384 26.4835 31.1273 25.9725 31.1273 25.3419C31.1273 24.7112 31.6384 24.2111 32.269 24.2111C32.8996 24.2111 33.4106 24.7112 33.4106 25.3419Z" stroke="#0B2343" stroke-linecap="round" stroke-linejoin="round"/>
<path d="M24.6254 16.4915C23.5164 17.22 22.0485 17.5788 20.5916 17.5788C19.1346 17.5788 17.6669 17.22 16.5579 16.4915C15.177 15.5891 12.9482 15.5891 11.5673 16.4915" stroke="#0B2343" stroke-miterlimit="10" stroke-linecap="round" stroke-linejoin="round"/>
<path d="M24.6254 21.1342C23.5164 21.8627 22.0485 22.2215 20.5916 22.2215C19.1346 22.2215 17.6669 21.8627 16.5579 21.1342C15.177 20.2318 12.9482 20.2318 11.5673 21.1342" stroke="#0B2343" stroke-miterlimit="10" stroke-linecap="round" stroke-linejoin="round"/>
<path d="M35.5308 8H4V29.7454H35.5308V8Z" stroke="#0B2343" stroke-linecap="round" stroke-linejoin="round"/>
<path d="M29.0072 10.1746H7.26178V26.4836H29.0072V10.1746Z" stroke="#0B2343" stroke-linecap="round" stroke-linejoin="round"/>
<path d="M10.5236 31.9199H9.43632C8.24032 31.9199 7.26178 30.9414 7.26178 29.7454H12.6981C12.6981 30.9414 11.7305 31.9199 10.5236 31.9199Z" stroke="#0B2343" stroke-miterlimit="10" stroke-linecap="round" stroke-linejoin="round"/>
<path d="M30.0944 31.9199H29.0072C27.8112 31.9199 26.8326 30.9414 26.8326 29.7454H32.269C32.269 30.9414 31.3013 31.9199 30.0944 31.9199Z" stroke="#0B2343" stroke-miterlimit="10" stroke-linecap="round" stroke-linejoin="round"/>
</svg>
