<svg width="40" height="40" viewBox="0 0 40 40" fill="none" xmlns="http://www.w3.org/2000/svg">
<path d="M17.24 9.60999L16.36 6.57996L18.37 6L19.25 9.03003" stroke="#0B2343" stroke-linecap="round" stroke-linejoin="round"/>
<path d="M16.8899 13.2499L16.5099 11.93C15.6899 9.1 20.28 7.77993 21.1 10.6099L23.0199 17.27C23.8399 20.1 19.2499 21.4199 18.4299 18.5899L17.8899 16.7099" stroke="#0B2343" stroke-linecap="round" stroke-linejoin="round"/>
<path d="M23.0199 17.26L18.4299 18.59" stroke="#0B2343" stroke-linecap="round" stroke-linejoin="round"/>
<path d="M15.3999 15.03C12.9699 17.1 11.5499 19.87 11.5499 23.04C11.5499 26.37 13.4899 29.86 15.8999 31.87" stroke="#0B2343" stroke-linecap="round" stroke-linejoin="round"/>
<path d="M20.96 31.88C17.19 30.89 13.99 27.02 13.99 23.05C13.99 20.64 14.8599 18.37 16.6599 16.75" stroke="#0B2343" stroke-linecap="round" stroke-linejoin="round"/>
<path d="M19.0299 15.03C19.0299 16.03 18.22 16.84 17.22 16.84C16.22 16.84 15.4099 16.03 15.4099 15.03C15.4099 14.03 16.22 13.22 17.22 13.22C18.22 13.22 19.0299 14.03 19.0299 15.03Z" stroke="#0B2343" stroke-linecap="round" stroke-linejoin="round"/>
<path d="M21.37 20.1801L22.2999 23.36" stroke="#0B2343" stroke-linecap="round" stroke-linejoin="round"/>
<path d="M22.48 19.41L24.9099 21.7001" stroke="#0B2343" stroke-linecap="round" stroke-linejoin="round"/>
<path d="M20.0099 20.11L19.22 23.36" stroke="#0B2343" stroke-linecap="round" stroke-linejoin="round"/>
<path d="M28.5 34.9301H11.5C10.67 34.9301 10 34.2601 10 33.4301C10 32.6001 10.67 31.9301 11.5 31.9301H28.5C29.33 31.9301 30 32.6001 30 33.4301C30 34.2501 29.33 34.9301 28.5 34.9301Z" stroke="#0B2343" stroke-linecap="round" stroke-linejoin="round"/>
<path d="M14.98 26.9301H25.9099" stroke="#0B2343" stroke-linecap="round" stroke-linejoin="round"/>
</svg>
