<svg width="40" height="40" viewBox="0 0 40 40" fill="none" xmlns="http://www.w3.org/2000/svg">
<path d="M24.2753 23.6055L25.3823 31.7565C25.4359 32.1671 25.1234 32.5421 24.7038 32.5421H16.2761C15.8654 32.5421 15.5441 32.1671 15.5976 31.7565L16.7047 23.5876" stroke="#0B2343" stroke-linecap="round" stroke-linejoin="round"/>
<path d="M17.3653 18.6417L17.5439 17.5525C17.7492 16.0794 19.008 14.9902 20.49 14.9902C21.972 14.9902 23.2308 16.0883 23.4361 17.5525L23.6057 18.6417" stroke="#0B2343" stroke-linecap="round" stroke-linejoin="round"/>
<path d="M20.49 27.2925C19.7312 27.2925 19.133 27.9085 19.133 28.6584V32.5419H21.847V28.6584C21.847 27.8996 21.2489 27.2925 20.49 27.2925Z" stroke="#0B2343" stroke-linecap="round" stroke-linejoin="round"/>
<path d="M12.8569 27.9709L10 25.123L17.6242 18.4451L19.5347 20.3467L12.8569 27.9709Z" stroke="#0B2343" stroke-linecap="round" stroke-linejoin="round"/>
<path d="M28.1231 7L30.98 9.84798L23.3558 16.5258L21.4453 14.6153L28.1231 7Z" stroke="#0B2343" stroke-linecap="round" stroke-linejoin="round"/>
<path d="M30.98 25.123L28.1231 27.9709L21.4453 20.3467L23.3558 18.4451L30.98 25.123Z" stroke="#0B2343" stroke-linecap="round" stroke-linejoin="round"/>
<path d="M10 9.84798L12.8569 7L19.5347 14.6153L17.6242 16.5258L10 9.84798Z" stroke="#0B2343" stroke-linecap="round" stroke-linejoin="round"/>
<path d="M18.5795 15.5708L22.4005 19.3919" stroke="#0B2343" stroke-linecap="round" stroke-linejoin="round"/>
<path d="M18.5795 19.3919L22.4005 15.5708" stroke="#0B2343" stroke-linecap="round" stroke-linejoin="round"/>
</svg>
