<svg id="Layer_1" data-name="Layer 1" xmlns="http://www.w3.org/2000/svg" viewBox="0 0 124 124"><defs><style>.cls-1{fill:#e7f4f9;}.cls-2{fill:none;stroke:#007cc2;stroke-opacity:0.2;}.cls-3{fill:#fbaf28;}.cls-4{fill:#0b2343;}.cls-4,.cls-8{fill-rule:evenodd;}.cls-5,.cls-7,.cls-8{fill:#007cc2;}.cls-6,.cls-7{opacity:0.4;}.cls-7{isolation:isolate;}</style></defs><circle class="cls-1" cx="62" cy="62" r="62"/><circle class="cls-2" cx="62" cy="62" r="61.5"/><path class="cls-3" d="M120.773,112.772,105.338,85.6375a4.24061,4.24061,0,0,0-7.3647,0l-15.42,27.1345a4.23323,4.23323,0,0,0,3.675,6.315H117.083A4.232,4.232,0,0,0,120.773,112.772Z"/><path class="cls-4" d="M101.663,92.0325a.99953.99953,0,0,1,1,1V105.992a1,1,0,0,1-2,0V93.0325A1.00017,1.00017,0,0,1,101.663,92.0325Z"/><path class="cls-4" d="M101.663,110.347a.99972.99972,0,0,1,1,1v.33a1,1,0,0,1-2,0v-.33A1.00036,1.00036,0,0,1,101.663,110.347Z"/><path class="cls-5" d="M92.4334,32.0667c-6.0667-5.6-18.2-4.6667-27.3-2.1l-.7-2.3334a1.1068,1.1068,0,0,0-2.1.7l.7,2.3334C53.7,33.7,43.6667,39.7667,41.5667,47.7c0,.4667-.7,4.2,1.6333,5.6a4.32686,4.32686,0,0,0,1.6334.4667c1.8666,0,4.2-1.1667,7.2333-3.7334.2333,0,.2333,0,.2333-.2333a1.21205,1.21205,0,0,0,.4667-.9333A7.59619,7.59619,0,0,1,53.7,45.6a20.55259,20.55259,0,0,0-.4666,3.9667c0,.4666.4666,1.1666.9333,1.1666,3.5.7,9.5667,1.6334,12.8333-5.8333V40.7l1.6334,2.8c0,.2333.2333.2333.4666.4667,7.2334,4.4333,12.1334-.2334,14.2334-2.3334a1.0993,1.0993,0,0,0,.2333-1.4A29.54805,29.54805,0,0,0,81,37.2a11.22542,11.22542,0,0,1,2.5667,2.1,1.21236,1.21236,0,0,0,.9333.4667h.2334c5.3666.4666,8.4-.2334,9.3333-2.3334C95.2334,35.1,92.6667,32.3,92.4334,32.0667ZM91.9667,36.5c-.2333.2333-.9333,1.4-7,1.1667-1.4-1.6334-3.9667-3.5-8.4-3.9667a1.2832,1.2832,0,0,0-1.1667.7c-.2333.4667,0,.9333.4667,1.4A62.92383,62.92383,0,0,1,81,40.7c-2.5666,2.3333-5.8333,4.2-10.2666,1.4l-3.9667-6.5333a1.12216,1.12216,0,0,0-1.4-.4667,1.28309,1.28309,0,0,0-.7,1.1667L64.9,44.2c-2.3333,4.9-6.0666,4.9-9.3333,4.4333a36.53563,36.53563,0,0,1,1.4-7c.2333-.4666,0-.9333-.4667-1.4a1.48769,1.48769,0,0,0-1.4,0c-2.8,2.3334-4.4333,4.9-4.6666,7.9334C45.7667,51.9,44.3667,51.2,44.1334,51.2c-.7-.4667-.7-2.3333-.4667-3.0333,1.4-6.0667,9.5667-12.1334,20.7667-15.6334H64.9A51.5533,51.5533,0,0,1,78.6667,30.2c5.3667,0,9.5667,1.1667,12.1333,3.5C91.2667,34.4,92.4334,35.8,91.9667,36.5Z"/><path class="cls-5" d="M70.9668,49.1a1.1068,1.1068,0,1,0-2.1.7l10.5,34.0667a1.55033,1.55033,0,0,0,1.1667.9333h.2333a1.03993,1.03993,0,0,0,.7-1.4Z"/><g class="cls-6"><path class="cls-7" d="M93.3666,77.1c-.4667,0-.7-.2333-.9334-.7-13.0666-23.5667-50.4-12.6-50.8666-12.6a1.1068,1.1068,0,0,1-.7-2.1c.4666-.2333,39.4333-11.4333,53.4333,13.5333a1.54676,1.54676,0,0,1-.4667,1.6334C93.8332,77.1,93.5999,77.1,93.3666,77.1Z"/></g><path class="cls-8" d="M34.3333,72.9002a1.16659,1.16659,0,0,1,1.1666-1.1666,4.857,4.857,0,0,1,3.8619,2.1713l.0923.1097c.7865.9321,1.2926,1.4523,2.3458,1.4523.9082,0,1.3418-.4698,2.1708-1.4523l.0095-.0112a5.123,5.123,0,0,1,4.1197-2.2698,4.857,4.857,0,0,1,3.8619,2.1713l.0923.1097c.7865.9321,1.2926,1.4523,2.3458,1.4523.9082,0,1.3418-.4698,2.1708-1.4523l.0095-.0112a5.123,5.123,0,0,1,4.1197-2.2698,4.857,4.857,0,0,1,3.8619,2.1713l.0923.1097c.7864.9321,1.2926,1.4523,2.3458,1.4523.9082,0,1.3418-.4698,2.1708-1.4523l.0095-.0112a5.123,5.123,0,0,1,4.1197-2.2698,1.16665,1.16665,0,1,1,0,2.3333c-1.0532,0-1.5594.5202-2.3458,1.4524l-.0923.1096a4.857,4.857,0,0,1-3.8619,2.1713,5.123,5.123,0,0,1-4.1197-2.2698l-.0095-.0111c-.829-.9826-1.2626-1.4524-2.1708-1.4524-1.0532,0-1.5594.5202-2.3458,1.4524l-.0923.1096a4.857,4.857,0,0,1-3.8619,2.1713,5.123,5.123,0,0,1-4.1197-2.2698l-.0095-.0111c-.829-.9826-1.2626-1.4524-2.1708-1.4524-1.0532,0-1.5593.5202-2.3458,1.4524l-.0923.1096a4.857,4.857,0,0,1-3.8619,2.1713,5.123,5.123,0,0,1-4.1197-2.2698l-.0095-.0111c-.829-.9826-1.2626-1.4524-2.1708-1.4524A1.16662,1.16662,0,0,1,34.3333,72.9002Z"/><path class="cls-8" d="M20.3333,80.8333a1.16659,1.16659,0,0,1,1.1666-1.1666,5.94136,5.94136,0,0,1,4.5238,2.1738l.0345.0345c.9211.9211,1.5547,1.525,2.9084,1.525s1.9873-.6039,2.9084-1.525l.0345-.0345a5.79394,5.79394,0,0,1,9.0475,0l.0345.0345c.9211.9211,1.5547,1.525,2.9084,1.525s1.9873-.6039,2.9084-1.525l.0346-.0345a5.79383,5.79383,0,0,1,9.0474,0l.0346.0345c.9211.9211,1.5547,1.525,2.9084,1.525a1.16665,1.16665,0,0,1,0,2.3333,5.94136,5.94136,0,0,1-4.5238-2.1738l-.0345-.0346C53.3539,82.6039,52.7203,82,51.3666,82s-1.9873.6039-2.9084,1.5249l-.0346.0346a5.79383,5.79383,0,0,1-9.0474,0l-.0346-.0346C38.4206,82.6039,37.787,82,36.4333,82s-1.9873.6039-2.9084,1.5249l-.0346.0346a5.79383,5.79383,0,0,1-9.0474,0l-.0346-.0346C23.4872,82.6039,22.8536,82,21.4999,82A1.16662,1.16662,0,0,1,20.3333,80.8333Z"/></svg>