<svg width="42" height="42" viewBox="0 0 42 42" fill="none" xmlns="http://www.w3.org/2000/svg">
<path fill-rule="evenodd" clip-rule="evenodd" d="M0.5 21C0.5 9.6961 9.69611 0.5 21 0.5C32.3039 0.5 41.4999 9.6961 41.4999 21C41.4999 32.3039 32.3039 41.5 21 41.5C9.69611 41.5 0.5 32.3039 0.5 21ZM21 1.5C10.2484 1.5 1.5 10.2484 1.5 21C1.5 31.7516 10.2484 40.5 21 40.5C31.7516 40.5 40.4999 31.7516 40.4999 21C40.4999 10.2484 31.7516 1.5 21 1.5Z" fill="#007CC2"/>
<path d="M33.9931 18.8323C33.566 18.0906 32.9333 17.4558 32.1893 17.0155C32.1945 16.9079 32.1973 16.801 32.1973 16.6955C32.1973 14.3615 29.9894 13.8783 28.8943 13.7111C28.854 13.3859 28.7741 13.0995 28.6534 12.8577C28.1046 11.7602 27.003 11.0341 25.7786 10.9629L23.4476 10.8269C22.8691 10.2786 22.0501 10 21.0073 10C19.9619 10 19.1422 10.2801 18.5653 10.8312L16.2961 10.9635C15.0715 11.0347 13.9697 11.7605 13.4211 12.8577C13.3005 13.0991 13.2205 13.3856 13.1802 13.7112C12.0854 13.8783 9.87724 14.3612 9.87724 16.6955C9.87724 16.8007 9.88005 16.9074 9.88529 17.0149C9.13438 17.4562 8.49019 18.0884 8.04834 18.8238C7.4791 19.7713 7.3051 20.7797 7.54515 21.7399C7.94516 23.34 10.1807 25.6423 13.6933 28.08V29.289C13.6933 30.9271 15.0364 32.26 16.6872 32.26C17.9186 32.26 18.5606 31.5563 19.016 31.3068C19.3013 31.4588 19.5844 31.6069 19.8608 31.7485C20.5797 32.1171 21.4591 32.1348 22.2129 31.75C22.4718 31.6178 22.7299 31.4828 22.9835 31.3471C23.3935 31.57 24.0354 32.26 25.2521 32.26C26.8861 32.26 28.2154 30.9271 28.2154 29.2888V28.0838C31.9697 25.3653 33.8712 23.0538 33.8903 23.0304C33.8909 23.0296 33.8914 23.0288 33.8921 23.028C33.8981 23.0206 33.9037 23.0127 33.9093 23.0049C33.9123 23.0007 33.9156 22.9966 33.9185 22.9922C33.9247 22.9831 33.9305 22.9735 33.9361 22.9639C33.938 22.9607 33.9401 22.9575 33.9419 22.9542C33.9426 22.9531 33.9433 22.952 33.944 22.9509C34.1748 22.5759 34.3463 22.1687 34.4535 21.7399C34.6906 20.792 34.527 19.7594 33.9931 18.8323ZM16.6873 31.2C15.6208 31.2 14.7533 30.3426 14.7533 29.2888V28.794C15.7634 29.4545 16.8386 30.1036 17.9653 30.7332C17.8404 30.798 17.4215 31.2 16.6873 31.2ZM27.1554 29.2888C27.1554 30.3426 26.3016 31.2 25.2521 31.2C24.5369 31.2 24.1185 30.8156 24.0289 30.77C25.1027 30.1605 26.1487 29.5097 27.1554 28.8256V29.2888ZM33.4255 21.4826C33.3451 21.8042 33.2164 22.1094 33.0438 22.3907C31.0946 24.7026 26.9519 28.1408 21.7313 30.806C21.2964 31.0279 20.7781 31.0277 20.3446 30.8054C18.4078 29.8123 16.3997 28.6481 14.5502 27.3833C10.547 24.6463 8.83813 22.5406 8.57351 21.4826C8.25443 20.2063 9.02299 18.9416 10.0437 18.1814C10.7504 21.36 13.458 23.8322 15.383 25.7937C15.5872 26.0017 15.9228 26.0066 16.1326 25.8007C16.3414 25.5956 16.3446 25.2601 16.1396 25.0511C14.4382 23.318 11.2985 20.5222 10.9664 17.2639C10.9471 17.0721 10.9373 16.8808 10.9373 16.6953C10.9373 15.4807 11.8186 15.0261 13.1784 14.7871C13.4705 17.8208 15.7704 22.2959 16.8011 24.479C16.9267 24.7445 17.2429 24.8565 17.5067 24.7318C17.7714 24.6068 17.8846 24.2909 17.7596 24.0263C17.0265 22.4761 14.1761 17.0101 14.2095 14.18C14.2135 13.821 14.2673 13.5354 14.3693 13.3315C14.7487 12.5726 15.5107 12.0706 16.3578 12.0214L17.8507 11.9344C16.9942 14.1833 18.157 17.9372 18.6935 21.2248C18.7407 21.5136 19.0127 21.7095 19.3019 21.6625C19.5908 21.6153 19.7868 21.343 19.7396 21.0541C19.1752 17.5945 17.8339 13.2516 19.1997 11.698C19.5761 11.2686 20.1674 11.0598 21.0075 11.0598C21.846 11.0598 22.4376 11.2676 22.8158 11.695C24.184 13.242 22.8409 17.5847 22.2752 21.0542C22.2281 21.343 22.4242 21.6154 22.7131 21.6625C22.7419 21.6673 22.7707 21.6695 22.799 21.6695C23.0541 21.6695 23.2791 21.4848 23.3214 21.2248C23.8582 17.9319 25.0235 14.178 24.1656 11.9304L25.717 12.0209C26.5639 12.0702 27.3258 12.5723 27.7053 13.3312C27.8073 13.5358 27.8612 13.8214 27.8652 14.1805C27.8985 16.9315 25.2044 22.1473 24.3021 24.053C24.1769 24.3176 24.2898 24.6336 24.5544 24.7588C24.819 24.8841 25.135 24.771 25.2602 24.5065C25.9483 23.0516 28.5872 18.0119 28.8966 14.7873C30.2563 15.0264 31.1375 15.481 31.1375 16.6954C31.1375 16.8809 31.1277 17.0721 31.1085 17.2636C30.7841 20.4535 27.8351 23.1243 25.9063 25.0806C25.7008 25.289 25.7032 25.6246 25.9116 25.8302C26.1201 26.0357 26.4556 26.0333 26.6612 25.8249C28.3625 24.0992 31.2978 21.4784 32.0303 18.1866C33.0153 18.9382 33.7473 20.1953 33.4255 21.4826Z" fill="#007CC2"/>
</svg>
