<svg width="40" height="40" viewBox="0 0 40 40" fill="none" xmlns="http://www.w3.org/2000/svg">
<path d="M19.9112 33.5427C19.9112 33.5427 30.6444 33.8928 30.8194 28.2452C30.9945 22.5976 23.3845 11.5236 23.3845 11.5236C23.3016 10.4272 26.0655 7 26.0655 7H13.7569C13.7569 7 16.5208 10.4272 16.4379 11.5236C16.4379 11.5236 8.82793 22.5792 9.00297 28.2268C9.17802 33.8744 19.9112 33.5427 19.9112 33.5427Z" stroke="#0B2343" stroke-miterlimit="10" stroke-linecap="round" stroke-linejoin="round"/>
<path d="M10.3204 13.9835C10.3204 13.9835 11.5089 15.1351 13.0659 13.5228C14.6229 11.9105 14.2728 11.5236 16.4379 11.5604H23.3845C23.3845 11.5604 25.8812 11.1643 26.7473 12.666C27.6133 14.1677 27.2908 15.3194 28.5069 15.9827" stroke="#0B2343" stroke-miterlimit="10" stroke-linecap="round" stroke-linejoin="round"/>
<path d="M18.0502 9.68091H21.7169" stroke="#0B2343" stroke-miterlimit="10" stroke-linecap="round" stroke-linejoin="round"/>
<path d="M18.0502 13.4031H21.7169" stroke="#0B2343" stroke-miterlimit="10" stroke-linecap="round" stroke-linejoin="round"/>
<path d="M17.7922 26.3289C18.5108 26.9554 19.6164 27.4161 20.4087 27.4161C21.6801 27.4161 22.7212 26.5132 22.7212 25.3984C22.7212 24.2836 21.6156 23.7309 20.4087 23.3808C19.1557 22.9846 18.0962 22.4779 18.0962 21.3631C18.0962 20.2483 19.1281 19.3455 20.4087 19.3455C21.2655 19.3455 22.021 19.7508 22.4171 20.3681" stroke="#0B2343" stroke-miterlimit="10" stroke-linecap="round" stroke-linejoin="round"/>
<path d="M20.4087 17.8438V28.927" stroke="#0B2343" stroke-miterlimit="10" stroke-linecap="round" stroke-linejoin="round"/>
</svg>
