<svg width="40" height="40" viewBox="0 0 40 40" fill="none" xmlns="http://www.w3.org/2000/svg">
<path d="M27.5561 6.00012L6 12.3777L9.84697 25.3804L31.403 19.0028L27.5561 6.00012Z" stroke="#0B2343" stroke-miterlimit="10" stroke-linecap="round" stroke-linejoin="round"/>
<path d="M8.82367 21.8433C10.7537 21.2733 12.7837 22.3733 13.3537 24.3033" stroke="#0B2343" stroke-miterlimit="10" stroke-linecap="round" stroke-linejoin="round"/>
<path d="M27.7137 19.9832C27.1837 18.0532 28.3237 15.8432 30.3337 15.3032" stroke="#0B2343" stroke-miterlimit="10" stroke-linecap="round" stroke-linejoin="round"/>
<path d="M28.3537 9.4534C26.5537 10.0234 24.6737 8.92341 24.1337 6.99341" stroke="#0B2343" stroke-miterlimit="10" stroke-linecap="round" stroke-linejoin="round"/>
<path d="M9.51367 11.3132C10.0837 13.2432 8.98371 15.2732 7.05371 15.8432" stroke="#0B2343" stroke-miterlimit="10" stroke-linecap="round" stroke-linejoin="round"/>
<path d="M33.3937 19.9834H34.3637V33.7134H11.5337V27.0934" stroke="#0B2343" stroke-miterlimit="10" stroke-linecap="round" stroke-linejoin="round"/>
<path d="M11.5337 30.0632C13.5537 30.0632 15.1837 31.6933 15.1837 33.7133" stroke="#0B2343" stroke-miterlimit="10" stroke-linecap="round" stroke-linejoin="round"/>
<path d="M30.7837 33.7133C30.7837 31.6933 32.5037 29.9033 34.3637 29.9033" stroke="#0B2343" stroke-miterlimit="10" stroke-linecap="round" stroke-linejoin="round"/>
<path d="M34.3637 23.8134C33.0137 23.8134 31.6237 22.9534 31.0937 21.7034" stroke="#0B2343" stroke-miterlimit="10" stroke-linecap="round" stroke-linejoin="round"/>
<path d="M17.6236 18.3234C18.2636 18.6034 19.1437 18.6934 19.7037 18.5234C20.6037 18.2434 21.1337 17.3834 20.8937 16.6034C20.6537 15.8134 19.7537 15.6734 18.8337 15.6834C17.8737 15.6834 17.0137 15.5534 16.7737 14.7634C16.5337 13.9734 17.0637 13.1133 17.9637 12.8433C18.5637 12.6533 19.1837 12.7833 19.5937 13.1233" stroke="#0B2343" stroke-miterlimit="10" stroke-linecap="round" stroke-linejoin="round"/>
<path d="M17.7037 12.0632L17.9437 12.8333" stroke="#0B2343" stroke-miterlimit="10" stroke-linecap="round" stroke-linejoin="round"/>
<path d="M19.7037 18.5232L19.9437 19.3032" stroke="#0B2343" stroke-miterlimit="10" stroke-linecap="round" stroke-linejoin="round"/>
<path d="M20.4137 26.8933H23.5237" stroke="#0B2343" stroke-linecap="round" stroke-linejoin="round"/>
<path d="M20.4137 28.7832H23.5237" stroke="#0B2343" stroke-linecap="round" stroke-linejoin="round"/>
<path d="M25.6337 26.0433C25.1837 25.3333 24.4837 24.8733 23.6937 24.8733C22.3337 24.8733 21.2337 26.2333 21.2337 27.9133C21.2337 29.5933 22.3337 30.9533 23.6937 30.9533C24.5137 30.9533 25.2437 30.4533 25.6937 29.6833" stroke="#0B2343" stroke-linecap="round" stroke-linejoin="round"/>
</svg>
