<svg width="40" height="40" viewBox="0 0 40 40" fill="none" xmlns="http://www.w3.org/2000/svg">
<path d="M19.9112 33.5427C19.9112 33.5427 30.6443 33.8928 30.8194 28.2452C30.9944 22.5976 23.3845 11.5236 23.3845 11.5236C23.3016 10.4272 26.0655 7 26.0655 7H13.7569C13.7569 7 16.5208 10.4272 16.4378 11.5236C16.4378 11.5236 8.82793 22.5792 9.00297 28.2268C9.17802 33.8744 19.9112 33.5427 19.9112 33.5427Z" stroke="#0B2343" stroke-miterlimit="10" stroke-linecap="round" stroke-linejoin="round"/>
<path d="M10.3203 13.9835C10.3203 13.9835 11.5089 15.1351 13.0659 13.5228C14.6229 11.9105 14.2727 11.5236 16.4378 11.5604H23.3844C23.3844 11.5604 25.8812 11.1643 26.7472 12.666C27.6132 14.1677 27.2908 15.3194 28.5069 15.9827" stroke="#0B2343" stroke-miterlimit="10" stroke-linecap="round" stroke-linejoin="round"/>
<path d="M18.0685 9.68091H21.6892" stroke="#0B2343" stroke-miterlimit="10" stroke-linecap="round" stroke-linejoin="round"/>
<path d="M18.0685 13.4031H21.6892" stroke="#0B2343" stroke-miterlimit="10" stroke-linecap="round" stroke-linejoin="round"/>
<path d="M15.6178 22.5515H20.3258" stroke="#0B2343" stroke-linecap="round" stroke-linejoin="round"/>
<path d="M15.6178 24.394H20.3258" stroke="#0B2343" stroke-linecap="round" stroke-linejoin="round"/>
<path d="M23.0989 20.6812C22.4539 19.5941 21.4497 18.9031 20.3165 18.9031C18.3726 18.9031 16.7878 20.976 16.7878 23.5372C16.7878 26.0984 18.3633 28.1714 20.3165 28.1714C21.4958 28.1714 22.546 27.4067 23.1817 26.2367" stroke="#0B2343" stroke-linecap="round" stroke-linejoin="round"/>
</svg>
