<svg width="40" height="40" viewBox="0 0 40 40" fill="none" xmlns="http://www.w3.org/2000/svg">
<path d="M38 20.0001C38 29.9389 29.9388 38 20 38C10.0612 38 2 29.9389 2 20.0001C2 10.0612 10.0612 2 20 2C29.9388 2 38 10.0612 38 20.0001Z" stroke="#0B2343" stroke-miterlimit="10" stroke-linecap="round" stroke-linejoin="round"/>
<path d="M15.0956 25.9421C16.5267 27.1816 18.7354 28.1169 20.3242 28.1169C22.8709 28.1169 24.9331 26.3139 24.9331 24.0827C24.9331 21.8516 22.7245 20.7585 20.3242 20.0486C17.8339 19.271 15.7153 18.2456 15.7153 16.0144C15.7153 13.7832 17.7775 11.9802 20.3242 11.9802C22.0371 11.9802 23.5358 12.8029 24.3359 14.0086" stroke="#0B2343" stroke-miterlimit="10" stroke-linecap="round" stroke-linejoin="round"/>
<path d="M20.3242 9.78296V30.3257" stroke="#0B2343" stroke-miterlimit="10" stroke-linecap="round" stroke-linejoin="round"/>
</svg>
