<svg width="40" height="40" viewBox="0 0 40 40" fill="none" xmlns="http://www.w3.org/2000/svg">
<path d="M17.25 12.3367C16.36 9.36669 14.4701 2.38669 17.5401 6.02669C21.3901 10.5967 21.5101 7.82671 22.6201 6.10671C23.6701 4.48671 25.1201 6.2667 22.3101 12.4067" stroke="#0B2343" stroke-miterlimit="10" stroke-linecap="round" stroke-linejoin="round"/>
<path d="M28.1801 26.2368C28.1801 31.4168 24.33 33.2568 19.59 33.2568C14.85 33.2568 11 31.4268 11 26.2368C11 21.0568 14.85 14.0068 19.59 14.0068C24.33 14.0068 28.1801 21.0568 28.1801 26.2368Z" stroke="#0B2343" stroke-miterlimit="10" stroke-linecap="round" stroke-linejoin="round"/>
<path d="M16.9301 26.7266C17.6701 27.3666 18.8001 27.8466 19.6201 27.8466C20.9301 27.8466 21.9901 26.9166 21.9901 25.7666C21.9901 24.6166 20.8601 24.0566 19.6201 23.6866C18.3401 23.2866 17.25 22.7566 17.25 21.6066C17.25 20.4566 18.3101 19.5266 19.6201 19.5266C20.5001 19.5266 21.2701 19.9466 21.6801 20.5766" stroke="#0B2343" stroke-miterlimit="10" stroke-linecap="round" stroke-linejoin="round"/>
<path d="M19.6201 18.4167V19.5468" stroke="#0B2343" stroke-miterlimit="10" stroke-linecap="round" stroke-linejoin="round"/>
<path d="M19.6201 27.8467V28.9867" stroke="#0B2343" stroke-miterlimit="10" stroke-linecap="round" stroke-linejoin="round"/>
</svg>
