<svg width="40" height="40" viewBox="0 0 40 40" fill="none" xmlns="http://www.w3.org/2000/svg">
<path fill-rule="evenodd" clip-rule="evenodd" d="M25.4819 9.6626C30.234 19.3538 20.9637 30.364 10.1125 26.2574C12.2734 29.9992 15.1452 32.5249 19.626 32.8336C26.277 33.292 32.5538 28.5305 32.9187 21.5802C33.2274 15.6588 29.5698 11.6177 25.4819 9.6626Z" stroke="#0B2343" stroke-linecap="round" stroke-linejoin="round"/>
<path d="M20.4492 16.0425L17.0535 15.977L15.9403 13.0117C15.8468 12.7591 15.4539 12.7591 15.3603 13.0117L14.2472 15.977L10.8515 16.0425C10.5615 16.0519 10.4399 16.398 10.6737 16.557L13.3772 18.456L12.3949 21.4588C12.3107 21.7207 12.6288 21.9265 12.8626 21.7768L15.6504 19.9808L18.438 21.7768C18.6718 21.9265 18.9899 21.7207 18.9057 21.4588L17.9234 18.456L20.6269 16.557C20.8514 16.398 20.7392 16.0519 20.4492 16.0425Z" stroke="#0B2343" stroke-miterlimit="10" stroke-linecap="round" stroke-linejoin="round"/>
<path d="M11.1134 8.62422C10.3463 6.43527 10.5241 6.48204 9.77575 8.62422C7.41842 8.67099 7.53997 8.52129 9.36409 9.88705C8.68121 12.1228 8.57835 11.9544 10.4492 10.6635C12.3295 11.9544 12.2079 12.1041 11.5344 9.88705C13.4053 8.47452 13.3865 8.67099 11.1134 8.62422Z" stroke="#0B2343" stroke-miterlimit="10" stroke-linecap="round" stroke-linejoin="round"/>
</svg>
