<svg width="14" height="14" viewBox="0 0 14 14" fill="none" xmlns="http://www.w3.org/2000/svg">
<path fill-rule="evenodd" clip-rule="evenodd" d="M9.74099 1.83142C12.117 6.67703 7.48186 12.1821 2.05627 10.1288C3.13671 11.9997 4.57265 13.2626 6.81304 13.4169C10.1386 13.6461 13.277 11.2654 13.4594 7.79021C13.6137 4.82952 11.7849 2.80896 9.74099 1.83142Z" fill="#0B2343"/>
<path d="M6.94928 3.61013L5.25145 3.57739L4.69483 2.09471C4.64805 1.96843 4.45161 1.96843 4.40484 2.09471L3.84828 3.57739L2.15044 3.61013C2.00545 3.61481 1.94461 3.78786 2.06154 3.86738L3.41327 4.81687L2.92214 6.31827C2.88004 6.44923 3.03907 6.55211 3.156 6.47728L4.54986 5.57926L5.94367 6.47728C6.0606 6.55211 6.21962 6.44923 6.17753 6.31827L5.6864 4.81687L7.03812 3.86738C7.15038 3.78786 7.09428 3.61481 6.94928 3.61013Z" fill="#0B2343"/>
</svg>
