<svg width="40" height="40" viewBox="0 0 40 40" fill="none" xmlns="http://www.w3.org/2000/svg">
<path d="M14.8016 8.65747C14.7437 10.0672 13.5464 11.1486 12.1463 11.0906C10.7367 11.0327 9.65523 9.83543 9.71316 8.43539C9.77109 7.0257 10.9684 5.94429 12.3684 6.00222C13.7684 6.06016 14.8595 7.24777 14.8016 8.65747Z" stroke="#0B2343" stroke-width="0.965544" stroke-miterlimit="10" stroke-linecap="round" stroke-linejoin="round"/>
<path d="M22.8349 21.8468L19.4748 19.7419C19.4748 19.7419 17.8141 18.1874 17.2348 16.5267C16.6554 14.8659 16.0278 13.659 14.4347 13.7266C13.025 13.7845 11.8663 14.9142 11.8663 16.4301C11.8663 17.946 16.0568 25.2069 16.6844 25.6993C17.3023 26.1918 18.7603 26.2111 18.7603 26.2111H25.944H25.9246L32.1524 34.0223" stroke="#0B2343" stroke-width="0.965544" stroke-miterlimit="10" stroke-linecap="round" stroke-linejoin="round"/>
<path d="M7 18.2744H9.31733L15.0623 29.3009H23.9163" stroke="#0B2343" stroke-width="0.965544" stroke-miterlimit="10" stroke-linecap="round" stroke-linejoin="round"/>
</svg>
