<svg width="40" height="40" viewBox="0 0 40 40" fill="none" xmlns="http://www.w3.org/2000/svg">
<path d="M9.16498 14.3764C8.60901 14.7248 7.86742 14.555 7.51906 13.9973L4.18853 8.67775C3.84017 8.1209 4.00995 7.3802 4.56592 7.03184C5.12453 6.68348 5.86347 6.85414 6.21183 7.41099L9.54325 12.7305C9.89249 13.2874 9.72094 14.0281 9.16498 14.3764Z" stroke="#0B2343" stroke-width="0.941003" stroke-miterlimit="10" stroke-linecap="round" stroke-linejoin="round"/>
<path d="M36.0611 30.8206C36.2608 31.2464 36.0972 31.7628 35.6961 31.9669L31.8694 33.9163C31.4691 34.1204 30.9782 33.9383 30.7777 33.5125C30.578 33.085 30.7425 32.5703 31.1427 32.3662L34.9694 30.416C35.3697 30.2119 35.8614 30.3948 36.0611 30.8206Z" stroke="#0B2343" stroke-width="0.941003" stroke-miterlimit="10" stroke-linecap="round" stroke-linejoin="round"/>
<path d="M11.7322 22.2365C12.2407 23.1497 13.204 24.8431 13.204 24.8431C13.204 24.8431 14.5886 27.3485 16.4245 28.3399C18.2605 29.3313 19.3407 29.3269 20.9427 29.3955H25.9534C26.6105 29.3955 27.1472 28.8589 27.1472 28.2026C27.1472 27.5446 26.6105 27.008 25.9534 27.008L20.0647 27.1699C19.6645 27.1576 18.732 27.0652 18.11 26.6684C17.2471 26.1169 16.4122 25.282 15.7261 24.288C15.185 23.5042 13.6922 20.9231 13.6922 20.9231L11.5325 16.72C11.3029 16.2379 10.8446 15.9405 10.191 16.0127C9.53827 16.0848 9.2682 16.8739 9.34034 17.5266L11.7322 22.2365Z" stroke="#0B2343" stroke-width="0.941003" stroke-miterlimit="10" stroke-linecap="round" stroke-linejoin="round"/>
<path d="M14.5597 9.11142C15.2432 10.3236 14.8139 11.8605 13.6017 12.5449C12.3886 13.2293 10.8509 12.8 10.1682 11.5869C9.48472 10.3747 9.91225 8.83783 11.1262 8.15343C12.3385 7.4699 13.8753 7.89744 14.5597 9.11142Z" stroke="#0B2343" stroke-width="0.941003" stroke-miterlimit="10" stroke-linecap="round" stroke-linejoin="round"/>
<path d="M31.9378 30.3325L29.3814 26.7583C29.2565 26.5947 28.9486 26.168 28.5765 25.9939C28.2598 25.8452 27.8516 25.715 27.7056 25.7203C27.7056 25.7203 20.3161 25.8021 20.295 25.803C20.1983 25.8038 19.0802 25.7229 18.2383 25.1089C17.3208 24.4403 16.6082 23.273 16.3989 22.8956C15.7496 21.7203 13.7158 18.242 13.7158 18.242C13.0455 17.0526 13.1141 15.7762 14.2665 15.0443C15.4954 14.2649 16.8413 14.7892 17.5486 16.041L19.2579 18.7979L22.8382 20.8758" stroke="#0B2343" stroke-width="0.941003" stroke-miterlimit="10" stroke-linecap="round" stroke-linejoin="round"/>
</svg>
