<svg width="25" height="25" viewBox="0 0 25 25" fill="none" xmlns="http://www.w3.org/2000/svg">
<path d="M2 15.2579C2 17.3238 3.03214 18.3567 5.11626 18.3567H5.45369V9.75215C5.45369 6.91404 7.10113 5.26934 9.92958 5.26934H18.1867V5.10888C18.1867 3.04298 17.1446 2 15.0803 2H5.11626C3.03214 2 2 3.03295 2 5.10888V15.2579ZM9.92958 23H19.8937C21.9579 23 23 21.957 23 19.8911V9.75215C23 7.68625 21.9579 6.64327 19.8937 6.64327H9.92958C7.84546 6.64327 6.81333 7.67622 6.81333 9.75215V19.8911C6.81333 21.9671 7.84546 23 9.92958 23ZM14.9017 19.4599C14.3559 19.4599 14.0482 19.0688 14.0482 18.4871V15.6991H11.1304C10.5449 15.6991 10.138 15.3883 10.138 14.8367C10.138 14.2751 10.525 13.9542 11.1304 13.9542H14.0482V10.9756C14.0482 10.394 14.3559 10.0029 14.9017 10.0029C15.4475 10.0029 15.775 10.3739 15.775 10.9756V13.9542H18.7127C19.3081 13.9542 19.6853 14.2751 19.6853 14.8367C19.6853 15.3883 19.2883 15.6991 18.7127 15.6991H15.775V18.4871C15.775 19.0888 15.4475 19.4599 14.9017 19.4599Z" fill="#0B2343"/>
</svg>
