<svg width="24" height="24" viewBox="0 0 24 24" fill="none" xmlns="http://www.w3.org/2000/svg">
<path d="M5.9603 17.5201H6.4603V17.0201V9.6447C6.4603 8.52441 6.78368 7.70444 7.32307 7.16468C7.86243 6.62495 8.68085 6.30229 9.79679 6.30229H16.8743H17.3743V5.80229V5.66476C17.3743 4.70119 17.1308 3.88602 16.5602 3.31493C15.9895 2.74377 15.1748 2.5 14.2117 2.5H5.67108C4.70192 2.5 3.88416 2.74039 3.31237 3.31128C2.74043 3.88232 2.5 4.69871 2.5 5.66476V14.3639C2.5 15.3263 2.74075 16.1405 3.3128 16.7103C3.88448 17.2797 4.70192 17.5201 5.67108 17.5201H5.9603ZM13.827 14.7421V14.2421H13.327H10.8261C10.6586 14.2421 10.5707 14.1976 10.5338 14.1667C10.5078 14.1449 10.4754 14.1059 10.4754 14.0029C10.4754 13.8843 10.5117 13.8411 10.5349 13.8209C10.5671 13.7928 10.6504 13.7464 10.8261 13.7464H13.327H13.827V13.2464V10.6934C13.827 10.5274 13.8709 10.4455 13.8981 10.4137C13.9164 10.3921 13.9532 10.3596 14.0586 10.3596C14.1733 10.3596 14.2161 10.3945 14.2355 10.4163C14.2612 10.445 14.3072 10.5227 14.3072 10.6934V13.2464V13.7464H14.8072H17.3251C17.4945 13.7464 17.5718 13.7917 17.6006 13.8173C17.6217 13.8361 17.6588 13.88 17.6588 14.0029C17.6588 14.1102 17.6253 14.1499 17.6017 14.1701C17.5683 14.1987 17.4863 14.2421 17.3251 14.2421H14.8072H14.3072V14.7421V17.1318C14.3072 17.3025 14.2612 17.3802 14.2355 17.409C14.2161 17.4307 14.1733 17.4656 14.0586 17.4656C13.9532 17.4656 13.9164 17.4331 13.8981 17.4116C13.8709 17.3797 13.827 17.2979 13.827 17.1318V14.7421ZM9.79679 21.5H18.3374C19.3005 21.5 20.1152 21.2562 20.6859 20.6851C21.2565 20.114 21.5 19.2988 21.5 18.3352V9.6447C21.5 8.68113 21.2565 7.86596 20.6859 7.29488C20.1152 6.72371 19.3005 6.47994 18.3374 6.47994H9.79679C8.82763 6.47994 8.00987 6.72034 7.43808 7.29122C6.86614 7.86226 6.62571 8.67866 6.62571 9.6447V18.3352C6.62571 19.3013 6.86614 20.1177 7.43808 20.6887C8.00987 21.2596 8.82763 21.5 9.79679 21.5Z" stroke="#0B2343"/>
</svg>
