<svg id="Layer_1" data-name="Layer 1" xmlns="http://www.w3.org/2000/svg" viewBox="0 0 18.2853 17.25024"><defs><style>.cls-1{fill:#007cc2;fill-rule:evenodd;}</style></defs><path class="cls-1" d="M11.7501,1.5a1,1,0,0,0-.0427,1.99954l4.1855.00335L8.83025,10.5655a1,1,0,0,0,1.41425,1.4143l7.0464-7.04648L17.2505,9.0402A1,1,0,1,0,19.2501,9l.035-6.46085.0001-.01777.0001-.01678a1.00008,1.00008,0,0,0-.9785-.97967l-.0098,0c-.0053-.00006-.0107-.00008-.016-.00006Z" transform="translate(-1 -1.49976)"/><path class="cls-1" d="M3.75,5.75A1.25,1.25,0,0,0,2.5,7v9a1.25,1.25,0,0,0,1.25,1.25h10A1.24994,1.24994,0,0,0,15,16V11.25a.75.75,0,0,1,1.5,0V16a2.75,2.75,0,0,1-2.75,2.75h-10A2.75,2.75,0,0,1,1,16V7A2.75,2.75,0,0,1,3.75,4.25h6.2667a.75.75,0,0,1,0,1.5Z" transform="translate(-1 -1.49976)"/></svg>