<svg width="24" height="24" viewBox="0 0 24 24" fill="none" xmlns="http://www.w3.org/2000/svg">
<path fill-rule="evenodd" clip-rule="evenodd" d="M6.12571 18.0201H5.67108C4.62595 18.0201 3.65884 17.7606 2.95995 17.0645C2.26032 16.3677 2 15.4032 2 14.3639V5.66476C2 4.62235 2.25969 3.65575 2.9591 2.95745C3.65821 2.25944 4.62596 2 5.67108 2H14.2117C15.2532 2 16.217 2.26405 16.9139 2.96153C17.6107 3.65886 17.8743 4.623 17.8743 5.66476V5.97994H18.3374C19.3789 5.97994 20.3427 6.24399 21.0396 6.94147C21.7364 7.6388 22 8.60295 22 9.6447V18.3352C22 19.377 21.7364 20.3411 21.0396 21.0385C20.3427 21.736 19.3789 22 18.3374 22H9.79679C8.75167 22 7.78392 21.7406 7.0848 21.0426C6.3854 20.3442 6.12571 19.3776 6.12571 18.3352V18.0201ZM5.9603 9.6447C5.9603 7.21203 7.3724 5.80229 9.79679 5.80229H16.8743V5.66476C16.8743 5.34943 16.846 5.06191 16.7894 4.80229C16.5284 3.60395 15.666 3 14.2117 3H5.67108C3.88469 3 3 3.88539 3 5.66476V14.3639C3 15.8816 3.64986 16.7489 4.9603 16.9658C5.17884 17.002 5.41575 17.0201 5.67108 17.0201H5.9603V9.6447ZM18.3374 21H9.79679C8.0104 21 7.12571 20.1146 7.12571 18.3352V9.6447C7.12571 7.86533 8.0104 6.97994 9.79679 6.97994H18.3374C20.1068 6.97994 21 7.87393 21 9.6447V18.3352C21 20.106 20.1068 21 18.3374 21Z" fill="#0B2343"/>
<path d="M17.3252 14.7421C17.8186 14.7421 18.1588 14.4757 18.1588 14.0029C18.1588 13.5215 17.8356 13.2464 17.3252 13.2464H14.8072V10.6934C14.8072 10.1777 14.5265 9.85962 14.0586 9.85962C13.5908 9.85962 13.3271 10.1949 13.3271 10.6934V13.2464H10.8261C10.3072 13.2464 9.97546 13.5215 9.97546 14.0029C9.97546 14.4757 10.3242 14.7421 10.8261 14.7421H13.3271V17.1318C13.3271 17.6304 13.5908 17.9656 14.0586 17.9656C14.5265 17.9656 14.8072 17.6476 14.8072 17.1318V14.7421H17.3252Z" fill="#0B2343"/>
</svg>
