<svg width="40" height="40" viewBox="0 0 40 40" fill="none" xmlns="http://www.w3.org/2000/svg">
<path d="M33 33.0063H26.6C25.8 33.0063 25.2 32.4063 25.2 31.6063C25.2 30.8063 25.8 30.2063 26.6 30.2063H33C33.8 30.2063 34.4 30.8063 34.4 31.6063C34.4 32.4063 33.7 33.0063 33 33.0063ZM26.6 31.3063C26.4 31.3063 26.2 31.5063 26.2 31.7063C26.2 31.9063 26.4 32.1063 26.6 32.1063H33C33.2 32.1063 33.4 31.9063 33.4 31.7063C33.4 31.5063 33.2 31.3063 33 31.3063H26.6ZM14.3 29.2063L6.00004 19.4063C5.60004 18.9063 5.50004 18.2063 5.80004 17.6063C6.10004 17.0063 6.70004 16.7063 7.30004 16.7063C7.80004 16.7063 8.20004 16.9063 8.50004 17.3063L16.4 26.1063H24C25.1 26.1063 25.7 26.9063 25.7 27.7063C25.7 28.1063 25.5 28.5063 25.3 28.8063C25.1 29.0063 24.7 29.3063 24 29.3063L14.3 29.2063ZM7.30004 17.6063C7.00004 17.6063 6.80004 17.7063 6.70004 18.0063C6.60004 18.2063 6.60004 18.5063 6.80004 18.7063L14.8 28.2063H24C24.2 28.2063 24.4 28.1063 24.6 28.0063C24.7 27.9063 24.7 27.8063 24.7 27.6063C24.7 27.3063 24.5 27.0063 24 27.0063H16L7.80004 17.8063C7.70004 17.7063 7.50004 17.6063 7.30004 17.6063ZM31.2 29.2063C30.7 29.2063 30.3 29.0063 30 28.6063L26.7 24.5063C26.5 24.2063 26.2 24.1063 25.8 24.1063H19.4C19 24.1063 18.6 23.9063 18.4 23.7063L12.4 17.1063C11.7 16.3063 11.5 15.2063 11.9 14.2063C12.4 13.2063 13.3 12.5063 14.4 12.5063C15.1 12.5063 15.8 12.8063 16.3 13.3063L23 20.0063C23.1 20.1063 23.1 20.1063 23.2 20.1063H25.3C26.6 20.1063 27.8 20.7063 28.5 21.7063L32.4 26.7063C32.8 27.2063 32.8 27.8063 32.6 28.3063C32.3 28.9063 31.8 29.2063 31.2 29.2063ZM14.4 13.5063C13.6 13.5063 13 14.1063 12.8 14.5063C12.6 15.0063 12.6 15.7063 13.1 16.3063L19.1 22.9063C19.2 23.0063 19.3 23.0063 19.4 23.0063H25.8C26.5 23.0063 27.1 23.3063 27.5 23.8063L30.8 27.9063C31 28.2063 31.5 28.1063 31.7 27.8063C31.8 27.6063 31.8 27.4063 31.6 27.2063L27.7 22.2063C27.1 21.4063 26.2 21.0063 25.2 21.0063H23.1C22.8 21.0063 22.4 20.9063 22.2 20.6063L15.5 13.9063C15.2 13.7063 14.8 13.5063 14.4 13.5063ZM10.5 11.3063H10.4C8.90004 11.2063 7.80004 10.0063 7.80004 8.50631C7.80004 7.00631 9.10004 5.90631 10.6 6.00631C12.1 6.10631 13.2 7.30631 13.1 8.80631C13.1 9.50631 12.8 10.2063 12.2 10.6063C11.8 11.1063 11.2 11.3063 10.5 11.3063ZM10.5 7.00631C10.1 7.00631 9.70004 7.20631 9.40004 7.40631C9.00004 7.70631 8.90004 8.10631 8.80004 8.60631C8.80004 9.00631 8.90004 9.50631 9.20004 9.80631C9.60004 10.1063 10 10.3063 10.4 10.3063C11.3 10.3063 12.1 9.60631 12.1 8.70631C12.2 7.80631 11.5 7.00631 10.5 7.00631Z" fill="#0B2343"/>
</svg>
