<svg width="40" height="40" viewBox="0 0 40 40" fill="none" xmlns="http://www.w3.org/2000/svg">
<path d="M12.9559 5.39125C12.882 7.19019 11.3541 8.57019 9.56747 8.49626C7.76853 8.42233 6.3885 6.89447 6.46243 5.10785C6.53636 3.30891 8.06423 1.92891 9.85084 2.00284C11.6375 2.07677 13.0298 3.59231 12.9559 5.39125Z" stroke="#0B2343" stroke-miterlimit="10" stroke-linecap="round" stroke-linejoin="round"/>
<path d="M23.2074 22.2228L18.9195 19.5367C18.9195 19.5367 16.8002 17.5529 16.061 15.4336C15.3217 13.3143 14.5207 11.7741 12.4877 11.8604C10.6888 11.9343 9.21021 13.3759 9.21021 15.3104C9.21021 17.2449 14.5577 26.5106 15.3586 27.139C16.1472 27.7674 18.0078 27.7921 18.0078 27.7921H27.175H27.1503L35.0977 37.7602" stroke="#0B2343" stroke-miterlimit="10" stroke-linecap="round" stroke-linejoin="round"/>
<path d="M3 17.6631H5.95719L13.2885 31.7342H24.5873" stroke="#0B2343" stroke-miterlimit="10" stroke-linecap="round" stroke-linejoin="round"/>
<path d="M36.9495 15.7856H24.6042V7.55542L27.6906 11.3971L30.7769 7.55542L33.8632 11.3971L36.9495 7.55542V15.7856Z" stroke="#0B2343" stroke-miterlimit="10" stroke-linecap="round" stroke-linejoin="round"/>
</svg>
