<?xml version="1.0" encoding="utf-8"?>
<!-- Generator: Adobe Illustrator 22.1.0, SVG Export Plug-In . SVG Version: 6.00 Build 0)  -->
<svg version="1.1" id="Capa_1" xmlns="http://www.w3.org/2000/svg" xmlns:xlink="http://www.w3.org/1999/xlink" x="0px" y="0px"
	 viewBox="0 0 400 400" style="enable-background:new 0 0 400 400;" xml:space="preserve">
<style type="text/css">
	.st0{fill:#007DC3;}
</style>
<g>
	<g>
		<path class="st0" d="M272.6,262.9c-3.6,0-6.6-2.9-6.6-6.6v-8.9c-47-17.7-52.8-24.9-54.5-30.3c-0.2-0.7-0.3-1.3-0.3-2V208
			c0-1.8,0.7-3.4,1.9-4.7c4.1-4.1,7.3-9.8,9.2-16.6c0.4-1.5,1.4-2.8,2.6-3.6c1.1-0.8,1.9-2,2.1-3.3c0.1-0.9,0-2.3-1.1-3.7
			c-1-1.2-1.5-2.7-1.5-4.2v-15.9c0-14.2-8-21.1-24.4-21.1c-16.2,0-24.4,7.1-24.4,21.1v16c0,1.5-0.5,3-1.5,4.2
			c-1.2,1.4-1.2,2.8-1.1,3.7c0.2,1.3,0.9,2.6,2.1,3.3c1.3,0.9,2.2,2.1,2.6,3.6c1.9,6.7,5.2,12.5,9.3,16.6c1.2,1.2,1.9,2.9,1.9,4.7
			v7.1c0,0.7-0.1,1.4-0.3,2c-1.7,5.3-7.5,12.5-54.5,30.3v8.9c0,3.6-2.9,6.6-6.6,6.6s-6.6-2.9-6.6-6.6v-10c0-4.8,3-9.2,7.6-10.9
			c36.3-13.6,45.1-19.9,47.2-22.1v-2.7c-4.3-4.9-7.8-11.1-10.1-18.2c-3.1-2.8-5.1-6.7-5.7-10.8c-0.6-4.2,0.3-8.3,2.5-11.9v-13.8
			c0-21.2,14.4-34.3,37.6-34.3c23.5,0,37.6,12.8,37.6,34.3v13.8c2.2,3.6,3.1,7.7,2.5,11.9c-0.6,4.2-2.6,8-5.7,10.8
			c-2.3,7-5.7,13.2-10,18.2v2.8c1.6,1.6,9.7,7.9,47.2,22c4.5,1.7,7.6,6.1,7.6,10.9v10C279.2,259.9,276.3,262.9,272.6,262.9z"/>
	</g>
	<g>
		<path class="st0" d="M211.2,93.8h-22.3c-9.8,0-17.8-6.4-18.9-15.2l-7.4-55c-0.7-5,0.9-9.9,4.4-13.9c3.7-4.3,9.2-6.8,14.6-6.8h37.1
			c5.3,0,10.9,2.6,14.6,6.9c3.4,3.9,4.9,8.7,4.3,13.6l-7.4,55.4C228.9,87.5,221,93.8,211.2,93.8z M181.5,16.1
			c-1.6,0-3.4,0.9-4.6,2.3c-0.7,0.8-1.4,2-1.2,3.5l7.4,55.1c0.3,2.1,2.8,3.7,5.9,3.7h22.3c3.1,0,5.6-1.5,5.9-3.6l7.4-55.4
			c0.1-1.1-0.2-2.1-1.1-3.2c-1.2-1.4-3.2-2.4-4.7-2.4H181.5z"/>
	</g>
	<g>
		<path class="st0" d="M293.5,397h-187c-21.3,0-37.4-14.4-37.4-33.5V104.4c0-19.5,16.8-35.3,37.4-35.3h27.2c3.6,0,6.6,2.9,6.6,6.6
			c0,3.6-2.9,6.6-6.6,6.6h-27.2c-13.3,0-24.2,9.9-24.2,22.2v259.1c0,13.2,12.5,20.3,24.2,20.3h187c11.7,0,24.2-7.1,24.2-20.3V104.4
			c0-12.2-10.8-22.2-24.2-22.2h-27.2c-3.6,0-6.6-2.9-6.6-6.6c0-3.6,2.9-6.6,6.6-6.6h27.2c20.6,0,37.4,15.9,37.4,35.3v259.1
			C330.9,382.6,314.8,397,293.5,397z"/>
	</g>
	<g>
		<path class="st0" d="M272.6,346.7h-62.5c-3.6,0-6.6-2.9-6.6-6.6s2.9-6.6,6.6-6.6h62.5c3.6,0,6.6,2.9,6.6,6.6
			S276.3,346.7,272.6,346.7z"/>
	</g>
	<g>
		<path class="st0" d="M160.5,346.7h-33.1c-3.6,0-6.6-2.9-6.6-6.6s2.9-6.6,6.6-6.6h33.1c3.6,0,6.6,2.9,6.6,6.6
			S164.1,346.7,160.5,346.7z"/>
	</g>
	<g>
		<path class="st0" d="M324,292.3H76c-3.6,0-6.6-2.9-6.6-6.6c0-3.6,2.9-6.6,6.6-6.6h248c3.6,0,6.6,2.9,6.6,6.6
			C330.6,289.4,327.6,292.3,324,292.3z"/>
	</g>
	<g>
		<path class="st0" d="M200.1,49.5c-1.8,0-3.6-0.7-4.8-2c-0.5-0.5-1.1-1.3-1.4-2.1c-0.3-0.8-0.4-1.6-0.4-2.5c0-0.8,0.1-1.7,0.4-2.5
			c0.4-0.8,0.9-1.6,1.4-2.1c2.4-2.5,6.9-2.5,9.4,0c0.5,0.5,1.1,1.3,1.5,2.1c0.3,0.8,0.5,1.7,0.5,2.5c0,0.9-0.3,1.7-0.5,2.5
			c-0.4,0.8-0.9,1.6-1.5,2.1C203.4,48.8,201.8,49.5,200.1,49.5z"/>
	</g>
</g>
</svg>
