<svg width="40" height="40" viewBox="0 0 40 40" fill="none" xmlns="http://www.w3.org/2000/svg">
<path d="M34.2166 22.8594C34.5462 22.7637 35.9812 22.3385 34.1953 20.8822C32.8559 19.7872 31.1764 19.7129 29.8901 20.0105C30.0921 19.1495 29.6243 18.2246 28.5188 18.2671L25.5316 11.6443C26.0312 12.0058 27.4983 12.4523 27.5833 11.8464L27.966 9.38021C28.0404 8.91247 27.4239 9.00804 26.9562 9.00804C26.1908 9.00804 24.9576 9.1356 24.7556 9.93288C24.2772 8.98678 22.8528 9.30572 22.8316 10.3688M27.2326 20.9459C25.1809 22.3172 25.1489 25.2299 25.1489 25.2299C26.1801 25.3469 26.7435 25.0811 26.7435 25.0811C26.7435 25.0811 27.6683 23.1996 30.1983 22.6575C32.7177 22.1153 32.3138 23.6142 34.7375 22.6575L27.2326 20.9459ZM16.7085 25.3575C16.9424 24.9854 18.4518 19.7129 19.2916 19.2026C20.631 18.3841 20.3654 15.9072 18.1968 15.8647L9.85187 15.6946C7.97031 15.6627 7.33256 17.7037 8.33181 18.7348C7.18374 19.3833 6.33334 20.457 5.83371 21.4562C5.35535 22.413 4.57931 24.0393 5.28091 24.9748C5.57856 25.3788 6.09942 25.3256 7.2475 25.3575H22.4913H16.7085ZM23.7032 13.4197L25.0214 17.5655C24.7769 17.6824 24.5749 17.895 24.4898 18.1714L21.3646 25.3468L23.7032 13.4197Z" stroke="#0B2343" stroke-linecap="round" stroke-linejoin="round"/>
<path d="M27.2326 27.707C27.679 29.3654 29.1778 30.5985 30.985 30.641C33.1748 30.6835 34.9714 28.9401 35.0139 26.7503C35.0245 26.1869 34.9182 25.6554 34.7162 25.177" stroke="#0B2343" stroke-linecap="round" stroke-linejoin="round"/>
<path d="M31.0169 28.5996C29.9645 28.5783 29.1247 27.7067 29.146 26.6543C29.1672 25.6019 30.039 24.7621 31.0914 24.7834C32.1438 24.8046 32.9835 25.6763 32.9622 26.7287C32.941 27.7811 32.0693 28.6209 31.0169 28.5996Z" stroke="#0B2343" stroke-linecap="round" stroke-linejoin="round"/>
<path d="M10.6917 18.9264C12.4563 18.8094 15.3797 19.1815 15.2415 22.9871" stroke="#0B2343" stroke-linecap="round" stroke-linejoin="round"/>
<path d="M17.1975 18.9049H19.6531" stroke="#0B2343" stroke-linecap="round" stroke-linejoin="round"/>
<path d="M23.8946 11.4318L21.1095 13.1326" stroke="#0B2343" stroke-linecap="round" stroke-linejoin="round"/>
<path d="M7.42828 27.7598C7.89602 29.3862 9.35235 30.5981 11.1276 30.63C12.956 30.6619 14.4974 29.4394 14.9758 27.7598" stroke="#0B2343" stroke-linecap="round" stroke-linejoin="round"/>
<path d="M12.6902 27.7598C12.3394 28.2275 11.7867 28.5357 11.1489 28.5251C10.5429 28.5145 10.0221 28.2062 9.68188 27.7598" stroke="#0B2343" stroke-linecap="round" stroke-linejoin="round"/>
<path d="M9.68188 27.7598C10.0221 28.2062 10.5323 28.5145 11.1489 28.5251C11.7867 28.5357 12.3394 28.2275 12.6902 27.7598" stroke="#0B2343" stroke-linecap="round" stroke-linejoin="round"/>
</svg>
