<svg width="40" height="40" viewBox="0 0 40 40" fill="none" xmlns="http://www.w3.org/2000/svg">
<path d="M18.2924 14.8435C18.2924 16.1006 17.2689 17.1241 16.0118 17.1241C14.7547 17.1241 13.7313 16.1006 13.7313 14.8435C13.7313 13.5864 14.7547 12.563 16.0118 12.563C17.2689 12.5741 18.2924 13.5864 18.2924 14.8435Z" stroke="#0B2343" stroke-miterlimit="10" stroke-linecap="round" stroke-linejoin="round"/>
<path d="M20.3505 14.8657H21.741" stroke="#0B2343" stroke-miterlimit="10" stroke-linecap="round" stroke-linejoin="round"/>
<path d="M10.2937 14.8657H11.6843" stroke="#0B2343" stroke-miterlimit="10" stroke-linecap="round" stroke-linejoin="round"/>
<path d="M16.0229 10.5273V9.13672" stroke="#0B2343" stroke-miterlimit="10" stroke-linecap="round" stroke-linejoin="round"/>
<path d="M19.1713 11.7064L19.7608 11.1279" stroke="#0B2343" stroke-miterlimit="10" stroke-linecap="round" stroke-linejoin="round"/>
<path d="M12.2851 18.6037L12.8636 18.0142" stroke="#0B2343" stroke-miterlimit="10" stroke-linecap="round" stroke-linejoin="round"/>
<path d="M19.1713 18.0142L19.7608 18.6037" stroke="#0B2343" stroke-miterlimit="10" stroke-linecap="round" stroke-linejoin="round"/>
<path d="M12.2851 11.1279L12.8636 11.7064" stroke="#0B2343" stroke-miterlimit="10" stroke-linecap="round" stroke-linejoin="round"/>
<path d="M8.68069 8.68069C2.43977 14.9216 2.43977 25.0784 8.68069 31.3193C14.9216 37.5602 25.0784 37.5602 31.3193 31.3193C37.5602 25.0784 37.5602 14.9216 31.3193 8.68069C25.0784 2.43977 14.9216 2.43977 8.68069 8.68069Z" stroke="#0B2343" stroke-miterlimit="10" stroke-linecap="round" stroke-linejoin="round"/>
<path d="M25.2454 25.156L29.5951 21.229L34.7903 26.135" stroke="#0B2343" stroke-miterlimit="10" stroke-linecap="round" stroke-linejoin="round"/>
<path d="M16.0229 20.5837V19.1931" stroke="#0B2343" stroke-miterlimit="10" stroke-linecap="round" stroke-linejoin="round"/>
<path d="M11.6843 33.6776L21.3851 20.3726L30.5517 31.7308" stroke="#0B2343" stroke-miterlimit="10" stroke-linecap="round" stroke-linejoin="round"/>
</svg>
