<svg width="40" height="40" viewBox="0 0 40 40" fill="none" xmlns="http://www.w3.org/2000/svg">
<path d="M27.84 19.9199C27.84 25.9499 22.95 30.8401 16.92 30.8401C10.89 30.8401 6 25.9499 6 19.9199C6 13.8899 10.89 9 16.92 9C22.95 9 27.84 13.8899 27.84 19.9199Z" stroke="#0B2343" stroke-miterlimit="10" stroke-linecap="round" stroke-linejoin="round"/>
<path d="M18.1 19.9199C18.1 20.5699 17.5701 21.1001 16.9301 21.1001C16.2801 21.1001 15.75 20.5699 15.75 19.9199C15.75 19.2699 16.2801 18.75 16.9301 18.75C17.5701 18.75 18.1 19.2699 18.1 19.9199Z" stroke="#0B2343" stroke-miterlimit="10" stroke-linecap="round" stroke-linejoin="round"/>
<path d="M25.5601 19.9199C25.5601 21.3699 24.39 22.54 22.94 22.54C21.49 22.54 20.32 21.3699 20.32 19.9199C20.32 18.4699 21.49 17.3 22.94 17.3C24.39 17.3 25.5601 18.4699 25.5601 19.9199Z" stroke="#0B2343" stroke-miterlimit="10" stroke-linecap="round" stroke-linejoin="round"/>
<path d="M13.52 19.9199C13.52 21.3699 12.35 22.54 10.9 22.54C9.45002 22.54 8.28003 21.3699 8.28003 19.9199C8.28003 18.4699 9.45002 17.3 10.9 17.3C12.35 17.3 13.52 18.4699 13.52 19.9199Z" stroke="#0B2343" stroke-miterlimit="10" stroke-linecap="round" stroke-linejoin="round"/>
<path d="M16.92 28.5601C15.47 28.5601 14.3 27.3899 14.3 25.9399C14.3 24.4899 15.47 23.3201 16.92 23.3201C18.37 23.3201 19.54 24.4899 19.54 25.9399C19.54 27.3899 18.37 28.5601 16.92 28.5601Z" stroke="#0B2343" stroke-miterlimit="10" stroke-linecap="round" stroke-linejoin="round"/>
<path d="M16.92 16.53C15.47 16.53 14.3 15.3599 14.3 13.9099C14.3 12.4599 15.47 11.29 16.92 11.29C18.37 11.29 19.54 12.4599 19.54 13.9099C19.54 15.3599 18.37 16.53 16.92 16.53Z" stroke="#0B2343" stroke-miterlimit="10" stroke-linecap="round" stroke-linejoin="round"/>
<path d="M20.3101 30.3102C20.3101 30.3102 35.14 24.2002 34.77 31.8502" stroke="#0B2343" stroke-linecap="round" stroke-linejoin="round"/>
</svg>
