<svg width="40" height="40" viewBox="0 0 40 40" fill="none" xmlns="http://www.w3.org/2000/svg">
<path d="M33.7101 19.7H6.71008V34.5898H33.7101V19.7Z" stroke="#0B2343" stroke-linecap="round" stroke-linejoin="round"/>
<path d="M15.89 14.6799L11.37 19.7H15.99L20.52 14.6799H15.89Z" stroke="#0B2343" stroke-linecap="round" stroke-linejoin="round"/>
<path d="M6.71008 14.6799V19.5L11.27 14.6799H6.71008Z" stroke="#0B2343" stroke-linecap="round" stroke-linejoin="round"/>
<path d="M11.27 14.6799L6.71008 19.5V19.7H11.37L15.89 14.6799H11.27Z" stroke="#0B2343" stroke-linecap="round" stroke-linejoin="round"/>
<path d="M20.52 14.6799L15.99 19.7H20.62L25.14 14.6799H20.52Z" stroke="#0B2343" stroke-linecap="round" stroke-linejoin="round"/>
<path d="M33.7101 15.3799L29.87 19.7H33.7101V15.3799Z" stroke="#0B2343" stroke-linecap="round" stroke-linejoin="round"/>
<path d="M33.7101 14.6799H29.77L25.24 19.7H29.87L33.7101 15.3799V14.6799Z" stroke="#0B2343" stroke-linecap="round" stroke-linejoin="round"/>
<path d="M25.14 14.6799L20.62 19.7H25.24L29.77 14.6799H25.14Z" stroke="#0B2343" stroke-linecap="round" stroke-linejoin="round"/>
<path d="M14.8301 8.51978L11.2001 14.0198L15.64 13.3599L19.28 7.85986L14.8301 8.51978Z" stroke="#0B2343" stroke-linecap="round" stroke-linejoin="round"/>
<path d="M6 9.80981L6.69006 14.48L10.39 9.16992L6 9.80981Z" stroke="#0B2343" stroke-linecap="round" stroke-linejoin="round"/>
<path d="M10.39 9.16992L6.69006 14.48L6.71997 14.6799L11.2001 14.0198L14.8301 8.51978L10.39 9.16992Z" stroke="#0B2343" stroke-linecap="round" stroke-linejoin="round"/>
<path d="M19.28 7.85986L15.64 13.3599L20.09 12.71L23.73 7.20996L19.28 7.85986Z" stroke="#0B2343" stroke-linecap="round" stroke-linejoin="round"/>
<path d="M32.0701 6.67993L28.99 11.3999L32.6901 10.8599L32.0701 6.67993Z" stroke="#0B2343" stroke-linecap="round" stroke-linejoin="round"/>
<path d="M31.97 6L28.1801 6.55981L24.54 12.0598L28.99 11.3999L32.0701 6.67993L31.97 6Z" stroke="#0B2343" stroke-linecap="round" stroke-linejoin="round"/>
<path d="M23.73 7.20996L20.09 12.71L24.54 12.0598L28.1801 6.55981L23.73 7.20996Z" stroke="#0B2343" stroke-linecap="round" stroke-linejoin="round"/>
<path d="M22.7001 26.3598L18.7001 23.2897C18.3101 22.9897 17.75 23.26 17.75 23.75V29.8999C17.75 30.3799 18.3101 30.6498 18.7001 30.3598L22.7001 27.2797C23.0001 27.0397 23.0001 26.5898 22.7001 26.3598Z" stroke="#0B2343" stroke-linecap="round" stroke-linejoin="round"/>
</svg>
