<svg width="40" height="40" viewBox="0 0 40 40" fill="none" xmlns="http://www.w3.org/2000/svg">
<path d="M14.5325 13.7319C14.5325 10.7087 12.1525 8.20001 9.25786 8.20001C6.29895 8.20001 3.91895 10.6443 3.91895 13.7319C3.91895 16.7551 6.29894 19.2638 9.19354 19.2638C12.1525 19.1995 14.5325 16.7551 14.5325 13.7319ZM22.2514 21.7081C23.1519 21.7081 23.9881 21.5795 24.8243 21.2578V28.9124C24.8243 30.5849 23.4735 32 21.8654 32H9.51516C7.90705 32 6.55624 30.6492 6.55624 28.9124V21.1935C7.39246 21.5151 8.293 21.7081 9.19354 21.7081C11.9595 21.7081 14.3395 20.2287 15.6903 17.9773C17.0411 20.1643 19.4854 21.7081 22.2514 21.7081ZM22.2514 8.20001C19.3568 8.20001 16.9768 10.6443 16.9768 13.7319C16.9768 16.7551 19.3568 19.2638 22.2514 19.2638C25.146 19.2638 27.526 16.8195 27.526 13.7319C27.526 10.6443 25.146 8.20001 22.2514 8.20001ZM36.0811 17.4627V32L27.14 27.24V22.2227L36.0811 17.4627Z" fill="#0B2343"/>
</svg>
