<svg width="40" height="40" viewBox="0 0 40 40" fill="none" xmlns="http://www.w3.org/2000/svg">
<path d="M10.038 24.4619L11.5151 30.6689C11.8235 31.7906 15.2916 32.8283 19.9562 32.8283C24.6208 32.8283 28.0794 31.8935 28.3972 30.6689L29.9022 24.2937" stroke="#0B2343" stroke-miterlimit="10" stroke-linecap="round" stroke-linejoin="round"/>
<path d="M19.9562 32.8189V26.0229" stroke="#0B2343" stroke-miterlimit="10" stroke-linecap="round" stroke-linejoin="round"/>
<path d="M15.3944 32.4543L14.7307 26.0229" stroke="#0B2343" stroke-miterlimit="10" stroke-linecap="round" stroke-linejoin="round"/>
<path d="M24.5272 32.4823L25.191 26.0229" stroke="#0B2343" stroke-miterlimit="10" stroke-linecap="round" stroke-linejoin="round"/>
<path d="M29.734 15.8151C29.1731 10.8514 24.9853 7.00012 19.9001 7.00012C14.7027 7.00012 10.4401 11.029 10.0288 16.1422C8.2714 16.7031 6.99998 18.3484 6.99998 20.3021C6.99998 24.331 12.0011 26.2005 14.6185 23.1438C16.2637 25.0601 19.1429 25.1723 20.9283 23.4149C22.424 24.2842 24.2842 24.1815 25.6771 23.1252C28.388 25.8641 33.0899 23.9477 33.0899 20.0497C33.0992 17.9932 31.6597 16.2544 29.734 15.8151Z" stroke="#0B2343" stroke-miterlimit="10" stroke-linecap="round" stroke-linejoin="round"/>
</svg>
