<svg viewBox="0 0 30 30" fill="none" xmlns="http://www.w3.org/2000/svg">
<path fill-rule="evenodd" clip-rule="evenodd" d="M8.66665 14.4667L2.44443 21L8.66665 27.5333V14.4667ZM8.66665 19.6H17.5555V22.4H8.66665V19.6Z" fill="#0B2343"/>
<path fill-rule="evenodd" clip-rule="evenodd" d="M21.3333 2.46667L27.5556 9.00001L21.3333 15.5333V2.46667ZM21.3333 7.60001H12.4445V10.4H21.3333V7.60001Z" fill="#0B2343"/>
<path fill-rule="evenodd" clip-rule="evenodd" d="M5.66555 8.57648C5.8501 7.99502 6.38991 7.6 6.99995 7.6H14V10.4H11.411L24.8073 19.8562C25.3057 20.208 25.5189 20.8421 25.3344 21.4235C25.1498 22.005 24.61 22.4 24 22.4H13.5V19.6H19.5889L6.1926 10.1438C5.69421 9.79195 5.481 9.15793 5.66555 8.57648Z" fill="#0B2343"/>
</svg>
