<svg width="40" height="40" viewBox="0 0 40 40" fill="none" xmlns="http://www.w3.org/2000/svg">
<path d="M14.6995 18.9306C15.8081 19.1154 25.5566 19.1858 27.7034 18.5348C30.123 17.7957 34.0294 16.6519 29.4807 11.0914C24.9232 5.53082 18.9578 7.27291 16.987 7.81841C14.3827 8.53987 3.62238 17.0654 14.6995 18.9306Z" stroke="#0B2343" stroke-linecap="round" stroke-linejoin="round"/>
<path d="M13.2829 15.0505C13.2829 15.0505 15.1834 15.5344 20.1369 15.4728" stroke="#0B2343" stroke-linecap="round" stroke-linejoin="round"/>
<path d="M18.5971 20.8223C18.5971 20.8223 17.6557 29.6558 16.4152 32.1985" stroke="#0B2343" stroke-linecap="round" stroke-linejoin="round"/>
<path d="M22.8115 20.7783C22.8115 20.7783 23.7793 28.1865 25.8909 30.0429" stroke="#0B2343" stroke-linecap="round" stroke-linejoin="round"/>
<path d="M7.94238 32.2073H33" stroke="#0B2343" stroke-linecap="round" stroke-linejoin="round"/>
<path d="M24.5008 32.2073C24.5008 32.2073 26.8676 29.6734 26.5156 26.6028" stroke="#0B2343" stroke-linecap="round" stroke-linejoin="round"/>
<path d="M27.4043 32.2073C27.4043 32.2073 29.3487 30.8875 28.7944 28.7144" stroke="#0B2343" stroke-linecap="round" stroke-linejoin="round"/>
<path d="M14.8226 32.2074L14.2859 27.8875C14.2859 27.8875 13.9956 31.8819 12.843 32.2074" stroke="#0B2343" stroke-linecap="round" stroke-linejoin="round"/>
<path d="M10.2563 32.2072C10.2563 32.2072 11.5497 31.0547 11.3033 29.9109" stroke="#0B2343" stroke-linecap="round" stroke-linejoin="round"/>
<path d="M30.906 32.2072C30.906 32.2072 30.1317 30.9227 30.2021 30.166" stroke="#0B2343" stroke-linecap="round" stroke-linejoin="round"/>
<path d="M26.4716 28.1423C26.4716 28.1423 26.0758 31.9432 26.8676 32.2072" stroke="#0B2343" stroke-linecap="round" stroke-linejoin="round"/>
</svg>
