<svg width="40" height="40" viewBox="0 0 40 40" fill="none" xmlns="http://www.w3.org/2000/svg">
<path d="M16.7309 30.3601V9.21997L31.7209 6V27.8601" stroke="#0B2343" stroke-miterlimit="10" stroke-linecap="round" stroke-linejoin="round"/>
<path d="M16.7309 15.3801L31.7209 11.98" stroke="#0B2343" stroke-miterlimit="10" stroke-linecap="round" stroke-linejoin="round"/>
<path d="M16.7309 30.3601C16.2709 28.8101 14.1809 28.07 12.0709 28.71C9.96091 29.34 8.63093 31.1102 9.09093 32.6602C9.55093 34.2102 11.6409 34.9501 13.7509 34.3201C15.8609 33.6801 17.1909 31.9101 16.7309 30.3601Z" stroke="#0B2343" stroke-miterlimit="10" stroke-linecap="round" stroke-linejoin="round"/>
<path d="M31.6309 27.8101C31.1709 26.2601 29.0809 25.5202 26.9709 26.1602C24.8609 26.7902 23.5309 28.5602 23.9909 30.1102C24.4509 31.6602 26.5409 32.4001 28.6509 31.7701C30.7609 31.1201 32.0909 29.3501 31.6309 27.8101Z" stroke="#0B2343" stroke-miterlimit="10" stroke-linecap="round" stroke-linejoin="round"/>
</svg>
