<svg width="40" height="40" viewBox="0 0 40 40" fill="none" xmlns="http://www.w3.org/2000/svg">
<path d="M21.6704 24.0857C23.0584 22.3353 23.0537 19.8069 21.6554 18.0649C19.8088 15.7615 16.4286 15.6233 14.3961 17.6502C13.1529 18.8906 13.194 20.6821 11.2708 20.5354C9.5895 20.4074 7.96053 20.9165 6.77803 22.0953C4.40743 24.4603 4.73435 28.6214 7.50939 31.389C10.2835 34.1565 14.4559 34.4825 16.8265 32.1175C18.0015 30.9462 18.5124 29.335 18.3928 27.6696C18.2378 25.5157 20.2086 25.9286 21.6704 24.0857Z" stroke="#0B2343" stroke-linecap="round" stroke-linejoin="round"/>
<path d="M21.9759 18.3923L30.2207 10.1681L30.4645 10.4109L32.7323 8.1487C33.0611 7.82085 33.0611 7.29125 32.7323 6.9634L31.9982 6.23111C31.6703 5.90419 31.1379 5.90419 30.8101 6.23111L28.5422 8.49336L28.7851 8.73621L20.5403 16.9604" stroke="#0B2343" stroke-linecap="round" stroke-linejoin="round"/>
<path d="M17.7228 24.2405C16.8747 25.0858 15.5007 25.0858 14.6526 24.2405C13.8054 23.3952 13.8054 22.024 14.6526 21.1787C15.5007 20.3325 16.8747 20.3325 17.7228 21.1787C18.5709 22.024 18.5709 23.3952 17.7228 24.2405Z" stroke="#0B2343" stroke-linecap="round" stroke-linejoin="round"/>
<path d="M10.0151 25.8039L13.0853 28.8657" stroke="#0B2343" stroke-linecap="round" stroke-linejoin="round"/>
<path d="M28.7852 8.73559L30.2208 10.1675" stroke="#0B2343" stroke-linecap="round" stroke-linejoin="round"/>
<path d="M31.3025 9.57394L31.7434 10.0129" stroke="#0B2343" stroke-linecap="round" stroke-linejoin="round"/>
<path d="M28.9396 7.21725L29.3804 7.65625" stroke="#0B2343" stroke-linecap="round" stroke-linejoin="round"/>
<path d="M32.5601 8.31983L33 8.75977" stroke="#0B2343" stroke-linecap="round" stroke-linejoin="round"/>
<path d="M30.1971 5.9631L30.638 6.4021" stroke="#0B2343" stroke-linecap="round" stroke-linejoin="round"/>
</svg>
