<svg width="40" height="40" viewBox="0 0 40 40" fill="none" xmlns="http://www.w3.org/2000/svg">
<path d="M31.0118 5.03673L14.9035 9.71849C14.52 9.90576 14.7118 10.093 14.7118 10.6548V29.0073C14.1365 28.4455 13.1777 28.071 12.2188 28.071C9.91765 28.071 8 29.9437 8 31.8164C8 33.6891 10.1094 35 12.2188 35C14.52 35 16.0541 33.5018 16.0541 31.6291V16.6475L30.4365 12.5276V23.3892C29.8612 23.0147 28.9024 22.8274 27.9436 22.8274C25.6424 22.8274 24.1083 24.7001 24.1083 26.5728C24.1083 28.4455 25.6424 29.9437 27.9436 29.9437C30.2447 29.9437 31.7788 28.071 31.7788 26.1983V5.97309C31.9706 5.41127 31.5871 4.84946 31.0118 5.03673Z" fill="#0B2343"/>
</svg>
