<svg width="42" height="42" viewBox="0 0 42 42" fill="none" xmlns="http://www.w3.org/2000/svg">
<path fill-rule="evenodd" clip-rule="evenodd" d="M0.5 21C0.5 9.6961 9.69611 0.5 21 0.5C32.3039 0.5 41.4999 9.6961 41.4999 21C41.4999 32.3039 32.3039 41.5 21 41.5C9.69611 41.5 0.5 32.3039 0.5 21ZM21 1.5C10.2484 1.5 1.5 10.2484 1.5 21C1.5 31.7516 10.2484 40.5 21 40.5C31.7516 40.5 40.4999 31.7516 40.4999 21C40.4999 10.2484 31.7516 1.5 21 1.5Z" fill="#FBAF28"/>
<path fill-rule="evenodd" clip-rule="evenodd" d="M20.1722 6.1224C20.1488 6.1427 20.1273 6.16522 20.1079 6.18975C20.0797 6.22534 20.0562 6.26486 20.0385 6.30736L18.0431 10.7969C18.0147 10.8609 18 10.93 18 11V11.5H17C16.7239 11.5 16.5 11.7239 16.5 12V14C16.5 14.2761 16.7239 14.5 17 14.5H17.5V15.5H16.8604C16.6452 15.5 16.4558 15.633 16.3899 15.8379C15.8491 17.5188 13.5 25.0755 13.5 29.5C13.5 34.1612 16.1072 34.9116 16.4605 34.9919C16.4874 34.998 16.5138 35 16.5414 35H25.4586C25.4862 35 25.5126 34.998 25.5395 34.9919C25.8928 34.9116 28.5 34.1612 28.5 29.5C28.5 25.0755 26.1509 17.5188 25.6101 15.8379C25.5442 15.633 25.3548 15.5 25.1396 15.5H24.5V14.5H25C25.2761 14.5 25.5 14.2761 25.5 14V12C25.5 11.7239 25.2761 11.5 25 11.5H24V11C24 10.93 23.9853 10.8609 23.9569 10.7969L21.9615 6.30738C21.9438 6.26487 21.9203 6.22535 21.8921 6.18975C21.8727 6.1652 21.8511 6.14265 21.8277 6.12234C21.7399 6.04613 21.6254 6 21.5 6H20.5C20.3746 6 20.26 6.04615 20.1722 6.1224ZM23.5 15.5V14.5H18.5V15.5H23.5ZM24.5 12.5V13.5H17.5V12.5H24.5ZM19 11.1061L20.8249 7H21.1751L23 11.1061V11.5H19V11.1061ZM16.9198 17.5C17.039 17.1055 17.1441 16.7675 17.2285 16.5H24.7715C24.8559 16.7675 24.961 17.1055 25.0802 17.5H16.9198ZM16.6235 18.5C16.3414 19.4719 16.0196 20.6381 15.713 21.8798C15.3364 23.405 14.9908 25.0129 14.7657 26.5H27.2343C27.0092 25.0129 26.6636 23.405 26.287 21.8798C25.9804 20.6381 25.6586 19.4719 25.3765 18.5H16.6235ZM14.6311 27.5H27.3689C27.4525 28.2181 27.5 28.8935 27.5 29.5C27.5 31.6343 26.9085 32.7347 26.406 33.2981C25.9765 33.7796 25.5391 33.9504 25.3786 34H16.6214C16.4609 33.9504 16.0235 33.7796 15.594 33.2981C15.0915 32.7347 14.5 31.6343 14.5 29.5C14.5 28.8935 14.5475 28.2181 14.6311 27.5Z" fill="#FBAF28"/>
</svg>
