<svg width="22" height="22" viewBox="0 0 22 22" fill="none" xmlns="http://www.w3.org/2000/svg">
<g clip-path="url(#clip0_3721_52338)">
<path d="M11.048 0.607178C14.5953 0.607178 18.2225 3.33476 18.295 7.09974C18.3821 11.4959 12.4988 16.6101 11.048 16.6101" stroke="#0B2343" stroke-width="0.7" stroke-miterlimit="10" stroke-linecap="round" stroke-linejoin="round"/>
<path d="M11.048 0.607178C13.2678 0.607178 15.5311 3.33476 15.5747 7.09974C15.6254 11.4959 11.9475 16.6101 11.048 16.6101" stroke="#0B2343" stroke-width="0.7" stroke-miterlimit="10" stroke-linecap="round" stroke-linejoin="round"/>
<path d="M11.0479 0.607056C7.50057 0.607056 3.87343 3.33464 3.80088 7.09962C3.71383 11.4957 9.59706 16.61 11.0479 16.61" stroke="#0B2343" stroke-width="0.7" stroke-miterlimit="10" stroke-linecap="round" stroke-linejoin="round"/>
<path d="M11.0479 16.6029C10.1411 16.6029 6.46315 11.4959 6.52119 7.09254C6.56471 3.32756 8.8353 0.599976 11.0479 0.599976V16.6029Z" stroke="#0B2343" stroke-width="0.7" stroke-miterlimit="10" stroke-linecap="round" stroke-linejoin="round"/>
<path d="M12.2086 21.4126H9.88725L9.64062 19.3016H12.4552L12.2086 21.4126Z" stroke="#0B2343" stroke-width="0.7" stroke-miterlimit="10" stroke-linecap="round" stroke-linejoin="round"/>
</g>
<defs>
<clipPath id="clip0_3721_52338">
<rect width="22" height="22" fill="white"/>
</clipPath>
</defs>
</svg>
