<svg viewBox="0 0 40 40" fill="none" xmlns="http://www.w3.org/2000/svg">
<path d="M20.0601 7.00894C24.4943 7.00894 29.0282 10.4184 29.1189 15.1246C29.2277 20.6198 21.8736 27.0126 20.0601 27.0126" stroke="#0B2343" stroke-miterlimit="10" stroke-linecap="round" stroke-linejoin="round"/>
<path d="M20.0601 7.00894C22.8348 7.00894 25.664 10.4184 25.7184 15.1246C25.7819 20.6198 21.1845 27.0126 20.0601 27.0126" stroke="#0B2343" stroke-miterlimit="10" stroke-linecap="round" stroke-linejoin="round"/>
<path d="M20.06 7.00879C15.6258 7.00879 11.0919 10.4183 11.0012 15.1245C10.8924 20.6196 18.2464 27.0125 20.06 27.0125" stroke="#0B2343" stroke-miterlimit="10" stroke-linecap="round" stroke-linejoin="round"/>
<path d="M20.06 27.0036C18.9265 27.0036 14.3291 20.6199 14.4016 15.1156C14.456 10.4094 17.2943 6.99994 20.06 6.99994V27.0036Z" stroke="#0B2343" stroke-miterlimit="10" stroke-linecap="round" stroke-linejoin="round"/>
<path d="M21.5109 33.0156H18.6092L18.3009 30.377H21.8191L21.5109 33.0156Z" stroke="#0B2343" stroke-miterlimit="10" stroke-linecap="round" stroke-linejoin="round"/>
</svg>
