<svg xmlns="http://www.w3.org/2000/svg" viewBox="0 0 15.2 21.51"><g id="Layer_2" data-name="Layer 2"><g id="Layer_1-2" data-name="Layer 1"><path d="M14.25,15.77H.86A.88.88,0,0,1,0,14.88V13a.9.9,0,0,1,.55-.83C4.64,10.49,5.33,9.8,5.44,9.58V9A5.18,5.18,0,0,1,4.39,7a1.55,1.55,0,0,1-.52-1A1.7,1.7,0,0,1,4.12,4.9V3.31A3.1,3.1,0,0,1,7.55,0C9.73,0,11,1.21,11,3.31V4.9A1.64,1.64,0,0,1,10.71,7a5.18,5.18,0,0,1-1,2v.56c.11.22.8.92,4.89,2.57a.89.89,0,0,1,.55.83v1.9A.88.88,0,0,1,14.25,15.77ZM7.55.7A2.4,2.4,0,0,0,4.83,3.31V5a.34.34,0,0,1-.08.21.92.92,0,0,0-.18.7.83.83,0,0,0,.34.59A.41.41,0,0,1,5,6.71,4.43,4.43,0,0,0,6,8.64a.37.37,0,0,1,.1.24v.77a.44.44,0,0,1,0,.1C6,10.25,5.22,11,.81,12.8A.19.19,0,0,0,.7,13v1.9a.19.19,0,0,0,.16.19H14.25a.19.19,0,0,0,.16-.19V13a.19.19,0,0,0-.11-.18h0C9.86,11,9.13,10.23,9,9.75a.44.44,0,0,1,0-.1V8.88a.37.37,0,0,1,.1-.24,4.36,4.36,0,0,0,1-1.93.43.43,0,0,1,.14-.19.91.91,0,0,0,.34-.59.93.93,0,0,0-.19-.7A.33.33,0,0,1,10.28,5V3.31C10.28,2.12,9.8.7,7.55.7Z"/><path d="M20.77,15.78H17a.35.35,0,0,1,0-.7h3.76A.13.13,0,0,0,20.9,15V13.24a.13.13,0,0,0-.09-.13A16.76,16.76,0,0,0,18,12.38c-1.23-.23-2-.38-2.21-.93a.43.43,0,0,1,0-.11v-1a.35.35,0,0,1,.35-.35,6.41,6.41,0,0,0,2.5-.44,10.78,10.78,0,0,1-1-4,3.36,3.36,0,0,0-1.91-3.07,2.86,2.86,0,0,0-3.1.32.35.35,0,0,1-.44-.55A3.56,3.56,0,0,1,16,1.89a4,4,0,0,1,2.3,3.67c.14,1.61.56,3.53,1,3.79a.36.36,0,0,1,.18.28.34.34,0,0,1-.13.3,5.25,5.25,0,0,1-2.94.78v.54a5.58,5.58,0,0,0,1.66.45,17,17,0,0,1,3,.76.82.82,0,0,1,.54.78V15A.83.83,0,0,1,20.77,15.78Z"/></g></g></svg>