<svg width="22" height="22" viewBox="0 0 22 22" fill="none" xmlns="http://www.w3.org/2000/svg">
<path d="M14.6276 15.4232C12.3053 14.4857 9.73793 13.3173 9.52158 12.5962V11.8317C10.0048 11.3197 10.3798 10.5985 10.6034 9.75468C11.1443 9.35803 11.2741 8.54308 10.827 7.96613V6.26413C10.827 4.50443 9.88942 3.30005 7.7547 3.30005C5.67047 3.30005 4.67522 4.50443 4.67522 6.26413V7.96613C4.22808 8.54308 4.36506 9.35803 4.89874 9.75468C5.12231 10.5985 5.50455 11.3124 5.98774 11.8317V12.5962C5.77139 13.3173 3.19678 14.4857 0.881767 15.4232C0.687046 15.5025 0.550049 15.7045 0.550049 15.928V17.832C0.550049 18.1277 0.780801 18.3729 1.06206 18.3729H14.4473C14.7285 18.3729 14.9594 18.1277 14.9594 17.832V15.928C14.9594 15.7045 14.8295 15.5025 14.6276 15.4232Z" stroke="#0B2343" stroke-width="0.7" stroke-miterlimit="10" stroke-linecap="round" stroke-linejoin="round"/>
<path d="M17.2094 18.3801H20.9668C21.2336 18.3801 21.45 18.1638 21.45 17.8969V16.1877C21.45 15.9858 21.3274 15.8055 21.1399 15.7334C18.9402 14.8968 16.5026 14.9401 16.2935 14.291V13.3174C18.4859 13.3102 19.3585 12.6106 19.3585 12.6106C18.4426 12.0986 18.1541 8.51429 18.1541 8.51429C18.1541 5.52857 14.779 3.74002 12.5721 5.51415" stroke="#0B2343" stroke-width="0.7" stroke-miterlimit="10" stroke-linecap="round" stroke-linejoin="round"/>
</svg>
