<svg xmlns="http://www.w3.org/2000/svg" viewBox="0 0 15.2 21.51"><g id="Layer_2" data-name="Layer 2"><g id="My_trips" data-name="My trips"><path d="M7.64,0h0L7.34,0C3.81.15.08,2.85,0,6.84c-.06,3.07,2.56,6.08,3.69,7.23s3,2.64,3.91,2.64l.18,0c1-.15,2.56-1.42,3.73-2.61s3.75-4.16,3.68-7.23C15.12,2.77,11.24,0,7.64,0ZM7.25.73V15.78c-1.15-1-3.88-5.22-3.83-8.93C3.46,3.44,5.4,1,7.25.73ZM8,15.78V.73c1.84.28,3.79,2.72,3.82,6.12C11.82,10.56,9.08,14.78,8,15.78ZM.7,6.86A6.31,6.31,0,0,1,4.86,1.27,7.9,7.9,0,0,0,2.72,6.84a15,15,0,0,0,2.84,8,16.09,16.09,0,0,1-1.37-1.25C3.12,12.49.65,9.66.7,6.86ZM11,13.58a14.72,14.72,0,0,1-1.38,1.25,14.9,14.9,0,0,0,2.84-8,7.86,7.86,0,0,0-2.15-5.59,6.35,6.35,0,0,1,4.18,5.6C14.55,9.66,12.08,12.49,11,13.58Z"/><path d="M9,18.7H6.19a.34.34,0,0,0-.26.12.33.33,0,0,0-.09.27l.25,2.11a.35.35,0,0,0,.35.31H8.76a.35.35,0,0,0,.35-.31l.24-2.11a.36.36,0,0,0-.08-.27A.34.34,0,0,0,9,18.7Zm-.56,2.11H6.75L6.58,19.4h2Z"/></g></g></svg>