<?xml version="1.0" encoding="utf-8"?>
<!-- Generator: Adobe Illustrator 22.0.1, SVG Export Plug-In . SVG Version: 6.00 Build 0)  -->
<svg version="1.1" id="Layer_1" xmlns="http://www.w3.org/2000/svg" xmlns:xlink="http://www.w3.org/1999/xlink" x="0px" y="0px"
	 viewBox="0 0 30 30" style="enable-background:new 0 0 30 30;" xml:space="preserve">
<style type="text/css">
	.st0{fill:#272425;}
</style>
<g>
	<g>
		<g>
			<path class="st0" d="M15,8.4c-0.3,0-0.5-0.2-0.5-0.5V3.1c0-0.3,0.2-0.5,0.5-0.5s0.5,0.2,0.5,0.5v4.8C15.5,8.2,15.3,8.4,15,8.4z"
				/>
		</g>
		<g>
			<path class="st0" d="M22.1,11.4c-0.1,0-0.2,0-0.3-0.1c-0.2-0.2-0.2-0.5,0-0.7l3.7-3.9c0.2-0.2,0.5-0.2,0.7,0
				c0.2,0.2,0.2,0.5,0,0.7l-3.7,3.9C22.4,11.3,22.3,11.4,22.1,11.4z"/>
		</g>
		<g>
			<path class="st0" d="M7.9,11.4c-0.1,0-0.3-0.1-0.4-0.2L3.8,7.4c-0.2-0.2-0.2-0.5,0-0.7c0.2-0.2,0.5-0.2,0.7,0l3.7,3.9
				c0.2,0.2,0.2,0.5,0,0.7C8.1,11.4,8,11.4,7.9,11.4z"/>
		</g>
	</g>
	<g>
		<g>
			<path class="st0" d="M4.3,27.4c-0.3,0-0.6-0.2-0.7-0.5c-0.1-0.3,0-0.7,0.3-0.8L4.1,26l-3.3-2.3c-0.1-0.1-0.2-0.3-0.2-0.4
				c0-0.2,0.1-0.3,0.2-0.4l0.9-0.5c0.1-0.1,0.2-0.1,0.4-0.1c1,0.2,1.8,0.4,2.6,0.6c2.7,0.6,3.4,0.8,4.5,0.2l4-2.3l-4.6-4.2
				c-0.1-0.1-0.2-0.3-0.2-0.4s0.1-0.3,0.2-0.4l0.5-0.3c0.1-0.1,0.3-0.1,0.4,0l8,2.8l4.8-2.7c0.4-0.2,4.3-2.4,6.4-1.6
				c0.6,0.2,0.7,0.6,0.7,0.8c0.1,1.1-2.3,2.7-3.3,3.3l-12.9,7.4C13,25.6,10.3,26.6,4.3,27.4C4.4,27.4,4.3,27.4,4.3,27.4z M4.3,26.4
				C4.3,26.4,4.3,26.4,4.3,26.4C4.3,26.4,4.3,26.4,4.3,26.4z M2,23.4l3.3,2.3c0.1,0.1,0.2,0.3,0.2,0.4c0,0.1,0,0.1,0,0.2
				c4.9-0.7,7.3-1.7,7.3-1.7l12.8-7.4c1.4-0.8,2.7-1.9,2.8-2.3c0,0,0,0-0.1,0c-1.4-0.5-4.5,0.9-5.6,1.5l-5,2.9
				c-0.1,0.1-0.3,0.1-0.4,0l-7.2-2.5l4.9,4.5c0.2,0.2,0.2,0.5,0,0.7c-0.2,0.2-0.5,0.2-0.7,0l-0.5-0.5L9.6,24
				c-1.4,0.8-2.4,0.6-5.2-0.1C3.8,23.7,3,23.6,2,23.4L2,23.4z"/>
		</g>
		<g>
			<path class="st0" d="M19.4,26.6c-0.1,0-0.2,0-0.3-0.1l-1.8-1.7c-0.2-0.2-0.2-0.5,0-0.7c0.2-0.2,0.5-0.2,0.7,0l1.5,1.4l0.3-0.2
				l0.3-2.7c0-0.3,0.3-0.5,0.6-0.4c0.3,0,0.5,0.3,0.4,0.6l-0.3,2.9c0,0.1-0.1,0.3-0.2,0.3l-0.8,0.6C19.6,26.6,19.5,26.6,19.4,26.6z"
				/>
		</g>
	</g>
</g>
</svg>
