<?xml version="1.0" encoding="utf-8"?>
<!-- Generator: Adobe Illustrator 19.2.0, SVG Export Plug-In . SVG Version: 6.00 Build 0)  -->
<svg version="1.1" id="Layer_1" xmlns="http://www.w3.org/2000/svg" xmlns:xlink="http://www.w3.org/1999/xlink" x="0px" y="0px"
	 viewBox="0 0 50 50" enable-background="new 0 0 50 50" xml:space="preserve">
<g>
	<g>
		<path fill="#231F20" d="M25,50C11.2,50,0,38.8,0,25C0,11.2,11.2,0,25,0s25,11.2,25,25C50,38.8,38.8,50,25,50z M25,1.7
			C12.1,1.7,1.7,12.1,1.7,25c0,12.9,10.5,23.3,23.3,23.3c12.9,0,23.3-10.5,23.3-23.3C48.3,12.1,37.9,1.7,25,1.7z"/>
	</g>
	<g>
		<path fill="#231F20" d="M24,39.3c-0.5,0-0.8-0.4-0.8-0.8v-0.8c0-0.5,0.4-0.8,0.8-0.8c0.5,0,0.8,0.4,0.8,0.8v0.8
			C24.9,39,24.5,39.3,24,39.3z"/>
	</g>
	<g>
		<path fill="#231F20" d="M24,33.1c-0.5,0-0.8-0.4-0.8-0.8v-4.6c0-1.1,0.7-2,1.7-2.4c4.7-1.7,7-3.9,7-6.7c0-3.7-3.5-6.7-7.7-6.7
			c-2.8,0-5.4,1.3-6.7,3.4c-0.3,0.4-0.8,0.5-1.2,0.2c-0.4-0.3-0.5-0.8-0.2-1.2c1.7-2.6,4.8-4.2,8.1-4.2c5.2,0,9.4,3.7,9.4,8.4
			c0,3.6-2.7,6.4-8.2,8.3c-0.3,0.1-0.6,0.4-0.6,0.8v4.6C24.9,32.8,24.5,33.1,24,33.1z"/>
	</g>
</g>
</svg>
