<svg viewBox="0 0 40 40" fill="none" xmlns="http://www.w3.org/2000/svg">
<path d="M32.5754 19.5074C32.5754 12.3042 26.7361 6.46478 19.5329 6.46478C12.3296 6.46478 6.49023 12.3042 6.49023 19.5074C6.49023 26.7107 12.3296 32.55 19.5329 32.55C26.7361 32.55 32.5754 26.7107 32.5754 19.5074Z" stroke="#0B2343" stroke-width="0.878788" stroke-linecap="round" stroke-linejoin="round"/>
<path d="M19.5649 6.45004C23.1672 6.45004 26.0906 12.2879 26.0906 19.4925C26.0906 26.6971 23.1672 32.5349 19.5649 32.5349" stroke="#0B2343" stroke-width="0.878788" stroke-linecap="round" stroke-linejoin="round"/>
<path d="M19.4562 6.45004C15.854 6.45004 12.9304 12.2879 12.9304 19.4925C12.9304 26.6971 15.854 32.5349 19.4562 32.5349" stroke="#0B2343" stroke-width="0.878788" stroke-linecap="round" stroke-linejoin="round"/>
<path d="M19.0128 6.45004V32.5349" stroke="#0B2343" stroke-width="0.878788" stroke-linecap="round" stroke-linejoin="round"/>
<path d="M32.5258 20.0179H6.45007" stroke="#0B2343" stroke-width="0.878788" stroke-linecap="round" stroke-linejoin="round"/>
<path d="M31.5484 14.4965H7.44568" stroke="#0B2343" stroke-width="0.878788" stroke-linecap="round" stroke-linejoin="round"/>
<path d="M31.1139 25.4301H7.88" stroke="#0B2343" stroke-width="0.878788" stroke-linecap="round" stroke-linejoin="round"/>
</svg>
