<svg width="40" height="40" viewBox="0 0 40 40" fill="none" xmlns="http://www.w3.org/2000/svg">
<path d="M32.7344 7.27011C25.7076 0.243296 14.2844 0.243296 7.27011 7.27011C0.243296 14.2969 0.243296 25.7203 7.27011 32.7346C14.2969 39.7614 25.7201 39.7489 32.7344 32.7346C39.7487 25.7078 39.7487 14.2844 32.7344 7.27011Z" stroke="#0B2343" stroke-miterlimit="10" stroke-linecap="round" stroke-linejoin="round"/>
<path d="M32.7345 32.7346L7.2576 7.27014" stroke="#0B2343" stroke-miterlimit="10" stroke-linecap="round" stroke-linejoin="round"/>
<path d="M2.76091 25.2192C2.76091 23.5158 3.12416 20.5848 4.96541 18.6308C7.35779 16.1507 14.6602 19.2195 18.3803 16.7144C18.994 16.301 19.4449 15.5621 19.9334 14.5725C20.4094 13.583 20.9229 12.3806 21.6619 11.103C22.9396 8.89846 25.4697 9.06126 26.4968 10.6019C26.9853 11.4411 28.3506 11.1531 29.2775 11.4537C29.5155 11.5289 29.7033 11.7292 29.7033 12.0298C29.7033 12.0925 29.3652 14.3596 29.3652 14.3596C29.3652 14.56 29.2524 14.7102 29.1647 14.7979C28.9267 15.0234 28.5259 15.1737 28.2128 15.2864C28.0124 15.3491 27.8119 15.3617 27.574 15.3617C27.1982 15.3617 26.2839 15.3241 26.2338 15.3366C26.2338 15.3491 26.2338 15.3491 26.2338 15.3617C26.2338 15.4368 26.2087 16.2885 25.9457 16.6142C25.5323 17.1152 25.0313 18.7935 25.0313 19.4699C25.0188 19.9334 24.2046 23.2778 24.1796 23.5032C24.0794 24.1546 23.2652 25.4822 23.2402 25.5073C23.1775 25.9081 23.165 27.2484 23.165 27.2484C23.165 27.6993 23.3404 30.5801 23.4656 31.1438C23.6034 31.6824 24.4551 32.2335 24.4551 32.2335C24.5303 32.3462 24.5428 32.8848 24.5428 32.8848C24.5052 33.1604 24.3173 33.3733 24.1294 33.4735C23.6159 33.7616 22.1254 33.5988 22.0377 33.5111C21.6619 33.1479 21.4991 32.1208 21.4365 31.6072C21.3613 31.4193 21.0607 30.718 20.7476 29.9414C20.3844 29.027 19.9961 28.0374 19.8708 27.6115C19.7831 27.3109 19.6454 26.8976 19.4199 26.597C19.1944 26.2964 18.2425 26.1335 18.0421 26.2086C17.278 26.4842 16.1131 26.597 14.8981 26.597C13.4452 26.597 11.9672 26.4342 11.1279 26.1336C10.7271 25.9833 10.3765 25.9206 10.0884 25.9206C9.43706 25.9206 9.14897 26.2338 9.07382 26.7348C8.96109 27.4362 8.43498 27.8997 7.93395 28.313C7.43293 28.7138 5.5917 30.3671 5.44139 30.6051" stroke="#0B2343" stroke-miterlimit="10" stroke-linecap="round" stroke-linejoin="round"/>
</svg>
