<svg width="40" height="40" viewBox="0 0 40 40" fill="none" xmlns="http://www.w3.org/2000/svg">
<path d="M32.7344 7.27011C25.7076 0.243296 14.2844 0.243296 7.27011 7.27011C0.243296 14.2969 0.243296 25.7203 7.27011 32.7346C14.2969 39.7614 25.7201 39.7489 32.7344 32.7346C39.7487 25.7203 39.7487 14.2844 32.7344 7.27011Z" stroke="#0B2343" stroke-miterlimit="10" stroke-linecap="round" stroke-linejoin="round"/>
<path d="M32.7344 32.7346L7.25757 7.27014" stroke="#0B2343" stroke-miterlimit="10" stroke-linecap="round" stroke-linejoin="round"/>
<path d="M30.0666 9.625C30.0666 9.625 28.5885 10.0634 30.4799 12.9568C32.3712 15.8502 30.4799 16.0255 30.4799 16.0255" stroke="#0B2343" stroke-miterlimit="10" stroke-linecap="round" stroke-linejoin="round"/>
<path d="M27.1231 12.3806C27.1231 12.3806 26.2839 12.6311 27.3611 14.272C28.4383 15.9128 27.3611 16.013 27.3611 16.013" stroke="#0B2343" stroke-miterlimit="10" stroke-linecap="round" stroke-linejoin="round"/>
<path d="M31.9454 19.4199H8.07178V24.4427H31.9454V19.4199Z" stroke="#0B2343" stroke-miterlimit="10" stroke-linecap="round" stroke-linejoin="round"/>
<path d="M29.4278 19.4199V24.4552" stroke="#0B2343" stroke-miterlimit="10" stroke-linecap="round" stroke-linejoin="round"/>
</svg>
