<svg width="40" height="40" viewBox="0 0 40 40" fill="none" xmlns="http://www.w3.org/2000/svg">
<path d="M20 4C11.1778 4 4 11.1778 4 20C4 28.8222 11.1778 36 20 36C28.8222 36 35.9999 28.8222 35.9999 20C35.9999 11.1778 28.8222 4 20 4Z" stroke="#0B2343" stroke-miterlimit="10" stroke-linecap="round" stroke-linejoin="round"/>
<path d="M8.67772 31.3111L31.311 8.68896" stroke="#0B2343" stroke-miterlimit="10" stroke-linecap="round" stroke-linejoin="round"/>
<path d="M19.1333 14.6777C16.6 13.5555 16.2 11.8888 15.3444 10.3444C15.3333 10.3222 15.3111 9.89995 15.2111 9.81106C15.1666 9.76662 15.0555 9.82228 15.0333 9.77783C14.9444 9.62228 14.8666 9.4667 14.7888 9.34448L13.9778 9.81106L13.1667 10.2778C13.2444 10.4111 13.3222 10.5556 13.4222 10.7111C13.4444 10.7556 13.3555 10.8223 13.3666 10.8778C13.3999 11.0112 13.7445 11.2445 13.7556 11.2667C14.6556 12.7778 15.8999 13.9667 15.5999 16.7111C15.3777 18.6667 15.8777 19.5333 15.8777 19.5333L22.411 30.8999C22.9333 31.811 28.4999 28.611 27.9777 27.6999L21.4444 16.3333C21.4333 16.3444 20.9333 15.4777 19.1333 14.6777Z" stroke="#0B2343" stroke-miterlimit="10" stroke-linecap="round" stroke-linejoin="round"/>
<path d="M23.6045 20.2509L18.0467 23.4462L20.8433 28.3104L26.4011 25.1151L23.6045 20.2509Z" stroke="#0B2343" stroke-miterlimit="10" stroke-linecap="round" stroke-linejoin="round"/>
</svg>
