<svg width="40" height="40" viewBox="0 0 40 40" fill="none" xmlns="http://www.w3.org/2000/svg">
<path d="M20.6667 10.0443V30.3109" stroke="#0B2343" stroke-linecap="round" stroke-linejoin="round"/>
<path d="M22.8001 11.3779L20.6667 12.5779" stroke="#0B2343" stroke-linecap="round" stroke-linejoin="round"/>
<path d="M22.8001 14.178L20.6667 15.3779" stroke="#0B2343" stroke-linecap="round" stroke-linejoin="round"/>
<path d="M22.8001 16.9888L20.6667 18.1887" stroke="#0B2343" stroke-linecap="round" stroke-linejoin="round"/>
<path d="M22.8001 19.778L20.6667 20.989" stroke="#0B2343" stroke-linecap="round" stroke-linejoin="round"/>
<path d="M18.5333 12.8889L20.6667 14.0889" stroke="#0B2343" stroke-linecap="round" stroke-linejoin="round"/>
<path d="M18.5333 15.6777L20.6667 16.8777" stroke="#0B2343" stroke-linecap="round" stroke-linejoin="round"/>
<path d="M18.5333 18.5L20.6667 19.6999" stroke="#0B2343" stroke-linecap="round" stroke-linejoin="round"/>
<path d="M18.1333 20.9889L20.6667 22.4889" stroke="#0B2343" stroke-linecap="round" stroke-linejoin="round"/>
<path d="M10.9445 10.5891C10.9445 10.5891 14.5 16.078 13.8111 30.3113" stroke="#0B2343" stroke-linecap="round" stroke-linejoin="round"/>
<path d="M13.9001 11.5668L12.1667 13.489" stroke="#0B2343" stroke-linecap="round" stroke-linejoin="round"/>
<path d="M14.6222 14.178L12.8111 15.8669" stroke="#0B2343" stroke-linecap="round" stroke-linejoin="round"/>
<path d="M15.2333 16.8776L13.3111 18.4999" stroke="#0B2343" stroke-linecap="round" stroke-linejoin="round"/>
<path d="M15.7333 19.6998L13.7888 21.1221" stroke="#0B2343" stroke-linecap="round" stroke-linejoin="round"/>
<path d="M9.74451 13.6777L12.4222 14.489" stroke="#0B2343" stroke-linecap="round" stroke-linejoin="round"/>
<path d="M10.3889 16.2778L13.1 17.1889" stroke="#0B2343" stroke-linecap="round" stroke-linejoin="round"/>
<path d="M10.9445 18.8112L13.5111 19.9556" stroke="#0B2343" stroke-linecap="round" stroke-linejoin="round"/>
<path d="M11.2556 21.4001L13.7667 22.6557" stroke="#0B2343" stroke-linecap="round" stroke-linejoin="round"/>
<path d="M30.1113 10.5891C30.1113 10.5891 26.5558 16.078 27.2447 30.3113" stroke="#0B2343" stroke-linecap="round" stroke-linejoin="round"/>
<path d="M27.1556 11.5668L28.889 13.489" stroke="#0B2343" stroke-linecap="round" stroke-linejoin="round"/>
<path d="M26.4335 14.178L28.278 15.6779" stroke="#0B2343" stroke-linecap="round" stroke-linejoin="round"/>
<path d="M25.8112 16.8776L27.7445 18.4999" stroke="#0B2343" stroke-linecap="round" stroke-linejoin="round"/>
<path d="M25.3224 19.6998L27.2668 21.1221" stroke="#0B2343" stroke-linecap="round" stroke-linejoin="round"/>
<path d="M31.3111 13.6777L28.6335 14.5333" stroke="#0B2343" stroke-linecap="round" stroke-linejoin="round"/>
<path d="M30.6667 16.2778L27.9444 17.1889" stroke="#0B2343" stroke-linecap="round" stroke-linejoin="round"/>
<path d="M30.1113 18.8112L27.5446 19.9556" stroke="#0B2343" stroke-linecap="round" stroke-linejoin="round"/>
<path d="M29.8002 21.4001L27.378 22.7112" stroke="#0B2343" stroke-linecap="round" stroke-linejoin="round"/>
<path d="M20.0001 4C11.1778 4 4 11.1778 4 20C4 28.8222 11.1778 36 20.0001 36C28.8223 36 36 28.8222 36 20C36 11.1778 28.8223 4 20.0001 4Z" stroke="#0B2343" stroke-miterlimit="10" stroke-linecap="round" stroke-linejoin="round"/>
<path d="M8.67773 31.311L31.3111 8.68884" stroke="#0B2343" stroke-miterlimit="10" stroke-linecap="round" stroke-linejoin="round"/>
</svg>
