<svg width="40" height="40" viewBox="0 0 40 40" fill="none" xmlns="http://www.w3.org/2000/svg">
<path d="M32.7344 7.27011C25.7076 0.243296 14.2844 0.243296 7.27011 7.27011C0.243296 14.2969 0.243296 25.7203 7.27011 32.7346C14.2969 39.7614 25.7201 39.7489 32.7344 32.7346C39.7487 25.7078 39.7487 14.2844 32.7344 7.27011Z" stroke="#0B2343" stroke-miterlimit="10" stroke-linecap="round" stroke-linejoin="round"/>
<path d="M32.7344 32.7346L7.25757 7.27014" stroke="#0B2343" stroke-miterlimit="10" stroke-linecap="round" stroke-linejoin="round"/>
<path d="M30.6678 16.9149H11.2908V15.8877C11.2908 15.0234 12.0925 14.3094 13.082 14.3094H29.7659C30.2669 14.3094 30.6678 14.6602 30.6678 15.0986V16.9149Z" stroke="#0B2343" stroke-miterlimit="10" stroke-linecap="round" stroke-linejoin="round"/>
<path d="M19.5827 20.0588C19.5827 20.0588 19.3823 21.3113 19.6704 21.6745" stroke="#0B2343" stroke-miterlimit="10" stroke-linecap="round" stroke-linejoin="round"/>
<path d="M29.4027 14.3094V13.4703" stroke="#0B2343" stroke-miterlimit="10" stroke-linecap="round" stroke-linejoin="round"/>
<path d="M12.2427 19.1193C12.2427 19.1193 12.7312 20.6599 12.3053 21.5367C12.3053 21.5367 10.1384 26.0209 10.1384 27.286C10.1384 28.0876 10.7898 28.2003 10.7898 28.2003C10.8775 28.2129 15.4367 28.1627 15.4367 28.1627C14.9106 28.0124 15.4117 26.2714 15.9503 26.4091C15.4242 26.2588 15.9252 24.5177 16.4638 24.6555C15.9377 24.5052 16.4388 22.7643 16.9774 22.9021L18.017 20.0962L28.1627 19.7582V19.1068" stroke="#0B2343" stroke-miterlimit="10" stroke-linecap="round" stroke-linejoin="round"/>
<path d="M22.5136 19.9585V21.6619C22.5136 22.3884 21.8873 22.9772 21.1483 22.9396L16.9899 22.9145" stroke="#0B2343" stroke-miterlimit="10" stroke-linecap="round" stroke-linejoin="round"/>
</svg>
