<svg width="40" height="40" viewBox="0 0 40 40" fill="none" xmlns="http://www.w3.org/2000/svg">
<path d="M20 4C11.1778 4 4 11.1778 4 20C4 28.8222 11.1778 36 20 36C28.8222 36 35.9999 28.8222 35.9999 20C35.9999 11.1778 28.8222 4 20 4Z" stroke="#0B2343" stroke-miterlimit="10" stroke-linecap="round" stroke-linejoin="round"/>
<path d="M8.67772 31.311L31.311 8.68884" stroke="#0B2343" stroke-miterlimit="10" stroke-linecap="round" stroke-linejoin="round"/>
<path d="M22.8 18.3889C22.8 19.5889 23.4778 20.0665 24.3 20.0665C25.1333 20.0665 25.8 20.1 25.8 18.9L25.0444 10.2777C24.9555 8.98886 24.5555 8.3999 23.7222 8.3999C22.8889 8.3999 22.7889 9.36665 22.7889 10.5666V18.3889H22.8Z" stroke="#0B2343" stroke-miterlimit="10" stroke-linecap="round" stroke-linejoin="round"/>
<path d="M22.8 10.1332V30.5776" stroke="#0B2343" stroke-miterlimit="10" stroke-linecap="round" stroke-linejoin="round"/>
<path d="M16.1111 16.4003V30.578" stroke="#0B2343" stroke-miterlimit="10" stroke-linecap="round" stroke-linejoin="round"/>
<path d="M16.1111 8.50012V12.9112" stroke="#0B2343" stroke-miterlimit="10" stroke-linecap="round" stroke-linejoin="round"/>
<path d="M18.3556 8.50012V12.9889" stroke="#0B2343" stroke-miterlimit="10" stroke-linecap="round" stroke-linejoin="round"/>
<path d="M13.8778 8.50012V12.9889" stroke="#0B2343" stroke-miterlimit="10" stroke-linecap="round" stroke-linejoin="round"/>
<path d="M16.6556 16.4H15.5888C14.6444 16.4 13.8778 15.6333 13.8778 14.6889V12.9H18.3556V14.6889C18.3556 15.6444 17.5889 16.4 16.6556 16.4Z" stroke="#0B2343" stroke-miterlimit="10" stroke-linecap="round" stroke-linejoin="round"/>
</svg>
