<?xml version="1.0" encoding="utf-8"?>
<!-- Generator: Adobe Illustrator 19.2.1, SVG Export Plug-In . SVG Version: 6.00 Build 0)  -->
<svg version="1.1" id="Layer_1" xmlns="http://www.w3.org/2000/svg" xmlns:xlink="http://www.w3.org/1999/xlink" x="0px" y="0px"
	 viewBox="0 0 31.9 30" enable-background="new 0 0 31.9 30" xml:space="preserve">
<path fill="#231F20" d="M31.9,21l-2.9-5c0,0,0,0,0,0c0,0,0,0-0.1-0.1c0,0,0,0-0.1-0.1c0,0-0.1,0-0.1,0c0,0,0,0-0.1,0c0,0,0,0,0,0
	c0,0,0,0,0,0c0,0,0,0,0,0c0,0-0.1,0-0.1,0c0,0,0,0,0,0c0,0-0.1,0-0.1,0l-4.7,3c-0.2,0.1-0.3,0.4-0.1,0.7c0.1,0.2,0.4,0.3,0.7,0.1
	l3.8-2.4c-0.5,3.4-2.2,6.4-4.8,8.6c-2.7,2.3-6.2,3.4-9.7,3.1c-3-0.3-5.8-1.6-7.9-3.5l5.9-5.5c0.8,0.5,1.7,0.8,2.4,0.9v1.6
	c0,0.3,0.2,0.5,0.5,0.5s0.5-0.2,0.5-0.5v-1.6c1.7-0.2,3-1.5,3-3.1c0-1.1-0.7-1.9-1.5-2.4l15-14c0.2-0.2,0.2-0.5,0-0.7
	c-0.2-0.2-0.5-0.2-0.7,0l-5,4.7c0-0.1,0-0.1-0.1-0.1c-2.5-3-6-4.8-9.8-5.1C12-0.3,8.3,0.9,5.3,3.4C2.3,6,0.4,9.6,0.1,13.7
	c-0.4,4.5,1.2,8.7,4.1,11.7l-3.5,3.3c-0.2,0.2-0.2,0.5,0,0.7c0.1,0.1,0.2,0.2,0.4,0.2c0.1,0,0.2,0,0.3-0.1l3.5-3.3
	c2.3,2.1,5.2,3.5,8.5,3.8c0.4,0,0.8,0.1,1.3,0.1c3.4,0,6.6-1.2,9.2-3.4c2.7-2.3,4.5-5.4,5.1-8.9l2.2,3.7c0.1,0.2,0.3,0.2,0.4,0.2
	c0.1,0,0.2,0,0.2-0.1C31.9,21.5,32,21.2,31.9,21z M12.2,19.2l1.7-1.6v2.2C13.3,19.8,12.7,19.5,12.2,19.2z M16.9,17.7
	c0,1.1-0.9,2-2,2.2v-3.2l0.8-0.7C16.5,16.5,16.9,17,16.9,17.7z M13.9,14.3c-1.4-0.6-2-1.1-2-2c0-1.1,0.9-2,2-2.2V14.3z M1,13.8
	C1.3,10,3.1,6.5,6,4.1c2.7-2.3,6.2-3.4,9.7-3.1c3.5,0.3,6.8,2,9.1,4.8c0,0.1,0.1,0.1,0.2,0.1l-9.5,8.9c-0.2-0.1-0.4-0.1-0.6-0.2
	v-4.5c0.7,0.1,1.3,0.5,1.7,1.1c0.1,0.2,0.4,0.3,0.7,0.1c0.2-0.1,0.3-0.4,0.1-0.7c-0.5-0.8-1.5-1.4-2.5-1.6V7.6
	c0-0.3-0.2-0.5-0.5-0.5s-0.5,0.2-0.5,0.5v1.6c-1.7,0.2-3,1.5-3,3.1c0,1.7,1.5,2.5,3,3v1l-2.5,2.3c0,0-0.1,0-0.1-0.1
	c-0.2-0.2-0.5-0.2-0.7,0c-0.2,0.2-0.2,0.5,0,0.7c0,0,0,0,0,0l-5.8,5.5C2.2,21.9,0.7,18,1,13.8z"/>
</svg>
