<svg width="40" height="40" viewBox="0 0 40 40" fill="none" xmlns="http://www.w3.org/2000/svg">
<path d="M19.05 19.79H27.05" stroke="#0B2343" stroke-linecap="round" stroke-linejoin="round"/>
<path d="M13.99 6V11.27" stroke="#0B2343" stroke-linecap="round" stroke-linejoin="round"/>
<path d="M19.96 6V11.27" stroke="#0B2343" stroke-linecap="round" stroke-linejoin="round"/>
<path d="M15.45 12.18C15.45 12.98 14.8 13.63 13.99 13.63C13.19 13.63 12.53 12.98 12.53 12.18C12.53 11.38 13.18 10.73 13.99 10.73C14.8 10.74 15.45 11.38 15.45 12.18Z" stroke="#0B2343" stroke-linecap="round" stroke-linejoin="round"/>
<path d="M26.05 6V11.27" stroke="#0B2343" stroke-linecap="round" stroke-linejoin="round"/>
<path d="M27.5 12.18C27.5 12.98 26.85 13.63 26.04 13.63C25.24 13.63 24.58 12.98 24.58 12.18C24.58 11.38 25.23 10.73 26.04 10.73C26.85 10.74 27.5 11.38 27.5 12.18Z" stroke="#0B2343" stroke-linecap="round" stroke-linejoin="round"/>
<path d="M21.41 12.18C21.41 12.98 20.76 13.63 19.95 13.63C19.15 13.63 18.49 12.98 18.49 12.18C18.49 11.38 19.14 10.73 19.95 10.73C20.76 10.74 21.41 11.38 21.41 12.18Z" stroke="#0B2343" stroke-linecap="round" stroke-linejoin="round"/>
<path d="M31 7.79999H9V34.8H31V7.79999Z" stroke="#0B2343" stroke-linecap="round" stroke-linejoin="round"/>
<path d="M15.12 18.73H13.02V20.84H15.12V18.73Z" stroke="#0B2343" stroke-linecap="round" stroke-linejoin="round"/>
<path d="M19.05 24.79H27.05" stroke="#0B2343" stroke-linecap="round" stroke-linejoin="round"/>
<path d="M15.12 23.73H13.02V25.84H15.12V23.73Z" stroke="#0B2343" stroke-linecap="round" stroke-linejoin="round"/>
<path d="M19.05 29.79H27.05" stroke="#0B2343" stroke-linecap="round" stroke-linejoin="round"/>
<path d="M15.12 28.73H13.02V30.84H15.12V28.73Z" stroke="#0B2343" stroke-linecap="round" stroke-linejoin="round"/>
</svg>
