<svg width="40" height="40" viewBox="0 0 40 40" fill="none" xmlns="http://www.w3.org/2000/svg">
<path d="M28.52 24.46C26.44 23.66 24.13 22.66 23.93 22.03V21.3799C24.36 20.9399 24.7 20.3199 24.9 19.5999C25.38 19.2599 25.51 18.5601 25.1 18.0701V16.6099C25.1 15.0999 24.26 14.0701 22.34 14.0701C20.47 14.0701 19.58 15.0999 19.58 16.6099V18.0701C19.18 18.5601 19.3 19.2599 19.78 19.5999C19.98 20.3199 20.32 20.9399 20.75 21.3799V22.03C20.56 22.65 18.25 23.65 16.16 24.46C15.98 24.53 15.87 24.6999 15.87 24.8899V26.52C15.87 26.78 16.08 26.98 16.33 26.98H28.34C28.59 26.98 28.8 26.77 28.8 26.52V24.8899C28.82 24.6999 28.7 24.53 28.52 24.46Z" stroke="#0B2343" stroke-miterlimit="10" stroke-linecap="round" stroke-linejoin="round"/>
<path d="M8 30.99H11.87" stroke="#0B2343" stroke-miterlimit="10" stroke-linecap="round" stroke-linejoin="round"/>
<path d="M8 26.99H11.87" stroke="#0B2343" stroke-miterlimit="10" stroke-linecap="round" stroke-linejoin="round"/>
<path d="M8 22.99H11.87" stroke="#0B2343" stroke-miterlimit="10" stroke-linecap="round" stroke-linejoin="round"/>
<path d="M8 18.99H11.87" stroke="#0B2343" stroke-miterlimit="10" stroke-linecap="round" stroke-linejoin="round"/>
<path d="M8 14.99H11.87" stroke="#0B2343" stroke-miterlimit="10" stroke-linecap="round" stroke-linejoin="round"/>
<path d="M8 10.99H11.87" stroke="#0B2343" stroke-miterlimit="10" stroke-linecap="round" stroke-linejoin="round"/>
<path d="M31.36 35H12.36C11.53 35 10.86 34.33 10.86 33.5V7.5C10.86 6.67 11.53 6 12.36 6H31.36C32.19 6 32.86 6.67 32.86 7.5V33.5C32.86 34.32 32.19 35 31.36 35Z" stroke="#0B2343" stroke-miterlimit="10" stroke-linecap="round" stroke-linejoin="round"/>
</svg>
