<svg width="40" height="40" viewBox="0 0 40 40" fill="none" xmlns="http://www.w3.org/2000/svg">
<path d="M24.5399 22.95C24.4799 22.77 24.33 22.6801 24.02 22.7801C23.96 22.8001 22.7899 23.19 22.7299 23.19C21.6399 23.2 20.14 18.25 21.06 17.91L22.4 17.47C22.57 17.41 22.67 17.2201 22.61 17.0501L21.1399 12.5801C21.0399 12.2601 20.78 12.35 20.52 12.44C18.51 13.1 15.4699 13.4601 18.1999 21.7601C20.9199 30.0301 23.53 28.6901 25.84 27.8101C26.01 27.7501 26.0899 27.5699 26.0399 27.3999L24.5399 22.95Z" stroke="#0B2343" stroke-miterlimit="10" stroke-linecap="round" stroke-linejoin="round"/>
<path d="M8 30.99H11.87" stroke="#0B2343" stroke-miterlimit="10" stroke-linecap="round" stroke-linejoin="round"/>
<path d="M8 26.99H11.87" stroke="#0B2343" stroke-miterlimit="10" stroke-linecap="round" stroke-linejoin="round"/>
<path d="M8 22.99H11.87" stroke="#0B2343" stroke-miterlimit="10" stroke-linecap="round" stroke-linejoin="round"/>
<path d="M8 18.99H11.87" stroke="#0B2343" stroke-miterlimit="10" stroke-linecap="round" stroke-linejoin="round"/>
<path d="M8 14.99H11.87" stroke="#0B2343" stroke-miterlimit="10" stroke-linecap="round" stroke-linejoin="round"/>
<path d="M8 10.99H11.87" stroke="#0B2343" stroke-miterlimit="10" stroke-linecap="round" stroke-linejoin="round"/>
<path d="M31.36 35H12.36C11.53 35 10.86 34.33 10.86 33.5V7.5C10.86 6.67 11.53 6 12.36 6H31.36C32.19 6 32.86 6.67 32.86 7.5V33.5C32.86 34.32 32.19 35 31.36 35Z" stroke="#0B2343" stroke-miterlimit="10" stroke-linecap="round" stroke-linejoin="round"/>
</svg>
