<svg width="25" height="25" viewBox="0 0 25 25" fill="none" xmlns="http://www.w3.org/2000/svg">
<path d="M11.7256 24.3405C13.487 24.3405 14.9603 23.0849 15.2987 21.423H8.15259C8.49111 23.0849 9.96448 24.3405 11.7256 24.3405V24.3405Z" stroke="#0B2343"/>
<path d="M20.9253 19.0001L20.9253 18.9999C21.0177 18.5547 20.8615 18.1126 20.5131 17.8197C19.108 16.6417 18.2513 14.9579 18.0756 13.156C14.2589 12.919 11.2257 9.73884 11.2257 5.86262C11.2257 5.01399 11.3751 4.20143 11.6435 3.44559C8.19788 3.48959 5.41816 6.29638 5.41816 9.75264V12.464C5.41816 14.5358 4.51015 16.4916 2.91958 17.8369C2.57264 18.1337 2.41749 18.606 2.54341 19.0719L20.9253 19.0001ZM20.9253 19.0001C20.8134 19.5406 20.2713 19.9504 19.6372 19.9504H3.80947C3.20496 19.9504 2.68073 19.5786 2.54346 19.0721L20.9253 19.0001Z" stroke="#0B2343"/>
<path d="M22.8958 5.86265C22.8958 8.27202 20.9427 10.2251 18.5331 10.2251C16.1237 10.2251 14.1707 8.27203 14.1707 5.86265C14.1707 3.45324 16.1238 1.5 18.5331 1.5C20.9427 1.5 22.8958 3.45326 22.8958 5.86265Z" stroke="#0B2343"/>
</svg>
