<svg width="40" height="40" viewBox="0 0 40 40" fill="none" xmlns="http://www.w3.org/2000/svg">
<path d="M18.9096 33.1816C20.8853 33.1816 22.538 31.7732 22.9175 29.9089H14.9016C15.2813 31.7732 16.934 33.1816 18.9096 33.1816V33.1816Z" stroke="#0B2343"/>
<path d="M11.2733 16.8182H11.7733C11.7733 12.8768 14.9684 9.68201 18.9095 9.68201C19.1369 9.68201 19.3641 9.6951 19.5922 9.71673L19.5922 9.71685L19.6031 9.71764C21.3594 9.84552 22.8292 10.8196 23.8857 12.1858C24.9453 13.556 25.5593 15.2856 25.611 16.8367L25.6118 16.8614L25.6151 16.886L25.9079 19.088L26.0103 19.8582L26.0396 20.0782L26.0474 20.1366L26.0494 20.1517L26.0499 20.1555L26.05 20.1564L26.05 20.1567L26.05 20.1567L26.0665 20.2804C26.1802 22.417 27.1516 24.4339 28.8056 25.8205C29.2132 26.1632 29.3966 26.6817 29.2884 27.2034L29.2884 27.2036C29.156 27.8429 28.5189 28.318 27.7839 28.318H10.0297C9.32908 28.318 8.71323 27.8871 8.55086 27.2879L11.2733 16.8182ZM11.2733 16.8182L11.7733 16.8182M11.2733 16.8182L11.7733 16.8182M11.7733 19.8469V19.8595C11.7733 22.1656 10.7627 24.3425 8.99219 25.8399C8.58516 26.1881 8.40334 26.742 8.55081 27.2877L11.7733 19.8469ZM11.7733 19.8469V19.8343M11.7733 19.8469V19.8343M11.7733 19.8343V19.8217M11.7733 19.8343V19.8217M11.7733 19.8217V19.8092M11.7733 19.8217V19.8092M11.7733 19.8092V19.7966M11.7733 19.8092V19.7966M11.7733 19.7966V19.7842M11.7733 19.7966V19.7842M11.7733 19.7842V19.7717M11.7733 19.7842V19.7717M11.7733 19.7717V19.7593M11.7733 19.7717V19.7593M11.7733 19.7593V19.7469M11.7733 19.7593V19.7469M11.7733 19.7469V19.7345M11.7733 19.7469V19.7345M11.7733 19.7345V19.7221M11.7733 19.7345V19.7221M11.7733 19.7221V19.7098M11.7733 19.7221V19.7098M11.7733 19.7098V19.6975M11.7733 19.7098V19.6975M11.7733 19.6975V19.6853M11.7733 19.6975V19.6853M11.7733 19.6853V19.6731M11.7733 19.6853V19.6731M11.7733 19.6731V19.6609M11.7733 19.6731V19.6609M11.7733 19.6609V19.6487M11.7733 19.6609V19.6487M11.7733 19.6487V19.6366M11.7733 19.6487V19.6366M11.7733 19.6366V19.6244M11.7733 19.6366V19.6244M11.7733 19.6244V19.6124M11.7733 19.6244V19.6124M11.7733 19.6124V19.6003M11.7733 19.6124V19.6003M11.7733 19.6003V19.5883M11.7733 19.6003V19.5883M11.7733 19.5883V19.5763M11.7733 19.5883V19.5763M11.7733 19.5763V19.5643M11.7733 19.5763V19.5643M11.7733 19.5643V19.5524M11.7733 19.5643V19.5524M11.7733 19.5524V19.5405M11.7733 19.5524V19.5405M11.7733 19.5405V19.5286M11.7733 19.5405V19.5286M11.7733 19.5286V19.5167M11.7733 19.5286V19.5167M11.7733 19.5167V19.5049M11.7733 19.5167V19.5049M11.7733 19.5049V19.4931M11.7733 19.5049V19.4931M11.7733 19.4931V19.4813M11.7733 19.4931V19.4813M11.7733 19.4813V19.4696M11.7733 19.4813V19.4696M11.7733 19.4696V19.4579M11.7733 19.4696V19.4579M11.7733 19.4579V19.4462M11.7733 19.4579V19.4462M11.7733 19.4462V19.4346M11.7733 19.4462V19.4346M11.7733 19.4346V19.4229M11.7733 19.4346V19.4229M11.7733 19.4229V19.4113M11.7733 19.4229V19.4113M11.7733 19.4113V19.3998M11.7733 19.4113V19.3998M11.7733 19.3998V19.3882M11.7733 19.3998V19.3882M11.7733 19.3882V19.3767M11.7733 19.3882V19.3767M11.7733 19.3767V19.3652M11.7733 19.3767V19.3652M11.7733 19.3652V19.3538M11.7733 19.3652V19.3538M11.7733 19.3538V19.3424M11.7733 19.3538V19.3424M11.7733 19.3424V19.331M11.7733 19.3424V19.331M11.7733 19.331V19.3196M11.7733 19.331V19.3196M11.7733 19.3196V19.3083M11.7733 19.3196V19.3083M11.7733 19.3083V19.297M11.7733 19.3083V19.297M11.7733 19.297V19.2857M11.7733 19.297V19.2857M11.7733 19.2857V19.2744M11.7733 19.2857V19.2744M11.7733 19.2744V19.2632M11.7733 19.2744V19.2632M11.7733 19.2632V19.252M11.7733 19.2632V19.252M11.7733 19.252V19.2408M11.7733 19.252V19.2408M11.7733 19.2408V19.2297M11.7733 19.2408V19.2297M11.7733 19.2297V19.2186M11.7733 19.2297V19.2186M11.7733 19.2186V19.2075M11.7733 19.2186V19.2075M11.7733 19.2075V19.1964M11.7733 19.2075V19.1964M11.7733 19.1964V19.1854M11.7733 19.1964V19.1854M11.7733 19.1854V19.1744M11.7733 19.1854V19.1744M11.7733 19.1744V19.1634M11.7733 19.1744V19.1634M11.7733 19.1634V19.1525M11.7733 19.1634V19.1525M11.7733 19.1525V19.1416M11.7733 19.1525V19.1416M11.7733 19.1416V19.1307M11.7733 19.1416V19.1307M11.7733 19.1307V19.1198M11.7733 19.1307V19.1198M11.7733 19.1198V19.109M11.7733 19.1198V19.109M11.7733 19.109V19.0982M11.7733 19.109V19.0982M11.7733 19.0982V19.0874M11.7733 19.0982V19.0874M11.7733 19.0874V19.0767M11.7733 19.0874V19.0767M11.7733 19.0767V19.066M11.7733 19.0767V19.066M11.7733 19.066V19.0553M11.7733 19.066V19.0553M11.7733 19.0553V19.0446M11.7733 19.0553V19.0446M11.7733 19.0446V19.034M11.7733 19.0446V19.034M11.7733 19.034V19.0234M11.7733 19.034V19.0234M11.7733 19.0234V19.0128M11.7733 19.0234V19.0128M11.7733 19.0128V19.0023M11.7733 19.0128V19.0023M11.7733 19.0023V18.9917M11.7733 19.0023V18.9917M11.7733 18.9917V18.9812M11.7733 18.9917V18.9812M11.7733 18.9812V18.9708M11.7733 18.9812V18.9708M11.7733 18.9708V18.9603M11.7733 18.9708V18.9603M11.7733 18.9603V18.9499M11.7733 18.9603V18.9499M11.7733 18.9499V18.9395M11.7733 18.9499V18.9395M11.7733 18.9395V18.9292M11.7733 18.9395V18.9292M11.7733 18.9292V18.9189M11.7733 18.9292V18.9189M11.7733 18.9189V18.9086M11.7733 18.9189V18.9086M11.7733 18.9086V18.8983M11.7733 18.9086V18.8983M11.7733 18.8983V18.888M11.7733 18.8983V18.888M11.7733 18.888V18.8778M11.7733 18.888V18.8778M11.7733 18.8778V18.8676M11.7733 18.8778V18.8676M11.7733 18.8676V18.8575M11.7733 18.8676V18.8575M11.7733 18.8575V18.8473M11.7733 18.8575V18.8473M11.7733 18.8473V18.8372M11.7733 18.8473V18.8372M11.7733 18.8372V18.8272M11.7733 18.8372V18.8272M11.7733 18.8272V18.8171M11.7733 18.8272V18.8171M11.7733 18.8171V18.8071M11.7733 18.8171V18.8071M11.7733 18.8071V18.7971M11.7733 18.8071V18.7971M11.7733 18.7971V18.7871M11.7733 18.7971V18.7871M11.7733 18.7871V18.7772M11.7733 18.7871V18.7772M11.7733 18.7772V18.7673M11.7733 18.7772V18.7673M11.7733 18.7673V18.7574M11.7733 18.7673V18.7574M11.7733 18.7574V18.7475M11.7733 18.7574V18.7475M11.7733 18.7475V18.7377M11.7733 18.7475V18.7377M11.7733 18.7377V18.7279M11.7733 18.7377V18.7279M11.7733 18.7279V18.7181M11.7733 18.7279V18.7181M11.7733 18.7181V18.7084M11.7733 18.7181V18.7084M11.7733 18.7084V18.6987M11.7733 18.7084V18.6987M11.7733 18.6987V18.689M11.7733 18.6987V18.689M11.7733 18.689V18.6793M11.7733 18.689V18.6793M11.7733 18.6793V18.6697M11.7733 18.6793V18.6697M11.7733 18.6697V18.66M11.7733 18.6697V18.66M11.7733 18.66V18.6505M11.7733 18.66V18.6505M11.7733 18.6505V18.6409M11.7733 18.6505V18.6409M11.7733 18.6409V18.6314M11.7733 18.6409V18.6314M11.7733 18.6314V18.6219M11.7733 18.6314V18.6219M11.7733 18.6219V18.6124M11.7733 18.6219V18.6124M11.7733 18.6124V18.603M11.7733 18.6124V18.603M11.7733 18.603V18.5935M11.7733 18.603V18.5935M11.7733 18.5935V18.5841M11.7733 18.5935V18.5841M11.7733 18.5841V18.5748M11.7733 18.5841V18.5748M11.7733 18.5748V18.5654M11.7733 18.5748V18.5654M11.7733 18.5654V18.5561M11.7733 18.5654V18.5561M11.7733 18.5561V18.5468M11.7733 18.5561V18.5468M11.7733 18.5468V18.5376M11.7733 18.5468V18.5376M11.7733 18.5376V18.5284M11.7733 18.5376V18.5284M11.7733 18.5284V18.5192M11.7733 18.5284V18.5192M11.7733 18.5192V18.51M11.7733 18.5192V18.51M11.7733 18.51V18.5008M11.7733 18.51V18.5008M11.7733 18.5008V18.4917M11.7733 18.5008V18.4917M11.7733 18.4917V18.4826M11.7733 18.4917V18.4826M11.7733 18.4826V18.4735M11.7733 18.4826V18.4735M11.7733 18.4735V18.4645M11.7733 18.4735V18.4645M11.7733 18.4645V18.4555M11.7733 18.4645V18.4555M11.7733 18.4555V18.4465M11.7733 18.4555V18.4465M11.7733 18.4465V18.4375M11.7733 18.4465V18.4375M11.7733 18.4375V18.4286M11.7733 18.4375V18.4286M11.7733 18.4286V18.4197M11.7733 18.4286V18.4197M11.7733 18.4197V18.4108M11.7733 18.4197V18.4108M11.7733 18.4108V18.402M11.7733 18.4108V18.402M11.7733 18.402V18.3931M11.7733 18.402V18.3931M11.7733 18.3931V18.3843M11.7733 18.3931V18.3843M11.7733 18.3843V18.3756M11.7733 18.3843V18.3756M11.7733 18.3756V18.3668M11.7733 18.3756V18.3668M11.7733 18.3668V18.3581M11.7733 18.3668V18.3581M11.7733 18.3581V18.3494M11.7733 18.3581V18.3494M11.7733 18.3494V18.3407M11.7733 18.3494V18.3407M11.7733 18.3407V18.3321M11.7733 18.3407V18.3321M11.7733 18.3321V18.3235M11.7733 18.3321V18.3235M11.7733 18.3235V18.3149M11.7733 18.3235V18.3149M11.7733 18.3149V18.3064M11.7733 18.3149V18.3064M11.7733 18.3064V18.2978M11.7733 18.3064V18.2978M11.7733 18.2978V18.2893M11.7733 18.2978V18.2893M11.7733 18.2893V18.2808M11.7733 18.2893V18.2808M11.7733 18.2808V18.2724M11.7733 18.2808V18.2724M11.7733 18.2724V18.264M11.7733 18.2724V18.264M11.7733 18.264V18.2556M11.7733 18.264V18.2556M11.7733 18.2556V18.2472M11.7733 18.2556V18.2472M11.7733 18.2472V18.2388M11.7733 18.2472V18.2388M11.7733 18.2388V18.2305M11.7733 18.2388V18.2305M11.7733 18.2305V18.2222M11.7733 18.2305V18.2222M11.7733 18.2222V18.214M11.7733 18.2222V18.214M11.7733 18.214V18.2057M11.7733 18.214V18.2057M11.7733 18.2057V18.1975M11.7733 18.2057V18.1975M11.7733 18.1975V18.1893M11.7733 18.1975V18.1893M11.7733 18.1893V18.1812M11.7733 18.1893V18.1812M11.7733 18.1812V18.173M11.7733 18.1812V18.173M11.7733 18.173V18.1649M11.7733 18.173V18.1649M11.7733 18.1649V18.1568M11.7733 18.1649V18.1568M11.7733 18.1568V18.1488M11.7733 18.1568V18.1488M11.7733 18.1488V18.1407M11.7733 18.1488V18.1407M11.7733 18.1407V18.1327M11.7733 18.1407V18.1327M11.7733 18.1327V18.1248M11.7733 18.1327V18.1248M11.7733 18.1248V18.1168M11.7733 18.1248V18.1168M11.7733 18.1168V18.1089M11.7733 18.1168V18.1089M11.7733 18.1089V18.101M11.7733 18.1089V18.101M11.7733 18.101V18.0931M11.7733 18.101V18.0931M11.7733 18.0931V18.0853M11.7733 18.0931V18.0853M11.7733 18.0853V18.0775M11.7733 18.0853V18.0775M11.7733 18.0775V18.0697M11.7733 18.0775V18.0697M11.7733 18.0697V18.0619M11.7733 18.0697V18.0619M11.7733 18.0619V18.0542M11.7733 18.0619V18.0542M11.7733 18.0542V18.0464M11.7733 18.0542V18.0464M11.7733 18.0464V18.0387M11.7733 18.0464V18.0387M11.7733 18.0387V18.0311M11.7733 18.0387V18.0311M11.7733 18.0311V18.0234M11.7733 18.0311V18.0234M11.7733 18.0234V18.0158M11.7733 18.0234V18.0158M11.7733 18.0158V18.0082M11.7733 18.0158V18.0082M11.7733 18.0082V18.0007M11.7733 18.0082V18.0007M11.7733 18.0007V17.9932M11.7733 18.0007V17.9932M11.7733 17.9932V17.9856M11.7733 17.9932V17.9856M11.7733 17.9856V17.9782M11.7733 17.9856V17.9782M11.7733 17.9782V17.9707M11.7733 17.9782V17.9707M11.7733 17.9707V17.9633M11.7733 17.9707V17.9633M11.7733 17.9633V17.9559M11.7733 17.9633V17.9559M11.7733 17.9559V17.9485M11.7733 17.9559V17.9485M11.7733 17.9485V17.9411M11.7733 17.9485V17.9411M11.7733 17.9411V17.9338M11.7733 17.9411V17.9338M11.7733 17.9338V17.9265M11.7733 17.9338V17.9265M11.7733 17.9265V17.9192M11.7733 17.9265V17.9192M11.7733 17.9192V17.912M11.7733 17.9192V17.912M11.7733 17.912V17.9048M11.7733 17.912V17.9048M11.7733 17.9048V17.8976M11.7733 17.9048V17.8976M11.7733 17.8976V17.8904M11.7733 17.8976V17.8904M11.7733 17.8904V17.8833M11.7733 17.8904V17.8833M11.7733 17.8833V17.8761M11.7733 17.8833V17.8761M11.7733 17.8761V17.869M11.7733 17.8761V17.869M11.7733 17.869V17.862M11.7733 17.869V17.862M11.7733 17.862V17.8549M11.7733 17.862V17.8549M11.7733 17.8549V17.8479M11.7733 17.8549V17.8479M11.7733 17.8479V17.8409M11.7733 17.8479V17.8409M11.7733 17.8409V17.834M11.7733 17.8409V17.834M11.7733 17.834V17.827M11.7733 17.834V17.827M11.7733 17.827V17.8201M11.7733 17.827V17.8201M11.7733 17.8201V17.8132M11.7733 17.8201V17.8132M11.7733 17.8132V17.8063M11.7733 17.8132V17.8063M11.7733 17.8063V17.7995M11.7733 17.8063V17.7995M11.7733 17.7995V17.7927M11.7733 17.7995V17.7927M11.7733 17.7927V17.7859M11.7733 17.7927V17.7859M11.7733 17.7859V17.7791M11.7733 17.7859V17.7791M11.7733 17.7791V17.7724M11.7733 17.7791V17.7724M11.7733 17.7724V17.7657M11.7733 17.7724V17.7657M11.7733 17.7657V17.759M11.7733 17.7657V17.759M11.7733 17.759V17.7523M11.7733 17.759V17.7523M11.7733 17.7523V17.7457M11.7733 17.7523V17.7457M11.7733 17.7457V17.7391M11.7733 17.7457V17.7391M11.7733 17.7391V17.7325M11.7733 17.7391V17.7325M11.7733 17.7325V17.7259M11.7733 17.7325V17.7259M11.7733 17.7259V17.7194M11.7733 17.7259V17.7194M11.7733 17.7194V17.7129M11.7733 17.7194V17.7129M11.7733 17.7129V17.7064M11.7733 17.7129V17.7064M11.7733 17.7064V17.7M11.7733 17.7064V17.7M11.7733 17.7V17.6935M11.7733 17.7V17.6935M11.7733 17.6935V17.6871M11.7733 17.6935V17.6871M11.7733 17.6871V17.6807M11.7733 17.6871V17.6807M11.7733 17.6807V17.6744M11.7733 17.6807V17.6744M11.7733 17.6744V17.668M11.7733 17.6744V17.668M11.7733 17.668V17.6617M11.7733 17.668V17.6617M11.7733 17.6617V17.6554M11.7733 17.6617V17.6554M11.7733 17.6554V17.6492M11.7733 17.6554V17.6492M11.7733 17.6492V17.643M11.7733 17.6492V17.643M11.7733 17.643V17.6368M11.7733 17.643V17.6368M11.7733 17.6368V17.6306M11.7733 17.6368V17.6306M11.7733 17.6306V17.6244M11.7733 17.6306V17.6244M11.7733 17.6244V17.6183M11.7733 17.6244V17.6183M11.7733 17.6183V17.6122M11.7733 17.6183V17.6122M11.7733 17.6122V17.6061M11.7733 17.6122V17.6061M11.7733 17.6061V17.6M11.7733 17.6061V17.6M11.7733 17.6V17.594M11.7733 17.6V17.594M11.7733 17.594V17.588M11.7733 17.594V17.588M11.7733 17.588V17.582M11.7733 17.588V17.582M11.7733 17.582V17.576M11.7733 17.582V17.576M11.7733 17.576V17.5701M11.7733 17.576V17.5701M11.7733 17.5701V17.5642M11.7733 17.5701V17.5642M11.7733 17.5642V17.5583M11.7733 17.5642V17.5583M11.7733 17.5583V17.5525M11.7733 17.5583V17.5525M11.7733 17.5525V17.5466M11.7733 17.5525V17.5466M11.7733 17.5466V17.5408M11.7733 17.5466V17.5408M11.7733 17.5408V17.535M11.7733 17.5408V17.535M11.7733 17.535V17.5293M11.7733 17.535V17.5293M11.7733 17.5293V17.5235M11.7733 17.5293V17.5235M11.7733 17.5235V17.5178M11.7733 17.5235V17.5178M11.7733 17.5178V17.5121M11.7733 17.5178V17.5121M11.7733 17.5121V17.5065M11.7733 17.5121V17.5065M11.7733 17.5065V17.5008M11.7733 17.5065V17.5008M11.7733 17.5008V17.4952M11.7733 17.5008V17.4952M11.7733 17.4952V17.4896M11.7733 17.4952V17.4896M11.7733 17.4896V17.4841M11.7733 17.4896V17.4841M11.7733 17.4841V17.4785M11.7733 17.4841V17.4785M11.7733 17.4785V17.473M11.7733 17.4785V17.473M11.7733 17.473V17.4675M11.7733 17.473V17.4675M11.7733 17.4675V17.4621M11.7733 17.4675V17.4621M11.7733 17.4621V17.4566M11.7733 17.4621V17.4566M11.7733 17.4566V17.4512M11.7733 17.4566V17.4512M11.7733 17.4512V17.4458M11.7733 17.4512V17.4458M11.7733 17.4458V17.4405M11.7733 17.4458V17.4405M11.7733 17.4405V17.4351M11.7733 17.4405V17.4351M11.7733 17.4351V17.4298M11.7733 17.4351V17.4298M11.7733 17.4298V17.4245M11.7733 17.4298V17.4245M11.7733 17.4245V17.4192M11.7733 17.4245V17.4192M11.7733 17.4192V17.414M11.7733 17.4192V17.414M11.7733 17.414V17.4088M11.7733 17.414V17.4088M11.7733 17.4088V17.4036M11.7733 17.4088V17.4036M11.7733 17.4036V17.3984M11.7733 17.4036V17.3984M11.7733 17.3984V17.3933M11.7733 17.3984V17.3933M11.7733 17.3933V17.3881M11.7733 17.3933V17.3881M11.7733 17.3881V17.383M11.7733 17.3881V17.383M11.7733 17.383V17.378M11.7733 17.383V17.378M11.7733 17.378V17.3729M11.7733 17.378V17.3729M11.7733 17.3729V17.3679M11.7733 17.3729V17.3679M11.7733 17.3679V17.3629M11.7733 17.3679V17.3629M11.7733 17.3629V17.3579M11.7733 17.3629V17.3579M11.7733 17.3579V17.3529M11.7733 17.3579V17.3529M11.7733 17.3529V17.348M11.7733 17.3529V17.348M11.7733 17.348V17.3431M11.7733 17.348V17.3431M11.7733 17.3431V17.3382M11.7733 17.3431V17.3382M11.7733 17.3382V17.3334M11.7733 17.3382V17.3334M11.7733 17.3334V17.3285M11.7733 17.3334V17.3285M11.7733 17.3285V17.3237M11.7733 17.3285V17.3237M11.7733 17.3237V17.3189M11.7733 17.3237V17.3189M11.7733 17.3189V17.3142M11.7733 17.3189V17.3142M11.7733 17.3142V17.3094M11.7733 17.3142V17.3094M11.7733 17.3094V17.3047M11.7733 17.3094V17.3047M11.7733 17.3047V17.3M11.7733 17.3047V17.3M11.7733 17.3V17.2954M11.7733 17.3V17.2954M11.7733 17.2954V17.2907M11.7733 17.2954V17.2907M11.7733 17.2907V17.2861M11.7733 17.2907V17.2861M11.7733 17.2861V17.2815M11.7733 17.2861V17.2815M11.7733 17.2815V17.2769M11.7733 17.2815V17.2769M11.7733 17.2769V17.2724M11.7733 17.2769V17.2724M11.7733 17.2724V17.2679M11.7733 17.2724V17.2679M11.7733 17.2679V17.2634M11.7733 17.2679V17.2634M11.7733 17.2634V17.2589M11.7733 17.2634V17.2589M11.7733 17.2589V17.2544M11.7733 17.2589V17.2544M11.7733 17.2544V17.25M11.7733 17.2544V17.25M11.7733 17.25V17.2456M11.7733 17.25V17.2456M11.7733 17.2456V17.2412M11.7733 17.2456V17.2412M11.7733 17.2412V17.2369M11.7733 17.2412V17.2369M11.7733 17.2369V17.2325M11.7733 17.2369V17.2325M11.7733 17.2325V17.2282M11.7733 17.2325V17.2282M11.7733 17.2282V17.224M11.7733 17.2282V17.224M11.7733 17.224V17.2197M11.7733 17.224V17.2197M11.7733 17.2197V17.2155M11.7733 17.2197V17.2155M11.7733 17.2155V17.2112M11.7733 17.2155V17.2112M11.7733 17.2112V17.207M11.7733 17.2112V17.207M11.7733 17.207V17.2029M11.7733 17.207V17.2029M11.7733 17.2029V17.1987M11.7733 17.2029V17.1987M11.7733 17.1987V17.1946M11.7733 17.1987V17.1946M11.7733 17.1946V17.1905M11.7733 17.1946V17.1905M11.7733 17.1905V17.1864M11.7733 17.1905V17.1864M11.7733 17.1864V17.1824M11.7733 17.1864V17.1824M11.7733 17.1824V17.1784M11.7733 17.1824V17.1784M11.7733 17.1784V17.1744M11.7733 17.1784V17.1744M11.7733 17.1744V17.1704M11.7733 17.1744V17.1704M11.7733 17.1704V17.1664M11.7733 17.1704V17.1664M11.7733 17.1664V17.1625M11.7733 17.1664V17.1625M11.7733 17.1625V17.1586M11.7733 17.1625V17.1586M11.7733 17.1586V17.1547M11.7733 17.1586V17.1547M11.7733 17.1547V17.1508M11.7733 17.1547V17.1508M11.7733 17.1508V17.147M11.7733 17.1508V17.147M11.7733 17.147V17.1432M11.7733 17.147V17.1432M11.7733 17.1432V17.1394M11.7733 17.1432V17.1394M11.7733 17.1394V17.1356M11.7733 17.1394V17.1356M11.7733 17.1356V17.1319M11.7733 17.1356V17.1319M11.7733 17.1319V17.1282M11.7733 17.1319V17.1282M11.7733 17.1282V17.1245M11.7733 17.1282V17.1245M11.7733 17.1245V17.1208M11.7733 17.1245V17.1208M11.7733 17.1208V17.1171M11.7733 17.1208V17.1171M11.7733 17.1171V17.1135M11.7733 17.1171V17.1135M11.7733 17.1135V17.1099M11.7733 17.1135V17.1099M11.7733 17.1099V17.1063M11.7733 17.1099V17.1063M11.7733 17.1063V17.1027M11.7733 17.1063V17.1027M11.7733 17.1027V17.0992M11.7733 17.1027V17.0992M11.7733 17.0992V17.0957M11.7733 17.0992V17.0957M11.7733 17.0957V17.0922M11.7733 17.0957V17.0922M11.7733 17.0922V17.0887M11.7733 17.0922V17.0887M11.7733 17.0887V17.0853M11.7733 17.0887V17.0853M11.7733 17.0853V17.0819M11.7733 17.0853V17.0819M11.7733 17.0819V17.0785M11.7733 17.0819V17.0785M11.7733 17.0785V17.0751M11.7733 17.0785V17.0751M11.7733 17.0751V17.0717M11.7733 17.0751V17.0717M11.7733 17.0717V17.0684M11.7733 17.0717V17.0684M11.7733 17.0684V17.0651M11.7733 17.0684V17.0651M11.7733 17.0651V17.0618M11.7733 17.0651V17.0618M11.7733 17.0618V17.0585M11.7733 17.0618V17.0585M11.7733 17.0585V17.0553M11.7733 17.0585V17.0553M11.7733 17.0553V17.0521M11.7733 17.0553V17.0521M11.7733 17.0521V17.0489M11.7733 17.0521V17.0489M11.7733 17.0489V17.0457M11.7733 17.0489V17.0457M11.7733 17.0457V17.0426M11.7733 17.0457V17.0426M11.7733 17.0426V17.0395M11.7733 17.0426V17.0395M11.7733 17.0395V17.0363M11.7733 17.0395V17.0363M11.7733 17.0363V17.0333M11.7733 17.0363V17.0333M11.7733 17.0333V17.0302M11.7733 17.0333V17.0302M11.7733 17.0302V17.0272M11.7733 17.0302V17.0272M11.7733 17.0272V17.0242M11.7733 17.0272V17.0242M11.7733 17.0242V17.0212M11.7733 17.0242V17.0212M11.7733 17.0212V17.0182M11.7733 17.0212V17.0182M11.7733 17.0182V17.0153M11.7733 17.0182V17.0153M11.7733 17.0153V17.0123M11.7733 17.0153V17.0123M11.7733 17.0123V17.0094M11.7733 17.0123V17.0094M11.7733 17.0094V17.0066M11.7733 17.0094V17.0066M11.7733 17.0066V17.0037M11.7733 17.0066V17.0037M11.7733 17.0037V17.0009M11.7733 17.0037V17.0009M11.7733 17.0009V16.9981M11.7733 17.0009V16.9981M11.7733 16.9981V16.9953M11.7733 16.9981V16.9953M11.7733 16.9953V16.9925M11.7733 16.9953V16.9925M11.7733 16.9925V16.9898M11.7733 16.9925V16.9898M11.7733 16.9898V16.9871M11.7733 16.9898V16.9871M11.7733 16.9871V16.9844M11.7733 16.9871V16.9844M11.7733 16.9844V16.9817M11.7733 16.9844V16.9817M11.7733 16.9817V16.9791M11.7733 16.9817V16.9791M11.7733 16.9791V16.9764M11.7733 16.9791V16.9764M11.7733 16.9764V16.9738M11.7733 16.9764V16.9738M11.7733 16.9738V16.9712M11.7733 16.9738V16.9712M11.7733 16.9712V16.9687M11.7733 16.9712V16.9687M11.7733 16.9687V16.9661M11.7733 16.9687V16.9661M11.7733 16.9661V16.9636M11.7733 16.9661V16.9636M11.7733 16.9636V16.9611M11.7733 16.9636V16.9611M11.7733 16.9611V16.9586M11.7733 16.9611V16.9586M11.7733 16.9586V16.9562M11.7733 16.9586V16.9562M11.7733 16.9562V16.9538M11.7733 16.9562V16.9538M11.7733 16.9538V16.9514M11.7733 16.9538V16.9514M11.7733 16.9514V16.949M11.7733 16.9514V16.949M11.7733 16.949V16.9466M11.7733 16.949V16.9466M11.7733 16.9466V16.9443M11.7733 16.9466V16.9443M11.7733 16.9443V16.942M11.7733 16.9443V16.942M11.7733 16.942V16.9397M11.7733 16.942V16.9397M11.7733 16.9397V16.9374M11.7733 16.9397V16.9374M11.7733 16.9374V16.9351M11.7733 16.9374V16.9351M11.7733 16.9351V16.9329M11.7733 16.9351V16.9329M11.7733 16.9329V16.9307M11.7733 16.9329V16.9307M11.7733 16.9307V16.9285M11.7733 16.9307V16.9285M11.7733 16.9285V16.9264M11.7733 16.9285V16.9264M11.7733 16.9264V16.9242M11.7733 16.9264V16.9242M11.7733 16.9242V16.9221M11.7733 16.9242V16.9221M11.7733 16.9221V16.92M11.7733 16.9221V16.92M11.7733 16.92V16.9179M11.7733 16.92V16.9179M11.7733 16.9179V16.9159M11.7733 16.9179V16.9159M11.7733 16.9159V16.9138M11.7733 16.9159V16.9138M11.7733 16.9138V16.9118M11.7733 16.9138V16.9118M11.7733 16.9118V16.9098M11.7733 16.9118V16.9098M11.7733 16.9098V16.9079M11.7733 16.9098V16.9079M11.7733 16.9079V16.9059M11.7733 16.9079V16.9059M11.7733 16.9059V16.904M11.7733 16.9059V16.904M11.7733 16.904V16.9021M11.7733 16.904V16.9021M11.7733 16.9021V16.9002M11.7733 16.9021V16.9002M11.7733 16.9002V16.8984M11.7733 16.9002V16.8984M11.7733 16.8984V16.8965M11.7733 16.8984V16.8965M11.7733 16.8965V16.8947M11.7733 16.8965V16.8947M11.7733 16.8947V16.8929M11.7733 16.8947V16.8929M11.7733 16.8929V16.8912M11.7733 16.8929V16.8912M11.7733 16.8912V16.8894M11.7733 16.8912V16.8894M11.7733 16.8894V16.8877M11.7733 16.8894V16.8877M11.7733 16.8877V16.886M11.7733 16.8877V16.886M11.7733 16.886V16.8843M11.7733 16.886V16.8843M11.7733 16.8843V16.8826M11.7733 16.8843V16.8826M11.7733 16.8826V16.881M11.7733 16.8826V16.881M11.7733 16.881V16.8794M11.7733 16.881V16.8794M11.7733 16.8794V16.8778M11.7733 16.8794V16.8778M11.7733 16.8778V16.8762M11.7733 16.8778V16.8762M11.7733 16.8762V16.8747M11.7733 16.8762V16.8747M11.7733 16.8747V16.8731M11.7733 16.8747V16.8731M11.7733 16.8731V16.8716M11.7733 16.8731V16.8716M11.7733 16.8716V16.8701M11.7733 16.8716V16.8701M11.7733 16.8701V16.8687M11.7733 16.8701V16.8687M11.7733 16.8687V16.8672M11.7733 16.8687V16.8672M11.7733 16.8672V16.8658M11.7733 16.8672V16.8658M11.7733 16.8658V16.8644M11.7733 16.8658V16.8644M11.7733 16.8644V16.863M11.7733 16.8644V16.863M11.7733 16.863V16.8616M11.7733 16.863V16.8616M11.7733 16.8616V16.8603M11.7733 16.8616V16.8603M11.7733 16.8603V16.859M11.7733 16.8603V16.859M11.7733 16.859V16.8577M11.7733 16.859V16.8577M11.7733 16.8577V16.8564M11.7733 16.8577V16.8564M11.7733 16.8564V16.8552M11.7733 16.8564V16.8552M11.7733 16.8552V16.8539M11.7733 16.8552V16.8539M11.7733 16.8539V16.8527M11.7733 16.8539V16.8527M11.7733 16.8527V16.8515M11.7733 16.8527V16.8515M11.7733 16.8515V16.8504M11.7733 16.8515V16.8504M11.7733 16.8504V16.8492M11.7733 16.8504V16.8492M11.7733 16.8492V16.8481M11.7733 16.8492V16.8481M11.7733 16.8481V16.847M11.7733 16.8481V16.847M11.7733 16.847V16.8459M11.7733 16.847V16.8459M11.7733 16.8459V16.8448M11.7733 16.8459V16.8448M11.7733 16.8448V16.8438M11.7733 16.8448V16.8438M11.7733 16.8438V16.8428M11.7733 16.8438V16.8428M11.7733 16.8428V16.8418M11.7733 16.8428V16.8418M11.7733 16.8418V16.8408M11.7733 16.8418V16.8408M11.7733 16.8408V16.8398M11.7733 16.8408V16.8398M11.7733 16.8398V16.8389M11.7733 16.8398V16.8389M11.7733 16.8389V16.838M11.7733 16.8389V16.838M11.7733 16.838V16.8371M11.7733 16.838V16.8371M11.7733 16.8371V16.8362M11.7733 16.8371V16.8362M11.7733 16.8362V16.8353M11.7733 16.8362V16.8353M11.7733 16.8353V16.8345M11.7733 16.8353V16.8345M11.7733 16.8345V16.8337M11.7733 16.8345V16.8337M11.7733 16.8337V16.8329M11.7733 16.8337V16.8329M11.7733 16.8329V16.8321M11.7733 16.8329V16.8321M11.7733 16.8321V16.8314M11.7733 16.8321V16.8314M11.7733 16.8314V16.8307M11.7733 16.8314V16.8307M11.7733 16.8307V16.83M11.7733 16.8307V16.83M11.7733 16.83V16.8293M11.7733 16.83V16.8293M11.7733 16.8293V16.8286M11.7733 16.8293V16.8286M11.7733 16.8286V16.828M11.7733 16.8286V16.828M11.7733 16.828V16.8273M11.7733 16.828V16.8273M11.7733 16.8273V16.8267M11.7733 16.8273V16.8267M11.7733 16.8267V16.8262M11.7733 16.8267V16.8262M11.7733 16.8262V16.8256M11.7733 16.8262V16.8256M11.7733 16.8256V16.825M11.7733 16.8256V16.825M11.7733 16.825V16.8245M11.7733 16.825V16.8245M11.7733 16.8245V16.824M11.7733 16.8245V16.824M11.7733 16.824V16.8235M11.7733 16.824V16.8235M11.7733 16.8235V16.8231M11.7733 16.8235V16.8231M11.7733 16.8231V16.8226M11.7733 16.8231V16.8226M11.7733 16.8226V16.8222M11.7733 16.8226V16.8222M11.7733 16.8222V16.8218M11.7733 16.8222V16.8218M11.7733 16.8218V16.8215M11.7733 16.8218V16.8215M11.7733 16.8215V16.8211M11.7733 16.8215V16.8211M11.7733 16.8211V16.8208M11.7733 16.8211V16.8208M11.7733 16.8208V16.8205M11.7733 16.8208V16.8205M11.7733 16.8205V16.8202M11.7733 16.8205V16.8202M11.7733 16.8202V16.8199M11.7733 16.8202V16.8199M11.7733 16.8199V16.8196M11.7733 16.8199V16.8196M11.7733 16.8196V16.8194M11.7733 16.8196V16.8194M11.7733 16.8194V16.8192M11.7733 16.8194V16.8192M11.7733 16.8192V16.819M11.7733 16.8192V16.819M11.7733 16.819V16.8188M11.7733 16.819V16.8188M11.7733 16.8188V16.8187M11.7733 16.8188V16.8187M11.7733 16.8187V16.8185M11.7733 16.8187V16.8185M11.7733 16.8185V16.8184M11.7733 16.8185V16.8184M11.7733 16.8184V16.8183M11.7733 16.8184V16.8183M11.7733 16.8183V16.8183M11.7733 16.8183V16.8183M11.7733 16.8183V16.8182M11.7733 16.8183V16.8182M11.7733 16.8182V16.8182M11.7733 16.8182V16.8182" stroke="#0B2343"/>
</svg>
