<svg width="40" height="40" viewBox="0 0 40 40" fill="none" xmlns="http://www.w3.org/2000/svg">
<path d="M18.9096 33.1815C20.8853 33.1815 22.538 31.7731 22.9175 29.9088H14.9016C15.2813 31.7731 16.934 33.1815 18.9096 33.1815V33.1815Z" stroke="#0B2343"/>
<path d="M29.2884 27.2035L29.2884 27.2033C29.3967 26.6814 29.2131 26.1628 28.8052 25.82C27.2284 24.498 26.2721 22.6033 26.0879 20.5781C21.8142 20.3399 18.4095 16.7878 18.4095 12.4546C18.4095 11.4792 18.5868 10.5466 18.9042 9.68195C14.9655 9.68481 11.7733 12.8785 11.7733 16.8181V19.8595C11.7733 22.1655 10.7627 24.3424 8.99219 25.8399C8.58516 26.188 8.40334 26.742 8.55081 27.2876L29.2884 27.2035ZM29.2884 27.2035C29.156 27.8428 28.5189 28.318 27.7839 28.318H10.0297C9.32908 28.318 8.71323 27.887 8.55086 27.2878L29.2884 27.2035Z" stroke="#0B2343"/>
<path d="M31.5 12.4546C31.5 15.1908 29.282 17.4089 26.5455 17.4089C23.8092 17.4089 21.5912 15.1908 21.5912 12.4546C21.5912 9.7183 23.8093 7.50006 26.5455 7.50006C29.2819 7.50006 31.5 9.71831 31.5 12.4546Z" stroke="#0B2343"/>
</svg>
