<svg width="40" height="40" viewBox="0 0 40 40" fill="none" xmlns="http://www.w3.org/2000/svg">
<path d="M18.9096 33.1815C20.8853 33.1815 22.538 31.7731 22.9175 29.9088H14.9016C15.2813 31.7731 16.934 33.1815 18.9096 33.1815V33.1815Z" stroke="#0B2343"/>
<path d="M29.2884 27.2036L29.2884 27.2034C29.3967 26.6815 29.2131 26.1629 28.8052 25.8201C27.2284 24.4981 26.2721 22.6033 26.0879 20.5781C21.8142 20.3399 18.4095 16.7879 18.4095 12.4547C18.4095 11.4793 18.5868 10.5467 18.9042 9.68201C14.9655 9.68487 11.7733 12.8786 11.7733 16.8182V19.8595C11.7733 22.1656 10.7627 24.3425 8.99219 25.8399C8.58516 26.1881 8.40334 26.742 8.55081 27.2877L29.2884 27.2036ZM29.2884 27.2036C29.156 27.8429 28.5189 28.318 27.7839 28.318H10.0297C9.32908 28.318 8.71323 27.8871 8.55086 27.2879L29.2884 27.2036Z" stroke="#0B2343"/>
<path d="M31.5 12.4545C31.5 15.1908 29.282 17.4088 26.5455 17.4088C23.8092 17.4088 21.5912 15.1908 21.5912 12.4545C21.5912 9.71824 23.8093 7.5 26.5455 7.5C29.2819 7.5 31.5 9.71825 31.5 12.4545Z" stroke="#0B2343"/>
</svg>
