<svg width="20" height="20" viewBox="0 0 20 20" fill="none" xmlns="http://www.w3.org/2000/svg">
<path fill-rule="evenodd" clip-rule="evenodd" d="M10 2C7.29402 2 5.10032 4.19357 5.10032 6.89968V8.85114C5.10032 8.90068 5.09954 8.95011 5.098 8.99944L5.0961 8.99924L5.09187 8.99892C5.07036 9.68905 4.90017 10.36 4.59805 10.9652C4.3318 11.4927 3.96486 11.9715 3.50968 12.3741C3.48804 12.3929 3.4662 12.4116 3.44416 12.4301C3.41262 12.4566 3.38262 12.4843 3.3542 12.5133C3.19102 12.6778 3.07902 12.884 3.02922 13.1078C3.01096 13.1897 3.00109 13.2738 3.00009 13.3592C2.99905 13.4456 3.00708 13.5332 3.02476 13.6207C3.02528 13.6233 3.0258 13.6259 3.02633 13.6284C3.02841 13.6385 3.03062 13.6484 3.03296 13.6584C3.0363 13.6727 3.0399 13.6869 3.04376 13.7012C3.19217 14.2493 3.73393 14.5993 4.30235 14.5993H15.6976C16.2661 14.5993 16.8078 14.2493 16.9562 13.7012C16.96 13.6874 16.9635 13.6736 16.9667 13.6597C16.9692 13.6494 16.9715 13.6389 16.9737 13.6284C16.9742 13.6259 16.9747 13.6233 16.9752 13.6207C16.9931 13.5324 17.0011 13.444 16.9999 13.3569C16.9955 13.039 16.8681 12.7375 16.6458 12.5133C16.6174 12.4843 16.5874 12.4566 16.5558 12.4301C16.5338 12.4116 16.512 12.3929 16.4903 12.3741C16.0351 11.9715 15.6682 11.4927 15.402 10.9652C15.0998 10.36 14.9296 9.68905 14.9081 8.99892L14.902 8.99944C14.9005 8.95012 14.8997 8.90068 14.8997 8.85114V6.89968C14.8997 4.19357 12.706 2 10 2Z" fill="white"/>
<path d="M10 17.3991C11.2677 17.3991 12.3282 16.4954 12.5717 15.2992H7.42835C7.672 16.4954 8.73245 17.3991 10 17.3991Z" fill="white"/>
</svg>
