<svg width="40" height="40" viewBox="0 0 40 40" fill="none" xmlns="http://www.w3.org/2000/svg">
<path d="M25.43 28.6098C24.37 27.4798 22.08 24.4799 22.27 19.7499C22.58 12.0399 9.85997 12.0499 10.16 19.7499C10.35 24.4799 8.05 27.4798 7 28.6098" stroke="#0B2343" stroke-miterlimit="10" stroke-linecap="round" stroke-linejoin="round"/>
<path d="M25.43 28.6099C20.4 32.6999 12.02 32.6999 7 28.6099" stroke="#0B2343" stroke-miterlimit="10" stroke-linecap="round" stroke-linejoin="round"/>
<path d="M14.14 33.0999C14.14 33.9999 15.07 34.74 16.21 34.74C17.35 34.74 18.29 33.9999 18.29 33.0999" stroke="#0B2343" stroke-miterlimit="10" stroke-linecap="round" stroke-linejoin="round"/>
<path d="M26.91 9.93994H33.85L26.63 16.97H33.85" stroke="#0B2343" stroke-miterlimit="10" stroke-linecap="round" stroke-linejoin="round"/>
<path d="M18.79 6H22.68L18.63 10.8999H22.68" stroke="#0B2343" stroke-miterlimit="10" stroke-linecap="round" stroke-linejoin="round"/>
<path d="M29.84 23.02H32.81L29.72 27H32.81" stroke="#0B2343" stroke-miterlimit="10" stroke-linecap="round" stroke-linejoin="round"/>
</svg>
