<svg width="40" height="40" viewBox="0 0 40 40" fill="none" xmlns="http://www.w3.org/2000/svg">
<path d="M14.28 29.3325C20.48 31.0825 27.78 30.0026 32.74 25.9626C31.4 24.5326 28.6 20.8826 28.43 15.1926" stroke="#0B2343" stroke-miterlimit="10" stroke-linecap="round" stroke-linejoin="round"/>
<path d="M27.31 9.50249C26.55 8.35249 25.49 7.5525 24.41 7.0125C21.76 5.6625 18.59 5.6625 15.94 7.0125C13.84 8.0825 11.78 10.0926 11.93 13.9026C12.19 20.3426 9.06 24.4327 7.62 25.9627C8.21 26.4427 8.84001 26.8825 9.51001 27.2925" stroke="#0B2343" stroke-miterlimit="10" stroke-linecap="round" stroke-linejoin="round"/>
<path d="M17.3601 32.0725C17.3601 33.3025 18.6301 34.3025 20.1901 34.3025C21.7501 34.3025 23.0201 33.3025 23.0201 32.0725" stroke="#0B2343" stroke-miterlimit="10" stroke-linecap="round" stroke-linejoin="round"/>
<path d="M6 34.2126L34.15 6.0625" stroke="#0B2343" stroke-miterlimit="10" stroke-linecap="round" stroke-linejoin="round"/>
</svg>
