<svg width="25" height="25" viewBox="0 0 25 25" fill="none" xmlns="http://www.w3.org/2000/svg">
<path d="M11.8967 24C13.5852 24 14.9976 22.7963 15.3219 21.2031H8.47144C8.79595 22.7963 10.2084 24 11.8967 24Z" fill="#0B2343"/>
<path d="M18.4337 12.8116C18.4299 12.8116 18.4262 12.8125 18.4224 12.8125C14.8248 12.8125 11.8964 9.88502 11.8964 6.2865C11.8964 5.29725 12.124 4.36211 12.5202 3.5212C12.315 3.50174 12.1071 3.48962 11.8964 3.48962C8.29229 3.48962 5.37045 6.41129 5.37045 10.0156V12.6148C5.37045 14.4598 4.56215 16.2014 3.14408 17.4003C2.67139 17.804 2.46159 18.4472 2.63128 19.0747C2.82896 19.8047 3.55054 20.2709 4.30763 20.2709H19.4806C20.2749 20.2709 21.0237 19.7562 21.1848 18.9778C21.3098 18.3755 21.0954 17.7741 20.6283 17.3816C19.2727 16.2452 18.4887 14.5754 18.4337 12.8116Z" fill="#0B2343"/>
<path d="M23.0841 6.28652C23.0841 8.86096 20.9972 10.9479 18.4226 10.9479C15.8481 10.9479 13.7612 8.86096 13.7612 6.28652C13.7612 3.71207 15.8481 1.625 18.4226 1.625C20.9972 1.625 23.0841 3.71207 23.0841 6.28652Z" fill="#0B2343"/>
</svg>
