<svg width="40" height="40" viewBox="0 0 40 40" fill="none" xmlns="http://www.w3.org/2000/svg">
<path d="M24.8108 17.43C22.9508 20.46 19.8607 22.44 16.3607 22.44C15.0207 22.44 13.7508 22.14 12.5808 21.62C12.2208 22.66 12.0107 23.8 12.0107 24.99C12.0107 30.09 15.6507 34.87 20.1407 34.87C24.6307 34.87 28.2708 30.09 28.2708 24.99C28.2708 21.85 26.9008 19.1 24.8108 17.43Z" stroke="#0B2343" stroke-miterlimit="10" stroke-linecap="round" stroke-linejoin="round"/>
<path d="M28.2708 31.4L31.6808 30.2C31.6808 30.2 35.4608 16.61 26.4208 11.84" stroke="#0B2343" stroke-miterlimit="10" stroke-linecap="round" stroke-linejoin="round"/>
<path d="M12.1608 31.4L8.75076 30.2C8.75076 30.2 5.11074 16.78 13.8607 11.9" stroke="#0B2343" stroke-miterlimit="10" stroke-linecap="round" stroke-linejoin="round"/>
<path d="M27.2008 9.35001C27.2008 7.50001 24.0407 6 20.1407 6C16.2407 6 13.0808 7.50001 13.0808 9.35001C13.0808 9.70001 14.5007 13.82 14.5007 13.82C15.0207 15.06 17.0207 15.3 20.1307 15.3C23.2407 15.3 25.2407 15.17 25.7607 13.82C25.7807 13.83 27.2008 9.70001 27.2008 9.35001Z" stroke="#0B2343" stroke-miterlimit="10" stroke-linecap="round" stroke-linejoin="round"/>
<path d="M20.2407 8.87V12.7" stroke="#0B2343" stroke-miterlimit="10" stroke-linecap="round" stroke-linejoin="round"/>
<path d="M22.1508 10.78H18.3208" stroke="#0B2343" stroke-miterlimit="10" stroke-linecap="round" stroke-linejoin="round"/>
<path d="M18.2908 29.58C18.2908 29.58 20.1207 31.46 22.0007 29.58" stroke="#0B2343" stroke-linecap="round" stroke-linejoin="round"/>
<path d="M18.3208 24.85H17.0508" stroke="#0B2343" stroke-linecap="round" stroke-linejoin="round"/>
<path d="M23.4508 24.85H22.1808" stroke="#0B2343" stroke-linecap="round" stroke-linejoin="round"/>
</svg>
