<svg width="42" height="42" viewBox="0 0 42 42" fill="none" xmlns="http://www.w3.org/2000/svg">
<path fill-rule="evenodd" clip-rule="evenodd" d="M0.5 21C0.5 9.6961 9.69611 0.5 21 0.5C32.3039 0.5 41.4999 9.6961 41.4999 21C41.4999 32.3039 32.3039 41.5 21 41.5C9.69611 41.5 0.5 32.3039 0.5 21ZM21 1.5C10.2484 1.5 1.5 10.2484 1.5 21C1.5 31.7516 10.2484 40.5 21 40.5C31.7516 40.5 40.4999 31.7516 40.4999 21C40.4999 10.2484 31.7516 1.5 21 1.5Z" fill="#9E6713"/>
<path d="M26 14.5C25.7239 14.5 25.5 14.7239 25.5 15C25.5 15.2761 25.7239 15.5 26 15.5C26.4257 15.5 26.7978 15.6074 27.0549 15.8217C27.2959 16.0225 27.5 16.3703 27.5 17C27.5 17.2762 27.7239 17.5 28 17.5C28.2761 17.5 28.5 17.2762 28.5 17C28.5 16.1298 28.2041 15.4776 27.6951 15.0534C27.2022 14.6426 26.5743 14.5 26 14.5Z" fill="#9E6713"/>
<path fill-rule="evenodd" clip-rule="evenodd" d="M23 7.5C21.067 7.5 19.5 9.067 19.5 11V12.5H16C13.5147 12.5 11.5 14.5147 11.5 17V20C11.5 20.2761 11.7239 20.5 12 20.5H13.5V25.2593C13.5 27.4313 14.9232 28.5321 16.137 29.471L16.1829 29.5065C16.6684 29.8822 17.4845 30.3966 18.2896 30.9041C18.5554 31.0716 18.8201 31.2384 19.0711 31.3992C19.5893 31.7309 20.0538 32.0391 20.3863 32.2918C20.5541 32.4193 20.6729 32.5213 20.7453 32.5964C20.7582 32.6098 20.7685 32.6212 20.7765 32.6306C20.8339 32.8434 21.0283 33 21.2593 33C21.4998 33 21.7007 32.8302 21.7485 32.6039C21.7554 32.5942 21.7646 32.5822 21.7766 32.5677C21.8367 32.4948 21.9366 32.3947 22.0795 32.2686C22.3628 32.0185 22.7622 31.7121 23.2138 31.3816C23.5805 31.1133 23.9857 30.8265 24.3789 30.5483C24.9278 30.1599 25.4532 29.7881 25.8171 29.5065L25.863 29.471C27.0768 28.5321 28.5 27.4313 28.5 25.2593V20.5H30C30.2761 20.5 30.5 20.2761 30.5 20V17C30.5 14.5147 28.4853 12.5 26 12.5H22.5V11C22.5 10.7239 22.7239 10.5 23 10.5H25C25.2761 10.5 25.5 10.2761 25.5 10V8C25.5 7.72386 25.2761 7.5 25 7.5H23ZM21.5 12.5V11C21.5 10.1716 22.1716 9.5 23 9.5H24.5V8.5H23C21.6193 8.5 20.5 9.61929 20.5 11V12.5H21.5ZM16 13.5C14.067 13.5 12.5 15.067 12.5 17V19.5H29.5V17C29.5 15.067 27.933 13.5 26 13.5H16ZM14.5 25.2593V20.5H27.5V25.2593C27.5 26.9116 26.4705 27.7365 25.2051 28.7157C24.8506 28.99 24.3632 29.3346 23.8358 29.7074C23.4411 29.9864 23.024 30.2813 22.6233 30.5746C22.1675 30.9081 21.7372 31.2369 21.4177 31.5189C21.3535 31.5755 21.2916 31.6322 21.2334 31.6884C21.1579 31.6248 21.0764 31.5603 20.9915 31.4957C20.6239 31.2163 20.1293 30.8892 19.6103 30.557C19.3356 30.3811 19.0547 30.204 18.7788 30.03C17.9881 29.5315 17.2387 29.0591 16.7949 28.7157C15.5295 27.7365 14.5 26.9116 14.5 25.2593Z" fill="#9E6713"/>
</svg>
