<svg width="40" height="40" viewBox="0 0 40 40" fill="none" xmlns="http://www.w3.org/2000/svg">
<path d="M26.7177 6C26.6508 6 22.4356 12.7482 22.4356 15.1187C22.4356 17.4797 24.3568 19.4009 26.7177 19.4009C29.0787 19.4009 31 17.4797 31 15.1187C31 12.7482 26.7942 6 26.7177 6Z" stroke="#0B2343" stroke-miterlimit="10" stroke-linecap="round" stroke-linejoin="round"/>
<path d="M19.5107 23.9602V19.5347" stroke="#0B2343" stroke-linecap="round" stroke-linejoin="round"/>
<path d="M21.4416 19.5347V23.9602H24.0797" stroke="#0B2343" stroke-linecap="round" stroke-linejoin="round"/>
<path d="M17.5225 21.7427C17.5225 22.9661 16.6718 23.9507 15.6108 23.9507C14.5498 23.9507 13.6991 22.9566 13.6991 21.7427C13.6991 20.5192 14.5498 19.5347 15.6108 19.5347C16.6718 19.5347 17.5225 20.5287 17.5225 21.7427Z" stroke="#0B2343" stroke-linecap="round" stroke-linejoin="round"/>
<path d="M24.5289 9.72778H10.9368V33.6239H27.1862V19.3723" stroke="#0B2343" stroke-miterlimit="10" stroke-linecap="round" stroke-linejoin="round"/>
<path d="M10 33.6238H28.1325" stroke="#0B2343" stroke-miterlimit="10" stroke-linecap="round" stroke-linejoin="round"/>
<path d="M10 26.9329H28.1325" stroke="#0B2343" stroke-miterlimit="10" stroke-linecap="round" stroke-linejoin="round"/>
<path d="M10 16.4187H22.579" stroke="#0B2343" stroke-miterlimit="10" stroke-linecap="round" stroke-linejoin="round"/>
<path d="M10 9.72778H24.5289" stroke="#0B2343" stroke-miterlimit="10" stroke-linecap="round" stroke-linejoin="round"/>
</svg>
