<svg width="40" height="40" viewBox="0 0 40 40" fill="none" xmlns="http://www.w3.org/2000/svg">
<path d="M23.1703 23.9756C22.8397 23.6957 22.4496 23.3015 21.9388 22.7621C20.2241 20.9479 16.5182 20.6737 15.5576 23.0763C14.5963 25.4773 14.8901 28.3614 16.5867 28.2904C18.8 28.1981 18.7649 26.4737 17.6501 24.1715" stroke="#0B2343" stroke-miterlimit="10" stroke-linecap="round" stroke-linejoin="round"/>
<path d="M18.1562 29.4425C18.1562 29.4425 18.6459 30.0644 19.7492 30.2162C20.9318 30.3786 23.1083 30.856 25.1453 29.3438" stroke="#0B2343" stroke-miterlimit="10" stroke-linecap="round" stroke-linejoin="round"/>
<path d="M12.9496 35.8309C12.9496 35.8309 15.0772 34.1546 16.4491 35.4089C17.8218 36.6625 16.312 38.289 14.1852 37.956C12.0576 37.623 11.3713 36.7163 11.3713 36.7163C11.3713 36.7163 7.66616 35.6783 9.51872 31.8817C9.51872 31.8817 9.51872 33.0235 11.1656 34.0542C11.1656 34.0542 11.6904 32.1829 12.9872 31.3831C13.2655 31.2117 13.7845 31.0469 14.1109 30.9865C15.9635 30.6437 15.8884 28.3415 15.8884 28.3415" stroke="#0B2343" stroke-miterlimit="10" stroke-linecap="round" stroke-linejoin="round"/>
<path d="M19.579 34.961C19.579 34.961 19.1374 31.4534 19.7487 30.2162" stroke="#0B2343" stroke-miterlimit="10" stroke-linecap="round" stroke-linejoin="round"/>
<path d="M18.1652 35.4771C18.1652 35.4771 20.0691 34.1069 21.0378 35.8313C22.0082 37.5549 17.7424 37.9058 16.9239 36.7698" stroke="#0B2343" stroke-miterlimit="10" stroke-linecap="round" stroke-linejoin="round"/>
<path d="M23.3932 26.2073C23.3932 27.3588 24.3277 28.2917 25.4784 28.2917C26.6291 28.2917 27.5627 27.3588 27.5627 26.2073C27.5627 25.0558 26.6291 24.123 25.4784 24.123C24.3277 24.123 23.3932 25.0558 23.3932 26.2073Z" stroke="#0B2343" stroke-miterlimit="10" stroke-linecap="round" stroke-linejoin="round"/>
<path d="M19.4921 4.7516C19.4921 4.58348 20.6951 4.44719 22.1771 4.44719C23.66 4.44719 24.8621 4.58348 24.8621 4.7516" stroke="#0B2343" stroke-miterlimit="10" stroke-linecap="round" stroke-linejoin="round"/>
<path d="M28.935 5.0636C27.4089 6.01028 25.2495 6.60114 22.8559 6.60114H21.4995C19.0952 6.60114 16.9285 6.0062 15.4016 5.05299" stroke="#0B2343" stroke-miterlimit="10" stroke-linecap="round" stroke-linejoin="round"/>
<path d="M22.1771 34.6442C27.4026 34.6442 31.6374 30.4102 31.6374 25.1839V11.4603C31.6374 6.23718 27.4026 1.99996 22.1771 1.99996C16.9516 1.99996 12.7168 6.23718 12.7168 11.4603V25.1839C12.7168 26.6311 13.0416 28.0023 13.6221 29.2285" stroke="#0B2343" stroke-miterlimit="10" stroke-linecap="round" stroke-linejoin="round"/>
</svg>
