<svg width="40" height="40" viewBox="0 0 40 40" fill="none" xmlns="http://www.w3.org/2000/svg">
<path d="M16.79 7.61994C17.02 8.47994 16.51 9.36998 15.65 9.59998C14.79 9.82998 13.9 9.31997 13.67 8.45996C13.44 7.59996 13.95 6.70998 14.81 6.47998C15.67 6.24998 16.56 6.75994 16.79 7.61994Z" stroke="#0B2343" stroke-linecap="round" stroke-linejoin="round"/>
<path d="M30.4949 14.5687L5.28937 21.3052L8.56077 33.5457L33.7663 26.8093L30.4949 14.5687Z" stroke="#0B2343" stroke-miterlimit="10" stroke-linecap="round" stroke-linejoin="round"/>
<path d="M14.6 9.52002L10.18 20.01" stroke="#0B2343" stroke-linecap="round" stroke-linejoin="round"/>
<path d="M16.5099 9.01001L25.5699 15.89" stroke="#0B2343" stroke-linecap="round" stroke-linejoin="round"/>
<path d="M24.39 20.4L27.03 19.6799L26.0099 24.79" stroke="#0B2343" stroke-linecap="round" stroke-linejoin="round"/>
<path d="M15.16 27.8001L12.12 28.62L13.7599 25.93C13.7599 25.93 14.75 24.35 13.55 23.62C12.35 22.89 11.4 24.28 11.24 24.81" stroke="#0B2343" stroke-miterlimit="10" stroke-linecap="round" stroke-linejoin="round"/>
<path d="M19.25 26.69L17.98 22.01L16.12 26.25L19.7599 25.26" stroke="#0B2343" stroke-miterlimit="10" stroke-linecap="round" stroke-linejoin="round"/>
<path d="M22.66 20.0898L21.14 27.1498" stroke="#0B2343" stroke-miterlimit="10" stroke-linecap="round" stroke-linejoin="round"/>
</svg>
