<svg width="40" height="40" viewBox="0 0 40 40" fill="none" xmlns="http://www.w3.org/2000/svg">
<path d="M31.4251 14.5692L6.21954 21.3057L9.49095 33.5462L34.6965 26.8097L31.4251 14.5692Z" stroke="#0B2343" stroke-miterlimit="10" stroke-linecap="round" stroke-linejoin="round"/>
<path d="M17.6 7.31998C18.11 8.36998 17.41 9.57 16.25 9.65C15.61 9.7 14.9799 9.32997 14.6999 8.74997C14.1999 7.70997 14.89 6.51002 16.05 6.42002C16.69 6.38002 17.32 6.73998 17.6 7.31998Z" stroke="#0B2343" stroke-linecap="round" stroke-linejoin="round"/>
<path d="M15.52 9.52002L11.1 20.01" stroke="#0B2343" stroke-linecap="round" stroke-linejoin="round"/>
<path d="M17.4 9.05005L26.5 15.89" stroke="#0B2343" stroke-linecap="round" stroke-linejoin="round"/>
<path d="M23.65 21.1499L20.99 21.8599L22.09 25.9699L24.74 25.2599" stroke="#0B2343" stroke-linecap="round" stroke-linejoin="round"/>
<path d="M21.54 23.9201L23.8199 23.3101" stroke="#0B2343" stroke-linecap="round" stroke-linejoin="round"/>
<path d="M26.5 24.7902L25.4 20.6801L29.67 23.9401L28.59 19.9102" stroke="#0B2343" stroke-linecap="round" stroke-linejoin="round"/>
<path d="M17.65 27.16L16.55 23.05L18.09 22.64C18.09 22.64 19.4 22.24 19.69 23.35C20 24.5 18.68 24.86 18.68 24.86L17.14 25.27" stroke="#0B2343" stroke-linecap="round" stroke-linejoin="round"/>
<path d="M15.22 25.6101C15.52 26.7401 14.91 27.8901 13.85 28.1801C12.79 28.4601 11.68 27.7701 11.38 26.6401C11.08 25.5101 11.69 24.3601 12.75 24.0701C13.81 23.7801 14.92 24.4701 15.22 25.6101Z" stroke="#0B2343" stroke-linecap="round" stroke-linejoin="round"/>
</svg>
