<svg width="40" height="40" viewBox="0 0 40 40" fill="none" xmlns="http://www.w3.org/2000/svg">
<path d="M29.21 19.13V33.52" stroke="#0B2343" stroke-linecap="round" stroke-linejoin="round"/>
<path d="M29.21 6V12.78" stroke="#0B2343" stroke-linecap="round" stroke-linejoin="round"/>
<path d="M32.39 15.96C32.39 17.71 30.9701 19.13 29.2201 19.13C27.4701 19.13 26.05 17.71 26.05 15.96C26.05 14.21 27.4701 12.79 29.2201 12.79C30.9701 12.78 32.39 14.21 32.39 15.96Z" stroke="#0B2343" stroke-linecap="round" stroke-linejoin="round"/>
<path d="M14.34 11.08C14.34 12.83 12.92 14.25 11.17 14.25C9.41998 14.25 8 12.83 8 11.08C8 9.33005 9.41998 7.91003 11.17 7.91003C12.92 7.91003 14.34 9.33005 14.34 11.08Z" stroke="#0B2343" stroke-linecap="round" stroke-linejoin="round"/>
<path d="M23.34 26.08C23.34 27.83 21.92 29.25 20.17 29.25C18.42 29.25 17 27.83 17 26.08C17 24.33 18.42 22.91 20.17 22.91C21.92 22.9 23.34 24.33 23.34 26.08Z" stroke="#0B2343" stroke-linecap="round" stroke-linejoin="round"/>
<path d="M11.16 14.26V33.52" stroke="#0B2343" stroke-linecap="round" stroke-linejoin="round"/>
<path d="M11.16 6V7.91" stroke="#0B2343" stroke-linecap="round" stroke-linejoin="round"/>
<path d="M20.16 29.25V33.52" stroke="#0B2343" stroke-linecap="round" stroke-linejoin="round"/>
<path d="M20.16 6V22.9" stroke="#0B2343" stroke-linecap="round" stroke-linejoin="round"/>
</svg>
