<svg width="40" height="40" viewBox="0 0 40 40" fill="none" xmlns="http://www.w3.org/2000/svg">
<path d="M34.85 8.99002C34.85 7.34002 33.51 6 31.86 6H8.98999C7.33999 6 6 7.34002 6 8.99002V31.86C6 33.51 7.33999 34.85 8.98999 34.85H31.86C33.51 34.85 34.85 33.51 34.85 31.86V8.99002Z" stroke="#0B2343" stroke-miterlimit="10" stroke-linecap="round" stroke-linejoin="round"/>
<path d="M16.47 14.46C16.47 15.89 15.31 17.05 13.88 17.05C12.45 17.05 11.29 15.89 11.29 14.46C11.29 13.03 12.45 11.87 13.88 11.87C15.31 11.87 16.47 13.03 16.47 14.46Z" stroke="#0B2343" stroke-linecap="round" stroke-linejoin="round"/>
<path d="M22.6099 25.44C22.6099 26.87 21.45 28.03 20.02 28.03C18.59 28.03 17.4299 26.87 17.4299 25.44C17.4299 24.01 18.59 22.85 20.02 22.85C21.45 22.85 22.6099 24.01 22.6099 25.44Z" stroke="#0B2343" stroke-linecap="round" stroke-linejoin="round"/>
<path d="M26.91 20.19V29.87" stroke="#0B2343" stroke-linecap="round" stroke-linejoin="round"/>
<path d="M26.91 10.9301V15.01" stroke="#0B2343" stroke-linecap="round" stroke-linejoin="round"/>
<path d="M26.9101 20.19C28.3405 20.19 29.5001 19.0304 29.5001 17.6C29.5001 16.1696 28.3405 15.01 26.9101 15.01C25.4797 15.01 24.3201 16.1696 24.3201 17.6C24.3201 19.0304 25.4797 20.19 26.9101 20.19Z" stroke="#0B2343" stroke-linecap="round" stroke-linejoin="round"/>
<path d="M13.88 17.05V29.8701" stroke="#0B2343" stroke-linecap="round" stroke-linejoin="round"/>
<path d="M13.88 10.9301V11.8701" stroke="#0B2343" stroke-linecap="round" stroke-linejoin="round"/>
<path d="M20.02 28.03V29.87" stroke="#0B2343" stroke-linecap="round" stroke-linejoin="round"/>
<path d="M20.02 10.9301V22.85" stroke="#0B2343" stroke-linecap="round" stroke-linejoin="round"/>
</svg>
