<svg id="Layer_1" data-name="Layer 1" xmlns="http://www.w3.org/2000/svg" viewBox="0 0 17.56323 17.5503"><defs><style>.cls-1{fill:#007cc2;fill-rule:evenodd;}</style></defs><path class="cls-1" d="M5.34839,7.0192A2.30068,2.30068,0,0,1,7.64963,4.718h1.5345A2.30071,2.30071,0,0,1,11.4854,7.0192a.25525.25525,0,1,1-.5105,0A1.79019,1.79019,0,0,0,9.18413,5.22845H7.64963A1.79019,1.79019,0,0,0,5.85888,7.0192a.25525.25525,0,1,1-.51049,0Z" transform="translate(-0.74487 -2)"/><path class="cls-1" d="M12.4552,8.80883H2.27887a1.024,1.024,0,0,0-1.0235,1.02351v8.184a1.024,1.024,0,0,0,1.0235,1.0235h12.276a1.024,1.024,0,0,0,1.0235-1.0235V12.541c.1392-.1908.314-.4332.5105-.7125v6.1878a1.53445,1.53445,0,0,1-1.534,1.534H2.27887a1.53443,1.53443,0,0,1-1.534-1.534v-8.184a1.53447,1.53447,0,0,1,1.534-1.534H12.1807C12.2671,8.466,12.3591,8.63669,12.4552,8.80883Z" transform="translate(-0.74487 -2)"/><path class="cls-1" d="M15.0541,12s3.254-4.94749,3.254-6.74595a3.25405,3.25405,0,1,0-6.5081,0C11.8,7.05251,15.0541,12,15.0541,12ZM13.9312,4.78508a1.12315,1.12315,0,1,0,1.1231-1.12315A1.12442,1.12442,0,0,0,13.9312,4.78508Z" transform="translate(-0.74487 -2)"/></svg>