<svg width="40" height="40" viewBox="0 0 40 40" fill="none" xmlns="http://www.w3.org/2000/svg">
<path d="M33.3584 6H6V33.3584H33.3584V6Z" stroke="#0B2343" stroke-linecap="round" stroke-linejoin="round"/>
<path d="M29.5848 16.3773H9.77356V29.5848H29.5848V16.3773Z" stroke="#0B2343" stroke-linecap="round" stroke-linejoin="round"/>
<path d="M9.77356 14.4905H29.5848" stroke="#0B2343" stroke-linecap="round" stroke-linejoin="round"/>
<path d="M23.9245 9.77356H15.434V11.6603H23.9245V9.77356Z" stroke="#0B2343" stroke-linecap="round" stroke-linejoin="round"/>
<path d="M27.698 11.6603C28.2191 11.6603 28.6414 11.238 28.6414 10.717C28.6414 10.1959 28.2191 9.77356 27.698 9.77356C27.177 9.77356 26.7546 10.1959 26.7546 10.717C26.7546 11.238 27.177 11.6603 27.698 11.6603Z" stroke="#0B2343" stroke-linecap="round" stroke-linejoin="round"/>
<path d="M11.6604 11.6603C12.1814 11.6603 12.6038 11.238 12.6038 10.717C12.6038 10.1959 12.1814 9.77356 11.6604 9.77356C11.1394 9.77356 10.717 10.1959 10.717 10.717C10.717 11.238 11.1394 11.6603 11.6604 11.6603Z" stroke="#0B2343" stroke-linecap="round" stroke-linejoin="round"/>
<path d="M23.9244 21.0942H15.4339L11.6603 24.8678H27.698L23.9244 21.0942Z" stroke="#0B2343" stroke-linecap="round" stroke-linejoin="round"/>
</svg>
