<svg width="40" height="40" viewBox="0 0 40 40" fill="none" xmlns="http://www.w3.org/2000/svg">
<path d="M20.25 34.7698C25.9109 34.7698 30.5 30.1807 30.5 24.5198C30.5 18.8589 25.9109 14.2698 20.25 14.2698C14.5891 14.2698 10 18.8589 10 24.5198C10 30.1807 14.5891 34.7698 20.25 34.7698Z" stroke="#0B2343" stroke-linecap="round" stroke-linejoin="round"/>
<path d="M21.64 26.12C20.87 26.89 19.62 26.89 18.84 26.12C18.07 25.35 18.07 24.0999 18.84 23.3199C19.61 22.5499 20.86 22.5499 21.64 23.3199C22.41 24.0999 22.41 25.35 21.64 26.12Z" stroke="#0B2343" stroke-linecap="round" stroke-linejoin="round"/>
<path d="M21.64 23.3198L23.0699 21.9099" stroke="#0B2343" stroke-linecap="round" stroke-linejoin="round"/>
<path d="M14.92 15.6799L14.9 11.24C14.9 8.34999 17.34 6 20.36 6C23.37 6 25.8199 8.33999 25.8199 11.24V15.8098" stroke="#0B2343" stroke-linecap="round" stroke-linejoin="round"/>
<path d="M26.4399 24.9299H27.62" stroke="#0B2343" stroke-linecap="round" stroke-linejoin="round"/>
<path d="M12.88 24.9299H14.0599" stroke="#0B2343" stroke-linecap="round" stroke-linejoin="round"/>
<path d="M19.84 30.9099V32.0898" stroke="#0B2343" stroke-linecap="round" stroke-linejoin="round"/>
<path d="M20.76 17.3499V18.5298" stroke="#0B2343" stroke-linecap="round" stroke-linejoin="round"/>
<path d="M24.75 20.22L25.58 19.3899" stroke="#0B2343" stroke-linecap="round" stroke-linejoin="round"/>
<path d="M14.92 30.0498L15.75 29.22" stroke="#0B2343" stroke-linecap="round" stroke-linejoin="round"/>
<path d="M24.75 29.22L25.58 30.0498" stroke="#0B2343" stroke-linecap="round" stroke-linejoin="round"/>
<path d="M14.92 19.3899L15.75 20.22" stroke="#0B2343" stroke-linecap="round" stroke-linejoin="round"/>
</svg>
