<svg width="40" height="40" viewBox="0 0 40 40" fill="none" xmlns="http://www.w3.org/2000/svg">
<path d="M6.20108 20.9212C6.09108 20.8812 6.01108 20.7812 6.00108 20.6712C5.99108 20.5512 6.05108 20.4412 6.16108 20.3912L34.2311 6.03133C34.3311 5.98133 34.4511 5.99112 34.5411 6.06112C34.6311 6.13112 34.6711 6.25116 34.6411 6.36116L29.4311 27.8512C29.4111 27.9312 29.3611 27.9913 29.2911 28.0313C29.2511 28.0513 29.2011 28.0711 29.1511 28.0711C29.1211 28.0711 29.0911 28.0711 29.0711 28.0611L6.20108 20.9212Z" stroke="#0B2343" stroke-miterlimit="10" stroke-linecap="round" stroke-linejoin="round"/>
<path d="M17.911 24.5811V32.8411C17.911 32.9711 17.881 33.0911 18.001 33.1311C18.031 33.1411 17.991 33.1411 18.021 33.1411C18.121 33.1411 18.191 33.0912 18.241 33.0012L23.291 26.301" stroke="#0B2343" stroke-miterlimit="10" stroke-linecap="round" stroke-linejoin="round"/>
<path d="M28.5211 13.1111L17.9111 24.5811" stroke="#0B2343" stroke-miterlimit="10" stroke-linecap="round" stroke-linejoin="round"/>
</svg>
