<svg width="40" height="40" viewBox="0 0 40 40" fill="none" xmlns="http://www.w3.org/2000/svg">
<path d="M28.97 25.95C28.97 26.06 31.34 33.4 31.34 33.4C31.52 34.01 32.27 34.07 32.47 33.4C32.47 33.4 34.88 26.06 34.88 25.95" stroke="#0B2343" stroke-miterlimit="10" stroke-linecap="round" stroke-linejoin="round"/>
<path d="M30.59 31.07H33.23" stroke="#0B2343" stroke-miterlimit="10" stroke-linecap="round" stroke-linejoin="round"/>
<path d="M23.91 34.01H7.12C6.57 34.01 6 33.56 6 33.01V6C6 5.45 6.57 5 7.12 5H19.96L24.92 10V33.01C24.92 33.56 24.45 34.01 23.91 34.01Z" stroke="#0B2343" stroke-miterlimit="10" stroke-linecap="round" stroke-linejoin="round"/>
<path d="M19.96 5V10H24.9" stroke="#0B2343" stroke-miterlimit="10" stroke-linecap="round" stroke-linejoin="round"/>
<path d="M32.88 5.13H30.95C29.86 5.13 28.98 6.01001 28.98 7.10001V25.94H34.89V7.13C34.88 6.03 33.98 5.13 32.88 5.13Z" stroke="#0B2343" stroke-miterlimit="10" stroke-linecap="round" stroke-linejoin="round"/>
<path d="M10.98 15.01H14.94" stroke="#0B2343" stroke-miterlimit="10" stroke-linecap="round" stroke-linejoin="round"/>
<path d="M10.98 19.01H19.98" stroke="#0B2343" stroke-miterlimit="10" stroke-linecap="round" stroke-linejoin="round"/>
<path d="M10.98 23.01H19.98" stroke="#0B2343" stroke-miterlimit="10" stroke-linecap="round" stroke-linejoin="round"/>
<path d="M10.98 27.01H19.98" stroke="#0B2343" stroke-miterlimit="10" stroke-linecap="round" stroke-linejoin="round"/>
</svg>
