<svg width="40" height="40" viewBox="0 0 40 40" fill="none" xmlns="http://www.w3.org/2000/svg">
<path d="M26.1472 11.9661C20.1455 11.9661 15.2852 16.8264 15.2852 22.8281C15.2852 28.8299 20.1455 33.6902 26.1472 33.6902C32.149 33.6902 37.0093 28.8299 37.0093 22.8281C37.0169 16.8264 32.149 11.9661 26.1472 11.9661Z" stroke="#0B2343" stroke-miterlimit="10" stroke-linecap="round" stroke-linejoin="round"/>
<path d="M21.438 23.1532L24.6051 27.114L31.4233 18.5876" stroke="#0B2343" stroke-miterlimit="10" stroke-linecap="round" stroke-linejoin="round"/>
<path d="M13.7736 20.999L4 20.7722C4 20.7722 4.8844 24.8842 8.02888 24.9598C9.66915 24.9976 11.9293 25.0279 14.0457 25.0505" stroke="#0B2343" stroke-miterlimit="10" stroke-linecap="round" stroke-linejoin="round"/>
<path d="M8.95108 18.9505C10.9239 14.7251 11.438 7 11.438 7L25.3992 7.40818C25.384 7.54424 25.2933 8.69319 25.0893 10.3335" stroke="#0B2343" stroke-miterlimit="10" stroke-linecap="round" stroke-linejoin="round"/>
<path d="M14.2953 11.1498L19.2161 11.3236" stroke="#0B2343" stroke-miterlimit="10" stroke-linecap="round" stroke-linejoin="round"/>
<path d="M13.7736 14.3699L16.1244 14.453" stroke="#0B2343" stroke-miterlimit="10" stroke-linecap="round" stroke-linejoin="round"/>
<path d="M12.9271 17.6051L14.8319 17.6731" stroke="#0B2343" stroke-miterlimit="10" stroke-linecap="round" stroke-linejoin="round"/>
</svg>
