<svg width="40" height="40" viewBox="0 0 40 40" fill="none" xmlns="http://www.w3.org/2000/svg">
<path d="M25.9631 32.9998V15.1372" stroke="#0B2343" stroke-miterlimit="10" stroke-linecap="round" stroke-linejoin="round"/>
<path d="M25.9631 20.9204C25.9631 20.9204 26.6668 15.8863 30.0679 17.0501" stroke="#0B2343" stroke-miterlimit="10" stroke-linecap="round" stroke-linejoin="round"/>
<path d="M25.9631 19.5396C25.9631 19.5396 24.4295 16.1836 22.8688 17.7804" stroke="#0B2343" stroke-miterlimit="10" stroke-linecap="round" stroke-linejoin="round"/>
<path d="M33.0991 16.0847C33.0991 19.9369 29.9055 23.0583 25.9721 23.0583C22.0388 23.0583 18.8451 19.9369 18.8451 16.0847C18.8451 12.2325 22.0388 7 25.9721 7C29.9145 7 33.0991 12.2325 33.0991 16.0847Z" stroke="#0B2343" stroke-miterlimit="10" stroke-linecap="round" stroke-linejoin="round"/>
<path d="M7 33.0002V29.3916H21.4344V33.0002" stroke="#0B2343" stroke-miterlimit="10" stroke-linecap="round" stroke-linejoin="round"/>
<path d="M7.90213 27.5871V23.9785H20.5322V27.5871" stroke="#0B2343" stroke-miterlimit="10" stroke-linecap="round" stroke-linejoin="round"/>
<path d="M7.90213 25.7827H20.5322" stroke="#0B2343" stroke-miterlimit="10" stroke-linecap="round" stroke-linejoin="round"/>
</svg>
