<svg width="40" height="40" viewBox="0 0 40 40" fill="none" xmlns="http://www.w3.org/2000/svg">
<path d="M20.5597 22.1501C20.5597 22.9501 19.9096 24.0601 19.1196 24.0601C18.3296 24.0601 17.6797 22.9501 17.6797 22.1501C17.6797 21.3501 18.3296 20.71 19.1196 20.71C19.9096 20.71 20.5597 21.3601 20.5597 22.1501Z" stroke="#0B2343" stroke-miterlimit="10" stroke-linecap="round" stroke-linejoin="round"/>
<path d="M21.3496 29.1702C21.3496 30.7902 20.3496 34.3701 19.1096 34.3701C17.8696 34.3701 16.8696 30.7902 16.8696 29.1702C16.8696 27.5502 17.8696 26.23 19.1096 26.23C20.3496 26.23 21.3496 27.5502 21.3496 29.1702Z" stroke="#0B2343" stroke-miterlimit="10" stroke-linecap="round" stroke-linejoin="round"/>
<path d="M29.9897 34.3601V26.8401H33.9298L30.8698 19.99L31.4697 17.0801C31.6397 12.2101 31.2298 12.4902 31.1498 12.4202C30.9398 12.3602 30.7097 12.3301 30.4697 12.3301L28.5997 14.1702L26.7297 12.3301C26.4897 12.3301 26.2698 12.3602 26.0498 12.4202C25.9698 12.4802 25.5497 12.2101 25.7297 17.0801L26.3298 19.99L23.2698 26.8401H27.2098V34.3601" stroke="#0B2343" stroke-miterlimit="10" stroke-linecap="round" stroke-linejoin="round"/>
<path d="M10.0798 34.46V24.53" stroke="#0B2343" stroke-miterlimit="10" stroke-linecap="round" stroke-linejoin="round"/>
<path d="M11.9298 7.80005C11.9298 8.79005 11.0998 10.1799 10.0798 10.1799C9.05983 10.1799 8.22974 8.79005 8.22974 7.80005C8.22974 6.81005 9.05983 6 10.0798 6C11.0998 6.01 11.9298 6.81005 11.9298 7.80005Z" stroke="#0B2343" stroke-miterlimit="10" stroke-linecap="round" stroke-linejoin="round"/>
<path d="M30.4697 8.08008C30.4697 9.07008 29.6297 10.46 28.5997 10.46C27.5697 10.46 26.7297 9.07008 26.7297 8.08008C26.7297 7.09008 27.5697 6.28003 28.5997 6.28003C29.6297 6.28003 30.4697 7.08008 30.4697 8.08008Z" stroke="#0B2343" stroke-miterlimit="10" stroke-linecap="round" stroke-linejoin="round"/>
<path d="M7.36976 34.4599L6.95985 22.13C6.94985 21.87 6.09985 22.2099 6.08985 21.9599C5.73985 12.9199 6.51974 12.2201 6.59974 12.1501C6.69974 12.1201 7.54981 12.1 7.79981 12.08C8.13981 12.06 8.43985 12.26 8.58985 12.56C9.14985 13.61 11.0198 13.61 11.5698 12.56C11.7298 12.26 12.0197 12.06 12.3597 12.08C12.6097 12.1 13.4598 12.1201 13.5598 12.1501C13.6498 12.2201 14.4198 12.9199 14.0698 21.9599C14.0598 22.1999 13.2098 21.87 13.1998 22.13L12.7297 34.4599" stroke="#0B2343" stroke-miterlimit="10" stroke-linecap="round" stroke-linejoin="round"/>
</svg>
