<!-- Generated by IcoMoon.io -->
<svg version="1.1" xmlns="http://www.w3.org/2000/svg" width="1024" height="1024" viewBox="0 0 1024 1024">
<title></title>
<g id="icomoon-ignore">
</g>
<path fill="#000" d="M512 500.736c113.664 0 205.824-111.616 205.824-250.88 0-138.24-29.696-249.856-205.824-249.856s-205.824 111.616-205.824 250.88c0 138.24 92.16 249.856 205.824 249.856z"></path>
<path fill="#000" d="M122.88 882.688c0-8.192 0-2.048 0 0v0z"></path>
<path fill="#000" d="M901.12 889.856c0-2.048 0-16.384 0 0v0z"></path>
<path fill="#000" d="M901.12 873.472c-4.096-241.664-35.84-310.272-276.48-353.28 0 0-33.792 43.008-112.64 43.008s-112.64-43.008-112.64-43.008c-238.592 43.008-271.36 110.592-276.48 345.088 0 19.456-1.024 20.48-1.024 18.432 0 4.096 0 12.288 0 25.6 0 0 57.344 115.712 389.12 115.712s389.12-115.712 389.12-115.712c0-8.192 0-14.336 0-18.432 1.024 0 1.024-2.048 1.024-17.408z"></path>
</svg>
