<svg width="40" height="40" viewBox="0 0 40 40" fill="none" xmlns="http://www.w3.org/2000/svg">
<path d="M24.7866 15.2861C24.7866 18.5306 22.3066 21.1691 19.2579 21.1691C16.1999 21.1691 13.7292 18.5399 13.7292 15.2861C13.7292 12.0416 16.2092 9.40308 19.2579 9.40308C22.3066 9.4124 24.7866 12.0416 24.7866 15.2861Z" stroke="#0B2343" stroke-width="0.986039" stroke-linecap="round" stroke-linejoin="round"/>
<path d="M19.2858 9.4126C20.8148 9.4126 22.0548 12.0418 22.0548 15.2956C22.0548 18.5401 20.8148 21.1785 19.2858 21.1785" stroke="#0B2343" stroke-linecap="round" stroke-linejoin="round"/>
<path d="M19.2392 9.4126C17.7102 9.4126 16.4702 12.0418 16.4702 15.2956C16.4702 18.5401 17.7102 21.1785 19.2392 21.1785" stroke="#0B2343" stroke-linecap="round" stroke-linejoin="round"/>
<path d="M19.2485 9.4126V21.1693" stroke="#0B2343" stroke-linecap="round" stroke-linejoin="round"/>
<path d="M24.7865 15.2859H13.7198" stroke="#0B2343" stroke-linecap="round" stroke-linejoin="round"/>
<path d="M24.1339 12.5913H14.3352" stroke="#0B2343" stroke-linecap="round" stroke-linejoin="round"/>
<path d="M24.1339 18.0266H14.4285" stroke="#0B2343" stroke-linecap="round" stroke-linejoin="round"/>
<path d="M27.9751 33H10V6H27.9192C28.8049 6 29.5322 6.72719 29.5322 7.6129V31.4337C29.5322 32.2914 28.8329 33 27.9751 33Z" stroke="#0B2343" stroke-linecap="round" stroke-linejoin="round"/>
<path d="M20.3954 28.7861C20.6937 29.0565 21.1413 29.2616 21.4676 29.2616C21.9897 29.2616 22.4186 28.8608 22.4186 28.376C22.4186 27.8912 21.9617 27.6394 21.4676 27.4902C20.9548 27.3224 20.5166 27.0893 20.5166 26.6045C20.5166 26.1104 20.9455 25.7188 21.4676 25.7188C21.8219 25.7188 22.1295 25.896 22.288 26.1664" stroke="#0B2343" stroke-miterlimit="10" stroke-linecap="round" stroke-linejoin="round"/>
<path d="M23.7611 28.7861C24.0595 29.0565 24.5069 29.2616 24.8332 29.2616C25.3553 29.2616 25.7842 28.8608 25.7842 28.376C25.7842 27.8912 25.3274 27.6394 24.8332 27.4902C24.3205 27.3224 23.8823 27.0893 23.8823 26.6045C23.8823 26.1104 24.3018 25.7188 24.8332 25.7188C25.1875 25.7188 25.4952 25.896 25.6537 26.1664" stroke="#0B2343" stroke-miterlimit="10" stroke-linecap="round" stroke-linejoin="round"/>
<path d="M19.1274 29.2802L17.7848 25.728L16.4423 29.2802" stroke="#0B2343" stroke-linecap="round" stroke-linejoin="round"/>
<path d="M18.6984 28.1614H16.8711" stroke="#0B2343" stroke-linecap="round" stroke-linejoin="round"/>
<path d="M13.6266 29.28V25.7185H14.7733C16.1065 25.6625 16.0693 27.6298 14.7733 27.6484H13.6266" stroke="#0B2343" stroke-linecap="round" stroke-linejoin="round"/>
</svg>
