<svg width="40" height="40" viewBox="0 0 40 40" fill="none" xmlns="http://www.w3.org/2000/svg">
<path d="M11.0399 13.5V17.3999" stroke="#0B2343" stroke-linecap="round" stroke-linejoin="round"/>
<path d="M9.33997 14.47L12.74 16.4199" stroke="#0B2343" stroke-linecap="round" stroke-linejoin="round"/>
<path d="M9.33997 16.4199L12.74 14.47" stroke="#0B2343" stroke-linecap="round" stroke-linejoin="round"/>
<path d="M17.0399 13.5V17.3999" stroke="#0B2343" stroke-linecap="round" stroke-linejoin="round"/>
<path d="M15.34 14.47L18.74 16.4199" stroke="#0B2343" stroke-linecap="round" stroke-linejoin="round"/>
<path d="M15.34 16.4199L18.74 14.47" stroke="#0B2343" stroke-linecap="round" stroke-linejoin="round"/>
<path d="M23.0399 13.5V17.3999" stroke="#0B2343" stroke-linecap="round" stroke-linejoin="round"/>
<path d="M21.34 14.47L24.74 16.4199" stroke="#0B2343" stroke-linecap="round" stroke-linejoin="round"/>
<path d="M21.34 16.4199L24.74 14.47" stroke="#0B2343" stroke-linecap="round" stroke-linejoin="round"/>
<path d="M30.0399 13.5V17.3999" stroke="#0B2343" stroke-linecap="round" stroke-linejoin="round"/>
<path d="M28.34 14.47L31.74 16.4199" stroke="#0B2343" stroke-linecap="round" stroke-linejoin="round"/>
<path d="M28.34 16.4199L31.74 14.47" stroke="#0B2343" stroke-linecap="round" stroke-linejoin="round"/>
<path d="M30.62 21.4199C28.65 19.4499 25.4499 19.4499 23.4699 21.4199C21.4999 23.3899 21.4999 26.59 23.4699 28.57C25.4399 30.54 28.64 30.54 30.62 28.57C32.59 26.6 32.59 23.3999 30.62 21.4199Z" stroke="#0B2343" stroke-miterlimit="10" stroke-linecap="round" stroke-linejoin="round"/>
<path d="M26.22 26.95L29.2999 23.6599" stroke="#0B2343" stroke-miterlimit="10" stroke-linecap="round" stroke-linejoin="round"/>
<path d="M26.22 26.95L24.7899 25.4299" stroke="#0B2343" stroke-miterlimit="10" stroke-linecap="round" stroke-linejoin="round"/>
<path d="M19.99 21H6V10H35V21H33.96" stroke="#0B2343" stroke-linecap="round" stroke-linejoin="round"/>
</svg>
