<?xml version="1.0" encoding="utf-8"?>
<!-- Generator: Adobe Illustrator 19.1.0, SVG Export Plug-In . SVG Version: 6.00 Build 0)  -->
<svg version="1.1" id="Layer_1" xmlns="http://www.w3.org/2000/svg" xmlns:xlink="http://www.w3.org/1999/xlink" x="0px" y="0px"
	 viewBox="0 0 48.7 50" enable-background="new 0 0 48.7 50" xml:space="preserve">
<g>
	<path d="M48.6,36L44,24.5l0.9-4.8c0.3-8.1-0.3-8.5-1.1-8.8c-0.1,0-0.1-0.1-0.2-0.1c-0.7-0.2-1.6-0.4-2.1,0.1l-2.1,2.3L37.3,11
		c-0.5-0.5-1.4-0.4-2.1-0.1c-0.1,0-0.1,0-0.2,0.1c-0.8,0.3-1.3,0.7-1.1,9l0.9,4.6L30.3,36c-0.1,0.3-0.1,0.7,0.1,1
		c0.2,0.3,0.5,0.5,0.9,0.5h5v11.3c0,0.6,0.5,1.1,1.1,1.1c0.6,0,1.1-0.5,1.1-1.1V36.4c0-0.6-0.5-1.1-1.1-1.1h-4.5L36.9,25
		c0.1-0.2,0.1-0.4,0.1-0.6l-0.9-4.7c-0.1-4.5,0-6.2,0.1-6.8l2.5,2.7c0.4,0.4,1.1,0.4,1.5,0l2.5-2.7c0.1,0.6,0.3,2.3,0.1,6.7
		l-0.9,4.9c0,0.2,0,0.4,0.1,0.6l4.1,10.3h-4.5c-0.6,0-1.1,0.5-1.1,1.1v12.4c0,0.6,0.5,1.1,1.1,1.1c0.6,0,1.1-0.5,1.1-1.1V37.4h5
		c0.3,0,0.7-0.2,0.9-0.5C48.7,36.7,48.7,36.3,48.6,36z"/>
	<path d="M7.7,31.2c-0.6,0-1.1,0.5-1.1,1.1v16.7c0,0.6,0.5,1.1,1.1,1.1s1.1-0.5,1.1-1.1V32.2C8.8,31.6,8.3,31.2,7.7,31.2z"/>
	<path d="M7.7,9.1c2.5,0,4.1-3,4.1-5.1C11.8,1.8,10,0,7.7,0S3.7,1.8,3.7,4.1C3.7,6.1,5.3,9.1,7.7,9.1z M7.7,2.1c1.1,0,2,0.9,2,2
		c0,1.2-1,3-2,3s-2-1.7-2-3C5.8,3,6.6,2.1,7.7,2.1z"/>
	<path d="M22.5,32c2.1,0,3.6-2.6,3.6-4.4c0-2-1.6-3.6-3.6-3.6s-3.6,1.6-3.6,3.6C18.9,29.4,20.4,32,22.5,32z M22.5,26.2
		c0.8,0,1.4,0.6,1.4,1.4c0,1-0.8,2.3-1.4,2.3S21,28.6,21,27.6C21,26.8,21.7,26.2,22.5,26.2z"/>
	<path d="M39.4,9.6c2.4,0,3.9-3,3.9-5.1c0-2.2-1.8-4.1-3.9-4.1s-3.9,1.8-3.9,4.1C35.5,6.5,37.1,9.6,39.4,9.6z M39.4,2.6
		c1,0,1.8,0.9,1.8,2c0,1.3-1,3-1.8,3c-0.8,0-1.8-1.7-1.8-3C37.6,3.4,38.4,2.6,39.4,2.6z"/>
	<path d="M14.1,10.6c-0.1-0.1-0.2-0.2-0.4-0.2c-0.2-0.1-0.5-0.1-1.6-0.1l-0.6,0c-0.9-0.1-1.8,0.5-2.3,1.4c-0.5,0.9-2.5,0.9-3,0
		c-0.5-0.9-1.4-1.4-2.3-1.4l-0.6,0c-1.2,0-1.4,0.1-1.6,0.1c-0.1,0-0.3,0.1-0.4,0.2C0.9,11-0.4,12.1,0.1,27.9c0,0.3,0.2,0.7,0.4,0.9
		c0.3,0.3,0.7,0.3,1.1,0.3L2.8,49c0,0.6,0.5,1.1,1.1,1c0.6,0,1-0.5,1-1.1L3.7,28.1c0-0.3-0.2-0.7-0.4-0.9C2.9,27,2.6,27,2.2,27
		C1.9,16.2,2.5,13.1,2.7,12.4c0.2,0,0.5,0,0.8,0l0.6,0c0.1,0,0.2,0.1,0.3,0.2c0.6,1.2,1.9,1.9,3.4,1.9s2.8-0.7,3.4-1.9
		c0.1-0.1,0.2-0.2,0.3-0.2l0.6,0c0.2,0,0.5,0,0.7,0c0.3,0.9,0.8,4.1,0.5,14.6c-0.4,0-0.7,0-1,0.3c-0.2,0.2-0.4,0.6-0.4,0.8
		l-1.2,20.8c0,0.6,0.4,1.1,1,1.1c0,0,0,0,0.1,0c0.6,0,1-0.4,1-1l1.1-19.9c0.4,0,0.7,0,1.1-0.3c0.2-0.2,0.4-0.6,0.4-0.9
		C15.9,12.1,14.6,10.9,14.1,10.6z"/>
	<path d="M22.5,33.6c-2.7,0-4.9,2.8-4.9,6.1c0,2.3,1.5,10.1,4.9,10.1s4.9-7.7,4.9-10.1C27.4,36.4,25.2,33.6,22.5,33.6z M22.5,47.7
		c-0.9,0-2.8-4.8-2.8-7.9c0-2.2,1.3-4,2.8-4c1.5,0,2.8,1.8,2.8,4C25.3,42.9,23.4,47.7,22.5,47.7z"/>
</g>
</svg>
