<svg width="40" height="40" viewBox="0 0 40 40" fill="none" xmlns="http://www.w3.org/2000/svg">
<path d="M20.0176 23.3975V26.3374" stroke="#0B2343" stroke-linecap="round" stroke-linejoin="round"/>
<path d="M22.8676 24.2075V26.7275" stroke="#0B2343" stroke-miterlimit="10" stroke-linecap="round" stroke-linejoin="round"/>
<path d="M25.7274 25.8675V24.2076C25.7274 22.6076 22.8774 22.6076 22.8774 24.2076V23.4075C22.8774 21.8075 20.0274 21.8075 20.0274 23.4075V18.5174C20.0274 16.9174 17.6974 16.9174 17.6974 18.5174V29.7576C17.6974 29.7576 15.3874 24.4875 13.2174 25.6075C11.1874 26.6575 16.7174 33.1275 17.8974 34.6475" stroke="#0B2343" stroke-linecap="round" stroke-linejoin="round"/>
<path d="M27.0576 34.6375C28.7876 30.3775 28.5675 25.8675 28.5675 25.8675C28.5675 24.2675 25.7175 24.2675 25.7175 25.8675V27.1575" stroke="#0B2343" stroke-linecap="round" stroke-linejoin="round"/>
<path d="M20.0176 23.3975V26.3374" stroke="#0B2343" stroke-linecap="round" stroke-linejoin="round"/>
<path d="M22.8676 24.2075V26.7275" stroke="#0B2343" stroke-miterlimit="10" stroke-linecap="round" stroke-linejoin="round"/>
<path d="M25.7274 25.8675V24.2076C25.7274 22.6076 22.8774 22.6076 22.8774 24.2076V23.4075C22.8774 21.8075 20.0274 21.8075 20.0274 23.4075V18.5174C20.0274 16.9174 17.6974 16.9174 17.6974 18.5174V29.7576C17.6974 29.7576 15.3874 24.4875 13.2174 25.6075C11.1874 26.6575 16.7174 33.1275 17.8974 34.6475" stroke="#0B2343" stroke-linecap="round" stroke-linejoin="round"/>
<path d="M27.0576 34.6375C28.7876 30.3775 28.5675 25.8675 28.5675 25.8675C28.5675 24.2675 25.7175 24.2675 25.7175 25.8675V27.1575" stroke="#0B2343" stroke-linecap="round" stroke-linejoin="round"/>
<path d="M12.3975 6.3975C11.8675 6.9275 11.8675 7.78743 12.3975 8.32743C12.9275 8.85743 13.7875 8.85743 14.3275 8.32743C14.8575 7.79743 14.8575 6.9375 14.3275 6.3975C13.7875 5.8675 12.9275 5.8675 12.3975 6.3975Z" stroke="#0B2343" stroke-miterlimit="10" stroke-linecap="round" stroke-linejoin="round"/>
<path d="M18.4475 6.3975C17.9175 6.9275 17.9175 7.78743 18.4475 8.32743C18.9775 8.85743 19.8375 8.85743 20.3775 8.32743C20.9075 7.79743 20.9075 6.9375 20.3775 6.3975C19.8475 5.8675 18.9775 5.8675 18.4475 6.3975Z" stroke="#0B2343" stroke-miterlimit="10" stroke-linecap="round" stroke-linejoin="round"/>
<path d="M26.4276 8.32743C26.9576 7.79743 26.9576 6.9375 26.4276 6.3975C25.8976 5.8675 25.0376 5.8675 24.4976 6.3975C23.9676 6.9275 23.9676 7.78743 24.4976 8.32743C25.0376 8.85743 25.8976 8.85743 26.4276 8.32743Z" stroke="#0B2343" stroke-miterlimit="10" stroke-linecap="round" stroke-linejoin="round"/>
<path d="M12.3975 11.8575C11.8675 12.3875 11.8675 13.2474 12.3975 13.7874C12.9275 14.3174 13.7875 14.3174 14.3275 13.7874C14.8575 13.2574 14.8575 12.3975 14.3275 11.8575C13.7875 11.3275 12.9275 11.3275 12.3975 11.8575Z" stroke="#0B2343" stroke-miterlimit="10" stroke-linecap="round" stroke-linejoin="round"/>
<path d="M18.4475 11.8575C17.9175 12.3875 17.9175 13.2474 18.4475 13.7874C18.9775 14.3174 19.8375 14.3174 20.3775 13.7874C20.9075 13.2574 20.9075 12.3975 20.3775 11.8575C19.8475 11.3275 18.9775 11.3275 18.4475 11.8575Z" stroke="#0B2343" stroke-miterlimit="10" stroke-linecap="round" stroke-linejoin="round"/>
<path d="M24.4976 11.8575C23.9676 12.3875 23.9676 13.2474 24.4976 13.7874C25.0276 14.3174 25.8876 14.3174 26.4276 13.7874C26.9576 13.2574 26.9576 12.3975 26.4276 11.8575C25.8976 11.3275 25.0376 11.3275 24.4976 11.8575Z" stroke="#0B2343" stroke-miterlimit="10" stroke-linecap="round" stroke-linejoin="round"/>
<path d="M12.3975 17.3174C11.8675 17.8474 11.8675 18.7076 12.3975 19.2476C12.9275 19.7776 13.7875 19.7776 14.3275 19.2476C14.8575 18.7176 14.8575 17.8574 14.3275 17.3174C13.7875 16.7874 12.9275 16.7874 12.3975 17.3174Z" stroke="#0B2343" stroke-miterlimit="10" stroke-linecap="round" stroke-linejoin="round"/>
<path d="M24.4976 17.3174C23.9676 17.8474 23.9676 18.7076 24.4976 19.2476C25.0276 19.7776 25.8876 19.7776 26.4276 19.2476C26.9576 18.7176 26.9576 17.8574 26.4276 17.3174C25.8976 16.7874 25.0376 16.7874 24.4976 17.3174Z" stroke="#0B2343" stroke-miterlimit="10" stroke-linecap="round" stroke-linejoin="round"/>
</svg>
