<svg width="40" height="40" viewBox="0 0 40 40" fill="none" xmlns="http://www.w3.org/2000/svg">
<path d="M18.6849 24.1702H13V5H26.8062V24.1309H21.4619" stroke="#0B2343" stroke-linecap="round" stroke-linejoin="round"/>
<path d="M18.5147 35.0556C15.8491 30.805 18.7963 27.2225 18.7963 27.2225V22.1271C18.7963 20.5224 21.4554 20.5159 21.4554 22.1271V26.954" stroke="#0B2343" stroke-linecap="round" stroke-linejoin="round"/>
<path d="M25.3326 24.1311C25.3326 24.1311 26.1185 26.2531 24.5335 30.5823C23.7411 32.7501 23.4529 35.1865 23.4529 35.1865" stroke="#0B2343" stroke-linecap="round" stroke-linejoin="round"/>
<path d="M18.8028 26.096H15.8687C14.3623 26.096 14.3688 24.1704 15.8687 24.1704H18.8028" stroke="#0B2343" stroke-linecap="round" stroke-linejoin="round"/>
<path d="M17.8729 28.0872H16.8577C15.502 28.0872 15.502 26.0962 16.8577 26.0962" stroke="#0B2343" stroke-linecap="round" stroke-linejoin="round"/>
<path d="M23.976 12.7941C23.976 15.0733 22.2338 16.9267 20.0922 16.9267C17.944 16.9267 16.2084 15.0798 16.2084 12.7941C16.2084 10.5149 17.9505 8.66138 20.0922 8.66138C22.2338 8.66138 23.976 10.5149 23.976 12.7941Z" stroke="#0B2343" stroke-linecap="round" stroke-linejoin="round"/>
<path d="M20.1061 8.66138C21.1802 8.66138 22.0513 10.5083 22.0513 12.7941C22.0513 15.0733 21.1802 16.9267 20.1061 16.9267" stroke="#0B2343" stroke-linecap="round" stroke-linejoin="round"/>
<path d="M20.0735 8.66138C18.9994 8.66138 18.1283 10.5083 18.1283 12.7941C18.1283 15.0733 18.9994 16.9267 20.0735 16.9267" stroke="#0B2343" stroke-linecap="round" stroke-linejoin="round"/>
<path d="M20.0867 8.66138V16.9202" stroke="#0B2343" stroke-linecap="round" stroke-linejoin="round"/>
<path d="M23.9769 12.7942H16.2028" stroke="#0B2343" stroke-linecap="round" stroke-linejoin="round"/>
<path d="M23.5183 10.8948H16.6349" stroke="#0B2343" stroke-linecap="round" stroke-linejoin="round"/>
<path d="M23.5184 14.72H16.7004" stroke="#0B2343" stroke-linecap="round" stroke-linejoin="round"/>
</svg>
