<svg width="40" height="40" viewBox="0 0 40 40" fill="none" xmlns="http://www.w3.org/2000/svg">
<path d="M18.9311 8V11.95" stroke="#0B2343" stroke-linecap="round" stroke-linejoin="round"/>
<path d="M17.2311 8.98999L20.6211 10.96" stroke="#0B2343" stroke-linecap="round" stroke-linejoin="round"/>
<path d="M17.2311 10.96L20.6211 8.98999" stroke="#0B2343" stroke-linecap="round" stroke-linejoin="round"/>
<path d="M24.9111 8V11.95" stroke="#0B2343" stroke-linecap="round" stroke-linejoin="round"/>
<path d="M23.2211 8.98999L26.6111 10.96" stroke="#0B2343" stroke-linecap="round" stroke-linejoin="round"/>
<path d="M23.2211 10.96L26.6111 8.98999" stroke="#0B2343" stroke-linecap="round" stroke-linejoin="round"/>
<path d="M30.9011 8V11.95" stroke="#0B2343" stroke-linecap="round" stroke-linejoin="round"/>
<path d="M29.201 8.98999L32.5911 10.96" stroke="#0B2343" stroke-linecap="round" stroke-linejoin="round"/>
<path d="M29.201 10.96L32.5911 8.98999" stroke="#0B2343" stroke-linecap="round" stroke-linejoin="round"/>
<path d="M13.7711 17.79V21.6799" stroke="#0B2343" stroke-linecap="round" stroke-linejoin="round"/>
<path d="M16.7811 18.8599V22.2" stroke="#0B2343" stroke-miterlimit="10" stroke-linecap="round" stroke-linejoin="round"/>
<path d="M19.7911 21.06V18.8598C19.7911 16.7398 16.7811 16.7398 16.7811 18.8598V17.8C16.7811 15.68 13.7711 15.68 13.7711 17.8V11.3197C13.7711 9.19974 10.7611 9.19974 10.7611 11.3197V26.2199C10.7611 26.2199 10.7811 20.6898 8.7411 22.9198C6.6511 25.1998 9.43108 31.6098 11.5311 32.6798" stroke="#0B2343" stroke-linecap="round" stroke-linejoin="round"/>
<path d="M21.2111 32.6798C23.0411 27.0298 22.8111 21.06 22.8111 21.06C22.8111 18.94 19.8011 18.94 19.8011 21.06V22.7799" stroke="#0B2343" stroke-linecap="round" stroke-linejoin="round"/>
</svg>
