<svg width="40" height="40" viewBox="0 0 40 40" fill="none" xmlns="http://www.w3.org/2000/svg">
<path d="M29.1097 18.8701H16.9897V34.8201H31.9897V21.8501L29.1097 18.8701Z" stroke="#0B2343" stroke-linecap="round" stroke-linejoin="round"/>
<path d="M21.0498 30.8701H27.9398" stroke="#0B2343" stroke-linecap="round" stroke-linejoin="round"/>
<path d="M21.0498 26.9302H27.9398" stroke="#0B2343" stroke-linecap="round" stroke-linejoin="round"/>
<path d="M21.0498 22.9802H27.9398" stroke="#0B2343" stroke-linecap="round" stroke-linejoin="round"/>
<path d="M23.1199 8.46021H21.6699V7.67017C21.6699 6.75017 20.8899 6 19.9199 6H19.0399C18.0699 6 17.2899 6.75017 17.2899 7.67017V8.46021H15.7799C13.4699 8.46021 13.4399 11.9302 15.7799 11.9302H23.1199C25.4599 11.9302 25.4599 8.46021 23.1199 8.46021Z" stroke="#0B2343" stroke-linecap="round" stroke-linejoin="round"/>
<path d="M13.97 34.8201H9V9.90015H11.32" stroke="#0B2343" stroke-linecap="round" stroke-linejoin="round"/>
<path d="M27.6199 9.90015H29.9199V15.8601" stroke="#0B2343" stroke-linecap="round" stroke-linejoin="round"/>
</svg>
