<svg id="Layer_1" data-name="Layer 1" xmlns="http://www.w3.org/2000/svg" viewBox="0 0 22.10068 18.40315"><defs><style>.cls-1{fill:#007cc2;fill-rule:evenodd;}</style></defs><path class="cls-1" d="M4.48681,6.72122a2.20818,2.20818,0,0,0-.32757,1.20914,2.21861,2.21861,0,0,0,.32757,1.21458.70993.70993,0,0,0,.56155.38273l.0049,0v0h19.604a.53424.53424,0,0,1,.5342.53425V23.1336a.53418.53418,0,0,1-.5342.5342H5.05326a1.96058,1.96058,0,0,1-1.96244-1.9624V7.93036a3.26989,3.26989,0,0,1,.508-1.80323,1.77737,1.77737,0,0,1,1.45447-.86248h19.604a.53421.53421,0,0,1,0,1.06842H5.05326A.72481.72481,0,0,0,4.48681,6.72122ZM4.15924,10.3155V21.7054a.89216.89216,0,0,0,.894.894H24.1231V10.5961H5.05546A1.555,1.555,0,0,1,4.15924,10.3155Z" transform="translate(-3.09082 -5.26465)"/><path class="cls-1" d="M5.22949,7.89456a.53422.53422,0,0,1,.53421-.53421H24.6572a.53421.53421,0,0,1,0,1.06842H5.7637A.53421.53421,0,0,1,5.22949,7.89456Z" transform="translate(-3.09082 -5.26465)"/><path class="cls-1" d="M14.5741,12.7515a.46278.46278,0,0,1,.4628.4627v.2721a1.91546,1.91546,0,0,1,1.1962.8075.46275.46275,0,1,1-.7757.5048,1.02831,1.02831,0,0,0-.7891-.434.467.467,0,0,1-.1889-.0001.90431.90431,0,0,0-.9048.8172.52372.52372,0,0,0,.2509.4458,3.00893,3.00893,0,0,0,.884.3951,3.71051,3.71051,0,0,1,1.1615.5343,1.46,1.46,0,0,1,.6283,1.1916,1.78148,1.78148,0,0,1-1.4624,1.6945v.293a.4628.4628,0,0,1-.9256,0v-.2944a3.24984,3.24984,0,0,1-.5643-.1803,3.55732,3.55732,0,0,1-.9353-.5704.46277.46277,0,1,1,.6055-.7,2.63532,2.63532,0,0,0,.6874.4168,1.84863,1.84863,0,0,0,.6696.1615.922.922,0,0,0,.9996-.8207.54035.54035,0,0,0-.2602-.4527,2.83535,2.83535,0,0,0-.8717-.3872l-.0057-.0017v-.0001a3.87591,3.87591,0,0,1-1.168-.5404,1.44345,1.44345,0,0,1-.6191-1.1847,1.78145,1.78145,0,0,1,1.4622-1.6944v-.2731A.46278.46278,0,0,1,14.5741,12.7515Z" transform="translate(-3.09082 -5.26465)"/></svg>