<svg xmlns="http://www.w3.org/2000/svg" viewBox="0 0 124 124"><defs><style>.a{fill:#e7f4f9;stroke:#baddee;stroke-miterlimit:10;}.b{fill:#e5b147;}.b,.c,.d,.e{fill-rule:evenodd;}.c{fill:#4e4d4d;}.d{fill:#50a2c0;}.e{fill:#4692ad;}.f{fill:#f9ae2a;stroke:#f9ae2a;stroke-width:1.4px;}.f,.g{stroke-linecap:round;stroke-linejoin:round;}.g{fill:none;stroke:#182540;stroke-width:2.11px;}</style></defs><title>paymentMethod</title><circle class="a" cx="61.5" cy="62" r="59.5"/><path class="b" d="M89.8,43.2l-53.2-9a3.7,3.7,0,0,0-4.2,3.1L27,69.6a3.6,3.6,0,0,0,3,4.2l53.2,9a3.7,3.7,0,0,0,4.3-3.1l5.4-32.2A3.8,3.8,0,0,0,89.8,43.2Z"/><path class="c" d="M92.4,50,31.9,39.8l-1.5,9.4L90.9,59.4Z"/><path class="d" d="M91.4,46.8h-54a3.8,3.8,0,0,0-3.7,3.7V83.2a3.7,3.7,0,0,0,3.7,3.7h54a3.7,3.7,0,0,0,3.7-3.7V50.5A3.8,3.8,0,0,0,91.4,46.8Z"/><path class="b" d="M90.8,63.1H88.5v-2h2.2a.4.4,0,0,1,.1.3Zm-2.7,0H82.5V61.5c0-.1.1-.2.1-.3h2.2v1.1h.5V61.1h2.8ZM82.5,66h2.3v1.6H82.7l-.2-.3Zm2.8,0h2.8v1.6H85.3Zm3.2,0h2.3v1.2a.4.4,0,0,1-.1.3H88.5V66Zm2.3-.4H88.5V63.5h2.3Zm-2.7,0H85.3V63.5h2.8Zm-3.3,0H82.5V63.5h2.3Z"/><path class="e" d="M89.9,51.1H64.6a.7.7,0,0,0-.7.7v4.6a.7.7,0,0,0,.7.7H89.9a.8.8,0,0,0,.8-.7V51.8A.8.8,0,0,0,89.9,51.1Z"/><path class="e" d="M90.3,72.9H79.1a.3.3,0,0,0-.3.3v1.9a.3.3,0,0,0,.3.3H90.3a.3.3,0,0,0,.3-.3V73.2A.3.3,0,0,0,90.3,72.9Z"/><path class="e" d="M76.2,72.9H65.1a.3.3,0,0,0-.3.3v1.9a.3.3,0,0,0,.3.3H76.2a.3.3,0,0,0,.3-.3V73.2A.3.3,0,0,0,76.2,72.9Z"/><path class="e" d="M62.2,72.9H51a.3.3,0,0,0-.3.3v1.9a.3.3,0,0,0,.3.3H62.2a.3.3,0,0,0,.3-.3V73.2A.3.3,0,0,0,62.2,72.9Z"/><path class="e" d="M48.1,72.9H37a.3.3,0,0,0-.3.3v1.9a.3.3,0,0,0,.3.3H48.1a.3.3,0,0,0,.3-.3V73.2A.3.3,0,0,0,48.1,72.9Z"/><path class="e" d="M48.1,78.2H44.2a.3.3,0,0,0-.3.3v1.9a.3.3,0,0,0,.3.3h3.9a.3.3,0,0,0,.3-.3V78.5A.3.3,0,0,0,48.1,78.2Z"/><path class="e" d="M40.9,78.1H37a.3.3,0,0,0-.3.3v1.9a.3.3,0,0,0,.3.3h3.9c.2,0,.4-.1.4-.3V78.4A.4.4,0,0,0,40.9,78.1Z"/><path class="e" d="M90.5,78.7H67.6a.2.2,0,0,0-.2.2V80H90.7V78.9A.2.2,0,0,0,90.5,78.7Z"/><path class="e" d="M65.9,78.7h-9a.2.2,0,0,0-.2.2V80h9.4V78.9A.2.2,0,0,0,65.9,78.7Z"/><path class="f" d="M121.4,114.3,105.9,88.1a4.2,4.2,0,0,0-7.3,0L83.1,114.3a4.1,4.1,0,0,0,3.7,6.1h30.9A4.1,4.1,0,0,0,121.4,114.3Z"/><path class="g" d="M102.2,96.1V108"/><path class="g" d="M102.2,113.2v.4"/></svg>