<svg viewBox="0 0 20 20" fill="none" xmlns="http://www.w3.org/2000/svg">
<rect width="20" height="20" fill="white"/>
<g clip-path="url(#clip0_4893_62143)">
<path d="M12.7212 13.7845H11.4718C11.3871 13.7845 11.313 13.8481 11.2989 13.9328L10.7942 17.1375C10.7836 17.201 10.833 17.2575 10.8965 17.2575H11.5389C11.5989 17.2575 11.6483 17.2151 11.6589 17.1551L11.8036 16.2481C11.8177 16.1634 11.8883 16.0998 11.9765 16.0998H12.3718C13.1942 16.0998 13.6706 15.701 13.7942 14.914C13.8506 14.5681 13.7977 14.2963 13.6353 14.1093C13.4553 13.8975 13.1412 13.7845 12.7212 13.7845ZM12.8659 14.9563C12.7989 15.4045 12.4565 15.4045 12.1247 15.4045H11.9377L12.0683 14.5681C12.0753 14.5187 12.1212 14.4798 12.1706 14.4798H12.2553C12.4812 14.4798 12.693 14.4799 12.8024 14.6069C12.873 14.6846 12.8906 14.7975 12.8659 14.9563Z" fill="#179BD7"/>
<path d="M3.81289 13.7845H2.56348C2.47878 13.7845 2.40466 13.8481 2.39054 13.9328L1.88583 17.1375C1.87525 17.201 1.92466 17.2575 1.98819 17.2575H2.58819C2.67289 17.2575 2.74701 17.194 2.76113 17.1093L2.89878 16.2445C2.91289 16.1598 2.98348 16.0963 3.07172 16.0963H3.46701C4.28936 16.0963 4.76583 15.6975 4.88936 14.9105C4.94583 14.5646 4.89289 14.2928 4.73053 14.1057C4.547 13.8975 4.22936 13.7845 3.81289 13.7845ZM3.9576 14.9563C3.89054 15.4045 3.54819 15.4045 3.21642 15.4045H3.02583L3.15642 14.5681C3.16348 14.5187 3.20936 14.4798 3.25878 14.4798H3.34348C3.56936 14.4798 3.78113 14.4799 3.89054 14.6069C3.96113 14.6846 3.9823 14.7975 3.9576 14.9563Z" fill="#253B80"/>
<path d="M7.54696 14.9422H6.95048C6.89754 14.9422 6.85519 14.981 6.84813 15.0304L6.82343 15.1963L6.78107 15.1363C6.65049 14.9493 6.36107 14.8857 6.07519 14.8857C5.41519 14.8857 4.85049 15.3869 4.74107 16.0893C4.6846 16.4387 4.76578 16.774 4.96343 17.0069C5.14696 17.2222 5.40813 17.3104 5.71519 17.3104C6.24813 17.3104 6.5446 16.9681 6.5446 16.9681L6.51637 17.134C6.50578 17.1975 6.55519 17.254 6.61872 17.254H7.15872C7.24343 17.254 7.31754 17.1904 7.33166 17.1057L7.65637 15.0587C7.6599 14.9987 7.61048 14.9422 7.54696 14.9422ZM6.71401 16.1069C6.65754 16.4493 6.38578 16.6787 6.0399 16.6787C5.86696 16.6787 5.72578 16.6222 5.63754 16.5163C5.54931 16.4104 5.51401 16.2622 5.54225 16.0963C5.59519 15.7575 5.87049 15.521 6.21284 15.521C6.38225 15.521 6.5199 15.5775 6.61166 15.6834C6.70343 15.7893 6.73872 15.941 6.71401 16.1069Z" fill="#253B80"/>
<path d="M16.4553 14.9422H15.8588C15.8059 14.9422 15.7635 14.981 15.7565 15.0304L15.7318 15.1963L15.6894 15.1363C15.5588 14.9493 15.2694 14.8857 14.9835 14.8857C14.3235 14.8857 13.7588 15.3869 13.6494 16.0893C13.5929 16.4387 13.6741 16.774 13.8718 17.0069C14.0553 17.2222 14.3165 17.3104 14.6235 17.3104C15.1565 17.3104 15.4529 16.9681 15.4529 16.9681L15.4247 17.134C15.4141 17.1975 15.4635 17.254 15.527 17.254H16.067C16.1518 17.254 16.2259 17.1904 16.24 17.1057L16.5647 15.0587C16.5682 14.9987 16.5188 14.9422 16.4553 14.9422ZM15.6223 16.1069C15.5659 16.4493 15.2941 16.6787 14.9482 16.6787C14.7753 16.6787 14.6341 16.6222 14.5459 16.5163C14.4576 16.4104 14.4223 16.2622 14.4506 16.0963C14.5035 15.7575 14.7788 15.521 15.1212 15.521C15.2906 15.521 15.4282 15.5775 15.52 15.6834C15.6118 15.7893 15.6506 15.941 15.6223 16.1069Z" fill="#179BD7"/>
<path d="M10.734 14.9424H10.134C10.0775 14.9424 10.0211 14.9706 9.98929 15.02L9.15988 16.2412L8.80694 15.0659C8.78576 14.9918 8.7187 14.9424 8.64106 14.9424H8.05165C7.98106 14.9424 7.93165 15.013 7.95282 15.08L8.61635 17.0247L7.99517 17.9036C7.94576 17.9741 7.99518 18.0694 8.07988 18.0694H8.67988C8.73635 18.0694 8.78929 18.0412 8.82106 17.9953L10.8222 15.1083C10.8646 15.0377 10.8152 14.9424 10.734 14.9424Z" fill="#253B80"/>
<path d="M17.1611 13.8729L16.6494 17.1341C16.6388 17.1976 16.6882 17.2541 16.7517 17.2541H17.267C17.3517 17.2541 17.4259 17.1905 17.44 17.1058L17.9447 13.9011C17.9553 13.8376 17.9059 13.7811 17.8423 13.7811H17.267C17.2141 13.7847 17.1682 13.8235 17.1611 13.8729Z" fill="#179BD7"/>
<path d="M13.8116 4.80237C13.9387 3.99767 13.8116 3.44708 13.374 2.94943C12.894 2.40237 12.0258 2.16943 10.9175 2.16943H7.69518C7.4693 2.16943 7.27518 2.33532 7.23988 2.55767L5.89871 11.0636C5.874 11.233 6.00106 11.3847 6.17047 11.3847H8.15753L8.01988 12.2565C7.99518 12.4047 8.11165 12.5353 8.25988 12.5353H9.93636C10.134 12.5353 10.3034 12.3906 10.3352 12.1965L10.3528 12.1118L10.6669 10.1106L10.6881 10.0012C10.7199 9.80356 10.8893 9.66238 11.0869 9.66238H11.3375C12.9611 9.66238 14.2316 9.00238 14.6058 7.09297C14.7611 6.29532 14.6799 5.63179 14.2705 5.16238C14.1434 5.01415 13.9916 4.89768 13.8116 4.80237Z" fill="#179BD7"/>
<path d="M13.8116 4.80237C13.9387 3.99767 13.8116 3.44708 13.374 2.94943C12.894 2.40237 12.0258 2.16943 10.9175 2.16943H7.69518C7.4693 2.16943 7.27518 2.33532 7.23988 2.55767L5.89871 11.0636C5.874 11.233 6.00106 11.3847 6.17047 11.3847H8.15753L8.65871 8.21532L8.64459 8.31415C8.67988 8.09179 8.87047 7.92591 9.09988 7.92591H10.0458C11.9022 7.92591 13.3564 7.17062 13.7799 4.98944C13.7905 4.92591 13.8011 4.86591 13.8116 4.80237Z" fill="#222D65"/>
<path d="M9.19529 4.81296C9.21647 4.67885 9.30474 4.56943 9.42121 4.51296C9.47415 4.48826 9.53411 4.47414 9.59411 4.47414H12.1176C12.4176 4.47414 12.6965 4.49532 12.9506 4.53414C13.0247 4.54473 13.0953 4.55885 13.1623 4.57296C13.2329 4.58708 13.2965 4.60473 13.3635 4.6259C13.3953 4.63649 13.4271 4.64355 13.4588 4.65414C13.5823 4.69649 13.7024 4.7459 13.8083 4.80237C13.9353 3.99767 13.8082 3.44708 13.3706 2.94943C12.8906 2.40237 12.0223 2.16943 10.9141 2.16943H7.69176C7.46588 2.16943 7.27176 2.33532 7.23647 2.55767L5.89529 11.0636C5.87058 11.233 5.99768 11.3847 6.16709 11.3847H8.15415L8.65532 8.21532L9.19529 4.81296Z" fill="#253B80"/>
</g>
<defs>
<clipPath id="clip0_4893_62143">
<rect width="18" height="16.2353" fill="white" transform="translate(1 2)"/>
</clipPath>
</defs>
</svg>
