<?xml version="1.0" encoding="utf-8"?>
<!-- Generator: Adobe Illustrator 19.0.1, SVG Export Plug-In . SVG Version: 6.00 Build 0)  -->
<!DOCTYPE svg PUBLIC "-//W3C//DTD SVG 1.1//EN" "http://www.w3.org/Graphics/SVG/1.1/DTD/svg11.dtd">
<svg version="1.1" id="Layer_1" xmlns="http://www.w3.org/2000/svg" xmlns:xlink="http://www.w3.org/1999/xlink" x="0px" y="0px"
	 viewBox="0 0 42.5 50" enable-background="new 0 0 42.5 50" xml:space="preserve">
<g>
	<g>
		<path d="M40.4,11.7c-0.4-0.6-0.9-1.1-1.5-1.6c0.1,1.5-0.1,3.1-0.4,4.8c-0.9,4.6-3,8.6-6.2,11.4c-3.1,2.8-7,4.3-11.3,4.3h-6.2
			l-2,10.5c-0.4,2.1-2.1,3.6-4,3.6H6.1l-0.5,2.6c-0.1,0.7,0,1.4,0.4,1.9c0.4,0.5,1,0.8,1.6,0.8h6.9c1,0,1.8-0.7,2-1.8l2.4-12.3h7.9
			c3.8,0,7.3-1.3,10-3.8c2.8-2.5,4.7-6,5.4-10.1C42.9,17.8,42.3,14.4,40.4,11.7z M10.9,40.7l2.4-12.3h7.9c3.8,0,7.3-1.3,10-3.8
			c2.8-2.5,4.7-6,5.4-10.1c0.8-4.2,0.2-7.6-1.7-10.3C33,1.6,29.8,0,26.6,0H9.5c-1,0-1.8,0.7-2,1.8L0,39.7c-0.1,0.7,0,1.4,0.4,1.9
			c0.4,0.5,1,0.8,1.6,0.8h6.9C9.8,42.4,10.7,41.7,10.9,40.7z M17.1,8.6h5.4c1.3,0,2.4,0.6,3.1,1.6c0.8,1.1,1,2.6,0.6,4.2
			c0,0,0,0,0,0.1c-0.7,3.2-3.5,5.8-6.3,5.8h-5.2L17.1,8.6z"/>
	</g>
</g>
</svg>
