<svg width="40" height="40" viewBox="0 0 40 40" fill="none" xmlns="http://www.w3.org/2000/svg">
<mask id="mask0_3182_697" style="mask-type:alpha" maskUnits="userSpaceOnUse" x="4" y="5" width="25" height="31">
<path fill-rule="evenodd" clip-rule="evenodd" d="M29 5.00008H4.00001V36.0001H22.3924C20.3596 34.7752 19 32.5464 19 30.0001C19 26.1341 22.134 23.0001 26 23.0001C27.0736 23.0001 28.0908 23.2418 29 23.6737V5.00008Z" fill="#C4C4C4"/>
</mask>
<g mask="url(#mask0_3182_697)">
<path d="M23.2226 16.0001H12.7359" stroke="#0B2343" stroke-miterlimit="10" stroke-linecap="round" stroke-linejoin="round"/>
<path d="M23.2226 19.7962H12.7359" stroke="#0B2343" stroke-miterlimit="10" stroke-linecap="round" stroke-linejoin="round"/>
<path d="M19.3411 23.5921H12.7359" stroke="#0B2343" stroke-miterlimit="10" stroke-linecap="round" stroke-linejoin="round"/>
<path d="M27.9295 8.81721C27.9295 7.26081 26.6863 5.99861 25.1584 5.99861H10.7712C9.24323 5.99861 8.00001 7.26081 8.00001 8.81721V30.6163C8.00001 32.1727 9.24323 33.4349 10.7712 33.4349H25.1584C26.6863 33.4349 27.9295 32.1727 27.9295 30.6163V8.81721Z" stroke="#0B2343" stroke-miterlimit="10" stroke-linecap="round" stroke-linejoin="round"/>
</g>
<path d="M12.3551 9.91694H13.5199C13.8865 9.91694 14.1665 10.0064 14.3599 10.1854C14.5533 10.3644 14.65 10.6069 14.65 10.9129C14.65 11.2189 14.5533 11.4614 14.3599 11.6403C14.1665 11.8193 13.8865 11.9088 13.5199 11.9088H12.9916V13H12.3551V9.91694ZM12.9916 10.4452V11.3805H13.4333C13.8114 11.3805 14.0005 11.2246 14.0005 10.9129C14.0005 10.6011 13.8114 10.4452 13.4333 10.4452H12.9916ZM16.367 9.84766C16.7423 9.84766 17.0454 9.95303 17.2763 10.1638C17.5072 10.3716 17.6299 10.6458 17.6444 10.9865H17.0035C16.9833 10.8075 16.9169 10.6675 16.8043 10.5665C16.6917 10.4625 16.546 10.4106 16.367 10.4106C16.1331 10.4106 15.9484 10.5044 15.8127 10.692C15.6799 10.8768 15.6135 11.1323 15.6135 11.4585C15.6135 11.7847 15.6785 12.0416 15.8084 12.2292C15.9412 12.414 16.123 12.5064 16.354 12.5064C16.5359 12.5064 16.6831 12.4558 16.7957 12.3548C16.9111 12.2509 16.9804 12.1051 17.0035 11.9175H17.6574C17.6285 12.2812 17.4986 12.5641 17.2676 12.7662C17.0367 12.9682 16.7322 13.0693 16.354 13.0693C15.921 13.0693 15.5789 12.9264 15.3277 12.6406C15.0795 12.3519 14.9554 11.9579 14.9554 11.4585C14.9554 10.9591 15.0809 10.5665 15.3321 10.2807C15.5861 9.992 15.9311 9.84766 16.367 9.84766ZM18.1864 9.91694H19.3209C20.0714 9.91694 20.4467 10.2071 20.4467 10.7873C20.4467 10.9749 20.3962 11.1352 20.2952 11.2679C20.1941 11.4007 20.057 11.4917 19.8838 11.5407V11.5494C19.9935 11.5898 20.0801 11.6519 20.1436 11.7356C20.2071 11.8164 20.2749 11.9536 20.3471 12.147L20.6546 13H19.9617L19.7149 12.2682C19.6572 12.1008 19.5893 11.9853 19.5114 11.9218C19.4363 11.8554 19.3238 11.8222 19.1736 11.8222H18.8229V13H18.1864V9.91694ZM18.8229 10.4322V11.3156H19.2732C19.6283 11.3156 19.8058 11.164 19.8058 10.8609C19.8058 10.5751 19.6168 10.4322 19.2386 10.4322H18.8229Z" fill="#0B2343"/>
<path d="M26 25C23.2373 25 21 27.2373 21 30C21 32.7627 23.2373 35 26 35C28.7627 35 31 32.7627 31 30C31 27.2373 28.7592 25 26 25Z" stroke="#0B2343" stroke-miterlimit="10" stroke-linecap="round" stroke-linejoin="round"/>
<path d="M23 30H29.1465" stroke="#0B2343" stroke-miterlimit="10" stroke-linecap="round" stroke-linejoin="round"/>
</svg>
