<svg width="40" height="40" viewBox="0 0 40 40" fill="none" xmlns="http://www.w3.org/2000/svg">
<path d="M28.93 26.02V22.19H31.26" stroke="#0B2343" stroke-linecap="round" stroke-linejoin="round"/>
<path d="M28.93 24.11H30.93" stroke="#0B2343" stroke-linecap="round" stroke-linejoin="round"/>
<path d="M19.82 26.02V22.18H21.17C21.17 22.18 22.33 22.1401 22.33 23.1701C22.33 24.2401 21.17 24.25 21.17 24.25H19.82" stroke="#0B2343" stroke-linecap="round" stroke-linejoin="round"/>
<path d="M25.26 26.02C26.2 26.02 26.95 25.16 26.95 24.1C26.95 23.04 26.19 22.18 25.26 22.18H24.05V26.02H25.26Z" stroke="#0B2343" stroke-linecap="round" stroke-linejoin="round"/>
<path d="M22.98 6V11H27.98" stroke="#0B2343" stroke-miterlimit="10" stroke-linecap="round" stroke-linejoin="round"/>
<path d="M27.98 33V33.98C27.98 34.53 27.54 34.98 26.99 34.98H7.97998C7.42998 34.98 7 34.53 7 33.98V7.01001C7 6.46001 7.43998 6 7.97998 6H22.98C23.24 6 23.36 6.11004 23.54 6.29004L27.68 10.38C27.87 10.57 27.97 10.74 27.97 11V15" stroke="#0B2343" stroke-miterlimit="10" stroke-linecap="round" stroke-linejoin="round"/>
<path d="M32.6 18.03H17.32C16.57 18.03 15.97 18.63 15.97 19.38V28.58C15.97 29.33 16.58 29.93 17.32 29.93H32.6C33.35 29.93 33.95 29.33 33.95 28.58V19.38C33.95 18.63 33.34 18.03 32.6 18.03Z" stroke="#0B2343" stroke-miterlimit="10" stroke-linecap="round" stroke-linejoin="round"/>
</svg>
