<svg width="42" height="42" viewBox="0 0 42 42" fill="none" xmlns="http://www.w3.org/2000/svg">
<path fill-rule="evenodd" clip-rule="evenodd" d="M0.5 21C0.5 9.6961 9.69611 0.5 21 0.5C32.3039 0.5 41.4999 9.6961 41.4999 21C41.4999 32.3039 32.3039 41.5 21 41.5C9.69611 41.5 0.5 32.3039 0.5 21ZM21 1.5C10.2484 1.5 1.5 10.2484 1.5 21C1.5 31.7516 10.2484 40.5 21 40.5C31.7516 40.5 40.4999 31.7516 40.4999 21C40.4999 10.2484 31.7516 1.5 21 1.5Z" fill="#9E6713"/>
<path d="M32.8715 18.0104C32.4278 20.4987 30.543 22.6744 28.0694 23.5536C28.0674 23.5541 27.9848 23.5829 27.9829 23.5839C25.903 24.2971 24.301 25.8983 23.5569 28.0632C22.6833 30.5183 20.5073 32.4023 18.0136 32.8629C15.623 33.306 10.8717 32.5957 10.1374 31.8645C9.40459 31.1357 8.69422 26.3843 9.13683 23.9903C9.59852 21.4981 11.4834 19.3234 14.0254 18.4197C16.1053 17.7065 17.7073 16.1053 18.4509 13.9404C19.3367 11.4521 21.46 9.61301 23.9932 9.14115C24.5248 9.04201 25.1486 8.99902 25.8097 8.99902C28.3077 8.99902 31.331 9.61498 31.8645 10.145C32.5876 10.8645 33.2999 15.6086 32.8715 18.0104ZM24.1749 10.127C22.0249 10.5274 20.1484 12.1559 19.3681 14.3518C18.5541 16.724 16.7264 18.5507 14.2775 19.3915C12.1534 20.1469 10.524 22.0225 10.1265 24.1691C9.7376 26.274 10.3282 29.721 10.6981 30.8236C11.2832 30.5957 12.2137 30.4443 13.6174 30.2333C14.3151 30.1283 15.0725 30.0145 15.8343 29.8739C17.9823 29.4769 19.8584 27.8484 20.6401 25.6486C21.4546 23.277 23.2823 21.4497 25.7307 20.6094C27.8704 19.8491 29.4999 17.975 29.8812 15.8348C30.0238 15.0345 30.0863 14.45 30.141 13.9348C30.2477 12.9371 30.3328 12.1838 30.8805 10.7343C29.8127 10.3476 26.3 9.72871 24.1749 10.127ZM31.5121 11.975C31.2753 12.7669 31.2121 13.3237 31.1357 14.0408C31.079 14.5725 31.0146 15.1751 30.8657 16.0106C30.4223 18.498 28.5379 20.6729 25.9792 21.5821C23.901 22.295 22.2999 23.8956 21.5562 26.0598C20.6831 28.5135 18.5087 30.3969 16.0159 30.8574C15.2429 31 14.4744 31.1157 13.7658 31.2221C13.1859 31.3094 12.5387 31.407 11.9973 31.5112C13.082 31.7577 14.7276 32.0005 16.2103 32.0005C16.7928 32.0005 17.349 31.9629 17.8334 31.8736C19.9814 31.4766 21.8575 29.8476 22.6397 27.6478C23.4537 25.2761 25.2819 23.4489 27.6536 22.6354L27.7297 22.609C29.8695 21.8487 31.4989 19.9742 31.8803 17.8339C32.1903 16.096 31.8476 13.4679 31.5121 11.975Z" fill="#9E6713"/>
<path d="M24.6507 12.9766C23.7898 13.2496 23.1379 13.8873 22.9894 14.6017C22.9328 14.8722 22.6657 15.0456 22.3981 14.9899C22.1276 14.9338 21.9537 14.6686 22.0099 14.3986C22.234 13.3194 23.1305 12.4092 24.3489 12.0234C24.3992 12.0073 24.4499 12 24.4998 12C24.7122 12 24.9089 12.1362 24.9764 12.3491C25.0599 12.6124 24.9139 12.8932 24.6507 12.9766Z" fill="#9E6713"/>
<path d="M23.4997 17.0003C23.7121 17.0003 23.9089 17.1365 23.9763 17.3494C24.0598 17.6126 23.9138 17.8934 23.6506 17.9768C22.7897 18.2498 22.1379 18.8875 21.9894 19.6019C21.9328 19.8729 21.6647 20.0468 21.3981 19.9901C21.1275 19.9339 20.9537 19.6688 21.0099 19.3988C21.234 18.3196 22.1305 17.4094 23.3488 17.0236C23.3992 17.0076 23.45 17.0003 23.4997 17.0003Z" fill="#9E6713"/>
<path d="M17.6504 21.977C16.7895 22.25 16.1376 22.8877 15.9892 23.6021C15.9325 23.8726 15.6664 24.0464 15.3978 23.9903C15.1273 23.9341 14.9535 23.669 15.0096 23.3989C15.2338 22.3198 16.1303 21.4096 17.3486 21.0238C17.3989 21.0077 17.4497 21.0004 17.4995 21.0004C17.7119 21.0004 17.9087 21.1366 17.9761 21.3495C18.0596 21.6127 17.9136 21.8935 17.6504 21.977Z" fill="#9E6713"/>
<path d="M16.6504 27.9772C16.3857 28.0617 16.1064 27.9142 16.0229 27.6515C15.9394 27.3883 16.0854 27.1076 16.3486 27.0241C17.2095 26.7511 17.8614 26.1134 18.0098 25.399C18.0592 25.1626 18.2672 25.0005 18.4991 25.0005C18.5329 25.0005 18.567 25.004 18.6012 25.0108C18.8717 25.067 19.0455 25.3321 18.9894 25.6022C18.7652 26.6813 17.8687 27.5915 16.6504 27.9772Z" fill="#9E6713"/>
<path d="M27.6508 15.9767C27.3861 16.0612 27.1068 15.9147 27.0233 15.651C26.9398 15.3878 27.0858 15.1071 27.349 15.0236C27.6947 14.9142 27.954 14.6686 28.0102 14.3986C28.0595 14.1622 28.2675 14.0001 28.4995 14.0001C28.5332 14.0001 28.5674 14.0036 28.6015 14.0104C28.8721 14.0666 29.0459 14.3317 28.9897 14.6018C28.8594 15.2297 28.3462 15.7565 27.6508 15.9767Z" fill="#9E6713"/>
<path d="M12.6502 25.9772C12.3045 26.0866 12.0452 26.3322 11.989 26.6022C11.9319 26.8732 11.6668 27.0456 11.3977 26.9904C11.1272 26.9342 10.9533 26.6691 11.0095 26.399C11.1404 25.7706 11.6531 25.2437 12.3484 25.024C12.3987 25.0079 12.4495 25.0006 12.4993 25.0006C12.7117 25.0006 12.9085 25.1368 12.9759 25.3497C13.0594 25.6129 12.9134 25.8942 12.6502 25.9772Z" fill="#9E6713"/>
</svg>
