<svg width="40" height="40" viewBox="0 0 40 40" fill="none" xmlns="http://www.w3.org/2000/svg">
<path d="M19.7031 33.0773C26.1337 32.9704 27.5422 28.7547 27.4062 26.0931C27.2702 23.4218 24.4921 20.3621 24.1716 15.6897C23.919 11.9111 21.1602 11.8333 20.1112 11.9401C19.8392 11.9693 19.5769 11.9693 19.305 11.9401C18.2559 11.8333 15.4971 11.9111 15.2446 15.6897C14.924 20.3621 12.1556 23.4218 12.0099 26.0931C11.8642 28.7644 13.2726 32.9704 19.7031 33.0773Z" stroke="#0B2343" stroke-width="0.971377" stroke-miterlimit="10" stroke-linecap="round" stroke-linejoin="round"/>
<path d="M19.9266 9.46298C17.9061 11.6389 14.6812 6.29628 14.6812 6.29628C14.6812 6.29628 19.6935 4.56724 19.9266 9.46298Z" stroke="#0B2343" stroke-width="0.971377" stroke-miterlimit="10" stroke-linecap="round" stroke-linejoin="round"/>
<path d="M19.6159 13.2805C19.6159 13.2805 18.625 8.15172 22.6368 6.9375" stroke="#0B2343" stroke-width="0.971377" stroke-miterlimit="10" stroke-linecap="round" stroke-linejoin="round"/>
<path d="M18.761 34L19.509 32.3972L20.2667 34" stroke="#0B2343" stroke-width="0.971377" stroke-miterlimit="10" stroke-linecap="round" stroke-linejoin="round"/>
<path d="M22.7922 29.5026C22.7922 29.5026 25.5412 26.773 23.6373 24.0435" stroke="#0B2343" stroke-width="0.971377" stroke-miterlimit="10" stroke-linecap="round" stroke-linejoin="round"/>
</svg>
