<svg width="40" height="40" viewBox="0 0 40 40" fill="none" xmlns="http://www.w3.org/2000/svg">
<path d="M19.52 11.05H15.48C15.25 11.05 15 11.2399 15 11.5999V29.97C15 30.03 17.02 34.48 17.02 34.48C17.2 34.85 17.8 34.89 18 34.48C18 34.48 20.04 30.04 20.04 29.97V11.5999C20.05 11.2499 19.76 11.05 19.52 11.05Z" stroke="#0B2343" stroke-miterlimit="10" stroke-linecap="round" stroke-linejoin="round"/>
<path d="M17.95 14.01V29.97" stroke="#0B2343" stroke-miterlimit="10" stroke-linecap="round" stroke-linejoin="round"/>
<path d="M15 29.97H20.05" stroke="#0B2343" stroke-miterlimit="10" stroke-linecap="round" stroke-linejoin="round"/>
<path d="M16.1299 32.01H18.92" stroke="#0B2343" stroke-miterlimit="10" stroke-linecap="round" stroke-linejoin="round"/>
<path d="M15 8.57007V7.11987C15 6.53987 15.47 6 16.15 6H18.84C19.52 6 20.04 6.53987 20.04 7.11987V8.57007" stroke="#0B2343" stroke-miterlimit="10" stroke-linecap="round" stroke-linejoin="round"/>
</svg>
