<svg width="40" height="40" viewBox="0 0 40 40" fill="none" xmlns="http://www.w3.org/2000/svg">
<path d="M32.49 14.93C28.97 11.41 29.27 11.71 25.58 8.02002L14.1 12.51C14.1 12.51 15.13 20.36 6 31.06L7.71999 32.78L9.43999 34.5C20.13 25.38 27.99 26.41 27.99 26.41L32.49 14.93Z" stroke="#0B2343" stroke-linecap="round" stroke-linejoin="round"/>
<path d="M7.71997 32.78L20.64 19.87" stroke="#0B2343" stroke-linecap="round" stroke-linejoin="round"/>
<path d="M22.75 19.87C22.17 20.45 21.22 20.45 20.64 19.87C20.06 19.29 20.06 18.34 20.64 17.76C21.22 17.18 22.17 17.18 22.75 17.76C23.33 18.34 23.33 19.28 22.75 19.87Z" stroke="#0B2343"/>
<path d="M27.14 6L34.46 13.31" stroke="#0B2343" stroke-linecap="round" stroke-linejoin="round"/>
</svg>
