<svg viewBox="0 0 20 20" fill="none" xmlns="http://www.w3.org/2000/svg">
<g clip-path="url(#clip0_396_97981)">
<path d="M8.6001 3.59985C7.9385 3.59985 7.4001 4.13825 7.4001 4.79985V9.19985H8.2001C8.8617 9.19985 9.4001 9.73825 9.4001 10.3999V11.5999H12.6001V10.3999C12.6001 9.73825 13.1385 9.19985 13.8001 9.19985H14.6001V4.79985C14.6001 4.13825 14.0617 3.59985 13.4001 3.59985H8.6001ZM7.0001 9.99985C6.7793 9.99985 6.6001 10.1791 6.6001 10.3999V13.9999C6.6001 14.4411 6.9589 14.7999 7.4001 14.7999H14.6001C15.0413 14.7999 15.4001 14.4411 15.4001 13.9999V10.3999C15.4001 10.1791 15.2213 9.99985 15.0001 9.99985H13.8001C13.5789 9.99985 13.4001 10.1791 13.4001 10.3999V12.3999H8.6001V10.3999C8.6001 10.1791 8.4209 9.99985 8.2001 9.99985H7.0001ZM7.8001 15.1999C7.8001 15.4331 7.5823 16.2037 7.4251 16.6749C7.3843 16.7973 7.3999 16.9334 7.4751 17.0374C7.5499 17.1422 7.6713 17.1999 7.8001 17.1999H14.2001C14.3285 17.1999 14.4499 17.1422 14.5251 17.0374C14.6003 16.933 14.6159 16.7965 14.5751 16.6749C14.4175 16.2041 14.2001 15.4339 14.2001 15.1999H7.8001Z" fill="#E05F0A"/>
<path fill-rule="evenodd" clip-rule="evenodd" d="M-1.19995 3.59985H3.60005C4.25786 3.59985 4.80005 4.14185 4.80005 4.79985V9.99985H5.20005C5.3063 9.99985 5.40786 10.042 5.48286 10.117C5.52349 10.1579 5.55474 10.2067 5.57466 10.2598C5.59146 10.3041 5.60005 10.3516 5.60005 10.3999V13.9999C5.60005 14.4372 5.23716 14.7999 4.80005 14.7999H-2.39995C-2.83706 14.7999 -3.19995 14.4372 -3.19995 13.9999V10.3999C-3.19995 10.2938 -3.15776 10.192 -3.08276 10.117C-3.00776 10.042 -2.9062 9.99985 -2.79995 9.99985H-2.39995V4.79985C-2.39995 4.14185 -1.85776 3.59985 -1.19995 3.59985ZM4.80005 13.9999V10.7999H4.40005V12.3999C4.40005 12.5059 4.35786 12.6077 4.28286 12.6827C4.20786 12.7577 4.1063 12.7999 4.00005 12.7999H-1.59995C-1.64761 12.7999 -1.69409 12.7915 -1.73784 12.7754C-1.76519 12.7653 -1.79136 12.7524 -1.81597 12.7368C-1.83979 12.7213 -1.86245 12.7032 -1.88276 12.6827C-1.92612 12.6395 -1.95815 12.5874 -1.97808 12.5305C-1.99253 12.4889 -1.99995 12.4448 -1.99995 12.3999V10.7999H-2.39995V13.9999H4.80005ZM3.60005 11.9999V10.3999C3.59966 10.3 3.63677 10.2036 3.70357 10.1295C3.73794 10.0918 3.77857 10.0614 3.82349 10.0393C3.8438 10.0293 3.86489 10.0209 3.88677 10.0145C3.91138 10.0073 3.93677 10.0024 3.96255 9.99985H4.00005V4.79985C4.00005 4.57388 3.82622 4.39985 3.60005 4.39985H-1.19995C-1.26284 4.39985 -1.32183 4.41333 -1.37417 4.43774C-1.44019 4.4686 -1.49565 4.51665 -1.53472 4.57681C-1.57612 4.64009 -1.59995 4.71646 -1.59995 4.79985V9.99985H-1.56245C-1.46284 10.0092 -1.37065 10.0555 -1.30347 10.1295C-1.27378 10.1625 -1.24956 10.2 -1.23237 10.2405C-1.22534 10.2567 -1.21948 10.2733 -1.21479 10.2903C-1.20503 10.3256 -1.19995 10.3625 -1.19995 10.3999V11.9999H3.60005Z" fill="#E05F0A"/>
<path d="M-1.39956 16.2184L-1.41245 16.2624L-1.42222 16.2946C-1.42847 16.3131 -1.43394 16.3247 -1.4394 16.3364L-1.45073 16.3643L-1.46245 16.3999H3.86255C3.84185 16.3313 3.83403 16.3379 3.81255 16.2624C3.70982 15.903 3.60005 15.5338 3.60005 15.1999H4.40005C4.40005 15.243 4.43443 15.4229 4.48403 15.6342C4.5145 15.7649 4.55044 15.9075 4.58755 16.0374C4.62935 16.184 4.66997 16.3229 4.70278 16.4333L4.77505 16.6749C4.79458 16.7346 4.80005 16.7981 4.79068 16.8602C4.78091 16.9223 4.75708 16.9813 4.72075 17.0323C4.71138 17.0452 4.70161 17.0577 4.69068 17.0694C4.68208 17.079 4.6731 17.0879 4.66333 17.0965C4.63833 17.1192 4.61021 17.1385 4.58013 17.1543C4.52466 17.1834 4.46294 17.1991 4.40005 17.1999H-1.99995C-2.06284 17.1991 -2.12456 17.1834 -2.18003 17.1543C-2.19448 17.1469 -2.20815 17.1387 -2.22144 17.1297C-2.23433 17.1209 -2.24644 17.1116 -2.25776 17.1014C-2.2812 17.0811 -2.30229 17.0579 -2.32065 17.0323C-2.35698 16.9813 -2.38081 16.9223 -2.39058 16.8602C-2.39995 16.7981 -2.39448 16.7346 -2.37495 16.6749C-2.37495 16.6749 -2.28472 16.3772 -2.18745 16.0374C-2.09019 15.6975 -1.99995 15.2696 -1.99995 15.1999H-1.19995C-1.19995 15.3637 -1.22651 15.5362 -1.26558 15.7118C-1.3019 15.8768 -1.34995 16.0446 -1.39722 16.2108L-1.39956 16.2184Z" fill="#E05F0A"/>
</g>
</svg>
