<svg width="25" height="25" viewBox="0 0 25 25" fill="none" xmlns="http://www.w3.org/2000/svg">
<path d="M17.877 13.6452C17.6763 13.4445 17.3446 13.4357 17.1351 13.6277C17.1351 13.6277 15.6165 15.12 15.5117 15.2073C15.4856 15.2335 15.4594 15.251 15.4245 15.2685C13.8447 16.0714 8.13663 9.95324 9.21889 8.80988L10.8423 7.2126C11.0518 7.00312 11.0518 6.66264 10.851 6.4619L5.52697 1.03314C5.43096 0.928407 5.29132 0.876099 5.15167 0.876099C5.01202 0.876099 4.87237 0.928407 4.77637 1.03314C2.10562 3.65153 -2.17108 6.28753 7.82242 16.473C17.685 26.5276 20.5041 22.7133 23.2272 19.7895C23.4193 19.58 23.4193 19.2572 23.2185 19.0477L17.877 13.6452Z" stroke="#0B2343" stroke-miterlimit="10" stroke-linecap="round" stroke-linejoin="round"/>
</svg>
