<?xml version="1.0" encoding="utf-8"?>
<!-- Generator: Adobe Illustrator 19.1.0, SVG Export Plug-In . SVG Version: 6.00 Build 0)  -->
<svg version="1.1" id="Layer_1" xmlns="http://www.w3.org/2000/svg" xmlns:xlink="http://www.w3.org/1999/xlink" x="0px" y="0px"
	 viewBox="0 0 45.5 48.3" enable-background="new 0 0 45.5 48.3" xml:space="preserve">
<g>
	<path fill="#231F20" d="M33.7,48.3c-5.5,0-12.2-4.4-21.1-13.9C-5,15.4-1,8.4,5.7,1.8C6,1.5,6.4,1.1,6.7,0.8c0.5-0.5,1-0.8,1.8-0.7
		c0.7,0,1.3,0.3,1.8,0.8L20.7,12c0.9,1,0.9,2.5,0,3.5l-3.2,3.3c0,0.5,1.7,3.9,5.4,7.5c2.7,2.7,4.4,3.5,5,3.5c0.7-0.7,3-3.1,3-3.1
		c0.5-0.5,1.1-0.7,1.8-0.7c0.7,0,1.3,0.3,1.7,0.8l10.4,11.1c0.9,1,0.9,2.5,0,3.4l-0.5,0.6c-2.6,3-5.6,6.4-10.4,6.5
		C33.8,48.3,33.8,48.3,33.7,48.3z M8.5,3C8.2,3.3,7.9,3.6,7.7,3.8c-5,5-10.2,10.1,7.1,28.7c8.1,8.7,14.3,13,19,13c0,0,0.1,0,0.1,0
		c3.6-0.1,5.9-2.7,8.3-5.5l0.4-0.4L32.6,29c-0.7,0.8-2.7,2.8-2.9,3l-0.5,0.4c-3.9,2.1-11-6.9-11.3-7.3c-3.1-3.9-3.9-6.7-2.6-8.2
		l3-3.1L8.5,3z"/>
</g>
</svg>
