<svg width="25" height="25" viewBox="0 0 25 25" fill="none" xmlns="http://www.w3.org/2000/svg">
<path d="M18.2354 14.4785C18.0247 14.2678 17.6767 14.2587 17.4568 14.4602C17.4568 14.4602 15.8632 16.0262 15.7532 16.1178C15.7258 16.1453 15.6983 16.1637 15.6617 16.182C14.0039 17.0246 8.0138 10.6042 9.14953 9.40432L10.8531 7.72813C11.0729 7.50832 11.0729 7.15101 10.8623 6.94035L5.27523 1.24341C5.17448 1.13351 5.02793 1.07861 4.88139 1.07861C4.73484 1.07861 4.5883 1.13351 4.48755 1.24341C1.68486 3.99115 -2.8031 6.75737 7.68407 17.446C18.0339 27.9973 20.9923 23.9946 23.8499 20.9263C24.0514 20.7065 24.0514 20.3678 23.8407 20.1479L18.2354 14.4785Z" fill="#0B2343"/>
</svg>
