<svg width="40" height="40" viewBox="0 0 40 40" fill="none" xmlns="http://www.w3.org/2000/svg">
<path d="M25.7188 21.6301C25.4888 21.4001 25.1088 21.3901 24.8688 21.6101C24.8688 21.6101 23.1288 23.3199 23.0088 23.4199C22.9788 23.4499 22.9488 23.47 22.9088 23.49C21.0988 24.41 14.5588 17.4001 15.7988 16.0901L17.6588 14.26C17.8988 14.02 17.8988 13.6299 17.6688 13.3999L11.5688 7.17993C11.4588 7.05993 11.2988 7 11.1388 7C10.9788 7 10.8188 7.05993 10.7088 7.17993C7.64885 10.1799 2.74885 13.2001 14.1988 24.8701C25.4988 36.3901 28.7288 32.0199 31.8488 28.6699C32.0688 28.4299 32.0688 28.0601 31.8388 27.8201L25.7188 21.6301Z" stroke="#0B2343" stroke-miterlimit="10" stroke-linecap="round" stroke-linejoin="round"/>
</svg>
