<svg width="40" height="40" viewBox="0 0 40 40" fill="none" xmlns="http://www.w3.org/2000/svg">
<path d="M14.5054 8.10235L7.57765 15.0302C6.71395 15.8939 6.71395 17.3121 7.57765 18.1758L22.2788 32.8769C23.1425 33.7406 24.5607 33.7406 25.4244 32.8769L32.3522 25.9491C33.2159 25.0854 33.2159 23.6672 32.3522 22.8035L17.6512 8.10235C16.7875 7.22956 15.3691 7.22956 14.5054 8.10235Z" stroke="#0B2343" stroke-linecap="round" stroke-linejoin="round"/>
<path d="M27.7246 28.2405C27.3609 28.6041 26.77 28.6041 26.4063 28.2405C26.0427 27.8768 26.0427 27.2858 26.4063 26.9222C26.77 26.5585 27.3609 26.5585 27.7246 26.9222C28.0882 27.2767 28.0882 27.8677 27.7246 28.2405Z" stroke="#0B2343" stroke-linecap="round" stroke-linejoin="round"/>
<path d="M18.6153 9.06567L8.5416 19.1394L20.2803 30.8781L30.3541 20.8044L18.6153 9.06567Z" stroke="#0B2343" stroke-linecap="round" stroke-linejoin="round"/>
<path d="M29.6793 16.5668C29.7884 13.2938 27.1246 10.639 23.8607 10.7481" stroke="#0B2343" stroke-miterlimit="10" stroke-linecap="round" stroke-linejoin="round"/>
<path d="M32.8432 16.221C32.9523 11.3934 29.0338 7.47491 24.2062 7.58401" stroke="#0B2343" stroke-miterlimit="10" stroke-linecap="round" stroke-linejoin="round"/>
<path d="M10.2233 24.3765C10.1142 27.6494 12.7781 30.3042 16.042 30.1951" stroke="#0B2343" stroke-miterlimit="10" stroke-linecap="round" stroke-linejoin="round"/>
<path d="M7.05944 24.7219C6.95035 29.5496 10.8688 33.468 15.6964 33.3589" stroke="#0B2343" stroke-miterlimit="10" stroke-linecap="round" stroke-linejoin="round"/>
<path d="M19.7513 23.6398C20.615 23.5762 21.6332 23.167 22.1515 22.6488C22.9788 21.8215 23.0606 20.5669 22.3423 19.8486C21.6241 19.1304 20.5513 19.485 19.5422 20.0395C18.4785 20.5941 17.4602 20.9487 16.742 20.2305C16.0238 19.5122 16.1056 18.2576 16.9329 17.4303C17.4875 16.8757 18.2421 16.6575 18.8876 16.7939" stroke="#0B2343" stroke-miterlimit="10" stroke-linecap="round" stroke-linejoin="round"/>
<path d="M16.2146 16.7122L16.9238 17.4213" stroke="#0B2343" stroke-miterlimit="10" stroke-linecap="round" stroke-linejoin="round"/>
<path d="M22.1515 22.6489L22.8697 23.3672" stroke="#0B2343" stroke-miterlimit="10" stroke-linecap="round" stroke-linejoin="round"/>
</svg>
