<?xml version="1.0" encoding="utf-8"?>
<!-- Generator: Adobe Illustrator 22.1.0, SVG Export Plug-In . SVG Version: 6.00 Build 0)  -->
<svg version="1.1" id="Layer_1" xmlns="http://www.w3.org/2000/svg" xmlns:xlink="http://www.w3.org/1999/xlink" x="0px" y="0px"
	 viewBox="0 0 295.5 276" style="enable-background:new 0 0 295.5 276;" xml:space="preserve">
<style type="text/css">
	.st0{fill:#007DC3;}
</style>
<g>
	<g>
		<path class="st0" d="M178.3,241.8c-22.6,0-50.3-17.4-86.9-54.8c-35.9-36.6-53.2-65.3-52.7-87.6C39,80.6,51.2,69.1,61.9,59
			c1.5-1.4,3-2.9,4.5-4.3c1.5-1.5,3.4-2.2,5.7-2.3c2.1,0,4.2,0.9,5.6,2.4l43.8,44.7c1.5,1.5,2.3,3.5,2.3,5.6c0,2.1-0.9,4.1-2.4,5.6
			L108,124c-0.3,0.3-0.6,5,8,16.6c13.8,18.6,34,33.4,38.9,30.9c0.7-0.7,13.2-12.9,13.2-12.9c3.3-3,8.1-2.9,11.2,0.1l44,44.5
			c3,3.1,3.1,7.9,0.2,11.1l-2.3,2.5c-10.7,11.6-22.8,24.8-42.1,25.1C178.8,241.8,178.5,241.8,178.3,241.8z M68.9,57.3l2.5,2.6
			c-1.5,1.5-3,2.9-4.6,4.4c-10.2,9.6-20.7,19.5-21,35.2c-0.4,20.3,16.2,47.3,50.7,82.4c34.7,35.4,61.5,52.7,81.8,52.7
			c0.2,0,0.4,0,0.6,0c16.2-0.3,26.7-11.7,36.9-22.8l2.3-2.5c0.3-0.3,0.3-0.8,0-1.1l-44-44.5l0,0c-0.3-0.3-0.8-0.3-1.1,0
			c0,0-12.5,12.3-13.4,13c-0.4,0.4-0.9,0.7-1.5,1c-12,6-37.1-18.5-47.9-33c-9.3-12.5-11.8-21.2-7.4-25.9l13.5-13.2c0,0,0-1.1,0-1.1
			L72.5,59.9L68.9,57.3z"/>
	</g>
	<g>
		<path class="st0" d="M213.2,132.5c0,0-0.1,0-0.1,0c-2-0.1-3.5-1.7-3.5-3.7c0.5-16.1-5.4-31.1-16.7-42.4
			c-11.3-11.3-26.4-17.3-42.4-16.7c-2-0.2-3.6-1.5-3.7-3.5c-0.1-2,1.5-3.6,3.5-3.7c18.1-0.5,35,6.1,47.7,18.8
			c12.7,12.7,19.4,29.7,18.8,47.7C216.7,130.9,215.1,132.5,213.2,132.5z"/>
	</g>
	<g>
		<path class="st0" d="M243.6,132.5C243.6,132.5,243.5,132.5,243.6,132.5c-2.1,0-3.6-1.7-3.6-3.7c0.5-24.2-8.6-46.9-25.6-64
			c-17-17-39.6-26.2-64-25.6c-1.8,0.1-3.6-1.5-3.7-3.5c0-2,1.5-3.6,3.5-3.7c26.1-0.6,50.8,9.3,69.2,27.7
			c18.4,18.4,28.3,43,27.7,69.2C247.1,130.9,245.5,132.5,243.6,132.5z"/>
	</g>
	<g>
		<path class="st0" d="M182.7,132.5c-0.1,0-0.2,0-0.2,0c-2-0.1-3.5-1.8-3.4-3.8c0.5-7.7-2.3-15.3-7.8-20.8c-5.5-5.4-13-8.3-20.8-7.8
			c-2,0.2-3.7-1.4-3.8-3.3c-0.1-2,1.4-3.7,3.4-3.8c9.8-0.6,19.4,2.9,26.3,9.9c6.9,6.9,10.5,16.5,9.9,26.3
			C186.2,131,184.6,132.5,182.7,132.5z"/>
	</g>
</g>
</svg>
