<svg width="25" height="25" viewBox="0 0 25 25" fill="none" xmlns="http://www.w3.org/2000/svg">
<path d="M18.2355 14.4785C18.0248 14.2678 17.6768 14.2587 17.457 14.4602C17.457 14.4602 15.8633 16.0262 15.7534 16.1178C15.7259 16.1453 15.6984 16.1637 15.6618 16.182C14.004 17.0246 8.01393 10.6042 9.14965 9.40432L10.8532 7.72813C11.0731 7.50832 11.0731 7.15101 10.8624 6.94035L5.27535 1.24341C5.1746 1.13351 5.02806 1.07861 4.88151 1.07861C4.73497 1.07861 4.58842 1.13351 4.48767 1.24341C1.68498 3.99115 -2.80298 6.75737 7.6842 17.446C18.034 27.9973 20.9924 23.9946 23.85 20.9263C24.0515 20.7065 24.0515 20.3678 23.8409 20.1479L18.2355 14.4785Z" fill="#0B2343"/>
</svg>
