<?xml version="1.0" encoding="utf-8"?>
<!-- Generator: Adobe Illustrator 19.1.0, SVG Export Plug-In . SVG Version: 6.00 Build 0)  -->
<svg version="1.1" id="Layer_1" xmlns="http://www.w3.org/2000/svg" xmlns:xlink="http://www.w3.org/1999/xlink" x="0px" y="0px"
	 width="128px" height="128px" viewBox="0 0 128 128" style="enable-background:new 0 0 128 128;" xml:space="preserve">
<g>
	<g id="XMLID_35_">
		<path d="M60.9,85.7H21.2c-1.8,0-3.2-1.4-3.2-3.2v-5.4c0-1.3,0.8-2.5,2-3c11.2-4.3,13.6-6.2,14.1-6.9v-1.1c-1.3-1.5-2.3-3.4-3-5.6
			c-0.9-0.8-1.5-1.9-1.6-3.1c-0.2-1.2,0.1-2.4,0.7-3.5v-4.3c0-6.3,4-10.1,10.8-10.1c6.9,0,10.8,3.7,10.8,10.1V54
			c0.7,1,0.9,2.2,0.7,3.5c-0.2,1.2-0.8,2.3-1.6,3.1c-0.7,2.2-1.7,4.1-3,5.6v1.1c0.4,0.5,2.7,2.4,14.1,6.8c0,0,0,0,0,0
			c1.2,0.5,2,1.7,2,3v5.4C64.1,84.2,62.6,85.7,60.9,85.7z M41,42.9c-4.9,0-7.4,2.3-7.4,6.7v4.8c0,0.4-0.1,0.8-0.4,1.1
			c-0.3,0.4-0.5,0.9-0.4,1.4c0.1,0.5,0.3,0.9,0.7,1.2c0.3,0.2,0.5,0.5,0.7,0.9c0.6,2.1,1.6,3.9,2.8,5.2c0.3,0.3,0.5,0.7,0.5,1.2v2.2
			c0,0.2,0,0.3-0.1,0.5c-0.5,1.6-2.2,3.7-16.2,9.1l0.1,5.3l39.6-0.1l-0.2-5.2c-13.2-5.1-15.5-7.4-16.1-9c-0.1-0.2-0.1-0.3-0.1-0.5
			v-2.2c0-0.4,0.2-0.9,0.5-1.2c1.2-1.3,2.2-3.1,2.8-5.2c0.1-0.4,0.3-0.7,0.7-0.9c0.4-0.3,0.7-0.7,0.7-1.2c0.1-0.5-0.1-1-0.4-1.4
			c-0.2-0.3-0.4-0.7-0.4-1.1v-4.8C48.5,45.2,46,42.9,41,42.9z"/>
		<path d="M71.2,100.3H5.3c-0.9,0-1.7-0.8-1.7-1.7V21.7c0-0.9,0.8-1.7,1.7-1.7h110.5c0.9,0,1.7,0.8,1.7,1.7v41.7
			c0,0.9-0.8,1.7-1.7,1.7s-1.7-0.8-1.7-1.7v-40H7v73.6h64.2c0.9,0,1.7,0.8,1.7,1.7C72.9,99.5,72.1,100.3,71.2,100.3z"/>
		<path d="M85.8,71.4H72.5c-0.9,0-1.7-0.8-1.7-1.7c0-0.9,0.8-1.7,1.7-1.7h13.3c0.9,0,1.7,0.8,1.7,1.7C87.5,70.7,86.7,71.4,85.8,71.4
			z"/>
		<path d="M101.2,57H72.5c-0.9,0-1.7-0.8-1.7-1.7s0.8-1.7,1.7-1.7h28.7c0.9,0,1.7,0.8,1.7,1.7S102.1,57,101.2,57z"/>
		<path d="M101.2,42.9H72.5c-0.9,0-1.7-0.8-1.7-1.7s0.8-1.7,1.7-1.7h28.7c0.9,0,1.7,0.8,1.7,1.7S102.1,42.9,101.2,42.9z"/>
	</g>
	<path d="M103.9,113.8c-6,0-11.6-2.3-15.8-6.5c-8.7-8.7-8.7-22.9,0-31.6c8.7-8.7,22.9-8.7,31.6,0c0,0,0,0,0,0
		c4.2,4.2,6.5,9.8,6.5,15.8c0,6-2.3,11.6-6.5,15.8C115.5,111.5,109.9,113.8,103.9,113.8z M103.9,72.5c-4.9,0-9.7,1.8-13.4,5.5
		c-7.4,7.4-7.4,19.4,0,26.8c3.6,3.6,8.3,5.6,13.4,5.6c5.1,0,9.8-2,13.4-5.6c3.6-3.6,5.6-8.3,5.6-13.4c0-5.1-2-9.8-5.5-13.4v0
		C113.6,74.4,108.8,72.5,103.9,72.5z"/>
	<path d="M100.4,101.5c-0.4,0-0.8-0.2-1.2-0.5c-0.7-0.6-0.7-1.7-0.1-2.4l13.2-14.2c0.6-0.7,1.7-0.7,2.4-0.1c0.7,0.6,0.7,1.7,0.1,2.4
		L101.6,101C101.3,101.3,100.8,101.5,100.4,101.5z"/>
	<path d="M100.5,101.5c-0.5,0-0.9-0.2-1.2-0.5l-6.1-6.6c-0.6-0.7-0.6-1.7,0.1-2.4c0.7-0.6,1.7-0.6,2.4,0.1l6.1,6.6
		c0.6,0.7,0.6,1.7-0.1,2.4C101.3,101.3,100.9,101.5,100.5,101.5z"/>
</g>
</svg>
