<svg width="40" height="40" viewBox="0 0 40 40" fill="none" xmlns="http://www.w3.org/2000/svg">
<path d="M12.7527 13.1726L6.5327 15.0828C6.1327 15.2028 5.9127 15.6327 6.0327 16.0327L10.3527 29.8425C10.4727 30.2425 10.9027 30.4628 11.3027 30.3328L20.5327 27.4326" stroke="#0B2343" stroke-miterlimit="10" stroke-linecap="round" stroke-linejoin="round"/>
<path d="M27.7627 12.5227L26.7827 9.5327C26.6627 9.1327 26.2327 8.9127 25.8327 9.0327L19.4827 10.9726" stroke="#0B2343" stroke-miterlimit="10" stroke-linecap="round" stroke-linejoin="round"/>
<path d="M34.0027 13.6825L14.1227 9.97254C13.7127 9.89254 13.3227 10.1626 13.2427 10.5726L10.5927 24.7926C10.5127 25.2026 10.7827 25.5925 11.1927 25.6725L31.0827 29.3825C31.4927 29.4625 31.8827 29.1926 31.9627 28.7826L34.6127 14.5626C34.6827 14.1526 34.4127 13.7625 34.0027 13.6825Z" stroke="#0B2343" stroke-miterlimit="10" stroke-linecap="round" stroke-linejoin="round"/>
<path d="M17.2827 18.6825C18.3827 18.8925 19.4427 18.1626 19.6427 17.0626C19.8527 15.9626 19.1227 14.9025 18.0227 14.7025C16.9227 14.4925 15.8627 15.2226 15.6527 16.3226C15.4627 17.4226 16.1827 18.4825 17.2827 18.6825Z" stroke="#0B2343" stroke-miterlimit="10" stroke-linecap="round" stroke-linejoin="round"/>
<path d="M14.9227 26.3027L23.1927 18.5227L25.1927 22.6226L29.6327 17.8625L32.7027 24.6826" stroke="#0B2343" stroke-miterlimit="10" stroke-linecap="round" stroke-linejoin="round"/>
</svg>
