<svg width="25" height="25" viewBox="0 0 25 25" fill="none" xmlns="http://www.w3.org/2000/svg">
<path d="M16.2093 14.4917C16.2093 16.4577 14.5454 18.057 12.5 18.057C10.4546 18.057 8.79129 16.4577 8.79129 14.4917C8.79129 12.5258 10.4546 10.9265 12.5 10.9265C14.5454 10.9265 16.2093 12.5264 16.2093 14.4917ZM24 9.42921V19.5555C24 20.9055 22.8613 22 21.4567 22H3.54326C2.13875 22 1 20.9055 1 19.5555V9.42921C1 8.07924 2.13875 6.98472 3.54326 6.98472H6.67148V6.13893C6.67148 4.95763 7.66716 4 8.89683 4H16.1032C17.3328 4 18.3285 4.95763 18.3285 6.13893V6.98411H21.4567C22.8613 6.98472 24 8.07924 24 9.42921ZM18.1168 14.4917C18.1168 11.515 15.5971 9.09309 12.5 9.09309C9.40358 9.09309 6.88384 11.515 6.88384 14.4917C6.88384 17.4685 9.40358 19.8904 12.5 19.8904C15.5971 19.8904 18.1168 17.4685 18.1168 14.4917Z" fill="#0B2343"/>
</svg>
