<svg width="40" height="40" viewBox="0 0 40 40" fill="none" xmlns="http://www.w3.org/2000/svg">
<path d="M17.6643 29.003C17.841 29.9453 17.23 30.8507 16.2877 31.0348C15.3455 31.2114 14.44 30.6005 14.256 29.6582C14.0793 28.716 14.6903 27.8105 15.6326 27.6265C16.5748 27.4498 17.4803 28.0608 17.6643 29.003Z" stroke="#0B2343" stroke-linecap="round" stroke-linejoin="round"/>
<path d="M27.845 27.0595C28.0217 28.0017 27.4107 28.9072 26.4684 29.0912C25.5262 29.2679 24.6207 28.6569 24.4367 27.7147C24.26 26.7724 24.871 25.867 25.8133 25.6829C26.7555 25.4989 27.6683 26.1172 27.845 27.0595Z" stroke="#0B2343" stroke-linecap="round" stroke-linejoin="round"/>
<path d="M19.0335 28.7452L23.0969 27.9648" stroke="#0B2343" stroke-miterlimit="10" stroke-linecap="round" stroke-linejoin="round"/>
<path d="M28.986 26.7504C29.3762 26.6768 29.6265 26.294 29.5528 25.9112L29.1848 24.0488C29.0449 23.3569 28.4266 22.8636 27.7199 22.893L23.4503 23.0697L20.999 19.5952C20.837 19.367 20.55 19.2492 20.2776 19.3081L11.0906 21.1263C10.7004 21.1999 10.4502 21.5827 10.5238 21.9655L11.9592 29.2091C12.0181 29.4962 12.239 29.717 12.5187 29.7759L13.1223 29.8937" stroke="#0B2343" stroke-miterlimit="10" stroke-linecap="round" stroke-linejoin="round"/>
<path d="M10.9945 24.2423L9.29025 24.5797L10.0908 28.6237L11.7951 28.2863L10.9945 24.2423Z" stroke="#0B2343" stroke-miterlimit="10" stroke-linecap="round" stroke-linejoin="round"/>
<path d="M11.2158 25.4918L23.4429 23.0699" stroke="#0B2343" stroke-miterlimit="10" stroke-linecap="round" stroke-linejoin="round"/>
<path d="M17.4876 19.8601L18.3195 24.0855" stroke="#0B2343" stroke-miterlimit="10" stroke-linecap="round" stroke-linejoin="round"/>
<path d="M13.299 20.6844L14.1382 24.9172" stroke="#0B2343" stroke-miterlimit="10" stroke-linecap="round" stroke-linejoin="round"/>
<path d="M11.3115 19.1536L18.5476 17.7181" stroke="#0B2343" stroke-miterlimit="10" stroke-linecap="round" stroke-linejoin="round"/>
<path d="M29.781 31.241C26.623 26.6107 22.0296 31.241 22.0296 31.241C17.23 29.8424 9.92017 32.8531 9 33.6334" stroke="#0B2343" stroke-linecap="round" stroke-linejoin="round"/>
<path d="M23.6565 9.84146L21.264 10.7837C20.3954 11.1297 19.7844 10.6807 17.6864 9.88567L17.2006 10.0771L18.9379 11.7039L18.5109 11.8732C17.5834 12.2413 21.7278 12.0646 22.9277 11.7849L29.8032 9.06858C29.8032 9.06858 32.1736 8.13368 31.3565 7.68464C30.4437 7.19143 28.2794 8.01587 28.2794 8.01587L25.6293 9.06121L21.7352 7L21.4702 7.10307L23.6565 9.84146Z" stroke="#0B2343" stroke-miterlimit="10" stroke-linecap="round" stroke-linejoin="round"/>
</svg>
