<svg viewBox="0 0 32 32" xmlns="http://www.w3.org/2000/svg"><path fill="#221E1F" d="M15.2 28.3c-.2 0-.3-.1-.3-.3V14c0-.2.1-.3.3-.3s.3.1.3.3v14c0 .1-.2.3-.3.3zm11.6 0c-.2 0-.3-.1-.3-.3V13.7c0-.2.1-.3.3-.3s.3.1.3.3V28c0 .1-.2.3-.3.3z"/><path fill="#221E1F" d="M28.7 28.3H13.2c-1.4 0-2.5-1.1-2.5-2.5v-10c0-1.4 1.1-2.5 2.5-2.5h15.5c1.4 0 2.5 1.1 2.5 2.5v10c0 1.4-1.1 2.5-2.5 2.5zM13.2 14c-1 0-1.9.8-1.9 1.9v10c0 1 .8 1.9 1.9 1.9h15.5c1 0 1.9-.8 1.9-1.9v-10c0-1-.8-1.9-1.9-1.9H13.2zm11.6-2.1c-.2 0-.3-.1-.3-.3 0-1.3-1.1-2.4-2.4-2.4h-2c-1.3 0-2.4 1.1-2.4 2.4 0 .2-.1.3-.3.3s-.3-.1-.3-.3c0-1.7 1.4-3 3-3h2c1.7 0 3 1.4 3 3 0 .2-.2.3-.3.3zM5.2 23.1c-.2 0-.3-.1-.3-.3V8.7c0-.2.1-.3.3-.3s.3.1.3.3v14.1c0 .1-.2.3-.3.3z"/><path fill="#221E1F" d="M7.9 23.1H2.8c-1.1 0-2-.9-2-2V10.4c0-1.1.9-2 2-2h11.8c.2 0 .3.1.3.3s-.1.3-.3.3H2.8c-.8 0-1.4.6-1.4 1.4v10.7c0 .8.6 1.4 1.4 1.4h5.1c.2 0 .3.1.3.3s-.2.3-.3.3zM14.5 7c-.2 0-.3-.1-.3-.3 0-1.3-1.1-2.4-2.4-2.4h-2c-1.3 0-2.4 1.1-2.4 2.4 0 .2-.1.3-.3.3s-.3-.1-.3-.3c0-1.6 1.3-3 3-3h2c1.6 0 3 1.3 3 3 0 .2-.1.3-.3.3z"/></svg>