<svg viewBox="0 0 32 32" xmlns="http://www.w3.org/2000/svg"><path fill="#221E1F" d="M15.6 24.3c-.2 0-.3-.1-.3-.3V8.7l-5.5 5.5c-.1.1-.3.1-.4 0-.1-.1-.1-.3 0-.4l6-6c.1-.1.2-.1.3-.1.1 0 .2.2.2.3v16c0 .2-.2.3-.3.3z"/><path fill="#221E1F" d="M21.7 14.3c-.1 0-.2 0-.2-.1l-6-6c-.1-.1-.1-.3 0-.4.1-.1.3-.1.4 0l6 6c.1.1.1.3 0 .4 0 0-.1.1-.2.1z"/><path fill="#221E1F" d="M15.9 31.3C7.4 31.3.5 24.4.5 15.9.5 8.3 5.9 2 13.3.7c.2 0 .3.1.3.2 0 .2-.1.3-.2.3C6.3 2.5 1.1 8.6 1.1 15.9c0 8.2 6.6 14.8 14.8 14.8S30.7 24 30.7 15.9c0-7.2-5.2-13.4-12.3-14.6-.2 0-.3-.2-.2-.3 0-.2.2-.3.3-.2C25.9 2 31.3 8.3 31.3 15.9c0 8.5-6.9 15.4-15.4 15.4z"/></svg>