<svg viewBox="0 0 32 32" xmlns="http://www.w3.org/2000/svg"><path fill="#211D1E" d="M28.7 29H7.1c-.2 0-.3-.1-.3-.3 0-1-1-1.6-2-1.6-.2 0-.3-.1-.3-.3v-3.4c0-.2.1-.3.3-.3s.3.1.3.3v3.1c1 .1 2.1.9 2.2 1.9h21.1c.2-1.1 1.2-1.8 2.2-1.9V16.4c-.4 0-.7-.1-1-.3-.1-.1-.2-.3-.1-.4.1-.1.3-.2.4-.1.3.2.7.3 1 .3.2 0 .3.1.3.3v10.7c0 .2-.1.3-.3.3-.9 0-2 .7-2 1.6.1.1 0 .2-.2.2z"/><path fill="#211D1E" d="M24.6 25.7c-.1 0-.2-.1-.2-.2v-.9c0-.1.1-.2.2-.2s.2.1.2.2v.9c-.1.1-.1.2-.2.2zm.1-3.6c-.1 0-.2-.1-.2-.2V21c0-.1.1-.2.2-.2s.2.1.2.2v.9c0 .1-.1.2-.2.2zm-.3 6.8c-.1 0-.2-.1-.2-.2v-.5c0-.1.1-.2.2-.2s.2.1.2.2v.5c0 .1-.1.2-.2.2z"/><path fill="#211D1E" d="M24.6 25.8c-.2 0-.3-.1-.3-.3v-.9c0-.2.1-.3.3-.3.2 0 .3.1.3.3v.9c-.1.2-.2.3-.3.3zm0-3.6c-.2 0-.3-.1-.3-.3V21c0-.1.1-.3.3-.3.2 0 .3.1.3.3v.9c0 .1-.1.3-.3.3zm.4-4.4v.5c0 .1-.1.3-.3.3-.2 0-.3-.1-.3-.3v-.5m.1 11.2c-.2 0-.3-.1-.3-.3v-.5c0-.2.1-.3.3-.3.2 0 .3.1.3.3v.5c0 .2-.1.3-.3.3z"/><g fill="#211D1E"><path d="M6.5 23.1h-.1c-.1 0-.1-.1-.1-.2C6 22 4.9 21.6 4 21.8c-.2 0-.3-.1-.4-.2L.7 11.3c0-.2.1-.3.2-.4.9-.2 1.7-1.1 1.5-2.1 0-.2.1-.3.2-.4l20.9-5.7h.2c.1 0 .1.1.1.2.3.9 1.4 1.3 2.3 1.1.2 0 .3.1.4.2l2.8 10.3v.2c0 .1-.1.1-.2.1-.5.1-.9.4-1.2.8-.3.4-.4.9-.3 1.3 0 .2-.1.3-.2.4L6.5 23.1zm-2.1-1.9c.9 0 1.9.4 2.2 1.3L27 16.9c-.1-.5.1-1 .4-1.5.3-.4.7-.8 1.2-1L26 4.7c-1 .2-2.2-.3-2.7-1.3L3 9c.1 1.1-.7 2-1.7 2.4L4 21.2h.4z"/><path d="M19.8 4.9c-.1 0-.3-.1-.3-.2l-.1-.4c0-.2.1-.3.2-.4.2 0 .3.1.4.2l.1.4c0 .2-.1.4-.3.4zm3.1 11.4c-.1 0-.3-.1-.3-.2l-.3-1c0-.2.1-.3.2-.4.2 0 .3.1.4.2l.3 1c0 .2-.1.3-.3.4zm-1.1-3.9c-.1 0-.3-.1-.3-.2l-.3-1c0-.2.1-.3.2-.4.2 0 .3.1.4.2l.3 1c0 .2-.1.3-.3.4.1 0 0 0 0 0zm-1-3.9c-.1 0-.3-.1-.3-.2l-.3-1c0-.2.1-.3.2-.4.2 0 .3.1.4.2l.3 1c0 .2-.1.4-.3.4zm2.7 10c-.1 0-.3-.1-.3-.2l-.1-.4c0-.2.1-.3.2-.4.2 0 .3.1.4.2l.1.4c0 .2-.1.4-.3.4z"/></g><path fill="#211D1E" d="M6.4 16c-.2 0-.3-.1-.4-.3-.1-.2 0-.3.1-.5l-1.5-1c-.1-.1-.1-.2-.1-.3 0-.1.1-.2.1-.2l.4-.2h.2c.5.1.9.2 1.2.3 1.3.3 1.6.4 2.1.1l1.8-1L8.2 11c-.1-.1-.1-.2-.1-.3 0-.1.1-.2.1-.2l.2-.1c.1 0 .2-.1.2 0l3.7 1.3 2.2-1.3c.2-.1 2.1-1.1 3.1-.8.3.1.4.3.4.5 0 .6-1 1.2-1.6 1.6L10.6 15c-.1.1-1.4.6-4.2 1zm-.9-1.9l1.4.9c.1.1.1.2.1.3 2.2-.3 3.3-.8 3.3-.8l6-3.5c.6-.3 1.1-.8 1.3-1-.6-.2-1.9.4-2.6.7l-2.3 1.4c-.1 0-.2.1-.2 0L9.4 11l2.1 1.9c.1.1.1.3 0 .4-.1.1-.3.1-.4 0l-.2-.2-2 1.1c-.7.4-1.2.3-2.5 0-.2 0-.5 0-.9-.1zm8 1.5c-.1 0-.1 0-.2-.1l-.9-.8c-.1-.1-.1-.3 0-.4.1-.1.3-.1.4 0l.7.6h.1l.1-1.2c0-.2.2-.3.3-.3.2 0 .3.2.3.3l-.2 1.3c0 .1-.1.2-.1.2l-.4.3c0 .1-.1.1-.1.1z"/></svg>