<svg viewBox="0 0 32 32" xmlns="http://www.w3.org/2000/svg"><path fill="#211D1E" d="M26.5 21.3c-2.2 0-4.2-1.4-5-3.5h-11c-.8 2.1-2.7 3.5-5 3.5C2.6 21.3.2 18.9.2 16s2.4-5.3 5.3-5.3c2.3 0 4.3 1.5 5 3.7h10.9c.7-2.2 2.7-3.7 5-3.7 2.9 0 5.3 2.4 5.3 5.3.1 2.9-2.3 5.3-5.2 5.3zm-16.2-4.1h11.5c.1 0 .2.1.3.2.6 1.9 2.4 3.2 4.5 3.2 2.6 0 4.7-2.1 4.7-4.7s-2.1-4.7-4.7-4.7c-2.1 0-4 1.4-4.5 3.4 0 .1-.2.2-.3.2H10.3c-.1 0-.3-.1-.3-.2-.6-2-2.4-3.4-4.5-3.4-2.6 0-4.7 2.1-4.7 4.7s2.1 4.7 4.7 4.7c2 0 3.8-1.3 4.5-3.2 0-.1.1-.2.3-.2z"/></svg>