<svg viewBox="0 0 32 32" xmlns="http://www.w3.org/2000/svg"><path fill="#272424" d="M20.9 6.3c-.1 0-.1 0 0 0-.8 0-1.3-.6-1.3-1.4 0-.4.2-.7.4-.9.3-.2.6-.4.9-.3.7 0 1.3.6 1.3 1.4-.1.7-.6 1.2-1.3 1.2zm0-2c-.2 0-.4.1-.5.2-.1.1-.2.3-.2.5 0 .4.3.7.7.7.4 0 .7-.3.7-.7 0-.3-.3-.7-.7-.7zm1 .8zm-2.3 7.1c-.2 0-.3-.1-.3-.3l.1-3.5c0-.7.6-1.3 1.3-1.3.4 0 .7.1.9.4.3.3.4.6.4 1l.2 1.5.5-.4c.1-.1.3-.1.4.1s.1.3-.1.4l-.9.7c-.1.1-.2.1-.3 0-.1 0-.2-.1-.2-.2l-.3-2.1c0-.3-.1-.4-.2-.6-.1-.1-.3-.2-.5-.2-.3 0-.6.3-.6.7l-.1 3.5c0 .2-.1.3-.3.3zm-7.9.8s-.1 0 0 0c-.4 0-.7-.2-1-.4-.2-.3-.4-.6-.3-.9 0-.4.2-.7.4-.9.3-.2.6-.4.9-.3.4 0 .7.2.9.4.2.3.4.6.3.9.1.7-.5 1.2-1.2 1.2zm0-2c-.2 0-.4.1-.5.2-.1.1-.2.3-.2.5s.1.4.2.5c.1.1.3.2.5.2.4 0 .7-.3.7-.7 0-.2-.1-.4-.2-.5-.1-.1-.3-.2-.5-.2zm1 .7zm-2.3 7.2c-.2 0-.3-.1-.3-.3l.1-3.5c0-.7.6-1.3 1.3-1.3.4 0 .7.1 1 .4.2.3.4.6.4 1l.2 1.3.5-.4c.1-.1.3-.1.4.1.1.1.1.3-.1.4l-.9.6c-.1.1-.2.1-.3 0-.1 0-.2-.1-.2-.2l-.3-1.9c0-.3-.1-.4-.2-.6-.1-.1-.3-.2-.5-.2-.4 0-.7.3-.7.7l-.1 3.5c0 .3-.1.4-.3.4zm-2-3.6c-.8 0-1.3-.6-1.3-1.4 0-.4.2-.7.4-.9.3-.2.6-.4.9-.3.4 0 .7.2.9.4.2.3.4.6.3.9.1.8-.5 1.3-1.2 1.3zm0-2c-.2 0-.4.1-.5.2-.1.1-.2.3-.2.5 0 .4.3.7.7.7.4 0 .7-.3.7-.7 0-.2-.1-.4-.2-.5-.1-.1-.3-.2-.5-.2zm1 .7z"/><path fill="#272424" d="M7.2 21.2c-.2 0-.3-.1-.3-.3l.1-3.6c0-.7.6-1.3 1.3-1.3.4 0 .7.1.9.4.2.3.4.6.4 1l.2 1.3.4-.3c.1-.1.3-.1.4 0 .1.1.1.3 0 .4l-.8.7c-.1.1-.2.1-.3.1-.1 0-.2-.1-.2-.2l-.3-2c0-.3-.1-.4-.2-.6-.1-.1-.3-.3-.5-.2-.4 0-.7.3-.7.7l-.1 3.5c0 .3-.2.4-.3.4z"/><path fill="#272424" d="M6.7 26.1H3.8c-1.3 0-3-.2-3-2.2s1.7-2.2 3-2.2h2l14.8-10.9c.5-.3 1.1-.5 1.6-.5h5.9c1.3 0 3 .2 3 2.2 0 1.9-1.7 2.2-3 2.2h-5L20 17.1c-.1.1-.3.1-.4-.1-.1-.1-.1-.3.1-.4l3.3-2.4c.1 0 .1-.1.2-.1h5.1c1.7 0 2.4-.5 2.4-1.6s-.7-1.6-2.4-1.6h-5.9c-.5 0-.9.1-1.3.4l-15 11c-.1 0-.1.1-.2.1H3.8c-1.7 0-2.4.5-2.4 1.6s.7 1.6 2.4 1.6h2.9c.5 0 .9-.1 1.3-.4l6.3-4.6c.1-.1.3-.1.4.1.1.1.1.3-.1.4l-6.3 4.6c-.4.2-1 .4-1.6.4z"/><path fill="#272424" d="M12.9 26.6h-1.5c-.2 0-.3-.1-.3-.3v-2.1c0-.2.1-.3.3-.3s.3.1.3.3V26h1.2c.2 0 .3.1.3.3s-.2.3-.3.3zm16.5 0h-1.8c-.2 0-.3-.1-.3-.3s.1-.3.3-.3h1.5v-5c0-.1-.1-.3-.3-.5l-1.6-1.1-.1-.1-1.4-3.2h-2.5c-.2 0-.3-.1-.3-.3s.1-.3.3-.3h2.7c.1 0 .2.1.3.2l1.4 3.3 1.5 1c.1.1.6.5.6 1v5.3c0 .2-.1.3-.3.3zm-5.2.1h-8c-.2 0-.3-.1-.3-.3s.1-.3.3-.3h8c.2 0 .3.1.3.3s-.1.3-.3.3z"/><path fill="#272424" d="M25.9 28.3c-1.1 0-2-.9-2-2s.9-2 2-2 2 .9 2 2-.9 2-2 2zm0-3.4c-.8 0-1.4.6-1.4 1.4 0 .8.6 1.4 1.4 1.4s1.4-.6 1.4-1.4c0-.8-.6-1.4-1.4-1.4zm-11.3 3.4c-1.1 0-2-.9-2-2s.9-2 2-2 2 .9 2 2-.9 2-2 2zm0-3.4c-.8 0-1.4.6-1.4 1.4 0 .8.6 1.4 1.4 1.4s1.4-.6 1.4-1.4c0-.8-.7-1.4-1.4-1.4z"/><path fill="#272424" d="M29.4 24.5h-18c-.2 0-.3-.1-.3-.3s.1-.3.3-.3h18c.2 0 .3.1.3.3s-.1.3-.3.3z"/><path fill="#272424" d="M23.3 24.5c-.2 0-.3-.1-.3-.3v-8.3c0-.2.1-.3.3-.3s.3.1.3.3v8.3c0 .2-.2.3-.3.3zm-7.6-1.4c-.1 0-.2 0-.3-.1-.2-.1-.3-.4-.2-.6l.7-2.2-1.8-1.4c-.2-.1-.3-.4-.2-.6s.3-.4.5-.4h2.3l.7-2.1c.1-.2.3-.3.5-.3s.4.1.5.3l.7 2.1h2.3c.2 0 .4.1.5.4.1.2 0 .4-.2.6l-1.8 1.4.7 2.2c.1.2 0 .4-.2.6-.2.1-.4.1-.6 0l-1.9-1.3L16 23c-.1.1-.2.1-.3.1zm-1.1-4.5l1.8 1.4c.1.1.1.2.1.3l-.7 2.1 1.9-1.3c.1-.1.2-.1.3 0l1.9 1.3-.7-2.1c0-.1 0-.3.1-.3l1.8-1.4h-2.3c-.1 0-.2-.1-.3-.2l-.7-2.1-.7 2.1c0 .1-.2.2-.3.2h-2.2zm6.8 0z"/></svg>