<svg id="Layer_1" data-name="Layer 1" xmlns="http://www.w3.org/2000/svg" viewBox="0 0 30.45988 31.0163"><defs><style>.cls-1{fill:#fff;}</style></defs><path class="cls-1" d="M9.71533,6.979c-.04638,0-.09228-.001-.13867-.00293A3.25688,3.25688,0,0,1,6.46338,3.58154,3.25742,3.25742,0,1,1,9.71533,6.979ZM9.7207,1.53467a2.18377,2.18377,0,0,0-1.48144.57519,2.15755,2.15755,0,0,0-.70752,1.51563A2.18878,2.18878,0,0,0,8.105,5.20068a2.157,2.157,0,0,0,1.51563.707A2.25379,2.25379,0,0,0,11.1958,5.335a2.15811,2.15811,0,0,0,.707-1.51611V3.81543A2.17478,2.17478,0,0,0,9.814,1.53662C9.78271,1.53564,9.75146,1.53467,9.7207,1.53467Z" transform="translate(-0.46582 -0.46515)"/><path class="cls-1" d="M23.76074,31.48145a.53556.53556,0,0,1-.46875-.27735l-4.4414-8.07324H11.5083a5.04789,5.04789,0,0,1-2.5625-.66406,3.51592,3.51592,0,0,1-.98389-2.19434L6.70654,12.23193a.532.532,0,0,1-.00586-.10791A3.514,3.514,0,0,1,9.9585,8.7251c1.84912-.09619,3.2915,1.31347,3.54687,3.46484l.30615,3.18652,3.36914,2.11084a.53473.53473,0,0,1-.56787.90625l-3.59228-2.25048a.53283.53283,0,0,1-.24854-.40186l-.33008-3.437c-.14843-1.25147-.86132-2.57568-2.439-2.51074A2.43412,2.43412,0,0,0,7.772,12.123l1.25049,8.0166a2.53,2.53,0,0,0,.58594,1.48828,4.018,4.018,0,0,0,1.90722.43262H19.1875a.53618.53618,0,0,1,.51953.40722l4.52246,8.22071a.53528.53528,0,0,1-.46875.793Z" transform="translate(-0.46582 -0.46515)"/><path class="cls-1" d="M21.39355,12.35352a.84112.84112,0,0,1-.5-.16651.832.832,0,0,1-.30566-.92773L21.585,7.97607l-2.749-2.07373a.84576.84576,0,0,1,.48828-1.51953l3.459-.06885L23.917,1.06641a.84275.84275,0,0,1,1.5918-.00147l1.13379,3.249,3.45605.06885h.00293a.848.848,0,0,1,.498,1.51514L27.84082,7.97607l.999,3.28565a.84458.84458,0,0,1-1.28515.94189l-2.8418-1.96826L21.874,12.20215A.84833.84833,0,0,1,21.39355,12.35352Zm.1504-.80225v0ZM24.71289,9.127a.503.503,0,0,1,.28516.08887l2.75488,1.90869-.9707-3.19189A.50056.50056,0,0,1,26.96,7.3877L29.63379,5.374l-3.3584-.06689a.49919.49919,0,0,1-.46191-.33545L24.71289,1.81934,23.6123,4.97168a.49917.49917,0,0,1-.46191.33545l-3.35449.06641L22.46582,7.3877a.50082.50082,0,0,1,.17773.54492l-.96972,3.19092,2.7539-1.90772A.503.503,0,0,1,24.71289,9.127Z" transform="translate(-0.46582 -0.46515)"/><path class="cls-1" d="M17.03027,26.44434H7.56543a.53472.53472,0,0,1-.50537-.36036L3.09766,14.65625H1.00049a.53467.53467,0,0,1,0-1.06934H3.478a.5345.5345,0,0,1,.50537.35938L7.9458,25.374h9.08447a.53516.53516,0,1,1,0,1.07032Z" transform="translate(-0.46582 -0.46515)"/></svg>