<svg xmlns="http://www.w3.org/2000/svg" width="43" height="44" viewBox="0 0 43 44"><path d="M26.525 43.8c-.3 0-.6-.3-.6-.6V32c0-.3.3-.6.6-.6h5l-4.2-9.5c0-.1-.1-.2 0-.3l.9-4.4c.2-4.9-.1-6.1-.2-6.4-.2 0-.4-.1-.5-.1l-2.6 2.6c-.2.2-.6.2-.8 0l-2.6-2.6c-.2 0-.4 0-.5.1-.1.3-.4 1.5-.2 6.5l.9 4.3v.3l-4.2 9.5h5c.3 0 .6.3.6.6v11.3c0 .3-.3.6-.6.6s-.6-.3-.6-.6V32.5h-5.4c-.2 0-.4-.1-.5-.3-.1-.2-.1-.4 0-.5l4.5-10.1-.9-4.2c-.3-7.2.3-7.5.8-7.6h.1c.4-.1.8-.2 1.2-.2.1 0 .3.1.4.2l2.4 2.4 2.4-2.4c.1-.1.2-.2.4-.2.4 0 .8.1 1.2.2h.1c.5.2 1.1.5.8 7.5l-.9 4.3 4.5 10.1c.1.2.1.4 0 .5-.1.2-.3.3-.5.3h-5.4v10.8c0 .3-.3.5-.6.5zM6.7 44c-.3 0-.6-.3-.6-.6v-15c0-.3.3-.6.6-.6s.6.3.6.6v15c-.1.3-.3.6-.6.6zm0-36.6c-1.9 0-3.3-2.5-3.3-4.1C3.4 1.5 4.8 0 6.7 0S10 1.5 10 3.3c0 1.6-1.4 4.1-3.3 4.1zm0-6.3c-1.2 0-2.2 1-2.2 2.1 0 1.3 1.1 3 2.2 3s2.2-1.7 2.2-3c0-1.1-1-2.1-2.2-2.1zm17.725 6.7c-2 0-3.4-2.5-3.4-4.1 0-1.8 1.5-3.3 3.4-3.3s3.4 1.5 3.4 3.3c0 1.7-1.4 4.1-3.4 4.1zm0-6.3c-1.2 0-2.2 1-2.2 2.1 0 1.3 1.1 3 2.2 3s2.2-1.7 2.2-3c.1-1.1-.9-2.1-2.2-2.1z"/><path d="M10.7 44c-.1 0-.1 0 0 0-.3 0-.6-.3-.6-.6l.7-18.6c0-.2.1-.4.2-.5.3-.3.7-.2 1-.2.4-10.8-.3-13.3-.5-13.8H10c-.3 0-.5.2-.7.4-.5.9-1.5 1.5-2.7 1.5-1.2 0-2.2-.6-2.7-1.5-.1-.3-.4-.4-.7-.4H1.7c-.2.5-.9 2.9-.5 13.8.4 0 .8-.1 1 .2.1.1.2.3.2.5L3 43.4c0 .3-.2.6-.5.6s-.6-.2-.6-.5l-.4-18.2h-.1c-.4 0-.7.1-1-.2-.1-.1-.2-.3-.2-.5-.2-6.4-.3-14.2 1-15.2.1-.1.1-.1.2-.1s.4-.1 1.3-.1h.6c.7 0 1.4.3 1.7 1 .3.7 1.1.9 1.7.9.6 0 1.4-.2 1.7-.9.4-.7 1-1.1 1.7-1h.6c1 0 1.2.1 1.3.1.1 0 .1.1.2.1 1.2 1 1.2 8.9 1 15.2 0 .2-.1.4-.2.5-.3.2-.7.2-1 .2h-.1l-.7 18.2c0 .3-.2.5-.5.5z"/></svg>