<svg viewBox="0 0 32 32" xmlns="http://www.w3.org/2000/svg"><path fill="#221E1F" d="M26.2 30.3H5.8c-.2 0-.3-.1-.3-.3V18.5c0-.2.1-.3.3-.3s.3.1.3.3v11.2h19.8V18.5c0-.2.1-.3.3-.3s.3.1.3.3V30c0 .2-.2.3-.3.3zm1.9-13.5h-9.7c-.2 0-.3-.1-.3-.3s.1-.3.3-.3h9.4v-5.4H4.2v5.4h9.5c.2 0 .3.1.3.3s-.1.3-.3.3H3.9c-.2 0-.3-.1-.3-.3v-6c0-.2.1-.3.3-.3h24.3c.2 0 .3.1.3.3v6c-.1.1-.2.3-.4.3z"/><path fill="#221E1F" d="M16 10.8h-.1c-.3-.1-7.3-2.8-7.8-5.9-.1-1 .3-1.8 1.2-2.5.9-.7 1.7-.9 2.5-.6 2.9 1.1 4.4 8.3 4.4 8.6 0 .1 0 .2-.1.3 0 .1 0 .1-.1.1zm-4.9-8.5c-.4 0-.9.2-1.4.6-.8.6-1.1 1.2-1 1.9C9 7 13.9 9.3 15.6 10c-.4-1.7-1.8-6.8-3.9-7.6-.3-.1-.5-.1-.6-.1z"/><path fill="#221E1F" d="M16 10.8c-.1 0-.1 0-.2-.1s-.1-.2-.1-.3c0-.3 1.1-6.4 3.7-7.4.7-.3 1.5-.2 2.3.4.7.5 1 1.1 1 1.8-.2 2.6-6.3 5.5-6.6 5.6H16zm4.2-7.4c-.2 0-.4 0-.6.1-1.8.8-2.9 4.9-3.2 6.4 1.9-1 5.6-3.1 5.7-4.8 0-.5-.2-.9-.7-1.3-.4-.2-.8-.4-1.2-.4z"/><path fill="#221E1F" d="M18.4 30.3h-4.8c-.2 0-.3-.1-.3-.3V10.5c0-.2.1-.3.3-.3h4.8c.2 0 .3.1.3.3V30c0 .2-.1.3-.3.3zm-4.5-.6h4.2V10.8h-4.2v18.9z"/></svg>