<svg viewBox="0 0 32 32" xmlns="http://www.w3.org/2000/svg"><path fill="#211D1E" d="M24.2 22.1c-.2 0-.3-.1-.3-.3v-3.4c0-1-.8-1.9-1.9-1.9H6.9c-.6 0-1.2.3-1.5.7-.2.2-.4.6-.4 1.1v3.4c0 .2-.1.3-.3.3s-.3 0-.3-.2v-3.4c-.1-.5.1-1.1.5-1.6.5-.6 1.2-.9 2-.9H22c1.4 0 2.5 1.1 2.5 2.5v3.4c0 .2-.1.3-.3.3z"/><path fill="#211D1E" d="M26 28.7H2.9c-1.2 0-2.2-1-2.2-2.1v-4.7c0-1.1.9-2 2.1-2 1.1 0 2.3.9 2.3 2v2.5H24v-2.5c0-1.1 1-2 2.2-2 1.1 0 2.1.9 2.1 2v4.7c-.1 1.1-1.1 2.1-2.3 2.1zM2.8 20.4c-.8 0-1.5.6-1.5 1.4v4.7c0 .8.7 1.5 1.6 1.5H26c.9 0 1.6-.7 1.6-1.5v-4.7c0-.8-.7-1.4-1.5-1.4-.9 0-1.6.7-1.6 1.4v2.8c0 .2-.1.3-.3.3H4.7c-.2 0-.3-.1-.3-.3v-2.8c0-.8-.9-1.4-1.6-1.4z"/><path fill="#211D1E" d="M24.2 30.5c-.2 0-.3-.1-.3-.3v-1.9c0-.2.1-.3.3-.3s.3.1.3.3v1.9c0 .2-.1.3-.3.3zm-19.5 0c-.2 0-.3-.1-.3-.3v-1.9c0-.2.1-.3.3-.3s.3.2.3.4v1.9c0 .1-.1.2-.3.2zm9.4-5.6c-.2 0-.3-.1-.3-.3v-8.4c0-.2.1-.3.3-.3s.3.1.3.3v8.4c0 .2-.2.3-.3.3z"/><g fill="#211D1E"><path d="M24.9 8.6h-5.1c-.2 0-.3-.1-.3-.3 0-1.5 1.3-2.9 2.9-2.9s2.9 1.3 2.9 2.9c-.1.1-.3.3-.4.3zM20.1 8h4.5c-.2-1.1-1.1-2-2.2-2s-2.2.9-2.3 2z"/><path d="M29.4 30.5c-.2 0-.3-.1-.3-.3v-25c0-1.7-1.4-3.1-3.2-3.2-.8 0-1.6.3-2.1.8-.7.7-1.1 1.7-1.1 2.8 0 .2-.1.3-.3.3s-.4 0-.4-.2c0-1.2.5-2.4 1.3-3.2.7-.7 1.6-1 2.6-1 2.2.1 3.8 1.7 3.8 3.8v25c0 .1-.1.2-.3.2z"/><path d="M31 30.5h-3.2c-.2 0-.3-.1-.3-.3s.1-.3.3-.3H31c.2 0 .3.1.3.3s-.1.3-.3.3z"/></g></svg>