<svg xmlns="http://www.w3.org/2000/svg" viewBox="0 0 60 28"><path d="M7.188 27.524a.692.692 0 0 1-.661-.487.688.688 0 0 1 .311-.836l1.335-.773-8.059-5.552c-.075-.05-.125-.137-.112-.224 0-.088.05-.175.137-.225l1.934-1.123c.062-.037.125-.05.187-.025 2.146.462 3.905.874 5.464 1.236 5.851 1.36 7.61 1.771 10.105.336l9.407-5.426-10.58-9.731a.3.3 0 0 1-.087-.225c0-.087.063-.162.137-.2l1.06-.61c.063-.038.15-.038.225-.026l17.403 6.1 10.48-6.05c.362-.2 8.807-4.927 13.061-3.368.662.237 1.01.624 1.06 1.123.188 2.145-6.012 5.788-6.723 6.2L25.788 23.494c-.1.038-6.125 2.395-18.5 4.03zM.763 19.689l8.059 5.552c.075.05.125.137.112.224 0 .088-.05.175-.137.225l-1.697.985c-.112.063-.087.163-.074.2.012.037.037.15.187.112 12.3-1.622 18.276-3.954 18.338-3.98L52.985 7.165c1.846-1.06 6.587-4.154 6.462-5.689-.013-.1-.037-.424-.711-.674-4.03-1.472-12.538 3.281-12.613 3.331l-10.579 6.113a.286.286 0 0 1-.224.025l-17.403-6.1-.637.374 12.288 11.328a.26.26 0 0 1 .013.374c-.1.112-.262.112-.374.013l-1.572-1.448-9.544 5.514c-2.67 1.547-4.64 1.086-10.492-.286a241.068 241.068 0 0 0-5.352-1.21zM39.3 25.877a.275.275 0 0 1-.188-.075l-3.917-3.693a.26.26 0 0 1-.013-.374c.1-.1.275-.112.375-.012l3.755 3.53 1.36-1.048.673-6.013c.013-.15.162-.25.3-.237.15.013.25.15.237.3l-.687 6.125a.343.343 0 0 1-.1.187l-1.621 1.26c-.062.025-.112.05-.175.05z"/></svg>