<svg viewBox="0 0 51 61" xmlns="http://www.w3.org/2000/svg"><path d="M11 15.3h-.3c-3.1-.1-5.4-2.7-5.3-5.8.1-1.5.7-2.9 1.8-3.9s2.5-1.5 4-1.5c3.1.1 5.4 2.7 5.3 5.8-.1 1.5-.7 2.9-1.8 3.9-1 .9-2.4 1.5-3.7 1.5zm-.1-10.2c-1.1 0-2.2.4-3.1 1.2-.8.8-1.4 1.9-1.4 3.2-.1 2.5 1.8 4.7 4.4 4.8 1.2 0 2.4-.4 3.3-1.2.9-.8 1.4-2 1.5-3.2h.5-.5c.1-2.5-1.8-4.7-4.4-4.8h-.3zM50.5 61c-.1 0-.3-.1-.4-.2L37.9 45.4h-14c-.1 0-3.1-.1-4.4-1.1-1.3-1-9.8-15.7-9.8-18.9 0-3.2 2.4-5.8 5.6-5.9 3.7-.1 5 2.8 6.1 5.9 1.1 3.2 4.3 6.2 4.3 6.2l6.6 4.1c.2.1.3.5.2.7-.1.2-.5.3-.7.2L25 32.4c-.2-.2-3.5-3.3-4.7-6.7-1.2-3.5-2.4-5.4-5.1-5.2-2.6.1-4.6 2.2-4.6 4.9 0 2.9 8.4 17.3 9.4 18.1.9.7 3.1.9 3.8.9H38c.2 0 .4.2.5.4l12.2 15.4c.2.2.1.5-.1.7.1.1 0 .1-.1.1z"/><path d="M34.1 51.6H16.5c-.2 0-.4-.1-.4-.3L4.8 29.6H.5c-.3 0-.5-.2-.5-.5s.2-.5.5-.5h4.6c.2 0 .4.1.4.3l11.3 21.7h17.3c.3 0 .5.2.5.5s-.2.5-.5.5zm-1.2-29.9c-3.4 0-6.3-2.8-6.3-6.3V6.3c0-3.4 2.8-6.3 6.3-6.3s6.3 2.8 6.3 6.3v9.2c-.1 3.4-2.9 6.2-6.3 6.2zm0-20.7c-2.9 0-5.3 2.4-5.3 5.3v9.2c0 2.9 2.4 5.3 5.3 5.3s5.3-2.4 5.3-5.3V6.3C38.1 3.4 35.8 1 32.9 1z"/></svg>