<svg viewBox="0 0 23 50" xmlns="http://www.w3.org/2000/svg"><path d="M22.5 0H.5C.2 0 0 .2 0 .5v31.1c0 .1.1.3.2.4.1.1.2.2.4.2h2.5c-.2.3-.3.7-.3 1 0 .6.2 1.1.6 1.5.3.3.7.5 1.4.6-.2.3-.3.7-.3 1.1 0 1.1.7 2.1 2.1 2.1H8c-1.1 2.4-2 6.5.8 11 .1.2.3.2.4.2.1 0 .2 0 .3-.1.2-.2.3-.5.2-.7-4-6.5.2-11.9.4-12.1.1-.1.1-.2.1-.3v-8.3c0-1.1 1-1.4 1.6-1.4.4 0 .8.1 1.1.4.3.3.5.6.5 1.1v7.8c0 .3.2.5.5.5s.5-.2.5-.5v-4h5.2c.2 1 .6 4.3-1.4 9.7-1.3 3.5-1.7 7.4-1.7 7.6 0 .3.2.6.5.6h.1c.3 0 .5-.2.5-.5 0 0 .5-3.9 1.7-7.3 1.9-5.4 1.7-8.7 1.4-10.1h1.7c.3 0 .5-.2.5-.5V.6c.1-.4-.1-.6-.4-.6zM3.8 33.2c0-.5.4-1 1.3-1h4.1v2.1H5.1c-.4 0-.8-.1-1-.3-.2-.3-.3-.6-.3-.8zm4.7 4.3c-.1 0-.2-.1-.3-.1H6.7c-.8 0-1.1-.5-1.1-1.1 0-.5.3-1.1 1.1-1.1h2.6v1.1c-.2.3-.5.7-.8 1.2zM22 31h-7.5v-2.7c0-3.3-5.3-3.3-5.3 0v2.8H1v-30h21V31z"/><path d="M5.1 13.2c0 4 3 7.2 6.7 7.2s6.6-3.3 6.6-7.2c0-4-3-7.2-6.6-7.2-2.6 0-4.8 1.5-6 3.9v.1c-.4.9-.7 2-.7 3.2zm11.8 2.6h-1.7c.1-.6.2-1.3.2-2.1h2c0 .7-.2 1.4-.5 2.1zM6.2 13.7h2c0 .7.1 1.4.2 2.1H6.7c-.3-.7-.5-1.4-.5-2.1zm3 0h2.1v2.1H9.5c-.2-.7-.3-1.4-.3-2.1zm2.1 3.1v2.4c-.6-.3-1.1-1.2-1.5-2.4h1.5zm1 2.4v-2.4h1.6c-.4 1.2-1 2.1-1.6 2.4zm0-3.4v-2.1h2.1c0 .7-.1 1.4-.2 2.1h-1.9zm5.1-3.2h-2c0-.7-.1-1.4-.2-2h1.7c.3.6.5 1.3.5 2zm-3 0h-2.1v-2h1.8c.2.6.3 1.3.3 2zm-2.1-3V7.1c.6.3 1.2 1.2 1.6 2.4h-1.6zm-1-2.5v2.4H9.7c.4-1.2 1-2 1.6-2.4zm0 3.5v2H9.2c0-.7.1-1.4.2-2h1.9zm-3.1 2h-2c.1-.7.2-1.4.5-2h1.7c-.1.7-.2 1.3-.2 2zm-1 4.2h1.4c.2.8.5 1.4.8 2-.8-.4-1.6-1.1-2.2-2zm6.9 2c.3-.5.6-1.2.8-2h1.4c-.5.9-1.3 1.5-2.2 2zm2.3-9.2H15c-.2-.8-.5-1.4-.8-2 .8.4 1.6 1.1 2.2 2zM9.5 7.5c-.3.6-.6 1.2-.8 2H7.2c.6-.8 1.4-1.5 2.3-2z"/></svg>