<svg viewBox="0 0 43.5 42.1" xmlns="http://www.w3.org/2000/svg"><path d="M39.1 40.7H3.2c-1.8 0-3.2-1.5-3.2-3.2V13c0-1.8 1.5-3.2 3.2-3.2H39c1.8 0 3.2 1.5 3.2 3.2v24.4c.1 1.8-1.3 3.3-3.1 3.3zM3.2 11.3c-1 0-1.8.8-1.8 1.8v24.4c0 1 .8 1.8 1.8 1.8H39c1 0 1.8-.8 1.8-1.8V13c0-1-.8-1.8-1.8-1.8H3.2z"/><path d="M17.6 21.1H.8c-.4 0-.8-.3-.8-.8s.3-.8.8-.8h16.9c.4 0 .8.3.8.8s-.4.8-.9.8zm24 0H24.7c-.4 0-.8-.3-.8-.8s.3-.8.8-.8h16.9c.4 0 .8.3.8.8s-.4.8-.8.8z"/><path d="M24.7 23.9h-7c-.4 0-.8-.3-.8-.8v-5.6c0-.4.3-.8.8-.8h7c.4 0 .8.3.8.8v5.6c-.1.5-.4.8-.8.8zm-6.3-1.5h5.5v-4.1h-5.5v4.1zM28.9 7.1c-.4 0-.8-.3-.8-.8 0-2.7-2.2-4.8-4.9-4.8H19c-2.7 0-4.9 2.2-4.9 4.8 0 .4-.3.8-.8.8s-.8-.3-.8-.8c.2-3.5 3-6.3 6.5-6.3h4.2c3.5 0 6.4 2.8 6.4 6.3.1.5-.3.8-.7.8z"/></svg>