<svg viewBox="0 0 43.5 42.1" xmlns="http://www.w3.org/2000/svg"><path d="M9.4 42c-.4 0-.8-.3-.8-.8V29.5c0-.4.3-.8.8-.8s.8.3.8.8v11.7c-.1.5-.4.8-.8.8zM34 42c-.4 0-.8-.3-.8-.8V10.9c0-.4.3-.8.8-.8s.8.3.8.8v30.4c0 .4-.4.7-.8.7zm-16.4-9.9c-.2 0-.4-.1-.5-.2l-9.2-9.2c-.4-.4-.6-1-.6-1.6l.8-6c0-.3.3-.6.6-.6l6-.8c.6-.1 1.2.1 1.6.6l9.2 9.2c.3.3.3.8 0 1.1L18.1 32c-.1.1-.3.1-.5.1zM9.5 15.9l-.7 5.4c0 .1 0 .3.1.4l8.7 8.7L24 24l-8.7-8.7c-.1-.1-.2-.1-.4-.1l-5.4.7z"/><path d="M11.8 18.9c-.2 0-.4-.1-.5-.2-.1-.1-.2-.3-.2-.5s.1-.4.2-.5c.3-.3.8-.3 1.1 0 .1.1.2.3.2.5s-.1.4-.2.5c-.2.1-.4.2-.6.2zm3.1 6.5c-.2 0-.4-.1-.5-.2-.3-.3-.3-.8 0-1.1l1.8-1.8c.3-.3.8-.3 1.1 0s.3.8 0 1.1l-1.8 1.8c-.3.1-.4.2-.6.2zm2.3 2.3c-.2 0-.4-.1-.5-.2-.3-.3-.3-.8 0-1.1l3.4-3.4c.3-.3.8-.3 1.1 0s.3.8 0 1.1l-3.4 3.4c-.2.2-.4.2-.6.2z"/><path d="M40.2 42.1h-37c-1.8 0-3.2-1.5-3.2-3.2V13.4c0-1.8 1.5-3.2 3.2-3.2h37c1.8 0 3.2 1.5 3.2 3.2v25.4c.1 1.8-1.4 3.3-3.2 3.3zm-37-30.5c-1 0-1.8.8-1.8 1.8v25.4c0 1 .8 1.8 1.8 1.8h37c1 0 1.8-.8 1.8-1.8V13.4c0-1-.8-1.8-1.8-1.8h-37zm26.5-4.3c-.4 0-.7-.3-.7-.8 0-2.8-2.3-5-5-5h-4.3c-2.8 0-5 2.3-5 5 0 .4-.3.8-.8.8S13 7 13 6.5C13 2.9 16 0 19.6 0h4.3c3.6 0 6.5 2.9 6.5 6.5.1.5-.3.8-.7.8z"/></svg>