<svg viewBox="0 0 32 32" xmlns="http://www.w3.org/2000/svg"><path fill="#272424" d="M13.4 7c-1.6 0-2.9-1.3-2.9-2.9s1.3-2.9 2.9-2.9 2.9 1.3 2.9 2.9S15 7 13.4 7zm0-5.2c-1.3 0-2.3 1-2.3 2.3s1 2.3 2.3 2.3 2.3-1 2.3-2.3-1-2.3-2.3-2.3zm13.6 29c-.1 0-.2-.1-.3-.2l-4.3-7.9h-7.2c-.2 0-1.7 0-2.4-.6-.8-.6-.9-1.9-.9-2l-1.2-7.8c.1-1.7 1.4-3 3-3.1 1.7-.1 3 1.2 3.2 3.2l.3 3.2 3.4 2.1c.1.1.2.3.1.4-.1.1-.3.2-.4.1L16.7 16c-.1 0-.1-.1-.1-.2l-.3-3.3c-.2-1.4-1-2.7-2.6-2.6-1.3.1-2.3 1.1-2.4 2.5l1.2 7.7c0 .3.2 1.3.7 1.6.4.4 1.6.4 2 .4h7.4c.1 0 .2.1.3.2l4.4 8.1c.1.1 0 .3-.1.4H27z"/><path fill="#272424" d="M20.5 25.9h-9.2c-.1 0-.2-.1-.3-.2L7.2 14.5H5c-.2 0-.3-.1-.3-.3s.1-.3.3-.3h2.4c.1 0 .2.1.3.2l3.8 11.2h9c.2 0 .3.1.3.3s-.1.3-.3.3z"/></svg>