<svg  viewBox="0 0 25 32" fill="none" xmlns="http://www.w3.org/2000/svg">
<path fill-rule="evenodd" clip-rule="evenodd" d="M12.9268 9.70767C13.5318 10.348 13.891 11.2301 14.0046 12.19L14.0059 12.2017L14.3109 15.3768L17.6798 17.4871C17.9301 17.6439 18.0059 17.9739 17.8491 18.2242C17.6923 18.4745 17.3623 18.5503 17.112 18.3935L13.5199 16.1433C13.3792 16.0551 13.2874 15.9066 13.2715 15.7413L12.9418 12.3101C12.8482 11.5281 12.5626 10.8795 12.1494 10.4422C11.7446 10.0139 11.1973 9.76433 10.5028 9.79379C9.32541 9.84218 8.35603 10.8679 8.27159 12.1234L9.52215 20.1391C9.52377 20.1494 9.52508 20.1598 9.52609 20.1703C9.52611 20.1705 9.52607 20.1701 9.52609 20.1703L9.5269 20.1779C9.52766 20.1848 9.52896 20.1962 9.5309 20.2115C9.53479 20.2421 9.5412 20.2883 9.55088 20.346C9.57035 20.4623 9.60235 20.6213 9.65197 20.7928C9.75927 21.1634 9.91714 21.4784 10.1075 21.6271L10.1115 21.6303C10.32 21.7964 10.7475 21.92 11.2198 21.9905C11.4387 22.0233 11.64 22.041 11.7868 22.0505C11.8599 22.0552 11.9186 22.0578 11.9584 22.0592C11.9782 22.0599 11.9932 22.0604 12.0028 22.0606L12.0124 22.0608H19.6874C19.9387 22.0608 20.1495 22.2342 20.2068 22.4679L24.7286 30.6883C24.8709 30.9471 24.7765 31.2723 24.5178 31.4146C24.259 31.557 23.9338 31.4626 23.7915 31.2038L19.3505 23.1303H12.0008L12.0078 22.5956C12.0008 23.1303 12.0009 23.1303 12.0008 23.1303L11.9982 23.1302L11.9934 23.1302L11.9772 23.1298C11.9635 23.1295 11.9442 23.1289 11.9198 23.1281C11.8712 23.1263 11.8022 23.1232 11.7179 23.1178C11.5499 23.1069 11.3177 23.0866 11.0617 23.0483C10.5852 22.9771 9.89921 22.8275 9.44702 22.4683C8.97811 22.1008 8.74425 21.5034 8.62463 21.0902C8.56071 20.8693 8.52044 20.6684 8.49605 20.5227C8.48379 20.4495 8.47536 20.3892 8.46989 20.3462C8.46716 20.3246 8.46515 20.3073 8.46378 20.2947L8.46333 20.2906L7.2061 12.2321C7.20053 12.1964 7.1986 12.1603 7.20031 12.1242C7.28391 10.3686 8.63753 8.80023 10.4578 8.72522C11.4664 8.68252 12.3123 9.05744 12.9268 9.70767Z" fill="#0B2343"/>
<path fill-rule="evenodd" clip-rule="evenodd" d="M0.965332 14.1219C0.965332 13.8266 1.20475 13.5872 1.50009 13.5872H3.9774C4.20521 13.5872 4.40801 13.7315 4.48265 13.9467L8.44544 25.3749H17.5301C17.8255 25.3749 18.0649 25.6143 18.0649 25.9097C18.0649 26.205 17.8255 26.4444 17.5301 26.4444H8.06488C7.83707 26.4444 7.63427 26.3001 7.55963 26.0849L3.59683 14.6567H1.50009C1.20475 14.6567 0.965332 14.4173 0.965332 14.1219Z" fill="#0B2343"/>
<path fill-rule="evenodd" clip-rule="evenodd" d="M10.4369 1.50208C9.15789 1.44831 8.0555 2.45326 8.00206 3.77431L8.00205 3.77445C7.94832 5.09383 8.94994 6.20373 10.2316 6.25725L10.2317 6.25725C11.5108 6.31102 12.6132 5.30607 12.6666 3.98503C12.7203 2.65711 11.7104 1.55562 10.4369 1.50208ZM7.00288 3.73375C7.07848 1.86653 8.64133 0.425713 10.4789 0.502967C12.3221 0.580456 13.741 2.16503 13.6658 4.02545C13.5902 5.89273 12.0274 7.33362 10.1897 7.25637C8.33338 7.17878 6.92773 5.58089 7.00288 3.73389" fill="#0B2343"/>
</svg>
