<svg viewBox="0 0 34.5 51.5" xmlns="http://www.w3.org/2000/svg"><path d="M21.9 6.3c-.2 0-.4-.1-.5-.2-.4-.1-1.9-.3-4.1-.3s-3.7.2-4.1.3c-.1.1-.3.2-.5.2-.4 0-.8-.3-.8-.8 0-.6 0-1.3 5.4-1.3s5.4.7 5.4 1.3c0 .5-.4.8-.8.8z"/><path d="M17.2 51.5C7.7 51.5 0 43.8 0 34.3V17.2C0 7.7 7.7 0 17.2 0s17.2 7.7 17.2 17.2v17.1c.1 9.5-7.6 17.2-17.2 17.2zm0-50C8.6 1.5 1.5 8.6 1.5 17.2v17.1C1.5 42.9 8.6 50 17.2 50 25.9 50 33 42.9 33 34.3V17.2c0-8.6-7.1-15.7-15.8-15.7z"/><path d="M18.4 9.5H16c-4.2 0-8.1-1-11-2.8-.3-.2-.4-.7-.2-1 .2-.4.7-.5 1-.2C8.5 7.1 12.2 8 16.1 8h2.4c3.9 0 7.6-.9 10.2-2.6.4-.2.8-.1 1 .2.2.4.1.8-.2 1-3 1.9-6.9 2.9-11.1 2.9zm12.2 20.2H15.8c-2.6 0-4.7-2.1-4.7-4.7 0-1.5 1-3 2.4-3.9.5-3.4 3.2-5.9 6.6-5.9 1.6 0 2.9.5 4.2 1.6 1.3-.2 2.7.1 3.8.8.9.7 1.6 1.6 1.9 2.7 1.6-.2 3.2.4 4.3 1.6.3.3.3.8 0 1.1-.3.3-.8.3-1.1 0-.9-1-2.3-1.3-3.6-1-.2.1-.4 0-.6-.1-.2-.1-.3-.3-.3-.5-.1-1-.7-1.9-1.5-2.5-.8-.6-1.9-.8-3-.5-.2.1-.5 0-.7-.2-1.1-1-2.1-1.5-3.4-1.5-2.7 0-4.8 2.1-5.1 4.9 0 .3-.2.5-.4.6-1.2.6-2 1.8-2 2.8 0 1.5 1.2 3.2 3.2 3.2h14.8c1 0 1.9-.4 2.6-1.1.3-.3.8-.3 1.1 0 .3.3.3.8 0 1.1-1 .9-2.3 1.5-3.7 1.5zM9.5 41.8H2.4c-.4 0-.7-.3-.7-.8s.3-.8.7-.8h7.1c.9 0 1.6-.8 1.6-1.4 0-.4-.2-.8-.6-1.1-.2-.2-.8-.5-1.5-.3-.2.1-.4 0-.6-.1-.2-.1-.3-.3-.3-.5-.1-.4-.3-.8-.7-1.1-.4-.3-.9-.4-1.4-.2-.2.1-.5 0-.7-.2-.5-.5-1.1-.7-1.7-.7-.8 0-1.6.4-2.1 1.1-.2.3-.7.4-1 .2-.3-.2-.4-.7-.2-1 .8-1.1 2-1.8 3.3-1.8.9 0 1.7.3 2.4.9.8-.1 1.6.1 2.2.5.5.4.9.9 1.1 1.5.7 0 1.4.2 2 .6.7.6 1.2 1.4 1.2 2.3.1 1.6-1.3 2.9-3 2.9z"/></svg>