<svg  viewBox="0 0 31 32" fill="none" xmlns="http://www.w3.org/2000/svg">
<path fill-rule="evenodd" clip-rule="evenodd" d="M6.07499 1.00198C4.90696 0.951604 3.87793 1.89564 3.82784 3.16604L3.82783 3.16618C3.77741 4.4361 4.71532 5.48186 5.88642 5.53202L5.88657 5.53202C7.0546 5.5824 8.08362 4.63836 8.13372 3.36796C8.18411 2.08996 7.23854 1.05216 6.07499 1.00198ZM2.82862 3.12651C2.8994 1.3334 4.36685 -0.0726191 6.11808 0.00290593C7.87383 0.078626 9.20335 1.62178 9.13294 3.40736C9.06223 5.20053 7.59476 6.60662 5.84348 6.53109L5.86502 6.03156L5.84363 6.5311C5.84358 6.5311 5.84353 6.5311 5.84348 6.53109C4.07526 6.45527 2.75831 4.89921 2.82862 3.12664L3.32823 3.14634L2.82862 3.12651Z" fill="#0B2343"/>
<path fill-rule="evenodd" clip-rule="evenodd" d="M10.4937 9.39558C11.0047 10.0182 11.3428 10.8777 11.6446 11.7796C11.9199 12.602 12.4631 13.4225 12.9581 14.0533C13.2026 14.3648 13.429 14.6223 13.5938 14.8013C13.6761 14.8907 13.7427 14.9602 13.7882 15.0067C13.8015 15.0203 13.813 15.032 13.8225 15.0416L17.2825 17.3006C17.5137 17.4516 17.5787 17.7614 17.4278 17.9926C17.2768 18.2238 16.967 18.2889 16.7358 18.1379L13.2326 15.8507C13.2054 15.833 13.18 15.8126 13.1568 15.79L13.506 15.4321C13.1568 15.79 13.1569 15.7901 13.1568 15.79L13.156 15.7892L13.1545 15.7878L13.1498 15.7831L13.133 15.7665C13.1188 15.7522 13.0984 15.7317 13.0726 15.7052C13.021 15.6524 12.9476 15.5758 12.8581 15.4786C12.6794 15.2845 12.4353 15.0069 12.1714 14.6706C11.6496 14.0056 11.0251 13.0793 10.6964 12.097C10.3942 11.1944 10.1031 10.4959 9.72072 10.03C9.36735 9.59947 8.93641 9.36594 8.27326 9.39527C7.0833 9.44623 6.07349 10.4417 6.07349 11.8334C6.07349 11.9556 6.11955 12.1953 6.23836 12.5637C6.35255 12.9179 6.51928 13.3477 6.72593 13.8299C7.13884 14.7935 7.69907 15.9385 8.2828 17.0548C8.86612 18.1704 9.46902 19.2499 9.96515 20.0814C10.2135 20.4976 10.4326 20.8476 10.6076 21.1072C10.6953 21.2373 10.7689 21.3403 10.8275 21.4158C10.8774 21.4801 10.9046 21.5089 10.912 21.5167C10.9143 21.5192 10.9147 21.5196 10.9132 21.5184L10.9162 21.5208C11.124 21.6934 11.5417 21.8187 11.9978 21.8902C12.21 21.9234 12.405 21.9414 12.5472 21.951C12.618 21.9558 12.6749 21.9585 12.7134 21.9599C12.7326 21.9606 12.7471 21.9611 12.7564 21.9613L12.7656 21.9615H20.2506C20.4579 21.9615 20.6358 22.0877 20.7116 22.2675L27.1205 30.6455C27.2883 30.8648 27.2465 31.1786 27.0272 31.3464C26.8078 31.5142 26.494 31.4724 26.3263 31.2531L19.9834 22.9615H12.7541L12.761 22.4664C12.7541 22.9615 12.7542 22.9615 12.7541 22.9615L12.7517 22.9614L12.747 22.9613L12.7312 22.961C12.7179 22.9607 12.6992 22.9601 12.6756 22.9592C12.6284 22.9574 12.5615 22.9543 12.4797 22.9487C12.3167 22.9377 12.0915 22.917 11.8431 22.8781C11.3786 22.8054 10.7149 22.6528 10.2785 22.2911C10.1912 22.2193 10.1072 22.1188 10.0374 22.0287C9.96009 21.9291 9.87278 21.8061 9.77837 21.6661C9.58918 21.3853 9.35965 21.0182 9.1064 20.5938C8.59934 19.744 7.98733 18.6478 7.39664 17.5182C6.80635 16.3893 6.23347 15.2196 5.80677 14.2238C5.59361 13.7264 5.41391 13.2654 5.28662 12.8706C5.16395 12.4902 5.07349 12.1231 5.07349 11.8334C5.07349 9.93091 6.4801 8.47134 8.22943 8.39623C9.22708 8.35221 9.95371 8.73768 10.4937 9.39558Z" fill="#0B2343"/>
<path fill-rule="evenodd" clip-rule="evenodd" d="M0 13.8374C0 13.5613 0.223858 13.3374 0.5 13.3374H2.916C3.1054 13.3374 3.27855 13.4444 3.36323 13.6138L9.21468 25.3189H18.1367C18.4128 25.3189 18.6367 25.5428 18.6367 25.8189C18.6367 26.0951 18.4128 26.3189 18.1367 26.3189H8.90563C8.71623 26.3189 8.54309 26.2119 8.4584 26.0425L2.60696 14.3374H0.5C0.223858 14.3374 0 14.1135 0 13.8374Z" fill="#0B2343"/>
<path fill-rule="evenodd" clip-rule="evenodd" d="M19.0666 2.5651C19.2676 2.49521 19.4909 2.56029 19.6229 2.72726L22.0404 5.78458L24.4578 2.72726C24.5527 2.60733 24.6971 2.53738 24.85 2.53738C25.0029 2.53738 25.1474 2.60733 25.2422 2.72726L27.6597 5.78458L30.0772 2.72726C30.2092 2.56029 30.4325 2.49521 30.6335 2.5651C30.8346 2.63499 30.9694 2.82452 30.9694 3.03738V10.6497C30.9694 10.9259 30.7455 11.1497 30.4694 11.1497H19.2307C18.9546 11.1497 18.7307 10.9259 18.7307 10.6497V3.03738C18.7307 2.82452 18.8655 2.63499 19.0666 2.5651ZM19.7307 4.47586V10.1497H29.9694V4.47586L28.0519 6.90084C27.9571 7.02077 27.8126 7.09072 27.6597 7.09072C27.5068 7.09072 27.3623 7.02077 27.2675 6.90084L24.85 3.84352L22.4326 6.90084C22.3378 7.02077 22.1933 7.09072 22.0404 7.09072C21.8875 7.09072 21.743 7.02077 21.6482 6.90084L19.7307 4.47586Z" fill="#0B2343"/>
</svg>
