<svg viewBox="0 0 50 20" xmlns="http://www.w3.org/2000/svg"><path d="M50 18V2c0-.6-.3-1.1-.7-1.4-.1-.1-.2-.2-.3-.2-.3-.3-.6-.4-1-.4H20.7c-.4 0-.8.2-1.1.4-.1 0-.2.1-.2.2-.4.3-.7.8-.7 1.4v16c0 .5.2 1 .6 1.4.4.4.9.6 1.4.6H48c1.1 0 2-.9 2-2zM46.5 1.6L34.4 9.1 22.2 1.6h24.3zM48 18.4H20.7c-.2 0-.4-.2-.4-.4V2.2L34 10.7c.3.2.6.2.8 0l13.6-8.5V18c0 .2-.2.4-.4.4zM15.3 3.6c0-.4-.4-.8-.8-.8H.8c-.4 0-.8.4-.8.8 0 .2.1.4.2.6.1.1.3.2.6.2h13.7c.5 0 .8-.4.8-.8zm0 5.7c0-.4-.4-.8-.8-.8H5.3c-.4 0-.8.3-.8.8 0 .2.1.4.2.6.1.1.3.2.6.2h9.2c.5 0 .8-.4.8-.8zm-.8 4.9H9.9c-.4 0-.8.3-.8.8 0 .2.1.4.2.6.1.1.3.2.6.2h4.6c.4 0 .8-.3.8-.8s-.3-.8-.8-.8z"/></svg>