<svg width="40" height="40" viewBox="0 0 40 40" fill="none" xmlns="http://www.w3.org/2000/svg">
<path d="M17.53 17.0501C16.89 17.3901 16.29 17.8201 15.76 18.3201C15.29 16.4301 10.58 13.4101 10.58 15.4901L12.26 18.7C10.31 19.05 8.68003 20.4 8.03003 22.23L6.71002 22.7601C6.33002 22.8701 6 23.0801 6 23.4701C6.38 26.0701 6.15998 26.5401 7.09998 26.7901L8.96002 27.3001C10.24 28.8401 12.29 29.57 14.29 29.2L13.74 32.5001C13.74 33.2001 14.31 33.7801 15.02 33.7801C16.27 33.7801 17.72 33.9701 17.72 32.5001L17.89 30.98C19.56 31.98 23.33 31.8101 24.88 31.0101L25.1 32.5101C25.1 33.2101 25.67 33.7901 26.38 33.7901H27.25C27.96 33.7901 29.08 33.2201 29.08 32.5101L28.53 27.4601C28.94 26.7001 29.21 25.8701 29.34 25.0101C29.68 21.6501 28.22 19.0701 25.91 17.4601" stroke="#0B2343" stroke-linecap="round" stroke-linejoin="round"/>
<path d="M26.43 10.91C26.43 13.62 24.23 15.82 21.52 15.82C18.81 15.82 16.61 13.62 16.61 10.91C16.61 8.2 18.81 6 21.52 6C24.23 6 26.43 8.19 26.43 10.91Z" stroke="#0B2343" stroke-miterlimit="10" stroke-linecap="round" stroke-linejoin="round"/>
<path d="M29.13 22.12C30.58 21.44 32.65 19.87 32.27 18.39C31.79 16.58 29.23 16.21 30.2 19.01C31.1 21.59 33.55 20.51 34.23 19.26" stroke="#0B2343" stroke-miterlimit="10" stroke-linecap="round" stroke-linejoin="round"/>
<path d="M20.12 12.38C20.49 12.71 21.07 12.95 21.49 12.95C22.16 12.95 22.7 12.48 22.7 11.9C22.7 11.32 22.12 11.03 21.49 10.85C20.84 10.65 20.28 10.38 20.28 9.79999C20.28 9.21999 20.82 8.75 21.49 8.75C21.94 8.75 22.33 8.96 22.54 9.28" stroke="#0B2343" stroke-miterlimit="10" stroke-linecap="round" stroke-linejoin="round"/>
<path d="M21.48 8.1499V8.72989" stroke="#0B2343" stroke-miterlimit="10" stroke-linecap="round" stroke-linejoin="round"/>
<path d="M21.48 12.95V13.52" stroke="#0B2343" stroke-miterlimit="10" stroke-linecap="round" stroke-linejoin="round"/>
</svg>
