<svg width="40" height="40" viewBox="0 0 40 40" fill="none" xmlns="http://www.w3.org/2000/svg">
<path d="M30.5498 12.275C30.5498 17.9525 20.2749 33.5784 20.2749 33.5784C20.2749 33.5784 10 17.9525 10 12.275C10 6.59739 14.5973 2 20.2749 2C25.9399 2 30.5498 6.59739 30.5498 12.275Z" stroke="#0B2343" stroke-miterlimit="10" stroke-linecap="round" stroke-linejoin="round"/>
<path d="M20.2623 14.3225C18.5038 14.3225 17.0844 12.9031 17.0844 11.1445C17.0844 9.38598 18.5038 7.96655 20.2623 7.96655C22.0208 7.96655 23.4403 9.38598 23.4403 11.1445C23.4403 12.9031 22.0208 14.3225 20.2623 14.3225Z" stroke="#0B2343" stroke-miterlimit="10" stroke-linecap="round" stroke-linejoin="round"/>
<path d="M25.0229 31.6818C27.9747 32.2596 29.9719 33.3649 29.9719 34.621C29.9719 36.4926 25.6258 38 20.2623 38C14.8988 38 10.5527 36.4926 10.5527 34.621C10.5527 33.3523 12.5624 32.247 15.5394 31.6692" stroke="#0B2343" stroke-linecap="round" stroke-linejoin="round"/>
</svg>
