<svg width="40" height="40" viewBox="0 0 40 40" fill="none" xmlns="http://www.w3.org/2000/svg">
<path d="M21.99 31.1928C22.28 31.4728 22.74 31.4828 23.02 31.1928C25.3 28.9128 25.63 25.1428 23.89 21.6828L29.47 16.1028C31.03 16.5728 32.66 16.4428 33.89 15.7228C34.31 15.4828 34.38 14.9128 34.04 14.5728L25.68 6.21282C25.34 5.87282 24.77 5.95283 24.53 6.36283C23.81 7.61283 23.68 9.20283 24.16 10.7828L18.58 16.3628C17.14 15.6328 15.61 15.2528 14.12 15.2528C12.14 15.2528 10.35 15.9528 9.06999 17.2328C8.92999 17.3728 8.85999 17.5528 8.85999 17.7528C8.85999 17.9428 8.93999 18.1328 9.06999 18.2728L21.99 31.1928Z" stroke="#0B2343" stroke-miterlimit="10" stroke-linecap="round" stroke-linejoin="round"/>
<path d="M15.54 24.7428L6 34.2728" stroke="#0B2343" stroke-miterlimit="10" stroke-linecap="round" stroke-linejoin="round"/>
</svg>
