<svg width="40" height="40" viewBox="0 0 40 40" fill="none" xmlns="http://www.w3.org/2000/svg">
<path d="M30.5758 33.1C32.0858 31.59 29.7257 30.93 26.7557 27.9C24.3357 25.43 25.3858 22.93 25.8558 22.09C26.1258 21.61 26.3358 21.09 26.4558 20.55C27.0558 17.74 25.1557 15.54 22.8157 13.2C19.2957 9.68001 13.2957 9.97008 10.2557 13.0201C7.20568 16.0701 7.15573 21.83 10.6757 25.35C13.0157 27.69 15.2157 29.59 18.0257 28.99C18.5657 28.88 19.0857 28.6601 19.5657 28.3901C20.4057 27.9201 22.9057 26.87 25.3757 29.29C28.4057 32.25 29.0758 34.6 30.5758 33.1Z" stroke="#0B2343" stroke-miterlimit="10" stroke-linecap="round" stroke-linejoin="round"/>
<path d="M25.4558 9.91992C26.5383 9.91992 27.4158 9.04244 27.4158 7.95996C27.4158 6.87748 26.5383 6 25.4558 6C24.3733 6 23.4957 6.87748 23.4957 7.95996C23.4957 9.04244 24.3733 9.91992 25.4558 9.91992Z" stroke="#0B2343" stroke-miterlimit="10" stroke-linecap="round" stroke-linejoin="round"/>
<path d="M19.5658 28.37L25.8558 22.08" stroke="#0B2343" stroke-miterlimit="10" stroke-linecap="round" stroke-linejoin="round"/>
<path d="M11.3958 17.4099V21.1599" stroke="#0B2343" stroke-miterlimit="10" stroke-linecap="round" stroke-linejoin="round"/>
<path d="M13.8958 15.5599V22.98" stroke="#0B2343" stroke-miterlimit="10" stroke-linecap="round" stroke-linejoin="round"/>
</svg>
