<svg width="40" height="40" viewBox="0 0 40 40" fill="none" xmlns="http://www.w3.org/2000/svg">
<path d="M30.7921 25.7234L33.1596 26.1649V8.21193L25.9164 7L18.9268 10.1942L13.0271 7.50734L6 10.1471V28.1001L13.0271 25.4603L18.6544 27.978" stroke="#0B2343" stroke-miterlimit="10" stroke-linecap="round" stroke-linejoin="round"/>
<path d="M13.478 10.9551V22.3507" stroke="#0B2343" stroke-miterlimit="10" stroke-linecap="round" stroke-linejoin="round"/>
<path d="M19.049 13.1628V17.5032" stroke="#0B2343" stroke-miterlimit="10" stroke-linecap="round" stroke-linejoin="round"/>
<path d="M26.668 10.1475V15.9063" stroke="#0B2343" stroke-miterlimit="10" stroke-linecap="round" stroke-linejoin="round"/>
<path d="M29.2326 23.7599C29.2326 26.4937 24.263 34 24.263 34C24.263 34 19.2932 26.4937 19.2932 23.7599C19.2932 21.0261 21.5198 18.8184 24.263 18.8184C27.0062 18.8184 29.2326 21.0355 29.2326 23.7599Z" stroke="#0B2343" stroke-miterlimit="10" stroke-linecap="round" stroke-linejoin="round"/>
<path d="M24.263 24.6244C23.5866 24.6244 23.0323 24.0795 23.0323 23.4031C23.0323 22.7267 23.5866 22.1819 24.263 22.1819C24.9394 22.1819 25.4937 22.7267 25.4937 23.4031C25.4937 24.0795 24.9394 24.6244 24.263 24.6244Z" stroke="#0B2343" stroke-miterlimit="10" stroke-linecap="round" stroke-linejoin="round"/>
</svg>
