<svg width="40" height="40" viewBox="0 0 40 40" fill="none" xmlns="http://www.w3.org/2000/svg">
<path d="M14.4288 13.2146C14.4288 16.0939 9.21443 24.0288 9.21443 24.0288C9.21443 24.0288 4 16.1052 4 13.2146C4 10.324 6.33518 8.00024 9.21443 8.00024C12.0937 8.00024 14.4288 10.3354 14.4288 13.2146Z" stroke="#0B2343" stroke-miterlimit="10" stroke-linecap="round" stroke-linejoin="round"/>
<path d="M9.21444 14.6656C8.19423 14.6656 7.35538 13.8381 7.35538 12.8066C7.35538 11.7864 8.18289 10.9475 9.21444 10.9475C10.246 10.9475 11.0735 11.775 11.0735 12.8066C11.0735 13.8381 10.2346 14.6656 9.21444 14.6656Z" stroke="#0B2343" stroke-miterlimit="10" stroke-linecap="round" stroke-linejoin="round"/>
<path d="M35.7625 21.6255C35.7625 24.5047 30.5481 32.4397 30.5481 32.4397C30.5481 32.4397 25.3337 24.5161 25.3337 21.6255C25.3337 18.7462 27.6689 16.4111 30.5481 16.4111C33.4274 16.4111 35.7625 18.7462 35.7625 21.6255Z" stroke="#0B2343" stroke-miterlimit="10" stroke-linecap="round" stroke-linejoin="round"/>
<path d="M30.5367 23.0882C29.5165 23.0882 28.6777 22.2607 28.6777 21.2292C28.6777 20.209 29.5052 19.3701 30.5367 19.3701C31.5683 19.3701 32.3958 20.1976 32.3958 21.2292C32.3958 22.2494 31.5683 23.0882 30.5367 23.0882Z" stroke="#0B2343" stroke-miterlimit="10" stroke-linecap="round" stroke-linejoin="round"/>
<path d="M9.21442 26.8403L28.5077 32.4402" stroke="#0B2343" stroke-linecap="round" stroke-linejoin="round" stroke-dasharray="1.13 1.13"/>
</svg>
