<svg width="40" height="40" viewBox="0 0 40 40" fill="none" xmlns="http://www.w3.org/2000/svg">
<path d="M24.592 26.3433H26.3155L29.2397 34.0895H10L12.9242 26.3433H14.638" stroke="#0B2343" stroke-miterlimit="10" stroke-linecap="round" stroke-linejoin="round"/>
<path d="M19.615 15.5373C18.2304 15.5373 17.1071 14.4141 17.1071 13.0392C17.1071 11.6545 18.2304 10.5312 19.615 10.5312C20.9997 10.5312 22.1229 11.6545 22.1229 13.0392C22.1229 14.4141 20.9997 15.5373 19.615 15.5373Z" stroke="#0B2343" stroke-miterlimit="10" stroke-linecap="round" stroke-linejoin="round"/>
<path d="M27.4 13.7753C27.4 18.0745 19.6247 29.8874 19.6247 29.8874C19.6247 29.8874 11.8494 18.0648 11.8494 13.7753C11.8494 9.47616 15.3352 6 19.6247 6C23.9142 6 27.4 9.48584 27.4 13.7753Z" stroke="#0B2343" stroke-miterlimit="10" stroke-linecap="round" stroke-linejoin="round"/>
</svg>
