<svg width="40" height="40" viewBox="0 0 40 40" fill="none" xmlns="http://www.w3.org/2000/svg">
<path d="M13.0146 32.3104L17.8069 12.0229L27.9684 14.4103L23.7351 32.3104" stroke="#0B2343" stroke-linecap="round" stroke-linejoin="round"/>
<path d="M16.7951 11.7834L28.9801 14.65" stroke="#0B2343" stroke-linecap="round" stroke-linejoin="round"/>
<path d="M19.5907 15.8125L18.8363 19.0162" stroke="#0B2343" stroke-linecap="round" stroke-linejoin="round"/>
<path d="M22.1288 16.416L21.3745 19.6109" stroke="#0B2343" stroke-linecap="round" stroke-linejoin="round"/>
<path d="M24.667 17.0107L23.9126 20.2056" stroke="#0B2343" stroke-linecap="round" stroke-linejoin="round"/>
<path d="M26.4064 14.0466L19.3688 12.387L20.6024 7.1687L27.64 8.82826L26.4064 14.0466Z" stroke="#0B2343" stroke-linecap="round" stroke-linejoin="round"/>
<path d="M19.9013 7L28.3411 8.98792" stroke="#0B2343" stroke-linecap="round" stroke-linejoin="round"/>
<path d="M21.7472 10.1951L21.126 12.8042" stroke="#0B2343" stroke-linecap="round" stroke-linejoin="round"/>
<path d="M23.5044 10.6121L22.8832 13.2212" stroke="#0B2343" stroke-linecap="round" stroke-linejoin="round"/>
<path d="M25.2616 11.0203L24.6493 13.6295" stroke="#0B2343" stroke-linecap="round" stroke-linejoin="round"/>
<path d="M15.2776 18.1733L27.4714 21.0487" stroke="#0B2343" stroke-linecap="round" stroke-linejoin="round"/>
<path d="M18.082 22.2112L17.3454 25.3351" stroke="#0B2343" stroke-linecap="round" stroke-linejoin="round"/>
<path d="M20.6202 22.8059L19.8836 25.9298" stroke="#0B2343" stroke-linecap="round" stroke-linejoin="round"/>
<path d="M23.1583 23.4006L22.4217 26.5244" stroke="#0B2343" stroke-linecap="round" stroke-linejoin="round"/>
<path d="M13.7867 24.4922L25.9716 27.3676" stroke="#0B2343" stroke-linecap="round" stroke-linejoin="round"/>
<path d="M28.8558 32.3105H23.7351" stroke="#0B2343" stroke-linecap="round" stroke-linejoin="round"/>
<path d="M13.0146 32.3105H11" stroke="#0B2343" stroke-linecap="round" stroke-linejoin="round"/>
<path d="M15.6947 32.2752L16.5822 28.53" stroke="#0B2343" stroke-linecap="round" stroke-linejoin="round"/>
<path d="M19.1292 29.1245L18.3748 32.3105" stroke="#0B2343" stroke-linecap="round" stroke-linejoin="round"/>
<path d="M21.055 32.3105L21.6674 29.728" stroke="#0B2343" stroke-linecap="round" stroke-linejoin="round"/>
</svg>
