<svg width="40" height="40" viewBox="0 0 40 40" fill="none" xmlns="http://www.w3.org/2000/svg">
<path d="M10.0699 6L9.75989 8.73999L7 33.4L29.6799 23.34L32.2 22.22C28.12 13.01 19.5199 7.05 10.0699 6Z" stroke="#0B2343" stroke-miterlimit="10" stroke-linecap="round" stroke-linejoin="round"/>
<path d="M8.22998 22.3701C9.42998 22.8801 10.2699 24.0701 10.2699 25.4501C10.2699 27.1001 9.07989 28.4601 7.50989 28.7401" stroke="#0B2343" stroke-miterlimit="10" stroke-linecap="round" stroke-linejoin="round"/>
<path d="M18.59 16.4501C18.59 18.3001 17.09 19.8 15.24 19.8C13.39 19.8 11.8899 18.3001 11.8899 16.4501C11.8899 14.6001 13.39 13.1001 15.24 13.1001C17.09 13.1101 18.59 14.6001 18.59 16.4501Z" stroke="#0B2343" stroke-miterlimit="10" stroke-linecap="round" stroke-linejoin="round"/>
<path d="M17.8799 28.5798C16.6499 26.3698 18.2399 23.6099 20.7999 23.6099C22.2699 23.6099 23.52 24.5599 23.97 25.8799" stroke="#0B2343" stroke-miterlimit="10" stroke-linecap="round" stroke-linejoin="round"/>
<path d="M9.75989 8.73999C23.3599 10.08 24.7099 19.49 29.6799 23.34" stroke="#0B2343" stroke-miterlimit="10" stroke-linecap="round" stroke-linejoin="round"/>
</svg>
