<svg width="40" height="40" viewBox="0 0 40 40" fill="none" xmlns="http://www.w3.org/2000/svg">
<path d="M12 12.99C12 16.44 15.19 18.98 18.63 18.98C18.64 15.54 15.45 12.99 12 12.99Z" stroke="#0B2343" stroke-linecap="round" stroke-linejoin="round"/>
<path d="M27.37 14.3699C22.34 14.3699 18.64 17.8 18.64 21.52C23.66 21.52 27.37 18.0799 27.37 14.3699Z" stroke="#0B2343" stroke-linecap="round" stroke-linejoin="round"/>
<path d="M25.13 6.6001C21.39 6.6001 18.63 9.14992 18.63 11.9199C22.38 11.9199 25.13 9.3701 25.13 6.6001Z" stroke="#0B2343" stroke-linecap="round" stroke-linejoin="round"/>
<path d="M18.64 6L18.63 25.74" stroke="#0B2343" stroke-linecap="round" stroke-linejoin="round"/>
<path d="M24.66 26.3101C24.66 27.1701 21.96 27.8699 18.63 27.8699C15.3 27.8699 12.6 27.1701 12.6 26.3101C12.6 25.4501 15.3 24.75 18.63 24.75C21.96 24.75 24.66 25.4501 24.66 26.3101Z" stroke="#0B2343" stroke-linecap="round" stroke-linejoin="round"/>
<path d="M12.6 26.3101L14.96 33.8899C14.96 34.3199 16.97 34.6699 18.63 34.6699C20.29 34.6699 22.3 34.3199 22.3 33.8899L24.66 26.3101" stroke="#0B2343" stroke-linecap="round" stroke-linejoin="round"/>
</svg>
