<svg width="40" height="40" viewBox="0 0 40 40" fill="none" xmlns="http://www.w3.org/2000/svg">
<path d="M18.5268 27.2985L13.4304 30.2334C11.7013 31.2345 10.5524 30.5974 5.03519 29.403L4 29.9945L8.48203 33.0774L7.58334 33.6006C7.35582 33.7258 7.48096 34.067 7.73123 34.0329C14.386 33.157 17.5371 31.9057 17.5371 31.9057L32.1776 23.4535C32.1776 23.4535 37.2284 20.5413 35.2149 19.8019C32.9853 18.9829 28.3781 21.5879 28.3781 21.5879L22.7358 24.8413L18.0661 23.2032M19.5165 28.0607L16.172 24.9779L15.5664 24.4197" stroke="#0B2343" stroke-miterlimit="10" stroke-linecap="round" stroke-linejoin="round"/>
<path d="M26.0347 29.2437L25.6707 32.5085L24.8061 33.1797L22.7244 31.2117" stroke="#0B2343" stroke-miterlimit="10" stroke-linecap="round" stroke-linejoin="round"/>
<path d="M17.7009 16.6039L20.4383 14.9226L22.1543 17.7155" stroke="#0B2343" stroke-miterlimit="10" stroke-linecap="round" stroke-linejoin="round"/>
<path d="M20.4384 14.9227C20.0563 19.4247 16.1101 22.7248 11.608 22.3427C7.10601 21.9606 3.76422 18.0004 4.14634 13.4915C4.52846 8.98943 8.48858 5.64765 12.9976 6.02976C15.2069 6.21735 17.1383 7.26643 18.4861 8.82269" stroke="#0B2343" stroke-miterlimit="10" stroke-linecap="round" stroke-linejoin="round"/>
<path d="M15.3805 14.874H12.2819V9.14917" stroke="#0B2343" stroke-miterlimit="10" stroke-linecap="round" stroke-linejoin="round"/>
</svg>
