<svg width="40" height="40" viewBox="0 0 40 40" fill="none" xmlns="http://www.w3.org/2000/svg">
<path d="M24.9937 23.1918C25.1899 22.964 25.3906 22.7319 25.5965 22.4944L26.5094 22.4927C28.1504 22.3779 31.98 22.2973 31.9809 20.1797C31.98 18.1207 27.4942 17.9998 25.5973 17.8675C16.6913 7.5737 17.4387 7.00158 16.2796 6.99983L15.1222 7.00071L20.4009 18.1295L13.0781 18.6666L10.2166 15.5063H8L10.9342 19.9361L8.00438 24.7978L10.2184 24.7987L13.079 21.6393L20.4018 22.1764L15.123 33.3604H16.2787C17.1417 33.3604 17.4431 33.0546 21.2289 28.6353" stroke="#0B2343" stroke-miterlimit="10" stroke-linecap="round" stroke-linejoin="round"/>
<path d="M25.56 23.3396C23.1191 23.3396 21.1416 25.317 21.1416 27.758C21.1416 30.1989 23.1191 32.1772 25.56 32.1772C28.0009 32.1772 29.9801 30.1989 29.9801 27.758C29.9801 25.317 28.0009 23.3396 25.56 23.3396Z" fill="white" stroke="#0B2343" stroke-miterlimit="10" stroke-linecap="round" stroke-linejoin="round"/>
<path d="M23.6 25.7979L27.5216 29.7195" stroke="#0B2343" stroke-miterlimit="10" stroke-linecap="round" stroke-linejoin="round"/>
<path d="M23.6 29.7195L27.5216 25.7979" stroke="#0B2343" stroke-miterlimit="10" stroke-linecap="round" stroke-linejoin="round"/>
</svg>
