<svg width="40" height="40" viewBox="0 0 40 40" fill="none" xmlns="http://www.w3.org/2000/svg">
<path d="M19.8322 24.721L14.4123 27.8423C12.5734 28.9069 11.3516 28.2294 5.48409 26.9591L4.38318 27.5882L9.14974 30.8668L8.194 31.4233C7.95204 31.5563 8.08512 31.9193 8.35128 31.883C15.4285 30.9514 18.7796 29.6207 18.7796 29.6207L34.3496 20.632C34.3496 20.632 39.721 17.5349 37.5797 16.7486C35.2085 15.8775 30.3089 18.6479 30.3089 18.6479L24.3084 22.1079L14.376 18.6237L13.7711 18.9746L20.8847 25.5316" stroke="#0B2343" stroke-miterlimit="10" stroke-linecap="round" stroke-linejoin="round"/>
<path d="M27.817 26.7896L27.4299 30.2617L26.5104 30.9754L24.2965 28.8825" stroke="#0B2343" stroke-miterlimit="10" stroke-linecap="round" stroke-linejoin="round"/>
<path d="M14.66 11.5L16.37 13.21L14.66 14.925" stroke="#0B2343" stroke-miterlimit="10" stroke-linecap="round" stroke-linejoin="round"/>
<path d="M6.20999 9.42499L4.5 7.71002L6.20999 6" stroke="#0B2343" stroke-miterlimit="10" stroke-linecap="round" stroke-linejoin="round"/>
<path d="M16.37 13.21H6.76839C6.23267 13.21 6.07211 12.4815 6.55818 12.2563L14.3118 8.66363C14.7979 8.4384 14.6373 7.70996 14.1016 7.70996H4.5" stroke="#0B2343" stroke-linecap="round" stroke-linejoin="round"/>
</svg>
