<svg width="40" height="40" viewBox="0 0 40 40" fill="none" xmlns="http://www.w3.org/2000/svg">
<path d="M19.7815 12.4607V7" stroke="#0B2343" stroke-miterlimit="10" stroke-linecap="round" stroke-linejoin="round"/>
<path d="M27.882 15.8593L32.0851 11.4409" stroke="#0B2343" stroke-miterlimit="10" stroke-linecap="round" stroke-linejoin="round"/>
<path d="M7.48938 11.4409L11.6925 15.8593" stroke="#0B2343" stroke-miterlimit="10" stroke-linecap="round" stroke-linejoin="round"/>
<path d="M18.4674 27.268L13.3919 30.1909C11.6699 31.1879 10.5256 30.5534 5.03097 29.3639L4 29.953L8.46372 33.0232L7.5687 33.5444C7.34212 33.669 7.46675 34.0089 7.71599 33.9749C14.3436 33.1025 17.4818 31.8563 17.4818 31.8563L32.0625 23.4387C32.0625 23.4387 37.0927 20.5384 35.0874 19.802C32.8669 18.9863 28.2786 21.5807 28.2786 21.5807L22.6593 24.8208L13.3579 21.558L12.7915 21.8866L19.4531 28.027" stroke="#0B2343" stroke-miterlimit="10" stroke-linecap="round" stroke-linejoin="round"/>
<path d="M25.9446 29.2056L25.5821 32.4571L24.7211 33.1255L22.6478 31.1655" stroke="#0B2343" stroke-miterlimit="10" stroke-linecap="round" stroke-linejoin="round"/>
</svg>
