<svg width="40" height="40" viewBox="0 0 40 40" fill="none" xmlns="http://www.w3.org/2000/svg">
<path d="M19.832 24.721L14.4122 27.8423C12.5733 28.9069 11.3514 28.2294 5.48397 26.9591L4.38306 27.5882L9.14962 30.8668L8.19388 31.4233C7.95192 31.5563 8.085 31.9193 8.35115 31.883C15.4284 30.9514 18.7795 29.6207 18.7795 29.6207L34.3495 20.632C34.3495 20.632 39.7209 17.5349 37.5796 16.7486C35.2084 15.8775 30.3088 18.6479 30.3088 18.6479L24.3082 22.1079L14.3759 18.6237L13.771 18.9746L20.8845 25.5316" stroke="#0B2343" stroke-miterlimit="10" stroke-linecap="round" stroke-linejoin="round"/>
<path d="M27.8169 26.7896L27.4297 30.2617L26.5103 30.9754L24.2964 28.8825" stroke="#0B2343" stroke-miterlimit="10" stroke-linecap="round" stroke-linejoin="round"/>
<path d="M10.8282 11.0888C10.3074 9.3057 8.6436 8 6.69411 8C4.74463 8 3.09895 9.3057 2.57812 11.0888" stroke="#0B2343" stroke-miterlimit="10" stroke-linecap="round" stroke-linejoin="round"/>
<path d="M11.4225 9.5625L10.8294 11.0888L9.3573 10.5173" stroke="#0B2343" stroke-miterlimit="10" stroke-linecap="round" stroke-linejoin="round"/>
<path d="M2.59009 13.4902C3.11092 15.2733 4.77467 16.579 6.72416 16.579C8.67365 16.579 10.3193 15.2733 10.8401 13.4902" stroke="#0B2343" stroke-miterlimit="10" stroke-linecap="round" stroke-linejoin="round"/>
<path d="M2 15.0165L2.58955 13.4902L4.06161 14.0617" stroke="#0B2343" stroke-miterlimit="10" stroke-linecap="round" stroke-linejoin="round"/>
</svg>
