<svg width="40" height="40" viewBox="0 0 40 40" fill="none" xmlns="http://www.w3.org/2000/svg">
<path d="M20.5248 10.1187C20.9671 9.22162 22.1035 6.57256 23.295 7.05939C24.4533 7.53375 23.4885 10.0854 23.127 11.1832C26.869 18.5622 27.3624 18.2736 27.0964 18.9261L26.8298 19.5768L21.7835 14.046L19.7964 18.0421L20.9161 20.3789L20.4055 21.6262L18.5888 18.9564L15.1798 19.486L15.688 18.2404L18.1245 17.3582L19.5066 13.1145L12 13.5104L12.266 12.8604C12.5325 12.2085 12.6667 12.766 20.5236 10.1187H20.5248Z" stroke="#0B2343" stroke-miterlimit="10" stroke-linecap="round" stroke-linejoin="round"/>
<mask id="path-2-inside-1_3182_319" fill="white">
<path fill-rule="evenodd" clip-rule="evenodd" d="M14.5078 30.0007L15.0106 30.1812L15.2617 29.4818L14.7583 29.3013L14.5078 30.0007Z"/>
</mask>
<path fill-rule="evenodd" clip-rule="evenodd" d="M14.5078 30.0007L15.0106 30.1812L15.2617 29.4818L14.7583 29.3013L14.5078 30.0007Z" fill="#0B2343"/>
<path d="M14.5078 30.0007L14.2227 30.7949L13.4289 30.51L13.7133 29.7161L14.5078 30.0007ZM15.0106 30.1812L15.8048 30.4663L15.5197 31.2605L14.7255 30.9754L15.0106 30.1812ZM15.2617 29.4818L15.5465 28.6874L16.3413 28.9723L16.056 29.767L15.2617 29.4818ZM14.7583 29.3013L13.9638 29.0167L14.2485 28.2221L15.0431 28.5069L14.7583 29.3013ZM14.7928 29.2064L15.2957 29.3869L14.7255 30.9754L14.2227 30.7949L14.7928 29.2064ZM14.2164 29.896L14.4675 29.1966L16.056 29.767L15.8048 30.4663L14.2164 29.896ZM14.977 30.2762L14.4735 30.0957L15.0431 28.5069L15.5465 28.6874L14.977 30.2762ZM15.5527 29.5859L15.3022 30.2853L13.7133 29.7161L13.9638 29.0167L15.5527 29.5859Z" fill="#0B2343" mask="url(#path-2-inside-1_3182_319)"/>
<mask id="path-4-inside-2_3182_319" fill="white">
<path fill-rule="evenodd" clip-rule="evenodd" d="M14.0579 31.2546L14.5608 31.4351L14.8119 30.7357L14.3085 30.5552L14.0579 31.2546Z"/>
</mask>
<path fill-rule="evenodd" clip-rule="evenodd" d="M14.0579 31.2546L14.5608 31.4351L14.8119 30.7357L14.3085 30.5552L14.0579 31.2546Z" fill="#0B2343"/>
<path d="M14.0579 31.2546L13.7728 32.0488L12.9791 31.7639L13.2635 30.97L14.0579 31.2546ZM14.5608 31.4351L15.355 31.7203L15.0699 32.5144L14.2757 32.2293L14.5608 31.4351ZM14.8119 30.7357L15.0967 29.9413L15.8915 30.2262L15.6061 31.0209L14.8119 30.7357ZM14.3085 30.5552L13.514 30.2706L13.7987 29.476L14.5932 29.7608L14.3085 30.5552ZM14.343 30.4603L14.8459 30.6408L14.2757 32.2293L13.7728 32.0488L14.343 30.4603ZM13.7666 31.1499L14.0177 30.4505L15.6061 31.0209L15.355 31.7203L13.7666 31.1499ZM14.5271 31.5301L14.0237 31.3496L14.5932 29.7608L15.0967 29.9413L14.5271 31.5301ZM15.1029 30.8398L14.8524 31.5392L13.2635 30.97L13.514 30.2706L15.1029 30.8398Z" fill="#0B2343" mask="url(#path-4-inside-2_3182_319)"/>
<mask id="path-6-inside-3_3182_319" fill="white">
<path fill-rule="evenodd" clip-rule="evenodd" d="M13.6095 32.5051L14.1124 32.6855L14.3635 31.9862L13.86 31.8057L13.6095 32.5051Z"/>
</mask>
<path fill-rule="evenodd" clip-rule="evenodd" d="M13.6095 32.5051L14.1124 32.6855L14.3635 31.9862L13.86 31.8057L13.6095 32.5051Z" fill="#0B2343"/>
<path d="M13.6095 32.5051L13.3244 33.2993L12.5306 33.0144L12.8151 32.2205L13.6095 32.5051ZM14.1124 32.6855L14.9066 32.9707L14.6214 33.7648L13.8273 33.4798L14.1124 32.6855ZM14.3635 31.9862L14.6483 31.1918L15.4431 31.4767L15.1577 32.2714L14.3635 31.9862ZM13.86 31.8057L13.0656 31.5211L13.3503 30.7265L14.1448 31.0113L13.86 31.8057ZM13.8946 31.7108L14.3974 31.8913L13.8273 33.4798L13.3244 33.2993L13.8946 31.7108ZM13.3181 32.4004L13.5693 31.701L15.1577 32.2714L14.9066 32.9707L13.3181 32.4004ZM14.0787 32.7806L13.5753 32.6001L14.1448 31.0113L14.6483 31.1918L14.0787 32.7806ZM14.6545 32.0903L14.4039 32.7897L12.8151 32.2205L13.0656 31.5211L14.6545 32.0903Z" fill="#0B2343" mask="url(#path-6-inside-3_3182_319)"/>
<mask id="path-8-inside-4_3182_319" fill="white">
<path fill-rule="evenodd" clip-rule="evenodd" d="M15.8591 26.2333L16.3619 26.4138L16.6131 25.7144L16.1096 25.534L15.8591 26.2333Z"/>
</mask>
<path fill-rule="evenodd" clip-rule="evenodd" d="M15.8591 26.2333L16.3619 26.4138L16.6131 25.7144L16.1096 25.534L15.8591 26.2333Z" fill="#0B2343"/>
<path d="M15.8591 26.2333L15.574 27.0276L14.7802 26.7427L15.0646 25.9487L15.8591 26.2333ZM16.3619 26.4138L17.1562 26.699L16.871 27.4931L16.0769 27.2081L16.3619 26.4138ZM16.6131 25.7144L16.8978 24.9201L17.6926 25.205L17.4073 25.9996L16.6131 25.7144ZM16.1096 25.534L15.3152 25.2494L15.5998 24.4547L16.3944 24.7396L16.1096 25.534ZM16.1441 25.4391L16.647 25.6195L16.0769 27.2081L15.574 27.0276L16.1441 25.4391ZM15.5677 26.1286L15.8188 25.4293L17.4073 25.9996L17.1562 26.699L15.5677 26.1286ZM16.3283 26.5088L15.8248 26.3283L16.3944 24.7396L16.8978 24.9201L16.3283 26.5088ZM16.904 25.8186L16.6535 26.5179L15.0646 25.9487L15.3152 25.2494L16.904 25.8186Z" fill="#0B2343" mask="url(#path-8-inside-4_3182_319)"/>
<mask id="path-10-inside-5_3182_319" fill="white">
<path fill-rule="evenodd" clip-rule="evenodd" d="M15.4092 27.4872L15.912 27.6677L16.1632 26.9684L15.6597 26.7879L15.4092 27.4872Z"/>
</mask>
<path fill-rule="evenodd" clip-rule="evenodd" d="M15.4092 27.4872L15.912 27.6677L16.1632 26.9684L15.6597 26.7879L15.4092 27.4872Z" fill="#0B2343"/>
<path d="M15.4092 27.4872L15.1241 28.2815L14.3303 27.9966L14.6147 27.2026L15.4092 27.4872ZM15.912 27.6677L16.7063 27.9529L16.4211 28.747L15.627 28.462L15.912 27.6677ZM16.1632 26.9684L16.4479 26.174L17.2427 26.4589L16.9574 27.2535L16.1632 26.9684ZM15.6597 26.7879L14.8653 26.5033L15.1499 25.7087L15.9445 25.9935L15.6597 26.7879ZM15.6943 26.693L16.1971 26.8735L15.627 28.462L15.1241 28.2815L15.6943 26.693ZM15.1178 27.3825L15.3689 26.6832L16.9574 27.2535L16.7063 27.9529L15.1178 27.3825ZM15.8784 27.7627L15.3749 27.5822L15.9445 25.9935L16.4479 26.174L15.8784 27.7627ZM16.4542 27.0725L16.2036 27.7718L14.6147 27.2026L14.8653 26.5033L16.4542 27.0725Z" fill="#0B2343" mask="url(#path-10-inside-5_3182_319)"/>
<mask id="path-12-inside-6_3182_319" fill="white">
<path fill-rule="evenodd" clip-rule="evenodd" d="M14.9608 28.7372L15.4636 28.9177L15.7147 28.2184L15.2113 28.0379L14.9608 28.7372Z"/>
</mask>
<path fill-rule="evenodd" clip-rule="evenodd" d="M14.9608 28.7372L15.4636 28.9177L15.7147 28.2184L15.2113 28.0379L14.9608 28.7372Z" fill="#0B2343"/>
<path d="M14.9608 28.7372L14.6757 29.5315L13.8819 29.2466L14.1663 28.4526L14.9608 28.7372ZM15.4636 28.9177L16.2578 29.2029L15.9727 29.997L15.1785 29.712L15.4636 28.9177ZM15.7147 28.2184L15.9995 27.424L16.7943 27.7089L16.509 28.5035L15.7147 28.2184ZM15.2113 28.0379L14.4169 27.7533L14.7015 26.9587L15.4961 27.2435L15.2113 28.0379ZM15.2458 27.943L15.7487 28.1235L15.1785 29.712L14.6757 29.5315L15.2458 27.943ZM14.6694 28.6325L14.9205 27.9332L16.509 28.5035L16.2578 29.2029L14.6694 28.6325ZM15.43 29.0127L14.9265 28.8322L15.4961 27.2435L15.9995 27.424L15.43 29.0127ZM16.0057 28.3225L15.7552 29.0218L14.1663 28.4526L14.4169 27.7533L16.0057 28.3225Z" fill="#0B2343" mask="url(#path-12-inside-6_3182_319)"/>
<mask id="path-14-inside-7_3182_319" fill="white">
<path fill-rule="evenodd" clip-rule="evenodd" d="M17.2104 22.4655L17.7132 22.646L17.9644 21.9466L17.4609 21.7661L17.2104 22.4655Z"/>
</mask>
<path fill-rule="evenodd" clip-rule="evenodd" d="M17.2104 22.4655L17.7132 22.646L17.9644 21.9466L17.4609 21.7661L17.2104 22.4655Z" fill="#0B2343"/>
<path d="M17.2104 22.4655L16.9253 23.2598L16.1315 22.9749L16.4159 22.1809L17.2104 22.4655ZM17.7132 22.646L18.5075 22.9312L18.2223 23.7253L17.4282 23.4403L17.7132 22.646ZM17.9644 21.9466L18.2492 21.1523L19.0439 21.4372L18.7586 22.2318L17.9644 21.9466ZM17.4609 21.7661L16.6665 21.4815L16.9511 20.6869L17.7457 20.9718L17.4609 21.7661ZM17.4955 21.6712L17.9983 21.8517L17.4282 23.4403L16.9253 23.2598L17.4955 21.6712ZM16.919 22.3608L17.1702 21.6614L18.7586 22.2318L18.5075 22.9312L16.919 22.3608ZM17.6796 22.741L17.1761 22.5605L17.7457 20.9718L18.2492 21.1523L17.6796 22.741ZM18.2554 22.0507L18.0048 22.7501L16.4159 22.1809L16.6665 21.4815L18.2554 22.0507Z" fill="#0B2343" mask="url(#path-14-inside-7_3182_319)"/>
<mask id="path-16-inside-8_3182_319" fill="white">
<path fill-rule="evenodd" clip-rule="evenodd" d="M16.7606 23.7197L17.2634 23.9001L17.5145 23.2008L17.0111 23.0203L16.7606 23.7197Z"/>
</mask>
<path fill-rule="evenodd" clip-rule="evenodd" d="M16.7606 23.7197L17.2634 23.9001L17.5145 23.2008L17.0111 23.0203L16.7606 23.7197Z" fill="#0B2343"/>
<path d="M16.7606 23.7197L16.4755 24.5139L15.6817 24.229L15.9661 23.4351L16.7606 23.7197ZM17.2634 23.9001L18.0576 24.1853L17.7725 24.9794L16.9783 24.6944L17.2634 23.9001ZM17.5145 23.2008L17.7993 22.4064L18.5941 22.6913L18.3088 23.486L17.5145 23.2008ZM17.0111 23.0203L16.2167 22.7357L16.5013 21.9411L17.2959 22.2259L17.0111 23.0203ZM17.0456 22.9254L17.5485 23.1059L16.9783 24.6944L16.4755 24.5139L17.0456 22.9254ZM16.4692 23.615L16.7203 22.9156L18.3088 23.486L18.0576 24.1853L16.4692 23.615ZM17.2298 23.9952L16.7263 23.8147L17.2959 22.2259L17.7993 22.4064L17.2298 23.9952ZM17.8055 23.3049L17.555 24.0043L15.9661 23.4351L16.2167 22.7357L17.8055 23.3049Z" fill="#0B2343" mask="url(#path-16-inside-8_3182_319)"/>
<mask id="path-18-inside-9_3182_319" fill="white">
<path fill-rule="evenodd" clip-rule="evenodd" d="M16.3121 24.9699L16.8149 25.1504L17.0661 24.451L16.5626 24.2705L16.3121 24.9699Z"/>
</mask>
<path fill-rule="evenodd" clip-rule="evenodd" d="M16.3121 24.9699L16.8149 25.1504L17.0661 24.451L16.5626 24.2705L16.3121 24.9699Z" fill="#0B2343"/>
<path d="M16.3121 24.9699L16.027 25.7642L15.2332 25.4793L15.5176 24.6853L16.3121 24.9699ZM16.8149 25.1504L17.6092 25.4356L17.324 26.2297L16.5299 25.9447L16.8149 25.1504ZM17.0661 24.451L17.3508 23.6566L18.1456 23.9416L17.8603 24.7362L17.0661 24.451ZM16.5626 24.2705L15.7682 23.9859L16.0528 23.1913L16.8474 23.4762L16.5626 24.2705ZM16.5971 24.1756L17.1 24.3561L16.5299 25.9447L16.027 25.7642L16.5971 24.1756ZM16.0207 24.8652L16.2718 24.1658L17.8603 24.7362L17.6092 25.4356L16.0207 24.8652ZM16.7813 25.2454L16.2778 25.0649L16.8474 23.4762L17.3508 23.6566L16.7813 25.2454ZM17.3571 24.5551L17.1065 25.2545L15.5176 24.6853L15.7682 23.9859L17.3571 24.5551Z" fill="#0B2343" mask="url(#path-18-inside-9_3182_319)"/>
</svg>
