<svg width="40" height="40" viewBox="0 0 40 40" fill="none" xmlns="http://www.w3.org/2000/svg">
<path d="M25.0722 28.4407H20.6593" stroke="#0B2343" stroke-width="0.968509" stroke-miterlimit="10" stroke-linecap="round" stroke-linejoin="round"/>
<path d="M17.6588 22.3994V30.5398C17.6588 31.1115 18.1176 31.5725 18.6859 31.5725H34.5916C35.1591 31.5725 35.618 31.1115 35.618 30.5398V20.1152C35.618 19.5469 35.1591 19.0853 34.5916 19.0853H26.6387" stroke="#0B2343" stroke-width="0.968509" stroke-miterlimit="10" stroke-linecap="round" stroke-linejoin="round"/>
<path d="M22.8665 21.5718H18.9614" stroke="#0B2343" stroke-width="0.968509" stroke-miterlimit="10" stroke-linecap="round" stroke-linejoin="round"/>
<path d="M17.6588 24.6816H35.618V21.5714H26.3234" stroke="#0B2343" stroke-width="0.968509" stroke-miterlimit="10" stroke-linecap="round" stroke-linejoin="round"/>
<path d="M18.4092 16.5683L13.3578 19.486C11.6375 20.4811 10.5011 19.8511 5.02563 18.6671L4 19.2581L8.44416 22.3229L7.5478 22.8399C7.32761 22.9692 7.4441 23.3066 7.69482 23.2725C14.2982 22.3996 17.4255 21.1637 17.4255 21.1637L31.9519 12.7776C31.9519 12.7776 36.9622 9.88463 34.9699 9.15731C32.756 8.34831 28.1818 10.9273 28.1818 10.9273L22.5878 14.1576L13.3237 10.9131L12.7626 11.2363L19.4036 17.3581" stroke="#0B2343" stroke-width="0.968509" stroke-miterlimit="10" stroke-linecap="round" stroke-linejoin="round"/>
<path d="M25.8596 18.4977L25.4988 21.7344L24.6401 22.3992L22.5675 20.4481" stroke="#0B2343" stroke-width="0.968509" stroke-miterlimit="10" stroke-linecap="round" stroke-linejoin="round"/>
</svg>
