<svg width="40" height="40" viewBox="0 0 40 40" fill="none" xmlns="http://www.w3.org/2000/svg">
<mask id="mask0_3182_296" style="mask-type:alpha" maskUnits="userSpaceOnUse" x="1" y="1" width="38" height="38">
<path fill-rule="evenodd" clip-rule="evenodd" d="M35.2399 31.3486C37.6018 28.1819 39 24.2542 39 20C39 9.50659 30.4934 1 20 1C9.50659 1 1 9.50659 1 20C1 30.4934 9.50659 39 20 39C22.6343 39 25.1434 38.4639 27.4242 37.4948C26.5431 36.5934 26 35.3601 26 34C26 31.2386 28.2386 29 31 29C32.7875 29 34.3559 29.938 35.2399 31.3486Z" fill="#C4C4C4"/>
</mask>
<g mask="url(#mask0_3182_296)">
<path d="M38 20C38 10.0589 29.9411 2 20 2C10.0589 2 2 10.0589 2 20C2 29.9411 10.0589 38 20 38C29.9411 38 38 29.9411 38 20Z" stroke="#0B2343" stroke-miterlimit="10" stroke-linecap="round" stroke-linejoin="round"/>
<path d="M19.4453 21.4457L14.486 16.9714L14.9583 16.739L21.8069 19.0633L25.9396 16.739C25.9396 16.739 28.124 15.7511 28.8915 15.5768C29.6591 15.4025 30.0723 15.2863 30.8398 15.4025C31.6073 15.5187 31.3712 16.0998 31.076 16.4484C30.7808 16.7971 28.7735 18.1335 28.7735 18.1335L18.0283 24.2348L14.9583 25.1064L10.8256 25.8037C10.8256 25.8037 10.6485 25.8618 10.5894 25.8037C10.5304 25.7456 10.5304 25.5713 10.5894 25.5132C10.6485 25.4551 11.2389 25.1064 11.2389 25.1064L7.9917 22.8984L8.70017 22.4335L11.2979 23.0146C12.1048 23.247 13.9665 23.5724 14.9583 23.0146C15.9502 22.4567 17.8512 21.3876 18.6778 20.9227" stroke="#0B2343" stroke-linecap="round" stroke-linejoin="round"/>
<path d="M21.6884 23.8152L23.1846 25.0237L23.8177 24.637L24.1054 22.6067" stroke="#0B2343" stroke-linecap="round" stroke-linejoin="round"/>
</g>
<circle cx="31" cy="34" r="4" stroke="#0B2343"/>
<path d="M29.7733 33.9288C29.5988 33.7543 29.3159 33.7543 29.1415 33.9288C28.967 34.1033 28.967 34.3862 29.1415 34.5607L29.7733 33.9288ZM30.351 35.1384L30.0351 35.4543C30.1189 35.5381 30.2325 35.5852 30.351 35.5852C30.4695 35.5852 30.5832 35.5381 30.667 35.4543L30.351 35.1384ZM33.1244 32.9968C33.2989 32.8224 33.2989 32.5395 33.1244 32.365C32.9499 32.1905 32.667 32.1905 32.4925 32.365L33.1244 32.9968ZM29.1415 34.5607L30.0351 35.4543L30.667 34.8224L29.7733 33.9288L29.1415 34.5607ZM30.667 35.4543L33.1244 32.9968L32.4925 32.365L30.0351 34.8224L30.667 35.4543Z" fill="#0B2343"/>
</svg>
