<svg width="40" height="40" viewBox="0 0 40 40" fill="none" xmlns="http://www.w3.org/2000/svg">
<path d="M31.9261 25.6724V10.7705C31.9261 10.2198 31.4812 9.7644 30.9199 9.7644H6.38008C5.82934 9.7644 5.3739 10.2092 5.3739 10.7705V25.6724" stroke="#0B2343" stroke-miterlimit="10" stroke-linecap="round" stroke-linejoin="round"/>
<path d="M19.2209 15.1525V13" stroke="#0B2343" stroke-width="0.6" stroke-miterlimit="10" stroke-linecap="round" stroke-linejoin="round"/>
<path d="M22.4139 16.4922L24.0708 14.7505" stroke="#0B2343" stroke-width="0.6" stroke-miterlimit="10" stroke-linecap="round" stroke-linejoin="round"/>
<path d="M14.3755 14.7505L16.0323 16.4922" stroke="#0B2343" stroke-width="0.6" stroke-miterlimit="10" stroke-linecap="round" stroke-linejoin="round"/>
<path d="M19.3727 20.9746L16.6134 18.4851L16.8762 18.3558L20.6867 19.649L22.9861 18.3558C22.9861 18.3558 24.2015 17.8062 24.6286 17.7092C25.0556 17.6122 25.2855 17.5475 25.7126 17.6122C26.1396 17.6769 26.0082 18.0002 25.844 18.1942C25.6797 18.3881 24.5629 19.1318 24.5629 19.1318L18.5843 22.5265L16.8762 23.0114L14.5768 23.3994C14.5768 23.3994 14.4782 23.4317 14.4454 23.3994C14.4125 23.3671 14.4125 23.2701 14.4454 23.2377C14.4782 23.2054 14.8067 23.0114 14.8067 23.0114L13 21.7829L13.3942 21.5242L14.8395 21.8475C15.2885 21.9769 16.3243 22.1579 16.8762 21.8475C17.428 21.5372 18.4858 20.9423 18.9457 20.6836" stroke="#0B2343" stroke-width="0.6" stroke-linecap="round" stroke-linejoin="round"/>
<path d="M20.6207 22.293L21.4532 22.9654L21.8054 22.7503L21.9655 21.6206" stroke="#0B2343" stroke-width="0.6" stroke-linecap="round" stroke-linejoin="round"/>
<path d="M20.2863 27.8228V28.2251C20.2863 28.5428 20.032 28.7971 19.7143 28.7971H17.5855C17.2677 28.7971 17.0136 28.5428 17.0136 28.2251V27.8228H3.43561V29.941C3.43561 30.5235 3.91221 31.0001 4.49473 31.0001H32.8156C33.3982 31.0001 33.8748 30.5235 33.8748 29.941V27.8228H20.2863Z" stroke="#0B2343" stroke-miterlimit="10" stroke-linecap="round" stroke-linejoin="round"/>
<path d="M34.2293 20.2993L36.6249 22.6949C36.7994 22.8694 36.7994 23.1504 36.6249 23.3249C36.4504 23.4994 36.1694 23.4994 35.9949 23.3249L33.5993 20.9293" stroke="#0B2343" stroke-width="0.680873" stroke-miterlimit="10"/>
<path d="M31.6325 21.5919C33.4325 21.5919 34.8917 20.1327 34.8917 18.3327C34.8917 16.5327 33.4325 15.0735 31.6325 15.0735C29.8325 15.0735 28.3733 16.5327 28.3733 18.3327C28.3733 20.1327 29.8325 21.5919 31.6325 21.5919Z" fill="white" stroke="#0B2343" stroke-width="0.680873" stroke-miterlimit="10" stroke-linecap="round" stroke-linejoin="round"/>
<path d="M31.8425 16.0906C31.2155 16.0699 30.5797 16.2977 30.1005 16.7768C29.6214 17.2559 29.3937 17.8918 29.4144 18.5188" fill="white"/>
<path d="M31.8425 16.0906C31.2155 16.0699 30.5797 16.2977 30.1005 16.7768C29.6214 17.2559 29.3937 17.8918 29.4144 18.5188" stroke="#0B2343" stroke-width="0.680873" stroke-miterlimit="10" stroke-linecap="round" stroke-linejoin="round"/>
</svg>
