<svg width="40" height="40" viewBox="0 0 40 40" fill="none" xmlns="http://www.w3.org/2000/svg">
<path d="M18.4916 27.8697L13.8438 30.5464C12.2668 31.4593 11.219 30.8783 6.18726 29.789L5.24316 30.3285L9.33079 33.14L8.51118 33.6172C8.30369 33.7314 8.41781 34.0426 8.64606 34.0115C14.7152 33.2126 17.589 32.0714 17.589 32.0714L30.9412 24.363C30.9412 24.363 35.5476 21.7071 33.7113 21.0328C31.6778 20.2858 27.4761 22.6616 27.4761 22.6616L22.3303 25.6287L18.0715 24.1348M19.3942 28.5648L16.3441 25.7532L13.8438 23.343" stroke="#0B2343" stroke-miterlimit="10" stroke-linecap="round" stroke-linejoin="round"/>
<path d="M25.339 29.6438L25.007 32.6213L24.2185 33.2334L22.3199 31.4386" stroke="#0B2343" stroke-miterlimit="10" stroke-linecap="round" stroke-linejoin="round"/>
<path d="M15.1266 18.5463L18.0671 19.1467L17.4549 22.1473" stroke="#0B2343" stroke-miterlimit="10" stroke-linecap="round" stroke-linejoin="round"/>
<path d="M18.4244 8.63702C17.1652 7.18313 15.3608 6.20305 13.2968 6.02781C9.08442 5.67082 5.38479 8.7928 5.02781 12.9987C4.67082 17.2111 7.7928 20.9107 11.9987 21.2677C14.0352 21.4405 15.9499 20.8069 17.4239 19.6298" stroke="#0B2343" stroke-miterlimit="10" stroke-linecap="round" stroke-linejoin="round"/>
<path d="M15.5232 14.2901H12.6284V8.94189" stroke="#0B2343" stroke-miterlimit="10" stroke-linecap="round" stroke-linejoin="round"/>
<path d="M20.4436 16.8291C20.7507 17.164 21.3684 16.9686 21.6814 16.7879C22.1866 16.4963 22.3897 15.8952 22.1268 15.4399C21.868 14.9916 21.2955 15.0187 20.7367 15.1516C20.1483 15.2826 19.6094 15.3186 19.3465 14.8633C19.0877 14.4151 19.2868 13.8069 19.7919 13.5152C20.1334 13.3181 20.5267 13.3092 20.827 13.4678" stroke="#0B2343" stroke-miterlimit="10" stroke-linecap="round" stroke-linejoin="round"/>
<path d="M19.3688 12.7822L19.796 13.5221" stroke="#0B2343" stroke-miterlimit="10" stroke-linecap="round" stroke-linejoin="round"/>
<path d="M21.6814 16.7876L22.1291 17.5631" stroke="#0B2343" stroke-miterlimit="10" stroke-linecap="round" stroke-linejoin="round"/>
<path d="M24.6517 17.4464L20.8121 19.6632C20.5673 19.8046 20.2461 19.7167 20.1033 19.4694L17.3492 14.6991C17.2839 14.586 17.2606 14.4487 17.2886 14.3195L18.0216 11.1636C18.0863 10.8719 18.38 10.7023 18.672 10.7881L21.7716 11.7312C21.8975 11.7716 22.0047 11.8604 22.07 11.9735L24.8241 16.7438C24.9809 16.9831 24.9034 17.3011 24.6517 17.4464Z" stroke="#0B2343" stroke-miterlimit="10"/>
</svg>
