<svg width="40" height="40" viewBox="0 0 40 40" fill="none" xmlns="http://www.w3.org/2000/svg">
<path d="M17.9655 20.8872L12.7153 23.9107C10.9339 24.942 9.75031 24.2857 4.06646 23.0552L3 23.6646L7.6174 26.8405L6.69156 27.3796C6.45718 27.5085 6.5861 27.8601 6.84392 27.825C13.6997 26.9226 16.9459 25.6335 16.9459 25.6335C20.9515 23.321 23.7603 21.6995 27 19.8291M18.9851 21.6723L12.0942 15.3205L12.6801 14.9806L22.3016 18.3558L28.1144 15.0041C28.1144 15.0041 32.8607 12.3204 35.1577 13.1642C36.5659 13.6813 34.62 15.23 33.2251 16.1714" stroke="#0B2343" stroke-miterlimit="10" stroke-linecap="round" stroke-linejoin="round"/>
<path d="M25.7002 22.8914L25.3252 26.2548L24.4345 26.9462L22.2899 24.9188" stroke="#0B2343" stroke-miterlimit="10" stroke-linecap="round" stroke-linejoin="round"/>
<path d="M30.6793 22.4037C32.3277 22.5835 33.8082 21.3907 33.9821 19.7423C34.1619 18.0939 32.9691 16.6134 31.3207 16.4396C29.6723 16.2597 28.1918 17.4526 28.0179 19.1009C27.8381 20.7493 29.0309 22.2299 30.6793 22.4037Z" stroke="#0B2343" stroke-miterlimit="10" stroke-linecap="round" stroke-linejoin="round"/>
<path d="M33 21.9216L37 26.9216" stroke="#0B2343" stroke-miterlimit="10" stroke-linecap="round" stroke-linejoin="round"/>
</svg>
