<?xml version="1.0" encoding="utf-8"?>
<!-- Generator: Adobe Illustrator 19.1.0, SVG Export Plug-In . SVG Version: 6.00 Build 0)  -->
<svg version="1.1" id="Layer_1" xmlns="http://www.w3.org/2000/svg" xmlns:xlink="http://www.w3.org/1999/xlink" x="0px" y="0px"
	 width="500px" height="500px" viewBox="0 0 500 500" style="enable-background:new 0 0 500 500;" xml:space="preserve">
<style type="text/css">
	.st0{fill:#231F20;}
</style>
<path d="M67.1,360.6c-2.4,0-4.5-1.5-5.3-3.9c-0.9-2.6,0.1-5.3,2.5-6.7l10.7-6.2l-64.6-44.5c-0.6-0.4-1-1.1-0.9-1.8
	c0-0.7,0.4-1.4,1.1-1.8l15.5-9c0.5-0.3,1-0.4,1.5-0.2c17.2,3.7,31.3,7,43.8,9.9c46.9,10.9,61,14.2,81,2.7l75.4-43.5L143,177.6
	c-0.5-0.5-0.7-1.1-0.7-1.8s0.5-1.3,1.1-1.6l8.5-4.9c0.5-0.3,1.2-0.3,1.8-0.2l139.5,48.9l84-48.5c2.9-1.6,70.6-39.5,104.7-27
	c5.3,1.9,8.1,5,8.5,9c1.5,17.2-48.2,46.4-53.9,49.7L216.2,328.3c-0.8,0.3-49.1,19.2-148.3,32.3C67.7,360.6,67.4,360.6,67.1,360.6z
	 M15.6,297.8l64.6,44.5c0.6,0.4,1,1.1,0.9,1.8c0,0.7-0.4,1.4-1.1,1.8l-13.6,7.9c-0.9,0.5-0.7,1.3-0.6,1.6c0.1,0.3,0.3,1.2,1.5,0.9
	c98.6-13,146.5-31.7,147-31.9l219.9-127c14.8-8.5,52.8-33.3,51.8-45.6c-0.1-0.8-0.3-3.4-5.7-5.4c-32.3-11.8-100.5,26.3-101.1,26.7
	l-84.8,49c-0.6,0.3-1.2,0.4-1.8,0.2l-139.5-48.9l-5.1,3l98.5,90.8c0.9,0.8,0.9,2.2,0.1,3c-0.8,0.9-2.1,0.9-3,0.1l-12.6-11.6
	l-76.5,44.2c-21.4,12.4-37.2,8.7-84.1-2.3c-12.2-2.9-26.1-6.1-42.9-9.7L15.6,297.8z"/>
<path class="st0" d="M324.5,347.4c-0.5,0-1.1-0.2-1.5-0.6l-31.4-29.6c-0.9-0.8-0.9-2.2-0.1-3c0.8-0.8,2.2-0.9,3-0.1l30.1,28.3
	l10.9-8.4l5.4-48.2c0.1-1.2,1.3-2,2.4-1.9c1.2,0.1,2,1.2,1.9,2.4l-5.5,49.1c-0.1,0.6-0.4,1.1-0.8,1.5l-13,10.1
	C325.4,347.2,325,347.4,324.5,347.4z"/>
</svg>
