<svg width="40" height="40" viewBox="0 0 40 40" fill="none" xmlns="http://www.w3.org/2000/svg">
<path d="M18.3454 20.6672L12.7982 23.8618C10.9161 24.9514 9.66555 24.258 3.66022 22.9579L2.53345 23.6018L7.412 26.9574L6.43381 27.5269C6.18616 27.6631 6.32237 28.0346 6.59478 27.9974C13.8383 27.044 17.2682 25.682 17.2682 25.682L33.2039 16.4821C33.2039 16.4821 38.7016 13.3123 36.51 12.5074C34.0831 11.6159 29.0683 14.4514 29.0683 14.4514L22.9268 17.9927L12.7611 14.4266L12.142 14.7857L19.4226 21.4968" stroke="#0B2343" stroke-width="1.09293" stroke-miterlimit="10" stroke-linecap="round" stroke-linejoin="round"/>
<path d="M26.5174 22.7849L26.1212 26.3386L25.1801 27.0691L22.9142 24.927" stroke="#0B2343" stroke-width="1.09293" stroke-miterlimit="10" stroke-linecap="round" stroke-linejoin="round"/>
</svg>
