<svg xmlns="http://www.w3.org/2000/svg" viewBox="0 0 24.37 20.93"><g id="Layer_2" data-name="Layer 2"><g id="Layer_1-2" data-name="Layer 1"><path d="M12.19,4.8a.35.35,0,0,1-.35-.35V.35A.35.35,0,0,1,12.19,0a.35.35,0,0,1,.35.35v4.1A.35.35,0,0,1,12.19,4.8Z"/><path d="M18.26,7.34A.36.36,0,0,1,18,7.25a.35.35,0,0,1,0-.5l3.15-3.31a.35.35,0,0,1,.51.48L18.51,7.24A.33.33,0,0,1,18.26,7.34Z"/><path d="M6.12,7.34a.33.33,0,0,1-.25-.1L2.71,3.92a.35.35,0,0,1,0-.49.34.34,0,0,1,.49,0L6.37,6.75a.35.35,0,0,1,0,.5A.36.36,0,0,1,6.12,7.34Z"/><path d="M3.11,20.93a.53.53,0,0,1-.5-.36A.51.51,0,0,1,2.86,20L3,19.84l-2.89-2a.35.35,0,0,1,0-.59L1,16.82a.35.35,0,0,1,.25,0c.85.19,1.57.35,2.18.5,2.25.52,2.93.68,3.84.16l3.47-2-4-3.67a.3.3,0,0,1-.11-.29.35.35,0,0,1,.17-.27L7.19,11a.37.37,0,0,1,.29,0l6.83,2.39L18.38,11c.15-.08,3.6-2,5.41-1.36a.79.79,0,0,1,.58.66c.08.94-1.93,2.2-2.8,2.7L10.64,19.3a33.6,33.6,0,0,1-7.46,1.63Zm.1-.37h0Zm-.12-.33ZM1,17.59l2.89,2a.35.35,0,0,1,0,.54,32,32,0,0,0,6.39-1.45l10.89-6.29c1.31-.76,2.48-1.73,2.45-2h0a.33.33,0,0,0-.13-.06c-1.23-.46-3.89.79-4.81,1.31L14.52,14a.37.37,0,0,1-.29,0l-6.5-2.28,4.45,4.09a.35.35,0,1,1-.48.52l-.47-.44L7.57,18.05c-1.15.66-2,.45-4.35-.09l-2-.47Z"/><path d="M15.89,20.29a.36.36,0,0,1-.24-.09L14.1,18.73a.35.35,0,0,1,0-.5.36.36,0,0,1,.5,0l1.33,1.26.3-.22L16.46,17a.34.34,0,0,1,.39-.31.35.35,0,0,1,.31.38l-.28,2.44a.32.32,0,0,1-.13.24l-.64.5A.36.36,0,0,1,15.89,20.29Z"/></g></g></svg>