<svg width="40" height="40" viewBox="0 0 40 40" fill="none" xmlns="http://www.w3.org/2000/svg">
<path d="M20.3863 33.1509H36L34.3755 21.598H20.3863H6.39708L4.77197 33.1509H20.3863Z" stroke="#0B2343" stroke-miterlimit="10" stroke-linecap="round" stroke-linejoin="round"/>
<path d="M27.8102 30.9033C27.58 26.9984 24.3497 23.8994 20.3864 23.8994C16.4231 23.8994 13.1928 26.9984 12.9626 30.9033H27.8102Z" stroke="#0B2343" stroke-miterlimit="10" stroke-linecap="round" stroke-linejoin="round"/>
<path d="M18.8042 30.9033L21.9682 26.682" stroke="#0B2343" stroke-miterlimit="10" stroke-linecap="round" stroke-linejoin="round"/>
<path d="M19.5116 12.8627L16.134 14.8129C14.9838 15.4755 14.2244 15.0556 10.5629 14.2643L9.87769 14.661L12.8493 16.7079L12.2503 17.0549C12.1031 17.1398 12.18 17.3653 12.3479 17.3441C16.7615 16.761 18.8536 15.9332 18.8536 15.9332L28.5645 10.3269C28.5645 10.3269 31.9142 8.39401 30.5823 7.90714C29.1017 7.3672 26.0439 9.09115 26.0439 9.09115L22.3048 11.2496L16.1115 9.08053L15.7367 9.29677L20.1756 13.3881" stroke="#0B2343" stroke-miterlimit="10" stroke-linecap="round" stroke-linejoin="round"/>
<path d="M24.4916 14.1527L24.2502 16.3164L23.6764 16.7615L22.2908 15.4561" stroke="#0B2343" stroke-miterlimit="10" stroke-linecap="round" stroke-linejoin="round"/>
</svg>
