<svg width="40" height="40" viewBox="0 0 40 40" fill="none" xmlns="http://www.w3.org/2000/svg">
<path d="M25.01 26.3101C25.01 27.1701 22.31 27.8699 18.98 27.8699C15.65 27.8699 12.95 27.1701 12.95 26.3101C12.95 25.4501 15.65 24.75 18.98 24.75C22.31 24.75 25.01 25.4501 25.01 26.3101Z" stroke="#0B2343" stroke-linecap="round" stroke-linejoin="round"/>
<path d="M12.95 26.3101L15.3099 33.8899C15.3099 34.3199 17.32 34.6699 18.98 34.6699C20.64 34.6699 22.65 34.3199 22.65 33.8899L25.01 26.3101" stroke="#0B2343" stroke-linecap="round" stroke-linejoin="round"/>
<path d="M17.36 19.96C14.72 21.75 11 19.9601 11 16.8401C11 15.4101 11.82 14.17 13.04 13.51C11.86 9.76001 14.8101 6 18.9301 6C21.9901 6 24.51 8.11989 24.99 10.8899C27.39 11.4699 29.17 13.53 29.17 15.99C29.17 20.26 24.1 22.7301 20.46 20.3201" stroke="#0B2343" stroke-miterlimit="10" stroke-linecap="round" stroke-linejoin="round"/>
<path d="M18.98 18.9099C18.98 18.9099 19.84 12.7999 23.96 14.2199" stroke="#0B2343" stroke-miterlimit="10" stroke-linecap="round" stroke-linejoin="round"/>
<path d="M18.96 17.7599C18.96 17.7599 17.13 13.17 15.23 15.1" stroke="#0B2343" stroke-miterlimit="10" stroke-linecap="round" stroke-linejoin="round"/>
<path d="M18.96 11.49V25.79" stroke="#0B2343" stroke-linecap="round" stroke-linejoin="round"/>
</svg>
