<svg width="40" height="40" viewBox="0 0 40 40" fill="none" xmlns="http://www.w3.org/2000/svg">
<path d="M26.8032 23.3573C23.9115 23.3573 21.5688 25.7 21.5688 28.5917C21.5688 31.4835 23.9115 33.8271 26.8032 33.8271C29.695 33.8271 32.0397 31.4835 32.0397 28.5917C32.0397 25.7 29.695 23.3573 26.8032 23.3573Z" stroke="#0B2343" stroke-miterlimit="10" stroke-linecap="round" stroke-linejoin="round"/>
<path d="M29.76 27.7302C29.3873 26.4504 28.1926 25.5152 26.7925 25.5152C25.3923 25.5152 24.2121 26.4504 23.8395 27.7302" stroke="#0B2343" stroke-miterlimit="10" stroke-linecap="round" stroke-linejoin="round"/>
<path d="M30.1853 26.6352L29.7598 27.7302L28.7031 27.3202" stroke="#0B2343" stroke-miterlimit="10" stroke-linecap="round" stroke-linejoin="round"/>
<path d="M23.8481 29.4551C24.2208 30.7349 25.4155 31.6711 26.8156 31.6711C28.2158 31.6711 29.396 30.7349 29.7686 29.4551" stroke="#0B2343" stroke-miterlimit="10" stroke-linecap="round" stroke-linejoin="round"/>
<path d="M23.4229 30.5503L23.8484 29.4553L24.905 29.8652" stroke="#0B2343" stroke-miterlimit="10" stroke-linecap="round" stroke-linejoin="round"/>
<path d="M26.1321 23.1823C26.3646 22.9124 26.6023 22.6374 26.8462 22.3561L26.8473 22.354C28.7924 22.218 34.4087 22.1225 34.4098 19.6138C34.4087 17.1746 29.0944 17.0314 26.8473 16.8747C16.2965 4.67976 17.1819 4.00197 15.8086 3.9999L14.4375 4.00094L20.6912 17.185L12.016 17.8213L8.62602 14.0774H6L9.4761 19.3253L6.00519 25.0849L8.62809 25.0859L12.017 21.343L20.6922 21.9793L14.4385 35.2288H15.8076C16.83 35.2288 17.187 34.8665 21.672 29.6311" stroke="#0B2343" stroke-miterlimit="10" stroke-linecap="round" stroke-linejoin="round"/>
</svg>
