<svg width="40" height="40" viewBox="0 0 40 40" fill="none" xmlns="http://www.w3.org/2000/svg">
<path d="M18.5065 14.8104L13.008 17.9771C11.1424 19.0571 9.9028 18.3697 3.95015 17.081L2.83337 17.7192L7.66906 21.0454L6.6994 21.61C6.45393 21.745 6.58895 22.1132 6.85897 22.0764C14.039 21.1313 17.4387 19.7812 17.4387 19.7812L33.2347 10.662C33.2347 10.662 38.6842 7.51999 36.5118 6.72222C34.1062 5.83852 29.1354 8.64909 29.1354 8.64909L23.0478 12.1594L12.9713 8.62467L12.3576 8.9805L19.5743 15.6328" stroke="#0B2343" stroke-miterlimit="10" stroke-linecap="round" stroke-linejoin="round"/>
<path d="M26.6071 16.9092L26.2143 20.4317L25.2815 21.1558L23.0232 19.0325" stroke="#0B2343" stroke-miterlimit="10" stroke-linecap="round" stroke-linejoin="round"/>
<path d="M3.54529 33.0002H23.0233" stroke="#0B2343" stroke-miterlimit="10" stroke-linecap="round" stroke-linejoin="round"/>
</svg>
