<svg width="40" height="40" viewBox="0 0 40 40" fill="none" xmlns="http://www.w3.org/2000/svg">
<path d="M22.449 19.1892C22.449 17.8326 21.3488 16.7324 19.9922 16.7324C18.6351 16.7324 17.5354 17.8326 17.5354 19.1892C17.5354 20.5463 18.6351 21.646 19.9922 21.646C21.2505 21.646 22.2874 20.7004 22.4319 19.4813C22.4433 19.3855 22.449 19.288 22.449 19.1892Z" stroke="#0B2343" stroke-width="1.06972" stroke-miterlimit="10" stroke-linecap="round" stroke-linejoin="round"/>
<path d="M26.7467 20.4519C26.6768 20.5551 26.636 20.6799 26.636 20.8138C26.636 21.1713 26.9258 21.4612 27.2833 21.4612C27.6149 21.4612 27.8881 21.2122 27.9263 20.8907C27.9294 20.8656 27.9307 20.8397 27.9307 20.8138C27.9307 20.6491 27.8692 20.4985 27.7678 20.3843" stroke="#0B2343" stroke-width="1.06972" stroke-miterlimit="10" stroke-linecap="round" stroke-linejoin="round"/>
<path d="M21.8337 20.8135L37.8201 19.651L38.1139 18.1393L37.8201 19.651L22.406 19.6387" stroke="#0B2343" stroke-width="1.06972" stroke-miterlimit="10" stroke-linecap="round" stroke-linejoin="round"/>
<path d="M13.1843 20.4519C13.2541 20.5551 13.295 20.6799 13.295 20.8138C13.295 21.1713 13.0051 21.4612 12.6476 21.4612C12.316 21.4612 12.0428 21.2122 12.0046 20.8907C12.0016 20.8656 12.0002 20.8397 12.0002 20.8138C12.0002 20.6491 12.0617 20.4985 12.1632 20.3843" stroke="#0B2343" stroke-width="1.06972" stroke-miterlimit="10" stroke-linecap="round" stroke-linejoin="round"/>
<path d="M18.0973 20.8135L2.11095 19.651L1.81714 18.1393L2.11095 19.651L17.525 19.6387" stroke="#0B2343" stroke-width="1.06972" stroke-miterlimit="10" stroke-linecap="round" stroke-linejoin="round"/>
<path d="M22.309 18.3706H27.0478" stroke="#0B2343" stroke-width="1.06972" stroke-miterlimit="10" stroke-linecap="round" stroke-linejoin="round"/>
<path d="M12.9053 18.3706H17.6753" stroke="#0B2343" stroke-width="1.06972" stroke-miterlimit="10" stroke-linecap="round" stroke-linejoin="round"/>
<path d="M19.9922 16.7327V11" stroke="#0B2343" stroke-width="1.06972" stroke-miterlimit="10" stroke-linecap="round" stroke-linejoin="round"/>
<path d="M12.8832 28.5728H27.0478" stroke="#0B2343" stroke-width="1.06972" stroke-miterlimit="10" stroke-linecap="round" stroke-linejoin="round"/>
</svg>
