<svg width="40" height="40" viewBox="0 0 40 40" fill="none" xmlns="http://www.w3.org/2000/svg">
<path d="M15.74 13.58V7.16C15.74 5.96 16.7 5 17.9 5C19.1 5 20.06 5.96 20.06 7.16V13.58H22.22V22.16C22.22 23.36 21.26 24.32 20.06 24.32H15.8C16.1 27.86 19.34 30.62 23.3 30.62C27.44 30.62 30.8 27.56 30.8 23.78V11.42V5H35V24.26C35 30.2 29.72 35 23.24 35C16.76 35 11.48 30.2 11.48 24.26H7.16C5.96 24.26 5 23.3 5 22.1V13.58H7.16V7.16C7.16 5.96 8.12 5 9.32 5C10.52 5 11.48 5.96 11.48 7.16V13.58H15.74Z" fill="#0B2343"/>
</svg>
