<svg width="40" height="40" viewBox="0 0 40 40" fill="none" xmlns="http://www.w3.org/2000/svg">
<path d="M21.6501 7.81006C21.6501 8.81006 20.74 10.21 19.61 10.21C18.49 10.21 17.5701 8.81006 17.5701 7.81006C17.5701 6.81006 18.48 6 19.61 6C20.74 6 21.6501 6.81006 21.6501 7.81006Z" stroke="#0B2343" stroke-miterlimit="10" stroke-linecap="round" stroke-linejoin="round"/>
<path d="M12 21.65H27.23" stroke="#0B2343" stroke-miterlimit="10" stroke-linecap="round" stroke-linejoin="round"/>
<path d="M14 19.33L14.07 16.13C14.07 14.39 15.48 12.89 17.48 12.26C18.42 13.47 20.76 13.51 21.73 12.26C23.73 12.89 25.14 14.39 25.14 16.13L25.22 19.33" stroke="#0B2343" stroke-miterlimit="10" stroke-linecap="round" stroke-linejoin="round"/>
<path d="M22.35 34.64H16.77L14.39 21.65H24.73L22.35 34.64Z" stroke="#0B2343" stroke-miterlimit="10" stroke-linecap="round" stroke-linejoin="round"/>
<path d="M18.1899 21.65V17.54L19.8699 15.51" stroke="#0B2343" stroke-miterlimit="10" stroke-linecap="round" stroke-linejoin="round"/>
</svg>
