<svg width="40" height="40" viewBox="0 0 40 40" fill="none" xmlns="http://www.w3.org/2000/svg">
<path d="M30.98 10.77C30.98 10.34 30.6301 9.97998 30.1901 9.97998H10.85C10.42 9.97998 10.0601 10.33 10.0601 10.77V26.21C10.0601 26.64 10.41 27 10.85 27H30.1901C30.6201 27 30.98 26.65 30.98 26.21V10.77Z" stroke="#0B2343" stroke-miterlimit="10" stroke-linecap="round" stroke-linejoin="round"/>
<path d="M15.4601 17.4199C16.4901 17.4199 17.3301 16.58 17.3301 15.55C17.3301 14.52 16.4901 13.6799 15.4601 13.6799C14.4301 13.6799 13.5901 14.52 13.5901 15.55C13.5901 16.58 14.4301 17.4199 15.4601 17.4199Z" stroke="#0B2343" stroke-miterlimit="10" stroke-linecap="round" stroke-linejoin="round"/>
<path d="M14.9099 27L20.7999 16.95L23.65 20.8L27.3199 15.03L30.9799 20.29" stroke="#0B2343" stroke-miterlimit="10" stroke-linecap="round" stroke-linejoin="round"/>
<path d="M15.48 31.01H25.48" stroke="#0B2343" stroke-miterlimit="10" stroke-linecap="round" stroke-linejoin="round"/>
<path d="M34 35H7C6.45 35 6 34.55 6 34V7C6 6.45 6.45 6 7 6H34C34.55 6 35 6.45 35 7V34C35 34.55 34.55 35 34 35Z" stroke="#0B2343" stroke-miterlimit="10" stroke-linecap="round" stroke-linejoin="round"/>
</svg>
