<svg width="40" height="40" viewBox="0 0 40 40" fill="none" xmlns="http://www.w3.org/2000/svg">
<path d="M11.1957 19.201C10.9357 20.021 10.8057 20.891 10.8057 21.801C10.8057 22.791 10.9756 23.741 11.2756 24.621C10.7556 24.851 10.3856 25.381 10.3856 25.991C10.3856 26.821 11.0556 27.491 11.8856 27.491C11.8956 27.491 11.9056 27.491 11.9156 27.491C12.2256 31.431 16.7057 34.761 19.5457 34.761C22.4557 34.761 26.8657 31.431 27.1757 27.491C27.1857 27.491 27.1957 27.491 27.2057 27.491C28.0357 27.491 28.7057 26.821 28.7057 25.991C28.7057 25.381 28.3457 24.861 27.8157 24.621C28.1157 23.731 28.2856 22.791 28.2856 21.801C28.2856 20.911 28.1556 20.051 27.9056 19.231" stroke="#0B2343" stroke-linecap="round" stroke-linejoin="round"/>
<path d="M29.6158 14.461C31.4658 11.941 31.0257 11.611 31.0257 11.611C31.0257 11.611 26.8758 11.711 23.2558 8.55102C20.1958 5.87102 19.5357 6.00102 19.5357 6.00102C19.5357 6.00102 18.8857 5.87102 15.8157 8.55102C12.2057 11.711 8.04571 11.611 8.04571 11.611C8.04571 11.611 7.60574 11.941 9.45574 14.461C10.9857 16.551 11.0258 18.061 11.0058 18.421C11.0058 18.451 10.9958 18.481 10.9958 18.501C10.9958 20.121 14.8157 22.601 19.5257 22.601C24.2357 22.601 28.0557 20.121 28.0557 18.501C28.0557 18.471 28.0557 18.441 28.0457 18.421C28.0457 18.061 28.0858 16.551 29.6158 14.461Z" stroke="#0B2343" stroke-miterlimit="10" stroke-linecap="round" stroke-linejoin="round"/>
<path d="M11.0156 18.191C11.0156 18.191 19.2357 15.161 27.9857 18.191" stroke="#0B2343" stroke-miterlimit="10" stroke-linecap="round" stroke-linejoin="round"/>
<path d="M21.4257 10.5511C20.8957 10.7011 20.1457 10.4811 19.6257 9.73114C19.5657 9.65114 19.4357 9.65114 19.3757 9.73114C18.8557 10.4811 18.1057 10.7011 17.5757 10.5511C17.4757 10.5211 17.3757 10.5911 17.3757 10.7011V12.1411C17.3757 14.1511 19.4357 14.7411 19.4557 14.7411C19.4657 14.7411 19.4857 14.7511 19.4957 14.7511C19.5057 14.7511 19.5256 14.7511 19.5356 14.7411C19.5556 14.7311 21.6157 14.1511 21.6157 12.1411V10.7011C21.6257 10.6011 21.5257 10.5311 21.4257 10.5511Z" stroke="#0B2343" stroke-miterlimit="10" stroke-linecap="round" stroke-linejoin="round"/>
<path d="M13.6757 21.251L13.3357 25.211C13.3357 25.211 12.5156 24.081 11.2756 24.631" stroke="#0B2343" stroke-miterlimit="10" stroke-linecap="round" stroke-linejoin="round"/>
<path d="M25.4357 21.251L25.7756 25.211C25.7756 25.211 26.5957 24.081 27.8357 24.631" stroke="#0B2343" stroke-miterlimit="10" stroke-linecap="round" stroke-linejoin="round"/>
<path d="M18.6257 29.931H20.4557" stroke="#0B2343" stroke-miterlimit="3.864" stroke-linecap="round" stroke-linejoin="round"/>
</svg>
