<svg width="40" height="40" viewBox="0 0 40 40" fill="none" xmlns="http://www.w3.org/2000/svg">
<path d="M26.355 33.4398H13.0238L11 15.8938H28.3789L26.355 33.4398Z" stroke="#0B2343" stroke-miterlimit="10" stroke-linecap="round" stroke-linejoin="round"/>
<path d="M14.8063 13.9347C14.8063 14.8074 14.1006 15.5036 13.2373 15.5036C12.3646 15.5036 11.6684 14.7981 11.6684 13.9347C11.6684 13.0621 12.3739 12.3657 13.2373 12.3657" stroke="#0B2343" stroke-miterlimit="10" stroke-linecap="round" stroke-linejoin="round"/>
<path d="M19.8286 13.9348C19.8286 14.8075 19.1231 15.5037 18.2597 15.5037C17.3871 15.5037 16.6909 14.7982 16.6909 13.9348" stroke="#0B2343" stroke-miterlimit="10" stroke-linecap="round" stroke-linejoin="round"/>
<path d="M18.891 12.8486C18.6125 12.0316 19.0488 11.1311 19.8657 10.8526C20.6827 10.5741 21.5832 11.0105 21.8617 11.8274" stroke="#0B2343" stroke-miterlimit="10" stroke-linecap="round" stroke-linejoin="round"/>
<path d="M23.7278 11.2983C23.4492 10.4813 23.8855 9.58082 24.7025 9.30231C25.5194 9.0238 26.42 9.46006 26.6985 10.277" stroke="#0B2343" stroke-miterlimit="10" stroke-linecap="round" stroke-linejoin="round"/>
<path d="M26.095 12.3658C26.9584 12.338 27.6826 13.025 27.7105 13.8976C27.7383 14.761 27.0513 15.4851 26.188 15.513" stroke="#0B2343" stroke-miterlimit="10" stroke-linecap="round" stroke-linejoin="round"/>
<path d="M15.9574 12.3659C15.0848 12.3659 14.3884 11.6604 14.3884 10.797C14.3884 9.93364 15.094 9.22803 15.9574 9.22803C16.8301 9.22803 17.5263 9.93364 17.5263 10.797" stroke="#0B2343" stroke-miterlimit="10" stroke-linecap="round" stroke-linejoin="round"/>
<path d="M22.1774 15.8936C21.6576 15.1973 21.7969 14.2133 22.4932 13.6934C23.1894 13.1735 24.1735 13.3127 24.6934 14.009" stroke="#0B2343" stroke-miterlimit="10" stroke-linecap="round" stroke-linejoin="round"/>
<path d="M21.5369 9.2188C20.952 8.57823 20.9984 7.58487 21.639 7" stroke="#0B2343" stroke-miterlimit="10" stroke-linecap="round" stroke-linejoin="round"/>
<path d="M17.3963 7.95612C18.2504 7.78902 19.0767 8.34612 19.2438 9.20021" stroke="#0B2343" stroke-miterlimit="10" stroke-linecap="round" stroke-linejoin="round"/>
<path d="M19.6895 18.4468V33.4398" stroke="#0B2343" stroke-miterlimit="10" stroke-linecap="round" stroke-linejoin="round"/>
<path d="M23.8764 18.4468L22.985 33.4398" stroke="#0B2343" stroke-miterlimit="10" stroke-linecap="round" stroke-linejoin="round"/>
<path d="M15.5025 18.4468L16.3937 33.4398" stroke="#0B2343" stroke-miterlimit="10" stroke-linecap="round" stroke-linejoin="round"/>
</svg>
