<svg width="40" height="40" viewBox="0 0 40 40" fill="none" xmlns="http://www.w3.org/2000/svg">
<path d="M19.7801 24.2801L22.4401 24.2701C22.9901 25.7401 24.4101 26.7901 26.0801 26.7901C28.2301 26.7901 29.9801 25.0399 29.9901 22.8799C29.9901 20.7199 28.25 18.98 26.1 18.99C24.53 18.99 23.1801 19.9201 22.5601 21.2601L11.35 21.2801L10.79 22.6499L12.4401 24.18L14.16 23.18L16.0201 24.43L18.29 22.72L19.7801 24.2801Z" stroke="#0B2343" stroke-linecap="round" stroke-linejoin="round"/>
<path d="M26.83 23.8101C26.32 23.8101 25.9099 23.3999 25.9099 22.8899C25.9099 22.3799 26.32 21.97 26.83 21.97C27.34 21.97 27.7499 22.3799 27.7499 22.8899C27.7499 23.3899 27.33 23.8001 26.83 23.8101Z" stroke="#0B2343" stroke-linecap="round" stroke-linejoin="round"/>
<path d="M32.5 34H8.5C7.12 34 6 32.88 6 31.5V15.5C6 14.12 7.12 13 8.5 13H32.5C33.88 13 35 14.12 35 15.5V31.5C35 32.88 33.88 34 32.5 34Z" stroke="#0B2343" stroke-miterlimit="10" stroke-linecap="round" stroke-linejoin="round"/>
<path d="M26 10C26 7.79 24.21 6 22 6H19C16.79 6 15 7.79 15 10" stroke="#0B2343" stroke-miterlimit="10" stroke-linecap="round" stroke-linejoin="round"/>
</svg>
