<svg width="40" height="40" viewBox="0 0 40 40" fill="none" xmlns="http://www.w3.org/2000/svg">
<path d="M15.1443 19.6406C16.0143 19.6406 16.7143 18.9108 16.7143 18.0208C16.7143 17.1308 16.0143 16.4006 15.1443 16.4006C14.2743 16.4006 13.5643 17.1308 13.5643 18.0208C13.5643 18.9108 14.2743 19.6406 15.1443 19.6406Z" stroke="#0B2343" stroke-miterlimit="10" stroke-linecap="round" stroke-linejoin="round"/>
<path d="M14.6343 26.6506L20.6943 18.7207L23.2643 22.0208L26.5743 17.0806L30.6443 22.9307" stroke="#0B2343" stroke-miterlimit="10" stroke-linecap="round" stroke-linejoin="round"/>
<path d="M33.9143 14.2607C33.5343 13.6907 33.5943 12.9506 33.9543 12.3706C35.1543 10.4206 32.9743 8.08056 31.1543 9.37056C30.6143 9.75056 29.9243 9.8206 29.3943 9.4106C28.7243 8.9006 27.8343 8.88053 27.1543 9.34053C26.5743 9.73053 25.8543 9.73053 25.2643 9.34053C24.6243 8.90053 23.7743 8.89053 23.1143 9.34053C22.5343 9.73053 21.8143 9.73053 21.2243 9.34053C20.5843 8.90053 19.7343 8.89053 19.0743 9.34053C18.4943 9.73053 17.7743 9.73053 17.1843 9.34053C16.5443 8.90053 15.6943 8.89053 15.0343 9.34053C14.4543 9.73053 13.7343 9.73053 13.1443 9.34053C12.4643 8.88053 11.5743 8.8906 10.9043 9.4106C10.3743 9.8106 9.68431 9.75056 9.14431 9.37056C7.33431 8.09056 5.14432 10.4106 6.34432 12.3706C6.70432 12.9506 6.7643 13.6907 6.3843 14.2607C5.9143 14.9607 5.8843 15.9206 6.3243 16.6706C6.6943 17.2906 6.6943 18.0706 6.3243 18.6906C5.9143 19.3806 5.9043 20.2807 6.3243 21.0007C6.6943 21.6307 6.6943 22.4007 6.3243 23.0207C5.8943 23.7407 5.9043 24.7006 6.3843 25.4306C6.7643 26.0006 6.70432 26.7405 6.34432 27.3205C5.14432 29.2805 7.32431 31.6105 9.14431 30.3205C9.68431 29.9405 10.3743 29.8707 10.9043 30.2807C11.5743 30.7907 12.4643 30.8105 13.1443 30.3505C13.7243 29.9605 14.4443 29.9605 15.0343 30.3505C15.6743 30.7905 16.5243 30.8005 17.1843 30.3505C17.7643 29.9605 18.4843 29.9605 19.0743 30.3505C19.7143 30.7905 20.5643 30.8005 21.2243 30.3505C21.8043 29.9605 22.5243 29.9605 23.1143 30.3505C23.7543 30.7905 24.6043 30.8005 25.2643 30.3505C25.8443 29.9605 26.5643 29.9605 27.1543 30.3505C27.8343 30.8105 28.7243 30.8007 29.3943 30.2807C29.9243 29.8807 30.6143 29.9405 31.1543 30.3205C32.9643 31.6005 35.1543 29.2805 33.9543 27.3205C33.5943 26.7405 33.5343 26.0006 33.9143 25.4306C34.3743 24.7306 34.4143 23.7707 33.9743 23.0207C33.6043 22.3907 33.6043 21.6207 33.9743 21.0007C34.3843 20.3107 34.3943 19.4106 33.9743 18.6906C33.6043 18.0606 33.6043 17.2906 33.9743 16.6706C34.4043 15.9306 34.3843 14.9807 33.9143 14.2607Z" stroke="#0B2343" stroke-miterlimit="10" stroke-linecap="round" stroke-linejoin="round"/>
<path d="M30.6443 12.7007H9.63428V26.6506H30.6443V12.7007Z" stroke="#0B2343" stroke-miterlimit="10" stroke-linecap="round" stroke-linejoin="round"/>
</svg>
