<?xml version="1.0" encoding="utf-8"?>
<!-- Generator: Adobe Illustrator 26.3.1, SVG Export Plug-In . SVG Version: 6.00 Build 0)  -->
<svg version="1.1" id="Layer_1" xmlns="http://www.w3.org/2000/svg" xmlns:xlink="http://www.w3.org/1999/xlink" x="0px" y="0px"
	 viewBox="0 0 32 32" style="enable-background:new 0 0 32 32;" xml:space="preserve">
<style type="text/css">
	.st0{fill:#0B2343;}
	.st1{fill-rule:evenodd;clip-rule:evenodd;fill:#0B2343;}
</style>
<path class="st0" d="M23.8,31.5c-0.2,0-0.4-0.1-0.5-0.3l-4.4-8.1h-7.3c-0.2,0-1.8,0-2.6-0.7c-0.8-0.6-1-2-1-2.2l-1.3-8v-0.1
	c0.1-1.8,1.5-3.3,3.3-3.4c1.9-0.1,3.3,1.3,3.5,3.5l0.3,3.2l3.4,2.1c0.2,0.2,0.3,0.5,0.2,0.7c-0.2,0.2-0.5,0.3-0.7,0.2L13,16.1
	c-0.1-0.1-0.2-0.2-0.2-0.4l-0.3-3.4c-0.1-1.3-0.9-2.6-2.4-2.5c-1.2,0-2.1,1.1-2.2,2.3l1.3,8c0,0.5,0.2,1.2,0.6,1.5
	c0.4,0.3,1.4,0.4,1.9,0.4h7.7c0.3,0,0.5,0.2,0.5,0.4l4.5,8.2c0.1,0.3,0,0.6-0.2,0.7C23.9,31.5,23.8,31.5,23.8,31.5z"/>
<path class="st0" d="M17,26.4H7.6c-0.2,0-0.4-0.1-0.5-0.4l-4-11.4H1c-0.3,0-0.5-0.2-0.5-0.5c0-0.3,0.2-0.5,0.5-0.5h2.5
	c0.2,0,0.4,0.1,0.5,0.4l4,11.4h9c0.3,0,0.5,0.2,0.5,0.5C17.5,26.2,17.3,26.4,17,26.4z"/>
<path class="st1" d="M9.6,1C8.2,0.9,7.1,2,7,3.4l0,0C6.9,4.8,8,5.9,9.4,6h0c1.4,0.1,2.6-1,2.6-2.4C12.1,2.2,11,1.1,9.6,1z M6,3.3
	C6.1,1.4,7.7-0.1,9.7,0c1.9,0.1,3.4,1.7,3.3,3.6C12.9,5.6,11.3,7.1,9.3,7C7.4,6.9,5.9,5.3,6,3.3"/>
<path class="st0" d="M21.4,12.4c-0.2,0-0.3-0.1-0.5-0.2c-0.3-0.2-0.4-0.6-0.3-0.9l1-3.3l-2.7-2.1c-0.3-0.2-0.4-0.6-0.3-0.9
	s0.4-0.6,0.8-0.6l3.5-0.1L24,1.1c0.1-0.3,0.4-0.6,0.8-0.6c0.4,0,0.7,0.2,0.8,0.6l1.1,3.2l3.5,0.1c0.4,0,0.7,0.2,0.8,0.6
	c0.1,0.3,0,0.7-0.3,0.9L27.8,8l1,3.3c0.1,0.4,0,0.7-0.3,0.9s-0.7,0.2-1,0l-2.8-2l-2.8,2C21.7,12.3,21.6,12.4,21.4,12.4z M19.8,5.4
	l2.7,2c0.2,0.1,0.2,0.3,0.2,0.5l-1,3.2l2.8-1.9c0.2-0.1,0.4-0.1,0.6,0l2.8,1.9l-1-3.2c-0.1-0.2,0-0.4,0.2-0.5l2.7-2l-3.4-0.1
	c-0.2,0-0.4-0.1-0.5-0.3l-1.1-3.2L23.6,5c-0.1,0.2-0.3,0.3-0.5,0.3L19.8,5.4z"/>
</svg>
