<svg width="40" height="40" viewBox="0 0 40 40" fill="none" xmlns="http://www.w3.org/2000/svg">
<path d="M35 16.6C35 14.86 33.56 13.48 32 13.48H8C6.44 13.48 5 14.8 5 16.6C5 16.66 5 30.82 5 30.82C5 32.8 6.5 33.94 8 33.94H11.72V34H28.28V33.94H32C33.5 33.94 35 32.8 35 30.82C35 30.82 35 16.66 35 16.6ZM24.26 30.28L20 27.16L15.74 30.28L17.36 25.24L13.1 22.12H18.38L20 17.08L21.62 22.12H26.9L22.64 25.24L24.26 30.28ZM16.22 9.28H23.78V13.48H25.88V9.4C25.88 7.9 24.62 7 23 7H17C15.44 7 14.12 7.96 14.12 9.4V13.48H16.16V9.28H16.22Z" fill="#0B2343"/>
</svg>
