<svg width="40" height="40" viewBox="0 0 40 40" fill="none" xmlns="http://www.w3.org/2000/svg">
<path d="M34.0367 19.2136C34.0367 14.8588 30.4076 11.4112 25.6898 11.4112C23.5124 11.4112 21.6979 12.3184 20.2463 13.4071C20.2463 13.4071 20.2463 13.4071 20.2463 13.2257C20.2463 12.4999 20.0648 11.4112 19.7019 10.5039C19.1575 8.87082 18.0688 7.4192 16.9801 6.33048C16.2543 5.60467 14.9841 6.14903 14.9841 7.23775C14.9841 7.96356 15.8914 8.32646 16.2543 8.68937C17.7059 9.95954 18.7946 11.4112 19.1575 13.2257C19.1575 13.4071 19.1575 13.5886 19.1575 13.77C17.7059 12.3184 15.5285 11.4112 13.3511 11.4112C8.81475 11.4112 5.00424 14.8588 5.00424 19.2136C5.00424 19.2136 4.64134 26.8346 10.6293 33.004C12.8067 35 13.8954 35 14.4398 35C17.1616 35 17.7059 32.8226 19.5205 32.8226C21.335 32.8226 21.8793 35 24.6011 35C24.964 35 26.2342 35 28.4116 33.004C34.3996 26.8346 34.0367 19.2136 34.0367 19.2136ZM22.0608 24.6572L23.6939 29.375L19.7019 26.4717L15.7099 29.375L17.343 24.6572L13.3511 21.754L18.2503 21.9354L19.7019 17.2176L21.1535 21.9354L26.0527 21.754L22.0608 24.6572Z" fill="#0B2343"/>
</svg>
