<svg width="40" height="40" viewBox="0 0 40 40" fill="none" xmlns="http://www.w3.org/2000/svg">
<path d="M35 32.1875H5V35H35V32.1875Z" fill="#0B2343"/>
<path d="M20 9.6875L5 20V22.8125H35V20L20 9.6875Z" fill="#0B2343"/>
<path d="M12.5 29.375L16.25 27.5L20 29.375L23.75 27.5L27.5 29.375L31.25 27.5L35 29.375V27.5L31.25 25.625L27.5 27.5L23.75 25.625L20 27.5L16.25 25.625L12.5 27.5L8.75 25.625L5 27.5V29.375L8.75 27.5L12.5 29.375Z" fill="#0B2343"/>
<path d="M30.1249 12.125L26.9374 14.375L28.2499 10.8125L25.0624 8.5625H28.9999L30.1249 5L31.2499 8.5625H34.9999L31.8124 10.8125L33.1249 14.375L30.1249 12.125Z" fill="#0B2343"/>
</svg>
