<svg width="40" height="40" viewBox="0 0 40 40" fill="none" xmlns="http://www.w3.org/2000/svg">
<path d="M35 12.125C35 8.1875 32.9375 5 30.3125 5C27.6875 5 25.625 8.1875 25.625 12.125C25.625 14.375 26.1875 16.25 27.125 17.5625C27.125 17.5625 28.625 19.8125 28.625 21.6875V34.0625C28.625 34.625 29 35 29.375 35H31.25C31.625 35 32.1875 34.625 32.1875 34.0625V21.125C32.375 19.25 33.5 17.5625 33.5 17.5625C34.4375 16.25 35 14.375 35 12.125Z" fill="#0B2343"/>
<path d="M14 5H13.4375V14.1875C13.4375 14.375 13.25 14.5625 13.0625 14.5625H11.5625C11.375 14.5625 11.1875 14.375 11.1875 14.1875V5H9.3125V14.1875C9.3125 14.375 9.125 14.5625 8.9375 14.5625H7.4375C7.0625 14.75 6.875 14.5625 6.875 14.1875V5H6.3125C5.5625 5.375 5 5.9375 5 6.6875V15.125C5 15.6875 5.1875 16.25 5.5625 16.625C5.5625 16.625 8.1875 18.125 8.375 21.6875V34.0625C8.375 34.625 8.75 35 9.3125 35H11C11.375 35 11.9375 34.625 11.9375 34.0625V21.6875C12.125 18.6875 14.1875 17.1875 14.5625 16.625C15.125 16.25 15.3125 15.6875 15.3125 14.9375V6.6875C15.3125 5.9375 14.75 5.375 14 5Z" fill="#0B2343"/>
<path d="M20 29.1875L15.875 32.1875L17.5625 27.3125L13.4375 24.5H18.5L20 19.8125L21.5 24.5H26.5625L22.4375 27.3125L24.125 32.1875L20 29.1875Z" fill="#0B2343"/>
</svg>
