<?xml version="1.0" encoding="utf-8"?>
<!-- Generator: Adobe Illustrator 26.0.2, SVG Export Plug-In . SVG Version: 6.00 Build 0)  -->
<svg version="1.1" id="Layer_1" xmlns="http://www.w3.org/2000/svg" xmlns:xlink="http://www.w3.org/1999/xlink" x="0px" y="0px"
	 viewBox="0 0 58 59" style="enable-background:new 0 0 58 59;" xml:space="preserve">
<style type="text/css">
	.st0{fill:#EEECF6;}
	.st1{fill:none;stroke:#DFD9EF;stroke-width:1.14;}
	.st2{fill-rule:evenodd;clip-rule:evenodd;fill:#5F3FB1;}
	.st3{fill:#FBAF28;}
	.st4{fill-rule:evenodd;clip-rule:evenodd;fill:#FBAF28;}
	.st5{fill:#FFFFFF;}
	.st6{fill:#48A83E;}
	.st7{fill:none;stroke:#E5E5E5;stroke-width:0.644;}
</style>
<path class="st0" d="M28.5,0.6L28.5,0.6c15.4,0,27.9,12.5,27.9,27.9l0,0c0,15.4-12.5,27.9-27.9,27.9l0,0
	c-15.4,0-27.9-12.5-27.9-27.9l0,0C0.6,13.1,13.1,0.6,28.5,0.6z"/>
<path class="st1" d="M28.5,0.6L28.5,0.6c15.4,0,27.9,12.5,27.9,27.9l0,0c0,15.4-12.5,27.9-27.9,27.9l0,0
	c-15.4,0-27.9-12.5-27.9-27.9l0,0C0.6,13.1,13.1,0.6,28.5,0.6z"/>
<path class="st2" d="M20.9,15.4c-1.1,0-2.1,0.8-2.1,1.9v0c0,1.1,0.8,2.1,1.9,2.1h0c1.1,0,2.1-0.8,2.1-1.9
	C22.9,16.4,22,15.4,20.9,15.4z M17.9,17.3c0.1-1.6,1.4-2.8,3-2.7c1.6,0.1,2.8,1.4,2.7,3c-0.1,1.6-1.4,2.8-3,2.7
	C19.1,20.2,17.9,18.9,17.9,17.3"/>
<path class="st2" d="M24.9,22.9c0.5,0.5,0.8,1.3,1,2.1c0.3,0.7,0.8,1.5,1.2,2c0.2,0.3,0.4,0.5,0.6,0.7c0.1,0.1,0.1,0.1,0.2,0.2
	c0,0,0,0,0,0l3.2,2c0.2,0.1,0.2,0.4,0.1,0.5c-0.1,0.2-0.4,0.2-0.5,0.1l-3.2-2c0,0,0,0-0.1,0l0.3-0.3c-0.3,0.3-0.3,0.3-0.3,0.3l0,0
	l0,0l0,0c0,0,0,0-0.1-0.1c0,0-0.1-0.1-0.2-0.2c-0.2-0.2-0.4-0.4-0.6-0.7c-0.5-0.6-1-1.4-1.3-2.3c-0.3-0.8-0.5-1.4-0.9-1.8
	c-0.3-0.4-0.7-0.6-1.4-0.6c-1.1,0-2.1,1-2.1,2.2c0,0.1,0,0.3,0.2,0.7c0.1,0.3,0.3,0.7,0.4,1.1c0.4,0.8,0.9,1.9,1.4,2.8
	c0.5,1,1.1,1.9,1.5,2.7c0.2,0.4,0.4,0.7,0.6,0.9c0.1,0.1,0.1,0.2,0.2,0.3c0.1,0.1,0.1,0.1,0.1,0.1c0,0,0,0,0,0l0,0
	c0.2,0.2,0.6,0.3,1,0.3c0.2,0,0.4,0,0.5,0.1c0.1,0,0.1,0,0.2,0l0,0l0,0h6.9c0.2,0,0.3,0.1,0.4,0.2l5.9,7.4c0.1,0.2,0.1,0.4-0.1,0.6
	c-0.2,0.1-0.4,0.1-0.6-0.1l-5.8-7.3H27l0-0.4c0,0.4,0,0.4,0,0.4l0,0l0,0l0,0c0,0,0,0-0.1,0c0,0-0.1,0-0.2,0c-0.1,0-0.4,0-0.6-0.1
	c-0.4-0.1-1-0.2-1.4-0.5c-0.1-0.1-0.1-0.1-0.2-0.2c-0.1-0.1-0.1-0.2-0.2-0.3c-0.2-0.2-0.4-0.6-0.6-0.9c-0.5-0.7-1-1.7-1.6-2.7
	c-0.5-1-1.1-2-1.5-2.9c-0.2-0.4-0.4-0.8-0.5-1.2C20.1,25.6,20,25.2,20,25c0-1.7,1.3-2.9,2.8-3C23.7,22,24.4,22.3,24.9,22.9z
	 M24.8,34.2C24.8,34.2,24.8,34.2,24.8,34.2l0.2-0.3L24.8,34.2C24.8,34.2,24.8,34.2,24.8,34.2z"/>
<path class="st2" d="M15.4,26.7c0-0.2,0.2-0.4,0.4-0.4H18c0.1,0,0.3,0.1,0.4,0.2l5.4,10.3h8.2c0.2,0,0.4,0.2,0.4,0.4
	c0,0.2-0.2,0.4-0.4,0.4h-8.5c-0.1,0-0.3-0.1-0.4-0.2l-5.4-10.3h-2C15.5,27.1,15.4,27,15.4,26.7z"/>
<path class="st3" d="M41.2,25.3H32v-6.2l2.3,2.9l2.3-2.9l2.3,2.9l2.3-2.9V25.3z"/>
<path class="st4" d="M31.8,18.8c0.2-0.1,0.3,0,0.4,0.1l2,2.5l2-2.5c0.1-0.1,0.2-0.1,0.3-0.1s0.2,0.1,0.3,0.1l2,2.5l2-2.5
	c0.1-0.1,0.3-0.2,0.4-0.1c0.2,0.1,0.3,0.2,0.3,0.4v6.2c0,0.2-0.2,0.4-0.4,0.4H32c-0.2,0-0.4-0.2-0.4-0.4v-6.2
	C31.6,19,31.7,18.8,31.8,18.8z M32.4,20.3v4.6h8.5v-4.6l-1.6,2c-0.1,0.1-0.2,0.1-0.3,0.1c-0.1,0-0.2-0.1-0.3-0.1l-2-2.5l-2,2.5
	c-0.1,0.1-0.2,0.1-0.3,0.1c-0.1,0-0.2-0.1-0.3-0.1L32.4,20.3z"/>
<path class="st5" d="M46.5,35.8L46.5,35.8c6.2,0,11.2,5,11.2,11.2l0,0c0,6.2-5,11.2-11.2,11.2l0,0c-6.2,0-11.2-5-11.2-11.2l0,0
	C35.3,40.8,40.3,35.8,46.5,35.8z"/>
<path class="st6" d="M45.8,53H41V47h4.7V53z M45.8,44.2h-5.3v1.9h5.3V44.2z M47.2,53H52V47h-4.7V53z M47.2,44.2v1.9h5.3v-1.9H47.2z
	 M47.7,42.9h1.1c0.8,0,0.8-1,0.2-1C48.5,41.9,48.1,42.3,47.7,42.9z M49.2,41c1.8,0,1.8,2.6,0,2.6c-1.1,0-2.7,0-2.7,0
	C46.9,42.9,47.6,41,49.2,41z M44.2,41.9c-0.6,0-0.6,1,0.2,1h1.1C45,42.3,44.6,41.9,44.2,41.9z M43.9,41c1.6,0,2.3,1.8,2.7,2.6
	c0,0-1.6,0-2.7,0C42.1,43.7,42.1,41,43.9,41z"/>
<path class="st7" d="M46.5,35.8L46.5,35.8c6.2,0,11.2,5,11.2,11.2l0,0c0,6.2-5,11.2-11.2,11.2l0,0c-6.2,0-11.2-5-11.2-11.2l0,0
	C35.3,40.8,40.3,35.8,46.5,35.8z"/>
</svg>
