<svg viewBox="0 0 40 40" fill="none" xmlns="http://www.w3.org/2000/svg">
<path d="M6.77572 19.7484L8.45607 29.6632L17.6653 29.6561C19.4948 29.6561 19.6549 32.2473 17.6653 32.2473L5.9112 32.2545L4.0171 20.1934C3.98897 20.0098 3.99743 19.8224 4.04201 19.6422C4.08659 19.4619 4.1664 19.2924 4.2768 19.1433C4.38719 18.9943 4.52598 18.8687 4.6851 18.774C4.84422 18.6792 5.02051 18.6171 5.20373 18.5913V18.5913C5.5643 18.5405 5.93038 18.633 6.224 18.8492C6.51762 19.0653 6.71558 19.388 6.77572 19.7484V19.7484ZM12.583 6.00275C12.0819 5.98043 11.5855 6.10777 11.1565 6.36868C10.7275 6.62958 10.3852 7.01232 10.1729 7.46851C9.9606 7.92469 9.88783 8.43383 9.96378 8.93153C10.0397 9.42924 10.261 9.89316 10.5996 10.2646C10.9382 10.6361 11.3789 10.8984 11.866 11.0185C12.3532 11.1385 12.8648 11.1108 13.3363 10.9389C13.8077 10.7671 14.2178 10.4587 14.5147 10.0529C14.8116 9.64702 14.9819 9.16192 15.0041 8.6589C15.0339 7.98438 14.7956 7.32561 14.3415 6.82749C13.8875 6.32937 13.2549 6.03271 12.583 6.00275V6.00275ZM24.2385 34.0002C24.4099 34.0002 24.5791 33.9617 24.7338 33.8875C24.8885 33.8134 25.0247 33.7054 25.1324 33.5715C25.2401 33.4377 25.3167 33.2813 25.3564 33.1139C25.3961 32.9465 25.3981 32.7723 25.362 32.6041L23.8016 25.3168C23.6395 24.5596 23.2236 23.881 22.6235 23.3942C22.0233 22.9075 21.275 22.642 20.5034 22.642H17.1454C17.0234 22.642 16.905 22.5997 16.8104 22.5222C16.7158 22.4448 16.6507 22.3369 16.6262 22.2169L15.323 15.8489C15.1977 15.2501 14.871 14.7127 14.3978 14.3271C13.9245 13.9414 13.3335 13.731 12.7239 13.731V13.731C12.3362 13.731 11.9532 13.8163 11.6018 13.9807C11.2505 14.1452 10.9392 14.3849 10.6899 14.683C10.4407 14.9811 10.2595 15.3304 10.159 15.7063C10.0586 16.0822 10.0413 16.4756 10.1085 16.8589L11.592 25.3226C11.592 25.4375 11.6145 25.5512 11.6583 25.6574C11.7021 25.7635 11.7663 25.86 11.8472 25.9412C11.9281 26.0224 12.0242 26.0869 12.13 26.1308C12.2357 26.1748 12.349 26.1974 12.4635 26.1974H20.2788C20.6384 26.1974 20.9873 26.32 21.2685 26.545C21.5497 26.77 21.7465 27.0841 21.8267 27.436L23.1181 33.1038C23.1762 33.3584 23.3186 33.5858 23.5221 33.7487C23.7256 33.9115 23.9782 34.0002 24.2385 34.0002V34.0002Z" fill="#564293"/>
<path d="M33.6179 5.65127L29.2892 5.56026L27.8691 1.2767C27.7462 0.907766 27.2546 0.907766 27.1317 1.2767L25.7116 5.56026L21.383 5.65127C21.0143 5.66085 20.8595 6.15918 21.1554 6.39396L24.601 9.1298L23.3493 13.466C23.24 13.8397 23.6406 14.1464 23.9456 13.926L27.5004 11.3338L31.0553 13.926C31.3602 14.1464 31.7562 13.8397 31.6515 13.466L30.3998 9.1298L33.85 6.39396C34.1368 6.15918 33.9865 5.66085 33.6179 5.65127Z" fill="#E3B256"/>
</svg>
