<svg viewBox="0 0 40 40" fill="none" xmlns="http://www.w3.org/2000/svg">
<path d="M9.49492 7.59999C9.43492 8.96999 8.27493 10.03 6.90493 9.96999C5.53493 9.90999 4.47493 8.74999 4.53493 7.37999C4.59493 6.00999 5.75493 4.94999 7.12493 5.00999C8.49493 5.05999 9.56492 6.22999 9.49492 7.59999ZM30.9149 30.63C31.9149 30.63 32.4849 29.48 31.8649 28.69L27.3649 22.87C26.5749 21.85 25.3549 21.26 24.0749 21.26H21.7049C21.4549 21.26 21.2249 21.16 21.0449 20.99L13.2749 13.29C12.8049 12.82 12.1649 12.56 11.5049 12.56C9.31493 12.56 8.16492 15.16 9.64492 16.77L16.6149 24.4C16.8049 24.61 17.0849 24.73 17.3649 24.73H24.7249C25.3049 24.73 25.8549 24.99 26.2149 25.45L29.9749 30.18C30.2049 30.46 30.5449 30.63 30.9149 30.63ZM3.34493 17.28C2.20493 17.27 1.58493 18.6 2.31493 19.47L11.6849 30.64L22.6049 30.63C24.5549 30.63 24.3949 28.1 22.6049 28.1L13.5749 28.11L4.32494 17.73C4.07494 17.45 3.72493 17.28 3.34493 17.28ZM33.9849 34C33.9849 33.45 33.5349 33 32.9849 33H25.6049C25.0549 33 24.6049 33.45 24.6049 34C24.6049 34.55 25.0549 35 25.6049 35H32.9849C33.5349 35 33.9849 34.55 33.9849 34Z" fill="#53448F"/>
<path d="M36.269 12.5593H20V2L24.0674 6.92836L28.1348 2L32.2022 6.92836L36.269 2L36.269 12.5593Z" fill="#E3B256"/>
</svg>
