<svg viewBox="0 0 25 25" fill="none" xmlns="http://www.w3.org/2000/svg">
<path d="M8.36469 7.30122C8.33469 7.99122 7.7547 8.52122 7.0647 8.49122C6.3747 8.46122 5.8447 7.88122 5.8747 7.19122C5.9047 6.50122 6.48468 5.97121 7.17468 6.00121C7.86468 6.03121 8.39469 6.61122 8.36469 7.30122ZM16.5747 18.8112C17.0747 18.8112 17.3547 18.2312 17.0547 17.8412L14.8047 14.9312C14.4047 14.4212 13.8047 14.1212 13.1547 14.1212H11.8847C11.7747 14.1212 11.6847 14.0612 11.6247 13.9712L9.51471 10.4212C9.28471 10.0212 8.85471 9.77122 8.38471 9.77122C7.41471 9.77122 6.78469 10.7912 7.21469 11.6612L9.23471 15.5212C9.34471 15.7312 9.55471 15.8612 9.79471 15.8612H13.4647C13.7547 15.8612 14.0247 15.9912 14.2147 16.2212L16.0947 18.5912C16.2147 18.7312 16.3847 18.8112 16.5747 18.8112ZM4.36469 12.2312C4.03469 12.4112 3.90471 12.8312 4.07471 13.1612L6.95471 18.8212H12.4147C13.3947 18.8212 13.3147 17.5612 12.4147 17.5612H7.90469L5.32471 12.5312C5.14471 12.1712 4.71469 12.0412 4.36469 12.2312ZM18.0147 20.5012C18.0147 20.2212 17.7947 20.0012 17.5147 20.0012H13.9147C13.6347 20.0012 13.4147 20.2212 13.4147 20.5012C13.4147 20.7812 13.6347 21.0012 13.9147 21.0012H17.5147C17.7947 21.0012 18.0147 20.7812 18.0147 20.5012Z" fill="white"/>
<path d="M22.1345 8.27964H14V3L16.0337 5.46418L18.0674 3L20.1011 5.46418L22.1345 3L22.1345 8.27964Z" fill="#E3B256"/>
</svg>
