<svg viewBox="0 0 32 32" fill="none" xmlns="http://www.w3.org/2000/svg">
<path fill-rule="evenodd" clip-rule="evenodd" d="M6.67542 1.50198C5.43505 1.45065 4.3792 2.40854 4.32815 3.65062L4.32815 3.65076C4.27682 4.89112 5.23473 5.94698 6.47681 5.99802L6.47695 5.99803C7.71732 6.04936 8.77317 5.09147 8.82422 3.84939C8.87552 2.60096 7.90964 1.55305 6.67542 1.50198ZM3.329 3.60942C3.40316 1.80678 4.93325 0.429031 6.71676 0.502831C8.50646 0.576888 9.8972 2.0941 9.82337 3.89045C9.74929 5.69315 8.21916 7.07098 6.43561 6.99718L6.45628 6.4976L6.43575 6.99718C6.4357 6.99718 6.43566 6.99718 6.43561 6.99718C4.63303 6.92302 3.25528 5.39301 3.329 3.60956L3.82858 3.63009L3.329 3.60942Z" fill="#0B2343"/>
<path fill-rule="evenodd" clip-rule="evenodd" d="M10.9944 9.89533C11.5055 10.518 11.8435 11.3775 12.1454 12.2794C12.4206 13.1018 12.9639 13.9223 13.4588 14.553C13.7033 14.8646 13.9297 15.122 14.0945 15.301C14.1768 15.3904 14.2435 15.4599 14.2889 15.5065C14.3022 15.5201 14.3137 15.5318 14.3232 15.5414L17.7832 17.8004C18.0144 17.9513 18.0795 18.2611 17.9285 18.4924C17.7775 18.7236 17.4677 18.7887 17.2365 18.6377L13.7333 16.3505C13.7062 16.3328 13.6808 16.3124 13.6575 16.2897L14.0067 15.9318C13.6575 16.2897 13.6576 16.2898 13.6575 16.2897L13.6553 16.2875L13.6505 16.2828L13.6338 16.2662C13.6195 16.252 13.5991 16.2314 13.5733 16.205C13.5217 16.1521 13.4483 16.0756 13.3589 15.9784C13.1802 15.7843 12.936 15.5066 12.6721 15.1703C12.1503 14.5054 11.5258 13.579 11.1971 12.5968C10.895 11.6941 10.6038 10.9957 10.2215 10.5298C9.86808 10.0992 9.43714 9.8657 8.77399 9.89502C7.58403 9.94599 6.57422 10.9414 6.57422 12.3332C6.57422 12.4553 6.62028 12.6951 6.73909 13.0635C6.85328 13.4176 7.02001 13.8474 7.22666 14.3297C7.63957 15.2932 8.19981 16.4382 8.78354 17.5546C9.36685 18.6701 9.96975 19.7497 10.4659 20.5812C10.7142 20.9974 10.9334 21.3473 11.1083 21.6069C11.196 21.737 11.2697 21.84 11.3283 21.9155C11.3782 21.9799 11.4053 22.0086 11.4127 22.0165C11.415 22.0189 11.4154 22.0193 11.414 22.0182L11.4169 22.0206C11.6247 22.1932 12.0424 22.3185 12.4986 22.3899C12.7107 22.4231 12.9058 22.4411 13.048 22.4508C13.1187 22.4556 13.1756 22.4582 13.2141 22.4597C13.2333 22.4604 13.2478 22.4608 13.2571 22.4611L13.2663 22.4613H20.7513C20.9587 22.4613 21.1365 22.5875 21.2123 22.7673L27.6212 31.1453C27.789 31.3646 27.7472 31.6784 27.5279 31.8462C27.3086 32.014 26.9948 31.9722 26.827 31.7528L20.4841 23.4613H13.2549L13.2618 22.9613C13.2549 23.4612 13.255 23.4613 13.2549 23.4613L13.2524 23.4612L13.2477 23.4611L13.232 23.4607C13.2187 23.4604 13.1999 23.4599 13.1763 23.459C13.1291 23.4572 13.0622 23.454 12.9804 23.4485C12.8175 23.4375 12.5922 23.4168 12.3438 23.3779C11.8793 23.3051 11.2156 23.1526 10.7792 22.7909C10.6919 22.7191 10.608 22.6185 10.5381 22.5285C10.4608 22.4288 10.3735 22.3059 10.2791 22.1658C10.0899 21.8851 9.86038 21.518 9.60714 21.0936C9.10007 20.2437 8.48806 19.1476 7.89737 18.0179C7.30709 16.8891 6.73421 15.7193 6.3075 14.7235C6.09434 14.2261 5.91464 13.7651 5.78735 13.3704C5.66468 12.99 5.57422 12.6228 5.57422 12.3332C5.57422 10.4307 6.98083 8.97109 8.73016 8.89598C9.72782 8.85197 10.4544 9.23743 10.9944 9.89533Z" fill="#0B2343"/>
<path fill-rule="evenodd" clip-rule="evenodd" d="M0.5 14.3369C0.5 14.0608 0.723858 13.8369 1 13.8369H3.416C3.6054 13.8369 3.77855 13.9439 3.86323 14.1133L9.71468 25.8184H18.6367C18.9128 25.8184 19.1367 26.0423 19.1367 26.3184C19.1367 26.5946 18.9128 26.8184 18.6367 26.8184H9.40563C9.21623 26.8184 9.04309 26.7114 8.9584 26.542L3.10696 14.8369H1C0.723858 14.8369 0.5 14.6131 0.5 14.3369Z" fill="#0B2343"/>
<path fill-rule="evenodd" clip-rule="evenodd" d="M29.3025 5.59221L27.4027 3.25523H22.5863L20.6958 5.59056L25 9.78674L29.3025 5.59221ZM25 11.5398L31 5.69038L28 2H21.9875L19 5.69038L25 11.5398Z" fill="#0B2343"/>
</svg>
