<svg viewBox="0 0 25 25" fill="none" xmlns="http://www.w3.org/2000/svg">
<path d="M6.38743 12.8741L7.22761 17.8315L11.8322 17.8279C12.747 17.8279 12.827 19.1235 11.8322 19.1235L5.95517 19.1271L5.00812 13.0966C4.99406 13.0048 4.99829 12.9111 5.02058 12.821C5.04287 12.7308 5.08277 12.6461 5.13797 12.5715C5.19317 12.497 5.26256 12.4342 5.34212 12.3869C5.42168 12.3395 5.50983 12.3084 5.60144 12.2955V12.2955C5.78172 12.2701 5.96476 12.3164 6.11157 12.4245C6.25838 12.5325 6.35736 12.6939 6.38743 12.8741V12.8741ZM9.29107 6.00125C9.04052 5.99009 8.79231 6.05376 8.57781 6.18422C8.36332 6.31467 8.19217 6.50604 8.08602 6.73413C7.97987 6.96222 7.94349 7.21679 7.98146 7.46564C8.01944 7.7145 8.13007 7.94646 8.29937 8.13219C8.46867 8.31793 8.68903 8.44909 8.93259 8.50911C9.17615 8.56912 9.43197 8.55528 9.6677 8.46934C9.90343 8.38341 10.1085 8.22923 10.2569 8.02631C10.4054 7.82339 10.4905 7.58084 10.5016 7.32933C10.5165 6.99207 10.3974 6.66268 10.1703 6.41362C9.94331 6.16456 9.62703 6.01623 9.29107 6.00125V6.00125ZM15.1188 20C15.2045 20 15.2891 19.9807 15.3665 19.9436C15.4438 19.9066 15.5119 19.8526 15.5658 19.7856C15.6196 19.7187 15.6579 19.6405 15.6778 19.5568C15.6976 19.4731 15.6986 19.386 15.6806 19.3019L14.9004 15.6583C14.8193 15.2797 14.6114 14.9404 14.3113 14.697C14.0112 14.4536 13.6371 14.3209 13.2513 14.3209H11.5723C11.5113 14.3209 11.4521 14.2997 11.4048 14.261C11.3575 14.2223 11.3249 14.1683 11.3127 14.1083L10.6611 10.9243C10.5984 10.6249 10.4351 10.3562 10.1984 10.1634C9.96182 9.9706 9.66631 9.86537 9.36153 9.86539V9.86539C9.16768 9.86539 8.97618 9.90801 8.80049 9.99024C8.6248 10.0725 8.46917 10.1923 8.34454 10.3414C8.21991 10.4904 8.12931 10.6651 8.07908 10.853C8.02886 11.041 8.02025 11.2377 8.05384 11.4293L8.79557 15.6612C8.79557 15.7186 8.80684 15.7755 8.82873 15.8286C8.85063 15.8816 8.88272 15.9299 8.92318 15.9705C8.96365 16.0111 9.01168 16.0433 9.06455 16.0653C9.11742 16.0873 9.17408 16.0986 9.2313 16.0986H13.139C13.3188 16.0986 13.4932 16.1599 13.6338 16.2724C13.7744 16.3849 13.8728 16.5419 13.9129 16.7179L14.5586 19.5518C14.5877 19.6791 14.6589 19.7928 14.7606 19.8742C14.8624 19.9556 14.9887 20 15.1188 20V20Z" fill="white"/>
<path d="M20.7648 5.86232L18.1011 5.80632L17.2271 3.17028C17.1515 2.94324 16.849 2.94324 16.7734 3.17028L15.8995 5.80632L13.2357 5.86232C13.0088 5.86822 12.9136 6.17488 13.0956 6.31936L15.216 8.00296L14.4457 10.6714C14.3785 10.9014 14.625 11.0901 14.8127 10.9544L17.0003 9.35924L19.1879 10.9544C19.3755 11.0901 19.6192 10.9014 19.5548 10.6714L18.7845 8.00296L20.9077 6.31936C21.0842 6.17488 20.9917 5.86822 20.7648 5.86232Z" fill="#E3B256"/>
<path d="M20.7648 5.86232L18.1011 5.80632L17.2271 3.17028C17.1515 2.94324 16.849 2.94324 16.7734 3.17028L15.8995 5.80632L13.2357 5.86232C13.0088 5.86822 12.9136 6.17488 13.0956 6.31936L15.216 8.00296L14.4457 10.6714C14.3785 10.9014 14.625 11.0901 14.8127 10.9544L17.0003 9.35924L19.1879 10.9544C19.3755 11.0901 19.6192 10.9014 19.5548 10.6714L18.7845 8.00296L20.9077 6.31936C21.0842 6.17488 20.9917 5.86822 20.7648 5.86232Z" fill="#E3B256"/>
</svg>
