<svg width="37" height="31" viewBox="0 0 37 31" fill="none" xmlns="http://www.w3.org/2000/svg">
<path d="M26.955 0.629997C26.965 0.589997 26.965 0.54 26.965 0.5H29.585C29.585 0.54 29.585 0.589997 29.595 0.629997L30.785 5.12H25.765L26.955 0.629997ZM28.275 12.32L30.705 6.12H25.845L28.275 12.32ZM25.955 0.5H24.115L20.375 5.12H24.725L25.955 0.5ZM20.505 6.12L27.395 12.84L24.765 6.12H20.505ZM36.165 5.12L32.425 0.5H30.585L31.815 5.12H36.165ZM29.145 12.84L36.035 6.12H31.775L29.145 12.84Z" fill="#E3B256"/>
<path d="M7.49492 3.09999C7.43492 4.46999 6.27493 5.52999 4.90493 5.46999C3.53493 5.40999 2.47493 4.24999 2.53493 2.87999C2.59493 1.50999 3.75493 0.449995 5.12493 0.509995C6.49493 0.559995 7.56492 1.72999 7.49492 3.09999ZM28.9149 26.13C29.9149 26.13 30.4849 24.98 29.8649 24.19L25.3649 18.37C24.5749 17.35 23.3549 16.76 22.0749 16.76H19.7049C19.4549 16.76 19.2249 16.66 19.0449 16.49L11.2749 8.78999C10.8049 8.31999 10.1649 8.05999 9.50493 8.05999C7.31493 8.05999 6.16492 10.66 7.64492 12.27L14.6149 19.9C14.8049 20.11 15.0849 20.23 15.3649 20.23H22.7249C23.3049 20.23 23.8549 20.49 24.2149 20.95L27.9749 25.68C28.2049 25.96 28.5449 26.13 28.9149 26.13ZM1.34493 12.78C0.204928 12.77 -0.415071 14.1 0.314929 14.97L9.68492 26.14L20.6049 26.13C22.5549 26.13 22.3949 23.6 20.6049 23.6L11.5749 23.61L2.32494 13.23C2.07494 12.95 1.72493 12.78 1.34493 12.78ZM31.9849 29.5C31.9849 28.95 31.5349 28.5 30.9849 28.5H23.6049C23.0549 28.5 22.6049 28.95 22.6049 29.5C22.6049 30.05 23.0549 30.5 23.6049 30.5H30.9849C31.5349 30.5 31.9849 30.05 31.9849 29.5Z" fill="#5F3FB1"/>
</svg>
