<svg width="20" height="20" viewBox="0 0 20 20" fill="none" xmlns="http://www.w3.org/2000/svg">
<g clip-path="url(#clip0_2_6961)">
<path d="M8 16V18" stroke="#53448F" stroke-linecap="round"/>
<path d="M17 16V18" stroke="#53448F" stroke-linecap="round"/>
<path d="M8 17H17" stroke="#53448F" stroke-linecap="round"/>
<path d="M4.49177 5.04097C4.46777 5.59297 4.00378 6.01698 3.45178 5.99298C2.89978 5.96898 2.47578 5.50497 2.49978 4.95297C2.52378 4.40097 2.98777 3.97697 3.53977 4.00097C4.09177 4.02497 4.51577 4.48897 4.49177 5.04097ZM11.0598 14.249C11.4598 14.249 11.6838 13.785 11.4438 13.473L9.64377 11.145C9.32377 10.737 8.84377 10.497 8.32377 10.497H7.30776C7.21976 10.497 7.14777 10.449 7.09977 10.377L5.41176 7.53697C5.22776 7.21697 4.88376 7.01697 4.50776 7.01697C3.73176 7.01697 3.22777 7.83297 3.57177 8.52897L5.18776 11.617C5.27576 11.785 5.44376 11.889 5.63576 11.889H8.57177C8.80377 11.889 9.01977 11.993 9.17177 12.177L10.6758 14.073C10.7718 14.185 10.9158 14.249 11.0598 14.249ZM1.29177 8.98497C1.02777 9.12897 0.923761 9.46497 1.05976 9.72897L3.36376 14.257H7.73176C8.51576 14.257 8.45176 13.249 7.73176 13.249H4.12377L2.05976 9.22497C1.91576 8.93697 1.57177 8.83297 1.29177 8.98497Z" fill="#53448F"/>
<path d="M18.4918 5.04097C18.4678 5.59297 18.0038 6.01698 17.4518 5.99298C16.8998 5.96898 16.4758 5.50497 16.4998 4.95297C16.5238 4.40097 16.9878 3.97697 17.5398 4.00097C18.0918 4.02497 18.5158 4.48897 18.4918 5.04097ZM25.0598 14.249C25.4598 14.249 25.6838 13.785 25.4438 13.473L23.6438 11.145C23.3238 10.737 22.8438 10.497 22.3238 10.497H21.3078C21.2198 10.497 21.1478 10.449 21.0998 10.377L19.4118 7.53697C19.2278 7.21697 18.8838 7.01697 18.5078 7.01697C17.7318 7.01697 17.2278 7.83297 17.5718 8.52897L19.1878 11.617C19.2758 11.785 19.4438 11.889 19.6358 11.889H22.5718C22.8038 11.889 23.0198 11.993 23.1718 12.177L24.6758 14.073C24.7718 14.185 24.9158 14.249 25.0598 14.249ZM15.2918 8.98497C15.0278 9.12897 14.9238 9.46497 15.0598 9.72897L17.3638 14.257H21.7318C22.5158 14.257 22.4518 13.249 21.7318 13.249H18.1238L16.0598 9.22497C15.9158 8.93697 15.5718 8.83297 15.2918 8.98497ZM29.4 15.601C29.4 15.377 29.224 15.201 29 15.201H22.5718C22.3478 15.201 22.1718 15.377 22.1718 15.601C22.1718 15.825 22.3478 16.001 22.5718 16.001H29C29.224 16.001 29.4 15.825 29.4 15.601Z" fill="#53448F"/>
</g>
<defs>
<clipPath id="clip0_2_6961">
<rect width="20" height="20" fill="white"/>
</clipPath>
</defs>
</svg>
