<svg width="40" height="40" viewBox="0 0 40 40" fill="none" xmlns="http://www.w3.org/2000/svg">
<path d="M31.1 34.69V24.3199" stroke="#0B2343" stroke-miterlimit="10" stroke-linecap="round" stroke-linejoin="round"/>
<path d="M32.7899 9.12003C32.7899 10.07 32.0299 11.4 31.0999 11.4C30.1699 11.4 29.4099 10.07 29.4099 9.12003C29.4099 8.17003 30.1699 7.40002 31.0999 7.40002C32.0299 7.40002 32.7899 8.17003 32.7899 9.12003Z" stroke="#0B2343" stroke-miterlimit="10" stroke-linecap="round" stroke-linejoin="round"/>
<path d="M33.2899 34.69L33.9599 22.43C33.9699 22.18 34.75 22.5 34.76 22.27C35.08 13.6 34.3699 13.05 34.2899 12.98C34.1999 12.95 33.42 12.93 33.19 12.92C32.88 12.9 32.6099 13.09 32.4699 13.38C31.9599 14.39 30.25 14.39 29.74 13.38C29.6 13.1 29.3299 12.9 29.0199 12.92C28.8199 12.93 23.4599 13.81 21.7799 14.1C21.0799 14.22 21.1199 15.25 21.8299 15.32L28.26 15.92V22.44L28.93 34.7" stroke="#0B2343" stroke-miterlimit="10" stroke-linecap="round" stroke-linejoin="round"/>
<path d="M24.98 28.98H6V7.89001H25.98" stroke="#0B2343" stroke-linecap="round" stroke-linejoin="round"/>
<path d="M21 31.04V34.9" stroke="#0B2343" stroke-linecap="round" stroke-linejoin="round"/>
<path d="M16.98 34.9H23.91" stroke="#0B2343" stroke-linecap="round" stroke-linejoin="round"/>
<path d="M16.98 6V7.89" stroke="#0B2343" stroke-linecap="round" stroke-linejoin="round"/>
<path d="M24.98 6V7.89" stroke="#0B2343" stroke-linecap="round" stroke-linejoin="round"/>
<path d="M14.98 10.91H9.97998V15.91H14.98V10.91Z" stroke="#0B2343" stroke-linecap="round" stroke-linejoin="round"/>
<path d="M18.02 11.91H24.02" stroke="#0B2343" stroke-linecap="round" stroke-linejoin="round"/>
<path d="M18.02 13.91H18.9401" stroke="#0B2343" stroke-linecap="round" stroke-linejoin="round"/>
<path d="M14.98 19.91H9.97998V24.91H14.98V19.91Z" stroke="#0B2343" stroke-linecap="round" stroke-linejoin="round"/>
<path d="M18.02 20.91H24.02" stroke="#0B2343" stroke-linecap="round" stroke-linejoin="round"/>
<path d="M18.02 22.91H21.02" stroke="#0B2343" stroke-linecap="round" stroke-linejoin="round"/>
</svg>
