<svg width="40" height="40" viewBox="0 0 40 40" fill="none" xmlns="http://www.w3.org/2000/svg">
<path d="M31.08 34.69V24.3199" stroke="#0B2343" stroke-miterlimit="10" stroke-linecap="round" stroke-linejoin="round"/>
<path d="M32.77 9.12003C32.77 10.07 32.01 11.4 31.08 11.4C30.15 11.4 29.39 10.07 29.39 9.12003C29.39 8.17003 30.15 7.40002 31.08 7.40002C32.01 7.40002 32.77 8.17003 32.77 9.12003Z" stroke="#0B2343" stroke-miterlimit="10" stroke-linecap="round" stroke-linejoin="round"/>
<path d="M33.27 34.69L33.94 22.43C33.95 22.18 34.7301 22.5 34.7401 22.27C35.0601 13.6 34.35 13.05 34.27 12.98C34.18 12.95 33.4001 12.93 33.1701 12.92C32.8601 12.9 32.59 13.09 32.45 13.38C31.94 14.39 30.2301 14.39 29.7201 13.38C29.5801 13.1 29.31 12.9 29 12.92C28.8 12.93 23.44 13.81 21.76 14.1C21.06 14.22 21.1 15.25 21.81 15.32L28.2401 15.92V22.44L28.9101 34.7" stroke="#0B2343" stroke-miterlimit="10" stroke-linecap="round" stroke-linejoin="round"/>
<path d="M24.96 28.88H6V7.89001H25.96" stroke="#0B2343" stroke-linecap="round" stroke-linejoin="round"/>
<path d="M10.4 19.07C9.73002 19.07 9.18005 18.52 9.18005 17.85C9.18005 17.17 9.73002 16.63 10.4 16.63C11.08 16.63 11.62 17.18 11.62 17.85C11.62 18.52 11.08 19.07 10.4 19.07Z" stroke="#0B2343" stroke-miterlimit="10" stroke-linecap="round" stroke-linejoin="round"/>
<path d="M16.67 14.7501C16 14.7501 15.45 14.2001 15.45 13.5301C15.45 12.8501 16 12.3101 16.67 12.3101C17.35 12.3101 17.89 12.8601 17.89 13.5301C17.89 14.2001 17.34 14.7501 16.67 14.7501Z" stroke="#0B2343" stroke-miterlimit="10" stroke-linecap="round" stroke-linejoin="round"/>
<path d="M21.84 24.5199C21.17 24.5199 20.62 23.9699 20.62 23.2999C20.62 22.6199 21.17 22.08 21.84 22.08C22.52 22.08 23.06 22.6299 23.06 23.2999C23.07 23.9699 22.52 24.5199 21.84 24.5199Z" stroke="#0B2343" stroke-miterlimit="10" stroke-linecap="round" stroke-linejoin="round"/>
<path d="M15.44 14.21L11.4301 17.19" stroke="#0B2343" stroke-miterlimit="10" stroke-linecap="round" stroke-linejoin="round"/>
<path d="M17.33 14.55L21.1801 22.2701" stroke="#0B2343" stroke-miterlimit="10" stroke-linecap="round" stroke-linejoin="round"/>
<path d="M20.98 31.04V34.9" stroke="#0B2343" stroke-linecap="round" stroke-linejoin="round"/>
<path d="M16.96 34.9H23.89" stroke="#0B2343" stroke-linecap="round" stroke-linejoin="round"/>
<path d="M16.96 6V7.89" stroke="#0B2343" stroke-linecap="round" stroke-linejoin="round"/>
<path d="M24.96 6V7.89" stroke="#0B2343" stroke-linecap="round" stroke-linejoin="round"/>
</svg>
