<svg width="40" height="40" viewBox="0 0 40 40" fill="none" xmlns="http://www.w3.org/2000/svg">
<path d="M14.9601 30.1801L14.0801 34.0801" stroke="#0B2343" stroke-linecap="round" stroke-linejoin="round"/>
<path d="M26.0801 30.1801L26.9601 34.0801" stroke="#0B2343" stroke-linecap="round" stroke-linejoin="round"/>
<path d="M10.86 17.83C10.26 17.83 9.77002 17.34 9.77002 16.74C9.77002 16.14 10.26 15.65 10.86 15.65C11.46 15.65 11.95 16.14 11.95 16.74C11.95 17.34 11.46 17.83 10.86 17.83Z" stroke="#0B2343" stroke-miterlimit="10" stroke-linecap="round" stroke-linejoin="round"/>
<path d="M17.28 13.7499C16.68 13.7499 16.1899 13.2599 16.1899 12.6599C16.1899 12.0599 16.68 11.5699 17.28 11.5699C17.88 11.5699 18.3699 12.0599 18.3699 12.6599C18.3699 13.2599 17.88 13.7499 17.28 13.7499Z" stroke="#0B2343" stroke-miterlimit="10" stroke-linecap="round" stroke-linejoin="round"/>
<path d="M23.7 23.67C23.1 23.67 22.61 23.18 22.61 22.58C22.61 21.98 23.1 21.49 23.7 21.49C24.3 21.49 24.79 21.98 24.79 22.58C24.79 23.18 24.3 23.67 23.7 23.67Z" stroke="#0B2343" stroke-miterlimit="10" stroke-linecap="round" stroke-linejoin="round"/>
<path d="M30.12 16.67C29.52 16.67 29.03 16.18 29.03 15.58C29.03 14.98 29.52 14.49 30.12 14.49C30.72 14.49 31.21 14.98 31.21 15.58C31.21 16.18 30.72 16.67 30.12 16.67Z" stroke="#0B2343" stroke-miterlimit="10" stroke-linecap="round" stroke-linejoin="round"/>
<path d="M16.37 13.26L11.78 16.16" stroke="#0B2343" stroke-miterlimit="10" stroke-linecap="round" stroke-linejoin="round"/>
<path d="M17.87 13.5699L23.11 21.6599" stroke="#0B2343" stroke-miterlimit="10" stroke-linecap="round" stroke-linejoin="round"/>
<path d="M24.4299 21.78L29.3599 16.4" stroke="#0B2343" stroke-miterlimit="10" stroke-linecap="round" stroke-linejoin="round"/>
<path d="M35 8.08997H6V28.09H35V8.08997Z" stroke="#0B2343" stroke-linecap="round" stroke-linejoin="round"/>
<path d="M25 6V8" stroke="#0B2343" stroke-linecap="round" stroke-linejoin="round"/>
<path d="M16 6V8" stroke="#0B2343" stroke-linecap="round" stroke-linejoin="round"/>
</svg>
