<svg width="40" height="40" viewBox="0 0 40 40" fill="none" xmlns="http://www.w3.org/2000/svg">
<path d="M20.41 16.7701C20.31 16.7701 15.98 18.97 15.98 18.97L17.05 14.3201C17.19 13.2001 11.66 13.7601 11.12 18.2701C10.76 21.2501 13.08 23.9001 16.11 23.9001C19.65 23.9001 22.09 20.3101 20.77 17.0001C20.71 16.8701 20.57 16.7701 20.41 16.7701Z" stroke="#0B2343" stroke-linecap="round" stroke-linejoin="round"/>
<path d="M21.9501 14.17C21.1801 12.36 18.98 11.72 18.92 12.21C18.9 12.39 18.4401 15.59 18.5901 15.7C18.7201 15.79 21.9001 14.46 21.9601 14.32C21.9701 14.27 21.9701 14.21 21.9501 14.17Z" stroke="#0B2343" stroke-linecap="round" stroke-linejoin="round"/>
<path d="M14.9601 30.1801L14.0801 34.0801" stroke="#0B2343" stroke-linecap="round" stroke-linejoin="round"/>
<path d="M26.0801 30.1801L26.9601 34.0801" stroke="#0B2343" stroke-linecap="round" stroke-linejoin="round"/>
<path d="M35 8.08997H6V28.09H35V8.08997Z" stroke="#0B2343" stroke-linecap="round" stroke-linejoin="round"/>
<path d="M25 6V8" stroke="#0B2343" stroke-linecap="round" stroke-linejoin="round"/>
<path d="M16 6V8" stroke="#0B2343" stroke-linecap="round" stroke-linejoin="round"/>
<path d="M25 14.1H29.99" stroke="#0B2343" stroke-linecap="round" stroke-linejoin="round"/>
<path d="M25 18.1H29.99" stroke="#0B2343" stroke-linecap="round" stroke-linejoin="round"/>
<path d="M25 22.1H29.99" stroke="#0B2343" stroke-linecap="round" stroke-linejoin="round"/>
</svg>
