<svg width="40" height="40" viewBox="0 0 40 40" fill="none" xmlns="http://www.w3.org/2000/svg">
<path d="M21.84 11.1L15.25 17.69" stroke="#0B2343" stroke-miterlimit="10" stroke-linecap="round" stroke-linejoin="round"/>
<path d="M18.63 11.09H21.95V14.4" stroke="#0B2343" stroke-miterlimit="10" stroke-linecap="round" stroke-linejoin="round"/>
<path d="M14.9601 30.1801L14.0801 34.0801" stroke="#0B2343" stroke-linecap="round" stroke-linejoin="round"/>
<path d="M26.0801 30.1801L26.9601 34.0801" stroke="#0B2343" stroke-linecap="round" stroke-linejoin="round"/>
<path d="M35 8.08997H6V28.09H35V8.08997Z" stroke="#0B2343" stroke-linecap="round" stroke-linejoin="round"/>
<path d="M25 6V8" stroke="#0B2343" stroke-linecap="round" stroke-linejoin="round"/>
<path d="M16 6V8" stroke="#0B2343" stroke-linecap="round" stroke-linejoin="round"/>
<path d="M29 24.09H27C26.45 24.09 26 23.64 26 23.09V15.09C26 14.54 26.45 14.09 27 14.09H29C29.55 14.09 30 14.54 30 15.09V23.09C30 23.64 29.55 24.09 29 24.09Z" stroke="#0B2343" stroke-miterlimit="10" stroke-linecap="round" stroke-linejoin="round"/>
<path d="M22 24.09H20C19.45 24.09 19 23.64 19 23.09V19.09C19 18.54 19.45 18.09 20 18.09H22C22.55 18.09 23 18.54 23 19.09V23.09C23 23.64 22.55 24.09 22 24.09Z" stroke="#0B2343" stroke-miterlimit="10" stroke-linecap="round" stroke-linejoin="round"/>
<path d="M15 24.09H13C12.45 24.09 12 23.64 12 23.09V22.09C12 21.54 12.45 21.09 13 21.09H15C15.55 21.09 16 21.54 16 22.09V23.09C16 23.64 15.55 24.09 15 24.09Z" stroke="#0B2343" stroke-miterlimit="10" stroke-linecap="round" stroke-linejoin="round"/>
</svg>
