<svg width="30" height="30" viewBox="0 0 30 30" fill="none" xmlns="http://www.w3.org/2000/svg">
<path d="M27.55 14.5C27.55 21.7056 21.7056 27.55 14.5 27.55C7.29433 27.55 1.44995 21.7056 1.44995 14.5C1.44995 7.29435 7.29433 1.44995 14.5 1.44995C21.7056 1.44995 27.55 7.29435 27.55 14.5Z" stroke="#007CC2" stroke-miterlimit="10" stroke-linecap="round" stroke-linejoin="round"/>
<path d="M10.9443 18.808C11.9819 19.7067 13.5832 20.3848 14.7351 20.3848C16.5815 20.3848 18.0766 19.0776 18.0766 17.46C18.0766 15.8424 16.4753 15.0499 14.7351 14.5352C12.9296 13.9715 11.3937 13.2281 11.3937 11.6105C11.3937 9.99284 12.8887 8.68567 14.7351 8.68567C15.9769 8.68567 17.0635 9.28208 17.6435 10.1562" stroke="#007CC2" stroke-miterlimit="10" stroke-linecap="round" stroke-linejoin="round"/>
<path d="M14.7351 7.09265V21.9861" stroke="#007CC2" stroke-miterlimit="10" stroke-linecap="round" stroke-linejoin="round"/>
<path d="M28.9244 26.2575L23.7794 17.2125C23.2394 16.2625 21.8644 16.2625 21.3244 17.2125L16.1844 26.2575C15.6544 27.1925 16.3294 28.3625 17.4094 28.3625C20.0549 28.3625 24.1677 28.3625 27.6944 28.3625C28.7744 28.3625 29.4594 27.1975 28.9244 26.2575Z" fill="#FBAF28"/>
<path d="M22.5544 19.6775V23.9975" stroke="#0B2343" stroke-miterlimit="10" stroke-linecap="round" stroke-linejoin="round"/>
<path d="M22.5544 25.7825V25.8925" stroke="#0B2343" stroke-miterlimit="10" stroke-linecap="round" stroke-linejoin="round"/>
</svg>
