<svg width="25" height="25" viewBox="0 0 25 25" fill="none" xmlns="http://www.w3.org/2000/svg">
<path d="M17.1875 13.2812H7.8125C7.38103 13.2812 7.03125 13.631 7.03125 14.0625V20.3125C7.03125 20.744 7.38103 21.0938 7.8125 21.0938H17.1875C17.619 21.0938 17.9688 20.744 17.9688 20.3125V14.0625C17.9688 13.631 17.619 13.2812 17.1875 13.2812Z" fill="#0B2343"/>
<path d="M17.9688 4.6875V3.125C17.9688 2.9178 17.8864 2.71909 17.7399 2.57257C17.5934 2.42606 17.3947 2.34375 17.1875 2.34375H7.8125C7.6053 2.34375 7.40659 2.42606 7.26007 2.57257C7.11356 2.71909 7.03125 2.9178 7.03125 3.125V4.6875H17.9688Z" fill="#0B2343"/>
<path d="M21.0938 6.25H3.90625C3.28465 6.25 2.68851 6.49693 2.24897 6.93647C1.80943 7.37601 1.5625 7.97215 1.5625 8.59375V15.625C1.5625 16.2466 1.80943 16.8427 2.24897 17.2823C2.68851 17.7218 3.28465 17.9688 3.90625 17.9688H5.46875V12.5C5.46875 12.2928 5.55106 12.0941 5.69757 11.9476C5.84409 11.8011 6.0428 11.7188 6.25 11.7188H18.75C18.9572 11.7188 19.1559 11.8011 19.3024 11.9476C19.4489 12.0941 19.5312 12.2928 19.5312 12.5V17.9688H21.0938C21.7154 17.9688 22.3115 17.7218 22.751 17.2823C23.1906 16.8427 23.4375 16.2466 23.4375 15.625V8.59375C23.4375 7.97215 23.1906 7.37601 22.751 6.93647C22.3115 6.49693 21.7154 6.25 21.0938 6.25ZM19.5312 10.9375H17.9688C17.7615 10.9375 17.5628 10.8552 17.4163 10.7087C17.2698 10.5622 17.1875 10.3635 17.1875 10.1562C17.1875 9.94905 17.2698 9.75034 17.4163 9.60382C17.5628 9.45731 17.7615 9.375 17.9688 9.375H19.5312C19.7385 9.375 19.9372 9.45731 20.0837 9.60382C20.2302 9.75034 20.3125 9.94905 20.3125 10.1562C20.3125 10.3635 20.2302 10.5622 20.0837 10.7087C19.9372 10.8552 19.7385 10.9375 19.5312 10.9375Z" fill="#0B2343"/>
</svg>
