<?xml version="1.0" encoding="utf-8"?>
<!-- Generator: Adobe Illustrator 19.1.0, SVG Export Plug-In . SVG Version: 6.00 Build 0)  -->
<svg version="1.1" id="Layer_1" xmlns="http://www.w3.org/2000/svg" xmlns:xlink="http://www.w3.org/1999/xlink" x="0px" y="0px"
	 viewBox="0 0 50 50" enable-background="new 0 0 50 50" xml:space="preserve">
<g>
	<path fill="#231F20" d="M19.1,43.8h13.2c0.7,0,1.2-0.6,1.2-1.2c0-0.7-0.6-1.2-1.2-1.2H19.1c-0.7,0-1.2,0.6-1.2,1.2
		C17.9,43.2,18.4,43.8,19.1,43.8z"/>
	<path fill="#231F20" d="M19.1,38.8h13.2c0.7,0,1.2-0.6,1.2-1.2c0-0.7-0.6-1.2-1.2-1.2H19.1c-0.7,0-1.2,0.6-1.2,1.2
		C17.9,38.3,18.4,38.8,19.1,38.8z"/>
	<path fill="#231F20" d="M44.7,6.6h-6.4c-0.1-0.1-0.1-0.2-0.2-0.3l-4.5-5.6c-0.4-0.4-1-0.7-1.6-0.7H15.3C14,0,13,1,13,2.3v4.3H5.3
		C2.4,6.6,0,9,0,12v14.6c0,3,2.4,5.4,5.3,5.4h39.4c2.9,0,5.3-2.4,5.3-5.4V12C50,9,47.6,6.6,44.7,6.6z M15.4,2.5h16.4l4.3,5.3v6.9
		H15.4V2.5z M47.5,26.6c0,1.6-1.3,2.9-2.8,2.9H5.3c-1.6,0-2.8-1.3-2.8-2.9V12C2.5,10.4,3.7,9,5.3,9H13V16c0,0.7,0.6,1.2,1.2,1.2
		h23.1c0.7,0,1.2-0.6,1.2-1.2V9h6.1c1.6,0,2.8,1.3,2.8,2.9V26.6z"/>
	<path fill="#231F20" d="M37.4,33.1c-0.7,0-1.2,0.6-1.2,1.2v13.2H15.4V34.4c0-0.7-0.6-1.2-1.2-1.2c-0.7,0-1.2,0.6-1.2,1.2v13.3
		c0,1.3,1,2.3,2.2,2.3h21.1c1.2,0,2.2-1,2.2-2.3V34.4C38.6,33.7,38,33.1,37.4,33.1z"/>
	<path fill="#231F20" d="M41.2,23.3c-0.2,0.2-0.4,0.5-0.4,0.9c0,0.3,0.1,0.7,0.4,0.9c0.2,0.2,0.5,0.4,0.9,0.4c0.3,0,0.6-0.1,0.9-0.4
		c0.2-0.2,0.4-0.5,0.4-0.9c0-0.3-0.1-0.6-0.4-0.9C42.5,22.9,41.7,22.9,41.2,23.3z"/>
</g>
</svg>
