<svg width="25" height="25" viewBox="0 0 25 25" fill="none" xmlns="http://www.w3.org/2000/svg">
<path d="M9.45288 20.1384H15.5453" stroke="#0B2343" stroke-miterlimit="10" stroke-linecap="round" stroke-linejoin="round"/>
<path d="M9.45288 17.8739H15.5453" stroke="#0B2343" stroke-miterlimit="10" stroke-linecap="round" stroke-linejoin="round"/>
<path d="M17.8622 7.96106H7.19482" stroke="#0B2343" stroke-miterlimit="10" stroke-linecap="round" stroke-linejoin="round"/>
<path d="M7.19521 4.20923H3.08075C2.04647 4.20923 1.20093 5.06234 1.20093 6.11927V12.8156C1.20093 13.8649 2.04647 14.7256 3.08075 14.7256H21.2448C22.2791 14.7256 23.1246 13.8725 23.1246 12.8156V6.11927C23.1246 5.06989 22.2791 4.20923 21.2448 4.20923H17.8626" stroke="#0B2343" stroke-miterlimit="10" stroke-linecap="round" stroke-linejoin="round"/>
<path d="M7.19482 16.3866V22.5093C7.19482 22.7811 7.40621 22.9999 7.66289 22.9999H17.3942C17.6509 22.9999 17.8622 22.7811 17.8622 22.5093V16.3866" stroke="#0B2343" stroke-miterlimit="10" stroke-linecap="round" stroke-linejoin="round"/>
<path d="M17.863 7.96143V4.20937C17.863 4.08103 17.8101 3.95271 17.7195 3.86212L15.7038 1.32541C15.6132 1.23482 15.4924 1.18958 15.3641 1.18958H7.67115C7.40692 1.18958 7.18799 1.40843 7.18799 1.67266V7.96143" stroke="#0B2343" stroke-miterlimit="10" stroke-linecap="round" stroke-linejoin="round"/>
</svg>
