<svg width="40" height="40" viewBox="0 0 40 40" fill="none" xmlns="http://www.w3.org/2000/svg">
<path d="M15.9299 31.0999H23.9999" stroke="#0B2343" stroke-miterlimit="10" stroke-linecap="round" stroke-linejoin="round"/>
<path d="M15.9299 28.0999H23.9999" stroke="#0B2343" stroke-miterlimit="10" stroke-linecap="round" stroke-linejoin="round"/>
<path d="M27.0699 14.97H12.9399" stroke="#0B2343" stroke-miterlimit="10" stroke-linecap="round" stroke-linejoin="round"/>
<path d="M12.94 10H7.49C6.12 10 5 11.13 5 12.53V21.3999C5 22.7899 6.12 23.9299 7.49 23.9299H31.55C32.92 23.9299 34.04 22.7999 34.04 21.3999V12.53C34.04 11.14 32.92 10 31.55 10H27.07" stroke="#0B2343" stroke-miterlimit="10" stroke-linecap="round" stroke-linejoin="round"/>
<path d="M12.9399 26.1299V34.24C12.9399 34.6 13.2199 34.8899 13.5599 34.8899H26.4499C26.7899 34.8899 27.0699 34.6 27.0699 34.24V26.1299" stroke="#0B2343" stroke-miterlimit="10" stroke-linecap="round" stroke-linejoin="round"/>
<path d="M27.0699 14.97V10C27.0699 9.83 26.9999 9.66004 26.8799 9.54004L24.2099 6.17993C24.0899 6.05993 23.9299 6 23.7599 6H13.5699C13.2199 6 12.9299 6.28989 12.9299 6.63989V14.97" stroke="#0B2343" stroke-miterlimit="10" stroke-linecap="round" stroke-linejoin="round"/>
</svg>
