<svg width="40" height="40" viewBox="0 0 40 40" fill="none" xmlns="http://www.w3.org/2000/svg">
<path d="M25.2991 20.9402L21.3126 20.8591L20.0054 17.1355C19.8932 16.817 19.4399 16.8151 19.3278 17.1355L18.0187 20.8591L14.0331 20.9402C13.6919 20.9477 13.5515 21.3803 13.8239 21.5858L16.9971 23.9683L15.8454 27.74C15.7455 28.0651 16.115 28.3328 16.393 28.1405L19.6652 25.8862L22.9411 28.1405C23.2191 28.3328 23.5876 28.0651 23.4877 27.74L22.3342 23.9683L25.5084 21.5858C25.7817 21.3803 25.6394 20.9477 25.2991 20.9402Z" stroke="#0B2343" stroke-miterlimit="10" stroke-linecap="round" stroke-linejoin="round"/>
<path d="M30.9758 33.3887H8.35612C7.05554 33.3887 6 32.335 6 31.0325V15.9534C6 14.6518 7.05554 13.5972 8.35612 13.5972H30.9758C32.2774 13.5972 33.332 14.6518 33.332 15.9534V31.0325C33.332 32.335 32.2774 33.3887 30.9758 33.3887Z" stroke="#0B2343" stroke-miterlimit="10" stroke-linecap="round" stroke-linejoin="round"/>
<path d="M24.8499 10.7698C24.8499 8.68791 23.162 6.99998 21.0801 6.99998H18.2528C16.17 6.99998 14.4821 8.68791 14.4821 10.7698" stroke="#0B2343" stroke-miterlimit="10" stroke-linecap="round" stroke-linejoin="round"/>
</svg>
