<svg xmlns="http://www.w3.org/2000/svg" viewBox="0 0 20.5 20.5"><g id="Layer_2" data-name="Layer 2"><g id="Layer_1-2" data-name="Layer 1"><path d="M14.34,8.65a4.18,4.18,0,0,0-4.06-4.29A4.19,4.19,0,0,0,6.21,8.65a4.28,4.28,0,0,0,.15,1.13,1,1,0,0,0-.3,1,1,1,0,0,0,.65.74C7,13.3,8.4,15.12,10.28,15.12s3.3-1.82,3.56-3.61a1,1,0,0,0,.65-.74,1,1,0,0,0-.29-1A4.79,4.79,0,0,0,14.34,8.65Zm-.53,2a.29.29,0,0,1-.29.24.35.35,0,0,0-.35.33c-.11,1.53-1.33,3.23-2.89,3.23s-2.79-1.7-2.9-3.23A.35.35,0,0,0,7,10.86H7a.29.29,0,0,1-.28-.24.33.33,0,0,1,.17-.38.37.37,0,0,0,.19-.43,3.76,3.76,0,0,1-.19-1.16,3.49,3.49,0,0,1,3.37-3.59,3.49,3.49,0,0,1,3.36,3.59,3.75,3.75,0,0,1-.18,1.16.35.35,0,0,0,.18.43A.33.33,0,0,1,13.81,10.62Z"/><path d="M10.25,0A10.25,10.25,0,1,0,20.5,10.25,10.26,10.26,0,0,0,10.25,0ZM4.68,18A30.12,30.12,0,0,1,8,16.59a5.75,5.75,0,0,0,4.6,0A29.14,29.14,0,0,1,15.83,18,9.47,9.47,0,0,1,4.68,18Zm11.76-.48c-.94-.47-3.72-1.76-4.06-1.6a5,5,0,0,1-4.21,0c-.34-.18-3.1,1.11-4.1,1.62a9.55,9.55,0,1,1,12.37,0Z"/></g></g></svg>