<?xml version="1.0" encoding="utf-8"?>
<!-- Generator: Adobe Illustrator 21.1.0, SVG Export Plug-In . SVG Version: 6.00 Build 0)  -->
<svg version="1.1" id="Layer_1" xmlns="http://www.w3.org/2000/svg" xmlns:xlink="http://www.w3.org/1999/xlink" x="0px" y="0px"
	 width="60px" height="28px" viewBox="0 0 60 28" style="enable-background:new 0 0 60 28;" xml:space="preserve">
<style type="text/css">
	.st0{fill:#221F1F;}
	.st1{fill-rule:evenodd;clip-rule:evenodd;fill:#221F1F;}
	.st2{fill:#231F20;}
	.st3{fill:none;}
	.st4{opacity:0.35;}
	.st5{fill:#FFFFFF;}
	.st6{fill:#ED3024;}
	.st7{fill:none;stroke:#231F20;stroke-linecap:round;stroke-linejoin:round;stroke-miterlimit:10;}
	.st8{fill:none;stroke:#231F20;stroke-linecap:round;stroke-linejoin:round;}
	.st9{fill:none;stroke:#000000;stroke-linecap:round;stroke-linejoin:round;}
	.st10{fill:#010101;}
	.st11{fill:none;stroke:#231F20;stroke-width:0.75;stroke-linecap:round;stroke-linejoin:round;stroke-miterlimit:10;}
	.st12{fill:none;stroke:#231F20;stroke-width:0.75;stroke-linecap:round;stroke-linejoin:round;}
	.st13{fill:#00498F;}
	.st14{fill:#002B5C;}
	.st15{fill:#004990;}
	.st16{fill:#007DC3;}
	.st17{fill-rule:evenodd;clip-rule:evenodd;}
</style>
<g>
	<path d="M7.5,28c-0.5,0-0.9-0.3-1.1-0.8c-0.2-0.5,0-1.1,0.5-1.3l0.7-0.4l-7.4-5.1C0.1,20.3,0,20,0,19.8c0-0.2,0.1-0.5,0.3-0.6
		l1.9-1.1C2.4,18,2.6,18,2.7,18c2.1,0.5,3.9,0.9,5.4,1.2c5.6,1.3,7.4,1.7,9.7,0.4l8.8-5.1l-10-9.2c-0.2-0.1-0.2-0.4-0.2-0.6
		c0-0.2,0.2-0.4,0.3-0.5l1-0.6c0.2-0.1,0.4-0.1,0.6-0.1l17,5.9l10.2-5.9c0.4-0.2,8.9-5,13.2-3.4c1,0.4,1.3,1,1.3,1.5
		c0.2,2.3-5.2,5.6-6.8,6.5L26.1,24c-0.3,0.1-6.1,2.4-18.4,4C7.6,28,7.6,28,7.5,28z M2,19.9L9.4,25c0.2,0.1,0.3,0.4,0.3,0.6
		c0,0.2-0.1,0.5-0.3,0.6l-0.5,0.3c11.2-1.6,16.6-3.7,16.7-3.7l27-15.6c3-1.8,6.2-4.3,6.2-5.2c0-0.1-0.3-0.3-0.4-0.3
		c-3.1-1.2-9.8,2-12.1,3.3l-10.4,6C35.5,11,35.3,11,35.1,11L18.3,5l11.6,10.7c0.3,0.3,0.3,0.7,0,1c-0.3,0.3-0.7,0.3-1,0l-1.3-1.2
		l-9.1,5.3c-2.8,1.6-4.8,1.1-10.7-0.2c-1.4-0.3-3.1-0.7-5.1-1.2L2,19.9z"/>
</g>
<g>
	<path d="M39.2,26.4c-0.2,0-0.3-0.1-0.5-0.2l-3.9-3.6c-0.3-0.3-0.3-0.7,0-1c0.3-0.3,0.7-0.3,1,0l3.4,3.2l0.9-0.7l0.6-5.7
		c0-0.4,0.4-0.6,0.8-0.6c0.4,0,0.7,0.4,0.6,0.8l-0.7,6c0,0.2-0.1,0.4-0.3,0.5l-1.6,1.2C39.5,26.3,39.3,26.4,39.2,26.4z"/>
</g>
</svg>
