<svg width="22" height="22" viewBox="0 0 22 22" fill="none" xmlns="http://www.w3.org/2000/svg">
<path d="M7.77026 11.9625C7.77597 11.9625 7.77597 11.9625 7.78169 11.9625C7.91304 13.7386 9.31221 15.5204 11.0255 15.5204C12.7388 15.5204 14.1379 13.7386 14.2693 11.9625C14.275 11.9625 14.275 11.9625 14.2807 11.9625C14.966 11.9625 15.1659 10.9688 14.5377 10.6718C14.6691 10.2721 14.7376 9.84375 14.7376 9.3983C14.7376 7.22244 13.0757 5.45776 11.0255 5.45776C8.97527 5.45776 7.31339 7.22244 7.31339 9.3983C7.31339 9.84375 7.38192 10.2721 7.51327 10.6718C6.88507 10.9688 7.08495 11.9625 7.77026 11.9625Z" stroke="#0B2343" stroke-width="0.7" stroke-miterlimit="10" stroke-linecap="round" stroke-linejoin="round"/>
<path d="M17.245 18.6784C15.4518 17.7133 13.3273 16.948 13.2931 16.9651C12.0367 17.639 10.0264 17.639 8.77003 16.9651C8.73577 16.948 6.58275 17.7075 4.78381 18.6898" stroke="#0B2343" stroke-width="0.7" stroke-miterlimit="10" stroke-linecap="round" stroke-linejoin="round"/>
<path d="M11 20.9C16.4676 20.9 20.9 16.4676 20.9 11C20.9 5.53236 16.4676 1.09998 11 1.09998C5.53236 1.09998 1.09998 5.53236 1.09998 11C1.09998 16.4676 5.53236 20.9 11 20.9Z" stroke="#0B2343" stroke-width="0.7" stroke-miterlimit="10" stroke-linecap="round" stroke-linejoin="round"/>
</svg>
