<?xml version="1.0" encoding="utf-8"?>
<!-- Generator: Adobe Illustrator 21.1.0, SVG Export Plug-In . SVG Version: 6.00 Build 0)  -->
<svg version="1.1" id="Layer_1" xmlns="http://www.w3.org/2000/svg" xmlns:xlink="http://www.w3.org/1999/xlink" x="0px" y="0px"
	 width="43px" height="44px" viewBox="0 0 43 44" style="enable-background:new 0 0 43 44;" xml:space="preserve">
<style type="text/css">
	.st0{fill:#221F1F;}
	.st1{fill-rule:evenodd;clip-rule:evenodd;fill:#221F1F;}
	.st2{fill:#231F20;}
	.st3{fill:none;}
	.st4{opacity:0.35;}
	.st5{fill:#FFFFFF;}
	.st6{fill:#ED3024;}
	.st7{fill:none;stroke:#231F20;stroke-linecap:round;stroke-linejoin:round;stroke-miterlimit:10;}
	.st8{fill:none;stroke:#231F20;stroke-linecap:round;stroke-linejoin:round;}
	.st9{fill:none;stroke:#000000;stroke-linecap:round;stroke-linejoin:round;}
	.st10{fill:#010101;}
	.st11{fill:none;stroke:#231F20;stroke-width:0.75;stroke-linecap:round;stroke-linejoin:round;stroke-miterlimit:10;}
	.st12{fill:none;stroke:#231F20;stroke-width:0.75;stroke-linecap:round;stroke-linejoin:round;}
	.st13{fill:#00498F;}
	.st14{fill:#002B5C;}
	.st15{fill:#004990;}
	.st16{fill:#007DC3;}
	.st17{fill-rule:evenodd;clip-rule:evenodd;}
</style>
<g>
	<g>
		<path class="st2" d="M20.2,28.3c-1.6,0-2.7-2.1-2.7-3.4c0-1.5,1.2-2.7,2.7-2.7s2.7,1.2,2.7,2.7C22.9,26.3,21.9,28.3,20.2,28.3z
			 M20.2,23.3c-0.9,0-1.6,0.7-1.6,1.6c0,1,0.8,2.3,1.6,2.3s1.6-1.3,1.6-2.3C21.8,24,21.1,23.3,20.2,23.3z"/>
	</g>
	<g>
		<path class="st2" d="M20.2,43.9c-2.5,0-3.9-6.3-3.9-8.4c0-2.8,1.8-5,3.9-5s3.9,2.2,3.9,5C24.1,37.6,22.8,43.9,20.2,43.9z
			 M20.2,31.6c-1.5,0-2.8,1.7-2.8,3.9c0,2.7,1.6,7.3,2.8,7.3s2.8-4.6,2.8-7.3C23,33.3,21.8,31.6,20.2,31.6z"/>
	</g>
	<g>
		<path class="st2" d="M36.5,43.8c-0.3,0-0.6-0.3-0.6-0.6V32c0-0.3,0.3-0.6,0.6-0.6h5l-4.2-9.5c0-0.1-0.1-0.2,0-0.3l0.9-4.4
			c0.2-4.9-0.1-6.1-0.2-6.4c-0.2,0-0.4-0.1-0.5-0.1l-2.6,2.6c-0.2,0.2-0.6,0.2-0.8,0l-2.6-2.6c-0.2,0-0.4,0-0.5,0.1
			c-0.1,0.3-0.4,1.5-0.2,6.5l0.9,4.3c0,0.1,0,0.2,0,0.3l-4.2,9.5h5c0.3,0,0.6,0.3,0.6,0.6v11.3c0,0.3-0.3,0.6-0.6,0.6
			c-0.3,0-0.6-0.3-0.6-0.6V32.5h-5.4c-0.2,0-0.4-0.1-0.5-0.3c-0.1-0.2-0.1-0.4,0-0.5l4.5-10.1l-0.9-4.2c-0.3-7.2,0.3-7.5,0.8-7.6
			c0,0,0.1,0,0.1,0c0.4-0.1,0.8-0.2,1.2-0.2c0.1,0,0.3,0.1,0.4,0.2l2.4,2.4l2.4-2.4c0.1-0.1,0.2-0.2,0.4-0.2c0.4,0,0.8,0.1,1.2,0.2
			c0,0,0.1,0,0.1,0c0.5,0.2,1.1,0.5,0.8,7.5l-0.9,4.3L43,31.7c0.1,0.2,0.1,0.4,0,0.5c-0.1,0.2-0.3,0.3-0.5,0.3h-5.4v10.8
			C37.1,43.6,36.8,43.8,36.5,43.8z"/>
	</g>
	<g>
		<path class="st2" d="M6.7,44L6.7,44c-0.3,0-0.6-0.3-0.6-0.6l0-15c0-0.3,0.3-0.6,0.6-0.6l0,0c0.3,0,0.6,0.3,0.6,0.6l0,15
			C7.2,43.7,7,44,6.7,44z"/>
	</g>
	<g>
		<path class="st2" d="M6.7,7.4c-1.9,0-3.3-2.5-3.3-4.1C3.4,1.5,4.8,0,6.7,0S10,1.5,10,3.3C10,4.9,8.6,7.4,6.7,7.4z M6.7,1.1
			c-1.2,0-2.2,1-2.2,2.1c0,1.3,1.1,3,2.2,3s2.2-1.7,2.2-3C8.9,2.1,7.9,1.1,6.7,1.1z"/>
	</g>
	<g>
		<path class="st2" d="M34.4,7.8c-2,0-3.4-2.5-3.4-4.1c0-1.8,1.5-3.3,3.4-3.3s3.4,1.5,3.4,3.3C37.8,5.4,36.4,7.8,34.4,7.8z
			 M34.4,1.5c-1.2,0-2.2,1-2.2,2.1c0,1.3,1.1,3,2.2,3s2.2-1.7,2.2-3C36.7,2.5,35.7,1.5,34.4,1.5z"/>
	</g>
	<g>
		<path class="st2" d="M10.7,44C10.6,44,10.6,44,10.7,44c-0.3,0-0.6-0.3-0.6-0.6l0.7-18.6c0-0.2,0.1-0.4,0.2-0.5
			c0.3-0.3,0.7-0.2,1-0.2c0,0,0,0,0,0c0.4-10.8-0.3-13.3-0.5-13.8c-0.2,0-0.6,0-0.9,0l-0.6,0c-0.3,0-0.5,0.2-0.7,0.4
			c-0.5,0.9-1.5,1.5-2.7,1.5c0,0,0,0,0,0c-1.2,0-2.2-0.6-2.7-1.5c-0.1-0.3-0.4-0.4-0.7-0.4l-0.6,0c-0.3,0-0.7,0-0.9,0
			c-0.2,0.5-0.9,2.9-0.5,13.8c0,0,0,0,0,0c0.4,0,0.8-0.1,1,0.2c0.1,0.1,0.2,0.3,0.2,0.5l0.6,18.6c0,0.3-0.2,0.6-0.5,0.6
			c-0.3,0-0.6-0.2-0.6-0.5L1.5,25.3c0,0,0,0-0.1,0c-0.4,0-0.7,0.1-1-0.2c-0.1-0.1-0.2-0.3-0.2-0.5c-0.2-6.4-0.3-14.2,1-15.2
			c0.1-0.1,0.1-0.1,0.2-0.1c0.1,0,0.4-0.1,1.3-0.1l0.6,0c0.7,0,1.4,0.3,1.7,1c0.3,0.7,1.1,0.9,1.7,0.9c0,0,0,0,0,0
			c0.6,0,1.4-0.2,1.7-0.9c0.4-0.7,1-1.1,1.7-1l0.6,0c1,0,1.2,0.1,1.3,0.1c0.1,0,0.1,0.1,0.2,0.1c1.2,1,1.2,8.9,1,15.2
			c0,0.2-0.1,0.4-0.2,0.5c-0.3,0.2-0.7,0.2-1,0.2c0,0,0,0-0.1,0l-0.7,18.2C11.2,43.8,11,44,10.7,44z"/>
	</g>
</g>
</svg>
