<?xml version="1.0" encoding="utf-8"?>
<!-- Generator: Adobe Illustrator 21.1.0, SVG Export Plug-In . SVG Version: 6.00 Build 0)  -->
<svg version="1.1" id="Layer_1" xmlns="http://www.w3.org/2000/svg" xmlns:xlink="http://www.w3.org/1999/xlink" x="0px" y="0px"
	 width="75px" height="68px" viewBox="0 0 75 68" style="enable-background:new 0 0 75 68;" xml:space="preserve">
<style type="text/css">
	.st0{fill:#221F1F;}
	.st1{fill-rule:evenodd;clip-rule:evenodd;fill:#221F1F;}
	.st2{fill:#231F20;}
	.st3{fill:none;}
	.st4{opacity:0.35;}
	.st5{fill:#FFFFFF;}
	.st6{fill:#ED3024;}
	.st7{fill:none;stroke:#231F20;stroke-linecap:round;stroke-linejoin:round;stroke-miterlimit:10;}
	.st8{fill:none;stroke:#231F20;stroke-linecap:round;stroke-linejoin:round;}
	.st9{fill:none;stroke:#000000;stroke-linecap:round;stroke-linejoin:round;}
	.st10{fill:#010101;}
	.st11{fill:none;stroke:#231F20;stroke-width:0.75;stroke-linecap:round;stroke-linejoin:round;stroke-miterlimit:10;}
	.st12{fill:none;stroke:#231F20;stroke-width:0.75;stroke-linecap:round;stroke-linejoin:round;}
	.st13{fill:#00498F;}
	.st14{fill:#002B5C;}
	.st15{fill:#004990;}
	.st16{fill:#007DC3;}
	.st17{fill-rule:evenodd;clip-rule:evenodd;}
</style>
<g>
	<g>
		<path d="M15.3,46.4c-0.4,0-0.7-0.1-1-0.3c-0.3-0.3-0.6-0.7-0.6-1.1l-0.4-3.2c-0.1-0.7,0.2-1.3,0.8-1.7c6.7-3.7,7.8-5.1,8-5.5
			l-0.1-0.9c-0.9-0.8-1.7-1.9-2.3-3.1c-0.6-0.4-1-0.9-1.2-1.6c-0.2-0.7-0.1-1.4,0.2-2l-0.4-2.7c-0.2-1.7,0.1-3.2,1-4.4
			c0.9-1.2,2.4-2,4.4-2.2c3.9-0.5,6.4,1.2,6.9,4.9l0.4,2.6c0.5,0.5,0.7,1.2,0.7,1.9c0,0.7-0.3,1.4-0.7,1.9c-0.2,1.4-0.7,2.6-1.3,3.6
			l0.1,0.9c0.3,0.3,1.7,1.3,9.1,3.1c0,0,0,0,0,0c0.7,0.2,1.2,0.7,1.2,1.4l0.4,3.2c0.1,0.4-0.1,0.9-0.3,1.2c-0.3,0.3-0.6,0.6-1.1,0.6
			l-23.6,3.3C15.4,46.4,15.4,46.4,15.3,46.4z M24.9,19.2c-0.4,0-0.8,0-1.2,0.1c-1.6,0.2-2.7,0.8-3.4,1.7c-0.6,0.8-0.9,1.9-0.7,3.3
			l0.4,2.9c0,0.2,0,0.3-0.1,0.5c-0.2,0.3-0.3,0.7-0.2,1.1c0.1,0.4,0.4,0.7,0.7,0.8c0.1,0.1,0.3,0.2,0.3,0.4c0.5,1.2,1.3,2.3,2.2,3
			c0.1,0.1,0.2,0.3,0.3,0.5l0.2,1.3c0,0.1,0,0.1,0,0.2c-0.2,1-1.3,2.4-8.7,6.6c-0.1,0-0.1,0.1-0.1,0.2l0.5,3.2l0.3,0.9L15.3,45
			l23.6-3.3l0.2-0.2l-0.4-3.2c0-0.1-0.1-0.2-0.1-0.2c-8.2-1.9-9.7-3.1-10.1-3.9c0-0.1-0.1-0.1-0.1-0.2l-0.2-1.3c0-0.2,0-0.4,0.1-0.5
			c0.7-0.9,1.1-2.1,1.3-3.4c0-0.2,0.1-0.3,0.2-0.4c0.3-0.3,0.4-0.6,0.4-1c0-0.4-0.2-0.8-0.4-1c-0.1-0.1-0.2-0.3-0.2-0.4l-0.4-2.9
			C28.7,20.4,27.3,19.2,24.9,19.2z"/>
	</g>
	<g>
		<path d="M44.7,33.6c-0.4,0-0.7-0.3-0.7-0.6c-0.1-0.4,0.2-0.8,0.6-0.8l17-2.4c0.4,0,0.8,0.2,0.8,0.6c0.1,0.4-0.2,0.8-0.6,0.8
			L44.7,33.6C44.8,33.6,44.7,33.6,44.7,33.6z"/>
	</g>
	<g>
		<path d="M15.3,46.4c-0.4,0-0.7-0.1-1-0.3c-0.3-0.3-0.6-0.7-0.6-1.1l-0.4-3.2c-0.1-0.7,0.2-1.3,0.8-1.7c6.7-3.7,7.8-5.1,8-5.5
			l-0.1-0.9c-0.9-0.8-1.7-1.9-2.3-3.1c-0.6-0.4-1-0.9-1.2-1.6c-0.2-0.7-0.1-1.4,0.2-2l-0.4-2.7c-0.2-1.7,0.1-3.2,1-4.4
			c0.9-1.2,2.4-2,4.4-2.2c3.9-0.5,6.4,1.2,6.9,4.9l0.4,2.6c0.5,0.5,0.7,1.2,0.7,1.9c0,0.7-0.3,1.4-0.7,1.9c-0.2,1.4-0.7,2.6-1.3,3.6
			l0.1,0.9c0.3,0.3,1.7,1.3,9.1,3.1c0,0,0,0,0,0c0.7,0.2,1.2,0.7,1.2,1.4l0.4,3.2c0.1,0.4-0.1,0.9-0.3,1.2c-0.3,0.3-0.6,0.6-1.1,0.6
			l-23.6,3.3C15.4,46.4,15.4,46.4,15.3,46.4z M24.9,19.2c-0.4,0-0.8,0-1.2,0.1c-1.6,0.2-2.7,0.8-3.4,1.7c-0.6,0.8-0.9,1.9-0.7,3.3
			l0.4,2.9c0,0.2,0,0.3-0.1,0.5c-0.2,0.3-0.3,0.7-0.2,1.1c0.1,0.4,0.4,0.7,0.7,0.8c0.1,0.1,0.3,0.2,0.3,0.4c0.5,1.2,1.3,2.3,2.2,3
			c0.1,0.1,0.2,0.3,0.3,0.5l0.2,1.3c0,0.1,0,0.1,0,0.2c-0.2,1-1.3,2.4-8.7,6.6c-0.1,0-0.1,0.1-0.1,0.2l0.5,3.2l0.3,0.9L15.3,45
			l23.6-3.3l0.2-0.2l-0.4-3.2c0-0.1-0.1-0.2-0.1-0.2c-8.2-1.9-9.7-3.1-10.1-3.9c0-0.1-0.1-0.1-0.1-0.2l-0.2-1.3c0-0.2,0-0.4,0.1-0.5
			c0.7-0.9,1.1-2.1,1.3-3.4c0-0.2,0.1-0.3,0.2-0.4c0.3-0.3,0.4-0.6,0.4-1c0-0.4-0.2-0.8-0.4-1c-0.1-0.1-0.2-0.3-0.2-0.4l-0.4-2.9
			C28.7,20.4,27.3,19.2,24.9,19.2z"/>
	</g>
	<g>
		<path d="M44.7,33.6c-0.4,0-0.7-0.3-0.7-0.6c-0.1-0.4,0.2-0.8,0.6-0.8l17-2.4c0.4,0,0.8,0.2,0.8,0.6c0.1,0.4-0.2,0.8-0.6,0.8
			L44.7,33.6C44.8,33.6,44.7,33.6,44.7,33.6z"/>
	</g>
	<g>
		<path d="M43.5,25c-0.4,0-0.7-0.3-0.7-0.6c-0.1-0.4,0.2-0.8,0.6-0.8l17-2.4c0.4,0,0.8,0.2,0.8,0.6c0.1,0.4-0.2,0.8-0.6,0.8L43.5,25
			C43.6,25,43.5,25,43.5,25z"/>
	</g>
	<g>
		<path d="M43.5,25c-0.4,0-0.7-0.3-0.7-0.6c-0.1-0.4,0.2-0.8,0.6-0.8l17-2.4c0.4,0,0.8,0.2,0.8,0.6c0.1,0.4-0.2,0.8-0.6,0.8L43.5,25
			C43.6,25,43.5,25,43.5,25z"/>
	</g>
	<g>
		<path d="M8.7,68C8.3,68,8,67.7,8,67.4L0,10c0-0.2,0-0.4,0.1-0.5c0.1-0.2,0.3-0.3,0.5-0.3L66.2,0C66.6,0,67,0.2,67,0.6L75,58
			c0.1,0.4-0.2,0.8-0.6,0.8l-14.3,2c-0.4,0-0.8-0.2-0.8-0.6l-0.6-4.1c-0.3-2-2.1-3.4-4.1-3.1c-2,0.3-3.4,2.1-3.1,4.1l0.6,4.1
			c0.1,0.4-0.2,0.8-0.6,0.8l-20,2.8c-0.2,0-0.4,0-0.5-0.1c-0.2-0.1-0.3-0.3-0.3-0.5l-0.6-4.1c-0.1-1-0.6-1.8-1.4-2.4
			c-0.8-0.6-1.7-0.9-2.7-0.7c-1,0.1-1.8,0.6-2.4,1.4c-0.6,0.8-0.8,1.7-0.7,2.7l0.6,4.1c0,0.2,0,0.4-0.1,0.5C23.3,65.9,23.2,66,23,66
			L8.7,68C8.7,68,8.7,68,8.7,68z M1.5,10.5l7.8,55.9l12.8-1.8l-0.5-3.4c-0.2-1.3,0.2-2.7,1-3.8c0.8-1.1,2-1.8,3.3-2
			c1.3-0.2,2.7,0.2,3.7,1c1.1,0.8,1.8,2,2,3.4l0.5,3.4l18.5-2.6l-0.5-3.4c-0.4-2.8,1.5-5.4,4.3-5.8c2.8-0.4,5.3,1.6,5.7,4.4l0.5,3.4
			l12.8-1.8L65.7,1.5L1.5,10.5z"/>
	</g>
</g>
</svg>
