<?xml version="1.0" encoding="utf-8"?>
<!-- Generator: Adobe Illustrator 21.1.0, SVG Export Plug-In . SVG Version: 6.00 Build 0)  -->
<svg version="1.1" id="Layer_1" xmlns="http://www.w3.org/2000/svg" xmlns:xlink="http://www.w3.org/1999/xlink" x="0px" y="0px"
	 width="47px" height="36px" viewBox="0 0 47 36" style="enable-background:new 0 0 47 36;" xml:space="preserve">
<style type="text/css">
	.st0{fill:#221F1F;}
	.st1{fill-rule:evenodd;clip-rule:evenodd;fill:#221F1F;}
	.st2{fill:#231F20;}
	.st3{fill:none;}
	.st4{opacity:0.35;}
	.st5{fill:#FFFFFF;}
	.st6{fill:#ED3024;}
	.st7{fill:none;stroke:#231F20;stroke-linecap:round;stroke-linejoin:round;stroke-miterlimit:10;}
	.st8{fill:none;stroke:#231F20;stroke-linecap:round;stroke-linejoin:round;}
	.st9{fill:none;stroke:#000000;stroke-linecap:round;stroke-linejoin:round;}
	.st10{fill:#010101;}
	.st11{fill:none;stroke:#231F20;stroke-width:0.75;stroke-linecap:round;stroke-linejoin:round;stroke-miterlimit:10;}
	.st12{fill:none;stroke:#231F20;stroke-width:0.75;stroke-linecap:round;stroke-linejoin:round;}
	.st13{fill:#00498F;}
	.st14{fill:#002B5C;}
	.st15{fill:#004990;}
	.st16{fill:#007DC3;}
	.st17{fill-rule:evenodd;clip-rule:evenodd;}
</style>
<g>
	<path class="st2" d="M46.4,17.3h-4.1V9.9c0-0.3-0.3-0.6-0.6-0.6h-38c-1.4,0-2.5-1.9-2.5-4.1c0-2.2,1.2-4.1,2.5-4.1h38
		c0.3,0,0.6-0.3,0.6-0.6S42,0,41.7,0h-38C1.6,0,0,2.3,0,5.3c0,0.2,0,0.4,0,0.6C0,5.9,0,6,0,6v26.2C0,34.3,1.7,36,3.7,36h38
		c0.3,0,0.6-0.3,0.6-0.6V28h4.1c0.3,0,0.6-0.3,0.6-0.6v-9.5C47,17.6,46.7,17.3,46.4,17.3z M41.1,34.8H3.7c-1.4,0-2.5-1.1-2.5-2.5
		V9.2c0.7,0.9,1.5,1.4,2.5,1.4h37.4v6.8H37c-2.9,0-5.3,2.4-5.3,5.4c0,3,2.4,5.4,5.3,5.4h4.2V34.8z M45.8,26.9H37
		c-2.3,0-4.2-1.9-4.2-4.2c0-2.3,1.9-4.2,4.2-4.2h8.8V26.9z"/>
	<path class="st2" d="M41.7,4.6H5.3c-0.3,0-0.6,0.3-0.6,0.6s0.3,0.6,0.6,0.6h36.5c0.3,0,0.6-0.3,0.6-0.6S42,4.6,41.7,4.6z"/>
	<path class="st2" d="M36.7,22.1c-0.1,0-0.1,0.1-0.2,0.1c-0.1,0.1-0.2,0.3-0.2,0.4c0,0.1,0,0.2,0,0.2c0,0.1,0.1,0.1,0.1,0.2
		c0.1,0.1,0.3,0.2,0.4,0.2c0.1,0,0.3-0.1,0.4-0.2c0.1,0,0.1-0.1,0.1-0.2c0-0.1,0-0.1,0-0.2c0-0.1,0-0.2,0-0.2c0-0.1-0.1-0.1-0.1-0.2
		C37.2,22.1,36.9,22,36.7,22.1z"/>
</g>
</svg>
