<?xml version="1.0" encoding="utf-8"?>
<!-- Generator: Adobe Illustrator 21.1.0, SVG Export Plug-In . SVG Version: 6.00 Build 0)  -->
<svg version="1.1" id="Layer_1" xmlns="http://www.w3.org/2000/svg" xmlns:xlink="http://www.w3.org/1999/xlink" x="0px" y="0px"
	 width="47px" height="40px" viewBox="0 0 47 40" style="enable-background:new 0 0 47 40;" xml:space="preserve">
<style type="text/css">
	.st0{fill:#221F1F;}
	.st1{fill-rule:evenodd;clip-rule:evenodd;fill:#221F1F;}
	.st2{fill:#231F20;}
	.st3{fill:none;}
	.st4{opacity:0.35;}
	.st5{fill:#FFFFFF;}
	.st6{fill:#ED3024;}
	.st7{fill:none;stroke:#231F20;stroke-linecap:round;stroke-linejoin:round;stroke-miterlimit:10;}
	.st8{fill:none;stroke:#231F20;stroke-linecap:round;stroke-linejoin:round;}
	.st9{fill:none;stroke:#000000;stroke-linecap:round;stroke-linejoin:round;}
	.st10{fill:#010101;}
	.st11{fill:none;stroke:#231F20;stroke-width:0.75;stroke-linecap:round;stroke-linejoin:round;stroke-miterlimit:10;}
	.st12{fill:none;stroke:#231F20;stroke-width:0.75;stroke-linecap:round;stroke-linejoin:round;}
	.st13{fill:#00498F;}
	.st14{fill:#002B5C;}
	.st15{fill:#004990;}
	.st16{fill:#007DC3;}
	.st17{fill-rule:evenodd;clip-rule:evenodd;}
</style>
<g>
	<path class="st2" d="M23.5,9.1c0.3,0,0.6-0.3,0.6-0.6V0.6c0-0.3-0.3-0.6-0.6-0.6c-0.3,0-0.6,0.3-0.6,0.6v7.8
		C22.9,8.8,23.2,9.1,23.5,9.1z"/>
	<path class="st2" d="M35.2,13.9c0.2,0,0.3-0.1,0.4-0.2l6.1-6.3c0.2-0.2,0.2-0.6,0-0.9s-0.6-0.2-0.9,0l-6.1,6.3
		c-0.2,0.2-0.2,0.6,0,0.9C34.9,13.9,35.1,13.9,35.2,13.9z"/>
	<path class="st2" d="M11.3,13.8c0.1,0.1,0.3,0.2,0.4,0.2c0.2,0,0.3-0.1,0.4-0.2c0.2-0.2,0.3-0.6,0-0.9L6.1,6.6
		c-0.2-0.2-0.6-0.3-0.9,0C5,6.8,5,7.2,5.2,7.4L11.3,13.8z"/>
	<path class="st2" d="M45.9,18.5c-3.5-1.3-10.1,2.4-10.4,2.6l-7.9,4.5L14.4,21c-0.2-0.1-0.4,0-0.5,0l-0.8,0.5
		c-0.2,0.1-0.3,0.3-0.3,0.5c0,0.2,0.1,0.4,0.2,0.5l7.7,7.1l-6.8,3.9c-1.8,1-3.1,0.7-7.5-0.3c-1.2-0.3-2.6-0.6-4.2-0.9
		c-0.1,0-0.3,0-0.4,0.1l-1.5,0.9C0.1,33.2,0,33.4,0,33.6c0,0.2,0.1,0.4,0.3,0.5L5.9,38l-0.5,0.3c-0.4,0.2-0.6,0.7-0.4,1.1
		C5.2,39.7,5.5,40,5.9,40c0,0,0.1,0,0.1,0c9.6-1.3,14.1-3,14.4-3.1l21.1-12.1c1.3-0.7,5.5-3.3,5.4-5.1C47,19.3,46.7,18.8,45.9,18.5z
		 M41,23.7L19.9,35.8c0,0-4.2,1.6-12.6,2.8l0.1,0c0.2-0.1,0.3-0.3,0.3-0.5c0-0.2-0.1-0.4-0.3-0.5l-5.7-3.9l0.4-0.3
		c1.5,0.3,2.8,0.6,4,0.9c4.6,1.1,6.2,1.4,8.4,0.2l7.1-4.1l1,0.9c0.3,0.2,0.6,0.2,0.9,0c0.2-0.2,0.2-0.6,0-0.9l-8.8-8l12.8,4.4
		c0.2,0.1,0.4,0,0.5,0l8.1-4.7c1.8-1,6.9-3.4,9.4-2.5c0.2,0.1,0.3,0.1,0.3,0.2C45.9,20.2,43.8,22.1,41,23.7z"/>
	<path class="st2" d="M32.5,31.9c-0.3,0-0.6,0.2-0.7,0.5l-0.5,4.4l-0.6,0.5l-2.6-2.5c-0.2-0.2-0.6-0.2-0.9,0c-0.2,0.2-0.2,0.6,0,0.9
		l3,2.8c0.1,0.1,0.3,0.2,0.4,0.2c0.1,0,0.3,0,0.4-0.1l1.3-1c0.1-0.1,0.2-0.2,0.2-0.4l0.5-4.7C33.1,32.2,32.8,31.9,32.5,31.9z"/>
</g>
</svg>
