<?xml version="1.0" encoding="utf-8"?>
<!-- Generator: Adobe Illustrator 21.1.0, SVG Export Plug-In . SVG Version: 6.00 Build 0)  -->
<svg version="1.1" id="Layer_1" xmlns="http://www.w3.org/2000/svg" xmlns:xlink="http://www.w3.org/1999/xlink" x="0px" y="0px"
	 width="48px" height="48px" viewBox="0 0 48 48" enable-background="new 0 0 48 48" xml:space="preserve">
<g>
	<path fill="#231F20" d="M24,0C10.8,0,0,10.8,0,24c0,13.2,10.8,24,24,24c13.2,0,24-10.8,24-24C48,10.8,37.2,0,24,0z M35.9,15.5
		L21.3,33.7c-0.2,0.2-0.4,0.3-0.6,0.3s-0.5-0.1-0.6-0.3l-6.8-8.5c-0.3-0.3-0.2-0.9,0.1-1.1c0.3-0.3,0.9-0.2,1.1,0.1l6.1,7.7
		l13.9-17.4c0.3-0.3,0.8-0.4,1.1-0.1C36.1,14.6,36.2,15.1,35.9,15.5z"/>
</g>
</svg>
