<svg width="25" height="25" viewBox="0 0 25 25" fill="none" xmlns="http://www.w3.org/2000/svg">
<path d="M15.1393 17.3998C14.5829 18.0571 13.8614 18.4992 13.0237 18.7263C12.6568 18.8219 12.4917 19.0131 12.5101 19.3836C12.5284 19.7481 12.5101 20.1186 12.5101 20.4831C12.5101 20.8118 12.3389 20.9851 12.0087 20.991C11.6051 21.003 11.2015 21.003 10.798 20.991C10.4433 20.9851 10.2783 20.7879 10.2721 20.4532C10.266 20.1843 10.266 19.9154 10.266 19.6525C10.2599 19.0609 10.2416 19.037 9.66068 18.9474C8.9147 18.8339 8.18707 18.6666 7.50836 18.3439C6.97639 18.0929 6.92136 17.9615 7.07422 17.4117C7.1904 17.0054 7.30046 16.5931 7.43498 16.1927C7.58784 15.7266 7.71625 15.6669 8.1565 15.8879C8.90859 16.2704 9.7096 16.4855 10.5473 16.5871C11.0854 16.6528 11.6173 16.599 12.1187 16.3839C13.0543 15.9836 13.201 14.9259 12.4122 14.2925C12.1432 14.0774 11.8375 13.916 11.5195 13.7786C10.7002 13.426 9.84412 13.1571 9.07368 12.703C7.8202 11.968 7.02531 10.9641 7.11702 9.47025C7.22097 7.78516 8.1993 6.73347 9.77686 6.17177C10.4311 5.93872 10.4311 5.95067 10.4372 5.28142V4.60618C10.4495 4.10424 10.5351 4.01461 11.0487 4.00266C11.2077 3.99668 11.3666 4.00266 11.5256 4.00266C12.614 4.00266 12.614 4.00266 12.6201 5.0663L12.6203 5.0841C12.6262 5.81931 12.6262 5.82609 13.3906 5.93872C13.9776 6.02835 14.5401 6.20164 15.0843 6.43469C15.3839 6.56615 15.5001 6.76932 15.4084 7.08004C15.2738 7.54016 15.1454 8.00625 14.9926 8.46039C14.8519 8.89063 14.7113 8.95636 14.2833 8.75319C13.4334 8.35283 12.5406 8.18551 11.599 8.23332C11.3544 8.24527 11.1098 8.28112 10.8836 8.37673C10.0704 8.72331 9.93584 9.60171 10.6329 10.1395C10.9814 10.4144 11.385 10.6116 11.8008 10.7789C12.5223 11.0717 13.2438 11.3466 13.9286 11.717C16.0871 12.9062 16.6741 15.5772 15.1393 17.3998Z" fill="#0B2343"/>
<path d="M18.0876 18.8664V19.5863H18.9276V18.8664H18.0876ZM18.0876 15.3145V18.3624H18.9276V15.3145H18.0876Z" fill="white"/>
<circle cx="18.5" cy="17.5" r="4.75" fill="#E91B2F" stroke="white" stroke-width="0.5"/>
<path fill-rule="evenodd" clip-rule="evenodd" d="M20.525 16.15L19.175 17.5L20.525 18.85L19.85 19.525L18.5 18.175L17.15 19.525L16.475 18.85L17.825 17.5L16.475 16.15L17.15 15.475L18.5 16.825L19.85 15.475L20.525 16.15Z" fill="white"/>
<path d="M18.5 21C16.567 21 15 19.433 15 17.5H13C13 20.5376 15.4624 23 18.5 23V21ZM22 17.5C22 19.433 20.433 21 18.5 21V23C21.5376 23 24 20.5376 24 17.5H22ZM18.5 14C20.433 14 22 15.567 22 17.5H24C24 14.4624 21.5376 12 18.5 12V14ZM18.5 12C15.4624 12 13 14.4624 13 17.5H15C15 15.567 16.567 14 18.5 14V12Z" fill="white"/>
</svg>
