<svg width="25" height="25" viewBox="0 0 25 25" fill="none" xmlns="http://www.w3.org/2000/svg">
<path d="M23.706 13.0361L23.3496 12.5515C22.9648 12.0193 22.9553 11.3019 23.3354 10.7697L23.6822 10.2803C24.2144 9.5296 23.9673 8.48429 23.1548 8.05191L22.6227 7.76683C22.043 7.45798 21.7294 6.81179 21.8387 6.1656L21.9384 5.57167C22.0905 4.66415 21.4158 3.8279 20.494 3.78989L19.8953 3.76613C19.2396 3.73762 18.6742 3.29574 18.4937 2.6638L18.3274 2.08413C18.0708 1.20037 17.1015 0.744229 16.2557 1.10534L15.7046 1.34291C15.1012 1.60424 14.4027 1.44744 13.9608 0.958043L13.5617 0.51141C12.944 -0.177546 11.8702 -0.168043 11.2668 0.525664L10.8724 0.977049C10.44 1.4712 9.74155 1.6375 9.13812 1.38567L8.58221 1.1576C7.7317 0.805998 6.76716 1.28114 6.52484 2.16965L6.36804 2.74933C6.19699 3.38127 5.63632 3.83265 4.98063 3.87066L4.38195 3.90392C3.46493 3.95619 2.79973 4.80194 2.96603 5.70471L3.07531 6.29389C3.1941 6.94008 2.88525 7.58627 2.31508 7.90462L1.78767 8.19445C0.984685 8.64109 0.751865 9.69115 1.29353 10.4324L1.64988 10.917C2.03475 11.4492 2.04425 12.1666 1.66414 12.6988L1.31728 13.1882C0.785125 13.9389 1.0322 14.9842 1.84469 15.4166L2.37685 15.7017C2.95652 16.0105 3.27012 16.6567 3.16084 17.3029L3.06106 17.8969C2.90901 18.8044 3.58371 19.6406 4.50549 19.6786L5.10417 19.7024C5.75986 19.7309 6.32528 20.1728 6.50584 20.8047L6.67213 21.3844C6.92871 22.2682 7.898 22.7243 8.74375 22.3632L9.29492 22.1256C9.89835 21.8643 10.5968 22.0211 11.0387 22.5105L11.4378 22.9571C12.0507 23.6413 13.1246 23.6318 13.728 22.9381L14.1224 22.4867C14.5547 21.9926 15.2532 21.8263 15.8566 22.0781L16.4125 22.3062C17.2631 22.6578 18.2276 22.1826 18.4699 21.2941L18.6267 20.7144C18.7978 20.0825 19.3584 19.6311 20.0141 19.5931L20.6128 19.5598C21.5298 19.5076 22.195 18.6618 22.0287 17.7591L21.9194 17.1699C21.8007 16.5237 22.1095 15.8775 22.6797 15.5592L23.2071 15.2693C24.0148 14.8274 24.2476 13.7774 23.706 13.0361ZM15.3292 15.6304C14.8968 16.1531 14.3362 16.5047 13.6852 16.6852C13.4001 16.7613 13.2719 16.9133 13.2861 17.2079C13.3004 17.4977 13.2861 17.7923 13.2861 18.0822C13.2861 18.3435 13.1531 18.4813 12.8965 18.486C12.5829 18.4955 12.2693 18.4955 11.9557 18.486C11.6801 18.4813 11.5518 18.3245 11.5471 18.0584C11.5423 17.8446 11.5423 17.6308 11.5423 17.4217C11.5376 16.9513 11.5233 16.9323 11.0719 16.861C10.4923 16.7708 9.92686 16.6377 9.39945 16.3811C8.98608 16.1816 8.94331 16.0771 9.0621 15.6399C9.15238 15.3168 9.2379 14.989 9.34243 14.6706C9.46122 14.3 9.561 14.2525 9.9031 14.4283C10.4875 14.7324 11.11 14.9035 11.7609 14.9842C12.179 15.0365 12.5924 14.9937 12.982 14.8227C13.709 14.5043 13.823 13.6633 13.2101 13.1597C13.001 12.9886 12.7635 12.8603 12.5164 12.7511C11.8797 12.4707 11.2145 12.2569 10.6158 11.8958C9.64177 11.3114 9.02409 10.5131 9.09536 9.32529C9.17613 7.98539 9.93636 7.14914 11.1622 6.70251C11.6706 6.5172 11.6706 6.52671 11.6754 5.99455C11.6754 5.81399 11.6754 5.63819 11.6754 5.45764C11.6849 5.05852 11.7514 4.98725 12.1505 4.97774C12.2741 4.97299 12.3976 4.97774 12.5211 4.97774C13.3669 4.97774 13.3669 4.97774 13.3716 5.8235C13.3764 6.42217 13.3716 6.42693 13.9703 6.5172C14.4265 6.58847 14.8636 6.72626 15.2865 6.91157C15.5193 7.0161 15.6096 7.17765 15.5383 7.42472C15.4338 7.79058 15.334 8.16119 15.2152 8.5223C15.1059 8.8644 14.9966 8.91667 14.664 8.75512C14.0036 8.43678 13.3099 8.30374 12.5781 8.34175C12.3881 8.35125 12.198 8.37976 12.0222 8.45578C11.3903 8.73136 11.2858 9.42982 11.8274 9.85745C12.0983 10.076 12.4118 10.2328 12.7349 10.3659C13.2956 10.5987 13.8563 10.8172 14.3884 11.1118C16.0657 12.0574 16.5218 14.1812 15.3292 15.6304Z" fill="#0B2343"/>
</svg>
