<svg width="32" height="32" viewBox="0 0 32 32" fill="none" xmlns="http://www.w3.org/2000/svg">
<path d="M26.2272 16.4118C18.4212 8.68067 20.0228 10.2673 15.1506 5.44C14.8437 5.13315 14.4471 5.208 13.9906 5.208L5.6083 5.24541C5.17422 5.25289 4.80005 5.59718 4.80005 6.0612L4.84495 15.0347C4.84495 15.2517 4.93477 15.4538 5.08445 15.6035C5.26407 15.7756 16.176 26.6276 16.4005 26.7324C16.7373 26.8896 17.0965 26.7848 17.306 26.5678L26.2346 17.5568C26.549 17.235 26.549 16.7261 26.2272 16.4118Z" stroke="#0074B8" stroke-miterlimit="10" stroke-linecap="round" stroke-linejoin="round"/>
<path d="M9.6647 12.011C10.7476 12.011 11.6255 11.1331 11.6255 10.0502C11.6255 8.96725 10.7476 8.08936 9.6647 8.08936C8.58176 8.08936 7.70386 8.96725 7.70386 10.0502C7.70386 11.1331 8.58176 12.011 9.6647 12.011Z" stroke="#0074B8" stroke-miterlimit="10" stroke-linecap="round" stroke-linejoin="round"/>
<path d="M17.9122 21.3138C17.1863 22.0397 16.1086 22.1445 15.5099 21.5458C14.9111 20.9471 15.0159 19.8693 15.7419 19.1434C16.4678 18.4174 17.5455 18.3126 18.1442 18.9113C18.743 19.5101 18.6382 20.5878 17.9122 21.3138Z" stroke="#0074B8" stroke-linecap="round" stroke-linejoin="round"/>
<path d="M17.5605 15.1319C16.8345 15.8579 15.7568 15.9626 15.1581 15.3639C14.5593 14.7652 14.6641 13.6874 15.3901 12.9615C16.116 12.2355 17.1938 12.1307 17.7925 12.7295C18.3912 13.3282 18.2864 14.3984 17.5605 15.1319Z" stroke="#0074B8" stroke-linecap="round" stroke-linejoin="round"/>
<path d="M21.2503 16.3518L11.955 17.8337" stroke="#0074B8" stroke-linecap="round" stroke-linejoin="round"/>
</svg>
