<svg xmlns="http://www.w3.org/2000/svg" viewBox="0 0 20.7 20.6"><g id="Layer_2" data-name="Layer 2"><g id="Layer_1-2" data-name="Layer 1"><path d="M11.3,20.6a.75.75,0,0,1-.5-.1c-.1-.1-.2-.1-9.4-9.2l-1-1A1.49,1.49,0,0,1,0,9.4V1.2A1.16,1.16,0,0,1,1.2,0H9a1.47,1.47,0,0,1,1.2.4l10.1,10a1.27,1.27,0,0,1,.4.9,1.22,1.22,0,0,1-.4.9l-8.2,8A1.23,1.23,0,0,1,11.3,20.6ZM9.2.9H1.1a.22.22,0,0,0-.2.2V9.3c0,.1,0,.1.1.2l1,1c2.2,2.2,8.8,8.7,9.2,9.1a.35.35,0,0,1,.2-.1l8.1-8.2a.35.35,0,0,0,.1-.2.31.31,0,0,0-.1-.2h0L9.4.9Z"/><path d="M4.8,7.1A2.26,2.26,0,0,1,2.5,4.8,2.26,2.26,0,0,1,4.8,2.5,2.26,2.26,0,0,1,7.1,4.8,2.26,2.26,0,0,1,4.8,7.1Zm0-3.6A1.3,1.3,0,1,0,6.1,4.8,1.32,1.32,0,0,0,4.8,3.5Z"/><path d="M11.1,16.1a2.11,2.11,0,0,1-1.3-.5,2.17,2.17,0,0,1,.2-2.9,2.29,2.29,0,0,1,1.6-.7h0a2.11,2.11,0,0,1,1.3.5,2.17,2.17,0,0,1-.2,2.9h0A2.29,2.29,0,0,1,11.1,16.1Zm.6-3.1a1.49,1.49,0,0,0-.9.4c-.5.5-.6,1.1-.2,1.5s1,.2,1.5-.2h0c.5-.5.6-1.1.2-1.5a1,1,0,0,0-.6-.2Z"/><path d="M10.7,10.5A2.11,2.11,0,0,1,9.4,10a2.17,2.17,0,0,1,.2-2.9,2,2,0,0,1,2.9-.2,2.17,2.17,0,0,1-.2,2.9h0A2.36,2.36,0,0,1,10.7,10.5Zm.6-3.1a1.09,1.09,0,0,0-.9.4c-.5.5-.6,1.1-.2,1.5s1,.2,1.5-.2.6-1.1.2-1.5A.73.73,0,0,0,11.3,7.4Z"/><path d="M6.9,12.4c-.2,0-.5-.2-.5-.4a.55.55,0,0,1,.4-.6l8.5-1.3a.51.51,0,0,1,.2,1L6.9,12.4Z"/></g></g></svg>