<svg width="40" height="40" viewBox="0 0 40 40" fill="none" xmlns="http://www.w3.org/2000/svg">
<g clip-path="url(#clip0_3182_725)">
<path d="M40 8.79998C39.9333 8.66664 39.8667 8.59998 39.8 8.53331L28 3.46664C27.8 3.39998 27.6 3.46664 27.4667 3.59998L23.0667 10.3333L21.3333 10.5333C21.0667 9.13331 19.8 8.06664 18.3333 8.06664C16.6 8.06664 15.2667 9.46665 15.2667 11.1333C15.2667 11.2 15.2667 11.2 15.2667 11.2666L11.4 11.7333L10.8 9.93331C10.7333 9.79998 10.6667 9.73331 10.6 9.66664L0.600007 4.86664C0.400007 4.86664 0.266674 4.86664 0.13334 4.99998C6.9933e-06 5.13331 -0.0666597 5.33331 0.0666737 5.46664L4.00001 13.2V32.6666C4.00001 32.8 4.06667 32.9333 4.20001 33L13.7333 39.8666C13.8 39.9333 13.8667 39.9333 14 39.9333C14 39.9333 14 39.9333 14.0667 39.9333L34.4 37.6666C34.4667 37.6666 34.4667 37.6 34.5333 37.6C34.6 37.6 34.6 37.5333 34.6667 37.5333C34.7333 37.4666 34.7333 37.4666 34.7333 37.4C34.7333 37.3333 34.8 37.3333 34.8 37.2666V17.7333L40.1333 9.13331C40 9.06664 40 8.93331 40 8.79998ZM22.4667 18.6C22.2 18.3333 22.0667 18 22.0667 17.6666C22.0667 16.9333 22.6667 16.3333 23.4 16.3333C24.1333 16.3333 24.7333 16.9333 24.7333 17.6666C24.7333 17.9333 24.6667 18.2 24.4667 18.4L22.4667 18.6ZM23.8 15.5333V11.4666L33.0667 17.3333L25.4 18.2C25.4667 18 25.5333 17.8 25.5333 17.6C25.4667 16.6 24.7333 15.7333 23.8 15.5333ZM18.4 8.93331C19.6667 8.93331 20.6667 9.93331 20.6667 11.2C20.6667 12.4666 19.6667 13.4666 18.4 13.4666C17.1333 13.4666 16.1333 12.4666 16.1333 11.2C16.1333 9.93331 17.1333 8.93331 18.4 8.93331ZM15.4667 12.0666C15.8667 13.3333 17 14.2666 18.4 14.2666C20.0667 14.2666 21.3333 13 21.4667 11.4L23 11.2V15.5333C22 15.7333 21.2667 16.6 21.2667 17.6C21.2667 18 21.4 18.3333 21.5333 18.6666L14.2 19.4666L11.7333 12.4666L15.4667 12.0666ZM10.1333 10.4L13.1333 18.8666L4.66667 12.8L1.33334 6.19998L10.1333 10.4ZM4.80001 13.8666L13.5333 20.2V38.8L4.80001 32.4666V13.8666ZM14.3333 20.3333L24.7333 19.1333L33.8 18.1333V36.9333L14.2667 39.1333V20.3333H14.3333ZM34.0667 17.0666L23.9333 10.6L28 4.33331L39 9.13331L34.0667 17.0666Z" fill="#0B2343"/>
<path d="M13.0667 4.26667C14.2667 4.26667 15.2 3.33333 15.2 2.13333C15.2 0.933333 14.2 0 13.0667 0C11.9333 0 10.9333 0.933333 10.9333 2.13333C10.9333 3.33333 11.8667 4.26667 13.0667 4.26667ZM13.0667 0.8C13.8 0.8 14.4 1.4 14.4 2.13333C14.4 2.86667 13.8 3.46667 13.0667 3.46667C12.3333 3.46667 11.7333 2.86667 11.7333 2.13333C11.7333 1.4 12.3333 0.8 13.0667 0.8Z" fill="#0B2343"/>
<path d="M22.4 6.79998C23.3333 6.79998 24.1333 5.99998 24.1333 5.06665C24.1333 4.13331 23.3333 3.33331 22.4 3.33331C21.4 3.33331 20.6667 4.13331 20.6667 5.06665C20.6667 5.99998 21.4 6.79998 22.4 6.79998ZM22.4 4.19998C22.9333 4.19998 23.3333 4.59998 23.3333 5.13331C23.3333 5.66665 22.8667 5.99998 22.4 5.99998C21.8667 5.99998 21.4667 5.59998 21.4667 5.06665C21.4667 4.53331 21.8667 4.19998 22.4 4.19998Z" fill="#0B2343"/>
<path d="M16.4 17.3333C16.9334 17.3333 17.3334 16.9333 17.3334 16.4C17.3334 15.8667 16.9334 15.4667 16.4 15.4667C15.8667 15.4667 15.4667 15.8667 15.4667 16.4C15.4667 16.9333 15.9334 17.3333 16.4 17.3333ZM16.4 16.3333C16.4667 16.3333 16.5334 16.4 16.5334 16.4667C16.5334 16.6 16.3334 16.6 16.3334 16.4667C16.3334 16.4 16.3334 16.3333 16.4 16.3333Z" fill="#0B2343"/>
</g>
<defs>
<clipPath id="clip0_3182_725">
<rect width="40" height="40" fill="white"/>
</clipPath>
</defs>
</svg>
