<svg width="40" height="40" viewBox="0 0 40 40" fill="none" xmlns="http://www.w3.org/2000/svg">
<path d="M28.38 14.48C29.52 14.66 30.72 14.33 31.59 13.45C33.04 12 33.04 9.65996 31.59 8.20996C30.14 6.75996 27.8 6.75996 26.35 8.20996C25.47 9.08996 25.14 10.29 25.32 11.42L19.9 6L14.64 11.26C15.69 11.18 16.76 11.5199 17.56 12.3199C19.01 13.7699 19.01 16.1101 17.56 17.5601C16.11 19.0101 13.77 19.0101 12.32 17.5601C11.52 16.7601 11.18 15.68 11.26 14.64L6 19.9L19.89 33.79L33.78 19.9L28.38 14.48Z" stroke="#0B2343" stroke-miterlimit="10" stroke-linecap="round" stroke-linejoin="round"/>
</svg>
