<svg width="40" height="40" viewBox="0 0 40 40" fill="none" xmlns="http://www.w3.org/2000/svg">
<path d="M19.9999 2C10.0719 2 2 10.0721 2 20.0001C2 29.9281 10.0719 38 19.9999 38C29.9279 38 37.9999 29.9281 37.9999 20.0001C37.9999 10.0721 29.9279 2 19.9999 2Z" stroke="#0B2343" stroke-miterlimit="10" stroke-linecap="round" stroke-linejoin="round"/>
<path d="M20.0078 10.202C16.8358 10.202 14.8598 11.97 14.6518 15.246H15.5878C15.7958 12.568 17.4078 11.112 20.0078 11.112C22.4778 11.112 24.2198 12.568 24.2198 14.726C24.2198 16.26 23.8298 17.066 21.6458 18.912C19.4878 20.758 18.9678 21.772 18.9678 24.58V25.23H19.8258C19.8258 22.084 20.2418 21.278 22.3218 19.51C24.7138 17.534 25.2338 16.546 25.2338 14.726C25.2338 12.074 23.0498 10.202 20.0078 10.202ZM19.9818 29V26.92H18.8118V29H19.9818Z" fill="#0B2343"/>
</svg>
