<svg width="40" height="40" viewBox="0 0 40 40" fill="none" xmlns="http://www.w3.org/2000/svg">
<path d="M22.2354 23.8109C22.2057 23.9221 22.2205 24.0334 22.2798 24.1298L25.5647 29.476C25.6759 29.6614 25.9206 29.7208 26.1134 29.6169C28.8348 28.0375 31 25.0269 31 21.1266C31 20.8003 30.9778 20.4815 30.5922 20.4741L24.3264 20.3629C24.2152 20.3629 24.1039 20.4073 24.0298 20.4889" stroke="#0B2343" stroke-linecap="round" stroke-linejoin="round"/>
<path d="M22.2865 17.5526C22.3977 17.5229 22.4866 17.4561 22.5385 17.3523L25.5417 11.8355C25.6455 11.6427 25.5788 11.4055 25.3934 11.2943C22.4348 9.55171 18.4009 9.55163 15.4126 11.398C15.2273 11.5092 15.1679 11.7466 15.2718 11.9394L18.3194 17.4265C18.3861 17.5525 18.5196 17.6341 18.6753 17.6341" stroke="#0B2343" stroke-linecap="round" stroke-linejoin="round"/>
<path d="M16.948 20.5557C16.8665 20.4742 16.7552 20.4222 16.644 20.4297L10.3931 20.6002C10.1632 20.6076 10.0001 20.7485 10.0001 21.1266C9.98525 25.0196 12.1579 28.0672 14.9608 29.6763C15.1462 29.7875 15.3908 29.7282 15.5095 29.5354L18.7499 24.1595C18.8092 24.0631 18.824 23.9444 18.7944 23.8332" stroke="#0B2343" stroke-linecap="round" stroke-linejoin="round"/>
<path d="M20.4855 18.9541C19.5364 18.9541 18.8023 19.7327 18.8245 20.6151C18.8097 21.5049 19.5215 22.2761 20.4855 22.2983C21.4346 22.2835 22.1613 21.5568 22.1613 20.6151C22.1613 19.6882 21.4346 18.9541 20.4855 18.9541Z" stroke="#0B2343" stroke-linecap="round" stroke-linejoin="round"/>
</svg>
