<svg width="40" height="40" viewBox="0 0 40 40" fill="none" xmlns="http://www.w3.org/2000/svg">
<path d="M27.1095 12.3671C26.409 10.0927 24.2165 8.28238 21.0233 8.68266C16.7931 5.09829 10.4704 7.54545 9.56064 13.1404C4.8027 16.0879 7.2772 22.2378 12.0715 22.2378H27.719C30.6029 22.2378 33.0501 19.9816 33.0501 17.2888C33.041 14.5414 30.43 12.0487 27.1095 12.3671Z" stroke="#0B2343" stroke-miterlimit="10" stroke-linecap="round" stroke-linejoin="round"/>
<path d="M15.2192 22.2925L14.6825 23.2386" stroke="#0B2343" stroke-linecap="round" stroke-linejoin="round"/>
<path d="M13.3179 25.6492L11.7349 28.4603" stroke="#0B2343" stroke-linecap="round" stroke-linejoin="round" stroke-dasharray="1.54 1.54"/>
<path d="M11.0526 29.6614L10.5249 30.6075" stroke="#0B2343" stroke-linecap="round" stroke-linejoin="round"/>
<path d="M20.2592 22.3015L19.7224 23.2476" stroke="#0B2343" stroke-linecap="round" stroke-linejoin="round"/>
<path d="M17.821 26.5498L15.6194 30.398" stroke="#0B2343" stroke-linecap="round" stroke-linejoin="round" stroke-dasharray="2.12 2.12"/>
<path d="M14.6734 32.054L14.1276 33.0001" stroke="#0B2343" stroke-linecap="round" stroke-linejoin="round"/>
<path d="M25.2627 22.3015L24.7259 23.2476" stroke="#0B2343" stroke-linecap="round" stroke-linejoin="round"/>
<path d="M23.3431 25.6584L21.733 28.4605" stroke="#0B2343" stroke-linecap="round" stroke-linejoin="round" stroke-dasharray="1.55 1.55"/>
<path d="M21.0416 29.6704L20.4957 30.6075" stroke="#0B2343" stroke-linecap="round" stroke-linejoin="round"/>
</svg>
