<svg width="40" height="40" viewBox="0 0 40 40" fill="none" xmlns="http://www.w3.org/2000/svg">
<path d="M12.54 9.12988H13.84" stroke="#0B2343" stroke-linecap="round" stroke-linejoin="round"/>
<path d="M18.51 9.12988H23.1801" stroke="#0B2343" stroke-linecap="round" stroke-linejoin="round" stroke-dasharray="1.79 1.79"/>
<path d="M25.51 9.12988H26.82" stroke="#0B2343" stroke-linecap="round" stroke-linejoin="round"/>
<path d="M17.69 20.99H12.97L11.1801 19.11V10.8201L12.4901 9.13L11.1801 7.43005V6" stroke="#0B2343" stroke-linecap="round" stroke-linejoin="round"/>
<path d="M28.13 6V7.43005L26.82 9.13L28.13 10.8201V19.11L26.9 20.99H21.61" stroke="#0B2343" stroke-linecap="round" stroke-linejoin="round"/>
<path d="M30.13 6H9" stroke="#0B2343" stroke-linecap="round" stroke-linejoin="round"/>
<path d="M21.2901 24.7499V19.0599C21.2901 16.6499 18.07 16.6499 18.07 19.0599V25.1599C18.07 25.1599 15.3201 29.4199 17.9901 34.7399" stroke="#0B2343" stroke-linecap="round" stroke-linejoin="round"/>
<path d="M25.7 20.99C25.7 20.99 27.17 23.56 25.16 28.98C24.15 31.69 23.79 34.74 23.79 34.74" stroke="#0B2343" stroke-linecap="round" stroke-linejoin="round"/>
<path d="M17.6601 24.1H14.3001C12.2401 24.1 12.2401 20.99 14.3001 20.99H18.06" stroke="#0B2343" stroke-linecap="round" stroke-linejoin="round"/>
<path d="M17.22 27.1902H15.39C13.52 27.1902 13.5 24.1001 15.39 24.1001H18.07" stroke="#0B2343" stroke-linecap="round" stroke-linejoin="round"/>
<path d="M16.81 13.4299C16.81 14.4199 16.2 15.21 15.44 15.21C14.68 15.21 14.07 14.4099 14.07 13.4299C14.07 12.4399 14.68 11.6499 15.44 11.6499C16.2 11.6499 16.81 12.4499 16.81 13.4299Z" stroke="#0B2343" stroke-linecap="round" stroke-linejoin="round"/>
<path d="M21.82 11.6499H23.91L22.14 15.2198" stroke="#0B2343" stroke-linecap="round" stroke-linejoin="round"/>
<path d="M18.25 11.6401H20.3701L19 13.3302C19 13.3302 20.5201 13.2102 20.3701 14.4202C20.2201 15.6002 18.51 15.3301 18.13 14.6301" stroke="#0B2343" stroke-miterlimit="10" stroke-linecap="round" stroke-linejoin="round"/>
</svg>
