<svg width="40" height="40" viewBox="0 0 40 40" fill="none" xmlns="http://www.w3.org/2000/svg">
<path d="M27.2929 32.9998H13.4336C13.1936 32.9998 13 32.8062 13 32.5662V9.53184C13 9.3615 13.1007 9.21439 13.24 9.14471L15.4699 7.11614C15.6325 6.96129 15.888 6.96129 16.0583 7.11614L18.0714 8.95114L20.0768 7.11614C20.2394 6.96129 20.4949 6.96129 20.6652 7.11614L22.6783 8.95114L24.6836 7.11614C24.8462 6.96129 25.1017 6.96129 25.2721 7.11614L27.5329 9.17568C27.6568 9.25311 27.742 9.38473 27.742 9.53959V32.5739C27.7265 32.8062 27.5329 32.9998 27.2929 32.9998ZM13.8672 32.1326H26.8593V9.74089L24.9701 8.02203L22.957 9.84929C22.7944 10.0041 22.5389 10.0041 22.3686 9.84929L20.3555 8.01429L18.3502 9.84929C18.1876 10.0041 17.9321 10.0041 17.7617 9.84929L15.7486 8.01429L13.8594 9.74089V32.1326H13.8672Z" fill="#0B2343"/>
<path d="M22.7248 19.3884C22.7248 17.9405 21.0369 17.445 20.4872 17.2901C19.318 16.9262 18.8612 16.5701 18.8612 16.0203C18.8612 15.3312 19.5348 14.766 20.3555 14.766C20.8975 14.766 21.4008 15.0138 21.6718 15.4164C21.8034 15.6177 22.0744 15.6719 22.2757 15.5403C22.477 15.4087 22.5312 15.1377 22.3996 14.9364C22.0512 14.4021 21.4627 14.0382 20.7969 13.9298V13.4033C20.7969 13.1633 20.6033 12.9697 20.3633 12.9697C20.1233 12.9697 19.9297 13.1633 19.9297 13.4033V13.9298C18.8302 14.1156 18.0018 14.9751 18.0018 16.0126C18.0018 17.414 19.5116 17.8863 20.2394 18.1186C21.6873 18.5444 21.8576 19.0477 21.8576 19.3884C21.8576 20.0775 21.184 20.6427 20.3633 20.6427C19.8058 20.6427 18.9851 20.2943 18.4586 19.8374C18.2805 19.6826 18.0018 19.6981 17.8469 19.8762C17.6921 20.0542 17.7076 20.333 17.8856 20.4878C18.4508 20.9834 19.2329 21.3473 19.9219 21.4634V21.9899C19.9219 22.2299 20.1155 22.4235 20.3555 22.4235C20.5956 22.4235 20.7891 22.2299 20.7891 21.9899V21.4634C21.8963 21.2853 22.7248 20.4259 22.7248 19.3884Z" fill="#0B2343"/>
<path d="M22.9725 26.0007H17.754C17.5139 26.0007 17.3204 25.8072 17.3204 25.5671C17.3204 25.3271 17.5139 25.1335 17.754 25.1335H22.9725C23.2125 25.1335 23.4061 25.3271 23.4061 25.5671C23.4061 25.8072 23.2125 26.0007 22.9725 26.0007Z" fill="#0B2343"/>
<path d="M22.9725 28.6098H17.754C17.5139 28.6098 17.3204 28.4163 17.3204 28.1763C17.3204 27.9362 17.5139 27.7427 17.754 27.7427H22.9725C23.2125 27.7427 23.4061 27.9362 23.4061 28.1763C23.4061 28.4163 23.2125 28.6098 22.9725 28.6098Z" fill="#0B2343"/>
</svg>
