<svg width="40" height="40" viewBox="0 0 40 40" fill="none" xmlns="http://www.w3.org/2000/svg">
<path d="M19.5297 32.3466H8.66342C7.20042 32.3466 6 31.1587 6 29.6832V13.7402C6 12.2772 7.18791 11.0768 8.66342 11.0768H32.1965C33.6595 11.0768 34.8599 12.2647 34.8599 13.7402V29.6832C34.8599 31.1462 33.672 32.3466 32.1965 32.3466L30.4334 32.3591" stroke="#0B2343" stroke-miterlimit="10" stroke-linecap="round" stroke-linejoin="round"/>
<path d="M16.0159 8.57588V8.11323C16.0159 6.95033 17.0162 6 18.2416 6H22.5931C23.8311 6 24.8189 6.95033 24.8189 8.11323V8.57588" stroke="#0B2343" stroke-miterlimit="10" stroke-linecap="round" stroke-linejoin="round"/>
<path d="M30.2083 23.2686C30.2083 26.1446 24.969 34.0723 24.969 34.0723C24.969 34.0723 19.7297 26.1571 19.7297 23.2686C19.7297 20.3926 22.0805 18.0543 24.969 18.0543C27.8575 18.0668 30.2083 20.3926 30.2083 23.2686Z" stroke="#0B2343" stroke-miterlimit="10" stroke-linecap="round" stroke-linejoin="round"/>
<path d="M24.9689 24.1812C24.2561 24.1812 23.6685 23.606 23.6685 22.8932C23.6685 22.1805 24.2436 21.6053 24.9689 21.6053C25.6816 21.6053 26.2693 22.1805 26.2693 22.8932C26.2568 23.606 25.6816 24.1812 24.9689 24.1812Z" stroke="#0B2343" stroke-miterlimit="10" stroke-linecap="round" stroke-linejoin="round"/>
</svg>
