<svg id="Layer_1" data-name="Layer 1" xmlns="http://www.w3.org/2000/svg" viewBox="0 0 27.22217 24.7251"><defs><style>.cls-1{fill:#e91b2f;}</style></defs><path class="cls-1" d="M24.38867,25.22537H3.81885A3.32217,3.32217,0,0,1,.93359,20.26932L11.21436,2.178a3.32693,3.32693,0,0,1,5.7788,0l10.29,18.09033a3.32114,3.32114,0,0,1-2.89453,4.957ZM14.10352,1.50027a2.29656,2.29656,0,0,0-2.02,1.17188L1.80322,20.76248a2.3229,2.3229,0,0,0,2.01563,3.46289H24.38867a2.32129,2.32129,0,0,0,2.02539-3.46289h0L16.124,2.67215A2.29619,2.29619,0,0,0,14.10352,1.50027Z" transform="translate(-0.49882 -0.50027)"/><path class="cls-1" d="M14.10889,16.4949a.49971.49971,0,0,1-.5-.5V7.35477a.5.5,0,0,1,1,0V15.9949A.49972.49972,0,0,1,14.10889,16.4949Z" transform="translate(-0.49882 -0.50027)"/><path class="cls-1" d="M14.10889,20.28494a.49971.49971,0,0,1-.5-.5v-.21973a.5.5,0,0,1,1,0v.21973A.49972.49972,0,0,1,14.10889,20.28494Z" transform="translate(-0.49882 -0.50027)"/></svg>