<svg width="40" height="40" viewBox="0 0 40 40" fill="none" xmlns="http://www.w3.org/2000/svg">
<path d="M20.6798 15.87C18.0998 15.71 16.0098 13.56 16.0098 10.94C16.0098 8.21 18.2198 6 20.9498 6C23.6798 6 25.8898 8.21 25.8898 10.94C25.8898 12.08 25.5099 13.19 24.8599 14.03" stroke="#0B2343" stroke-miterlimit="10" stroke-linecap="round" stroke-linejoin="round"/>
<path d="M29.4698 18.95C29.4698 21.68 27.2598 23.89 24.5298 23.89C21.7998 23.89 19.5898 21.68 19.5898 18.95C19.5898 16.22 21.7998 14.01 24.5298 14.01C27.2598 14.01 29.4698 16.23 29.4698 18.95Z" stroke="#0B2343" stroke-miterlimit="10" stroke-linecap="round" stroke-linejoin="round"/>
<path d="M22.79 20.86C23.26 21.27 23.9801 21.57 24.5001 21.57C25.3301 21.57 26.01 20.98 26.01 20.25C26.01 19.52 25.2901 19.16 24.5001 18.93C23.6801 18.67 22.9901 18.34 22.9901 17.61C22.9901 16.88 23.6701 16.29 24.5001 16.29C25.0601 16.29 25.5501 16.56 25.8101 16.96" stroke="#0B2343" stroke-miterlimit="10" stroke-linecap="round" stroke-linejoin="round"/>
<path d="M24.5 15.57V16.29" stroke="#0B2343" stroke-miterlimit="10" stroke-linecap="round" stroke-linejoin="round"/>
<path d="M24.5 21.57V22.3" stroke="#0B2343" stroke-miterlimit="10" stroke-linecap="round" stroke-linejoin="round"/>
<path d="M19.5298 12.6C19.9298 12.95 20.5499 13.21 20.9999 13.21C21.7099 13.21 22.2898 12.7 22.2898 12.08C22.2898 11.46 21.6699 11.15 20.9999 10.95C20.2999 10.73 19.7098 10.44 19.7098 9.82001C19.7098 9.20001 20.2899 8.69 20.9999 8.69C21.4799 8.69 21.8999 8.92001 22.1199 9.26001" stroke="#0B2343" stroke-miterlimit="10" stroke-linecap="round" stroke-linejoin="round"/>
<path d="M21 8.06V8.67999" stroke="#0B2343" stroke-miterlimit="10" stroke-linecap="round" stroke-linejoin="round"/>
<path d="M21 13.21V13.83" stroke="#0B2343" stroke-miterlimit="10" stroke-linecap="round" stroke-linejoin="round"/>
<path d="M11 27.35C13.63 26.96 17.0599 26.66 19.1599 27.32L26.0299 29.49C27.9899 30.11 27.1199 33.3 25.1599 32.68L17.9399 30.41" stroke="#0B2343" stroke-linecap="round" stroke-linejoin="round"/>
<path d="M27.0099 30.42L32.36 27.8C34.3 26.85 35.5199 29.91 33.6899 30.81C25.5599 34.79 26.2 34.81 22.97 34.81C21.1 34.81 18.3199 34.49 14.7699 32.79C14.0299 32.44 12.47 32.7 11 33.12" stroke="#0B2343" stroke-linecap="round" stroke-linejoin="round"/>
<path d="M11 25.88H6V34.88H11V25.88Z" stroke="#0B2343" stroke-linecap="round" stroke-linejoin="round"/>
</svg>
