<svg id="Capa_1" data-name="Capa 1" xmlns="http://www.w3.org/2000/svg" viewBox="0 0 29.59 29.87"><title>icono_reembolso</title><path d="M20.17,8.16a5.76,5.76,0,0,0,.69-2.7,5.44,5.44,0,1,0-6.54,5.29,5.35,5.35,0,0,0-.74,2.72,5.44,5.44,0,1,0,6.59-5.31ZM11,5.46a4.44,4.44,0,1,1,8.87,0A4.61,4.61,0,0,1,19.07,8H19a5.44,5.44,0,0,0-4,1.82A4.46,4.46,0,0,1,11,5.46ZM19,17.9a4.44,4.44,0,1,1,4.43-4.43A4.44,4.44,0,0,1,19,17.9Z" transform="translate(0.02 -0.02)" fill="#221e1f"/><path d="M19.13,13c-1-.32-1.15-.59-1.15-.84a.92.92,0,0,1,1-.82,1.07,1.07,0,0,1,.89.44.5.5,0,0,0,.69.14.49.49,0,0,0,.14-.69,2,2,0,0,0-1.22-.83v-.28a.5.5,0,0,0-.5-.5.5.5,0,0,0-.5.5v.28A1.86,1.86,0,0,0,17,12.13c0,1.21,1.3,1.62,1.86,1.8,1.15.33,1.15.7,1.15.84a.93.93,0,0,1-1,.82A2.49,2.49,0,0,1,17.6,15a.5.5,0,1,0-.65.75,3.63,3.63,0,0,0,1.54.78v.29a.5.5,0,0,0,.5.5.51.51,0,0,0,.5-.5v-.3A1.86,1.86,0,0,0,21,14.77C21,13.51,19.59,13.1,19.13,13Z" transform="translate(0.02 -0.02)" fill="#221e1f"/><path d="M16,8.34V8.15a1.66,1.66,0,0,0,1.3-1.56C17.28,5.46,16,5.1,15.63,5c-.83-.26-.94-.47-.94-.65a.73.73,0,0,1,.79-.64.85.85,0,0,1,.71.35.5.5,0,0,0,.69.14A.49.49,0,0,0,17,3.49a1.79,1.79,0,0,0-1-.73V2.58a.5.5,0,0,0-.5-.5.5.5,0,0,0-.5.5v.19a1.65,1.65,0,0,0-1.29,1.56c0,1.09,1.15,1.45,1.65,1.61.94.27.94.55.94.65a.73.73,0,0,1-.8.63,2,2,0,0,1-1.14-.49.49.49,0,0,0-.7,0,.51.51,0,0,0,0,.71A3.24,3.24,0,0,0,15,8.15v.19a.51.51,0,0,0,.5.5A.5.5,0,0,0,16,8.34Z" transform="translate(0.02 -0.02)" fill="#221e1f"/><path d="M28.6,22a1.88,1.88,0,0,0-2-.09L21.7,24.27a2,2,0,0,0-1-.74L13.8,21.36c-1.69-.53-4.32-.55-7.82-.07v-.9a.5.5,0,0,0-.5-.5h-5a.5.5,0,0,0-.5.5v9a.51.51,0,0,0,.5.5h5a.5.5,0,0,0,.5-.5V28A5.53,5.53,0,0,1,9,27.75a19.28,19.28,0,0,0,8.41,2.07c2.79,0,2.87,0,7.41-2.31l3.53-1.74A2.06,2.06,0,0,0,29.57,24,2.31,2.31,0,0,0,28.6,22ZM5,28.89H1v-8H5Zm23-4-3.53,1.75c-4.42,2.2-4.42,2.2-7,2.2a18.23,18.23,0,0,1-8-2A6,6,0,0,0,6,27V22.3c3.38-.47,6-.47,7.52,0l6.87,2.17A1,1,0,0,1,21,25a.61.61,0,0,0,0,.11s0,0,0,0l0,.08a1.41,1.41,0,0,1-.38,1.3.89.89,0,0,1-.91.17l-7.22-2.28a.5.5,0,0,0-.3,1l7.22,2.27a2.1,2.1,0,0,0,.64.11,1.82,1.82,0,0,0,1.25-.5,2.42,2.42,0,0,0,.69-2.08l5-2.44a.91.91,0,0,1,1,0A1.34,1.34,0,0,1,28.58,24,1.07,1.07,0,0,1,28,24.87Z" transform="translate(0.02 -0.02)" fill="#221e1f"/></svg>