<svg width="25" height="25" viewBox="0 0 25 25" fill="none" xmlns="http://www.w3.org/2000/svg">
<path d="M19.1486 5.30322L17.9425 6.85262C20.5423 8.87551 21.8391 12.1505 21.3272 15.4005C20.9523 17.7853 19.6709 19.8814 17.7193 21.3029C15.7671 22.7237 13.3791 23.3012 10.9943 22.9243C6.07133 22.1492 2.69579 17.5135 3.46965 12.5901C3.84458 10.2051 5.12639 8.10888 7.0782 6.68773C8.78229 5.44721 10.8186 4.85139 12.8952 4.96958L11.1979 6.75017L12.457 7.95173L15.1362 5.13898L15.1369 5.14001L16.3372 3.87962L15.079 2.67935L15.0783 2.67974L12.2666 0L11.0654 1.26039L12.8975 3.00538C10.407 2.88759 7.96766 3.61203 5.92283 5.10092C3.54719 6.83068 1.98734 9.38192 1.53061 12.2854C0.588512 18.2777 4.69675 23.9209 10.6891 24.8639C11.2682 24.9552 11.8471 25 12.4223 25C14.7305 25 16.9732 24.2745 18.8747 22.8897C21.2506 21.1597 22.8102 18.6085 23.2669 15.7057C23.89 11.7507 22.3118 7.76453 19.1486 5.30322Z" fill="#0B2343"/>
<path d="M13.4762 19.6072V19.6068H13.4763V18.4769C14.816 18.3274 16.1193 17.4812 16.1193 15.8746C16.1193 13.6917 14.0896 13.4414 12.607 13.2589C11.6591 13.1456 10.9336 13.0141 10.9336 12.4399C10.9336 11.6415 12.0589 11.5554 12.5429 11.5554C13.2611 11.5554 14.0275 11.8931 14.2879 12.324L14.3635 12.4493L15.8526 11.7602L15.779 11.61C15.224 10.4755 14.2296 10.1473 13.476 10.0148V9.02008H11.7323V10.0106C10.1089 10.25 9.1449 11.151 9.1449 12.4399C9.1449 14.5416 11.0532 14.7549 12.4455 14.911C13.6863 15.0573 14.2639 15.3638 14.2639 15.8746C14.2639 16.8504 12.9125 16.9266 12.4982 16.9266C11.5761 16.9266 10.6871 16.4666 10.4299 15.8557L10.3661 15.7048L8.74829 16.3907L8.8128 16.5415C9.29185 17.6628 10.3256 18.3655 11.7325 18.5316V19.6072H13.4762Z" fill="#0B2343"/>
</svg>
