<svg width="41" height="40" viewBox="0 0 41 40" fill="none" xmlns="http://www.w3.org/2000/svg">
<path d="M30.3691 25.3312L36.3879 21.6191L40.1611 27.7601" stroke="#0B2343" stroke-miterlimit="10" stroke-linecap="round" stroke-linejoin="round"/>
<path d="M36.388 21.6189C35.5478 31.5179 26.871 38.774 16.972 37.9338C7.07308 37.0936 -0.274746 28.3862 0.565442 18.472C1.40563 8.57309 10.113 1.22525 20.0272 2.06544C24.8851 2.4779 29.1318 4.78459 32.0954 8.20645" stroke="#0B2343" stroke-miterlimit="10" stroke-linecap="round" stroke-linejoin="round"/>
<path d="M13.9319 24.8882C15.1234 25.9269 16.9566 26.6907 18.2703 26.6907C20.3784 26.6907 22.1046 25.1937 22.1046 23.3453C22.1046 21.4968 20.2715 20.5803 18.2703 19.9998C16.1928 19.3429 14.436 18.5027 14.436 16.6543C14.436 14.8059 16.1469 13.3088 18.2703 13.3088C19.691 13.3088 20.9436 13.981 21.6005 15.0045" stroke="#0B2343" stroke-miterlimit="10" stroke-linecap="round" stroke-linejoin="round"/>
<path d="M18.2703 10.8188V29.196" stroke="#0B2343" stroke-miterlimit="10" stroke-linecap="round" stroke-linejoin="round"/>
</svg>
