<svg width="40" height="40" viewBox="0 0 40 40" fill="none" xmlns="http://www.w3.org/2000/svg">
<path d="M20.4368 7.84093C20.3749 9.34794 19.095 10.504 17.5983 10.4421C16.0913 10.3801 14.9352 9.10021 14.9971 7.60352C15.0591 6.09651 16.339 4.94044 17.8357 5.00238C19.3427 5.06431 20.5091 6.33392 20.4368 7.84093Z" stroke="#0B2343" stroke-width="1.06952" stroke-miterlimit="10" stroke-linecap="round" stroke-linejoin="round"/>
<path d="M24.896 21.9402L21.3038 19.69L20.9735 16.2528C20.7671 14.5084 19.6833 13.1872 17.9802 13.2594C16.4732 13.3214 15.3068 14.6322 15.2345 16.1496L16.4938 24.2214C16.4938 24.2214 16.6177 25.5323 17.2783 26.0484C17.9389 26.5748 19.5078 26.5955 19.5078 26.5955H27.1874H27.1667L31.7601 34.946" stroke="#0B2343" stroke-width="1.06952" stroke-miterlimit="10" stroke-linecap="round" stroke-linejoin="round"/>
<path d="M9 18.1218H11.4773L15.5648 29.9096H25.0301" stroke="#0B2343" stroke-width="1.06952" stroke-miterlimit="10" stroke-linecap="round" stroke-linejoin="round"/>
</svg>
