<svg width="40" height="40" viewBox="0 0 40 40" fill="none" xmlns="http://www.w3.org/2000/svg">
<path d="M12.421 13.31C11.7957 13.5059 11.1229 13.1546 10.9271 12.5275L9.05459 6.54816C8.85785 5.92283 9.21004 5.25007 9.83537 5.05421C10.4625 4.85836 11.1326 5.20967 11.3293 5.83588L13.2027 11.8161C13.3985 12.4423 13.0464 13.1142 12.421 13.31Z" stroke="#0B2343" stroke-miterlimit="10" stroke-linecap="round" stroke-linejoin="round"/>
<path d="M11.3093 22.6879C11.5148 23.8279 11.7704 25.2234 11.8354 25.4149C11.9452 25.7443 12.8243 28.6232 14.6582 29.6131C16.4911 30.6029 17.5697 30.5985 19.169 30.667H24.1708C24.8277 30.667 25.3635 30.1312 25.3635 29.476C25.3635 28.8182 24.8277 28.2833 24.1708 28.2833H18.2925C17.8929 28.2711 17.0945 28.1946 16.4736 27.7977C15.6111 27.247 14.9146 26.367 14.4193 25.2682C13.9248 24.1686 13.4804 21.547 13.4207 21.0095L12.8375 15.7337C12.7655 15.082 12.1735 14.6077 11.5218 14.6797C10.8702 14.7517 10.3968 15.3437 10.4688 15.9954L11.3093 22.6879Z" stroke="#0B2343" stroke-miterlimit="10" stroke-linecap="round" stroke-linejoin="round"/>
<path d="M19.8056 9.49516C19.9558 10.8758 18.9572 12.1177 17.5757 12.2688C16.1933 12.4189 14.9514 11.4195 14.8021 10.0388C14.6519 8.65728 15.6496 7.4154 17.032 7.26521C18.4135 7.11503 19.6554 8.11275 19.8056 9.49516Z" stroke="#0B2343" stroke-miterlimit="10" stroke-linecap="round" stroke-linejoin="round"/>
<path d="M28.0993 35.0027L26.7925 27.7121C26.7424 27.5127 26.6273 27.0007 26.3551 26.6933C26.1232 26.4325 25.7886 26.2296 25.6507 26.1804C24.032 25.6157 19.1365 26.2252 18.7483 26.1892C18.6869 26.1839 18.2477 26.2164 17.9113 26.1119C17.5758 26.0065 17.4019 25.8475 17.2289 25.6921C16.6009 25.1335 16.1521 23.6896 16.0696 22.8675C15.9352 21.5334 15.4381 17.5417 15.4381 17.5417C15.2906 16.1865 15.8562 15.0421 17.2017 14.8234C18.6359 14.5924 19.6653 15.6033 19.8207 17.0305L20.3046 20.2327L23.7282 22.4266" stroke="#0B2343" stroke-miterlimit="10" stroke-linecap="round" stroke-linejoin="round"/>
<path d="M28.6039 18.3008C27.1548 18.3008 25.9691 17.1142 25.9691 15.666V10.1029C25.9691 8.65467 27.1548 7.46812 28.6039 7.46812C30.0522 7.46812 31.2388 8.65467 31.2388 10.1029V15.666C31.2388 17.1142 30.0522 18.3008 28.6039 18.3008Z" stroke="#0B2343" stroke-miterlimit="10" stroke-linecap="round" stroke-linejoin="round"/>
</svg>
