<svg width="40" height="40" viewBox="0 0 40 40" fill="none" xmlns="http://www.w3.org/2000/svg">
<path d="M22.7195 32.2623H10.9402L9.00917 20.2899C8.91262 19.2278 9.58848 18.3588 10.554 18.1657C11.423 18.0692 12.3885 18.6485 12.5816 19.614V19.7106L14.1264 28.883H22.7195C23.9747 28.883 24.554 29.8485 24.554 30.7175C24.554 31.2002 24.3609 31.5864 24.0712 31.8761C23.8781 31.9726 23.3954 32.2623 22.7195 32.2623ZM11.7126 31.2968H22.7195C23.0092 31.2968 23.2988 31.2002 23.3954 31.1037C23.4919 31.0071 23.5885 30.814 23.5885 30.6209C23.5885 30.2347 23.2988 29.7519 22.7195 29.7519H13.4506L11.7126 19.8071C11.6161 19.3243 11.1333 19.0347 10.7471 19.1312C10.2643 19.2278 9.97469 19.614 9.97469 20.0968L11.7126 31.2968Z" fill="#0B2343"/>
<path d="M17.6989 11.8897C17.6023 11.8897 17.6023 11.8897 17.5058 11.8897C16.7334 11.7931 15.961 11.5034 15.4782 10.9241C14.8989 10.3448 14.6092 9.57241 14.7058 8.8C14.8023 8.02759 15.092 7.25517 15.6713 6.77241C16.2506 6.28966 17.023 6 17.7955 6C18.5679 6.09655 19.3403 6.38621 19.823 6.96552C20.4023 7.54483 20.5955 8.31724 20.5955 9.08966C20.4989 9.86207 20.2092 10.6345 19.6299 11.1172C19.0506 11.6 18.3748 11.8897 17.6989 11.8897ZM17.6023 6.96552C17.1196 6.96552 16.6368 7.15862 16.3472 7.44828C15.961 7.83448 15.6713 8.31724 15.6713 8.8C15.5748 9.86207 16.4437 10.8276 17.5058 10.9241C17.9886 10.9241 18.5679 10.8276 18.9541 10.4414C19.3403 10.0552 19.6299 9.57241 19.6299 9.08966C19.6299 8.6069 19.5334 8.02759 19.1472 7.64138C18.761 7.25517 18.2782 6.96552 17.7955 6.96552C17.6989 6.96552 17.6989 6.96552 17.6023 6.96552Z" fill="#0B2343"/>
<path d="M29.0919 34.0001C28.3195 34.0001 27.7402 33.5173 27.5471 32.7449L26.2919 27.2415C26.1954 26.8553 25.7126 26.4691 25.2298 26.4691H17.6988C16.9264 26.4691 16.3471 25.8897 16.3471 25.1173L14.8988 17.007C14.7057 16.138 14.9954 15.1725 15.5747 14.4966C16.154 13.8208 16.9264 13.4346 17.8919 13.4346C19.3402 13.4346 20.4988 14.4001 20.885 15.8484L22.1402 22.0277H25.4229C27.2574 22.0277 28.8023 23.2828 29.0919 25.0208L30.6367 32.0691C30.7333 32.4553 30.6367 32.938 30.3471 33.3242C30.0574 33.7104 29.5747 34.0001 29.0919 34.0001ZM17.8919 14.4001C17.2161 14.4001 16.6367 14.6897 16.2505 15.1725C15.8643 15.6553 15.6712 16.2346 15.8643 16.8139L17.3126 25.0208C17.3126 25.3104 17.5057 25.5035 17.6988 25.5035H25.2298C26.0988 25.5035 26.9678 26.1794 27.2574 27.0484L28.5126 32.5518C28.5126 32.6484 28.6092 33.0346 29.0919 33.0346C29.285 33.0346 29.4781 32.938 29.5747 32.7449C29.6712 32.6484 29.7678 32.4553 29.6712 32.2622L28.1264 25.2139C27.8367 23.9587 26.7747 22.9932 25.4229 22.9932H22.1402C21.6574 22.9932 21.1747 22.607 21.1747 22.2208L19.9195 16.0415C19.7264 15.0759 18.8574 14.4001 17.8919 14.4001Z" fill="#0B2343"/>
</svg>
