<svg width="40" height="40" viewBox="0 0 40 40" fill="none" xmlns="http://www.w3.org/2000/svg">
<path d="M14.3866 13.2263C13.7675 13.4202 13.1016 13.0724 12.9077 12.4517L11.054 6.53256C10.8593 5.91353 11.2079 5.24754 11.827 5.05366C12.4477 4.85977 13.1111 5.20755 13.3059 5.82745L15.1604 11.7474C15.3543 12.3673 15.0056 13.0324 14.3866 13.2263Z" stroke="#0B2343" stroke-miterlimit="10" stroke-linecap="round" stroke-linejoin="round"/>
<path d="M13.2862 22.5084C13.4897 23.637 13.7427 25.0185 13.807 25.208C13.9157 25.5341 14.786 28.3841 16.6014 29.3639C18.4159 30.3438 19.4836 30.3394 21.0668 30.4072H26.0191C26.6685 30.4072 27.1989 29.8769 27.1989 29.2283C27.1989 28.5771 26.6685 28.0476 26.0191 28.0476H20.1991C19.8035 28.0354 19.0132 27.9598 18.3985 27.5668C17.5447 27.0217 16.8553 26.1505 16.3649 25.0628C15.8763 23.9743 15.4355 21.379 15.3764 20.8469L14.7991 15.6243C14.7278 14.9791 14.1418 14.5096 13.4966 14.5809C12.8515 14.6522 12.3829 15.2382 12.4542 15.8834L13.2862 22.5084Z" stroke="#0B2343" stroke-miterlimit="10" stroke-linecap="round" stroke-linejoin="round"/>
<path d="M21.6968 9.44853C21.8455 10.8153 20.857 12.0447 19.4894 12.1942C18.1209 12.3429 16.8915 11.3535 16.7437 9.98671C16.595 8.61909 17.5827 7.38971 18.9512 7.24104C20.3188 7.09237 21.5482 8.08004 21.6968 9.44853Z" stroke="#0B2343" stroke-miterlimit="10" stroke-linecap="round" stroke-linejoin="round"/>
<path d="M29.9072 34.6992L28.6135 27.4821C28.5639 27.2847 28.45 26.7778 28.1805 26.4735C27.9509 26.2153 27.6197 26.0145 27.4832 25.9658C25.8808 25.4067 21.0346 26.0101 20.6503 25.9745C20.5895 25.9692 20.1547 26.0014 19.8217 25.8979C19.4896 25.7936 19.3175 25.6363 19.1462 25.4824C18.5246 24.9294 18.0803 23.5001 17.9985 22.6863C17.8655 21.3656 17.3734 17.414 17.3734 17.414C17.2274 16.0725 17.7873 14.9396 19.1192 14.7231C20.539 14.4945 21.558 15.4952 21.7119 16.908L22.191 20.078L25.58 22.2498" stroke="#0B2343" stroke-miterlimit="10" stroke-linecap="round" stroke-linejoin="round"/>
</svg>
