<svg width="25" height="25" viewBox="0 0 25 25" fill="none" xmlns="http://www.w3.org/2000/svg">
<g clip-path="url(#clip0_3202_647)">
<path fill-rule="evenodd" clip-rule="evenodd" d="M11.0136 22.9511C11.3573 23 11.6518 23 11.9954 23C14.548 23 17.0515 22.1199 19.0641 20.4577C20.8514 18.9872 22.0852 17.0266 22.6436 14.8183L23.8748 16.8398C23.9729 17.0354 24.1693 17.1332 24.4147 17.1332C24.562 17.1332 24.6602 17.0843 24.7583 16.9865C25.0529 16.7909 25.1511 16.3509 24.9547 16.0576L22.9085 12.7227C22.8785 12.6422 22.8324 12.5703 22.7748 12.5091C22.6772 12.3782 22.5397 12.2898 22.4021 12.2442C22.2548 12.2442 22.0585 12.2442 21.9112 12.3419L18.426 14.4931C18.1314 14.6887 18.0333 15.1287 18.2296 15.422C18.426 15.7153 18.8678 15.8131 19.1623 15.6176L21.4117 14.2506C20.9539 16.2788 19.8392 18.0684 18.2296 19.431C16.2661 21.0444 13.7626 21.8266 11.1609 21.6311C8.55923 21.3866 6.20299 20.1644 4.53399 18.2088C2.86499 16.2532 2.07958 13.7598 2.27593 11.1686C2.71772 5.8396 7.4302 1.9284 12.7808 2.36841C15.3334 2.61286 17.6406 3.78622 19.3096 5.69293C19.555 5.93738 19.9477 5.98626 20.2422 5.74182C20.4877 5.49737 20.5368 5.10625 20.2913 4.81291C18.3769 2.61286 15.7752 1.29283 12.879 1.04838C6.84114 0.51059 1.44143 5.00847 0.950545 11.0708C0.705104 14.0042 1.58869 16.8398 3.50314 19.0888C5.41758 21.3377 8.06835 22.7066 11.0136 22.9511Z" fill="#0B2343"/>
</g>
<defs>
<clipPath id="clip0_3202_647">
<rect width="25" height="25" fill="white"/>
</clipPath>
</defs>
</svg>
