<?xml version="1.0" encoding="utf-8"?>
<!-- Generator: Adobe Illustrator 19.0.1, SVG Export Plug-In . SVG Version: 6.00 Build 0)  -->
<!DOCTYPE svg PUBLIC "-//W3C//DTD SVG 1.1//EN" "http://www.w3.org/Graphics/SVG/1.1/DTD/svg11.dtd">
<svg version="1.1" id="Layer_1" xmlns="http://www.w3.org/2000/svg" xmlns:xlink="http://www.w3.org/1999/xlink" x="0px" y="0px"
	 viewBox="0 0 49.3 45" enable-background="new 0 0 49.3 45" xml:space="preserve">
<g>
	<g>
		<path fill="#231F20" d="M47.9,33c-0.5,0-0.9-0.2-1.1-0.6l-3.7-6.1l-5.9,3.6c-0.6,0.4-1.5,0.2-1.9-0.4c-0.4-0.6-0.2-1.5,0.4-1.9
			l7.1-4.4c0.3-0.2,0.7-0.2,1-0.2c0.3,0.1,0.6,0.3,0.8,0.6l4.4,7.2c0.4,0.6,0.2,1.5-0.4,1.9C48.4,32.9,48.2,33,47.9,33z"/>
	</g>
	<g>
		<path fill="#231F20" d="M22.6,45c-0.7,0-1.3,0-2-0.1c-6-0.5-11.4-3.3-15.3-7.9c-3.9-4.6-5.7-10.4-5.2-16.4
			C1.1,8.2,12.1-1,24.4,0.1c5.9,0.5,11.2,3.2,15.1,7.7c0.5,0.6,0.4,1.4-0.1,1.9c-0.6,0.5-1.4,0.4-1.9-0.1c-3.4-3.9-8.1-6.3-13.3-6.8
			C13.3,1.9,3.7,9.9,2.8,20.8c-0.4,5.3,1.2,10.4,4.6,14.4c3.4,4,8.2,6.5,13.5,7c5.3,0.4,10.4-1.2,14.4-4.5c4-3.4,6.5-8.1,6.9-13.4
			c0.1-0.7,0.7-1.3,1.5-1.2c0.7,0.1,1.3,0.7,1.2,1.5c-0.5,6-3.3,11.4-7.9,15.2C32.9,43.2,27.8,45,22.6,45z"/>
	</g>
</g>
</svg>
