<svg width="40" height="40" viewBox="0 0 40 40" fill="none" xmlns="http://www.w3.org/2000/svg">
<path d="M33.5927 35.2612V33.4815C33.5927 32.9788 33.2939 32.5305 32.8455 32.3539C27.6014 30.2752 21.773 27.6803 21.2839 26.0772V24.3789C22.3708 23.2377 23.2266 21.6346 23.7428 19.7733C24.9656 18.8902 25.2645 17.0833 24.2591 15.8062V12.0157C24.2591 8.10295 22.1397 5.42653 17.3031 5.42653C12.5888 5.42653 10.3335 8.10295 10.3335 12.0157V15.8062C9.32817 17.0833 9.62707 18.8902 10.8498 19.7733C11.3525 21.6481 12.2221 23.2377 13.3089 24.3789V26.0636C12.8198 27.6803 6.99147 30.2616 1.74729 32.3403C1.29896 32.5169 1 32.9652 1 33.4679V35.2477" stroke="#0B2343" stroke-miterlimit="10" stroke-linecap="round" stroke-linejoin="round"/>
<path d="M28.1177 4H39" stroke="#0B2343" stroke-miterlimit="10" stroke-linecap="round" stroke-linejoin="round"/>
</svg>
