<svg width="40" height="40" viewBox="0 0 40 40" fill="none" xmlns="http://www.w3.org/2000/svg">
<path d="M31.1293 23.1929C26.7801 23.1929 23.2587 26.7143 23.2587 31.0636C23.2587 35.4128 26.7801 38.9342 31.1293 38.9342C35.4786 38.9342 39 35.4128 39 31.0636C39 26.7143 35.4654 23.1929 31.1293 23.1929Z" stroke="#0B2343" stroke-miterlimit="10" stroke-linecap="round" stroke-linejoin="round"/>
<path d="M27.1875 31.0636H35.0845" stroke="#0B2343" stroke-miterlimit="10" stroke-linecap="round" stroke-linejoin="round"/>
<path d="M23.2587 22.1417C21.5637 21.2482 20.8934 21.0249 20.6832 20.3679V18.778C21.7344 17.7005 22.5754 16.2026 23.0616 14.455C24.2441 13.6272 24.5332 11.9191 23.5609 10.7234V7.17565C23.5609 3.50968 21.5111 1 16.8071 1C12.2345 1 10.0533 3.50968 10.0533 7.17565V10.7234C9.08092 11.9191 9.37 13.6272 10.5526 14.4419C11.0519 16.1895 11.8798 17.6874 12.9309 18.7648V20.3547C12.4579 21.8658 6.8078 24.2966 1.72275 26.2413C1.28914 26.4121 1 26.8326 1 27.2925V31.2607C1 31.8782 1.49928 32.3907 2.11684 32.3907H19.4219" stroke="#0B2343" stroke-miterlimit="10" stroke-linecap="round" stroke-linejoin="round"/>
</svg>
