<svg width="32" height="32" viewBox="0 0 32 32" fill="none" xmlns="http://www.w3.org/2000/svg">
<path d="M8.08804 12.4081H5.39204C5.06404 12.4081 4.80005 12.6721 4.80005 13.0001V13.7281C4.80005 14.3601 5.53604 14.3441 6.19204 14.4561C5.93604 14.9521 5.49604 19.2161 5.49604 19.2161C5.49604 19.3121 5.49604 24.576 5.49604 24.576C5.49604 25.16 5.96804 25.624 6.54404 25.624H8.15205C8.73605 25.624 9.20005 25.152 9.20005 24.576V22.472H23V24.576C23 25.16 23.472 25.624 24.048 25.624H25.6561C26.2401 25.624 26.7041 25.152 26.7041 24.576C26.7041 24.576 26.7041 19.3121 26.7041 19.2161C26.7041 19.2161 26.2641 14.9441 26.0081 14.4481C26.6481 14.3361 27.384 14.3601 27.384 13.7281V13.0001C27.384 12.6721 27.12 12.4081 26.792 12.4081H24.1201" stroke="#0074B8" stroke-linecap="round" stroke-linejoin="round"/>
<path d="M24.136 12.344C24.136 13.512 22.808 14.448 21.552 14.448H10.672C9.41605 14.448 8.08801 13.504 8.08801 12.344L9.12805 8.51204C9.34405 7.44004 10.144 6.40002 11.4 6.40002H20.824C22.08 6.40002 22.88 7.40004 23.096 8.51204L24.136 12.344Z" stroke="#0074B8" stroke-linecap="round" stroke-linejoin="round"/>
<path d="M13.624 18.4561H18.608" stroke="#0074B8" stroke-linecap="round" stroke-linejoin="round"/>
<path d="M13.624 20.056H18.608" stroke="#0074B8" stroke-linecap="round" stroke-linejoin="round"/>
<path d="M11.6641 18.984C11.6641 19.84 10.9681 20.536 10.1121 20.536C9.25606 20.536 8.56006 19.84 8.56006 18.984C8.56006 18.128 9.25606 17.432 10.1121 17.432C10.9761 17.432 11.6641 18.128 11.6641 18.984Z" stroke="#0074B8" stroke-linecap="round" stroke-linejoin="round"/>
<path d="M23.6721 18.984C23.6721 19.84 22.9761 20.536 22.1201 20.536C21.2641 20.536 20.5681 19.84 20.5681 18.984C20.5681 18.128 21.2641 17.432 22.1201 17.432C22.9761 17.432 23.6721 18.128 23.6721 18.984Z" stroke="#0074B8" stroke-linecap="round" stroke-linejoin="round"/>
<path d="M14.8241 8.02405H17.4161" stroke="#0074B8" stroke-linecap="round" stroke-linejoin="round"/>
<path d="M26.7281 22.472H5.50403" stroke="#0074B8" stroke-linecap="round" stroke-linejoin="round"/>
</svg>
