<svg width="40" height="40" viewBox="0 0 40 40" fill="none" xmlns="http://www.w3.org/2000/svg">
<path d="M19.61 6L8 15.77H15.16L12.74 34.74H26.46L24.04 15.77H31.2L19.61 6Z" stroke="#0B2343" stroke-miterlimit="10" stroke-linecap="round" stroke-linejoin="round"/>
<path d="M8 17.76H12.71" stroke="#0B2343" stroke-miterlimit="10" stroke-linecap="round" stroke-linejoin="round"/>
<path d="M26.48 17.76H31.27" stroke="#0B2343" stroke-miterlimit="10" stroke-linecap="round" stroke-linejoin="round"/>
<path d="M17.67 28.18C18.23 28.68 19.1 29.05 19.72 29.05C20.72 29.05 21.53 28.33 21.53 27.44C21.53 26.55 20.66 26.11 19.72 25.83C18.74 25.52 17.91 25.11 17.91 24.22C17.91 23.33 18.72 22.61 19.72 22.61C20.39 22.61 20.98 22.94 21.29 23.42" stroke="#0B2343" stroke-miterlimit="10" stroke-linecap="round" stroke-linejoin="round"/>
<path d="M19.72 21.73V22.61" stroke="#0B2343" stroke-miterlimit="10" stroke-linecap="round" stroke-linejoin="round"/>
<path d="M19.72 29.05V29.9301" stroke="#0B2343" stroke-miterlimit="10" stroke-linecap="round" stroke-linejoin="round"/>
</svg>
