<svg width="40" height="40" viewBox="0 0 40 40" fill="none" xmlns="http://www.w3.org/2000/svg">
<path d="M21.61 9.14L24.77 6L27.9301 9.14" stroke="#0B2343" stroke-miterlimit="10" stroke-linecap="round" stroke-linejoin="round"/>
<path d="M8.25 24.59C8.25 24.59 24.77 24.08 24.77 9.00999V6" stroke="#0B2343" stroke-miterlimit="10" stroke-linecap="round" stroke-linejoin="round"/>
<path d="M17.78 13.06C17.78 16.04 15.36 18.45 12.39 18.45C9.42001 18.45 7 16.03 7 13.06C7 10.08 9.42001 7.67004 12.39 7.67004C15.36 7.67004 17.78 10.09 17.78 13.06Z" stroke="#0B2343" stroke-miterlimit="10" stroke-linecap="round" stroke-linejoin="round"/>
<path d="M10.4399 15.11C10.9599 15.57 11.77 15.91 12.35 15.91C13.28 15.91 14.04 15.25 14.04 14.43C14.04 13.61 13.23 13.21 12.35 12.95C11.44 12.66 10.66 12.29 10.66 11.47C10.66 10.65 11.42 9.98999 12.35 9.98999C12.98 9.98999 13.5299 10.29 13.8199 10.73" stroke="#0B2343" stroke-miterlimit="10" stroke-linecap="round" stroke-linejoin="round"/>
<path d="M12.36 9.19995V10.0099" stroke="#0B2343" stroke-miterlimit="10" stroke-linecap="round" stroke-linejoin="round"/>
<path d="M12.36 15.91V16.72" stroke="#0B2343" stroke-miterlimit="10" stroke-linecap="round" stroke-linejoin="round"/>
<path d="M27.9301 18.55H25.9301V33.55H27.9301V18.55Z" stroke="#0B2343" stroke-miterlimit="10" stroke-linecap="round" stroke-linejoin="round"/>
<path d="M21.9301 23.55H19.9301V33.55H21.9301V23.55Z" stroke="#0B2343" stroke-miterlimit="10" stroke-linecap="round" stroke-linejoin="round"/>
<path d="M16.9301 27.55H14.9301V33.55H16.9301V27.55Z" stroke="#0B2343" stroke-miterlimit="10" stroke-linecap="round" stroke-linejoin="round"/>
<path d="M10.9301 30.55H8.93005V33.55H10.9301V30.55Z" stroke="#0B2343" stroke-miterlimit="10" stroke-linecap="round" stroke-linejoin="round"/>
<path d="M33.9301 7.55005H31.9301V33.55H33.9301V7.55005Z" stroke="#0B2343" stroke-miterlimit="10" stroke-linecap="round" stroke-linejoin="round"/>
</svg>
