<svg width="40" height="40" viewBox="0 0 40 40" fill="none" xmlns="http://www.w3.org/2000/svg">
<path d="M24.1995 23.291V34.251L19.7395 29.801L15.2895 34.251V23.291" stroke="#0B2343" stroke-linecap="round" stroke-linejoin="round"/>
<path d="M27.0195 16.9212C27.4995 15.8212 27.1695 14.5811 26.3095 13.8311C27.2095 13.1211 27.6095 11.8911 27.1695 10.7711C26.7295 9.64106 25.6095 9.00113 24.4695 9.09113C24.5995 7.96113 24.0095 6.81112 22.9195 6.33112C21.8195 5.84112 20.5795 6.18108 19.8295 7.04108C19.1195 6.13108 17.8895 5.74122 16.7695 6.18122C15.6395 6.61122 14.9995 7.74117 15.0895 8.88117C13.9595 8.75117 12.8195 9.34123 12.3295 10.4412C11.8495 11.5412 12.1795 12.7711 13.0395 13.5311C12.1395 14.2411 11.7395 15.4711 12.1795 16.5911C12.6195 17.7211 13.7395 18.3611 14.8795 18.2711C14.7495 19.4011 15.3395 20.5411 16.4395 21.0311C17.5395 21.5111 18.7795 21.1811 19.5295 20.3211C20.2395 21.2211 21.4695 21.6212 22.5895 21.1812C23.7195 20.7412 24.3595 19.6213 24.2695 18.4813C25.3995 18.6113 26.5395 18.0212 27.0195 16.9212ZM18.6295 16.0511C17.3195 15.4711 16.7295 13.9412 17.3095 12.6312C17.8895 11.3212 19.4195 10.7311 20.7295 11.3111C22.0395 11.8911 22.6295 13.4213 22.0495 14.7313C21.4695 16.0313 19.9395 16.6311 18.6295 16.0511Z" stroke="#0B2343" stroke-linecap="round" stroke-linejoin="round"/>
</svg>
