<svg width="40" height="40" viewBox="0 0 40 40" fill="none" xmlns="http://www.w3.org/2000/svg">
<path d="M18.62 28.3401L16.34 34.6001L14 31.75L10.3799 32.4299L12.78 25.8501" stroke="#0B2343" stroke-linecap="round" stroke-linejoin="round"/>
<path d="M21.96 28.3401L24.24 34.6001L26.58 31.75L30.2 32.4299L27.8 25.8501" stroke="#0B2343" stroke-linecap="round" stroke-linejoin="round"/>
<path d="M28.96 16.27L30.55 13.52L27.8 11.9299V8.75H24.62L23.03 6L20.27 7.59009L17.52 6L15.93 8.75H12.75V11.9299L10 13.52L11.58 16.27L10 19.03L12.75 20.6201V23.8H15.93L17.52 26.55L20.27 24.96L23.03 26.55L24.62 23.8H27.8V20.6201L30.55 19.03L28.96 16.27Z" stroke="#0B2343" stroke-linecap="round" stroke-linejoin="round"/>
<path d="M26.08 16.27C26.08 19.48 23.48 22.0801 20.27 22.0801C17.06 22.0801 14.46 19.48 14.46 16.27C14.46 13.06 17.06 10.46 20.27 10.46C23.48 10.46 26.08 13.07 26.08 16.27Z" stroke="#0B2343" stroke-linecap="round" stroke-linejoin="round"/>
</svg>
