<svg viewBox="0 0 70 100" fill="none" xmlns="http://www.w3.org/2000/svg">
<path d="M3 37C3 22.0883 15.0883 10 30 10H40C54.9117 10 67 22.0883 67 37V86C67 91.5228 62.5228 96 57 96H13C7.47715 96 3 91.5228 3 86V37Z" fill="#F7F7F7"/>
<path fill-rule="evenodd" clip-rule="evenodd" d="M40 12H30C16.1929 12 5 23.1929 5 37V86C5 90.4183 8.58172 94 13 94H57C61.4183 94 65 90.4183 65 86V37C65 23.1929 53.8071 12 40 12ZM30 10C15.0883 10 3 22.0883 3 37V86C3 91.5229 7.47715 96 13 96H57C62.5228 96 67 91.5229 67 86V37C67 22.0883 54.9117 10 40 10H30Z" fill="#D6D6D6"/>
<path fill-rule="evenodd" clip-rule="evenodd" d="M41 49.8042L39.2014 48L32.0004 55.2004L24.8 48L23 49.8042L30.1995 57.0012L23 64.2L24.8 66L32.0004 58.8015L39.2014 66L41 64.2L33.8012 57.0012L41 49.8042Z" fill="#CCCCCC"/>
<path d="M54.0105 33.9946C54.0106 33.9976 54.0083 34 54.0054 34C54.0025 34 54.0002 34.0023 54.0002 34.0051V87C54.0002 88.1046 54.8957 89 56.0002 89H65.0002C66.1048 89 67.0002 88.1046 67.0002 87V34.0066C67.0002 34.003 66.9973 34 66.9936 34C66.99 34 66.9871 33.9971 66.987 33.9936C66.7527 25.076 63.4116 16.5774 57.6276 10.2513C51.6265 3.68749 43.4872 0 35.0002 0C26.5133 0 18.374 3.68749 12.3728 10.2513C6.80393 16.3422 3.49959 24.447 3.05243 33.0006C2.99476 34.1037 3.89565 35 5.00022 35H13.9678C15.0723 35 15.9586 34.1028 16.0556 33.0025C16.4774 28.2147 18.406 23.7106 21.5423 20.2803C25.1115 16.3764 29.9525 14.1833 35.0002 14.1833C40.0479 14.1833 44.8889 16.3765 48.4582 20.2803C51.8102 23.9466 53.7828 28.8396 54.0105 33.9946Z" fill="#F7F7F7"/>
<path fill-rule="evenodd" clip-rule="evenodd" d="M56.0002 34.2002V87H65.0002V34.2242C64.9935 34.1655 64.9893 34.1061 64.9877 34.0461C64.7654 25.5861 61.5951 17.5547 56.1516 11.6008C50.5088 5.42901 42.8959 2 35.0002 2C27.1045 2 19.4916 5.429 13.8489 11.6008C8.63061 17.3083 5.50097 24.9252 5.05535 33H13.9678C13.9681 33 13.9685 33 13.9687 33C13.9711 32.9989 13.9808 32.9941 13.9945 32.9807C14.0268 32.9493 14.0573 32.8946 14.0633 32.8269C14.5217 27.6238 16.6191 22.7011 20.0662 18.9308C23.9939 14.6349 29.3613 12.1833 35.0002 12.1833C40.6392 12.1833 46.0066 14.6349 49.9342 18.9308C53.6181 22.9601 55.7611 28.306 56.0085 33.9064C56.0129 34.0059 56.01 34.104 56.0002 34.2002ZM54.0054 34C54.0083 34 54.0106 33.9976 54.0105 33.9946C54.0089 33.9579 54.0071 33.9213 54.0054 33.8846C53.9744 33.2542 53.9174 32.6278 53.835 32.0071C53.2487 27.5929 51.3761 23.4718 48.4582 20.2803C44.8889 16.3765 40.0479 14.1833 35.0002 14.1833C29.9525 14.1833 25.1115 16.3764 21.5423 20.2803C18.406 23.7106 16.4774 28.2147 16.0556 33.0025C15.9586 34.1028 15.0723 35 13.9678 35H5.00022C3.89565 35 2.99476 34.1037 3.05243 33.0006C3.49959 24.447 6.80393 16.3422 12.3728 10.2513C18.374 3.68749 26.5133 0 35.0002 0C43.4872 0 51.6265 3.68749 57.6276 10.2513C63.4116 16.5774 66.7527 25.076 66.987 33.9936C66.9871 33.9957 66.9881 33.9975 66.9897 33.9987C66.9908 33.9995 66.9921 34 66.9936 34C66.9973 34 67.0002 34.003 67.0002 34.0066V87C67.0002 88.1046 66.1048 89 65.0002 89H56.0002C54.8957 89 54.0002 88.1046 54.0002 87V34.0051C54.0002 34.0023 54.0025 34 54.0054 34Z" fill="#D6D6D6"/>
<rect x="4" y="82" width="62" height="13" rx="6.5" fill="white" stroke="#D6D6D6" stroke-width="2"/>
</svg>
