<svg width="40" height="40" viewBox="0 0 40 40" fill="none" xmlns="http://www.w3.org/2000/svg">
<path d="M26.3844 33.6706H22.2356C22.2356 33.6706 22.5705 27.0101 22.8867 26.945C23.203 26.8799 23.3984 25.438 23.3332 24.3682C23.2681 23.224 23.9193 21.531 23.9007 20.9821C23.8728 19.8844 23.7704 16.3123 23.91 15.8658C24.0681 15.3449 26.9612 15.1495 27.9193 15.2332C28.8775 15.3169 30.3659 12.8611 30.3659 12.8611C30.3659 12.8611 33.3799 13.0937 33.5659 12.303C33.7613 11.5216 32.1892 11.6797 32.1892 11.6797C32.8031 11.1216 32.0589 11.0936 32.0589 11.0936C30.7101 12.0053 26.3658 11.5867 26.3658 11.5867C26.3658 11.5867 20.8309 12.0146 21.5379 9.45641C22.2449 6.90755 20.2913 7.00056 20.2913 7.00056C20.2913 7.00056 18.3378 6.89825 19.0448 9.45641C19.7518 12.0053 14.2169 11.5867 14.2169 11.5867C14.2169 11.5867 9.87265 12.0146 8.52379 11.0936C8.52379 11.0936 7.78889 11.1309 8.39355 11.6797C8.39355 11.6797 6.82146 11.5123 7.01681 12.303C7.21216 13.0844 10.2168 12.8611 10.2168 12.8611C10.2168 12.8611 11.6959 15.3169 12.6633 15.2332C13.6215 15.1495 16.5145 15.3449 16.6727 15.8658C16.8308 16.3867 16.6727 20.1821 16.6727 20.1821C16.6727 20.1821 17.3146 20.703 17.2495 21.7635C17.1844 22.8333 17.3797 24.2659 17.696 24.3403C18.0123 24.4054 18.3472 33.6706 18.3472 33.6706H14.1982" stroke="#0B2343" stroke-linecap="round" stroke-linejoin="round"/>
<path d="M17.1936 21.1497L22.8867 26.945" stroke="#0B2343" stroke-linecap="round" stroke-linejoin="round"/>
</svg>
