<svg width="40" height="40" viewBox="0 0 40 40" fill="none" xmlns="http://www.w3.org/2000/svg">
<path d="M14.75 19.11C13.81 20.29 12.05 22.87 12 25.6L15.3 24.1" stroke="#0B2343" stroke-miterlimit="10" stroke-linecap="round" stroke-linejoin="round"/>
<path d="M26.09 19.03C27.01 20.17 28.85 22.81 28.91 25.6L25.61 24.1" stroke="#0B2343" stroke-miterlimit="10" stroke-linecap="round" stroke-linejoin="round"/>
<path d="M20.44 6C18.05 6 16.3 10.13 16.3 12.3L17.6 24.4C17.62 24.62 17.8 24.79 18.02 24.79H22.86C23.08 24.79 23.27 24.62 23.28 24.4L24.58 12.27C24.58 10.13 22.83 6 20.44 6Z" stroke="#0B2343" stroke-miterlimit="10" stroke-linecap="round" stroke-linejoin="round"/>
<path d="M22.09 13.78C22.09 14.69 21.35 15.42 20.44 15.43C19.53 15.43 18.8 14.69 18.79 13.78C18.79 12.87 19.53 12.13 20.44 12.13C21.35 12.14 22.09 12.88 22.09 13.78Z" stroke="#0B2343" stroke-miterlimit="10" stroke-linecap="round" stroke-linejoin="round"/>
<path d="M21.65 26.87C21.31 27.91 20.89 28.71 20.44 28.71C19.99 28.71 19.57 27.91 19.23 26.87C18.73 27.11 18.4 27.55 18.4 28.29C18.4 29.53 19.31 34.46 20.44 34.46C21.57 34.46 22.48 29.53 22.48 28.29C22.48 27.55 22.16 27.11 21.65 26.87Z" stroke="#0B2343" stroke-miterlimit="10" stroke-linecap="round" stroke-linejoin="round"/>
</svg>
