<svg width="40" height="40" viewBox="0 0 40 40" fill="none" xmlns="http://www.w3.org/2000/svg">
<path d="M8.38 15.6101L12.39 11.6201" stroke="#0B2343" stroke-miterlimit="10" stroke-linecap="round" stroke-linejoin="round"/>
<path d="M10.5801 17.8L12.1801 16.2002" stroke="#0B2343" stroke-miterlimit="10" stroke-linecap="round" stroke-linejoin="round"/>
<path d="M22.76 29.9402L24.37 28.3401" stroke="#0B2343" stroke-miterlimit="10" stroke-linecap="round" stroke-linejoin="round"/>
<path d="M25.0601 32.2202L29.0701 28.2302" stroke="#0B2343" stroke-miterlimit="10" stroke-linecap="round" stroke-linejoin="round"/>
<path d="M9.41002 24.8301C9.33002 24.9101 6.15001 32.9702 6.15001 32.9702C5.88001 33.6202 6.61006 34.4301 7.32006 34.1401C7.32006 34.1401 15.46 31.0102 15.54 30.9302" stroke="#0B2343" stroke-miterlimit="10" stroke-linecap="round" stroke-linejoin="round"/>
<path d="M7.39001 29.8501L10.4801 32.9302" stroke="#0B2343" stroke-miterlimit="10" stroke-linecap="round" stroke-linejoin="round"/>
<path d="M33.5701 10.2002L30.05 6.69018C29.37 6.01018 28.2601 6.01018 27.5801 6.69018L9.39001 24.8L15.5701 30.9502L33.5701 13.03C34.3501 12.26 34.3501 10.9802 33.5701 10.2002Z" stroke="#0B2343" stroke-miterlimit="10" stroke-linecap="round" stroke-linejoin="round"/>
<path d="M19.2101 11.8401L13.3401 6L6 13.3101L11.8601 19.1501" stroke="#0B2343" stroke-miterlimit="10" stroke-linecap="round" stroke-linejoin="round"/>
<path d="M21.26 28.51L27.3201 34.54L34.66 27.2202L28.6101 21.2002" stroke="#0B2343" stroke-miterlimit="10" stroke-linecap="round" stroke-linejoin="round"/>
<path d="M12.92 28.3201L27.4901 13.8201" stroke="#0B2343" stroke-miterlimit="10" stroke-linecap="round" stroke-linejoin="round"/>
</svg>
