<svg width="40" height="40" viewBox="0 0 40 40" fill="none" xmlns="http://www.w3.org/2000/svg">
<path d="M27.6099 8.94183C27.2399 10.1318 25.97 10.8018 24.77 10.4318C23.58 10.0618 22.91 8.79186 23.28 7.59186C23.65 6.40186 24.9199 5.73187 26.1199 6.10187C27.3199 6.48187 27.9799 7.75183 27.6099 8.94183Z" stroke="#0B2343" stroke-miterlimit="10" stroke-linecap="round" stroke-linejoin="round"/>
<path d="M23.87 33.9519C23.87 33.9519 23.8601 28.7219 23.7601 27.0619C23.7401 26.7619 23.6201 26.4819 23.4001 26.2719L19.22 22.3419C18.91 21.7919 18.8401 21.1319 19.0301 20.5319L20.61 15.4818C21 14.2418 22.2501 13.4119 23.5201 13.6919C24.9501 14.0019 25.52 15.3319 25.35 16.8319L24.74 21.5919L29.58 21.6719" stroke="#0B2343" stroke-miterlimit="10" stroke-linecap="round" stroke-linejoin="round"/>
<path d="M17.9 23.9519L15.72 26.6019H10" stroke="#0B2343" stroke-miterlimit="10" stroke-linecap="round" stroke-linejoin="round"/>
<path d="M19.48 13.5018H17.08L14.6899 18.1719" stroke="#0B2343" stroke-miterlimit="10" stroke-linecap="round" stroke-linejoin="round"/>
</svg>
