<svg width="40" height="40" viewBox="0 0 40 40" fill="none" xmlns="http://www.w3.org/2000/svg">
<path d="M32.8606 21.6202H8C8.39598 26.0707 11.9081 29.8153 16.4532 31.5628V32.7421H24.4074V31.5628C28.9611 29.8153 32.4732 26.0621 32.8606 21.6202Z" stroke="#0B2343" stroke-linecap="round" stroke-linejoin="round"/>
<path d="M10.0488 19.9673C10.0488 19.9673 9.48063 19.7262 10.2123 18.633C10.2123 18.633 8.07758 16.1796 10.7375 15.5512C10.7375 15.5512 10.419 9.80091 14.3788 12.1854C14.3788 12.1854 17.4605 10.7479 17.495 14.2859C17.495 14.2859 20.5078 14.6387 18.8292 16.7047C17.6585 18.1423 18.614 18.7019 19.2941 18.9085C19.9741 19.1151 20.3787 19.2786 20.5681 19.9673" stroke="#0B2343" stroke-linecap="round" stroke-linejoin="round"/>
<path d="M14.8091 19.8984C13.6556 18.7105 12.7258 17.0491 13.0185 14.854" stroke="#0B2343" stroke-linecap="round" stroke-linejoin="round"/>
<path d="M14.8091 19.8984C14.8091 19.8984 15.756 17.7206 16.0659 16.0076" stroke="#0B2343" stroke-linecap="round" stroke-linejoin="round"/>
<path d="M13.5351 18.108L11.1592 17.4796" stroke="#0B2343" stroke-linecap="round" stroke-linejoin="round"/>
<path d="M20.0257 19.1926C20.0257 19.1926 19.7847 14.5011 24.3729 18.5125C24.3729 18.5125 26.2666 12.6073 29.598 17.3074C29.598 17.3074 30.9668 16.2572 31.0356 17.7981C31.1045 19.339 30.1921 19.8985 30.1921 19.8985" stroke="#0B2343" stroke-linecap="round" stroke-linejoin="round"/>
<path d="M26.8434 19.9674C27.4632 19.537 28.4618 18.8053 28.6856 18.5126" stroke="#0B2343" stroke-linecap="round" stroke-linejoin="round"/>
<path d="M26.8433 19.9674C26.8433 19.9674 26.1977 17.9359 27.2479 17.4796" stroke="#0B2343" stroke-linecap="round" stroke-linejoin="round"/>
<path d="M27.6439 15.5772C27.6439 15.5772 29.9079 14.7767 28.5392 13.933C27.1705 13.0894 25.8535 12.814 25.5694 13.2014C25.5694 13.2014 28.6081 9.10375 26.6884 8.15685C24.7688 7.20994 20.2753 10.8598 20.2753 10.8598C20.2753 10.8598 18.347 7.66624 17.5379 8.65619C17.5379 8.65619 16.3758 9.22436 16.591 12.1253" stroke="#0B2343" stroke-linecap="round" stroke-linejoin="round"/>
<path d="M22.3154 17.1093C22.3154 17.1093 20.1376 13.8641 21.8162 12.6675C23.4948 11.4796 24.347 11.4796 24.1318 10.7048" stroke="#0B2343" stroke-linecap="round" stroke-linejoin="round"/>
<path d="M18.8722 12.4609L21.1792 13.7264" stroke="#0B2343" stroke-linecap="round" stroke-linejoin="round"/>
<path d="M21.5235 15.5772C21.5235 15.5772 22.5307 14.1826 24.1404 14.5012" stroke="#0B2343" stroke-linecap="round" stroke-linejoin="round"/>
</svg>
