<svg width="48" height="48" viewBox="0 0 48 48" fill="none" xmlns="http://www.w3.org/2000/svg">
<rect width="48" height="48" rx="24" fill="white" fill-opacity="0.1"/>
<path fill-rule="evenodd" clip-rule="evenodd" d="M14.9725 18.0468C14.6177 18.378 14.438 18.8042 14.5048 19.2572C14.5083 19.2813 14.5101 19.3057 14.5101 19.3301V22.96C14.5101 22.9944 14.5066 23.028 14.5 23.0604V25.51H23.5801V17.5H16.3701C15.8479 17.5 15.3321 17.7111 14.9725 18.0468ZM24.5801 17.5V25.51H34.5V22.96C34.5 22.8624 34.5069 22.7667 34.52 22.6731V19.3301C34.52 18.3145 33.6922 17.5 32.66 17.5H24.5801ZM23.98 26.51C24.0124 26.5166 24.0458 26.52 24.0801 26.52C24.1143 26.52 24.1478 26.5166 24.1801 26.51H35C35.2761 26.51 35.5 26.2862 35.5 26.01V23.1004C35.513 23.0558 35.52 23.0087 35.52 22.96V22.756C35.573 22.4858 35.7297 22.2292 35.9689 22.0204C36.2689 21.7583 36.6688 21.6001 37.0599 21.6001H37.0774C37.8554 21.6087 38.47 22.228 38.47 22.96V28.0701C38.47 28.861 37.7869 29.54 36.95 29.54H12.0199C11.1897 29.54 10.5 28.8678 10.5 28.0701V22.96C10.5 22.2165 11.1256 21.6001 11.8899 21.6001H11.8999C12.2867 21.6001 12.6991 21.759 13.0127 22.025C13.3254 22.2903 13.5 22.6253 13.5 22.96V26.01C13.5 26.2862 13.7239 26.51 14 26.51H23.98ZM13.5101 19.3645V21.1443C13.0521 20.8071 12.4782 20.6001 11.8999 20.6001H11.8899C10.5942 20.6001 9.5 21.6435 9.5 22.96V28.0701C9.5 29.4523 10.6701 30.54 12.0199 30.54H13.4902V32.05C13.4902 32.3262 13.7141 32.55 13.9902 32.55C14.2664 32.55 14.4902 32.3262 14.4902 32.05V30.54H34.5098V32.05C34.5098 32.3262 34.7336 32.55 35.0098 32.55C35.2859 32.55 35.5098 32.3262 35.5098 32.05V30.54H36.95C38.313 30.54 39.47 29.4391 39.47 28.0701V22.96C39.47 21.6526 38.3857 20.6126 37.0848 20.6001H37.0599C36.5029 20.6001 35.9598 20.7892 35.52 21.1023V19.3301C35.52 17.7457 34.2278 16.5 32.66 16.5H16.3701C15.5922 16.5 14.8331 16.8089 14.2901 17.3158C13.7509 17.8192 13.4029 18.5433 13.5101 19.3645Z" fill="white" fill-opacity="0.7"/>
<rect x="0.5" y="0.5" width="47" height="47" rx="23.5" stroke="white" stroke-opacity="0.6"/>
</svg>
