<svg width="40" height="40" viewBox="0 0 40 40" fill="none" xmlns="http://www.w3.org/2000/svg">
<path d="M34.28 32.3529V26.8056C34.28 25.4933 33.2 24.4196 31.82 24.4196C31.1 24.4196 30.44 24.7178 29.96 25.195V22.8687C29.96 21.2582 28.64 20.0056 27.02 20.0056H9.26C8.36 20.0056 7.46 20.4231 6.92 21.0792C6.44 21.6161 6.26 22.2722 6.32 22.9284V25.3143C5.78 24.8371 5.06 24.4792 4.4 24.4792C3.08 24.4792 2 25.5529 2 26.8652V32.4126C2 33.7845 3.14 34.9178 4.58 34.9178H6.38V36.7073C6.38 36.8863 6.56 37.0652 6.74 37.0652C6.92 37.0652 7.1 36.8863 7.1 36.7073V34.9178H29.3V36.7073C29.3 36.8863 29.48 37.0652 29.66 37.0652C29.84 37.0652 30.02 36.8863 30.02 36.7073V34.9178H31.76C33.08 34.8582 34.28 33.7249 34.28 32.3529ZM29.18 22.8687V26.8056V29.7284H18.02V20.6617H27.02C28.22 20.6617 29.18 21.6757 29.18 22.8687ZM7.04 22.8091C6.98 22.2126 7.22 21.795 7.46 21.4968C7.88 21.0196 8.6 20.7213 9.26 20.7213H17.3V29.788H7.04V26.8652V22.8091ZM2.66 32.3529V26.8056C2.66 25.9108 3.44 25.1354 4.34 25.1354C5.24 25.1354 6.26 25.8512 6.26 26.8056V30.1459C6.26 30.3249 6.44 30.5038 6.62 30.5038H29.54C29.72 30.5038 29.9 30.3249 29.9 30.1459V26.8056C29.9 25.8512 30.92 25.1354 31.82 25.1354C32.78 25.1354 33.5 25.8512 33.5 26.8056V32.3529C33.5 33.3073 32.66 34.1424 31.64 34.1424H4.52C3.5 34.0827 2.66 33.3073 2.66 32.3529Z" fill="#0B2343"/>
<path d="M37.58 36.2898H36.08V7.41964C36.08 5.03368 34.1 3.06526 31.58 3.00561C30.44 2.94596 29.36 3.3635 28.52 4.19859C27.62 5.03368 27.08 6.34596 27.02 7.65824C25.34 7.83719 23.96 9.26876 23.96 10.9986C23.96 11.1775 24.14 11.3565 24.32 11.3565H30.32C30.5 11.3565 30.68 11.1775 30.68 10.9986C30.68 9.32841 29.36 7.89683 27.74 7.71789C27.8 6.58455 28.28 5.51087 29 4.79508C29.66 4.13894 30.5 3.78105 31.52 3.84069C33.68 3.90034 35.3 5.45122 35.3 7.53894V36.4091H33.8C33.62 36.4091 33.44 36.5881 33.44 36.767C33.44 36.946 33.62 37.1249 33.8 37.1249H37.58C37.76 37.1249 37.94 36.946 37.94 36.767C37.94 36.5881 37.76 36.2898 37.58 36.2898ZM29.96 10.581H24.74C24.92 9.32841 26.06 8.31438 27.32 8.31438C28.58 8.31438 29.78 9.32841 29.96 10.581Z" fill="#0B2343"/>
</svg>
