<svg width="40" height="40" viewBox="0 0 40 40" fill="none" xmlns="http://www.w3.org/2000/svg">
<path d="M9.28156 22.8913C9.81544 23.2891 10.632 23.5927 11.2182 23.5927C12.1603 23.5927 12.9245 23.0169 12.9245 22.2946C12.9245 21.5828 12.108 21.2268 11.2182 20.9965C10.297 20.7453 9.51183 20.4208 9.51183 19.6985C9.51183 18.9866 10.276 18.4004 11.2182 18.4004C11.8568 18.4004 12.4116 18.6621 12.7047 19.0494" stroke="#0B2343" stroke-miterlimit="10" stroke-linecap="round" stroke-linejoin="round"/>
<path d="M15.4892 11.0722C15.9603 11.0722 16.3372 10.6011 16.3372 10.0149C16.3372 9.32399 16.0545 8.71674 15.6358 8.36082C14.7879 7.55475 13.1234 7 11.1867 7C9.25007 7 7.58559 7.55475 6.73765 8.36082C6.30844 8.71674 6.03635 9.32399 6.03635 10.0149C6.03635 10.6011 6.63306 11.0722 7.09367 11.0722" stroke="#0B2343" stroke-miterlimit="10" stroke-linecap="round" stroke-linejoin="round"/>
<path d="M11.1345 9.03076H11.4589" stroke="#0B2343" stroke-miterlimit="10" stroke-linecap="round" stroke-linejoin="round"/>
<path d="M9.04077 9.03076H9.36523" stroke="#0B2343" stroke-miterlimit="10" stroke-linecap="round" stroke-linejoin="round"/>
<path d="M13.2281 9.03076H13.5526" stroke="#0B2343" stroke-miterlimit="10" stroke-linecap="round" stroke-linejoin="round"/>
<path d="M28.0095 23.6451V18.4109H29.7472C29.7472 18.4109 31.2337 18.348 31.2337 19.7613C31.2337 21.2269 29.7472 21.2374 29.7472 21.2374H28.0095" stroke="#0B2343" stroke-linecap="round" stroke-linejoin="round"/>
<path d="M16.5153 33.056H6.04684C5.47108 33.056 5 32.5849 5 32.0092V14.2129C5 13.6371 5.47108 13.166 6.04684 13.166H16.5153C17.091 13.166 17.5621 13.6371 17.5621 14.2129V32.0092C17.5621 32.5849 17.091 33.056 16.5153 33.056Z" stroke="#0B2343" stroke-miterlimit="10" stroke-linecap="round" stroke-linejoin="round"/>
<path d="M15.4684 11.0724H7.09369V13.1661H15.4684V11.0724Z" stroke="#0B2343" stroke-miterlimit="10" stroke-linecap="round" stroke-linejoin="round"/>
<path d="M9.18738 29.0046V33.0559" stroke="#0B2343" stroke-miterlimit="10" stroke-linecap="round" stroke-linejoin="round"/>
<path d="M13.3747 29.0046V33.0559" stroke="#0B2343" stroke-miterlimit="10" stroke-linecap="round" stroke-linejoin="round"/>
<path d="M33.2855 11.0722C33.7566 11.0722 34.1335 10.6011 34.1335 10.0149C34.1335 9.32399 33.8508 8.71674 33.4321 8.36082C32.5842 7.55475 30.9197 7 28.983 7C27.0464 7 25.3819 7.55475 24.5339 8.36082C24.1047 8.71674 23.8326 9.32399 23.8326 10.0149C23.8326 10.6011 24.4294 11.0722 24.89 11.0722" stroke="#0B2343" stroke-miterlimit="10" stroke-linecap="round" stroke-linejoin="round"/>
<path d="M28.9308 9.03076H29.2552" stroke="#0B2343" stroke-miterlimit="10" stroke-linecap="round" stroke-linejoin="round"/>
<path d="M34.3116 33.056H23.8432C23.2674 33.056 22.7963 32.5849 22.7963 32.0092V14.2129C22.7963 13.6371 23.2674 13.166 23.8432 13.166H34.3116C34.8873 13.166 35.3584 13.6371 35.3584 14.2129V32.0092C35.3584 32.5849 34.8873 33.056 34.3116 33.056Z" stroke="#0B2343" stroke-miterlimit="10" stroke-linecap="round" stroke-linejoin="round"/>
<path d="M33.2647 11.0724H24.89V13.1661H33.2647V11.0724Z" stroke="#0B2343" stroke-miterlimit="10" stroke-linecap="round" stroke-linejoin="round"/>
<path d="M26.9837 29.0046V33.0559" stroke="#0B2343" stroke-miterlimit="10" stroke-linecap="round" stroke-linejoin="round"/>
<path d="M31.171 29.0046V33.0559" stroke="#0B2343" stroke-miterlimit="10" stroke-linecap="round" stroke-linejoin="round"/>
</svg>
