<svg width="40" height="40" viewBox="0 0 40 40" fill="none" xmlns="http://www.w3.org/2000/svg">
<path d="M18.5174 16.4209C19.8374 12.1509 20.0575 5.92076 15.5775 6.00076C15.5775 6.00076 8.22744 6.19077 8.01744 14.2608C7.98744 15.3108 7.99746 16.1007 8.03746 16.7307" stroke="#0B2343" stroke-miterlimit="10" stroke-linecap="round" stroke-linejoin="round"/>
<path d="M9.57751 25.6909C9.65751 26.7109 9.72748 27.9108 9.78748 29.3308C9.78748 29.3308 10.0674 32.1109 13.2274 31.9309C16.3874 31.7409 17.6874 31.2209 17.7374 28.9109C17.7574 27.8409 17.4675 26.2509 17.3275 24.4309" stroke="#0B2343" stroke-miterlimit="10" stroke-linecap="round" stroke-linejoin="round"/>
<path d="M10.4575 24.1509C10.4575 24.1509 7.53736 20.8308 8.72736 18.2708C9.91736 15.7108 13.6774 13.1309 13.6774 13.1309L17.1874 17.2908C17.1874 17.2908 20.4074 20.4108 16.2274 23.6108" stroke="#0B2343" stroke-miterlimit="10" stroke-linecap="round" stroke-linejoin="round"/>
<path d="M13.6775 13.1309L14.9974 10.3809" stroke="#0B2343" stroke-miterlimit="10" stroke-linecap="round" stroke-linejoin="round"/>
<path d="M22.4476 19.3909C21.0876 15.1209 20.8275 8.77085 25.3475 8.85085C25.3475 8.85085 32.6975 9.04086 32.9075 17.1109C32.9375 18.1609 32.9275 18.9508 32.8875 19.5808" stroke="#0B2343" stroke-miterlimit="10" stroke-linecap="round" stroke-linejoin="round"/>
<path d="M31.3474 28.5408C31.2674 29.5608 31.1975 30.7609 31.1375 32.1809C31.1375 32.1809 30.8575 34.9608 27.6975 34.7808C24.5375 34.5908 23.2375 34.0707 23.1875 31.7607C23.1675 30.6907 23.4574 29.1008 23.5974 27.2808" stroke="#0B2343" stroke-miterlimit="10" stroke-linecap="round" stroke-linejoin="round"/>
<path d="M30.4675 27.0007C30.4675 27.0007 33.3876 23.6808 32.1976 21.1208C31.0076 18.5608 27.2475 15.9807 27.2475 15.9807L23.7375 20.1409C23.7375 20.1409 20.5176 23.2609 24.6976 26.4609" stroke="#0B2343" stroke-miterlimit="10" stroke-linecap="round" stroke-linejoin="round"/>
<path d="M27.2474 15.9807L26.0074 13.1309" stroke="#0B2343" stroke-miterlimit="10" stroke-linecap="round" stroke-linejoin="round"/>
</svg>
