<svg viewBox="0 0 20 20" fill="none" xmlns="http://www.w3.org/2000/svg">
<rect width="20" height="20" fill="white"/>
<g clip-path="url(#clip0_4893_62142)">
<path d="M13.9008 8.77902C13.8728 8.16841 13.7023 7.56032 13.3817 7.01278L10.5623 2.17076C10.3486 1.80238 10.201 1.40624 10.117 1L10 1.20186C9.3028 2.40038 9.3028 3.87645 10 5.07497L12.2545 8.94808C12.9517 10.1466 12.9517 11.6227 12.2545 12.8212L12.1374 13.023C12.056 12.6168 11.9059 12.2232 11.6921 11.8523L9.62596 8.30718L8.30789 6.04387C8.09415 5.67549 7.94402 5.27935 7.8626 4.87311L7.74555 5.07497C7.05089 6.26844 7.04835 7.73946 7.73791 8.93546L10 12.8212C10.6972 14.0197 10.6972 15.4958 10 16.6943L9.88295 16.8962C9.80153 16.4899 9.6514 16.0963 9.43766 15.7254L6.61832 10.8834C6.24173 10.2349 6.0687 9.50318 6.09924 8.77902C3.08143 9.56121 1 11.219 1 13.1416C1 15.8137 5.03053 17.9811 10 17.9811C14.9695 17.9811 19 15.8137 19 13.1416C19 11.219 16.9186 9.55869 13.9008 8.77902Z" fill="#EC0000"/>
</g>
<defs>
<clipPath id="clip0_4893_62142">
<rect width="18" height="16.9811" fill="white" transform="translate(1 1)"/>
</clipPath>
</defs>
</svg>
