<svg width="40" height="40" viewBox="0 0 40 40" fill="none" xmlns="http://www.w3.org/2000/svg">
<path d="M18.8099 6C18.8099 6 20.48 6.48002 18.34 9.65002C16.21 12.82 18.34 13.01 18.34 13.01" stroke="#0B2343" stroke-miterlimit="10" stroke-linecap="round" stroke-linejoin="round"/>
<path d="M21.5699 9.01001C21.5699 9.01001 22.5199 9.27997 21.2999 11.09C20.0799 12.89 21.2999 13 21.2999 13" stroke="#0B2343" stroke-miterlimit="10" stroke-linecap="round" stroke-linejoin="round"/>
<path d="M14.9299 20.4899C13.1199 19.9299 11.1999 19.02 9.18994 17.64C7.93994 16.78 7.62999 15.08 8.48999 13.83C9.34999 12.58 11.0499 12.27 12.2999 13.13C15.8699 15.58 19.4 16.35 22.79 15.4C25.21 14.73 26.7 13.4 26.71 13.39C27.81 12.36 29.55 12.41 30.58 13.51C31.61 14.61 31.56 16.34 30.46 17.38C30.22 17.61 27.98 19.64 24.26 20.67" stroke="#0B2343" stroke-miterlimit="10" stroke-linecap="round" stroke-linejoin="round"/>
<path d="M7.40002 12.65L8.47998 13.84H7" stroke="#0B2343" stroke-miterlimit="10" stroke-linecap="round" stroke-linejoin="round"/>
<path d="M31.6899 12.11L30.5699 13.51L32.53 13.52" stroke="#0B2343" stroke-miterlimit="10" stroke-linecap="round" stroke-linejoin="round"/>
<path d="M19.65 27.52V34.2001" stroke="#0B2343" stroke-miterlimit="10" stroke-linecap="round" stroke-linejoin="round"/>
<path d="M19.65 19.36V23.5601" stroke="#0B2343" stroke-miterlimit="10" stroke-linecap="round" stroke-linejoin="round"/>
<path d="M21.7 19.36V23.5601" stroke="#0B2343" stroke-miterlimit="10" stroke-linecap="round" stroke-linejoin="round"/>
<path d="M17.6 19.36V23.5601" stroke="#0B2343" stroke-miterlimit="10" stroke-linecap="round" stroke-linejoin="round"/>
<path d="M19.8099 27.52H19.39C18.4 27.52 17.59 26.71 17.59 25.72V23.55H21.7V25.62C21.7 26.67 20.8499 27.52 19.8099 27.52Z" stroke="#0B2343" stroke-miterlimit="10" stroke-linecap="round" stroke-linejoin="round"/>
</svg>
