<?xml version="1.0" encoding="utf-8"?>
<!-- Generator: Adobe Illustrator 23.0.0, SVG Export Plug-In . SVG Version: 6.00 Build 0)  -->
<svg version="1.1" id="Layer_1" xmlns="http://www.w3.org/2000/svg" xmlns:xlink="http://www.w3.org/1999/xlink" x="0px" y="0px"
	 viewBox="0 0 30.12 95.04" enable-background="new 0 0 30.12 95.04" xml:space="preserve">
<path fill="#FFFFFF" d="M29.55,78.63c-0.75-0.75-1.97-0.75-2.72,0l-9.86,9.86V1.92c0-1.06-0.86-1.92-1.92-1.92s-1.92,0.86-1.92,1.92
	v86.57l-9.86-9.86c-0.75-0.75-1.97-0.75-2.72,0c-0.75,0.75-0.75,1.96,0,2.71L13.7,94.48c0.09,0.09,0.19,0.17,0.29,0.24
	c0.04,0.03,0.09,0.05,0.14,0.08c0.06,0.03,0.12,0.07,0.19,0.1c0.06,0.03,0.13,0.04,0.19,0.06c0.06,0.02,0.11,0.04,0.17,0.05
	c0.12,0.02,0.25,0.04,0.38,0.04s0.25-0.01,0.38-0.04c0.06-0.01,0.11-0.03,0.17-0.05c0.06-0.02,0.13-0.03,0.19-0.06
	c0.07-0.03,0.13-0.07,0.19-0.1c0.05-0.03,0.1-0.05,0.14-0.08c0.11-0.07,0.2-0.15,0.29-0.24l13.14-13.14
	C30.3,80.59,30.3,79.38,29.55,78.63z"/>
</svg>
