<svg width="40" height="40" viewBox="0 0 40 40" fill="none" xmlns="http://www.w3.org/2000/svg">
<path d="M27.5701 29.1699L26.9901 32.8499L23.6001 31.3L21.64 34.48L19.1101 31.74L16.0901 33.9299L14.79 30.4299L11.16 31.3L11.3 27.5698L7.62 26.98L9.18005 23.5898L6 21.6399L8.74011 19.0999L6.55005 16.0798L10.05 14.79L9.18005 11.1599L12.91 11.3L13.5 7.61987L16.89 9.17993L18.8401 6L21.37 8.72998L24.39 6.55005L25.6901 10.04L29.3201 9.17993L29.1801 12.8999L32.8601 13.49L31.3 16.8799L34.4801 18.8298L31.7401 21.3699L33.9301 24.3899L30.4401 25.6899L31.3 29.3101L27.5701 29.1699Z" stroke="#0B2343" stroke-linecap="round" stroke-linejoin="round"/>
</svg>
