<svg width="40" height="40" viewBox="0 0 40 40" fill="none" xmlns="http://www.w3.org/2000/svg">
<path d="M27.5468 24.6909L38.4068 35.5509C39.1979 36.342 39.1979 37.6157 38.4068 38.4067C37.6158 39.1978 36.3421 39.1978 35.551 38.4067L24.691 27.5467" stroke="#0B2343" stroke-miterlimit="10"/>
<path d="M15.775 30.55C23.935 30.55 30.55 23.935 30.55 15.775C30.55 7.61499 23.935 1 15.775 1C7.61498 1 1 7.61499 1 15.775C1 23.935 7.61498 30.55 15.775 30.55Z" stroke="#0B2343" stroke-miterlimit="10" stroke-linecap="round" stroke-linejoin="round"/>
<path d="M16.0356 5.02808C13.1932 4.93423 10.3106 5.96661 8.1386 8.13862C5.9666 10.3106 4.93423 13.1932 5.02808 16.0356" stroke="#0B2343" stroke-miterlimit="10" stroke-linecap="round" stroke-linejoin="round"/>
</svg>
