<svg width="40" height="40" viewBox="0 0 40 40" fill="none" xmlns="http://www.w3.org/2000/svg">
<path d="M32.636 30.764L26.292 24.42C27.696 22.6 28.58 20.312 28.58 17.816C28.58 11.836 23.744 7 17.764 7C11.784 7 7 11.836 7 17.764C7 23.692 11.836 28.528 17.764 28.528C20.26 28.528 22.548 27.644 24.368 26.24L30.712 32.584C31.232 33.104 32.064 33.104 32.584 32.584C33.104 32.116 33.104 31.232 32.636 30.764ZM9.236 17.764C9.236 13.032 13.084 9.184 17.816 9.184C22.548 9.184 26.396 13.032 26.396 17.764C26.396 22.496 22.548 26.344 17.816 26.344C13.084 26.344 9.236 22.496 9.236 17.764Z" fill="#0B2343"/>
</svg>
