<svg width="25" height="25" viewBox="0 0 25 25" fill="none" xmlns="http://www.w3.org/2000/svg">
<path d="M16.735 15.173L22.6754 21.1134C23.1081 21.5461 23.1081 22.2428 22.6754 22.6755C22.2427 23.1082 21.5459 23.1082 21.1133 22.6755L15.1729 16.7351" stroke="#0B2343" stroke-miterlimit="10"/>
<path d="M10.296 18.3779C14.7595 18.3779 18.3779 14.7595 18.3779 10.296C18.3779 5.8325 14.7595 2.21411 10.296 2.21411C5.83249 2.21411 2.21411 5.8325 2.21411 10.296C2.21411 14.7595 5.83249 18.3779 10.296 18.3779Z" stroke="#0B2343" stroke-miterlimit="10" stroke-linecap="round" stroke-linejoin="round"/>
<path d="M10.4386 4.41751C8.88383 4.36618 7.30705 4.93089 6.11896 6.11897C4.93088 7.30705 4.36618 8.88383 4.41751 10.4386" stroke="#0B2343" stroke-miterlimit="10" stroke-linecap="round" stroke-linejoin="round"/>
</svg>
