<svg width="40" height="40" viewBox="0 0 40 40" fill="none" xmlns="http://www.w3.org/2000/svg">
<path d="M18.01 27.36C20.76 27.66 23.23 25.67 23.52 22.92C23.82 20.17 21.83 17.7 19.08 17.41C16.33 17.11 13.86 19.1 13.57 21.85C13.27 24.6 15.26 27.07 18.01 27.36Z" stroke="#0B2343" stroke-miterlimit="10" stroke-linecap="round" stroke-linejoin="round"/>
<path d="M21.71 26.26L28.5 34.8" stroke="#0B2343" stroke-miterlimit="10" stroke-linecap="round" stroke-linejoin="round"/>
<path d="M29.77 31.11H33.68C34.33 31.11 34.87 30.58 34.87 29.92V10.2C34.87 9.54001 34.34 9.01001 33.68 9.01001H13.48C13.48 9.01001 12.33 6 11.67 6H7.19C6.54 6 6 6.53 6 7.19V29.92C6 30.57 6.53 31.11 7.19 31.11H21.08" stroke="#0B2343" stroke-miterlimit="10" stroke-linecap="round" stroke-linejoin="round"/>
<path d="M34.86 13.05H6" stroke="#0B2343" stroke-miterlimit="10" stroke-linecap="round" stroke-linejoin="round"/>
</svg>
