<svg width="40" height="40" viewBox="0 0 40 40" fill="none" xmlns="http://www.w3.org/2000/svg">
<path d="M27.1513 24.4414L37.4433 34.737C38.1856 35.4796 38.1856 36.7005 37.4433 37.4431C36.7009 38.1856 35.4804 38.1856 34.7381 37.4431L24.4462 27.1474" stroke="#0B2343" stroke-miterlimit="10" stroke-linecap="round" stroke-linejoin="round"/>
<path d="M29.9822 15.996C29.9822 23.724 23.7164 29.9919 15.9911 29.9919C8.2658 29.9919 2 23.724 2 15.996C2 8.26798 8.2658 2 15.9911 2C23.7164 2 29.9822 8.26798 29.9822 15.996Z" stroke="#0B2343" stroke-miterlimit="10" stroke-linecap="round" stroke-linejoin="round"/>
<path d="M21.741 19.3565C19.7279 18.4881 17.4883 17.4182 17.2995 16.7512V16.0463C17.7147 15.568 18.0544 14.9136 18.2432 14.1332C18.7087 13.7682 18.8346 13.013 18.4445 12.4844V10.9111C18.4445 9.28748 17.6267 8.17987 15.7646 8.17987C13.9528 8.17987 13.0846 9.28748 13.0846 10.9111V12.4844C12.6946 13.013 12.8078 13.7682 13.286 14.1332C13.4873 14.9136 13.8144 15.568 14.2296 16.0463V16.7512C14.0409 17.4182 11.8013 18.4881 9.78814 19.3565C9.61199 19.432 9.49878 19.6208 9.49878 19.8222V21.5717C9.49878 21.8486 9.70006 22.0752 9.93912 22.0752H21.59C21.8291 22.0752 22.0304 21.8486 22.0304 21.5717V19.8222C22.0178 19.6082 21.9046 19.4195 21.741 19.3565Z" stroke="#0B2343" stroke-miterlimit="10" stroke-linecap="round" stroke-linejoin="round"/>
</svg>
