<svg width="40" height="40" viewBox="0 0 40 40" fill="none" xmlns="http://www.w3.org/2000/svg">
<path d="M9.31146 11.3915C9.86332 10.924 10.5112 10.2698 11.3619 9.37069C14.2172 6.35118 20.3863 5.89443 21.9854 9.89294C23.5844 13.8905 23.0972 18.6922 20.2715 18.5746C16.587 18.4212 16.6462 15.5479 18.501 11.7163" stroke="#0B2343" stroke-miterlimit="10" stroke-linecap="round" stroke-linejoin="round"/>
<path d="M17.6596 20.4907C17.6596 20.4907 16.8439 21.5262 15.008 21.7793C13.0375 22.0485 9.41494 22.8417 6.02393 20.3265" stroke="#0B2343" stroke-miterlimit="10" stroke-linecap="round" stroke-linejoin="round"/>
<path d="M26.6529 23.992C26.5281 23.896 26.398 23.8062 26.2625 23.7228C25.7995 23.4374 24.9381 23.1629 24.3934 23.0624C21.3093 22.4908 21.4349 18.6591 21.4349 18.6591" stroke="#0B2343" stroke-miterlimit="10" stroke-linecap="round" stroke-linejoin="round"/>
<path d="M25.085 30.3538C23.8467 29.7203 21.9282 29.1191 20.5005 30.4238C18.2159 32.511 20.7284 35.2182 24.2702 34.6637C26.0397 34.3873 27.2107 33.8714 27.9403 33.4245" stroke="#0B2343" stroke-miterlimit="10" stroke-linecap="round" stroke-linejoin="round"/>
<path d="M15.2903 29.6787C15.2903 29.6787 16.0252 23.8415 15.0076 21.7795" stroke="#0B2343" stroke-miterlimit="10" stroke-linecap="round" stroke-linejoin="round"/>
<path d="M17.6445 30.5376C17.6445 30.5376 14.4742 28.2575 12.8608 31.1254C11.2474 33.996 18.3462 34.581 19.7092 32.6885" stroke="#0B2343" stroke-miterlimit="10" stroke-linecap="round" stroke-linejoin="round"/>
<path d="M8.93996 15.1068C8.93996 17.0235 7.38578 18.5767 5.46998 18.5767C3.55328 18.5767 2 17.0235 2 15.1068C2 13.1901 3.55328 11.6368 5.46998 11.6368C7.38578 11.6368 8.93996 13.1901 8.93996 15.1068Z" stroke="#0B2343" stroke-miterlimit="10" stroke-linecap="round" stroke-linejoin="round"/>
<mask id="path-8-inside-1_3159_4754" fill="white">
<path d="M34.3048 31.1899L37.8089 34.694C38.0637 34.9479 38.0637 35.3625 37.8089 35.6173C37.554 35.8722 37.1413 35.8722 36.8855 35.6173L33.3814 32.1132"/>
</mask>
<path d="M33.5977 31.897C33.2072 31.5065 33.2072 30.8733 33.5977 30.4828C33.9882 30.0923 34.6214 30.0923 35.0119 30.4828L33.5977 31.897ZM37.8089 34.694L37.103 35.4023L37.1018 35.4011L37.8089 34.694ZM36.8855 35.6173L36.1797 36.3257L36.1784 36.3244L36.8855 35.6173ZM32.6743 32.8203C32.2838 32.4298 32.2838 31.7967 32.6743 31.4061C33.0649 31.0156 33.698 31.0156 34.0885 31.4061L32.6743 32.8203ZM35.0119 30.4828L38.516 33.9869L37.1018 35.4011L33.5977 31.897L35.0119 30.4828ZM38.5147 33.9856C39.1624 34.631 39.1607 35.6797 38.516 36.3244L37.1018 34.9102C36.9668 35.0452 36.965 35.2648 37.103 35.4023L38.5147 33.9856ZM38.516 36.3244C37.8699 36.9705 36.8249 36.9687 36.1797 36.3257L37.5914 34.909C37.4576 34.7756 37.2381 34.7738 37.1018 34.9102L38.516 36.3244ZM36.1784 36.3244L32.6743 32.8203L34.0885 31.4061L37.5926 34.9102L36.1784 36.3244Z" fill="#0B2343" mask="url(#path-8-inside-1_3159_4754)"/>
<path d="M35.2705 28.3141C35.2705 30.946 33.1367 33.079 30.5057 33.079C27.8738 33.079 25.74 30.946 25.74 28.3141C25.74 25.6814 27.8738 23.5484 30.5057 23.5484C33.1367 23.5484 35.2705 25.6814 35.2705 28.3141Z" stroke="#0B2343" stroke-miterlimit="10" stroke-linecap="round" stroke-linejoin="round"/>
</svg>
