<svg width="32" height="33" viewBox="0 0 32 33" fill="none" xmlns="http://www.w3.org/2000/svg">
<path d="M26.7999 32.5C26.5999 32.5 26.3999 32.4 26.2999 32.2L21.9 24.1H14.6C14.4 24.1 12.8 24.1 12 23.4C11.2 22.8 11 21.4 11 21.2L9.69995 13.2V13.1C9.79995 11.3 11.2 9.8 13 9.7C14.9 9.6 16.3 11 16.5 13.2L16.8 16.4L20.2 18.5C20.4 18.7 20.5 19 20.4 19.2C20.2 19.4 19.9 19.5 19.7 19.4L16 17.1C15.9 17 15.8 16.9 15.8 16.7L15.5 13.3C15.4 12 14.6 10.7 13.1 10.8C11.9 10.8 11 11.9 10.9 13.1L12.2 21.1C12.2 21.6 12.4 22.3 12.8 22.6C13.2 22.9 14.2 23 14.7 23H22.4C22.7 23 22.9 23.2 22.9 23.4L27.4 31.6C27.5 31.9 27.4 32.2 27.2 32.3C26.9 32.5 26.7999 32.5 26.7999 32.5Z" fill="white"/>
<path d="M20 27.4H10.6C10.4 27.4 10.2 27.3 10.1 27L6.1 15.6H4C3.7 15.6 3.5 15.4 3.5 15.1C3.5 14.8 3.7 14.6 4 14.6H6.5C6.7 14.6 6.9 14.7 7 15L11 26.4H20C20.3 26.4 20.5 26.6 20.5 26.9C20.5 27.2 20.3 27.4 20 27.4Z" fill="white"/>
<path fill-rule="evenodd" clip-rule="evenodd" d="M12.6101 2.00219C11.2323 1.94518 10.0589 3.00924 10.0022 4.38972L10.0022 4.38986C9.94518 5.76767 11.0093 6.94107 12.3897 6.99781L12.3899 6.99781C13.7677 7.05482 14.9411 5.99077 14.9978 4.61029C15.0548 3.22347 13.9818 2.05895 12.6101 2.00219ZM9.00305 4.34851C9.08289 2.40748 10.7305 0.923561 12.6515 1.00305C14.5786 1.08279 16.0765 2.7166 15.997 4.65135C15.9172 6.59241 14.2696 8.07637 12.3487 7.99696C10.4076 7.91719 8.92363 6.26961 9.00304 4.34865" fill="white"/>
</svg>
