<svg viewBox="0 0 31 32" fill="none" xmlns="http://www.w3.org/2000/svg">
<path fill-rule="evenodd" clip-rule="evenodd" d="M6.07499 1.50198C4.90696 1.4516 3.87793 2.39564 3.82784 3.66604L3.82783 3.66618C3.77741 4.9361 4.71532 5.98186 5.88642 6.03202L5.88657 6.03202C7.0546 6.0824 8.08362 5.13836 8.13372 3.86796C8.18411 2.58996 7.23854 1.55216 6.07499 1.50198ZM2.82862 3.62651C2.8994 1.8334 4.36685 0.427381 6.11808 0.502906C7.87383 0.578626 9.20335 2.12178 9.13294 3.90736C9.06223 5.70053 7.59476 7.10662 5.84348 7.03109L5.86502 6.53156L5.84363 7.0311C5.84358 7.0311 5.84353 7.0311 5.84348 7.03109C4.07526 6.95527 2.75831 5.39921 2.82862 3.62664L3.32823 3.64634L2.82862 3.62651Z" fill="#0B2343"/>
<path fill-rule="evenodd" clip-rule="evenodd" d="M10.4937 9.89558C11.0047 10.5182 11.3428 11.3777 11.6446 12.2796C11.9199 13.102 12.4631 13.9225 12.9581 14.5533C13.2026 14.8648 13.429 15.1223 13.5938 15.3013C13.6761 15.3907 13.7427 15.4602 13.7882 15.5067C13.8015 15.5203 13.813 15.532 13.8225 15.5416L17.2825 17.8006C17.5137 17.9516 17.5787 18.2614 17.4278 18.4926C17.2768 18.7238 16.967 18.7889 16.7358 18.6379L13.2326 16.3507C13.2054 16.333 13.18 16.3126 13.1568 16.29L13.506 15.9321C13.1568 16.29 13.1569 16.2901 13.1568 16.29L13.156 16.2892L13.1545 16.2878L13.1498 16.2831L13.133 16.2665C13.1188 16.2522 13.0984 16.2317 13.0726 16.2052C13.021 16.1524 12.9476 16.0758 12.8581 15.9786C12.6794 15.7845 12.4353 15.5069 12.1714 15.1706C11.6496 14.5056 11.0251 13.5793 10.6964 12.597C10.3942 11.6944 10.1031 10.9959 9.72072 10.53C9.36735 10.0995 8.93641 9.86594 8.27326 9.89527C7.0833 9.94623 6.07349 10.9417 6.07349 12.3334C6.07349 12.4556 6.11955 12.6953 6.23836 13.0637C6.35255 13.4179 6.51928 13.8477 6.72593 14.3299C7.13884 15.2935 7.69907 16.4385 8.2828 17.5548C8.86612 18.6704 9.46902 19.7499 9.96515 20.5814C10.2135 20.9976 10.4326 21.3476 10.6076 21.6072C10.6953 21.7373 10.7689 21.8403 10.8275 21.9158C10.8774 21.9801 10.9046 22.0089 10.912 22.0167C10.9143 22.0192 10.9147 22.0196 10.9132 22.0184L10.9162 22.0208C11.124 22.1934 11.5417 22.3187 11.9978 22.3902C12.21 22.4234 12.405 22.4414 12.5472 22.451C12.618 22.4558 12.6749 22.4585 12.7134 22.4599C12.7326 22.4606 12.7471 22.4611 12.7564 22.4613L12.7656 22.4615H20.2506C20.4579 22.4615 20.6358 22.5877 20.7116 22.7675L27.1205 31.1455C27.2883 31.3648 27.2465 31.6786 27.0272 31.8464C26.8078 32.0142 26.494 31.9724 26.3263 31.7531L19.9834 23.4615H12.7541L12.761 22.9664C12.7541 23.4615 12.7542 23.4615 12.7541 23.4615L12.7517 23.4614L12.747 23.4613L12.7312 23.461C12.7179 23.4607 12.6992 23.4601 12.6756 23.4592C12.6284 23.4574 12.5615 23.4543 12.4797 23.4487C12.3167 23.4377 12.0915 23.417 11.8431 23.3781C11.3786 23.3054 10.7149 23.1528 10.2785 22.7911C10.1912 22.7193 10.1072 22.6188 10.0374 22.5287C9.96009 22.4291 9.87278 22.3061 9.77837 22.1661C9.58918 21.8853 9.35965 21.5182 9.1064 21.0938C8.59934 20.244 7.98733 19.1478 7.39664 18.0182C6.80635 16.8893 6.23347 15.7196 5.80677 14.7238C5.59361 14.2264 5.41391 13.7654 5.28662 13.3706C5.16395 12.9902 5.07349 12.6231 5.07349 12.3334C5.07349 10.4309 6.4801 8.97134 8.22943 8.89623C9.22708 8.85221 9.95371 9.23768 10.4937 9.89558Z" fill="#0B2343"/>
<path fill-rule="evenodd" clip-rule="evenodd" d="M0 14.3374C0 14.0613 0.223858 13.8374 0.5 13.8374H2.916C3.1054 13.8374 3.27855 13.9444 3.36323 14.1138L9.21468 25.8189H18.1367C18.4128 25.8189 18.6367 26.0428 18.6367 26.3189C18.6367 26.5951 18.4128 26.8189 18.1367 26.8189H8.90563C8.71623 26.8189 8.54309 26.7119 8.4584 26.5425L2.60696 14.8374H0.5C0.223858 14.8374 0 14.6135 0 14.3374Z" fill="#0B2343"/>
<path fill-rule="evenodd" clip-rule="evenodd" d="M23.4167 1.06555C23.6811 0.311483 24.744 0.311483 25.0084 1.06555L26.1421 4.31412L29.6009 4.3832C30.4037 4.40303 30.7153 5.41882 30.0995 5.89775L30.0934 5.90249L27.3406 7.97612L28.3402 11.2657C28.5624 12.0193 27.7181 12.6595 27.0536 12.2033L27.0518 12.2021L24.2126 10.2352L21.3733 12.2021L21.3716 12.2033C20.7182 12.6519 19.8504 12.0309 20.0864 11.261C20.0865 11.2607 20.0866 11.2604 20.0867 11.26L21.0846 7.97589L18.3356 5.90233C17.6925 5.41758 18.0327 4.40275 18.8242 4.3832L18.8266 4.38315L22.283 4.31412L23.4167 1.06555ZM24.2126 1.82006L23.1126 4.97182C23.0438 5.16913 22.8595 5.3028 22.6505 5.30698L19.2957 5.37398L21.9657 7.38788C22.1331 7.51422 22.204 7.73169 22.143 7.93243L21.1731 11.1243L23.9278 9.21598C24.0991 9.09734 24.326 9.09734 24.4973 9.21598L27.252 11.1243L26.2822 7.93243C26.2211 7.73158 26.292 7.51399 26.4597 7.38769L29.1328 5.37405L25.7746 5.30698C25.5656 5.3028 25.3813 5.16913 25.3125 4.97182L24.2126 1.82006ZM18.9376 5.10389C18.9376 5.10388 18.9377 5.10391 18.9376 5.10389Z" fill="#0B2343"/>
</svg>
