<svg width="29" height="37" viewBox="0 0 29 37" fill="none" xmlns="http://www.w3.org/2000/svg">
<path fill-rule="evenodd" clip-rule="evenodd" d="M17.6409 4.04092C17.6409 1.80918 19.4501 0 21.6818 0C23.9135 0 25.7227 1.80918 25.7227 4.04092V9.95908C25.7227 12.1908 23.9135 14 21.6818 14C19.4501 14 17.6409 12.1908 17.6409 9.95908V4.04092ZM24.7227 4.04092V9.95908C24.7227 11.6385 23.3612 13 21.6818 13C20.0023 13 18.6409 11.6385 18.6409 9.95908V4.04092C18.6409 2.36147 20.0023 1 21.6818 1C23.3612 1 24.7227 2.36147 24.7227 4.04092Z" fill="#0B2343"/>
<path fill-rule="evenodd" clip-rule="evenodd" d="M6.496 3.87186C4.65842 3.79461 3.09557 5.23543 3.01997 7.10265C2.94482 8.94965 4.35047 10.5477 6.20683 10.6253C8.04446 10.7025 9.60733 9.26163 9.68286 7.39434C9.75811 5.53393 8.33918 3.94935 6.496 3.87186ZM4.01915 7.1432C4.07259 5.82216 5.17498 4.81721 6.45399 4.87098C7.72746 4.92452 8.73739 6.026 8.68368 7.35393C8.63025 8.67497 7.52785 9.67992 6.24884 9.62615C4.96718 9.57263 3.96541 8.46259 4.01915 7.1432Z" fill="#0B2343"/>
<path fill-rule="evenodd" clip-rule="evenodd" d="M12.3648 16.1107C12.0423 15.1715 11.6821 14.2797 11.1392 13.6348C10.5672 12.9555 9.80252 12.5619 8.75399 12.607C6.91625 12.6839 5.4165 14.1827 5.4165 16.1639C5.4165 16.464 5.51272 16.8451 5.64358 17.2407C5.77932 17.651 5.971 18.1304 6.19847 18.6478C6.65383 19.6837 7.26524 20.9007 7.89531 22.0753C8.52582 23.2508 9.17904 24.3913 9.72018 25.2754C9.99045 25.717 10.2353 26.0987 10.437 26.3904C10.5377 26.536 10.6306 26.6636 10.7127 26.7668C10.7873 26.8605 10.8753 26.9631 10.9658 27.0356C11.4236 27.4056 12.1223 27.563 12.6171 27.6385C12.8806 27.6788 13.1197 27.7002 13.2927 27.7116C13.3795 27.7173 13.4504 27.7206 13.5004 27.7224C13.5254 27.7233 13.5453 27.7239 13.5592 27.7242L13.5758 27.7246L13.5807 27.7247L13.5832 27.7248H21.321L28.1027 36.3669C28.2732 36.5841 28.5875 36.622 28.8047 36.4516C29.022 36.2811 29.0599 35.9668 28.8894 35.7495L22.0457 27.0284C21.9694 26.8499 21.7922 26.7248 21.5857 26.7248H13.5943L13.5838 26.7245L13.5613 26.7239L13.5372 26.7231C13.4958 26.7216 13.4346 26.7188 13.3585 26.7137C13.2058 26.7037 12.9962 26.6848 12.768 26.65C12.2797 26.5754 11.8239 26.4437 11.5939 26.2575L11.5909 26.2551C11.5909 26.2551 11.5912 26.2553 11.5898 26.2538C11.583 26.247 11.5528 26.2165 11.4952 26.1441C11.4322 26.065 11.3533 25.9573 11.2595 25.8217C11.0725 25.5512 10.8383 25.1867 10.5731 24.7533C10.0432 23.8877 9.39941 22.7639 8.77654 21.6027C8.15324 20.4406 7.55494 19.2487 7.11393 18.2454C6.89321 17.7433 6.71505 17.2956 6.59299 16.9266C6.46604 16.5429 6.4165 16.2923 6.4165 16.1639C6.4165 14.7166 7.49648 13.6604 8.79672 13.6061C9.52128 13.5749 9.99245 13.8255 10.3742 14.2789C10.7851 14.7669 11.0966 15.4965 11.419 16.4354C11.7692 17.4556 12.4346 18.4179 12.9908 19.1089C13.2721 19.4583 13.5324 19.7467 13.7228 19.9484C13.8181 20.0493 13.8962 20.1288 13.9512 20.1837C13.9786 20.2111 14.0003 20.2324 14.0155 20.2471L14.0332 20.2643L14.0382 20.2691L14.0398 20.2706L14.0406 20.2714C14.064 20.2936 14.0895 20.3136 14.1167 20.3309L17.8567 22.7112C18.0896 22.8595 18.3987 22.7908 18.5469 22.5579C18.6952 22.3249 18.6266 22.0159 18.3936 21.8676L14.6968 19.5147L14.6578 19.4761C14.6091 19.4275 14.5378 19.355 14.4498 19.2617C14.2735 19.0751 14.0313 18.8066 13.7698 18.4818C13.2406 17.8243 12.6593 16.9686 12.3648 16.1107Z" fill="#0B2343"/>
<path d="M0 18.2495C0 17.9734 0.223858 17.7495 0.5 17.7495H3.07932C3.26687 17.7495 3.43865 17.8545 3.52423 18.0214L9.77933 30.219H19.3288C19.605 30.219 19.8288 30.4428 19.8288 30.719C19.8288 30.9951 19.605 31.219 19.3288 31.219H9.47382C9.28627 31.219 9.1145 31.114 9.02891 30.9471L2.77381 18.7495H0.5C0.223858 18.7495 0 18.5257 0 18.2495Z" fill="#0B2343"/>
</svg>
