<?xml version="1.0" encoding="utf-8"?>
<!-- Generator: Adobe Illustrator 19.0.1, SVG Export Plug-In . SVG Version: 6.00 Build 0)  -->
<!DOCTYPE svg PUBLIC "-//W3C//DTD SVG 1.1//EN" "http://www.w3.org/Graphics/SVG/1.1/DTD/svg11.dtd">
<svg version="1.1" id="Layer_1" xmlns="http://www.w3.org/2000/svg" xmlns:xlink="http://www.w3.org/1999/xlink" x="0px" y="0px"
	 viewBox="0 0 41.7 45" enable-background="new 0 0 41.7 45" xml:space="preserve">
<g>
	<path fill="#231F20" d="M41.3,40.9l-7.1-14.4c-0.8-1.5-2.5-2.7-4.4-2.2l-6.7,0l-7.2-11.6c-3.5-5.3-10.7-0.6-7.7,4.7l7.3,11.9
		c0.7,1.2,1.9,2,3.2,2.3c0.4,0.1,0.8,0.2,1.2,0.2h10.9l0.1,0.3c0,0,3.9,7.9,5.5,11.2C38.2,46.8,43,44.4,41.3,40.9z"/>
	<g>
		<path fill="#231F20" d="M22.2,40.5c-3.5,0-7.6-0.4-9.8-2.1C6.2,33.8,0.8,20.2,0.2,18.6c-0.5-1.3,0.1-2.7,1.4-3.2
			c1.3-0.5,2.7,0.1,3.2,1.4c1.5,3.8,6.3,14.5,10.6,17.7c1.4,1,7,1.3,11.4,0.8c1.4-0.2,2.6,0.9,2.7,2.2c0.1,1.4-0.9,2.6-2.2,2.7
			C26.3,40.4,24.4,40.5,22.2,40.5z"/>
	</g>
	<path fill="#231F20" d="M11.9,3.4c-1-2.7-3.9-4.1-6.6-3.1c-2.6,1-3.9,4-2.9,6.6c1,2.7,3.9,4.1,6.6,3.1C11.6,9.1,12.9,6.1,11.9,3.4z
		"/>
</g>
</svg>
