<svg width="40" height="40" viewBox="0 0 40 40" fill="none" xmlns="http://www.w3.org/2000/svg">
<path d="M25.7144 8H13.7144C12.3429 8 11.1429 9.2 11.1429 10.5714V19.1429C11.1429 20.5143 12.3429 21.7143 13.7144 21.7143H25.7144C27.0858 21.7143 28.2858 20.5143 28.2858 19.1429V10.5714C28.2858 9.2 27.0858 8 25.7144 8Z" fill="#0B2343"/>
<path d="M25.7144 24.2856H13.7144C12.3429 24.2856 11.1429 25.4856 11.1429 26.8571V27.7142C11.1429 29.0856 12.3429 30.2856 13.7144 30.2856H25.7144C27.0858 30.2856 28.2858 29.0856 28.2858 27.7142V26.8571C28.2858 25.4856 27.0858 24.2856 25.7144 24.2856Z" fill="#0B2343"/>
<path d="M7.71429 14.8571C6.68571 14.8571 6 15.5428 6 16.5714V32H9.42857V16.5714C9.42857 15.5428 8.74286 14.8571 7.71429 14.8571Z" fill="#0B2343"/>
<path d="M31.7143 14.8571C30.6857 14.8571 30 15.5428 30 16.5714V32H33.4286V16.5714C33.4286 15.5428 32.7429 14.8571 31.7143 14.8571Z" fill="#0B2343"/>
</svg>
