<?xml version="1.0" encoding="utf-8"?>
<!-- Generator: Adobe Illustrator 19.1.0, SVG Export Plug-In . SVG Version: 6.00 Build 0)  -->
<svg version="1.1" id="Layer_1" xmlns="http://www.w3.org/2000/svg" xmlns:xlink="http://www.w3.org/1999/xlink" x="0px" y="0px"
	 viewBox="0 0 40 52" enable-background="new 0 0 40 52" xml:space="preserve">
<g>
	<g>
		<path fill="#231F20" d="M15.6,11.1c-0.1,0-0.2,0-0.2,0c-1.5-0.1-2.8-0.7-3.8-1.8c-1-1.1-1.5-2.5-1.4-4c0.1-3.1,2.7-5.4,5.8-5.3
			c3.1,0.1,5.4,2.7,5.3,5.8l0,0C21,8.8,18.5,11.1,15.6,11.1z M15.5,2c-1.9,0-3.5,1.5-3.5,3.4c0,0.9,0.3,1.9,0.9,2.6
			c0.6,0.7,1.5,1.1,2.5,1.1c1.9,0.1,3.6-1.4,3.7-3.4l0,0c0.1-2-1.4-3.6-3.4-3.7C15.7,2,15.6,2,15.5,2z"/>
	</g>
	<g>
		<path fill="#231F20" d="M39,52c-0.4,0-0.7-0.2-0.9-0.5l-7.4-13.4H18.6c-0.3,0-3-0.1-4.3-1.1c-1.4-1.1-1.7-3.5-1.7-3.7l-2.1-13.4
			c0-0.1,0-0.1,0-0.2c0.1-3.1,2.6-5.6,5.5-5.8c3.2-0.1,5.6,2.2,6,5.9l0.5,5.3l5.6,3.5c0.5,0.3,0.6,0.9,0.3,1.4
			c-0.3,0.5-0.9,0.6-1.4,0.3l-6-3.7c-0.3-0.2-0.4-0.4-0.5-0.8L20,19.9c-0.2-2-1.4-4.2-4-4.1c-1.9,0.1-3.5,1.7-3.6,3.8l2.1,13.4
			c0.1,0.6,0.4,2,0.9,2.4c0.6,0.5,2.2,0.7,3.1,0.7h12.8h0h0h0c0.5,0,0.9,0.3,1,0.8l7.5,13.7c0.3,0.5,0.1,1.1-0.4,1.4
			C39.3,52,39.2,52,39,52z"/>
	</g>
	<g>
		<path fill="#231F20" d="M27.7,43.6H12c-0.4,0-0.8-0.3-0.9-0.7l-6.6-19H1c-0.6,0-1-0.4-1-1s0.4-1,1-1h4.1c0.4,0,0.8,0.3,0.9,0.7
			l6.6,19h15.1c0.6,0,1,0.4,1,1S28.3,43.6,27.7,43.6z"/>
	</g>
</g>
</svg>
