<svg viewBox="0 0 47 47" fill="none" xmlns="http://www.w3.org/2000/svg">
<path fill-rule="evenodd" clip-rule="evenodd" d="M23.0775 12.5046C22.6139 12.5046 22.2373 12.8811 22.2373 13.3448V21.8413C22.2373 22.3049 22.6139 22.6814 23.0775 22.6814H35.8223C36.2859 22.6814 36.6625 22.3049 36.6625 21.8413V13.3448C36.6625 12.8811 36.2859 12.5046 35.8223 12.5046H23.0775ZM21.2625 13.3448C21.2625 12.3427 22.0754 11.5297 23.0775 11.5297H35.8223C36.8244 11.5297 37.6373 12.3427 37.6373 13.3448V21.8413C37.6373 22.8434 36.8244 23.6563 35.8223 23.6563H23.0775C22.0754 23.6563 21.2625 22.8434 21.2625 21.8413V13.3448Z" fill="#007CC2"/>
<path fill-rule="evenodd" clip-rule="evenodd" d="M26.0417 10.4241C26.0417 8.98129 27.2105 7.8125 28.6533 7.8125H30.2464C31.6892 7.8125 32.858 8.98129 32.858 10.4241C32.858 10.6933 32.6398 10.9115 32.3706 10.9115C32.1014 10.9115 31.8831 10.6933 31.8831 10.4241C31.8831 9.51971 31.1508 8.7874 30.2464 8.7874H28.6533C27.749 8.7874 27.0166 9.51971 27.0166 10.4241C27.0166 10.6933 26.7984 10.9115 26.5292 10.9115C26.26 10.9115 26.0417 10.6933 26.0417 10.4241Z" fill="#007CC2"/>
<path d="M45.0017 41.2191L37.4561 27.9539C36.6641 26.5606 34.6476 26.5606 33.8556 27.9539L26.3174 41.2191C25.5401 42.5904 26.53 44.3063 28.1139 44.3063C31.9938 44.3063 38.0255 44.3063 43.1978 44.3063C44.7817 44.3063 45.7863 42.5977 45.0017 41.2191Z" fill="#FBAF28"/>
<path fill-rule="evenodd" clip-rule="evenodd" d="M35.6599 31.2026C35.8624 31.2026 36.0265 31.3667 36.0265 31.5692V37.9049C36.0265 38.1074 35.8624 38.2715 35.6599 38.2715C35.4574 38.2715 35.2932 38.1074 35.2932 37.9049V31.5692C35.2932 31.3667 35.4574 31.2026 35.6599 31.2026Z" fill="#0B2343"/>
<path fill-rule="evenodd" clip-rule="evenodd" d="M35.6599 40.1561C35.8624 40.1561 36.0265 40.3203 36.0265 40.5228V40.6841C36.0265 40.8866 35.8624 41.0507 35.6599 41.0507C35.4574 41.0507 35.2932 40.8866 35.2932 40.6841V40.5228C35.2932 40.3203 35.4574 40.1561 35.6599 40.1561Z" fill="#0B2343"/>
<path fill-rule="evenodd" clip-rule="evenodd" d="M12.6612 17.9856C13.2511 18.6098 13.6012 19.4698 13.7119 20.4057L13.7133 20.4171L14.0106 23.5124L17.2949 25.5698C17.5389 25.7226 17.6128 26.0443 17.46 26.2884C17.3071 26.5324 16.9854 26.6063 16.7414 26.4534L13.2395 24.2597C13.1022 24.1737 13.0128 24.0289 12.9973 23.8678L12.6758 20.5227C12.5846 19.7604 12.3062 19.128 11.9033 18.7017C11.5087 18.2841 10.9751 18.0408 10.2981 18.0696C9.15023 18.1167 8.20518 19.1167 8.12286 20.3407L9.34203 28.1551C9.3436 28.1652 9.34488 28.1754 9.34586 28.1856C9.34588 28.1858 9.34584 28.1853 9.34586 28.1856L9.34666 28.193C9.3474 28.1998 9.34867 28.2108 9.35056 28.2258C9.35435 28.2556 9.3606 28.3006 9.37003 28.3569C9.38902 28.4703 9.42021 28.6253 9.46859 28.7924C9.57319 29.1538 9.7271 29.4608 9.91267 29.6058L9.91663 29.6089C10.1198 29.7708 10.5366 29.8913 10.9971 29.9602C11.2104 29.992 11.4067 30.0093 11.5498 30.0186C11.6211 30.0232 11.6783 30.0257 11.7171 30.0271C11.7364 30.0278 11.7511 30.0282 11.7605 30.0284L11.7698 30.0286H19.2521C19.4971 30.0286 19.7026 30.1977 19.7585 30.4255L24.1667 38.4396C24.3055 38.6919 24.2135 39.0089 23.9612 39.1477C23.7089 39.2864 23.3919 39.1944 23.2532 38.9421L18.9237 31.0713H11.7584L11.7653 30.55C11.7584 31.0713 11.7585 31.0713 11.7584 31.0713L11.7559 31.0712L11.7513 31.0711L11.7354 31.0708C11.7221 31.0705 11.7033 31.07 11.6795 31.0691C11.6321 31.0674 11.5648 31.0644 11.4826 31.0591C11.3189 31.0485 11.0925 31.0287 10.8429 30.9914C10.3783 30.9219 9.70962 30.7761 9.26878 30.4259C8.81165 30.0676 8.58365 29.4852 8.46703 29.0824C8.40472 28.8671 8.36546 28.6712 8.34168 28.5292C8.32973 28.4578 8.32151 28.399 8.31618 28.357C8.31352 28.336 8.31156 28.3191 8.31022 28.3069L8.30979 28.3028L7.08411 20.4467C7.07869 20.4119 7.0768 20.3767 7.07847 20.3415C7.15997 18.63 8.47959 17.101 10.2542 17.0278C11.2374 16.9862 12.0622 17.3517 12.6612 17.9856Z" fill="#007CC2"/>
<path fill-rule="evenodd" clip-rule="evenodd" d="M1 22.2889C1 22.001 1.23341 21.7676 1.52134 21.7676H3.93646C4.15855 21.7676 4.35626 21.9083 4.42902 22.1181L8.29234 33.2594H17.149C17.4369 33.2594 17.6703 33.4928 17.6703 33.7808C17.6703 34.0687 17.4369 34.3021 17.149 34.3021H7.92133C7.69924 34.3021 7.50153 34.1614 7.42877 33.9516L3.56545 22.8103H1.52134C1.23341 22.8103 1 22.5768 1 22.2889Z" fill="#007CC2"/>
<path fill-rule="evenodd" clip-rule="evenodd" d="M9.86353 10C8.75896 10 7.86353 10.8954 7.86353 12C7.86353 13.1046 8.75896 14 9.86353 14C10.9681 14 11.8635 13.1046 11.8635 12C11.8635 10.8954 10.9681 10 9.86353 10ZM6.86353 12C6.86353 10.3431 8.20667 9 9.86353 9C11.5204 9 12.8635 10.3431 12.8635 12C12.8635 13.6569 11.5204 15 9.86353 15C8.20667 15 6.86353 13.6569 6.86353 12Z" fill="#007CC2"/>
</svg>
