<?xml version="1.0" encoding="utf-8"?>
<!-- Generator: Adobe Illustrator 26.0.1, SVG Export Plug-In . SVG Version: 6.00 Build 0)  -->
<svg version="1.1" id="Layer_1" xmlns="http://www.w3.org/2000/svg" xmlns:xlink="http://www.w3.org/1999/xlink" x="0px" y="0px"
	 viewBox="0 0 25 32" style="enable-background:new 0 0 25 32;" xml:space="preserve">
<style type="text/css">
	.st0{fill:#0B2343;}
</style>
<g>
	<path class="st0" d="M9.7,7c0,0-0.1,0-0.1,0c-0.9,0-1.7-0.4-2.3-1.1C6.7,5.3,6.4,4.4,6.5,3.6c0-0.9,0.4-1.7,1.1-2.3
		C8.2,0.7,9,0.4,9.9,0.5c0.9,0,1.7,0.4,2.3,1.1C12.7,2.2,13,3,13,3.9c0,0.9-0.4,1.7-1.1,2.3C11.3,6.7,10.5,7,9.7,7z M9.7,1.5
		c-0.6,0-1.1,0.2-1.5,0.6C7.8,2.5,7.6,3,7.5,3.6c0,0.6,0.2,1.1,0.6,1.6C8.5,5.6,9,5.9,9.6,5.9c0.6,0,1.1-0.2,1.6-0.6
		c0.4-0.4,0.7-0.9,0.7-1.5c0,0,0,0,0,0c0-0.6-0.2-1.1-0.6-1.6C10.9,1.8,10.4,1.6,9.7,1.5C9.8,1.5,9.8,1.5,9.7,1.5z"/>
</g>
<g>
	<path class="st0" d="M23.8,31.5c-0.2,0-0.4-0.1-0.5-0.3l-4.4-8.1h-7.3c-0.2,0-1.8,0-2.6-0.7c-0.8-0.6-1-2-1-2.2l-1.3-8
		c0,0,0-0.1,0-0.1c0.1-1.8,1.5-3.3,3.3-3.4c1.9-0.1,3.3,1.3,3.5,3.5l0.3,3.2l3.4,2.1c0.2,0.2,0.3,0.5,0.2,0.7
		c-0.2,0.2-0.5,0.3-0.7,0.2L13,16.1c-0.1-0.1-0.2-0.2-0.2-0.4l-0.3-3.4c-0.1-1.3-0.9-2.6-2.4-2.5c-1.2,0-2.1,1.1-2.2,2.3l1.3,8
		c0,0.5,0.2,1.2,0.6,1.5c0.4,0.3,1.4,0.4,1.9,0.4h7.7l0,0l0,0h0c0.3,0,0.5,0.2,0.5,0.4l4.5,8.2c0.1,0.3,0,0.6-0.2,0.7
		C23.9,31.5,23.8,31.5,23.8,31.5z"/>
</g>
<g>
	<path class="st0" d="M17,26.4H7.6c-0.2,0-0.4-0.1-0.5-0.4l-4-11.4H1c-0.3,0-0.5-0.2-0.5-0.5s0.2-0.5,0.5-0.5h2.5
		c0.2,0,0.4,0.1,0.5,0.4l4,11.4H17c0.3,0,0.5,0.2,0.5,0.5S17.3,26.4,17,26.4z"/>
</g>
</svg>
