<?xml version="1.0" encoding="utf-8"?>
<!-- Generator: Adobe Illustrator 19.2.1, SVG Export Plug-In . SVG Version: 6.00 Build 0)  -->
<svg version="1.1" id="Layer_1" xmlns="http://www.w3.org/2000/svg" xmlns:xlink="http://www.w3.org/1999/xlink" x="0px" y="0px"
	 viewBox="0 0 31.5 35" enable-background="new 0 0 31.5 35" xml:space="preserve">
<g>
	<g>
		<path fill="#231F20" d="M6.9,7.2c-0.1,0-0.1,0-0.2,0c-2-0.1-3.5-1.8-3.4-3.7c0-1,0.5-1.8,1.2-2.5C5.2,0.3,6.1,0,7,0
			c2,0.1,3.5,1.8,3.4,3.7l0,0C10.4,5.7,8.8,7.2,6.9,7.2z M6.9,1C6.2,1,5.6,1.2,5.1,1.7C4.6,2.1,4.3,2.8,4.3,3.5
			c-0.1,1.4,1,2.6,2.5,2.7c1.4,0,2.6-1,2.7-2.5C9.5,2.3,8.4,1.1,7,1C7,1,6.9,1,6.9,1z M10,3.7L10,3.7L10,3.7z"/>
	</g>
	<g>
		<path fill="#231F20" d="M31,35c-0.1,0-0.3-0.1-0.4-0.2l-7.4-9.3h-8.4c-0.2,0-2-0.1-2.8-0.7c-0.8-0.7-6-9.6-6-11.6
			c0-2.1,1.5-3.7,3.6-3.8c2.3-0.1,3.2,1.8,3.9,3.7C14,15,16,16.8,16,16.8l4,2.5c0.2,0.1,0.3,0.5,0.2,0.7s-0.5,0.3-0.7,0.2l-4.1-2.5
			c-0.2-0.1-2.2-2-2.9-4.2c-0.7-2-1.4-3.1-2.9-3.1c-1.5,0.1-2.6,1.3-2.6,2.8c0,1.6,4.8,10.1,5.7,10.8c0.5,0.4,1.8,0.5,2.2,0.5h8.7
			l0,0l0,0h0c0.2,0,0.4,0.1,0.5,0.3l7.5,9.3c0.2,0.2,0.1,0.5-0.1,0.7C31.2,35,31.1,35,31,35z"/>
	</g>
	<g>
		<path fill="#231F20" d="M21,29.3H10.3c-0.2,0-0.4-0.1-0.4-0.3L3,15.9H0.5c-0.3,0-0.5-0.2-0.5-0.5s0.2-0.5,0.5-0.5h2.8
			c0.2,0,0.4,0.1,0.4,0.3l6.8,13.1H21c0.3,0,0.5,0.2,0.5,0.5S21.3,29.3,21,29.3z"/>
	</g>
</g>
</svg>
