<svg viewBox="0 0 36 62" fill="none" xmlns="http://www.w3.org/2000/svg">
<path d="M0 19C0 9.05888 8.05888 1 18 1L-nan -nanL18 1C27.9411 1 36 9.05888 36 19V50C36 56.6274 30.6274 62 24 62H12C5.37258 62 0 56.6274 0 50V19Z" fill="white"/>
<path fill-rule="evenodd" clip-rule="evenodd" d="M34 50V19C34 10.1634 26.8366 3 18 3C9.16344 3 2 10.1634 2 19V50C2 55.5228 6.47715 60 12 60H24C29.5228 60 34 55.5228 34 50ZM18 1C8.05888 1 0 9.05888 0 19V50C0 56.6274 5.37258 62 12 62H24C30.6274 62 36 56.6274 36 50V19C36 9.05888 27.9411 1 18 1Z" fill="#CCCCCC"/>
<path d="M36 18C36 13.2261 34.1036 8.64773 30.7279 5.27208C27.3523 1.89642 22.7739 3.60419e-07 18 0C13.2261 -3.60419e-07 8.64773 1.89642 5.27208 5.27208C1.89642 8.64773 7.20838e-07 13.2261 0 18H7.20206C7.20206 15.1362 8.3397 12.3897 10.3647 10.3647C12.3897 8.3397 15.1362 7.20206 18 7.20206C20.8638 7.20206 23.6103 8.3397 25.6353 10.3647C27.6603 12.3897 28.7979 15.1362 28.7979 18H36Z" fill="white"/>
<path fill-rule="evenodd" clip-rule="evenodd" d="M33.8746 16C33.4329 12.494 31.839 9.21155 29.3137 6.68629C26.3131 3.68571 22.2435 2 18 2C13.7565 2 9.68688 3.68571 6.68629 6.68629C4.16104 9.21154 2.56707 12.494 2.12543 16H5.35925C5.77904 13.3467 7.02702 10.874 8.95049 8.95049C11.3506 6.55041 14.6058 5.20206 18 5.20206C21.3942 5.20206 24.6494 6.55041 27.0495 8.95049C28.973 10.874 30.221 13.3467 30.6408 16H33.8746ZM35.8886 16C35.4373 11.962 33.6288 8.17293 30.7279 5.27208C27.3523 1.89642 22.7739 0 18 0C13.2261 0 8.64773 1.89642 5.27208 5.27208C2.37122 8.17293 0.562745 11.962 0.111394 16C0.0375182 16.6609 0 17.3285 0 18H7.20206C7.20206 15.1362 8.3397 12.3897 10.3647 10.3647C12.3897 8.3397 15.1362 7.20206 18 7.20206C20.8638 7.20206 23.6103 8.3397 25.6353 10.3647C27.6603 12.3897 28.7979 15.1362 28.7979 18H36C36 17.3285 35.9625 16.6609 35.8886 16Z" fill="#CCCCCC"/>
<path d="M0 54.5C0 50.3579 3.35786 47 7.5 47H28.5C32.6421 47 36 50.3579 36 54.5C36 58.6421 32.6421 62 28.5 62H7.5C3.35786 62 0 58.6421 0 54.5Z" fill="white"/>
<path fill-rule="evenodd" clip-rule="evenodd" d="M28.5 49H7.5C4.46243 49 2 51.4624 2 54.5C2 57.5376 4.46243 60 7.5 60H28.5C31.5376 60 34 57.5376 34 54.5C34 51.4624 31.5376 49 28.5 49ZM7.5 47C3.35786 47 0 50.3579 0 54.5C0 58.6421 3.35786 62 7.5 62H28.5C32.6421 62 36 58.6421 36 54.5C36 50.3579 32.6421 47 28.5 47H7.5Z" fill="#CCCCCC"/>
<path fill-rule="evenodd" clip-rule="evenodd" d="M27 24.8042L25.2014 23L18.0004 30.2004L10.8 23L9 24.8042L16.1995 32.0012L9 39.2L10.8 41L18.0004 33.8015L25.2014 41L27 39.2L19.8012 32.0012L27 24.8042Z" fill="#CCCCCC"/>
</svg>
