<svg viewBox="0 0 47 47" fill="none" xmlns="http://www.w3.org/2000/svg">
<path fill-rule="evenodd" clip-rule="evenodd" d="M20.9178 17.3656C21.5077 17.9898 21.8578 18.8498 21.9685 19.7857L21.9699 19.7971L22.2672 22.8924L25.5515 24.9498C25.7955 25.1026 25.8694 25.4244 25.7165 25.6684C25.5637 25.9124 25.242 25.9863 24.998 25.8334L21.496 23.6397C21.3588 23.5537 21.2693 23.4089 21.2539 23.2478L20.9324 19.9027C20.8412 19.1404 20.5628 18.508 20.1599 18.0817C19.7653 17.6641 19.2317 17.4208 18.5547 17.4496C17.4068 17.4967 16.4618 18.4967 16.3795 19.7207L17.5986 27.5351C17.6002 27.5452 17.6015 27.5554 17.6025 27.5656C17.6025 27.5658 17.6024 27.5653 17.6025 27.5656L17.6032 27.5731C17.604 27.5798 17.6053 27.5908 17.6071 27.6058C17.6109 27.6356 17.6172 27.6806 17.6266 27.7369C17.6456 27.8503 17.6768 28.0053 17.7252 28.1724C17.8298 28.5338 17.9837 28.8408 18.1693 28.9858L18.1732 28.9889C18.3764 29.1508 18.7932 29.2713 19.2537 29.3402C19.467 29.372 19.6633 29.3893 19.8064 29.3986C19.8776 29.4032 19.9349 29.4057 19.9737 29.4071C19.993 29.4078 20.0077 29.4082 20.017 29.4084L20.0264 29.4086H27.5087C27.7537 29.4086 27.9592 29.5777 28.0151 29.8055L32.4233 37.8196C32.5621 38.0719 32.4701 38.3889 32.2178 38.5277C31.9655 38.6664 31.6485 38.5744 31.5097 38.3221L27.1803 30.4513H20.015L20.0219 29.93C20.015 30.4513 20.0151 30.4513 20.015 30.4513L20.0125 30.4512L20.0078 30.4512L19.992 30.4508C19.9787 30.4505 19.9598 30.45 19.9361 30.4491C19.8887 30.4474 19.8214 30.4444 19.7392 30.4391C19.5754 30.4285 19.3491 30.4087 19.0995 30.3714C18.6349 30.3019 17.9662 30.1561 17.5254 29.8059C17.0682 29.4476 16.8402 28.8652 16.7236 28.4624C16.6613 28.2471 16.6221 28.0512 16.5983 27.9092C16.5863 27.8378 16.5781 27.779 16.5728 27.737C16.5701 27.716 16.5682 27.6991 16.5668 27.6869L16.5664 27.6828L15.3407 19.8267C15.3353 19.7919 15.3334 19.7567 15.3351 19.7215C15.4166 18.01 16.7362 16.481 18.5108 16.4078C19.494 16.3662 20.3188 16.7317 20.9178 17.3656Z" fill="#007CC2"/>
<path fill-rule="evenodd" clip-rule="evenodd" d="M9.25659 21.6689C9.25659 21.381 9.49 21.1476 9.77793 21.1476H12.1931C12.4151 21.1476 12.6129 21.2883 12.6856 21.4981L16.5489 32.6394H25.4056C25.6935 32.6394 25.9269 32.8728 25.9269 33.1608C25.9269 33.4487 25.6935 33.6821 25.4056 33.6821H16.1779C15.9558 33.6821 15.7581 33.5414 15.6854 33.3316L11.822 22.1903H9.77793C9.49 22.1903 9.25659 21.9568 9.25659 21.6689Z" fill="#007CC2"/>
<path d="M45.0017 41.2191L37.4561 27.9539C36.6641 26.5606 34.6476 26.5606 33.8556 27.9539L26.3174 41.2191C25.5401 42.5904 26.53 44.3063 28.1139 44.3063C31.9938 44.3063 38.0255 44.3063 43.1978 44.3063C44.7817 44.3063 45.7863 42.5977 45.0017 41.2191Z" fill="#FBAF28"/>
<path fill-rule="evenodd" clip-rule="evenodd" d="M35.6599 31.2026C35.8624 31.2026 36.0265 31.3667 36.0265 31.5692V37.9049C36.0265 38.1074 35.8624 38.2715 35.6599 38.2715C35.4574 38.2715 35.2932 38.1074 35.2932 37.9049V31.5692C35.2932 31.3667 35.4574 31.2026 35.6599 31.2026Z" fill="#0B2343"/>
<path fill-rule="evenodd" clip-rule="evenodd" d="M35.6599 40.1561C35.8624 40.1561 36.0265 40.3203 36.0265 40.5228V40.6841C36.0265 40.8866 35.8624 41.0507 35.6599 41.0507C35.4574 41.0507 35.2932 40.8866 35.2932 40.6841V40.5228C35.2932 40.3203 35.4574 40.1561 35.6599 40.1561Z" fill="#0B2343"/>
<path fill-rule="evenodd" clip-rule="evenodd" d="M18.1201 9.38C17.0155 9.38 16.1201 10.2754 16.1201 11.38C16.1201 12.4846 17.0155 13.38 18.1201 13.38C19.2247 13.38 20.1201 12.4846 20.1201 11.38C20.1201 10.2754 19.2247 9.38 18.1201 9.38ZM15.1201 11.38C15.1201 9.72315 16.4633 8.38 18.1201 8.38C19.777 8.38 21.1201 9.72315 21.1201 11.38C21.1201 13.0369 19.777 14.38 18.1201 14.38C16.4633 14.38 15.1201 13.0369 15.1201 11.38Z" fill="#007CC2"/>
</svg>
