<?xml version="1.0" encoding="utf-8"?>
<!-- Generator: Adobe Illustrator 26.0.1, SVG Export Plug-In . SVG Version: 6.00 Build 0)  -->
<svg version="1.1" id="Layer_1" xmlns="http://www.w3.org/2000/svg" xmlns:xlink="http://www.w3.org/1999/xlink" x="0px" y="0px"
	 viewBox="0 0 32 32" style="enable-background:new 0 0 32 32;" xml:space="preserve">
<style type="text/css">
	.st0{fill:#0B2343;}
</style>
<g>
	<path class="st0" d="M6.5,6.6c0,0-0.1,0-0.1,0C4.6,6.6,3.3,5,3.3,3.2c0-0.9,0.4-1.7,1.1-2.3C5,0.4,5.8,0.1,6.6,0.1
		c1.7,0.1,3.1,1.6,3,3.4c0,0.9-0.4,1.7-1.1,2.3C8,6.3,7.3,6.6,6.5,6.6z M6.5,1.1c-0.5,0-1,0.2-1.4,0.6c-0.4,0.4-0.7,1-0.7,1.6
		c0,1.3,0.9,2.3,2.1,2.4c0.6,0,1.1-0.2,1.5-0.6c0.4-0.4,0.7-1,0.7-1.6C8.7,2.2,7.8,1.2,6.5,1.1C6.5,1.1,6.5,1.1,6.5,1.1z"/>
</g>
<g>
	<path class="st0" d="M27.2,31.5c-0.2,0-0.3-0.1-0.4-0.2l-6.3-8.3h-7.2c-0.2,0-1.7,0-2.5-0.7c-0.7-0.6-5.2-8.6-5.2-10.5
		c0-1.9,1.4-3.4,3.2-3.4c2-0.1,2.8,1.6,3.4,3.4c0.6,1.7,2.2,3.3,2.2,3.3l3.4,2.2c0.2,0.2,0.3,0.5,0.1,0.7c-0.2,0.2-0.5,0.3-0.7,0.1
		L13.7,16c-0.1-0.1-1.9-1.9-2.5-3.8c-0.6-1.8-1.1-2.7-2.4-2.7c-1.3,0.1-2.2,1.1-2.2,2.4c0,1.5,4.2,9.1,4.8,9.7
		c0.4,0.3,1.3,0.4,1.9,0.4h7.5l0,0l0,0h0c0.2,0,0.4,0.1,0.5,0.3l6.4,8.4c0.2,0.2,0.1,0.5-0.1,0.7C27.4,31.5,27.3,31.5,27.2,31.5z"/>
</g>
<g>
	<path class="st0" d="M18.6,26.4H9.4c-0.2,0-0.4-0.1-0.4-0.3L3.1,14.4H1c-0.3,0-0.5-0.2-0.5-0.5s0.2-0.5,0.5-0.5h2.4
		c0.2,0,0.4,0.1,0.4,0.3l5.9,11.7h8.9c0.3,0,0.5,0.2,0.5,0.5S18.9,26.4,18.6,26.4z"/>
</g>
<g>
	<path class="st0" d="M31,11.2H19.7c-0.3,0-0.5-0.2-0.5-0.5V3.1c0-0.2,0.1-0.4,0.3-0.5c0.2-0.1,0.4,0,0.6,0.2l2.4,3.1L25,2.8
		c0.2-0.2,0.6-0.2,0.8,0l2.4,3.1l2.4-3.1c0.1-0.2,0.4-0.2,0.6-0.2c0.2,0.1,0.3,0.3,0.3,0.5v7.6C31.5,11,31.2,11.2,31,11.2z
		 M20.2,10.2h10.2V4.6L28.6,7c-0.2,0.2-0.6,0.2-0.8,0l-2.4-3.1L22.9,7c-0.2,0.2-0.6,0.2-0.8,0l-1.9-2.4V10.2z"/>
</g>
</svg>
