<svg width="32" height="32" viewBox="0 0 32 32" fill="none" xmlns="http://www.w3.org/2000/svg">
<path fill-rule="evenodd" clip-rule="evenodd" d="M6.94209 2.00322C5.56286 1.94615 4.38826 3.01129 4.33147 4.39318L4.33147 4.39332C4.27439 5.77255 5.33956 6.94715 6.72145 7.00394L6.7216 7.00394C8.10082 7.06102 9.27542 5.99587 9.33221 4.61398C9.38926 3.22574 8.31516 2.06004 6.94209 2.00322ZM3.3313 4.35194C3.41123 2.40892 5.06055 0.923483 6.98347 1.00305C8.91259 1.08288 10.412 2.71835 10.3324 4.65508C10.2525 6.59817 8.60318 8.08368 6.68021 8.00411L6.7009 7.50403L6.68035 8.00412C6.6803 8.00411 6.68026 8.00411 6.68021 8.00411C4.73725 7.92419 3.2518 6.27495 3.33129 4.35208L3.83138 4.37263L3.3313 4.35194Z" fill="white"/>
<path fill-rule="evenodd" clip-rule="evenodd" d="M11.0039 9.90469C11.5154 10.528 11.8538 11.3884 12.156 12.2912C12.4315 13.1144 12.9753 13.9357 13.4708 14.5671C13.7155 14.879 13.9422 15.1367 14.1072 15.3159C14.1895 15.4054 14.2562 15.475 14.3017 15.5216C14.315 15.5352 14.3265 15.5469 14.3361 15.5565L17.7996 17.8178C18.031 17.9689 18.0962 18.2791 17.945 18.5105C17.7939 18.742 17.4838 18.8071 17.2523 18.656L13.7456 16.3665C13.7184 16.3487 13.693 16.3283 13.6697 16.3056L14.0192 15.9474C13.6697 16.3056 13.6698 16.3057 13.6697 16.3056L13.6689 16.3048L13.6674 16.3034L13.6627 16.2987L13.6459 16.2821C13.6316 16.2678 13.6112 16.2473 13.5854 16.2208C13.5337 16.1679 13.4603 16.0912 13.3707 15.994C13.1918 15.7996 12.9474 15.5217 12.6833 15.1851C12.1609 14.5194 11.5358 13.5921 11.2067 12.6089C10.9043 11.7053 10.6129 11.0061 10.2301 10.5398C9.87637 10.1088 9.44499 9.87503 8.78117 9.90438C7.58999 9.9554 6.57915 10.9519 6.57915 12.345C6.57915 12.4673 6.62526 12.7073 6.74419 13.0761C6.8585 13.4306 7.0254 13.8608 7.23226 14.3436C7.64559 15.3081 8.2064 16.4543 8.79072 17.5717C9.37464 18.6884 9.97815 19.7691 10.4748 20.6014C10.7234 21.0181 10.9428 21.3684 11.1179 21.6282C11.2057 21.7585 11.2794 21.8616 11.338 21.9372C11.388 22.0016 11.4152 22.0304 11.4226 22.0382C11.4249 22.0407 11.4253 22.0411 11.4238 22.0399L11.4268 22.0423C11.6348 22.2151 12.053 22.3405 12.5096 22.412C12.7219 22.4453 12.9172 22.4633 13.0595 22.473C13.1304 22.4778 13.1873 22.4804 13.2258 22.4819C13.245 22.4826 13.2596 22.483 13.2689 22.4833L13.2781 22.4835H20.7707C20.9783 22.4835 21.1564 22.6098 21.2322 22.7898L27.6477 31.1763C27.8156 31.3959 27.7738 31.71 27.5543 31.878C27.3347 32.0459 27.0206 32.0041 26.8526 31.7845L20.5033 23.4845H13.2666L13.2735 22.9889C13.2666 23.4844 13.2667 23.4845 13.2666 23.4845L13.2642 23.4844L13.2595 23.4843L13.2437 23.484C13.2304 23.4836 13.2116 23.4831 13.188 23.4822C13.1407 23.4804 13.0738 23.4772 12.9919 23.4717C12.8288 23.4607 12.6033 23.44 12.3547 23.401C11.8896 23.3282 11.2253 23.1755 10.7884 22.8134C10.701 22.7415 10.617 22.6409 10.5471 22.5508C10.4697 22.451 10.3823 22.3279 10.2878 22.1877C10.0984 21.9067 9.86867 21.5392 9.61517 21.1144C9.10758 20.2637 8.49495 19.1664 7.90365 18.0356C7.31277 16.9056 6.7393 15.7346 6.31216 14.7378C6.09878 14.2399 5.91889 13.7784 5.79148 13.3833C5.66868 13.0025 5.57812 12.635 5.57812 12.345C5.57812 10.4406 6.98618 8.97951 8.73729 8.90432C9.73597 8.86026 10.4633 9.24612 11.0039 9.90469Z" fill="white"/>
<path fill-rule="evenodd" clip-rule="evenodd" d="M0.499512 14.351C0.499512 14.0746 0.723598 13.8505 1.00002 13.8505H3.4185C3.60809 13.8505 3.78141 13.9577 3.86619 14.1272L9.72361 25.8443H18.6547C18.9312 25.8443 19.1552 26.0684 19.1552 26.3448C19.1552 26.6212 18.9312 26.8453 18.6547 26.8453H9.41425C9.22466 26.8453 9.05134 26.7382 8.96656 26.5686L3.10914 14.8515H1.00002C0.723598 14.8515 0.499512 14.6275 0.499512 14.351Z" fill="white"/>
<path fill-rule="evenodd" clip-rule="evenodd" d="M21.1278 1.28569C21.2228 1.1683 21.3658 1.1001 21.5168 1.1001H28.0782C28.2289 1.1001 28.3715 1.16797 28.4666 1.28489L31.7405 5.31216C31.9038 5.51311 31.8869 5.80549 31.7015 5.98626L25.1537 12.3696C24.9594 12.5591 24.6493 12.5591 24.455 12.3696L17.9072 5.98626C17.7221 5.80576 17.7049 5.51393 17.8676 5.31296L21.1278 1.28569ZM21.7556 2.10112L18.9328 5.58808L24.8043 11.3122L30.6752 5.58874L27.84 2.10112H21.7556Z" fill="white"/>
</svg>
