<?xml version="1.0" encoding="utf-8"?>
<!-- Generator: Adobe Illustrator 26.0.1, SVG Export Plug-In . SVG Version: 6.00 Build 0)  -->
<svg version="1.1" id="Layer_1" xmlns="http://www.w3.org/2000/svg" xmlns:xlink="http://www.w3.org/1999/xlink" x="0px" y="0px"
	 viewBox="0 0 30 37" style="enable-background:new 0 0 30 37;" xml:space="preserve">
<style type="text/css">
	.st0{fill:#0B2343;}
</style>
<g>
	<path class="st0" d="M6.8,10.6c0,0-0.1,0-0.1,0C4.9,10.5,3.4,9,3.5,7.1c0-0.9,0.4-1.7,1.1-2.4C5.3,4.1,6.1,3.8,7,3.9
		c1.8,0.1,3.3,1.7,3.2,3.5c0,0.9-0.4,1.7-1.1,2.4C8.5,10.3,7.7,10.6,6.8,10.6z M6.9,4.9c-0.6,0-1.1,0.2-1.6,0.6
		c-0.5,0.4-0.7,1-0.8,1.7C4.5,8.5,5.5,9.6,6.7,9.6C7.4,9.7,8,9.4,8.4,9c0.5-0.4,0.7-1,0.8-1.7C9.2,6,8.2,4.9,6.9,4.9
		C6.9,4.9,6.9,4.9,6.9,4.9z"/>
</g>
<g>
	<path class="st0" d="M29,36.6c-0.1,0-0.3-0.1-0.4-0.2l-6.8-8.6h-7.7c-0.2,0-1.8,0-2.6-0.7c-0.8-0.6-5.5-9-5.5-10.9
		c0-1.9,1.5-3.5,3.3-3.6c2.2-0.1,3,1.7,3.6,3.5c0.6,1.7,2.3,3.4,2.4,3.4l3.7,2.3c0.2,0.1,0.3,0.5,0.2,0.7c-0.1,0.2-0.5,0.3-0.7,0.2
		l-3.7-2.4c-0.2-0.1-2-1.9-2.7-3.9c-0.7-1.9-1.3-2.9-2.6-2.8c-1.4,0.1-2.4,1.2-2.4,2.6c0,1.4,4.4,9.4,5.2,10.1
		c0.4,0.3,1.4,0.5,2,0.5h8l0,0l0,0h0c0.2,0,0.4,0.1,0.5,0.3l6.8,8.7c0.2,0.2,0.1,0.5-0.1,0.7C29.2,36.5,29.1,36.6,29,36.6z"/>
</g>
<g>
	<path class="st0" d="M19.8,31.2H10c-0.2,0-0.4-0.1-0.4-0.3L3.3,18.7H1c-0.3,0-0.5-0.2-0.5-0.5s0.2-0.5,0.5-0.5h2.6
		c0.2,0,0.4,0.1,0.4,0.3l6.3,12.2h9.5c0.3,0,0.5,0.2,0.5,0.5S20.1,31.2,19.8,31.2z"/>
</g>
<g>
	<path class="st0" d="M22.2,14c-2.2,0-4-1.8-4-4V4c0-2.2,1.8-4,4-4s4,1.8,4,4V10C26.2,12.2,24.4,14,22.2,14z M22.2,1
		c-1.7,0-3,1.4-3,3V10c0,1.7,1.4,3,3,3s3-1.4,3-3V4C25.2,2.4,23.9,1,22.2,1z"/>
</g>
</svg>
