<?xml version="1.0" encoding="utf-8"?>
<!-- Generator: Adobe Illustrator 26.0.1, SVG Export Plug-In . SVG Version: 6.00 Build 0)  -->
<svg version="1.1" id="Layer_1" xmlns="http://www.w3.org/2000/svg" xmlns:xlink="http://www.w3.org/1999/xlink" x="0px" y="0px"
	 viewBox="0 0 31 32" style="enable-background:new 0 0 31 32;" xml:space="preserve">
<style type="text/css">
	.st0{fill:#0B2343;}
</style>
<g>
	<path class="st0" d="M6.5,7c0,0-0.1,0-0.1,0C4.6,7,3.3,5.4,3.3,3.6c0-0.9,0.4-1.7,1.1-2.3C5,0.8,5.8,0.5,6.6,0.5
		c1.7,0.1,3.1,1.6,3,3.4c0,0.9-0.4,1.7-1.1,2.3C8,6.7,7.3,7,6.5,7z M6.5,1.5c-0.5,0-1,0.2-1.4,0.6C4.6,2.5,4.4,3,4.3,3.7
		C4.3,4.9,5.2,6,6.4,6c0.6,0,1.1-0.2,1.5-0.6c0.4-0.4,0.7-1,0.7-1.6C8.7,2.6,7.8,1.6,6.5,1.5C6.5,1.5,6.5,1.5,6.5,1.5z"/>
</g>
<g>
	<path class="st0" d="M27.2,31.9c-0.2,0-0.3-0.1-0.4-0.2l-6.3-8.3h-7.2c-0.2,0-1.7,0-2.5-0.7c-0.7-0.6-5.2-8.6-5.2-10.5
		C5.6,10.5,7,9,8.7,8.9c2.1-0.1,2.8,1.6,3.4,3.4c0.6,1.7,2.2,3.3,2.2,3.3l3.4,2.2c0.2,0.2,0.3,0.5,0.1,0.7c-0.2,0.2-0.5,0.3-0.7,0.1
		l-3.5-2.3c-0.1-0.1-1.9-1.9-2.5-3.8c-0.6-1.8-1.1-2.8-2.4-2.7C7.5,9.9,6.6,11,6.6,12.3c0,1.5,4.2,9.1,4.8,9.7
		c0.4,0.3,1.4,0.4,1.9,0.4h7.5l0,0l0,0h0c0.2,0,0.4,0.1,0.5,0.3l6.4,8.4c0.2,0.2,0.1,0.5-0.1,0.7C27.4,31.9,27.3,31.9,27.2,31.9z"/>
</g>
<g>
	<path class="st0" d="M18.6,26.8H9.4c-0.2,0-0.4-0.1-0.4-0.3L3.1,14.8H1c-0.3,0-0.5-0.2-0.5-0.5s0.2-0.5,0.5-0.5h2.4
		c0.2,0,0.4,0.1,0.4,0.3l5.9,11.7h8.9c0.3,0,0.5,0.2,0.5,0.5S18.9,26.8,18.6,26.8z"/>
</g>
<g>
	<path class="st0" d="M21.4,12.4c-0.2,0-0.3-0.1-0.5-0.2c-0.3-0.2-0.4-0.6-0.3-0.9l1-3.3l-2.7-2.1c-0.3-0.2-0.4-0.6-0.3-0.9
		c0.1-0.3,0.4-0.6,0.8-0.6l3.5-0.1l1.1-3.2c0.1-0.3,0.4-0.6,0.8-0.6c0.4,0,0.7,0.2,0.8,0.6l1.1,3.2l3.5,0.1c0,0,0,0,0,0
		c0.4,0,0.7,0.2,0.8,0.6c0.1,0.3,0,0.7-0.3,0.9L27.8,8l1,3.3c0.1,0.4,0,0.7-0.3,0.9c-0.3,0.2-0.7,0.2-1,0l-2.8-2l-2.8,2
		C21.7,12.3,21.6,12.4,21.4,12.4z M19.8,5.4l2.7,2c0.2,0.1,0.2,0.3,0.2,0.5l-1,3.2l2.8-1.9c0.2-0.1,0.4-0.1,0.6,0l2.8,1.9l-1-3.2
		c-0.1-0.2,0-0.4,0.2-0.5l2.7-2l-3.4-0.1c-0.2,0-0.4-0.1-0.5-0.3l-1.1-3.2L23.6,5c-0.1,0.2-0.3,0.3-0.5,0.3L19.8,5.4z"/>
</g>
</svg>
