<?xml version="1.0" encoding="utf-8"?>
<!-- Generator: Adobe Illustrator 19.0.1, SVG Export Plug-In . SVG Version: 6.00 Build 0)  -->
<!DOCTYPE svg PUBLIC "-//W3C//DTD SVG 1.1//EN" "http://www.w3.org/Graphics/SVG/1.1/DTD/svg11.dtd">
<svg version="1.1" id="Layer_1" xmlns="http://www.w3.org/2000/svg" xmlns:xlink="http://www.w3.org/1999/xlink" x="0px" y="0px"
	 viewBox="0 0 30.7 50" enable-background="new 0 0 30.7 50" xml:space="preserve">
<g>
	<g>
		<g>
			<path fill="#231F20" d="M26.9,27.1l-8.6,0L16,15.2c-1.4-6.2-9.8-4.3-8.9,1.7l2.7,13.7c0.4,2.1,2,3.9,4.6,3.9h11c0,0,0,8.8,0,12.5
				c0,4,5.4,4,5.4,0.1V31C30.7,29.1,29.4,27.1,26.9,27.1z M15.5,5.2c0-2.9-2.2-5.2-5.1-5.2C7.7,0,5.4,2.3,5.4,5.2
				c0,2.9,2.2,5.2,5.1,5.3C13.2,10.4,15.5,8.1,15.5,5.2z"/>
		</g>
	</g>
	<g>
		<path fill="#231F20" d="M17.5,42.5c-3.5,0-7.8-0.4-10.1-2c-1-0.7-6.1-5.1-7.4-20.6c-0.1-1.4,0.9-2.6,2.3-2.7
			c1.4-0.1,2.6,0.9,2.7,2.3c0.5,5.8,2.5,14.9,5.3,16.9c1.4,1,7.1,1.3,11.5,0.9c1.4-0.1,2.6,0.9,2.7,2.3s-0.9,2.6-2.3,2.7
			C21.6,42.3,19.7,42.5,17.5,42.5z"/>
	</g>
</g>
</svg>
