<svg width="40" height="40" viewBox="0 0 40 40" fill="none" xmlns="http://www.w3.org/2000/svg">
<path d="M25.98 6V11H30.98" stroke="#0B2343" stroke-miterlimit="10" stroke-linecap="round" stroke-linejoin="round"/>
<path d="M30.98 33.98C30.98 34.53 30.54 34.98 29.99 34.98H10.98C10.43 34.98 10 34.53 10 33.98V7.01001C10 6.46001 10.44 6 10.98 6H25.98C26.24 6 26.36 6.11004 26.54 6.29004L30.68 10.38C30.87 10.57 30.97 10.74 30.97 11V33.98H30.98Z" stroke="#0B2343" stroke-miterlimit="10" stroke-linecap="round" stroke-linejoin="round"/>
<path d="M16.93 19.9901C16.28 19.9901 15.76 20.6 15.76 21.35L16.28 27.62C16.28 28.37 16.81 28.98 17.45 28.98H23.45C24.1 28.98 24.62 28.37 24.62 27.62L25.14 21.35C25.14 20.6 24.61 19.9901 23.97 19.9901H16.93Z" stroke="#0B2343" stroke-miterlimit="10" stroke-linecap="round" stroke-linejoin="round"/>
<path d="M18.53 20V16.86C18.53 15.79 19.39 14.92 20.45 14.92C21.51 14.92 22.37 15.79 22.37 16.86V20" stroke="#0B2343" stroke-miterlimit="10" stroke-linecap="round" stroke-linejoin="round"/>
<path d="M20.45 24.55V26.14" stroke="#0B2343" stroke-miterlimit="10" stroke-linecap="round" stroke-linejoin="round"/>
</svg>
