<svg width="40" height="40" viewBox="0 0 40 40" fill="none" xmlns="http://www.w3.org/2000/svg">
<path d="M19.9878 3.06177V5.73485" stroke="#0B2343" stroke-linecap="round" stroke-linejoin="round"/>
<path d="M19.9878 23.5591V32.7374" stroke="#0B2343" stroke-linecap="round" stroke-linejoin="round"/>
<path d="M13.2462 32.7375C13.2462 34.5472 14.7551 36.0139 16.617 36.0139C18.4788 36.0139 19.9878 34.5472 19.9878 32.7375" stroke="#0B2343" stroke-linecap="round" stroke-linejoin="round"/>
<path d="M32.6922 17.5863C30.8303 17.5863 29.2484 18.7572 28.6765 20.3776H28.2019C27.6299 18.7572 26.0479 17.5863 24.1861 17.5863C22.3242 17.5863 20.7424 18.7572 20.1704 20.3776H19.8662C19.2943 18.7572 17.7122 17.5863 15.8504 17.5863C13.9885 17.5863 12.4065 18.7572 11.8346 20.3776H11.36C10.788 18.7572 9.20616 17.5863 7.34432 17.5863C5.48247 17.5863 3.90045 18.7572 3.32851 20.3776H2.99992C2.99992 12.2874 10.6056 5.73486 20 5.73486C29.3823 5.73486 37 12.2874 37 20.3776H36.7687C36.1359 18.7454 34.554 17.5863 32.6922 17.5863Z" stroke="#0B2343" stroke-linecap="round" stroke-linejoin="round"/>
</svg>
