<svg width="40" height="40" viewBox="0 0 40 40" fill="none" xmlns="http://www.w3.org/2000/svg">
<path d="M15.1571 13.0065C14.5551 13.1945 13.9065 12.8575 13.7175 12.2527L11.9137 6.49155C11.7247 5.88963 12.0637 5.24193 12.6656 5.052C13.2695 4.86402 13.9162 5.20297 14.1051 5.80586L15.9099 11.567C16.0989 12.1699 15.759 12.8186 15.1571 13.0065Z" stroke="#0B2343" stroke-linecap="round" stroke-linejoin="round"/>
<path d="M19.1955 29.4724C20.0107 29.6749 20.7461 29.6896 21.6587 29.7285H26.478C27.1101 29.7285 27.6263 29.2123 27.6263 28.5812C27.6263 27.9481 27.1101 27.4328 26.478 27.4328H20.8143C20.4286 27.4211 19.6601 27.3471 19.0611 26.9653C18.2312 26.4345 17.5602 25.5862 17.0819 24.5274C16.6066 23.4677 16.1771 20.9422 16.1206 20.425L15.5586 15.3418C15.4895 14.7136 14.9187 14.2568 14.2915 14.3259C13.6633 14.3961 13.2074 14.9658 13.2766 15.5941L14.086 22.0418" stroke="#0B2343" stroke-linecap="round" stroke-linejoin="round"/>
<path d="M14.0862 22.0424C14.2849 23.1411 14.5303 24.4851 14.5927 24.6702C14.6355 24.7988 14.7991 25.3276 15.0962 25.9763" stroke="#0B2343" stroke-linecap="round" stroke-linejoin="round"/>
<path d="M22.2717 9.33165C22.4158 10.6621 21.4545 11.8582 20.1231 12.0043C18.7916 12.1484 17.5946 11.1861 17.4505 9.85565C17.3063 8.52421 18.2676 7.32816 19.5991 7.18304C20.9305 7.03889 22.1275 7.99924 22.2717 9.33165Z" stroke="#0B2343" stroke-linecap="round" stroke-linejoin="round"/>
<path d="M30.2622 33.906L29.0028 26.8826C28.9551 26.6898 28.8441 26.1969 28.5811 25.9008C28.358 25.6495 28.0357 25.4538 27.9032 25.406C26.3438 24.8626 21.6268 25.4499 21.2528 25.4148C21.1944 25.4099 20.7707 25.4411 20.4473 25.3408C20.123 25.2385 19.9565 25.0856 19.7889 24.9366C19.1841 24.398 18.7516 23.0071 18.6718 22.2143C18.5432 20.9296 18.064 17.0843 18.064 17.0843C17.9218 15.7782 18.4663 14.6757 19.7626 14.4653C21.1447 14.2422 22.1362 15.2162 22.2862 16.5915L22.7528 19.6761L26.0517 21.7896" stroke="#0B2343" stroke-linecap="round" stroke-linejoin="round"/>
<path d="M14.6732 25.9754C12.0921 25.9754 10 28.0675 10 30.6486C10 33.2306 12.0921 35.3228 14.6732 35.3228C17.2552 35.3228 19.3483 33.2306 19.3483 30.6486C19.3483 28.0675 17.2552 25.9754 14.6732 25.9754Z" stroke="#0B2343" stroke-linecap="round" stroke-linejoin="round"/>
<path d="M12.6455 30.7899L14.0081 32.4934L16.9418 28.8254" stroke="#0B2343" stroke-linecap="round" stroke-linejoin="round"/>
</svg>
