<svg width="40" height="40" viewBox="0 0 40 40" fill="none" xmlns="http://www.w3.org/2000/svg">
<path d="M32.39 27.02H34.87V21.9399C34.87 21.5299 34.67 21.1399 34.32 20.9099L32.07 19.38L29.94 15.95H25.98" stroke="#0B2343" stroke-miterlimit="10" stroke-linecap="round" stroke-linejoin="round"/>
<path d="M21.05 27.0399H27.5" stroke="#0B2343" stroke-miterlimit="10" stroke-linecap="round" stroke-linejoin="round"/>
<path d="M29.95 29.3999C31.3 29.3999 32.39 28.3 32.39 26.96C32.39 25.62 31.29 24.52 29.95 24.52C28.6 24.52 27.51 25.62 27.51 26.96C27.51 28.3 28.6 29.3999 29.95 29.3999Z" stroke="#0B2343" stroke-miterlimit="10" stroke-linecap="round" stroke-linejoin="round"/>
<path d="M11.11 29.3999C12.46 29.3999 13.55 28.3 13.55 26.96C13.55 25.62 12.45 24.52 11.11 24.52C9.75999 24.52 8.66998 25.62 8.66998 26.96C8.66998 28.3 9.75999 29.3999 11.11 29.3999Z" stroke="#0B2343" stroke-miterlimit="10" stroke-linecap="round" stroke-linejoin="round"/>
<path d="M18.61 29.3999C19.96 29.3999 21.05 28.3 21.05 26.96C21.05 25.62 19.95 24.52 18.61 24.52C17.26 24.52 16.17 25.62 16.17 26.96C16.17 28.3 17.26 29.3999 18.61 29.3999Z" stroke="#0B2343" stroke-miterlimit="10" stroke-linecap="round" stroke-linejoin="round"/>
<path d="M6.84998 24.0399H34.87" stroke="#0B2343" stroke-miterlimit="10" stroke-linecap="round" stroke-linejoin="round"/>
<path d="M25.98 24.0399V11H6.02997L6 24.0399H7V27.0399H8.66998" stroke="#0B2343" stroke-miterlimit="10" stroke-linecap="round" stroke-linejoin="round"/>
<path d="M16.17 27.0399H13.55" stroke="#0B2343" stroke-miterlimit="10" stroke-linecap="round" stroke-linejoin="round"/>
</svg>
