<svg width="25" height="25" viewBox="0 0 25 25" fill="none" xmlns="http://www.w3.org/2000/svg">
<g clip-path="url(#clip0_3202_628)">
<path d="M23.7081 21.1281L18.3361 15.7548C19.525 14.2132 20.2735 12.2753 20.2735 10.1612C20.2735 5.0961 16.1785 1 11.1147 1C6.051 1 2 5.0961 2 10.1171C2 15.1381 6.09503 19.2342 11.1147 19.2342C13.2283 19.2342 15.1657 18.4855 16.7069 17.2963L22.0789 22.6697C22.5192 23.1101 23.2237 23.1101 23.664 22.6697C24.1044 22.2733 24.1044 21.5245 23.7081 21.1281ZM3.8934 10.1171C3.8934 6.10911 7.15181 2.84985 11.1588 2.84985C15.1657 2.84985 18.4242 6.10911 18.4242 10.1171C18.4242 14.1251 15.1657 17.3844 11.1588 17.3844C7.15181 17.3844 3.8934 14.1251 3.8934 10.1171Z" fill="#0B2343"/>
</g>
<defs>
<clipPath id="clip0_3202_628">
<rect width="25" height="25" fill="white"/>
</clipPath>
</defs>
</svg>
