<svg width="40" height="40" viewBox="0 0 40 40" fill="none" xmlns="http://www.w3.org/2000/svg">
<path d="M20.6655 10.4009C20.6132 11.6745 19.5315 12.6515 18.2667 12.5991C16.9931 12.5468 16.0161 11.4651 16.0684 10.2003C16.1208 8.92668 17.2024 7.94967 18.4673 8.00201C19.7321 8.05435 20.7179 9.12729 20.6655 10.4009Z" stroke="#0B2343" stroke-miterlimit="10" stroke-linecap="round" stroke-linejoin="round"/>
<path d="M16.4604 19.6911L16.2686 17.4231C16.3209 16.1495 17.3066 15.0417 18.5889 14.9806C20.0283 14.9195 20.9441 16.0361 21.1186 17.5103L21.3978 19.5428L24.4334 21.4445" stroke="#0B2343" stroke-miterlimit="10" stroke-linecap="round" stroke-linejoin="round"/>
<path d="M26.3794 24.515H28.0978L29.3627 31.572" stroke="#0B2343" stroke-miterlimit="10" stroke-linecap="round" stroke-linejoin="round"/>
<path d="M24.3822 28.9463C23.4314 31.9907 20.1864 33.6917 17.142 32.7321C14.0977 31.7813 12.3967 28.5364 13.3562 25.492C14.307 22.4476 17.552 20.7465 20.5964 21.7061C23.6407 22.6569 25.333 25.9019 24.3822 28.9463Z" stroke="#0B2343" stroke-miterlimit="10" stroke-linecap="round" stroke-linejoin="round"/>
<path d="M14.7423 23.1891L13.0936 19.0891H11" stroke="#0B2343" stroke-miterlimit="10" stroke-linecap="round" stroke-linejoin="round"/>
</svg>
