<svg width="42" height="42" viewBox="0 0 42 42" fill="none" xmlns="http://www.w3.org/2000/svg">
<path fill-rule="evenodd" clip-rule="evenodd" d="M0.5 21C0.5 9.6961 9.69611 0.5 21 0.5C32.3039 0.5 41.4999 9.6961 41.4999 21C41.4999 32.3039 32.3039 41.5 21 41.5C9.69611 41.5 0.5 32.3039 0.5 21ZM21 1.5C10.2484 1.5 1.5 10.2484 1.5 21C1.5 31.7516 10.2484 40.5 21 40.5C31.7516 40.5 40.4999 31.7516 40.4999 21C40.4999 10.2484 31.7516 1.5 21 1.5Z" fill="#666666"/>
<path d="M26.3445 11.6177C26.3905 11.392 26.2441 11.1719 26.0175 11.1261C25.7911 11.0802 25.5701 11.2261 25.5241 11.4519L23.5379 21.206C23.4919 21.4316 23.6382 21.6518 23.8648 21.6975C23.8929 21.7032 23.9209 21.7059 23.9485 21.7059C24.1434 21.7059 24.318 21.5695 24.3582 21.3718L26.3445 11.6177Z" fill="#666666"/>
<path d="M19.1666 24.489L14.4178 19.721C14.2447 19.5472 13.9603 19.5436 13.7827 19.713C13.605 19.8825 13.6014 20.1607 13.7746 20.3346L18.5234 25.1026C18.6114 25.1909 18.7281 25.2353 18.845 25.2353C18.958 25.2353 19.0711 25.1938 19.1585 25.1105C19.3361 24.9411 19.3397 24.6628 19.1666 24.489Z" fill="#666666"/>
<path d="M11.5002 16.8833L12.8352 18.2493C12.9831 18.4007 12.9752 18.6385 12.8177 18.7805C12.7422 18.8486 12.6459 18.8823 12.5499 18.8823C12.4456 18.8823 12.3415 18.8425 12.2645 18.7636L10.9295 17.3976C10.7816 17.2463 10.7895 17.0084 10.947 16.8664C11.1046 16.7244 11.3523 16.732 11.5002 16.8833Z" fill="#666666"/>
<path fill-rule="evenodd" clip-rule="evenodd" d="M8.49844 13.7456C8.30201 13.763 8.14441 13.9156 8.12014 14.1117C7.53882 18.812 9.0854 23.4587 12.3633 26.8604C13.3465 27.8809 14.6258 28.5362 16.1657 28.808C16.7071 28.9035 17.2754 28.9513 17.8668 28.9513C18.3102 28.9513 18.7667 28.9239 19.2343 28.8702C19.107 29.7082 19.1225 30.6193 19.2853 31.5873C19.5671 33.2623 20.1815 34.5099 20.2075 34.5622C20.2605 34.6688 20.3563 34.7477 20.4708 34.7793C20.5237 34.7939 21.7147 35.1176 23.2677 35.1176C23.3643 35.1176 23.462 35.1164 23.5611 35.1138C25.8466 35.0526 27.6756 34.2642 28.8502 32.8337C29.5317 32.0036 30.1154 31.0982 30.585 30.1426C30.6424 30.0257 30.9902 29.2368 31.2468 28.5506L31.25 28.5421L31.2505 28.5406C31.3867 28.1755 31.4965 27.8406 31.5221 27.6531C32.0845 25.5667 32.1527 23.3651 31.7151 21.2312C31.6754 21.0376 31.5063 20.8981 31.3091 20.8963C30.9385 20.893 30.5701 20.905 30.2042 20.9307C30.3038 20.6494 30.3842 20.3618 30.4432 20.0698C31.3813 15.4353 30.1919 10.6841 27.1801 7.03443C27.0544 6.88213 26.8398 6.83846 26.6647 6.9296C25.2986 7.64108 24.0483 8.54804 22.9485 9.6253C22.8417 9.72994 22.1786 10.3905 21.7805 10.9041C20.4179 12.5733 19.4385 14.4677 18.8607 16.5443C15.8756 14.421 12.2274 13.4146 8.49844 13.7456ZM23.5613 10.1979C23.3023 10.4967 22.9878 10.8261 22.7748 11.0492C22.6585 11.171 22.5724 11.2611 22.5421 11.2974C21.1234 12.9937 20.129 14.9416 19.5814 17.0893C20.0993 17.505 20.5949 17.9552 21.0631 18.4412C22.3026 19.7274 22.9509 21.4987 22.9615 23.6026C24.8089 22.2322 26.9702 21.3465 29.2661 21.0285C29.4249 20.6665 29.545 20.2891 29.6231 19.9032C30.4881 15.6297 29.4414 11.2515 26.7497 7.83499C25.585 8.47603 24.5139 9.26969 23.5613 10.1979ZM29.8038 29.8336C29.9403 29.5596 30.1185 29.0009 30.2971 28.6248C30.377 28.4565 30.4398 28.3243 30.4587 28.2691C31.1777 26.1753 31.3494 23.924 30.9598 21.7363C27.1402 21.8004 23.579 23.5169 21.1461 26.4798C18.9448 29.1608 20.4957 33.1432 20.8777 34.0155C21.8057 34.2248 25.9979 34.9874 28.204 32.3008C28.83 31.5384 29.368 30.7087 29.8038 29.8336ZM19.4257 28.0006C15.9365 28.4859 13.9894 27.3408 12.9653 26.2778C9.94277 23.1412 8.47607 18.8859 8.91251 14.5548C13.2467 14.2688 17.4388 15.8868 20.4612 19.0238C21.6936 20.3028 22.2458 22.075 22.1042 24.2927C21.5302 24.7941 20.9932 25.3463 20.5 25.9469C20.0085 26.5455 19.6496 27.2354 19.4257 28.0006Z" fill="#666666"/>
</svg>
