<svg width="40" height="40" viewBox="0 0 40 40" fill="none" xmlns="http://www.w3.org/2000/svg">
<path d="M27.0353 20.0068C27.0353 23.8882 23.8863 27.0368 20.0043 27.0368C16.1224 27.0368 12.9734 23.8882 12.9734 20.0068C12.9734 16.1254 16.1224 12.9768 20.0043 12.9768C23.8863 12.9768 27.0353 16.1254 27.0353 20.0068Z" stroke="#0B2343" stroke-linecap="round" stroke-linejoin="round"/>
<path d="M33.6725 23.3046L38.8168 22.626C39.0611 20.8753 39.0611 19.1925 38.8168 17.3739L33.6725 16.6953C33.3196 15.2568 32.7631 13.8996 32.003 12.6646L35.1656 8.55249C34.1068 7.15463 32.8581 5.90607 31.4601 4.83393L27.3474 7.99605C26.1122 7.23605 24.7549 6.66608 23.3161 6.3268L22.6375 1.18321C20.8458 0.938929 19.1627 0.938929 17.3846 1.18321L16.706 6.3268C15.2536 6.67965 13.8963 7.24963 12.6611 7.99605L8.54845 4.83393C7.2047 5.85179 5.91524 7.1139 4.84296 8.5389L8.00552 12.651C7.24542 13.886 6.67534 15.2432 6.32244 16.6953L1.17819 17.3739C0.94744 19.0432 0.933867 20.821 1.17819 22.626L6.32244 23.3046C6.67534 24.7568 7.24542 26.1139 8.00552 27.3489L4.84296 31.4611C5.86095 32.8046 7.12326 34.0804 8.54845 35.1661L12.6611 32.0039C13.8963 32.7639 15.2536 33.3339 16.706 33.6732L17.3846 38.8168C19.1627 39.0611 20.8458 39.0611 22.6375 38.8168L23.3161 33.6732C24.7549 33.3203 26.1122 32.7503 27.3474 32.0039L31.4601 35.1661C32.8581 34.1075 34.1068 32.8589 35.1656 31.4475L32.003 27.3353C32.7495 26.1003 33.3196 24.7568 33.6725 23.3046Z" stroke="#0B2343" stroke-linecap="round" stroke-linejoin="round"/>
</svg>
