<svg width="40" height="40" viewBox="0 0 40 40" fill="none" xmlns="http://www.w3.org/2000/svg">
<path d="M25.2765 20.0051C25.2765 22.9162 22.9148 25.2776 20.0033 25.2776C17.0918 25.2776 14.7301 22.9162 14.7301 20.0051C14.7301 17.094 17.0918 14.7326 20.0033 14.7326C22.9148 14.7326 25.2765 17.094 25.2765 20.0051Z" stroke="#0B2343" stroke-linecap="round" stroke-linejoin="round"/>
<path d="M30.2544 22.4785L34.1126 21.9695C34.2958 20.6565 34.2958 19.3944 34.1126 18.0304L30.2544 17.5215C29.9897 16.4426 29.5723 15.4247 29.0022 14.4985L31.3742 11.4144C30.5801 10.366 29.6436 9.42955 28.5951 8.62545L25.5105 10.997C24.5842 10.427 23.5662 9.99956 22.4871 9.7451L21.9781 5.88741C20.6343 5.7042 19.372 5.7042 18.0385 5.88741L17.5295 9.7451C16.4402 10.0097 15.4222 10.4372 14.4959 10.997L11.4113 8.62545C10.4035 9.38884 9.43643 10.3354 8.63222 11.4042L11.0041 14.4883C10.4341 15.4145 10.0065 16.4324 9.74183 17.5215L5.88364 18.0304C5.71058 19.2824 5.7004 20.6158 5.88364 21.9695L9.74183 22.4785C10.0065 23.5676 10.4341 24.5854 11.0041 25.5117L8.63222 28.5958C9.39571 29.6035 10.3424 30.5603 11.4113 31.3746L14.4959 29.0029C15.4222 29.5729 16.4402 30.0004 17.5295 30.2549L18.0385 34.1126C19.372 34.2958 20.6343 34.2958 21.9781 34.1126L22.4871 30.2549C23.5662 29.9903 24.5842 29.5627 25.5105 29.0029L28.5951 31.3746C29.6436 30.5806 30.5801 29.6442 31.3742 28.5856L29.0022 25.5015C29.5621 24.5752 29.9897 23.5676 30.2544 22.4785Z" stroke="#0B2343" stroke-linecap="round" stroke-linejoin="round"/>
</svg>
