<svg width="40" height="40" viewBox="0 0 40 40" fill="none" xmlns="http://www.w3.org/2000/svg">
<path d="M21.8661 23.6462C21.8757 24.677 21.0472 25.5152 20.0165 25.5248C18.9857 25.5344 18.1476 24.7059 18.138 23.6752C18.1283 22.6444 18.9664 21.8063 19.9876 21.7967C21.0183 21.7871 21.8564 22.6155 21.8661 23.6462Z" stroke="#0B2343" stroke-linecap="round" stroke-linejoin="round"/>
<path d="M24.4767 24.8892L26.1625 24.658C26.2396 24.0896 26.2396 23.5309 26.1529 22.9432L24.4671 22.7313C24.3515 22.2593 24.1588 21.8162 23.9083 21.4212L24.9391 20.0629C24.5923 19.6101 24.1781 19.1959 23.7157 18.8587L22.3766 19.8992C21.972 19.6584 21.5289 19.4753 21.0569 19.3597L20.8257 17.6738C20.238 17.5968 19.6889 17.5968 19.1109 17.6835L18.899 19.3693C18.427 19.4849 17.9838 19.6775 17.5792 19.928L16.2209 18.8973C15.7874 19.2345 15.3636 19.6487 15.0168 20.1207L16.0572 21.4598C15.8163 21.8644 15.6237 22.3075 15.5177 22.7892L13.8319 23.0204C13.7644 23.5695 13.7548 24.1474 13.8415 24.735L15.5273 24.947C15.6429 25.4191 15.8356 25.8622 16.0861 26.2668L15.0553 27.6154C15.3925 28.0489 15.8067 28.4728 16.2787 28.8196L17.6178 27.7792C18.0224 28.02 18.4655 28.2031 18.9375 28.3187L19.1687 30.0046C19.7467 30.0816 20.3055 30.0816 20.8835 29.9949L21.0954 28.3091C21.5674 28.1935 22.0106 28.0007 22.4152 27.7503L23.7638 28.7811C24.2166 28.4343 24.6308 28.02 24.968 27.5576L23.9276 26.2186C24.1877 25.814 24.3707 25.3709 24.4767 24.8892Z" stroke="#0B2343" stroke-linecap="round" stroke-linejoin="round"/>
<path d="M29.0043 9.6394L31.2199 11.9129" stroke="#0B2343" stroke-linecap="round" stroke-linejoin="round"/>
<path d="M29.0043 11.9129L31.2199 9.6394" stroke="#0B2343" stroke-linecap="round" stroke-linejoin="round"/>
<path d="M33.9367 7H6V33.01H33.9367V7Z" stroke="#0B2343" stroke-linecap="round" stroke-linejoin="round"/>
<path d="M6 14.7068H33.9367" stroke="#0B2343" stroke-linecap="round" stroke-linejoin="round"/>
<path d="M26.23 9.88989H24.3033V11.8166H26.23V9.88989Z" stroke="#0B2343" stroke-linecap="round" stroke-linejoin="round"/>
<path d="M21.4134 11.8167H19.4867" stroke="#0B2343" stroke-linecap="round" stroke-linejoin="round"/>
</svg>
