<svg width="40" height="40" viewBox="0 0 40 40" fill="none" xmlns="http://www.w3.org/2000/svg">
<path d="M18.6063 25.36C18.6063 27.24 17.0863 28.7599 15.2063 28.7599C13.3263 28.7599 11.8063 27.24 11.8063 25.36C11.8063 23.48 13.3263 21.96 15.2063 21.96C17.0863 21.96 18.6063 23.48 18.6063 25.36Z" stroke="#0B2343" stroke-linecap="round" stroke-linejoin="round"/>
<path d="M21.8163 26.95L24.3063 26.62C24.4263 25.78 24.4263 24.96 24.3063 24.08L21.8163 23.75C21.6463 23.05 21.3763 22.4 21.0063 21.8L22.5363 19.81C22.0263 19.13 21.4163 18.53 20.7363 18.01L18.7463 19.54C18.1463 19.17 17.4963 18.9 16.7963 18.73L16.4663 16.24C15.6063 16.12 14.7863 16.12 13.9263 16.24L13.5963 18.73C12.8963 18.9 12.2363 19.17 11.6463 19.54L9.65629 18.01C9.00629 18.5 8.38629 19.11 7.85629 19.8L9.38629 21.79C9.01629 22.39 8.74629 23.04 8.57629 23.74L6.08629 24.07C5.97629 24.88 5.96629 25.74 6.08629 26.61L8.57629 26.94C8.74629 27.64 9.01629 28.3 9.38629 28.89L7.85629 30.88C8.35629 31.54 8.96629 32.16 9.65629 32.67L11.6463 31.14C12.2463 31.51 12.8963 31.78 13.5963 31.95L13.9263 34.44C14.7863 34.56 15.5963 34.56 16.4663 34.44L16.7963 31.95C17.4963 31.78 18.1463 31.51 18.7463 31.14L20.7363 32.67C21.4163 32.16 22.0163 31.55 22.5363 30.87L21.0063 28.88C21.3663 28.31 21.6463 27.65 21.8163 26.95Z" stroke="#0B2343" stroke-linecap="round" stroke-linejoin="round"/>
<path d="M30.0864 13.26C29.6264 14.39 28.3364 14.93 27.2064 14.47C26.0764 14.01 25.5364 12.72 25.9964 11.59C26.4564 10.46 27.7464 9.92002 28.8764 10.38C30.0064 10.84 30.5464 12.13 30.0864 13.26Z" stroke="#0B2343" stroke-linecap="round" stroke-linejoin="round"/>
<path d="M32.0163 15.29L33.7663 15.75C34.0763 15.22 34.3063 14.67 34.4563 14.05L32.8863 13.15C32.9663 12.64 32.9563 12.13 32.8763 11.63L34.4463 10.72C34.2863 10.13 34.0463 9.56 33.7363 9.03L31.9863 9.50998C31.6863 9.09998 31.3263 8.74 30.9063 8.44L31.3663 6.69C30.8263 6.37 30.2763 6.15 29.6663 6L28.7663 7.56998C28.2563 7.48998 27.7363 7.49999 27.2363 7.57999L26.3263 6.00998C25.7663 6.15998 25.1763 6.4 24.6363 6.72L25.1163 8.47C24.7063 8.77 24.3463 9.12999 24.0363 9.54999L22.2863 9.09C21.9863 9.6 21.7463 10.17 21.5963 10.79L23.1663 11.69C23.0863 12.2 23.0963 12.72 23.1763 13.22L21.6063 14.13C21.7563 14.7 21.9963 15.28 22.3163 15.82L24.0663 15.34C24.3663 15.75 24.7263 16.11 25.1463 16.41L24.6863 18.16C25.2263 18.47 25.7763 18.7 26.3863 18.85L27.2863 17.28C27.7963 17.36 28.3163 17.35 28.8063 17.27L29.7163 18.84C30.3063 18.68 30.8763 18.44 31.4063 18.13L30.9263 16.38C31.3563 16.08 31.7163 15.72 32.0163 15.29Z" stroke="#0B2343" stroke-linecap="round" stroke-linejoin="round"/>
</svg>
