<svg width="40" height="40" viewBox="0 0 40 40" fill="none" xmlns="http://www.w3.org/2000/svg">
<path d="M30.4874 24.1482C28.2025 24.1482 26.3528 22.2985 26.3528 20.0136C26.3528 17.7287 28.2025 15.879 30.4874 15.879C32.7723 15.879 34.6219 17.7287 34.6219 20.0136C34.6355 22.2985 32.7723 24.1482 30.4874 24.1482Z" stroke="#0B2343" stroke-miterlimit="10" stroke-linecap="round" stroke-linejoin="round"/>
<path d="M9.13454 9.26915C6.84965 9.26915 5 7.41948 5 5.13458C5 2.84969 6.84965 1 9.13454 1C11.4194 1 13.2691 2.84969 13.2691 5.13458C13.2691 7.40588 11.4194 9.26915 9.13454 9.26915Z" stroke="#0B2343" stroke-miterlimit="10" stroke-linecap="round" stroke-linejoin="round"/>
<path d="M9.13454 39C6.84965 39 5 37.1503 5 34.8654C5 32.5805 6.84965 30.7308 9.13454 30.7308C11.4194 30.7308 13.2691 32.5805 13.2691 34.8654C13.2691 37.1503 11.4194 39 9.13454 39Z" stroke="#0B2343" stroke-miterlimit="10" stroke-linecap="round" stroke-linejoin="round"/>
<path d="M27.1146 22.4073L12.5076 32.4581" stroke="#0B2343" stroke-miterlimit="10" stroke-linecap="round" stroke-linejoin="round"/>
<path d="M12.5483 7.46027L27.0737 17.6607" stroke="#0B2343" stroke-miterlimit="10" stroke-linecap="round" stroke-linejoin="round"/>
</svg>
