<svg width="25" height="25" viewBox="0 0 25 25" fill="none" xmlns="http://www.w3.org/2000/svg">
<path d="M17.887 14.6009C16.7194 14.6009 15.7742 13.6557 15.7742 12.4881C15.7742 11.3205 16.7194 10.3752 17.887 10.3752C19.0546 10.3752 19.9999 11.3205 19.9999 12.4881C20.0068 13.6557 19.0546 14.6009 17.887 14.6009Z" stroke="#0B2343" stroke-miterlimit="10" stroke-linecap="round" stroke-linejoin="round"/>
<path d="M6.97538 6.99754C5.80775 6.99754 4.86255 6.05233 4.86255 4.8847C4.86255 3.71708 5.80775 2.77185 6.97538 2.77185C8.143 2.77185 9.08823 3.71708 9.08823 4.8847C9.08823 6.04538 8.143 6.99754 6.97538 6.99754Z" stroke="#0B2343" stroke-miterlimit="10" stroke-linecap="round" stroke-linejoin="round"/>
<path d="M6.97538 22.1907C5.80775 22.1907 4.86255 21.2454 4.86255 20.0778C4.86255 18.9102 5.80775 17.965 6.97538 17.965C8.143 17.965 9.08823 18.9102 9.08823 20.0778C9.08823 21.2454 8.143 22.1907 6.97538 22.1907Z" stroke="#0B2343" stroke-miterlimit="10" stroke-linecap="round" stroke-linejoin="round"/>
<path d="M16.1634 13.7113L8.69897 18.8475" stroke="#0B2343" stroke-miterlimit="10" stroke-linecap="round" stroke-linejoin="round"/>
<path d="M8.71997 6.07312L16.1427 11.2857" stroke="#0B2343" stroke-miterlimit="10" stroke-linecap="round" stroke-linejoin="round"/>
</svg>
