<svg width="25" height="25" viewBox="0 0 25 25" fill="none" xmlns="http://www.w3.org/2000/svg">
<path fill-rule="evenodd" clip-rule="evenodd" d="M5.53368 5.54849C4.05752 5.54849 2.86255 4.3535 2.86255 2.87734C2.86255 1.40117 4.05752 0.206177 5.53368 0.206177C7.00985 0.206177 8.20485 1.40117 8.20485 2.87734C8.20485 3.07847 8.1824 3.27464 8.13985 3.46344C8.19984 3.48976 8.25812 3.52238 8.31379 3.56148L17.698 10.1515C17.7496 10.1878 17.7968 10.228 17.8394 10.2716C18.2648 9.9855 18.7772 9.8186 19.3289 9.8186C20.805 9.8186 22 11.0136 22 12.4898C22.0088 13.9659 20.805 15.1609 19.3289 15.1609C18.7909 15.1609 18.2902 15.0022 17.8711 14.7289C17.825 14.7769 17.7734 14.8209 17.7165 14.86L8.27959 21.3534C8.23035 21.3873 8.17915 21.4162 8.12658 21.4401C8.17772 21.6466 8.20485 21.8627 8.20485 22.0851C8.20485 23.5613 7.00985 24.7563 5.53368 24.7563C4.05752 24.7563 2.86255 23.5613 2.86255 22.0851C2.86255 20.6089 4.05752 19.4139 5.53368 19.4139C6.06938 19.4139 6.56804 19.5713 6.986 19.8424C7.03343 19.7923 7.08679 19.7464 7.14588 19.7058L16.5828 13.2124C16.6315 13.1789 16.682 13.1503 16.734 13.1265C16.6841 12.9225 16.6577 12.7092 16.6577 12.4898C16.6577 12.2827 16.6812 12.0812 16.7257 11.8877C16.6646 11.8611 16.6053 11.828 16.5486 11.7882L7.1644 5.19821C7.11636 5.16448 7.0722 5.12728 7.03201 5.0872C6.60485 5.37803 6.08917 5.54849 5.53368 5.54849Z" fill="#0B2343"/>
</svg>
