<svg width="40" height="40" viewBox="0 0 40 40" fill="none" xmlns="http://www.w3.org/2000/svg">
<path d="M19.9141 7.32643C19.9141 7.32643 17.234 6.11622 14.824 8.35622C14.824 8.35622 12.174 7.7064 10.064 11.7864C10.064 11.7864 7.44399 12.2663 7.17399 17.1763C7.17399 17.1763 5.3041 17.9364 6.2841 21.5564C6.3641 21.8664 6.55401 22.1462 6.81401 22.3462L11.2641 26.1963C11.6341 26.4763 11.844 26.9162 11.844 27.3862V29.2464C11.844 30.0664 12.504 30.7263 13.314 30.7263H17.204" stroke="#0B2343" stroke-linecap="round" stroke-linejoin="round"/>
<path d="M19.9141 7.32642V19.9263" stroke="#0B2343" stroke-linecap="round" stroke-linejoin="round"/>
<path d="M14.814 8.34619L17.274 20.2163" stroke="#0B2343" stroke-linecap="round" stroke-linejoin="round"/>
<path d="M10.054 11.7864L14.494 21.3264" stroke="#0B2343" stroke-linecap="round" stroke-linejoin="round"/>
<path d="M7.16406 17.1763L12.374 23.4963" stroke="#0B2343" stroke-linecap="round" stroke-linejoin="round"/>
<path d="M19.9141 7.32643C19.9141 7.32643 22.594 6.11622 25.004 8.35622C25.004 8.35622 27.654 7.7064 29.764 11.7864C29.764 11.7864 32.3841 12.2663 32.6541 17.1763C32.6541 17.1763 34.5239 17.9364 33.5439 21.5564C33.4639 21.8664 33.274 22.1462 33.014 22.3462L28.474 26.1963C28.104 26.4763 27.894 26.9162 27.894 27.3862V29.2464C27.894 30.0664 27.234 30.7263 26.424 30.7263H22.634" stroke="#0B2343" stroke-linecap="round" stroke-linejoin="round"/>
<path d="M25.004 8.34619L22.5439 20.2163" stroke="#0B2343" stroke-linecap="round" stroke-linejoin="round"/>
<path d="M29.764 11.7864L25.324 21.3264" stroke="#0B2343" stroke-linecap="round" stroke-linejoin="round"/>
<path d="M32.6541 17.1763L27.454 23.4963" stroke="#0B2343" stroke-linecap="round" stroke-linejoin="round"/>
<path d="M15.334 29.3562L19.9141 32.7563L24.494 29.3562" stroke="#0B2343" stroke-linecap="round" stroke-linejoin="round"/>
</svg>
