<svg width="40" height="40" viewBox="0 0 40 40" fill="none" xmlns="http://www.w3.org/2000/svg">
<path d="M15.4601 22.06C15.4601 20.47 17.1601 19.27 18.8301 20.21C19.9201 20.82 20.51 22 20.28 23.23C19.99 24.82 18.6101 26.02 16.9401 26.02C14.6001 26.02 12.7001 24.1099 12.7001 21.7599C12.7001 18.8199 15.07 16.43 18 16.43C21.66 16.43 24.63 19.41 24.63 23.09C24.63 27.69 20.9201 31.41 16.3501 31.41C10.6301 31.41 6 26.7499 6 21.0099C6 13.8299 11.7901 8 18.9401 8C29.7201 8 36.2601 17.82 34.4401 28.17C34.2501 29.27 33.4101 30.13 32.3201 30.33C30.5801 30.65 27.65 30.93 23.74 30.43" stroke="#0B2343" stroke-linecap="round" stroke-linejoin="round"/>
</svg>
