<svg width="40" height="40" viewBox="0 0 40 40" fill="none" xmlns="http://www.w3.org/2000/svg">
<path d="M30.86 10.8573C30.85 10.8573 30.18 11.0475 29.15 11.0475C26.97 11.0475 23.81 10.2275 21.14 6.3375C20.83 5.8875 20.09 5.8875 19.78 6.3375C16.56 11.0375 12.03 11.5275 10.06 10.8475C9.53 10.6875 9 11.0873 9 11.6573V19.5675C9 30.6075 20.1301 33.8175 20.2401 33.8475C20.3101 33.8675 20.38 33.8773 20.46 33.8773C20.53 33.8773 20.6101 33.8675 20.6801 33.8475C20.7901 33.8175 31.92 30.6075 31.92 19.5675V11.6573C31.92 11.1173 31.4 10.7073 30.86 10.8573Z" stroke="#0B2343" stroke-miterlimit="10" stroke-linecap="round" stroke-linejoin="round"/>
</svg>
