<svg width="40" height="40" viewBox="0 0 40 40" fill="none" xmlns="http://www.w3.org/2000/svg">
<path d="M10.1299 13.79L12.72 24.75C12.72 24.76 12.71 24.77 12.71 24.78L12.02 26.81C11.91 27.36 12.3299 27.86 12.8799 27.86H30.72" stroke="#0B2343" stroke-miterlimit="10" stroke-linecap="round" stroke-linejoin="round"/>
<path d="M18.71 13.7899H10.1299L10.7399 10.7199C10.6399 10.2299 10.2 9.87988 9.69995 9.87988H5.99994" stroke="#0B2343" stroke-miterlimit="10" stroke-linecap="round" stroke-linejoin="round"/>
<path d="M33.85 13.79H24.73" stroke="#0B2343" stroke-miterlimit="10" stroke-linecap="round" stroke-linejoin="round"/>
<path d="M34.39 11.7998L31.85 21.1198C31.64 21.8998 30.97 22.4798 30.17 22.5798L12.71 24.7798" stroke="#0B2343" stroke-miterlimit="10" stroke-linecap="round" stroke-linejoin="round"/>
<path d="M13.9399 30.7598C12.8899 30.7598 12.04 31.5998 12.04 32.6498C12.04 33.6898 12.8899 34.5398 13.9399 34.5398C14.9899 34.5398 15.83 33.6998 15.83 32.6498C15.83 31.5998 14.9799 30.7598 13.9399 30.7598Z" stroke="#0B2343" stroke-miterlimit="10" stroke-linecap="round" stroke-linejoin="round"/>
<path d="M28.84 30.7598C27.79 30.7598 26.95 31.5998 26.95 32.6498C26.95 33.6898 27.8 34.5398 28.84 34.5398C29.89 34.5398 30.73 33.6998 30.73 32.6498C30.73 31.5998 29.89 30.7598 28.84 30.7598Z" stroke="#0B2343" stroke-miterlimit="10" stroke-linecap="round" stroke-linejoin="round"/>
<path d="M21.73 19.79V6" stroke="#0B2343" stroke-miterlimit="10" stroke-linecap="round" stroke-linejoin="round"/>
<path d="M25.4999 16.04L21.73 19.79L17.96 16.04" stroke="#0B2343" stroke-miterlimit="10" stroke-linecap="round" stroke-linejoin="round"/>
</svg>
