<svg width="40" height="40" viewBox="0 0 40 40" fill="none" xmlns="http://www.w3.org/2000/svg">
<path d="M10.1199 14.04L12.71 25C12.71 25.01 12.7 25.02 12.7 25.03L12.0099 27.06C11.8999 27.61 12.3199 28.11 12.8699 28.11H30.71" stroke="#0B2343" stroke-miterlimit="10" stroke-linecap="round" stroke-linejoin="round"/>
<path d="M33.84 14.0399H10.1299L10.7399 10.9699C10.6399 10.4799 10.2 10.1299 9.69995 10.1299H5.99994" stroke="#0B2343" stroke-miterlimit="10" stroke-linecap="round" stroke-linejoin="round"/>
<path d="M34.3799 12.0498L31.84 21.3698C31.63 22.1498 30.96 22.7298 30.16 22.8298L12.7 25.0298" stroke="#0B2343" stroke-miterlimit="10" stroke-linecap="round" stroke-linejoin="round"/>
<path d="M13.9299 31.0098C12.8799 31.0098 12.03 31.8498 12.03 32.8998C12.03 33.9398 12.8799 34.7898 13.9299 34.7898C14.9799 34.7898 15.8199 33.9498 15.8199 32.8998C15.8199 31.8498 14.9699 31.0098 13.9299 31.0098Z" stroke="#0B2343" stroke-miterlimit="10" stroke-linecap="round" stroke-linejoin="round"/>
<path d="M28.83 31.0098C27.78 31.0098 26.9399 31.8498 26.9399 32.8998C26.9399 33.9398 27.79 34.7898 28.83 34.7898C29.88 34.7898 30.72 33.9498 30.72 32.8998C30.72 31.8498 29.88 31.0098 28.83 31.0098Z" stroke="#0B2343" stroke-miterlimit="10" stroke-linecap="round" stroke-linejoin="round"/>
<path d="M16.6699 11L24.9399 6L28.8099 11.05" stroke="#0B2343" stroke-miterlimit="10" stroke-linecap="round" stroke-linejoin="round"/>
</svg>
