<svg width="40" height="40" viewBox="0 0 40 40" fill="none" xmlns="http://www.w3.org/2000/svg">
<path d="M8.49976 11.2715L11.3368 23.2766C11.3368 23.2875 11.3258 23.2985 11.3258 23.3095L10.57 25.533C10.4495 26.1355 10.9095 26.6832 11.512 26.6832H31.0532" stroke="#0B2343" stroke-width="1.00085" stroke-miterlimit="10" stroke-linecap="round" stroke-linejoin="round"/>
<path d="M34.4816 11.2714H8.5106L9.17875 7.90866C9.06921 7.37193 8.58728 6.98853 8.0396 6.98853H3.98676" stroke="#0B2343" stroke-width="1.00085" stroke-miterlimit="10" stroke-linecap="round" stroke-linejoin="round"/>
<path d="M35.0731 9.09155L32.2909 19.3002C32.0609 20.1546 31.327 20.79 30.4508 20.8995L11.3257 23.3093" stroke="#0B2343" stroke-width="1.00085" stroke-miterlimit="10" stroke-linecap="round" stroke-linejoin="round"/>
<path d="M12.6731 29.8594C11.5229 29.8594 10.5919 30.7795 10.5919 31.9296C10.5919 33.0688 11.5229 33.9999 12.6731 33.9999C13.8232 33.9999 14.7433 33.0797 14.7433 31.9296C14.7433 30.7795 13.8122 29.8594 12.6731 29.8594Z" stroke="#0B2343" stroke-width="1.00085" stroke-miterlimit="10" stroke-linecap="round" stroke-linejoin="round"/>
<path d="M28.994 29.8594C27.8439 29.8594 26.9238 30.7795 26.9238 31.9296C26.9238 33.0688 27.8548 33.9999 28.994 33.9999C30.1441 33.9999 31.0643 33.0797 31.0643 31.9296C31.0643 30.7795 30.1441 29.8594 28.994 29.8594Z" stroke="#0B2343" stroke-width="1.00085" stroke-miterlimit="10" stroke-linecap="round" stroke-linejoin="round"/>
</svg>
