<svg width="30" height="30" viewBox="0 0 30 30" fill="none" xmlns="http://www.w3.org/2000/svg">
<g clip-path="url(#clip0_3316_19729)">
<path d="M28.8629 5.932C28.5116 5.87345 28.2189 6.04909 28.1018 6.34182L27.692 7.864H5.38618L5.85455 5.52218C5.85455 5.46364 5.85455 5.34655 5.85455 5.288C5.67891 4.52691 5.03491 4 4.27382 4H0.585455C0.292727 4 0 4.29273 0 4.58545C0 4.87818 0.292727 5.17091 0.585455 5.17091H4.27382C4.44945 5.17091 4.62509 5.288 4.68364 5.46364L4.09818 8.39091C4.09818 8.44945 4.09818 8.56655 4.09818 8.62509L6.61564 19.3975L5.97164 21.388C5.85455 21.7978 5.97164 22.2662 6.26436 22.6175C6.55709 22.9687 6.96691 23.1444 7.37673 23.1444H25.0575C25.4087 23.1444 25.6429 22.8516 25.6429 22.5589C25.6429 22.2076 25.3502 21.9735 25.0575 21.9735H7.43527C7.31818 21.9735 7.25964 21.9149 7.20109 21.8564C7.14255 21.7978 7.14255 21.7393 7.14255 21.6807L7.728 19.9829L24.5891 17.8753C25.6429 17.7582 26.4625 16.9971 26.7553 16.0018L29.2727 6.69309C29.3313 6.34182 29.1556 6.04909 28.8629 5.932ZM25.5844 15.6505C25.4087 16.1775 24.9989 16.5873 24.4135 16.6458L7.66946 18.7535L5.44473 9.09345H27.3993L25.5844 15.6505Z" fill="#0B2343"/>
<path d="M8.43071 24.7837C7.08417 24.7837 5.9718 25.8961 5.9718 27.2426C5.9718 28.5891 7.08417 29.7015 8.43071 29.7015C9.77726 29.7015 10.8896 28.5891 10.8896 27.2426C10.8896 25.8961 9.77726 24.7837 8.43071 24.7837ZM8.43071 28.5891C7.72817 28.5891 7.14271 28.0037 7.14271 27.3011C7.14271 26.5986 7.72817 26.0131 8.43071 26.0131C9.13326 26.0131 9.71871 26.5986 9.71871 27.3011C9.71871 28.0037 9.13326 28.5891 8.43071 28.5891Z" fill="#0B2343"/>
<path d="M24.8818 16.88L7.61086 18.929L5.26904 8.97632H27.809C27.2236 10.9278 25.9941 15.0065 25.76 15.709C25.5258 16.4116 25.0769 16.7824 24.8818 16.88Z" fill="#0B2343" stroke="#0B2343" stroke-width="0.54"/>
<path d="M23.1839 24.7837C21.8373 24.7837 20.725 25.8961 20.725 27.2426C20.725 28.5891 21.8373 29.7015 23.1839 29.7015C24.5304 29.7015 25.6428 28.5891 25.6428 27.2426C25.6428 25.8961 24.5304 24.7837 23.1839 24.7837ZM23.1839 28.5891C22.4813 28.5891 21.8959 28.0037 21.8959 27.3011C21.8959 26.5986 22.4813 26.0131 23.1839 26.0131C23.8864 26.0131 24.4719 26.5986 24.4719 27.3011C24.4719 28.0037 23.8864 28.5891 23.1839 28.5891Z" fill="#0B2343"/>
<circle cx="23.1254" cy="27.1254" r="1.46364" fill="#0B2343"/>
<ellipse cx="8.48915" cy="27.1254" rx="1.46364" ry="1.46364" fill="#0B2343"/>
</g>
<defs>
<clipPath id="clip0_3316_19729">
<rect width="29.2727" height="25.76" fill="white" transform="translate(0 4)"/>
</clipPath>
</defs>
</svg>
