<svg width="40" height="40" viewBox="0 0 40 40" fill="none" xmlns="http://www.w3.org/2000/svg">
<path d="M28.14 13.4099C28.14 10.6499 25.88 8.19995 23.1 8.19995C20.32 8.19995 18.0601 10.6499 18.0601 13.4099H28.14Z" stroke="#0B2343" stroke-miterlimit="10" stroke-linecap="round" stroke-linejoin="round"/>
<path d="M23.23 8.19995C22.38 7.06995 20.65 6 18.67 6C13.99 6 12 8.58994 12 13.1899V34.1199" stroke="#0B2343" stroke-miterlimit="10" stroke-linecap="round" stroke-linejoin="round"/>
<path d="M23.17 15.74V16.24" stroke="#0B2343" stroke-linecap="round" stroke-linejoin="round"/>
<path d="M23.17 18.95V32.0698" stroke="#0B2343" stroke-linecap="round" stroke-linejoin="round" stroke-dasharray="0.9 0.9"/>
<path d="M23.17 33.4299V33.9299" stroke="#0B2343" stroke-linecap="round" stroke-linejoin="round"/>
<path d="M25.0601 15.74L25.14 16.23" stroke="#0B2343" stroke-linecap="round" stroke-linejoin="round"/>
<path d="M25.59 18.95L27.79 32.0798" stroke="#0B2343" stroke-linecap="round" stroke-linejoin="round" stroke-dasharray="0.92 0.92"/>
<path d="M28.01 33.4399L28.09 33.9299" stroke="#0B2343" stroke-linecap="round" stroke-linejoin="round"/>
<path d="M21.09 15.74L21.01 16.23" stroke="#0B2343" stroke-linecap="round" stroke-linejoin="round"/>
<path d="M20.5601 18.95L18.37 32.0798" stroke="#0B2343" stroke-linecap="round" stroke-linejoin="round" stroke-dasharray="0.92 0.92"/>
<path d="M18.14 33.4399L18.0601 33.9299" stroke="#0B2343" stroke-linecap="round" stroke-linejoin="round"/>
</svg>
