<svg width="40" height="40" viewBox="0 0 40 40" fill="none" xmlns="http://www.w3.org/2000/svg">
<path d="M14.97 12.1099H11.6099" stroke="#0B2343" stroke-miterlimit="10" stroke-linecap="round" stroke-linejoin="round"/>
<path d="M34.03 12.1099H30.97" stroke="#0B2343" stroke-miterlimit="10" stroke-linecap="round" stroke-linejoin="round"/>
<path d="M15.43 29.04C14.07 29.04 12.97 30.14 12.97 31.49C12.97 32.84 14.07 33.94 15.43 33.94C16.79 33.94 17.89 32.84 17.89 31.49C17.89 30.14 16.79 29.04 15.43 29.04Z" stroke="#0B2343" stroke-miterlimit="10" stroke-linecap="round" stroke-linejoin="round"/>
<path d="M27.93 29.04C26.57 29.04 25.47 30.14 25.47 31.49C25.47 32.84 26.57 33.94 27.93 33.94C29.29 33.94 30.39 32.84 30.39 31.49C30.39 30.14 29.29 29.04 27.93 29.04Z" stroke="#0B2343" stroke-miterlimit="10" stroke-linecap="round" stroke-linejoin="round"/>
<path d="M30.0099 16.0698H33.03" stroke="#0B2343" stroke-miterlimit="10" stroke-linecap="round" stroke-linejoin="round"/>
<path d="M12.4799 16.0698H16.0099" stroke="#0B2343" stroke-miterlimit="10" stroke-linecap="round" stroke-linejoin="round"/>
<path d="M13.34 20.0698H31.41" stroke="#0B2343" stroke-miterlimit="10" stroke-linecap="round" stroke-linejoin="round"/>
<path d="M29.9899 24.0701H14.2L10.95 9.08008H6.07001" stroke="#0B2343" stroke-miterlimit="10" stroke-linecap="round" stroke-linejoin="round"/>
<path d="M27.17 6.83996C24.83 4.49996 21.05 4.49996 18.71 6.83996C16.37 9.17996 16.37 12.96 18.71 15.3C21.05 17.64 24.83 17.64 27.17 15.3C29.51 12.97 29.51 9.17996 27.17 6.83996Z" stroke="#0B2343" stroke-miterlimit="10" stroke-linecap="round" stroke-linejoin="round"/>
<path d="M20.28 11.84L21.71 13.14L25.6199 9.75" stroke="#0B2343" stroke-miterlimit="10" stroke-linecap="round" stroke-linejoin="round"/>
</svg>
