<svg width="40" height="40" viewBox="0 0 40 40" fill="none" xmlns="http://www.w3.org/2000/svg">
<path d="M19.5638 21.8801C18.4338 21.8801 17.5137 20.9601 17.5137 19.8301C17.5137 18.7001 18.4338 17.78 19.5638 17.78C20.6938 17.78 21.6037 18.7001 21.6037 19.8301C21.6037 20.9601 20.6938 21.8801 19.5638 21.8801Z" stroke="#0B2343" stroke-linecap="round" stroke-linejoin="round"/>
<path d="M10.8438 11C5.71375 15.8 5.72375 23.8599 10.8438 28.6499" stroke="#0B2343" stroke-miterlimit="10" stroke-linecap="round" stroke-linejoin="round"/>
<path d="M14.5037 24.3801C11.7437 21.9601 11.7437 17.7 14.5037 15.28" stroke="#0B2343" stroke-miterlimit="10" stroke-linecap="round" stroke-linejoin="round"/>
<path d="M28.2838 28.6599C33.4138 23.8599 33.4038 15.8 28.2838 11.01" stroke="#0B2343" stroke-miterlimit="10" stroke-linecap="round" stroke-linejoin="round"/>
<path d="M24.6237 15.28C27.3837 17.7 27.3837 21.9601 24.6237 24.3801" stroke="#0B2343" stroke-miterlimit="10" stroke-linecap="round" stroke-linejoin="round"/>
</svg>
