<svg width="40" height="40" viewBox="0 0 40 40" fill="none" xmlns="http://www.w3.org/2000/svg">
<path d="M28.6599 23.13C27.2299 22.58 25.65 21.89 25.51 21.47V21.02C25.81 20.72 26.0399 20.29 26.1799 19.8C26.5099 19.57 26.5999 19.09 26.3199 18.75V17.75C26.3199 16.71 25.7399 16.01 24.4299 16.01C23.1499 16.01 22.5299 16.72 22.5299 17.75V18.75C22.2499 19.09 22.3399 19.57 22.6699 19.8C22.8099 20.3 23.04 20.72 23.34 21.02V21.47C23.21 21.9 21.6199 22.58 20.1899 23.13C20.0699 23.18 19.99 23.3 19.99 23.43V24.55C19.99 24.73 20.1299 24.87 20.2999 24.87H28.5399C28.7099 24.87 28.85 24.73 28.85 24.55V23.43C28.86 23.29 28.7799 23.17 28.6599 23.13Z" stroke="#0B2343" stroke-miterlimit="10" stroke-linecap="round" stroke-linejoin="round"/>
<path d="M14.98 12L6 20.44L14.98 28.87H34.9V12H14.98Z" stroke="#0B2343" stroke-miterlimit="10" stroke-linecap="round" stroke-linejoin="round"/>
</svg>
