<svg width="40" height="40" viewBox="0 0 40 40" fill="none" xmlns="http://www.w3.org/2000/svg">
<path d="M18.3341 19.8594L16.2599 26.1062L13.824 32.0192C13.649 32.5109 13.9079 33.0577 14.4005 33.2327L15.1565 33.5015C15.6482 33.6766 16.195 33.4167 16.37 32.9241L18.3133 26.8361L19.6486 23.3194" stroke="#0B2343" stroke-width="0.950021" stroke-linecap="round" stroke-linejoin="round"/>
<path d="M20.9913 19.7834L25.3281 8.36255C25.6069 7.58035 25.7558 6.20179 24.638 5.80393C23.5977 5.43403 22.7641 6.56989 22.4862 7.35119L19.6741 15.8219" stroke="#0B2343" stroke-width="0.950021" stroke-linecap="round" stroke-linejoin="round"/>
<path d="M13.9678 8.36266C13.69 7.58136 13.5402 6.2019 14.6589 5.80493C15.6982 5.43503 16.5319 6.56999 16.8098 7.3522L23.0367 26.1061L25.4726 32.0191C25.6477 32.5117 25.3887 33.0576 24.8961 33.2326L24.1401 33.5014C23.6484 33.6765 23.1017 33.4175 22.9266 32.9249L20.9833 26.8369L13.9678 8.36266Z" stroke="#0B2343" stroke-width="0.950021" stroke-linecap="round" stroke-linejoin="round"/>
<path d="M10.9606 15.8223V30.8772" stroke="#0B2343" stroke-width="0.950021" stroke-linecap="round" stroke-linejoin="round"/>
<path d="M10.5355 30.0505H11.3854" stroke="#0B2343" stroke-width="0.950021" stroke-linecap="round" stroke-linejoin="round"/>
<path d="M10.9777 15.8564H10.9434C10.6926 15.8564 10.4869 15.6507 10.4869 15.3999V12.1917C10.4869 11.9409 10.6926 11.7352 10.9434 11.7352H10.9777C11.2285 11.7352 11.4342 11.9409 11.4342 12.1917V15.3999C11.4342 15.6507 11.2285 15.8564 10.9777 15.8564Z" stroke="#0B2343" stroke-width="0.950021" stroke-linecap="round" stroke-linejoin="round"/>
<path d="M28.5261 15.8223V30.8772" stroke="#0B2343" stroke-width="0.950021" stroke-linecap="round" stroke-linejoin="round"/>
<path d="M28.1011 30.0505H28.9509" stroke="#0B2343" stroke-width="0.950021" stroke-linecap="round" stroke-linejoin="round"/>
<path d="M28.5434 15.8564H28.5091C28.2583 15.8564 28.0526 15.6507 28.0526 15.3999V12.1917C28.0526 11.9409 28.2583 11.7352 28.5091 11.7352H28.5434C28.7942 11.7352 28.9999 11.9409 28.9999 12.1917V15.3999C28.9999 15.6507 28.7942 15.8564 28.5434 15.8564Z" stroke="#0B2343" stroke-width="0.950021" stroke-linecap="round" stroke-linejoin="round"/>
</svg>
