<svg width="48" height="48" viewBox="0 0 48 48" fill="none" xmlns="http://www.w3.org/2000/svg">
<rect width="48" height="48" rx="24" fill="white" fill-opacity="0.1"/>
<path fill-rule="evenodd" clip-rule="evenodd" d="M29.1425 11.2091C28.7811 11.1553 28.4258 11.485 28.4258 11.9206C28.4258 11.9368 28.4248 11.953 28.4225 11.9691C28.3709 12.3458 28.6871 12.7162 29.1049 12.7162C29.1205 12.7162 29.1361 12.7173 29.1515 12.7196C29.5128 12.7734 29.868 12.4438 29.868 12.0082C29.868 11.5476 29.5619 11.2126 29.189 11.2126C29.1734 11.2126 29.1579 11.2114 29.1425 11.2091ZM29.2122 10.5268C28.4166 10.4235 27.7811 11.1228 27.7681 11.8962C27.6689 12.7257 28.3397 13.3883 29.0816 13.402C29.8856 13.5064 30.526 12.7912 30.526 12.0082C30.526 11.2499 30.0025 10.5404 29.2122 10.5268Z" fill="#C2C2C2"/>
<path fill-rule="evenodd" clip-rule="evenodd" d="M19.4818 18.5661C19.1205 18.5123 18.7652 18.8419 18.7652 19.2775C18.7652 19.2937 18.7641 19.31 18.7619 19.326C18.7102 19.7027 19.0265 20.0731 19.4443 20.0731C19.4599 20.0731 19.4754 20.0743 19.4908 20.0765C19.8521 20.1303 20.2075 19.8007 20.2075 19.365C20.2075 19.1568 20.1211 18.9541 19.9825 18.8017C19.8421 18.6472 19.672 18.5695 19.5283 18.5695C19.5127 18.5695 19.4972 18.5683 19.4818 18.5661ZM19.5521 17.8838C18.7562 17.7801 18.1205 18.4795 18.1074 19.2531C18.0083 20.0827 18.679 20.7452 19.421 20.7589C20.225 20.8633 20.8655 20.1482 20.8655 19.365C20.8655 18.9602 20.6998 18.5936 20.4602 18.33C20.2279 18.0743 19.9034 17.8916 19.5521 17.8838Z" fill="#C2C2C2"/>
<path fill-rule="evenodd" clip-rule="evenodd" d="M15.953 21.1061C15.5917 21.0523 15.2364 21.382 15.2364 21.8175C15.2364 21.8338 15.2353 21.8499 15.2331 21.866C15.1815 22.2427 15.4977 22.6132 15.9155 22.6132C15.9311 22.6132 15.9467 22.6142 15.9621 22.6166C16.3233 22.6704 16.6786 22.3407 16.6786 21.9051C16.6786 21.8888 16.6798 21.8727 16.6819 21.8566C16.7335 21.4799 16.4173 21.1096 15.9995 21.1096C15.984 21.1096 15.9684 21.1084 15.953 21.1061ZM16.0229 20.4237C15.2272 20.3205 14.5917 21.0197 14.5786 21.7932C14.4795 22.6227 15.1503 23.2853 15.8921 23.2989C16.6878 23.4023 17.3234 22.7029 17.3364 21.9294C17.4355 21.0999 16.7647 20.4374 16.0229 20.4237Z" fill="#C2C2C2"/>
<path fill-rule="evenodd" clip-rule="evenodd" d="M28.1741 15.7743C28.1741 15.3506 28.5309 14.9787 28.9372 14.9787C29.3436 14.9787 29.7003 15.3506 29.7003 15.7743C29.7003 15.7917 29.7016 15.8092 29.7042 15.8264L30.0279 18.0203C29.652 18.0823 29.2877 18.2131 28.9227 18.4667L28.9117 18.4748L28.1019 19.0887L28.174 15.782H28.1741V15.7743ZM27.4328 19.5962L27.5161 15.7701C27.5184 14.9694 28.1688 14.2927 28.9372 14.2927C29.6981 14.2927 30.3432 14.956 30.3581 15.7463L30.6084 17.443L31.096 17.0734C31.2429 16.962 31.4487 16.9959 31.5556 17.149C31.6625 17.3022 31.6299 17.5167 31.483 17.6282L31.0306 17.9713H36.9181C37.7251 17.9713 38.5323 18.0569 39.1452 18.4076C39.4589 18.5873 39.7249 18.838 39.91 19.1804C40.0944 19.5212 40.1874 19.9323 40.1874 20.4163C40.1874 20.8777 40.0998 21.2762 39.9238 21.6114C39.7471 21.948 39.4913 22.2018 39.1834 22.388C38.5806 22.7525 37.7726 22.8613 36.9181 22.8613H31.565L28.2074 25.4226C28.0608 25.5345 27.8549 25.5012 27.7476 25.3483C27.6403 25.1954 27.6722 24.9808 27.8188 24.869L31.2633 22.2414C31.3196 22.1985 31.3876 22.1753 31.4575 22.1753H36.9181C37.7438 22.1753 38.4059 22.065 38.8533 21.7946C39.0704 21.6632 39.2345 21.4955 39.3467 21.2821C39.4595 21.0672 39.5294 20.7869 39.5294 20.4163C39.5294 20.0243 39.4544 19.7348 39.3368 19.5172C39.2201 19.3013 39.0503 19.136 38.8285 19.009C38.3703 18.7467 37.7073 18.6573 36.9181 18.6573H30.7014C30.1512 18.6573 29.7212 18.7381 29.2931 19.0338L21.8998 24.6396C21.8801 24.6695 21.8554 24.6965 21.8261 24.7195L20.818 25.5077C20.7735 25.5425 20.7224 25.5643 20.6693 25.5726L17.6889 27.8324L17.4801 28.0283C17.4349 28.0706 17.3803 28.0984 17.3227 28.11L13.589 30.941C13.5328 30.9836 13.465 31.0066 13.3955 31.0066H11.1272C10.3462 31.0066 9.6812 31.116 9.22114 31.3887C8.99678 31.5217 8.82498 31.6913 8.70744 31.9055C8.58963 32.1201 8.51591 32.3986 8.51591 32.7656C8.51591 33.1575 8.59088 33.4471 8.70847 33.6646C8.82525 33.8806 8.99505 34.0459 9.21684 34.1728C9.67505 34.4352 10.338 34.5246 11.1272 34.5246H14.1516C14.7015 34.5246 15.1313 34.4439 15.5592 34.1485L22.1898 29.0734C22.3363 28.9613 22.5421 28.9941 22.6497 29.1469C22.7572 29.2996 22.7256 29.5142 22.5792 29.6263L15.9425 34.7062L15.9357 34.7112L15.9303 34.7151C15.3521 35.117 14.7752 35.2106 14.1516 35.2106H11.1272C10.3203 35.2106 9.51308 35.125 8.90017 34.7741C8.58641 34.5946 8.3204 34.3438 8.13528 34.0015C7.95097 33.6607 7.85791 33.2495 7.85791 32.7656C7.85791 32.3005 7.9522 31.9003 8.13631 31.5648C8.32067 31.2288 8.58467 30.9769 8.89588 30.7924C9.50693 30.4302 10.3121 30.3206 11.1272 30.3206H13.2885L14.3268 29.5333C14.3267 29.528 14.3267 29.5226 14.3268 29.5172L14.4107 25.6671C14.413 24.8664 15.0634 24.1897 15.8318 24.1897C16.5919 24.1897 17.2365 24.8517 17.2526 25.6409L17.4859 27.1L17.7746 26.829L17.8553 23.1272C17.8575 22.3265 18.508 21.6498 19.2764 21.6498C20.0389 21.6498 20.6851 22.316 20.6974 23.1085L20.8726 24.5702L27.4328 19.5962ZM16.8964 27.5851L16.5994 25.7277C16.5964 25.709 16.5949 25.6902 16.5949 25.6713C16.5949 25.2477 16.2382 24.8757 15.8318 24.8757C15.4255 24.8757 15.0687 25.2477 15.0687 25.6713V25.6791H15.0686L14.9957 29.0261L16.8964 27.5851ZM20.0421 23.1739L20.2648 25.0311L18.4418 26.4133L18.5132 23.1392H18.5133V23.1313C18.5133 22.7077 18.87 22.3358 19.2764 22.3358C19.6827 22.3358 20.0396 22.7077 20.0396 23.1313C20.0396 23.1456 20.0404 23.1598 20.0421 23.1739Z" fill="#C2C2C2"/>
<path fill-rule="evenodd" clip-rule="evenodd" d="M31.3807 24.0073C31.3807 23.8179 31.528 23.6643 31.7097 23.6643H34.4819C34.6112 23.6643 34.7285 23.7432 34.7817 23.866L36.3381 27.453L37.9408 28.539C38.2127 28.7281 38.5914 29.0803 38.5914 29.6127V35.3932C38.5914 35.5827 38.4441 35.7362 38.2624 35.7362H36.5602C36.4391 36.7735 35.5916 37.6631 34.4819 37.6631C33.4342 37.6631 32.6086 36.9328 32.4263 35.9115H24.5192C24.3286 36.8717 23.5152 37.6631 22.4685 37.6631C21.3911 37.6631 20.5486 36.8909 20.399 35.8239H19.1083C18.9266 35.8239 18.7793 35.6703 18.7793 35.4809V33.2036C18.7793 33.0142 18.9266 32.8606 19.1083 32.8606H31.3807V24.0073ZM19.4373 33.5466V35.1379H20.4044C20.5188 34.4633 20.9602 33.8668 21.5384 33.5466H19.4373ZM23.4283 33.5466C24.019 33.868 24.4642 34.4766 24.5476 35.2255H32.4036C32.486 34.5195 32.9049 33.8819 33.5139 33.5466H31.7117H31.7097H31.7076H23.4283ZM36.5345 35.0502C36.4062 34.3821 35.9855 33.8426 35.4416 33.5466H37.9334V35.0502H36.5345ZM37.9334 29.6127V32.8606H32.0387V24.3503H34.2697L35.7784 27.8272C35.8043 27.887 35.8461 27.9377 35.8988 27.9735L37.5773 29.111C37.8085 29.272 37.9334 29.4448 37.9334 29.6127ZM33.0467 35.4809C33.0467 34.6962 33.6655 33.9846 34.4819 33.9846C35.2346 33.9846 35.9171 34.6298 35.9171 35.4809C35.9171 36.2655 35.2982 36.9771 34.4819 36.9771C33.6555 36.9771 33.0467 36.3425 33.0467 35.4809ZM21.0333 35.4911L21.0335 35.4809L21.0333 35.471C21.0392 34.7007 21.7293 33.9846 22.4685 33.9846C23.2212 33.9846 23.9037 34.6298 23.9037 35.4809C23.9037 36.2655 23.2848 36.9771 22.4685 36.9771C21.6454 36.9771 21.0382 36.3475 21.0333 35.4911Z" fill="#C2C2C2"/>
<path fill-rule="evenodd" clip-rule="evenodd" d="M26.6444 23.897L27.4102 26.2122L29.7841 26.2919C29.942 26.2944 30.0565 26.3793 30.1249 26.4534C30.1928 26.5273 30.2378 26.6132 30.2669 26.6817C30.3221 26.811 30.3583 26.9685 30.3583 27.0728C30.3583 27.18 30.3103 27.2811 30.2284 27.3459L28.3097 28.8661L28.9941 31.2442C29.1032 31.5149 28.9571 31.7702 28.8258 31.8876C28.7468 31.9582 28.6359 32.0193 28.5031 32.0271C28.3721 32.0349 28.245 31.9889 28.1429 31.8955L26.1649 30.4679L24.1876 31.895C23.9926 32.0758 23.7239 32.0858 23.5269 31.9392C23.3262 31.7897 23.2504 31.5202 23.3307 31.2617L24.0201 28.8661L22.1014 27.3459C22.0896 27.3365 22.0783 27.3263 22.0679 27.3154C21.9046 27.1451 21.8364 26.897 21.9189 26.6678C22.0038 26.4315 22.2197 26.2942 22.4623 26.2919L24.8356 26.2122L25.6014 23.8969C25.6734 23.6738 25.8553 23.4673 26.1229 23.4673C26.3905 23.4673 26.5724 23.6739 26.6444 23.897ZM26.1229 24.4245L25.3838 26.6591C25.3393 26.7936 25.2198 26.8855 25.0834 26.8901L22.7142 26.9698L24.5997 28.4638C24.709 28.5503 24.7552 28.6985 24.7158 28.8355L24.0461 31.1627L25.9776 29.7687C26.0903 29.6873 26.2395 29.6873 26.3522 29.7687L28.2836 31.1627L27.614 28.8355C27.5746 28.6985 27.6208 28.5503 27.73 28.4638L29.6122 26.9725L27.1624 26.8901C27.026 26.8855 26.9064 26.7936 26.862 26.6591L26.1229 24.4245Z" fill="#C2C2C2"/>
<rect x="0.5" y="0.5" width="47" height="47" rx="23.5" stroke="white" stroke-opacity="0.6"/>
</svg>
