<svg width="40" height="40" viewBox="0 0 40 40" fill="none" xmlns="http://www.w3.org/2000/svg">
<path d="M20.98 21.74C18.61 21.21 16.11 18.5699 16.11 15.4299C16.11 11.9099 18.82 9.02002 22.04 9.02002H27.95C31.17 9.02002 33.78 12.02 33.78 15.54C33.78 19.06 31.09 21.98 27.87 21.98H26.01L20.97 26.3101V21.74H20.98Z" stroke="#0B2343" stroke-linecap="round" stroke-linejoin="round"/>
<path d="M25.1 17.0898C25.09 17.0998 25.08 17.0999 25.07 17.1099C24.56 17.3699 22.73 15.4 23.08 15.04C23.29 14.83 23.79 14.48 23.6 14.29C23.52 14.21 21.88 12.5 21.77 12.49C21.66 12.49 21.18 13.0001 21.1 13.0801C20.45 13.7501 20.03 14.85 22.63 17.5C24.37 19.27 25.65 19.91 26.56 19.45C26.84 19.31 27.36 18.7901 27.57 18.5601C27.63 18.4901 27.63 18.3901 27.57 18.3201C25.47 16.1901 26 16.2498 25.1 17.0898Z" stroke="#0B2343" stroke-miterlimit="10" stroke-linecap="round" stroke-linejoin="round"/>
<path d="M26.97 15.3798C27.01 14.1498 26.01 13.1499 24.78 13.1899" stroke="#0B2343" stroke-miterlimit="10" stroke-linecap="round" stroke-linejoin="round"/>
<path d="M28.4199 14.98C28.4599 13.17 26.9899 11.69 25.1699 11.73" stroke="#0B2343" stroke-miterlimit="10" stroke-linecap="round" stroke-linejoin="round"/>
<path d="M22.97 9.01001V8.56006C22.97 7.15006 21.85 6 20.47 6H9.5C8.13 6 7 7.15006 7 8.56006V32.4399C7 33.8499 8.12 35 9.5 35H20.47C21.84 35 22.97 33.8499 22.97 32.4399V24.7" stroke="#0B2343" stroke-linecap="round" stroke-linejoin="round"/>
<path d="M14.99 33.01C14.44 33.01 14 32.56 14 32C14 31.45 14.44 30.99 14.99 30.99C15.54 30.99 15.98 31.44 15.98 32C15.97 32.56 15.53 33.01 14.99 33.01Z" stroke="#0B2343" stroke-linecap="round" stroke-linejoin="round"/>
<path d="M7.01001 11H17.79" stroke="#0B2343" stroke-linecap="round" stroke-linejoin="round"/>
<path d="M7.01001 29H22.97" stroke="#0B2343" stroke-linecap="round" stroke-linejoin="round"/>
</svg>
