<svg width="40" height="40" viewBox="0 0 40 40" fill="none" xmlns="http://www.w3.org/2000/svg">
<path d="M22.1999 14.82C22.0099 15.43 21.36 15.77 20.75 15.58C20.14 15.39 19.7999 14.74 19.9899 14.13C20.1799 13.52 20.8299 13.18 21.4399 13.37C22.0499 13.56 22.3899 14.21 22.1999 14.82Z" stroke="#0B2343" stroke-miterlimit="10" stroke-linecap="round" stroke-linejoin="round"/>
<path d="M20.0499 27.1601C20.0499 27.1601 20.04 24.57 19.99 23.75C19.98 23.6 19.9199 23.46 19.8099 23.36L18.0099 21.4101C17.8599 21.1401 17.8199 20.8101 17.9199 20.5101L18.6999 18.0101C18.8899 17.4001 19.5099 16.98 20.1399 17.12C20.8499 17.28 21.2599 18.0001 21.0499 18.6801L20.75 21.0501L23.1499 20.9401" stroke="#0B2343" stroke-miterlimit="10" stroke-linecap="round" stroke-linejoin="round"/>
<path d="M17.0599 22.7101L16.2799 23.8201H13.46" stroke="#0B2343" stroke-miterlimit="10" stroke-linecap="round" stroke-linejoin="round"/>
<path d="M17.1499 17.09H16.22L15.2999 19.4601" stroke="#0B2343" stroke-miterlimit="10" stroke-linecap="round" stroke-linejoin="round"/>
<path d="M12.5 10.9601C13.64 10.6301 14.1599 8.09001 14.2599 6.89001C14.2999 6.42001 14.6799 6 15.1599 6C16.0599 6 21.94 6 22.83 6C23.31 6 23.7 6.42001 23.73 6.89001C23.83 8.09001 24.35 10.6301 25.49 10.9601" stroke="#0B2343" stroke-linecap="round" stroke-linejoin="round"/>
<path d="M25.5 29.9401C24.36 30.2701 23.84 32.81 23.74 34.01C23.7 34.48 23.32 34.9 22.84 34.9C21.94 34.9 16.0599 34.9 15.1699 34.9C14.6899 34.9 14.2999 34.48 14.2699 34.01C14.1699 32.81 13.6499 30.2701 12.5099 29.9401" stroke="#0B2343" stroke-linecap="round" stroke-linejoin="round"/>
<path d="M25 29.9401H13C11.34 29.9401 10 28.6001 10 26.9401V13.9401C10 12.2801 11.34 10.9401 13 10.9401H25C26.66 10.9401 28 12.2801 28 13.9401V26.9401C28 28.5901 26.66 29.9401 25 29.9401Z" stroke="#0B2343" stroke-miterlimit="10" stroke-linecap="round" stroke-linejoin="round"/>
<path d="M30 14.9401V18.89" stroke="#0B2343" stroke-linecap="round" stroke-linejoin="round"/>
</svg>
