<svg width="40" height="40" viewBox="0 0 40 40" fill="none" xmlns="http://www.w3.org/2000/svg">
<path d="M25.47 6H15.5C14.13 6 13 7.15006 13 8.56006V32.4399C13 33.8499 14.12 35 15.5 35H25.47C26.84 35 27.97 33.8499 27.97 32.4399V8.56006C27.97 7.15006 26.85 6 25.47 6Z" stroke="#0B2343" stroke-linecap="round" stroke-linejoin="round"/>
<path d="M20.49 33.54C19.94 33.54 19.5 33.09 19.5 32.54C19.5 31.99 19.94 31.53 20.49 31.53C21.04 31.53 21.48 31.98 21.48 32.54C21.47 33.09 21.03 33.54 20.49 33.54Z" stroke="#0B2343" stroke-linecap="round" stroke-linejoin="round"/>
<path d="M13.01 10H27.97" stroke="#0B2343" stroke-linecap="round" stroke-linejoin="round"/>
<path d="M13.01 30H27.97" stroke="#0B2343" stroke-linecap="round" stroke-linejoin="round"/>
</svg>
