<svg width="40" height="40" viewBox="0 0 40 40" fill="none" xmlns="http://www.w3.org/2000/svg">
<path d="M20.98 21.74C18.61 21.21 16.11 18.5699 16.11 15.4299C16.11 11.9099 18.82 9.02002 22.04 9.02002H27.95C31.17 9.02002 33.79 12.02 33.79 15.54C33.79 19.06 31.1 21.98 27.88 21.98H26.02L20.98 26.3101V21.74Z" stroke="#0B2343" stroke-linecap="round" stroke-linejoin="round"/>
<path d="M22.97 9.01001V8.56006C22.97 7.15006 21.85 6 20.47 6H9.5C8.13 6 7 7.15006 7 8.56006V32.4399C7 33.8499 8.12 35 9.5 35H20.47C21.84 35 22.97 33.8499 22.97 32.4399V24.7" stroke="#0B2343" stroke-linecap="round" stroke-linejoin="round"/>
<path d="M14.99 33.01C14.44 33.01 14 32.56 14 32C14 31.45 14.44 30.99 14.99 30.99C15.54 30.99 15.98 31.44 15.98 32C15.97 32.56 15.53 33.01 14.99 33.01Z" stroke="#0B2343" stroke-linecap="round" stroke-linejoin="round"/>
<path d="M7.01001 11H17.79" stroke="#0B2343" stroke-linecap="round" stroke-linejoin="round"/>
<path d="M7.01001 29H22.97" stroke="#0B2343" stroke-linecap="round" stroke-linejoin="round"/>
<path d="M20.49 14H29.49" stroke="#0B2343" stroke-linecap="round" stroke-linejoin="round"/>
<path d="M20.49 17H25.43" stroke="#0B2343" stroke-linecap="round" stroke-linejoin="round"/>
</svg>
