<svg width="40" height="40" viewBox="0 0 40 40" fill="none" xmlns="http://www.w3.org/2000/svg">
<path d="M21.06 24.72C20.85 23.97 19.91 23.61 18.96 23.92C18.01 24.23 17.41 25.0801 17.62 25.8301C17.83 26.5801 18.77 26.94 19.72 26.63C20.67 26.33 21.27 25.47 21.06 24.72Z" stroke="#0B2343" stroke-miterlimit="10" stroke-linecap="round" stroke-linejoin="round"/>
<path d="M21.0599 24.72V14.7001C21.0599 14.7001 26.38 18.09 22.99 21.04" stroke="#0B2343" stroke-miterlimit="10" stroke-linecap="round" stroke-linejoin="round"/>
<path d="M12.5 10.9601C13.64 10.6301 14.1599 8.09001 14.2599 6.89001C14.2999 6.42001 14.6799 6 15.1599 6C16.0599 6 21.94 6 22.83 6C23.31 6 23.7 6.42001 23.73 6.89001C23.83 8.09001 24.35 10.6301 25.49 10.9601" stroke="#0B2343" stroke-linecap="round" stroke-linejoin="round"/>
<path d="M25.5 29.9401C24.36 30.2701 23.84 32.81 23.74 34.01C23.7 34.48 23.32 34.9 22.84 34.9C21.94 34.9 16.0599 34.9 15.1699 34.9C14.6899 34.9 14.2999 34.48 14.2699 34.01C14.1699 32.81 13.6499 30.2701 12.5099 29.9401" stroke="#0B2343" stroke-linecap="round" stroke-linejoin="round"/>
<path d="M25 29.9401H13C11.34 29.9401 10 28.6001 10 26.9401V13.9401C10 12.2801 11.34 10.9401 13 10.9401H25C26.66 10.9401 28 12.2801 28 13.9401V26.9401C28 28.5901 26.66 29.9401 25 29.9401Z" stroke="#0B2343" stroke-miterlimit="10" stroke-linecap="round" stroke-linejoin="round"/>
<path d="M30 14.9401V18.89" stroke="#0B2343" stroke-linecap="round" stroke-linejoin="round"/>
<path d="M13.0099 15.9401H17.99" stroke="#0B2343" stroke-linecap="round" stroke-linejoin="round"/>
<path d="M13.0099 17.9401H17.99" stroke="#0B2343" stroke-linecap="round" stroke-linejoin="round"/>
<path d="M13.0099 19.9401H17.99" stroke="#0B2343" stroke-linecap="round" stroke-linejoin="round"/>
</svg>
