<svg width="40" height="40" viewBox="0 0 40 40" fill="none" xmlns="http://www.w3.org/2000/svg">
<path d="M19.96 23.01V13.1199" stroke="#0B2343" stroke-miterlimit="10" stroke-linecap="round" stroke-linejoin="round"/>
<path d="M19.96 23.0099C19.75 22.2899 18.82 21.9499 17.87 22.2399C16.93 22.5299 16.33 23.3499 16.54 24.0699C16.75 24.7899 17.68 25.1297 18.63 24.8397C19.58 24.5397 20.17 23.7199 19.96 23.0099Z" stroke="#0B2343" stroke-miterlimit="10" stroke-linecap="round" stroke-linejoin="round"/>
<path d="M19.96 13.1199C19.96 13.1199 25.24 16.3699 21.88 19.1899" stroke="#0B2343" stroke-miterlimit="10" stroke-linecap="round" stroke-linejoin="round"/>
<path d="M25.47 6H14.5C13.13 6 12 7.15006 12 8.56006V32.4399C12 33.8499 13.12 35 14.5 35H25.47C26.84 35 27.97 33.8499 27.97 32.4399V8.56006C27.97 7.15006 26.85 6 25.47 6Z" stroke="#0B2343" stroke-linecap="round" stroke-linejoin="round"/>
<path d="M19.99 33.01C19.44 33.01 19 32.56 19 32C19 31.45 19.44 30.99 19.99 30.99C20.54 30.99 20.98 31.44 20.98 32C20.97 32.56 20.53 33.01 19.99 33.01Z" stroke="#0B2343" stroke-linecap="round" stroke-linejoin="round"/>
<path d="M12.01 10H27.97" stroke="#0B2343" stroke-linecap="round" stroke-linejoin="round"/>
<path d="M12.01 29H27.97" stroke="#0B2343" stroke-linecap="round" stroke-linejoin="round"/>
</svg>
