<svg width="40" height="40" viewBox="0 0 40 40" fill="none" xmlns="http://www.w3.org/2000/svg">
<path d="M20.47 6H9.5C8.13 6 7 7.15006 7 8.56006V32.4399C7 33.8499 8.12 35 9.5 35H20.47C21.84 35 22.97 33.8499 22.97 32.4399V8.56006C22.97 7.15006 21.85 6 20.47 6Z" stroke="#0B2343" stroke-linecap="round" stroke-linejoin="round"/>
<path d="M14.99 33.01C14.44 33.01 14 32.56 14 32C14 31.45 14.44 30.99 14.99 30.99C15.54 30.99 15.98 31.44 15.98 32C15.97 32.56 15.53 33.01 14.99 33.01Z" stroke="#0B2343" stroke-linecap="round" stroke-linejoin="round"/>
<path d="M27.26 24.71C30.36 21.97 30.36 17.3799 27.26 14.6499" stroke="#0B2343" stroke-miterlimit="10" stroke-linecap="round" stroke-linejoin="round"/>
<path d="M30.39 27.1499C34.46 23.0699 34.47 16.3 30.39 12.21" stroke="#0B2343" stroke-miterlimit="10" stroke-linecap="round" stroke-linejoin="round"/>
<path d="M7.01001 11H22.97" stroke="#0B2343" stroke-linecap="round" stroke-linejoin="round"/>
<path d="M7.01001 29H22.97" stroke="#0B2343" stroke-linecap="round" stroke-linejoin="round"/>
</svg>
