<svg width="40" height="40" viewBox="0 0 40 40" fill="none" xmlns="http://www.w3.org/2000/svg">
<path d="M15.51 18.0602C16 16.4102 17.35 15.07 19.16 14.7C19.63 14.61 20.09 14.59 20.54 14.63" stroke="#0B2343" stroke-miterlimit="10" stroke-linecap="round" stroke-linejoin="round"/>
<path d="M20.1099 19.4199C20.5499 21.5899 19.9499 23.7298 18.6699 25.3398" stroke="#0B2343" stroke-miterlimit="10" stroke-linecap="round" stroke-linejoin="round"/>
<path d="M18.5099 19.51C18.4599 18.72 18.9999 17.9999 19.7899 17.8399C20.6599 17.6599 21.5099 18.2299 21.6799 19.0999C22.1399 21.3899 21.6599 23.65 20.5099 25.5" stroke="#0B2343" stroke-miterlimit="10" stroke-linecap="round" stroke-linejoin="round"/>
<path d="M18.6299 21.0898C18.5699 22.4598 18.0099 23.73 17.0999 24.7" stroke="#0B2343" stroke-miterlimit="10" stroke-linecap="round" stroke-linejoin="round"/>
<path d="M23.3299 22.4399C23.1899 23.3199 22.9499 24.16 22.5999 24.97" stroke="#0B2343" stroke-miterlimit="10" stroke-linecap="round" stroke-linejoin="round"/>
<path d="M23.45 20.8499C23.45 20.1699 23.3899 19.4701 23.2499 18.7801C22.8999 17.0401 21.2099 15.9201 19.4699 16.2701C17.7299 16.6201 16.61 18.3101 16.96 20.0501C17.24 21.4301 16.76 22.79 15.83 23.71" stroke="#0B2343" stroke-miterlimit="10" stroke-linecap="round" stroke-linejoin="round"/>
<path d="M22.08 15.04C23.44 15.66 24.5099 16.88 24.8199 18.46C25.1399 20.07 25.13 21.6699 24.83 23.1899" stroke="#0B2343" stroke-miterlimit="10" stroke-linecap="round" stroke-linejoin="round"/>
<path d="M15.3099 19.6399C15.3199 19.8799 15.3399 20.1299 15.3899 20.3699C15.5399 21.1199 15.3199 21.8599 14.8599 22.3999" stroke="#0B2343" stroke-miterlimit="10" stroke-linecap="round" stroke-linejoin="round"/>
<path d="M25.47 6H14.5C13.13 6 12 7.15006 12 8.56006V32.4399C12 33.8499 13.12 35 14.5 35H25.47C26.84 35 27.97 33.8499 27.97 32.4399V8.56006C27.97 7.15006 26.85 6 25.47 6Z" stroke="#0B2343" stroke-linecap="round" stroke-linejoin="round"/>
<path d="M12.01 10H27.97" stroke="#0B2343" stroke-linecap="round" stroke-linejoin="round"/>
<path d="M12.01 31H27.97" stroke="#0B2343" stroke-linecap="round" stroke-linejoin="round"/>
</svg>
