<svg width="40" height="40" viewBox="0 0 40 40" fill="none" xmlns="http://www.w3.org/2000/svg">
<path d="M12.13 24.0399H14.79L16.3101 16.26L18.55 27.48L19.88 20.8199L21.08 24.0399H25.87" stroke="#0B2343" stroke-miterlimit="10" stroke-linecap="round" stroke-linejoin="round"/>
<path d="M29.91 20.3999C29.91 26.2699 25.23 31.0399 19.45 31.0399C13.68 31.0399 9 26.2799 9 20.3999C9 14.5299 13.68 9.76001 19.45 9.76001C25.23 9.76001 29.91 14.5199 29.91 20.3999Z" stroke="#0B2343" stroke-linecap="round" stroke-linejoin="round"/>
<path d="M25.05 29.3999L24.83 35H13.97L13.75 29.4099" stroke="#0B2343" stroke-linecap="round" stroke-linejoin="round"/>
<path d="M13.75 11.48L13.97 6H24.83L25.05 11.4099" stroke="#0B2343" stroke-linecap="round" stroke-linejoin="round"/>
<path d="M23.3101 15.41C22.0801 13.77 19.7401 15.71 20.9301 17.18C21.0501 17.32 23.1 19.87 23.28 19.87C23.46 19.87 25.52 17.37 25.64 17.23C26.93 15.68 24.5301 13.78 23.3101 15.41Z" stroke="#0B2343" stroke-miterlimit="10" stroke-linecap="round" stroke-linejoin="round"/>
<path d="M29.8101 18.99H31.9401V21.99H29.91" stroke="#0B2343" stroke-linecap="round" stroke-linejoin="round"/>
</svg>
