<svg width="40" height="40" viewBox="0 0 40 40" fill="none" xmlns="http://www.w3.org/2000/svg">
<path d="M12.6599 23.84H14.75L16.2999 16.2101L18.58 27.09L19.9299 20.77L21.1499 23.84H25.0699" stroke="#0B2343" stroke-miterlimit="10" stroke-linecap="round" stroke-linejoin="round"/>
<path d="M22.1699 15.36C20.9199 13.72 18.54 15.6601 19.75 17.1301C19.87 17.2701 21.9499 19.8201 22.1399 19.8201C22.3299 19.8201 24.4199 17.3201 24.5399 17.1801C25.8499 15.6301 23.4199 13.73 22.1699 15.36Z" stroke="#0B2343" stroke-miterlimit="10" stroke-linecap="round" stroke-linejoin="round"/>
<path d="M12.5 10.9601C13.64 10.6301 14.1599 8.09001 14.2599 6.89001C14.2999 6.42001 14.6799 6 15.1599 6C16.0599 6 21.94 6 22.83 6C23.31 6 23.7 6.42001 23.73 6.89001C23.83 8.09001 24.35 10.6301 25.49 10.9601" stroke="#0B2343" stroke-linecap="round" stroke-linejoin="round"/>
<path d="M25.5 29.9401C24.36 30.2701 23.84 32.81 23.74 34.01C23.7 34.48 23.32 34.9 22.84 34.9C21.94 34.9 16.0599 34.9 15.1699 34.9C14.6899 34.9 14.2999 34.48 14.2699 34.01C14.1699 32.81 13.6499 30.2701 12.5099 29.9401" stroke="#0B2343" stroke-linecap="round" stroke-linejoin="round"/>
<path d="M25 29.9401H13C11.34 29.9401 10 28.6001 10 26.9401V13.9401C10 12.2801 11.34 10.9401 13 10.9401H25C26.66 10.9401 28 12.2801 28 13.9401V26.9401C28 28.5901 26.66 29.9401 25 29.9401Z" stroke="#0B2343" stroke-miterlimit="10" stroke-linecap="round" stroke-linejoin="round"/>
<path d="M30 14.9401V18.89" stroke="#0B2343" stroke-linecap="round" stroke-linejoin="round"/>
</svg>
