<svg width="40" height="40" viewBox="0 0 40 40" fill="none" xmlns="http://www.w3.org/2000/svg">
<path d="M19.9937 2C10.0701 2 2 10.0701 2 19.9937C2 29.9174 10.0701 38 19.9937 38C29.9174 38 37.9874 29.93 37.9874 19.9937C37.9874 10.0701 29.9174 2 19.9937 2Z" stroke="#0B2343" stroke-miterlimit="10" stroke-linecap="round" stroke-linejoin="round"/>
<path d="M14.5085 19.1615C16.2217 19.1615 17.6105 17.7727 17.6105 16.0596C17.6105 14.3464 16.2217 12.9576 14.5085 12.9576C12.7954 12.9576 11.4066 14.3464 11.4066 16.0596C11.4066 17.7727 12.7954 19.1615 14.5085 19.1615Z" stroke="#0B2343" stroke-miterlimit="10" stroke-linecap="round" stroke-linejoin="round"/>
<path d="M25.5041 19.1615C27.2173 19.1615 28.6061 17.7727 28.6061 16.0596C28.6061 14.3464 27.2173 12.9576 25.5041 12.9576C23.791 12.9576 22.4022 14.3464 22.4022 16.0596C22.4022 17.7727 23.791 19.1615 25.5041 19.1615Z" stroke="#0B2343" stroke-miterlimit="10" stroke-linecap="round" stroke-linejoin="round"/>
<path d="M25.5292 28.4168C24.5583 25.7562 22.4399 23.9153 19.9937 23.9153C17.5475 23.9153 15.4291 25.7562 14.4581 28.4168" stroke="#0B2343" stroke-miterlimit="10" stroke-linecap="round" stroke-linejoin="round"/>
</svg>
