<svg width="40" height="40" viewBox="0 0 40 40" fill="none" xmlns="http://www.w3.org/2000/svg">
<path d="M33.9955 19.2136C33.9955 14.8588 30.3716 11.4112 25.6605 11.4112C23.4862 11.4112 21.6742 12.3184 20.2247 13.4071C20.2247 13.4071 20.2247 13.4071 20.2247 13.2257C20.2247 12.4999 20.0435 11.4112 19.6811 10.5039C19.1375 8.87082 18.0503 7.4192 16.9631 6.33048C16.2384 5.60467 14.97 6.14903 14.97 7.23775C14.97 7.96356 15.876 8.32646 16.2384 8.68937C17.6879 9.95954 18.7751 11.4112 19.1375 13.2257C19.1375 13.4071 19.1375 13.5886 19.1375 13.77C17.6879 12.3184 15.5136 11.4112 13.3392 11.4112C8.80934 11.4112 5.00424 14.8588 5.00424 19.2136C5.00424 19.2136 4.64184 26.8346 10.6213 33.004C12.7956 35 13.8828 35 14.2452 35C16.9631 35 17.5067 32.8226 19.4999 32.8226C21.3118 32.8226 22.0366 35 24.7546 35C25.1169 35 26.3853 35 28.5597 33.004C34.3579 26.8346 33.9955 19.2136 33.9955 19.2136Z" fill="#0B2343"/>
</svg>
