<?xml version="1.0" encoding="utf-8"?>
<!-- Generator: Adobe Illustrator 20.1.0, SVG Export Plug-In . SVG Version: 6.00 Build 0)  -->
<svg version="1.1" id="Layer_1" xmlns="http://www.w3.org/2000/svg" xmlns:xlink="http://www.w3.org/1999/xlink" x="0px" y="0px"
	 viewBox="0 0 376.8 353.8" style="enable-background:new 0 0 376.8 353.8;" xml:space="preserve">
<path d="M190.8,353.8c-1.1,0-2.1,0-2.9-0.1c-0.6,0.1-1.2,0.1-1.9,0.1c-22.4,0-37.4-10.6-50.7-20c-9.5-6.7-18.4-13-28.9-14.8
	c-5.1-0.9-10.3-1.3-15.2-1.3c-8.9,0-16,1.4-21.1,2.4c-3.2,0.6-5.9,1.1-8,1.1c-2.2,0-4.9-0.5-6-4.3c-0.9-3-1.5-5.9-2.1-8.7
	c-1.5-7-2.6-11.3-5.3-11.7C20.5,292.2,3.9,285.8,0.6,278c-0.3-0.8-0.5-1.6-0.6-2.4c-0.1-2.3,1.5-4.3,3.8-4.7
	c22.3-3.7,42.2-15.5,59.1-35.1c13-15.2,19.5-29.7,20.1-31.3c0-0.1,0.1-0.1,0.1-0.2c3.2-6.6,3.9-12.3,1.9-16.9
	c-3.6-8.6-15.6-12.4-23.6-14.9c-2-0.6-3.8-1.2-5.3-1.8c-7-2.8-18.6-8.7-17.1-16.8c1.1-5.9,8.9-10,15.3-10c1.8,0,3.3,0.3,4.6,0.9
	c7.1,3.3,13.6,5,19.1,5c6.9,0,10.2-2.6,11-3.4c-0.2-3.7-0.4-7.5-0.7-11.2c0,0,0,0,0,0c-1.6-25.7-3.6-57.6,4.5-75.9
	c24.5-54.8,76.3-59.1,91.7-59.1c0.4,0,6.7-0.1,6.7-0.1c0.3,0,0.6,0,0.9,0c15.4,0,67.3,4.3,91.8,59.2c8.2,18.3,6.2,50.3,4.5,76
	l-0.1,1.2c-0.2,3.5-0.4,6.8-0.6,10c0.8,0.7,3.8,3.1,10,3.3c5.3-0.2,11.3-1.9,18-5c2.1-1,4.3-1.2,5.9-1.2c2.3,0,4.7,0.5,6.7,1.3
	l0.1,0c5.7,2,9.4,6,9.4,10.2c0.1,3.9-2.9,9.8-17.2,15.5c-1.5,0.6-3.3,1.2-5.3,1.8c-8,2.5-20,6.3-23.6,14.9c-2,4.6-1.3,10.3,1.9,16.9
	c0,0.1,0.1,0.1,0.1,0.2c1,2.3,25.2,57.5,79.2,66.4c2.3,0.4,3.9,2.4,3.8,4.7c0,0.8-0.2,1.7-0.6,2.5c-3.3,7.7-19.9,14.1-48.1,18.4
	c-2.6,0.4-3.8,4.7-5.3,11.7c-0.6,2.9-1.3,5.7-2.1,8.7c-0.8,2.8-2.6,4.2-5.6,4.2h-0.4c-1.9,0-4.6-0.3-8-1c-6-1.2-12.6-2.2-21.1-2.2
	c-4.9,0-10.1,0.4-15.2,1.3c-10.5,1.7-19.4,8.1-28.9,14.8C228.2,343.2,213.2,353.8,190.8,353.8"/>
</svg>
