<svg width="40" height="40" viewBox="0 0 40 40" fill="none" xmlns="http://www.w3.org/2000/svg">
<path d="M22.6 11.03C24.38 12.82 28.24 15.69 29.81 9C29.81 9 33.01 9.44002 33.95 15.02C33.95 15.02 35.2399 18.03 34.1699 18.52C33.0999 19.02 24.4699 25.8801 18.4199 27.3101C12.3599 28.7301 2.89004 29.0201 7.02004 25.1001C11.02 21.3001 17.14 22.55 21.01 11.26C21.22 10.62 22.12 10.55 22.6 11.03Z" stroke="#0B2343" stroke-linecap="round" stroke-linejoin="round"/>
<path d="M6 26.78L6.07996 28.5901C6.10996 29.4001 6.66996 30.09 7.45996 30.29C9.91996 30.92 14.6399 30.53 18.4099 29.76C23.5699 28.71 31.22 23.2101 34 21.3301C34.58 20.9301 34.8999 20.25 34.8099 19.55L34.59 18.0901" stroke="#0B2343" stroke-linecap="round" stroke-linejoin="round"/>
<path d="M20.3099 19.8701L27.33 23.0901" stroke="#0B2343" stroke-linecap="round" stroke-linejoin="round"/>
<path d="M22.7 18.0801L29.9399 21.39" stroke="#0B2343" stroke-linecap="round" stroke-linejoin="round"/>
</svg>
