<svg width="40" height="40" viewBox="0 0 40 40" fill="none" xmlns="http://www.w3.org/2000/svg">
<path d="M12.3065 14.9329H23.4566" stroke="#0B2343" stroke-linecap="round" stroke-linejoin="round"/>
<path d="M16.8872 22.2711C16.058 23.9632 14.3183 25.1292 12.3063 25.1292C9.49056 25.1292 7.20801 22.8466 7.20801 20.0309C7.20801 17.2151 9.49056 14.9326 12.3063 14.9326" stroke="#0B2343" stroke-linecap="round" stroke-linejoin="round"/>
<path d="M23.4565 14.9326C26.2723 14.9326 28.5548 17.2151 28.5548 20.0309C28.5548 22.8466 26.2723 25.1292 23.4565 25.1292C21.4454 25.1292 19.7058 23.9641 18.8765 22.272" stroke="#0B2343" stroke-linecap="round" stroke-linejoin="round"/>
<path d="M16.8867 22.2712C16.8867 22.2712 17.8817 20.1993 18.8767 22.2712" stroke="#0B2343" stroke-linecap="round" stroke-linejoin="round"/>
<path d="M7.2532 20.7053H6.42126C6.18948 20.7053 6 20.5158 6 20.2841V17.8825C6 17.6508 6.18948 17.4613 6.42126 17.4613H7.90359" stroke="#0B2343" stroke-linecap="round" stroke-linejoin="round"/>
<path d="M27.8597 17.4613H29.3421C29.5739 17.4613 29.7633 17.6508 29.7633 17.8825V20.2841C29.7633 20.5158 29.5739 20.7053 29.3421 20.7053H28.5101" stroke="#0B2343" stroke-linecap="round" stroke-linejoin="round"/>
<path d="M34.4332 14.0062V25.4445C34.4332 25.5917 34.405 29.0922 31.9638 31.4355C29.7068 33.6017 27.0973 33.704 26.6275 33.704C26.5896 33.704 26.5659 33.704 26.5562 33.7031C26.513 33.7022 26.4698 33.6978 26.4266 33.6916C26.4266 33.6916 26.1499 33.6652 24.9839 33.6652C24.3274 33.6652 23.3906 33.674 22.0713 33.7022C18.049 33.7877 16.7994 30.9781 16.7042 29.4799C16.7024 29.4552 16.7015 29.4297 16.7015 29.405V28.247" stroke="#0B2343" stroke-linecap="round" stroke-linejoin="round"/>
<path d="M19.0612 28.2468V29.3529C19.1035 29.7371 19.4366 31.3966 22.0214 31.3428C25.2796 31.2732 26.3309 31.3173 26.6597 31.3455C26.8959 31.3437 28.7166 31.282 30.3294 29.7336C32.0338 28.097 32.0734 25.4655 32.0734 25.4399V14.006" stroke="#0B2343" stroke-linecap="round" stroke-linejoin="round"/>
<path d="M21.2219 26.9624H21.236C21.236 27.6718 20.6464 28.2473 19.9369 28.2473H15.8266C15.1163 28.2473 14.5408 27.6718 14.5408 26.9624H21.2219Z" stroke="#0B2343" stroke-linecap="round" stroke-linejoin="round"/>
<path d="M19.4066 25.3591H16.3767" stroke="#0B2343" stroke-linecap="round" stroke-linejoin="round"/>
<path d="M16.377 25.3591H16.3702" stroke="#0B2343" stroke-linecap="round" stroke-linejoin="round"/>
<path d="M18.6658 26.9617H17.1279V25.3586H18.6658V26.9617Z" stroke="#0B2343" stroke-linecap="round" stroke-linejoin="round"/>
<path d="M34.8522 14.0061H31.6646V7.56738C31.6646 6.70195 32.3652 6.00044 33.2306 6.00044H33.3461C34.178 6.00044 34.8522 6.67463 34.8522 7.50657V14.0061Z" stroke="#0B2343" stroke-linecap="round" stroke-linejoin="round"/>
</svg>
