<svg width="40" height="40" viewBox="0 0 40 40" fill="none" xmlns="http://www.w3.org/2000/svg">
<path d="M25.0699 30.8398H23.77C23.32 30.8398 22.95 30.4299 22.95 29.9199V28.03C22.95 27.52 23.32 27.1099 23.77 27.1099H28.0599C28.5099 27.1099 28.88 27.52 28.88 28.03V29.9199C28.88 30.2999 28.68 30.62 28.39 30.76" stroke="#0B2343" stroke-miterlimit="10" stroke-linecap="round" stroke-linejoin="round"/>
<path d="M30.5499 33.3198H28.87C26.87 33.3198 25.2 31.88 24.75 29.95C24.63 29.43 25.0199 28.9299 25.5399 28.9299H26.3199C26.6599 28.9299 26.9799 29.15 27.0799 29.49C27.3099 30.29 28.03 30.8799 28.88 30.8799H30.0299C31.0699 30.8799 31.9099 30.0099 31.9099 28.9299V6H34.9099V28.9199C34.8999 31.3499 32.8999 33.3198 30.5499 33.3198Z" stroke="#0B2343" stroke-miterlimit="10" stroke-linecap="round" stroke-linejoin="round"/>
<path d="M24.1799 12.7802C21.5299 13.1102 13.27 13.1102 10.62 12.7802C7.97001 12.4502 8.06003 17.5701 8.27003 18.7301C8.47003 19.8501 9.32996 20.5502 11.32 21.0402C13.37 21.5502 14.38 19.92 15.07 18.63C15.76 17.34 15.62 15.6201 17.4 15.7101C19.18 15.6201 19.03 17.34 19.73 18.63C20.42 19.92 21.43 21.5502 23.48 21.0402C25.47 20.5502 26.3299 19.8401 26.5299 18.7301C26.7399 17.5701 26.8299 12.4502 24.1799 12.7802Z" stroke="#0B2343" stroke-miterlimit="10" stroke-linecap="round" stroke-linejoin="round"/>
<path d="M28.3 13.6499C27.81 9.65994 17.4001 9.94999 17.4001 9.94999C17.4001 9.94999 6.99005 9.65994 6.50005 13.6499C6.01005 17.6399 5.47995 20.4 7.02995 21.19C8.57995 21.98 14.5301 24.8399 17.4001 24.8399C20.2701 24.8399 26.2201 21.98 27.7701 21.19C29.3201 20.4 28.79 17.6399 28.3 13.6499Z" stroke="#0B2343" stroke-miterlimit="10" stroke-linecap="round" stroke-linejoin="round"/>
<path d="M31.9 11.9199H34.9" stroke="#0B2343" stroke-linecap="round" stroke-linejoin="round"/>
<path d="M10.2 16.95L12.38 14.7998" stroke="#0B2343" stroke-miterlimit="10" stroke-linecap="round" stroke-linejoin="round"/>
<path d="M12.11 17.8098L13.22 16.71" stroke="#0B2343" stroke-miterlimit="10" stroke-linecap="round" stroke-linejoin="round"/>
</svg>
