<svg width="40" height="40" viewBox="0 0 40 40" fill="none" xmlns="http://www.w3.org/2000/svg">
<path d="M10.0101 17.96V14.3301C9.82007 13.0401 11.0701 12 12.3701 12H28.66C29.96 12 31.02 13.0301 31.02 14.3301V17.96" stroke="#0B2343" stroke-miterlimit="10" stroke-linecap="round" stroke-linejoin="round"/>
<path d="M34.97 17.96V23.0701C34.97 24.1501 34.05 25.04 32.95 25.04H8.0199C6.9299 25.04 6 24.1601 6 23.0701V17.96C6 16.93 6.85989 16.1001 7.88989 16.1001H7.8999C8.9299 16.1001 10 16.93 10 17.96V21.01H31V17.96C31 16.93 32.0199 16.1001 33.0599 16.1001H33.08C34.12 16.1101 34.97 16.94 34.97 17.96Z" stroke="#0B2343" stroke-miterlimit="10" stroke-linecap="round" stroke-linejoin="round"/>
<path d="M31.01 25.05V27.05" stroke="#0B2343" stroke-linecap="round" stroke-linejoin="round"/>
<path d="M9.98999 25.05V27.05" stroke="#0B2343" stroke-linecap="round" stroke-linejoin="round"/>
<path d="M20.08 12.01V21.02" stroke="#0B2343" stroke-miterlimit="10" stroke-linecap="round" stroke-linejoin="round"/>
</svg>
