<svg width="40" height="40" viewBox="0 0 40 40" fill="none" xmlns="http://www.w3.org/2000/svg">
<path d="M8.79993 13.3982C8.79993 13.3982 12.3099 7.17834 19.9199 11.5683V22.9883" stroke="#0B2343" stroke-linecap="round" stroke-linejoin="round"/>
<path d="M31.5699 13.3881C31.5699 13.3881 25.2299 13.0282 27.1599 22.9982H12.6699C14.5999 13.0282 8.26001 13.3881 8.26001 13.3881C7.01001 13.3881 6 14.4182 6 15.6982C6 16.9782 7.01001 18.0082 8.26001 18.0082C12.49 18.9482 9.88 27.0483 9.88 27.0483H29.96C29.96 27.0483 27.35 18.9482 31.58 18.0082C32.83 18.0082 33.84 16.9782 33.84 15.6982C33.84 14.4182 32.8199 13.3881 31.5699 13.3881Z" stroke="#0B2343" stroke-linecap="round" stroke-linejoin="round"/>
<path d="M31.0299 13.3982C31.0299 13.3982 27.5199 7.17834 19.9099 11.5683V22.9883" stroke="#0B2343" stroke-linecap="round" stroke-linejoin="round"/>
<path d="M27.88 29.0383V30.0383H25.85V29.0383" stroke="#0B2343" stroke-linecap="round" stroke-linejoin="round"/>
<path d="M13.88 29.0383V30.0383H11.85V29.0383" stroke="#0B2343" stroke-linecap="round" stroke-linejoin="round"/>
</svg>
