<svg width="40" height="40" viewBox="0 0 40 40" fill="none" xmlns="http://www.w3.org/2000/svg">
<path d="M30.1142 30.7923H9.01617C8.29213 30.7923 7.79731 30.1508 8.08143 29.5917L12.3247 21.1415C12.4806 20.8299 12.8472 20.6375 13.2596 20.6375H25.8616C26.2648 20.6375 26.6314 20.8116 26.7964 21.1324L31.0398 29.6101C31.3331 30.1691 30.8382 30.7923 30.1142 30.7923Z" stroke="#0B2343" stroke-linecap="round" stroke-linejoin="round"/>
<path d="M9.32788 27.1262H29.8026" stroke="#0B2343" stroke-linecap="round" stroke-linejoin="round"/>
<path d="M11.17 23.4512H27.9696" stroke="#0B2343" stroke-linecap="round" stroke-linejoin="round"/>
<path d="M19.5378 20.6741V30.7556" stroke="#0B2343" stroke-linecap="round" stroke-linejoin="round"/>
<path d="M16.0458 20.7109L14.0112 30.7559" stroke="#0B2343" stroke-linecap="round" stroke-linejoin="round"/>
<path d="M23.0204 20.7109L25.0551 30.7559" stroke="#0B2343" stroke-linecap="round" stroke-linejoin="round"/>
<path d="M21.3249 12.5173C21.3249 13.4888 20.5367 14.2769 19.556 14.2769C18.5754 14.2769 17.7872 13.4888 17.7872 12.5173C17.7872 11.5458 18.5754 10.7576 19.556 10.7576C20.5367 10.7576 21.3249 11.5366 21.3249 12.5173Z" stroke="#0B2343" stroke-miterlimit="10" stroke-linecap="round" stroke-linejoin="round"/>
<path d="M22.9288 12.5264H25.1101" stroke="#0B2343" stroke-miterlimit="10" stroke-linecap="round" stroke-linejoin="round"/>
<path d="M14.0112 12.5264H16.1925" stroke="#0B2343" stroke-miterlimit="10" stroke-linecap="round" stroke-linejoin="round"/>
<path d="M19.5652 9.17211V7" stroke="#0B2343" stroke-miterlimit="10" stroke-linecap="round" stroke-linejoin="round"/>
<path d="M19.5652 18.0437V15.8716" stroke="#0B2343" stroke-miterlimit="10" stroke-linecap="round" stroke-linejoin="round"/>
<path d="M22.0123 10.0794L23.5611 8.54883" stroke="#0B2343" stroke-miterlimit="10" stroke-linecap="round" stroke-linejoin="round"/>
<path d="M15.5692 16.5043L17.109 14.9646" stroke="#0B2343" stroke-miterlimit="10" stroke-linecap="round" stroke-linejoin="round"/>
<path d="M22.0123 14.9646L23.5611 16.5043" stroke="#0B2343" stroke-miterlimit="10" stroke-linecap="round" stroke-linejoin="round"/>
<path d="M15.5692 8.54883L17.109 10.0794" stroke="#0B2343" stroke-miterlimit="10" stroke-linecap="round" stroke-linejoin="round"/>
<path d="M15.5967 33.4504H23.5337" stroke="#0B2343" stroke-linecap="round" stroke-linejoin="round"/>
</svg>
