<svg width="40" height="40" viewBox="0 0 40 40" fill="none" xmlns="http://www.w3.org/2000/svg">
<path d="M16.02 28.1499C12.76 28.1499 10.01 24.2399 10.01 20.7999V13.62C10.01 12.76 10.84 12.0499 11.66 12.0499H20.51C21.32 12.0499 22.03 12.76 22.03 13.62V20.7999C22.02 24.2399 19.28 28.1499 16.02 28.1499Z" stroke="#0B2343" stroke-miterlimit="10" stroke-linecap="round" stroke-linejoin="round"/>
<path d="M14.1001 10.1699C14.1001 9.21992 14.95 8.45996 16 8.45996C17.05 8.45996 17.9 9.22992 17.9 10.1699" stroke="#0B2343" stroke-miterlimit="10" stroke-linecap="round" stroke-linejoin="round"/>
<path d="M16.03 8.45996V7.82996C16.03 6.95996 16.8501 6 17.7201 6H26.8501C28.5901 6 30.02 7.65989 30.02 9.38989V34.6299" stroke="#0B2343" stroke-miterlimit="10" stroke-linecap="round" stroke-linejoin="round"/>
<path d="M22.02 16.5699C20.34 17.3899 17.65 17.4 16.01 16.61C14.37 15.81 11.68 15.8299 10 16.6499" stroke="#0B2343" stroke-miterlimit="10" stroke-linecap="round" stroke-linejoin="round"/>
<path d="M12.17 18.95H13.77" stroke="#0B2343" stroke-miterlimit="10" stroke-linecap="round" stroke-linejoin="round"/>
<path d="M12.17 20.96H13.77" stroke="#0B2343" stroke-miterlimit="10" stroke-linecap="round" stroke-linejoin="round"/>
<path d="M12.17 22.98H13.77" stroke="#0B2343" stroke-miterlimit="10" stroke-linecap="round" stroke-linejoin="round"/>
<path d="M15.9901 28.1499V34.48" stroke="#0B2343" stroke-miterlimit="10" stroke-linecap="round" stroke-linejoin="round"/>
</svg>
