<svg id="Layer_1" data-name="Layer 1" xmlns="http://www.w3.org/2000/svg" viewBox="0 0 52.88 50"><defs><style>.cls-1{fill:#231f20;}</style></defs><title>icons-ui_01</title><path class="cls-1" d="M52.47,10L42.88,0.41a1.41,1.41,0,0,0-2,0L31.31,10a1.4,1.4,0,1,0,2,2l7.2-7.2V48.35a1.4,1.4,0,0,0,2.8,0V4.78l7.2,7.2A1.4,1.4,0,1,0,52.47,10Z"/><path class="cls-1" d="M19.65,37.77L12.45,45V1.4a1.4,1.4,0,1,0-2.8,0V45l-7.2-7.2a1.4,1.4,0,0,0-2,2l9.59,9.59a1.41,1.41,0,0,0,2,0l9.59-9.59A1.4,1.4,0,0,0,19.65,37.77Z"/></svg>