<svg width="40" height="40" viewBox="0 0 40 40" fill="none" xmlns="http://www.w3.org/2000/svg">
<path d="M8 19.62C8.46874 26.3201 13.5951 32.6873 19.8556 32.6873C26.1153 32.6873 31.2417 26.3201 31.7105 19.62H8Z" stroke="#0B2343" stroke-width="1.09212" stroke-miterlimit="10" stroke-linecap="round" stroke-linejoin="round"/>
<path d="M10.9987 22.0598C11.5066 24.0928 12.5549 25.9914 13.9638 27.4564" stroke="#0B2343" stroke-width="1.09212" stroke-miterlimit="10" stroke-linecap="round" stroke-linejoin="round"/>
<path d="M20.8523 7.00005C20.8523 7.00005 23.2575 7.71262 20.1755 12.4176C17.0943 17.1218 20.1755 17.4069 20.1755 17.4069" stroke="#0B2343" stroke-width="1.09212" stroke-miterlimit="10" stroke-linecap="round" stroke-linejoin="round"/>
<path d="M24.8285 12.1945C24.8285 12.1945 26.1989 12.6004 24.4435 15.2811C22.6867 17.9619 24.4435 18.1246 24.4435 18.1246" stroke="#0B2343" stroke-width="1.09212" stroke-miterlimit="10" stroke-linecap="round" stroke-linejoin="round"/>
<path d="M15.5384 12.1945C15.5384 12.1945 16.9088 12.6004 15.1534 15.2811C13.3966 17.9619 15.1534 18.1246 15.1534 18.1246" stroke="#0B2343" stroke-width="1.09212" stroke-miterlimit="10" stroke-linecap="round" stroke-linejoin="round"/>
</svg>
