<svg width="42" height="42" viewBox="0 0 42 42" fill="none" xmlns="http://www.w3.org/2000/svg">
<path fill-rule="evenodd" clip-rule="evenodd" d="M0.5 21C0.5 9.6961 9.69611 0.5 21 0.5C32.3039 0.5 41.4999 9.6961 41.4999 21C41.4999 32.3039 32.3039 41.5 21 41.5C9.69611 41.5 0.5 32.3039 0.5 21ZM21 1.5C10.2484 1.5 1.5 10.2484 1.5 21C1.5 31.7516 10.2484 40.5 21 40.5C31.7516 40.5 40.4999 31.7516 40.4999 21C40.4999 10.2484 31.7516 1.5 21 1.5Z" fill="#666666"/>
<path fill-rule="evenodd" clip-rule="evenodd" d="M24.6157 25.2245C23.7624 25.9565 22.7021 26.4104 21.5866 26.5287V25.5047H20.5834V27.0471C20.4426 29.9076 18.0897 32.1469 15.2217 32.1469H9.8531V26.7783C9.8531 24.085 11.828 21.8461 14.4375 21.4667V22.4712H15.4406V20.92C15.4811 18.0854 17.6378 15.7614 20.4133 15.471V16.4953H21.4165V14.9528C21.5573 12.0923 23.9103 9.8531 26.7782 9.8531H32.1469V15.2217C32.1469 17.9149 30.1719 20.1538 27.5625 20.5332V19.5288H26.5593V21.08C26.5408 22.3784 26.0667 23.6341 25.2246 24.6157L25.1269 24.7296L25.8883 25.3827L25.9859 25.2689C26.8822 24.2241 27.4252 22.9174 27.5401 21.5483C30.7206 21.1712 33.15 18.4752 33.15 15.2217V8.84998H26.7782C23.5248 8.84998 20.8288 11.2791 20.4517 14.4595C17.2631 14.723 14.7233 17.2605 14.4595 20.4517C11.279 20.8289 8.84998 23.5248 8.84998 26.7783V33.15H15.2217C18.4752 33.15 21.1712 30.7207 21.5483 27.5401C22.9174 27.4252 24.2241 26.8822 25.2689 25.9859L25.3827 25.8883L24.7295 25.1269L24.6157 25.2245Z" fill="#666666"/>
<path fill-rule="evenodd" clip-rule="evenodd" d="M28.5749 17.3817L29.2843 18.091L29.3903 17.9849C30.8756 16.4995 30.8759 14.0952 29.3903 12.6096C27.905 11.1242 25.5005 11.124 24.015 12.6096C22.5296 14.0949 22.5294 16.4993 24.015 17.9849C25.2968 19.2667 27.3144 19.4612 28.8126 18.4596L28.9373 18.3762L28.3798 17.5422L28.2551 17.6256C27.1508 18.3639 25.6656 18.2169 24.7243 17.2756C23.6308 16.1821 23.6307 14.4124 24.7243 13.3189C25.8176 12.2255 27.5874 12.2252 28.681 13.3189C29.7744 14.4122 29.7746 16.182 28.681 17.2756L28.5749 17.3817Z" fill="#666666"/>
<path fill-rule="evenodd" clip-rule="evenodd" d="M23.6877 23.6876C25.1698 22.2055 25.1698 19.7943 23.6877 18.3122C22.2056 16.8302 19.7944 16.8302 18.3124 18.3122C16.8303 19.7943 16.8303 22.2055 18.3124 23.6876C19.7944 25.1696 22.2056 25.1697 23.6877 23.6876ZM22.9784 19.0215C24.0692 20.1123 24.0692 21.8875 22.9784 22.9783C21.8876 24.0691 20.1125 24.0691 19.0217 22.9783C17.9309 21.8875 17.9309 20.1123 19.0217 19.0215C20.1122 17.931 21.8875 17.9306 22.9784 19.0215Z" fill="#666666"/>
<path fill-rule="evenodd" clip-rule="evenodd" d="M15.0239 23.1752C12.9232 23.1752 11.2229 24.8752 11.2229 26.9761C11.2229 29.0861 12.9315 30.7754 15.0239 30.7754C17.1164 30.7754 18.8248 29.0859 18.8248 26.9761C18.8248 24.8755 17.1247 23.1752 15.0239 23.1752ZM17.0022 28.9545C15.9114 30.0453 14.1362 30.0453 13.0455 28.9545C12.5169 28.4258 12.226 27.7237 12.226 26.9761C12.226 25.4298 13.4773 24.1783 15.0239 24.1783C16.5702 24.1783 17.8217 25.4296 17.8217 26.9761C17.8217 27.7237 17.5308 28.4258 17.0022 28.9545Z" fill="#666666"/>
<path fill-rule="evenodd" clip-rule="evenodd" d="M22.3314 21.4311L23.3138 21.6339L23.3441 21.487C23.4054 21.1902 23.4087 20.8904 23.361 20.6042L23.3364 20.4562L22.3469 20.6211L22.3716 20.769C22.401 20.9455 22.3955 21.1205 22.3617 21.2842L22.3314 21.4311Z" fill="#666666"/>
<path fill-rule="evenodd" clip-rule="evenodd" d="M22.2738 20.4396L22.334 20.5771L23.2528 20.1746L23.1926 20.0372C23.0731 19.7643 22.905 19.5184 22.6932 19.3067L22.5871 19.2007L21.8779 19.91L21.984 20.0161C22.1073 20.1394 22.2047 20.2818 22.2738 20.4396Z" fill="#666666"/>
</svg>
