<svg width="40" height="40" viewBox="0 0 40 40" fill="none" xmlns="http://www.w3.org/2000/svg">
<path d="M7.8055 14.159L6.79576 14.4752C6.53466 14.5569 6.25376 14.4102 6.17209 14.1491L4.24294 7.98795C4.16065 7.72686 4.3079 7.44658 4.56838 7.36491L5.57875 7.04874C5.83984 6.96645 6.12012 7.11371 6.20179 7.37481L8.13157 13.5354C8.21324 13.7965 8.0666 14.0774 7.8055 14.159Z" stroke="#0B2343" stroke-width="0.926784" stroke-miterlimit="10" stroke-linecap="round" stroke-linejoin="round"/>
<path d="M6.34387 22.394C6.52021 23.3766 6.74109 24.5781 6.79616 24.7427C6.89082 25.0267 7.64875 27.5059 9.22771 28.3585C10.8067 29.211 11.7347 29.2067 13.112 29.2661H17.4214C17.9856 29.2661 18.4478 28.8046 18.4478 28.2397C18.4478 27.6748 17.9856 27.2132 17.4214 27.2132H12.3584C12.0144 27.2027 11.3258 27.1365 10.7912 26.7956C10.0487 26.3216 9.44859 25.5637 9.0223 24.6165C8.596 23.6686 8.21302 21.4115 8.16228 20.9487L7.65988 16.4042C7.59801 15.8431 7.08819 15.4347 6.52701 15.4966C5.96584 15.5585 5.55749 16.0683 5.61936 16.6301L6.34387 22.394Z" stroke="#0B2343" stroke-width="0.926784" stroke-miterlimit="10" stroke-linecap="round" stroke-linejoin="round"/>
<path d="M13.661 11.031C13.7903 12.2208 12.9303 13.2906 11.7405 13.4199C10.5501 13.5498 9.48031 12.6892 9.351 11.4994C9.22169 10.309 10.0817 9.23984 11.2721 9.10991C12.4619 8.9806 13.5317 9.84061 13.661 11.031Z" stroke="#0B2343" stroke-width="0.926784" stroke-miterlimit="10" stroke-linecap="round" stroke-linejoin="round"/>
<path d="M20.8048 33L19.6788 26.7219C19.6367 26.5493 19.5365 26.1081 19.302 25.8439C19.1028 25.6193 18.8144 25.4442 18.695 25.4022C17.3017 24.9165 13.0845 25.4405 12.7504 25.409C12.6978 25.404 12.3198 25.4331 12.0302 25.3428C11.7407 25.2518 11.5909 25.1151 11.4418 24.9821C10.9011 24.5001 10.5144 23.2558 10.4432 22.548C10.3281 21.3991 9.89936 17.9621 9.89936 17.9621C9.77252 16.7952 10.2594 15.809 11.4183 15.6209C12.6539 15.421 13.5405 16.2922 13.6735 17.521L14.0912 20.2786L17.04 22.1688" stroke="#0B2343" stroke-width="0.926784" stroke-miterlimit="10" stroke-linecap="round" stroke-linejoin="round"/>
<path d="M23.9597 14.317C23.4208 14.4859 22.8416 14.1827 22.6733 13.6438L21.0597 8.49302C20.8914 7.95411 21.194 7.37561 21.7329 7.2067C22.2718 7.0378 22.8509 7.34035 23.0192 7.87925L24.6328 13.0307C24.8011 13.5696 24.4986 14.1481 23.9597 14.317Z" stroke="#0B2343" stroke-width="0.926784" stroke-miterlimit="10" stroke-linecap="round" stroke-linejoin="round"/>
<path d="M23.0029 22.394C23.1793 23.3766 23.4001 24.5781 23.4552 24.7427C23.5499 25.0267 24.3078 27.5059 25.8868 28.3585C27.4657 29.211 28.3938 29.2067 29.7711 29.2661H34.0804C34.6447 29.2661 35.1069 28.8046 35.1069 28.2397C35.1069 27.6748 34.6447 27.2132 34.0804 27.2132H29.0175C28.6735 27.2027 27.9848 27.1365 27.4503 26.7956C26.7078 26.3216 26.1076 25.5637 25.6814 24.6165C25.2551 23.6686 24.8727 21.4115 24.8213 20.9487L24.3189 16.4042C24.2571 15.8431 23.7472 15.4347 23.1861 15.4966C22.6249 15.5585 22.2165 16.0683 22.2784 16.6301L23.0029 22.394Z" stroke="#0B2343" stroke-width="0.926784" stroke-miterlimit="10" stroke-linecap="round" stroke-linejoin="round"/>
</svg>
