<svg width="40" height="40" viewBox="0 0 40 40" fill="none" xmlns="http://www.w3.org/2000/svg">
<path d="M14.15 26.8347L20.6 31.3848C20.89 31.6048 20.84 32.0146 20.6 32.2546L19.87 32.9846C19.63 33.2246 19.32 33.1646 19 32.9846L12.49 28.5046" stroke="#0B2343" stroke-miterlimit="10" stroke-linecap="round" stroke-linejoin="round"/>
<path d="M11.24 23.9346V23.9246L9.53003 25.6548L7 27.3547L10.72 31.0747L12.48 28.4946L14.15 26.8347L29.34 18.9048L19.17 8.73462L11.24 23.9346Z" stroke="#0B2343" stroke-miterlimit="10" stroke-linecap="round" stroke-linejoin="round"/>
<path d="M32.29 14.6348C32.45 9.78483 28.5 5.84471 23.66 6.00471" stroke="#0B2343" stroke-miterlimit="10" stroke-linecap="round" stroke-linejoin="round"/>
<path d="M24.61 9.81481C26.82 9.66481 28.63 11.4847 28.49 13.6947" stroke="#0B2343" stroke-miterlimit="10" stroke-linecap="round" stroke-linejoin="round"/>
<path d="M11.24 23.9346L14.15 26.8347" stroke="#0B2343" stroke-miterlimit="10" stroke-linecap="round" stroke-linejoin="round"/>
<path d="M9.53003 25.6548L12.48 28.4946" stroke="#0B2343" stroke-miterlimit="10" stroke-linecap="round" stroke-linejoin="round"/>
</svg>
