<?xml version="1.0" encoding="utf-8"?>
<!-- Generator: Adobe Illustrator 23.0.0, SVG Export Plug-In . SVG Version: 6.00 Build 0)  -->
<svg version="1.1" id="Layer_1" xmlns="http://www.w3.org/2000/svg" xmlns:xlink="http://www.w3.org/1999/xlink" x="0px" y="0px"
	 viewBox="0 0 38.32 51.46" enable-background="new 0 0 38.32 51.46" xml:space="preserve">
<g>
	<path d="M15.35,11.45c0.09,0,0.17,0.01,0.26,0.01c1.42,0,2.76-0.52,3.82-1.49c1.12-1.02,1.77-2.42,1.84-3.93v0
		c0.14-3.12-2.29-5.77-5.41-5.91c-3.12-0.15-5.77,2.29-5.91,5.41C9.87,7.05,10.4,8.5,11.42,9.62
		C12.44,10.73,13.83,11.39,15.35,11.45z M15.59,2.43c0.05,0,0.1,0,0.15,0c1.85,0.08,3.29,1.66,3.21,3.51
		c-0.04,0.9-0.43,1.73-1.09,2.33c-0.66,0.61-1.52,0.92-2.42,0.88c-0.9-0.04-1.73-0.43-2.33-1.09c-0.61-0.66-0.92-1.52-0.88-2.42
		C12.31,3.84,13.81,2.43,15.59,2.43z"/>
	<path d="M16,13.84c-3.02,0.13-5.5,2.71-5.64,5.88c0,0.05,0,0.1,0,0.15l0.37,4.44c0.05,0.63,0.62,1.1,1.24,1.05
		c0.63-0.05,1.1-0.61,1.05-1.24l-0.36-4.37c0.12-1.96,1.62-3.54,3.44-3.62c2.39-0.11,3.54,1.97,3.77,3.97l0.55,3.98
		c0.05,0.34,0.24,0.64,0.53,0.82l5.95,3.72c0.19,0.12,0.4,0.18,0.61,0.18c0.38,0,0.76-0.19,0.98-0.54c0.34-0.54,0.17-1.25-0.36-1.58
		l-5.49-3.44l-0.47-3.42C21.71,16.1,19.22,13.69,16,13.84z"/>
	<path d="M35.82,33.47c-0.1-0.55-0.58-0.95-1.13-0.95h-3.38c-0.63,0-1.15,0.52-1.15,1.15s0.52,1.15,1.15,1.15h2.42l2.31,12.89
		c0.1,0.56,0.58,0.95,1.13,0.95c0.07,0,0.14-0.01,0.2-0.02c0.62-0.11,1.04-0.71,0.93-1.33L35.82,33.47z"/>
	<path d="M17.65,38.54c-0.02-0.07-0.06-0.14-0.1-0.2s-0.09-0.12-0.14-0.18c-0.44-0.42-1.2-0.42-1.63,0
		c-0.06,0.06-0.1,0.12-0.14,0.18c-0.05,0.06-0.08,0.13-0.11,0.2c-0.03,0.07-0.05,0.14-0.07,0.21c-0.01,0.08-0.02,0.15-0.02,0.23
		c0,0.3,0.12,0.6,0.34,0.81c0.05,0.05,0.11,0.1,0.17,0.14c0.07,0.05,0.13,0.08,0.2,0.11c0.07,0.03,0.14,0.05,0.22,0.07
		c0.07,0.01,0.15,0.02,0.22,0.02c0.3,0,0.6-0.12,0.82-0.34c0.21-0.21,0.33-0.51,0.33-0.81c0-0.08,0-0.15-0.02-0.23
		C17.71,38.68,17.68,38.61,17.65,38.54z"/>
	<path d="M20.31,27.07c-3.18-0.99-6.56-0.69-9.51,0.86c-0.66,0.35-1.28,0.75-1.86,1.2l-2.62-6.51c-0.18-0.44-0.6-0.72-1.07-0.72
		H1.15C0.51,21.89,0,22.41,0,23.04s0.51,1.15,1.15,1.15h3.33l2.67,6.63c-1.1,1.28-1.95,2.77-2.47,4.43
		c-2.05,6.57,1.62,13.58,8.19,15.63c1.23,0.38,2.49,0.57,3.74,0.57c1.99,0,3.96-0.48,5.77-1.43c2.95-1.55,5.13-4.15,6.12-7.33
		c1-3.18,0.69-6.56-0.86-9.51C26.1,30.24,23.49,28.06,20.31,27.07z M26.3,42.02c-0.81,2.59-2.58,4.72-4.99,5.98
		c-2.41,1.26-5.17,1.51-7.76,0.7c-2.6-0.81-4.72-2.58-5.98-4.99c-1.26-2.41-1.51-5.16-0.7-7.76c0.48-1.54,1.31-2.92,2.41-4.04
		c0.01-0.01,0.02-0.02,0.03-0.04c0.74-0.75,1.59-1.4,2.55-1.9c1.48-0.77,3.09-1.17,4.71-1.17c1.02,0,2.05,0.16,3.05,0.47
		c2.6,0.81,4.72,2.58,5.98,4.99C26.87,36.67,27.11,39.42,26.3,42.02z"/>
</g>
</svg>
