<svg width="40" height="40" viewBox="0 0 40 40" fill="none" xmlns="http://www.w3.org/2000/svg">
<path d="M6 22.6393C6 14.2493 12.95 7.49922 21.33 8.02922C28.37 8.46922 34.1499 14.1993 34.7599 21.3293C35.0499 24.6693 34.22 27.7993 32.63 30.3893C32.01 31.3993 30.89 31.9892 29.72 31.9892H11.11C9.92999 31.9892 8.81994 31.3893 8.18994 30.3793C6.79994 28.1493 6 25.4893 6 22.6393Z" stroke="#0B2343" stroke-linecap="round" stroke-linejoin="round"/>
<path d="M30.6 23.1093H31.71" stroke="#0B2343" stroke-linecap="round" stroke-linejoin="round"/>
<path d="M27.85 15.5493L28.6799 14.6993" stroke="#0B2343" stroke-linecap="round" stroke-linejoin="round"/>
<path d="M20.4299 12.1793V11.0892" stroke="#0B2343" stroke-linecap="round" stroke-linejoin="round"/>
<path d="M12.7799 15.5493L11.96 14.7092" stroke="#0B2343" stroke-linecap="round" stroke-linejoin="round"/>
<path d="M10.2899 23.1093H9.12" stroke="#0B2343" stroke-linecap="round" stroke-linejoin="round"/>
<path d="M21.8999 27.5793C21.0899 28.4093 19.7599 28.4093 18.9499 27.5793C18.1399 26.7493 18.1399 25.4093 18.9499 24.5793C19.7599 23.7493 21.0899 23.7493 21.8999 24.5793C22.7199 25.4093 22.7199 26.7493 21.8999 27.5793Z" stroke="#0B2343" stroke-miterlimit="10" stroke-linecap="round" stroke-linejoin="round"/>
<path d="M21.8999 24.5793L27.75 18.6393" stroke="#0B2343" stroke-miterlimit="10" stroke-linecap="round" stroke-linejoin="round"/>
</svg>
