<svg width="40" height="40" viewBox="0 0 40 40" fill="none" xmlns="http://www.w3.org/2000/svg">
<path d="M13.8299 34.66C11.5099 34.64 9.62993 32.3 9.93993 30.32C10.2799 28.19 11.81 24.18 15.47 24.56C17.97 24.82 22.4399 25.62 27.2899 28.1C30.8599 29.93 28.76 34.68 25.71 34.66" stroke="#0B2343" stroke-miterlimit="10" stroke-linecap="round" stroke-linejoin="round"/>
<path d="M8 34.6599H31.01" stroke="#0B2343" stroke-miterlimit="10" stroke-linecap="round" stroke-linejoin="round"/>
<path d="M16.5499 24.6899L15.38 18" stroke="#0B2343" stroke-miterlimit="10" stroke-linecap="round" stroke-linejoin="round"/>
<path d="M13.7099 14.1499C16.9699 14.8399 18.1399 13.7999 18.6899 15.5099C18.6899 15.5099 16.9399 15.45 16.0399 15.87C14.2399 16.71 13.1999 15.57 11.9299 15.45C11.9299 15.45 11.6499 14.0599 13.7099 14.1499Z" stroke="#0B2343" stroke-miterlimit="10" stroke-linecap="round" stroke-linejoin="round"/>
<path d="M26.7899 27.85C29.0999 21.48 28.0299 18.42 27.1399 11.71" stroke="#0B2343" stroke-miterlimit="10" stroke-linecap="round" stroke-linejoin="round"/>
<path d="M27.13 11.71C28.02 12.24 29.2 11.97 29.75 11.11L32.4199 6.95996C32.6299 6.62996 32.5199 6.2 32.1799 6" stroke="#0B2343" stroke-miterlimit="10" stroke-linecap="round" stroke-linejoin="round"/>
<path d="M29.1 8.32996L25.1699 12.8199" stroke="#0B2343" stroke-miterlimit="10" stroke-linecap="round" stroke-linejoin="round"/>
<path d="M21.61 29.8599C21.61 31.1899 20.53 32.2598 19.21 32.2598C17.88 32.2598 16.8099 31.1799 16.8099 29.8599C16.8099 28.5299 17.89 27.4599 19.21 27.4599C20.54 27.4499 21.61 28.5299 21.61 29.8599Z" stroke="#0B2343" stroke-miterlimit="10" stroke-linecap="round" stroke-linejoin="round"/>
<path d="M19.21 29.86L22.1599 23.12" stroke="#0B2343" stroke-miterlimit="10" stroke-linecap="round" stroke-linejoin="round"/>
<path d="M21 23.12H23.33" stroke="#0B2343" stroke-miterlimit="10" stroke-linecap="round" stroke-linejoin="round"/>
</svg>
