<svg width="40" height="40" viewBox="0 0 40 40" fill="none" xmlns="http://www.w3.org/2000/svg">
<path d="M11.4345 11.7449L20.4966 20.7325L25.9959 17.5918" stroke="#0B2343" stroke-miterlimit="10" stroke-linecap="round" stroke-linejoin="round"/>
<path d="M34.251 19.8759C34.251 20.5835 33.68 21.1546 32.9724 21.1546C32.2648 21.1546 31.6938 20.5835 31.6938 19.8759C31.6938 19.1684 32.2648 18.5849 32.9724 18.5849C33.68 18.5849 34.251 19.1559 34.251 19.8759Z" stroke="#0B2343"/>
<path d="M8.26894 19.8759C8.26894 20.5835 7.69791 21.1546 6.99032 21.1546C6.28273 21.1546 5.7117 20.5835 5.7117 19.8759C5.7117 19.1684 6.28273 18.5849 6.99032 18.5849C7.69791 18.5849 8.26894 19.1559 8.26894 19.8759Z" stroke="#0B2343"/>
<path d="M21.2414 6.9407C21.2414 7.64829 20.6703 8.21932 19.9628 8.21932C19.2552 8.21932 18.6841 7.64829 18.6841 6.9407C18.6841 6.23312 19.2552 5.64966 19.9628 5.64966C20.6703 5.64966 21.2414 6.23312 21.2414 6.9407Z" stroke="#0B2343"/>
<path d="M21.2414 32.898C21.2414 33.6055 20.6703 34.1766 19.9628 34.1766C19.2552 34.1766 18.6841 33.6055 18.6841 32.898C18.6841 32.1904 19.2552 31.6193 19.9628 31.6193C20.6703 31.6069 21.2414 32.1904 21.2414 32.898Z" stroke="#0B2343"/>
<path d="M38 2H2V38H38V2Z" stroke="#0B2343" stroke-miterlimit="10" stroke-linecap="round" stroke-linejoin="round"/>
</svg>
