<svg width="40" height="40" viewBox="0 0 40 40" fill="none" xmlns="http://www.w3.org/2000/svg">
<path d="M13.34 30.2501C13.34 32.2801 11.7 33.92 9.66998 33.92C7.63998 33.92 6 32.2801 6 30.2501C6 28.2201 7.63998 26.5801 9.66998 26.5801C11.7 26.5801 13.34 28.2201 13.34 30.2501Z" stroke="#0B2343" stroke-miterlimit="10" stroke-linecap="round" stroke-linejoin="round"/>
<path d="M26.28 7.10986H30.74V11.5798" stroke="#0B2343" stroke-miterlimit="10" stroke-linecap="round" stroke-linejoin="round"/>
<path d="M10.74 17L15.93 22.2" stroke="#0B2343" stroke-miterlimit="10" stroke-linecap="round" stroke-linejoin="round"/>
<path d="M10.74 22.2L15.93 17" stroke="#0B2343" stroke-miterlimit="10" stroke-linecap="round" stroke-linejoin="round"/>
<path d="M6.73999 6L11.93 11.2" stroke="#0B2343" stroke-miterlimit="10" stroke-linecap="round" stroke-linejoin="round"/>
<path d="M6.73999 11.2L11.93 6" stroke="#0B2343" stroke-miterlimit="10" stroke-linecap="round" stroke-linejoin="round"/>
<path d="M28.74 15L33.93 20.2" stroke="#0B2343" stroke-miterlimit="10" stroke-linecap="round" stroke-linejoin="round"/>
<path d="M28.74 20.2L33.93 15" stroke="#0B2343" stroke-miterlimit="10" stroke-linecap="round" stroke-linejoin="round"/>
<path d="M26.74 28L31.93 33.2" stroke="#0B2343" stroke-miterlimit="10" stroke-linecap="round" stroke-linejoin="round"/>
<path d="M26.74 33.2L31.93 28" stroke="#0B2343" stroke-miterlimit="10" stroke-linecap="round" stroke-linejoin="round"/>
<path d="M30.7399 7.10986L24.66 12.8298C22.81 14.5998 22.0099 16.2498 22.0099 18.4398V22.7098C22.0099 25.8098 19.88 28.7799 16.34 29.3899L13.34 29.9098" stroke="#0B2343" stroke-miterlimit="10" stroke-linecap="round" stroke-linejoin="round"/>
</svg>
