<svg width="40" height="40" viewBox="0 0 40 40" fill="none" xmlns="http://www.w3.org/2000/svg">
<path d="M17.0527 29.5774C17.1394 29.4898 17.227 29.4013 17.3146 29.3111C22.1902 24.3192 28.5154 16.1272 30.2812 12.5902C32.274 8.59834 30.8415 6.80928 30.4483 6.42145L30.4546 6.4134C30.4546 6.4134 30.4367 6.4 30.4037 6.37945C30.3742 6.35264 30.3563 6.33923 30.3563 6.33923L30.3509 6.34727C29.8728 6.07114 27.7674 5.1632 24.4467 8.14348C20.646 11.5527 11.3737 24.3523 9.51758 29.5783C9.51758 29.5783 8.38713 32.6729 9.46754 33.722L9.46307 33.7283C9.48273 33.7444 9.50418 33.7569 9.52384 33.7703C9.54261 33.7864 9.56048 33.8034 9.58103 33.8186L9.5855 33.8123C10.884 34.5764 13.5684 32.6658 13.5684 32.6658C14.1842 32.2359 14.8982 31.6381 15.6774 30.9142" stroke="#0B2343" stroke-linecap="round" stroke-linejoin="round"/>
<path d="M13.3933 28.8127C13.3933 28.8127 16.0465 29.9976 16.0465 32.4614C16.0465 34.9242 19.2538 30.5097 15.1752 26.4758" stroke="#0B2343" stroke-linecap="round" stroke-linejoin="round"/>
<path d="M9.71045 33.6909L30.6037 6.30095" stroke="#0B2343" stroke-linecap="round" stroke-linejoin="round"/>
</svg>
