<svg width="40" height="40" viewBox="0 0 40 40" fill="none" xmlns="http://www.w3.org/2000/svg">
<path d="M35.8125 14.2553C35.8125 17.0627 28.7557 19.3305 20.0365 19.3305C11.3283 19.3305 4.26044 17.0517 4.26044 14.2553C4.26044 11.448 11.3173 9.18018 20.0365 9.18018C28.7557 9.18018 35.8125 11.459 35.8125 14.2553Z" stroke="#0B2343" stroke-linecap="round" stroke-linejoin="round"/>
<path d="M4.27145 14.2551L7.40908 26.9266C7.40908 29.1724 13.0677 30.9999 20.0475 30.9999C27.0272 30.9999 32.6859 29.1835 32.6859 26.9266L35.8235 14.2551" stroke="#0B2343" stroke-linecap="round" stroke-linejoin="round"/>
<path d="M18.4072 30.8134V29.195C18.4072 28.4133 19.0457 27.7749 19.8273 27.7749H20.2677C21.0493 27.7749 21.6879 28.4133 21.6879 29.195V30.8134" stroke="#0B2343" stroke-linecap="round" stroke-linejoin="round"/>
<path d="M8.16867 10.9197L13.5191 18.8792" stroke="#0B2343" stroke-linecap="round" stroke-linejoin="round"/>
<path d="M15.0934 9.43335L18.165 19.2974" stroke="#0B2343" stroke-linecap="round" stroke-linejoin="round"/>
<path d="M31.6952 10.9197L26.3557 18.8792" stroke="#0B2343" stroke-linecap="round" stroke-linejoin="round"/>
<path d="M24.7705 9.43335L21.71 19.2974" stroke="#0B2343" stroke-linecap="round" stroke-linejoin="round"/>
</svg>
