<svg width="40" height="40" viewBox="0 0 40 40" fill="none" xmlns="http://www.w3.org/2000/svg">
<path d="M30.83 8.05808C30.69 9.04808 29.78 9.73812 28.79 9.59812C27.8 9.45812 27.11 8.54808 27.25 7.55808C27.39 6.56808 28.3 5.87804 29.29 6.01804C30.28 6.15804 30.97 7.06808 30.83 8.05808Z" stroke="#0B2343" stroke-miterlimit="10" stroke-linecap="round" stroke-linejoin="round"/>
<path d="M28.9399 30.3381L29.8699 23.6781C29.8999 23.4481 29.8399 23.218 29.6899 23.028L26.2299 18.6881C25.9399 18.3281 25.8099 17.858 25.8799 17.398L26.4199 13.5581C26.5599 12.5881 27.3999 11.818 28.3799 11.908C29.4199 11.998 29.7899 12.9381 29.6499 13.9581L29.8099 17.638L31.8099 19.768" stroke="#0B2343" stroke-miterlimit="10" stroke-linecap="round" stroke-linejoin="round"/>
<path d="M26.64 22.4281L23.28 25.5781" stroke="#0B2343" stroke-miterlimit="10" stroke-linecap="round" stroke-linejoin="round"/>
<path d="M24.64 11.748L23.01 13.2781L22 17.1381" stroke="#0B2343" stroke-miterlimit="10" stroke-linecap="round" stroke-linejoin="round"/>
<path d="M32 33.2081H25.5V30.2081H20.5V26.2081H15.5V22.2081H8" stroke="#0B2343" stroke-miterlimit="10" stroke-linecap="round" stroke-linejoin="round"/>
</svg>
