<svg width="40" height="40" viewBox="0 0 40 40" fill="none" xmlns="http://www.w3.org/2000/svg">
<path d="M15.87 7.8815C15.83 8.8815 14.9801 9.65148 13.9901 9.61148C12.9901 9.57148 12.22 8.72147 12.26 7.73147C12.3 6.73147 13.15 5.96149 14.14 6.00149C15.14 6.04149 15.91 6.8815 15.87 7.8815Z" stroke="#0B2343" stroke-miterlimit="10" stroke-linecap="round" stroke-linejoin="round"/>
<path d="M15.92 26.0515L16.11 22.3215C16.12 22.0915 16.0299 21.8615 15.8699 21.6915L12.3 18.8914C11.98 18.5614 11.81 18.1014 11.83 17.6414L11.9999 13.7714C12.0399 12.7914 12.81 11.9515 13.79 11.9415C14.83 11.9315 15.66 12.8014 15.61 13.8314L16.1199 17.4814L19.5699 16.6214" stroke="#0B2343" stroke-miterlimit="10" stroke-linecap="round" stroke-linejoin="round"/>
<path d="M12.4901 21.9614L9.84009 30.2314" stroke="#0B2343" stroke-miterlimit="10" stroke-linecap="round" stroke-linejoin="round"/>
<path d="M9.84003 13.3715L8.07001 14.3115L7 18.4215" stroke="#0B2343" stroke-miterlimit="10" stroke-linecap="round" stroke-linejoin="round"/>
<path d="M8.52002 33.0515H15.02V30.0515H20.02V26.0515H25.02V22.0515H32.52" stroke="#0B2343" stroke-miterlimit="10" stroke-linecap="round" stroke-linejoin="round"/>
</svg>
