<svg width="40" height="40" viewBox="0 0 40 40" fill="none" xmlns="http://www.w3.org/2000/svg">
<path d="M31.52 27.5459C32.19 25.2159 30.84 22.776 28.51 22.106L25.44 21.2258C22.35 20.0458 25.13 16.5259 27.59 14.3259C30.19 11.7059 29.05 7.22581 25.47 6.19581C21.67 5.10581 18.24 8.75582 19.49 12.4558C19.93 14.1558 21.1 19.6558 17.51 18.9458L14.44 18.0659C12.11 17.3959 9.67 18.7459 9 21.0759" stroke="#0B2343" stroke-miterlimit="10" stroke-linecap="round" stroke-linejoin="round"/>
<path d="M9.00998 21.0659L31.52 27.5459" stroke="#0B2343" stroke-miterlimit="10" stroke-linecap="round" stroke-linejoin="round"/>
<path d="M30.3871 27.2722L10.2136 21.4727L9.60578 23.587L29.7793 29.3866L30.3871 27.2722Z" stroke="#0B2343" stroke-miterlimit="10" stroke-linecap="round" stroke-linejoin="round"/>
<path d="M9.06 34.3059H30.06" stroke="#0B2343" stroke-miterlimit="10" stroke-linecap="round" stroke-linejoin="round"/>
</svg>
