<svg width="40" height="40" viewBox="0 0 40 40" fill="none" xmlns="http://www.w3.org/2000/svg">
<path d="M10.3398 33.8369C10.2683 34.0441 10.3402 34.2737 10.517 34.4033C10.6938 34.5329 10.9344 34.5322 11.1104 34.4016L20 27.8068L28.8896 34.4016C29.0656 34.5322 29.3062 34.5329 29.483 34.4033C29.6598 34.2737 29.7317 34.0441 29.6602 33.8369L26.0354 23.3315L35.2795 17.0988C35.463 16.9751 35.5434 16.7454 35.477 16.5343C35.4106 16.3232 35.2134 16.1808 34.9921 16.1843L23.7415 16.3626L20.4775 5.85172C20.4126 5.64255 20.219 5.5 20 5.5C19.781 5.5 19.5874 5.64255 19.5225 5.85172L16.2585 16.3626L5.00792 16.1843C4.78663 16.1808 4.58937 16.3232 4.52301 16.5343C4.45665 16.7454 4.53698 16.9751 4.72048 17.0988L13.9646 23.3315L10.3398 33.8369Z" fill="#0B2343" stroke="black" stroke-linejoin="round"/>
</svg>
