<svg width="40" height="40" viewBox="0 0 40 40" fill="none" xmlns="http://www.w3.org/2000/svg">
<path d="M10.215 10.2225C4.595 15.8425 4.595 24.9924 10.215 30.6224C15.835 36.2424 24.995 36.2424 30.615 30.6224C36.235 25.0024 36.235 15.8425 30.615 10.2225C24.985 4.5925 15.835 4.5925 10.215 10.2225Z" stroke="#0B2343" stroke-miterlimit="10" stroke-linecap="round" stroke-linejoin="round"/>
<path d="M28.455 17.9024L22.765 17.7823L20.895 12.4624C20.735 12.0024 20.0851 12.0024 19.9251 12.4624L18.0549 17.7823L12.365 17.9024C11.875 17.9124 11.6749 18.5323 12.0649 18.8223L16.595 22.2224L14.945 27.6023C14.805 28.0723 15.325 28.4524 15.725 28.1724L20.395 24.9524L25.0649 28.1724C25.4649 28.4424 25.995 28.0623 25.845 27.6023L24.195 22.2224L28.725 18.8223C29.145 18.5323 28.935 17.9124 28.455 17.9024Z" stroke="#0B2343" stroke-miterlimit="10" stroke-linecap="round" stroke-linejoin="round"/>
</svg>
