<svg width="40" height="40" viewBox="0 0 40 40" fill="none" xmlns="http://www.w3.org/2000/svg">
<path d="M29 17.0973C29 11.9335 24.8126 7.7373 19.64 7.7373C14.4761 7.7373 10.28 11.9247 10.28 17.0973C10.28 21.6454 13.526 25.4281 17.8278 26.2726L19.64 33.1431L21.4521 26.2726C25.7539 25.4281 29 21.6454 29 17.0973Z" stroke="#0B2343" stroke-miterlimit="10" stroke-linecap="round" stroke-linejoin="round"/>
<path d="M17.2208 18.109C15.7341 22.9737 15.3206 22.8331 19.6488 19.8597C23.9769 22.8419 23.5723 22.9737 22.0768 18.109C26.2817 14.9508 26.2729 15.3819 21.1443 15.2764C19.4113 10.3588 19.8335 10.4644 18.1445 15.2764C12.8663 15.3819 13.1302 15.0388 17.2208 18.109Z" stroke="#0B2343" stroke-miterlimit="10" stroke-linecap="round" stroke-linejoin="round"/>
</svg>
