<svg width="31" height="32" viewBox="0 0 31 32" fill="none" xmlns="http://www.w3.org/2000/svg">
<path fill-rule="evenodd" clip-rule="evenodd" d="M4.86113 4.86926C10.6766 -0.956594 20.1435 -0.956141 25.9686 4.86895C31.7838 10.6842 31.7838 20.1607 25.9686 25.976C20.1533 31.7912 10.6767 31.7912 4.86145 25.976L4.86113 25.9756C-0.953433 20.1507 -0.953989 10.6847 4.86113 4.86926ZM25.2615 5.57605C19.8266 0.141142 10.9934 0.141594 5.56887 5.57574L5.56855 5.57605C0.144094 11.0005 0.143538 19.8338 5.56855 25.2688C10.9933 30.6936 19.8367 30.6936 25.2615 25.2688C30.6862 19.8441 30.6862 11.0008 25.2615 5.57605Z" fill="#007CC2"/>
<path fill-rule="evenodd" clip-rule="evenodd" d="M15.5 6.5C15.7128 6.5 15.9024 6.63477 15.9722 6.83584L17.974 12.5947L24.0697 12.719C24.2825 12.7233 24.4692 12.8619 24.535 13.0643C24.6008 13.2668 24.5312 13.4887 24.3616 13.6173L19.5031 17.3007L21.2686 23.1364C21.3303 23.3401 21.2561 23.5605 21.0839 23.6857C20.9117 23.8108 20.6792 23.8131 20.5044 23.6916L15.5 20.2091L10.4955 23.6916C10.3208 23.8131 10.0882 23.8108 9.91601 23.6857C9.7438 23.5605 9.66968 23.3401 9.73132 23.1364L11.4968 17.3007L6.63839 13.6173C6.46876 13.4887 6.39915 13.2668 6.46493 13.0643C6.53071 12.8619 6.71745 12.7233 6.93027 12.719L13.0259 12.5947L15.0277 6.83584C15.0976 6.63477 15.2871 6.5 15.5 6.5ZM15.5 8.52286L13.8562 13.2517C13.7876 13.4492 13.6032 13.5832 13.3941 13.5874L8.38878 13.6894L12.3782 16.714C12.5449 16.8404 12.6153 17.0571 12.5547 17.2572L11.105 22.0491L15.2144 19.1896C15.386 19.0701 15.6139 19.0701 15.7856 19.1896L19.8949 22.0491L18.4452 17.2572C18.3846 17.0571 18.455 16.8404 18.6217 16.714L22.6112 13.6894L17.6058 13.5874C17.3967 13.5832 17.2124 13.4492 17.1437 13.2517L15.5 8.52286Z" fill="#007CC2"/>
<path d="M29.2833 29.505L25.8533 23.475C25.4933 22.8417 24.5766 22.8417 24.2166 23.475L20.79 29.505C20.4366 30.1283 20.8866 30.9083 21.6066 30.9083C23.3703 30.9083 26.1121 30.9083 28.4633 30.9083C29.1833 30.9083 29.64 30.1317 29.2833 29.505Z" fill="#FBAF28"/>
<path fill-rule="evenodd" clip-rule="evenodd" d="M25.0363 24.8184C25.202 24.8184 25.3363 24.9527 25.3363 25.1184V27.9984C25.3363 28.164 25.202 28.2984 25.0363 28.2984C24.8706 28.2984 24.7363 28.164 24.7363 27.9984V25.1184C24.7363 24.9527 24.8706 24.8184 25.0363 24.8184Z" fill="#0B2343"/>
<path fill-rule="evenodd" clip-rule="evenodd" d="M25.0363 28.8887C25.202 28.8887 25.3363 29.023 25.3363 29.1887V29.262C25.3363 29.4277 25.202 29.562 25.0363 29.562C24.8706 29.562 24.7363 29.4277 24.7363 29.262V29.1887C24.7363 29.023 24.8706 28.8887 25.0363 28.8887Z" fill="#0B2343"/>
</svg>
