<svg width="40" height="40" viewBox="0 0 40 40" fill="none" xmlns="http://www.w3.org/2000/svg">
<path d="M22.38 6C22.38 6 24.41 6.58998 21.81 10.48C19.21 14.37 21.81 14.6 21.81 14.6" stroke="#0B2343" stroke-miterlimit="10" stroke-linecap="round" stroke-linejoin="round"/>
<path d="M25.7399 10.29C25.7399 10.29 26.8999 10.63 25.4099 12.84C23.9299 15.05 25.4099 15.1901 25.4099 15.1901" stroke="#0B2343" stroke-miterlimit="10" stroke-linecap="round" stroke-linejoin="round"/>
<path d="M17.8898 9.70007C17.8898 9.70007 19.0499 10.04 17.5599 12.25C16.0799 14.47 17.5599 14.6 17.5599 14.6" stroke="#0B2343" stroke-miterlimit="10" stroke-linecap="round" stroke-linejoin="round"/>
<path d="M22.73 17.6401C27.07 18.3201 37.28 20.23 34.33 27.61C30.69 36.71 21.3899 24.45 15.1599 26.84C6.18991 30.29 2.10997 24.77 10.85 18.98C13.91 16.95 16.6 16.6901 22.73 17.6401Z" stroke="#0B2343" stroke-miterlimit="10" stroke-linecap="round" stroke-linejoin="round"/>
<path d="M6 25.3101L6.06995 28.49C6.60995 30.68 10.1099 31.57 15.1599 29.63C21.2699 27.28 30.83 38.95 34.63 30.8C34.78 30.48 34.85 30.12 34.85 29.76V25.3101" stroke="#0B2343" stroke-miterlimit="10" stroke-linecap="round" stroke-linejoin="round"/>
<path d="M11.0499 22.02C11.0499 22.02 9.0399 24.7 11.5299 24.89C14.0199 25.08 13.3499 23.55 13.0599 22.78C12.7699 22.02 11.0499 22.02 11.0499 22.02Z" stroke="#0B2343" stroke-miterlimit="10" stroke-linecap="round" stroke-linejoin="round"/>
<path d="M17.97 24.14L22.98 19.9" stroke="#0B2343" stroke-miterlimit="10" stroke-linecap="round" stroke-linejoin="round"/>
<path d="M21.6799 25.0701L26.7 20.8301" stroke="#0B2343" stroke-miterlimit="10" stroke-linecap="round" stroke-linejoin="round"/>
<path d="M24.9299 26.47L29.95 22.22" stroke="#0B2343" stroke-miterlimit="10" stroke-linecap="round" stroke-linejoin="round"/>
</svg>
