<svg width="40" height="40" viewBox="0 0 40 40" fill="none" xmlns="http://www.w3.org/2000/svg">
<path d="M23.4384 34.5616C31.4806 32.6626 36.4606 24.6037 34.5616 16.5616C32.6626 8.51941 24.6037 3.53939 16.5616 5.43837C8.51945 7.33734 3.53943 15.3962 5.4384 23.4384C7.33738 31.4805 15.3963 36.4605 23.4384 34.5616Z" stroke="#0B2343" stroke-miterlimit="10" stroke-linecap="round" stroke-linejoin="round"/>
<path d="M21.7261 20.1687C21.7261 21.1104 20.9703 21.866 20.0286 21.866C19.0869 21.866 18.3313 21.1104 18.3313 20.1687C18.3313 19.227 19.0869 18.4713 20.0286 18.4713C20.9703 18.4713 21.7261 19.2386 21.7261 20.1687Z" stroke="#0B2343" stroke-miterlimit="10" stroke-linecap="round" stroke-linejoin="round"/>
<path d="M20.0286 18.4713V9.21698" stroke="#0B2343" stroke-miterlimit="10" stroke-linecap="round" stroke-linejoin="round"/>
<path d="M20.0286 5.20607V2.05548" stroke="#0B2343" stroke-miterlimit="10" stroke-linecap="round" stroke-linejoin="round"/>
<path d="M30.6198 9.58908L34.4448 5.7641" stroke="#0B2343" stroke-miterlimit="10" stroke-linecap="round" stroke-linejoin="round"/>
<path d="M33.0381 4.35742L35.84 7.15917" stroke="#0B2343" stroke-miterlimit="10" stroke-linecap="round" stroke-linejoin="round"/>
</svg>
