<svg width="40" height="40" viewBox="0 0 40 40" fill="none" xmlns="http://www.w3.org/2000/svg">
<path d="M34.48 14.13L26.64 6.28998C26.45 6.09998 26.2 6 25.93 6H14.84C14.57 6 14.32 6.10998 14.13 6.28998L6.29001 14.13C6.10001 14.32 6 14.57 6 14.84V25.93C6 26.2 6.11001 26.45 6.29001 26.64L14.13 34.48C14.32 34.67 14.57 34.77 14.84 34.77H25.93C26.2 34.77 26.45 34.66 26.64 34.48L34.48 26.64C34.67 26.45 34.77 26.2 34.77 25.93V14.84C34.78 14.58 34.67 14.32 34.48 14.13Z" stroke="#0B2343" stroke-miterlimit="10" stroke-linecap="round" stroke-linejoin="round"/>
<path d="M14.5 14.76L26.28 26.54" stroke="#0B2343" stroke-miterlimit="10" stroke-linecap="round" stroke-linejoin="round"/>
<path d="M14.5 26.54L26.28 14.76" stroke="#0B2343" stroke-miterlimit="10" stroke-linecap="round" stroke-linejoin="round"/>
</svg>
