<svg width="40" height="40" viewBox="0 0 40 40" fill="none" xmlns="http://www.w3.org/2000/svg">
<path d="M32.8057 12.3428L34.7918 10.3192C34.8543 10.2568 34.9043 10.1693 34.9168 10.0944C34.9292 10.0069 34.9167 9.94448 34.8668 9.89451L32.5434 7.53365C32.4934 7.48369 32.4185 7.4712 32.3435 7.48369C32.2686 7.49618 32.1811 7.54614 32.1187 7.6086L30.1326 9.6197C30.0576 9.68216 32.7433 12.4053 32.8057 12.3428Z" stroke="#0B2343" stroke-miterlimit="10" stroke-linecap="round" stroke-linejoin="round"/>
<path d="M26.2727 16.2277L18.5781 24.1472" stroke="#0B2343" stroke-miterlimit="10" stroke-linecap="round" stroke-linejoin="round"/>
<path d="M19.2901 38C27.1823 38 33.5802 31.5182 33.5802 23.5226C33.5802 15.5269 27.1823 9.0451 19.2901 9.0451C11.3979 9.0451 5 15.5269 5 23.5226C5 31.5182 11.3979 38 19.2901 38Z" stroke="#0B2343" stroke-miterlimit="10" stroke-linecap="round" stroke-linejoin="round"/>
<path d="M21.1263 9.23247V6.94656H23.6495V2.78694C23.6495 2.34974 23.2998 2 22.8626 2H16.0798C15.6426 2 14.9056 2.34974 14.9056 2.78694V6.94656H17.3289V9.23247" stroke="#0B2343" stroke-miterlimit="10" stroke-linecap="round" stroke-linejoin="round"/>
</svg>
