<svg width="40" height="40" viewBox="0 0 40 40" fill="none" xmlns="http://www.w3.org/2000/svg">
<path d="M34.265 27.6875L26.755 20.1775L34.225 12.7075C34.525 12.4075 34.525 11.9175 34.225 11.6175L28.825 6.2175C28.535 5.9275 28.025 5.9275 27.735 6.2175L20.265 13.6875L12.795 6.2175C12.505 5.9275 11.995 5.9275 11.705 6.2175L6.225 11.6975C5.925 11.9975 5.925 12.4875 6.225 12.7875L13.695 20.2575L6.26498 27.6875C5.96498 27.9875 5.96498 28.4775 6.26498 28.7775L11.665 34.1775C11.965 34.4775 12.455 34.4775 12.755 34.1775L20.185 26.7475L27.695 34.2575C27.995 34.5575 28.485 34.5575 28.785 34.2575L34.265 28.7775C34.565 28.4775 34.565 27.9875 34.265 27.6875Z" stroke="#0B2343" stroke-miterlimit="10" stroke-linecap="round" stroke-linejoin="round"/>
</svg>
