<svg width="40" height="40" viewBox="0 0 40 40" fill="none" xmlns="http://www.w3.org/2000/svg">
<path d="M28.4731 30.3689L32.7345 29.6326" stroke="#0B2343" stroke-miterlimit="10" stroke-linecap="round" stroke-linejoin="round"/>
<path d="M35.9849 31.1602C36.0806 31.7093 35.7128 32.2343 35.1662 32.3283L19.798 34.9856C19.2489 35.0796 18.7281 34.7111 18.6341 34.1595L16.8919 24.0884C16.7979 23.5376 17.164 23.016 17.7114 22.9203L33.0805 20.2613C33.6279 20.169 34.1487 20.5375 34.2444 21.0875L35.9849 31.1602Z" stroke="#0B2343" stroke-miterlimit="10" stroke-linecap="round" stroke-linejoin="round"/>
<path d="M35.0067 25.4998L17.6558 28.5007L17.1359 25.4948L34.4875 22.4955L35.0067 25.4998Z" stroke="#0B2343" stroke-miterlimit="10" stroke-linecap="round" stroke-linejoin="round"/>
<path d="M4.43518 23.4963H15.5936" stroke="#0B2343" stroke-miterlimit="10" stroke-linecap="round" stroke-linejoin="round"/>
<path d="M4.46888 6.8575L0.865601 11.6871C0.865601 15.3378 6.39323 15.3428 6.39323 11.6871C6.39323 15.3361 11.92 15.3428 11.92 11.6871C11.92 15.3361 17.446 15.3428 17.446 11.6871C17.446 15.3378 22.9728 15.3428 22.9728 11.6871C22.9728 15.3378 28.5013 15.3411 28.5013 11.6871L25.0436 6.8575H4.46888Z" stroke="#0B2343" stroke-miterlimit="10" stroke-linecap="round" stroke-linejoin="round"/>
<path d="M16.8784 30.3894H4.388V17.6153" stroke="#0B2343" stroke-miterlimit="10" stroke-linecap="round" stroke-linejoin="round"/>
<path d="M25.0204 17.6159V20.2466" stroke="#0B2343" stroke-miterlimit="10" stroke-linecap="round" stroke-linejoin="round"/>
</svg>
