<svg width="40" height="40" viewBox="0 0 40 40" fill="none" xmlns="http://www.w3.org/2000/svg">
<path d="M19.7147 13.6595C19.8994 8.95815 28.3137 10.4267 28.3137 10.4267C28.3137 10.4267 25.0718 17.9821 19.7147 13.6595Z" stroke="#0B2343" stroke-miterlimit="10" stroke-linecap="round" stroke-linejoin="round"/>
<path d="M19.7147 13.6596C19.7147 13.6596 18.9757 8.3394 21.3679 7.00012C21.3679 7.00012 21.294 7.46201 21.839 7.64674C22.5687 7.89612 20.2689 9.88195 19.7147 13.6596Z" stroke="#0B2343" stroke-miterlimit="10" stroke-linecap="round" stroke-linejoin="round"/>
<path d="M11.3835 9.06014C12.1593 12.6346 15.8077 14.8144 19.7147 13.6598C18.9573 10.1038 15.2905 7.88712 11.3835 9.06014Z" stroke="#0B2343" stroke-miterlimit="10" stroke-linecap="round" stroke-linejoin="round"/>
<path d="M16.7775 13.9275C14.2005 14.3985 10.857 15.7287 11.0047 19.5433C11.2449 25.7594 17.3871 33.4809 19.65 33.4809C22.5225 33.4809 29.0526 24.0136 28.5169 19.2754C28.2767 17.188 26.7805 15.5901 24.573 14.648" stroke="#0B2343" stroke-miterlimit="10" stroke-linecap="round" stroke-linejoin="round"/>
<path d="M20.1025 21.5109V22.4437" stroke="#0B2343" stroke-miterlimit="10" stroke-linecap="round" stroke-linejoin="round"/>
<path d="M20.4258 28.9551L20.2041 29.8695" stroke="#0B2343" stroke-miterlimit="10" stroke-linecap="round" stroke-linejoin="round"/>
<path d="M16.4912 24.42L16.5835 25.3621" stroke="#0B2343" stroke-miterlimit="10" stroke-linecap="round" stroke-linejoin="round"/>
<path d="M24.6006 20.6515V21.5844" stroke="#0B2343" stroke-miterlimit="10" stroke-linecap="round" stroke-linejoin="round"/>
<path d="M23.1783 25.3253L22.6795 26.1381" stroke="#0B2343" stroke-miterlimit="10" stroke-linecap="round" stroke-linejoin="round"/>
<path d="M14.5792 20.6515V21.5844" stroke="#0B2343" stroke-miterlimit="10" stroke-linecap="round" stroke-linejoin="round"/>
<path d="M16.7682 17.8252L16.3064 18.6564" stroke="#0B2343" stroke-miterlimit="10" stroke-linecap="round" stroke-linejoin="round"/>
<path d="M20.7953 17.0219L21.0354 17.927" stroke="#0B2343" stroke-miterlimit="10" stroke-linecap="round" stroke-linejoin="round"/>
</svg>
