<?xml version="1.0" encoding="utf-8"?>
<!-- Generator: Adobe Illustrator 26.0.3, SVG Export Plug-In . SVG Version: 6.00 Build 0)  -->
<svg version="1.1" id="Layer_1" xmlns="http://www.w3.org/2000/svg" xmlns:xlink="http://www.w3.org/1999/xlink" x="0px" y="0px"
	 viewBox="0 0 512 512" style="enable-background:new 0 0 512 512;" xml:space="preserve">
<path d="M442,220c-5,0-9-4-9-9c0-28.1-22.9-51-51-51c-5,0-9-4-9-9s4-9,9-9c38,0,69,31,69,69C451,216,447,220,442,220z"/>
<path d="M469,220c-5,0-9-4-9-9c0-43-35-78-78-78c-5,0-9-4-9-9s4-9,9-9c52.9,0,96,43.1,96,96C478,216,474,220,469,220z"/>
<path d="M495,220c-5,0-9-4-9-9c0-57.3-46.7-104-104-104c-5,0-9-4-9-9s4-9,9-9c67.3,0,122,54.7,122,122C504,216,500,220,495,220z"/>
<path d="M388,322.3c-4,0-7.3-3.3-7.3-7.3v-46c0-4,3.3-7.3,7.3-7.3s7.3,3.3,7.3,7.3v46C395.3,319,392,322.3,388,322.3z"/>
<path d="M219.9,251.6c-23.3,0-42.2,18.9-42.2,42.2s18.9,42.2,42.2,42.2s42.2-18.9,42.2-42.2S243.1,251.6,219.9,251.6z M243,296.9
	l-31.7,18.3c-0.5,0.3-1,0.4-1.5,0.4s-1-0.1-1.5-0.4c-0.9-0.5-1.5-1.5-1.5-2.5v-36.6c0-1.1,0.5-2,1.5-2.5c0.9-0.5,2-0.5,2.9,0
	l31.7,18.3c0.9,0.5,1.5,1.5,1.5,2.5C244.4,295.5,243.9,296.4,243,296.9z"/>
<path d="M387.4,171H51.6C34.7,171,21,184.7,21,201.6v6.4v172v6.4c0,16.9,13.7,30.6,30.6,30.6h335.9c16.9,0,30.6-13.7,30.6-30.6
	V201.6C418,184.7,404.3,171,387.4,171z M401,388.3c0,4.8-3.9,8.7-8.7,8.7H48.7c-4.8,0-8.7-3.9-8.7-8.7V200.7c0-4.8,3.9-8.7,8.7-8.7
	h343.5c4.8,0,8.7,3.9,8.7,8.7L401,388.3L401,388.3z"/>
<path d="M377,380V208c0-4.2-2.9-7.7-6.8-8.7H48.7c-0.8,0-1.5,0.7-1.5,1.5V280h6.4c2.4,0,4.4,2,4.4,4.4v14.3c0,2.4-2,4.4-4.4,4.4
	h-6.4v85.3c0,0.3,0.1,0.5,0.2,0.7H368C373,389,377,385,377,380z M219.9,347.7c-29.7,0-53.9-24.2-53.9-53.9s24.2-53.9,53.9-53.9
	s53.9,24.2,53.9,53.9S249.6,347.7,219.9,347.7z"/>
</svg>
