<?xml version="1.0" encoding="utf-8"?>
<!-- Generator: Adobe Illustrator 26.0.3, SVG Export Plug-In . SVG Version: 6.00 Build 0)  -->
<svg version="1.1" id="Layer_1" xmlns="http://www.w3.org/2000/svg" xmlns:xlink="http://www.w3.org/1999/xlink" x="0px" y="0px"
	 viewBox="0 0 328 325" style="enable-background:new 0 0 328 325;" xml:space="preserve">
<style type="text/css">
	.st0{fill-rule:evenodd;clip-rule:evenodd;}
</style>
<path d="M201,155.3c2.7,1.6,2.7,5.7,0,7.4l-43.9,26.7c-2.7,1.6-6.1-0.4-6.1-3.7v-53.5c0-3.3,3.4-5.3,6.1-3.7L201,155.3z"/>
<path class="st0" d="M287,65H44c-16.6,0-30,13.4-30,30v22.5c6.8,0,13.5,0.5,20,1.4V95c0-5.5,4.5-10,10-10h243c5.5,0,10,4.5,10,10
	v134c0,5.5-4.5,10-10,10H154.1c0.9,6.5,1.4,13.2,1.4,20H287c16.6,0,30-13.4,30-30V95C317,78.4,303.6,65,287,65z"/>
<path class="st0" d="M27.6,207.2c-1.5-0.4-3-0.7-4.6-0.9c-0.3,0-0.6-0.1-0.9-0.1c-0.6-0.1-1.2-0.2-1.9-0.2c-0.9-0.1-1.8-0.2-2.6-0.2
	c-0.1,0-0.2,0-0.3,0c-1.1-0.1-2.1-0.1-3.2-0.1v23v0.5c0,16.6,13.4,30,30,30h1.5h22h1c0-4.9-0.7-9.6-1.9-14.1
	C61.4,226.3,46.4,211.9,27.6,207.2z"/>
<path class="st0" d="M37.3,171.5c-7.4-2-15.3-3-23.3-3v23c6,0,11.9,0.8,17.4,2.3c23.2,6.2,41.5,24.4,47.8,47.5
	c1.5,5.6,2.3,11.6,2.3,17.7h23c0-8.2-1.1-16.2-3.2-23.7C92.9,204.2,68.4,179.8,37.3,171.5z"/>
<path class="st0" d="M14,131.5v23c57.7,0,104.5,46.8,104.5,104.5h23C141.5,188.6,84.4,131.5,14,131.5z"/>
</svg>
