<svg width="40" height="40" viewBox="0 0 40 40" fill="none" xmlns="http://www.w3.org/2000/svg">
<path d="M31 18.6299V13.47C31 12.5 32.46 10.9299 33.85 10.9299H34.2699" stroke="#0B2343" stroke-miterlimit="10" stroke-linecap="round" stroke-linejoin="round"/>
<path d="M21.6799 27.03H14.3999" stroke="#0B2343" stroke-miterlimit="10" stroke-linecap="round" stroke-linejoin="round"/>
<path d="M8.91992 26.1499C7.28992 24.8499 6 22.5898 6 20.3398V18H31V20.3398C31 23.0498 29.9699 25.3501 27.6899 26.5601" stroke="#0B2343" stroke-miterlimit="10" stroke-linecap="round" stroke-linejoin="round"/>
<path d="M22.0299 7H13.74C10.03 7 6.98999 10.6699 6.98999 14.9299V15.9099" stroke="#0B2343" stroke-miterlimit="10" stroke-linecap="round" stroke-linejoin="round"/>
<path d="M15.34 29.6799C15.34 31.9899 13.4699 33.8599 11.1599 33.8599C8.84991 33.8599 6.97998 31.9899 6.97998 29.6799C6.97998 27.3699 8.84991 25.5 11.1599 25.5C13.4699 25.5 15.34 27.3699 15.34 29.6799Z" stroke="#0B2343" stroke-miterlimit="10" stroke-linecap="round" stroke-linejoin="round"/>
<path d="M29.09 29.6799C29.09 31.9899 27.2199 33.8599 24.9099 33.8599C22.5999 33.8599 20.73 31.9899 20.73 29.6799C20.73 27.3699 22.5999 25.5 24.9099 25.5C27.2199 25.5 29.09 27.3699 29.09 29.6799Z" stroke="#0B2343" stroke-miterlimit="10" stroke-linecap="round" stroke-linejoin="round"/>
<path d="M17.21 7.01001C14.38 7.01001 12.0599 10.6799 12.0599 14.9399V15.9199" stroke="#0B2343" stroke-miterlimit="10" stroke-linecap="round" stroke-linejoin="round"/>
<path d="M16.9399 15.9299V14.95C16.9399 10.69 19.26 7.02002 22.09 7.02002" stroke="#0B2343" stroke-miterlimit="10" stroke-linecap="round" stroke-linejoin="round"/>
</svg>
