<svg width="40" height="40" viewBox="0 0 40 40" fill="none" xmlns="http://www.w3.org/2000/svg">
<path d="M34.83 32.99V30.5698" stroke="#0B2343" stroke-linecap="round" stroke-linejoin="round"/>
<path d="M34.83 25.24V22.8899" stroke="#0B2343" stroke-linecap="round" stroke-linejoin="round"/>
<path d="M13.84 18.8799L13.8199 11.8398C13.7499 10.9898 12.83 10.5498 11.98 10.5498L11.88 8H12.6699C14.4999 8 15.9 9.27999 15.9 11.24V18.8699" stroke="#0B2343" stroke-linecap="round" stroke-linejoin="round"/>
<path d="M31.6699 26.8298H33.0499C33.7099 26.8298 34.24 27.3299 34.24 27.9399C34.24 28.5499 33.7099 29.0498 33.0499 29.0498H31.6699" stroke="#0B2343" stroke-miterlimit="10" stroke-linecap="round" stroke-linejoin="round"/>
<path d="M31.7899 27.9399C31.7899 25.1599 29.51 22.95 26.75 22.95H19.9299V19.7898C19.9299 19.2998 19.5399 18.9099 19.0499 18.9099H11.75C11.27 18.9099 10.88 19.2998 10.88 19.7898V22.8999C8.32 23.1899 6 25.3299 6 27.9099C6 30.6899 8.60995 32.9399 11.45 32.9399L26.6 32.9299H26.78C29.56 32.9199 31.7899 30.7199 31.7899 27.9399Z" stroke="#0B2343" stroke-miterlimit="10" stroke-linecap="round" stroke-linejoin="round"/>
<path d="M13.16 27.9199C13.16 28.5899 12.62 29.1299 11.96 29.1299C11.3 29.1299 10.76 28.5899 10.76 27.9199C10.76 27.2499 11.3 26.71 11.96 26.71C12.62 26.71 13.16 27.2599 13.16 27.9199Z" stroke="#0B2343" stroke-miterlimit="10" stroke-linecap="round" stroke-linejoin="round"/>
<path d="M18.11 27.9199C18.11 28.5899 17.57 29.1299 16.91 29.1299C16.25 29.1299 15.71 28.5899 15.71 27.9199C15.71 27.2499 16.25 26.71 16.91 26.71C17.57 26.71 18.11 27.2599 18.11 27.9199Z" stroke="#0B2343" stroke-miterlimit="10" stroke-linecap="round" stroke-linejoin="round"/>
<path d="M23.0599 27.9199C23.0599 28.5899 22.52 29.1299 21.86 29.1299C21.2 29.1299 20.66 28.5899 20.66 27.9199C20.66 27.2499 21.2 26.71 21.86 26.71C22.52 26.71 23.0599 27.2599 23.0599 27.9199Z" stroke="#0B2343" stroke-miterlimit="10" stroke-linecap="round" stroke-linejoin="round"/>
</svg>
