<svg width="40" height="40" viewBox="0 0 40 40" fill="none" xmlns="http://www.w3.org/2000/svg">
<path d="M22.8549 29.2852H6.97727C5.88539 29.2852 5 28.4005 5 27.3086V13.7984C5 12.7066 5.88539 11.8212 6.97727 11.8212H27.1401C28.232 11.8212 29.1174 12.7066 29.1174 13.7984V20.8625" stroke="#0B2343" stroke-linecap="round" stroke-linejoin="round"/>
<path d="M21.6325 9.32666C21.6325 7.48959 20.1429 5.99997 18.3058 5.99997H15.8112C13.9741 5.99997 12.4845 7.48959 12.4845 9.32666" stroke="#0B2343" stroke-linecap="round" stroke-linejoin="round"/>
<path d="M27.0369 26.6971L24.9979 28.7361" stroke="#0B2343" stroke-linecap="round" stroke-linejoin="round"/>
<path d="M24.998 26.6971L27.037 28.7361" stroke="#0B2343" stroke-linecap="round" stroke-linejoin="round"/>
<path d="M28.4914 20.8626C25.1243 20.8626 22.3958 23.5912 22.3958 26.9583C22.3958 30.3261 25.1243 33.0554 28.4914 33.0554C31.8585 33.0554 34.5893 30.3261 34.5893 26.9583C34.5893 23.5912 31.8585 20.8626 28.4914 20.8626V20.8626Z" stroke="#0B2343" stroke-linecap="round" stroke-linejoin="round"/>
<path d="M27.6959 28.7102C27.6959 28.6096 27.7462 28.5593 27.8468 28.5593C27.8963 28.5593 27.9436 28.5906 27.9878 28.6538C28.1638 28.9174 28.3802 29.1331 28.6385 29.2992C28.896 29.466 29.1878 29.5491 29.5147 29.5491C29.7601 29.5491 29.9909 29.5019 30.2081 29.4081C30.4245 29.3129 30.6112 29.1849 30.7681 29.0211C30.9258 28.858 31.0493 28.6713 31.1407 28.4603C31.2314 28.25 31.2771 28.0252 31.2771 27.7867C31.2771 27.5543 31.2314 27.3326 31.1407 27.1223C31.0493 26.912 30.9258 26.7261 30.7681 26.566C30.6112 26.4053 30.4245 26.2788 30.2081 26.1843C29.9909 26.0898 29.7601 26.0426 29.5147 26.0426C29.5018 26.0426 29.4454 26.0494 29.3456 26.0616C29.2442 26.0746 29.1284 26.0982 28.9966 26.1325C28.8648 26.1668 28.7345 26.214 28.6049 26.2742C28.4769 26.3336 28.3802 26.4106 28.3177 26.5051C28.224 26.643 28.1417 26.7123 28.0731 26.7123C28.0228 26.7123 27.9893 26.6963 27.974 26.6651C27.958 26.6331 27.9535 26.5988 27.9596 26.5615L28.403 23.8847C28.4152 23.8154 28.4343 23.7712 28.4594 23.7521C28.4845 23.7339 28.5127 23.724 28.544 23.724H31.0325C31.076 23.724 31.1125 23.74 31.1407 23.7712C31.1689 23.8032 31.1834 23.8375 31.1834 23.8748C31.1834 23.9754 31.1331 24.0257 31.0325 24.0257H28.6948L28.3459 26.0616C28.5531 25.942 28.7604 25.859 28.9684 25.8117C29.1756 25.7645 29.3577 25.7408 29.5147 25.7408C29.7982 25.7408 30.0648 25.7965 30.3163 25.9062C30.567 26.0159 30.7856 26.1637 30.9708 26.3489C31.1567 26.5348 31.3038 26.7512 31.4143 26.9996C31.524 27.248 31.5788 27.5101 31.5788 27.7867C31.5788 28.0694 31.524 28.3368 31.4143 28.5875C31.3038 28.839 31.1567 29.0576 30.9708 29.2428C30.7856 29.4279 30.567 29.5758 30.3163 29.6855C30.0648 29.796 29.7982 29.8508 29.5147 29.8508C29.3136 29.8508 29.1238 29.8226 28.9448 29.7655C28.7657 29.7091 28.5988 29.6321 28.4449 29.5346C28.291 29.4379 28.1531 29.3258 28.0304 29.2001C27.9077 29.0744 27.8056 28.9426 27.7241 28.8047C27.7051 28.7795 27.6959 28.7483 27.6959 28.7102Z" stroke="#0B2343" stroke-linecap="round" stroke-linejoin="round"/>
</svg>
