<svg width="40" height="40" viewBox="0 0 40 40" fill="none" xmlns="http://www.w3.org/2000/svg">
<path d="M32.5634 26.9208C32.5634 23.5062 29.7944 20.7373 26.3755 20.7373C22.9566 20.7373 20.192 23.5062 20.192 26.9208C20.192 30.3354 22.9609 33.1087 26.3755 33.1087C29.7901 33.1087 32.5634 30.3397 32.5634 26.9208Z" stroke="#0B2343" stroke-miterlimit="10" stroke-linecap="round" stroke-linejoin="round"/>
<path d="M17.4891 28.3728H10.2617C9.01937 28.3728 8 27.3641 8 26.1111V12.5727C8 11.3304 9.00875 10.311 10.2617 10.311H30.2454C31.4878 10.311 32.5072 11.3198 32.5072 12.5727V21.1111" stroke="#0B2343" stroke-miterlimit="10" stroke-linecap="round" stroke-linejoin="round"/>
<path d="M16.5052 8.18738V7.7945C16.5052 6.807 17.3547 6 18.3953 6H22.0905C23.1417 6 23.9805 6.807 23.9805 7.7945V8.18738" stroke="#0B2343" stroke-miterlimit="10" stroke-linecap="round" stroke-linejoin="round"/>
<path d="M26.3656 23.499V30.4443" stroke="#0B2343" stroke-miterlimit="10" stroke-linecap="round" stroke-linejoin="round"/>
<path d="M22.8889 26.9722H29.8383" stroke="#0B2343" stroke-miterlimit="10" stroke-linecap="round" stroke-linejoin="round"/>
</svg>
