<svg width="40" height="40" viewBox="0 0 40 40" fill="none" xmlns="http://www.w3.org/2000/svg">
<path d="M22.8183 29.2371H6.97323C5.88358 29.2371 5 28.3542 5 27.2646V13.782C5 12.6924 5.88358 11.8088 6.97323 11.8088H27.0948C28.1845 11.8088 29.068 12.6924 29.068 13.782V20.8317" stroke="#0B2343" stroke-linecap="round" stroke-linejoin="round"/>
<path d="M21.5984 9.31982C21.5984 7.48651 20.1118 5.99994 18.2785 5.99994H15.789C13.9557 5.99994 12.4691 7.48651 12.4691 9.31982" stroke="#0B2343" stroke-linecap="round" stroke-linejoin="round"/>
<path d="M26.9918 26.6549L24.957 28.6897" stroke="#0B2343" stroke-linecap="round" stroke-linejoin="round"/>
<path d="M24.9572 26.6549L26.992 28.6897" stroke="#0B2343" stroke-linecap="round" stroke-linejoin="round"/>
<path d="M28.4434 20.8324C25.0832 20.8324 22.3602 23.5554 22.3602 26.9156C22.3602 30.2765 25.0832 33.0002 28.4434 33.0002C31.8036 33.0002 34.5288 30.2765 34.5288 26.9156C34.5288 23.5554 31.8036 20.8324 28.4434 20.8324V20.8324Z" stroke="#0B2343" stroke-linecap="round" stroke-linejoin="round"/>
<path d="M28.1481 28.0157C28.1481 27.9153 28.1983 27.8651 28.2986 27.8651C28.399 27.8651 28.4492 27.9153 28.4492 28.0157C28.4492 28.2354 28.4895 28.4369 28.5709 28.6225C28.653 28.8073 28.7625 28.9707 28.9009 29.1114C29.0385 29.2529 29.2012 29.3623 29.3898 29.4407C29.5776 29.519 29.7814 29.5578 30.0012 29.5578C30.2141 29.5578 30.4163 29.519 30.608 29.4407C30.7988 29.3623 30.9653 29.2529 31.1068 29.1114C31.2474 28.9707 31.3585 28.8073 31.4398 28.6225C31.5212 28.4369 31.5622 28.2354 31.5622 28.0157C31.5622 27.8149 31.5166 27.6241 31.4261 27.4424C31.3349 27.2599 31.217 27.0987 31.0733 26.9572C30.9288 26.8165 30.7676 26.7032 30.5889 26.6188C30.4102 26.5344 30.23 26.4858 30.0483 26.4728H30.0012C29.9008 26.4728 29.8506 26.4196 29.8506 26.3132C29.8506 26.2691 29.8643 26.2318 29.8924 26.1999C29.9213 26.1687 29.9571 26.1535 30.0012 26.1535H30.0384C30.1829 26.1466 30.319 26.1139 30.4483 26.0546C30.576 25.9946 30.6878 25.9178 30.7813 25.8242C30.8756 25.7299 30.9509 25.6204 31.0072 25.495C31.0642 25.3695 31.0923 25.2349 31.0923 25.0904C31.0923 24.9338 31.0642 24.7893 31.0072 24.657C30.9509 24.5262 30.8741 24.4099 30.7768 24.3095C30.6802 24.2091 30.5638 24.1308 30.4293 24.0746C30.2939 24.0175 30.1517 23.9894 30.0012 23.9894C29.8506 23.9894 29.7092 24.0198 29.5776 24.0791C29.4461 24.1384 29.3335 24.2168 29.2392 24.3141C29.1449 24.4114 29.0697 24.5262 29.0134 24.657C28.9571 24.7893 28.929 24.93 28.929 25.0806C28.929 25.1749 28.8758 25.222 28.7686 25.222C28.6689 25.222 28.618 25.1749 28.618 25.0806C28.618 24.8927 28.6545 24.7141 28.7267 24.5452C28.7982 24.3757 28.8971 24.2266 29.0225 24.0981C29.148 23.9696 29.2955 23.8693 29.4651 23.797C29.6339 23.7248 29.8126 23.689 30.0012 23.689C30.189 23.689 30.3677 23.7263 30.5372 23.8016C30.7068 23.8769 30.8536 23.9772 30.979 24.1027C31.1045 24.2282 31.2049 24.3772 31.2801 24.5498C31.3554 24.7224 31.3934 24.9019 31.3934 25.0904C31.3934 25.3094 31.3318 25.5246 31.2094 25.7345C31.0878 25.9444 30.9258 26.1345 30.7251 26.304C30.8634 26.3793 30.9996 26.4683 31.1349 26.5717C31.2695 26.6751 31.3896 26.7975 31.4969 26.9382C31.6033 27.0796 31.6908 27.2386 31.7599 27.4135C31.8291 27.5891 31.8634 27.7899 31.8634 28.0157C31.8634 28.2666 31.8132 28.5031 31.7128 28.7259C31.6124 28.9487 31.4778 29.1441 31.3083 29.3137C31.1395 29.4833 30.9418 29.6163 30.7159 29.7137C30.4901 29.8102 30.2521 29.8589 30.0012 29.8589C29.7502 29.8589 29.5122 29.8102 29.2864 29.7137C29.0605 29.6163 28.8628 29.4833 28.6933 29.3137C28.5245 29.1441 28.3906 28.9487 28.2941 28.7259C28.1967 28.5031 28.1481 28.2666 28.1481 28.0157Z" stroke="#0B2343" stroke-linecap="round" stroke-linejoin="round"/>
</svg>
