<svg width="40" height="40" viewBox="0 0 40 40" fill="none" xmlns="http://www.w3.org/2000/svg">
<path d="M23.1026 29.6082H7.00471C5.89768 29.6082 5 28.7113 5 27.6042V13.9066C5 12.7995 5.89768 11.9019 7.00471 11.9019H27.4473C28.5543 11.9019 29.452 12.7995 29.452 13.9066V21.0686" stroke="#0B2343" stroke-linecap="round" stroke-linejoin="round"/>
<path d="M21.8633 9.3728C21.8633 7.51024 20.353 5.99995 18.4905 5.99995H15.9612C14.0987 5.99995 12.5884 7.51024 12.5884 9.3728" stroke="#0B2343" stroke-linecap="round" stroke-linejoin="round"/>
<path d="M27.3427 26.9837L25.2754 29.051" stroke="#0B2343" stroke-linecap="round" stroke-linejoin="round"/>
<path d="M25.2756 26.9837L27.3429 29.051" stroke="#0B2343" stroke-linecap="round" stroke-linejoin="round"/>
<path d="M28.8175 21.0685C25.4037 21.0685 22.6373 23.8349 22.6373 27.2487C22.6373 30.6632 25.4037 33.4304 28.8175 33.4304C32.2313 33.4304 35.0001 30.6632 35.0001 27.2487C35.0001 23.8349 32.2313 21.0685 28.8175 21.0685V21.0685Z" stroke="#0B2343" stroke-linecap="round" stroke-linejoin="round"/>
<path d="M28.5911 30.0287C28.5911 30.0101 28.5973 29.9808 28.6104 29.9429L31.152 24.2857H28.381C28.279 24.2857 28.228 24.2347 28.228 24.1328C28.228 24.0941 28.2427 24.0594 28.2713 24.0277C28.2991 23.996 28.3362 23.9798 28.381 23.9798H31.4008C31.4896 23.9798 31.5391 24.0068 31.5491 24.0609C31.5584 24.115 31.5538 24.1706 31.5344 24.2278C31.0949 25.2158 30.6553 26.1908 30.2157 27.1526C29.7762 28.1144 29.3366 29.0893 28.897 30.0766C28.8654 30.1469 28.8144 30.1816 28.7441 30.1816C28.6421 30.1816 28.5911 30.1307 28.5911 30.0287Z" stroke="#0B2343" stroke-linecap="round" stroke-linejoin="round"/>
</svg>
