<svg width="40" height="40" viewBox="0 0 40 40" fill="none" xmlns="http://www.w3.org/2000/svg">
<path d="M19.5297 32.3467H8.66342C7.20042 32.3467 6 31.1588 6 29.6833V13.7403C6 12.2773 7.18791 11.0769 8.66342 11.0769H32.1965C33.6595 11.0769 34.8599 12.2648 34.8599 13.7403V29.6833C34.8599 31.1463 33.672 32.3467 32.1965 32.3467L30.4334 32.3592" stroke="#0B2343" stroke-miterlimit="10" stroke-linecap="round" stroke-linejoin="round"/>
<path d="M16.0159 8.57588V8.11323C16.0159 6.95033 17.0162 6 18.2417 6H22.5932C23.8311 6 24.8189 6.95033 24.8189 8.11323V8.57588" stroke="#0B2343" stroke-miterlimit="10" stroke-linecap="round" stroke-linejoin="round"/>
<path d="M30.2083 23.2685C30.2083 26.1445 24.969 34.0722 24.969 34.0722C24.969 34.0722 19.7297 26.157 19.7297 23.2685C19.7297 20.3925 22.0805 18.0542 24.969 18.0542C27.8575 18.0667 30.2083 20.3925 30.2083 23.2685Z" stroke="#0B2343" stroke-miterlimit="10" stroke-linecap="round" stroke-linejoin="round"/>
<path d="M24.969 24.1811C24.2563 24.1811 23.6686 23.6059 23.6686 22.8932C23.6686 22.1804 24.2437 21.6052 24.969 21.6052C25.6817 21.6052 26.2694 22.1804 26.2694 22.8932C26.2569 23.6059 25.6817 24.1811 24.969 24.1811Z" stroke="#0B2343" stroke-miterlimit="10" stroke-linecap="round" stroke-linejoin="round"/>
</svg>
