<svg width="40" height="40" viewBox="0 0 40 40" fill="none" xmlns="http://www.w3.org/2000/svg">
<path d="M22.8183 29.2371H6.97322C5.88358 29.2371 5 28.3542 5 27.2646V13.7821C5 12.6924 5.88358 11.8088 6.97322 11.8088H27.0948C28.1844 11.8088 29.068 12.6924 29.068 13.7821V20.8317" stroke="#0B2343" stroke-linecap="round" stroke-linejoin="round"/>
<path d="M21.5984 9.31982C21.5984 7.48652 20.1118 5.99995 18.2785 5.99995H15.789C13.9557 5.99995 12.4691 7.48652 12.4691 9.31982" stroke="#0B2343" stroke-linecap="round" stroke-linejoin="round"/>
<path d="M26.9917 26.6544L24.9569 28.6892" stroke="#0B2343" stroke-linecap="round" stroke-linejoin="round"/>
<path d="M24.957 26.6544L26.9918 28.6892" stroke="#0B2343" stroke-linecap="round" stroke-linejoin="round"/>
<path d="M28.4434 20.8319C25.0832 20.8319 22.3602 23.5549 22.3602 26.9151C22.3602 30.276 25.0832 32.9998 28.4434 32.9998C31.8036 32.9998 34.5288 30.276 34.5288 26.9151C34.5288 23.5549 31.8036 20.8319 28.4434 20.8319V20.8319Z" stroke="#0B2343" stroke-linecap="round" stroke-linejoin="round"/>
<path d="M29.6795 26.1252C29.4407 26.1252 29.2202 26.1693 29.0164 26.2567C28.8126 26.345 28.6355 26.4636 28.4849 26.6141C28.3343 26.7647 28.2172 26.9434 28.1321 27.1502C28.0477 27.357 28.0051 27.5768 28.0051 27.8087C28.0051 28.0467 28.0477 28.2695 28.1321 28.4763C28.2172 28.6839 28.3343 28.8626 28.4849 29.0124C28.6355 29.163 28.8126 29.2824 29.0164 29.3698C29.2202 29.458 29.4407 29.5021 29.6795 29.5021C29.9175 29.5021 30.1403 29.458 30.3471 29.3698C30.5539 29.2824 30.7341 29.163 30.8885 29.0124C31.0413 28.8626 31.1623 28.6839 31.2505 28.4763C31.3379 28.2695 31.382 28.0467 31.382 27.8087C31.382 27.5768 31.3379 27.357 31.2505 27.1502C31.1623 26.9434 31.0413 26.7647 30.8885 26.6141C30.7341 26.4636 30.5539 26.345 30.3471 26.2567C30.1403 26.1693 29.9175 26.1252 29.6795 26.1252ZM29.9236 23.7642C29.9487 23.714 29.9928 23.6889 30.0559 23.6889C30.1243 23.6889 30.1699 23.714 30.192 23.7642C30.214 23.8144 30.2125 23.8615 30.1874 23.9048L28.8423 26.0028C28.9609 25.9343 29.0978 25.8864 29.2514 25.8613C29.405 25.8362 29.5479 25.8241 29.6795 25.8241C29.9555 25.8241 30.214 25.8758 30.4558 25.9792C30.6969 26.0826 30.9083 26.224 31.0908 26.4027C31.2717 26.5814 31.4162 26.7913 31.5234 27.0331C31.6291 27.2742 31.6831 27.5296 31.6831 27.7996C31.6831 28.0756 31.6291 28.3341 31.5234 28.5752C31.4162 28.817 31.2717 29.0284 31.0908 29.2101C30.9083 29.3918 30.6969 29.5363 30.4558 29.6428C30.214 29.75 29.9555 29.8032 29.6795 29.8032C29.4095 29.8032 29.1541 29.75 28.913 29.6428C28.6712 29.5363 28.4613 29.3918 28.2826 29.2101C28.1039 29.0284 27.9633 28.817 27.8591 28.5752C27.7557 28.3341 27.704 28.0756 27.704 27.7996C27.704 27.592 27.7382 27.392 27.8074 27.1974C27.8766 27.0035 27.9709 26.8149 28.0895 26.6331L29.9236 23.7642Z" stroke="#0B2343" stroke-linecap="round" stroke-linejoin="round"/>
</svg>
