<svg width="40" height="40" viewBox="0 0 40 40" fill="none" xmlns="http://www.w3.org/2000/svg">
<path d="M22.8184 29.2378H6.97324C5.88358 29.2378 5 28.355 5 27.2653V13.7827C5 12.693 5.88358 11.8094 6.97324 11.8094H27.0949C28.1846 11.8094 29.0681 12.693 29.0681 13.7827V20.8323" stroke="#0B2343" stroke-linecap="round" stroke-linejoin="round"/>
<path d="M21.5987 9.31982C21.5987 7.4865 20.1121 5.99992 18.2788 5.99992H15.7893C13.9559 5.99992 12.4694 7.4865 12.4694 9.31982" stroke="#0B2343" stroke-linecap="round" stroke-linejoin="round"/>
<path d="M26.9921 26.6546L24.9573 28.6895" stroke="#0B2343" stroke-linecap="round" stroke-linejoin="round"/>
<path d="M24.9574 26.6546L26.9922 28.6895" stroke="#0B2343" stroke-linecap="round" stroke-linejoin="round"/>
<path d="M28.4437 20.8323C25.0835 20.8323 22.3605 23.5553 22.3605 26.9155C22.3605 30.2765 25.0835 33.0002 28.4437 33.0002C31.8039 33.0002 34.5291 30.2765 34.5291 26.9155C34.5291 23.5553 31.8039 20.8323 28.4437 20.8323V20.8323Z" stroke="#0B2343" stroke-linecap="round" stroke-linejoin="round"/>
<path d="M30.3034 24.3845L28.0739 28.0154H30.3034V24.3845ZM30.3407 23.7541C30.3597 23.71 30.3946 23.6879 30.4441 23.6879C30.4821 23.6879 30.5178 23.6993 30.5528 23.7206C30.587 23.7434 30.6045 23.7921 30.6045 23.8666V28.0154H31.1687C31.2691 28.0154 31.3193 28.0656 31.3193 28.1652C31.3193 28.2032 31.3048 28.2382 31.2767 28.2693C31.2486 28.3005 31.2121 28.3157 31.1687 28.3157H30.6045V29.6327C30.6045 29.6829 30.5885 29.7187 30.5574 29.7407C30.5254 29.7635 30.4912 29.7742 30.454 29.7742C30.4159 29.7742 30.3817 29.7635 30.3505 29.7407C30.3186 29.7187 30.3034 29.6829 30.3034 29.6327V28.3157H27.9051C27.8481 28.3157 27.8009 28.2929 27.7637 28.2458C27.7264 28.1986 27.7074 28.1469 27.7074 28.0906C27.7074 28.0656 27.7135 28.0336 27.7264 27.9964C27.7386 27.9583 27.7698 27.9051 27.8199 27.8367L30.3407 23.7541Z" stroke="#0B2343" stroke-linecap="round" stroke-linejoin="round"/>
</svg>
