<!-- Generated by IcoMoon.io -->
<svg version="1.1" xmlns="http://www.w3.org/2000/svg" width="1024" height="1024" viewBox="0 0 1024 1024">
<title></title>
<g id="icomoon-ignore">
</g>
<path fill="#000" d="M921.6 204.8h-51.2v768h51.2c56.32 0 102.4-46.080 102.4-102.4v-563.2c0-56.32-46.080-102.4-102.4-102.4zM0 307.2v563.2c0 56.32 46.080 102.4 102.4 102.4h51.2v-768h-51.2c-56.32 0-102.4 46.080-102.4 102.4zM686.080 97.28c-34.816-15.36-90.112-46.080-174.080-46.080s-139.264 30.72-174.080 46.080v107.52h-112.64v768h573.44v-768h-112.64v-107.52zM624.64 204.8h-225.28v-68.608c27.648-11.264 66.56-23.552 112.64-23.552s84.992 12.288 112.64 23.552v68.608z"></path>
</svg>
