<svg width="40" height="40" viewBox="0 0 40 40" fill="none" xmlns="http://www.w3.org/2000/svg">
<path d="M19.0693 29.3966H9.37594C8.07085 29.3966 7 28.3369 7 27.0207V12.7985C7 11.4935 8.05969 10.4226 9.37594 10.4226H30.3689C31.674 10.4226 32.7448 11.4823 32.7448 12.7985V21.0207" stroke="#0B2343" stroke-miterlimit="10" stroke-linecap="round" stroke-linejoin="round"/>
<path d="M15.9348 8.19189V7.77917C15.9348 6.7418 16.8271 5.89404 17.9203 5.89404H21.8021C22.9065 5.89404 23.7876 6.7418 23.7876 7.77917V8.19189" stroke="#0B2343" stroke-miterlimit="10" stroke-linecap="round" stroke-linejoin="round"/>
<path d="M34.8089 30.8165L29.4843 21.4351C28.9255 20.449 27.5028 20.449 26.9441 21.4351L21.6148 30.8165C21.0607 31.7885 21.7697 32.9999 22.8826 32.9999H33.5364C34.6586 32.9999 35.3582 31.7885 34.8089 30.8165Z" stroke="#0B2343" stroke-miterlimit="10" stroke-linecap="round" stroke-linejoin="round"/>
<path d="M28.2118 24.3271V28.5765" stroke="#0B2343" stroke-miterlimit="10" stroke-linecap="round" stroke-linejoin="round"/>
<path d="M28.2118 30.4302V30.5758" stroke="#0B2343" stroke-miterlimit="10" stroke-linecap="round" stroke-linejoin="round"/>
</svg>
