<svg width="40" height="40" viewBox="0 0 40 40" fill="none" xmlns="http://www.w3.org/2000/svg">
<path d="M22.8183 29.2373H6.97323C5.88358 29.2373 5 28.3545 5 27.2648V13.7823C5 12.6926 5.88358 11.809 6.97323 11.809H27.0948C28.1845 11.809 29.068 12.6926 29.068 13.7823V20.8319" stroke="#0B2343" stroke-width="0.966649" stroke-linecap="round" stroke-linejoin="round"/>
<path d="M21.5984 9.31982C21.5984 7.48651 20.1118 5.99994 18.2785 5.99994H15.789C13.9557 5.99994 12.4691 7.48651 12.4691 9.31982" stroke="#0B2343" stroke-width="0.966649" stroke-linecap="round" stroke-linejoin="round"/>
<path d="M26.9918 26.6544L24.957 28.6892" stroke="#0B2343" stroke-width="0.966649" stroke-linecap="round" stroke-linejoin="round"/>
<path d="M24.9572 26.6544L26.992 28.6892" stroke="#0B2343" stroke-width="0.966649" stroke-linecap="round" stroke-linejoin="round"/>
<path d="M28.4434 20.8322C25.0832 20.8322 22.3602 23.5551 22.3602 26.9153C22.3602 30.2763 25.0832 33 28.4434 33C31.8036 33 34.5288 30.2763 34.5288 26.9153C34.5288 23.5551 31.8036 20.8322 28.4434 20.8322V20.8322Z" stroke="#0B2343" stroke-width="0.966649" stroke-linecap="round" stroke-linejoin="round"/>
<path d="M30.2086 27.3378C30.4222 27.131 30.6002 26.9447 30.7446 26.7782C30.8891 26.6116 31.0032 26.4573 31.0883 26.3128C31.1727 26.1683 31.2336 26.0307 31.2716 25.8984C31.3096 25.7668 31.3286 25.6292 31.3286 25.4847C31.3286 25.2718 31.2921 25.0726 31.2199 24.8878C31.1477 24.703 31.0473 24.5426 30.9188 24.408C30.7903 24.2734 30.6336 24.1677 30.4488 24.0924C30.2633 24.0172 30.058 23.9799 29.8322 23.9799C29.6634 23.9799 29.4999 24.005 29.3432 24.0552C29.1866 24.1054 29.0436 24.1776 28.9151 24.2719C28.7866 24.3654 28.6756 24.4772 28.5813 24.6049C28.4878 24.7342 28.4186 24.8734 28.3745 25.0239C28.3494 25.1243 28.2992 25.1745 28.2239 25.1745C28.1236 25.1745 28.0734 25.1243 28.0734 25.0239C28.0734 24.8985 28.1144 24.7578 28.1958 24.6004C28.2772 24.4437 28.3965 24.2985 28.5532 24.1632C28.7098 24.0286 28.8999 23.9137 29.1227 23.8202C29.3448 23.7259 29.5942 23.6788 29.8702 23.6788C30.1143 23.6788 30.3432 23.7229 30.5568 23.8103C30.7697 23.8985 30.9568 24.0225 31.1165 24.1822C31.2762 24.3418 31.4016 24.535 31.4929 24.7608C31.5834 24.9867 31.629 25.2368 31.629 25.5129C31.629 25.8208 31.5552 26.1197 31.4077 26.4109C31.2602 26.7029 31.0237 26.9933 30.6983 27.2815L28.3083 29.5011H31.4693C31.5126 29.5011 31.5491 29.5171 31.5773 29.5483C31.6054 29.5795 31.6199 29.6144 31.6199 29.6517C31.6199 29.6889 31.6054 29.7239 31.5773 29.7551C31.5491 29.787 31.5126 29.8022 31.4693 29.8022H28.0734C27.9289 29.8022 27.8574 29.7635 27.8574 29.6844C27.8574 29.6068 27.8947 29.5293 27.97 29.454L30.2086 27.3378Z" stroke="#0B2343" stroke-width="0.966649" stroke-linecap="round" stroke-linejoin="round"/>
</svg>
