<svg xmlns="http://www.w3.org/2000/svg" viewBox="0 0 26.53 21.5"><g id="Layer_2" data-name="Layer 2"><g id="Layer_1-2" data-name="Layer 1"><path d="M12.54,21.47a.35.35,0,0,1-.35-.35V9a.35.35,0,0,1,.35-.35.34.34,0,0,1,.35.35V21.12A.35.35,0,0,1,12.54,21.47Z"/><path d="M22.61,21.47a.35.35,0,0,1-.35-.35V8.72a.34.34,0,0,1,.35-.35.35.35,0,0,1,.35.35v12.4A.35.35,0,0,1,22.61,21.47Z"/><path d="M24.31,21.5H10.88a2.22,2.22,0,0,1-2.21-2.22v-8.7a2.21,2.21,0,0,1,2.21-2.21H24.31a2.22,2.22,0,0,1,2.22,2.21v8.7A2.23,2.23,0,0,1,24.31,21.5ZM10.88,9.07a1.52,1.52,0,0,0-1.51,1.51v8.7a1.52,1.52,0,0,0,1.51,1.52H24.31a1.52,1.52,0,0,0,1.52-1.52v-8.7a1.52,1.52,0,0,0-1.52-1.51Z"/><path d="M20.85,7.29a.35.35,0,0,1-.35-.35,2,2,0,0,0-2-2H16.7a2,2,0,0,0-2,2,.35.35,0,1,1-.7,0A2.72,2.72,0,0,1,16.7,4.22h1.78A2.72,2.72,0,0,1,21.2,6.94.35.35,0,0,1,20.85,7.29Z"/><path d="M3.87,17a.35.35,0,0,1-.35-.35V4.42a.35.35,0,0,1,.7,0V16.63A.35.35,0,0,1,3.87,17Z"/><path d="M6.22,17H1.81A1.82,1.82,0,0,1,0,15.2V5.88A1.82,1.82,0,0,1,1.81,4.07H12a.35.35,0,0,1,.35.35.34.34,0,0,1-.35.35H1.81A1.11,1.11,0,0,0,.7,5.88V15.2a1.11,1.11,0,0,0,1.11,1.11H6.22a.35.35,0,0,1,.35.35A.35.35,0,0,1,6.22,17Z"/><path d="M12,3a.35.35,0,0,1-.35-.35,2,2,0,0,0-2-2H7.92a2,2,0,0,0-2,2A.35.35,0,0,1,5.6,3a.35.35,0,0,1-.35-.35A2.68,2.68,0,0,1,7.92,0H9.67a2.68,2.68,0,0,1,2.68,2.68A.35.35,0,0,1,12,3Z"/></g></g></svg>