<svg width="42" height="42" viewBox="0 0 42 42" fill="none" xmlns="http://www.w3.org/2000/svg">
<path fill-rule="evenodd" clip-rule="evenodd" d="M0.5 21C0.5 9.6961 9.69611 0.5 21 0.5C32.3039 0.5 41.4999 9.6961 41.4999 21C41.4999 32.3039 32.3039 41.5 21 41.5C9.69611 41.5 0.5 32.3039 0.5 21ZM21 1.5C10.2484 1.5 1.5 10.2484 1.5 21C1.5 31.7516 10.2484 40.5 21 40.5C31.7516 40.5 40.4999 31.7516 40.4999 21C40.4999 10.2484 31.7516 1.5 21 1.5Z" fill="#97C8D8"/>
<path fill-rule="evenodd" clip-rule="evenodd" d="M22.0335 8C19.2721 8 17.0335 10.2386 17.0335 13C17.0335 15.7614 19.2721 18 22.0335 18C24.7949 18 27.0335 15.7614 27.0335 13C27.0335 10.2386 24.7949 8 22.0335 8ZM22.0335 7C18.7198 7 16.0335 9.68629 16.0335 13C16.0335 16.3137 18.7198 19 22.0335 19C25.3472 19 28.0335 16.3137 28.0335 13C28.0335 9.68629 25.3472 7 22.0335 7Z" fill="#97C8D8"/>
<path fill-rule="evenodd" clip-rule="evenodd" d="M20.25 15.433C20.0109 15.5711 19.7051 15.4891 19.567 15.25C18.4186 13.2609 19.1061 10.717 21.0981 9.56697C21.3372 9.4289 21.643 9.51083 21.7811 9.74998C21.9191 9.98913 21.8372 10.2949 21.5981 10.433C20.0818 11.3084 19.5622 13.2417 20.433 14.75C20.5711 14.9891 20.4892 15.2949 20.25 15.433Z" fill="#97C8D8"/>
<path fill-rule="evenodd" clip-rule="evenodd" d="M10.0336 22.9999C8.37671 22.9999 7.03357 24.343 7.03357 25.9999C7.03357 27.6567 8.37672 28.9999 10.0336 28.9999C11.6904 28.9999 13.0336 27.6567 13.0336 25.9999C13.0336 24.343 11.6904 22.9999 10.0336 22.9999ZM10.0336 21.9999C7.82443 21.9999 6.03357 23.7907 6.03357 25.9999C6.03357 28.209 7.82443 29.9999 10.0336 29.9999C12.2427 29.9999 14.0336 28.209 14.0336 25.9999C14.0336 23.7907 12.2427 21.9999 10.0336 21.9999Z" fill="#97C8D8"/>
<path fill-rule="evenodd" clip-rule="evenodd" d="M32.0335 24C30.3767 24 29.0335 25.3431 29.0335 27C29.0335 28.6569 30.3767 30 32.0335 30C33.6904 30 35.0335 28.6569 35.0335 27C35.0335 25.3431 33.6904 24 32.0335 24ZM32.0335 23C29.8244 23 28.0335 24.7909 28.0335 27C28.0335 29.2091 29.8244 31 32.0335 31C34.2426 31 36.0335 29.2091 36.0335 27C36.0335 24.7909 34.2426 23 32.0335 23Z" fill="#97C8D8"/>
<path fill-rule="evenodd" clip-rule="evenodd" d="M26.0336 16.9999L31.0336 23.9999L30.2198 24.5811L25.2198 17.5811L26.0336 16.9999Z" fill="#97C8D8"/>
<path fill-rule="evenodd" clip-rule="evenodd" d="M19.0335 17.9172L12.9508 24L12.2437 23.2929L18.3264 17.2101L19.0335 17.9172Z" fill="#97C8D8"/>
<path d="M17.7806 29.632C16.8446 29.632 16.2026 30.148 16.2026 30.898C16.2026 31.834 16.9346 32.026 17.7386 32.23C18.3446 32.386 18.6206 32.458 18.6206 32.836C18.6206 33.172 18.3326 33.382 17.8826 33.382C17.3366 33.382 17.0546 33.112 17.0546 32.596H16.1426C16.1426 33.568 16.8086 34.096 17.8706 34.096C18.8666 34.096 19.5386 33.556 19.5386 32.746C19.5386 31.816 18.8426 31.606 18.0386 31.408C17.3666 31.24 17.1086 31.132 17.1086 30.802C17.1086 30.526 17.3726 30.334 17.7626 30.334C18.2486 30.334 18.5066 30.592 18.5066 31.036H19.4006C19.4006 30.118 18.8486 29.632 17.7806 29.632Z" fill="#97C8D8"/>
<path d="M22.033 29.632C20.779 29.632 20.011 30.478 20.011 31.864C20.011 33.25 20.779 34.096 22.033 34.096C23.287 34.096 24.055 33.25 24.055 31.864C24.055 30.478 23.287 29.632 22.033 29.632ZM22.033 30.412C22.723 30.412 23.143 30.964 23.143 31.864C23.143 32.764 22.723 33.316 22.033 33.316C21.343 33.316 20.923 32.764 20.923 31.864C20.923 30.964 21.343 30.412 22.033 30.412Z" fill="#97C8D8"/>
<path d="M25.6573 32.134C24.9553 32.134 24.5353 32.482 24.5233 33.118H25.2673C25.2733 32.848 25.4053 32.704 25.6573 32.704C25.8673 32.704 25.9873 32.818 25.9873 32.986C25.9873 33.25 25.7413 33.394 25.3273 33.61C24.6673 33.958 24.4873 34.312 24.4873 34.894C24.4873 34.942 24.4873 34.99 24.4933 35.032H26.8273V34.438H25.3633C25.3753 34.288 25.4773 34.18 25.9933 33.928C26.4313 33.712 26.7553 33.478 26.7553 32.98C26.7553 32.482 26.3293 32.134 25.6573 32.134Z" fill="#97C8D8"/>
</svg>
