<svg width="40" height="40" viewBox="0 0 40 40" fill="none" xmlns="http://www.w3.org/2000/svg">
<path d="M23.93 15C23.93 15 21.82 15.5498 21.82 18.3398C21.82 21.8598 25.74 25.03 28.81 25.03C31.88 25.03 33.7199 23.1699 33.5099 19.0999C33.3099 15.0299 30.0299 15 30.0299 15H10.71C10.71 15 7.44001 15.0299 7.23001 19.0999C7.03001 23.1699 8.86997 25.03 11.93 25.03C15 25.03 18.92 21.8598 18.92 18.3398C18.92 15.5498 16.81 15 16.81 15" stroke="#0B2343" stroke-miterlimit="10" stroke-linecap="round" stroke-linejoin="round"/>
<path d="M18.9099 18.0601C18.9099 17.5701 19.56 17.1799 20.37 17.1799C21.18 17.1799 21.83 17.5701 21.83 18.0601" stroke="#0B2343" stroke-miterlimit="10" stroke-linecap="round" stroke-linejoin="round"/>
<path d="M6 17H7.73999" stroke="#0B2343" stroke-miterlimit="10" stroke-linecap="round" stroke-linejoin="round"/>
<path d="M33.0099 17H34.7999" stroke="#0B2343" stroke-miterlimit="10" stroke-linecap="round" stroke-linejoin="round"/>
<path d="M9.07996 18.6899L10.98 16.77" stroke="#0B2343" stroke-miterlimit="10" stroke-linecap="round" stroke-linejoin="round"/>
<path d="M9.66992 20.6699L12.62 17.6799" stroke="#0B2343" stroke-miterlimit="10" stroke-linecap="round" stroke-linejoin="round"/>
</svg>
