<svg width="40" height="40" viewBox="0 0 40 40" fill="none" xmlns="http://www.w3.org/2000/svg">
<path d="M28.8249 28.3674C30.7429 26.4494 30.7429 23.3397 28.8249 21.4216C26.9068 19.5036 23.7971 19.5036 21.879 21.4216C19.961 23.3397 19.961 26.4494 21.879 28.3674C23.7971 30.2855 26.9068 30.2855 28.8249 28.3674Z" stroke="#0B2343" stroke-miterlimit="10" stroke-linecap="round" stroke-linejoin="round"/>
<path d="M23.7245 26.6774C24.1583 27.0531 24.8277 27.3366 25.3093 27.3366C26.0812 27.3366 26.7062 26.7901 26.7062 26.1138C26.7062 25.4375 26.0368 25.1062 25.3093 24.8911C24.5545 24.6554 23.9123 24.3446 23.9123 23.6683C23.9123 22.992 24.5374 22.4456 25.3093 22.4456C25.8284 22.4456 26.2827 22.6949 26.5252 23.0604" stroke="#0B2343" stroke-miterlimit="10" stroke-linecap="round" stroke-linejoin="round"/>
<path d="M25.3093 21.7795V28.006" stroke="#0B2343" stroke-miterlimit="10" stroke-linecap="round" stroke-linejoin="round"/>
<path d="M34.1055 33.0002H16.6749C15.3355 33.0002 14.2485 31.9132 14.2485 30.5739V19.2867C14.2485 17.9473 15.3355 16.8604 16.6749 16.8604H34.1055C35.4448 16.8604 36.5318 17.9473 36.5318 19.2867V30.5739C36.5318 31.9132 35.4448 33.0002 34.1055 33.0002Z" stroke="#0B2343" stroke-miterlimit="10" stroke-linecap="round" stroke-linejoin="round"/>
<path d="M29.612 14.5502C29.612 12.8518 28.2339 11.4736 26.5355 11.4736H24.2256C22.5272 11.4736 21.149 12.8518 21.149 14.5502" stroke="#0B2343" stroke-miterlimit="10" stroke-linecap="round" stroke-linejoin="round"/>
<path d="M7.57117 11.2893V27.1283" stroke="#0B2343" stroke-miterlimit="10" stroke-linecap="round" stroke-linejoin="round"/>
<path d="M18.179 11.2893H4.89252C3.84436 11.2893 3 12.1337 3 13.1818V25.2746C3 26.3228 3.84436 27.1671 4.89252 27.1671H10.6186" stroke="#0B2343" stroke-miterlimit="10" stroke-linecap="round" stroke-linejoin="round"/>
<path d="M9.81311 9.01832C9.81311 7.34902 11.1621 6 12.8314 6H15.1025C16.7718 6 18.1208 7.34902 18.1208 9.01832" stroke="#0B2343" stroke-miterlimit="10" stroke-linecap="round" stroke-linejoin="round"/>
</svg>
