<svg width="40" height="40" viewBox="0 0 40 40" fill="none" xmlns="http://www.w3.org/2000/svg">
<path d="M22 32.4064H5.37901C4.0658 32.4064 3 31.3502 3 30.0487V14.9593C3 13.6578 4.0658 12.6016 5.37901 12.6016H28.2175C29.5307 12.6016 30.5965 13.6578 30.5965 14.9593V20.0283" stroke="#0B2343" stroke-miterlimit="10" stroke-linecap="round" stroke-linejoin="round"/>
<path d="M22.0321 9.77236C22.0321 7.68813 20.3287 6 18.2257 6H15.3709C13.2678 6 11.5645 7.68813 11.5645 9.77236" stroke="#0B2343" stroke-miterlimit="10" stroke-linecap="round" stroke-linejoin="round"/>
<path d="M11.5644 12.6016H6.8064V32.4064H11.5644V12.6016Z" stroke="#0B2343" stroke-miterlimit="10" stroke-linecap="round" stroke-linejoin="round"/>
<path d="M26.7901 12.6016H22.0321V32.4064" stroke="#0B2343" stroke-miterlimit="10" stroke-linecap="round" stroke-linejoin="round"/>
<path d="M27.0321 12.6016V20" stroke="#0B2343" stroke-miterlimit="10" stroke-linecap="round" stroke-linejoin="round"/>
<path d="M36.8581 31.9726L31.7099 22.9944C31.1675 22.0513 29.7972 22.0513 29.2547 22.9944L24.1066 31.9726C23.5737 32.9063 24.2493 34.0569 25.3341 34.0569H35.621C36.7153 34.0569 37.391 32.9063 36.8581 31.9726Z" stroke="#0B2343" stroke-miterlimit="10" stroke-linecap="round" stroke-linejoin="round"/>
<path d="M30.4918 25.7578V29.8225" stroke="#0B2343" stroke-miterlimit="10" stroke-linecap="round" stroke-linejoin="round"/>
<path d="M30.4918 31.6047V31.7462" stroke="#0B2343" stroke-miterlimit="10" stroke-linecap="round" stroke-linejoin="round"/>
</svg>
