<svg width="40" height="40" viewBox="0 0 40 40" fill="none" xmlns="http://www.w3.org/2000/svg">
<path d="M19.2581 33.6907V17.5422" stroke="#0B2343" stroke-width="0.996815" stroke-miterlimit="10" stroke-linecap="round" stroke-linejoin="round"/>
<path d="M32.6752 17.1536V33.6907" stroke="#0B2343" stroke-width="0.996815" stroke-miterlimit="10" stroke-linecap="round" stroke-linejoin="round"/>
<path d="M34.9479 33.7306H17.0451C15.6695 33.7306 14.5531 32.6142 14.5531 31.2386V19.6456C14.5531 18.27 15.6695 17.1536 17.0451 17.1536H34.9479C36.3235 17.1536 37.44 18.27 37.44 19.6456V31.2386C37.44 32.6142 36.3235 33.7306 34.9479 33.7306Z" stroke="#0B2343" stroke-width="0.996815" stroke-miterlimit="10" stroke-linecap="round" stroke-linejoin="round"/>
<path d="M30.3326 14.7815C30.3326 13.0371 28.9171 11.6216 27.1727 11.6216H24.8003C23.0559 11.6216 21.6404 13.0371 21.6404 14.7815" stroke="#0B2343" stroke-width="0.996815" stroke-miterlimit="10" stroke-linecap="round" stroke-linejoin="round"/>
<path d="M7.69507 11.4326V27.7006" stroke="#0B2343" stroke-width="0.996815" stroke-miterlimit="10" stroke-linecap="round" stroke-linejoin="round"/>
<path d="M18.5902 11.4326H4.94379C3.86723 11.4326 3 12.2999 3 13.3764V25.7967C3 26.8733 3.86723 27.7405 4.94379 27.7405H10.825" stroke="#0B2343" stroke-width="0.996815" stroke-miterlimit="10" stroke-linecap="round" stroke-linejoin="round"/>
<path d="M9.99768 9.10008C9.99768 7.38556 11.3833 6 13.0978 6H15.4303C17.1448 6 18.5304 7.38556 18.5304 9.10008" stroke="#0B2343" stroke-width="0.996815" stroke-miterlimit="10" stroke-linecap="round" stroke-linejoin="round"/>
</svg>
