<svg width="40" height="40" viewBox="0 0 40 40" fill="none" xmlns="http://www.w3.org/2000/svg">
<path d="M2.99998 30.6096H37.2177" stroke="#0B2343" stroke-miterlimit="10" stroke-linecap="round" stroke-linejoin="round"/>
<path d="M7.1367 25.658L4.62992 17.5326C4.62992 17.5326 7.6677 16.7423 9.31005 17.9154" stroke="#0B2343" stroke-miterlimit="10" stroke-linecap="round" stroke-linejoin="round"/>
<path d="M15.2372 25.658C15.2372 25.658 14.9163 20.2122 12.1132 10C12.1132 10 18.6579 11.2966 21.2017 19.1256" stroke="#0B2343" stroke-miterlimit="10" stroke-linecap="round" stroke-linejoin="round"/>
<path d="M19.3618 21.0273C19.3618 21.0273 21.8438 16.73 28.6108 17.2733L25.4866 25.658" stroke="#0B2343" stroke-miterlimit="10" stroke-linecap="round" stroke-linejoin="round"/>
<path d="M28.9564 21.7311C28.9564 21.7311 30.3642 18.2982 36.2297 19.7307C36.2297 19.7307 32.8339 22.9414 31.7719 24.7566" stroke="#0B2343" stroke-miterlimit="10" stroke-linecap="round" stroke-linejoin="round"/>
<path d="M13.8419 16.9771C13.8419 16.9771 12.4094 14.7667 8.90245 14.5198L10.1373 23.065" stroke="#0B2343" stroke-miterlimit="10" stroke-linecap="round" stroke-linejoin="round"/>
<path d="M3.48144 30.6096V24.4353H6.75382" stroke="#0B2343" stroke-miterlimit="10" stroke-linecap="round" stroke-linejoin="round"/>
<path d="M33.2291 22.855L35.5259 24.6949V30.3505" stroke="#0B2343" stroke-miterlimit="10" stroke-linecap="round" stroke-linejoin="round"/>
<path d="M6.1982 25.6582H25.4866L26.0669 26.9423H35.5259" stroke="#0B2343" stroke-miterlimit="10" stroke-linecap="round" stroke-linejoin="round"/>
</svg>
