<?xml version="1.0" encoding="utf-8"?>
<!-- Generator: Adobe Illustrator 23.0.0, SVG Export Plug-In . SVG Version: 6.00 Build 0)  -->
<svg version="1.1" id="Layer_1" xmlns="http://www.w3.org/2000/svg" xmlns:xlink="http://www.w3.org/1999/xlink" x="0px" y="0px"
	 viewBox="0 0 29 29" style="enable-background:new 0 0 29 29;" xml:space="preserve">
<g>
	<path d="M16.5,18.4c-0.1,0-0.1,0-0.2,0c-0.5,0-0.9,0.3-1.3,0.6c-0.4,0.4-0.6,0.8-0.6,1.3c0,0.4,0.1,0.8,0.3,1.1
		c0.3,0.3,0.6,0.4,1.1,0.3c0.5,0,0.9-0.3,1.3-0.6c0.4-0.4,0.6-0.8,0.6-1.3c0-0.4-0.1-0.8-0.3-1.1C17.2,18.5,16.9,18.4,16.5,18.4z"/>
	<path d="M16.6,12.8c0.4-0.4,0.6-0.8,0.6-1.3c0-0.4-0.1-0.8-0.3-1.1c-0.2-0.2-0.5-0.3-0.9-0.3c-0.1,0-0.1,0-0.2,0
		c-0.5,0-0.9,0.3-1.3,0.6c-0.7,0.7-0.9,1.8-0.3,2.4C14.8,13.7,15.9,13.6,16.6,12.8z"/>
	<path d="M28.6,15C18.2,4.6,20.3,6.8,13.8,0.3C13.4-0.1,12.9,0,12.3,0L1.1,0.1C0.5,0.1,0,0.5,0,1.2l0.1,12c0,0.3,0.1,0.6,0.3,0.8
		c0.2,0.2,14.8,14.7,15.1,14.9c0.5,0.2,0.9,0.1,1.2-0.2l11.9-12C29.1,16.1,29.1,15.4,28.6,15z M13.7,9.9c0.6-0.6,1.3-0.9,2-1
		c0.8-0.1,1.5,0.2,2,0.7c1,1,0.9,2.9-0.3,4.1c-0.7,0.7-1.5,1-2.3,1c-0.7,0-1.3-0.2-1.7-0.7C12.4,13,12.5,11.1,13.7,9.9z M4.6,8.3
		c-1-1-1-2.7,0-3.7c1-1,2.7-1,3.7,0c1,1,1,2.7,0,3.7C7.3,9.4,5.7,9.4,4.6,8.3z M17.9,22c-0.6,0.6-1.3,0.9-2,1c-0.1,0-0.2,0-0.3,0
		c-0.7,0-1.3-0.2-1.7-0.7c-0.5-0.5-0.8-1.2-0.7-2c0.1-0.7,0.4-1.5,1-2c0.6-0.6,1.3-0.9,2-1c0.8-0.1,1.5,0.2,2,0.7
		c0.5,0.5,0.8,1.2,0.7,2C18.9,20.7,18.5,21.4,17.9,22z M22.1,15.5l-12.4,2c0,0-0.1,0-0.1,0C9.3,17.5,9,17.3,9,17
		c-0.1-0.3,0.2-0.6,0.5-0.7l12.4-2c0.3-0.1,0.6,0.2,0.7,0.5C22.6,15.1,22.4,15.4,22.1,15.5z"/>
</g>
</svg>
