<svg width="40" height="40" viewBox="0 0 40 40" fill="none" xmlns="http://www.w3.org/2000/svg">
<path d="M23.25 14.5801C28.86 14.9801 33.38 16.47 33.38 18.24C33.38 20.32 27.2799 21.8101 20.1899 21.8101C13.0999 21.8101 7 20.32 7 18.24C7 16.94 9.60001 15.7899 13.01 15.1199" stroke="#0B2343" stroke-miterlimit="10" stroke-linecap="round" stroke-linejoin="round"/>
<path d="M7.70996 19.47V30.8601C7.70996 33.0001 13.4899 34.74 20.1899 34.74C26.8899 34.74 32.67 33.0001 32.67 30.8601V19.47" stroke="#0B2343" stroke-miterlimit="10" stroke-linecap="round" stroke-linejoin="round"/>
<path d="M10.79 23.6199L20.1899 32.1599L29.59 23.6101" stroke="#0B2343" stroke-miterlimit="10" stroke-linecap="round" stroke-linejoin="round"/>
<path d="M10.79 30.6599L20.1899 24.6001L29.58 30.6599" stroke="#0B2343" stroke-miterlimit="10" stroke-linecap="round" stroke-linejoin="round"/>
<path d="M19.5599 17.71C19.5599 18.36 19.03 18.8899 18.37 18.8899C17.72 18.8899 17.1899 18.36 17.1899 17.71C17.1899 17.06 17.72 16.52 18.37 16.52C19.03 16.53 19.5599 17.06 19.5599 17.71Z" stroke="#0B2343" stroke-miterlimit="10" stroke-linecap="round" stroke-linejoin="round"/>
<path d="M7.59998 6.51001L17.5599 16.8601" stroke="#0B2343" stroke-miterlimit="10" stroke-linecap="round" stroke-linejoin="round"/>
<path d="M19.14 14.17C18.5 14.02 18.11 13.3801 18.26 12.7401C18.41 12.1001 19.0499 11.7102 19.6899 11.8602C20.3299 12.0102 20.7199 12.6501 20.5699 13.2901C20.4199 13.9301 19.78 14.32 19.14 14.17Z" stroke="#0B2343" stroke-miterlimit="10" stroke-linecap="round" stroke-linejoin="round"/>
<path d="M31.37 6L20.49 12.51" stroke="#0B2343" stroke-miterlimit="10" stroke-linecap="round" stroke-linejoin="round"/>
</svg>
