<?xml version="1.0" encoding="utf-8"?>
<!-- Generator: Adobe Illustrator 22.1.0, SVG Export Plug-In . SVG Version: 6.00 Build 0)  -->
<svg version="1.1" id="Layer_1" xmlns="http://www.w3.org/2000/svg" xmlns:xlink="http://www.w3.org/1999/xlink" x="0px" y="0px"
	 viewBox="0 0 30 30" style="enable-background:new 0 0 30 30;" xml:space="preserve">
<style type="text/css">
	.st0{fill:#007DC3;}
</style>
<g>
	<g>
		<path class="st0" d="M24.1,20.9h-7.3c-0.2,0-0.4-0.2-0.4-0.4s0.2-0.4,0.4-0.4h7.3c0.2,0,0.4,0.2,0.4,0.4S24.3,20.9,24.1,20.9z"/>
	</g>
	<g>
		<path class="st0" d="M27.4,25.7H2.6c-1.1,0-2-0.9-2-2V7.5c0-1.1,0.9-2,2-2h24.8c1.1,0,2,0.9,2,2v16.2
			C29.4,24.8,28.5,25.7,27.4,25.7z M2.6,6.3c-0.7,0-1.2,0.6-1.2,1.2v16.2c0,0.7,0.6,1.2,1.2,1.2h24.8c0.7,0,1.2-0.5,1.2-1.2V7.5
			c0-0.7-0.5-1.2-1.2-1.2H2.6z"/>
	</g>
	<g>
		<path class="st0" d="M29,14.8H1c-0.2,0-0.4-0.2-0.4-0.4V9.6c0-0.2,0.2-0.4,0.4-0.4h28c0.2,0,0.4,0.2,0.4,0.4v4.8
			C29.4,14.6,29.2,14.8,29,14.8z M1.3,14h27.3V10H1.3V14z"/>
	</g>
</g>
</svg>
