<svg width="40" height="40" viewBox="0 0 40 40" fill="none" xmlns="http://www.w3.org/2000/svg">
<path d="M20.4613 22.9619C17.9413 22.9519 17.5412 29.9818 17.5112 33.4118C17.5012 34.4218 16.4312 35.0019 15.6212 34.4619C6.98122 28.6719 6.62126 18.7218 7.16126 13.5518C7.63126 9.04182 11.3213 5.91189 14.1613 6.00189C16.1013 6.06189 18.1113 6.55179 19.3313 6.90179C20.0713 7.12179 20.8613 7.12179 21.6013 6.90179C22.8113 6.55179 24.8312 6.06189 26.7712 6.00189C29.6112 5.92189 33.3012 9.04182 33.7712 13.5518C34.3112 18.7218 33.9513 28.6719 25.3113 34.4619C24.5013 35.0019 23.4313 34.4218 23.4213 33.4118C23.3913 29.9818 22.9913 22.9519 20.4613 22.9619Z" stroke="#0B2343" stroke-miterlimit="10" stroke-linecap="round" stroke-linejoin="round"/>
<path d="M13.8313 9.85181C13.8313 9.85181 16.3113 12.4018 22.0513 11.6418C24.6913 11.2918 25.8013 10.4117 26.3313 10.0217" stroke="#0B2343" stroke-miterlimit="10" stroke-linecap="round" stroke-linejoin="round"/>
</svg>
