<svg width="40" height="40" viewBox="0 0 40 40" fill="none" xmlns="http://www.w3.org/2000/svg">
<path d="M19.4418 28.3552C17.7346 28.3484 17.4635 33.1112 17.4432 35.435C17.4364 36.1192 16.7115 36.5122 16.1627 36.1464C10.3092 32.2237 10.0653 25.4826 10.4312 21.98C10.7496 18.9245 13.2495 16.804 15.1736 16.8649C16.4879 16.9056 17.8497 17.2375 18.6763 17.4746C19.1776 17.6237 19.7129 17.6237 20.2142 17.4746C21.034 17.2375 22.4024 16.9056 23.7168 16.8649C25.6409 16.8107 28.1408 18.9245 28.4592 21.98C28.8251 25.4826 28.5812 32.2237 22.7277 36.1464C22.1789 36.5122 21.454 36.1192 21.4472 35.435C21.4269 33.1112 21.1559 28.3484 19.4418 28.3552Z" stroke="#0B2343" stroke-miterlimit="10" stroke-linecap="round" stroke-linejoin="round"/>
<path d="M14.9501 19.4731C14.9501 19.4731 16.6303 21.2008 20.5191 20.6859C22.3077 20.4488 23.0597 19.8525 23.4188 19.5883" stroke="#0B2343" stroke-miterlimit="10" stroke-linecap="round" stroke-linejoin="round"/>
<path d="M19.6325 9.40818V4.36292" stroke="#0B2343" stroke-miterlimit="10" stroke-linecap="round" stroke-linejoin="round"/>
<path d="M27.1165 12.5483L30.9999 8.46603" stroke="#0B2343" stroke-miterlimit="10" stroke-linecap="round" stroke-linejoin="round"/>
<path d="M8.27536 8.46603L12.1587 12.5483" stroke="#0B2343" stroke-miterlimit="10" stroke-linecap="round" stroke-linejoin="round"/>
</svg>
