<svg viewBox="0 0 67 67" fill="none" xmlns="http://www.w3.org/2000/svg">
<g clip-path="url(#clip0_5136_46632)">
<rect x="1" y="1" width="65" height="65" rx="32.5" fill="#004990" fill-opacity="0.05"/>
<path d="M48.6932 19.7886H33.1329C32.9976 19.9239 32.8082 20.3569 33.1329 21.0064C33.4577 21.6559 38.0491 29.3954 40.3042 33.184C40.5297 33.5448 41.2784 34.2935 42.4691 34.4017C43.6598 34.51 48.6481 34.4468 50.7228 34.4017" stroke="#004990"/>
<path d="M35.3277 48.3383H49.7759C50.1367 48.3383 50.8584 48.1488 50.8584 47.3911C50.8584 46.6334 50.8584 31.9211 50.8584 24.6596C50.3171 21.7731 47.6922 16 41.5222 16C35.3522 16 6.65821 16 -6.91755 16C-7.27837 16.0451 -8 16.3518 -8 17.2178C-8 18.0837 -8 37.2431 -8 46.7146C-7.9098 47.0754 -7.56702 47.797 -6.91755 47.797C-6.66427 47.797 -2.08156 47.8519 4.27397 47.9296M4.27397 47.9296L11.726 48.021M4.27397 47.9296C6.56721 47.9576 9.09126 47.9886 11.726 48.021M11.726 48.021L24.7123 48.1322" stroke="#004990"/>
<path d="M41.793 19.9239V34.4017" stroke="#004990"/>
<path d="M50 21.1829C49.7239 21.1829 49.5 21.4068 49.5 21.6829C49.5 21.959 49.7239 22.1829 50 22.1829V21.1829ZM54.1057 21.6829V22.1829C54.1293 22.1829 54.153 22.1812 54.1764 22.1779L54.1057 21.6829ZM56 26.4186L56.4699 26.5895C56.4898 26.5347 56.5 26.4769 56.5 26.4186H56ZM54.5965 27.7134C54.3401 27.8159 54.2154 28.1069 54.318 28.3633C54.4205 28.6197 54.7115 28.7444 54.9679 28.6419L54.5965 27.7134ZM50 22.1829H54.1057V21.1829H50V22.1829ZM54.1764 22.1779C54.4178 22.1434 54.7697 22.1699 55.0397 22.3257C55.2694 22.4582 55.5 22.7154 55.5 23.3066H56.5C56.5 22.3823 56.0992 21.7826 55.5396 21.4596C55.0202 21.1599 54.425 21.1322 54.035 21.1879L54.1764 22.1779ZM55.5 23.3066C55.5 23.3095 55.5 23.3125 55.5 23.3155C55.5 23.3184 55.5 23.3214 55.5 23.3243C55.5 23.3273 55.5 23.3302 55.5 23.3332C55.5 23.3361 55.5 23.3391 55.5 23.342C55.5 23.345 55.5 23.3479 55.5 23.3509C55.5 23.3538 55.5 23.3568 55.5 23.3597C55.5 23.3627 55.5 23.3656 55.5 23.3686C55.5 23.3715 55.5 23.3744 55.5 23.3774C55.5 23.3803 55.5 23.3833 55.5 23.3862C55.5 23.3891 55.5 23.3921 55.5 23.395C55.5 23.3979 55.5 23.4009 55.5 23.4038C55.5 23.4067 55.5 23.4097 55.5 23.4126C55.5 23.4155 55.5 23.4185 55.5 23.4214C55.5 23.4243 55.5 23.4272 55.5 23.4302C55.5 23.4331 55.5 23.436 55.5 23.4389C55.5 23.4419 55.5 23.4448 55.5 23.4477C55.5 23.4506 55.5 23.4535 55.5 23.4564C55.5 23.4594 55.5 23.4623 55.5 23.4652C55.5 23.4681 55.5 23.471 55.5 23.4739C55.5 23.4768 55.5 23.4798 55.5 23.4827C55.5 23.4856 55.5 23.4885 55.5 23.4914C55.5 23.4943 55.5 23.4972 55.5 23.5001C55.5 23.503 55.5 23.5059 55.5 23.5088C55.5 23.5117 55.5 23.5146 55.5 23.5175C55.5 23.5204 55.5 23.5233 55.5 23.5262C55.5 23.5291 55.5 23.532 55.5 23.5349C55.5 23.5378 55.5 23.5407 55.5 23.5436C55.5 23.5464 55.5 23.5493 55.5 23.5522C55.5 23.5551 55.5 23.558 55.5 23.5609C55.5 23.5638 55.5 23.5667 55.5 23.5695C55.5 23.5724 55.5 23.5753 55.5 23.5782C55.5 23.5811 55.5 23.5839 55.5 23.5868C55.5 23.5897 55.5 23.5926 55.5 23.5954C55.5 23.5983 55.5 23.6012 55.5 23.6041C55.5 23.6069 55.5 23.6098 55.5 23.6127C55.5 23.6155 55.5 23.6184 55.5 23.6213C55.5 23.6241 55.5 23.627 55.5 23.6299C55.5 23.6327 55.5 23.6356 55.5 23.6385C55.5 23.6413 55.5 23.6442 55.5 23.647C55.5 23.6499 55.5 23.6527 55.5 23.6556C55.5 23.6585 55.5 23.6613 55.5 23.6642C55.5 23.667 55.5 23.6699 55.5 23.6727C55.5 23.6756 55.5 23.6784 55.5 23.6813C55.5 23.6841 55.5 23.687 55.5 23.6898C55.5 23.6926 55.5 23.6955 55.5 23.6983C55.5 23.7012 55.5 23.704 55.5 23.7068C55.5 23.7097 55.5 23.7125 55.5 23.7154C55.5 23.7182 55.5 23.721 55.5 23.7239C55.5 23.7267 55.5 23.7295 55.5 23.7324C55.5 23.7352 55.5 23.738 55.5 23.7408C55.5 23.7437 55.5 23.7465 55.5 23.7493C55.5 23.7521 55.5 23.755 55.5 23.7578C55.5 23.7606 55.5 23.7634 55.5 23.7662C55.5 23.7691 55.5 23.7719 55.5 23.7747C55.5 23.7775 55.5 23.7803 55.5 23.7831C55.5 23.786 55.5 23.7888 55.5 23.7916C55.5 23.7944 55.5 23.7972 55.5 23.8C55.5 23.8028 55.5 23.8056 55.5 23.8084C55.5 23.8112 55.5 23.814 55.5 23.8168C55.5 23.8196 55.5 23.8224 55.5 23.8252C55.5 23.828 55.5 23.8308 55.5 23.8336C55.5 23.8364 55.5 23.8392 55.5 23.842C55.5 23.8448 55.5 23.8476 55.5 23.8504C55.5 23.8532 55.5 23.856 55.5 23.8588C55.5 23.8615 55.5 23.8643 55.5 23.8671C55.5 23.8699 55.5 23.8727 55.5 23.8755C55.5 23.8782 55.5 23.881 55.5 23.8838C55.5 23.8866 55.5 23.8894 55.5 23.8921C55.5 23.8949 55.5 23.8977 55.5 23.9005C55.5 23.9032 55.5 23.906 55.5 23.9088C55.5 23.9115 55.5 23.9143 55.5 23.9171C55.5 23.9198 55.5 23.9226 55.5 23.9254C55.5 23.9281 55.5 23.9309 55.5 23.9337C55.5 23.9364 55.5 23.9392 55.5 23.9419C55.5 23.9447 55.5 23.9474 55.5 23.9502C55.5 23.953 55.5 23.9557 55.5 23.9585C55.5 23.9612 55.5 23.964 55.5 23.9667C55.5 23.9695 55.5 23.9722 55.5 23.9749C55.5 23.9777 55.5 23.9804 55.5 23.9832C55.5 23.9859 55.5 23.9887 55.5 23.9914C55.5 23.9941 55.5 23.9969 55.5 23.9996C55.5 24.0024 55.5 24.0051 55.5 24.0078C55.5 24.0106 55.5 24.0133 55.5 24.016C55.5 24.0188 55.5 24.0215 55.5 24.0242C55.5 24.0269 55.5 24.0297 55.5 24.0324C55.5 24.0351 55.5 24.0378 55.5 24.0406C55.5 24.0433 55.5 24.046 55.5 24.0487C55.5 24.0514 55.5 24.0542 55.5 24.0569C55.5 24.0596 55.5 24.0623 55.5 24.065C55.5 24.0677 55.5 24.0704 55.5 24.0731C55.5 24.0758 55.5 24.0786 55.5 24.0813C55.5 24.084 55.5 24.0867 55.5 24.0894C55.5 24.0921 55.5 24.0948 55.5 24.0975C55.5 24.1002 55.5 24.1029 55.5 24.1056C55.5 24.1083 55.5 24.111 55.5 24.1137C55.5 24.1164 55.5 24.119 55.5 24.1217C55.5 24.1244 55.5 24.1271 55.5 24.1298C55.5 24.1325 55.5 24.1352 55.5 24.1379C55.5 24.1405 55.5 24.1432 55.5 24.1459C55.5 24.1486 55.5 24.1513 55.5 24.1539C55.5 24.1566 55.5 24.1593 55.5 24.162C55.5 24.1646 55.5 24.1673 55.5 24.17C55.5 24.1727 55.5 24.1753 55.5 24.178C55.5 24.1807 55.5 24.1833 55.5 24.186C55.5 24.1887 55.5 24.1913 55.5 24.194C55.5 24.1967 55.5 24.1993 55.5 24.202C55.5 24.2046 55.5 24.2073 55.5 24.2099C55.5 24.2126 55.5 24.2153 55.5 24.2179C55.5 24.2206 55.5 24.2232 55.5 24.2259C55.5 24.2285 55.5 24.2312 55.5 24.2338C55.5 24.2364 55.5 24.2391 55.5 24.2417C55.5 24.2444 55.5 24.247 55.5 24.2497C55.5 24.2523 55.5 24.2549 55.5 24.2576C55.5 24.2602 55.5 24.2628 55.5 24.2655C55.5 24.2681 55.5 24.2707 55.5 24.2734C55.5 24.276 55.5 24.2786 55.5 24.2812C55.5 24.2839 55.5 24.2865 55.5 24.2891C55.5 24.2917 55.5 24.2944 55.5 24.297C55.5 24.2996 55.5 24.3022 55.5 24.3048C55.5 24.3075 55.5 24.3101 55.5 24.3127C55.5 24.3153 55.5 24.3179 55.5 24.3205C55.5 24.3231 55.5 24.3257 55.5 24.3283C55.5 24.331 55.5 24.3336 55.5 24.3362C55.5 24.3388 55.5 24.3414 55.5 24.344C55.5 24.3466 55.5 24.3492 55.5 24.3518C55.5 24.3544 55.5 24.357 55.5 24.3595C55.5 24.3621 55.5 24.3647 55.5 24.3673C55.5 24.3699 55.5 24.3725 55.5 24.3751C55.5 24.3777 55.5 24.3803 55.5 24.3828C55.5 24.3854 55.5 24.388 55.5 24.3906C55.5 24.3932 55.5 24.3957 55.5 24.3983C55.5 24.4009 55.5 24.4035 55.5 24.406C55.5 24.4086 55.5 24.4112 55.5 24.4138C55.5 24.4163 55.5 24.4189 55.5 24.4215C55.5 24.424 55.5 24.4266 55.5 24.4292C55.5 24.4317 55.5 24.4343 55.5 24.4368C55.5 24.4394 55.5 24.442 55.5 24.4445C55.5 24.4471 55.5 24.4496 55.5 24.4522C55.5 24.4547 55.5 24.4573 55.5 24.4598C55.5 24.4624 55.5 24.4649 55.5 24.4675C55.5 24.47 55.5 24.4726 55.5 24.4751C55.5 24.4776 55.5 24.4802 55.5 24.4827C55.5 24.4853 55.5 24.4878 55.5 24.4903C55.5 24.4929 55.5 24.4954 55.5 24.4979C55.5 24.5005 55.5 24.503 55.5 24.5055C55.5 24.5081 55.5 24.5106 55.5 24.5131C55.5 24.5156 55.5 24.5182 55.5 24.5207C55.5 24.5232 55.5 24.5257 55.5 24.5282C55.5 24.5308 55.5 24.5333 55.5 24.5358C55.5 24.5383 55.5 24.5408 55.5 24.5433C55.5 24.5458 55.5 24.5483 55.5 24.5509C55.5 24.5534 55.5 24.5559 55.5 24.5584C55.5 24.5609 55.5 24.5634 55.5 24.5659C55.5 24.5684 55.5 24.5709 55.5 24.5734C55.5 24.5759 55.5 24.5784 55.5 24.5809C55.5 24.5834 55.5 24.5858 55.5 24.5883C55.5 24.5908 55.5 24.5933 55.5 24.5958C55.5 24.5983 55.5 24.6008 55.5 24.6033C55.5 24.6057 55.5 24.6082 55.5 24.6107C55.5 24.6132 55.5 24.6157 55.5 24.6181C55.5 24.6206 55.5 24.6231 55.5 24.6255C55.5 24.628 55.5 24.6305 55.5 24.633C55.5 24.6354 55.5 24.6379 55.5 24.6404C55.5 24.6428 55.5 24.6453 55.5 24.6478C55.5 24.6502 55.5 24.6527 55.5 24.6551C55.5 24.6576 55.5 24.66 55.5 24.6625C55.5 24.665 55.5 24.6674 55.5 24.6699C55.5 24.6723 55.5 24.6748 55.5 24.6772C55.5 24.6796 55.5 24.6821 55.5 24.6845C55.5 24.687 55.5 24.6894 55.5 24.6919C55.5 24.6943 55.5 24.6967 55.5 24.6992C55.5 24.7016 55.5 24.704 55.5 24.7065C55.5 24.7089 55.5 24.7113 55.5 24.7138C55.5 24.7162 55.5 24.7186 55.5 24.721C55.5 24.7235 55.5 24.7259 55.5 24.7283C55.5 24.7307 55.5 24.7332 55.5 24.7356C55.5 24.738 55.5 24.7404 55.5 24.7428C55.5 24.7452 55.5 24.7476 55.5 24.7501C55.5 24.7525 55.5 24.7549 55.5 24.7573C55.5 24.7597 55.5 24.7621 55.5 24.7645C55.5 24.7669 55.5 24.7693 55.5 24.7717C55.5 24.7741 55.5 24.7765 55.5 24.7789C55.5 24.7813 55.5 24.7837 55.5 24.7861C55.5 24.7885 55.5 24.7909 55.5 24.7932C55.5 24.7956 55.5 24.798 55.5 24.8004C55.5 24.8028 55.5 24.8052 55.5 24.8075C55.5 24.8099 55.5 24.8123 55.5 24.8147C55.5 24.8171 55.5 24.8194 55.5 24.8218C55.5 24.8242 55.5 24.8266 55.5 24.8289C55.5 24.8313 55.5 24.8337 55.5 24.836C55.5 24.8384 55.5 24.8408 55.5 24.8431C55.5 24.8455 55.5 24.8478 55.5 24.8502C55.5 24.8525 55.5 24.8549 55.5 24.8573C55.5 24.8596 55.5 24.862 55.5 24.8643C55.5 24.8667 55.5 24.869 55.5 24.8714C55.5 24.8737 55.5 24.8761 55.5 24.8784C55.5 24.8807 55.5 24.8831 55.5 24.8854C55.5 24.8878 55.5 24.8901 55.5 24.8924C55.5 24.8948 55.5 24.8971 55.5 24.8994C55.5 24.9018 55.5 24.9041 55.5 24.9064C55.5 24.9087 55.5 24.9111 55.5 24.9134C55.5 24.9157 55.5 24.918 55.5 24.9204C55.5 24.9227 55.5 24.925 55.5 24.9273C55.5 24.9296 55.5 24.9319 55.5 24.9342C55.5 24.9366 55.5 24.9389 55.5 24.9412C55.5 24.9435 55.5 24.9458 55.5 24.9481C55.5 24.9504 55.5 24.9527 55.5 24.955C55.5 24.9573 55.5 24.9596 55.5 24.9619C55.5 24.9642 55.5 24.9665 55.5 24.9688C55.5 24.9711 55.5 24.9734 55.5 24.9756C55.5 24.9779 55.5 24.9802 55.5 24.9825C55.5 24.9848 55.5 24.9871 55.5 24.9894C55.5 24.9916 55.5 24.9939 55.5 24.9962C55.5 24.9985 55.5 25.0007 55.5 25.003C55.5 25.0053 55.5 25.0076 55.5 25.0098C55.5 25.0121 55.5 25.0144 55.5 25.0166C55.5 25.0189 55.5 25.0212 55.5 25.0234C55.5 25.0257 55.5 25.0279 55.5 25.0302C55.5 25.0324 55.5 25.0347 55.5 25.037C55.5 25.0392 55.5 25.0415 55.5 25.0437C55.5 25.046 55.5 25.0482 55.5 25.0504C55.5 25.0527 55.5 25.0549 55.5 25.0572C55.5 25.0594 55.5 25.0617 55.5 25.0639C55.5 25.0661 55.5 25.0684 55.5 25.0706C55.5 25.0728 55.5 25.0751 55.5 25.0773C55.5 25.0795 55.5 25.0817 55.5 25.084C55.5 25.0862 55.5 25.0884 55.5 25.0906C55.5 25.0929 55.5 25.0951 55.5 25.0973C55.5 25.0995 55.5 25.1017 55.5 25.1039C55.5 25.1062 55.5 25.1084 55.5 25.1106C55.5 25.1128 55.5 25.115 55.5 25.1172C55.5 25.1194 55.5 25.1216 55.5 25.1238C55.5 25.126 55.5 25.1282 55.5 25.1304C55.5 25.1326 55.5 25.1348 55.5 25.137C55.5 25.1392 55.5 25.1414 55.5 25.1436C55.5 25.1457 55.5 25.1479 55.5 25.1501C55.5 25.1523 55.5 25.1545 55.5 25.1567C55.5 25.1588 55.5 25.161 55.5 25.1632C55.5 25.1654 55.5 25.1675 55.5 25.1697C55.5 25.1719 55.5 25.1741 55.5 25.1762C55.5 25.1784 55.5 25.1806 55.5 25.1827C55.5 25.1849 55.5 25.187 55.5 25.1892C55.5 25.1914 55.5 25.1935 55.5 25.1957C55.5 25.1978 55.5 25.2 55.5 25.2021C55.5 25.2043 55.5 25.2064 55.5 25.2086C55.5 25.2107 55.5 25.2129 55.5 25.215C55.5 25.2172 55.5 25.2193 55.5 25.2214C55.5 25.2236 55.5 25.2257 55.5 25.2279C55.5 25.23 55.5 25.2321 55.5 25.2343C55.5 25.2364 55.5 25.2385 55.5 25.2406C55.5 25.2428 55.5 25.2449 55.5 25.247C55.5 25.2491 55.5 25.2512 55.5 25.2534C55.5 25.2555 55.5 25.2576 55.5 25.2597C55.5 25.2618 55.5 25.2639 55.5 25.266C55.5 25.2682 55.5 25.2703 55.5 25.2724C55.5 25.2745 55.5 25.2766 55.5 25.2787C55.5 25.2808 55.5 25.2829 55.5 25.285C55.5 25.2871 55.5 25.2892 55.5 25.2913C55.5 25.2934 55.5 25.2954 55.5 25.2975C55.5 25.2996 55.5 25.3017 55.5 25.3038C55.5 25.3059 55.5 25.308 55.5 25.31C55.5 25.3121 55.5 25.3142 55.5 25.3163C55.5 25.3183 55.5 25.3204 55.5 25.3225C55.5 25.3246 55.5 25.3266 55.5 25.3287C55.5 25.3308 55.5 25.3328 55.5 25.3349C55.5 25.337 55.5 25.339 55.5 25.3411C55.5 25.3431 55.5 25.3452 55.5 25.3472C55.5 25.3493 55.5 25.3513 55.5 25.3534C55.5 25.3554 55.5 25.3575 55.5 25.3595C55.5 25.3616 55.5 25.3636 55.5 25.3657C55.5 25.3677 55.5 25.3697 55.5 25.3718C55.5 25.3738 55.5 25.3759 55.5 25.3779C55.5 25.3799 55.5 25.3819 55.5 25.384C55.5 25.386 55.5 25.388 55.5 25.3901C55.5 25.3921 55.5 25.3941 55.5 25.3961C55.5 25.3981 55.5 25.4002 55.5 25.4022C55.5 25.4042 55.5 25.4062 55.5 25.4082C55.5 25.4102 55.5 25.4122 55.5 25.4142C55.5 25.4162 55.5 25.4182 55.5 25.4202C55.5 25.4222 55.5 25.4242 55.5 25.4262C55.5 25.4282 55.5 25.4302 55.5 25.4322C55.5 25.4342 55.5 25.4362 55.5 25.4382C55.5 25.4402 55.5 25.4422 55.5 25.4442C55.5 25.4461 55.5 25.4481 55.5 25.4501C55.5 25.4521 55.5 25.4541 55.5 25.456C55.5 25.458 55.5 25.46 55.5 25.462C55.5 25.4639 55.5 25.4659 55.5 25.4679C55.5 25.4698 55.5 25.4718 55.5 25.4738C55.5 25.4757 55.5 25.4777 55.5 25.4796C55.5 25.4816 55.5 25.4836 55.5 25.4855C55.5 25.4875 55.5 25.4894 55.5 25.4914C55.5 25.4933 55.5 25.4953 55.5 25.4972C55.5 25.4991 55.5 25.5011 55.5 25.503C55.5 25.505 55.5 25.5069 55.5 25.5088C55.5 25.5108 55.5 25.5127 55.5 25.5146C55.5 25.5166 55.5 25.5185 55.5 25.5204C55.5 25.5223 55.5 25.5243 55.5 25.5262C55.5 25.5281 55.5 25.53 55.5 25.5319C55.5 25.5339 55.5 25.5358 55.5 25.5377C55.5 25.5396 55.5 25.5415 55.5 25.5434C55.5 25.5453 55.5 25.5472 55.5 25.5491C55.5 25.551 55.5 25.5529 55.5 25.5548C55.5 25.5567 55.5 25.5586 55.5 25.5605C55.5 25.5624 55.5 25.5643 55.5 25.5662C55.5 25.5681 55.5 25.57 55.5 25.5719C55.5 25.5738 55.5 25.5756 55.5 25.5775C55.5 25.5794 55.5 25.5813 55.5 25.5832C55.5 25.585 55.5 25.5869 55.5 25.5888C55.5 25.5907 55.5 25.5925 55.5 25.5944C55.5 25.5963 55.5 25.5981 55.5 25.6C55.5 25.6018 55.5 25.6037 55.5 25.6056C55.5 25.6074 55.5 25.6093 55.5 25.6111C55.5 25.613 55.5 25.6148 55.5 25.6167C55.5 25.6185 55.5 25.6204 55.5 25.6222C55.5 25.6241 55.5 25.6259 55.5 25.6277C55.5 25.6296 55.5 25.6314 55.5 25.6333C55.5 25.6351 55.5 25.6369 55.5 25.6388C55.5 25.6406 55.5 25.6424 55.5 25.6442C55.5 25.6461 55.5 25.6479 55.5 25.6497C55.5 25.6515 55.5 25.6533 55.5 25.6552C55.5 25.657 55.5 25.6588 55.5 25.6606C55.5 25.6624 55.5 25.6642 55.5 25.666C55.5 25.6678 55.5 25.6696 55.5 25.6714C55.5 25.6732 55.5 25.675 55.5 25.6768C55.5 25.6786 55.5 25.6804 55.5 25.6822C55.5 25.684 55.5 25.6858 55.5 25.6876C55.5 25.6894 55.5 25.6912 55.5 25.693C55.5 25.6947 55.5 25.6965 55.5 25.6983C55.5 25.7001 55.5 25.7019 55.5 25.7036C55.5 25.7054 55.5 25.7072 55.5 25.7089C55.5 25.7107 55.5 25.7125 55.5 25.7142C55.5 25.716 55.5 25.7178 55.5 25.7195C55.5 25.7213 55.5 25.723 55.5 25.7248C55.5 25.7265 55.5 25.7283 55.5 25.7301C55.5 25.7318 55.5 25.7335 55.5 25.7353C55.5 25.737 55.5 25.7388 55.5 25.7405C55.5 25.7423 55.5 25.744 55.5 25.7457C55.5 25.7475 55.5 25.7492 55.5 25.7509C55.5 25.7527 55.5 25.7544 55.5 25.7561C55.5 25.7578 55.5 25.7596 55.5 25.7613C55.5 25.763 55.5 25.7647 55.5 25.7665C55.5 25.7682 55.5 25.7699 55.5 25.7716C55.5 25.7733 55.5 25.775 55.5 25.7767C55.5 25.7784 55.5 25.7801 55.5 25.7818C55.5 25.7835 55.5 25.7852 55.5 25.7869C55.5 25.7886 55.5 25.7903 55.5 25.792C55.5 25.7937 55.5 25.7954 55.5 25.7971C55.5 25.7988 55.5 25.8005 55.5 25.8021C55.5 25.8038 55.5 25.8055 55.5 25.8072C55.5 25.8089 55.5 25.8105 55.5 25.8122C55.5 25.8139 55.5 25.8155 55.5 25.8172C55.5 25.8189 55.5 25.8206 55.5 25.8222C55.5 25.8239 55.5 25.8255 55.5 25.8272C55.5 25.8289 55.5 25.8305 55.5 25.8322C55.5 25.8338 55.5 25.8355 55.5 25.8371C55.5 25.8388 55.5 25.8404 55.5 25.8421C55.5 25.8437 55.5 25.8453 55.5 25.847C55.5 25.8486 55.5 25.8503 55.5 25.8519C55.5 25.8535 55.5 25.8551 55.5 25.8568C55.5 25.8584 55.5 25.86 55.5 25.8617C55.5 25.8633 55.5 25.8649 55.5 25.8665C55.5 25.8681 55.5 25.8698 55.5 25.8714C55.5 25.873 55.5 25.8746 55.5 25.8762C55.5 25.8778 55.5 25.8794 55.5 25.881C55.5 25.8826 55.5 25.8842 55.5 25.8858C55.5 25.8874 55.5 25.889 55.5 25.8906C55.5 25.8922 55.5 25.8938 55.5 25.8954C55.5 25.897 55.5 25.8986 55.5 25.9001C55.5 25.9017 55.5 25.9033 55.5 25.9049C55.5 25.9065 55.5 25.908 55.5 25.9096C55.5 25.9112 55.5 25.9128 55.5 25.9143C55.5 25.9159 55.5 25.9175 55.5 25.919C55.5 25.9206 55.5 25.9222 55.5 25.9237C55.5 25.9253 55.5 25.9268 55.5 25.9284C55.5 25.9299 55.5 25.9315 55.5 25.933C55.5 25.9346 55.5 25.9361 55.5 25.9377C55.5 25.9392 55.5 25.9408 55.5 25.9423C55.5 25.9438 55.5 25.9454 55.5 25.9469C55.5 25.9484 55.5 25.95 55.5 25.9515C55.5 25.953 55.5 25.9546 55.5 25.9561C55.5 25.9576 55.5 25.9591 55.5 25.9606C55.5 25.9622 55.5 25.9637 55.5 25.9652C55.5 25.9667 55.5 25.9682 55.5 25.9697C55.5 25.9712 55.5 25.9727 55.5 25.9742C55.5 25.9757 55.5 25.9772 55.5 25.9787C55.5 25.9802 55.5 25.9817 55.5 25.9832C55.5 25.9847 55.5 25.9862 55.5 25.9877C55.5 25.9892 55.5 25.9907 55.5 25.9922C55.5 25.9936 55.5 25.9951 55.5 25.9966C55.5 25.9981 55.5 25.9995 55.5 26.001C55.5 26.0025 55.5 26.004 55.5 26.0054C55.5 26.0069 55.5 26.0084 55.5 26.0098C55.5 26.0113 55.5 26.0127 55.5 26.0142C55.5 26.0157 55.5 26.0171 55.5 26.0186C55.5 26.02 55.5 26.0215 55.5 26.0229C55.5 26.0244 55.5 26.0258 55.5 26.0272C55.5 26.0287 55.5 26.0301 55.5 26.0316C55.5 26.033 55.5 26.0344 55.5 26.0359C55.5 26.0373 55.5 26.0387 55.5 26.0401C55.5 26.0416 55.5 26.043 55.5 26.0444C55.5 26.0458 55.5 26.0473 55.5 26.0487C55.5 26.0501 55.5 26.0515 55.5 26.0529C55.5 26.0543 55.5 26.0557 55.5 26.0571C55.5 26.0585 55.5 26.0599 55.5 26.0613C55.5 26.0627 55.5 26.0641 55.5 26.0655C55.5 26.0669 55.5 26.0683 55.5 26.0697C55.5 26.0711 55.5 26.0725 55.5 26.0739C55.5 26.0752 55.5 26.0766 55.5 26.078C55.5 26.0794 55.5 26.0808 55.5 26.0821C55.5 26.0835 55.5 26.0849 55.5 26.0862C55.5 26.0876 55.5 26.089 55.5 26.0903C55.5 26.0917 55.5 26.0931 55.5 26.0944C55.5 26.0958 55.5 26.0971 55.5 26.0985C55.5 26.0998 55.5 26.1012 55.5 26.1025C55.5 26.1039 55.5 26.1052 55.5 26.1066C55.5 26.1079 55.5 26.1092 55.5 26.1106C55.5 26.1119 55.5 26.1132 55.5 26.1146C55.5 26.1159 55.5 26.1172 55.5 26.1186C55.5 26.1199 55.5 26.1212 55.5 26.1225C55.5 26.1238 55.5 26.1252 55.5 26.1265C55.5 26.1278 55.5 26.1291 55.5 26.1304C55.5 26.1317 55.5 26.133 55.5 26.1343C55.5 26.1356 55.5 26.1369 55.5 26.1382C55.5 26.1395 55.5 26.1408 55.5 26.1421C55.5 26.1434 55.5 26.1447 55.5 26.146C55.5 26.1473 55.5 26.1486 55.5 26.1499C55.5 26.1511 55.5 26.1524 55.5 26.1537C55.5 26.155 55.5 26.1562 55.5 26.1575C55.5 26.1588 55.5 26.1601 55.5 26.1613C55.5 26.1626 55.5 26.1638 55.5 26.1651C55.5 26.1664 55.5 26.1676 55.5 26.1689C55.5 26.1701 55.5 26.1714 55.5 26.1726C55.5 26.1739 55.5 26.1751 55.5 26.1764C55.5 26.1776 55.5 26.1789 55.5 26.1801C55.5 26.1813 55.5 26.1826 55.5 26.1838C55.5 26.1851 55.5 26.1863 55.5 26.1875C55.5 26.1887 55.5 26.19 55.5 26.1912C55.5 26.1924 55.5 26.1936 55.5 26.1948C55.5 26.1961 55.5 26.1973 55.5 26.1985C55.5 26.1997 55.5 26.2009 55.5 26.2021C55.5 26.2033 55.5 26.2045 55.5 26.2057C55.5 26.2069 55.5 26.2081 55.5 26.2093C55.5 26.2105 55.5 26.2117 55.5 26.2129C55.5 26.2141 55.5 26.2153 55.5 26.2165C55.5 26.2176 55.5 26.2188 55.5 26.22C55.5 26.2212 55.5 26.2224 55.5 26.2235C55.5 26.2247 55.5 26.2259 55.5 26.227C55.5 26.2282 55.5 26.2294 55.5 26.2305C55.5 26.2317 55.5 26.2329 55.5 26.234C55.5 26.2352 55.5 26.2363 55.5 26.2375C55.5 26.2386 55.5 26.2398 55.5 26.2409C55.5 26.2421 55.5 26.2432 55.5 26.2443C55.5 26.2455 55.5 26.2466 55.5 26.2478C55.5 26.2489 55.5 26.25 55.5 26.2511C55.5 26.2523 55.5 26.2534 55.5 26.2545C55.5 26.2556 55.5 26.2568 55.5 26.2579C55.5 26.259 55.5 26.2601 55.5 26.2612C55.5 26.2623 55.5 26.2635 55.5 26.2646C55.5 26.2657 55.5 26.2668 55.5 26.2679C55.5 26.269 55.5 26.2701 55.5 26.2712C55.5 26.2723 55.5 26.2733 55.5 26.2744C55.5 26.2755 55.5 26.2766 55.5 26.2777C55.5 26.2788 55.5 26.2799 55.5 26.2809C55.5 26.282 55.5 26.2831 55.5 26.2842C55.5 26.2852 55.5 26.2863 55.5 26.2874C55.5 26.2884 55.5 26.2895 55.5 26.2906C55.5 26.2916 55.5 26.2927 55.5 26.2937C55.5 26.2948 55.5 26.2958 55.5 26.2969C55.5 26.2979 55.5 26.299 55.5 26.3C55.5 26.3011 55.5 26.3021 55.5 26.3032C55.5 26.3042 55.5 26.3052 55.5 26.3063C55.5 26.3073 55.5 26.3083 55.5 26.3094C55.5 26.3104 55.5 26.3114 55.5 26.3124C55.5 26.3134 55.5 26.3145 55.5 26.3155C55.5 26.3165 55.5 26.3175 55.5 26.3185C55.5 26.3195 55.5 26.3205 55.5 26.3215C55.5 26.3225 55.5 26.3235 55.5 26.3245C55.5 26.3255 55.5 26.3265 55.5 26.3275C55.5 26.3285 55.5 26.3295 55.5 26.3305C55.5 26.3315 55.5 26.3325 55.5 26.3334C55.5 26.3344 55.5 26.3354 55.5 26.3364C55.5 26.3374 55.5 26.3383 55.5 26.3393C55.5 26.3403 55.5 26.3412 55.5 26.3422C55.5 26.3432 55.5 26.3441 55.5 26.3451C55.5 26.346 55.5 26.347 55.5 26.3479C55.5 26.3489 55.5 26.3498 55.5 26.3508C55.5 26.3517 55.5 26.3527 55.5 26.3536C55.5 26.3546 55.5 26.3555 55.5 26.3564C55.5 26.3574 55.5 26.3583 55.5 26.3592C55.5 26.3602 55.5 26.3611 55.5 26.362C55.5 26.3629 55.5 26.3638 55.5 26.3648C55.5 26.3657 55.5 26.3666 55.5 26.3675C55.5 26.3684 55.5 26.3693 55.5 26.3702C55.5 26.3711 55.5 26.372 55.5 26.3729C55.5 26.3738 55.5 26.3747 55.5 26.3756C55.5 26.3765 55.5 26.3774 55.5 26.3783C55.5 26.3792 55.5 26.3801 55.5 26.381C55.5 26.3818 55.5 26.3827 55.5 26.3836C55.5 26.3845 55.5 26.3853 55.5 26.3862C55.5 26.3871 55.5 26.3879 55.5 26.3888C55.5 26.3897 55.5 26.3905 55.5 26.3914C55.5 26.3923 55.5 26.3931 55.5 26.394C55.5 26.3948 55.5 26.3957 55.5 26.3965C55.5 26.3974 55.5 26.3982 55.5 26.399C55.5 26.3999 55.5 26.4007 55.5 26.4016C55.5 26.4024 55.5 26.4032 55.5 26.404C55.5 26.4049 55.5 26.4057 55.5 26.4065C55.5 26.4073 55.5 26.4082 55.5 26.409C55.5 26.4098 55.5 26.4106 55.5 26.4114C55.5 26.4122 55.5 26.413 55.5 26.4138C55.5 26.4147 55.5 26.4155 55.5 26.4163C55.5 26.4171 55.5 26.4178 55.5 26.4186H56.5C56.5 26.4178 56.5 26.4171 56.5 26.4163C56.5 26.4155 56.5 26.4147 56.5 26.4138C56.5 26.413 56.5 26.4122 56.5 26.4114C56.5 26.4106 56.5 26.4098 56.5 26.409C56.5 26.4082 56.5 26.4073 56.5 26.4065C56.5 26.4057 56.5 26.4049 56.5 26.404C56.5 26.4032 56.5 26.4024 56.5 26.4016C56.5 26.4007 56.5 26.3999 56.5 26.399C56.5 26.3982 56.5 26.3974 56.5 26.3965C56.5 26.3957 56.5 26.3948 56.5 26.394C56.5 26.3931 56.5 26.3923 56.5 26.3914C56.5 26.3905 56.5 26.3897 56.5 26.3888C56.5 26.3879 56.5 26.3871 56.5 26.3862C56.5 26.3853 56.5 26.3845 56.5 26.3836C56.5 26.3827 56.5 26.3818 56.5 26.381C56.5 26.3801 56.5 26.3792 56.5 26.3783C56.5 26.3774 56.5 26.3765 56.5 26.3756C56.5 26.3747 56.5 26.3738 56.5 26.3729C56.5 26.372 56.5 26.3711 56.5 26.3702C56.5 26.3693 56.5 26.3684 56.5 26.3675C56.5 26.3666 56.5 26.3657 56.5 26.3648C56.5 26.3638 56.5 26.3629 56.5 26.362C56.5 26.3611 56.5 26.3602 56.5 26.3592C56.5 26.3583 56.5 26.3574 56.5 26.3564C56.5 26.3555 56.5 26.3546 56.5 26.3536C56.5 26.3527 56.5 26.3517 56.5 26.3508C56.5 26.3498 56.5 26.3489 56.5 26.3479C56.5 26.347 56.5 26.346 56.5 26.3451C56.5 26.3441 56.5 26.3432 56.5 26.3422C56.5 26.3412 56.5 26.3403 56.5 26.3393C56.5 26.3383 56.5 26.3374 56.5 26.3364C56.5 26.3354 56.5 26.3344 56.5 26.3334C56.5 26.3325 56.5 26.3315 56.5 26.3305C56.5 26.3295 56.5 26.3285 56.5 26.3275C56.5 26.3265 56.5 26.3255 56.5 26.3245C56.5 26.3235 56.5 26.3225 56.5 26.3215C56.5 26.3205 56.5 26.3195 56.5 26.3185C56.5 26.3175 56.5 26.3165 56.5 26.3155C56.5 26.3145 56.5 26.3134 56.5 26.3124C56.5 26.3114 56.5 26.3104 56.5 26.3094C56.5 26.3083 56.5 26.3073 56.5 26.3063C56.5 26.3052 56.5 26.3042 56.5 26.3032C56.5 26.3021 56.5 26.3011 56.5 26.3C56.5 26.299 56.5 26.2979 56.5 26.2969C56.5 26.2958 56.5 26.2948 56.5 26.2937C56.5 26.2927 56.5 26.2916 56.5 26.2906C56.5 26.2895 56.5 26.2884 56.5 26.2874C56.5 26.2863 56.5 26.2852 56.5 26.2842C56.5 26.2831 56.5 26.282 56.5 26.2809C56.5 26.2799 56.5 26.2788 56.5 26.2777C56.5 26.2766 56.5 26.2755 56.5 26.2744C56.5 26.2733 56.5 26.2723 56.5 26.2712C56.5 26.2701 56.5 26.269 56.5 26.2679C56.5 26.2668 56.5 26.2657 56.5 26.2646C56.5 26.2635 56.5 26.2623 56.5 26.2612C56.5 26.2601 56.5 26.259 56.5 26.2579C56.5 26.2568 56.5 26.2556 56.5 26.2545C56.5 26.2534 56.5 26.2523 56.5 26.2511C56.5 26.25 56.5 26.2489 56.5 26.2478C56.5 26.2466 56.5 26.2455 56.5 26.2443C56.5 26.2432 56.5 26.2421 56.5 26.2409C56.5 26.2398 56.5 26.2386 56.5 26.2375C56.5 26.2363 56.5 26.2352 56.5 26.234C56.5 26.2329 56.5 26.2317 56.5 26.2305C56.5 26.2294 56.5 26.2282 56.5 26.227C56.5 26.2259 56.5 26.2247 56.5 26.2235C56.5 26.2224 56.5 26.2212 56.5 26.22C56.5 26.2188 56.5 26.2176 56.5 26.2165C56.5 26.2153 56.5 26.2141 56.5 26.2129C56.5 26.2117 56.5 26.2105 56.5 26.2093C56.5 26.2081 56.5 26.2069 56.5 26.2057C56.5 26.2045 56.5 26.2033 56.5 26.2021C56.5 26.2009 56.5 26.1997 56.5 26.1985C56.5 26.1973 56.5 26.1961 56.5 26.1948C56.5 26.1936 56.5 26.1924 56.5 26.1912C56.5 26.19 56.5 26.1887 56.5 26.1875C56.5 26.1863 56.5 26.1851 56.5 26.1838C56.5 26.1826 56.5 26.1813 56.5 26.1801C56.5 26.1789 56.5 26.1776 56.5 26.1764C56.5 26.1751 56.5 26.1739 56.5 26.1726C56.5 26.1714 56.5 26.1701 56.5 26.1689C56.5 26.1676 56.5 26.1664 56.5 26.1651C56.5 26.1638 56.5 26.1626 56.5 26.1613C56.5 26.1601 56.5 26.1588 56.5 26.1575C56.5 26.1562 56.5 26.155 56.5 26.1537C56.5 26.1524 56.5 26.1511 56.5 26.1499C56.5 26.1486 56.5 26.1473 56.5 26.146C56.5 26.1447 56.5 26.1434 56.5 26.1421C56.5 26.1408 56.5 26.1395 56.5 26.1382C56.5 26.1369 56.5 26.1356 56.5 26.1343C56.5 26.133 56.5 26.1317 56.5 26.1304C56.5 26.1291 56.5 26.1278 56.5 26.1265C56.5 26.1252 56.5 26.1238 56.5 26.1225C56.5 26.1212 56.5 26.1199 56.5 26.1186C56.5 26.1172 56.5 26.1159 56.5 26.1146C56.5 26.1132 56.5 26.1119 56.5 26.1106C56.5 26.1092 56.5 26.1079 56.5 26.1066C56.5 26.1052 56.5 26.1039 56.5 26.1025C56.5 26.1012 56.5 26.0998 56.5 26.0985C56.5 26.0971 56.5 26.0958 56.5 26.0944C56.5 26.0931 56.5 26.0917 56.5 26.0903C56.5 26.089 56.5 26.0876 56.5 26.0862C56.5 26.0849 56.5 26.0835 56.5 26.0821C56.5 26.0808 56.5 26.0794 56.5 26.078C56.5 26.0766 56.5 26.0752 56.5 26.0739C56.5 26.0725 56.5 26.0711 56.5 26.0697C56.5 26.0683 56.5 26.0669 56.5 26.0655C56.5 26.0641 56.5 26.0627 56.5 26.0613C56.5 26.0599 56.5 26.0585 56.5 26.0571C56.5 26.0557 56.5 26.0543 56.5 26.0529C56.5 26.0515 56.5 26.0501 56.5 26.0487C56.5 26.0473 56.5 26.0458 56.5 26.0444C56.5 26.043 56.5 26.0416 56.5 26.0401C56.5 26.0387 56.5 26.0373 56.5 26.0359C56.5 26.0344 56.5 26.033 56.5 26.0316C56.5 26.0301 56.5 26.0287 56.5 26.0272C56.5 26.0258 56.5 26.0244 56.5 26.0229C56.5 26.0215 56.5 26.02 56.5 26.0186C56.5 26.0171 56.5 26.0157 56.5 26.0142C56.5 26.0127 56.5 26.0113 56.5 26.0098C56.5 26.0084 56.5 26.0069 56.5 26.0054C56.5 26.004 56.5 26.0025 56.5 26.001C56.5 25.9995 56.5 25.9981 56.5 25.9966C56.5 25.9951 56.5 25.9936 56.5 25.9922C56.5 25.9907 56.5 25.9892 56.5 25.9877C56.5 25.9862 56.5 25.9847 56.5 25.9832C56.5 25.9817 56.5 25.9802 56.5 25.9787C56.5 25.9772 56.5 25.9757 56.5 25.9742C56.5 25.9727 56.5 25.9712 56.5 25.9697C56.5 25.9682 56.5 25.9667 56.5 25.9652C56.5 25.9637 56.5 25.9622 56.5 25.9606C56.5 25.9591 56.5 25.9576 56.5 25.9561C56.5 25.9546 56.5 25.953 56.5 25.9515C56.5 25.95 56.5 25.9484 56.5 25.9469C56.5 25.9454 56.5 25.9438 56.5 25.9423C56.5 25.9408 56.5 25.9392 56.5 25.9377C56.5 25.9361 56.5 25.9346 56.5 25.933C56.5 25.9315 56.5 25.9299 56.5 25.9284C56.5 25.9268 56.5 25.9253 56.5 25.9237C56.5 25.9222 56.5 25.9206 56.5 25.919C56.5 25.9175 56.5 25.9159 56.5 25.9143C56.5 25.9128 56.5 25.9112 56.5 25.9096C56.5 25.908 56.5 25.9065 56.5 25.9049C56.5 25.9033 56.5 25.9017 56.5 25.9001C56.5 25.8986 56.5 25.897 56.5 25.8954C56.5 25.8938 56.5 25.8922 56.5 25.8906C56.5 25.889 56.5 25.8874 56.5 25.8858C56.5 25.8842 56.5 25.8826 56.5 25.881C56.5 25.8794 56.5 25.8778 56.5 25.8762C56.5 25.8746 56.5 25.873 56.5 25.8714C56.5 25.8698 56.5 25.8681 56.5 25.8665C56.5 25.8649 56.5 25.8633 56.5 25.8617C56.5 25.86 56.5 25.8584 56.5 25.8568C56.5 25.8551 56.5 25.8535 56.5 25.8519C56.5 25.8503 56.5 25.8486 56.5 25.847C56.5 25.8453 56.5 25.8437 56.5 25.8421C56.5 25.8404 56.5 25.8388 56.5 25.8371C56.5 25.8355 56.5 25.8338 56.5 25.8322C56.5 25.8305 56.5 25.8289 56.5 25.8272C56.5 25.8255 56.5 25.8239 56.5 25.8222C56.5 25.8206 56.5 25.8189 56.5 25.8172C56.5 25.8155 56.5 25.8139 56.5 25.8122C56.5 25.8105 56.5 25.8089 56.5 25.8072C56.5 25.8055 56.5 25.8038 56.5 25.8021C56.5 25.8005 56.5 25.7988 56.5 25.7971C56.5 25.7954 56.5 25.7937 56.5 25.792C56.5 25.7903 56.5 25.7886 56.5 25.7869C56.5 25.7852 56.5 25.7835 56.5 25.7818C56.5 25.7801 56.5 25.7784 56.5 25.7767C56.5 25.775 56.5 25.7733 56.5 25.7716C56.5 25.7699 56.5 25.7682 56.5 25.7665C56.5 25.7647 56.5 25.763 56.5 25.7613C56.5 25.7596 56.5 25.7578 56.5 25.7561C56.5 25.7544 56.5 25.7527 56.5 25.7509C56.5 25.7492 56.5 25.7475 56.5 25.7457C56.5 25.744 56.5 25.7423 56.5 25.7405C56.5 25.7388 56.5 25.737 56.5 25.7353C56.5 25.7335 56.5 25.7318 56.5 25.7301C56.5 25.7283 56.5 25.7265 56.5 25.7248C56.5 25.723 56.5 25.7213 56.5 25.7195C56.5 25.7178 56.5 25.716 56.5 25.7142C56.5 25.7125 56.5 25.7107 56.5 25.7089C56.5 25.7072 56.5 25.7054 56.5 25.7036C56.5 25.7019 56.5 25.7001 56.5 25.6983C56.5 25.6965 56.5 25.6947 56.5 25.693C56.5 25.6912 56.5 25.6894 56.5 25.6876C56.5 25.6858 56.5 25.684 56.5 25.6822C56.5 25.6804 56.5 25.6786 56.5 25.6768C56.5 25.675 56.5 25.6732 56.5 25.6714C56.5 25.6696 56.5 25.6678 56.5 25.666C56.5 25.6642 56.5 25.6624 56.5 25.6606C56.5 25.6588 56.5 25.657 56.5 25.6552C56.5 25.6533 56.5 25.6515 56.5 25.6497C56.5 25.6479 56.5 25.6461 56.5 25.6442C56.5 25.6424 56.5 25.6406 56.5 25.6388C56.5 25.6369 56.5 25.6351 56.5 25.6333C56.5 25.6314 56.5 25.6296 56.5 25.6277C56.5 25.6259 56.5 25.6241 56.5 25.6222C56.5 25.6204 56.5 25.6185 56.5 25.6167C56.5 25.6148 56.5 25.613 56.5 25.6111C56.5 25.6093 56.5 25.6074 56.5 25.6056C56.5 25.6037 56.5 25.6018 56.5 25.6C56.5 25.5981 56.5 25.5963 56.5 25.5944C56.5 25.5925 56.5 25.5907 56.5 25.5888C56.5 25.5869 56.5 25.585 56.5 25.5832C56.5 25.5813 56.5 25.5794 56.5 25.5775C56.5 25.5756 56.5 25.5738 56.5 25.5719C56.5 25.57 56.5 25.5681 56.5 25.5662C56.5 25.5643 56.5 25.5624 56.5 25.5605C56.5 25.5586 56.5 25.5567 56.5 25.5548C56.5 25.5529 56.5 25.551 56.5 25.5491C56.5 25.5472 56.5 25.5453 56.5 25.5434C56.5 25.5415 56.5 25.5396 56.5 25.5377C56.5 25.5358 56.5 25.5339 56.5 25.5319C56.5 25.53 56.5 25.5281 56.5 25.5262C56.5 25.5243 56.5 25.5223 56.5 25.5204C56.5 25.5185 56.5 25.5166 56.5 25.5146C56.5 25.5127 56.5 25.5108 56.5 25.5088C56.5 25.5069 56.5 25.505 56.5 25.503C56.5 25.5011 56.5 25.4991 56.5 25.4972C56.5 25.4953 56.5 25.4933 56.5 25.4914C56.5 25.4894 56.5 25.4875 56.5 25.4855C56.5 25.4836 56.5 25.4816 56.5 25.4796C56.5 25.4777 56.5 25.4757 56.5 25.4738C56.5 25.4718 56.5 25.4698 56.5 25.4679C56.5 25.4659 56.5 25.4639 56.5 25.462C56.5 25.46 56.5 25.458 56.5 25.456C56.5 25.4541 56.5 25.4521 56.5 25.4501C56.5 25.4481 56.5 25.4461 56.5 25.4442C56.5 25.4422 56.5 25.4402 56.5 25.4382C56.5 25.4362 56.5 25.4342 56.5 25.4322C56.5 25.4302 56.5 25.4282 56.5 25.4262C56.5 25.4242 56.5 25.4222 56.5 25.4202C56.5 25.4182 56.5 25.4162 56.5 25.4142C56.5 25.4122 56.5 25.4102 56.5 25.4082C56.5 25.4062 56.5 25.4042 56.5 25.4022C56.5 25.4002 56.5 25.3981 56.5 25.3961C56.5 25.3941 56.5 25.3921 56.5 25.3901C56.5 25.388 56.5 25.386 56.5 25.384C56.5 25.3819 56.5 25.3799 56.5 25.3779C56.5 25.3759 56.5 25.3738 56.5 25.3718C56.5 25.3697 56.5 25.3677 56.5 25.3657C56.5 25.3636 56.5 25.3616 56.5 25.3595C56.5 25.3575 56.5 25.3554 56.5 25.3534C56.5 25.3513 56.5 25.3493 56.5 25.3472C56.5 25.3452 56.5 25.3431 56.5 25.3411C56.5 25.339 56.5 25.337 56.5 25.3349C56.5 25.3328 56.5 25.3308 56.5 25.3287C56.5 25.3266 56.5 25.3246 56.5 25.3225C56.5 25.3204 56.5 25.3183 56.5 25.3163C56.5 25.3142 56.5 25.3121 56.5 25.31C56.5 25.308 56.5 25.3059 56.5 25.3038C56.5 25.3017 56.5 25.2996 56.5 25.2975C56.5 25.2954 56.5 25.2934 56.5 25.2913C56.5 25.2892 56.5 25.2871 56.5 25.285C56.5 25.2829 56.5 25.2808 56.5 25.2787C56.5 25.2766 56.5 25.2745 56.5 25.2724C56.5 25.2703 56.5 25.2682 56.5 25.266C56.5 25.2639 56.5 25.2618 56.5 25.2597C56.5 25.2576 56.5 25.2555 56.5 25.2534C56.5 25.2512 56.5 25.2491 56.5 25.247C56.5 25.2449 56.5 25.2428 56.5 25.2406C56.5 25.2385 56.5 25.2364 56.5 25.2343C56.5 25.2321 56.5 25.23 56.5 25.2279C56.5 25.2257 56.5 25.2236 56.5 25.2214C56.5 25.2193 56.5 25.2172 56.5 25.215C56.5 25.2129 56.5 25.2107 56.5 25.2086C56.5 25.2064 56.5 25.2043 56.5 25.2021C56.5 25.2 56.5 25.1978 56.5 25.1957C56.5 25.1935 56.5 25.1914 56.5 25.1892C56.5 25.187 56.5 25.1849 56.5 25.1827C56.5 25.1806 56.5 25.1784 56.5 25.1762C56.5 25.1741 56.5 25.1719 56.5 25.1697C56.5 25.1675 56.5 25.1654 56.5 25.1632C56.5 25.161 56.5 25.1588 56.5 25.1567C56.5 25.1545 56.5 25.1523 56.5 25.1501C56.5 25.1479 56.5 25.1457 56.5 25.1436C56.5 25.1414 56.5 25.1392 56.5 25.137C56.5 25.1348 56.5 25.1326 56.5 25.1304C56.5 25.1282 56.5 25.126 56.5 25.1238C56.5 25.1216 56.5 25.1194 56.5 25.1172C56.5 25.115 56.5 25.1128 56.5 25.1106C56.5 25.1084 56.5 25.1062 56.5 25.1039C56.5 25.1017 56.5 25.0995 56.5 25.0973C56.5 25.0951 56.5 25.0929 56.5 25.0906C56.5 25.0884 56.5 25.0862 56.5 25.084C56.5 25.0817 56.5 25.0795 56.5 25.0773C56.5 25.0751 56.5 25.0728 56.5 25.0706C56.5 25.0684 56.5 25.0661 56.5 25.0639C56.5 25.0617 56.5 25.0594 56.5 25.0572C56.5 25.0549 56.5 25.0527 56.5 25.0504C56.5 25.0482 56.5 25.046 56.5 25.0437C56.5 25.0415 56.5 25.0392 56.5 25.037C56.5 25.0347 56.5 25.0324 56.5 25.0302C56.5 25.0279 56.5 25.0257 56.5 25.0234C56.5 25.0212 56.5 25.0189 56.5 25.0166C56.5 25.0144 56.5 25.0121 56.5 25.0098C56.5 25.0076 56.5 25.0053 56.5 25.003C56.5 25.0007 56.5 24.9985 56.5 24.9962C56.5 24.9939 56.5 24.9916 56.5 24.9894C56.5 24.9871 56.5 24.9848 56.5 24.9825C56.5 24.9802 56.5 24.9779 56.5 24.9756C56.5 24.9734 56.5 24.9711 56.5 24.9688C56.5 24.9665 56.5 24.9642 56.5 24.9619C56.5 24.9596 56.5 24.9573 56.5 24.955C56.5 24.9527 56.5 24.9504 56.5 24.9481C56.5 24.9458 56.5 24.9435 56.5 24.9412C56.5 24.9389 56.5 24.9366 56.5 24.9342C56.5 24.9319 56.5 24.9296 56.5 24.9273C56.5 24.925 56.5 24.9227 56.5 24.9204C56.5 24.918 56.5 24.9157 56.5 24.9134C56.5 24.9111 56.5 24.9087 56.5 24.9064C56.5 24.9041 56.5 24.9018 56.5 24.8994C56.5 24.8971 56.5 24.8948 56.5 24.8924C56.5 24.8901 56.5 24.8878 56.5 24.8854C56.5 24.8831 56.5 24.8807 56.5 24.8784C56.5 24.8761 56.5 24.8737 56.5 24.8714C56.5 24.869 56.5 24.8667 56.5 24.8643C56.5 24.862 56.5 24.8596 56.5 24.8573C56.5 24.8549 56.5 24.8525 56.5 24.8502C56.5 24.8478 56.5 24.8455 56.5 24.8431C56.5 24.8408 56.5 24.8384 56.5 24.836C56.5 24.8337 56.5 24.8313 56.5 24.8289C56.5 24.8266 56.5 24.8242 56.5 24.8218C56.5 24.8194 56.5 24.8171 56.5 24.8147C56.5 24.8123 56.5 24.8099 56.5 24.8075C56.5 24.8052 56.5 24.8028 56.5 24.8004C56.5 24.798 56.5 24.7956 56.5 24.7932C56.5 24.7909 56.5 24.7885 56.5 24.7861C56.5 24.7837 56.5 24.7813 56.5 24.7789C56.5 24.7765 56.5 24.7741 56.5 24.7717C56.5 24.7693 56.5 24.7669 56.5 24.7645C56.5 24.7621 56.5 24.7597 56.5 24.7573C56.5 24.7549 56.5 24.7525 56.5 24.7501C56.5 24.7476 56.5 24.7452 56.5 24.7428C56.5 24.7404 56.5 24.738 56.5 24.7356C56.5 24.7332 56.5 24.7307 56.5 24.7283C56.5 24.7259 56.5 24.7235 56.5 24.721C56.5 24.7186 56.5 24.7162 56.5 24.7138C56.5 24.7113 56.5 24.7089 56.5 24.7065C56.5 24.704 56.5 24.7016 56.5 24.6992C56.5 24.6967 56.5 24.6943 56.5 24.6919C56.5 24.6894 56.5 24.687 56.5 24.6845C56.5 24.6821 56.5 24.6796 56.5 24.6772C56.5 24.6748 56.5 24.6723 56.5 24.6699C56.5 24.6674 56.5 24.665 56.5 24.6625C56.5 24.66 56.5 24.6576 56.5 24.6551C56.5 24.6527 56.5 24.6502 56.5 24.6478C56.5 24.6453 56.5 24.6428 56.5 24.6404C56.5 24.6379 56.5 24.6354 56.5 24.633C56.5 24.6305 56.5 24.628 56.5 24.6255C56.5 24.6231 56.5 24.6206 56.5 24.6181C56.5 24.6157 56.5 24.6132 56.5 24.6107C56.5 24.6082 56.5 24.6057 56.5 24.6033C56.5 24.6008 56.5 24.5983 56.5 24.5958C56.5 24.5933 56.5 24.5908 56.5 24.5883C56.5 24.5858 56.5 24.5834 56.5 24.5809C56.5 24.5784 56.5 24.5759 56.5 24.5734C56.5 24.5709 56.5 24.5684 56.5 24.5659C56.5 24.5634 56.5 24.5609 56.5 24.5584C56.5 24.5559 56.5 24.5534 56.5 24.5509C56.5 24.5483 56.5 24.5458 56.5 24.5433C56.5 24.5408 56.5 24.5383 56.5 24.5358C56.5 24.5333 56.5 24.5308 56.5 24.5282C56.5 24.5257 56.5 24.5232 56.5 24.5207C56.5 24.5182 56.5 24.5156 56.5 24.5131C56.5 24.5106 56.5 24.5081 56.5 24.5055C56.5 24.503 56.5 24.5005 56.5 24.4979C56.5 24.4954 56.5 24.4929 56.5 24.4903C56.5 24.4878 56.5 24.4853 56.5 24.4827C56.5 24.4802 56.5 24.4776 56.5 24.4751C56.5 24.4726 56.5 24.47 56.5 24.4675C56.5 24.4649 56.5 24.4624 56.5 24.4598C56.5 24.4573 56.5 24.4547 56.5 24.4522C56.5 24.4496 56.5 24.4471 56.5 24.4445C56.5 24.442 56.5 24.4394 56.5 24.4368C56.5 24.4343 56.5 24.4317 56.5 24.4292C56.5 24.4266 56.5 24.424 56.5 24.4215C56.5 24.4189 56.5 24.4163 56.5 24.4138C56.5 24.4112 56.5 24.4086 56.5 24.406C56.5 24.4035 56.5 24.4009 56.5 24.3983C56.5 24.3957 56.5 24.3932 56.5 24.3906C56.5 24.388 56.5 24.3854 56.5 24.3828C56.5 24.3803 56.5 24.3777 56.5 24.3751C56.5 24.3725 56.5 24.3699 56.5 24.3673C56.5 24.3647 56.5 24.3621 56.5 24.3595C56.5 24.357 56.5 24.3544 56.5 24.3518C56.5 24.3492 56.5 24.3466 56.5 24.344C56.5 24.3414 56.5 24.3388 56.5 24.3362C56.5 24.3336 56.5 24.331 56.5 24.3283C56.5 24.3257 56.5 24.3231 56.5 24.3205C56.5 24.3179 56.5 24.3153 56.5 24.3127C56.5 24.3101 56.5 24.3075 56.5 24.3048C56.5 24.3022 56.5 24.2996 56.5 24.297C56.5 24.2944 56.5 24.2917 56.5 24.2891C56.5 24.2865 56.5 24.2839 56.5 24.2812C56.5 24.2786 56.5 24.276 56.5 24.2734C56.5 24.2707 56.5 24.2681 56.5 24.2655C56.5 24.2628 56.5 24.2602 56.5 24.2576C56.5 24.2549 56.5 24.2523 56.5 24.2497C56.5 24.247 56.5 24.2444 56.5 24.2417C56.5 24.2391 56.5 24.2364 56.5 24.2338C56.5 24.2312 56.5 24.2285 56.5 24.2259C56.5 24.2232 56.5 24.2206 56.5 24.2179C56.5 24.2153 56.5 24.2126 56.5 24.2099C56.5 24.2073 56.5 24.2046 56.5 24.202C56.5 24.1993 56.5 24.1967 56.5 24.194C56.5 24.1913 56.5 24.1887 56.5 24.186C56.5 24.1833 56.5 24.1807 56.5 24.178C56.5 24.1753 56.5 24.1727 56.5 24.17C56.5 24.1673 56.5 24.1646 56.5 24.162C56.5 24.1593 56.5 24.1566 56.5 24.1539C56.5 24.1513 56.5 24.1486 56.5 24.1459C56.5 24.1432 56.5 24.1405 56.5 24.1379C56.5 24.1352 56.5 24.1325 56.5 24.1298C56.5 24.1271 56.5 24.1244 56.5 24.1217C56.5 24.119 56.5 24.1164 56.5 24.1137C56.5 24.111 56.5 24.1083 56.5 24.1056C56.5 24.1029 56.5 24.1002 56.5 24.0975C56.5 24.0948 56.5 24.0921 56.5 24.0894C56.5 24.0867 56.5 24.084 56.5 24.0813C56.5 24.0786 56.5 24.0758 56.5 24.0731C56.5 24.0704 56.5 24.0677 56.5 24.065C56.5 24.0623 56.5 24.0596 56.5 24.0569C56.5 24.0542 56.5 24.0514 56.5 24.0487C56.5 24.046 56.5 24.0433 56.5 24.0406C56.5 24.0378 56.5 24.0351 56.5 24.0324C56.5 24.0297 56.5 24.0269 56.5 24.0242C56.5 24.0215 56.5 24.0188 56.5 24.016C56.5 24.0133 56.5 24.0106 56.5 24.0078C56.5 24.0051 56.5 24.0024 56.5 23.9996C56.5 23.9969 56.5 23.9941 56.5 23.9914C56.5 23.9887 56.5 23.9859 56.5 23.9832C56.5 23.9804 56.5 23.9777 56.5 23.9749C56.5 23.9722 56.5 23.9695 56.5 23.9667C56.5 23.964 56.5 23.9612 56.5 23.9585C56.5 23.9557 56.5 23.953 56.5 23.9502C56.5 23.9474 56.5 23.9447 56.5 23.9419C56.5 23.9392 56.5 23.9364 56.5 23.9337C56.5 23.9309 56.5 23.9281 56.5 23.9254C56.5 23.9226 56.5 23.9198 56.5 23.9171C56.5 23.9143 56.5 23.9115 56.5 23.9088C56.5 23.906 56.5 23.9032 56.5 23.9005C56.5 23.8977 56.5 23.8949 56.5 23.8921C56.5 23.8894 56.5 23.8866 56.5 23.8838C56.5 23.881 56.5 23.8782 56.5 23.8755C56.5 23.8727 56.5 23.8699 56.5 23.8671C56.5 23.8643 56.5 23.8615 56.5 23.8588C56.5 23.856 56.5 23.8532 56.5 23.8504C56.5 23.8476 56.5 23.8448 56.5 23.842C56.5 23.8392 56.5 23.8364 56.5 23.8336C56.5 23.8308 56.5 23.828 56.5 23.8252C56.5 23.8224 56.5 23.8196 56.5 23.8168C56.5 23.814 56.5 23.8112 56.5 23.8084C56.5 23.8056 56.5 23.8028 56.5 23.8C56.5 23.7972 56.5 23.7944 56.5 23.7916C56.5 23.7888 56.5 23.786 56.5 23.7831C56.5 23.7803 56.5 23.7775 56.5 23.7747C56.5 23.7719 56.5 23.7691 56.5 23.7662C56.5 23.7634 56.5 23.7606 56.5 23.7578C56.5 23.755 56.5 23.7521 56.5 23.7493C56.5 23.7465 56.5 23.7437 56.5 23.7408C56.5 23.738 56.5 23.7352 56.5 23.7324C56.5 23.7295 56.5 23.7267 56.5 23.7239C56.5 23.721 56.5 23.7182 56.5 23.7154C56.5 23.7125 56.5 23.7097 56.5 23.7068C56.5 23.704 56.5 23.7012 56.5 23.6983C56.5 23.6955 56.5 23.6926 56.5 23.6898C56.5 23.687 56.5 23.6841 56.5 23.6813C56.5 23.6784 56.5 23.6756 56.5 23.6727C56.5 23.6699 56.5 23.667 56.5 23.6642C56.5 23.6613 56.5 23.6585 56.5 23.6556C56.5 23.6527 56.5 23.6499 56.5 23.647C56.5 23.6442 56.5 23.6413 56.5 23.6385C56.5 23.6356 56.5 23.6327 56.5 23.6299C56.5 23.627 56.5 23.6241 56.5 23.6213C56.5 23.6184 56.5 23.6155 56.5 23.6127C56.5 23.6098 56.5 23.6069 56.5 23.6041C56.5 23.6012 56.5 23.5983 56.5 23.5954C56.5 23.5926 56.5 23.5897 56.5 23.5868C56.5 23.5839 56.5 23.5811 56.5 23.5782C56.5 23.5753 56.5 23.5724 56.5 23.5695C56.5 23.5667 56.5 23.5638 56.5 23.5609C56.5 23.558 56.5 23.5551 56.5 23.5522C56.5 23.5493 56.5 23.5464 56.5 23.5436C56.5 23.5407 56.5 23.5378 56.5 23.5349C56.5 23.532 56.5 23.5291 56.5 23.5262C56.5 23.5233 56.5 23.5204 56.5 23.5175C56.5 23.5146 56.5 23.5117 56.5 23.5088C56.5 23.5059 56.5 23.503 56.5 23.5001C56.5 23.4972 56.5 23.4943 56.5 23.4914C56.5 23.4885 56.5 23.4856 56.5 23.4827C56.5 23.4798 56.5 23.4768 56.5 23.4739C56.5 23.471 56.5 23.4681 56.5 23.4652C56.5 23.4623 56.5 23.4594 56.5 23.4564C56.5 23.4535 56.5 23.4506 56.5 23.4477C56.5 23.4448 56.5 23.4419 56.5 23.4389C56.5 23.436 56.5 23.4331 56.5 23.4302C56.5 23.4272 56.5 23.4243 56.5 23.4214C56.5 23.4185 56.5 23.4155 56.5 23.4126C56.5 23.4097 56.5 23.4067 56.5 23.4038C56.5 23.4009 56.5 23.3979 56.5 23.395C56.5 23.3921 56.5 23.3891 56.5 23.3862C56.5 23.3833 56.5 23.3803 56.5 23.3774C56.5 23.3744 56.5 23.3715 56.5 23.3686C56.5 23.3656 56.5 23.3627 56.5 23.3597C56.5 23.3568 56.5 23.3538 56.5 23.3509C56.5 23.3479 56.5 23.345 56.5 23.342C56.5 23.3391 56.5 23.3361 56.5 23.3332C56.5 23.3302 56.5 23.3273 56.5 23.3243C56.5 23.3214 56.5 23.3184 56.5 23.3155C56.5 23.3125 56.5 23.3095 56.5 23.3066H55.5ZM55.5301 26.2478C55.4489 26.4711 55.2933 26.8255 55.0997 27.1423C55.0032 27.3004 54.9039 27.438 54.8076 27.5426C54.7072 27.6516 54.6344 27.6982 54.5965 27.7134L54.9679 28.6419C55.2006 28.5488 55.3928 28.3834 55.5434 28.2198C55.6979 28.0519 55.8354 27.8563 55.9531 27.6637C56.188 27.2792 56.3707 26.8623 56.4699 26.5895L55.5301 26.2478Z" fill="#004990"/>
<rect x="-7.5" y="20.0068" width="35.8219" height="10.3973" rx="2.13014" stroke="#004990"/>
<line x1="18.8013" y1="19.5068" x2="18.8013" y2="30.0274" stroke="#004990"/>
<line x1="7.4043" y1="19.5068" x2="7.4043" y2="30.0274" stroke="#004990"/>
<circle cx="29.6553" cy="47.0089" r="5.50885" stroke="#004990"/>
<line x1="-3.5" y1="37.5" x2="27.5" y2="37.5" stroke="#004990" stroke-linecap="round"/>
</g>
<circle cx="33.5" cy="33.5" r="33" stroke="#004990" stroke-opacity="0.3"/>
<defs>
<clipPath id="clip0_5136_46632">
<rect x="1" y="1" width="65" height="65" rx="32.5" fill="white"/>
</clipPath>
</defs>
</svg>
