<svg width="40" height="40" viewBox="0 0 40 40" fill="none" xmlns="http://www.w3.org/2000/svg">
<path d="M23.8948 17.3442C25.5848 17.9742 28.0348 18.9142 33.0448 18.5842C34.0048 18.5242 34.7548 19.4042 34.5348 20.3342C33.7448 23.7342 31.5348 30.7441 26.4148 33.2341C24.6848 34.0741 22.6449 33.6543 21.3849 32.2043C19.7749 30.3543 18.9948 27.9542 18.6648 25.5342" stroke="#0B2343" stroke-miterlimit="10" stroke-linecap="round" stroke-linejoin="round"/>
<path d="M24.3548 23.6242C24.2348 24.2342 23.5848 24.6241 22.9248 24.4841C22.2648 24.3441 21.3048 23.3641 21.4348 22.7541C21.5548 22.1441 22.7149 22.1341 23.3749 22.2641C24.0449 22.4041 24.4848 23.0142 24.3548 23.6242Z" stroke="#0B2343" stroke-miterlimit="10" stroke-linecap="round" stroke-linejoin="round"/>
<path d="M27.0348 24.1744C26.9148 24.7844 27.3449 25.3943 28.0149 25.5243C28.6849 25.6643 29.9349 25.1242 30.0649 24.5142C30.1949 23.9042 29.1349 23.4443 28.4649 23.3043C27.8049 23.1743 27.1648 23.5644 27.0348 24.1744Z" stroke="#0B2343" stroke-miterlimit="10" stroke-linecap="round" stroke-linejoin="round"/>
<path d="M26.2848 30.4943C26.8748 30.8243 27.5448 30.1943 27.2848 29.5743C26.8748 28.6243 26.0249 27.8844 24.9249 27.6544C23.8349 27.4344 22.7549 27.7843 22.0049 28.4943C21.5149 28.9543 21.8949 29.8042 22.5649 29.7242C23.8549 29.5942 25.1648 29.8643 26.2848 30.4943Z" stroke="#0B2343" stroke-miterlimit="10" stroke-linecap="round" stroke-linejoin="round"/>
<path d="M20.7348 7.07412C21.6948 6.76412 22.6848 7.46403 22.7148 8.47403C22.7948 12.144 22.3648 19.864 17.7848 23.734C16.2448 25.034 14.0548 25.144 12.3948 23.994C7.46476 20.584 6.28486 12.9341 6.00486 9.27408C5.92486 8.26408 6.84481 7.47423 7.82481 7.68423C12.5548 8.72423 16.2648 8.53412 20.7348 7.07412Z" stroke="#0B2343" stroke-miterlimit="10" stroke-linecap="round" stroke-linejoin="round"/>
<path d="M13.1948 14.4741C13.2248 15.1341 12.6748 15.6941 11.9648 15.7241C11.2548 15.7541 10.0248 15.0042 9.99483 14.3442C9.96483 13.6842 11.1348 13.3742 11.8448 13.3442C12.5548 13.3042 13.1648 13.8141 13.1948 14.4741Z" stroke="#0B2343" stroke-miterlimit="10" stroke-linecap="round" stroke-linejoin="round"/>
<path d="M16.0648 14.3343C16.0948 14.9943 16.7047 15.4944 17.4147 15.4644C18.1247 15.4344 19.2748 14.5644 19.2448 13.9044C19.2148 13.2444 18.0148 13.0543 17.3048 13.0843C16.5848 13.1143 16.0348 13.6743 16.0648 14.3343Z" stroke="#0B2343" stroke-miterlimit="10" stroke-linecap="round" stroke-linejoin="round"/>
<path d="M12.8348 18.5643C12.1548 18.3843 11.6248 19.1942 12.0548 19.7542C12.7248 20.6142 13.7848 21.1543 14.9548 21.0943C16.1248 21.0343 17.1348 20.4042 17.7148 19.4842C18.0948 18.8842 17.4848 18.1244 16.8248 18.3744C15.5448 18.8444 14.1448 18.9143 12.8348 18.5643Z" stroke="#0B2343" stroke-miterlimit="10" stroke-linecap="round" stroke-linejoin="round"/>
</svg>
