<svg width="40" height="40" viewBox="0 0 40 40" fill="none" xmlns="http://www.w3.org/2000/svg">
<path d="M26.7075 7.36752L13.3075 20.7675C12.8275 21.2475 12.4674 21.8176 12.2374 22.4476L10.8275 26.3575C10.5175 27.2275 10.0174 28.0076 9.36745 28.6576L6.5475 31.4775C5.8175 32.2075 5.8175 33.3875 6.5475 34.1075C7.2775 34.8375 8.4575 34.8375 9.17751 34.1075L11.9975 31.2876C12.6475 30.6376 13.4375 30.1376 14.2975 29.8276L18.2075 28.4176C18.8375 28.1876 19.4175 27.8275 19.8875 27.3475L33.2875 13.9476C35.1075 12.1276 35.1075 9.1675 33.2875 7.3475C31.4875 5.5475 28.5275 5.54752 26.7075 7.36752Z" stroke="#0B2343" stroke-miterlimit="10" stroke-linecap="round" stroke-linejoin="round"/>
<path d="M8.57751 29.4677L11.2075 32.0975" stroke="#0B2343" stroke-miterlimit="10" stroke-linecap="round" stroke-linejoin="round"/>
<path d="M29.8875 10.7776L16.1575 24.5176" stroke="#0B2343" stroke-miterlimit="10" stroke-linecap="round" stroke-linejoin="round"/>
<path d="M24.8275 9.24756L26.3075 10.7275" stroke="#0B2343" stroke-miterlimit="10" stroke-linecap="round" stroke-linejoin="round"/>
<path d="M22.2775 11.7976L23.7574 13.2676" stroke="#0B2343" stroke-miterlimit="10" stroke-linecap="round" stroke-linejoin="round"/>
<path d="M19.7374 14.3376L21.2075 15.8176" stroke="#0B2343" stroke-miterlimit="10" stroke-linecap="round" stroke-linejoin="round"/>
<path d="M17.1875 16.8876L18.6675 18.3676" stroke="#0B2343" stroke-miterlimit="10" stroke-linecap="round" stroke-linejoin="round"/>
<path d="M14.6375 19.4376L16.1174 20.9076" stroke="#0B2343" stroke-miterlimit="10" stroke-linecap="round" stroke-linejoin="round"/>
<path d="M10.7175 7.00757V15.0276" stroke="#0B2343" stroke-miterlimit="10" stroke-linecap="round" stroke-linejoin="round"/>
<path d="M14.7374 11.0176H6.70752" stroke="#0B2343" stroke-miterlimit="10" stroke-linecap="round" stroke-linejoin="round"/>
</svg>
