<svg width="40" height="40" viewBox="0 0 40 40" fill="none" xmlns="http://www.w3.org/2000/svg">
<path d="M31.03 22.01H28.6799" stroke="#0B2343" stroke-linecap="round" stroke-linejoin="round"/>
<path d="M29.7501 25.6602H28.0601" stroke="#0B2343" stroke-miterlimit="10" stroke-linecap="round" stroke-linejoin="round"/>
<path d="M13.0801 30.49C19.9101 32.7 28.05 32.5701 28.05 32.5701C31.17 32.5701 30.5101 29.3201 28.2501 29.3201H27.35" stroke="#0B2343" stroke-linecap="round" stroke-linejoin="round"/>
<path d="M13.0801 19.4599C13.0801 19.4599 19.5201 14.6501 19.0601 9.6201C18.7101 5.8101 26.1701 8.72008 22.0201 18.3501H31.23C33.8 18.3501 33.79 22 31.23 22H31.0301C33.6201 22 33.5501 25.6501 31.0301 25.6501H29.7401C32.3101 25.6501 32.3001 29.3 29.7401 29.3H28.2501" stroke="#0B2343" stroke-linecap="round" stroke-linejoin="round"/>
<path d="M13 17.3501H6V32.3501H13V17.3501Z" stroke="#0B2343" stroke-linecap="round" stroke-linejoin="round"/>
</svg>
