<svg width="40" height="40" viewBox="0 0 40 40" fill="none" xmlns="http://www.w3.org/2000/svg">
<path d="M31.03 18.5615H28.6799" stroke="#0B2343" stroke-linecap="round" stroke-linejoin="round"/>
<path d="M29.7501 14.9114H28.0601" stroke="#0B2343" stroke-miterlimit="10" stroke-linecap="round" stroke-linejoin="round"/>
<path d="M13.0801 10.0813C19.9101 7.87128 28.05 8.00145 28.05 8.00145C31.17 8.00145 30.5101 11.2615 28.2501 11.2615H27.35" stroke="#0B2343" stroke-linecap="round" stroke-linejoin="round"/>
<path d="M13.0801 21.1113C13.0801 21.1113 19.5201 25.9214 19.0601 30.9514C18.7101 34.7714 26.1701 31.8514 22.0201 22.2214H31.23C33.8 22.2214 33.79 18.5713 31.23 18.5713H31.0301C33.6201 18.5713 33.5501 14.9214 31.0301 14.9214H29.7401C32.3101 14.9214 32.3001 11.2715 29.7401 11.2715H28.2501" stroke="#0B2343" stroke-linecap="round" stroke-linejoin="round"/>
<path d="M13 8.23145H6V23.2314H13V8.23145Z" stroke="#0B2343" stroke-linecap="round" stroke-linejoin="round"/>
</svg>
