<svg width="40" height="40" viewBox="0 0 40 40" fill="none" xmlns="http://www.w3.org/2000/svg">
<path d="M11.4804 22.12L12.3504 22.08C13.1604 21.75 14.3105 21.2899 15.2005 21.2899C17.4005 21.2899 18.8905 23.3101 18.0905 23.6701L14.4605 25.3099C12.6605 26.1199 8.79047 25.98 8.08048 22.6C7.74047 20.99 8.48046 19.8 10.2505 19.1C11.6105 18.57 13.6405 18.2999 16.2805 18.2999H16.7005C16.7005 18.2999 16.0705 14.2501 14.8405 12.2001V12.1901C14.2005 11.0901 13.6305 10.14 13.6305 8.81995C13.6305 5.27995 16.9405 5.40001 17.3705 7.38001C18.0605 10.58 19.7405 11.92 22.7805 15.16C22.7905 15.17 22.8005 15.1801 22.8105 15.1901C23.2405 15.7201 26.2705 19.7799 26.8905 20.0599C27.1505 20.1799 30.8905 20.39 30.8905 20.39C31.4805 22.02 31.8604 23.59 31.8604 25.57C31.8604 27.32 31.4905 28.7799 30.9705 30.2899H27.9204C27.6504 30.2899 27.4005 30.42 27.2205 30.63C25.9105 32.24 24.3305 33.5501 22.3105 34.7101C20.9705 35.1001 19.3505 34.6101 18.0905 34.2701M16.9104 24.2001C18.1804 24.6301 18.8804 24.8002 19.8004 26.0302C19.9704 26.2602 19.8805 26.5901 19.6205 26.7101C14.4205 29.0101 15.5404 28.7601 12.2904 28.7601C10.6604 28.7601 8.85043 28.4299 8.85043 26.7999C8.85043 26.4499 8.98046 26.0801 9.25046 25.7001L9.68045 25.0302L16.9104 24.2001ZM18.6104 27.15C19.4804 27.68 19.9305 27.83 20.6205 28.62C20.7905 28.84 20.9804 29.0102 20.9104 29.2802C20.8804 29.4102 20.7804 29.52 20.6604 29.58C15.5804 31.85 16.3105 31.7101 13.9505 31.7101C12.3305 31.7101 10.6305 31.3801 10.6305 29.7601L10.9705 28.6701L18.6104 27.15ZM19.3805 30.14C20.1305 30.9 22.1504 32.44 21.1704 32.88L17.6004 34.4901C16.7404 34.8801 14.9704 34.8401 14.1004 34.2501C13.1604 33.6101 13.3004 32.7601 13.3604 31.6801L19.3805 30.14Z" stroke="#0B2343" stroke-linecap="round" stroke-linejoin="round"/>
</svg>
