<svg width="40" height="40" viewBox="0 0 40 40" fill="none" xmlns="http://www.w3.org/2000/svg">
<path d="M15.16 9.3999H13.35M16.34 6C13.55 6 13.23 7.65005 13.23 8.55005C13.23 8.62005 13.35 9.38989 13.35 9.38989L12.87 9.42993C10.89 9.58993 10.67 10.67 10.67 11.47C10.67 12.19 10.7099 12.5199 10.7599 12.9199C9.15995 13.5199 8.76996 13.7099 8.76996 15.4399C8.76996 15.8599 8.91998 16.31 9.22998 16.79L9.40997 17.0798C9.40997 17.0798 8 18.19 8 19.23C8 20.39 8.62998 20.8498 9.91998 21.5798C12.12 22.8098 14.84 22.73 16.5 22.73C16.5 22.73 15.78 26.1798 15.06 27.5798C14.44 28.6598 13.47 30.5 13.47 31.74C13.47 32.71 14.21 33.6399 15.02 34.3599C15.96 35.1899 17.45 34.68 17.73 33.46C18.12 31.73 18.97 30.1399 20.18 28.8499L22.64 26.23C23.27 25.56 26.04 21.6899 26.73 21.1899C27.11 20.9099 27.66 20.77 28.42 20.77H30.96C32.48 17.35 32.45 13.78 31.07 10.24H27.97C27.72 10.24 27.48 10.14 27.3 9.94995C26.13 8.67995 23.85 6.05001 19.39 6.01001C17.95 6.01001 16.48 6 16.34 6ZM13.77 16.8699L9.40997 17.0898L13.77 16.8699ZM14.57 12.77L10.7599 12.9299L14.57 12.77Z" stroke="#0B2343" stroke-linecap="round" stroke-linejoin="round"/>
</svg>
