<svg width="40" height="40" viewBox="0 0 40 40" fill="none" xmlns="http://www.w3.org/2000/svg">
<path d="M27.5679 23.1914H22.3551C22.2169 23.1914 22.0843 23.2385 21.9865 23.3223C21.8888 23.4061 21.8339 23.5197 21.8339 23.6382C21.8339 23.7567 21.8888 23.8704 21.9865 23.9542C22.0843 24.0379 22.2169 24.085 22.3551 24.085H27.5679C27.7062 24.085 27.8387 24.0379 27.9365 23.9542C28.0343 23.8704 28.0892 23.7567 28.0892 23.6382C28.0892 23.5197 28.0343 23.4061 27.9365 23.3223C27.8387 23.2385 27.7062 23.1914 27.5679 23.1914Z" fill="#0B2343"/>
<path d="M24.3142 24.8379H22.2756C22.1405 24.8379 22.0108 24.885 21.9153 24.9688C21.8197 25.0526 21.766 25.1662 21.766 25.2847C21.766 25.4032 21.8197 25.5168 21.9153 25.6006C22.0108 25.6844 22.1405 25.7315 22.2756 25.7315H24.3142C24.4494 25.7315 24.579 25.6844 24.6746 25.6006C24.7701 25.5168 24.8238 25.4032 24.8238 25.2847C24.8238 25.1662 24.7701 25.0526 24.6746 24.9688C24.579 24.885 24.4494 24.8379 24.3142 24.8379Z" fill="#0B2343"/>
<path d="M26.3528 24.8379H25.8431C25.708 24.8379 25.5783 24.885 25.4828 24.9688C25.3872 25.0526 25.3335 25.1662 25.3335 25.2847C25.3335 25.4032 25.3872 25.5168 25.4828 25.6006C25.5783 25.6844 25.708 25.7315 25.8431 25.7315H26.3528C26.4879 25.7315 26.6176 25.6844 26.7131 25.6006C26.8087 25.5168 26.8624 25.4032 26.8624 25.2847C26.8624 25.1662 26.8087 25.0526 26.7131 24.9688C26.6176 24.885 26.4879 24.8379 26.3528 24.8379Z" fill="#0B2343"/>
<path d="M11.9259 25.8873L11.9369 25.9222H11.9735H12.6616H12.7319L12.7089 25.8558L11.6052 22.6745L11.5936 22.6409H11.558H10.6733H10.6377L10.6261 22.6745L9.52246 25.8558L9.49943 25.9222H9.5697H10.2578H10.2942L10.3054 25.8875L10.5444 25.1447H11.6912L11.9259 25.8873ZM11.1158 23.2579C11.2128 23.6167 11.322 23.9803 11.4344 24.3368L11.4344 24.337L11.4806 24.4818H10.7552L10.8014 24.337L10.8014 24.3368C10.9139 23.98 11.0197 23.6165 11.1158 23.2579ZM16.619 25.9222H16.669V25.8722V22.6909V22.6409H16.619H15.5646H15.5279L15.5169 22.6759L15.0567 24.137L15.0567 24.137C14.9558 24.4584 14.8642 24.7892 14.7871 25.1164C14.7101 24.7892 14.6185 24.4584 14.5176 24.137L14.5176 24.137L14.0574 22.6759L14.0464 22.6409H14.0097H12.9552H12.9052V22.6909V25.8722V25.9222H12.9552H13.5852H13.6352V25.8722V24.2905C13.6352 24.0242 13.6312 23.7579 13.6232 23.4917C13.698 23.757 13.7776 24.0232 13.8592 24.2831L13.8592 24.2832L14.3641 25.8872L14.3751 25.9222H14.4118H15.1625H15.1991L15.2101 25.8872L15.715 24.2832L15.7151 24.2831C15.7967 24.0232 15.8763 23.7571 15.951 23.4917C15.943 23.7579 15.939 24.0242 15.939 24.2905V25.8722V25.9222H15.989H16.619ZM18.3247 23.6926L17.7745 22.6673L17.7604 22.6409H17.7305H16.9798H16.8911L16.9371 22.7168L17.8685 24.2545L16.8881 25.846L16.8412 25.9222H16.9307H17.6947H17.7242L17.7384 25.8965L18.3247 24.8412L18.911 25.8965L18.9253 25.9222H18.9547H19.7188H19.8083L19.7614 25.846L18.781 24.2545L19.7124 22.7168L19.7584 22.6409H19.6696H18.919H18.8891L18.8749 22.6673L18.3247 23.6926Z" fill="#0B2343" stroke="#0B2343" stroke-width="0.1"/>
<circle cx="29.3617" cy="12.0213" r="4.02128" stroke="#0B2343"/>
<path d="M28.1138 11.9288C27.9393 11.7543 27.6564 11.7543 27.4819 11.9288C27.3074 12.1033 27.3074 12.3862 27.4819 12.5607L28.1138 11.9288ZM28.6915 13.1384L28.3755 13.4543C28.4593 13.5381 28.573 13.5852 28.6915 13.5852C28.81 13.5852 28.9236 13.5381 29.0074 13.4543L28.6915 13.1384ZM31.4649 10.9968C31.6393 10.8224 31.6393 10.5395 31.4649 10.365C31.2904 10.1905 31.0075 10.1905 30.833 10.365L31.4649 10.9968ZM27.4819 12.5607L28.3755 13.4543L29.0074 12.8224L28.1138 11.9288L27.4819 12.5607ZM29.0074 13.4543L31.4649 10.9968L30.833 10.365L28.3755 12.8224L29.0074 13.4543Z" fill="#0B2343"/>
<path d="M15.1766 17.4887L12.3357 14.9256L12.6062 14.7924L16.5294 16.1239L18.8969 14.7924C18.8969 14.7924 20.1483 14.2265 20.588 14.1267C21.0276 14.0268 21.2644 13.9602 21.704 14.0268C22.1437 14.0934 22.0084 14.4262 21.8393 14.626C21.6702 14.8257 20.5203 15.5913 20.5203 15.5913L14.3649 19.0864L12.6062 19.5858L10.2388 19.9852C10.2388 19.9852 10.1373 20.0185 10.1035 19.9852C10.0697 19.9519 10.0697 19.8521 10.1035 19.8188C10.1373 19.7855 10.4755 19.5858 10.4755 19.5858L8.61536 18.3208L9.02121 18.0545L10.5093 18.3874C10.9715 18.5206 12.038 18.707 12.6062 18.3874C13.1744 18.0679 14.2634 17.4554 14.7369 17.1891" stroke="#0B2343" stroke-width="0.7" stroke-linecap="round" stroke-linejoin="round"/>
<path d="M16.4615 18.8461L17.3187 19.5384L17.6813 19.3169L17.8462 18.1538" stroke="#0B2343" stroke-width="0.7" stroke-linecap="round" stroke-linejoin="round"/>
<path d="M3.22339 23.4148L5.23403 22.968L5.23403 17.8297L3.22339 17.3829" stroke="#0B2343" stroke-linecap="round" stroke-linejoin="round"/>
<mask id="mask0_3182_297" style="mask-type:alpha" maskUnits="userSpaceOnUse" x="1" y="7" width="39" height="23">
<path fill-rule="evenodd" clip-rule="evenodd" d="M40 7H1V30H40V7ZM34.3404 12.0217C34.3404 14.7714 32.1114 17.0004 29.3617 17.0004C26.612 17.0004 24.383 14.7714 24.383 12.0217C24.383 9.27202 26.612 7.04297 29.3617 7.04297C32.1114 7.04297 34.3404 9.27202 34.3404 12.0217Z" fill="#C4C4C4"/>
</mask>
<g mask="url(#mask0_3182_297)">
<path d="M38.487 11.5004L38.9469 11.5394L38.9628 11.351L38.842 11.2055L38.487 11.5004ZM4.19065 29V29.4615V29ZM37.4214 29V28.5385V29ZM37.9714 28.8865L38.1548 29.31L38.2603 29.2643L38.3321 29.1744L37.9714 28.8865ZM38.3878 28.3647L38.0271 28.0768L38.0271 28.0768L38.3878 28.3647ZM38.3878 27.7889L38.0271 28.0768L38.0271 28.0768L38.3878 27.7889ZM37.1897 26.2878L37.5504 25.9999L37.5504 25.9999L37.1897 26.2878ZM37.1897 25.7119L37.5504 25.9999L37.5504 25.9999L37.1897 25.7119ZM38.3878 24.2109L38.0271 23.9229L38.0271 23.9229L38.3878 24.2109ZM38.3878 23.635L38.0271 23.9229L38.0271 23.9229L38.3878 23.635ZM37.1897 22.1339L37.5504 21.846L37.5504 21.846L37.1897 22.1339ZM37.1897 21.5581L37.5504 21.846L37.5504 21.846L37.1897 21.5581ZM38.3878 20.057L38.0271 19.7691L38.0271 19.7691L38.3878 20.057ZM38.3878 19.4812L38.0271 19.7691L38.0271 19.7691L38.3878 19.4812ZM37.1897 17.9801L37.5504 17.6922L37.5504 17.6922L37.1897 17.9801ZM37.1897 17.4043L37.5504 17.6922L37.5504 17.6922L37.1897 17.4043ZM38.3878 15.9032L38.0271 15.6152L38.0271 15.6153L38.3878 15.9032ZM38.3878 15.3273L38.0271 15.6153L38.0271 15.6153L38.3878 15.3273ZM37.1897 13.8263L37.5504 13.5383L37.5504 13.5383L37.1897 13.8263ZM37.1897 13.2504L37.5504 13.5383L37.5504 13.5383L37.1897 13.2504ZM38.3878 11.7493L38.0271 11.4614L38.0271 11.4614L38.3878 11.7493ZM37.4214 11.4615C37.7069 11.4615 37.9619 11.5906 38.132 11.7954L38.842 11.2055C38.5041 10.7987 37.993 10.5385 37.4214 10.5385V11.4615ZM31.903 11.4615H37.4214V10.5385H31.903V11.4615ZM25 11.4615H31.903V10.5385H25V11.4615ZM4.19064 11.4615H25V10.5385H4.19064V11.4615ZM3.26757 12.3846C3.26757 11.8748 3.68084 11.4615 4.19064 11.4615V10.5385C3.17104 10.5385 2.34449 11.365 2.34449 12.3846H3.26757ZM3.26757 27.6154V12.3846H2.34449V27.6154H3.26757ZM4.19065 28.5385C3.68084 28.5385 3.26757 28.1252 3.26757 27.6154H2.34449C2.34449 28.635 3.17104 29.4615 4.19065 29.4615V28.5385ZM37.4214 28.5385L4.19065 28.5385V29.4615L37.4214 29.4615V28.5385ZM37.7879 28.463C37.6761 28.5114 37.5525 28.5385 37.4214 28.5385V29.4615C37.6811 29.4615 37.9294 29.4076 38.1548 29.31L37.7879 28.463ZM38.3321 29.1744L38.7486 28.6526L38.0271 28.0768L37.6106 28.5986L38.3321 29.1744ZM38.7485 28.6526C39.0174 28.3158 39.0174 27.8378 38.7485 27.5009L38.0271 28.0768V28.0768L38.7485 28.6526ZM38.7486 27.5009L37.5504 25.9999L36.829 26.5757L38.0271 28.0768L38.7486 27.5009ZM37.5504 25.9999V25.9999L36.829 25.424C36.5601 25.7608 36.5601 26.2389 36.829 26.5757L37.5504 25.9999ZM37.5504 25.9999L38.7486 24.4988L38.0271 23.9229L36.829 25.424L37.5504 25.9999ZM38.7485 24.4988C39.0174 24.162 39.0174 23.6839 38.7485 23.3471L38.0271 23.9229V23.9229L38.7485 24.4988ZM38.7486 23.3471L37.5504 21.846L36.829 22.4219L38.0271 23.9229L38.7486 23.3471ZM37.5504 21.846V21.846L36.829 21.2702C36.5601 21.607 36.5601 22.085 36.829 22.4219L37.5504 21.846ZM37.5504 21.846L38.7486 20.3449L38.0271 19.7691L36.829 21.2702L37.5504 21.846ZM38.7485 20.3449C39.0174 20.0081 39.0174 19.5301 38.7485 19.1933L38.0271 19.7691V19.7691L38.7485 20.3449ZM38.7486 19.1933L37.5504 17.6922L36.829 18.268L38.0271 19.7691L38.7486 19.1933ZM37.5504 17.6922V17.6922L36.829 17.1163C36.5601 17.4532 36.5601 17.9312 36.829 18.268L37.5504 17.6922ZM37.5504 17.6922L38.7486 16.1911L38.0271 15.6153L36.829 17.1163L37.5504 17.6922ZM38.7485 16.1911C39.0174 15.8543 39.0174 15.3762 38.7485 15.0394L38.0271 15.6153V15.6152L38.7485 16.1911ZM38.7486 15.0394L37.5504 13.5383L36.829 14.1142L38.0271 15.6153L38.7486 15.0394ZM37.5504 13.5383V13.5383L36.829 12.9625C36.5601 13.2993 36.5601 13.7773 36.829 14.1142L37.5504 13.5383ZM37.5504 13.5383L38.7486 12.0372L38.0271 11.4614L36.829 12.9625L37.5504 13.5383ZM38.7485 12.0373C38.8657 11.8905 38.9319 11.7164 38.9469 11.5394L38.0271 11.4615L38.0271 11.4614L38.7485 12.0373Z" fill="#0B2343"/>
</g>
</svg>
