<svg width="40" height="40" viewBox="0 0 40 40" fill="none" xmlns="http://www.w3.org/2000/svg">
<path d="M13.3257 8.93994H14.547" stroke="#0B2343" stroke-linecap="round" stroke-linejoin="round"/>
<path d="M18.9342 8.93994H23.3215" stroke="#0B2343" stroke-linecap="round" stroke-linejoin="round" stroke-dasharray="1.68 1.68"/>
<path d="M25.5104 8.93994H26.7411" stroke="#0B2343" stroke-linecap="round" stroke-linejoin="round"/>
<path d="M18.1639 20.0823H13.7297L12.0481 18.3162V10.5282L13.2788 8.94048L12.0481 7.34346V6" stroke="#0B2343" stroke-linecap="round" stroke-linejoin="round"/>
<path d="M27.9716 6V7.34346L26.7409 8.94048L27.9716 10.5282V18.3162L26.8161 20.0823H21.8464" stroke="#0B2343" stroke-linecap="round" stroke-linejoin="round"/>
<path d="M29.8506 6H10" stroke="#0B2343" stroke-linecap="round" stroke-linejoin="round"/>
<path d="M21.5459 23.6148V18.2693C21.5459 16.0053 18.5209 16.0053 18.5209 18.2693V24C18.5209 24 15.9374 28.002 18.4458 32.9998" stroke="#0B2343" stroke-linecap="round" stroke-linejoin="round"/>
<path d="M25.6889 20.0825C25.6889 20.0825 27.0699 22.4969 25.1816 27.5887C24.2327 30.1346 23.8945 33 23.8945 33" stroke="#0B2343" stroke-linecap="round" stroke-linejoin="round"/>
<path d="M18.1357 23.0042H14.9792C13.0439 23.0042 13.0439 20.0825 14.9792 20.0825H18.5114" stroke="#0B2343" stroke-linecap="round" stroke-linejoin="round"/>
<path d="M17.7223 25.9069H16.0031C14.2463 25.9069 14.2275 23.0039 16.0031 23.0039H18.5208" stroke="#0B2343" stroke-linecap="round" stroke-linejoin="round"/>
<path d="M17.3371 12.9801C17.3371 13.9102 16.7641 14.6524 16.0501 14.6524C15.3361 14.6524 14.7631 13.9008 14.7631 12.9801C14.7631 12.0501 15.3361 11.3079 16.0501 11.3079C16.7641 11.3079 17.3371 12.0594 17.3371 12.9801Z" stroke="#0B2343" stroke-linecap="round" stroke-linejoin="round"/>
<path d="M22.0438 11.3079H24.0073L22.3445 14.6616" stroke="#0B2343" stroke-linecap="round" stroke-linejoin="round"/>
<path d="M18.6899 11.2988H20.6816L19.3945 12.8866C19.3945 12.8866 20.8225 12.7738 20.6816 13.9105C20.5406 15.0191 18.9341 14.7654 18.5771 14.1078" stroke="#0B2343" stroke-miterlimit="10" stroke-linecap="round" stroke-linejoin="round"/>
</svg>
