<svg width="40" height="40" viewBox="0 0 40 40" fill="none" xmlns="http://www.w3.org/2000/svg">
<path d="M18.1938 16.7895H9.78699V7.81128" stroke="#0B2343" stroke-linecap="round" stroke-linejoin="round"/>
<path d="M30.2131 7.81128V16.7411H22.3003" stroke="#0B2343" stroke-linecap="round" stroke-linejoin="round"/>
<path d="M32.1792 9.90317H34V6H6V9.90317H7.82083" stroke="#0B2343" stroke-linecap="round" stroke-linejoin="round"/>
<path d="M17.9516 32.886C14.0098 26.6003 18.3681 21.3026 18.3681 21.3026V13.7674C18.3681 11.3945 22.3003 11.3849 22.3003 13.7674V20.9054" stroke="#0B2343" stroke-linecap="round" stroke-linejoin="round"/>
<path d="M28.0242 16.7407C28.0242 16.7407 29.1864 19.8787 26.8426 26.2806C25.6707 29.4864 25.2445 33.0893 25.2445 33.0893" stroke="#0B2343" stroke-linecap="round" stroke-linejoin="round"/>
<path d="M18.3681 19.6463H14.0291C11.8015 19.6463 11.8112 16.7988 14.0291 16.7988H18.3681" stroke="#0B2343" stroke-linecap="round" stroke-linejoin="round"/>
<path d="M16.9928 22.5905H15.4915C13.4867 22.5905 13.4867 19.6462 15.4915 19.6462" stroke="#0B2343" stroke-linecap="round" stroke-linejoin="round"/>
</svg>
