<svg width="40" height="40" viewBox="0 0 40 40" fill="none" xmlns="http://www.w3.org/2000/svg">
<rect x="3.30908" y="28" width="16.6909" height="33.3818" rx="1.28392" transform="rotate(-90 3.30908 28)" stroke="#0B2343"/>
<path d="M21.8474 22.5393H26.8405C26.9503 22.5393 27.0531 22.5768 27.1266 22.6399C27.1997 22.7025 27.237 22.7838 27.237 22.8645C27.237 22.9452 27.1997 23.0264 27.1266 23.0891C27.0531 23.1522 26.9503 23.1897 26.8405 23.1897H21.8474C21.7376 23.1897 21.6348 23.1522 21.5613 23.0891C21.4882 23.0264 21.4509 22.9452 21.4509 22.8645C21.4509 22.7838 21.4882 22.7025 21.5613 22.6399C21.6348 22.5768 21.7376 22.5393 21.8474 22.5393Z" fill="#0B2343" stroke="#0B2343" stroke-width="0.205539"/>
<path d="M21.7721 24.1164H23.7247C23.831 24.1164 23.9306 24.1536 24.0021 24.2163C24.0733 24.2786 24.1101 24.3601 24.1101 24.4416C24.1101 24.5232 24.0733 24.6046 24.0021 24.667C23.9306 24.7297 23.831 24.7668 23.7247 24.7668H21.7721C21.6658 24.7668 21.5662 24.7297 21.4947 24.667C21.4235 24.6046 21.3867 24.5232 21.3867 24.4416C21.3867 24.3601 21.4235 24.2786 21.4947 24.2163C21.5662 24.1536 21.6658 24.1164 21.7721 24.1164Z" fill="#0B2343" stroke="#0B2343" stroke-width="0.205539"/>
<path d="M25.1892 24.1164H25.6774C25.7836 24.1164 25.8832 24.1536 25.9548 24.2163C26.0259 24.2786 26.0627 24.3601 26.0627 24.4416C26.0627 24.5232 26.0259 24.6046 25.9548 24.667C25.8832 24.7297 25.7836 24.7668 25.6774 24.7668H25.1892C25.0829 24.7668 24.9833 24.7297 24.9118 24.667C24.8407 24.6046 24.8038 24.5232 24.8038 24.4416C24.8038 24.3601 24.8407 24.2786 24.9118 24.2163C24.9833 24.1536 25.0829 24.1164 25.1892 24.1164Z" fill="#0B2343" stroke="#0B2343" stroke-width="0.205539"/>
<path d="M15.1766 16.4887L12.3357 13.9256L12.6062 13.7924L16.5294 15.1239L18.8969 13.7924C18.8969 13.7924 20.1483 13.2265 20.588 13.1267C21.0276 13.0268 21.2644 12.9602 21.704 13.0268C22.1437 13.0934 22.0084 13.4262 21.8393 13.626C21.6702 13.8257 20.5203 14.5913 20.5203 14.5913L14.3649 18.0864L12.6062 18.5858L10.2388 18.9852C10.2388 18.9852 10.1373 19.0185 10.1035 18.9852C10.0697 18.9519 10.0697 18.8521 10.1035 18.8188C10.1373 18.7855 10.4755 18.5858 10.4755 18.5858L8.61536 17.3208L9.02121 17.0545L10.5093 17.3874C10.9715 17.5206 12.038 17.707 12.6062 17.3874C13.1744 17.0679 14.2634 16.4554 14.7369 16.1891" stroke="#0B2343" stroke-width="0.7" stroke-linecap="round" stroke-linejoin="round"/>
<path d="M16.4615 17.8461L17.3187 18.5384L17.6813 18.3169L17.8462 17.1538" stroke="#0B2343" stroke-width="0.7" stroke-linecap="round" stroke-linejoin="round"/>
<path d="M3.52307 22.6504L5.44895 22.2224L5.44895 17.3007L3.52307 16.8728" stroke="#0B2343" stroke-linecap="round" stroke-linejoin="round"/>
<path d="M11.1276 25.4983L11.1387 25.5332H11.1753H11.8344H11.9046L11.8816 25.4668L10.8245 22.4196L10.8129 22.386H10.7773H9.92989H9.89432L9.88266 22.4196L8.82556 25.4668L8.80253 25.5332H8.8728H9.53188H9.56831L9.57948 25.4985L9.80798 24.7885H10.9033L11.1276 25.4983ZM10.3537 22.9872C10.4462 23.3285 10.55 23.6741 10.6568 24.0132L10.6569 24.0133L10.7003 24.1493H10.0112L10.0546 24.0133L10.0546 24.0132C10.1616 23.6739 10.2622 23.3283 10.3537 22.9872ZM15.625 25.5332H15.675V25.4832V22.436V22.386H15.625H14.615H14.5783L14.5673 22.421L14.1264 23.8205L14.1264 23.8205C14.0307 24.1255 13.9437 24.4394 13.8703 24.7501C13.7969 24.4394 13.7099 24.1255 13.6141 23.8205L13.6141 23.8205L13.1733 22.421L13.1623 22.386H13.1256H12.1156H12.0656V22.436V25.4832V25.5332H12.1156H12.719H12.769V25.4832V23.9682C12.769 23.7188 12.7654 23.4694 12.758 23.22C12.8283 23.4688 12.903 23.7181 12.9795 23.9618L12.9795 23.9618L13.4631 25.4982L13.4741 25.5332H13.5108H14.2298H14.2665L14.2775 25.4982L14.7611 23.9618L14.7611 23.9618C14.8376 23.7181 14.9122 23.4688 14.9825 23.22C14.9752 23.4694 14.9715 23.7188 14.9715 23.9682V25.4832V25.5332H15.0215H15.625ZM17.2587 23.3911L16.7336 22.4124L16.7195 22.386H16.6895H15.9706H15.8818L15.9278 22.4619L16.8193 23.9337L15.8809 25.457L15.8339 25.5332H15.9235H16.6553H16.6847L16.699 25.5075L17.2587 24.5L17.8185 25.5075L17.8328 25.5332H17.8622H18.594H18.6835L18.6366 25.457L17.6982 23.9337L18.5897 22.4619L18.6357 22.386H18.5469H17.8279H17.798L17.7839 22.4124L17.2587 23.3911Z" fill="#0B2343" stroke="#0B2343" stroke-width="0.1"/>
</svg>
