<svg width="40" height="40" viewBox="0 0 40 40" fill="none" xmlns="http://www.w3.org/2000/svg">
<path d="M29 21.7162H34.2239C34.8916 21.7162 35.4328 21.1749 35.4328 20.5072V7.20871C35.4328 6.54102 34.8916 5.99976 34.2239 5.99976L5.20896 5.99976C4.54127 5.99976 4 6.54102 4 7.20871L4 20.5072C4 21.1749 4.54127 21.7162 5.20896 21.7162C12.7426 21.7162 18.4664 21.7162 26 21.7162" stroke="#0B2343"/>
<path d="M21.2612 16.4773H16.5597C16.4351 16.4773 16.3155 16.5198 16.2273 16.5953C16.1391 16.6709 16.0896 16.7734 16.0896 16.8803C16.0896 16.9872 16.1391 17.0897 16.2273 17.1652C16.3155 17.2408 16.4351 17.2833 16.5597 17.2833H21.2612C21.3859 17.2833 21.5055 17.2408 21.5937 17.1652C21.6819 17.0897 21.7314 16.9872 21.7314 16.8803C21.7314 16.7734 21.6819 16.6709 21.5937 16.5953C21.5055 16.5198 21.3859 16.4773 21.2612 16.4773Z" fill="#0B2343"/>
<path d="M21.1483 17.9622H19.3097C19.1878 17.9622 19.0709 18.0046 18.9847 18.0802C18.8985 18.1558 18.85 18.2583 18.85 18.3651C18.85 18.472 18.8985 18.5745 18.9847 18.6501C19.0709 18.7257 19.1878 18.7681 19.3097 18.7681H21.1483C21.2702 18.7681 21.3871 18.7257 21.4733 18.6501C21.5595 18.5745 21.608 18.472 21.608 18.3651C21.608 18.2583 21.5595 18.1558 21.4733 18.0802C21.3871 18.0046 21.2702 17.9622 21.1483 17.9622Z" fill="#0B2343"/>
<path d="M17.7544 17.9622H17.2947C17.1728 17.9622 17.0559 18.0046 16.9697 18.0802C16.8835 18.1558 16.8351 18.2583 16.8351 18.3651C16.8351 18.472 16.8835 18.5745 16.9697 18.6501C17.0559 18.7257 17.1728 18.7681 17.2947 18.7681H17.7544C17.8763 18.7681 17.9932 18.7257 18.0794 18.6501C18.1656 18.5745 18.214 18.472 18.214 18.3651C18.214 18.2583 18.1656 18.1558 18.0794 18.0802C17.9932 18.0046 17.8763 17.9622 17.7544 17.9622Z" fill="#0B2343"/>
<path d="M14.8825 11.576L12.3354 9.27805L12.578 9.15868L16.0954 10.3524L18.2179 9.15867C18.2179 9.15867 19.3399 8.65133 19.734 8.5618C20.1282 8.47227 20.3405 8.41258 20.7347 8.47227C21.1289 8.53196 21.0076 8.8304 20.856 9.00946C20.7044 9.18852 19.6734 9.87492 19.6734 9.87492L14.1548 13.0085L12.578 13.4562L10.4555 13.8143C10.4555 13.8143 10.3645 13.8441 10.3342 13.8143C10.3039 13.7844 10.3039 13.6949 10.3342 13.6651C10.3645 13.6352 10.6677 13.4562 10.6677 13.4562L9 12.3221L9.36387 12.0834L10.698 12.3818C11.1124 12.5012 12.0686 12.6683 12.578 12.3818C13.0874 12.0953 14.0638 11.5462 14.4883 11.3074" stroke="#0B2343" stroke-width="0.627586" stroke-linecap="round" stroke-linejoin="round"/>
<path d="M16.0345 12.7931L16.803 13.4137L17.1281 13.2151L17.2759 12.1724" stroke="#0B2343" stroke-width="0.627586" stroke-linecap="round" stroke-linejoin="round"/>
<path d="M4.20154 16.679L6.01497 16.276L6.01497 11.6416L4.20154 11.2387" stroke="#0B2343" stroke-linecap="round" stroke-linejoin="round"/>
<path d="M24.8867 12.6009L25.1084 13.3021H25.729L24.7336 10.4329H23.9357L22.9403 13.3021H23.5609L23.7866 12.6009H24.8867ZM24.7255 12.0932H23.9478L24.0082 11.9038C24.1251 11.533 24.2339 11.1542 24.3306 10.7835H24.3387C24.4354 11.1542 24.5482 11.533 24.6651 11.9038L24.7255 12.0932Z" fill="#0B2343"/>
<path d="M29.2982 13.3021V10.4329H28.3472L27.9321 11.7506C27.8233 12.0972 27.7266 12.4558 27.65 12.8064H27.642C27.5654 12.4558 27.4687 12.0972 27.3599 11.7506L26.9448 10.4329H25.9938V13.3021H26.562V11.8755C26.562 11.5169 26.5539 11.1582 26.5378 10.7996H26.5459C26.6385 11.1502 26.7433 11.5088 26.8521 11.8554L27.3075 13.3021H27.9845L28.4399 11.8554C28.5487 11.5088 28.6535 11.1502 28.7462 10.7996H28.7542C28.7381 11.1582 28.73 11.5169 28.73 11.8755V13.3021H29.2982Z" fill="#0B2343"/>
<path d="M31.1953 11.8433L32.0496 10.4329H31.3726L30.8407 11.4242H30.8326L30.3007 10.4329H29.6237L30.478 11.8433L29.5793 13.3021H30.2684L30.8326 12.2866H30.8407L31.4049 13.3021H32.094L31.1953 11.8433Z" fill="#0B2343"/>
<path fill-rule="evenodd" clip-rule="evenodd" d="M26.8135 19.5852C26.6812 19.6923 26.5856 19.8513 26.5856 20.0998V25.1098C26.5856 25.2252 26.5457 25.3371 26.4726 25.4264C26.4724 25.4267 26.4721 25.427 26.4719 25.4273L26.0856 25.1098C26.4719 25.4273 26.4721 25.4271 26.4722 25.4269L26.4688 25.4311C26.4652 25.4357 26.459 25.4436 26.4505 25.4547C26.4335 25.4769 26.4073 25.5118 26.374 25.5588C26.3074 25.6528 26.2126 25.7947 26.1054 25.9786C25.8907 26.3474 25.6297 26.8804 25.4461 27.5334C25.0817 28.8289 25.0173 30.6042 26.2499 32.5499C26.3977 32.7832 26.3284 33.0921 26.0951 33.2399C25.8619 33.3876 25.553 33.3183 25.4052 33.0851C23.9929 30.8558 24.0575 28.7772 24.4834 27.2627C24.6949 26.5106 24.9944 25.8995 25.2413 25.4754C25.365 25.263 25.4762 25.0962 25.558 24.9807C25.5676 24.9672 25.5768 24.9543 25.5856 24.9422V20.0998C25.5856 19.5455 25.8206 19.1023 26.1843 18.808C26.5356 18.5236 26.9828 18.3955 27.4081 18.3955C27.8333 18.3955 28.2805 18.5236 28.6319 18.808C28.9955 19.1023 29.2305 19.5455 29.2305 20.0998V24.8529C29.2305 25.129 29.0067 25.3529 28.7305 25.3529C28.4544 25.3529 28.2305 25.129 28.2305 24.8529V20.0998C28.2305 19.8513 28.1349 19.6923 28.0027 19.5852C27.8581 19.4682 27.6441 19.3955 27.4081 19.3955C27.1721 19.3955 26.9581 19.4682 26.8135 19.5852Z" fill="#0B2343"/>
<path fill-rule="evenodd" clip-rule="evenodd" d="M31.5482 21.8815C31.5482 21.8815 31.5484 21.8821 32.0201 21.7162C32.4918 21.5504 32.492 21.551 32.492 21.551L32.4928 21.5532L32.494 21.5567L32.4971 21.5662C32.4996 21.5736 32.5026 21.5831 32.5062 21.5947C32.5134 21.618 32.5226 21.6498 32.5332 21.6902C32.5544 21.771 32.5811 21.886 32.6071 22.0354C32.6593 22.3343 32.709 22.7703 32.709 23.345C32.709 24.4951 32.5098 26.1951 31.7378 28.4597C31.3703 29.5375 31.1078 30.6881 30.9369 31.5749C30.8717 31.9132 30.8106 32.2528 30.7576 32.5935C30.7163 32.8583 30.4768 33.0359 30.211 33.0026C29.9192 32.9661 29.7277 32.7008 29.7734 32.4103C29.8272 32.0674 29.8896 31.725 29.955 31.3856C30.1304 30.4757 30.4031 29.2756 30.7913 28.137C31.5304 25.9687 31.709 24.3776 31.709 23.345C31.709 22.8283 31.6643 22.4498 31.622 22.2072C31.6008 22.0859 31.5802 21.9983 31.566 21.9443C31.5589 21.9172 31.5534 21.8986 31.5502 21.8882L31.5473 21.8789L31.5477 21.8801L31.5482 21.8815Z" fill="#0B2343"/>
<path d="M25.7471 24.8239H22.8441C21.3604 24.8239 21.3604 22.9612 22.8441 22.9612H25.7471" stroke="#0B2343" stroke-linecap="round" stroke-linejoin="round"/>
<path d="M24.7798 26.8151H23.8121C22.4574 26.8151 22.4574 24.8882 23.8121 24.8882" stroke="#0B2343" stroke-linecap="round" stroke-linejoin="round"/>
</svg>
