<svg width="40" height="40" viewBox="0 0 40 40" fill="none" xmlns="http://www.w3.org/2000/svg">
<path d="M21.63 13.22C21.63 12.6 21.68 12 21.77 11.41C21.93 10.39 21.91 9.39994 21.91 9.43994C21.91 7.53994 20.3701 6 18.4801 6C17.8001 6 16.92 6.21997 15.39 6.21997C14.48 6.21997 12.26 6 12.3 6C10.41 6 8.87 7.53994 8.87 9.43994C8.87 11.3499 9.17004 11.5 9.17004 13.22" stroke="#0B2343" stroke-miterlimit="10" stroke-linecap="round" stroke-linejoin="round"/>
<path d="M24.77 13.22C24.77 11 25.95 7.97994 23.39 6.43994" stroke="#0B2343" stroke-miterlimit="10" stroke-linecap="round" stroke-linejoin="round"/>
<path d="M25.89 31.77H8.04004C6.92004 31.77 6 30.86 6 29.73V17.8199C6 16.6999 6.91004 15.78 8.04004 15.78H25.89C27.01 15.78 27.9301 16.6899 27.9301 17.8199V29.73C27.9301 30.85 27.02 31.77 25.89 31.77Z" stroke="#0B2343" stroke-miterlimit="10" stroke-linecap="round" stroke-linejoin="round"/>
<path d="M25.9701 31.77V33.96" stroke="#0B2343" stroke-miterlimit="10" stroke-linecap="round" stroke-linejoin="round"/>
<path d="M8.01001 31.77V33.96" stroke="#0B2343" stroke-miterlimit="10" stroke-linecap="round" stroke-linejoin="round"/>
<path d="M31.8501 19.85H33.0901V16.8101H30.37" stroke="#0B2343" stroke-miterlimit="10" stroke-linecap="round" stroke-linejoin="round"/>
<path d="M19.13 25.7601C19.13 26.9301 18.18 27.8801 17.01 27.8801C15.84 27.8801 14.89 26.9301 14.89 25.7601C14.89 24.5901 15.84 23.6401 17.01 23.6401C18.18 23.6401 19.13 24.5901 19.13 25.7601Z" stroke="#0B2343" stroke-miterlimit="10" stroke-linecap="round" stroke-linejoin="round"/>
<path d="M17.01 23.6401V22.3901" stroke="#0B2343" stroke-miterlimit="10" stroke-linecap="round" stroke-linejoin="round"/>
</svg>
