<svg width="40" height="40" viewBox="0 0 40 40" fill="none" xmlns="http://www.w3.org/2000/svg">
<path d="M11.36 32.13C13.3427 32.13 14.95 30.487 14.95 28.4601C14.95 26.4332 13.3427 24.79 11.36 24.79C9.37732 24.79 7.77002 26.4332 7.77002 28.4601C7.77002 30.487 9.37732 32.13 11.36 32.13Z" stroke="#0B2343" stroke-miterlimit="10" stroke-linecap="round" stroke-linejoin="round"/>
<path d="M27.68 34.99H11.36C7.85 34.99 5 32.09 5 28.5C5 24.9 7.85 22.01 11.36 22.01H27.68C31.19 22.01 34.04 24.91 34.04 28.5C34.03 32.09 31.19 34.99 27.68 34.99Z" stroke="#0B2343" stroke-miterlimit="10" stroke-linecap="round" stroke-linejoin="round"/>
<path d="M27.67 16.2001C29.6527 16.2001 31.26 14.5569 31.26 12.53C31.26 10.5031 29.6527 8.85999 27.67 8.85999C25.6873 8.85999 24.08 10.5031 24.08 12.53C24.08 14.5569 25.6873 16.2001 27.67 16.2001Z" stroke="#0B2343" stroke-miterlimit="10" stroke-linecap="round" stroke-linejoin="round"/>
<path d="M11.36 6H27.68C31.19 6 34.04 8.89999 34.04 12.49C34.04 16.08 31.19 18.98 27.68 18.98H11.36C7.85 18.98 5 16.08 5 12.49C5 8.89999 7.85 6 11.36 6Z" stroke="#0B2343" stroke-miterlimit="10" stroke-linecap="round" stroke-linejoin="round"/>
</svg>
