<svg width="40" height="40" viewBox="0 0 40 40" fill="none" xmlns="http://www.w3.org/2000/svg">
<path d="M33.0225 12.1564C32.9625 11.8664 32.6025 11.7564 32.3925 11.9664L29.1125 15.2464L25.9425 15.9064L23.2625 13.2265L23.9225 10.0564L27.2025 6.77644C27.4125 6.56644 27.3025 6.19644 27.0125 6.14644C24.5825 5.66644 21.9825 6.36645 20.1025 8.24645C17.9025 10.4464 18.4525 14.3964 18.7525 15.8664L7.2525 25.8765C5.5825 27.5465 5.5825 30.2564 7.2525 31.9264C8.9025 33.5764 11.6025 33.6265 13.3225 31.9065L23.3225 20.4264C25.8725 20.9564 29.1025 20.9164 30.9425 19.0764C32.7325 17.2564 33.5225 14.6664 33.0225 12.1564Z" stroke="#0B2343" stroke-linecap="round" stroke-linejoin="round"/>
<path d="M11.0125 29.3665C10.6725 29.7065 10.1225 29.7065 9.78247 29.3665C9.44247 29.0265 9.44247 28.4765 9.78247 28.1365C10.1225 27.7965 10.6725 27.7965 11.0125 28.1365C11.3525 28.4765 11.3525 29.0265 11.0125 29.3665Z" stroke="#0B2343" stroke-miterlimit="10" stroke-linecap="round" stroke-linejoin="round"/>
</svg>
