<svg width="40" height="40" viewBox="0 0 40 40" fill="none" xmlns="http://www.w3.org/2000/svg">
<path d="M13.83 31.47C13.83 31.97 14.25 32.38 14.76 32.38C15.28 32.38 15.69 31.97 15.69 31.47C15.69 30.97 15.27 30.56 14.76 30.56C14.25 30.55 13.83 30.96 13.83 31.47Z" stroke="#0B2343" stroke-miterlimit="10" stroke-linecap="round" stroke-linejoin="round"/>
<path d="M21.42 11.64C21.42 9.35998 20.24 7.35999 18.44 6.17999C18.44 6.80999 18.44 8.83999 18.44 10.46L16.64 13.14H12.78L10.98 10.46C10.98 6.28999 10.98 10.03 10.98 6.17999C9.18001 7.35999 8 9.35998 8 11.64C8 13.97 10.22 16.02 12.09 17.18L11.11 31.05C11.11 32.99 12.72 34.56 14.7 34.56C16.68 34.56 18.29 32.99 18.29 31.05L17.31 17.18C19.2 16.02 21.42 13.97 21.42 11.64Z" stroke="#0B2343" stroke-linecap="round" stroke-linejoin="round"/>
<path d="M30.51 22.98C30.51 22.33 30.96 21.76 31.62 21.46V18.87H24.03V21.46C24.69 21.76 25.14 22.33 25.14 22.98C25.14 23.63 24.69 24.2 24.03 24.5V31.58C24.03 33.25 25.73 34.61 27.83 34.61C29.93 34.61 31.63 33.25 31.63 31.58V24.5C30.96 24.2 30.51 23.64 30.51 22.98Z" stroke="#0B2343" stroke-linecap="round" stroke-linejoin="round"/>
<path d="M27.83 18.87V9.21997" stroke="#0B2343" stroke-linecap="round" stroke-linejoin="round"/>
<path d="M28.58 6H27.07L26.49 7.37997L27.07 9.21997H28.58L29.17 7.37997L28.58 6Z" stroke="#0B2343" stroke-linecap="round" stroke-linejoin="round"/>
<path d="M27.83 25.61V31.47" stroke="#0B2343" stroke-linecap="round" stroke-linejoin="round"/>
</svg>
