<svg width="40" height="40" viewBox="0 0 40 40" fill="none" xmlns="http://www.w3.org/2000/svg">
<path d="M30.8799 23.7401L25.2599 18.17C25.1799 18.09 25.08 18.05 24.97 18.05H24.6699L20.4199 18.0701C20.1899 18.0701 20.0099 18.26 20.0099 18.48C20.0099 18.76 19.9599 23.1201 20.1499 23.3201C20.2399 23.4101 25.7799 28.9101 25.8899 28.9701C25.9699 29.0101 26.0699 29.0201 26.1699 28.9901C26.2199 28.9801 26.3 28.9301 26.35 28.8801L30.8799 24.3101C31.0399 24.1601 31.0399 23.9001 30.8799 23.7401Z" stroke="#0B2343" stroke-miterlimit="10" stroke-linecap="round" stroke-linejoin="round"/>
<path d="M23.1299 19.9499C23.4899 20.3099 23.4899 20.8999 23.1299 21.2699C22.7699 21.6299 22.18 21.6299 21.81 21.2699C21.45 20.9099 21.45 20.3199 21.81 19.9499C22.18 19.5899 22.7699 19.5899 23.1299 19.9499Z" stroke="#0B2343" stroke-miterlimit="10" stroke-linecap="round" stroke-linejoin="round"/>
<path d="M21.91 14.89V10.67C21.91 8.21998 20.04 6 17.6 6H17.52C15.07 6 13.06 8.21998 13.06 10.67V14.89" stroke="#0B2343" stroke-miterlimit="10" stroke-linecap="round" stroke-linejoin="round"/>
<path d="M26.0001 31.1201V34.05H9.00006V11.05H26.0001V16.0801" stroke="#0B2343" stroke-linecap="round" stroke-linejoin="round"/>
</svg>
