<svg width="40" height="40" viewBox="0 0 40 40" fill="none" xmlns="http://www.w3.org/2000/svg">
<path d="M31.2 22.1C32 25.04 30.2599 28.0699 27.3099 28.8699C24.3699 29.6699 21.3399 27.9299 20.5399 24.9799C19.7399 22.0399 21.4799 19.0099 24.4299 18.2099C27.3699 17.4199 30.4 19.16 31.2 22.1Z" stroke="#0B2343" stroke-miterlimit="10" stroke-linecap="round" stroke-linejoin="round"/>
<path d="M21.91 14.89V10.67C21.91 8.21998 20.04 6 17.6 6H17.52C15.07 6 13.06 8.21998 13.06 10.67V14.89" stroke="#0B2343" stroke-miterlimit="10" stroke-linecap="round" stroke-linejoin="round"/>
<path d="M24.8 25.7599C25.34 26.0199 26.0901 26.1099 26.5701 25.9799C27.3401 25.7599 27.81 25.0399 27.63 24.3599C27.44 23.6799 26.68 23.54 25.89 23.53C25.07 23.51 24.34 23.3799 24.15 22.6999C23.96 22.0199 24.4301 21.3 25.2001 21.08C25.7201 20.93 26.2401 21.05 26.5901 21.35" stroke="#0B2343" stroke-miterlimit="10" stroke-linecap="round" stroke-linejoin="round"/>
<path d="M25.0099 20.4199L25.19 21.09" stroke="#0B2343" stroke-miterlimit="10" stroke-linecap="round" stroke-linejoin="round"/>
<path d="M26.57 25.98L26.7599 26.65" stroke="#0B2343" stroke-miterlimit="10" stroke-linecap="round" stroke-linejoin="round"/>
<path d="M26.0001 31.1201V34.05H9.00006V11.05H26.0001V16.0801" stroke="#0B2343" stroke-linecap="round" stroke-linejoin="round"/>
</svg>
