<svg width="40" height="40" viewBox="0 0 40 40" fill="none" xmlns="http://www.w3.org/2000/svg">
<path d="M19.4163 21.6728V19.9614C19.4163 19.0156 20.2089 18.25 21.1997 18.25C22.1815 18.25 23.0552 19.0156 23.0552 19.9614V22.8166" stroke="#0B2343" stroke-linecap="round" stroke-linejoin="round"/>
<path d="M26.6581 23.3842V21.1054C26.6581 20.1597 25.7483 19.394 24.7665 19.394C23.7848 19.394 23.0552 20.1597 23.0552 21.1054V22.8167" stroke="#0B2343" stroke-linecap="round" stroke-linejoin="round"/>
<path d="M15.8585 26.2394V13.197C15.8585 12.2512 16.6511 11.4856 17.6419 11.4856C18.6327 11.4856 19.4253 12.2512 19.4253 13.197V21.6728" stroke="#0B2343" stroke-linecap="round" stroke-linejoin="round"/>
<path d="M16.5158 33.0399C15.9934 31.8329 15.0387 31.0133 15.0387 31.0133C12.3365 27.9869 10.1297 22.024 10.1297 22.024C9.43617 20.2946 11.715 19.5561 12.4446 20.655L13.4354 22.2402L15.8673 26.2304" stroke="#0B2343" stroke-linecap="round" stroke-linejoin="round"/>
<path d="M26.6851 33.0399C26.8562 32.0672 27.2526 30.5449 28.1443 28.8696C29.3873 26.5187 29.7385 23.4292 29.7385 23.4292C29.7385 22.4834 29.3062 21.6638 28.3244 21.6638C27.3426 21.6638 26.6581 22.4293 26.6581 23.3751" stroke="#0B2343" stroke-linecap="round" stroke-linejoin="round"/>
<path d="M26.6581 23.384V23.9515" stroke="#0B2343" stroke-linecap="round" stroke-linejoin="round"/>
<path d="M13.2373 13.188C13.2373 10.756 15.2099 8.78345 17.6418 8.78345C20.0738 8.78345 22.0464 10.756 22.0464 13.188" stroke="#0B2343" stroke-linecap="round" stroke-linejoin="round"/>
<path d="M11.4538 13.188C11.4538 9.77422 14.219 7 17.6418 7C21.0555 7 23.8297 9.76521 23.8297 13.188" stroke="#0B2343" stroke-linecap="round" stroke-linejoin="round"/>
</svg>
