<svg width="40" height="40" viewBox="0 0 40 40" fill="none" xmlns="http://www.w3.org/2000/svg">
<path d="M8 9.99658H14.9597" stroke="#0B2343" stroke-linecap="round" stroke-linejoin="round"/>
<path d="M10.1653 12.3453L8 9.9965L10.1653 7.65723" stroke="#0B2343" stroke-linecap="round" stroke-linejoin="round"/>
<path d="M21.6101 20.8712V8.83661C21.6101 7.82166 22.4607 7 23.524 7C24.5776 7 25.5153 7.82166 25.5153 8.83661V22.0987" stroke="#0B2343" stroke-linecap="round" stroke-linejoin="round"/>
<path d="M29.3818 22.7076V20.2622C29.3818 19.2472 28.4055 18.4255 27.3519 18.4255C26.2982 18.4255 25.5153 19.2472 25.5153 20.2622V22.0986" stroke="#0B2343" stroke-linecap="round" stroke-linejoin="round"/>
<path d="M17.7919 25.7718V9.75483C17.7919 8.73987 18.6426 7.91821 19.7059 7.91821C20.7692 7.91821 21.6198 8.73987 21.6198 9.75483V20.871" stroke="#0B2343" stroke-linecap="round" stroke-linejoin="round"/>
<path d="M18.4976 33.07C17.937 31.7747 16.9123 30.895 16.9123 30.895C14.0125 27.6472 11.6443 21.248 11.6443 21.248C10.8999 19.3921 13.3455 18.5996 14.1285 19.7788L15.1918 21.48L17.8017 25.7622" stroke="#0B2343" stroke-linecap="round" stroke-linejoin="round"/>
<path d="M29.4108 33.0701C29.5944 32.0261 30.0198 30.3925 30.9767 28.5946C32.3107 26.0717 32.6876 22.7561 32.6876 22.7561C32.6876 21.7412 32.2237 20.8616 31.17 20.8616C30.1164 20.8616 29.3818 21.6831 29.3818 22.6981" stroke="#0B2343" stroke-linecap="round" stroke-linejoin="round"/>
<path d="M29.3818 22.7078V23.3167" stroke="#0B2343" stroke-linecap="round" stroke-linejoin="round"/>
</svg>
