<svg width="40" height="40" viewBox="0 0 40 40" fill="none" xmlns="http://www.w3.org/2000/svg">
<path d="M3.96735 10.9581L7.04117 8.14136L9.84724 11.2259" stroke="#0B2343" stroke-width="1.03559" stroke-linecap="round" stroke-linejoin="round"/>
<path d="M9.11889 25.3205C7.59805 22.3967 6.44134 13.1751 7.05182 8.14136" stroke="#0B2343" stroke-width="1.03559" stroke-linecap="round" stroke-linejoin="round"/>
<path d="M21.757 20.3083L21.0716 18.4126C20.686 17.363 21.2322 16.217 22.2711 15.8314C23.3207 15.4458 24.4667 15.992 24.8523 17.0309L25.9982 20.1798" stroke="#0B2343" stroke-width="1.03559" stroke-linecap="round" stroke-linejoin="round"/>
<path d="M30.0145 19.4408L29.0935 16.9132C28.7079 15.8636 27.5619 15.3281 26.5123 15.7137C25.4627 16.0993 24.9272 17.2453 25.3128 18.2949L25.9982 20.1905" stroke="#0B2343" stroke-width="1.03559" stroke-linecap="round" stroke-linejoin="round"/>
<path d="M19.8077 26.7343L13.6065 9.70506C13.2209 8.65546 13.7671 7.50943 14.806 7.12386C15.8556 6.7383 17.0016 7.28451 17.3872 8.3234L21.7462 20.3082" stroke="#0B2343" stroke-width="1.03559" stroke-linecap="round" stroke-linejoin="round"/>
<path d="M30.0145 19.4407L30.2394 20.0725" stroke="#0B2343" stroke-width="1.03559" stroke-linecap="round" stroke-linejoin="round"/>
<path d="M22.0676 33C21.4035 32.5502 20.8573 32.336 20.8573 32.336C16.766 30.0333 14.9988 24.646 14.9988 24.646C14.2812 22.5468 15.9735 21.5508 16.9052 22.2362L18.1262 23.2323C18.4261 23.4787 18.6617 23.8 18.8009 24.1641L19.797 26.7453" stroke="#0B2343" stroke-width="1.03559" stroke-linecap="round" stroke-linejoin="round"/>
<path d="M33.8809 28.7051C33.7846 27.6555 33.7524 26.3702 33.9238 24.9029C34.2986 21.8184 33.4311 18.2734 33.4311 18.2734C33.0455 17.2238 32.2637 16.4847 31.2248 16.8703C30.1752 17.2451 29.6397 18.4019 30.0253 19.4515" stroke="#0B2343" stroke-width="1.03559" stroke-linecap="round" stroke-linejoin="round"/>
</svg>
