<svg width="40" height="40" viewBox="0 0 40 40" fill="none" xmlns="http://www.w3.org/2000/svg">
<path d="M15.1202 12.4252V7.91919" stroke="#0B2343" stroke-linecap="round" stroke-linejoin="round"/>
<path d="M16.463 11.1274L15.1202 12.4251L13.7684 11.1274" stroke="#0B2343" stroke-linecap="round" stroke-linejoin="round"/>
<path d="M19.5902 11.506V7" stroke="#0B2343" stroke-linecap="round" stroke-linejoin="round"/>
<path d="M20.942 10.2356L19.5902 11.5062L18.2474 10.2356" stroke="#0B2343" stroke-linecap="round" stroke-linejoin="round"/>
<path d="M24.0963 12.3261V7.82007" stroke="#0B2343" stroke-linecap="round" stroke-linejoin="round"/>
<path d="M25.4481 11.0554L24.0963 12.3261L22.7534 11.0554" stroke="#0B2343" stroke-linecap="round" stroke-linejoin="round"/>
<path d="M17.7608 23.4292V14.9127C17.7608 13.9665 18.5538 13.2004 19.5452 13.2004C20.5275 13.2004 21.4016 13.9665 21.4016 14.9127V23.6724" stroke="#0B2343" stroke-linecap="round" stroke-linejoin="round"/>
<path d="M25.0064 25.1413V16.5529C25.0064 15.6066 24.0962 14.8406 23.1139 14.8406C22.1316 14.8406 21.4016 15.6066 21.4016 16.5529V23.6723" stroke="#0B2343" stroke-linecap="round" stroke-linejoin="round"/>
<path d="M14.201 27.9982V15.7689C14.201 14.8227 14.9941 14.0566 15.9854 14.0566C16.9767 14.0566 17.7698 14.8227 17.7698 15.7689V23.4292" stroke="#0B2343" stroke-linecap="round" stroke-linejoin="round"/>
<path d="M25.0064 25.1411V25.7089" stroke="#0B2343" stroke-linecap="round" stroke-linejoin="round"/>
<path d="M25.4841 33C25.7184 32.288 26.0338 31.4769 26.4844 30.6388C27.7281 28.2867 28.0796 25.1955 28.0796 25.1955C28.0796 24.2493 27.647 23.4292 26.6647 23.4292C25.6824 23.4292 24.9975 24.1951 24.9975 25.1414" stroke="#0B2343" stroke-linecap="round" stroke-linejoin="round"/>
<path d="M14.201 27.9082L14.1559 25.583C14.1469 25.2586 14.0568 24.9342 13.8856 24.6549L13.2007 23.5193C12.669 22.7173 11.0378 23.0057 11.0017 24.8802C11.0017 24.8802 10.8485 29.6565 13.417 32.6485C13.417 32.6485 13.5612 32.7837 13.7594 33" stroke="#0B2343" stroke-linecap="round" stroke-linejoin="round"/>
</svg>
