<svg width="40" height="40" viewBox="0 0 40 40" fill="none" xmlns="http://www.w3.org/2000/svg">
<path d="M15.1202 7.91943V12.4254" stroke="#0B2343" stroke-linecap="round" stroke-linejoin="round"/>
<path d="M13.7684 9.2082L15.1202 7.91943L16.463 9.2082" stroke="#0B2343" stroke-linecap="round" stroke-linejoin="round"/>
<path d="M19.5901 7V11.506" stroke="#0B2343" stroke-linecap="round" stroke-linejoin="round"/>
<path d="M18.2473 8.27073L19.5902 7L20.942 8.27073" stroke="#0B2343" stroke-linecap="round" stroke-linejoin="round"/>
<path d="M24.0962 7.82031V12.3263" stroke="#0B2343" stroke-linecap="round" stroke-linejoin="round"/>
<path d="M22.7534 9.08202L24.0962 7.82031L25.448 9.08202" stroke="#0B2343" stroke-linecap="round" stroke-linejoin="round"/>
<path d="M17.7607 23.4292V14.9127C17.7607 13.9665 18.5538 13.2004 19.5451 13.2004C20.5274 13.2004 21.4016 13.9665 21.4016 14.9127V23.6724" stroke="#0B2343" stroke-linecap="round" stroke-linejoin="round"/>
<path d="M25.0063 25.1413V16.5529C25.0063 15.6066 24.0961 14.8406 23.1138 14.8406C22.1315 14.8406 21.4015 15.6066 21.4015 16.5529V23.6723" stroke="#0B2343" stroke-linecap="round" stroke-linejoin="round"/>
<path d="M14.2009 27.998V15.7687C14.2009 14.8224 14.994 14.0564 15.9853 14.0564C16.9766 14.0564 17.7697 14.8224 17.7697 15.7687V23.4289" stroke="#0B2343" stroke-linecap="round" stroke-linejoin="round"/>
<path d="M25.0064 25.1414V25.7091" stroke="#0B2343" stroke-linecap="round" stroke-linejoin="round"/>
<path d="M25.484 33C25.7183 32.288 26.0338 31.4769 26.4844 30.6388C27.728 28.2867 28.0795 25.1955 28.0795 25.1955C28.0795 24.2493 27.6469 23.4292 26.6646 23.4292C25.6823 23.4292 24.9974 24.1951 24.9974 25.1414" stroke="#0B2343" stroke-linecap="round" stroke-linejoin="round"/>
<path d="M14.201 27.9082L14.1559 25.583C14.1469 25.2586 14.0568 24.9342 13.8856 24.6549L13.2007 23.5193C12.669 22.7173 11.0378 23.0057 11.0017 24.8802C11.0017 24.8802 10.8485 29.6565 13.417 32.6485C13.417 32.6485 13.5612 32.7837 13.7594 33" stroke="#0B2343" stroke-linecap="round" stroke-linejoin="round"/>
</svg>
