<svg width="40" height="40" viewBox="0 0 40 40" fill="none" xmlns="http://www.w3.org/2000/svg">
<path d="M26.8406 7L28.8497 10.105L25.7355 12.1141" stroke="#0B2343" stroke-linecap="round" stroke-linejoin="round"/>
<path d="M17.4525 10.0593C21.0963 8.87212 25.1968 9.02741 28.8497 10.105" stroke="#0B2343" stroke-linecap="round" stroke-linejoin="round"/>
<path d="M17.9 23.2464L14.9685 15.1824C14.6397 14.2874 15.1055 13.3104 15.9913 12.9816C16.8863 12.6528 17.8634 13.1186 18.1922 14.0044L21.5164 23.1459" stroke="#0B2343" stroke-linecap="round" stroke-linejoin="round"/>
<path d="M24.9411 22.5161L22.2013 14.991C21.8817 14.0961 20.8954 13.6394 20.0004 13.9682C19.1055 14.297 18.6488 15.2742 18.9776 16.1692L21.5255 23.1554" stroke="#0B2343" stroke-linecap="round" stroke-linejoin="round"/>
<path d="M16.2378 28.726L12.1283 17.4384C11.7995 16.5434 12.2653 15.5662 13.1511 15.2375C14.0461 14.9087 15.0232 15.3744 15.352 16.2603L17.8999 23.2466" stroke="#0B2343" stroke-linecap="round" stroke-linejoin="round"/>
<path d="M24.9411 22.5159L25.142 23.0548" stroke="#0B2343" stroke-linecap="round" stroke-linejoin="round"/>
<path d="M28.2379 30.4062C28.1557 29.5112 28.1283 28.4154 28.2744 27.1643C28.5941 24.5341 27.8544 21.5113 27.8544 21.5113C27.5256 20.6163 26.8589 19.9862 25.9731 20.315C25.0781 20.6437 24.6215 21.6208 24.9502 22.5158" stroke="#0B2343" stroke-linecap="round" stroke-linejoin="round"/>
<path d="M16.2379 28.726L15.3886 26.5251C15.2698 26.2146 15.0689 25.9406 14.8132 25.7306L13.7721 24.8813C12.9867 24.2969 11.5347 25.137 12.1466 26.9361C12.1466 26.9361 13.4342 30.863 16.384 32.9999" stroke="#0B2343" stroke-linecap="round" stroke-linejoin="round"/>
</svg>
