<svg width="40" height="40" viewBox="0 0 40 40" fill="none" xmlns="http://www.w3.org/2000/svg">
<path d="M6 11.2059L8.81 8.58594L11.38 11.4559" stroke="#0B2343" stroke-linecap="round" stroke-linejoin="round"/>
<path d="M10.72 24.6857C9.20002 21.6957 8.32002 12.7557 8.81002 8.57568" stroke="#0B2343" stroke-linecap="round" stroke-linejoin="round"/>
<path d="M22.11 20.7157L18.04 9.52568C17.68 8.54568 18.19 7.47565 19.16 7.11565C20.14 6.75565 21.21 7.26565 21.57 8.23565L26.07 20.5958" stroke="#0B2343" stroke-linecap="round" stroke-linejoin="round"/>
<path d="M29.82 19.9058L28.96 17.5459C28.61 16.5659 27.53 16.0659 26.55 16.4259C25.57 16.7859 25.07 17.8559 25.43 18.8359L26.07 20.6058" stroke="#0B2343" stroke-linecap="round" stroke-linejoin="round"/>
<path d="M20.29 26.7159L14.93 11.9958C14.57 11.0158 15.08 9.94587 16.05 9.58587C17.03 9.22587 18.1 9.73586 18.46 10.7059L22.1 20.7159" stroke="#0B2343" stroke-linecap="round" stroke-linejoin="round"/>
<path d="M29.8199 19.9058L30.0299 20.4957" stroke="#0B2343" stroke-linecap="round" stroke-linejoin="round"/>
<path d="M22.4 32.566C21.78 32.146 21.27 31.946 21.27 31.946C17.45 29.796 15.8 24.7659 15.8 24.7659C15.13 22.8059 16.71 21.8759 17.58 22.5159L18.72 23.446C19 23.676 19.22 23.976 19.35 24.316L20.28 26.726" stroke="#0B2343" stroke-linecap="round" stroke-linejoin="round"/>
<path d="M33.4299 28.5558C33.3399 27.5758 33.2999 26.3757 33.4699 25.0057C33.8199 22.1257 33.0099 18.8158 33.0099 18.8158C32.6499 17.8358 31.9199 17.1457 30.9499 17.5057C29.9699 17.8557 29.4699 18.9358 29.8299 19.9158" stroke="#0B2343" stroke-linecap="round" stroke-linejoin="round"/>
</svg>
