<svg width="40" height="40" viewBox="0 0 40 40" fill="none" xmlns="http://www.w3.org/2000/svg">
<path d="M18.7905 7L21.0199 9.81839L18.2105 12.0568" stroke="#0B2343" stroke-linecap="round" stroke-linejoin="round"/>
<path d="M10 10.8425C13.4075 9.35629 17.3859 9.12066 21.0199 9.81847" stroke="#0B2343" stroke-linecap="round" stroke-linejoin="round"/>
<path d="M20.5305 21.4635L27.3545 14.6395C28.016 13.9779 29.0945 13.9779 29.7651 14.6395C30.4266 15.301 30.4266 16.3795 29.7651 17.0501L22.1346 24.6806" stroke="#0B2343" stroke-linecap="round" stroke-linejoin="round"/>
<path d="M24.1373 27.4901L25.7414 25.886C26.4029 25.2245 26.4029 24.146 25.7414 23.4754C25.0798 22.8139 24.0014 22.8139 23.3308 23.4754L22.1255 24.6807" stroke="#0B2343" stroke-linecap="round" stroke-linejoin="round"/>
<path d="M14.9027 22.2704L24.1373 13.0357C24.7989 12.3742 25.8773 12.3742 26.5479 13.0357C27.2095 13.6973 27.2095 14.7757 26.5479 15.4463L20.5214 21.4729" stroke="#0B2343" stroke-linecap="round" stroke-linejoin="round"/>
<path d="M10.5619 27.5082C11.0603 26.3029 10.9878 25.0795 10.9878 25.0795C11.2869 21.1193 13.9875 15.4281 13.9875 15.4281C14.7397 13.7425 16.7968 14.7665 16.5159 16.0262L16.0718 17.8115L14.9119 22.2702" stroke="#0B2343" stroke-linecap="round" stroke-linejoin="round"/>
<path d="M19.3615 33C19.9415 32.71 20.6121 32.6828 21.3552 32.4381C23.8564 31.6225 26.258 29.6922 26.258 29.6922C26.9195 29.0306 27.2095 28.1607 26.548 27.4901C25.8864 26.8285 24.808 26.8285 24.1374 27.4901" stroke="#0B2343" stroke-linecap="round" stroke-linejoin="round"/>
<path d="M24.1373 27.4902L23.7386 27.8889" stroke="#0B2343" stroke-linecap="round" stroke-linejoin="round"/>
</svg>
