<svg width="40" height="40" viewBox="0 0 40 40" fill="none" xmlns="http://www.w3.org/2000/svg">
<path d="M31.5606 9.99658H24.6106" stroke="#0B2343" stroke-linecap="round" stroke-linejoin="round"/>
<path d="M29.405 7.65723L31.5606 9.9965L29.405 12.3453" stroke="#0B2343" stroke-linecap="round" stroke-linejoin="round"/>
<path d="M18.1052 20.8712V8.83661C18.1052 7.82166 18.9559 7 20.0192 7C21.0728 7 22.0104 7.82166 22.0104 8.83661V22.0987" stroke="#0B2343" stroke-linecap="round" stroke-linejoin="round"/>
<path d="M25.8769 22.7076V20.2622C25.8769 19.2472 24.9007 18.4255 23.8471 18.4255C22.7934 18.4255 22.0104 19.2472 22.0104 20.2622V22.0986" stroke="#0B2343" stroke-linecap="round" stroke-linejoin="round"/>
<path d="M14.2871 25.7718V9.75483C14.2871 8.73987 15.1377 7.91821 16.201 7.91821C17.2643 7.91821 18.115 8.73987 18.115 9.75483V20.871" stroke="#0B2343" stroke-linecap="round" stroke-linejoin="round"/>
<path d="M14.9926 33.07C14.4319 31.7747 13.4073 30.895 13.4073 30.895C10.5074 27.6472 8.13921 21.248 8.13921 21.248C7.39491 19.3921 9.84048 18.5996 10.6235 19.7788L11.6867 21.48L14.2966 25.7622" stroke="#0B2343" stroke-linecap="round" stroke-linejoin="round"/>
<path d="M25.9059 33.0701C26.0896 32.0261 26.5149 30.3925 27.4719 28.5946C28.8058 26.0717 29.1828 22.7561 29.1828 22.7561C29.1828 21.7412 28.7188 20.8616 27.6652 20.8616C26.6116 20.8616 25.8769 21.6831 25.8769 22.6981" stroke="#0B2343" stroke-linecap="round" stroke-linejoin="round"/>
<path d="M25.8769 22.7078V23.3167" stroke="#0B2343" stroke-linecap="round" stroke-linejoin="round"/>
</svg>
