<svg width="40" height="40" viewBox="0 0 40 40" fill="none" xmlns="http://www.w3.org/2000/svg">
<path d="M19.541 21.8124V13.2426C19.541 12.2843 20.3441 11.5085 21.348 11.5085C22.3428 11.5085 23.2281 12.2843 23.2281 13.2426V22.9714" stroke="#0B2343" stroke-linecap="round" stroke-linejoin="round"/>
<path d="M26.8787 23.5464V21.2375C26.8787 20.2792 25.9569 19.5034 24.9621 19.5034C23.9673 19.5034 23.2281 20.2792 23.2281 21.2375V22.9714" stroke="#0B2343" stroke-linecap="round" stroke-linejoin="round"/>
<path d="M15.936 26.4397V14.1098C15.936 13.1515 16.7392 12.3757 17.7431 12.3757C18.747 12.3757 19.5501 13.1515 19.5501 14.1098V21.8126" stroke="#0B2343" stroke-linecap="round" stroke-linejoin="round"/>
<path d="M16.6021 33.3302C16.0728 32.1073 15.1054 31.2767 15.1054 31.2767C12.3674 28.2102 10.1314 22.1684 10.1314 22.1684C9.4287 20.4161 11.7377 19.6678 12.477 20.7812L13.4809 22.3874L15.945 26.4305" stroke="#0B2343" stroke-linecap="round" stroke-linejoin="round"/>
<path d="M26.9061 33.3303C27.0795 32.3446 27.4811 30.8022 28.3846 29.1047C29.6441 26.7227 30 23.5922 30 23.5922C30 22.6339 29.5619 21.8035 28.5671 21.8035C27.5723 21.8035 26.8787 22.5791 26.8787 23.5374" stroke="#0B2343" stroke-linecap="round" stroke-linejoin="round"/>
<path d="M26.8787 23.5466V24.1216" stroke="#0B2343" stroke-linecap="round" stroke-linejoin="round"/>
<path d="M25.9387 13.3524C25.9387 10.8517 23.9126 8.83472 21.4211 8.83472C20.3442 8.83472 19.3767 9.22714 18.601 9.84775C18.3181 9.79299 18.026 9.75651 17.7248 9.75651C15.2242 9.75651 13.2072 11.7827 13.2072 14.2742" stroke="#0B2343" stroke-linecap="round" stroke-linejoin="round"/>
<path d="M27.764 13.3521C27.764 9.84755 24.9256 7 21.4119 7C20.1981 7 19.0573 7.34683 18.0899 7.94006C17.9621 7.93093 17.8343 7.92179 17.7066 7.92179C14.202 7.92179 11.3545 10.7602 11.3545 14.2739" stroke="#0B2343" stroke-linecap="round" stroke-linejoin="round"/>
</svg>
