<svg width="40" height="40" viewBox="0 0 40 40" fill="none" xmlns="http://www.w3.org/2000/svg">
<path d="M16.4659 7L14.7664 10.5245L18.2909 12.2143" stroke="#0B2343" stroke-linecap="round" stroke-linejoin="round"/>
<path d="M26.8461 8.88325C23.3023 8.20734 19.1889 8.59352 14.7761 10.5151" stroke="#0B2343" stroke-linecap="round" stroke-linejoin="round"/>
<path d="M18.3681 22.2955L17.0839 21.0113C16.379 20.3064 16.379 19.1573 17.0839 18.4427C17.7888 17.7378 18.9378 17.7378 19.6524 18.4427L21.796 20.5864" stroke="#0B2343" stroke-linecap="round" stroke-linejoin="round"/>
<path d="M24.7894 18.4425L23.0802 16.7335C22.3753 16.0286 21.2263 16.0286 20.5118 16.7335C19.8069 17.4384 19.8069 18.5874 20.5118 19.3019L21.796 20.5862" stroke="#0B2343" stroke-linecap="round" stroke-linejoin="round"/>
<path d="M19.2275 28.2821L8.52867 17.5833C7.82378 16.8784 7.82378 15.7293 8.52867 15.0147C9.23355 14.3099 10.3826 14.3099 11.0972 15.0147L18.3681 22.2857" stroke="#0B2343" stroke-linecap="round" stroke-linejoin="round"/>
<path d="M24.8087 32.9167C23.5244 32.3857 22.2209 32.4629 22.2209 32.4629C18.0012 32.1443 11.9372 29.2669 11.9372 29.2669C10.1412 28.4654 11.2323 26.2735 12.5745 26.5728L14.4768 27.0459L19.2275 28.2819" stroke="#0B2343" stroke-linecap="round" stroke-linejoin="round"/>
<path d="M32.1376 25.5879C31.5389 24.7285 30.6796 23.3091 30.0616 21.4166C29.1925 18.7515 27.1358 16.1926 27.1358 16.1926C26.4309 15.4877 25.5039 15.1788 24.7894 15.8837C24.0845 16.5886 24.0845 17.7376 24.7894 18.4521" stroke="#0B2343" stroke-linecap="round" stroke-linejoin="round"/>
<path d="M24.7894 18.4426L25.2142 18.8772" stroke="#0B2343" stroke-linecap="round" stroke-linejoin="round"/>
</svg>
