<svg width="40" height="40" viewBox="0 0 40 40" fill="none" xmlns="http://www.w3.org/2000/svg">
<path d="M10.52 7L9.03998 12.5499" stroke="#0B2343" stroke-linecap="round" stroke-linejoin="round"/>
<path d="M11.33 11.22L9.04001 12.5499L7.71002 10.26" stroke="#0B2343" stroke-linecap="round" stroke-linejoin="round"/>
<path d="M6.81 20.92L8.28998 15.3701" stroke="#0B2343" stroke-linecap="round" stroke-linejoin="round"/>
<path d="M6 16.7001L8.28998 15.3701L9.62 17.66" stroke="#0B2343" stroke-linecap="round" stroke-linejoin="round"/>
<path d="M27.55 33.74C27.55 33.74 24.22 29.24 20.45 28.3C17.27 27.5 16.91 25.78 14.67 24.04C14.67 24.04 11.81 22.01 11.86 21.23C12.29 20.58 12.69 20.21 14.23 20.79L19.26 23.24C19.86 21.17 18.32 18.06 18.01 17.47L13.79 9.52995C13.48 8.95995 13.72 8.24999 14.31 7.93999L14.36 7.90996C14.93 7.60996 15.64 7.8 15.96 8.33L22.44 19.29L22.57 19.28L20.73 15.82C20.42 15.25 20.67 14.54 21.27 14.22L21.32 14.19C21.9 13.89 22.62 14.07 22.94 14.6L25.54 18.99L25.66 18.98L24.04 15.84C23.73 15.27 23.97 14.56 24.56 14.25L24.61 14.22C25.18 13.92 25.89 14.1099 26.21 14.6399L28.64 18.61L27.62 16.31C27.35 15.72 27.62 15.03 28.23 14.75L28.28 14.73C28.87 14.47 29.56 14.69 29.85 15.24C30.87 17.16 31.57 19.2301 31.9 21.3801C32.27 23.7901 33.2 26.37 34.29 27.85" stroke="#0B2343" stroke-linecap="round" stroke-linejoin="round"/>
</svg>
