<svg width="40" height="40" viewBox="0 0 40 40" fill="none" xmlns="http://www.w3.org/2000/svg">
<path d="M10.2771 7L9.1391 12.5132" stroke="#0B2343" stroke-linecap="round" stroke-linejoin="round"/>
<path d="M8.10907 8.42251L10.2771 7L11.6995 9.16807" stroke="#0B2343" stroke-linecap="round" stroke-linejoin="round"/>
<path d="M7.42236 20.8418L8.56031 15.3188" stroke="#0B2343" stroke-linecap="round" stroke-linejoin="round"/>
<path d="M9.60023 19.4096L7.42243 20.8418L6 18.6738" stroke="#0B2343" stroke-linecap="round" stroke-linejoin="round"/>
<path d="M27.3561 33.32C27.3561 33.32 24.0894 28.9055 20.3911 27.9834C17.2715 27.1986 16.9184 25.5113 14.721 23.8043C14.721 23.8043 11.9153 21.813 11.9644 21.0478C12.3862 20.4102 12.7786 20.0472 14.2893 20.6161L19.2237 23.0196C19.8123 20.989 18.3016 17.9381 17.9975 17.3593L13.8577 9.57018C13.5536 9.01102 13.789 8.31455 14.3678 8.01044L14.4169 7.98098C14.976 7.68669 15.6725 7.87312 15.9864 8.39304L22.3432 19.1446L22.4708 19.1348L20.6658 15.7406C20.3616 15.1815 20.6069 14.485 21.1955 14.1711L21.2445 14.1416C21.8135 13.8473 22.5198 14.0239 22.8337 14.5439L25.3843 18.8504L25.502 18.8406L23.9128 15.7603C23.6087 15.2011 23.8441 14.5046 24.4229 14.2005L24.472 14.1711C25.0312 13.8768 25.7277 14.0631 26.0416 14.583L28.4254 18.4776L27.4248 16.2213C27.1599 15.6425 27.4248 14.9657 28.0232 14.691L28.0722 14.6714C28.651 14.4163 29.3279 14.6322 29.6124 15.1717C30.613 17.0552 31.2997 19.0859 31.6234 21.195C31.9864 23.5592 32.8987 26.0901 33.968 27.542" stroke="#0B2343" stroke-linecap="round" stroke-linejoin="round"/>
</svg>
