<svg width="40" height="40" viewBox="0 0 40 40" fill="none" xmlns="http://www.w3.org/2000/svg">
<path d="M19.454 20.4001V18.5001C19.454 17.4501 20.334 16.6001 21.434 16.6001C22.524 16.6001 23.494 17.4501 23.494 18.5001V21.67" stroke="#0B2343" stroke-linecap="round" stroke-linejoin="round"/>
<path d="M27.494 22.3V19.7701C27.494 18.7201 26.484 17.8701 25.394 17.8701C24.304 17.8701 23.494 18.7201 23.494 19.7701V21.67" stroke="#0B2343" stroke-linecap="round" stroke-linejoin="round"/>
<path d="M15.504 25.47V8.90002C15.504 7.85002 16.384 7 17.484 7C18.584 7 19.464 7.85002 19.464 8.90002V20.4" stroke="#0B2343" stroke-linecap="round" stroke-linejoin="round"/>
<path d="M16.234 33.0202C15.654 31.6802 14.594 30.7702 14.594 30.7702C11.594 27.4102 9.14402 20.7901 9.14402 20.7901C8.37402 18.8701 10.904 18.0502 11.714 19.2702L12.814 21.0301L15.514 25.4602" stroke="#0B2343" stroke-linecap="round" stroke-linejoin="round"/>
<path d="M27.524 33.0201C27.714 31.9401 28.154 30.2501 29.144 28.3901C30.524 25.7801 30.914 22.3501 30.914 22.3501C30.914 21.3001 30.434 20.3901 29.344 20.3901C28.254 20.3901 27.494 21.24 27.494 22.29" stroke="#0B2343" stroke-linecap="round" stroke-linejoin="round"/>
<path d="M27.494 22.3V22.9301" stroke="#0B2343" stroke-linecap="round" stroke-linejoin="round"/>
</svg>
