<svg width="40" height="40" viewBox="0 0 40 40" fill="none" xmlns="http://www.w3.org/2000/svg">
<path d="M11.6467 7L10 10.4242L13.415 12.0615" stroke="#0B2343" stroke-linecap="round" stroke-linejoin="round"/>
<path d="M21.5827 8.91805C17.7281 8.17893 13.574 8.86191 10 10.4244" stroke="#0B2343" stroke-linecap="round" stroke-linejoin="round"/>
<path d="M19.7583 21.9038L22.4716 13.5396C22.771 12.6134 23.7627 12.1081 24.689 12.4075C25.6152 12.7069 26.1205 13.6986 25.8211 14.6249L22.7429 24.1025" stroke="#0B2343" stroke-linecap="round" stroke-linejoin="round"/>
<path d="M25.9052 25.7585L28.4407 17.9557C28.7401 17.0294 28.2348 16.0377 27.3086 15.7383C26.3823 15.4389 25.3906 15.9441 25.0912 16.8703L22.7335 24.1212" stroke="#0B2343" stroke-linecap="round" stroke-linejoin="round"/>
<path d="M14.9587 25.2813L18.7666 13.5769C19.066 12.6506 20.0577 12.1455 20.984 12.4448C21.9102 12.7442 22.4155 13.736 22.1161 14.6622L19.7583 21.9131" stroke="#0B2343" stroke-linecap="round" stroke-linejoin="round"/>
<path d="M25.9052 25.7585L25.7274 26.3106" stroke="#0B2343" stroke-linecap="round" stroke-linejoin="round"/>
<path d="M13.1436 30.8108C12.9284 30.1466 12.6664 29.7068 12.6664 29.7068C11.0852 25.927 12.7693 21.2584 12.7693 21.2584C13.4056 19.4246 15.1083 19.6585 15.3796 20.6221L15.6884 21.9601C15.7633 22.2876 15.7539 22.6337 15.651 22.9611L14.9493 25.2721" stroke="#0B2343" stroke-linecap="round" stroke-linejoin="round"/>
<path d="M24.4363 33.0001C24.7825 32.551 25.1942 32.0832 25.662 31.6154C27.5799 29.6974 28.8804 26.7877 28.8804 26.7877C29.1798 25.8614 29.0395 24.9352 28.1132 24.6265C27.187 24.3271 26.1953 24.8323 25.8959 25.7585" stroke="#0B2343" stroke-linecap="round" stroke-linejoin="round"/>
</svg>
