<svg width="40" height="40" viewBox="0 0 40 40" fill="none" xmlns="http://www.w3.org/2000/svg">
<path d="M6 21.0259L8.76 23.6459L11.28 20.7759" stroke="#0B2343" stroke-linecap="round" stroke-linejoin="round"/>
<path d="M10.62 7.61572C9.24005 10.3657 8.22005 18.9858 8.76005 23.6558" stroke="#0B2343" stroke-linecap="round" stroke-linejoin="round"/>
<path d="M22.25 20.7157L18.18 9.52568C17.83 8.54568 18.33 7.47565 19.3 7.11565C20.28 6.75565 21.35 7.26565 21.71 8.23565L26.21 20.5958" stroke="#0B2343" stroke-linecap="round" stroke-linejoin="round"/>
<path d="M29.96 19.9058L29.1 17.5459C28.74 16.5659 27.67 16.0659 26.69 16.4259C25.71 16.7859 25.21 17.8559 25.57 18.8359L26.21 20.6058" stroke="#0B2343" stroke-linecap="round" stroke-linejoin="round"/>
<path d="M20.43 26.7159L15.07 11.9958C14.72 11.0158 15.22 9.94587 16.19 9.58587C17.17 9.22587 18.24 9.73586 18.6 10.7059L22.24 20.7159" stroke="#0B2343" stroke-linecap="round" stroke-linejoin="round"/>
<path d="M29.96 19.9058L30.17 20.4957" stroke="#0B2343" stroke-linecap="round" stroke-linejoin="round"/>
<path d="M22.54 32.566C21.92 32.146 21.41 31.946 21.41 31.946C17.59 29.796 15.94 24.7659 15.94 24.7659C15.27 22.8059 16.85 21.8759 17.72 22.5159L18.86 23.446C19.14 23.676 19.36 23.976 19.49 24.316L20.42 26.726" stroke="#0B2343" stroke-linecap="round" stroke-linejoin="round"/>
<path d="M33.56 28.5558C33.47 27.5758 33.43 26.3757 33.6 25.0057C33.95 22.1257 33.14 18.8158 33.14 18.8158C32.78 17.8358 32.05 17.1457 31.08 17.5057C30.1 17.8557 29.6 18.9358 29.96 19.9158" stroke="#0B2343" stroke-linecap="round" stroke-linejoin="round"/>
</svg>
