<svg width="40" height="40" viewBox="0 0 40 40" fill="none" xmlns="http://www.w3.org/2000/svg">
<path d="M19.4061 7L21.6839 9.87682L18.8071 12.1547" stroke="#0B2343" stroke-linecap="round" stroke-linejoin="round"/>
<path d="M10.4399 10.8659C13.5164 9.52281 17.2644 9.02371 21.6839 9.87676" stroke="#0B2343" stroke-linecap="round" stroke-linejoin="round"/>
<path d="M21.3118 21.3113L22.5188 20.1043C23.1813 19.4418 24.2612 19.4418 24.9327 20.1043C25.5952 20.7668 25.5952 21.8467 24.9327 22.5183L22.9181 24.5329" stroke="#0B2343" stroke-linecap="round" stroke-linejoin="round"/>
<path d="M24.9328 27.3465L26.539 25.7402C27.2015 25.0777 27.2015 23.9978 26.539 23.3262C25.8766 22.6637 24.7966 22.6637 24.1251 23.3262L22.9181 24.5331" stroke="#0B2343" stroke-linecap="round" stroke-linejoin="round"/>
<path d="M15.6854 22.119L25.7405 12.0638C26.403 11.4013 27.4829 11.4013 28.1544 12.0638C28.8169 12.7262 28.8169 13.8062 28.1544 14.4777L21.321 21.3113" stroke="#0B2343" stroke-linecap="round" stroke-linejoin="round"/>
<path d="M11.3293 27.3644C11.8284 26.1574 11.7558 24.9324 11.7558 24.9324C12.0553 20.9666 14.7597 15.2674 14.7597 15.2674C15.5129 13.5795 17.5729 14.605 17.2916 15.8664L16.8469 17.6542L15.6853 22.1191" stroke="#0B2343" stroke-linecap="round" stroke-linejoin="round"/>
<path d="M20.0594 32.9999C20.6312 32.7186 21.4116 32.5461 22.1376 32.3102C24.6423 31.4934 27.0472 29.5604 27.0472 29.5604C27.7097 28.8979 28.0001 28.0268 27.3376 27.3553C26.6751 26.6928 25.5952 26.6928 24.9236 27.3553" stroke="#0B2343" stroke-linecap="round" stroke-linejoin="round"/>
<path d="M24.9328 27.3464L24.5244 27.7457" stroke="#0B2343" stroke-linecap="round" stroke-linejoin="round"/>
</svg>
