<svg width="40" height="40" viewBox="0 0 40 40" fill="none" xmlns="http://www.w3.org/2000/svg">
<path d="M20.6617 7L19.0363 10.3061L22.4071 11.8946" stroke="#0B2343" stroke-linecap="round" stroke-linejoin="round"/>
<path d="M30.4417 8.84707C26.6922 8.13596 22.6103 8.77315 19.0455 10.3062" stroke="#0B2343" stroke-linecap="round" stroke-linejoin="round"/>
<path d="M18.0943 22.3579L11.1403 15.4039C10.4661 14.7297 10.4661 13.6307 11.1403 12.9473C11.8144 12.2731 12.9134 12.2731 13.5968 12.9473L21.3728 20.7233" stroke="#0B2343" stroke-linecap="round" stroke-linejoin="round"/>
<path d="M24.2357 18.6731L22.6011 17.0386C21.927 16.3644 20.828 16.3644 20.1446 17.0386C19.4704 17.7128 19.4704 18.8117 20.1446 19.4951L21.3728 20.7234" stroke="#0B2343" stroke-linecap="round" stroke-linejoin="round"/>
<path d="M18.9163 28.0837L9.50563 18.673C8.83146 17.9989 8.83146 16.9 9.50563 16.2166C10.1798 15.5424 11.2788 15.5424 11.9622 16.2166L18.1036 22.3579" stroke="#0B2343" stroke-linecap="round" stroke-linejoin="round"/>
<path d="M24.2449 32.5165C23.0167 32.0085 21.7699 32.0825 21.7699 32.0825C17.7341 31.7777 11.9344 29.0257 11.9344 29.0257C10.2167 28.2592 11.2603 26.1627 12.544 26.449L14.3633 26.9015L18.907 28.0837" stroke="#0B2343" stroke-linecap="round" stroke-linejoin="round"/>
<path d="M31.2637 25.507C30.6911 24.685 29.8692 23.3275 29.2782 21.5174C28.447 18.9685 26.4799 16.5212 26.4799 16.5212C25.8057 15.847 24.9192 15.5515 24.2358 16.2257C23.5616 16.8998 23.5616 17.9988 24.2358 18.6822" stroke="#0B2343" stroke-linecap="round" stroke-linejoin="round"/>
<path d="M24.2357 18.6731L24.6421 19.0887" stroke="#0B2343" stroke-linecap="round" stroke-linejoin="round"/>
</svg>
