<svg width="40" height="40" viewBox="0 0 40 40" fill="none" xmlns="http://www.w3.org/2000/svg">
<path d="M6 26.305L9.24367 28.5899L11.5285 25.3462" stroke="#0B2343" stroke-linecap="round" stroke-linejoin="round"/>
<path d="M9.1314 12.1165C8.05018 15.0643 8.07058 23.9079 9.2538 28.5898" stroke="#0B2343" stroke-linecap="round" stroke-linejoin="round"/>
<path d="M22.3408 20.6747L21.688 18.8692C21.3208 17.8696 21.841 16.7781 22.8304 16.4109C23.83 16.0437 24.9214 16.5639 25.2886 17.5534L26.3801 20.5523" stroke="#0B2343" stroke-linecap="round" stroke-linejoin="round"/>
<path d="M30.2052 19.8485L29.3279 17.4412C28.9607 16.4416 27.8693 15.9316 26.8697 16.2988C25.8701 16.666 25.3601 17.7575 25.7273 18.7571L26.3801 20.5624" stroke="#0B2343" stroke-linecap="round" stroke-linejoin="round"/>
<path d="M20.4843 26.7946L14.5784 10.5763C14.2111 9.57663 14.7314 8.48517 15.7208 8.11797C16.7204 7.75076 17.8118 8.27096 18.179 9.26038L22.3305 20.6745" stroke="#0B2343" stroke-linecap="round" stroke-linejoin="round"/>
<path d="M30.2051 19.8484L30.4193 20.4502" stroke="#0B2343" stroke-linecap="round" stroke-linejoin="round"/>
<path d="M22.6366 32.7619C22.0041 32.3335 21.4839 32.1295 21.4839 32.1295C17.5875 29.9365 15.9044 24.8057 15.9044 24.8057C15.221 22.8065 16.8326 21.8579 17.7201 22.5107L18.8829 23.4593C19.1685 23.6939 19.3929 23.9999 19.5255 24.3468L20.4741 26.805" stroke="#0B2343" stroke-linecap="round" stroke-linejoin="round"/>
<path d="M33.8874 28.6715C33.7956 27.6719 33.765 26.4478 33.9282 25.0504C34.2852 22.1128 33.459 18.7365 33.459 18.7365C33.102 17.7369 32.3472 17.033 31.3578 17.4003C30.3582 17.7573 29.8482 18.8589 30.2154 19.8585" stroke="#0B2343" stroke-linecap="round" stroke-linejoin="round"/>
</svg>
