<svg width="40" height="40" viewBox="0 0 40 40" fill="none" xmlns="http://www.w3.org/2000/svg">
<path d="M22.5146 12.7773L24.2094 32.2201H13.3552L15.2608 10.2745C15.4277 8.33375 16.9557 6.84961 18.7823 6.84961C20.6089 6.84961 22.137 8.33375 22.3038 10.2745L22.3301 10.5731" stroke="#0B2343" stroke-linecap="round" stroke-linejoin="round"/>
<path d="M31.8935 9.2998L19.6078 10.9332V12.3822L31.8935 14.0156C32.4994 14.0156 33 12.9617 33 11.662C33 10.3623 32.5082 9.2998 31.8935 9.2998Z" stroke="#0B2343" stroke-linecap="round" stroke-linejoin="round"/>
<path d="M12.7142 15.5525H24.9384" stroke="#0B2343" stroke-linecap="round" stroke-linejoin="round"/>
<path d="M22.8044 16.1145L14.4529 19.5306" stroke="#0B2343" stroke-linecap="round" stroke-linejoin="round"/>
<path d="M23.3225 22.1035L13.8821 26.0377" stroke="#0B2343" stroke-linecap="round" stroke-linejoin="round"/>
<path d="M23.8406 28.1016L14.005 32.1938" stroke="#0B2343" stroke-linecap="round" stroke-linejoin="round"/>
<path d="M24.2007 32.2202H29.7771" stroke="#0B2343" stroke-linecap="round" stroke-linejoin="round"/>
<path d="M7.77002 32.2202H13.3464" stroke="#0B2343" stroke-linecap="round" stroke-linejoin="round"/>
</svg>
