<svg width="40" height="40" viewBox="0 0 40 40" fill="none" xmlns="http://www.w3.org/2000/svg">
<path d="M17.2999 25.47L23.72 28.6899" stroke="#0B2343" stroke-miterlimit="10" stroke-linecap="round" stroke-linejoin="round"/>
<path d="M21.99 20V19.98" stroke="#0B2343" stroke-miterlimit="10" stroke-linecap="round" stroke-linejoin="round"/>
<path d="M19.11 20.01V19.99" stroke="#0B2343" stroke-miterlimit="10" stroke-linecap="round" stroke-linejoin="round"/>
<path d="M23.8199 19C23.8199 17.17 22.34 16.02 20.5 16.02C18.66 16.02 17.1799 17.17 17.1799 19C17.1799 19.95 17.76 21.08 18.48 21.95C18.95 24.12 22.0499 24.12 22.5199 21.95C23.2399 21.08 23.8199 19.94 23.8199 19Z" stroke="#0B2343" stroke-miterlimit="10" stroke-linecap="round" stroke-linejoin="round"/>
<path d="M17.5699 24.9199L17.0199 26.01" stroke="#0B2343" stroke-miterlimit="10" stroke-linecap="round" stroke-linejoin="round"/>
<path d="M23.99 28.14L23.4399 29.24" stroke="#0B2343" stroke-miterlimit="10" stroke-linecap="round" stroke-linejoin="round"/>
<path d="M23.72 25.47L17.2899 28.6899" stroke="#0B2343" stroke-miterlimit="10" stroke-linecap="round" stroke-linejoin="round"/>
<path d="M23.4399 24.9199L23.99 26.01" stroke="#0B2343" stroke-miterlimit="10" stroke-linecap="round" stroke-linejoin="round"/>
<path d="M17.0199 28.14L17.5699 29.24" stroke="#0B2343" stroke-miterlimit="10" stroke-linecap="round" stroke-linejoin="round"/>
<path d="M24 11.77V7.98999H17V11.77C17 11.77 12.29 13.81 12 16.5V31.1499C12.29 32.7199 13.68 34.02 15.2 34.02H25.8099C27.3299 34.02 28.72 32.7199 29 31.1499V16.5C28.73 13.95 24 11.77 24 11.77Z" stroke="#0B2343" stroke-linecap="round" stroke-linejoin="round"/>
<path d="M25 5H16V8H25V5Z" stroke="#0B2343" stroke-miterlimit="10" stroke-linecap="round" stroke-linejoin="round"/>
</svg>
