<svg width="40" height="40" viewBox="0 0 40 40" fill="none" xmlns="http://www.w3.org/2000/svg">
<path d="M33.9573 27.5024C30.5873 31.0324 25.8374 33.2224 20.5674 33.2224C15.2974 33.2224 10.5474 31.0224 7.17737 27.5024" stroke="#0B2343" stroke-miterlimit="10" stroke-linecap="round" stroke-linejoin="round"/>
<path d="M29.8074 27.6424V15.9324C29.8074 14.1924 28.4274 13.2225 26.6874 13.2225H17.5773C16.1673 8.05248 11.1773 6.32252 9.10734 6.01252C8.58734 5.93252 8.08741 6.24251 7.93741 6.75251L6.01737 13.2225C5.95737 13.4225 6.05735 13.6325 6.24735 13.7225L7.32731 14.2125C7.49731 14.2925 7.69742 14.2424 7.81742 14.1024L10.2373 11.9725C10.4873 11.6825 10.9673 11.8525 10.9773 12.2425L10.7674 27.1925" stroke="#0B2343" stroke-miterlimit="10" stroke-linecap="round" stroke-linejoin="round"/>
<path d="M13.2673 28.2825L14.1473 23.6323C14.4573 21.8523 15.5573 20.3325 17.2573 20.3325H23.8873C25.5873 20.3325 26.7774 21.8823 27.0674 23.6323L27.7473 28.6624" stroke="#0B2343" stroke-miterlimit="10" stroke-linecap="round" stroke-linejoin="round"/>
<path d="M17.8174 15.1924C17.8174 15.1924 20.9273 17.7224 25.1373 15.1924" stroke="#0B2343" stroke-miterlimit="10" stroke-linecap="round" stroke-linejoin="round"/>
<path d="M32.6073 20.3326C32.6073 20.3326 32.5173 14.0525 29.7773 15.4725" stroke="#0B2343" stroke-miterlimit="10" stroke-linecap="round" stroke-linejoin="round"/>
<path d="M28.7073 13.5425C28.7073 13.5425 34.8173 10.8525 34.4573 20.9625" stroke="#0B2343" stroke-miterlimit="10" stroke-linecap="round" stroke-linejoin="round"/>
</svg>
