<svg width="40" height="40" viewBox="0 0 40 40" fill="none" xmlns="http://www.w3.org/2000/svg">
<path d="M20.95 30.97V34.83" stroke="#0B2343" stroke-linecap="round" stroke-linejoin="round"/>
<path d="M17.95 34.83V30.97" stroke="#0B2343" stroke-linecap="round" stroke-linejoin="round"/>
<path d="M25.12 17.43C27.94 16.83 29.95 14.77 29.95 12.98H25.18L25.35 9.85999C28.05 9.22999 29.95 7.74 29.95 6H9.00995C9.00995 7.71 10.84 9.18002 13.46 9.83002L13.6299 12.99H9C9 14.73 10.9 16.76 13.6 17.39L13.79 17.55L13.93 20.95H9.39996C9.39996 22.69 11.3 24.41 14 25.04L14.09 25.12L14.18 29.04C14.18 30.23 15.14 30.94 16.33 30.94H22.42C23.61 30.94 24.5699 30.23 24.5699 29.04L24.67 25.1L24.68 25.09C27.5 24.49 29.5099 22.74 29.5099 20.96H24.84L24.98 17.54L25.12 17.43Z" stroke="#0B2343" stroke-linecap="round" stroke-linejoin="round"/>
<path d="M21.98 11.01C21.98 12.38 20.83 13.5 19.41 13.5C17.99 13.5 16.84 12.39 16.84 11.01C16.84 9.64002 17.99 8.52997 19.41 8.52997C20.83 8.51997 21.98 9.63002 21.98 11.01Z" stroke="#0B2343" stroke-linecap="round" stroke-linejoin="round"/>
<path d="M21.98 18.56C21.98 19.93 20.83 21.05 19.41 21.05C17.99 21.05 16.84 19.94 16.84 18.56C16.84 17.19 17.99 16.08 19.41 16.08C20.83 16.07 21.98 17.19 21.98 18.56Z" stroke="#0B2343" stroke-linecap="round" stroke-linejoin="round"/>
<path d="M21.98 26.11C21.98 27.48 20.83 28.6 19.41 28.6C17.99 28.6 16.84 27.49 16.84 26.11C16.84 24.74 17.99 23.63 19.41 23.63C20.83 23.63 21.98 24.74 21.98 26.11Z" stroke="#0B2343" stroke-linecap="round" stroke-linejoin="round"/>
</svg>
