<svg width="40" height="40" viewBox="0 0 40 40" fill="none" xmlns="http://www.w3.org/2000/svg">
<path d="M29.8799 23.07C29.8799 25.65 27.74 26.96 25.09 26.96H14.79C12.15 26.96 10 25.65 10 23.07L11.2 10.28C11.2 7.70003 13.34 6 15.99 6H23.89C26.53 6 28.68 7.70003 28.68 10.28L29.8799 23.07Z" stroke="#0B2343" stroke-linecap="round" stroke-linejoin="round"/>
<path d="M28.77 11.13C28.31 10.45 26.35 9.95001 23.99 9.95001H15.93C13.58 9.95001 11.62 10.44 11.15 11.12" stroke="#0B2343" stroke-linecap="round" stroke-linejoin="round"/>
<path d="M10.54 17.64C10.54 18.64 12.85 19.87 15.69 19.87H24.2C27.04 19.87 29.37 18.63 29.37 17.64" stroke="#0B2343" stroke-linecap="round" stroke-linejoin="round"/>
<path d="M15.8799 23.05C15.8799 23.82 15.24 24.44 14.45 24.44C13.66 24.44 13.02 23.82 13.02 23.05C13.02 22.28 13.66 21.66 14.45 21.66C15.24 21.66 15.8799 22.28 15.8799 23.05Z" stroke="#0B2343" stroke-linecap="round" stroke-linejoin="round"/>
<path d="M26.8 23.05C26.8 23.82 26.16 24.44 25.37 24.44C24.58 24.44 23.94 23.82 23.94 23.05C23.94 22.28 24.58 21.66 25.37 21.66C26.16 21.66 26.8 22.28 26.8 23.05Z" stroke="#0B2343" stroke-linecap="round" stroke-linejoin="round"/>
<path d="M15.74 29.23L13.75 34.79" stroke="#0B2343" stroke-miterlimit="10" stroke-linecap="round" stroke-linejoin="round"/>
<path d="M24.12 29.23L26.12 34.79" stroke="#0B2343" stroke-miterlimit="10" stroke-linecap="round" stroke-linejoin="round"/>
<path d="M14.74 32.01H25.12" stroke="#0B2343" stroke-miterlimit="10" stroke-linecap="round" stroke-linejoin="round"/>
<path d="M18.22 7.88H21.69" stroke="#0B2343" stroke-linecap="round" stroke-linejoin="round"/>
</svg>
