<svg width="40" height="40" viewBox="0 0 40 40" fill="none" xmlns="http://www.w3.org/2000/svg">
<path d="M17.31 25.94H23.63" stroke="#0B2343" stroke-linecap="round" stroke-linejoin="round"/>
<path d="M17.31 27.94H23.63" stroke="#0B2343" stroke-linecap="round" stroke-linejoin="round"/>
<path d="M32.92 25.8799H33.92V6H7V25.8799H8" stroke="#0B2343" stroke-linecap="round" stroke-linejoin="round"/>
<path d="M14.9301 26.99C14.9301 27.89 14.2 28.62 13.31 28.62C12.42 28.62 11.69 27.89 11.69 26.99C11.69 26.09 12.42 25.36 13.31 25.36C14.2 25.36 14.9301 26.09 14.9301 26.99Z" stroke="#0B2343" stroke-linecap="round" stroke-linejoin="round"/>
<path d="M29.25 26.99C29.25 27.89 28.52 28.62 27.63 28.62C26.73 28.62 26.01 27.89 26.01 26.99C26.01 26.09 26.74 25.36 27.63 25.36C28.52 25.36 29.25 26.09 29.25 26.99Z" stroke="#0B2343" stroke-linecap="round" stroke-linejoin="round"/>
<path d="M9.87 30.7599V33.73C9.87 34.39 10.41 34.93 11.07 34.93H13.42C14.08 34.93 14.61 34.4 14.61 33.74V30.91H26.33V33.73C26.33 34.39 26.87 34.93 27.53 34.93H29.9301C30.5001 34.93 30.97 34.47 30.97 33.89V30.91L30.9301 15.98C30.9301 15.24 30.7201 14.5 30.2401 13.94C29.7201 13.35 28.96 12.94 27.98 12.94H12.9901C11.8501 12.94 10.9901 13.5099 10.4901 14.2599C10.1601 14.7499 10.04 15.34 10.03 15.92L9.87 30.7599Z" stroke="#0B2343" stroke-linecap="round" stroke-linejoin="round"/>
<path d="M9.95001 21.98H30.94" stroke="#0B2343" stroke-linecap="round" stroke-linejoin="round"/>
<path d="M9.87 30.92H30.96" stroke="#0B2343" stroke-linecap="round" stroke-linejoin="round"/>
</svg>
