<svg width="27" height="27" viewBox="0 0 27 27" fill="none" xmlns="http://www.w3.org/2000/svg">
<path d="M13.5 0C6.048 0 0 6.048 0 13.5C0 20.952 6.048 27 13.5 27C20.952 27 27 20.952 27 13.5C27 6.048 20.952 0 13.5 0ZM5.211 19.656C4.104 18.09 3.429 15.984 3.375 14.121H9.153C8.937 15.984 6.993 18.684 5.211 19.656ZM13.5 23.625C11.556 23.625 9.72 23.058 8.181 22.113C8.964 21.033 9.909 18.873 13.743 18.873C17.469 18.873 18.36 20.358 19.305 21.762C17.685 22.95 15.687 23.625 13.5 23.625ZM11.88 14.418C11.88 13.419 12.69 12.636 13.662 12.636C14.661 12.636 15.444 13.446 15.444 14.418C15.444 15.39 14.634 16.2 13.662 16.2C12.663 16.227 11.88 15.417 11.88 14.418ZM21.897 19.467C19.116 18.36 18.765 15.984 18.576 14.121H23.625C23.571 15.984 22.923 17.928 21.897 19.467ZM3.753 11.016C4.968 6.669 8.883 3.672 13.5 3.672C18.117 3.672 22.032 6.669 23.247 11.016H3.753Z" fill="#0B2343"/>
</svg>
