<svg width="40" height="40" viewBox="0 0 40 40" fill="none" xmlns="http://www.w3.org/2000/svg">
<path d="M28.74 33.8H10.28L8.54999 9.87H30.46L28.74 33.8Z" stroke="#0B2343" stroke-miterlimit="10" stroke-linecap="round" stroke-linejoin="round"/>
<path d="M6 9.87H33.02" stroke="#0B2343" stroke-miterlimit="10" stroke-linecap="round" stroke-linejoin="round"/>
<path d="M22.3 6H16.72L15.48 9.87H23.54L22.3 6Z" stroke="#0B2343" stroke-miterlimit="10" stroke-linecap="round" stroke-linejoin="round"/>
<path d="M16.92 26.56C19 27.71 21.65 27.4 23.41 25.63C25.17 23.86 25.48 21.19 24.34 19.1" stroke="#0B2343" stroke-miterlimit="10" stroke-linecap="round" stroke-linejoin="round"/>
<path d="M22.17 16.9099C20.09 15.7599 17.44 16.07 15.68 17.84C13.92 19.61 13.62 22.28 14.75 24.37" stroke="#0B2343" stroke-miterlimit="10" stroke-linecap="round" stroke-linejoin="round"/>
<path d="M21.03 14.25L22.19 16.89L19.56 18.06" stroke="#0B2343" stroke-miterlimit="10" stroke-linecap="round" stroke-linejoin="round"/>
<path d="M18.08 29.2L16.92 26.56L19.55 25.39" stroke="#0B2343" stroke-miterlimit="10" stroke-linecap="round" stroke-linejoin="round"/>
</svg>
