<svg width="40" height="40" viewBox="0 0 40 40" fill="none" xmlns="http://www.w3.org/2000/svg">
<path d="M8 9.45001L10.16 32.66C10.16 33.9 14.55 34.91 19.96 34.91C25.37 34.91 29.76 33.9 29.76 32.66L31.92 9.45001" stroke="#0B2343" stroke-miterlimit="10" stroke-linecap="round" stroke-linejoin="round"/>
<path d="M31.93 9.42C31.93 11.31 26.57 12.84 19.97 12.84C13.36 12.84 8.01001 11.31 8.01001 9.42C8.01001 7.53 13.37 6 19.97 6C26.57 6.01 31.93 7.54 31.93 9.42Z" stroke="#0B2343" stroke-miterlimit="10" stroke-linecap="round" stroke-linejoin="round"/>
<path d="M9.32007 23.6L19.9701 34.91" stroke="#0B2343" stroke-miterlimit="10" stroke-linecap="round" stroke-linejoin="round"/>
<path d="M8.20996 11.69L29.4799 33.19" stroke="#0B2343" stroke-miterlimit="10" stroke-linecap="round" stroke-linejoin="round"/>
<path d="M19.97 12.84L30.62 23.54" stroke="#0B2343" stroke-miterlimit="10" stroke-linecap="round" stroke-linejoin="round"/>
<path d="M30.62 23.54L19.97 34.91" stroke="#0B2343" stroke-miterlimit="10" stroke-linecap="round" stroke-linejoin="round"/>
<path d="M31.7199 11.7L10.45 33.19" stroke="#0B2343" stroke-miterlimit="10" stroke-linecap="round" stroke-linejoin="round"/>
<path d="M19.9701 12.84L9.32007 23.6" stroke="#0B2343" stroke-miterlimit="10" stroke-linecap="round" stroke-linejoin="round"/>
</svg>
