<svg width="40" height="40" viewBox="0 0 40 40" fill="none" xmlns="http://www.w3.org/2000/svg">
<path d="M27.0901 34.91V23.8301" stroke="#0B2343" stroke-miterlimit="10" stroke-linecap="round" stroke-linejoin="round"/>
<path d="M28.8101 7.72998C28.8101 8.67998 28.0401 10.02 27.1001 10.02C26.1601 10.02 25.39 8.68998 25.39 7.72998C25.39 6.77998 26.1601 6 27.1001 6C28.0401 6 28.8101 6.77998 28.8101 7.72998Z" stroke="#0B2343" stroke-miterlimit="10" stroke-linecap="round" stroke-linejoin="round"/>
<path d="M29.4501 34.91L30.2101 21.81C30.2201 21.55 31.1102 21.89 31.1202 21.64C31.4802 12.37 30.6801 11.7801 30.5801 11.7101C30.4701 11.6801 29.5901 11.66 29.3301 11.64C28.9701 11.62 28.6701 11.83 28.5001 12.13C27.9201 13.2 25.9701 13.2 25.3901 12.13C25.2301 11.83 24.9201 11.62 24.5601 11.64C24.3801 11.65 21.6001 13.62 20.5301 14.39C20.2601 14.59 19.9301 14.71 19.5901 14.74L15.2402 15.2101C14.1402 15.3801 14.1601 16.49 15.2601 16.63L20.0101 17.01C20.4601 17.05 20.9201 17.04 21.2901 16.79L24.0801 15.64V21.8L24.8401 34.9" stroke="#0B2343" stroke-miterlimit="10" stroke-linecap="round" stroke-linejoin="round"/>
<path d="M17.9601 22.0801L16.2301 34.86H9.7301L8 22.0801" stroke="#0B2343" stroke-miterlimit="10" stroke-linecap="round" stroke-linejoin="round"/>
<path d="M12.05 18.87L13.7101 19.25" stroke="#0B2343" stroke-miterlimit="10" stroke-linecap="round" stroke-linejoin="round"/>
<path d="M13 22.87L11.8401 24.36" stroke="#0B2343" stroke-miterlimit="10" stroke-linecap="round" stroke-linejoin="round"/>
<path d="M11.4601 27.8101L13 29.01" stroke="#0B2343" stroke-miterlimit="10" stroke-linecap="round" stroke-linejoin="round"/>
</svg>
