<svg xmlns="http://www.w3.org/2000/svg" viewBox="0 0 11.8 11.7"><g id="Layer_2" data-name="Layer 2"><g id="Layer_1-2" data-name="Layer 1"><path d="M0,7.3A1.49,1.49,0,0,0,1.7,9h.2V4.3A2.39,2.39,0,0,1,4.5,1.8H9.1V1.7A1.49,1.49,0,0,0,7.4,0H1.8C.6,0,0,.6,0,1.7V7.3Zm4.5,4.4h5.6A1.49,1.49,0,0,0,11.8,10V4.3a1.49,1.49,0,0,0-1.7-1.7H4.5A1.49,1.49,0,0,0,2.8,4.3V10C2.7,11.1,3.3,11.7,4.5,11.7Zm2.7-2a.47.47,0,0,1-.5-.5V7.6H5.1a.56.56,0,0,1-.6-.5c0-.3.2-.5.6-.5H6.7V4.9a.5.5,0,0,1,1,0V6.6H9.3c.4,0,.6.2.6.5a.47.47,0,0,1-.5.5H7.7V9.2C7.7,9.5,7.6,9.7,7.2,9.7Z"/></g></g></svg>