<?xml version="1.0" encoding="utf-8"?>
<!-- Generator: Adobe Illustrator 19.1.0, SVG Export Plug-In . SVG Version: 6.00 Build 0)  -->
<svg version="1.1" id="Layer_1" xmlns="http://www.w3.org/2000/svg" xmlns:xlink="http://www.w3.org/1999/xlink" x="0px" y="0px"
	 viewBox="0 0 56 56" enable-background="new 0 0 56 56" xml:space="preserve">
<g>
	<path d="M28,0C12.6,0,0,12.6,0,28c0,15.4,12.6,28,28,28s28-12.6,28-28C56,12.6,43.4,0,28,0z M10.4,47.6c3.1-2.9,10.8-5.9,12.5-6.4
		c3,1.4,7.4,1.4,10.4,0c1.6,0.5,9.5,3.6,12.5,6.4C41,51.8,34.8,54.4,28,54.4C21.2,54.4,15,51.8,10.4,47.6z M46.8,46.5
		c-2.3-2.2-12.8-7.6-14.1-6.9c-2.6,1.4-6.8,1.4-9.4,0c-1.4-0.7-12,4.9-14.1,6.9C4.5,41.7,1.6,35.2,1.6,28C1.6,13.4,13.4,1.6,28,1.6
		S54.4,13.4,54.4,28C54.4,35.2,51.5,41.7,46.8,46.5z"/>
	<path d="M36.8,23.3c0-5.4-3.9-9.7-8.8-9.7c-4.9,0-8.8,4.2-8.8,9.7c0,0.8,0,1.4,0.2,2.1c-0.7,0.7-0.9,2-0.7,3.1
		c0.2,0.9,0.7,1.6,1.3,1.9c0.6,4.3,4,7.6,7.9,7.6c3.9,0,7.3-3.3,7.8-7.5c0.7-0.3,1.2-1,1.4-2c0.2-1,0.1-2.2-0.6-2.9
		C36.8,24.7,36.8,24.1,36.8,23.3z M35.7,28c-0.1,0.5-0.4,0.9-0.6,0.9c-0.4,0-0.8,0.3-0.8,0.7c-0.3,3.7-3,6.7-6.3,6.7
		c-3.3,0-6.1-2.9-6.4-6.7c0-0.4-0.4-0.7-0.8-0.7c0,0,0,0,0,0c-0.2,0-0.4-0.4-0.5-0.7c-0.2-0.7,0-1.5,0.4-1.7c0.4-0.2,0.5-0.6,0.4-1
		c-0.3-0.8-0.3-1.2-0.3-2.2c0-4.6,3.1-8.1,7.2-8.1c4.1,0,7.2,3.5,7.2,8.1c0,1,0,1.4-0.2,2.2c-0.1,0.4,0.1,0.8,0.4,1
		C35.7,26.6,35.9,27.3,35.7,28z"/>
</g>
</svg>
