<?xml version="1.0" encoding="utf-8"?>
<!-- Generator: Adobe Illustrator 22.0.1, SVG Export Plug-In . SVG Version: 6.00 Build 0)  -->
<svg version="1.1" id="Layer_1" xmlns="http://www.w3.org/2000/svg" xmlns:xlink="http://www.w3.org/1999/xlink" x="0px" y="0px"
	 viewBox="0 0 30 30" style="enable-background:new 0 0 30 30;" xml:space="preserve">
<style type="text/css">
	.st0{fill:#231F20;}
</style>
<g>
	<g>
		<path class="st0" d="M19.8,26H1.2C0.5,26,0,25.4,0,24.7v-2.6c0-0.5,0.3-1,0.8-1.2c5.7-2.3,6.6-3.3,6.8-3.6v-0.8
			c-0.6-0.7-1.1-1.7-1.4-2.8c-0.4-0.3-0.7-0.8-0.7-1.4c-0.1-0.6,0-1.1,0.3-1.6V8.7c0-2.9,1.8-4.6,4.8-4.6c3,0,4.8,1.7,4.8,4.6v2.2
			c0.3,0.5,0.4,1,0.4,1.6c-0.1,0.5-0.3,1-0.7,1.4c-0.3,1.1-0.8,2-1.4,2.8v0.8c0.2,0.3,1.1,1.3,6.8,3.6l0,0c0.5,0.2,0.8,0.7,0.8,1.2
			v2.6C21,25.4,20.4,26,19.8,26z M10.5,5.1c-2.4,0-3.8,1.3-3.8,3.6v2.4c0,0.1,0,0.2-0.1,0.3c-0.2,0.3-0.3,0.6-0.3,1
			c0,0.3,0.2,0.6,0.5,0.8C6.9,13.2,7,13.3,7,13.4c0.3,1.1,0.8,2,1.4,2.7c0.1,0.1,0.1,0.2,0.1,0.3v1.1c0,0,0,0.1,0,0.1
			c-0.2,0.7-1.3,1.8-7.4,4.2C1.1,21.9,1,22,1,22.1v2.6C1,24.9,1.1,25,1.2,25h18.6c0.1,0,0.2-0.1,0.2-0.3v-2.6c0-0.1-0.1-0.2-0.1-0.2
			l0,0c-6.1-2.5-7.2-3.5-7.4-4.2c0,0,0-0.1,0-0.1v-1.1c0-0.1,0-0.2,0.1-0.3c0.6-0.7,1.1-1.6,1.4-2.7c0-0.1,0.1-0.2,0.2-0.3
			c0.3-0.2,0.4-0.5,0.5-0.8c0-0.3,0-0.7-0.3-1c-0.1-0.1-0.1-0.2-0.1-0.3V8.7C14.3,7.1,13.6,5.1,10.5,5.1z"/>
	</g>
	<g>
		<path class="st0" d="M28.8,26h-5.2c-0.3,0-0.5-0.2-0.5-0.5s0.2-0.5,0.5-0.5h5.2c0.1,0,0.2-0.1,0.2-0.2v-2.4c0-0.1,0-0.1-0.1-0.2
			c-1.3-0.5-2.8-0.8-4-1c-1.7-0.3-2.8-0.5-3.1-1.3c0,0,0-0.1,0-0.2v-1.4c0-0.3,0.2-0.5,0.5-0.5c1.8,0,2.9-0.3,3.4-0.6
			c-1-1.5-1.3-4.8-1.4-5.5c0-1.9-1-3.5-2.6-4.2c-1.5-0.7-3.1-0.5-4.3,0.4C17.3,8.2,17,8.2,16.8,8c-0.2-0.2-0.1-0.5,0.1-0.7
			c1.5-1.2,3.5-1.4,5.3-0.6c2,0.9,3.2,2.9,3.2,5.1c0.2,2.2,0.8,4.9,1.4,5.2c0.1,0.1,0.2,0.2,0.3,0.4c0,0.2-0.1,0.3-0.2,0.4
			c-0.1,0-1.2,1-4.1,1.1v0.7c0.2,0.2,1.4,0.4,2.3,0.6c1.2,0.2,2.7,0.5,4.1,1.1c0.5,0.2,0.8,0.6,0.8,1.1v2.4C30,25.5,29.5,26,28.8,26
			z"/>
	</g>
</g>
</svg>
