<svg width="40" height="40" viewBox="0 0 40 40" fill="none" xmlns="http://www.w3.org/2000/svg">
<path d="M22.2 8.50908C21.88 9.52908 20.8 10.099 19.78 9.77898C18.76 9.45898 18.1899 8.37905 18.5099 7.35905C18.8299 6.33905 19.91 5.76903 20.93 6.08903C21.95 6.40903 22.51 7.48908 22.2 8.50908Z" stroke="#0B2343" stroke-miterlimit="10" stroke-linecap="round" stroke-linejoin="round"/>
<path d="M19.0399 29.1091C19.0399 29.1091 19.0299 24.779 18.9499 23.409C18.9299 23.159 18.8299 22.9291 18.6599 22.7491L15.23 19.4991C14.97 19.0391 14.9199 18.4991 15.0799 17.9991L16.3799 13.829C16.6999 12.809 17.7399 12.119 18.7799 12.349C19.9599 12.609 20.4599 13.669 20.2899 14.949L19.7799 19.279L23.7899 19.339" stroke="#0B2343" stroke-miterlimit="10" stroke-linecap="round" stroke-linejoin="round"/>
<path d="M14.1299 20.709L12.33 23.309H7.60999" stroke="#0B2343" stroke-miterlimit="10" stroke-linecap="round" stroke-linejoin="round"/>
<path d="M15.12 11.469H13.1399L11.2699 16.2689" stroke="#0B2343" stroke-miterlimit="10" stroke-linecap="round" stroke-linejoin="round"/>
<path d="M28.6699 31.379L30.6299 16.099" stroke="#0B2343" stroke-miterlimit="10" stroke-linecap="round" stroke-linejoin="round"/>
<path d="M27.33 17.6689L33.0299 14.959" stroke="#0B2343" stroke-miterlimit="10" stroke-linecap="round" stroke-linejoin="round"/>
<path d="M31.5 34.369H7.5C6.67 34.369 6 33.699 6 32.869C6 32.039 6.67 31.369 7.5 31.369H31.5C32.33 31.369 33 32.039 33 32.869C33 33.689 32.33 34.369 31.5 34.369Z" stroke="#0B2343" stroke-miterlimit="10" stroke-linecap="round" stroke-linejoin="round"/>
</svg>
