<svg width="40" height="40" viewBox="0 0 40 40" fill="none" xmlns="http://www.w3.org/2000/svg">
<path d="M19.343 33.0177V13.2356" stroke="#0B2343" stroke-miterlimit="10" stroke-linecap="round" stroke-linejoin="round"/>
<path d="M19.343 24.8066C19.343 24.8066 20.3984 17.3024 25.4528 19.0453" stroke="#0B2343" stroke-miterlimit="10" stroke-linecap="round" stroke-linejoin="round"/>
<path d="M19.343 22.7541C19.343 22.7541 17.0675 17.7577 14.734 20.1397" stroke="#0B2343" stroke-miterlimit="10" stroke-linecap="round" stroke-linejoin="round"/>
<path d="M17.4742 25.93C14.3466 28.3604 9.94099 25.93 9.94099 21.6986C9.94099 19.762 10.919 18.0772 12.3617 17.1864C10.9577 12.0932 14.4725 7 19.3333 7C22.9547 7 25.9468 9.87586 26.5084 13.6425C29.3551 14.4268 31.4563 17.2251 31.4563 20.5657C31.4563 24.5163 28.5127 27.7214 24.8816 27.7214C23.4873 27.7214 22.1994 27.2469 21.1343 26.4529" stroke="#0B2343" stroke-miterlimit="10" stroke-linecap="round" stroke-linejoin="round"/>
<path d="M6 33.0178H33.8188" stroke="#0B2343" stroke-miterlimit="10" stroke-linecap="round" stroke-linejoin="round"/>
</svg>
