<svg width="40" height="40" viewBox="0 0 40 40" fill="none" xmlns="http://www.w3.org/2000/svg">
<path d="M25.584 24.1155L28.8205 10.2795L33.3063 30.3237H24.3347L25.0445 27.0492" stroke="#0B2343" stroke-miterlimit="10" stroke-linecap="round" stroke-linejoin="round"/>
<path d="M15.9688 28.6107C12.3442 30.5602 9.59977 24.6833 13.0635 22.5161C12.1455 19.1281 14.4546 15.7495 17.6344 15.7495C20.0098 15.7495 21.9688 17.6612 22.3379 20.1596C24.2022 20.6801 25.584 22.5445 25.584 24.759C25.584 28.535 21.7795 30.7779 18.9404 28.7526" stroke="#0B2343" stroke-miterlimit="10" stroke-linecap="round" stroke-linejoin="round"/>
<path d="M28.8205 33.9011V27.7024" stroke="#0B2343" stroke-miterlimit="10" stroke-linecap="round" stroke-linejoin="round"/>
<path d="M17.464 33.9011V20.8601" stroke="#0B2343" stroke-miterlimit="10" stroke-linecap="round" stroke-linejoin="round"/>
<path d="M17.5114 27.5981C17.5114 27.5981 18.2022 22.6864 21.5145 23.822" stroke="#0B2343" stroke-miterlimit="10" stroke-linecap="round" stroke-linejoin="round"/>
<path d="M17.5114 26.2543C17.5114 26.2543 16.0161 22.9799 14.4924 24.5414" stroke="#0B2343" stroke-miterlimit="10" stroke-linecap="round" stroke-linejoin="round"/>
<path d="M15.0886 9.21963C14.7953 8.23541 13.8868 7.53508 12.6376 7.69596C10.9341 6.21016 8.39783 7.23225 8.02875 9.5414C6.11708 10.7622 7.11083 13.3269 9.04143 13.3269H15.3347C16.4987 13.3269 17.4735 12.3805 17.4735 11.2733C17.4735 10.1187 16.4136 9.08714 15.0886 9.21963Z" stroke="#0B2343" stroke-miterlimit="10" stroke-linecap="round" stroke-linejoin="round"/>
</svg>
