<svg width="40" height="40" viewBox="0 0 40 40" fill="none" xmlns="http://www.w3.org/2000/svg">
<path d="M23.8701 20.5551L27.165 7L32.6941 30.2145H21.6359L22.2555 27.5955" stroke="#0B2343" stroke-miterlimit="10" stroke-linecap="round" stroke-linejoin="round"/>
<path d="M13.2251 27.5112C9.03839 29.7641 5.8186 22.9396 9.84571 20.4238C8.77557 16.4906 11.4603 12.5574 15.1589 12.5574C17.9187 12.5574 20.1998 14.7821 20.6316 17.6828C22.8 18.2929 24.4052 20.452 24.4052 23.0335C24.4052 27.4267 19.9745 30.0363 16.6702 27.6707" stroke="#0B2343" stroke-miterlimit="10" stroke-linecap="round" stroke-linejoin="round"/>
<path d="M27.165 33.9599V26.666" stroke="#0B2343" stroke-miterlimit="10" stroke-linecap="round" stroke-linejoin="round"/>
<path d="M14.9617 33.96V18.4993" stroke="#0B2343" stroke-miterlimit="10" stroke-linecap="round" stroke-linejoin="round"/>
<path d="M15.0087 26.3377C15.0087 26.3377 15.8065 20.6209 19.6647 21.9445" stroke="#0B2343" stroke-miterlimit="10" stroke-linecap="round" stroke-linejoin="round"/>
<path d="M15.0087 24.7697C15.0087 24.7697 13.272 20.9679 11.4979 22.7797" stroke="#0B2343" stroke-miterlimit="10" stroke-linecap="round" stroke-linejoin="round"/>
</svg>
