<svg width="40" height="40" viewBox="0 0 40 40" fill="none" xmlns="http://www.w3.org/2000/svg">
<path d="M22.9216 8.16206C22.8716 9.31206 21.9216 10.192 20.8016 10.142C19.6816 10.092 18.8115 9.12207 18.8515 7.98207C18.9015 6.83207 19.8515 5.95203 20.9715 6.00203C22.1015 6.04203 22.9716 7.01206 22.9216 8.16206Z" stroke="#0B2343" stroke-miterlimit="10" stroke-linecap="round" stroke-linejoin="round"/>
<path d="M23.3616 32.0421L23.5717 26.132C23.5817 25.862 23.4817 25.6021 23.3017 25.4121L18.9016 20.822C18.5416 20.442 18.3416 19.922 18.3716 19.382L18.5617 14.932C18.6117 13.812 19.4716 12.842 20.5816 12.832C21.7616 12.822 22.6916 13.812 22.6416 15.002L23.2116 19.192L27.5617 18.122" stroke="#0B2343" stroke-miterlimit="10" stroke-linecap="round" stroke-linejoin="round"/>
<path d="M19.1116 24.342L16.1316 33.832" stroke="#0B2343" stroke-miterlimit="10" stroke-linecap="round" stroke-linejoin="round"/>
<path d="M16.1316 20.932L12.9317 20.782C12.3917 20.762 11.9716 20.2921 12.0016 19.7421L12.1416 16.5421C12.2416 14.2021 14.1816 12.392 16.4816 12.502H16.5116L16.1316 20.932Z" stroke="#0B2343" stroke-miterlimit="10" stroke-linecap="round" stroke-linejoin="round"/>
<path d="M26.4517 16.872L28.6516 30.2421" stroke="#0B2343" stroke-miterlimit="10" stroke-linecap="round" stroke-linejoin="round"/>
</svg>
