<svg width="40" height="40" viewBox="0 0 40 40" fill="none" xmlns="http://www.w3.org/2000/svg">
<path d="M27.9545 28.585C27.9545 30.7829 29.7342 32.5733 31.9428 32.5733C34.1407 32.5733 35.9311 30.7936 35.9311 28.585C35.9311 26.3764 34.1514 24.5967 31.9428 24.5967C29.7342 24.5967 27.9545 26.3764 27.9545 28.585Z" stroke="#0B2343" stroke-miterlimit="10" stroke-linecap="round" stroke-linejoin="round"/>
<path d="M5 26.7626C5 29.9683 7.59461 32.5629 10.8003 32.5629C14.006 32.5629 16.6005 29.9683 16.6005 26.7626C16.6005 23.5569 14.006 20.9624 10.8003 20.9624C7.59461 20.9624 5 23.5569 5 26.7626Z" stroke="#0B2343" stroke-miterlimit="10" stroke-linecap="round" stroke-linejoin="round"/>
<path d="M11.2934 17.6385V8" stroke="#0B2343" stroke-miterlimit="10" stroke-linecap="round" stroke-linejoin="round"/>
<path d="M10.1569 8H22.6259" stroke="#0B2343" stroke-miterlimit="10" stroke-linecap="round" stroke-linejoin="round"/>
<path d="M27.4505 17.6385V13.0713" stroke="#0B2343" stroke-miterlimit="10" stroke-linecap="round" stroke-linejoin="round"/>
<path d="M15.7107 17.6385V8" stroke="#0B2343" stroke-miterlimit="10" stroke-linecap="round" stroke-linejoin="round"/>
<path d="M24.1913 17.6384V27.2663H20.0314V23.8354C20.0314 23.428 19.892 23.0313 19.624 22.7097L15.6999 17.6384H7.40157" stroke="#0B2343" stroke-miterlimit="10" stroke-linecap="round" stroke-linejoin="round"/>
<path d="M19.8383 30.5361H23.6767" stroke="#0B2343" stroke-miterlimit="10" stroke-linecap="round" stroke-linejoin="round"/>
<path d="M22.0148 8L24.1913 17.6278H28.7586C28.7586 17.6278 35.2557 18.5605 35.2557 21.5947V22.5918C34.2908 22.0235 33.1543 21.702 31.9321 21.702C28.6621 21.702 25.971 24.2108 25.5315 27.2664H23.7946" stroke="#0B2343" stroke-miterlimit="10" stroke-linecap="round" stroke-linejoin="round"/>
</svg>
