<svg width="40" height="40" viewBox="0 0 40 40" fill="none" xmlns="http://www.w3.org/2000/svg">
<path d="M7.97003 20.01V22.98H9.03003V25.9401H11.15" stroke="#0B2343" stroke-miterlimit="10" stroke-linecap="round" stroke-linejoin="round"/>
<path d="M8 13.88V11H29.93L32.06 16.9501L34.31 18.39C34.65 18.62 35 19.01 35 19.42V26H32.37" stroke="#0B2343" stroke-miterlimit="10" stroke-linecap="round" stroke-linejoin="round"/>
<path d="M16.04 26.02H27.49" stroke="#0B2343" stroke-miterlimit="10" stroke-linecap="round" stroke-linejoin="round"/>
<path d="M29.93 28.38C31.28 28.38 32.37 27.2801 32.37 25.9401C32.37 24.5901 31.27 23.5 29.93 23.5C28.58 23.5 27.49 24.6001 27.49 25.9401C27.49 27.2901 28.58 28.38 29.93 28.38Z" stroke="#0B2343" stroke-miterlimit="10" stroke-linecap="round" stroke-linejoin="round"/>
<path d="M13.59 28.38C14.94 28.38 16.03 27.2801 16.03 25.9401C16.03 24.5901 14.93 23.5 13.59 23.5C12.24 23.5 11.15 24.6001 11.15 25.9401C11.15 27.2901 12.25 28.38 13.59 28.38Z" stroke="#0B2343" stroke-miterlimit="10" stroke-linecap="round" stroke-linejoin="round"/>
<path d="M9.90002 18.01H7.03003" stroke="#0B2343" stroke-miterlimit="10" stroke-linecap="round" stroke-linejoin="round"/>
<path d="M6 16.02H10.97" stroke="#0B2343" stroke-miterlimit="10" stroke-linecap="round" stroke-linejoin="round"/>
<path d="M9.03003 22.98H34.99" stroke="#0B2343" stroke-miterlimit="10" stroke-linecap="round" stroke-linejoin="round"/>
<path d="M26.11 11V22.98" stroke="#0B2343" stroke-miterlimit="10" stroke-linecap="round" stroke-linejoin="round"/>
<path d="M26.11 16.9501H32.06" stroke="#0B2343" stroke-miterlimit="10" stroke-linecap="round" stroke-linejoin="round"/>
</svg>
