<svg width="40" height="40" viewBox="0 0 40 40" fill="none" xmlns="http://www.w3.org/2000/svg">
<path d="M8 28.6107H31.5869" stroke="#0B2343" stroke-miterlimit="10" stroke-linecap="round" stroke-linejoin="round"/>
<path d="M30.1802 30.103L29.3311 31.9899H10.2557L9.40649 30.1202" stroke="#0B2343" stroke-miterlimit="10" stroke-linecap="round" stroke-linejoin="round"/>
<path d="M29.3825 21.9291C31.4324 24.0305 30.8063 25.6516 28.0188 28.6106" stroke="#0B2343" stroke-miterlimit="10" stroke-linecap="round" stroke-linejoin="round"/>
<path d="M9.73247 28.6106C9.73247 28.6106 6.40464 24.5707 10.4444 22.8639C14.4842 21.1571 16.8944 18.584 19.9907 18.0865C21.9977 17.7692 23.9447 17.9063 25.5572 18.4467" stroke="#0B2343" stroke-miterlimit="10" stroke-linecap="round" stroke-linejoin="round"/>
<path d="M26.4063 26.2176C26.4063 26.2176 27.9587 23.9446 26.0632 22.7267L29.5712 19.2187C29.9829 19.8019 30.8063 19.8534 31.2952 19.3645C32.1443 18.5154 31.2609 17.1087 30.1287 17.4947C30.5147 16.3625 29.1081 15.4791 28.259 16.3282C27.7529 16.8343 27.8387 17.6748 28.4305 18.0694L24.9139 21.586C24.9139 21.586 18.3268 19.9564 17.7607 26.2262" stroke="#0B2343" stroke-linecap="round" stroke-linejoin="round"/>
<path d="M19.965 8C19.965 8 22.0664 8.53173 19.3732 12.0226C16.68 15.5134 19.3732 15.7279 19.3732 15.7279" stroke="#0B2343" stroke-miterlimit="10" stroke-linecap="round" stroke-linejoin="round"/>
<path d="M23.7731 10.1786C23.7731 10.1786 24.9654 10.4787 23.4387 12.4686C21.9034 14.4585 23.4387 14.5785 23.4387 14.5785" stroke="#0B2343" stroke-miterlimit="10" stroke-linecap="round" stroke-linejoin="round"/>
<path d="M14.2526 12.3828C14.2526 12.3828 15.4448 12.683 13.9181 14.6729C12.3828 16.6628 13.9181 16.7828 13.9181 16.7828" stroke="#0B2343" stroke-miterlimit="10" stroke-linecap="round" stroke-linejoin="round"/>
</svg>
