<svg width="40" height="40" viewBox="0 0 40 40" fill="none" xmlns="http://www.w3.org/2000/svg">
<path d="M12.55 37.286C27.6543 37.286 35.9132 24.0922 35.9132 12.6577C35.9132 12.2807 35.9132 11.9038 35.8961 11.5447C37.4968 10.3241 38.8931 8.7983 40 7.05709C38.5355 7.73921 36.9519 8.20593 35.2831 8.42134C36.986 7.3443 38.2801 5.65694 38.8931 3.62852C37.3095 4.6158 35.5556 5.33383 33.6824 5.72874C32.1839 4.04138 30.0553 3.00024 27.6884 3.00024C23.1588 3.00024 19.4806 6.87758 19.4806 11.6524C19.4806 12.3346 19.5487 12.9987 19.702 13.627C12.8736 13.268 6.82844 9.82148 2.77565 4.5799C2.07748 5.85439 1.6688 7.3443 1.6688 8.92395C1.6688 11.9217 3.11622 14.5784 5.32993 16.1222C3.98467 16.0863 2.72456 15.6913 1.61771 15.0451C1.61771 15.081 1.61771 15.1169 1.61771 15.1528C1.61771 19.3533 4.44444 22.8357 8.20775 23.6435C7.52661 23.8409 6.79438 23.9486 6.04513 23.9486C5.51724 23.9486 5.00639 23.8948 4.49553 23.7871C5.53427 27.2336 8.56535 29.7287 12.1584 29.8005C9.34866 32.1162 5.80673 33.4984 1.95828 33.4984C1.29417 33.4984 0.647084 33.4625 0 33.3727C3.59302 35.8499 7.91826 37.286 12.55 37.286Z" fill="#FAFCFE"/>
</svg>
