<?xml version="1.0" encoding="utf-8"?>
<!-- Generator: Adobe Illustrator 19.1.0, SVG Export Plug-In . SVG Version: 6.00 Build 0)  -->
<svg version="1.1" id="Layer_1" xmlns="http://www.w3.org/2000/svg" xmlns:xlink="http://www.w3.org/1999/xlink" x="0px" y="0px"
	 viewBox="0 0 54 46" enable-background="new 0 0 54 46" xml:space="preserve">
<path fill="#221F1F" d="M54,5.4L54,5.4L54,5.4 M37.4,0c-6.1,0-11.1,5.2-11.1,11.6c0,0.9,0.1,1.8,0.3,2.6C17.4,13.8,9.2,9.2,3.8,2.1
	C2.8,3.8,2.3,5.8,2.3,8c0,4,2,7.6,4.9,9.7c-1.8-0.1-3.5-0.6-5-1.5c0,0,0,0.1,0,0.1c0,5.6,3.8,10.3,8.9,11.4
	c-0.9,0.3-1.9,0.4-2.9,0.4c-0.7,0-1.4-0.1-2.1-0.2c1.4,4.6,5.5,8,10.3,8.1c-3.8,3.1-8.6,5-13.8,5c-0.9,0-1.8-0.1-2.6-0.2
	C4.9,44.1,10.7,46,17,46c20.4,0,31.5-17.7,31.5-33c0-0.5,0-1,0-1.5c2.2-1.6,4-3.7,5.5-6c-2,0.9-4.1,1.5-6.4,1.8
	c2.3-1.4,4-3.7,4.9-6.4c-2.1,1.3-4.5,2.3-7,2.8C43.5,1.4,40.6,0,37.4,0"/>
</svg>
