<svg width="40" height="40" viewBox="0 0 40 40" fill="none" xmlns="http://www.w3.org/2000/svg">
<path d="M26.5778 28.0269C22.3585 26.3234 17.6937 24.2007 17.3006 22.8903V21.5014C18.1785 20.571 18.8599 19.2607 19.2661 17.7276C20.2489 17.0069 20.4848 15.5262 19.6724 14.4779V11.3855C19.6724 8.18827 17.9689 6 14.0903 6C10.3034 6 8.49513 8.18827 8.49513 11.3855V14.4779C7.68271 15.5262 7.93159 17.0069 8.90125 17.7276C9.30746 19.2607 10.002 20.5579 10.8799 21.5014V22.8903C10.4868 24.2007 5.80891 26.3234 1.60271 28.0269C1.24891 28.171 1 28.5379 1 28.9441V32.4034C1 32.9407 1.41926 33.3862 1.93029 33.3862H26.2502C26.7612 33.3862 27.1806 32.9407 27.1806 32.4034V28.9441C27.1806 28.5379 26.9447 28.171 26.5778 28.0269Z" stroke="#0B2343" stroke-miterlimit="10" stroke-linecap="round" stroke-linejoin="round"/>
<path d="M31.138 33.3993H38.2662C38.6724 33.3993 39 33.0717 39 32.6524V30.0448C39 29.7303 38.8164 29.4551 38.5282 29.3503C35.1999 28.0662 31.5048 26.4676 31.2034 25.4717V24.4234C31.8979 23.7158 32.4352 22.7331 32.7628 21.58C33.5359 21.0427 33.7324 19.9158 33.0904 19.1296V16.7972C33.0904 14.3862 31.7538 12.7352 28.6745 12.7352C25.6869 12.7352 24.2587 14.3862 24.2587 16.7972V19.1296C23.6166 19.9158 23.8132 21.0427 24.5863 21.58C24.9138 22.7331 25.451 23.7158 26.1455 24.4234" stroke="#0B2343" stroke-miterlimit="10" stroke-linecap="round" stroke-linejoin="round"/>
</svg>
