<svg viewBox="0 0 20 20" fill="none" xmlns="http://www.w3.org/2000/svg">
<rect fill="white"/>
<g clip-path="url(#clip0_4893_62144)">
<path d="M8.50305 11.2156L8.74257 11.9102L9.08988 12.8923H10.515L9.6767 10.7246C9.30544 10.9043 8.91024 11.0719 8.50305 11.2156Z" fill="#002E1A"/>
<path d="M11.8922 8.04186C11.0898 8.48497 10.2635 9.10773 9.28147 9.73048C8.93416 9.94605 8.57488 10.1616 8.19165 10.3652C7.18566 10.8922 6.00003 11.3712 4.52698 11.6706V11.7664C9.20961 11.5029 11.7725 9.10773 13.8324 8.16162C16.2755 7.04785 18.024 7.34725 18.6827 7.44306V7.35922C18.6827 7.35922 17.6048 7.01192 16.0959 7.01192C14.8623 6.99994 13.3533 7.22749 11.8922 8.04186Z" fill="#3CB54A"/>
<path d="M0 7.71851H1.30539V10.7604C1.30539 11.6107 1.65269 11.9101 2.23952 11.9101C2.5988 11.9101 2.82635 11.8742 3.05389 11.8383V7.71851H4.35928V12.7245C3.91617 12.8562 2.8982 12.988 2.23952 12.988C1.04192 12.988 0 12.5209 0 11.0359V7.71851Z" fill="#002E1A"/>
<path d="M17.4132 12.9041H16.1078V7.75442C16.5389 7.68256 17.2216 7.62268 17.7964 7.62268C19.0778 7.62268 20 8.22148 20 9.53885C20 10.8921 18.9581 11.3951 17.8683 11.3951C17.7126 11.3951 17.509 11.3832 17.4012 11.3832V12.9041H17.4132ZM17.4132 10.2694C17.4731 10.2814 17.6527 10.2814 17.8084 10.2814C18.3353 10.2814 18.6946 10.0658 18.6946 9.52687C18.6946 8.97597 18.2755 8.77238 17.8084 8.77238C17.7006 8.77238 17.521 8.78436 17.4132 8.79633V10.2694Z" fill="#002E1A"/>
<path d="M9.2814 9.71851C8.93409 9.93407 8.57481 10.1496 8.19158 10.3532L7.71254 9.01192L6.28739 12.9041H4.92212L6.93409 7.71851H8.49098L9.2814 9.71851Z" fill="#002E1A"/>
<path d="M13.449 12.9041H12.1556V8.85623H10.5988V7.71851H14.994V8.85623H13.449V12.9041Z" fill="#002E1A"/>
</g>
<defs>
<clipPath id="clip0_4893_62144">
<rect width="20" height="5.98802" fill="white" transform="translate(0 7)"/>
</clipPath>
</defs>
</svg>
