<svg width="40" height="40" viewBox="0 0 40 40" fill="none" xmlns="http://www.w3.org/2000/svg">
<path d="M20.0092 7V9.10308" stroke="#0B2343" stroke-linecap="round" stroke-linejoin="round"/>
<path d="M20.0092 23.1265V30.3476" stroke="#0B2343" stroke-linecap="round" stroke-linejoin="round"/>
<path d="M25.1646 30.3479C25.1646 31.7717 24.0107 32.9256 22.5869 32.9256C21.1632 32.9256 20.0092 31.7717 20.0092 30.3479" stroke="#0B2343" stroke-linecap="round" stroke-linejoin="round"/>
<path d="M10.2942 18.4275C11.718 18.4275 12.9277 19.3488 13.365 20.6237H13.728C14.1653 19.3488 15.3751 18.4275 16.7989 18.4275C18.2226 18.4275 19.4323 19.3488 19.8697 20.6237H20.1023C20.5397 19.3488 21.7494 18.4275 23.1732 18.4275C24.597 18.4275 25.8067 19.3488 26.2441 20.6237H26.607C27.0444 19.3488 28.2541 18.4275 29.6778 18.4275C31.1016 18.4275 32.3114 19.3488 32.7487 20.6237H33C33 14.2586 27.1839 9.10327 19.9999 9.10327C12.8253 9.10327 7 14.2586 7 20.6237H7.17687C7.66076 19.3395 8.87047 18.4275 10.2942 18.4275Z" stroke="#0B2343" stroke-linecap="round" stroke-linejoin="round"/>
</svg>
