<?xml version="1.0" encoding="utf-8"?>
<!-- Generator: Adobe Illustrator 27.1.1, SVG Export Plug-In . SVG Version: 6.00 Build 0)  -->
<svg version="1.1" id="Layer_1" xmlns="http://www.w3.org/2000/svg" xmlns:xlink="http://www.w3.org/1999/xlink" x="0px" y="0px"
	 viewBox="0 0 9 12" style="enable-background:new 0 0 9 12;" xml:space="preserve">
<style type="text/css">
	.st0{fill-rule:evenodd;clip-rule:evenodd;fill:#0000FF;}
</style>
<path class="st0" d="M7.7,4.8H7.1c0,0,0,0,0,0V2.6c0-1.4-1.2-2.4-2.6-2.4c-1.3,0-2.6,1.1-2.6,2.4v2.3c0,0,0,0,0,0H1.3
	c-0.6,0-1.1,0.5-1.1,1.1l0.5,4.9c0,0.6,0.5,1.1,1.1,1.1h5.5c0.6,0,1.1-0.5,1.1-1.1l0.5-4.9C8.8,5.3,8.3,4.8,7.7,4.8z M5,9.9H4
	L3.8,8.2c0-0.4,0.3-0.7,0.7-0.7s0.7,0.3,0.7,0.7L5,9.9z M6.3,4.8C6.3,4.8,6.3,4.8,6.3,4.8l-3.5,0c0,0,0,0,0,0V2.6
	c0-0.9,0.8-1.6,1.8-1.6c1,0,1.8,0.8,1.8,1.6V4.8z"/>
</svg>
