<?xml version="1.0" encoding="utf-8"?>
<!-- Generator: Adobe Illustrator 26.0.2, SVG Export Plug-In . SVG Version: 6.00 Build 0)  -->
<svg version="1.1" id="Layer_1" xmlns="http://www.w3.org/2000/svg" xmlns:xlink="http://www.w3.org/1999/xlink" x="0px" y="0px"
	 viewBox="0 0 51 51" style="enable-background:new 0 0 51 51;" xml:space="preserve">
<style type="text/css">
	.st0{fill:#53448F;}
	.st1{fill:none;stroke:#DFD9EF;stroke-width:0.85;}
	.st2{fill-rule:evenodd;clip-rule:evenodd;fill:#FFFFFF;}
	.st3{fill:#48A83E;}
	.st4{clip-path:url(#SVGID_00000090977794657714890960000010737622782746946985_);}
	.st5{fill:#FFFFFF;}
</style>
<path class="st0" d="M24,0.4L24,0.4C37,0.4,47.6,11,47.6,24l0,0C47.6,37,37,47.6,24,47.6l0,0C11,47.6,0.4,37,0.4,24l0,0
	C0.4,11,11,0.4,24,0.4z"/>
<path class="st1" d="M24,0.4L24,0.4C37,0.4,47.6,11,47.6,24l0,0C47.6,37,37,47.6,24,47.6l0,0C11,47.6,0.4,37,0.4,24l0,0
	C0.4,11,11,0.4,24,0.4z"/>
<path class="st2" d="M24.3,12.1c0.3,0,0.5,0.1,0.7,0.3l9.2,9.2c0.4,0.4,0.4,1,0,1.4c-0.4,0.4-1,0.4-1.4,0l-7.5-7.5l0,19.9
	c0,0.5-0.4,1-1,1c-0.5,0-1-0.4-1-1l0-19.9l-7.5,7.5c-0.4,0.4-1,0.4-1.4,0c-0.4-0.4-0.4-1,0-1.4l9.2-9.2C23.8,12.2,24,12.1,24.3,12.1
	z"/>
<path class="st3" d="M41,30.8L41,30.8c5.5,0,10,4.5,10,10l0,0c0,5.5-4.5,10-10,10l0,0c-5.5,0-10-4.5-10-10l0,0
	C31,35.2,35.5,30.8,41,30.8z"/>
<g>
	<defs>
		<rect id="SVGID_1_" x="35.9" y="36.4" width="10.4" height="9"/>
	</defs>
	<clipPath id="SVGID_00000075145399686810929140000009347970739609734331_">
		<use xlink:href="#SVGID_1_"  style="overflow:visible;"/>
	</clipPath>
	<g style="clip-path:url(#SVGID_00000075145399686810929140000009347970739609734331_);">
		<path class="st5" d="M39.6,45.4l-3.8-4.1l1.6-1.7l2.2,2.4l5-5.4l1.6,1.7L39.6,45.4z"/>
	</g>
</g>
</svg>
