<svg width="25" height="25" viewBox="0 0 25 25" fill="none" xmlns="http://www.w3.org/2000/svg">
<g clip-path="url(#clip0_3202_646)">
<g clip-path="url(#clip1_3202_646)">
<path d="M12.6569 1.74483C12.8678 1.74483 13.0694 1.83124 13.2144 1.98348L18.6148 7.64103C19.0828 8.13067 18.7352 8.94535 18.0573 8.94535L15.2285 8.94535L15.2285 14.8601C15.2285 15.5688 14.6514 16.1459 13.9427 16.1459L11.3711 16.1459C10.6624 16.1459 10.0853 15.5688 10.0853 14.8601L10.0853 8.94535L7.2565 8.94535C6.57863 8.94535 6.23094 8.13066 6.69898 7.64103L12.0994 1.98348C12.2444 1.83124 12.446 1.74483 12.6569 1.74483Z" fill="#0B2343"/>
<path d="M23.1999 22.3177H2.11263C1.11999 22.3177 0.3125 21.5102 0.3125 20.5176V20.0033C0.3125 19.0106 1.11999 18.2031 2.11263 18.2031H23.1999C24.1925 18.2031 25 19.0106 25 20.0033V20.5176C25 21.5102 24.1925 22.3177 23.1999 22.3177Z" fill="#0B2343"/>
</g>
</g>
<defs>
<clipPath id="clip0_3202_646">
<rect width="25" height="25" fill="white"/>
</clipPath>
<clipPath id="clip1_3202_646">
<rect width="24.6875" height="24.6875" fill="white" transform="translate(0.3125 -0.3125)"/>
</clipPath>
</defs>
</svg>
