<svg width="40" height="40" viewBox="0 0 40 40" fill="none" xmlns="http://www.w3.org/2000/svg">
<path d="M27.8256 12.125H23.4651V16.8125H25.0349V19.625L21.0233 20.9375V9.6875H22.9419L20.5 5L17.8837 9.6875H19.8023V24.5L15.7907 22.4375V19.4375C16.6628 19.0625 17.3605 18.3125 17.3605 17.1875C17.3605 15.875 16.314 14.75 15.2674 14.75C14.2209 14.75 13 15.875 13 17.1875C13 18.3125 13.6977 19.0625 14.5698 19.4375V23.1875L19.8023 26V27.5C18.2326 27.875 17.0116 29.375 17.0116 31.25C17.0116 33.3125 18.5814 35 20.5 35C22.4186 35 23.9884 33.3125 23.9884 31.25C23.9884 29.375 22.7674 27.875 21.1977 27.5V22.4375L26.4302 20.5625V16.8125H28V12.125H27.8256Z" fill="#0B2343"/>
</svg>
