<svg width="40" height="40" viewBox="0 0 40 40" fill="none" xmlns="http://www.w3.org/2000/svg">
<path d="M22.69 31.76C22.69 33.17 21.55 34.3101 20.14 34.3101C18.73 34.3101 17.59 33.17 17.59 31.76C17.59 30.35 18.73 29.21 20.14 29.21C21.54 29.21 22.69 30.35 22.69 31.76Z" stroke="#0B2343" stroke-linecap="round" stroke-linejoin="round"/>
<path d="M20.14 29.21L20.13 6" stroke="#0B2343" stroke-linecap="round" stroke-linejoin="round"/>
<path d="M29.22 12.75V16.0601L20.17 21.1599" stroke="#0B2343" stroke-linecap="round" stroke-linejoin="round"/>
<path d="M11.27 17.01V20.1499L20.12 26.2" stroke="#0B2343" stroke-linecap="round" stroke-linejoin="round"/>
<path d="M17.57 9.15991L20.13 6L22.7 9.15991" stroke="#0B2343" stroke-miterlimit="10" stroke-linecap="round" stroke-linejoin="round"/>
<path d="M12.56 15.74C12.56 16.44 11.99 17.02 11.28 17.02C10.58 17.02 10 16.45 10 15.74C10 15.03 10.57 14.46 11.28 14.46C11.99 14.46 12.56 15.03 12.56 15.74Z" stroke="#0B2343" stroke-linecap="round" stroke-linejoin="round"/>
<path d="M30.23 10.75H28.23V12.75H30.23V10.75Z" stroke="#0B2343" stroke-linecap="round" stroke-linejoin="round"/>
</svg>
