<svg width="25" height="27" viewBox="0 0 25 27" fill="none" xmlns="http://www.w3.org/2000/svg">
<path d="M12.4398 13.2233C15.2347 13.2233 17.5006 10.4514 17.5006 7.0321C17.5006 3.61271 16.7567 0.84082 12.4398 0.84082C8.12287 0.84082 7.37878 3.61271 7.37878 7.0321C7.37878 10.4514 9.64471 13.2233 12.4398 13.2233Z" fill="#0B2343"/>
<path d="M2.88089 22.6767C2.88002 22.4682 2.87915 22.6179 2.88089 22.6767V22.6767Z" fill="#0B2343"/>
<path d="M21.9984 22.8386C22.0011 22.7816 21.9993 22.4427 21.9984 22.8386V22.8386Z" fill="#0B2343"/>
<path d="M21.9873 22.4262C21.8936 16.4697 21.1212 14.7724 15.2107 13.698C15.2107 13.698 14.3788 14.7658 12.4395 14.7658C10.5003 14.7658 9.6682 13.698 9.6682 13.698C3.82221 14.7607 3.00286 16.4328 2.89512 22.2327C2.88629 22.7063 2.8822 22.7312 2.88062 22.6762C2.88097 22.7792 2.88141 22.9698 2.88141 23.302C2.88141 23.302 4.28855 26.1591 12.4395 26.1591C20.5904 26.1591 21.9977 23.302 21.9977 23.302C21.9977 23.0886 21.9978 22.9401 21.998 22.8391C21.9965 22.8731 21.9933 22.8072 21.9873 22.4262Z" fill="#0B2343"/>
</svg>
