<svg width="40" height="40" viewBox="0 0 40 40" fill="none" xmlns="http://www.w3.org/2000/svg">
<path d="M14.72 17.39C14.73 17.39 14.73 17.39 14.74 17.39C14.97 20.5 17.4199 23.62 20.4199 23.62C23.4199 23.62 25.87 20.5 26.1 17.39C26.11 17.39 26.11 17.39 26.12 17.39C27.32 17.39 27.67 15.65 26.57 15.13C26.8 14.43 26.9199 13.68 26.9199 12.9C26.9199 9.09 24.0099 6 20.4199 6C16.8299 6 13.9199 9.09 13.9199 12.9C13.9199 13.68 14.04 14.43 14.27 15.13C13.17 15.65 13.52 17.39 14.72 17.39Z" stroke="#0B2343" stroke-miterlimit="10" stroke-linecap="round" stroke-linejoin="round"/>
<path d="M34.6599 31.42C31.9999 28.84 24.47 26.1 24.38 26.15C22.18 27.33 18.66 27.33 16.46 26.15C16.37 26.1 8.89993 28.78 6.17993 31.42C6.05993 31.53 6 31.69 6 31.85V34.02C6 34.35 6.26999 34.63 6.60999 34.63H34.25C34.58 34.63 34.86 34.36 34.86 34.02V31.85C34.84 31.69 34.7799 31.54 34.6599 31.42Z" stroke="#0B2343" stroke-miterlimit="10" stroke-linecap="round" stroke-linejoin="round"/>
</svg>
