<svg viewBox="0 0 16 16" fill="none" xmlns="http://www.w3.org/2000/svg">
<path d="M7.9943 0.640015C6.05753 0.640015 4.4743 2.22324 4.4743 4.16001C4.4743 6.09679 6.05753 7.68001 7.9943 7.68001C9.93108 7.68001 11.5143 6.09679 11.5143 4.16001C11.5143 2.22324 9.93108 0.640015 7.9943 0.640015Z" fill="black"/>
<path d="M14.054 11.2481C13.9616 11.0171 13.8384 10.8015 13.6998 10.6012C12.9913 9.5539 11.8978 8.86081 10.6656 8.69139C10.5116 8.676 10.3422 8.70678 10.2189 8.7992C9.57205 9.27667 8.80196 9.52309 8.00104 9.52309C7.20011 9.52309 6.43003 9.27667 5.78314 8.7992C5.65991 8.70678 5.49049 8.66058 5.33648 8.69139C4.10432 8.86081 2.99538 9.5539 2.3023 10.6012C2.16368 10.8015 2.04045 11.0325 1.94806 11.2481C1.90187 11.3406 1.91726 11.4484 1.96345 11.5408C2.08668 11.7564 2.24068 11.9721 2.3793 12.1569C2.59492 12.4495 2.82596 12.7113 3.0878 12.9578C3.30342 13.1734 3.54985 13.3736 3.79631 13.5738C5.01305 14.4826 6.47625 14.96 7.98565 14.96C9.49504 14.96 10.9582 14.4825 12.175 13.5738C12.4214 13.389 12.6678 13.1734 12.8835 12.9578C13.1299 12.7113 13.3763 12.4495 13.592 12.1569C13.746 11.9566 13.8846 11.7564 14.0078 11.5408C14.0848 11.4484 14.1002 11.3405 14.054 11.2481Z" fill="black"/>
</svg>
