<svg width="40" height="40" viewBox="0 0 40 40" fill="none" xmlns="http://www.w3.org/2000/svg">
<path d="M14.1278 21.7501C14.1382 21.7501 14.1382 21.7501 14.1486 21.7501C14.3874 24.9794 16.9314 28.219 20.0464 28.219C23.1615 28.219 25.7054 24.9794 25.9442 21.7501C25.9546 21.7501 25.9546 21.7501 25.965 21.7501C27.211 21.7501 27.5744 19.9434 26.4323 19.4034C26.6711 18.6766 26.7957 17.8978 26.7957 17.0879C26.7957 13.1318 23.7741 9.92331 20.0464 9.92331C16.3187 9.92331 13.2971 13.1318 13.2971 17.0879C13.2971 17.8978 13.4217 18.6766 13.6606 19.4034C12.5184 19.9434 12.8818 21.7501 14.1278 21.7501Z" stroke="#0B2343" stroke-miterlimit="10" stroke-linecap="round" stroke-linejoin="round"/>
<path d="M31.3546 33.9608C28.0942 32.206 24.2315 30.8146 24.1692 30.8457C21.8848 32.071 18.2299 32.071 15.9455 30.8457C15.8832 30.8146 11.9686 32.1956 8.69781 33.9815" stroke="#0B2343" stroke-miterlimit="10" stroke-linecap="round" stroke-linejoin="round"/>
<path d="M20 38C29.9411 38 38 29.9411 38 20C38 10.0589 29.9411 2 20 2C10.0589 2 2 10.0589 2 20C2 29.9411 10.0589 38 20 38Z" stroke="#0B2343" stroke-miterlimit="10" stroke-linecap="round" stroke-linejoin="round"/>
</svg>
