<svg width="25" height="25" viewBox="0 0 25 25" fill="none" xmlns="http://www.w3.org/2000/svg">
<path d="M12.4911 1.00006C9.46487 1.00006 6.99109 3.47385 6.99109 6.50006C6.99109 9.52628 9.46487 12.0001 12.4911 12.0001C15.5173 12.0001 17.9911 9.52628 17.9911 6.50006C17.9911 3.47385 15.5173 1.00006 12.4911 1.00006Z" fill="#0B2343"/>
<path d="M21.9594 17.5753C21.815 17.2143 21.6225 16.8774 21.4059 16.5645C20.2988 14.928 18.5902 13.8451 16.665 13.5803C16.4243 13.5563 16.1596 13.6044 15.9671 13.7488C14.9563 14.4948 13.753 14.8799 12.5016 14.8799C11.2502 14.8799 10.0469 14.4948 9.03614 13.7488C8.84359 13.6044 8.57887 13.5322 8.33823 13.5803C6.41298 13.8451 4.68027 14.928 3.59733 16.5645C3.38074 16.8774 3.18819 17.2384 3.04383 17.5753C2.97165 17.7197 2.9957 17.8881 3.06788 18.0325C3.26042 18.3694 3.50105 18.7064 3.71764 18.9952C4.05455 19.4524 4.41555 19.8615 4.82468 20.2465C5.16158 20.5835 5.54663 20.8963 5.93171 21.2092C7.83288 22.6291 10.1191 23.3751 12.4776 23.3751C14.836 23.3751 17.1222 22.629 19.0234 21.2092C19.4084 20.9204 19.7935 20.5835 20.1304 20.2465C20.5155 19.8615 20.9005 19.4524 21.2375 18.9952C21.4781 18.6823 21.6947 18.3694 21.8872 18.0325C22.0075 17.8881 22.0316 17.7196 21.9594 17.5753Z" fill="#0B2343"/>
</svg>
