<svg viewBox="0 0 124 124" fill="none" xmlns="http://www.w3.org/2000/svg">
<circle cx="62" cy="62" r="62" fill="#E7F4F9"/>
<circle cx="62" cy="62" r="61.5" stroke="#007CC2" stroke-opacity="0.2"/>
<path fill-rule="evenodd" clip-rule="evenodd" d="M39.2663 32.1738C41.572 29.815 44.9641 28.5583 49.2936 28.5583C53.7136 28.5583 57.1078 29.8108 59.3883 32.1815C61.6591 34.5421 62.6366 37.8157 62.6366 41.4787V47.6976C64.4025 50.3642 63.8849 53.8993 61.6005 55.8876C60.7289 58.9645 59.3452 61.6825 57.5372 63.746V65.9531C57.5963 66.0591 57.7069 66.2196 57.9064 66.4344C58.2017 66.7525 58.6263 67.1202 59.1868 67.5316C60.3078 68.3542 61.8555 69.2669 63.7033 70.229C67.3904 72.1488 72.1155 74.1854 76.6386 76.0116C77.9758 76.5401 78.7793 77.85 78.7793 79.2297V86.6672C78.7793 87.408 78.1787 88.0086 77.4378 88.0086C76.6969 88.0086 76.0963 87.408 76.0963 86.6672V79.2297C76.0963 78.8649 75.8877 78.5991 75.6511 78.5062L75.6394 78.5016L75.6395 78.5015C71.0927 76.6659 66.2696 74.5901 62.4643 72.6087C60.5653 71.6199 58.8802 70.6345 57.5995 69.6945C56.9592 69.2247 56.3907 68.745 55.9403 68.2599C55.5023 67.7882 55.1004 67.2314 54.9108 66.5995C54.8733 66.4744 54.8543 66.3446 54.8543 66.214V63.2277C54.8543 62.8854 54.9851 62.556 55.2201 62.3071C56.921 60.5046 58.295 57.9027 59.1249 54.7705C59.2034 54.4742 59.3811 54.2136 59.6283 54.0323C61.1234 52.9359 61.5261 50.6152 60.2348 48.9491C60.0525 48.7139 59.9536 48.4249 59.9536 48.1273V41.4787C59.9536 38.2676 59.0999 35.7517 57.4547 34.0414C55.8192 32.3413 53.2127 31.2413 49.2936 31.2413C45.4814 31.2413 42.8586 32.337 41.1849 34.0492C39.5047 35.768 38.6054 38.2876 38.6054 41.4787V48.1273C38.6054 48.4249 38.5065 48.7139 38.3243 48.9491C37.0401 50.606 37.4528 52.934 38.9373 54.0374C39.181 54.2186 39.3561 54.477 39.4339 54.7705C40.2601 57.889 41.6589 60.4716 43.3732 62.3139C43.6042 62.5621 43.7327 62.8887 43.7327 63.2277V66.214C43.7327 66.3446 43.7136 66.4744 43.6761 66.5995C43.4863 67.2322 43.0832 67.7893 42.6446 68.2609C42.1934 68.7459 41.6238 69.2255 40.9825 69.6952C39.6997 70.635 38.0122 71.6203 36.1116 72.6089C32.3033 74.59 27.4805 76.6657 22.9488 78.501L22.4453 77.2576L22.9514 78.4999C22.7085 78.5989 22.4909 78.8879 22.4909 79.2297V86.6672C22.4909 87.408 21.8903 88.0086 21.1494 88.0086C20.4086 88.0086 19.808 87.408 19.808 86.6672V79.2297C19.808 77.8247 20.6607 76.5361 21.9391 76.0153L21.9417 76.0142C26.4534 74.1871 31.181 72.1496 34.8735 70.2288C36.7233 69.2665 38.2738 68.3537 39.3971 67.5309C39.9588 67.1194 40.3843 66.7516 40.6802 66.4335C40.8799 66.2188 40.9907 66.0585 41.0497 65.9528V63.7419C39.2459 61.667 37.8346 58.9739 36.9572 55.8833C34.7064 53.9011 34.1534 50.3714 35.9225 47.6977V41.4787C35.9225 37.7957 36.9671 34.5258 39.2663 32.1738Z" fill="#007CC2"/>
<path fill-rule="evenodd" clip-rule="evenodd" d="M72.5562 45.8441C74.4455 43.9972 77.1959 43.0391 80.6498 43.0391C84.1919 43.0391 86.9523 43.9919 88.8248 45.8515C90.6969 47.7109 91.4853 50.282 91.4853 53.114V57.6901C92.8986 59.8195 92.4362 62.6103 90.6037 64.1895C89.9038 66.458 88.8299 68.4712 87.4283 70.0397V71.4655C87.4663 71.5186 87.5271 71.5945 87.622 71.693C87.835 71.9141 88.1524 72.1797 88.5862 72.4848C89.4533 73.0945 90.6617 73.7763 92.1176 74.4999C95.0189 75.9419 98.7424 77.4718 102.308 78.8476C103.483 79.2817 104.191 80.3975 104.191 81.5963V87.2026C104.191 87.9434 103.59 88.544 102.85 88.544C102.109 88.544 101.508 87.9434 101.508 87.2026V81.5963C101.508 81.5204 101.487 81.4661 101.463 81.4319C101.441 81.3991 101.413 81.3771 101.377 81.3638L101.352 81.3546C97.7648 79.9705 93.9426 78.403 90.9235 76.9024C89.4178 76.154 88.0713 75.4026 87.0429 74.6794C86.529 74.318 86.0635 73.9422 85.6901 73.5547C85.3309 73.1819 84.9722 72.7122 84.8029 72.1526C84.7648 72.0266 84.7454 71.8957 84.7454 71.7641V69.5103C84.7454 69.1589 84.8833 68.8215 85.1295 68.5706C86.4345 67.241 87.4929 65.3404 88.1491 63.0303C88.2339 62.732 88.4194 62.4722 88.674 62.2953C89.7075 61.5771 89.9805 60.0495 89.1048 58.9772C88.9092 58.7377 88.8024 58.4379 88.8024 58.1287V53.114C88.8024 50.7622 88.154 48.9666 86.9342 47.7552C85.7147 46.544 83.7282 45.722 80.6498 45.722C77.6803 45.722 75.6836 46.5387 74.4317 47.7626C73.1818 48.9845 72.4971 50.7852 72.4971 53.114V58.1287C72.4971 58.4379 72.3903 58.7377 72.1947 58.9772C71.319 60.0495 71.592 61.5771 72.6255 62.2953C72.8802 62.4722 73.0656 62.732 73.1504 63.0303C73.8067 65.3405 74.8647 67.241 76.1697 68.5706C76.6887 69.0994 76.6807 69.9487 76.152 70.4677C75.6232 70.9866 74.7739 70.9787 74.255 70.4499C72.6644 68.8294 71.4583 66.6609 70.6958 64.1895C68.8633 62.6103 68.4009 59.8195 69.8142 57.6901V53.114C69.8142 50.259 70.6649 47.693 72.5562 45.8441Z" fill="#007CC2"/>
<path fill-rule="evenodd" clip-rule="evenodd" d="M108.001 124C116.836 124 124 116.839 124 108.004C124 99.1711 116.836 92 108.001 92C99.1664 92 92 99.1711 92 108.004C92 116.839 99.1664 124 108.001 124Z" fill="#007CC2"/>
<path d="M109.466 112.858V115.418H106.48V112.858H109.466ZM109.466 100.229V111.066H106.48V100.229H109.466Z" fill="white"/>
</svg>
