<svg width="40" height="40" viewBox="0 0 40 40" fill="none" xmlns="http://www.w3.org/2000/svg">
<path d="M15.1699 24.68C9.80992 25.41 6 27.25 6 29.42C6 32.23 12.3899 34.5 20.2699 34.5C28.1499 34.5 34.5399 32.22 34.5399 29.42C34.5399 27.28 30.7999 25.45 25.5299 24.71" stroke="#0B2343" stroke-linecap="round" stroke-linejoin="round"/>
<path d="M20.2699 30.46V21.19" stroke="#0B2343" stroke-miterlimit="10" stroke-linecap="round" stroke-linejoin="round"/>
<path d="M21.83 7.56C21.83 8.42 21.1299 9.62001 20.2699 9.62001C19.4099 9.62001 18.71 8.42 18.71 7.56C18.71 6.7 19.4099 6 20.2699 6C21.1299 6 21.83 6.7 21.83 7.56Z" stroke="#0B2343" stroke-miterlimit="10" stroke-linecap="round" stroke-linejoin="round"/>
<path d="M18.2799 30.46L17.6699 19.5C17.6599 19.28 16.9499 19.57 16.9399 19.36C16.6499 11.61 17.2899 11.11 17.3699 11.05C17.4599 11.03 18.1599 11.01 18.3699 10.99C18.6499 10.97 18.8999 11.15 19.0299 11.4C19.4899 12.3 21.0498 12.3 21.5198 11.4C21.6498 11.15 21.8999 10.97 22.1799 10.99C22.3899 11 23.0899 11.02 23.1799 11.05C23.2499 11.11 23.8999 11.6 23.6099 19.36C23.5999 19.57 22.89 19.28 22.88 19.5L22.2698 30.46" stroke="#0B2343" stroke-miterlimit="10" stroke-linecap="round" stroke-linejoin="round"/>
</svg>
