<svg width="40" height="40" viewBox="0 0 40 40" fill="none" xmlns="http://www.w3.org/2000/svg">
<path d="M22.98 6V11H27.98" stroke="#0B2343" stroke-miterlimit="10" stroke-linecap="round" stroke-linejoin="round"/>
<path d="M27.98 32V33.98C27.98 34.53 27.54 34.98 26.99 34.98H7.98C7.43 34.98 7 34.53 7 33.98V7.01001C7 6.46001 7.44 6 7.98 6H22.98C23.24 6 23.36 6.11004 23.54 6.29004L27.68 10.38C27.87 10.57 27.97 10.74 27.97 11V14" stroke="#0B2343" stroke-miterlimit="10" stroke-linecap="round" stroke-linejoin="round"/>
<path d="M11.01 25.96H18.03" stroke="#0B2343" stroke-linecap="round" stroke-linejoin="round"/>
<path d="M11.01 21.95H18.03" stroke="#0B2343" stroke-linecap="round" stroke-linejoin="round"/>
<path d="M11.01 17.95H18.03" stroke="#0B2343" stroke-linecap="round" stroke-linejoin="round"/>
<path d="M33.58 27.23C31.51 26.38 29.22 25.33 29.02 24.67V23.98C29.45 23.51 29.79 22.87 29.99 22.1C30.47 21.74 30.59 21 30.19 20.48V18.94C30.19 17.35 29.35 16.26 27.45 16.26C25.59 16.26 24.71 17.35 24.71 18.94V20.48C24.31 21 24.43 21.74 24.91 22.1C25.11 22.86 25.45 23.51 25.88 23.98V24.67C25.69 25.33 23.39 26.38 21.32 27.23C21.14 27.3 21.03 27.48 21.03 27.69V29.41C21.03 29.68 21.23 29.9 21.49 29.9H33.43C33.68 29.9 33.89 29.68 33.89 29.41V27.69C33.87 27.49 33.75 27.3 33.58 27.23Z" stroke="#0B2343" stroke-miterlimit="10" stroke-linecap="round" stroke-linejoin="round"/>
</svg>
