<svg width="40" height="40" viewBox="0 0 40 40" fill="none" xmlns="http://www.w3.org/2000/svg">
<path d="M39 32C39 28.134 35.866 25 32 25C28.134 25 25 28.134 25 32C25 35.866 28.134 39 32 39C35.866 39 39 35.866 39 32Z" stroke="#0B2343" stroke-miterlimit="10" stroke-linecap="round" stroke-linejoin="round"/>
<path d="M29.6804 34.5406C30.2986 35.0761 31.2528 35.4801 31.9391 35.4801C33.0393 35.4801 33.9301 34.7012 33.9301 33.7374C33.9301 32.7736 32.976 32.3014 31.9391 31.9947C30.8633 31.6588 29.9481 31.2158 29.9481 30.252C29.9481 29.2881 30.839 28.5092 31.9391 28.5092C32.6791 28.5092 33.3265 28.8646 33.6721 29.3855" stroke="#0B2343" stroke-miterlimit="10" stroke-linecap="round" stroke-linejoin="round"/>
<path d="M31.9391 27.56V36.4342" stroke="#0B2343" stroke-miterlimit="10" stroke-linecap="round" stroke-linejoin="round"/>
<mask id="mask0_3140_790" style="mask-type:alpha" maskUnits="userSpaceOnUse" x="1" y="1" width="38" height="38">
<path fill-rule="evenodd" clip-rule="evenodd" d="M37.8452 26.538C38.5923 24.4995 39 22.2974 39 20C39 9.50659 30.4934 1 20 1C9.50659 1 1 9.50659 1 20C1 30.4934 9.50659 39 20 39C22.2974 39 24.4995 38.5923 26.538 37.8452C24.9762 36.3852 24 34.3066 24 32C24 27.5817 27.5817 24 32 24C34.3066 24 36.3852 24.9762 37.8452 26.538Z" fill="#C4C4C4"/>
</mask>
<g mask="url(#mask0_3140_790)">
<path d="M14.1279 21.7501C14.1383 21.7501 14.1383 21.7501 14.1487 21.7501C14.3875 24.9794 16.9315 28.219 20.0465 28.219C23.1616 28.219 25.7055 24.9794 25.9444 21.7501C25.9547 21.7501 25.9547 21.7501 25.9651 21.7501C27.2111 21.7501 27.5746 19.9434 26.4324 19.4034C26.6712 18.6766 26.7958 17.8978 26.7958 17.0879C26.7958 13.1318 23.7742 9.92331 20.0465 9.92331C16.3189 9.92331 13.2973 13.1318 13.2973 17.0879C13.2973 17.8978 13.4219 18.6766 13.6607 19.4034C12.5185 19.9434 12.8819 21.7501 14.1279 21.7501Z" stroke="#0B2343" stroke-miterlimit="10" stroke-linecap="round" stroke-linejoin="round"/>
<path d="M31.3545 33.9608C28.0941 32.206 24.2314 30.8146 24.1691 30.8458C21.8848 32.071 18.2298 32.071 15.9454 30.8458C15.8831 30.8146 11.9686 32.1956 8.69775 33.9816" stroke="#0B2343" stroke-miterlimit="10" stroke-linecap="round" stroke-linejoin="round"/>
<path d="M20 38C29.9411 38 38 29.9411 38 20C38 10.0589 29.9411 2 20 2C10.0589 2 2 10.0589 2 20C2 29.9411 10.0589 38 20 38Z" stroke="#0B2343" stroke-miterlimit="10" stroke-linecap="round" stroke-linejoin="round"/>
<line x1="32.5035" y1="33.2107" x2="6.78922" y2="7.49646" stroke="#0B2343"/>
</g>
</svg>
