<svg width="40" height="40" viewBox="0 0 40 40" fill="none" xmlns="http://www.w3.org/2000/svg">
<path d="M23.73 34.72H34.3201C34.6601 34.72 34.9301 34.45 34.9301 34.11V31.94C34.9301 31.78 34.86 31.62 34.75 31.5C32.09 28.91 24.73 26.14 24.73 26.14C24.72 26.14 24.7101 26.14 24.7001 26.14" stroke="#0B2343" stroke-miterlimit="10" stroke-linecap="round" stroke-linejoin="round"/>
<path d="M16.23 26.15C16.22 26.15 16.2101 26.15 16.2001 26.15C16.2001 26.15 8.90005 28.86 6.18005 31.51C6.06005 31.63 6 31.78 6 31.95V34.12C6 34.46 6.26999 34.73 6.60999 34.73H17.13" stroke="#0B2343" stroke-miterlimit="10" stroke-linecap="round" stroke-linejoin="round"/>
<path d="M23.9201 24.2C23.9901 24.06 23.96 22.3 23.96 22.14C25.2 20.94 26.0301 19.19 26.1601 17.43C26.1701 17.43 26.1701 17.43 26.1801 17.43C27.3901 17.43 27.73 15.68 26.64 15.16C26.87 14.46 26.99 13.71 26.99 12.92C26.99 9.1 24.07 6 20.47 6C16.87 6 13.9501 9.1 13.9501 12.92C13.9501 13.7 14.0701 14.45 14.3001 15.16C13.2001 15.68 13.55 17.43 14.76 17.43C14.77 17.43 14.7701 17.43 14.7801 17.43C14.9101 19.16 15.7201 20.88 16.9301 22.09C16.9301 22.25 16.9 24.06 16.97 24.2" stroke="#0B2343" stroke-miterlimit="10" stroke-linecap="round" stroke-linejoin="round"/>
<path d="M22.6099 26.93C23.3099 27.26 22.4599 29.02 21.9599 29.91C20.9799 29.76 19.9599 29.78 18.9799 29.94C18.4899 29.05 17.7 27.41 18.32 26.93C18.31 26.93 20.1499 25.78 22.6099 26.93Z" stroke="#0B2343" stroke-miterlimit="10" stroke-linecap="round" stroke-linejoin="round"/>
<path d="M21.62 31.72L21.65 31.99L21.96 34.75" stroke="#0B2343" stroke-linecap="round" stroke-linejoin="round"/>
<path d="M18.96 34.75L19.3 31.74" stroke="#0B2343" stroke-linecap="round" stroke-linejoin="round"/>
</svg>
