<svg width="40" height="40" viewBox="0 0 40 40" fill="none" xmlns="http://www.w3.org/2000/svg">
<path d="M25.97 6V11H30.97" stroke="#0B2343" stroke-miterlimit="10" stroke-linecap="round" stroke-linejoin="round"/>
<path d="M30.97 33.98C30.97 34.53 30.53 34.98 29.98 34.98H10.98C10.43 34.98 10 34.53 10 33.98V7.01001C10 6.46001 10.44 6 10.98 6H25.98C26.24 6 26.36 6.11004 26.54 6.29004L30.68 10.38C30.87 10.57 30.97 10.74 30.97 11V33.98V33.98Z" stroke="#0B2343" stroke-miterlimit="10" stroke-linecap="round" stroke-linejoin="round"/>
<path d="M15.03 29.96H25.87" stroke="#0B2343" stroke-linecap="round" stroke-linejoin="round"/>
<path d="M25.62 23.72C23.88 22.98 21.94 22.06 21.78 21.48V20.88C22.14 20.47 22.43 19.9001 22.6 19.2401C23 18.9301 23.11 18.28 22.77 17.82V16.47C22.77 15.08 22.07 14.12 20.46 14.12C18.89 14.12 18.14 15.07 18.14 16.47V17.82C17.81 18.27 17.9 18.92 18.31 19.23C18.48 19.9 18.76 20.46 19.13 20.87V21.47C18.97 22.04 17.03 22.97 15.29 23.71C15.14 23.77 15.04 23.93 15.04 24.11V25.62C15.04 25.86 15.21 26.05 15.42 26.05H25.49C25.7 26.05 25.87 25.86 25.87 25.62V24.11C25.87 23.95 25.77 23.79 25.62 23.72Z" stroke="#0B2343" stroke-miterlimit="10" stroke-linecap="round" stroke-linejoin="round"/>
</svg>
