<svg width="40" height="40" viewBox="0 0 40 40" fill="none" xmlns="http://www.w3.org/2000/svg">
<path d="M28.38 16.4L25.8201 13.85L23.27 11.29L9.73999 24.8201L14.85 29.92L28.38 16.4Z" stroke="#0B2343" stroke-linecap="round" stroke-linejoin="round"/>
<path d="M32.67 7L25.8201 13.85" stroke="#0B2343" stroke-linecap="round" stroke-linejoin="round"/>
<path d="M20.39 14.1801L21.66 15.4601" stroke="#0B2343" stroke-linecap="round" stroke-linejoin="round"/>
<path d="M18.64 15.9301L21.1901 18.48" stroke="#0B2343" stroke-linecap="round" stroke-linejoin="round"/>
<path d="M16.89 17.67L18.17 18.9501" stroke="#0B2343" stroke-linecap="round" stroke-linejoin="round"/>
<path d="M15.14 19.42L17.7001 21.97" stroke="#0B2343" stroke-linecap="round" stroke-linejoin="round"/>
<path d="M13.4 21.17L14.67 22.4401" stroke="#0B2343" stroke-linecap="round" stroke-linejoin="round"/>
<path d="M11.65 22.91L14.2001 25.47" stroke="#0B2343" stroke-linecap="round" stroke-linejoin="round"/>
<path d="M6 28.5701L11.1 33.67" stroke="#0B2343" stroke-linecap="round" stroke-linejoin="round"/>
<path d="M11.0419 26.1417L7.29419 29.8894L9.76904 32.3643L13.5167 28.6166L11.0419 26.1417Z" stroke="#0B2343" stroke-linecap="round" stroke-linejoin="round"/>
<path d="M32.67 13.09C32.64 13.09 30.79 16.0501 30.79 17.0801C30.79 18.1201 31.63 18.9601 32.67 18.9601C33.71 18.9601 34.55 18.1201 34.55 17.0801C34.55 16.0501 32.7 13.09 32.67 13.09Z" stroke="#0B2343" stroke-miterlimit="10" stroke-linecap="round" stroke-linejoin="round"/>
</svg>
