<svg width="40" height="40" viewBox="0 0 40 40" fill="none" xmlns="http://www.w3.org/2000/svg">
<path d="M7.97205 27.4833V29.3507H9.00104V31.2561H10.4492" stroke="#0B2343" stroke-miterlimit="10" stroke-linecap="round" stroke-linejoin="round"/>
<path d="M29.4461 31.3321H31.8564V26.5686C31.8564 26.3304 31.7231 26.1304 31.5135 26.0161L27.6073 24.3202L24.873 20.1378C24.7492 19.9282 24.5301 19.8044 24.2919 19.8044L7.98158 19.7853V21.7574" stroke="#0B2343" stroke-miterlimit="10" stroke-linecap="round" stroke-linejoin="round"/>
<path d="M15.1555 31.3323H24.7398" stroke="#0B2343" stroke-miterlimit="10" stroke-linecap="round" stroke-linejoin="round"/>
<path d="M12.8023 33.6569C14.098 33.6569 15.1555 32.5993 15.1555 31.3036C15.1555 30.0079 14.098 28.9504 12.8023 28.9504C11.5066 28.9504 10.4492 30.0079 10.4492 31.3036C10.4492 32.5993 11.5066 33.6569 12.8023 33.6569Z" stroke="#0B2343" stroke-miterlimit="10" stroke-linecap="round" stroke-linejoin="round"/>
<path d="M9.5345 25.6254H7.18135" stroke="#0B2343" stroke-miterlimit="10" stroke-linecap="round" stroke-linejoin="round"/>
<path d="M6 23.7009H10.7158" stroke="#0B2343" stroke-miterlimit="10" stroke-linecap="round" stroke-linejoin="round"/>
<path d="M25.6448 25.6256H20.3287V21.7671H23.0915L25.6448 25.6256Z" stroke="#0B2343" stroke-miterlimit="10" stroke-linecap="round" stroke-linejoin="round"/>
<path d="M27.0929 33.6569C28.3886 33.6569 29.4461 32.5993 29.4461 31.3036C29.4461 30.0079 28.3886 28.9504 27.0929 28.9504C25.7972 28.9504 24.7397 30.0079 24.7397 31.3036C24.7397 32.5993 25.7972 33.6569 27.0929 33.6569Z" stroke="#0B2343" stroke-miterlimit="10" stroke-linecap="round" stroke-linejoin="round"/>
<path d="M22.8628 10.6775L19.7665 11.897C18.6423 12.3448 17.8516 11.7637 15.1364 10.7348L14.5076 10.9825L16.7561 13.0879L16.2034 13.307C15.003 13.7834 20.3667 13.5547 21.9197 13.1927L30.818 9.67728C30.818 9.67728 33.8857 8.46734 32.8282 7.88619C31.6468 7.24788 28.8458 8.31486 28.8458 8.31486L25.4161 9.66774L20.3763 7.00012L20.0333 7.13351L22.8628 10.6775Z" stroke="#0B2343" stroke-miterlimit="10" stroke-linecap="round" stroke-linejoin="round"/>
<path d="M20.3287 21.7671H12.6785V25.6256H20.3287V21.7671Z" stroke="#0B2343" stroke-miterlimit="10" stroke-linecap="round" stroke-linejoin="round"/>
</svg>
