<svg width="42" height="42" viewBox="0 0 42 42" fill="none" xmlns="http://www.w3.org/2000/svg">
<path fill-rule="evenodd" clip-rule="evenodd" d="M8.15629 22.125C7.86319 22.125 7.63109 22.3642 7.65629 22.6562C8.06688 27.415 11.5712 31.6314 16.5312 33.7188V34.6875C16.5312 34.9636 16.7551 35.1875 17.0312 35.1875H25.4062C25.6824 35.1875 25.9062 34.9636 25.9062 34.6875V33.7188C30.871 31.6329 34.3792 27.4103 34.7812 22.6562C34.8059 22.3645 34.574 22.125 34.2812 22.125H8.15629ZM8.81254 23.125H33.6562C33.06 27.3579 29.8284 31.1132 25.2188 32.9375C25.028 33.013 24.9063 33.2011 24.9062 33.4062V34.1875H17.5312V33.4062C17.5312 33.2012 17.4093 33.0131 17.2188 32.9375C12.6248 31.116 9.42794 27.3492 8.81254 23.125Z" fill="#48A83E"/>
<path fill-rule="evenodd" clip-rule="evenodd" d="M26.5312 7.37497C25.9686 7.45324 25.346 7.67445 24.6562 7.99997C24.0983 8.26331 23.5077 8.5823 22.9062 8.96872C22.3662 9.31569 21.8628 9.69147 21.375 10.0625C21.2856 10.1305 21.2622 10.1605 21.1875 10.2188C20.9942 9.92281 20.7767 9.62175 20.5625 9.34372C20.289 8.9887 20.0413 8.67655 19.7812 8.43747C19.0808 7.79341 18.3684 7.63008 17.8438 8.21872C17.648 8.34256 17.4301 8.51044 17.2188 8.87497C16.846 9.51801 16.7137 10.4983 16.7188 11.6875C16.6545 11.6749 16.6295 11.6016 16.5625 11.5938C16.0921 11.5387 15.5984 11.6035 15.125 11.75C15.0054 11.787 14.9307 11.8094 14.8438 11.8438C13.6997 11.2149 12.7171 11.0967 11.9688 11.5938C11.3256 12.0209 10.9336 12.7753 10.7188 13.7812C10.5744 14.457 10.5572 15.1448 10.5625 15.75C9.56968 16.1269 9.01919 16.7831 9.12496 17.6875C9.17598 18.1237 9.37084 18.5594 9.62496 19C9.73194 19.1855 9.8109 19.3061 9.90621 19.4375C9.56439 20.108 9.50689 20.692 9.81246 21.0625C9.90868 21.1792 9.99909 21.2399 10.0938 21.2812C10.3467 21.3919 10.6393 21.2842 10.75 21.0312C10.8607 20.7783 10.753 20.4857 10.5 20.375C10.5393 20.3922 10.5492 20.3901 10.5625 20.4062C10.5249 20.3607 10.5707 20.1733 10.9062 19.6562C11.0262 19.4715 10.9858 19.2309 10.8438 19.0625C10.7548 18.9571 10.6119 18.7481 10.4688 18.5C10.2767 18.1671 10.1577 17.8424 10.125 17.5625C10.0649 17.0485 10.3291 16.7327 11.1562 16.5312C11.39 16.4743 11.5442 16.2403 11.5312 16C11.5307 15.9908 11.5334 16.0009 11.5312 15.9375C11.5144 15.3611 11.5467 14.6593 11.6875 14C11.853 13.2252 12.1226 12.6881 12.5 12.4375C12.9414 12.1444 13.6137 12.2039 14.5938 12.8125C14.739 12.9027 14.9084 12.9179 15.0625 12.8438C15.1231 12.8146 15.2421 12.7696 15.4062 12.7188C15.7577 12.61 16.1255 12.5573 16.4375 12.5938C17.1815 12.6808 17.6115 13.2236 17.625 14.6562C17.6274 14.9074 17.8132 15.1261 18.0625 15.1562C18.2623 15.1804 18.594 15.274 18.9062 15.4062C19.6754 15.7321 19.8428 16.0974 19.1562 16.9688C18.4866 17.8167 18.2816 18.5926 18.5938 19.2188C18.8296 19.6919 19.296 19.9748 19.875 20.1562C20.6061 20.3853 20.7535 20.5132 20.875 20.9688C20.9462 21.2356 21.2332 21.3837 21.5 21.3125C21.7668 21.2413 21.9149 20.9543 21.8438 20.6875C21.729 20.2573 21.5742 19.9765 21.3125 19.75C21.3176 19.4732 21.3252 19.1779 21.4062 18.875C21.5499 18.3378 21.8039 18.042 22.1562 18C22.7366 17.9308 23.6881 18.414 25.0312 19.625C25.3022 19.8693 25.7354 19.7547 25.8438 19.4062C25.8717 19.3165 25.9434 19.154 26.0312 18.9375C26.1782 18.5753 26.332 18.2097 26.5312 17.875C27.0003 17.0869 27.5365 16.594 28.0625 16.5C28.7238 16.3818 29.502 16.8576 30.4375 18.2188C30.6014 18.4572 30.9293 18.5233 31.1562 18.3438C31.1961 18.3122 31.3045 18.2435 31.4062 18.1875C31.5221 18.1237 31.6331 18.0775 31.7188 18.0625C31.7772 18.0522 31.7812 18.0625 31.7812 18.0625C31.8216 18.1003 31.8636 18.2364 31.875 18.5C31.903 19.1466 31.7453 19.6334 31.5 20C31.3748 20.1871 31.2746 20.3084 31.2188 20.3438C30.9854 20.4913 30.9149 20.7979 31.0625 21.0312C31.2101 21.2646 31.5166 21.3351 31.75 21.1875C31.9169 21.082 32.1348 20.8748 32.3438 20.5625C32.7064 20.0205 32.9123 19.3297 32.875 18.4688C32.8317 17.4687 32.2928 16.9602 31.5312 17.0938C31.331 17.1289 31.1329 17.2077 30.9375 17.3125C30.5577 16.822 30.1604 16.4059 29.7812 16.125C30.1821 15.8791 30.4895 15.6175 30.625 15.2812C30.8378 14.7532 30.5946 14.2529 30 13.875C29.1428 13.3301 28.3304 13.0165 27.625 12.9062C27.7557 12.6907 27.8764 12.4782 28 12.25C28.2631 11.7641 28.4585 11.2646 28.625 10.8125C29.1819 9.30046 29.1155 8.11402 28.0312 7.56247C27.6078 7.34705 27.0939 7.2967 26.5312 7.37497ZM27.5625 8.46872C28.0427 8.71297 28.0897 9.37673 27.6875 10.4688C27.5391 10.8716 27.3357 11.3033 27.0938 11.75C26.8986 12.1103 26.7096 12.458 26.5 12.7812C26.3749 12.9743 26.272 13.1135 26.2188 13.1875C25.8333 13.7294 26.643 14.3211 27.0312 13.7812C27.0187 13.7989 27.2346 13.7804 27.625 13.875C28.1596 14.0045 28.8225 14.308 29.4688 14.7188C29.6926 14.861 29.729 14.8809 29.7188 14.9062C29.6809 15 29.5019 15.1621 29.25 15.3125C29.0186 15.4506 28.7735 15.5396 28.625 15.5938C28.5997 15.603 28.6166 15.6435 28.5938 15.6562C28.3539 15.6166 28.1138 15.4573 27.875 15.5C26.9947 15.6573 26.2907 16.3302 25.6875 17.3438C25.4765 17.6983 25.2819 18.0923 25.125 18.4688C24.5719 18.0197 24.0236 17.6011 23.5625 17.375C23.5288 17.3205 23.4921 17.2516 23.4375 17.1562C23.3045 16.9239 23.1865 16.6752 23.0625 16.4062C23.0215 16.3173 23.0059 16.2443 22.9688 16.1562C23.0607 16.0545 23.1264 15.9653 23.2812 15.8438C23.7982 15.4381 24.3868 15.2435 25.0312 15.375C25.3018 15.4302 25.5698 15.2706 25.625 15C25.6802 14.7294 25.4893 14.4615 25.2188 14.4062C24.2539 14.2094 23.3859 14.49 22.6562 15.0625C22.6265 15.0858 22.6219 15.1017 22.5938 15.125C22.585 15.0862 22.57 15.0382 22.5625 15C22.4062 14.2034 22.5365 13.6303 22.9688 13.3125C23.5857 12.8622 25.0345 12.0317 25.1875 11.9062C25.5914 11.5751 25.7322 11.1705 25.5938 10.6562C25.5219 10.3896 25.2354 10.2407 24.9688 10.3125C24.7021 10.3843 24.5532 10.6396 24.625 10.9062C24.6585 11.0305 24.6698 11.037 24.5625 11.125C24.4873 11.1866 23.0601 12 22.375 12.5C22.0725 12.7224 21.9242 13.0295 21.7812 13.3438L19.8125 12.25C19.5721 12.114 19.2922 12.1971 19.1562 12.4375C19.0203 12.6779 19.1034 12.989 19.3438 13.125L21.5938 14.4062C21.5928 14.6639 21.538 14.9033 21.5938 15.1875C21.6981 15.7194 21.8961 16.2796 22.1562 16.8438C22.1937 16.9249 22.2426 16.984 22.2812 17.0625C22.2041 17.0625 22.1052 16.9912 22.0312 17C21.19 17.1003 20.6753 17.7357 20.4375 18.625C20.3753 18.8577 20.3991 19.0566 20.375 19.2812C20.2978 19.2543 20.2729 19.2142 20.1875 19.1875C19.8431 19.0796 19.5874 18.9253 19.5 18.75C19.3884 18.5262 19.4839 18.1681 19.9375 17.5938C21.0741 16.1512 20.6086 15.0311 19.2812 14.4688C18.9965 14.3481 18.7711 14.2995 18.5312 14.25C18.4475 13.3213 18.1507 12.6764 17.6875 12.25C17.595 10.8928 17.7582 9.95375 18.0938 9.37497C18.2354 9.13058 18.3624 9.02205 18.4062 8.99997L18.5625 8.87497C18.6004 8.82711 18.7397 8.86197 19.0938 9.18747C19.3061 9.38276 19.5397 9.65521 19.7812 9.96872C19.9909 10.2408 20.185 10.5189 20.375 10.8125C20.4888 10.9884 20.581 11.1437 20.625 11.2188C20.7814 11.4858 21.1378 11.5425 21.375 11.3438C21.485 11.2516 21.6886 11.088 21.9688 10.875C22.4368 10.519 22.9527 10.144 23.4688 9.81247C24.0362 9.44792 24.5788 9.14927 25.0938 8.90622C26.2163 8.37643 27.0728 8.21963 27.5625 8.46872ZM13.5 14.7812C13.2261 14.7458 12.9729 14.9449 12.9375 15.2188C12.8043 16.249 12.9456 17.196 13.2188 18.0938L11.5938 17.6562C11.3273 17.5836 11.0727 17.7336 11 18C10.9273 18.2664 11.0773 18.5523 11.3438 18.625L13.7812 19.2812C14.1148 19.9094 14.4158 20.5397 14.9375 21.0938C14.9399 21.0964 15.1212 21.2172 15.125 21.2188C15.3058 21.2952 15.414 21.3526 15.6562 21.125C15.6588 21.1225 15.7796 20.9412 15.7812 20.9375C15.8276 20.8275 15.898 20.6391 16 20.375C16.1696 19.9359 16.3415 19.4791 16.5 19C16.6506 18.5447 16.7646 18.1087 16.875 17.6875C16.9728 17.3143 17.0676 16.9519 17.125 16.625C17.1727 16.353 16.9907 16.079 16.7188 16.0312C16.4468 15.9835 16.1727 16.1655 16.125 16.4375C16.0727 16.7354 15.9974 17.0582 15.9062 17.4062C15.8016 17.8056 15.6756 18.2511 15.5312 18.6875C15.4208 19.0215 15.3054 19.3391 15.1875 19.6562C14.2489 18.39 13.6935 16.9894 13.9062 15.3438C13.9417 15.0699 13.7739 14.8167 13.5 14.7812ZM28.1875 17.6875C27.5395 17.9778 27.2608 18.617 27.25 19.4375C27.2454 19.7891 27.3005 20.1351 27.375 20.5C27.4173 20.7071 27.4697 20.8704 27.5 20.9688C27.5006 20.9708 27.5608 21.1227 27.5625 21.125C27.7039 21.3225 27.8393 21.4004 28.125 21.3125L28.25 21.25C29.2172 20.5574 30.0671 19.8933 30.3125 19.5625C30.477 19.3407 30.4093 19.0082 30.1875 18.8438C29.9657 18.6793 29.6645 18.7469 29.5 18.9688C29.3992 19.1046 28.8092 19.5554 28.3125 19.9375C28.2915 19.7688 28.248 19.5926 28.25 19.4375C28.2562 18.9639 28.3823 18.6885 28.5938 18.5938C28.8458 18.4808 28.9567 18.1895 28.8438 17.9375C28.7308 17.6855 28.4395 17.5746 28.1875 17.6875Z" fill="#48A83E"/>
<path fill-rule="evenodd" clip-rule="evenodd" d="M21 0.5C9.69604 0.5 0.5 9.6961 0.5 21C0.5 32.3039 9.69603 41.5 21 41.5C32.3039 41.5 41.5 32.304 41.5 21C41.5 9.69606 32.3039 0.5 21 0.5ZM21 1.5C31.7516 1.5 40.5 10.2483 40.5 21C40.5 31.7517 31.7516 40.5 21 40.5C10.2483 40.5 1.5 31.7516 1.5 21C1.5 10.2484 10.2483 1.5 21 1.5Z" fill="#48A83E"/>
</svg>
