<svg width="40" height="40" viewBox="0 0 40 40" fill="none" xmlns="http://www.w3.org/2000/svg">
<path d="M32.0002 29.7778C32.0002 31.3119 30.6571 32 29.0002 32C27.3434 32 26.0002 31.3119 26.0002 29.7778C26.0002 28.6667 27.3434 27 29.0002 27C30.6571 27 32.0002 28.6667 32.0002 29.7778Z" stroke="#0B2343"/>
<path d="M31.0002 24C31.0002 24.8284 30.3287 25.5 29.5002 25.5C28.6718 25.5 28.0002 24.8284 28.0002 24C28.0002 23.1716 28.6718 22 29.5002 22C30.3287 22 31.0002 23.1716 31.0002 24Z" stroke="#0B2343"/>
<path d="M35.1209 26.512C34.758 27.2567 33.8602 27.5663 33.1154 27.2034C32.3707 26.8405 32.0611 25.9427 32.424 25.1979C32.7869 24.4532 33.9038 23.6942 34.6485 24.057C35.3932 24.4199 35.4838 25.7673 35.1209 26.512Z" stroke="#0B2343"/>
<path d="M23.8762 26.112C24.239 26.8567 25.1369 27.1663 25.8816 26.8034C26.6264 26.4405 26.9359 25.5427 26.5731 24.7979C26.2102 24.0532 25.0933 23.2942 24.3486 23.657C23.6038 24.0199 23.5133 25.3673 23.8762 26.112Z" stroke="#0B2343"/>
<path d="M17.5701 6.95996C20.1801 7.65996 21.98 9.34995 21.98 12.7C21.98 17.42 18.4 23.65 13.99 23.65C9.57999 23.65 6 17.43 6 12.7C6 9.34995 7.80003 7.65996 10.41 6.95996" stroke="#0B2343" stroke-linecap="round" stroke-linejoin="round"/>
<path d="M33.26 13.12C33.26 14.97 31.8 16.48 30 16.48C28.2 16.48 26.74 14.98 26.74 13.12C26.74 11.26 28.2 9.76001 30 9.76001C31.8 9.76001 33.26 11.27 33.26 13.12Z" stroke="#0B2343" stroke-linecap="round" stroke-linejoin="round"/>
<path d="M31.29 13.12C31.29 13.85 30.72 14.4399 30.01 14.4399C29.3 14.4399 28.73 13.85 28.73 13.12C28.73 12.39 29.3 11.7999 30.01 11.7999C30.72 11.7999 31.29 12.39 31.29 13.12Z" stroke="#0B2343" stroke-linecap="round" stroke-linejoin="round"/>
<path d="M12.17 6.93994C12.17 7.45994 11.78 7.88 11.29 7.88C10.8 7.88 10.41 7.45994 10.41 6.93994C10.41 6.41994 10.8 6 11.29 6C11.78 6 12.17 6.41994 12.17 6.93994Z" stroke="#0B2343" stroke-linecap="round" stroke-linejoin="round"/>
<path d="M17.5701 6.93994C17.5701 7.45994 17.1801 7.88 16.6901 7.88C16.2001 7.88 15.8101 7.45994 15.8101 6.93994C15.8101 6.41994 16.2001 6 16.6901 6C17.1801 6 17.5701 6.41994 17.5701 6.93994Z" stroke="#0B2343" stroke-linecap="round" stroke-linejoin="round"/>
<path d="M13.99 23.65V26.5599C13.99 30.6099 17.55 33.59 21.53 33.59H22.64C23.6476 33.59 24.6157 33.3999 25.5 33.0506M30 14.45V20.5049" stroke="#0B2343" stroke-linecap="round" stroke-linejoin="round"/>
</svg>
