<svg width="40" height="40" viewBox="0 0 40 40" fill="none" xmlns="http://www.w3.org/2000/svg">
<g clip-path="url(#clip0_3182_493)">
<path d="M20 35.1799V38.3899" stroke="#0B2343" stroke-linecap="round" stroke-linejoin="round"/>
<path d="M20.9199 39.3C20.9199 39.81 20.51 40.22 20 40.22C19.49 40.22 19.08 39.81 19.08 39.3C19.08 38.79 19.49 38.3899 20 38.3899C20.51 38.3899 20.9199 38.8 20.9199 39.3Z" stroke="#0B2343" stroke-linecap="round" stroke-linejoin="round"/>
<path d="M23.6299 23.33L19.08 19.78C18.64 19.44 18 19.75 18 20.31V27.4199C18 27.9799 18.64 28.2899 19.08 27.9499L23.6299 24.3999C23.9799 24.1199 23.9799 23.6 23.6299 23.33Z" stroke="#0B2343" stroke-linecap="round" stroke-linejoin="round"/>
<path d="M35 12H6V14H35V12Z" stroke="#0B2343" stroke-linecap="round" stroke-linejoin="round"/>
<path d="M6 33H35" stroke="#0B2343" stroke-linecap="round" stroke-linejoin="round"/>
<path d="M33 14H8V33H33V14Z" stroke="#0B2343" stroke-linecap="round" stroke-linejoin="round"/>
</g>
<defs>
<clipPath id="clip0_3182_493">
<rect width="40" height="40" fill="white"/>
</clipPath>
</defs>
</svg>
