<svg width="40" height="40" viewBox="0 0 40 40" fill="none" xmlns="http://www.w3.org/2000/svg">
<path d="M19.2801 19.92C19.1601 19.92 19.04 19.83 19.04 19.71V15.4701C19.04 15.1301 19.2501 15.0601 19.4601 15.2201L22.0901 17.2801C22.1001 17.2801 22.1 17.2901 22.11 17.2901C22.26 17.4401 22.2501 17.6501 22.1201 17.7701C22.0001 17.8601 19.4301 19.92 19.2801 19.92Z" stroke="#0B2343" stroke-miterlimit="10" stroke-linecap="round" stroke-linejoin="round"/>
<path d="M26.07 17.54C26.07 20.86 23.38 23.5601 20.05 23.5601C16.73 23.5601 14.03 20.87 14.03 17.54C14.03 14.22 16.72 11.52 20.05 11.52C23.38 11.52 26.07 14.21 26.07 17.54Z" stroke="#0B2343" stroke-miterlimit="10" stroke-linecap="round" stroke-linejoin="round"/>
<path d="M35 8H6V32H35V8Z" stroke="#0B2343" stroke-linecap="round" stroke-linejoin="round"/>
<path d="M6 28H35" stroke="#0B2343" stroke-linecap="round" stroke-linejoin="round"/>
<path d="M13 28H10V32H13V28Z" stroke="#0B2343" stroke-miterlimit="10" stroke-linecap="round" stroke-linejoin="round"/>
</svg>
