<svg width="40" height="40" viewBox="0 0 40 40" fill="none" xmlns="http://www.w3.org/2000/svg">
<path d="M23.5499 20.9899L18.8199 24.4699C18.4499 24.7399 17.9199 24.4799 17.9199 23.9999V17.0497C17.9199 16.5797 18.4499 16.3097 18.8199 16.5797L23.5499 20.0497C23.8599 20.2897 23.8599 20.7599 23.5499 20.9899Z" stroke="#0B2343" stroke-miterlimit="10" stroke-linecap="round" stroke-linejoin="round"/>
<path d="M32.46 11.3198C31.68 10.7498 29.51 10 20.4 10C10.64 10 9.18998 10.8699 8.72998 11.1499C6.25998 12.6499 6.02 19.2999 6 20.6499C6.03 22.4299 6.30998 28.3498 8.72998 29.8198C9.18998 30.0998 10.63 30.96 20.4 30.96C29.51 30.96 31.68 30.2099 32.46 29.6499C34.57 28.1199 34.8099 22.8399 34.8199 20.6299C34.8099 18.8499 34.63 12.8998 32.46 11.3198Z" stroke="#0B2343" stroke-miterlimit="10"/>
</svg>
