<svg width="40" height="40" viewBox="0 0 40 40" fill="none" xmlns="http://www.w3.org/2000/svg">
<path d="M20.93 16.47C20.92 15.74 20.62 15.46 19.5 14.78C17.12 13.35 15.14 12.0201 16.49 9.57007L18.01 7" stroke="#0B2343" stroke-linecap="round" stroke-linejoin="round"/>
<path d="M28.2 18.51C28.19 18.51 28.1799 18.51 28.1699 18.51H12.39C12.38 18.51 12.37 18.51 12.36 18.51C8.84999 18.51 6 21.4799 6 25.1199C6 27.6999 6.00002 33.47 10.15 33.47C12.41 33.47 16.2999 30.84 17.6699 27.51H22.5C23.88 30.84 28.1499 33.47 30.4099 33.47C34.5599 33.47 34.5599 27.6999 34.5599 25.1199C34.5599 21.4799 31.71 18.51 28.2 18.51Z" stroke="#0B2343" stroke-linecap="round" stroke-linejoin="round"/>
<path d="M14.2899 24.52C14.2899 25.85 13.22 26.9299 11.89 26.9299C10.56 26.9299 9.48999 25.85 9.48999 24.52C9.48999 23.19 10.56 22.1099 11.89 22.1099C13.21 22.1099 14.2899 23.18 14.2899 24.52Z" stroke="#0B2343" stroke-linecap="round" stroke-linejoin="round"/>
<path d="M28.6899 22.1099V26.9299" stroke="#0B2343" stroke-miterlimit="10" stroke-linecap="round" stroke-linejoin="round"/>
<path d="M31.09 24.52H26.2899" stroke="#0B2343" stroke-miterlimit="10" stroke-linecap="round" stroke-linejoin="round"/>
</svg>
