<svg width="40" height="40" viewBox="0 0 40 40" fill="none" xmlns="http://www.w3.org/2000/svg">
<path d="M35.4791 13.1907C35.4791 13.1907 35.1442 10.8465 34.1953 9.78605C32.9674 8.44651 31.6279 8.44651 31.014 8.33488C26.6047 8 19.907 8 19.907 8C19.907 8 13.2093 8 8.8 8.33488C8.13023 8.44651 6.7907 8.44651 5.56279 9.78605C4.61395 10.8465 4.33488 13.1907 4.33488 13.1907C4.33488 13.1907 4 15.9256 4 18.7163V21.2837C4 24.0186 4.33488 26.8093 4.33488 26.8093C4.33488 26.8093 4.66977 29.1535 5.6186 30.214C6.84651 31.5535 8.4093 31.5535 9.13488 31.6651C11.7023 31.9442 19.9628 32 19.9628 32C19.9628 32 26.6605 32 31.1256 31.6651C31.7395 31.6093 33.0791 31.5535 34.307 30.214C35.2558 29.1535 35.5907 26.8093 35.5907 26.8093C35.5907 26.8093 35.9256 24.0744 35.9256 21.2837V18.7163C35.814 15.9256 35.4791 13.1907 35.4791 13.1907ZM16.614 24.4093V14.8093L25.2093 19.6651L16.614 24.4093Z" fill="#0B2343"/>
</svg>
