<svg viewBox="0 0 20 20" fill="none" xmlns="http://www.w3.org/2000/svg">
<rect width="20" height="20" fill="white"/>
<path d="M20 15.8733C20 16.2865 19.6694 16.6171 19.2562 16.6171H0.743801C0.330578 16.6171 0 16.2865 0 15.8733V4.7438C0 4.33058 0.330578 4 0.743801 4H19.2562C19.6694 4 20 4.33058 20 4.7438V15.8733Z" fill="#1A1F71"/>
<path d="M7.60335 7.66394L5.37194 12.9807H3.91189L2.80996 8.73832C2.75486 8.49039 2.67222 8.3802 2.47938 8.27C2.1488 8.10471 1.59784 7.91188 1.12952 7.82923L1.15706 7.66394H3.49866C3.80169 7.66394 4.07718 7.85678 4.13227 8.21491L4.71078 11.3003L6.14329 7.69149H7.60335V7.66394ZM13.3058 11.2452C13.3058 9.84025 11.3775 9.75761 11.3775 9.15155C11.3775 8.95871 11.5703 8.76587 11.956 8.71078C12.1488 8.68323 12.6998 8.65568 13.3058 8.95871L13.5538 7.82923C13.2232 7.71904 12.81 7.5813 12.259 7.5813C10.9091 7.5813 9.94494 8.29755 9.94494 9.34438C9.94494 10.1157 10.6336 10.529 11.1571 10.7769C11.6805 11.0248 11.8733 11.1901 11.8733 11.438C11.8733 11.7962 11.4601 11.9615 11.0469 11.9615C10.3582 11.9615 9.94494 11.7686 9.64191 11.6309L9.39398 12.7879C9.72456 12.9257 10.3031 13.0634 10.9091 13.0634C12.3416 13.0634 13.2783 12.3471 13.3058 11.2452ZM16.8871 12.9807H18.1543L17.0524 7.66394H15.8678C15.5923 7.66394 15.3719 7.82923 15.2893 8.04962L13.2232 12.9807H14.6557L14.9312 12.1819H16.6943L16.8871 12.9807ZM15.3444 11.1075L16.0606 9.124L16.4739 11.1075H15.3444ZM9.55927 7.66394L8.42979 12.9807H7.05238L8.18186 7.66394H9.55927Z" fill="white"/>
</svg>
