<?xml version="1.0" encoding="utf-8"?>
<!-- Generator: Adobe Illustrator 19.1.0, SVG Export Plug-In . SVG Version: 6.00 Build 0)  -->
<svg version="1.1" id="Layer_1" xmlns="http://www.w3.org/2000/svg" xmlns:xlink="http://www.w3.org/1999/xlink" x="0px" y="0px"
	 viewBox="0 0 88 50" enable-background="new 0 0 88 50" xml:space="preserve">
<g>
	<g>
		<path fill-rule="evenodd" clip-rule="evenodd" fill="#221F1F" d="M45.4,14.7h-3.8l-2.3,14.8H43L45.4,14.7z M29.9,29.5l0.9-5.8
			l2.8,5.8h4.8l-3.7-6c2-0.5,3.5-1.9,3.8-4.1c0.4-2.6-0.6-4.7-4.3-4.7h-5.8l-2.3,14.8H29.9z M31.7,17.7h1.1c1.1,0,1.8,0.8,1.6,1.9
			c-0.2,1-1.2,1.9-2.2,1.9h-1.1L31.7,17.7z M60.4,29.5l2.3-14.8h-3.8l-2.3,14.8H60.4z M72.1,26.3h-4.5l0.4-2.6h4.3l0.5-3.2h-4.3
			l0.4-2.5h4.5l0.5-3.2h-8.3l-2.3,14.8h8.3L72.1,26.3z M21.1,18h4.5l0.5-3.2h-8.3l-2.3,14.8h8.3l0.5-3.2h-4.5l0.4-2.6h4.3l0.5-3.2
			h-4.3L21.1,18z M50.6,23.7h4.2l0.5-3.2h-4.2l0.4-2.5h4.6l0.5-3.2h-8.4l-2.3,14.8h3.8L50.6,23.7z M81.1,14.7h-5l-2.3,14.8h5
			c4.7,0,8.5-3.2,9.1-7.4C88.4,19.2,87,14.7,81.1,14.7z M84,22c-0.4,2.7-2.3,4.3-4.8,4.3h-1l1.3-8.4h0.8C83.2,18,84.3,20,84,22z
			 M22,0c-4.8,7.6-9.5,15.4-14.1,23.5L7,12.7H0v0.4c2.1,0.3,2.7,1.6,3,4.5l1.3,11.8h5.2c4.8-10,9.8-19.8,14.8-29.5H22z M8.7,9.2
			l0.5,6.7h0.4l5.4-9.2V6.2H2.7l0,0.5L8.7,9.2z M31.4,37.7c-1,0-1.8,0.4-2.5,1.1l0.8-5.8h-2.5l-1.8,13h2.5l0.1-0.9
			c0.5,0.7,1.2,1.2,2.1,1.2c2,0,3.8-1.9,4.2-4.3C34.7,39.7,33.4,37.7,31.4,37.7z M31.7,42c-0.1,1-1,1.9-1.9,1.9
			c-0.9,0-1.5-0.8-1.4-1.9c0.1-1,1-1.9,1.9-1.9C31.3,40.1,31.9,41,31.7,42z M38.8,42.1l-1.3-4.1h-3l2.5,7L33.9,50h2.9l7.5-12.1h-2.9
			L38.8,42.1z M61.7,33l-4,13h3.5l4-13H61.7z M56.1,33l-4.7,8.4h0L51.1,33H45l-0.1,0.6c2,0,2.4,0.3,2.7,1.9L48.8,46h3.7l7.4-13H56.1
			z M86.1,33h-4.7l-7,13h3.8l0.9-1.9h4.3l0.1,1.9h1.1l0,0h2.6L86.1,33z M80.3,41.6l2.7-6.1l0.3,6.1H80.3z M71.8,38.4L71,37.9
			c-1.1-0.7-1.6-1.2-1.2-1.9c0.2-0.4,0.8-0.7,1.5-0.7c0.9,0,1.8,0.4,2.7,1.2l1.9-2.3c-1-0.8-2.7-1.6-4.6-1.6c-2.7,0-4.3,1.1-4.9,2.6
			c-1,2.3-0.1,3.6,2,5l0.7,0.4c1.4,0.8,2,1.2,1.5,2.1c-0.3,0.6-0.9,0.7-1.5,0.7c-1.9,0-2.8-0.7-3.8-1.3l-1.7,2.6
			c1.2,0.7,2.8,1.5,5.3,1.5c2.2,0,4.3-0.6,5.4-3.2C74.9,41.6,74.3,40,71.8,38.4z"/>
	</g>
</g>
</svg>
