<svg width="20" height="20" viewBox="0 0 20 20" fill="none" xmlns="http://www.w3.org/2000/svg">
<g clip-path="url(#clip0_3166_9265)">
<path d="M9.84778 7.26693L12.7108 10.1299L12.7244 9.97995C12.7244 8.47573 11.502 7.2533 9.99774 7.2533L9.84778 7.26693Z" fill="black"/>
<path d="M9.99782 5.43553C12.5063 5.43553 14.5423 7.47144 14.5423 9.97996C14.5423 10.5662 14.4241 11.1252 14.2196 11.6387L16.8781 14.2971C18.2505 13.152 19.3321 11.6705 20.0001 9.97996C18.4232 5.98997 14.5468 3.16333 9.99787 3.16333C8.72541 3.16333 7.50754 3.39054 6.37598 3.79953L8.33917 5.75817C8.85263 5.55823 9.41159 5.43553 9.99782 5.43553Z" fill="black"/>
<path d="M0.90887 2.95888L2.98113 5.03113L3.39468 5.44469C1.89502 6.61715 0.70893 8.1759 0 9.98001C1.57238 13.97 5.45331 16.7966 9.99774 16.7966C11.4065 16.7966 12.7517 16.524 13.9832 16.0286L14.3695 16.4149L17.0189 19.0688L18.1777 17.9146L2.0677 1.80005L0.90887 2.95888ZM5.93503 7.98048L7.33926 9.3847C7.29836 9.58013 7.27109 9.77551 7.27109 9.98001C7.27109 11.4842 8.49352 12.7067 9.99774 12.7067C10.2022 12.7067 10.3977 12.6794 10.5885 12.6385L11.9928 14.0427C11.3883 14.3427 10.7158 14.5244 9.99774 14.5244C7.48922 14.5244 5.45331 12.4885 5.45331 9.98001C5.45331 9.262 5.6351 8.58941 5.93503 7.98048Z" fill="black"/>
</g>
<defs>
<clipPath id="clip0_3166_9265">
<rect width="20" height="20" fill="white"/>
</clipPath>
</defs>
</svg>
