<svg width="40" height="40" viewBox="0 0 40 40" fill="none" xmlns="http://www.w3.org/2000/svg">
<path d="M25.71 19.58C25.71 22.78 23.2 25.37 20.09 25.37C16.99 25.37 14.47 22.78 14.47 19.58C14.47 16.38 16.99 13.79 20.09 13.79C23.2 13.79 25.71 16.38 25.71 19.58Z" stroke="#0B2343" stroke-miterlimit="10" stroke-linecap="round" stroke-linejoin="round"/>
<path d="M22.41 19.58C22.41 20.89 21.38 21.96 20.1 21.96C18.82 21.96 17.79 20.89 17.79 19.58C17.79 18.27 18.82 17.2 20.1 17.2C21.37 17.2 22.41 18.26 22.41 19.58Z" stroke="#0B2343" stroke-miterlimit="10" stroke-linecap="round" stroke-linejoin="round"/>
<path d="M20.1 29.16C27.8872 29.16 34.2 24.8709 34.2 19.58C34.2 14.2891 27.8872 10 20.1 10C12.3128 10 6 14.2891 6 19.58C6 24.8709 12.3128 29.16 20.1 29.16Z" stroke="#0B2343" stroke-miterlimit="10" stroke-linecap="round" stroke-linejoin="round"/>
</svg>
