<svg width="40" height="40" viewBox="0 0 40 40" fill="none" xmlns="http://www.w3.org/2000/svg">
<path d="M5.48999 5.48999L34 34" stroke="#0B2343" stroke-miterlimit="10" stroke-linecap="round" stroke-linejoin="round"/>
<path d="M25.26 28.09C23.53 28.83 21.67 29.24 19.72 29.24C13.7 29.24 8.45 25.39 5.62 19.66C6.86 17.16 8.55001 15.02 10.57 13.4" stroke="#0B2343" stroke-miterlimit="10" stroke-linecap="round" stroke-linejoin="round"/>
<path d="M14.56 17.39C14.27 18.09 14.11 18.8599 14.11 19.6599C14.11 22.8599 16.63 25.45 19.73 25.45C20.57 25.45 21.37 25.2499 22.09 24.9099" stroke="#0B2343" stroke-miterlimit="10" stroke-linecap="round" stroke-linejoin="round"/>
<path d="M14.1 11.27C15.85 10.51 17.75 10.08 19.73 10.08C25.75 10.08 31 13.93 33.83 19.66C32.58 22.19 30.86 24.35 28.81 25.97" stroke="#0B2343" stroke-miterlimit="10" stroke-linecap="round" stroke-linejoin="round"/>
<path d="M24.85 22.02C25.16 21.3 25.34 20.5 25.34 19.66C25.34 16.46 22.83 13.87 19.72 13.87C18.84 13.87 18.02 14.08 17.28 14.45" stroke="#0B2343" stroke-miterlimit="10" stroke-linecap="round" stroke-linejoin="round"/>
<path d="M22.08 24.9099C21.36 25.2499 20.57 25.45 19.72 25.45C16.62 25.45 14.1 22.8599 14.1 19.6599C14.1 18.8499 14.26 18.08 14.55 17.39" stroke="#0B2343" stroke-miterlimit="10" stroke-linecap="round" stroke-linejoin="round"/>
<path d="M17.53 20.3499C17.76 21.1299 18.36 21.7299 19.12 21.9399" stroke="#0B2343" stroke-miterlimit="10" stroke-linecap="round" stroke-linejoin="round"/>
<path d="M17.28 14.45C18.02 14.08 18.85 13.87 19.72 13.87C22.82 13.87 25.34 16.46 25.34 19.66C25.34 20.5 25.16 21.3 24.85 22.02" stroke="#0B2343" stroke-miterlimit="10" stroke-linecap="round" stroke-linejoin="round"/>
<path d="M21.98 19.15C21.78 18.22 21.06 17.5 20.15 17.32" stroke="#0B2343" stroke-miterlimit="10" stroke-linecap="round" stroke-linejoin="round"/>
<path d="M19.12 21.95C18.36 21.74 17.76 21.13 17.53 20.36" stroke="#0B2343" stroke-miterlimit="10" stroke-linecap="round" stroke-linejoin="round"/>
<path d="M20.15 17.32C21.06 17.5 21.78 18.22 21.98 19.15" stroke="#0B2343" stroke-miterlimit="10" stroke-linecap="round" stroke-linejoin="round"/>
</svg>
