<svg viewBox="0 0 20 20" fill="none" xmlns="http://www.w3.org/2000/svg">
<g clip-path="url(#clip0_6362_99760)">
<path d="M9.99998 7.27283C8.49542 7.27283 7.27271 8.49554 7.27271 10.0001C7.27271 11.5047 8.49542 12.7274 9.99998 12.7274C11.5045 12.7274 12.7272 11.5047 12.7272 10.0001C12.7272 8.49554 11.5045 7.27283 9.99998 7.27283Z" fill="black"/>
<path d="M10 3.18188C5.45455 3.18188 1.57274 6.00913 0 10.0001C1.57274 13.991 5.45455 16.8183 10 16.8183C14.55 16.8183 18.4273 13.991 20 10.0001C18.4273 6.00913 14.55 3.18188 10 3.18188ZM10 14.5455C7.49093 14.5455 5.45455 12.5091 5.45455 10C5.45455 7.49094 7.49093 5.4546 10 5.4546C12.5091 5.4546 14.5455 7.49098 14.5455 10.0001C14.5455 12.5092 12.5091 14.5455 10 14.5455Z" fill="black"/>
</g>
</svg>
