<svg width="40" height="40" viewBox="0 0 40 40" fill="none" xmlns="http://www.w3.org/2000/svg">
<path d="M13.95 25.4348H8.76001C8.34001 25.4348 8 25.1749 8 24.7649V15.2349C8 14.8249 8.34001 14.5149 8.76001 14.5149H13.81L21.09 9.35474C22.89 8.23474 23 10.1248 23 10.1248V29.8748C23 29.8748 22.89 31.7347 21.09 30.6147L13.95 25.4348Z" stroke="#0B2343" stroke-miterlimit="10" stroke-linecap="round" stroke-linejoin="round"/>
<path d="M29.3 25.7048C30.87 24.2748 31.86 22.2449 31.86 19.9949C31.86 17.7449 30.87 15.7149 29.3 14.2849" stroke="#0B2343" stroke-miterlimit="10" stroke-linecap="round" stroke-linejoin="round"/>
<path d="M25.43 17.0549C26.27 17.7749 26.81 18.8249 26.81 19.9949C26.81 21.1649 26.27 22.2248 25.43 22.9348" stroke="#0B2343" stroke-miterlimit="10" stroke-linecap="round" stroke-linejoin="round"/>
</svg>
