<svg width="40" height="40" viewBox="0 0 40 40" fill="none" xmlns="http://www.w3.org/2000/svg">
<path d="M11.95 25.4348H6.76001C6.34001 25.4348 6 25.1749 6 24.7649V15.2349C6 14.8249 6.34001 14.5149 6.76001 14.5149H11.81L19.09 9.35474C20.89 8.23474 21 10.1248 21 10.1248V29.8748C21 29.8748 20.89 31.7347 19.09 30.6147L11.95 25.4348Z" stroke="#0B2343" stroke-miterlimit="10" stroke-linecap="round" stroke-linejoin="round"/>
<path d="M27.3 25.7048C28.87 24.2748 29.8601 22.2449 29.8601 19.9949C29.8601 17.7449 28.87 15.7149 27.3 14.2849" stroke="#0B2343" stroke-miterlimit="10" stroke-linecap="round" stroke-linejoin="round"/>
<path d="M30.91 28.4749C33.21 26.3349 34.65 23.3349 34.65 19.9949C34.65 16.6549 33.21 13.6549 30.91 11.5149" stroke="#0B2343" stroke-miterlimit="10" stroke-linecap="round" stroke-linejoin="round"/>
<path d="M23.4299 17.0549C24.2699 17.7749 24.8099 18.8249 24.8099 19.9949C24.8099 21.1649 24.2699 22.2248 23.4299 22.9348" stroke="#0B2343" stroke-miterlimit="10" stroke-linecap="round" stroke-linejoin="round"/>
</svg>
