<?xml version="1.0" encoding="utf-8"?>
<!-- Generator: Adobe Illustrator 26.3.1, SVG Export Plug-In . SVG Version: 6.00 Build 0)  -->
<svg version="1.1" id="Layer_1" xmlns="http://www.w3.org/2000/svg" xmlns:xlink="http://www.w3.org/1999/xlink" x="0px" y="0px"
	 viewBox="0 0 42 42" style="enable-background:new 0 0 42 42;" xml:space="preserve">
<style type="text/css">
	.st0{fill-rule:evenodd;clip-rule:evenodd;fill:#FFFFFF;}
	.st1{fill:#FFFFFF;}
</style>
<path class="st0" d="M36.4,19.7c0.2-0.3,0.6-0.4,0.9-0.2c2,1.2,3,3.9,2.7,6.3c-0.2,2.3-1.6,4.5-4.3,5.3v2.2c0,1-0.8,1.9-1.9,1.9
	H11.2c-1,0-1.9-0.8-1.9-1.9v-1c0-0.4,0.3-0.7,0.7-0.7c0.4,0,0.7,0.3,0.7,0.7v1c0,0.3,0.3,0.6,0.6,0.6h22.6c0.3,0,0.6-0.3,0.6-0.6
	v-2.7c0-0.3,0.2-0.6,0.5-0.6c2.3-0.4,3.5-2.2,3.7-4.2c0.2-2.1-0.6-4.2-2.1-5.1C36.3,20.4,36.2,20,36.4,19.7z"/>
<path class="st1" d="M35.2,13.2c-0.6-2.4-2.5-4.7-5.5-4.7l-0.5-2C29,6,28.7,5.5,28.3,5.3C27.8,5,27.3,5,26.9,5.1L5.6,10.6
	c-1,0.3-1.6,1.3-1.3,2.3l0.5,2c-2.6,1.5-3.2,4.4-2.6,6.8c0.6,2.4,2.6,4.7,5.6,4.7l0.5,2c0.2,0.8,1,1.4,1.8,1.4c0.2,0,0.3,0,0.5-0.1
	l21.2-5.5c0.5-0.1,0.9-0.4,1.1-0.9c0.3-0.4,0.3-0.9,0.2-1.4l-0.5-2C35.2,18.5,35.8,15.5,35.2,13.2z M22.8,17.8L22.8,17.8
	c-0.7,1.4-1.1,2.4-1.5,3.3c-1.5,3.3-1.5,3.5-2.1,3.6l-0.6,0.1c0,0,0,0-0.1,0c-0.1,0-0.1,0-0.2-0.1c-0.1-0.1-0.1-0.1-0.1-0.2l0.9-6.1
	L16,18.9l-0.9,1.9c0,0.1-0.1,0.1-0.2,0.1l-1.1,0.2c-0.1,0-0.2,0-0.2-0.1c-0.1-0.1-0.1-0.1-0.1-0.2l0.7-2.7l-2-1.9
	c-0.1-0.1-0.1-0.2-0.1-0.2c0-0.1,0.1-0.2,0.2-0.2l1.1-0.2c0.1,0,0.1,0,0.2,0l1.8,1.3l3-1l-4-4.9c-0.1-0.1-0.1-0.2,0-0.2
	c0-0.1,0.1-0.1,0.2-0.2l0.6-0.1c0.5-0.1,0.7,0,3.7,2.2c0.8,0.6,1.8,1.3,3,2.3l0.1,0c1-0.2,2.8-0.4,3.1,0.8
	C25.4,17,23.7,17.5,22.8,17.8z"/>
</svg>
