<svg viewBox="0 0 35 28" fill="none" xmlns="http://www.w3.org/2000/svg">
<path d="M31.6791 13.9927C34.8341 15.9162 34.8225 22.5547 30.0019 23.4344V25.8624C30.0019 26.484 29.4976 27 28.8643 27H8.53806C7.91642 27 7.40039 26.4957 7.40039 25.8624V25.006" stroke="#0B2343" stroke-width="1.09054" stroke-linecap="round" stroke-linejoin="round"/>
<path d="M24.689 4.18724L24.1027 1.91183C23.9502 1.32539 23.352 0.973547 22.7655 1.12602L3.68262 6.04042C3.09617 6.19289 2.74441 6.79108 2.89688 7.37752L3.48331 9.65293C-1.18476 11.7524 0.773889 19.5169 5.91113 19.1064L6.49758 21.3818C6.65005 21.9682 7.24824 22.3201 7.83468 22.1676L26.9176 17.2533C27.504 17.1007 27.8558 16.5025 27.7033 15.9161L27.1169 13.6407C31.7498 11.4943 29.7676 3.81192 24.689 4.18724Z" fill="#0B2343" stroke="#0B2343" stroke-width="1.09054" stroke-linecap="round" stroke-linejoin="round"/>
<path fill-rule="evenodd" clip-rule="evenodd" d="M18.347 9.35132L18.2789 9.36384C17.1612 8.58639 16.2771 7.96479 15.5729 7.46971C14.6587 6.82695 14.0478 6.39742 13.6229 6.1169C13.2458 5.86792 12.9952 5.72237 12.7987 5.65177C12.696 5.6149 12.6031 5.59644 12.5106 5.59516C12.4191 5.5939 12.3386 5.60971 12.2644 5.62863L11.7379 5.76298C11.6665 5.78121 11.6093 5.83479 11.5865 5.90493C11.5637 5.97507 11.5785 6.052 11.6256 6.10876L15.1168 10.3161L12.2478 11.277L10.6667 10.2287C10.6161 10.1952 10.5536 10.1846 10.4947 10.1996L9.48737 10.4566C9.41061 10.4762 9.35083 10.5364 9.33176 10.6133C9.3127 10.6902 9.33745 10.7713 9.39617 10.8245L11.1443 12.4073L10.4165 14.8261C10.3942 14.9004 10.4136 14.9809 10.4672 15.0369C10.5209 15.0929 10.6006 15.1157 10.6757 15.0965L11.683 14.8394C11.7419 14.8244 11.7916 14.7852 11.82 14.7314L12.7056 13.0538L15.6848 12.5224L14.642 17.9135C14.628 17.9858 14.652 18.0603 14.7056 18.1108C14.7592 18.1614 14.835 18.181 14.9064 18.1628L15.4312 18.0289C15.5042 18.0108 15.5829 17.9869 15.6621 17.9431C15.7428 17.8985 15.8154 17.8386 15.8877 17.7578C16.0259 17.6033 16.1755 17.357 16.3867 16.9591C16.6269 16.5063 16.9612 15.8286 17.464 14.8091C17.8428 14.0412 18.3173 13.0792 18.9192 11.8736L19.0085 11.8446C19.375 11.7259 19.9067 11.5537 20.3465 11.3127C20.6049 11.1711 20.8515 10.9956 21.0173 10.7761C21.1889 10.5488 21.2741 10.2718 21.1937 9.95658L20.9515 9.90734C20.9515 9.90735 20.9515 9.90733 20.9515 9.90734L21.1937 9.95658C21.1159 9.65174 20.9197 9.45148 20.6696 9.33267C20.4284 9.21808 20.1381 9.1788 19.8498 9.17502C19.3404 9.16835 18.7686 9.27366 18.347 9.35132ZM18.8532 9.48064C18.8533 9.48063 18.8532 9.48064 18.8532 9.48064V9.48064Z" fill="white"/>
</svg>
