<svg width="40" height="40" viewBox="0 0 40 40" fill="none" xmlns="http://www.w3.org/2000/svg">
<path d="M33.7268 20.4436C36.767 22.2971 36.7557 28.6939 32.1107 29.5415V31.8809C32.1107 32.4799 31.6247 32.9772 31.0144 32.9772H11.4285C10.8296 32.9772 10.3323 32.4912 10.3323 31.8809V31.0559" stroke="#007CC2" stroke-linecap="round" stroke-linejoin="round"/>
<path d="M26.9797 10.984L26.4146 8.79148C26.2677 8.2264 25.6913 7.88735 25.1263 8.03427L6.73835 12.7697C6.17326 12.9166 5.83423 13.493 5.98115 14.0581L6.54624 16.2506C2.04816 18.2736 3.93555 25.7554 8.8857 25.3598L9.45079 27.5523C9.59771 28.1174 10.1741 28.4565 10.7392 28.3095L29.1271 23.5741C29.6922 23.4272 30.0312 22.8508 29.8843 22.2857L29.3192 20.0932C33.7834 18.0363 31.8734 10.6337 26.9797 10.984Z" fill="#007CC2" stroke="#007CC2" stroke-linecap="round" stroke-linejoin="round"/>
<path d="M16.5935 20.7038C17.2603 21.0089 18.1758 21.1219 18.7634 20.9524C19.7015 20.6812 20.2779 19.7996 20.0405 18.9746C19.8032 18.1496 18.8765 17.9801 17.9045 17.9688C16.8987 17.9461 16.0058 17.7879 15.7685 16.9629C15.5312 16.1379 16.1076 15.2563 17.0456 14.9851C17.6785 14.8043 18.3227 14.9512 18.7409 15.3129" fill="#007CC2"/>
<path d="M16.5935 20.7038C17.2603 21.0089 18.1758 21.1219 18.7634 20.9524C19.7015 20.6812 20.2779 19.7996 20.0405 18.9746C19.8032 18.1496 18.8765 17.9801 17.9045 17.9688C16.8987 17.9461 16.0058 17.7879 15.7685 16.9629C15.5312 16.1379 16.1076 15.2563 17.0456 14.9851C17.6785 14.8043 18.3227 14.9512 18.7409 15.3129" stroke="white" stroke-miterlimit="10" stroke-linecap="round" stroke-linejoin="round"/>
<path d="M16.8196 14.1714L17.0456 14.9851" stroke="white" stroke-miterlimit="10" stroke-linecap="round" stroke-linejoin="round"/>
<path d="M18.7522 20.9636L18.9896 21.7773" stroke="white" stroke-miterlimit="10" stroke-linecap="round" stroke-linejoin="round"/>
</svg>
