<svg width="40" height="40" viewBox="0 0 40 40" fill="none" xmlns="http://www.w3.org/2000/svg">
<path d="M33.7269 20.4436C36.767 22.2971 36.7557 28.6939 32.1107 29.5415V31.8809C32.1107 32.4799 31.6247 32.9772 31.0145 32.9772H11.4286C10.8296 32.9772 10.3323 32.4912 10.3323 31.8809V31.0559" stroke="#0B2343" stroke-linecap="round" stroke-linejoin="round"/>
<path d="M26.9797 10.984L26.4146 8.79148C26.2677 8.2264 25.6913 7.88735 25.1263 8.03427L6.73835 12.7697C6.17326 12.9166 5.83423 13.493 5.98115 14.0581L6.54624 16.2506C2.04816 18.2736 3.93555 25.7554 8.8857 25.3598L9.45079 27.5523C9.59771 28.1174 10.1741 28.4565 10.7392 28.3095L29.1271 23.5741C29.6922 23.4272 30.0312 22.8508 29.8843 22.2857L29.3192 20.0932C33.7834 18.0363 31.8734 10.6337 26.9797 10.984Z" stroke="#0B2343" stroke-linecap="round" stroke-linejoin="round"/>
</svg>
