<svg width="40" height="40" viewBox="0 0 40 40" fill="none" xmlns="http://www.w3.org/2000/svg">
<path d="M33.0141 19.7214C35.8803 21.4688 35.8697 27.4995 31.4906 28.2986V30.5041C31.4906 31.0689 31.0324 31.5376 30.4571 31.5376H11.9921C11.4274 31.5376 10.9586 31.0795 10.9586 30.5041V29.7263" stroke="#0B2343" stroke-linecap="round" stroke-linejoin="round"/>
<path d="M26.6645 10.8132L26.1317 8.74617C25.9932 8.21343 25.4498 7.8938 24.9171 8.03231L7.58158 12.4967C7.04883 12.6352 6.72927 13.1786 6.86779 13.7114L7.40053 15.7784C3.15989 17.6856 4.9392 24.7392 9.60603 24.3662L10.1388 26.4333C10.2773 26.966 10.8207 27.2856 11.3534 27.1471L28.6889 22.6827C29.2217 22.5442 29.5412 22.0008 29.4027 21.4681L28.87 19.401C33.0786 17.4512 31.278 10.4723 26.6645 10.8132Z" stroke="#0B2343" stroke-linecap="round" stroke-linejoin="round"/>
<path d="M21.1501 17.8598C21.7536 17.6693 23.185 17.3067 22.9447 16.4523C22.7117 15.6236 21.3547 15.887 20.6262 15.9971C16.1134 12.6326 15.9867 12.4159 15.5514 12.5167L15.1161 12.6175L18.3597 16.6352L15.6682 17.4888L14.2341 16.4656L13.4012 16.6584L15.006 18.1849L14.4553 20.3941L15.2882 20.2013L16.0067 18.6797L18.8199 18.2588L18.1005 23.2174L18.5358 23.1166C18.9687 23.0203 18.9617 22.7876 21.1501 17.8598Z" stroke="#0B2343" stroke-miterlimit="10" stroke-linecap="round" stroke-linejoin="round"/>
</svg>
