<svg width="50" height="50" viewBox="0 0 50 50" fill="none" xmlns="http://www.w3.org/2000/svg">
<path d="M39.6791 24.9926C42.8341 26.9162 42.8225 33.5547 38.0019 34.4344V36.8623C38.0019 37.484 37.4976 38 36.8643 38H16.5381C15.9164 38 15.4004 37.4957 15.4004 36.8623V36.006" stroke="#0B2343" stroke-width="1.09054" stroke-linecap="round" stroke-linejoin="round"/>
<path d="M32.689 15.1872L32.1027 12.9118C31.9502 12.3254 31.352 11.9735 30.7655 12.126L11.6826 17.0404C11.0962 17.1929 10.7444 17.7911 10.8969 18.3775L11.4833 20.6529C6.81524 22.7524 8.77389 30.5169 13.9111 30.1063L14.4976 32.3818C14.6501 32.9682 15.2482 33.3201 15.8347 33.1676L34.9176 28.2532C35.504 28.1007 35.8558 27.5025 35.7033 26.9161L35.1169 24.6407C39.7498 22.4943 37.7676 14.8119 32.689 15.1872Z" fill="#0B2343" stroke="#0B2343" stroke-width="1.09054" stroke-linecap="round" stroke-linejoin="round"/>
<path fill-rule="evenodd" clip-rule="evenodd" d="M26.347 20.3513L26.2789 20.3638C25.1612 19.5864 24.2771 18.9648 23.5729 18.4697C22.6587 17.8269 22.0478 17.3974 21.6229 17.1169C21.2458 16.8679 20.9952 16.7223 20.7987 16.6517C20.696 16.6149 20.6031 16.5964 20.5106 16.5951C20.4191 16.5939 20.3386 16.6097 20.2644 16.6286L19.7379 16.7629C19.6665 16.7812 19.6093 16.8348 19.5865 16.9049C19.5637 16.975 19.5785 17.052 19.6256 17.1087L23.1168 21.3161L20.2478 22.2769L18.6667 21.2287C18.6161 21.1951 18.5536 21.1845 18.4947 21.1996L17.4874 21.4566C17.4106 21.4762 17.3508 21.5364 17.3318 21.6133C17.3127 21.6902 17.3374 21.7713 17.3962 21.8245L19.1443 23.4073L18.4165 25.8261C18.3942 25.9003 18.4136 25.9809 18.4672 26.0369C18.5209 26.0929 18.6006 26.1156 18.6757 26.0964L19.683 25.8394C19.7419 25.8244 19.7916 25.7851 19.82 25.7314L20.7056 24.0538L23.6848 23.5224L22.642 28.9135C22.628 28.9858 22.652 29.0603 22.7056 29.1108C22.7592 29.1614 22.835 29.181 22.9064 29.1627L23.4312 29.0288C23.5042 29.0108 23.5829 28.9868 23.6621 28.9431C23.7428 28.8985 23.8154 28.8386 23.8877 28.7578C24.0259 28.6033 24.1755 28.357 24.3867 27.9591C24.6269 27.5063 24.9612 26.8285 25.464 25.8091C25.8428 25.0412 26.3173 24.0792 26.9192 22.8736L27.0085 22.8446C27.375 22.7259 27.9067 22.5537 28.3465 22.3127C28.6049 22.1711 28.8515 21.9956 29.0173 21.7761C29.1889 21.5488 29.2741 21.2718 29.1937 20.9565L28.9515 20.9073C28.9515 20.9073 28.9515 20.9073 28.9515 20.9073L29.1937 20.9565C29.1159 20.6517 28.9197 20.4514 28.6696 20.3326C28.4284 20.218 28.1381 20.1788 27.8498 20.175C27.3404 20.1683 26.7686 20.2736 26.347 20.3513ZM26.8532 20.4806C26.8533 20.4806 26.8532 20.4806 26.8532 20.4806V20.4806Z" fill="white"/>
</svg>
