<svg width="40" height="40" viewBox="0 0 40 40" fill="none" xmlns="http://www.w3.org/2000/svg">
<g clip-path="url(#clip0_3182_388)">
<path d="M30.4351 14.5935C30.4351 14.5935 27.4459 17.0938 24.1788 18.294C20.9117 19.5052 19.1893 23.6279 19.1893 23.6279C19.1893 23.6279 19.2783 26.8283 20.3451 30.2398C21.4119 33.6514 19.7783 39.3187 19.7783 39.3187" stroke="#0B2343" stroke-linecap="round" stroke-linejoin="round"/>
<path d="M18.9559 20.8836C16.9668 14.9162 4.99878 17.0609 4.99878 17.0609C4.99878 17.0609 9.03248 32.7961 19.1892 23.6283C19.1892 23.6283 18.8559 22.5171 18.9559 20.8836Z" stroke="#0B2343" stroke-miterlimit="10" stroke-linecap="round" stroke-linejoin="round"/>
<path d="M34.88 8.48193C21.6007 10.9156 19.1782 17.2275 18.956 20.8835C18.856 22.517 19.1893 23.6171 19.1893 23.6171C37.4137 32.8848 34.88 8.48193 34.88 8.48193Z" stroke="#0B2343" stroke-linecap="round" stroke-linejoin="round"/>
<path d="M11.5328 21.0613C11.5328 21.0613 17.3335 21.4169 19.1893 23.6171" stroke="#0B2343" stroke-miterlimit="10" stroke-linecap="round" stroke-linejoin="round"/>
<path d="M30.4351 14.5935C30.4351 14.5935 27.4459 17.0938 24.1788 18.294C20.9117 19.5052 19.1893 23.6279 19.1893 23.6279C19.1893 23.6279 19.2783 26.8283 20.3451 30.2398C21.4119 33.6514 19.7783 39.3187 19.7783 39.3187" stroke="#0B2343" stroke-linecap="round" stroke-linejoin="round"/>
<path d="M18.9559 20.8836C16.9668 14.9162 4.99878 17.0609 4.99878 17.0609C4.99878 17.0609 9.03248 32.7961 19.1892 23.6283C19.1892 23.6283 18.8559 22.5171 18.9559 20.8836Z" stroke="#0B2343" stroke-miterlimit="10" stroke-linecap="round" stroke-linejoin="round"/>
<path d="M34.88 8.48193C21.6007 10.9156 19.1782 17.2275 18.956 20.8835C18.856 22.517 19.1893 23.6171 19.1893 23.6171C37.4137 32.8848 34.88 8.48193 34.88 8.48193Z" stroke="#0B2343" stroke-linecap="round" stroke-linejoin="round"/>
<path d="M11.5328 21.0613C11.5328 21.0613 17.3335 21.4169 19.1893 23.6171" stroke="#0B2343" stroke-miterlimit="10" stroke-linecap="round" stroke-linejoin="round"/>
<path d="M15.79 4.87517L12.8139 6.5891C11.8042 7.1737 11.1332 6.80167 7.91129 6.10414L7.30676 6.44959L9.92416 8.24988L9.39935 8.55546C9.26648 8.62854 9.33956 8.82783 9.48571 8.8079C13.3719 8.29638 15.2121 7.56564 15.2121 7.56564L23.7618 2.62979C23.7618 2.62979 26.7114 0.929153 25.5355 0.49735C24.2335 0.0190441 21.543 1.54032 21.543 1.54032L18.248 3.44025L12.794 1.52703L12.4618 1.71968L16.368 5.32026" stroke="#0B2343" stroke-miterlimit="10" stroke-linecap="round" stroke-linejoin="round"/>
<path d="M20.1742 6.01123L19.9617 7.91782L19.4568 8.30976L18.2411 7.1605" stroke="#0B2343" stroke-miterlimit="10" stroke-linecap="round" stroke-linejoin="round"/>
</g>
<defs>
<clipPath id="clip0_3182_388">
<rect width="40" height="40" fill="white"/>
</clipPath>
</defs>
</svg>
