<svg width="40" height="40" viewBox="0 0 40 40" fill="none" xmlns="http://www.w3.org/2000/svg">
<path d="M32.01 22.5399V17.7" stroke="#0B2343" stroke-linecap="round" stroke-linejoin="round"/>
<path d="M6 15.24V31.76C6 32.85 6.88009 33.73 7.97009 33.73H32.01V28.72" stroke="#0B2343" stroke-linecap="round" stroke-linejoin="round"/>
<path d="M32.01 17.7001H7.97009C6.88009 17.7001 6 16.3801 6 14.7601C6 13.1401 6.88009 11.8201 7.97009 11.8201H12.0901" stroke="#0B2343" stroke-linecap="round" stroke-linejoin="round"/>
<path d="M34.9801 28.72H29.01C27.35 28.72 26.01 27.38 26.01 25.72C26.01 24.06 27.35 22.72 29.01 22.72H34.9801V28.72Z" stroke="#0B2343" stroke-linecap="round" stroke-linejoin="round"/>
<path d="M9.8501 17.7L7.97009 13.11L27.79 7L31.2101 17.7" stroke="#0B2343" stroke-miterlimit="10" stroke-linecap="round" stroke-linejoin="round"/>
<path d="M29.3301 11.8101H32.01" stroke="#0B2343" stroke-linecap="round" stroke-linejoin="round"/>
</svg>
