<svg width="40" height="40" viewBox="0 0 40 40" fill="none" xmlns="http://www.w3.org/2000/svg">
<path d="M25.95 22.9C25.95 26.19 23.28 28.8599 19.99 28.8599C16.7 28.8599 14.03 26.19 14.03 22.9C14.03 19.61 16.7 16.9399 19.99 16.9399C23.28 16.9399 25.95 19.61 25.95 22.9Z" stroke="#0B2343" stroke-miterlimit="10" stroke-linecap="round" stroke-linejoin="round"/>
<path d="M18.29 19.8599V25.5999" stroke="#0B2343" stroke-miterlimit="10" stroke-linecap="round" stroke-linejoin="round"/>
<path d="M18.98 18.8401V19.86" stroke="#0B2343" stroke-miterlimit="10" stroke-linecap="round" stroke-linejoin="round"/>
<path d="M18.98 25.6602V26.6602" stroke="#0B2343" stroke-miterlimit="10" stroke-linecap="round" stroke-linejoin="round"/>
<path d="M20 18.8401V19.86" stroke="#0B2343" stroke-miterlimit="10" stroke-linecap="round" stroke-linejoin="round"/>
<path d="M20 25.6602V26.6602" stroke="#0B2343" stroke-miterlimit="10" stroke-linecap="round" stroke-linejoin="round"/>
<path d="M17.66 19.8599H20.1C22.89 19.9099 22.55 22.7299 20.47 22.7299" stroke="#0B2343" stroke-linecap="round" stroke-linejoin="round"/>
<path d="M17.66 25.6H20.56C22.89 25.57 22.83 22.75 20.86 22.73H18.32" stroke="#0B2343" stroke-linecap="round" stroke-linejoin="round"/>
<path d="M5 10.94V29.94C5 31.03 5.87997 31.91 6.96997 31.91H34.01V13.88H6.96997C5.87997 13.89 5 12.57 5 10.94ZM5 10.94C5 9.32 5.87997 8 6.96997 8H34.01" stroke="#0B2343" stroke-linecap="round" stroke-linejoin="round"/>
<path d="M34.01 10.8901H7.95001" stroke="#0B2343" stroke-miterlimit="10" stroke-linecap="round" stroke-linejoin="round"/>
</svg>
