<svg width="40" height="40" viewBox="0 0 40 40" fill="none" xmlns="http://www.w3.org/2000/svg">
<path d="M31.4117 23.1519H24.0978V24.9916H31.4117V23.1519Z" stroke="#0B2343" stroke-miterlimit="10" stroke-linecap="round" stroke-linejoin="round"/>
<path d="M30.4468 23.1521V21.5288C30.4468 17.4074 27.2813 14.0616 22.5557 14.0616H17.821V13.1958H15.9813V14.0616H8V19.6349H22.5557C23.6289 19.6349 24.72 20.4556 24.9726 21.5288V23.1521" stroke="#0B2343" stroke-miterlimit="10" stroke-linecap="round" stroke-linejoin="round"/>
<path d="M20.8061 7.90184C20.8061 8.43392 20.3912 8.80368 19.8681 8.80368H14.0062C13.4921 8.80368 13.0683 8.43392 13.0683 7.90184C13.0683 7.36975 13.4831 7 14.0062 7H19.8681C20.3822 7 20.8061 7.36975 20.8061 7.90184Z" stroke="#0B2343" stroke-miterlimit="10" stroke-linecap="round" stroke-linejoin="round"/>
<path d="M27.7322 26.8406C27.6962 26.8406 25.7662 29.9429 25.7662 31.0341C25.7662 32.1253 26.65 33.0001 27.7322 33.0001C28.8235 33.0001 29.6982 32.1163 29.6982 31.0341C29.7072 29.9429 27.7683 26.8406 27.7322 26.8406Z" stroke="#0B2343" stroke-miterlimit="10" stroke-linecap="round" stroke-linejoin="round"/>
<path d="M16.9462 8.81274V11.3559" stroke="#0B2343" stroke-miterlimit="10" stroke-linecap="round" stroke-linejoin="round"/>
</svg>
