<svg width="40" height="40" viewBox="0 0 40 40" fill="none" xmlns="http://www.w3.org/2000/svg">
<path d="M35.7247 12.0001C35.7247 21.3469 28.6178 28.9199 19.8623 28.9199C11.1067 28.9199 4.00002 21.3469 4.00002 12.0001" stroke="#0B2343" stroke-miterlimit="10" stroke-linecap="round" stroke-linejoin="round"/>
<path d="M21.3405 12.0002C21.3405 12.8531 20.6924 13.558 19.885 13.558C19.0777 13.558 18.4295 12.8644 18.4295 12.0002H6.91089C6.91089 19.6301 12.71 25.8044 19.8623 25.8044C27.0145 25.8044 32.8137 19.6187 32.8137 12.0002H21.3405Z" stroke="#0B2343" stroke-miterlimit="10" stroke-linecap="round" stroke-linejoin="round"/>
<path d="M19.8509 25.8046V13.5582" stroke="#0B2343" stroke-miterlimit="10" stroke-linecap="round" stroke-linejoin="round"/>
<path d="M28.8225 21.9612L20.6923 13.2966" stroke="#0B2343" stroke-miterlimit="10" stroke-linecap="round" stroke-linejoin="round"/>
<path d="M10.9362 21.9612L19.0664 13.2966" stroke="#0B2343" stroke-miterlimit="10" stroke-linecap="round" stroke-linejoin="round"/>
<path d="M15.6665 14.1833L14.6545 14.7291" stroke="#0B2343" stroke-miterlimit="10" stroke-linecap="round" stroke-linejoin="round"/>
<path d="M21.4087 16.5599L21.9659 17.8335" stroke="#0B2343" stroke-miterlimit="10" stroke-linecap="round" stroke-linejoin="round"/>
</svg>
