<svg width="40" height="40" viewBox="0 0 40 40" fill="none" xmlns="http://www.w3.org/2000/svg">
<path d="M15.7101 18C15.7101 19.93 14.05 21.5 12 21.5" stroke="#0B2343" stroke-linecap="round" stroke-linejoin="round"/>
<path d="M34.26 21.5C32.21 21.5 30.55 19.93 30.55 18" stroke="#0B2343" stroke-linecap="round" stroke-linejoin="round"/>
<path d="M23.13 18C23.13 19.93 21.47 21.5 19.42 21.5C17.37 21.5 15.7101 19.93 15.7101 18" stroke="#0B2343" stroke-linecap="round" stroke-linejoin="round"/>
<path d="M30.55 18C30.55 19.93 28.8901 21.5 26.8401 21.5C24.7901 21.5 23.13 19.93 23.13 18" stroke="#0B2343" stroke-linecap="round" stroke-linejoin="round"/>
<path d="M9.71008 9C9.71008 10.93 8.05 12.5 6 12.5" stroke="#0B2343" stroke-linecap="round" stroke-linejoin="round"/>
<path d="M28.26 12.5C26.21 12.5 24.55 10.93 24.55 9" stroke="#0B2343" stroke-linecap="round" stroke-linejoin="round"/>
<path d="M17.13 9C17.13 10.93 15.47 12.5 13.42 12.5C11.37 12.5 9.71008 10.93 9.71008 9" stroke="#0B2343" stroke-linecap="round" stroke-linejoin="round"/>
<path d="M24.55 9C24.55 10.93 22.8901 12.5 20.8401 12.5C18.7901 12.5 17.13 10.93 17.13 9" stroke="#0B2343" stroke-linecap="round" stroke-linejoin="round"/>
<path d="M9.71008 27C9.71008 28.93 8.05 30.5 6 30.5" stroke="#0B2343" stroke-linecap="round" stroke-linejoin="round"/>
<path d="M28.26 30.5C26.21 30.5 24.55 28.93 24.55 27" stroke="#0B2343" stroke-linecap="round" stroke-linejoin="round"/>
<path d="M17.13 27C17.13 28.93 15.47 30.5 13.42 30.5C11.37 30.5 9.71008 28.93 9.71008 27" stroke="#0B2343" stroke-linecap="round" stroke-linejoin="round"/>
<path d="M24.55 27C24.55 28.93 22.8901 30.5 20.8401 30.5C18.7901 30.5 17.13 28.93 17.13 27" stroke="#0B2343" stroke-linecap="round" stroke-linejoin="round"/>
</svg>
