<svg width="40" height="40" viewBox="0 0 40 40" fill="none" xmlns="http://www.w3.org/2000/svg">
<path d="M28.5086 13.1784L23.0479 9.38953L17.133 23.1456" stroke="#0B2343" stroke-width="0.90859" stroke-linecap="round" stroke-linejoin="round"/>
<path d="M11.7269 6.99976L14.8888 23.1454" stroke="#0B2343" stroke-width="0.90859" stroke-linecap="round" stroke-linejoin="round"/>
<path d="M24.9923 15.0227H11L13.2079 33.1672H22.7844L24.9923 15.0227Z" stroke="#0B2343" stroke-width="0.90859" stroke-linecap="round" stroke-linejoin="round"/>
<path d="M17.4147 26.8253C17.4147 27.2251 17.0876 27.5521 16.6878 27.5521C16.288 27.5521 15.961 27.2251 15.961 26.8253C15.961 26.4255 16.288 26.0984 16.6878 26.0984C17.0876 26.0984 17.4147 26.4255 17.4147 26.8253Z" stroke="#0B2343" stroke-width="0.90859" stroke-linecap="round" stroke-linejoin="round"/>
<path d="M20.6674 24.1357C20.6674 24.6809 20.2223 25.1262 19.6771 25.1262C19.1319 25.1262 18.6868 24.6809 18.6868 24.1357C18.6868 23.5906 19.1319 23.1454 19.6771 23.1454C20.2223 23.1454 20.6674 23.5906 20.6674 24.1357Z" stroke="#0B2343" stroke-width="0.90859" stroke-linecap="round" stroke-linejoin="round"/>
<path d="M11.9813 23.1454H24.0019" stroke="#0B2343" stroke-width="0.90859" stroke-linecap="round" stroke-linejoin="round"/>
</svg>
