<svg width="40" height="40" viewBox="0 0 40 40" fill="none" xmlns="http://www.w3.org/2000/svg">
<path d="M28.6721 9.84082C32.6738 9.84082 36.0703 10.8048 36.0703 17.4857C36.0703 20.9943 33.7724 23.9423 30.6562 24.783" stroke="#0B2343" stroke-linecap="round" stroke-linejoin="round"/>
<path d="M15.2542 24.7606C14.9516 27.1146 14.7386 28.8408 14.7386 28.852C14.7386 30.0739 18.4154 31.0604 22.9441 31.0604C27.4727 31.0604 31.1493 30.0739 31.1493 28.852C31.1493 28.8072 28.6721 9.84082 28.6721 9.84082" stroke="#0B2343" stroke-linecap="round" stroke-linejoin="round"/>
<path d="M7.88965 14.6721L13.4048 21.9471" stroke="#0B2343" stroke-linecap="round" stroke-linejoin="round"/>
<path d="M14.0997 16.5665L9.48145 12.9907" stroke="#0B2343" stroke-linecap="round" stroke-linejoin="round"/>
<path d="M28.6721 9.84082H25.724C24.334 11.7128 21.6437 11.7128 20.2538 9.84082H18.4603C17.7092 9.84082 17.0814 10.4237 16.9805 11.1859C16.9805 11.1859 16.6667 13.6856 16.2631 16.8019" stroke="#0B2343" stroke-linecap="round" stroke-linejoin="round"/>
<path d="M16.2631 16.813L15.2542 24.7605" stroke="#0B2343" stroke-linecap="round" stroke-linejoin="round"/>
<path d="M8.80878 9C10.1315 10.3788 10.1315 12.6206 8.80878 13.9994C7.48606 15.3781 5.33395 15.3781 4.01123 13.9994" stroke="#0B2343" stroke-linecap="round" stroke-linejoin="round"/>
<path d="M4 13.9994C4 13.9994 4.79591 9.71741 8.79769 9" stroke="#0B2343" stroke-linecap="round" stroke-linejoin="round"/>
<path d="M22.944 17.2615C22.9104 17.2615 20.8254 20.6019 20.8254 21.7789C20.8254 22.9559 21.7783 23.8975 22.944 23.8975C24.121 23.8975 25.0625 22.9446 25.0625 21.7789C25.0625 20.6019 22.9777 17.2615 22.944 17.2615Z" stroke="#0B2343" stroke-miterlimit="10" stroke-linecap="round" stroke-linejoin="round"/>
</svg>
