<svg width="40" height="40" viewBox="0 0 40 40" fill="none" xmlns="http://www.w3.org/2000/svg">
<path d="M14.9197 21.8462V10.2443" stroke="#0B2343" stroke-miterlimit="10" stroke-linecap="round" stroke-linejoin="round"/>
<path d="M24.5568 9.96685V21.8462" stroke="#0B2343" stroke-miterlimit="10" stroke-linecap="round" stroke-linejoin="round"/>
<path d="M26.1901 21.8713H13.3296C12.3418 21.8713 11.5396 21.0701 11.5396 20.0814V11.7567C11.5396 10.768 12.3418 9.9667 13.3296 9.9667H26.1901C27.1788 9.9667 27.9801 10.768 27.9801 11.7567V20.0814C27.9801 21.0701 27.1788 21.8713 26.1901 21.8713Z" stroke="#0B2343" stroke-miterlimit="10" stroke-linecap="round" stroke-linejoin="round"/>
<path d="M22.878 8.26709C22.878 7.01506 21.8621 6.00012 20.611 6.00012H18.9101C17.6571 6.00012 16.6422 7.01506 16.6422 8.26709" stroke="#0B2343" stroke-miterlimit="10" stroke-linecap="round" stroke-linejoin="round"/>
<path d="M19.76 34.8716H34L32.5184 24.3352H19.76H7.00159L5.51996 34.8716H19.76Z" stroke="#0B2343" stroke-miterlimit="10" stroke-linecap="round" stroke-linejoin="round"/>
<path d="M26.5307 32.8235C26.3207 29.2614 23.3743 26.4359 19.7597 26.4359C16.1451 26.4359 13.1987 29.2614 12.9897 32.8235H26.5307Z" stroke="#0B2343" stroke-miterlimit="10" stroke-linecap="round" stroke-linejoin="round"/>
<path d="M18.317 32.8235L21.2025 28.9737" stroke="#0B2343" stroke-miterlimit="10" stroke-linecap="round" stroke-linejoin="round"/>
</svg>
