<svg width="40" height="40" viewBox="0 0 40 40" fill="none" xmlns="http://www.w3.org/2000/svg">
<path d="M25.3899 8.90002H29.9399C31.6499 8.90002 33.0399 10.29 33.0399 11.99L31.95 31.77C31.95 33.48 30.56 34.86 28.85 34.86H11.1899C9.47994 34.86 8.08997 33.47 8.08997 31.77L7 11.99C7 10.28 8.38998 8.90002 10.1 8.90002H14.6499" stroke="#0B2343" stroke-linecap="round" stroke-linejoin="round"/>
<path d="M20.0099 14.5699C20.6064 14.5699 21.09 14.0865 21.09 13.49C21.09 12.8935 20.6064 12.41 20.0099 12.41C19.4134 12.41 18.9299 12.8935 18.9299 13.49C18.9299 14.0865 19.4134 14.5699 20.0099 14.5699Z" stroke="#0B2343" stroke-miterlimit="10" stroke-linecap="round" stroke-linejoin="round"/>
<path d="M20.0099 12.41V8.13" stroke="#0B2343" stroke-miterlimit="10" stroke-linecap="round" stroke-linejoin="round"/>
<path d="M26.4299 12.39C26.4299 15.92 23.5599 18.7801 20.0199 18.7801C16.4799 18.7801 13.61 15.92 13.61 12.39C13.61 8.86004 16.4799 6.00003 20.0199 6.00003C23.5499 5.99003 26.4299 8.85004 26.4299 12.39Z" stroke="#0B2343" stroke-linecap="round" stroke-linejoin="round"/>
</svg>
