<svg width="40" height="40" viewBox="0 0 40 40" fill="none" xmlns="http://www.w3.org/2000/svg">
<path d="M15.8214 31.9999V32.7946V34.5892M20.2857 31.9999V32.7946V34.5892M8.23218 27.5356H27.875C28.0238 28.8749 27.5179 31.5535 24.3036 31.5535C21.0893 31.5535 14.3334 31.5535 11.3572 31.5535C10.1667 31.5535 7.87504 30.7499 8.23218 27.5356Z" stroke="#0B2343"/>
<path d="M21.4797 12.0068V9.15541C21.4797 7.50001 20.2162 6 18.5676 6H18.5135C16.8581 6 15.5 7.50001 15.5 9.15541V12.0068" stroke="#0B2343" stroke-miterlimit="10" stroke-linecap="round" stroke-linejoin="round"/>
<path d="M31 11.0222H6V25.2114H31V11.0222Z" stroke="#0B2343" stroke-miterlimit="10" stroke-linecap="round" stroke-linejoin="round"/>
<path d="M16.7745 18.1965L18.1632 16.7616C18.3761 16.5417 18.3703 16.1909 18.1503 15.978C17.9304 15.7651 17.5796 15.7709 17.3667 15.9908L15.8137 17.5956V16.3762C15.8137 16.0701 15.5656 15.822 15.2595 15.822C14.9534 15.822 14.7053 16.0701 14.7053 16.3762V20.0169C14.7053 20.3229 14.9534 20.5711 15.2595 20.5711C15.5656 20.5711 15.8137 20.3229 15.8137 20.0169V18.7975L17.3667 20.4022C17.4754 20.5146 17.6201 20.5711 17.765 20.5711C17.9038 20.5711 18.0427 20.5193 18.1503 20.4151C18.3703 20.2023 18.376 19.8515 18.1632 19.6315L16.7745 18.1965Z" fill="#0B2343"/>
<path d="M21.9342 17.7986H21.1023C20.7963 17.7986 20.5481 18.0468 20.5481 18.3528C20.5481 18.6589 20.7963 18.907 21.1023 18.907H21.3709C21.3181 19.2218 21.0437 19.4624 20.7141 19.4624C20.347 19.4624 20.0482 19.1637 20.0482 18.7965V17.596C20.0482 17.2288 20.347 16.9301 20.7141 16.9301C20.9207 16.9301 21.1122 17.0236 21.2396 17.1869C21.4279 17.4281 21.7762 17.471 22.0175 17.2827C22.2587 17.0944 22.3016 16.7461 22.1133 16.5049C21.7745 16.0708 21.2645 15.8218 20.7142 15.8218C19.7359 15.8218 18.9399 16.6177 18.9399 17.596V18.7966C18.9399 19.7749 19.7359 20.5708 20.7142 20.5708C21.6925 20.5708 22.4884 19.7749 22.4884 18.7966V18.3529C22.4884 18.0468 22.2403 17.7986 21.9342 17.7986Z" fill="#0B2343"/>
</svg>
