<svg xmlns="http://www.w3.org/2000/svg" viewBox="0 0 419 420.9"><title>WhatsApp_Logo1</title><path d="M357.9,61.2A207.6,207.6,0,0,0,210.4,0C95.4,0,1.9,93.6,1.8,208.5A209,209,0,0,0,29.6,312.8L0,420.9l110.6-29a208.69,208.69,0,0,0,99.7,25.4h0.1c114.9,0,208.5-93.6,208.6-208.6A207.26,207.26,0,0,0,357.9,61.2ZM210.4,382.1h0a172.9,172.9,0,0,1-88.3-24.2l-6.3-3.8L50.2,371.3l17.5-64-4.1-6.6a172.59,172.59,0,0,1-26.5-92.2c0-95.6,77.8-173.3,173.4-173.3A173.27,173.27,0,0,1,383.8,208.6C383.7,304.3,305.9,382.1,210.4,382.1Zm95.1-129.9c-5.2-2.6-30.8-15.2-35.6-17s-8.3-2.6-11.7,2.6-13.5,17-16.5,20.4-6.1,3.9-11.3,1.3-22-8.1-41.9-25.9c-15.5-13.8-25.9-30.9-29-36.1s-0.3-8,2.3-10.6c2.3-2.3,5.2-6.1,7.8-9.1s3.5-5.2,5.2-8.7,0.9-6.5-.4-9.1-11.7-28.3-16.1-38.7c-4.2-10.2-8.5-8.8-11.7-8.9-3-.2-6.5-0.2-10-0.2a19.18,19.18,0,0,0-13.9,6.5c-4.8,5.2-18.2,17.8-18.2,43.5s18.7,50.4,21.3,53.9,36.7,56.1,89,78.7a286.93,286.93,0,0,0,29.7,11c12.5,4,23.8,3.4,32.8,2.1,10-1.5,30.8-12.6,35.2-24.8s4.3-22.6,3-24.8S310.7,254.8,305.5,252.2Z"/></svg>