<svg width="12" height="12" viewBox="0 0 12 12" fill="none" xmlns="http://www.w3.org/2000/svg">
<path d="M5.49593 2.36507C6.14836 2.36507 6.67841 1.83563 6.67841 1.18255C6.67841 0.529271 6.14836 0 5.49593 0C4.84275 0 4.31314 0.529271 4.31314 1.18255C4.31314 1.83563 4.84275 2.36507 5.49593 2.36507Z" fill="#0B2343"/>
<path d="M7.32328 9.06586C7.00905 10.1569 6.00319 10.9582 4.81228 10.9582C3.37011 10.9582 2.19729 9.78536 2.19729 8.34363C2.19729 7.27641 2.84113 6.35785 3.75995 5.95195V4.84351C2.25524 5.29672 1.15582 6.69353 1.15582 8.34363C1.15582 10.3596 2.79608 11.9998 4.81225 11.9998C6.28155 11.9998 7.54798 11.1266 8.12866 9.87366L7.71581 9.06252C7.59993 9.06347 7.46568 9.06469 7.32328 9.06586Z" fill="#0B2343"/>
<path d="M10.7686 10.4698L9.18463 7.35568C9.0664 7.12267 8.82742 6.976 8.56599 6.976H6.53727V6.51339H8.28327C8.45762 6.51339 8.60416 6.42227 8.69882 6.29099C8.76034 6.20547 8.8041 6.10613 8.8041 5.99254C8.8041 5.70498 8.57118 5.47175 8.28327 5.47175H7.23138H6.53727V3.9027C6.53727 3.47116 6.21731 2.86108 5.49603 2.86108C4.92078 2.86108 4.45444 3.3275 4.45444 3.9027V7.30219C4.45444 7.889 4.93014 8.36471 5.51698 8.36471H7.42598H8.14026L9.53116 11.0994C9.65338 11.3403 9.8973 11.4793 10.1504 11.4793C10.2565 11.4793 10.3641 11.455 10.4647 11.4035C10.807 11.2299 10.9429 10.8116 10.7686 10.4698Z" fill="#0B2343"/>
</svg>
