<?xml version="1.0" encoding="utf-8"?>
<!-- Generator: Adobe Illustrator 19.0.1, SVG Export Plug-In . SVG Version: 6.00 Build 0)  -->
<!DOCTYPE svg PUBLIC "-//W3C//DTD SVG 1.1//EN" "http://www.w3.org/Graphics/SVG/1.1/DTD/svg11.dtd">
<svg version="1.1" id="Layer_1" xmlns="http://www.w3.org/2000/svg" xmlns:xlink="http://www.w3.org/1999/xlink" x="0px" y="0px"
	 viewBox="0 0 62 50" enable-background="new 0 0 62 50" xml:space="preserve">
<g>
	<g>
		<path d="M31,50c-2.3,0-4.2-1.9-4.2-4.2c0-2.3,1.9-4.2,4.2-4.2s4.2,1.9,4.2,4.2C35.2,48.1,33.3,50,31,50z M31,43.6
			c-1.2,0-2.2,1-2.2,2.2s1,2.2,2.2,2.2c1.2,0,2.2-1,2.2-2.2S32.2,43.6,31,43.6z"/>
	</g>
	<g>
		<path d="M51.2,24.4c-0.3,0-0.5-0.1-0.7-0.3c-5.1-5.4-12-8.4-19.5-8.4l0,0c-7.4,0-14.4,3-19.5,8.4c-0.4,0.4-1,0.4-1.4,0
			c-0.4-0.4-0.4-1,0-1.4c5.5-5.8,12.9-9,20.9-9l0,0c8,0,15.4,3.2,20.9,9c0.4,0.4,0.4,1,0,1.4C51.7,24.3,51.5,24.4,51.2,24.4z"/>
	</g>
	<g>
		<path d="M61,14.7c-0.3,0-0.5-0.1-0.7-0.3C52.5,6.4,42.1,2,31,2C19.8,2,9.4,6.4,1.7,14.4c-0.4,0.4-1,0.4-1.4,0
			c-0.4-0.4-0.4-1,0-1.4C8.4,4.6,19.3,0,31,0c11.7,0,22.6,4.6,30.7,13c0.4,0.4,0.4,1,0,1.4C61.5,14.6,61.3,14.7,61,14.7z"/>
	</g>
	<g>
		<path d="M20.6,34.1c-0.2,0-0.5-0.1-0.7-0.2c-0.4-0.4-0.4-1-0.1-1.4c2.8-3.2,6.9-5,11.2-5c0,0,0,0,0,0c4.3,0,8.3,1.8,11.2,5
			c0.4,0.4,0.3,1-0.1,1.4c-0.4,0.4-1,0.3-1.4-0.1c-2.5-2.8-6-4.4-9.7-4.4c-3.7,0-7.2,1.6-9.7,4.4C21.1,34,20.9,34.1,20.6,34.1z"/>
	</g>
</g>
</svg>
