<svg width="40" height="40" viewBox="0 0 40 40" fill="none" xmlns="http://www.w3.org/2000/svg">
<path d="M20.0001 2C10.0812 2 2 10.0683 2 19.9998C2 29.9188 10.0686 38 20.0001 38C29.919 38 38.0002 29.9188 38.0002 19.9998C37.9876 10.0683 29.919 2 20.0001 2Z" stroke="#0B2343" stroke-miterlimit="10" stroke-linecap="round" stroke-linejoin="round"/>
<path d="M21.3092 29.5538C21.3092 30.2839 20.7176 30.8755 19.9875 30.8755C19.2574 30.8755 18.6658 30.2839 18.6658 29.5538C18.6658 28.8237 19.2574 28.2321 19.9875 28.2321C20.7176 28.2321 21.3092 28.8237 21.3092 29.5538Z" stroke="#0B2343" stroke-miterlimit="10" stroke-linecap="round" stroke-linejoin="round"/>
<path d="M28.2575 20.2767C23.7637 15.3802 16.2112 15.3927 11.7301 20.2767" stroke="#0B2343" stroke-miterlimit="10" stroke-linecap="round" stroke-linejoin="round"/>
<path d="M32.2603 16.1857C25.5512 9.04857 14.4364 9.03598 7.72729 16.1857" stroke="#0B2343" stroke-miterlimit="10" stroke-linecap="round" stroke-linejoin="round"/>
<path d="M15.7329 24.3552C17.9987 21.7244 21.9889 21.7244 24.242 24.3552" stroke="#0B2343" stroke-miterlimit="10" stroke-linecap="round" stroke-linejoin="round"/>
</svg>
