<svg width="40" height="40" viewBox="0 0 40 40" fill="none" xmlns="http://www.w3.org/2000/svg">
<g clip-path="url(#clip0_3316_19722)">
<path d="M14.8 26.6316C16.0632 25.2421 17.8316 24.4211 19.7895 24.4211C21.7474 24.4211 23.5158 25.2421 24.7789 26.6316L19.7895 32L14.8 26.6316ZM12.5263 24.1684C14.3579 22.1474 16.9474 20.9474 19.7895 20.9474C22.6316 20.9474 25.2211 22.2105 27.0526 24.1684L30.1474 20.8842C27.4947 18.0421 23.8316 16.2737 19.7895 16.2737C15.7474 16.2737 12.0842 18.0421 9.43158 20.8842L12.5263 24.1684ZM7.15789 18.4211C10.3789 14.9474 14.8632 12.8 19.7895 12.8C24.7158 12.8 29.2 14.9474 32.4211 18.4211L35.5789 15.0737C31.5368 10.7158 25.9789 8 19.7895 8C13.6 8 8.04211 10.7158 4 15.0105L7.15789 18.4211Z" fill="#0B2343"/>
</g>
<defs>
<clipPath id="clip0_3316_19722">
<rect width="31.5789" height="24" fill="white" transform="translate(4 8)"/>
</clipPath>
</defs>
</svg>
