<svg width="40" height="40" viewBox="0 0 40 40" fill="none" xmlns="http://www.w3.org/2000/svg">
<path d="M18.4315 22.0095L19.0952 33.2283H15.5677L16.1495 23.5187" stroke="#0B2343" stroke-linecap="round" stroke-linejoin="round"/>
<path d="M15.695 19.164C15.3586 18.5185 15.0313 17.3912 14.6222 15.6547C13.5494 11.0818 13.3858 7.2179 14.2586 7.00879C15.1313 6.79969 16.7132 10.3453 17.786 14.9092C18.1861 16.6184 18.3497 17.7367 18.3406 18.464" stroke="#0B2343" stroke-linecap="round" stroke-linejoin="round"/>
<path d="M17.7043 21.6006C17.3588 22.2279 16.6041 23.1097 15.1313 24.4916C11.713 27.71 8.44014 29.7829 7.83101 29.1283C7.22189 28.4737 9.49471 25.3371 12.9131 22.1188C14.0859 21.0096 14.9405 20.3369 15.5587 19.9641" stroke="#0B2343" stroke-linecap="round" stroke-linejoin="round"/>
<path d="M18.8951 19.1641C19.6225 19.2186 20.7043 19.4368 22.3135 19.9278C26.8047 21.2824 30.2413 23.0734 29.9867 23.9371C29.7322 24.7916 25.8773 24.3916 21.3771 23.0461C19.4133 22.4552 18.277 22.0279 17.7042 21.6188" stroke="#0B2343" stroke-linecap="round" stroke-linejoin="round"/>
<path d="M19.0042 19.4823C19.2224 20.4187 18.6406 21.3642 17.7042 21.5824C16.7678 21.8006 15.8222 21.2188 15.6041 20.2824C15.3859 19.346 15.9678 18.4004 16.9042 18.1823C17.8406 17.955 18.786 18.5368 19.0042 19.4823Z" stroke="#0B2343" stroke-miterlimit="10" stroke-linecap="round" stroke-linejoin="round"/>
<path d="M15.195 33.2283H19.4679" stroke="#0B2343" stroke-linecap="round" stroke-linejoin="round"/>
</svg>
