<svg width="40" height="40" viewBox="0 0 40 40" fill="none" xmlns="http://www.w3.org/2000/svg">
<path d="M23.26 32.4788H28.7392" stroke="#0B2343" stroke-miterlimit="10" stroke-linecap="round" stroke-linejoin="round"/>
<path d="M25.9513 28.3099C25.8898 28.2395 24.0779 26.6388 23.5414 25.7594C23.0049 24.8799 22.8467 23.6398 23.0666 22.0303C23.2513 20.6759 23.6734 18.486 23.6734 18.486H28.2468C28.2468 18.486 28.6689 20.6759 28.8536 22.0303C29.0734 23.6398 28.9151 24.8711 28.3786 25.7505C27.8245 26.63 26.0129 28.2395 25.9513 28.3099Z" stroke="#0B2343" stroke-miterlimit="10" stroke-linecap="round" stroke-linejoin="round"/>
<path d="M25.9513 28.3101V32.4788" stroke="#0B2343" stroke-miterlimit="10" stroke-linecap="round" stroke-linejoin="round"/>
<path d="M23.0578 21.9425H28.8448" stroke="#0B2343" stroke-miterlimit="10" stroke-linecap="round" stroke-linejoin="round"/>
<path d="M13.6033 14.0886V7H16.312V14.0886" stroke="#0B2343" stroke-miterlimit="10" stroke-linecap="round" stroke-linejoin="round"/>
<path d="M16.312 14.0885H13.6121C12.372 14.0885 11.0087 15.7771 11.0087 17.0172V31.8893C11.0087 32.2148 11.2814 32.4874 11.6068 32.4874H18.2733C18.6515 32.4874 18.9593 32.1796 18.9593 31.8014V17.3339C18.9505 15.9091 17.7192 14.0885 16.312 14.0885Z" stroke="#0B2343" stroke-miterlimit="10" stroke-linecap="round" stroke-linejoin="round"/>
<path d="M13.6033 9.53308H16.312" stroke="#0B2343" stroke-miterlimit="10" stroke-linecap="round" stroke-linejoin="round"/>
<path d="M14.518 19.3041H11V28.099H14.518V19.3041Z" stroke="#0B2343" stroke-miterlimit="10" stroke-linecap="round" stroke-linejoin="round"/>
</svg>
