<svg width="40" height="40" viewBox="0 0 40 40" fill="none" xmlns="http://www.w3.org/2000/svg">
<path d="M11.9099 25.54C12.0299 25.42 15.6099 22.47 16.6899 20.85C17.7499 19.25 18.0699 16.94 17.6399 14C17.2799 11.52 16.4399 7.01001 16.4399 7.01001H7.38986C7.38986 7.01001 6.54991 11.52 6.18991 14C5.75991 16.94 6.07986 19.24 7.13986 20.85C8.19986 22.47 11.7899 25.42 11.9099 25.54Z" stroke="#0B2343" stroke-miterlimit="10" stroke-linecap="round" stroke-linejoin="round"/>
<path d="M11.9199 25.54V33.01" stroke="#0B2343" stroke-miterlimit="10" stroke-linecap="round" stroke-linejoin="round"/>
<path d="M6.58997 33.01H17.2599" stroke="#0B2343" stroke-miterlimit="10" stroke-linecap="round" stroke-linejoin="round"/>
<path d="M6 17.0898H17.8099" stroke="#0B2343" stroke-miterlimit="10" stroke-linecap="round" stroke-linejoin="round"/>
<path d="M29.8898 17.3101C29.8898 18.6701 30.6198 19.21 31.5098 19.21C32.3998 19.21 33.1299 19.25 33.1299 17.89L32.3199 8.13C32.2199 6.67 31.7898 6 30.8898 6C29.5998 6 29.8898 7.52006 29.8898 17.3101Z" stroke="#0B2343" stroke-miterlimit="10" stroke-linecap="round" stroke-linejoin="round"/>
<path d="M23.88 17.0898V33.0099" stroke="#0B2343" stroke-miterlimit="10" stroke-linecap="round" stroke-linejoin="round"/>
<path d="M23.88 8.12012V13.0402" stroke="#0B2343" stroke-miterlimit="10" stroke-linecap="round" stroke-linejoin="round"/>
<path d="M29.8899 8.12012V33.0802" stroke="#0B2343" stroke-miterlimit="10" stroke-linecap="round" stroke-linejoin="round"/>
<path d="M26.87 8.12012V12.9901" stroke="#0B2343" stroke-miterlimit="10" stroke-linecap="round" stroke-linejoin="round"/>
<path d="M20.8999 8.12012V12.9901" stroke="#0B2343" stroke-miterlimit="10" stroke-linecap="round" stroke-linejoin="round"/>
<path d="M23.84 17.09H23.8899C22.2099 17.09 20.8999 15.57 20.8999 14.15V13.03H26.88V14.15C26.87 15.57 25.52 17.09 23.84 17.09Z" stroke="#0B2343" stroke-miterlimit="10" stroke-linecap="round" stroke-linejoin="round"/>
</svg>
