<svg width="40" height="40" viewBox="0 0 40 40" fill="none" xmlns="http://www.w3.org/2000/svg">
<path d="M17.8226 14.608C16.0103 12.1318 16.5487 10.3016 16.5757 8.33678C16.5757 8.30986 16.782 7.88816 16.7371 7.74461C16.7191 7.68181 16.5845 7.64588 16.5845 7.58307C16.5845 7.37672 16.5935 7 16.5935 7C13.6149 7 17.4907 7 14.5121 7C14.5121 7 14.5121 7.37672 14.5211 7.58307C14.5211 7.64588 14.3865 7.67282 14.3685 7.72665C14.3237 7.8702 14.5301 8.29191 14.5301 8.3278C14.566 10.2836 15.1043 12.1228 13.292 14.599C12.0001 16.3664 12 17.4699 12 17.4699L12.009 32.04C12.009 33.2153 19.1236 33.2063 19.1236 32.04L19.1146 17.4699C19.1236 17.4789 19.1235 16.3754 17.8226 14.608Z" stroke="#0B2343" stroke-miterlimit="10" stroke-linecap="round" stroke-linejoin="round"/>
<path d="M19.1236 21.3368H12.009V28.5231H19.1236V21.3368Z" stroke="#0B2343" stroke-miterlimit="10" stroke-linecap="round" stroke-linejoin="round"/>
<path d="M25.4397 28.7474C25.3769 28.6756 23.5287 27.0427 22.9814 26.1456C22.4341 25.2484 22.2727 23.9834 22.497 22.3416C22.6854 20.9599 23.116 18.726 23.116 18.726H27.7813C27.7813 18.726 28.2119 20.9599 28.4003 22.3416C28.6246 23.9834 28.4631 25.2394 27.9158 26.1366C27.3506 27.0338 25.5025 28.6756 25.4397 28.7474Z" stroke="#0B2343" stroke-miterlimit="10" stroke-linecap="round" stroke-linejoin="round"/>
<path d="M25.4397 28.7474V33" stroke="#0B2343" stroke-miterlimit="10" stroke-linecap="round" stroke-linejoin="round"/>
<path d="M22.6943 33H28.2837" stroke="#0B2343" stroke-miterlimit="10" stroke-linecap="round" stroke-linejoin="round"/>
<path d="M22.4073 24.0552H28.49" stroke="#0B2343" stroke-miterlimit="10" stroke-linecap="round" stroke-linejoin="round"/>
</svg>
