<svg width="40" height="40" viewBox="0 0 40 40" fill="none" xmlns="http://www.w3.org/2000/svg">
<path d="M18.0601 24.8236C18.0601 25.3036 17.6701 25.7036 17.1801 25.7036C16.7001 25.7036 16.3 25.3136 16.3 24.8236C16.3 24.3436 16.6901 23.9436 17.1801 23.9436C17.6701 23.9436 18.0601 24.3336 18.0601 24.8236Z" stroke="#0B2343" stroke-miterlimit="10" stroke-linecap="round" stroke-linejoin="round"/>
<path d="M24.1101 24.8236C24.1101 25.3036 23.7201 25.7036 23.2301 25.7036C22.7401 25.7036 22.3501 25.3136 22.3501 24.8236C22.3501 24.3436 22.7401 23.9436 23.2301 23.9436C23.7201 23.9436 24.1101 24.3336 24.1101 24.8236Z" stroke="#0B2343" stroke-miterlimit="10" stroke-linecap="round" stroke-linejoin="round"/>
<path d="M10.3701 20.7536C10.3701 21.8636 10.56 22.2936 10.9 23.2836C10.31 23.5436 9.90002 24.1336 9.90002 24.8236C9.90002 25.7536 10.6501 26.5135 11.5901 26.5135C11.6001 26.5135 11.6101 26.5135 11.6201 26.5135C11.9701 30.9535 17.0201 34.7036 20.2101 34.7036C23.4901 34.7036 28.46 30.9535 28.8 26.5135C28.81 26.5135 28.8201 26.5135 28.8301 26.5135C29.7601 26.5135 30.52 25.7636 30.52 24.8236C30.52 24.1336 30.11 23.5436 29.52 23.2836C29.86 22.2836 30.05 21.7936 30.05 20.6836" stroke="#0B2343" stroke-linecap="round" stroke-linejoin="round"/>
<path d="M13.4601 21.3736L13.2201 23.9536C13.2201 23.9536 12.3 22.6836 10.9 23.3036" stroke="#0B2343" stroke-miterlimit="10" stroke-linecap="round" stroke-linejoin="round"/>
<path d="M26.9901 21.2935L27.2301 23.9436C27.2301 23.9436 28.15 22.6735 29.55 23.2935" stroke="#0B2343" stroke-miterlimit="10" stroke-linecap="round" stroke-linejoin="round"/>
<path d="M16.79 28.5236C17.13 28.8536 18.6701 29.7136 20.1801 28.0636C21.7001 29.7236 23.2401 28.8436 23.5701 28.5236" stroke="#0B2343" stroke-miterlimit="10" stroke-linecap="round" stroke-linejoin="round"/>
<path d="M34.3501 19.5135C34.3501 19.5135 28.1 16.9736 27.4 11.7236C26.7 6.47355 24.1 3.95355 21.65 8.00355C20.99 9.09355 19.3601 9.09355 18.7001 8.00355C16.2501 3.95355 13.6501 6.47355 12.9501 11.7236C12.2501 16.9736 6 19.5135 6 19.5135C20.61 24.5735 34.3501 19.5135 34.3501 19.5135Z" stroke="#0B2343" stroke-miterlimit="10" stroke-linecap="round" stroke-linejoin="round"/>
<path d="M12.5601 17.1336C18.5901 18.2236 24.13 17.7236 27.65 17.1336" stroke="#0B2343" stroke-miterlimit="10" stroke-linecap="round" stroke-linejoin="round"/>
<path d="M19.29 31.2136H21.13" stroke="#0B2343" stroke-miterlimit="3.864" stroke-linecap="round" stroke-linejoin="round"/>
</svg>
