<svg width="40" height="40" viewBox="0 0 40 40" fill="none" xmlns="http://www.w3.org/2000/svg">
<path d="M38.1091 31.5745C31.9897 29.2945 25.2021 29.4124 24.6387 27.6566V25.0097C30.7449 24.9965 33.169 23.0965 33.169 23.0965C30.6139 21.7076 29.8145 11.9586 29.8145 11.9586C29.8145 6.9138 25.9096 2 19.9869 2C14.4179 2 10.1593 6.59931 10.1593 11.9586C10.1593 11.9586 9.34697 21.7076 6.8049 23.0965C6.8049 23.0965 9.22905 24.9965 15.3353 25.0097V27.6566C14.7718 29.4124 7.97108 29.2945 1.86487 31.5745C1.34073 31.771 1 32.2559 1 32.8062V37.4317C1 38.1524 1.6028 38.7421 2.34969 38.7421H37.6503C38.3972 38.7421 39 38.1524 39 37.4317V32.8062C38.9738 32.2559 38.6332 31.7579 38.1091 31.5745Z" stroke="#0B2343" stroke-miterlimit="10" stroke-linecap="round" stroke-linejoin="round"/>
</svg>
