<svg width="40" height="40" viewBox="0 0 40 40" fill="none" xmlns="http://www.w3.org/2000/svg">
<path d="M21.72 34.3601V26.8401H25.66L22.6 19.99L23.2 17.0801C23.37 12.2101 22.96 12.49 22.88 12.42C22.67 12.36 22.44 12.3301 22.2 12.3301L20.33 14.17L18.46 12.3301C18.22 12.3301 18 12.36 17.78 12.42C17.7 12.48 17.28 12.2101 17.46 17.0801L18.06 19.99L15 26.8401H18.94V34.3601" stroke="#0B2343" stroke-miterlimit="10" stroke-linecap="round" stroke-linejoin="round"/>
<path d="M22.2 8.08008C22.2 9.07008 21.36 10.4601 20.33 10.4601C19.3 10.4601 18.46 9.07008 18.46 8.08008C18.46 7.09008 19.3 6.28003 20.33 6.28003C21.36 6.28003 22.2 7.08008 22.2 8.08008Z" stroke="#0B2343" stroke-miterlimit="10" stroke-linecap="round" stroke-linejoin="round"/>
</svg>
