<svg width="40" height="40" viewBox="0 0 40 40" fill="none" xmlns="http://www.w3.org/2000/svg">
<path d="M26.9898 34.3601V26.8401H30.9298L27.8698 19.99L28.4698 17.0801C28.6398 12.2101 28.2298 12.49 28.1498 12.42C27.9398 12.36 27.7098 12.3301 27.4698 12.3301L25.5998 14.17L23.7298 12.3301C23.4898 12.3301 23.2698 12.36 23.0498 12.42C22.9698 12.48 22.5498 12.2101 22.7298 17.0801L23.3298 19.99L20.2698 26.8401H24.2098V34.3601" stroke="#0B2343" stroke-miterlimit="10" stroke-linecap="round" stroke-linejoin="round"/>
<path d="M14.0798 34.4601V24.53" stroke="#0B2343" stroke-miterlimit="10" stroke-linecap="round" stroke-linejoin="round"/>
<path d="M15.9299 7.80005C15.9299 8.79005 15.0998 10.1801 14.0798 10.1801C13.0598 10.1801 12.2299 8.79005 12.2299 7.80005C12.2299 6.81005 13.0598 6 14.0798 6C15.0998 6.01 15.9299 6.81005 15.9299 7.80005Z" stroke="#0B2343" stroke-miterlimit="10" stroke-linecap="round" stroke-linejoin="round"/>
<path d="M27.4698 8.08008C27.4698 9.07008 26.6299 10.4601 25.5999 10.4601C24.5699 10.4601 23.7299 9.07008 23.7299 8.08008C23.7299 7.09008 24.5699 6.28003 25.5999 6.28003C26.6299 6.28003 27.4698 7.08008 27.4698 8.08008Z" stroke="#0B2343" stroke-miterlimit="10" stroke-linecap="round" stroke-linejoin="round"/>
<path d="M11.3699 34.4601L10.9598 22.13C10.9498 21.87 10.0998 22.2101 10.0898 21.9601C9.73984 12.9201 10.5199 12.0501 10.5999 11.9801C10.6999 11.9501 11.5499 11.9301 11.7999 11.9101C12.1399 11.8901 12.4398 12.09 12.5898 12.39C13.1498 13.44 15.0198 13.44 15.5698 12.39C15.7298 12.09 16.0199 11.8901 16.3599 11.9101C16.6099 11.9301 17.4599 11.9501 17.5599 11.9801C17.6499 12.0501 18.4198 12.9201 18.0698 21.9601C18.0598 22.2001 17.2098 21.87 17.1998 22.13L16.7299 34.4601" stroke="#0B2343" stroke-miterlimit="10" stroke-linecap="round" stroke-linejoin="round"/>
</svg>
