<svg width="40" height="40" viewBox="0 0 40 40" fill="none" xmlns="http://www.w3.org/2000/svg">
<path d="M25.29 21.8701C25.29 22.6701 24.64 23.78 23.85 23.78C23.06 23.78 22.41 22.6701 22.41 21.8701C22.41 21.0701 23.06 20.4299 23.85 20.4299C24.64 20.4299 25.29 21.0801 25.29 21.8701Z" stroke="#0B2343" stroke-miterlimit="10" stroke-linecap="round" stroke-linejoin="round"/>
<path d="M26.08 28.8901C26.08 30.5101 25.08 34.0901 23.84 34.0901C22.6 34.0901 21.6 30.5101 21.6 28.8901C21.6 27.2701 22.6 25.95 23.84 25.95C25.08 25.95 26.08 27.2701 26.08 28.8901Z" stroke="#0B2343" stroke-miterlimit="10" stroke-linecap="round" stroke-linejoin="round"/>
<path d="M22.2 16.8C22.37 11.93 21.96 12.2101 21.88 12.1401C21.67 12.0801 21.44 12.05 21.2 12.05L19.33 13.8901L17.46 12.05C17.22 12.05 17 12.0801 16.78 12.1401C16.7 12.2001 16.28 11.93 16.46 16.8L17.0601 19.71L14 26.5601H17.9401V34.0801" stroke="#0B2343" stroke-miterlimit="10" stroke-linecap="round" stroke-linejoin="round"/>
<path d="M21.2 7.80005C21.2 8.79005 20.36 10.1799 19.33 10.1799C18.3 10.1799 17.46 8.79005 17.46 7.80005C17.46 6.81005 18.3 6 19.33 6C20.36 6 21.2 6.80005 21.2 7.80005Z" stroke="#0B2343" stroke-miterlimit="10" stroke-linecap="round" stroke-linejoin="round"/>
</svg>
