<svg width="40" height="40" viewBox="0 0 40 40" fill="none" xmlns="http://www.w3.org/2000/svg">
<path d="M10.53 20.4199C10.53 21.5299 10.72 22.3999 11.05 23.3899C10.47 23.6499 10.0601 24.2399 10.0601 24.9199C10.0601 25.8499 10.81 26.5999 11.74 26.5999C11.75 26.5999 11.76 26.5999 11.77 26.5999C12.12 31.0199 17.1401 34.7499 20.3201 34.7499C23.5801 34.7499 28.52 31.0199 28.87 26.5999C28.88 26.5999 28.89 26.5999 28.9 26.5999C29.83 26.5999 30.5801 25.8499 30.5801 24.9199C30.5801 24.2399 30.17 23.6499 29.59 23.3899C29.93 22.3999 30.11 21.5299 30.11 20.4199" stroke="#0B2343" stroke-linecap="round" stroke-linejoin="round"/>
<path d="M13.6 21.25L13.36 24.04C13.36 24.04 12.45 22.78 11.05 23.39" stroke="#0B2343" stroke-miterlimit="10" stroke-linecap="round" stroke-linejoin="round"/>
<path d="M27.05 21.2L27.29 24.0399C27.29 24.0399 28.21 22.78 29.6 23.39" stroke="#0B2343" stroke-miterlimit="10" stroke-linecap="round" stroke-linejoin="round"/>
<path d="M16.8201 8.42993C13.1001 9.46993 10.8101 12.4399 10.0601 16.1499C8.93006 16.1499 8 17.0799 8 18.2099C8 19.3399 8.87006 19.8899 10.0601 20.2699C20.6301 23.9899 30.5601 20.2699 30.5601 20.2699C31.6901 19.9299 32.62 19.3399 32.62 18.2099C32.62 17.0799 31.6901 16.1499 30.5601 16.1499C29.8101 12.4499 27.56 9.46993 23.84 8.42993" stroke="#0B2343" stroke-miterlimit="10" stroke-linecap="round" stroke-linejoin="round"/>
<path d="M21.46 15.82H19.21C17.9 15.82 16.8301 14.75 16.8301 13.44V8.38C16.8301 7.07 17.9 6 19.21 6H21.46C22.77 6 23.84 7.07 23.84 8.38V13.44C23.84 14.76 22.77 15.82 21.46 15.82Z" stroke="#0B2343" stroke-miterlimit="10" stroke-linecap="round" stroke-linejoin="round"/>
<path d="M19.0701 29.95H21.61" stroke="#0B2343" stroke-miterlimit="3.864" stroke-linecap="round" stroke-linejoin="round"/>
</svg>
