<svg width="40" height="40" viewBox="0 0 40 40" fill="none" xmlns="http://www.w3.org/2000/svg">
<path d="M38.0351 20.0103C38.0351 10.0748 29.9809 2.0204 20.0454 2.0204C10.1099 2.0204 2.05553 10.0748 2.05553 20.0103C2.05553 29.9458 10.1099 38 20.0454 38C29.9809 38 38.0351 29.9458 38.0351 20.0103Z" stroke="#0B2343" stroke-linecap="round" stroke-linejoin="round"/>
<path d="M20.0895 2C25.0581 2 29.0905 10.0523 29.0905 19.9896C29.0905 29.9269 25.0581 37.9791 20.0895 37.9791" stroke="#0B2343" stroke-linecap="round" stroke-linejoin="round"/>
<path d="M19.9396 2C14.9709 2 10.9384 10.0523 10.9384 19.9896C10.9384 29.9269 14.9709 37.9791 19.9396 37.9791" stroke="#0B2343" stroke-linecap="round" stroke-linejoin="round"/>
<path d="M19.3279 2V37.9791" stroke="#0B2343" stroke-linecap="round" stroke-linejoin="round"/>
<path d="M37.9666 20.7144H2" stroke="#0B2343" stroke-linecap="round" stroke-linejoin="round"/>
<path d="M36.6184 13.0984H3.37325" stroke="#0B2343" stroke-linecap="round" stroke-linejoin="round"/>
<path d="M36.0191 28.1794H3.97241" stroke="#0B2343" stroke-linecap="round" stroke-linejoin="round"/>
</svg>
