<svg width="40" height="40" viewBox="0 0 40 40" fill="none" xmlns="http://www.w3.org/2000/svg">
<path d="M19.9999 38C29.9411 38 38 29.9412 38 20.0001C38 10.0589 29.9411 2 19.9999 2C10.0588 2 2 10.0589 2 20.0001C2 29.9412 10.0588 38 19.9999 38Z" stroke="#0B2343" stroke-linecap="round" stroke-linejoin="round"/>
<path d="M8.27443 9.60903C8.27443 9.60903 5.86683 15.1351 8.78576 14.0998C10.9438 13.3389 11.1309 12.4531 11.1309 12.4531L12.4033 10.2327C12.4033 10.2327 12.5903 13.3389 12.8523 13.7755C13.1018 14.2245 14.1247 15.4843 14.499 13.713C15.1975 10.4573 15.3098 9.53427 16.5197 9.53427C17.7297 9.53427 20.1996 8.58618 20.4491 11.4926C20.6986 14.4115 20.1995 12.6902 18.6153 13.4511C17.0311 14.212 16.657 16.869 18.104 17.1808C19.0021 17.3804 20.5863 17.9542 21.684 18.3658C25.2141 19.713 25.3263 23.6175 25.3263 27.0603C25.3263 27.0603 25.3888 31.0519 26.8483 30.1039C28.3077 29.1559 32.2994 22.9438 31.4761 20.6112C30.6528 18.2661 30.5904 18.0166 32.1123 17.1933C33.6341 16.37 34.7069 15.3596 34.6445 14.212" stroke="#0B2343" stroke-linecap="round" stroke-linejoin="round"/>
<path d="M5.29317 24.5537C5.29317 24.5537 5.74213 19.5266 6.75253 20.3249C7.76292 21.1233 8.21199 21.1233 9.09765 22.0089C9.98331 22.8946 13.7879 23.406 12.5155 24.5412C11.2432 25.6763 10.7568 25.6138 9.03537 30.6783" stroke="#0B2343" stroke-linecap="round" stroke-linejoin="round"/>
</svg>
