<svg width="40" height="40" viewBox="0 0 40 40" fill="none" xmlns="http://www.w3.org/2000/svg">
<path d="M32.0451 15.2023C32.0451 19.7323 28.3729 23.4045 23.8429 23.4045C19.3129 23.4045 15.6407 19.7323 15.6407 15.2023C15.6407 10.6722 19.3129 7.00002 23.8429 7.00002C28.3633 6.99038 32.0451 10.6626 32.0451 15.2023Z" stroke="#0B2343" stroke-linecap="round" stroke-linejoin="round"/>
<path d="M18.7539 10.7009C18.7539 10.7009 17.7129 13.0912 18.9756 12.6479C19.9105 12.3202 19.9876 11.9346 19.9876 11.9346L20.537 10.9708C20.537 10.9708 20.6237 12.3106 20.7297 12.5034C20.8358 12.6962 21.2791 13.2455 21.443 12.4744C21.7418 11.0672 21.7996 10.6625 22.3201 10.6625C22.8405 10.6625 23.9104 10.248 24.0261 11.5106C24.1321 12.7732 23.92 12.031 23.2357 12.3587C22.5514 12.6864 22.3875 13.8431 23.014 13.9781C23.6405 14.113 25.067 14.6913 25.067 14.6913L25.7802 15.4817C26.185 17.0431 26.1368 17.0141 26.1368 18.2478C26.1368 18.2478 26.1658 19.9732 26.7923 19.5684C27.4187 19.1539 29.1536 16.4744 28.797 15.4528C28.4404 14.4407 28.4115 14.325 29.0669 13.9684C29.7223 13.6118 30.1946 13.178 30.1657 12.6768" stroke="#0B2343" stroke-linecap="round" stroke-linejoin="round"/>
<path d="M17.472 17.1684C17.472 17.1684 17.6648 14.99 18.0985 15.337C18.5322 15.684 18.725 15.684 19.1105 16.0695C19.496 16.4551 21.1346 16.6769 20.5948 17.1684C20.0454 17.66 19.8334 17.6308 19.0912 19.8284" stroke="#0B2343" stroke-linecap="round" stroke-linejoin="round"/>
<path d="M25.9152 29.4187L31.0717 26.8934C32.9415 25.9777 34.1174 28.9271 32.3439 29.7945C24.508 33.6306 25.1248 33.6499 22.0116 33.6499C20.2093 33.6499 17.5298 33.3414 14.1082 31.7029C13.0384 31.1921 10.9854 32.021 8.48906 32.7053C7.70836 32.9174 6.90838 32.4162 6.6867 31.5777C6.53248 30.9705 5.90599 28.8885 6.01201 28.3295C6.13731 27.6452 6.6385 27.1538 7.23608 27.0477C9.2023 26.7104 15.1684 25.438 18.3394 26.4404L24.961 28.5318C26.8501 29.1294 26.0116 32.2042 24.1224 31.6066L17.1636 29.4187" stroke="#0B2343" stroke-linecap="round" stroke-linejoin="round"/>
</svg>
