<svg width="40" height="40" viewBox="0 0 40 40" fill="none" xmlns="http://www.w3.org/2000/svg">
<path d="M30.759 20.8524C31.135 22.0808 31.3731 23.397 31.3731 24.7633C31.3731 32.071 25.4692 38.0001 18.1865 38.0001C10.9038 38.0001 5 32.071 5 24.7633C5 17.4555 10.9038 11.5266 18.1865 11.5266C18.6378 11.5266 19.0891 11.5516 19.5403 11.5892" stroke="#0B2343" stroke-width="0.973197" stroke-linecap="round" stroke-linejoin="round"/>
<path d="M9.60019 17.1167C9.60019 17.1167 7.83278 21.178 9.97622 20.4259C11.5556 19.8618 11.6935 19.21 11.6935 19.21L12.621 17.5804C12.621 17.5804 12.7589 19.8619 12.947 20.1878C13.135 20.5137 13.8746 21.4412 14.1503 20.1376C14.6643 17.7434 14.752 17.0665 15.6294 17.0665C16.5069 17.0665 18.3244 16.3646 18.5124 18.508C18.7004 20.6515 18.3244 19.398 17.1712 19.9495C16.018 20.5136 15.7297 22.4691 16.7951 22.6947C17.8606 22.9329 20.2673 23.9106 20.2673 23.9106C20.2673 23.9106 22.1601 25.1264 22.0723 29.9648C22.0723 29.9648 22.1225 32.898 23.1879 32.196C23.7269 31.8451 24.7422 30.4913 25.5444 29.0247" stroke="#0B2343" stroke-width="0.973197" stroke-linecap="round" stroke-linejoin="round"/>
<path d="M35.2589 10.0097C35.2589 14.4345 27.2868 26.5932 27.2868 26.5932C27.2868 26.5932 19.3147 14.422 19.3147 10.0097C19.3147 5.58496 22.8871 2 27.2868 2C31.699 2 35.2589 5.58496 35.2589 10.0097Z" stroke="#0B2343" stroke-width="0.973197" stroke-miterlimit="10" stroke-linecap="round" stroke-linejoin="round"/>
<path d="M27.2868 12.2405C25.7199 12.2405 24.4539 10.9619 24.4539 9.39507C24.4539 7.81569 25.7199 6.5498 27.2868 6.5498C28.8536 6.5498 30.1197 7.82822 30.1197 9.39507C30.1322 10.9619 28.8536 12.2405 27.2868 12.2405Z" stroke="#0B2343" stroke-width="0.973197" stroke-miterlimit="10" stroke-linecap="round" stroke-linejoin="round"/>
</svg>
