<?xml version="1.0" encoding="utf-8"?>
<!-- Generator: Adobe Illustrator 19.1.0, SVG Export Plug-In . SVG Version: 6.00 Build 0)  -->
<svg version="1.1" id="Layer_1" xmlns="http://www.w3.org/2000/svg" xmlns:xlink="http://www.w3.org/1999/xlink" x="0px" y="0px"
	 viewBox="0 0 57 43" enable-background="new 0 0 57 43" xml:space="preserve">
<g>
	<g>
		<path fill="#221F1F" d="M56.4,9.3c0,0-0.6-4.2-2.3-6.1c-2.2-2.4-4.6-2.4-5.7-2.6C40.5,0,28.5,0,28.5,0h0c0,0-12,0-19.9,0.6
			C7.4,0.8,5,0.8,2.8,3.2C1.1,5.1,0.6,9.3,0.6,9.3S0,14.2,0,19.2v4.6c0,4.9,0.6,9.9,0.6,9.9s0.6,4.2,2.3,6.1c2.2,2.4,5,2.4,6.3,2.6
			c4.6,0.5,19.4,0.6,19.4,0.6s12,0,20-0.6c1.1-0.1,3.5-0.2,5.7-2.6c1.7-1.9,2.3-6.1,2.3-6.1s0.6-4.9,0.6-9.9v-4.6
			C57,14.2,56.4,9.3,56.4,9.3z M22.6,29.4l0-17.2L38,20.9L22.6,29.4z"/>
	</g>
</g>
</svg>
