<svg width="40" height="40" viewBox="0 0 40 40" fill="none" xmlns="http://www.w3.org/2000/svg">
<path fill-rule="evenodd" clip-rule="evenodd" d="M35.384 6.83549C37.1002 7.30968 38.455 8.66453 38.9066 10.3807C39.7421 13.4968 39.7421 20.0001 39.7421 20.0001C39.7421 20.0001 39.7421 26.5033 38.9292 29.6195C38.455 31.3582 37.1228 32.713 35.4066 33.1646C32.2905 34.0001 19.8711 34.0001 19.8711 34.0001C19.8711 34.0001 7.45165 34.0001 4.35809 33.1646C2.64195 32.6905 1.2871 31.3356 0.835488 29.6195C0 26.5033 0 20.0001 0 20.0001C0 20.0001 0 13.4968 0.812907 10.3807C1.2871 8.64195 2.61937 7.2871 4.33551 6.83549C7.45165 6 19.8711 6 19.8711 6C19.8711 6 32.2905 6 35.384 6.83549ZM26.1935 20.0001L15.8064 25.9163V14.084L26.1935 20.0001Z" fill="#FAFCFE"/>
</svg>
